<?xml version="1.0" encoding="UTF-8"?> <svg xmlns="http://www.w3.org/2000/svg" width="222" height="245" viewBox="0 0 222 245" fill="none"><path d="M209.081 40H12.9188C5.77948 40 0 33.9496 0 26.8908V12.7731C0 5.71429 5.77948 0 12.9188 0H209.081C216.221 0 222 5.71429 222 12.7731V27.2269C222 33.9496 216.221 40 209.081 40ZM12.9188 6.38655C9.51914 6.38655 6.79939 9.41177 6.79939 12.7731V27.2269C6.79939 30.5882 9.51914 33.2773 12.9188 33.2773H209.081C212.481 33.2773 215.201 30.5882 215.201 27.2269V12.7731C215.201 9.41177 212.481 6.72269 209.081 6.72269H12.9188V6.38655Z" fill="black"></path><path d="M194.042 13.5924C194.042 13.2526 194.381 13.2526 194.381 13.2526C194.721 13.2526 194.721 13.2526 194.721 13.5924V18.6895H200.148C200.488 18.6895 200.488 19.0293 200.488 19.0293C200.488 19.3691 200.488 19.3691 200.148 19.3691H195.06V24.4661C195.06 25.1458 194.721 25.1458 194.721 25.1458C194.381 25.1458 194.381 25.1458 194.381 24.806V19.7089H189.293C188.954 19.7089 188.954 19.3691 188.954 19.3691C188.954 19.0293 188.954 19.0293 189.293 19.0293H194.381V13.5924H194.042Z" fill="black"></path><path d="M194.72 26.8446C193.363 26.8446 192.685 25.8252 192.685 24.8058V21.4077H189.292C187.935 21.4077 187.257 20.3883 187.257 19.3689C187.257 18.0097 188.275 17.3301 189.292 17.3301H192.685V13.932C192.685 12.5728 193.702 11.8932 194.72 11.8932C195.738 11.8932 196.755 12.233 196.755 13.5922V16.9903H200.148C201.505 16.9903 202.183 18.0097 202.183 19.0291C202.183 20.3883 201.165 21.0679 200.148 21.0679H196.755V24.466C196.755 26.165 195.738 26.8446 194.72 26.8446Z" fill="black"></path><path d="M209.081 245H12.9188C5.77948 245 0 239.286 0 232.227V217.773C0 210.714 5.77948 205 12.9188 205H209.081C216.221 205 222 210.714 222 217.773V232.227C222 238.95 216.221 245 209.081 245ZM12.9188 211.387C9.51914 211.387 6.79939 214.076 6.79939 217.437V231.891C6.79939 235.252 9.51914 237.941 12.9188 237.941H209.081C212.481 237.941 215.201 235.252 215.201 231.891V217.437C215.201 214.076 212.481 211.387 209.081 211.387H12.9188Z" fill="black"></path><path d="M194.042 218.155C194.042 217.815 194.381 217.815 194.381 217.815C194.721 217.815 194.721 217.815 194.721 218.155V223.252H200.148C200.488 223.252 200.488 223.592 200.488 223.592C200.488 223.932 200.488 223.932 200.148 223.932H195.06V229.029C195.06 229.369 194.721 229.369 194.721 229.369C194.381 229.369 194.381 229.369 194.381 229.029V223.932H189.293C188.954 223.932 188.954 223.592 188.954 223.592C188.954 223.252 188.954 223.252 189.293 223.252H194.381V218.155H194.042Z" fill="black"></path><path d="M194.72 231.408C193.363 231.408 192.685 230.388 192.685 229.369V225.971H189.292C187.935 225.971 187.257 224.951 187.257 223.932C187.257 222.573 188.275 221.893 189.292 221.893H192.685V218.495C192.685 217.136 193.702 216.456 194.72 216.456C195.738 216.456 196.755 217.476 196.755 218.495V221.893H200.148C201.505 221.893 202.183 222.913 202.183 223.932C202.183 225.291 201.165 225.971 200.148 225.971H196.755V229.369C196.755 230.388 195.738 231.408 194.72 231.408Z" fill="black"></path><path d="M209.081 191H12.9188C5.77948 191 0 185.199 0 178.033V59.9668C0 52.8009 5.77948 47 12.9188 47H209.081C216.221 47 222 52.8009 222 59.9668V177.692C222 185.199 216.221 191 209.081 191ZM12.9188 53.8246C9.51914 53.8246 6.79939 56.5545 6.79939 59.9668V177.692C6.79939 181.104 9.51914 183.834 12.9188 183.834H209.081C212.481 183.834 215.201 181.104 215.201 177.692V59.9668C215.201 56.5545 212.481 53.8246 209.081 53.8246H12.9188Z" fill="black"></path><path d="M200.148 66.2622C200.487 66.2622 200.487 66.602 200.487 66.602C200.487 66.9418 200.487 66.9418 200.148 66.9418H188.953C188.614 66.9418 188.614 66.602 188.614 66.602C188.614 66.2622 188.614 66.2622 188.953 66.2622H200.148Z" fill="black"></path><path d="M200.148 68.9806H188.953C187.596 68.9806 186.918 67.9612 186.918 66.9418C186.918 65.5826 187.936 64.903 188.953 64.903H200.148C201.505 64.903 202.183 65.9224 202.183 66.9418C202.523 67.9612 201.505 68.9806 200.148 68.9806Z" fill="black"></path><path d="M218 80H3V87H218V80Z" fill="black"></path><path d="M106.858 72.7187C105.501 73.0585 104.483 74.0779 103.805 75.0973C103.466 75.7769 103.126 76.1167 102.787 76.7963C102.448 77.476 102.448 78.1556 102.448 78.8352V97.8643C101.77 97.1847 101.091 96.1653 99.3949 94.806C98.7164 94.1264 98.038 93.7866 97.3595 93.107C96.681 92.7672 96.0026 92.4274 94.9849 92.4274C94.3064 92.4274 93.6279 92.4274 93.2887 92.7672C92.271 93.107 91.2533 94.1264 90.5748 95.1458C89.8964 96.1653 89.5571 97.1847 89.5571 98.5439C89.5571 99.9031 89.8964 100.923 90.5748 101.942C90.5748 101.942 90.9141 102.282 91.2533 102.622C92.271 103.981 93.9672 107.039 96.0026 109.757C97.6987 112.476 99.3949 115.194 100.752 116.893C100.073 117.913 99.3949 119.272 99.3949 120.631V121.651C99.3949 123.35 100.073 124.709 101.091 125.728C102.109 126.748 103.466 127.427 105.162 127.427H121.784C123.48 127.427 124.837 126.748 125.855 125.728C126.873 124.709 127.551 123.35 127.551 121.651V120.631C127.551 119.272 127.212 118.253 126.194 117.233L130.265 105C130.604 103.981 130.944 102.961 130.944 101.942C130.944 97.8643 128.569 94.4662 124.837 92.7672L115.678 88.6895V78.8352C115.678 77.1361 115 75.4371 113.643 74.0779C112.286 72.7187 110.59 72.0391 108.893 72.0391C108.554 72.3789 107.876 72.3789 106.858 72.7187ZM111.947 76.7963C112.625 77.476 112.964 78.1556 112.964 79.175V89.3692C112.964 90.3886 113.643 91.7478 114.66 92.0876L124.159 96.1653C125.516 96.8449 126.194 97.5245 126.873 98.5439C127.551 99.5633 127.89 100.923 127.89 101.942C127.89 102.622 127.89 103.301 127.551 103.981L123.48 116.554H112.625C112.286 116.554 111.607 116.893 111.607 117.573C111.607 117.913 111.947 118.592 112.625 118.592H122.802V118.932L123.141 119.272C123.48 119.612 123.82 119.612 123.82 119.952C124.159 120.291 124.159 120.631 124.159 120.971V121.99C124.159 122.67 123.82 123.35 123.48 123.69C123.48 123.69 123.141 123.69 122.463 123.69H105.84C105.162 123.69 104.483 123.35 104.144 123.01C103.805 122.67 103.466 121.99 103.466 121.311V120.291C103.466 119.612 103.466 119.272 103.805 118.932C104.144 118.592 104.483 118.253 104.823 118.253L105.501 117.913V116.893V116.554C105.501 116.554 102.787 112.476 100.073 108.398C98.7164 106.359 97.3595 104.321 96.3418 102.622C95.6633 101.942 95.3241 100.923 94.9849 100.583C94.6456 100.243 94.6456 99.9031 94.6456 99.9031C94.6456 99.5633 94.3064 99.5633 94.3064 99.5633C94.3064 99.2235 93.9672 99.2235 93.9672 98.8837C93.9672 98.5439 93.9672 98.5439 93.9672 98.2041C93.9672 97.8643 93.9672 97.5245 93.9672 97.1847C93.9672 96.8449 94.3064 96.1653 94.6456 96.1653L94.9849 95.8255C95.3241 95.8255 95.3241 95.8255 95.6633 95.8255C96.0026 95.8255 96.0026 95.8255 96.3418 96.1653C96.681 96.1653 97.0203 96.5051 97.3595 96.8449C99.0557 98.5439 100.073 99.5633 100.752 100.243C101.43 100.923 101.77 100.923 101.77 100.923C102.448 101.262 103.126 101.602 103.805 101.602C104.144 101.602 104.483 101.602 104.823 101.262C105.84 100.923 106.519 99.9031 106.519 98.5439V78.1556C106.519 77.8158 106.519 77.476 106.858 77.1361C107.197 76.4565 107.536 76.1167 108.215 75.7769C108.893 75.4371 109.233 75.0973 109.911 75.0973C110.25 75.7769 111.268 76.1167 111.947 76.7963Z" fill="#4C4B4C"></path><path d="M112.625 79.8545H106.179V88.6895H112.625V79.8545Z" fill="#EFEBE1"></path></svg> 