<?xml version="1.0" encoding="UTF-8"?> <svg xmlns="http://www.w3.org/2000/svg" width="367" height="244" viewBox="0 0 367 244" fill="none"><path d="M352.96 229.168L352.96 14.1696L184.521 14.1696L184.521 229.168L352.96 229.168Z" fill="#C3B68F"></path><path d="M333.875 243.035H32.8359C14.9169 243.035 0.183594 228.303 0.183594 210.387V33.6104C0.183594 15.6939 14.9169 0.962646 32.8359 0.962646H333.875C351.794 0.962646 366.528 15.6939 366.528 33.6104V210.387C366.528 228.303 351.794 243.035 333.875 243.035ZM32.8359 14.4995C22.4827 14.4995 13.7224 22.8605 13.7224 33.6104V210.387C13.7224 220.739 22.0845 229.498 32.8359 229.498H333.875C344.229 229.498 352.989 221.137 352.989 210.387V33.6104C352.989 23.2587 344.627 14.4995 333.875 14.4995H32.8359V14.4995Z" fill="black"></path><path d="M107.3 172.563C106.106 172.563 104.911 171.368 104.911 170.174V73.4247C104.911 72.2302 106.106 71.0359 107.3 71.0359C108.495 71.0359 109.689 72.2302 109.689 73.4247V170.174C109.689 171.368 108.495 172.563 107.3 172.563Z" fill="black"></path><path d="M107.3 174.553C104.911 174.553 102.92 172.563 102.92 170.174V73.4246C102.92 71.0357 104.911 69.0451 107.3 69.0451C109.689 69.0451 111.68 71.0357 111.68 73.4246V170.174C112.079 172.563 109.689 174.553 107.3 174.553ZM107.3 170.174V172.563V170.174Z" fill="black"></path><path d="M88.9824 155.442L92.168 152.257L107.3 168.581L122.431 152.257L125.617 155.442L107.3 174.951L88.9824 155.442Z" fill="black"></path><path d="M107.3 178.535L85.7969 155.044L92.5662 149.072L107.3 164.997L122.431 149.072L128.803 155.044L107.3 178.535Z" fill="black"></path><path d="M268.57 72.6285C269.765 72.6285 270.959 73.823 270.959 75.0174V171.767C270.959 172.961 269.765 174.156 268.57 174.156C267.375 174.156 266.181 172.961 266.181 171.767V75.0174C266.579 73.4249 267.375 72.6285 268.57 72.6285Z" fill="black"></path><path d="M268.57 176.146C266.18 176.146 264.189 174.156 264.189 171.767V75.0174C264.189 72.6286 266.18 70.6378 268.57 70.6378C270.959 70.6378 272.95 72.6286 272.95 75.0174V171.767C273.348 174.156 271.357 176.146 268.57 176.146ZM268.57 72.6285V75.0174V72.6285Z" fill="black"></path><path d="M286.887 89.749L283.702 92.5361L268.57 76.6103L253.837 92.5361L250.253 89.749L268.57 69.8418L286.887 89.749Z" fill="black"></path><path d="M283.703 95.7208L268.571 79.7951L253.838 95.7208L247.068 89.7486L268.571 66.6564L290.472 89.7486L283.703 95.7208Z" fill="black"></path></svg> 