<?xml version="1.0" encoding="UTF-8"?> <svg xmlns="http://www.w3.org/2000/svg" width="446" height="330" viewBox="0 0 446 330" fill="none"><path d="M207.724 83.6524C206.482 82.8242 206.068 81.5818 206.896 80.7536C206.896 80.7536 207.31 79.9253 208.138 78.683C208.966 77.8547 210.209 77.8547 211.037 78.2688C211.865 79.0971 211.865 80.3395 211.451 81.1677C210.623 81.9959 210.623 82.4101 210.623 82.4101C209.794 83.6524 208.552 84.0666 207.724 83.6524Z" fill="black"></path><path d="M218.901 74.9559C218.487 74.5418 218.073 74.5418 218.073 73.7135C217.659 72.4712 218.073 71.6429 219.316 70.8147C220.558 70.4006 222.214 69.9864 223.457 69.5723C224.699 69.1582 225.527 69.9865 225.941 71.2288C226.356 72.4712 225.527 73.2994 224.285 73.7135C223.043 74.1277 221.8 74.5418 220.558 74.9559C220.144 74.9559 219.316 74.9559 218.901 74.9559Z" fill="black"></path><path d="M290.958 129.206C290.13 128.792 289.716 127.964 289.716 127.135C289.716 125.893 289.716 124.651 289.716 123.408C289.716 122.166 290.544 121.338 291.786 121.338C293.029 121.338 293.857 122.166 293.857 123.408C293.857 125.065 293.857 126.307 293.857 127.549C293.857 128.792 292.615 129.62 291.786 129.62C291.372 129.62 290.958 129.206 290.958 129.206ZM288.888 113.055C288.474 112.641 288.059 112.227 287.645 111.813C287.231 110.57 286.817 109.328 285.989 108.086C285.575 107.257 285.989 106.015 286.817 105.187C287.645 104.773 288.888 105.187 289.716 106.015C290.544 107.257 290.958 108.5 291.372 110.156C291.786 111.399 291.372 112.227 290.13 112.641C289.716 113.469 289.302 113.469 288.888 113.055ZM280.605 98.975C280.191 98.975 280.191 98.5609 279.777 98.5609C278.949 97.7326 278.121 96.4903 277.293 95.662C276.464 94.8338 276.464 93.5914 277.293 92.7632C278.121 91.9349 279.363 91.9349 280.191 92.7632C281.02 94.0055 282.262 94.8338 283.09 96.0761C283.918 96.9044 283.918 98.1468 282.676 98.975C282.262 99.3891 281.019 99.3891 280.605 98.975ZM235.053 73.2994C234.225 72.8853 233.811 72.0571 233.811 71.2288C233.811 69.9865 235.053 69.1582 236.295 69.5723C237.538 69.5723 239.194 69.9864 240.436 70.4006C241.679 70.8147 242.093 71.6429 242.093 72.8853C241.679 74.1277 240.85 74.5418 239.608 74.5418C238.366 74.1277 237.123 74.1277 235.881 73.7135C235.467 73.2994 235.053 73.2994 235.053 73.2994ZM268.182 88.2078C267.354 87.7937 266.94 87.3796 266.111 86.9655L264.455 85.7231C263.627 84.8948 263.213 83.6525 264.041 82.8242C264.869 81.996 266.111 81.5819 266.94 82.4101L268.596 83.6525C269.01 84.0666 269.838 84.4807 270.253 84.8948C271.081 85.7231 271.495 86.9655 270.667 87.7937C270.253 88.2078 269.424 88.6219 268.182 88.2078ZM250.789 77.8548C249.961 77.4406 249.547 76.1983 249.961 74.9559C250.375 73.7136 251.617 73.2994 252.86 73.7135C253.688 74.1277 254.516 74.5418 255.345 74.9559L256.587 75.7842C257.415 76.1983 257.829 77.4406 257.415 78.683C257.001 79.5113 255.759 79.9254 254.516 79.5113L253.274 79.0971C252.446 78.683 251.617 78.2689 250.789 77.8548Z" fill="black"></path><path d="M287.649 143.286C286.821 142.872 286.407 141.63 286.821 140.801C287.235 140.387 287.235 139.559 287.649 139.145C288.063 137.902 289.305 137.488 290.134 137.902C291.376 138.317 291.79 139.559 291.376 140.387C290.962 141.215 290.962 141.63 290.548 142.458C289.72 143.286 288.477 143.7 287.649 143.286Z" fill="black"></path><path d="M278.125 130.863V158.195L301.729 144.529L278.125 130.863Z" fill="black"></path><path d="M138.569 28.5743C154.72 39.7556 170.456 53.8358 175.426 71.643C180.395 89.4503 175.426 110.571 165.487 130.863C155.962 151.154 141.882 171.032 122.833 178.487C103.784 185.941 80.1793 181.385 55.7465 173.931C31.7279 166.477 6.88101 156.538 1.49752 139.559C-4.30008 122.166 8.53744 97.7327 13.5068 72.4713C18.4762 47.2098 15.5774 20.706 26.7585 8.69649C37.9396 -3.31306 63.6147 -0.828323 84.7346 4.55526C105.854 9.52473 122.419 17.393 138.569 28.5743Z" fill="black"></path><path d="M414.367 162.75C430.104 176.83 442.113 194.223 445.012 212.03C447.91 229.838 442.113 248.887 434.659 265.866C427.619 282.845 418.508 298.168 405.671 306.45C392.833 314.319 375.441 315.147 354.735 319.702C334.029 324.257 310.01 332.954 290.547 327.156C271.084 321.359 255.761 301.067 254.105 279.946C252.448 258.826 264.458 237.292 276.467 220.727C288.476 203.748 300.9 192.153 314.566 177.244C328.231 162.336 343.554 144.528 360.947 141.215C378.339 137.488 398.217 148.67 414.367 162.75Z" fill="black"></path></svg> 