<?xml version="1.0" encoding="UTF-8"?> <svg xmlns="http://www.w3.org/2000/svg" width="528" height="106" viewBox="0 0 528 106" fill="none"><path d="M2.02834 53.3223C2.02834 53.3223 -15.3645 0.314605 86.9218 18.9501C104.729 22.2631 96.8606 1.55697 119.223 2.38522C144.07 3.21347 123.778 21.0208 144.484 21.0208C167.26 21.0208 159.806 -0.0995179 174.714 0.314605C194.592 0.314605 189.208 18.9501 215.711 16.8795C289.838 10.6677 215.711 24.7479 311.786 21.8491C322.139 21.4349 315.099 14.3948 338.289 13.5666C348.642 13.1525 361.48 32.6161 389.225 33.8585C399.578 34.2726 406.618 9.42536 420.284 9.42536C443.06 9.42536 435.606 22.263 443.474 21.4348C519.257 15.6371 527.126 22.6773 527.126 22.6773V105.502H2.02834V53.3223Z" fill="black"></path></svg> 