<?xml version="1.0" encoding="UTF-8"?> <svg xmlns="http://www.w3.org/2000/svg" width="352" height="303" viewBox="0 0 352 303" fill="none"><path d="M103.253 12.1223C103.253 12.1223 97.0412 35.7273 103.253 47.3227C109.465 58.9181 122.716 65.5441 122.716 65.5441V45.6662L139.281 55.6052C139.281 55.6052 143.836 38.6261 135.554 28.6872C127.272 18.7483 103.253 12.1223 103.253 12.1223Z" fill="#C3B68F"></path><path d="M181.52 64.3015C181.52 64.3015 200.155 79.624 213.406 78.7958C226.658 77.9675 237.839 68.4427 237.839 68.4427L219.618 60.1603L235.355 49.3931C235.355 49.3931 221.689 38.2118 209.265 41.5248C197.67 44.8378 181.52 64.3015 181.52 64.3015Z" fill="#C3B68F"></path><path d="M86.2734 112.754C86.2734 112.754 90.8286 136.773 102.01 144.227C112.777 152.095 127.685 151.681 127.685 151.681L118.988 133.874L138.038 135.53C138.038 135.53 134.311 118.137 122.715 112.754C111.12 107.784 86.2734 112.754 86.2734 112.754Z" fill="#C3B68F"></path><path d="M324.393 183.569C324.393 183.569 311.141 203.861 313.212 217.112C315.282 230.364 326.049 240.303 326.049 240.303L332.261 221.668L344.684 236.162C344.684 236.162 354.209 221.254 350.068 209.244C345.513 197.235 324.393 183.569 324.393 183.569Z" fill="#C3B68F"></path><path d="M207.611 129.319C207.611 129.319 214.237 152.51 225.832 159.55C237.428 166.176 251.922 164.933 251.922 164.933L241.569 147.954H260.618C260.618 147.954 255.649 130.975 243.639 126.42C231.63 122.279 207.611 129.319 207.611 129.319Z" fill="#C3B68F"></path><path d="M176.965 183.569C176.965 183.569 166.612 205.517 170.753 218.355C174.894 231.193 186.904 239.475 186.904 239.475L190.631 220.011L205.125 232.849C205.125 232.849 212.579 216.698 206.367 205.517C200.155 194.336 176.965 183.569 176.965 183.569Z" fill="#C3B68F"></path><path d="M18.7758 4.66785L15.0488 3.01139C15.4629 1.76904 15.8771 0.940796 15.8771 0.940796L19.6041 3.01139C19.6041 3.01139 19.19 3.42549 18.7758 4.66785Z" fill="black"></path><path d="M305.757 279.645L301.616 278.817C302.03 277.574 302.03 276.332 302.03 274.675L306.171 275.089C306.171 276.746 305.757 278.402 305.757 279.645ZM301.616 254.797C301.202 253.555 301.202 252.313 300.788 250.656L304.929 249.828C305.343 251.07 305.757 252.727 305.757 253.969L301.616 254.797ZM293.748 231.193C293.334 229.95 292.506 228.708 291.677 227.465L295.404 225.395C296.233 226.637 296.647 227.88 297.475 229.122L293.748 231.193ZM280.082 210.901C279.254 210.072 278.426 208.83 277.183 208.002L280.082 205.103C280.91 206.345 282.153 207.173 282.981 208.416L280.082 210.901ZM261.447 194.336C260.204 193.507 258.962 192.679 258.134 191.851L260.205 188.538C261.447 189.366 262.689 190.194 263.932 191.023L261.447 194.336ZM239.913 182.326C238.671 181.912 237.428 181.084 236.186 180.67L237.842 176.943C239.085 177.357 240.327 178.185 241.569 178.599L239.913 182.326ZM216.308 173.215C215.066 172.801 213.824 172.387 212.167 171.973L213.41 167.832C214.652 168.246 216.308 168.66 217.551 169.074L216.308 173.215ZM192.29 166.589C191.047 166.175 189.391 166.175 188.149 165.761L188.977 161.62C190.219 162.034 191.876 162.034 193.118 162.448L192.29 166.589ZM167.443 162.034C165.786 161.62 164.544 161.62 163.302 161.62L163.716 157.479C164.958 157.479 166.615 157.893 167.857 157.893L167.443 162.034ZM138.455 161.62L138.041 157.479C139.697 157.479 140.94 157.479 142.182 157.065L142.596 161.206C141.354 161.206 140.111 161.62 138.455 161.62ZM117.335 161.206C116.093 161.206 114.436 160.792 113.194 160.792L113.608 156.651C114.85 156.651 116.507 157.065 117.749 157.065L117.335 161.206ZM92.074 157.065C90.8317 156.651 89.1752 156.236 87.9329 155.822L89.1752 151.681C90.4175 152.095 92.074 152.509 93.3163 152.509L92.074 157.065ZM67.6413 149.196C66.3989 148.782 65.1566 147.954 63.9143 147.54L65.5707 143.813C66.8131 144.227 68.0554 145.055 69.2977 145.469L67.6413 149.196ZM44.865 137.601C43.6226 136.773 42.3803 135.944 41.138 135.53L43.2086 132.217C44.4509 133.046 45.6932 133.874 46.9356 134.288L44.865 137.601ZM24.1593 122.693C22.9169 121.864 22.0886 120.622 21.2604 119.794L24.1593 116.895C24.9875 117.723 26.2298 118.965 27.058 119.794L24.1593 122.693ZM8.42284 101.986C7.59461 100.744 7.18052 99.5017 6.76641 98.2593L10.4934 96.6028C10.9075 97.8452 11.7359 99.0876 12.15 100.33L8.42284 101.986ZM0.968827 77.5532C0.968827 76.3109 0.554688 74.6544 0.554688 73.412L4.69583 72.9979C4.69583 74.2402 5.10997 75.8967 5.10997 77.1391L0.968827 77.5532ZM4.69583 52.2918L0.554688 51.8776C0.554688 50.6352 0.968827 48.9788 0.968827 47.7364L5.10997 48.1505C5.10997 49.3929 5.10995 51.0494 4.69583 52.2918ZM9.66526 27.8586L5.52411 26.6162C5.93823 25.3738 6.35229 23.7173 6.76641 22.475L10.9076 23.7174C10.4934 25.3738 10.0794 26.6162 9.66526 27.8586Z" fill="black"></path><path d="M297.889 302.007L294.576 299.523C294.576 299.523 294.99 299.109 295.404 297.866L299.131 299.937C298.303 301.593 297.889 302.007 297.889 302.007Z" fill="black"></path></svg> 