<?xml version="1.0" encoding="UTF-8"?> <svg xmlns="http://www.w3.org/2000/svg" width="476" height="304" viewBox="0 0 476 304" fill="none"><path d="M267.104 86.8037C266.69 86.8037 266.69 86.8037 267.104 86.8037C265.861 86.8037 265.033 85.5614 265.033 84.7331C265.033 84.7331 265.033 83.9049 265.447 82.2484C265.861 81.006 266.69 80.5919 267.932 80.5919C269.174 81.006 269.588 81.8343 269.588 83.0766C269.174 84.319 269.174 84.7331 269.174 84.7331C268.76 85.9755 267.932 86.8037 267.104 86.8037Z" fill="black"></path><path d="M272.899 73.9657C272.485 73.9657 272.07 73.9657 271.656 73.5515C270.828 72.7233 270.828 71.4809 271.656 70.6527C272.485 69.4103 273.727 68.5821 274.969 67.7538C275.797 66.9256 277.04 67.3397 277.868 68.168C278.696 68.9962 278.282 70.2386 277.454 71.0668C276.626 71.8951 275.383 72.7233 274.555 73.5515C274.141 73.9657 273.727 73.9657 272.899 73.9657Z" fill="black"></path><path d="M361.522 91.359C360.694 91.359 359.866 90.9448 359.452 90.1166C359.037 88.8742 358.623 87.6319 357.795 86.3895C357.381 85.5613 357.795 84.3189 358.623 83.4906C359.452 83.0765 360.694 83.4906 361.522 84.3189C362.35 85.5613 362.764 86.8036 363.179 88.046C363.593 89.2883 363.179 90.1166 361.936 90.5307C362.35 91.359 361.936 91.359 361.522 91.359ZM352.826 77.6929C352.412 77.6929 351.583 77.6929 351.583 77.2788C350.755 76.4506 349.513 75.6223 348.685 74.7941C347.856 73.9658 347.442 72.7235 348.27 71.8952C349.099 71.067 350.341 70.6529 351.169 71.4811C352.412 72.3093 353.24 73.5517 354.482 74.38C355.31 75.2082 355.31 76.4506 354.482 77.2788C353.654 77.2788 353.24 77.6929 352.826 77.6929ZM339.16 68.5822C338.746 68.5822 338.746 68.5822 338.332 68.5822C337.089 68.1681 335.847 67.754 334.605 67.3399C333.362 66.9258 332.948 65.6834 333.362 64.8551C333.776 63.6128 335.019 63.1987 335.847 63.6128C337.089 64.0269 338.746 64.441 339.988 65.2693C341.23 65.6834 341.645 66.9258 341.23 68.1681C340.816 68.1681 339.988 68.5822 339.16 68.5822ZM286.982 65.2693C286.153 65.2693 285.325 64.8551 284.911 64.0269C284.497 62.7845 285.325 61.9563 286.153 61.5422C287.396 61.128 288.638 60.7139 290.294 60.2998C291.537 59.8857 292.365 60.7139 292.779 61.9563C293.193 63.1987 292.365 64.0269 291.123 64.441C289.88 64.8551 288.638 65.2693 287.396 65.6834C287.396 65.2693 286.982 65.2693 286.982 65.2693ZM323.424 64.441C323.009 64.441 323.009 64.441 323.424 64.441C322.595 64.441 321.767 64.0269 321.353 64.0269L318.868 63.6128C317.626 63.6128 316.798 62.3704 317.212 61.128C317.212 59.8857 318.454 59.0574 319.697 59.4716L321.767 59.8857C322.595 59.8857 323.009 59.8857 323.838 60.2998C325.08 60.2998 325.908 61.5422 325.494 62.7845C325.08 63.6128 324.252 64.441 323.424 64.441ZM302.718 62.7845C301.475 62.7845 300.647 61.9563 300.647 60.7139C300.647 59.4716 301.475 58.6433 302.718 58.6433C303.546 58.6433 304.788 58.6433 305.617 58.6433H306.859C308.101 58.6433 308.93 59.4716 308.93 60.7139C308.93 61.9563 308.101 62.7845 306.859 62.7845H305.617C304.788 62.7845 303.96 62.7845 302.718 62.7845C303.132 62.7845 303.132 62.7845 302.718 62.7845Z" fill="black"></path><path d="M364.834 105.439C363.592 105.439 362.764 104.611 362.764 103.368C362.764 102.54 362.764 102.126 362.764 101.298C362.764 100.055 363.592 99.2271 364.42 98.813C365.662 98.813 366.491 99.6412 366.905 100.469C366.905 101.298 366.905 101.712 366.905 102.54C366.905 104.197 366.077 105.439 364.834 105.439Z" fill="black"></path><path d="M350.752 98.3989L362.761 122.832L378.083 100.055L350.752 98.3989Z" fill="black"></path><path d="M215.34 129.044C215.34 135.67 209.956 140.639 203.744 140.639H11.5952C4.96937 140.639 0 135.256 0 129.044V12.2616C0 5.6356 5.38349 0.666138 11.5952 0.666138H203.744C210.37 0.666138 215.34 6.04972 215.34 12.2616V129.044V129.044Z" fill="#727171"></path><path d="M475.406 292.208C475.406 298.834 470.022 303.803 463.811 303.803H271.662C265.036 303.803 260.066 298.42 260.066 292.208V175.011C260.066 168.385 265.45 163.416 271.662 163.416H463.811C470.437 163.416 475.406 168.8 475.406 175.011V292.208Z" fill="black"></path></svg> 