<?xml version="1.0" encoding="UTF-8"?> <svg xmlns="http://www.w3.org/2000/svg" width="442" height="110" viewBox="0 0 442 110" fill="none"><path d="M280.393 84.8645C278.736 84.8645 276.666 84.8645 275.009 84.8645C234.84 83.6221 205.024 70.7843 176.45 57.9465C148.704 45.9369 123.029 34.7554 90.7282 35.5837C26.9545 38.0684 4.17818 82.7938 4.17818 83.2079L0.451172 81.5516C0.865286 81.1374 24.4698 33.9272 90.7282 31.4425C123.857 30.2001 150.361 41.7957 178.106 53.8052C206.68 66.2289 235.668 79.0666 275.423 80.309C352.863 82.7937 438.17 32.2707 438.999 31.4425L441.069 35.1697C439.827 35.9979 357.418 84.8645 280.393 84.8645Z" fill="#727171"></path><path d="M280.393 109.297C278.736 109.297 276.666 109.297 275.009 109.297C234.84 108.055 205.024 95.2172 176.45 82.3794C148.704 70.3699 123.029 59.1888 90.7282 60.017C27.3686 62.5018 4.17818 107.227 4.17818 107.641L0.451172 105.984C0.865286 105.57 24.4698 58.3605 90.7282 55.8758C123.857 54.6334 150.361 66.2287 178.106 78.2382C206.68 90.6619 235.668 103.5 275.423 104.742C352.863 107.227 438.17 56.7041 438.999 55.8758L441.069 59.6028C439.827 60.431 357.418 109.297 280.393 109.297Z" fill="#727171"></path><path d="M280.393 60.4307C278.736 60.4307 276.666 60.4307 275.009 60.4307C234.84 59.1883 205.024 46.3505 176.45 33.5128C148.704 21.5033 123.029 9.9079 90.7282 11.5644C27.3686 14.0491 4.17818 58.7742 4.17818 59.1884L0.451172 57.5318C0.865286 57.1176 24.4698 9.9079 90.7282 7.42317C123.857 6.18081 150.361 17.7763 178.106 29.7858C206.68 42.2095 235.668 55.0471 275.423 56.2895C352.863 58.7742 438.17 8.25142 438.999 7.42317L441.069 11.1504C439.827 11.5645 357.418 60.4307 280.393 60.4307Z" fill="#727171"></path><path d="M346.237 78.6523C315.592 78.6523 290.331 67.4711 263.414 55.8757C234.84 43.4521 205.852 30.6142 166.097 29.3719C164.441 29.3719 162.37 29.3719 160.714 29.3719C84.5164 29.3719 3.34997 77.8239 2.52174 78.2381L0.451172 74.5111C1.2794 74.097 87.4152 22.7459 166.097 25.2307C206.266 26.473 236.082 39.3108 264.656 52.1485C292.402 64.158 318.077 75.7535 350.378 74.5111C413.737 72.0264 436.928 27.3014 436.928 26.8872L440.655 28.5436C440.241 28.9577 416.636 76.1676 350.378 78.6523C349.55 78.6523 347.893 78.6523 346.237 78.6523Z" fill="#727171"></path><path d="M346.237 54.2192C315.592 54.2192 290.331 43.0379 263.414 31.4425C234.84 19.0188 205.852 6.18114 166.097 4.93878C164.441 4.93878 162.37 4.93878 160.714 4.93878C84.5164 4.93878 3.34997 53.3911 2.52174 53.8052L0.451172 50.078C1.2794 49.6639 87.4152 -1.68719 166.097 0.797548C206.266 2.03992 236.082 14.8777 264.656 27.7155C292.402 39.7251 318.077 51.3204 350.378 50.078C413.737 47.5933 436.928 2.86801 436.928 2.45389L440.655 4.11048C440.241 4.5246 416.636 51.7345 350.378 54.2192C349.55 54.2192 347.893 54.2192 346.237 54.2192Z" fill="#727171"></path><path d="M346.237 103.086C315.592 103.086 290.331 91.9044 263.414 80.309C234.84 67.8854 205.852 55.0478 166.097 53.8055C88.6576 51.3207 3.34997 101.843 2.52174 102.672L0.451172 98.9445C1.2794 98.5304 87.4152 47.1795 166.097 49.6642C206.266 50.9066 236.082 63.7444 264.656 76.5821C292.402 88.5916 318.077 100.187 350.378 98.5305C413.737 96.0457 436.928 51.3207 436.928 50.9066L440.655 52.5631C440.241 52.9773 416.636 100.187 350.378 102.672C349.55 103.086 347.893 103.086 346.237 103.086Z" fill="#727171"></path></svg> 