<?xml version="1.0" encoding="UTF-8"?> <svg xmlns="http://www.w3.org/2000/svg" width="284" height="132" viewBox="0 0 284 132" fill="none"><path d="M70.0002 4.35876H8.58838V124.679H70.0002V4.35876Z" fill="#C3B68F"></path><path d="M121.882 68.9293C121.882 69.9878 121.176 70.6935 120.117 70.6935H45.2939C44.2351 70.6935 43.5292 69.9878 43.5292 68.9293C43.5292 67.8707 44.2351 67.165 45.2939 67.165H120.117C121.176 67.165 121.882 67.8707 121.882 68.9293Z" fill="black"></path><path d="M120.117 72.4577H45.2939C43.1763 72.4577 41.7645 71.0463 41.7645 68.9292C41.7645 66.8121 43.1763 65.4008 45.2939 65.4008H120.117C122.235 65.4008 123.647 66.8121 123.647 68.9292C123.647 71.0463 121.882 72.4577 120.117 72.4577ZM120.117 68.9292H121.882H120.117Z" fill="black"></path><path d="M108.47 83.043L106.353 80.5731L118.705 68.9292L106.353 57.2854L108.47 54.8154L123.647 68.9292L108.47 83.043Z" fill="black"></path><path d="M108.47 85.5129L103.882 80.5731L116.235 68.9292L103.882 57.6382L108.47 52.3456L126.47 68.9292L108.47 85.5129Z" fill="black"></path><path d="M25.8823 0.124634H258.118C272.235 0.124634 283.529 11.4157 283.529 25.5294V105.625C283.529 119.739 272.235 131.03 258.118 131.03H25.8823C11.7647 131.03 0.470581 119.739 0.470581 105.625V25.5294C0.823522 11.4157 12.1176 0.124634 25.8823 0.124634ZM258.118 120.092C266.235 120.092 272.941 113.388 272.941 105.272V25.5294C272.941 17.414 266.235 10.71 258.118 10.71H25.8823C17.7647 10.71 11.0588 17.414 11.0588 25.5294V105.625C11.0588 113.741 17.7647 120.445 25.8823 120.445H258.118V120.092Z" fill="black"></path></svg> 