<?xml version="1.0" encoding="UTF-8"?> <svg xmlns="http://www.w3.org/2000/svg" width="353" height="231" viewBox="0 0 353 231" fill="none"><path d="M66.2354 132.634C102.686 132.634 132.235 103.093 132.235 66.6524C132.235 30.2116 102.686 0.67041 66.2354 0.67041C29.7846 0.67041 0.235352 30.2116 0.235352 66.6524C0.235352 103.093 29.7846 132.634 66.2354 132.634Z" fill="black"></path><path d="M286.118 230.02C322.569 230.02 352.118 200.478 352.118 164.037C352.118 127.597 322.569 98.0557 286.118 98.0557C249.667 98.0557 220.118 127.597 220.118 164.037C220.118 200.478 249.667 230.02 286.118 230.02Z" fill="black"></path><path d="M287.176 217.317C257.176 217.317 232.823 192.971 232.823 162.979C232.823 132.987 257.176 108.641 287.176 108.641C317.176 108.641 341.529 132.987 341.529 162.979C341.529 192.971 317.176 217.317 287.176 217.317ZM287.176 111.817C258.941 111.817 236.353 134.752 236.353 162.626C236.353 190.854 259.294 213.436 287.176 213.436C315.059 213.436 338 190.501 338 162.626C338 134.752 315.059 111.817 287.176 111.817Z" fill="white"></path><path d="M153.412 63.4767C152.353 63.4767 151.647 62.4182 151.647 61.7125C151.647 61.7125 151.647 61.0069 152 59.5955C152.353 58.537 153.059 58.1841 154.118 58.1841C155.176 58.5369 155.529 59.2427 155.529 60.3013C155.176 61.0069 155.176 61.7125 155.176 61.7125C155.176 62.771 154.118 63.4767 153.412 63.4767Z" fill="black"></path><path d="M158.706 52.5388C158.353 52.5388 158 52.5389 157.647 52.1861C156.941 51.4803 156.941 50.4217 157.647 49.716C158.353 48.6575 159.412 47.9517 160.471 47.246C161.177 46.5403 162.235 46.8931 162.941 47.5988C163.647 48.3045 163.294 49.3631 162.588 50.0688C161.882 50.7745 160.824 51.4803 160.118 52.1861C159.412 52.1861 159.059 52.5388 158.706 52.5388Z" fill="black"></path><path d="M234.235 67.3583C233.529 67.3583 232.824 67.0055 232.471 66.2998C232.118 65.2412 231.765 64.1826 231.059 63.1241C230.706 62.4184 231.059 61.3598 231.765 60.6541C232.471 60.3013 233.529 60.6542 234.235 61.3599C234.941 62.4184 235.294 63.477 235.647 64.5356C236 65.5941 235.647 66.2997 234.588 66.6525C234.588 67.0054 234.235 67.3583 234.235 67.3583ZM226.471 55.7144C226.118 55.7144 225.412 55.7143 225.412 55.3614C224.706 54.6558 223.647 53.9501 222.941 53.2445C222.235 52.5388 221.882 51.4802 222.588 50.7745C223.294 50.0688 224.353 49.716 225.059 50.4217C226.118 51.1274 226.824 52.1858 227.882 52.8915C228.588 53.5972 228.588 54.6558 227.882 55.3614C227.529 55.3614 226.824 55.7144 226.471 55.7144ZM214.824 47.9518C214.471 47.9518 214.471 47.9518 214.118 47.9518C213.059 47.5989 212 47.2461 210.941 46.8933C209.882 46.5404 209.529 45.4818 209.882 44.7761C210.235 43.7175 211.294 43.3647 212 43.7176C213.059 44.0704 214.471 44.4234 215.529 45.1291C216.588 45.4819 216.941 46.5403 216.588 47.5988C216.235 47.5988 215.529 47.9518 214.824 47.9518ZM170.353 45.1291C169.647 45.1291 168.941 44.776 168.588 44.0703C168.235 43.0118 168.941 42.3062 169.647 41.9534C170.706 41.6005 171.765 41.2477 173.177 40.8949C174.235 40.542 174.941 41.2476 175.294 42.3061C175.647 43.3647 174.941 44.0705 173.882 44.4233C172.824 44.7762 171.765 45.129 170.706 45.4818C170.706 45.129 170.353 45.1291 170.353 45.1291ZM201.412 44.0703C201.412 44.0703 201.059 44.0703 201.412 44.0703C200.706 44.0703 200 43.7176 199.647 43.7176L197.882 43.3648C196.824 43.3648 196.118 42.3062 196.471 41.2476C196.471 40.1891 197.529 39.4835 198.588 39.8364L200.353 40.1891C201.059 40.1891 201.412 40.189 202.118 40.5419C203.177 40.5419 203.882 41.6006 203.529 42.6591C203.176 43.7176 202.118 44.0703 201.412 44.0703ZM184.118 43.0119C183.059 43.0119 182.353 42.3062 182.353 41.2476C182.353 40.1891 183.059 39.4834 184.118 39.4834C184.824 39.4834 185.882 39.4834 186.588 39.4834H187.647C188.706 39.4834 189.412 40.1891 189.412 41.2476C189.412 42.3062 188.706 43.0119 187.647 43.0119H186.588C185.529 43.0119 184.824 43.0119 184.118 43.0119Z" fill="black"></path><path d="M236.706 79.3549C235.647 79.3549 234.941 78.6492 234.941 77.5906C234.941 76.885 234.941 76.5321 234.941 75.8264C234.941 74.7679 235.647 74.0623 236.353 73.7095C237.412 73.7095 238.118 74.4152 238.471 75.1209C238.471 75.8266 238.471 76.1795 238.471 76.8851C238.471 78.2965 237.765 79.002 236.706 79.3549Z" fill="black"></path><path d="M225.059 73.3567L234.941 94.1743L248 74.7679L225.059 73.3567Z" fill="black"></path></svg> 