<?xml version="1.0" encoding="UTF-8"?> <svg xmlns="http://www.w3.org/2000/svg" width="451" height="222" viewBox="0 0 451 222" fill="none"><path d="M201 80.3828C201 87.0211 195.307 92 188.739 92H12.2614C5.25491 92 0 86.6062 0 80.3828V25.6172C0 18.9789 5.69282 14 12.2614 14H188.739C195.745 14 201 19.3938 201 25.6172V80.3828Z" fill="#999899"></path><path d="M451 206.659C451 215.425 444.712 222 437.458 222H242.542C234.804 222 229 214.877 229 206.659V134.341C229 125.575 235.288 119 242.542 119H437.458C445.196 119 451 126.123 451 134.341V206.659Z" fill="#999899"></path><path d="M224.973 71.7408C223.798 71.7408 223.015 70.5662 223.015 69.7831C223.015 69.7831 223.015 69 223.406 67.4338C223.798 66.2592 224.581 65.8677 225.756 65.8677C226.93 66.2592 227.322 67.0423 227.322 68.2169C226.93 69.3916 226.93 69.7831 226.93 69.7831C226.93 70.9577 225.756 71.7408 224.973 71.7408Z" fill="black"></path><path d="M230.846 59.6032C230.454 59.6032 230.063 59.6032 229.671 59.2116C228.888 58.4286 228.888 57.2539 229.671 56.4709C230.454 55.2962 231.629 54.5132 232.804 53.7301C233.587 52.947 234.761 53.3385 235.545 54.1216C236.328 54.9047 235.936 56.0793 235.153 56.8624C234.37 57.6455 233.195 58.4286 232.412 59.2116C231.629 59.6032 231.238 59.6032 230.846 59.6032Z" fill="black"></path><path d="M314.638 76.0485C313.855 76.0485 313.071 75.6569 312.68 74.8738C312.288 73.6992 311.897 72.5246 311.114 71.35C310.722 70.5669 311.114 69.3923 311.897 68.6092C312.68 68.2176 313.855 68.6092 314.638 69.3923C315.421 70.5669 315.812 71.7415 316.204 72.9161C316.595 74.0908 316.204 74.8738 315.029 75.2654C315.029 76.0485 314.638 76.0485 314.638 76.0485ZM306.023 63.1276C305.632 63.1276 304.849 63.1276 304.849 62.7361C304.066 61.953 302.891 61.1699 302.108 60.3868C301.325 59.6037 300.933 58.4291 301.716 57.646C302.5 56.8629 303.674 56.4714 304.457 57.2545C305.632 58.0376 306.415 59.2122 307.59 59.9953C308.373 60.7784 308.373 61.953 307.59 62.7361C307.198 62.7361 306.415 63.1276 306.023 63.1276ZM293.102 54.5137C292.711 54.5137 292.711 54.5137 292.319 54.5137C291.145 54.1222 289.97 53.7306 288.795 53.3391C287.621 52.9475 287.229 51.7729 287.621 50.9898C288.012 49.8152 289.187 49.4237 289.97 49.8152C291.145 50.2067 292.711 50.5983 293.885 51.3814C295.06 51.7729 295.452 52.9475 295.06 54.1222C294.669 54.1222 293.885 54.5137 293.102 54.5137ZM243.767 51.3814C242.984 51.3814 242.201 50.9898 241.809 50.2067C241.418 49.0321 242.201 48.249 242.984 47.8575C244.159 47.4659 245.333 47.0744 246.899 46.6829C248.074 46.2913 248.857 47.0744 249.249 48.249C249.64 49.4237 248.857 50.2067 247.682 50.5983C246.508 50.9898 245.333 51.3814 244.159 51.7729C244.159 51.3814 243.767 51.3814 243.767 51.3814ZM278.223 50.5983C277.44 50.5983 276.657 50.2067 276.266 50.2067L274.308 49.8152C273.133 49.8152 272.35 48.6406 272.742 47.4659C272.742 46.2913 273.916 45.5082 275.091 45.8998L277.049 46.2913C277.832 46.2913 278.223 46.2913 279.007 46.6829C280.181 46.6829 280.964 47.8575 280.573 49.0321C280.181 49.8152 279.398 50.5983 278.223 50.5983ZM259.037 49.0321C257.863 49.0321 257.08 48.249 257.08 47.0744C257.08 45.8998 257.863 45.1167 259.037 45.1167C259.821 45.1167 260.995 45.1167 261.778 45.1167H262.953C264.128 45.1167 264.911 45.8998 264.911 47.0744C264.911 48.249 264.128 49.0321 262.953 49.0321H261.778C260.604 49.0321 259.821 49.0321 259.037 49.0321Z" fill="black"></path><path d="M317.378 89.3613C316.204 89.3613 315.421 88.5783 315.421 87.4036C315.421 86.6206 315.421 86.229 315.421 85.4459C315.421 84.2713 316.204 83.4882 316.987 83.0967C318.161 83.0967 318.945 83.8798 319.336 84.6628C319.336 85.4459 319.336 85.8375 319.336 86.6206C319.336 88.1867 318.553 89.3613 317.378 89.3613Z" fill="black"></path><path d="M304.457 82.7051L315.812 105.806L329.908 84.2712L304.457 82.7051Z" fill="black"></path><path d="M190.125 72.1334C190.125 78.3981 185.035 83.0966 179.161 83.0966H20.975C14.7102 83.0966 10.0116 78.0065 10.0116 72.1334V15.3599C10.0116 9.09522 15.1018 4.39673 20.975 4.39673H178.77C185.035 4.39673 189.733 9.48677 189.733 15.3599V72.1334H190.125Z" fill="#EFEBE1"></path><path d="M179.161 87.0119H20.975C12.7524 87.0119 6.09607 80.3557 6.09607 72.1333V15.3598C6.09607 7.13741 12.7524 0.481201 20.975 0.481201H178.77C186.992 0.481201 193.649 7.13741 193.649 15.3598V71.7417C194.04 80.3557 187.384 87.0119 179.161 87.0119ZM20.975 8.31203C17.0595 8.31203 13.9271 11.4444 13.9271 15.3598V71.7417C13.9271 75.6572 17.0595 78.7895 20.975 78.7895H178.77C182.685 78.7895 185.818 75.6572 185.818 71.7417V15.3598C185.818 11.4444 182.685 8.31203 178.77 8.31203H20.975V8.31203Z" fill="black"></path><path d="M431.711 198.993C431.711 205.258 426.621 209.956 420.748 209.956H262.562C256.297 209.956 251.598 204.866 251.598 198.993V142.611C251.598 136.346 256.688 131.648 262.562 131.648H420.356C426.621 131.648 431.32 136.738 431.32 142.611V198.993H431.711Z" fill="#EFEBE1"></path><path d="M420.356 214.263H262.562C254.339 214.263 247.683 207.607 247.683 199.384V142.611C247.683 134.389 254.339 127.732 262.562 127.732H420.356C428.579 127.732 435.235 134.389 435.235 142.611V198.993C435.627 207.607 428.579 214.263 420.356 214.263ZM262.562 135.563C258.646 135.563 255.514 138.696 255.514 142.611V198.993C255.514 202.908 258.646 206.041 262.562 206.041H420.356C424.272 206.041 427.404 202.908 427.404 198.993V142.611C427.404 138.696 424.272 135.563 420.356 135.563H262.562V135.563Z" fill="black"></path></svg> 