<?xml version="1.0" encoding="UTF-8"?> <svg xmlns="http://www.w3.org/2000/svg" width="449" height="203" viewBox="0 0 449 203" fill="none"><path d="M400.708 202.19H257.009C230.776 202.19 209.24 180.655 209.24 154.422C209.24 128.189 230.776 106.654 257.009 106.654H400.708C426.942 106.654 448.478 128.189 448.478 154.422C448.478 180.655 426.942 202.19 400.708 202.19Z" fill="url(#paint0_linear)"></path><path d="M198.669 27.5618C197.494 27.5618 196.711 26.3871 196.711 25.604C196.711 25.604 196.711 24.821 197.102 23.2548C197.494 22.0801 198.277 21.6885 199.452 21.6885C200.626 22.08 201.018 22.8633 201.018 24.0379C200.626 24.821 200.626 25.604 200.626 25.604C200.626 26.7787 199.843 27.5618 198.669 27.5618Z" fill="black"></path><path d="M204.542 15.4241C204.15 15.4241 203.759 15.4239 203.367 15.0324C202.584 14.2493 202.584 13.0749 203.367 12.2918C204.15 11.1171 205.325 10.334 206.5 9.5509C207.283 8.76782 208.458 9.15926 209.241 9.94235C210.024 10.7254 209.632 11.9001 208.849 12.6832C208.066 13.4663 206.891 14.2493 206.108 15.0324C205.717 15.0324 205.325 15.4241 204.542 15.4241Z" fill="black"></path><path d="M288.334 31.4778C287.551 31.4778 286.768 31.0863 286.376 30.3032C285.985 29.1286 285.593 27.9539 284.81 26.7792C284.418 25.9961 284.81 24.8217 285.593 24.0386C286.376 23.6471 287.551 24.0384 288.334 24.8215C289.117 25.9961 289.509 27.1709 289.9 28.3455C290.292 29.5201 289.9 30.3031 288.725 30.6946C288.725 31.4777 288.725 31.4778 288.334 31.4778ZM280.111 18.9484C279.72 18.9484 278.937 18.9485 278.937 18.5569C278.154 17.7738 276.979 16.9908 276.196 16.2078C275.413 15.4247 275.021 14.25 275.804 13.4669C276.587 12.6838 277.762 12.2921 278.545 13.0752C279.72 13.8583 280.503 15.033 281.678 15.8161C282.461 16.5992 282.461 17.7738 281.678 18.5569C280.894 18.5569 280.503 18.9484 280.111 18.9484ZM267.19 10.3346C266.799 10.3346 266.799 10.3346 266.407 10.3346C265.232 9.94308 264.058 9.55134 262.883 9.1598C261.708 8.76826 261.317 7.59373 261.708 6.81064C262.1 5.63601 263.275 5.24452 264.058 5.63606C265.232 6.0276 266.799 6.419 267.973 7.20209C269.148 7.59363 269.539 8.76831 269.148 9.94293C268.365 9.94293 267.973 10.3346 267.19 10.3346ZM217.463 7.20209C216.68 7.20209 215.897 6.81059 215.506 6.02751C215.114 4.85288 215.897 4.06989 216.68 3.67835C217.855 3.2868 219.029 2.89531 220.596 2.50377C221.77 2.11222 222.553 2.89517 222.945 4.06979C223.337 5.24442 222.553 6.02765 221.379 6.41919C220.204 6.81074 219.029 7.20223 217.855 7.59377C218.246 7.20223 217.855 7.20209 217.463 7.20209ZM252.311 6.02751C251.92 6.02751 251.92 6.02751 252.311 6.02751C251.528 6.02751 250.745 5.63606 250.353 5.63606L248.396 5.24437C247.221 5.24437 246.438 4.06984 246.83 2.89521C246.83 1.72059 248.004 0.937404 249.179 1.32895L251.137 1.72063C251.92 1.72063 252.311 1.72054 253.094 2.11208C254.269 2.11208 255.052 3.28685 254.661 4.46148C253.877 5.63611 253.094 6.02751 252.311 6.02751ZM232.734 4.85293C231.559 4.85293 230.776 4.06984 230.776 2.89521C230.776 1.72059 231.559 0.9375 232.734 0.9375C233.517 0.9375 234.691 0.9375 235.475 0.9375H236.649C237.824 0.9375 238.607 1.72059 238.607 2.89521C238.607 4.06984 237.824 4.85293 236.649 4.85293H235.475C234.691 4.85293 233.908 4.85293 232.734 4.85293C232.734 4.85293 233.125 4.85293 232.734 4.85293Z" fill="black"></path><path d="M291.466 45.1824C290.291 45.1824 289.508 44.3993 289.508 43.2247C289.508 42.4417 289.508 42.0501 289.508 41.2671C289.508 40.0925 290.291 39.3095 291.075 38.918C292.249 38.918 293.032 39.7009 293.424 40.484C293.424 41.267 293.424 41.6585 293.424 42.4416C293.424 44.0077 292.641 44.7908 291.466 45.1824Z" fill="black"></path><path d="M278.154 38.5259L289.509 61.627L303.996 40.0921L278.154 38.5259Z" fill="black"></path><path d="M122.316 76.1138H33.4344C15.423 76.1138 0.935669 61.6268 0.935669 43.6158C0.935669 25.6049 15.423 11.1177 33.4344 11.1177H122.316C140.328 11.1177 154.815 25.6049 154.815 43.6158C154.815 61.6268 140.328 76.1138 122.316 76.1138Z" fill="url(#paint1_linear)"></path><defs><linearGradient id="paint0_linear" x1="209.459" y1="154.438" x2="448.5" y2="154.438" gradientUnits="userSpaceOnUse"><stop offset="0.0979363" stop-color="#868687"></stop><stop offset="0.9937"></stop></linearGradient><linearGradient id="paint1_linear" x1="0.893381" y1="43.851" x2="154.645" y2="43.851" gradientUnits="userSpaceOnUse"><stop offset="0.0979363" stop-color="#868687"></stop><stop offset="0.9937"></stop></linearGradient></defs></svg> 