<?xml version="1.0" encoding="UTF-8"?> <svg xmlns="http://www.w3.org/2000/svg" width="375" height="195" viewBox="0 0 375 195" fill="none"><path d="M197.647 63.9839C196.588 63.9839 195.882 62.9254 195.882 62.2197C195.882 62.2197 195.882 61.5141 196.235 60.1028C196.588 59.0443 197.294 58.6914 198.353 58.6914C199.412 59.0442 199.765 59.7498 199.765 60.8083C199.412 61.514 199.412 62.2197 199.412 62.2197C199.412 63.2782 198.706 63.9839 197.647 63.9839Z" fill="black"></path><path d="M202.941 53.0459C202.588 53.0459 202.235 53.046 201.882 52.6931C201.177 51.9875 201.177 50.9287 201.882 50.223C202.588 49.1645 203.647 48.459 204.706 47.7533C205.412 47.0477 206.471 47.4004 207.177 48.1061C207.882 48.8118 207.53 49.8705 206.824 50.5762C206.118 51.2819 205.059 51.9875 204.353 52.6931C204 52.6931 203.294 53.0459 202.941 53.0459Z" fill="black"></path><path d="M278.471 67.8647C277.765 67.8647 277.059 67.5122 276.706 66.8065C276.353 65.7479 276 64.6893 275.294 63.6308C274.941 62.9251 275.294 61.8667 276 61.161C276.706 60.8082 277.765 61.1608 278.471 61.8665C279.177 62.9251 279.53 63.9837 279.882 65.0422C280.235 66.1008 279.882 66.8064 278.824 67.1592C278.824 67.8649 278.824 67.8647 278.471 67.8647ZM270.706 56.2211C270.353 56.2211 269.647 56.2212 269.647 55.8683C268.941 55.1626 267.882 54.4566 267.177 53.7509C266.471 53.0452 266.118 51.9868 266.824 51.2811C267.53 50.5755 268.588 50.2227 269.294 50.9284C270.353 51.6341 271.059 52.6924 272.118 53.3981C272.824 54.1038 272.824 55.1626 272.118 55.8683C271.765 55.8683 271.412 56.2211 270.706 56.2211ZM259.412 48.4582C259.059 48.4582 259.059 48.4582 258.706 48.4582C257.647 48.1054 256.588 47.7528 255.529 47.3999C254.471 47.0471 254.118 45.9886 254.471 45.2829C254.824 44.2244 255.882 43.8714 256.588 44.2242C257.647 44.5771 259.059 44.93 260.118 45.6357C261.177 45.9885 261.53 47.0469 261.177 48.1054C260.471 48.1054 259.765 48.4582 259.412 48.4582ZM214.588 45.6357C213.882 45.6357 213.177 45.2827 212.824 44.577C212.471 43.5184 213.177 42.8128 213.882 42.46C214.941 42.1071 216 41.7541 217.412 41.4013C218.471 41.0484 219.177 41.7542 219.529 42.8127C219.882 43.8713 219.177 44.5769 218.118 44.9297C217.059 45.2826 216 45.6356 214.941 45.9884C214.941 45.6356 214.941 45.6357 214.588 45.6357ZM246 44.577C245.647 44.577 245.647 44.577 246 44.577C245.294 44.577 244.588 44.2242 244.235 44.2242L242.471 43.8715C241.412 43.8715 240.706 42.813 241.059 41.7545C241.059 40.6959 242.118 39.9901 243.177 40.343L244.941 40.6958C245.647 40.6958 246 40.6957 246.706 41.0485C247.765 41.0485 248.471 42.107 248.118 43.1655C247.412 44.224 246.706 44.577 246 44.577ZM228.353 43.5187C227.294 43.5187 226.588 42.813 226.588 41.7545C226.588 40.6959 227.294 39.9902 228.353 39.9902C229.059 39.9902 230.118 39.9902 230.824 39.9902H231.882C232.941 39.9902 233.647 40.6959 233.647 41.7545C233.647 42.813 232.941 43.5187 231.882 43.5187H230.824C230.118 43.5187 229.412 43.5187 228.353 43.5187Z" fill="black"></path><path d="M280.941 79.8618C279.883 79.8618 279.177 79.1561 279.177 78.0976C279.177 77.3919 279.177 77.039 279.177 76.3333C279.177 75.2748 279.883 74.5692 280.588 74.2163C281.647 74.2163 282.353 74.9221 282.706 75.6278C282.706 76.3335 282.706 76.6863 282.706 77.392C283.059 78.8034 282.353 79.509 280.941 79.8618C281.294 79.8618 281.294 79.8618 280.941 79.8618Z" fill="black"></path><path d="M269.294 73.8623L279.53 94.6812L292.588 75.2738L269.294 73.8623Z" fill="black"></path><path d="M166.588 63.983C166.588 69.6285 162 73.8628 156.706 73.8628H14.1176C8.47053 73.8628 4.23523 69.2756 4.23523 63.983V13.1733C4.23523 7.52782 8.82348 3.29395 14.1176 3.29395H156.353C162 3.29395 166.235 7.88066 166.235 13.1733V63.983H166.588Z" fill="#EFEBE1"></path><path d="M156.353 77.7446H14.1176C6.70582 77.7446 0.705811 71.746 0.705811 64.3363V13.5265C0.705811 6.11675 6.70582 0.118164 14.1176 0.118164H156.353C163.765 0.118164 169.765 6.11675 169.765 13.5265V64.3363C170.118 71.746 163.765 77.7446 156.353 77.7446ZM14.1176 6.82235C10.5882 6.82235 7.76464 9.64488 7.76464 13.1734V63.9835C7.76464 67.512 10.5882 70.3349 14.1176 70.3349H156.353C159.882 70.3349 162.706 67.512 162.706 63.9835V13.1734C162.706 9.64488 159.882 6.82235 156.353 6.82235H14.1176Z" fill="black"></path><path d="M374.823 129.613H212.47V136.669H374.823V129.613Z" fill="black"></path><path d="M374.823 187.832H212.47V194.889H374.823V187.832Z" fill="black"></path></svg> 