<?xml version="1.0" encoding="UTF-8"?> <svg xmlns="http://www.w3.org/2000/svg" width="250" height="267" viewBox="0 0 250 267" fill="none"><path d="M118.294 58.0269C117.588 58.0269 116.529 57.6738 115.824 56.9682C114.412 55.5568 114.412 53.4402 115.471 52.0289L126.059 40.3852L115.824 30.5056C114.412 29.0943 114.412 26.9776 115.824 25.5663C117.235 24.155 119.353 24.155 120.765 25.5663L133.824 37.5623C135.235 38.9737 135.235 41.0903 134.177 42.5017L121.118 56.615C120.059 57.6735 119.353 58.0269 118.294 58.0269Z" fill="#4C4B4C"></path><path d="M225.588 31.9169C225.588 30.8582 226.647 30.1523 227.353 30.1523C227.353 30.1523 228.059 30.1527 229.471 30.5056C230.53 30.8585 230.883 31.5647 230.883 32.6234C230.53 33.6821 229.824 34.0347 228.765 34.0347C228.059 33.6818 227.353 33.6814 227.353 33.6814C226.294 33.6814 225.588 32.9756 225.588 31.9169Z" fill="black"></path><path d="M236.53 37.2102C236.53 36.8573 236.53 36.5052 236.883 36.1523C237.589 35.4466 238.648 35.4466 239.353 36.1523C240.412 36.858 241.118 37.9159 241.824 38.9744C242.53 39.6801 242.177 40.7393 241.471 41.445C240.765 42.1507 239.706 41.7975 239 41.0918C238.295 40.3861 237.589 39.3278 236.883 38.6221C236.883 38.2692 236.53 37.563 236.53 37.2102Z" fill="black"></path><path d="M222.059 112.72C222.059 112.014 222.412 111.308 223.118 110.956C224.177 110.603 225.235 110.249 226.294 109.544C227 109.191 228.059 109.544 228.765 110.25C229.118 110.956 228.765 112.014 228.059 112.72C227 113.426 225.941 113.778 224.883 114.131C223.824 114.484 223.118 114.131 222.765 113.072C222.059 113.072 222.059 112.72 222.059 112.72ZM233.353 104.957C233.353 104.605 233.353 103.899 233.706 103.899C234.412 103.193 235.118 102.135 235.824 101.429C236.53 100.723 237.588 100.37 238.294 101.076C239 101.781 239.353 102.84 238.647 103.545C237.941 104.604 236.882 105.31 236.177 106.368C235.471 107.074 234.412 107.074 233.706 106.368C233.706 106.016 233.353 105.663 233.353 104.957ZM241.118 93.3133C241.118 92.9604 241.118 92.9606 241.118 92.6077C241.471 91.5492 241.824 90.4901 242.177 89.4316C242.53 88.373 243.588 88.02 244.294 88.3729C245.353 88.7257 245.706 89.7846 245.353 90.4903C245 91.5488 244.647 92.9602 243.941 94.0188C243.588 95.0773 242.53 95.4303 241.471 95.0775C241.471 94.7246 241.118 94.0189 241.118 93.3133ZM243.941 48.8542C243.941 48.1485 244.294 47.4428 245 47.0899C246.059 46.7371 246.765 47.443 247.118 48.1486C247.471 49.2072 247.824 50.2657 248.177 51.6771C248.53 52.7357 247.824 53.4417 246.765 53.7945C245.706 54.1474 245 53.4412 244.647 52.3826C244.294 51.3241 243.941 50.2659 243.588 49.2074C243.941 49.2074 243.941 49.207 243.941 48.8542ZM245 79.9049C245 79.1992 245.353 78.4935 245.353 78.1407L245.706 76.3764C245.706 75.3179 246.765 74.6125 247.824 74.9654C248.882 74.9654 249.588 76.0234 249.235 77.0819L248.882 78.8462C248.882 79.5519 248.882 79.9047 248.529 80.6104C248.529 81.669 247.471 82.3752 246.412 82.0223C245.706 81.6695 245 80.9634 245 79.9049ZM246.059 62.6157C246.059 61.5572 246.765 60.8515 247.824 60.8515C248.882 60.8515 249.588 61.5572 249.588 62.6157C249.588 63.3214 249.588 64.3798 249.588 65.0855V66.1442C249.588 67.2027 248.882 67.9084 247.824 67.9084C246.765 67.9084 246.059 67.2027 246.059 66.1442V65.0855C246.412 64.0269 246.412 63.3214 246.059 62.6157Z" fill="black"></path><path d="M210.059 115.188C210.059 114.129 210.765 113.424 211.824 113.424C212.53 113.424 212.883 113.424 213.589 113.424C214.648 113.424 215.353 114.129 215.706 114.835C215.706 115.893 215.001 116.599 214.295 116.952C213.589 116.952 213.236 116.952 212.53 116.952C210.765 116.952 210.059 116.246 210.059 115.188C210.059 115.188 210.059 115.541 210.059 115.188Z" fill="black"></path><path d="M216.059 103.545L194.883 113.778L214.294 126.833L216.059 103.545Z" fill="black"></path><path d="M225.588 139.887C225.588 138.829 226.647 138.123 227.353 138.123C227.353 138.123 228.059 138.123 229.471 138.476C230.53 138.829 230.883 139.534 230.883 140.593C230.53 141.652 229.824 142.005 228.765 142.005C228.059 141.652 227.353 141.652 227.353 141.652C226.294 141.652 225.588 140.946 225.588 139.887Z" fill="black"></path><path d="M236.53 145.18C236.53 144.827 236.53 144.474 236.883 144.121C237.589 143.415 238.648 143.415 239.353 144.121C240.412 144.827 241.118 145.886 241.824 146.944C242.53 147.65 242.177 148.708 241.471 149.414C240.765 150.12 239.706 149.767 239 149.062C238.295 148.356 237.589 147.297 236.883 146.591C236.883 146.238 236.53 145.533 236.53 145.18Z" fill="black"></path><path d="M222.059 220.688C222.059 219.983 222.412 219.277 223.118 218.924C224.177 218.571 225.235 218.219 226.294 217.513C227 217.16 228.059 217.513 228.765 218.219C229.118 218.924 228.765 219.983 228.059 220.688C227 221.394 225.941 221.747 224.883 222.1C223.824 222.453 223.118 222.1 222.765 221.041C222.059 221.041 222.059 220.688 222.059 220.688ZM233.353 212.926C233.353 212.573 233.353 211.867 233.706 211.867C234.412 211.162 235.118 210.103 235.824 209.398C236.53 208.692 237.588 208.34 238.294 209.045C239 209.751 239.353 210.809 238.647 211.515C237.941 212.573 236.882 213.279 236.177 214.338C235.471 215.044 234.412 215.044 233.706 214.338C233.706 213.985 233.353 213.632 233.353 212.926ZM241.118 201.282C241.118 200.929 241.118 200.929 241.118 200.577C241.471 199.518 241.824 198.46 242.177 197.401C242.53 196.343 243.588 195.99 244.294 196.343C245.353 196.696 245.706 197.754 245.353 198.46C245 199.519 244.647 200.93 243.941 201.988C243.588 203.047 242.53 203.399 241.471 203.046C241.471 202.693 241.118 201.988 241.118 201.282ZM243.941 156.825C243.941 156.119 244.294 155.413 245 155.061C246.059 154.708 246.765 155.414 247.118 156.119C247.471 157.178 247.824 158.236 248.177 159.648C248.53 160.706 247.824 161.411 246.765 161.764C245.706 162.117 245 161.412 244.647 160.353C244.294 159.295 243.941 158.236 243.588 157.177C243.941 157.177 243.941 157.178 243.941 156.825ZM245 187.875C245 187.169 245.353 186.464 245.353 186.111L245.706 184.346C245.706 183.288 246.765 182.582 247.824 182.935C248.882 182.935 249.588 183.993 249.235 185.052L248.882 186.816C248.882 187.522 248.882 187.875 248.529 188.58C248.529 189.639 247.471 190.344 246.412 189.991C245.706 189.639 245 188.933 245 187.875ZM246.059 170.585C246.059 169.527 246.765 168.821 247.824 168.821C248.882 168.821 249.588 169.527 249.588 170.585C249.588 171.291 249.588 172.349 249.588 173.055V174.114C249.588 175.172 248.882 175.878 247.824 175.878C246.765 175.878 246.059 175.172 246.059 174.114V173.055C246.412 171.996 246.412 171.291 246.059 170.585Z" fill="black"></path><path d="M210.059 223.159C210.059 222.1 210.765 221.395 211.824 221.395C212.53 221.395 212.883 221.395 213.589 221.395C214.648 221.395 215.353 222.1 215.706 222.806C215.706 223.864 215.001 224.57 214.295 224.923C213.589 224.923 213.236 224.923 212.53 224.923C210.765 224.923 210.059 224.218 210.059 223.159Z" fill="black"></path><path d="M216.059 211.515L194.883 221.747L214.294 234.45L216.059 211.515Z" fill="black"></path><path d="M156.059 78.4927H13.8235C6.41175 78.4927 0.411743 72.4942 0.411743 65.0845V14.2745C0.411743 6.86483 6.41175 0.867188 13.8235 0.867188H156.059C163.471 0.867188 169.471 6.86483 169.471 14.2745V65.0845C169.471 72.4942 163.471 78.4927 156.059 78.4927ZM13.8235 7.57086C10.2941 7.57086 7.47057 10.3938 7.47057 13.9222V64.7313C7.47057 68.2597 10.2941 71.0826 13.8235 71.0826H156.059C159.588 71.0826 162.412 68.2597 162.412 64.7313V13.9222C162.412 10.3938 159.588 7.57086 156.059 7.57086H13.8235Z" fill="black"></path><path d="M118.294 246.446C117.588 246.446 116.529 246.093 115.824 245.388C114.412 243.976 114.412 241.859 115.471 240.448L126.059 228.804L115.824 218.924C114.412 217.512 114.412 215.396 115.824 213.984C117.235 212.573 119.353 212.573 120.765 213.984L133.824 225.981C135.235 227.392 135.235 229.51 134.177 230.921L121.118 245.035C120.059 246.094 119.353 246.446 118.294 246.446Z" fill="#4C4B4C"></path><path d="M156.059 266.91H13.8235C6.41175 266.91 0.411743 260.912 0.411743 253.502V202.693C0.411743 195.284 6.41175 189.285 13.8235 189.285H156.059C163.471 189.285 169.471 195.284 169.471 202.693V253.502C169.471 260.912 163.471 266.91 156.059 266.91ZM13.8235 195.989C10.2941 195.989 7.47057 198.812 7.47057 202.34V253.15C7.47057 256.678 10.2941 259.5 13.8235 259.5H156.059C159.588 259.5 162.412 256.678 162.412 253.15V202.34C162.412 198.812 159.588 195.989 156.059 195.989H13.8235Z" fill="black"></path><path d="M139.823 149.766C139.117 149.766 138.059 149.413 137.353 148.707C135.941 147.296 135.941 145.179 137 143.768L147.588 132.124L137.353 122.244C135.941 120.833 135.941 118.716 137.353 117.305C138.764 115.893 140.882 115.893 142.294 117.305L155.353 129.301C156.765 130.712 156.765 132.829 155.706 134.24L142.647 148.354C141.941 149.413 140.882 149.766 139.823 149.766Z" fill="#4C4B4C"></path><path d="M156.059 172.349H13.8235C6.41175 172.349 0.411743 166.35 0.411743 158.94V108.131C0.411743 100.721 6.41175 94.7227 13.8235 94.7227H156.059C163.471 94.7227 169.471 100.721 169.471 108.131V158.94C169.471 166.35 163.471 172.349 156.059 172.349ZM13.8235 101.427C10.2941 101.427 7.47057 104.249 7.47057 107.778V158.588C7.47057 162.116 10.2941 164.939 13.8235 164.939H156.059C159.588 164.939 162.412 162.116 162.412 158.588V107.778C162.412 104.249 159.588 101.427 156.059 101.427H13.8235Z" fill="black"></path></svg> 