<?xml version="1.0" encoding="UTF-8"?> <svg xmlns="http://www.w3.org/2000/svg" width="284" height="132" viewBox="0 0 284 132" fill="none"><path d="M272.653 96.9234V35.5284L10.7705 35.5284V96.9234L272.653 96.9234Z" fill="#C3B68F"></path><path d="M143.941 19.9592C145 19.9592 145.706 20.6649 145.706 21.7235V57.7136C145.706 58.7721 145 59.4778 143.941 59.4778C142.882 59.4778 142.176 58.7721 142.176 57.7136V21.7235C142.176 20.6649 142.882 19.9592 143.941 19.9592Z" fill="black"></path><path d="M143.941 60.8891C141.823 60.8891 140.412 59.4777 140.412 57.3607V21.3705C140.412 19.2534 141.823 17.842 143.941 17.842C146.059 17.842 147.47 19.2534 147.47 21.3705V57.3607C147.47 59.4777 146.059 60.8891 143.941 60.8891ZM143.941 19.9591V21.7234V19.9591Z" fill="black"></path><path d="M158.059 33.0144L155.588 35.4843L143.941 22.7819L132.294 35.4843L129.823 33.0144L143.941 17.842L158.059 33.0144Z" fill="black"></path><path d="M155.588 37.9542L143.941 25.6046L132.647 37.9542L127.353 33.0144L143.941 15.3722L160.53 33.0144L155.588 37.9542Z" fill="black"></path><path d="M143.941 109.934C142.882 109.934 142.176 109.229 142.176 108.17V72.18C142.176 71.1215 142.882 70.4158 143.941 70.4158C145 70.4158 145.706 71.1215 145.706 72.18V108.17C145.706 108.876 145 109.934 143.941 109.934Z" fill="black"></path><path d="M143.941 111.699C141.823 111.699 140.412 110.287 140.412 108.17V72.1801C140.412 70.063 141.823 68.6516 143.941 68.6516C146.059 68.6516 147.47 70.063 147.47 72.1801V108.17C147.47 109.934 146.059 111.699 143.941 111.699ZM143.941 108.17V109.934V108.17Z" fill="black"></path><path d="M129.823 96.5263L132.294 94.0564L143.941 106.759L155.588 94.0564L158.059 96.5263L143.941 111.699L129.823 96.5263Z" fill="black"></path><path d="M143.941 114.521L127.353 96.5262L132.647 91.5864L143.941 103.936L155.588 91.5864L160.53 96.5262L143.941 114.521Z" fill="black"></path><path d="M257.942 131.458H25.7061C11.5885 131.458 0.294434 120.167 0.294434 106.053V25.9575C0.294434 11.8437 11.5885 0.552734 25.7061 0.552734H257.942C272.059 0.552734 283.353 11.8437 283.353 25.9575V106.053C283.353 120.167 272.059 131.458 257.942 131.458ZM25.7061 11.4909C17.5885 11.4909 10.8827 18.195 10.8827 26.3104V106.406C10.8827 114.521 17.5885 121.225 25.7061 121.225H257.942C266.059 121.225 272.765 114.521 272.765 106.406V26.3104C272.765 18.195 266.059 11.4909 257.942 11.4909H25.7061Z" fill="black"></path></svg> 