<?xml version="1.0" encoding="UTF-8"?> <svg xmlns="http://www.w3.org/2000/svg" width="457" height="239" viewBox="0 0 457 239" fill="none"><path d="M260.419 82.5342C259.245 82.5342 258.462 81.3596 258.462 80.5765C258.462 80.5765 258.462 79.7934 258.853 78.2273C259.245 77.0526 260.028 76.6611 261.203 76.6611C262.377 77.0527 262.769 77.8356 262.769 79.0103C262.377 79.7933 262.377 80.5765 262.377 80.5765C262.377 81.7511 261.203 82.5342 260.419 82.5342Z" fill="black"></path><path d="M266.293 70.3965C265.901 70.3965 265.51 70.3965 265.118 70.0049C264.335 69.2219 264.335 68.0472 265.118 67.2642C265.901 66.0896 267.076 65.3066 268.251 64.5235C269.034 63.7404 270.208 64.132 270.991 64.9151C271.775 65.6981 271.383 66.8727 270.6 67.6557C269.817 68.4388 268.642 69.2219 267.859 70.0049C267.076 70.3965 266.684 70.3965 266.293 70.3965Z" fill="black"></path><path d="M350.085 86.8419C349.302 86.8419 348.519 86.4504 348.127 85.6673C347.735 84.4927 347.344 83.3181 346.561 82.1435C346.169 81.3604 346.561 80.1857 347.344 79.4027C348.127 79.0111 349.302 79.4027 350.085 80.1858C350.868 81.3604 351.259 82.535 351.651 83.7096C352.042 84.8843 351.651 85.6674 350.476 86.0589C350.476 86.842 350.085 86.8419 350.085 86.8419ZM341.471 73.9211C341.079 73.9211 340.296 73.9211 340.296 73.5295C339.513 72.7464 338.338 71.9633 337.555 71.1803C336.772 70.3972 336.38 69.2226 337.163 68.4395C337.947 67.6565 339.121 67.2649 339.904 68.048C341.079 68.8311 341.862 70.0057 343.037 70.7888C343.82 71.5719 343.82 72.7464 343.037 73.5295C342.645 73.5295 341.862 73.9211 341.471 73.9211ZM328.549 65.3071C328.158 65.3071 328.158 65.3071 327.766 65.3071C326.592 64.9156 325.417 64.5241 324.242 64.1326C323.068 63.741 322.676 62.5664 323.068 61.7833C323.459 60.6087 324.634 60.2172 325.417 60.6087C326.592 61.0002 328.158 61.3918 329.332 62.1748C330.507 62.5664 330.899 63.7411 330.507 64.9157C330.116 64.9157 329.333 65.3071 328.549 65.3071ZM279.214 62.1748C278.431 62.1748 277.648 61.7834 277.256 61.0003C276.865 59.8256 277.648 59.0425 278.431 58.651C279.606 58.2595 280.78 57.8678 282.346 57.4763C283.521 57.0848 284.304 57.8679 284.696 59.0426C285.087 60.2172 284.304 61.0002 283.13 61.3917C281.955 61.7833 280.78 62.1749 279.606 62.5664C279.606 62.1749 279.214 62.1748 279.214 62.1748ZM313.67 61.0003C312.887 61.0003 312.104 60.6087 311.713 60.6087L309.755 60.2171C308.58 60.2171 307.797 59.0425 308.189 57.8679C308.189 56.6932 309.363 55.9102 310.538 56.3017L312.496 56.6933C313.279 56.6933 313.67 56.6933 314.454 57.0849C315.628 57.0849 316.411 58.2594 316.02 59.434C315.628 60.6086 314.454 61.0003 313.67 61.0003ZM294.484 59.8256C293.31 59.8256 292.527 59.0425 292.527 57.8679C292.527 56.6932 293.31 55.9102 294.484 55.9102C295.268 55.9102 296.442 55.9102 297.225 55.9102H298.4C299.575 55.9102 300.358 56.6932 300.358 57.8679C300.358 59.0425 299.575 59.8256 298.4 59.8256H297.225C296.051 59.8256 295.268 59.8256 294.484 59.8256Z" fill="black"></path><path d="M352.825 100.155C351.651 100.155 350.867 99.3718 350.867 98.1972C350.867 97.4141 350.867 97.0225 350.867 96.2394C350.867 95.0648 351.651 94.2817 352.434 93.8901C353.608 93.8901 354.391 94.6732 354.783 95.4563C354.783 96.2394 354.783 96.6309 354.783 97.414C354.783 98.9802 354 100.155 352.825 100.155Z" fill="black"></path><path d="M339.904 93.4985L351.259 116.599L365.355 95.0647L339.904 93.4985Z" fill="black"></path><path d="M192.29 96.2388H48.591C22.3571 96.2388 0.821777 74.704 0.821777 48.4707C0.821777 22.2374 22.3571 0.702637 48.591 0.702637H192.29C218.524 0.702637 240.059 22.2374 240.059 48.4707C240.059 74.704 218.524 96.2388 192.29 96.2388Z" fill="url(#paint0_linear)"></path><path d="M408.426 238.761H264.727C238.493 238.761 216.958 217.226 216.958 190.993C216.958 164.759 238.493 143.225 264.727 143.225H408.426C434.66 143.225 456.195 164.759 456.195 190.993C456.195 217.226 434.66 238.761 408.426 238.761Z" fill="url(#paint1_linear)"></path><defs><linearGradient id="paint0_linear" x1="0.975657" y1="48.4597" x2="240.016" y2="48.4597" gradientUnits="userSpaceOnUse"><stop offset="0.0979363" stop-color="#868687"></stop><stop offset="0.9937"></stop></linearGradient><linearGradient id="paint1_linear" x1="217.081" y1="190.981" x2="456.122" y2="190.981" gradientUnits="userSpaceOnUse"><stop offset="0.0979363" stop-color="#1F1F1F"></stop><stop offset="0.9937"></stop></linearGradient></defs></svg> 