<?xml version="1.0" encoding="UTF-8"?> <svg xmlns="http://www.w3.org/2000/svg" width="389" height="210" viewBox="0 0 389 210" fill="none"><path d="M202.059 77.5107C201 77.5107 200.294 76.4521 200.294 75.7464C200.294 75.7464 200.294 75.0403 200.647 73.6289C201 72.5703 201.706 72.2178 202.765 72.2178C203.823 72.5706 204.176 73.2763 204.176 74.3349C203.823 75.0406 203.823 75.7464 203.823 75.7464C203.823 76.805 202.765 77.5107 202.059 77.5107Z" fill="black"></path><path d="M207.353 66.5718C207 66.5718 206.647 66.5719 206.294 66.219C205.588 65.5134 205.588 64.4551 206.294 63.7495C207 62.6911 208.059 61.9852 209.118 61.2795C209.824 60.5739 210.883 60.9271 211.588 61.6327C212.294 62.3383 211.941 63.3966 211.235 64.1022C210.53 64.8079 209.471 65.5134 208.765 66.219C208.059 66.219 207.706 66.5718 207.353 66.5718Z" fill="black"></path><path d="M282.883 81.3916C282.177 81.3916 281.471 81.0386 281.118 80.3329C280.765 79.2744 280.412 78.2158 279.706 77.1573C279.353 76.4516 279.706 75.3932 280.412 74.6875C281.118 74.3347 282.177 74.6874 282.883 75.393C283.588 76.4516 283.941 77.5102 284.294 78.5687C284.647 79.6272 284.294 80.3328 283.235 80.6857C283.235 81.0385 282.883 81.3916 282.883 81.3916ZM275.118 69.7477C274.765 69.7477 274.059 69.7478 274.059 69.3949C273.353 68.6892 272.294 67.9836 271.588 67.278C270.882 66.5723 270.53 65.5135 271.235 64.8078C271.941 64.1021 273 63.7494 273.706 64.4551C274.765 65.1608 275.471 66.2195 276.53 66.9252C277.235 67.6309 277.235 68.6892 276.53 69.3949C276.177 69.3949 275.471 69.7477 275.118 69.7477ZM263.471 61.9854C263.118 61.9854 263.118 61.9854 262.765 61.9854C261.706 61.6325 260.647 61.2795 259.588 60.9267C258.53 60.5738 258.177 59.5154 258.53 58.8097C258.883 57.7512 259.941 57.3982 260.647 57.751C261.706 58.1038 263.118 58.4568 264.177 59.1625C265.235 59.5153 265.588 60.5741 265.235 61.6326C264.883 61.6326 264.177 61.9854 263.471 61.9854ZM219 59.1625C218.294 59.1625 217.588 58.8099 217.235 58.1042C216.883 57.0457 217.588 56.3396 218.294 55.9868C219.353 55.634 220.412 55.2814 221.824 54.9285C222.882 54.5757 223.588 55.2815 223.941 56.34C224.294 57.3985 223.588 58.1041 222.53 58.4569C221.471 58.8098 220.412 59.1624 219.353 59.5152C219.353 59.1624 219 59.1625 219 59.1625ZM250.059 58.1042C250.059 58.1042 249.706 58.1042 250.059 58.1042C249.353 58.1042 248.647 57.751 248.294 57.751L246.53 57.3983C245.471 57.3983 244.765 56.3398 245.118 55.2813C245.118 54.2228 246.177 53.517 247.235 53.8698L249 54.2226C249.706 54.2226 250.059 54.2229 250.765 54.5758C251.824 54.5758 252.53 55.6342 252.177 56.6927C251.471 57.7513 250.765 58.1042 250.059 58.1042ZM232.765 57.0455C231.706 57.0455 231 56.3398 231 55.2813C231 54.2228 231.706 53.5171 232.765 53.5171C233.471 53.5171 234.53 53.5171 235.235 53.5171H236.294C237.353 53.5171 238.059 54.2228 238.059 55.2813C238.059 56.3398 237.353 57.0455 236.294 57.0455H235.235C234.177 57.0455 233.471 57.0455 232.765 57.0455Z" fill="black"></path><path d="M285.353 93.3892C284.294 93.3892 283.588 92.6835 283.588 91.6249C283.588 90.9192 283.588 90.5663 283.588 89.8606C283.588 88.8021 284.294 88.096 285 87.7432C286.059 87.7432 286.764 88.449 287.117 89.1547C287.117 89.8604 287.117 90.2132 287.117 90.9189C287.117 92.3303 286.411 93.0363 285.353 93.3892Z" fill="black"></path><path d="M273.706 87.3906L283.588 108.208L296.647 88.8021L273.706 87.3906Z" fill="black"></path><path d="M384.882 195.714C384.882 201.359 380.294 205.593 375 205.593H232.765C227.118 205.593 222.883 201.007 222.883 195.714V144.904C222.883 139.259 227.471 135.024 232.765 135.024H375C380.647 135.024 384.882 139.612 384.882 144.904V195.714Z" fill="black"></path><path d="M374.647 209.474H232.412C225 209.474 219 203.476 219 196.066V145.256C219 137.847 225 131.848 232.412 131.848H374.647C382.059 131.848 388.059 137.847 388.059 145.256V196.066C388.412 203.123 382.059 209.474 374.647 209.474ZM232.412 138.199C228.882 138.199 226.059 141.022 226.059 144.551V195.36C226.059 198.888 228.882 201.711 232.412 201.711H374.647C378.176 201.711 381 198.888 381 195.36V144.551C381 141.022 378.176 138.199 374.647 138.199H232.412Z" fill="black"></path><path d="M172.764 4.47168H4.41162V75.3936H172.764V4.47168Z" fill="black"></path><path d="M176.294 78.9219H0.882324V0.943359H176.294V78.9219ZM7.94114 71.865H169.235V8.00025H7.94114V71.865Z" fill="black"></path></svg> 