<?xml version="1.0" encoding="UTF-8"?> <svg xmlns="http://www.w3.org/2000/svg" width="460" height="243" viewBox="0 0 460 243" fill="none"><path d="M236.396 87.0591C235.221 87.0591 234.438 85.8845 234.438 85.1014C234.438 85.1014 234.438 84.3184 234.83 82.7523C235.221 81.5777 236.004 81.186 237.179 81.186C238.353 81.5776 238.745 82.3608 238.745 83.5354C238.353 84.3185 238.353 85.1014 238.353 85.1014C238.353 86.276 237.57 87.0591 236.396 87.0591Z" fill="black"></path><path d="M242.269 74.9216C241.877 74.9216 241.486 74.9217 241.094 74.5302C240.311 73.7471 240.311 72.5724 241.094 71.7893C241.877 70.6147 243.052 69.8316 244.227 69.0485C245.01 68.2654 246.184 68.6568 246.967 69.4399C247.75 70.223 247.359 71.3977 246.576 72.1808C245.793 72.9639 244.618 73.7471 243.835 74.5302C243.444 74.9217 242.66 74.9216 242.269 74.9216Z" fill="black"></path><path d="M326.06 91.3667C325.277 91.3667 324.494 90.9752 324.103 90.1921C323.711 89.0175 323.32 87.8428 322.536 86.6682C322.145 85.8851 322.536 84.7104 323.32 83.9274C324.103 83.5358 325.277 83.9274 326.06 84.7105C326.844 85.8851 327.235 87.0598 327.627 88.2344C328.018 89.4091 327.627 90.192 326.452 90.5836C326.452 91.3667 326.452 91.3667 326.06 91.3667ZM317.446 78.446C317.055 78.446 316.272 78.4458 316.272 78.0543C315.489 77.2712 314.314 76.4882 313.531 75.7052C312.748 74.9221 312.356 73.7474 313.139 72.9643C313.922 72.1813 315.097 71.7898 315.88 72.5729C317.055 73.356 317.838 74.5304 319.013 75.3135C319.796 76.0966 319.796 77.2712 319.013 78.0543C318.621 78.4458 318.229 78.446 317.446 78.446ZM304.525 70.2235C304.134 70.2235 304.134 70.2235 303.742 70.2235C302.567 69.832 301.393 69.4405 300.218 69.049C299.043 68.6574 298.652 67.4829 299.043 66.6998C299.435 65.5252 300.61 65.1335 301.393 65.525C302.567 65.9166 304.134 66.3082 305.308 67.0913C306.483 67.4828 306.874 68.6575 306.483 69.8321C306.091 69.4405 305.308 70.2235 304.525 70.2235ZM255.19 66.6998C254.407 66.6998 253.624 66.3081 253.232 65.525C252.841 64.3504 253.624 63.5674 254.407 63.1759C255.581 62.7843 256.756 62.3928 258.322 62.0013C259.497 61.6098 260.28 62.3927 260.671 63.5673C261.063 64.7419 260.28 65.5252 259.105 65.9167C257.931 66.3082 256.756 66.6997 255.581 67.0913C255.581 66.6997 255.581 66.6998 255.19 66.6998ZM289.646 65.9167C288.863 65.9167 288.08 65.525 287.689 65.525L285.731 65.1336C284.556 65.1336 283.773 63.959 284.165 62.7844C284.165 61.6098 285.339 60.8266 286.514 61.2182L288.472 61.6096C289.255 61.6096 289.646 61.6098 290.429 62.0013C291.604 62.0013 292.387 63.1758 291.996 64.3504C291.604 65.1335 290.821 65.9167 289.646 65.9167ZM270.46 64.3504C269.286 64.3504 268.503 63.5674 268.503 62.3928C268.503 61.2181 269.286 60.4351 270.46 60.4351C271.243 60.4351 272.418 60.4351 273.201 60.4351H274.376C275.55 60.4351 276.334 61.2181 276.334 62.3928C276.334 63.5674 275.55 64.3504 274.376 64.3504H273.201C272.418 64.3504 271.243 64.3504 270.46 64.3504Z" fill="black"></path><path d="M328.802 104.68C327.627 104.68 326.844 103.897 326.844 102.722C326.844 101.939 326.844 101.547 326.844 100.764C326.844 99.5896 327.627 98.8066 328.41 98.415C329.585 98.415 330.368 99.1982 330.759 99.9813C330.759 100.764 330.759 101.156 330.759 101.939C331.151 103.505 329.976 104.68 328.802 104.68C328.802 104.68 329.193 104.68 328.802 104.68Z" fill="black"></path><path d="M315.88 98.0234L327.235 121.124L341.723 99.5894L315.88 98.0234Z" fill="black"></path><path d="M194.5 87.4517C194.5 93.7163 189.41 98.4148 183.537 98.4148H25.7417C19.4769 98.4148 14.7783 93.3248 14.7783 87.4517V31.0696C14.7783 24.8049 19.8684 20.1064 25.7417 20.1064H183.537C189.801 20.1064 194.5 25.1964 194.5 31.0696V87.4517Z" fill="#EFEBE1"></path><path d="M183.537 102.331H25.7417C17.5191 102.331 10.8628 95.6744 10.8628 87.452V31.0699C10.8628 22.8476 17.5191 16.1914 25.7417 16.1914H183.537C191.759 16.1914 198.415 22.8476 198.415 31.0699V87.452C198.415 95.6744 191.759 102.331 183.537 102.331ZM25.7417 23.6308C21.8262 23.6308 18.6938 26.7631 18.6938 30.6785V87.0603C18.6938 90.9758 21.8262 94.1083 25.7417 94.1083H183.537C187.452 94.1083 190.584 90.9758 190.584 87.0603V30.6785C190.584 26.7631 187.452 23.6308 183.537 23.6308H25.7417Z" fill="black"></path><path d="M442.351 214.703C442.351 220.968 437.261 225.666 431.388 225.666H273.202C266.937 225.666 262.238 220.576 262.238 214.703V158.321C262.238 152.056 267.328 147.358 273.202 147.358H430.996C437.261 147.358 441.96 152.448 441.96 158.321V214.703H442.351Z" fill="black"></path><path d="M430.996 229.582H273.202C264.979 229.582 258.323 222.925 258.323 214.703V158.321C258.323 150.099 264.979 143.442 273.202 143.442H430.996C439.219 143.442 445.875 150.099 445.875 158.321V214.703C446.267 222.925 439.219 229.582 430.996 229.582ZM273.202 150.882C269.286 150.882 266.154 154.014 266.154 157.929V214.311C266.154 218.227 269.286 221.359 273.202 221.359H430.996C434.912 221.359 438.044 218.227 438.044 214.311V157.929C438.044 154.014 434.912 150.882 430.996 150.882H273.202Z" fill="black"></path><path d="M2.24902 19.7148V2.0957H19.0857" fill="#EFEBE1"></path><path d="M4.20675 19.7148H0.29126V0.137695H19.0857V4.05312H4.20675V19.7148Z" fill="black"></path><path d="M211.337 92.9336V110.553H194.5" fill="#EFEBE1"></path><path d="M213.295 112.511H194.5V108.595H209.379V92.9336H213.295V112.511Z" fill="black"></path><path d="M446.267 242.11H258.323C251.275 242.11 245.402 236.237 245.402 229.19V141.875C245.402 134.828 251.275 128.955 258.323 128.955H446.267C453.315 128.955 459.188 134.828 459.188 141.875V229.19C459.188 236.237 453.315 242.11 446.267 242.11ZM257.931 132.87C252.841 132.87 248.926 136.785 248.926 141.875V229.19C248.926 234.28 252.841 238.195 257.931 238.195H445.876C450.966 238.195 454.881 234.28 454.881 229.19V141.875C454.881 136.785 450.966 132.87 445.876 132.87H257.931Z" fill="black"></path></svg> 