<?xml version="1.0" encoding="UTF-8"?> <svg xmlns="http://www.w3.org/2000/svg" width="453" height="262" viewBox="0 0 453 262" fill="none"><path d="M407.236 259.249H134.765C110.765 259.249 91.0002 239.842 91.0002 215.495C91.0002 191.502 110.412 171.742 134.765 171.742H407.236C431.236 171.742 451 191.149 451 215.495C451 239.842 431.589 259.249 407.236 259.249Z" fill="#999899"></path><path d="M407.235 261.012H134.765C109.706 261.012 89.2355 240.547 89.2355 215.495C89.2355 190.443 109.706 169.979 134.765 169.979H407.235C432.294 169.979 452.765 190.443 452.765 215.495C452.765 240.547 432.294 261.012 407.235 261.012ZM134.765 173.507C111.471 173.507 92.7649 192.208 92.7649 215.495C92.7649 238.783 111.471 257.483 134.765 257.483H407.235C430.53 257.483 449.235 238.783 449.235 215.495C449.235 192.208 430.53 173.507 407.235 173.507H134.765Z" fill="#999899"></path><path d="M368.765 47.1881C368.412 46.1295 369.118 45.071 369.824 45.071C369.824 45.071 370.53 44.7183 371.941 44.7183C373 44.7183 373.706 45.424 373.706 46.4825C373.706 47.5411 373 48.2468 371.941 48.2468C371.235 48.2468 370.529 48.5996 370.529 48.5996C369.824 48.5996 369.118 48.2467 368.765 47.1881Z" fill="black"></path><path d="M380.765 48.5998C380.765 48.247 380.765 47.8941 380.765 47.1885C381.118 46.1301 382.176 45.7776 383.235 46.1304C384.294 46.4832 385.353 47.1888 386.412 47.8944C387.117 48.2472 387.47 49.6582 387.118 50.3638C386.765 51.0694 385.353 51.4224 384.647 51.0696C383.588 50.3641 382.882 50.0112 381.823 49.6584C381.118 49.6584 380.765 48.9526 380.765 48.5998Z" fill="black"></path><path d="M391 124.815C390.647 124.109 391 123.403 391.706 123.05C392.412 122.345 393.471 121.639 394.177 120.933C394.882 120.228 395.941 120.228 396.647 120.933C397.353 121.639 397.353 122.698 396.647 123.404C395.941 124.462 394.882 125.168 393.824 125.873C393.118 126.579 392.059 126.579 391.353 125.521C391.353 125.168 391 125.168 391 124.815ZM399.471 113.877C399.471 113.524 399.471 112.818 399.471 112.465C399.824 111.407 400.529 110.348 400.882 109.29C401.235 108.231 402.294 107.878 403 108.231C404.059 108.584 404.412 109.642 404.059 110.348C403.706 111.407 403 112.818 402.647 113.877C402.294 114.582 401.235 115.288 400.177 114.582C400.177 114.935 399.824 114.229 399.471 113.877ZM403 100.469C403 100.116 403 100.116 403 99.7627C403 98.7041 403 97.6456 403 96.2342C403 95.1757 403.706 94.47 404.765 94.47C405.824 94.47 406.529 95.1757 406.529 96.2342C406.529 97.6456 406.529 98.7041 406.529 99.7627C406.529 100.821 405.471 101.527 404.765 101.527C403.706 101.527 403.353 101.174 403 100.469ZM391.353 57.4211C391 56.7154 391.353 56.0098 392.059 55.3041C392.765 54.5984 393.824 54.9512 394.529 55.6569C395.235 56.7154 395.941 57.4212 396.647 58.8326C397 59.5383 397 60.5966 395.941 61.3023C395.235 61.6552 394.176 61.6554 393.471 60.5968C392.765 59.5383 392.059 58.8324 391.706 57.7739L391.353 57.4211ZM402.294 86.7075C402.294 86.3547 402.294 86.3547 402.294 86.7075C402.294 86.0018 401.941 85.2961 401.941 84.9433L401.588 83.1791C401.235 82.1205 401.941 81.4149 403 81.0621C404.059 80.7092 404.765 81.4146 405.118 82.4731L405.471 84.2373C405.471 84.943 405.824 85.2959 405.824 86.0016C405.824 87.0601 405.471 87.7662 404.412 88.119C403.353 87.7662 402.647 87.4132 402.294 86.7075ZM398.059 69.7707C397.706 68.7122 398.059 68.0066 399.118 67.6537C400.176 67.3009 400.882 67.6539 401.235 68.7125C401.588 69.4181 401.588 70.1238 401.941 70.8294L402.294 71.8877C402.647 72.9463 401.941 73.6523 401.235 74.0051C400.177 74.358 399.471 73.6521 399.118 72.9464L398.765 71.8877C398.412 71.182 398.412 70.4764 398.059 69.7707Z" fill="black"></path><path d="M380.412 131.165C380.059 130.46 380.412 129.401 381.47 129.048C381.823 128.696 382.529 128.695 382.882 128.342C383.941 127.99 384.647 128.343 385.353 129.048C385.706 130.107 385.353 130.813 384.647 131.518C383.941 131.871 383.588 131.871 382.882 132.224C381.823 132.577 381.118 132.224 380.412 131.165Z" fill="black"></path><path d="M382.529 118.11L365.941 134.341L388.176 140.692L382.529 118.11Z" fill="black"></path><path d="M55.0001 108.583C84.2387 108.583 107.941 84.8875 107.941 55.657C107.941 26.4265 84.2387 2.73047 55.0001 2.73047C25.7615 2.73047 2.05896 26.4265 2.05896 55.657C2.05896 84.8875 25.7615 108.583 55.0001 108.583Z" fill="#999899"></path><path d="M55.0001 109.995C25.0001 109.995 0.294189 85.6484 0.294189 55.3037C0.294189 24.9591 24.6472 0.612793 55.0001 0.612793C85.3531 0.612793 109.706 24.9591 109.706 55.3037C109.706 85.6484 85.3531 109.995 55.0001 109.995ZM55.0001 4.494C26.7648 4.494 3.8236 27.4289 3.8236 55.6565C3.8236 83.884 26.7648 106.819 55.0001 106.819C83.2354 106.819 106.177 83.884 106.177 55.6565C106.177 27.4289 83.2354 4.494 55.0001 4.494Z" fill="#999899"></path><path d="M24.6468 62.0075C24.6468 62.3603 24.6468 62.713 23.9409 62.713C23.235 62.713 23.235 62.0075 23.235 62.0075V48.9518C23.235 48.599 23.235 48.2463 23.9409 48.2463C24.6468 48.2463 24.9997 48.599 24.9997 48.9518V62.0075H24.6468ZM38.0586 48.5991C38.0586 48.2462 38.0586 47.8936 38.7645 47.8936C39.4704 47.8936 39.8233 48.2462 39.8233 48.5991V56.7147C39.8233 60.9489 39.4704 65.1832 35.235 68.7117C33.1174 70.4759 29.9409 71.5342 29.235 71.5342C28.8821 71.5342 28.5291 71.1816 28.5291 70.4759C28.5291 69.7702 28.8821 69.7699 29.588 69.7699C38.0586 66.9472 38.0586 60.9489 38.0586 56.7147V48.5991V48.5991Z" fill="black"></path><path d="M29.2352 72.5923C28.1764 72.5923 27.4705 71.8866 27.4705 70.8281C27.4705 69.7696 28.1764 69.4168 28.8823 69.0639C36.9999 66.2413 36.9999 60.5959 36.9999 56.7148V48.9522C36.9999 47.188 38.4117 47.188 38.7646 47.188C39.8235 47.188 40.5294 47.8937 40.5294 48.9522V57.0675C40.5294 61.3015 40.1764 66.2411 35.5881 69.7694C33.4705 71.1808 29.9411 72.5923 29.2352 72.5923ZM38.4117 60.9486C38.0587 62.7128 37.7058 64.4769 36.2941 66.2411C37.7058 64.4769 38.4117 62.7128 38.4117 60.9486ZM23.9411 63.7714C23.2352 63.7714 22.1764 63.4186 22.1764 62.0073V48.9522C22.1764 47.188 23.5882 47.188 23.9411 47.188C24.9999 47.188 25.7058 47.8937 25.7058 48.9522V62.0073C25.7058 63.0658 24.9999 63.7714 23.9411 63.7714Z" fill="black"></path><path d="M60.2943 51.7743C62.412 52.8329 62.765 53.1857 62.765 53.5386C62.765 54.2442 62.412 54.5973 62.059 54.5973C61.7061 54.5973 61.3532 54.5969 61.0002 54.2441C58.8826 53.1855 56.412 52.1273 54.6473 51.4216C54.2943 51.4216 53.9414 51.0685 53.9414 50.7156C53.9414 50.3628 54.2943 50.0101 55.0002 50.0101C55.3531 49.6573 57.8237 50.7158 60.2943 51.7743ZM75.8238 56.0083C75.8238 56.3611 73.3532 60.5954 69.1179 64.1238C62.059 69.7693 55.3531 71.1807 55.0002 71.1807C54.2943 71.1807 53.9414 70.8276 53.9414 70.122C53.9414 69.4163 53.9414 69.4165 56.059 69.0637C62.059 67.6523 68.765 63.4182 73.3532 56.7142C74.412 55.3028 74.412 55.3028 74.765 55.3028C75.4708 54.9499 75.8238 55.3026 75.8238 56.0083Z" fill="black"></path><path d="M55.0001 71.8857C53.9412 71.8857 53.2354 71.1801 53.2354 70.1216C53.2354 68.7103 53.9412 68.7103 56.0589 68.0047C62.7648 66.2405 68.7648 61.6536 73.0001 56.0083C74.0589 54.597 74.4119 53.8914 75.1177 53.8914C76.1766 53.8914 76.8824 54.5971 76.8824 55.6556C76.8824 56.7141 73.706 60.948 69.8236 64.4764C62.7648 70.4745 55.7059 71.8857 55.0001 71.8857ZM55.0001 70.1216C55.0001 70.1216 61.706 69.0631 68.7648 63.0649C71.9413 60.2423 74.0589 57.4196 75.1177 56.0083C75.1177 56.3611 74.7648 56.7142 74.4118 56.7142C70.1765 62.7124 63.4707 67.6519 56.4119 69.4161C55.706 70.1218 55.0001 70.1216 55.0001 70.1216ZM62.0589 55.6556C61.7059 55.6556 61.0001 55.3029 60.6471 54.9501C59.2354 53.8916 57.1177 53.1857 54.2942 52.1272C53.9412 52.1272 52.8824 51.7743 52.8824 50.7158C52.8824 50.0102 53.5883 48.9517 54.6472 48.9517C55.353 48.9517 58.5295 50.0105 60.6471 51.069C62.7648 52.1275 63.4707 52.4802 63.4707 53.5386C63.8236 54.5971 62.7648 55.6556 62.0589 55.6556ZM57.8236 51.4217C59.2354 52.1274 60.2942 52.4802 61.353 53.1859C61.706 53.1859 62.0589 53.5386 62.0589 53.5386C61.7059 53.1858 60.6471 52.48 59.9413 52.48C59.2354 52.1271 58.5295 51.7746 57.8236 51.4217Z" fill="black"></path><path d="M104.764 49.6582C105.47 49.6582 107.235 49.6581 107.235 51.7751C107.235 52.128 106.176 60.5962 99.4702 66.9472C95.5879 70.4756 91.3526 72.2397 90.6467 72.2397C90.2938 72.2397 89.9408 71.8867 89.9408 71.5338C89.9408 71.181 89.9408 70.8284 91.3526 70.4756C94.882 69.0642 100.529 65.1829 103.353 58.8318C104.764 56.0092 105.117 53.1863 105.117 52.4806C105.117 51.775 104.411 51.7751 104.058 51.7751H94.1761C93.4702 51.7751 93.4703 51.7753 92.7644 52.8338C90.6467 56.3622 88.1761 58.8317 87.1173 59.5373C86.7644 59.5373 86.7644 59.8905 86.4114 59.8905C86.0585 59.8905 85.7056 59.5374 85.7056 59.1846C85.7056 58.8317 85.7055 58.8317 87.1173 57.4204C89.5879 55.3034 90.2938 53.8922 91.7055 51.4224C92.4114 50.3639 93.1173 50.3637 94.882 50.3637H104.764V49.6582Z" fill="black"></path><path d="M90.9999 72.5933C89.941 72.5933 89.2352 71.8876 89.2352 70.829C89.2352 69.7705 89.941 69.4177 91.3528 68.712C95.2351 66.9478 100.176 63.4191 102.647 57.4207C103.706 54.598 104.412 52.1281 104.412 51.7753H104.059H94.1763H93.8234C93.8234 51.7753 93.4705 52.128 93.4705 52.4808C91.3528 56.0093 88.8822 58.4792 87.4705 59.5377C87.1175 59.8906 86.7645 60.2437 86.0587 60.2437C85.3528 60.2437 84.2939 59.538 84.2939 58.4794C84.2939 57.7738 84.6469 57.421 86.0587 56.3625C88.5292 54.2454 89.2351 52.8338 90.6469 50.3638C91.7057 48.5996 92.7646 48.5996 94.5293 48.5996H104.059C106.882 48.5996 107.588 50.0112 107.588 51.4225C107.588 52.4811 106.176 60.9495 99.8234 66.9478C96.294 70.8291 92.0587 72.5933 90.9999 72.5933ZM105.47 50.3638C105.823 50.7167 106.176 51.0696 106.176 51.7753C106.176 51.4225 106.176 51.4225 106.176 51.4225C106.176 50.7169 106.176 50.3638 105.47 50.3638Z" fill="black"></path><path d="M127.353 64.8292C125.941 68.0048 124.883 70.1218 122.765 70.1218C120.294 70.1218 117.471 65.8878 117.471 60.9481C117.471 54.2443 122.412 48.9517 129.824 48.9517C136.883 48.9517 141.471 53.8917 141.471 59.8899C141.471 68.7108 133 71.5332 132.294 71.5332C131.588 71.5332 131.588 71.1805 131.588 70.8277C131.588 70.4749 131.588 70.1218 132.647 70.1218C136.53 68.7104 139.706 65.1823 139.706 60.2426C139.706 57.0671 138.294 54.2442 136.177 52.48C134.059 51.0687 132.294 50.7158 130.883 50.7158C130.177 54.9499 129.118 59.8896 127.353 64.8292ZM119.236 60.5954C119.236 64.4766 121.353 68.0049 122.765 68.0049C124.177 68.0049 125.588 64.8294 126.294 62.3596C127.706 58.4784 128.765 53.8916 129.118 49.6576C123.471 50.3633 119.236 54.95 119.236 60.5954Z" fill="black"></path><path d="M132.647 72.2397C131.588 72.2397 130.883 71.1812 130.883 70.4756C130.883 69.4171 131.588 69.0642 132.647 68.7114C135.824 67.6529 139.353 64.477 139.353 59.5373C139.353 56.7146 138.294 54.2447 136.177 52.4805C134.765 51.422 133.353 51.0692 132.294 50.7164C131.588 56.3617 130.53 60.9486 128.765 64.8298C127.706 67.6525 125.941 70.4756 123.471 70.4756C120.294 70.4756 117.471 65.8886 117.471 60.2432C117.471 52.8336 123.118 47.188 130.883 47.188C138.294 47.188 143.235 52.1278 143.235 59.1845C142.53 68.7111 134.059 72.2397 132.647 72.2397ZM128.059 51.0695C123.471 51.7752 119.941 56.0091 119.941 60.596C119.941 64.4772 121.706 67.2999 122.765 67.2999C122.765 67.2999 123.824 67.2999 125.588 62.3601C126.647 59.1846 127.706 55.3036 128.059 51.0695ZM129.824 49.3054C129.824 49.6582 129.824 49.6582 129.824 49.3054C130.177 49.3054 130.177 49.3054 130.177 49.3054H129.824Z" fill="black"></path><path d="M151 57.7725C150.647 57.7725 150.294 57.7727 150.294 57.067C150.294 56.3614 151 56.3615 151 56.3615H173.589C173.942 56.3615 174.294 56.3614 174.294 57.067C174.294 57.7727 173.589 57.7725 173.589 57.7725H164.059C164.059 61.3009 163.353 65.1822 160.883 68.0049C158.765 70.4747 155.589 71.5332 155.236 71.5332C154.53 71.5332 154.53 70.8278 154.53 70.475C154.53 70.1221 154.53 70.1219 155.589 69.4163C161.942 66.9464 162.294 61.6537 162.294 57.7725H151V57.7725ZM170.412 48.9517C170.765 48.9517 171.118 48.9519 171.118 49.6576C171.118 50.3633 170.412 50.3631 170.412 50.3631H154.177C153.824 50.3631 153.471 50.3633 153.471 49.6576C153.471 48.9519 153.824 48.9517 154.177 48.9517H170.412Z" fill="black"></path><path d="M154.883 72.5933C153.824 72.5933 153.118 71.5347 153.118 70.829C153.118 69.7704 153.824 69.4176 154.883 69.0647C160.177 66.9476 161.236 63.0661 161.236 58.8319H151C149.941 58.8319 149.236 58.1262 149.236 57.0676C149.236 56.3619 149.589 55.3034 151 55.3034H173.588C174.647 55.3034 175.353 56.0091 175.353 57.0676C175.353 58.1262 174.647 58.8319 173.588 58.8319H164.765C164.765 62.3604 164.059 65.8891 161.236 68.712C159.118 71.1819 155.588 72.5933 154.883 72.5933ZM162.647 57.0676C163 57.4205 163.353 57.7732 163.353 57.7732C163.353 58.126 163.353 58.4791 163.353 58.8319C163.353 58.4791 163.353 58.1261 163.353 57.4204C163.353 57.0676 163.706 56.7149 164.059 56.7149L162.647 57.0676ZM170.412 51.4221H154.177C152.765 51.4221 152.412 50.3635 152.412 49.6578C152.412 48.5993 153.118 47.8936 154.177 47.8936H170.059C171.471 47.8936 171.824 48.5993 171.824 49.6578C172.177 50.7164 171.471 51.4221 170.412 51.4221Z" fill="black"></path><path d="M192.647 48.5983C192.294 47.5398 193.353 47.54 193.353 47.54C193.706 47.54 194.059 47.8927 194.059 48.2456L194.765 52.8328L202.882 51.4213C203.235 51.4213 203.941 51.4211 203.941 52.1268C203.941 52.4796 203.588 52.8328 203.235 52.8328L195.118 54.2438L196.176 59.8897L205.706 58.4782C206.765 58.4782 206.765 59.1838 206.765 59.1838C206.765 59.8895 206.412 59.8897 206.059 59.8897L196.529 61.3008L198.294 70.1219C198.647 71.1805 197.588 71.1807 197.235 71.1807C196.529 71.1807 196.529 70.828 196.529 70.4751L194.765 61.3008L183.823 63.065C183.118 63.065 183.118 62.3595 183.118 62.3595C183.118 61.6538 183.47 61.6539 183.823 61.6539L194.765 59.8897L193.706 54.2438L185.588 55.6553C184.529 55.6553 184.529 54.9498 184.529 54.9498C184.529 54.2441 184.882 54.2438 185.235 54.2438L193.353 52.8328L192.647 48.5983Z" fill="black"></path><path d="M197.588 72.5933C196.882 72.5933 196.176 72.2403 195.823 71.1818L194.412 63.0662L184.176 64.8304C183.47 64.8304 183.117 64.8305 182.765 64.4777C182.412 64.1248 182.059 63.7719 182.059 63.0662C182.059 62.3605 182.412 61.6552 183.47 61.6552L193.706 59.8909L193 56.0093L185.588 57.068C184.882 57.068 184.529 57.0681 184.176 56.7153C183.823 56.3624 183.47 56.0095 183.47 55.3038C183.47 54.2453 184.176 53.8924 184.882 53.5396L192.294 52.4809L191.588 48.9524C191.588 48.2467 191.588 47.8942 191.941 47.5414C192.294 46.8357 193.353 46.8354 193.353 46.8354C193.706 46.8354 194.765 46.8355 195.117 48.2469L195.823 52.1281L202.882 51.0698C203.235 51.0698 203.941 51.0698 204.294 51.4226C204.647 51.7754 205 52.1284 205 52.8341C205 53.8926 204.294 54.2454 203.588 54.5983L196.529 55.6566L197.235 59.5378L206.059 58.1267C206.764 58.1267 207.117 58.1266 207.47 58.4795C207.823 58.8323 208.176 59.1853 208.176 59.8909C208.176 60.5966 207.47 61.3023 206.764 61.6552L198.294 63.0662L199.706 71.1818C199.706 71.8875 199.706 72.2404 199.353 72.5933C198.647 72.5933 197.941 72.5933 197.588 72.5933ZM195.117 61.302C195.47 61.302 195.47 61.6552 195.823 61.6552V61.302C195.823 61.302 195.823 61.3021 196.176 60.9492C195.823 60.9492 195.823 60.5965 195.47 60.5965C195.47 60.5965 195.47 60.9491 195.117 61.302C195.117 60.9491 195.47 60.9491 195.117 61.302ZM193.706 53.8923C194.059 53.8923 194.059 54.2451 194.412 54.2451V53.8923C194.412 53.8923 194.412 53.8924 194.764 53.5396C194.412 53.5396 194.412 53.1868 194.059 53.1868C194.059 53.5397 194.059 53.5395 193.706 53.8923C194.059 53.8923 194.059 53.8923 193.706 53.8923Z" fill="black"></path><path d="M218.765 51.0697C218.412 51.0697 218.059 51.0694 218.059 50.3637C218.059 49.658 218.765 49.6582 218.765 49.6582H232.882C233.941 49.6582 235.353 49.6582 235.353 51.4224C235.353 53.1866 232.882 57.7735 230.765 60.5963C232.176 61.6548 235.706 64.8306 239.235 68.7119C239.588 69.4176 239.941 69.4173 239.941 69.7702C239.941 70.123 239.588 70.8289 238.882 70.8289C238.529 70.8289 238.176 70.4758 237.823 70.1229C234.294 65.8888 231.47 63.4191 229.706 62.0078C224.412 68.359 217.706 71.1816 217.353 71.1816C216.647 71.1816 216.647 70.8286 216.647 70.1229C216.647 69.7701 216.647 69.7703 217.706 69.0647C230.412 62.7135 233.588 52.128 233.588 51.7752C233.588 51.4223 233.235 51.0697 232.529 51.0697H218.765V51.0697Z" fill="black"></path><path d="M217.353 71.8872C216.294 71.8872 215.588 71.1815 215.588 70.123C215.588 69.0645 216.294 68.7116 217 68.3588C228.294 63.0662 231.823 53.8925 232.176 51.7755H218.765C217.353 51.7755 217 51.0698 217 50.0113C217 49.6584 217 48.2471 218.765 48.2471H232.882C233.941 48.2471 236.412 48.2472 236.412 51.07C236.412 53.187 233.941 57.421 232.176 60.2437C233.941 61.6551 237.117 64.4776 239.941 68.006C240.294 68.7117 240.647 69.0647 240.647 69.4175C240.647 70.476 239.941 71.1817 238.882 71.1817C237.823 71.1817 237.47 70.4758 237.117 70.123C234.294 66.5946 231.823 64.1248 230.059 62.7134C224.412 69.0646 218.059 71.8872 217.353 71.8872ZM236.764 67.3005C237.117 68.0062 237.823 68.3591 238.176 69.0647L238.529 69.4175L238.176 69.0647C237.823 68.7119 237.117 68.0062 236.764 67.3005ZM229.706 60.2437C229.706 60.5966 229.353 60.5964 229.353 60.9492C229.353 60.9492 229.353 60.9492 229.706 60.9492H230.059C229.706 60.9492 229.706 60.5966 229.706 60.2437ZM233.235 50.364C233.588 50.364 234.294 51.0698 234.294 51.7755C234.294 51.7755 233.941 52.8342 233.235 54.5984C233.941 53.187 234.294 52.1284 234.294 51.4227C234.294 50.717 233.941 50.364 233.235 50.364Z" fill="black"></path><path d="M257.588 71.1803C257.588 71.5331 257.588 71.8857 256.883 71.8857C256.177 71.8857 255.824 71.5331 255.824 71.1803V47.8939C255.824 47.5411 255.824 47.188 256.53 47.188C257.235 47.188 257.588 47.5411 257.588 47.8939V55.3031C263.941 58.1257 266.765 60.2428 269.588 62.0069C270.294 62.7125 270.647 62.7123 270.647 63.0651C270.647 63.4179 270.294 64.1238 269.941 64.1238C269.588 64.1238 269.588 64.1236 268.177 63.0651C264.647 60.5953 260.765 58.4786 257.941 57.0673V71.1803H257.588Z" fill="black"></path><path d="M256.529 72.9463C255.823 72.9463 254.765 72.9463 254.765 71.182V47.8937C254.765 46.8351 255.471 46.1294 256.529 46.1294C257.588 46.1294 258.294 46.8351 258.294 47.8937V54.9508C263.941 57.4208 267.118 59.5376 269.588 61.3019L269.941 61.6551C270.647 62.008 271.353 62.7137 271.353 63.4194C271.353 64.4779 270.647 65.1837 269.588 65.1837C268.882 65.1837 268.529 64.8306 267.471 64.1249C264.294 61.6549 260.765 59.8907 258.647 58.8321V71.182C258.294 72.2406 257.941 72.9463 256.529 72.9463ZM256.529 71.182V57.4206C256.529 57.0677 256.529 56.715 256.882 56.715H257.235H256.882C256.529 56.715 256.176 56.3619 256.176 56.0091V48.5992L256.529 71.182ZM266.765 61.6551C267.118 62.008 267.824 62.3606 268.176 62.7134C268.882 63.4191 269.235 63.7721 269.588 63.7721C269.588 63.7721 269.235 63.4194 268.882 63.4194L268.529 63.0662C268.176 62.3605 267.471 62.008 266.765 61.6551Z" fill="black"></path><path d="M292.177 75.7686C291.471 75.7686 290.412 75.4155 289.706 74.7098C288.294 73.2985 288.294 71.1813 289.353 69.7699L299.941 58.1263L289.706 48.2465C288.294 46.8351 288.294 44.718 289.706 43.3066C291.118 41.8952 293.235 41.8952 294.647 43.3066L307.706 55.3034C309.118 56.7148 309.118 58.8319 308.059 60.2433L295 74.3571C293.941 75.4156 293.235 75.7686 292.177 75.7686Z" fill="#4C4B4C"></path><path d="M132.295 219.729C132.295 220.082 132.295 220.435 131.589 220.435C130.883 220.435 130.883 219.729 130.883 219.729V206.674C130.883 206.321 130.883 205.968 131.589 205.968C132.295 205.968 132.648 206.321 132.648 206.674V219.729H132.295ZM145.706 206.321C145.706 205.968 145.706 205.615 146.412 205.615C147.118 205.615 147.471 205.968 147.471 206.321V214.437C147.471 218.671 147.118 222.905 142.883 226.434C140.765 228.198 137.589 229.257 136.883 229.257C136.53 229.257 136.177 228.904 136.177 228.198C136.177 227.492 136.53 227.493 137.236 227.493C145.706 224.67 145.706 218.671 145.706 214.437V206.321V206.321Z" fill="black"></path><path d="M136.883 229.96C135.824 229.96 135.118 229.255 135.118 228.196C135.118 227.138 135.824 226.785 136.53 226.432C144.647 223.609 144.647 217.964 144.647 214.083V206.321C144.647 204.557 146.059 204.557 146.412 204.557C147.471 204.557 148.177 205.262 148.177 206.321V214.436C148.177 218.67 147.824 223.609 143.235 227.138C141.118 228.549 137.941 229.96 136.883 229.96ZM146.412 218.317C146.059 220.081 145.706 221.845 144.294 223.609C145.353 221.845 146.059 220.081 146.412 218.317ZM131.588 221.492C130.883 221.492 129.824 221.14 129.824 219.728V206.674C129.824 204.909 131.235 204.909 131.588 204.909C132.647 204.909 133.353 205.615 133.353 206.674V219.728C133.353 220.787 132.647 221.492 131.588 221.492Z" fill="black"></path><path d="M168.294 209.144C170.412 210.203 170.765 210.555 170.765 210.908C170.765 211.614 170.412 211.967 170.059 211.967C169.706 211.967 169.353 211.967 169 211.614C166.883 210.556 164.412 209.497 162.647 208.791C162.294 208.791 161.942 208.439 161.942 208.086C161.942 207.733 162.294 207.38 163 207.38C163 207.027 165.824 208.085 168.294 209.144ZM183.471 213.378C183.471 213.731 181 217.965 176.765 221.494C169.706 227.139 163 228.551 162.647 228.551C161.942 228.551 161.589 228.198 161.589 227.492C161.589 226.787 161.589 226.787 163.706 226.434C169.706 225.022 176.412 220.788 181 214.084C182.059 212.673 182.059 212.673 182.412 212.673C183.118 212.673 183.471 213.026 183.471 213.378Z" fill="black"></path><path d="M162.647 229.609C161.588 229.609 160.882 228.903 160.882 227.845C160.882 226.433 161.588 226.434 163.706 225.728C170.412 223.964 176.412 219.377 180.647 213.732C181.706 212.32 182.059 211.615 182.765 211.615C183.824 211.615 184.53 212.32 184.53 213.379C184.53 214.437 181.353 218.671 177.471 222.2C170.412 227.845 163.353 229.609 162.647 229.609ZM162.647 227.845C162.647 227.845 169.353 226.786 176.412 220.788C179.588 217.966 181.706 215.143 182.765 213.732C182.765 214.084 182.412 214.437 182.059 214.437C177.824 220.435 171.118 225.375 164.059 227.139C163.353 227.492 163 227.492 162.647 227.845ZM169.706 213.026C169.353 213.026 168.647 212.673 168.294 212.32C166.882 211.262 164.765 210.556 161.941 209.497C161.588 209.497 160.53 209.145 160.53 208.086C160.53 207.381 161.235 206.322 162.294 206.322C163 206.322 166.177 207.381 168.294 208.439C170.412 209.498 171.118 209.85 171.118 210.909C171.471 212.32 170.765 213.026 169.706 213.026ZM165.471 209.145C166.882 209.85 167.941 210.203 169 210.909C169.353 210.909 169.706 211.262 169.706 211.262C169.353 210.909 168.294 210.203 167.588 210.203C166.882 209.85 166.177 209.497 165.471 209.145Z" fill="black"></path><path d="M212.412 207.027C213.118 207.027 214.883 207.027 214.883 209.144C214.883 209.497 213.824 217.965 207.118 224.316C203.235 227.845 199 229.609 198.294 229.609C197.941 229.609 197.588 229.256 197.588 228.903C197.588 228.55 197.588 228.198 199 227.845C202.53 226.433 208.177 222.552 211 216.201C212.412 213.378 212.765 210.556 212.765 209.85C212.765 209.145 212.059 209.144 211.706 209.144H201.824C201.118 209.144 201.118 209.144 200.412 210.203C198.294 213.731 195.824 216.201 194.765 216.907C194.412 216.907 194.412 217.26 194.059 217.26C193.706 217.26 193.353 216.907 193.353 216.554C193.353 216.201 193.353 216.201 194.765 214.79C197.235 212.673 197.941 211.261 199.353 208.792C200.059 207.733 200.765 207.733 202.53 207.733H212.412V207.027Z" fill="black"></path><path d="M198.648 229.961C197.589 229.961 196.883 229.256 196.883 228.197C196.883 227.139 197.589 226.786 199 226.08C202.883 224.316 207.824 220.788 210.295 214.79C211.353 211.967 212.059 209.497 212.059 209.144H211.706H201.824H201.471C201.471 209.144 201.118 209.497 201.118 209.85C199 213.379 196.53 215.848 195.118 216.907C194.765 217.26 194.412 217.612 193.706 217.612C193 217.612 191.942 216.907 191.942 215.848C191.942 215.143 192.295 214.79 193.706 213.731C196.177 211.614 196.883 210.203 198.295 207.733C199.353 205.969 200.412 205.969 202.177 205.969H211.706C214.53 205.969 215.236 207.38 215.236 208.792C215.236 209.85 213.824 218.318 207.471 224.316C203.942 228.197 199.706 229.961 198.648 229.961ZM213.118 207.733C213.471 208.086 213.824 208.439 213.824 209.144C213.824 208.791 213.824 208.792 213.824 208.792C213.824 208.439 213.824 208.086 213.118 207.733Z" fill="black"></path><path d="M235 222.2C233.588 225.375 232.53 227.492 230.412 227.492C227.941 227.492 225.118 223.258 225.118 218.318C225.118 211.614 230.059 206.321 237.471 206.321C244.53 206.321 249.118 211.261 249.118 217.26C249.118 226.081 240.647 228.903 239.941 228.903C239.236 228.903 239.236 228.551 239.236 228.198C239.236 227.845 239.235 227.492 240.294 227.492C244.177 226.081 247.353 222.552 247.353 217.612C247.353 214.437 245.941 211.614 243.824 209.85C241.706 208.438 239.941 208.086 238.53 208.086C237.824 212.673 237.118 217.612 235 222.2ZM226.883 218.318C226.883 222.199 229 225.728 230.412 225.728C231.824 225.728 233.236 222.552 233.941 220.082C235.353 216.201 236.412 211.614 236.765 207.38C231.471 208.085 226.883 212.319 226.883 218.318Z" fill="black"></path><path d="M240.294 229.608C239.235 229.608 238.53 228.549 238.53 227.844C238.53 226.785 239.235 226.432 240.294 226.08C243.471 225.021 247 221.846 247 216.906C247 214.083 245.941 211.613 243.824 209.849C242.412 208.791 241 208.438 239.941 208.085C239.235 213.73 238.177 218.317 236.412 222.198C235.353 225.021 233.588 227.844 231.118 227.844C227.941 227.844 225.118 223.257 225.118 217.611C225.118 210.202 230.765 204.557 238.53 204.557C245.941 204.557 250.882 209.496 250.882 216.553C250.177 226.079 241.706 229.608 240.294 229.608ZM236.059 208.438C231.471 209.143 227.941 213.377 227.941 217.964C227.941 221.845 229.706 224.668 230.765 224.668C230.765 224.668 231.824 224.668 233.588 219.728C234.647 216.553 235.353 212.672 236.059 208.438ZM237.471 207.026C237.471 207.026 237.824 207.026 237.471 207.026C237.824 207.026 237.824 207.026 237.824 207.026C237.824 207.026 237.824 207.026 237.471 207.026Z" fill="black"></path><path d="M258.648 215.496C258.295 215.496 257.942 215.496 257.942 214.79C257.942 214.085 258.648 214.085 258.648 214.085H281.236C281.589 214.085 281.942 214.085 281.942 214.79C281.942 215.496 281.236 215.496 281.236 215.496H271.706C271.706 219.025 271 222.906 268.53 225.729C266.412 228.199 263.236 229.258 262.883 229.258C262.177 229.258 262.177 228.552 262.177 228.199C262.177 227.846 262.177 227.846 263.236 227.14C269.589 224.67 269.942 219.378 269.942 215.496H258.648V215.496ZM278.059 206.322C278.412 206.322 278.765 206.322 278.765 207.028C278.765 207.734 278.059 207.733 278.059 207.733H262.177C261.824 207.733 261.471 207.734 261.471 207.028C261.471 206.322 261.824 206.322 262.177 206.322H278.059Z" fill="black"></path><path d="M262.53 229.962C261.471 229.962 260.765 228.903 260.765 228.198C260.765 227.139 261.471 226.786 262.53 226.433C267.824 224.316 268.883 220.435 268.883 216.201H258.647C257.589 216.201 256.883 215.495 256.883 214.436C256.883 213.731 257.236 212.672 258.647 212.672H281.235C282.294 212.672 283 213.378 283 214.436C283 215.495 282.294 216.201 281.235 216.201H272.412C272.412 219.729 271.706 223.258 268.883 226.081C266.765 228.903 263.236 229.962 262.53 229.962ZM270.294 214.789C270.647 215.142 271 215.495 271 215.495C271 215.848 271 216.201 271 216.553C271 216.201 271 215.848 271 215.142C271 214.79 271.353 214.436 271.706 214.436L270.294 214.789ZM278.059 209.144H262.177C260.765 209.144 260.412 208.085 260.412 207.379C260.412 206.321 261.118 205.615 262.177 205.615H278.059C279.471 205.615 279.824 206.321 279.824 207.379C279.824 208.085 279.118 209.144 278.059 209.144Z" fill="black"></path><path d="M300.295 205.967C299.942 204.908 301.001 204.908 301.001 204.908C301.353 204.908 301.706 205.261 301.706 205.614L302.412 210.201L310.53 208.79C310.883 208.79 311.589 208.789 311.589 209.495C311.589 209.848 311.236 210.201 310.883 210.201L302.765 211.613L303.824 217.258L313.354 215.847C314.412 215.847 314.412 216.552 314.412 216.552C314.412 217.258 314.059 217.258 313.706 217.258L304.177 218.67L305.942 227.491C306.295 228.55 305.236 228.549 304.883 228.549C304.177 228.549 304.177 228.197 304.177 227.844L302.412 218.67L291.471 220.434C290.765 220.434 290.765 219.728 290.765 219.728C290.765 219.022 291.118 219.022 291.471 219.022L302.412 217.258L301.353 211.613L293.236 213.024C292.177 213.024 292.177 212.318 292.177 212.318C292.177 211.612 292.53 211.613 292.883 211.613L301.001 210.201L300.295 205.967Z" fill="black"></path><path d="M305.236 230.314C304.53 230.314 303.824 229.961 303.471 228.903L302.059 220.787L291.824 222.552C291.118 222.552 290.765 222.552 290.412 222.199C290.059 221.846 289.706 221.493 289.706 220.787C289.706 220.082 290.059 219.376 291.118 219.376L301.353 217.612L300.648 213.73L293.236 214.789C292.53 214.789 292.177 214.789 291.824 214.436C291.471 214.083 291.118 213.73 291.118 213.025C291.118 211.966 291.824 211.613 292.53 211.26L299.942 210.202L299.236 206.674C299.236 205.968 299.236 205.615 299.589 205.262C299.942 204.556 301 204.557 301 204.557C301.353 204.557 302.412 204.556 302.765 205.968L303.471 209.849L310.53 208.791C310.883 208.791 311.589 208.791 311.942 209.143C312.295 209.496 312.648 209.849 312.648 210.555C312.648 211.613 311.942 211.966 311.236 212.319L304.177 213.378L304.883 217.259L313.706 215.847C314.412 215.847 314.765 215.847 315.118 216.2C315.471 216.553 315.824 216.906 315.824 217.612C315.824 218.317 315.118 219.023 314.412 219.376L305.942 220.787L307.353 228.903C307.353 229.608 307.353 229.961 307 230.314C306.295 229.961 305.942 230.314 305.236 230.314ZM302.765 218.67C303.118 218.67 303.118 219.023 303.471 219.023V218.67C303.471 218.67 303.471 218.67 303.824 218.317C303.471 218.317 303.471 217.964 303.118 217.964C303.118 218.317 303.118 218.318 302.765 218.67C303.118 218.67 303.118 218.67 302.765 218.67ZM301.706 211.26C302.059 211.26 302.059 211.614 302.412 211.614V211.26C302.412 211.26 302.412 211.26 302.765 210.908C302.412 210.908 302.412 210.555 302.059 210.555C302.059 210.908 302.059 210.907 301.706 211.26Z" fill="black"></path><path d="M326.412 208.439C326.059 208.439 325.706 208.439 325.706 207.733C325.706 207.027 326.412 207.027 326.412 207.027H340.53C341.589 207.027 343 207.027 343 208.792C343 210.556 340.53 215.143 338.412 217.965C339.824 219.024 343.353 222.2 346.883 226.081C347.236 226.787 347.589 226.786 347.589 227.139C347.589 227.492 347.236 228.198 346.53 228.198C346.177 228.198 345.824 227.845 345.471 227.493C341.942 223.258 339.118 220.788 337.353 219.377C332.059 225.728 325.353 228.551 325 228.551C324.294 228.551 324.295 228.198 324.295 227.493C324.295 227.14 324.295 227.139 325.353 226.434C338.059 220.083 341.236 209.497 341.236 209.144C341.236 208.791 340.883 208.439 340.177 208.439H326.412V208.439Z" fill="black"></path><path d="M325 229.257C323.942 229.257 323.236 228.551 323.236 227.493C323.236 226.434 323.942 226.081 324.647 225.728C335.942 220.435 339.471 211.261 339.824 209.144H326.412C325 209.144 324.647 208.438 324.647 207.38C324.647 207.027 324.647 205.615 326.412 205.615H340.53C341.589 205.615 344.059 205.615 344.059 208.438C344.059 210.555 341.589 214.79 339.824 217.612C341.589 219.024 344.765 221.847 347.589 225.375C347.942 226.081 348.295 226.434 348.295 226.787C348.295 227.845 347.589 228.551 346.53 228.551C345.471 228.551 345.118 227.845 344.765 227.493C341.942 223.964 339.471 221.494 337.706 220.082C332.059 226.787 325.706 229.257 325 229.257ZM344.412 225.022C344.765 225.728 345.471 226.081 345.824 226.787L346.177 227.139L345.824 226.787C345.471 226.081 345.118 225.375 344.412 225.022ZM337.353 217.965C337.353 218.318 337 218.318 337 218.671C337 218.671 337 218.671 337.353 218.671H337.706C337.353 218.318 337.353 217.965 337.353 217.965ZM340.883 207.732C341.236 207.732 341.942 208.438 341.942 209.144C341.942 209.144 341.589 210.203 340.883 211.967C341.589 210.555 341.942 209.497 341.942 208.791C341.942 208.085 341.942 207.732 340.883 207.732Z" fill="black"></path><path d="M365.235 228.902C365.235 229.255 365.235 229.608 364.53 229.608C363.824 229.608 363.471 229.255 363.471 228.902V205.614C363.471 205.261 363.471 204.908 364.177 204.908C364.883 204.908 365.235 205.261 365.235 205.614V213.024C371.588 215.846 374.412 217.964 377.235 219.728C377.941 220.434 378.294 220.434 378.294 220.787C378.294 221.139 377.941 221.845 377.588 221.845C377.235 221.845 377.235 221.845 375.824 220.787C372.294 218.317 368.412 216.199 365.588 214.788V228.902H365.235Z" fill="black"></path><path d="M364.53 230.314C363.824 230.314 362.765 230.314 362.765 228.55V205.262C362.765 204.204 363.471 203.498 364.53 203.498C365.588 203.498 366.294 204.204 366.294 205.262V212.319C371.941 214.789 375.118 216.906 377.588 218.671L377.941 219.023C378.647 219.376 379.353 220.082 379.353 220.788C379.353 221.846 378.647 222.552 377.588 222.552C376.882 222.552 376.53 222.199 375.471 221.493C372.294 219.023 368.765 217.259 366.647 216.201V228.55C366.294 229.962 365.588 230.314 364.53 230.314ZM364.53 228.55V214.789C364.53 214.436 364.53 214.084 364.883 214.084H365.235H364.883C364.53 214.084 364.177 213.731 364.177 213.378V205.968L364.53 228.55ZM374.412 219.023C374.765 219.376 375.471 219.729 375.824 220.082C376.53 220.787 376.883 221.14 377.236 221.14C377.236 221.14 376.883 220.788 376.53 220.788L376.177 220.435C375.824 220.082 375.118 219.376 374.412 219.023Z" fill="black"></path><path d="M399.824 233.137C399.118 233.137 398.059 232.784 397.353 232.079C395.941 230.667 395.941 228.55 397 227.139L407.588 215.495L397.353 205.616C395.941 204.204 395.941 202.087 397.353 200.676C398.765 199.264 400.882 199.264 402.294 200.676L415.353 212.672C416.765 214.084 416.765 216.201 415.706 217.612L402.647 231.726C401.941 232.784 400.883 233.137 399.824 233.137Z" fill="#4C4B4C"></path></svg> 