<?xml version="1.0" encoding="UTF-8"?> <svg xmlns="http://www.w3.org/2000/svg" width="410" height="239" viewBox="0 0 410 239" fill="none"><path d="M220.059 91.9717C219 91.9717 218.294 90.9131 218.294 90.2074C218.294 90.2074 218.294 89.5021 218.647 88.0907C219 87.0321 219.706 86.6787 220.764 86.6787C221.823 87.0316 222.176 87.7376 222.176 88.7962C221.823 89.502 221.823 90.2074 221.823 90.2074C221.823 91.266 221.117 91.9717 220.059 91.9717Z" fill="black"></path><path d="M225.353 81.0332C225 81.0332 224.647 81.0329 224.294 80.6801C223.588 79.9745 223.588 78.9162 224.294 78.2106C225 77.1522 226.059 76.4468 227.118 75.7412C227.823 75.0356 228.882 75.3879 229.588 76.0935C230.294 76.7991 229.941 77.8582 229.235 78.5638C228.529 79.2694 227.471 79.9745 226.765 80.6801C226.412 80.6801 225.706 81.0332 225.353 81.0332Z" fill="black"></path><path d="M300.882 95.853C300.176 95.853 299.471 95.5 299.118 94.7943C298.765 93.7358 298.412 92.6776 297.706 91.619C297.353 90.9134 297.706 89.855 298.412 89.1493C299.118 88.7964 300.176 89.1491 300.882 89.8548C301.588 90.9134 301.941 91.9715 302.294 93.0301C302.647 94.0886 302.294 94.7947 301.235 95.1475C301.235 95.8532 301.235 95.853 300.882 95.853ZM293.118 84.2089C292.765 84.2089 292.059 84.2094 292.059 83.8566C291.353 83.1509 290.294 82.4449 289.588 81.7392C288.882 81.0335 288.529 79.9751 289.235 79.2694C289.941 78.5637 291 78.2105 291.706 78.9162C292.765 79.6219 293.47 80.6803 294.529 81.386C295.235 82.0917 295.235 83.1509 294.529 83.8566C294.176 83.8566 293.823 84.2089 293.118 84.2089ZM281.471 76.4465C281.118 76.4465 281.118 76.4465 280.765 76.4465C279.706 76.0936 278.647 75.7406 277.588 75.3878C276.529 75.0349 276.176 73.9769 276.529 73.2712C276.882 72.2127 277.941 71.8597 278.647 72.2125C279.706 72.5653 281.118 72.9178 282.176 73.6235C283.235 73.9764 283.588 75.0348 283.235 76.0933C282.882 76.0933 282.176 76.4465 281.471 76.4465ZM237 73.6235C236.294 73.6235 235.588 73.2705 235.235 72.5648C234.882 71.5063 235.588 70.8011 236.294 70.4483C237.353 70.0954 238.412 69.7424 239.823 69.3896C240.882 69.0367 241.588 69.7421 241.941 70.8006C242.294 71.8591 241.588 72.5652 240.529 72.918C239.471 73.2709 238.412 73.6239 237.353 73.9767C237.353 73.6239 237.353 73.6235 237 73.6235ZM268.059 72.5648C267.353 72.5648 266.647 72.2125 266.294 72.2125L264.529 71.8593C263.471 71.8593 262.765 70.8013 263.118 69.7427C263.118 68.6842 264.176 67.978 265.235 68.3308L267 68.684C267.706 68.684 268.059 68.6835 268.765 69.0364C269.823 69.0364 270.529 70.0952 270.176 71.1538C269.823 72.2123 269.118 72.5648 268.059 72.5648ZM250.765 71.507C249.706 71.507 249 70.8013 249 69.7427C249 68.6842 249.706 67.9785 250.765 67.9785C251.471 67.9785 252.529 67.9785 253.235 67.9785H254.294C255.353 67.9785 256.059 68.6842 256.059 69.7427C256.059 70.8013 255.353 71.507 254.294 71.507H253.235C252.529 71.507 251.471 71.507 250.765 71.507Z" fill="black"></path><path d="M303.353 107.85C302.294 107.85 301.588 107.144 301.588 106.086C301.588 105.38 301.588 105.027 301.588 104.322C301.588 103.263 302.294 102.558 303 102.205C304.059 102.205 304.765 102.91 305.118 103.616C305.118 104.322 305.118 104.675 305.118 105.38C305.471 106.792 304.765 107.497 303.353 107.85C303.706 107.85 303.706 107.85 303.353 107.85Z" fill="black"></path><path d="M291.706 101.852L301.941 122.669L315 103.263L291.706 101.852Z" fill="black"></path><path d="M156.53 78.21H14.2943C6.88252 78.21 0.882568 72.2114 0.882568 64.8017V13.9923C0.882568 6.58253 6.88252 0.583984 14.2943 0.583984H156.53C163.941 0.583984 169.941 6.58253 169.941 13.9923V64.8017C169.941 72.2114 163.941 78.21 156.53 78.21ZM13.9414 7.2877C10.412 7.2877 7.58843 10.1106 7.58843 13.6391V64.4493C7.58843 67.9778 10.412 70.7999 13.9414 70.7999H156.177C159.706 70.7999 162.529 67.9778 162.529 64.4493V13.6391C162.529 10.1106 159.706 7.2877 156.177 7.2877H13.9414Z" fill="black"></path><path d="M215.118 42.9248H132.882C130.765 42.9248 129.353 41.5135 129.353 39.3965C129.353 37.2794 130.765 35.8681 132.882 35.8681H208.059L186.176 5.87713C185.118 4.46579 185.471 1.99629 186.882 0.937787C188.294 -0.120718 190.765 0.231944 191.823 1.64328L217.588 37.2791C218.294 38.3376 218.647 39.7489 217.941 40.8075C217.588 42.2188 216.176 42.9248 215.118 42.9248Z" fill="black"></path><path d="M310.765 224.995C310.765 230.64 306.177 234.874 300.882 234.874H158.647C153 234.874 148.765 230.287 148.765 224.995V174.184C148.765 168.539 153.353 164.305 158.647 164.305H300.882C306.53 164.305 310.765 168.892 310.765 174.184V224.995Z" fill="black"></path><path d="M300.882 238.401H158.647C151.235 238.401 145.235 232.404 145.235 224.994V174.184C145.235 166.774 151.235 160.775 158.647 160.775H300.882C308.294 160.775 314.294 166.774 314.294 174.184V224.994C314.294 232.404 308.294 238.401 300.882 238.401ZM158.294 167.48C154.765 167.48 151.941 170.303 151.941 173.831V224.641C151.941 228.169 154.765 230.992 158.294 230.992H300.53C304.059 230.992 306.882 228.169 306.882 224.641V173.831C306.882 170.303 304.059 167.48 300.53 167.48H158.294Z" fill="black"></path><path d="M405.706 202.765H288.882C286.765 202.765 285.353 201.353 285.353 199.236C285.353 197.119 286.765 195.708 288.882 195.708H399L377.118 165.717C376.059 164.305 376.412 161.835 377.823 160.776C379.235 159.718 381.706 160.071 382.765 161.483L408.529 197.119C409.235 198.177 409.588 199.589 408.882 200.647C408.529 202.059 407.117 202.765 405.706 202.765Z" fill="black"></path></svg> 