<?xml version="1.0" encoding="UTF-8"?> <svg xmlns="http://www.w3.org/2000/svg" width="388" height="200" viewBox="0 0 388 200" fill="none"><path d="M197.647 63.998C196.588 63.998 195.882 62.9396 195.882 62.2339C195.882 62.2339 195.882 61.5283 196.235 60.117C196.588 59.0585 197.294 58.7056 198.353 58.7056C199.412 59.0584 199.765 59.764 199.765 60.8225C199.412 61.5281 199.412 62.2339 199.412 62.2339C199.412 63.2924 198.353 63.998 197.647 63.998Z" fill="black"></path><path d="M202.941 53.0601C202.588 53.0601 202.235 53.0601 201.882 52.7073C201.177 52.0016 201.177 50.9429 201.882 50.2372C202.588 49.1787 203.647 48.4732 204.706 47.7675C205.412 47.0618 206.471 47.4146 207.177 48.1202C207.882 48.8259 207.529 49.8847 206.824 50.5904C206.118 51.296 205.059 52.0016 204.353 52.7073C203.647 52.7073 203.294 53.0601 202.941 53.0601Z" fill="black"></path><path d="M278.471 67.5269C277.765 67.5269 277.059 67.1743 276.706 66.4686C276.353 65.4101 276 64.3514 275.294 63.2929C274.941 62.5872 275.294 61.5284 276 60.8228C276.706 60.4699 277.765 60.823 278.471 61.5287C279.177 62.5872 279.53 63.6458 279.882 64.7044C280.235 65.7629 279.882 66.4685 278.824 66.8213C278.824 67.527 278.471 67.5269 278.471 67.5269ZM270.706 56.2361C270.353 56.2361 269.647 56.2361 269.647 55.8833C268.941 55.1776 267.882 54.4716 267.177 53.7659C266.471 53.0602 266.118 52.0019 266.824 51.2962C267.529 50.5905 268.588 50.2377 269.294 50.9434C270.353 51.6491 271.059 52.7075 272.118 53.4131C272.824 54.1188 272.824 55.1776 272.118 55.8833C271.765 55.8833 271.059 56.2361 270.706 56.2361ZM259.059 48.4733C258.706 48.4733 258.706 48.4733 258.353 48.4733C257.294 48.1204 256.235 47.7678 255.177 47.415C254.118 47.0621 253.765 46.0037 254.118 45.298C254.471 44.2395 255.529 43.8865 256.235 44.2393C257.294 44.5922 258.706 44.9451 259.765 45.6508C260.824 46.0036 261.177 47.062 260.824 48.1205C260.471 48.1205 259.765 48.4733 259.059 48.4733ZM214.588 45.6508C213.882 45.6508 213.177 45.2978 212.824 44.5921C212.471 43.5335 213.177 42.8279 213.882 42.4751C214.941 42.1223 216 41.7692 217.412 41.4164C218.471 41.0636 219.177 41.7693 219.53 42.8279C219.882 43.8864 219.177 44.592 218.118 44.9448C217.059 45.2977 216 45.6507 214.941 46.0035C214.941 45.6507 214.588 45.6508 214.588 45.6508ZM245.647 44.5921C244.941 44.5921 244.235 44.2393 243.882 44.2393L242.118 43.8866C241.059 43.8866 240.353 42.8281 240.706 41.7696C240.706 40.7111 241.765 40.0053 242.824 40.3581L244.588 40.7109C245.294 40.7109 245.647 40.7108 246.353 41.0636C247.412 41.0636 248.118 42.1221 247.765 43.1806C247.412 43.8863 246.353 44.5921 245.647 44.5921ZM228.353 43.5338C227.294 43.5338 226.588 42.8281 226.588 41.7696C226.588 40.7111 227.294 40.0054 228.353 40.0054C229.059 40.0054 230.118 40.0054 230.824 40.0054H231.882C232.941 40.0054 233.647 40.7111 233.647 41.7696C233.647 42.8281 232.941 43.5338 231.882 43.5338H230.824C229.765 43.181 229.059 43.181 228.353 43.5338Z" fill="black"></path><path d="M280.941 79.5234C279.882 79.5234 279.176 78.8176 279.176 77.7589C279.176 77.0531 279.176 76.7002 279.176 75.9943C279.176 74.9356 279.882 74.2299 280.588 73.877C281.647 73.877 282.353 74.5829 282.706 75.2887C282.706 75.9945 282.706 76.3474 282.706 77.0532C282.706 78.8178 282 79.5234 280.941 79.5234Z" fill="black"></path><path d="M269.294 73.5244L279.529 94.6958L292.235 75.2887L269.294 73.5244Z" fill="black"></path><path d="M166.235 63.9973C166.235 69.6427 161.647 73.877 156.353 73.877H13.7646C8.11749 73.877 3.8822 69.2899 3.8822 63.9973V13.1883C3.8822 7.5429 8.47044 3.30908 13.7646 3.30908H156C161.647 3.30908 165.882 7.89574 165.882 13.1883V63.9973H166.235Z" fill="black"></path><path d="M156.353 77.7588H13.7645C6.35278 77.7588 0.352783 71.7602 0.352783 64.3505V13.5411C0.352783 6.13136 6.35278 0.132812 13.7645 0.132812H156C163.412 0.132812 169.412 6.13136 169.412 13.5411V64.3505C169.765 71.4074 163.765 77.7588 156.353 77.7588ZM13.7645 6.4842C10.2351 6.4842 7.41161 9.30671 7.41161 12.8352V63.645C7.41161 67.1734 10.2351 69.9964 13.7645 69.9964H156C159.529 69.9964 162.353 67.1734 162.353 63.645V12.8352C162.353 9.30671 159.529 6.4842 156 6.4842H13.7645Z" fill="black"></path><path d="M384 185.729C384 191.375 379.412 195.609 374.118 195.609H231.529C225.882 195.609 221.647 191.022 221.647 185.729V134.919C221.647 129.274 226.235 125.04 231.529 125.04H373.765C379.412 125.04 383.647 129.627 383.647 134.919V185.729H384Z" fill="black"></path><path d="M373.765 199.138H231.529C224.118 199.138 218.118 193.139 218.118 185.729V134.92C218.118 127.51 224.118 121.512 231.529 121.512H373.765C381.176 121.512 387.177 127.51 387.177 134.92V185.729C387.529 193.139 381.176 199.138 373.765 199.138ZM231.529 128.216C228 128.216 225.176 131.038 225.176 134.567V185.377C225.176 188.905 228 191.728 231.529 191.728H373.765C377.294 191.728 380.118 188.905 380.118 185.377V134.567C380.118 131.038 377.294 128.216 373.765 128.216H231.529Z" fill="black"></path><path d="M302.118 199.49H276.706L343.412 121.863L367.412 120.805L302.118 199.49Z" fill="#727171"></path></svg> 