<?xml version="1.0" encoding="UTF-8"?> <svg xmlns="http://www.w3.org/2000/svg" width="429" height="213" viewBox="0 0 429 213" fill="none"><path d="M0.224487 81.4415C0.224487 77.9177 5.3146 74.7856 11.1879 74.7856H171.724C177.988 74.7856 182.687 77.9177 182.687 81.4415C182.687 84.9653 177.597 88.0977 171.724 88.0977H11.1879C5.3146 88.0977 0.224487 84.9653 0.224487 81.4415Z" fill="#040000"></path><path d="M218.71 70.4785C217.535 70.4785 216.752 69.3039 216.752 68.5208C216.752 68.5208 216.752 67.7379 217.144 66.1717C217.535 64.9971 218.318 64.6055 219.493 64.6055C220.668 64.997 221.059 65.7802 221.059 66.9548C220.668 67.7379 220.668 68.5208 220.668 68.5208C220.668 69.6954 219.884 70.4785 218.71 70.4785Z" fill="black"></path><path d="M224.583 58.3411C224.192 58.3411 223.8 58.3409 223.409 57.9494C222.626 57.1663 222.626 55.9918 223.409 55.2088C224.192 54.0341 225.366 53.251 226.541 52.4679C227.324 51.6848 228.499 52.0763 229.282 52.8593C230.065 53.6424 229.673 54.8171 228.89 55.6002C228.107 56.3833 226.933 57.1663 226.149 57.9494C225.758 57.9494 224.975 58.3411 224.583 58.3411Z" fill="black"></path><path d="M308.375 74.7859C307.592 74.7859 306.809 74.3942 306.417 73.6111C306.026 72.4364 305.634 71.262 304.851 70.0873C304.459 69.3043 304.851 68.1296 305.634 67.3465C306.417 66.955 307.592 67.3465 308.375 68.1296C309.158 69.3043 309.55 70.4787 309.941 71.6534C310.333 72.828 309.941 73.6112 308.766 74.0028C308.766 74.3943 308.766 74.7859 308.375 74.7859ZM299.761 61.8648C299.369 61.8648 298.586 61.8649 298.586 61.4734C297.803 60.6903 296.628 59.9073 295.845 59.1242C295.062 58.3411 294.671 57.1665 295.454 56.3834C296.237 55.6003 297.411 55.2086 298.195 55.9917C299.369 56.7748 300.152 57.9495 301.327 58.7325C302.11 59.5156 302.11 60.6903 301.327 61.4734C300.935 61.4734 300.544 61.8648 299.761 61.8648ZM287.231 53.2511C286.84 53.2511 286.84 53.2511 286.448 53.2511C285.273 52.8596 284.099 52.4678 282.924 52.0763C281.749 51.6847 281.358 50.5102 281.749 49.7271C282.141 48.5525 283.316 48.161 284.099 48.5526C285.273 48.9441 286.84 49.3355 288.014 50.1186C289.189 50.5101 289.58 51.6848 289.189 52.8594C288.406 52.8594 287.623 53.2511 287.231 53.2511ZM237.504 50.1186C236.721 50.1186 235.938 49.7271 235.547 48.944C235.155 47.7694 235.938 46.9864 236.721 46.5948C237.896 46.2033 239.07 45.8118 240.637 45.4203C241.811 45.0287 242.594 45.8117 242.986 46.9863C243.378 48.1609 242.594 48.9441 241.42 49.3357C240.245 49.7272 239.071 50.1187 237.896 50.5103C237.896 50.1187 237.896 50.1186 237.504 50.1186ZM272.352 48.944C271.961 48.944 271.961 48.944 272.352 48.944C271.569 48.944 270.786 48.5526 270.395 48.5526L268.437 48.1609C267.262 48.1609 266.479 46.9863 266.871 45.8117C266.871 44.6371 268.045 43.8539 269.22 44.2454L271.178 44.6371C271.961 44.6371 272.352 44.637 273.135 45.0286C274.31 45.0286 275.093 46.2033 274.702 47.378C273.918 48.5526 273.135 48.944 272.352 48.944ZM252.775 47.7694C251.6 47.7694 250.817 46.9863 250.817 45.8117C250.817 44.6371 251.6 43.854 252.775 43.854C253.558 43.854 254.733 43.854 255.516 43.854H256.69C257.865 43.854 258.648 44.6371 258.648 45.8117C258.648 46.9863 257.865 47.7694 256.69 47.7694H255.516C254.733 47.7694 253.949 47.7694 252.775 47.7694Z" fill="black"></path><path d="M311.115 88.0986C309.941 88.0986 309.158 87.3155 309.158 86.1409C309.158 85.3578 309.158 84.9663 309.158 84.1832C309.158 83.0085 309.941 82.2255 310.724 81.834C311.899 81.834 312.682 82.6169 313.073 83.4C313.073 84.1831 313.073 84.5747 313.073 85.3578C313.465 86.9239 312.682 87.7071 311.115 88.0986C311.507 88.0986 311.507 88.0986 311.115 88.0986Z" fill="black"></path><path d="M298.195 81.4424L309.55 104.543L324.037 83.0086L298.195 81.4424Z" fill="black"></path><path d="M425.448 197.73C425.448 203.995 420.358 208.693 414.485 208.693H256.298C250.034 208.693 245.335 203.603 245.335 197.73V141.349C245.335 135.084 250.425 130.385 256.298 130.385H414.093C420.358 130.385 425.057 135.475 425.057 141.349V197.73H425.448Z" fill="black"></path><path d="M414.485 213H256.298C248.076 213 241.419 206.344 241.419 198.122V141.74C241.419 133.517 248.076 126.861 256.298 126.861H414.093C422.316 126.861 428.972 133.517 428.972 141.74V198.122C429.364 205.953 422.707 213 414.485 213ZM256.298 134.3C252.383 134.3 249.25 137.433 249.25 141.348V197.73C249.25 201.646 252.383 204.778 256.298 204.778H414.093C418.009 204.778 421.141 201.646 421.141 197.73V141.348C421.141 137.433 418.009 134.3 414.093 134.3H256.298Z" fill="black"></path><path d="M91.8474 5.875C93.0221 5.875 93.8052 6.65808 93.8052 7.8327V67.347C93.8052 68.5216 93.0221 69.3047 91.8474 69.3047C90.6728 69.3047 89.8896 68.5216 89.8896 67.347V7.8327C89.8896 6.65808 90.6728 5.875 91.8474 5.875Z" fill="black"></path><path d="M91.8474 70.8706C89.4981 70.8706 87.9319 69.3044 87.9319 66.9552V7.44081C87.9319 5.09156 89.4981 3.52539 91.8474 3.52539C94.1967 3.52539 95.7629 5.09156 95.7629 7.44081V66.9552C95.7629 69.3044 93.8052 70.8706 91.8474 70.8706ZM91.8474 5.87455V7.83225V5.87455Z" fill="black"></path><path d="M107.509 20.3619L104.768 23.1028L91.8473 9.00692L78.9261 23.1028L76.1853 20.3619L91.8473 3.52539L107.509 20.3619Z" fill="black"></path><path d="M104.769 25.8433L91.8475 12.1394L78.9263 25.8433L73.4446 20.3616L91.8475 0.784668L110.25 20.3616L104.769 25.8433Z" fill="black"></path></svg> 