<?xml version="1.0" encoding="UTF-8"?> <svg xmlns="http://www.w3.org/2000/svg" width="438" height="215" viewBox="0 0 438 215" fill="none"><path d="M226.58 72.2529C225.405 72.2529 224.622 71.0783 224.622 70.2952C224.622 70.2952 224.622 69.5122 225.014 67.946C225.405 66.7714 226.188 66.3799 227.363 66.3799C228.538 66.7714 228.929 67.5545 228.929 68.7291C228.538 69.5122 228.538 70.2952 228.538 70.2952C228.538 71.4699 227.755 72.2529 226.58 72.2529Z" fill="black"></path><path d="M232.453 60.1155C232.062 60.1155 231.67 60.1155 231.279 59.7239C230.496 58.9408 230.496 57.7662 231.279 56.9832C232.062 55.8085 233.236 55.0254 234.411 54.2423C235.194 53.4592 236.369 53.8508 237.152 54.6338C237.935 55.4169 237.544 56.5915 236.76 57.3746C235.977 58.1577 234.803 58.9408 234.02 59.7239C233.628 59.7239 232.845 60.1155 232.453 60.1155Z" fill="black"></path><path d="M316.245 76.5608C315.462 76.5608 314.679 76.1692 314.287 75.3861C313.896 74.2115 313.504 73.0369 312.721 71.8622C312.33 71.0792 312.721 69.9045 313.504 69.1214C314.287 68.7299 315.462 69.1215 316.245 69.9045C317.028 71.0792 317.42 72.2538 317.811 73.4284C318.203 74.603 317.811 75.3861 316.637 75.7777C316.637 76.1692 316.637 76.5608 316.245 76.5608ZM307.631 63.6398C307.239 63.6398 306.456 63.6398 306.456 63.2483C305.673 62.4652 304.499 61.6822 303.715 60.8991C302.932 60.116 302.541 58.9414 303.324 58.1583C304.107 57.3752 305.282 56.9836 306.065 57.7667C307.239 58.5498 308.023 59.7245 309.197 60.5076C309.98 61.2906 309.98 62.4652 309.197 63.2483C308.806 63.2483 308.414 63.6398 307.631 63.6398ZM294.71 55.026C294.318 55.026 294.318 55.026 293.927 55.026C292.752 54.6345 291.577 54.2428 290.403 53.8513C289.228 53.4598 288.837 52.2851 289.228 51.502C289.62 50.3274 290.794 49.9359 291.577 50.3275C292.752 50.719 294.318 51.1105 295.493 51.8936C296.668 52.2851 297.059 53.4598 296.668 54.6344C296.276 54.6344 295.493 55.026 294.71 55.026ZM245.375 51.8936C244.591 51.8936 243.808 51.5021 243.417 50.719C243.025 49.5444 243.808 48.7613 244.591 48.3697C245.766 47.9782 246.941 47.5867 248.507 47.1952C249.682 46.8036 250.465 47.5867 250.856 48.7613C251.248 49.9359 250.465 50.719 249.29 51.1106C248.115 51.5021 246.941 51.8936 245.766 52.2852C245.766 51.8936 245.766 51.8936 245.375 51.8936ZM279.831 50.719C279.048 50.719 278.265 50.3275 277.873 50.3275L275.915 49.9359C274.741 49.9359 273.958 48.7612 274.349 47.5866C274.349 46.412 275.524 45.6289 276.699 46.0205L278.656 46.412C279.439 46.412 279.831 46.4121 280.614 46.8036C281.789 46.8036 282.572 47.9783 282.18 49.1529C281.789 50.3275 281.006 50.719 279.831 50.719ZM260.645 49.5443C259.47 49.5443 258.687 48.7612 258.687 47.5866C258.687 46.412 259.47 45.6289 260.645 45.6289C261.428 45.6289 262.603 45.6289 263.386 45.6289H264.56C265.735 45.6289 266.518 46.412 266.518 47.5866C266.518 48.7612 265.735 49.5443 264.56 49.5443H263.386C262.603 49.5443 261.428 49.5443 260.645 49.5443Z" fill="black"></path><path d="M318.986 89.8737C317.811 89.8737 317.028 89.0906 317.028 87.9159C317.028 87.1328 317.028 86.7413 317.028 85.9582C317.028 84.7836 317.811 84.0004 318.594 83.6089C319.769 83.6089 320.552 84.392 320.944 85.175C320.944 85.9581 320.944 86.3497 320.944 87.1328C321.335 88.699 320.16 89.4821 318.986 89.8737C318.986 89.8737 319.377 89.8737 318.986 89.8737Z" fill="black"></path><path d="M306.065 83.2173L317.42 106.318L331.907 84.7834L306.065 83.2173Z" fill="black"></path><path d="M433.319 199.505C433.319 205.77 428.228 210.469 422.355 210.469H264.56C258.296 210.469 253.597 205.379 253.597 199.505V143.123C253.597 136.859 258.687 132.16 264.56 132.16H422.355C428.62 132.16 433.319 137.25 433.319 143.123V199.505Z" fill="black"></path><path d="M422.355 214.776H264.56C256.338 214.776 249.681 208.12 249.681 199.897V143.515C249.681 135.293 256.338 128.637 264.56 128.637H422.355C430.578 128.637 437.234 135.293 437.234 143.515V199.897C437.234 208.12 430.578 214.776 422.355 214.776ZM264.169 136.076C260.253 136.076 257.121 139.208 257.121 143.124V199.506C257.121 203.421 260.253 206.553 264.169 206.553H422.355C426.271 206.553 429.403 203.421 429.403 199.506V143.124C429.403 139.208 426.271 136.076 422.355 136.076H264.169Z" fill="black"></path><path d="M184.684 5.30079C184.684 4.9092 184.293 4.90918 184.293 4.90918C184.293 4.90918 183.901 4.9092 184.293 5.30079C184.684 5.69238 184.684 5.69238 184.684 5.30079Z" fill="#EFEBE1"></path><path d="M5.35419 4.90918C4.96267 4.90918 4.96265 5.30072 4.96265 5.30072C4.96265 5.30072 4.96267 5.69224 5.35419 5.30072C5.74571 4.9092 5.35419 4.90918 5.35419 4.90918Z" fill="#EFEBE1"></path><path d="M184.293 83.6091C184.684 83.6091 184.684 83.2175 184.684 83.2175C184.684 83.2175 184.684 82.8259 184.293 83.2175C183.901 83.6091 183.901 83.6091 184.293 83.6091Z" fill="#EFEBE1"></path><path d="M4.57104 82.8254C4.57104 83.217 4.96257 83.217 4.96257 83.217C4.96257 83.217 5.35413 83.217 4.96257 82.8254C4.57101 82.4338 4.57104 82.8254 4.57104 82.8254Z" fill="#EFEBE1"></path><path d="M0.655518 15.8725V72.2545C0.655518 76.1699 2.2217 79.6938 4.57098 82.4346V5.69238C2.2217 8.43317 0.655518 11.9571 0.655518 15.8725Z" fill="black"></path><path d="M11.6191 1.38574C9.26982 2.16884 7.31206 2.95188 5.74585 4.51807H11.6191V1.38574Z" fill="black"></path><path d="M183.901 4.90906C181.16 2.55981 177.636 0.993652 173.721 0.993652H151.402V4.90906H183.901Z" fill="black"></path><path d="M184.684 5.69238V82.4346C187.034 79.6938 188.6 76.1699 188.6 72.2545V15.8725C188.6 11.9571 187.425 8.43317 184.684 5.69238Z" fill="black"></path><path d="M176.462 87.1333C179.203 86.7418 181.552 85.1756 183.901 83.6094H176.462V87.1333Z" fill="black"></path><path d="M5.74585 83.6094C8.48671 85.9587 12.0106 87.5249 15.9261 87.5249H39.4192V83.6094H5.74585Z" fill="black"></path><path d="M183.901 4.90918H151.402V8.8246H173.721C177.636 8.8246 180.769 11.957 180.769 15.8724V72.2544C180.769 75.3867 178.811 77.7359 176.462 78.9105V83.2175H183.901C184.293 82.826 184.684 82.4345 185.076 82.043V5.30075C184.293 5.30075 184.293 5.30072 183.901 4.90918Z" fill="black"></path><path d="M39.419 79.6935H15.926C12.0105 79.6935 8.87814 76.5613 8.87814 72.6459V16.2639C8.87814 13.9146 10.0528 11.5654 12.0105 10.3908V5.30078H6.13731C5.74576 5.69232 5.3542 6.08382 4.96265 6.47536V83.2174C5.3542 83.6089 5.74576 84.0005 6.13731 84.3921H39.8105V79.6935H39.419Z" fill="black"></path></svg> 