<?xml version="1.0" encoding="UTF-8"?> <svg xmlns="http://www.w3.org/2000/svg" width="437" height="215" viewBox="0 0 437 215" fill="none"><path d="M226.117 72.2529C225.725 72.2529 225.725 72.2529 226.117 72.2529C224.942 72.2529 224.159 71.0783 224.159 70.2952C224.159 70.2952 224.159 69.5122 224.551 67.946C224.942 66.7714 225.725 66.3799 226.9 66.3799C228.075 66.7714 228.466 67.5545 228.466 68.7291C228.075 69.5122 228.075 70.2952 228.075 70.2952C227.683 71.4699 226.9 72.2529 226.117 72.2529Z" fill="black"></path><path d="M231.598 60.1155C231.207 60.1155 230.815 60.1155 230.424 59.7239C229.641 58.9408 229.641 57.7662 230.424 56.9832C231.207 55.8085 232.381 55.0254 233.556 54.2423C234.339 53.4592 235.514 53.8508 236.297 54.6338C237.08 55.4169 236.689 56.5915 235.905 57.3746C235.122 58.1577 233.948 58.9408 233.165 59.7239C232.773 59.7239 232.381 60.1155 231.598 60.1155Z" fill="black"></path><path d="M315.39 76.5608C314.607 76.5608 313.824 76.1692 313.432 75.3861C313.041 74.2115 312.649 73.0369 311.866 71.8622C311.475 71.0792 311.866 69.9045 312.649 69.1214C313.432 68.7299 314.607 69.1215 315.39 69.9045C316.173 71.0792 316.565 72.2538 316.956 73.4284C317.348 74.603 316.956 75.3861 315.782 75.7777C316.173 76.1692 315.782 76.5608 315.39 76.5608ZM307.168 63.6398C306.776 63.6398 305.993 63.6398 305.993 63.2483C305.21 62.4652 304.035 61.6822 303.252 60.8991C302.469 60.116 302.077 58.9414 302.861 58.1583C303.644 57.3752 304.818 56.9836 305.601 57.7667C306.776 58.5498 307.559 59.7245 308.734 60.5076C309.517 61.2906 309.517 62.4652 308.734 63.2483C307.951 63.2483 307.559 63.6398 307.168 63.6398ZM294.246 55.026C293.855 55.026 293.855 55.026 293.463 55.026C292.289 54.6345 291.114 54.2428 289.939 53.8513C288.765 53.4598 288.373 52.2851 288.765 51.502C289.156 50.3274 290.331 49.9359 291.114 50.3275C292.289 50.719 293.855 51.1105 295.03 51.8936C296.204 52.2851 296.596 53.4598 296.204 54.6344C295.421 54.6344 295.029 55.026 294.246 55.026ZM244.519 51.8936C243.736 51.8936 242.953 51.5021 242.562 50.719C242.17 49.5444 242.953 48.7613 243.736 48.3697C244.911 47.9782 246.086 47.5867 247.652 47.1952C248.826 46.8036 249.61 47.5867 250.001 48.7613C250.393 49.9359 249.61 50.719 248.435 51.1106C247.26 51.5021 246.086 51.8936 244.911 52.2852C245.302 51.8936 244.911 51.8936 244.519 51.8936ZM279.367 50.719C278.976 50.719 278.976 50.719 279.367 50.719C278.584 50.719 277.801 50.3275 277.41 50.3275L275.452 49.9359C274.277 49.9359 273.494 48.7612 273.886 47.5866C273.886 46.412 275.06 45.6289 276.235 46.0205L278.193 46.412C278.976 46.412 279.367 46.4121 280.151 46.8036C281.325 46.8036 282.108 47.9783 281.717 49.1529C280.934 50.3275 280.151 50.719 279.367 50.719ZM259.79 49.5443C258.615 49.5443 257.832 48.7612 257.832 47.5866C257.832 46.412 258.615 45.6289 259.79 45.6289C260.573 45.6289 261.748 45.6289 262.531 45.6289H263.705C264.88 45.6289 265.663 46.412 265.663 47.5866C265.663 48.7612 264.88 49.5443 263.705 49.5443H262.531C261.748 49.5443 260.965 49.5443 259.79 49.5443C259.79 49.5443 260.181 49.5443 259.79 49.5443Z" fill="black"></path><path d="M318.523 89.8737C317.348 89.8737 316.565 89.0906 316.565 87.9159C316.565 87.1328 316.565 86.7413 316.565 85.9582C316.565 84.7836 317.348 84.0004 318.131 83.6089C319.306 83.6089 320.089 84.392 320.48 85.175C320.48 85.9581 320.48 86.3497 320.48 87.1328C320.48 88.699 319.697 89.4821 318.523 89.8737Z" fill="black"></path><path d="M305.21 83.2173L316.565 106.318L331.052 84.7834L305.21 83.2173Z" fill="black"></path><path d="M432.464 199.505C432.464 205.77 427.374 210.469 421.501 210.469H263.706C257.441 210.469 252.742 205.379 252.742 199.505V143.123C252.742 136.859 257.833 132.16 263.706 132.16H421.501C427.765 132.16 432.464 137.25 432.464 143.123V199.505Z" fill="black"></path><path d="M421.501 214.776H263.706C255.483 214.776 248.827 208.12 248.827 199.897V143.515C248.827 135.293 255.483 128.637 263.706 128.637H421.501C429.723 128.637 436.38 135.293 436.38 143.515V199.897C436.38 208.12 429.723 214.776 421.501 214.776ZM263.706 136.076C259.79 136.076 256.658 139.208 256.658 143.124V199.506C256.658 203.421 259.79 206.553 263.706 206.553H421.501C425.416 206.553 428.549 203.421 428.549 199.506V143.124C428.549 139.208 425.416 136.076 421.501 136.076H263.706Z" fill="black"></path><path d="M4.49928 82.8254C4.10766 82.4338 4.10766 82.8254 4.49928 82.8254C4.10766 83.2169 4.49928 83.6085 4.49928 83.6085C4.89091 83.6085 4.49928 82.8254 4.49928 82.8254Z" fill="#EFEBE1"></path><path d="M183.829 5.30022C183.829 5.69176 184.221 5.69176 183.829 5.30022C184.221 4.90868 183.829 4.51709 183.829 4.51709C183.438 4.90863 183.438 5.30022 183.829 5.30022Z" fill="#EFEBE1"></path><path d="M183.438 83.2175C183.047 83.2175 183.438 83.6092 183.438 83.2175C183.83 83.6092 184.221 83.2175 184.221 83.2175C184.221 83.2175 183.438 82.8259 183.438 83.2175Z" fill="#EFEBE1"></path><path d="M183.047 4.90906C180.306 2.55981 176.782 0.993652 172.866 0.993652H139.193V4.90906H183.047Z" fill="black"></path><path d="M0.583984 76.5605C1.36708 78.9098 2.15024 80.8674 3.71643 82.4336V76.5605H0.583984Z" fill="black"></path><path d="M188.137 15.8725C188.137 11.9571 186.571 8.43317 184.221 5.69238V82.4346C186.571 79.6938 188.137 76.1699 188.137 72.2545V15.8725Z" fill="black"></path><path d="M15.0714 87.5249H172.866C176.782 87.5249 180.306 85.9587 183.047 83.6094H4.89111C7.63197 85.9587 11.1559 87.5249 15.0714 87.5249Z" fill="black"></path><path d="M183.046 4.90918H139.193V8.8246H172.866C176.782 8.8246 179.914 11.957 179.914 15.8724V72.2544C179.914 76.1698 176.782 79.3021 172.866 79.3021H15.0712C12.7219 79.3021 10.7642 78.1275 9.19799 76.1698H3.71631V82.043C4.10786 82.4345 4.49936 82.826 4.89091 83.2175H183.046C183.438 82.826 183.829 82.4345 184.221 82.043V5.30075C183.829 5.30075 183.438 5.30072 183.046 4.90918Z" fill="black"></path><path d="M4.4994 5.30042C4.89099 4.90898 4.89099 4.90898 4.4994 5.30042C4.10782 4.90898 3.71631 5.30042 3.71631 5.30042H4.4994Z" fill="#EFEBE1"></path></svg> 