<?xml version="1.0" encoding="UTF-8"?> <svg xmlns="http://www.w3.org/2000/svg" width="212" height="261" viewBox="0 0 212 261" fill="none"><path d="M61.5424 126.962H4.62695C2.31063 126.962 0.325195 124.976 0.325195 122.66V38.9339C0.325195 36.6174 2.31063 34.6318 4.62695 34.6318H61.2115C63.5278 34.6318 65.5132 36.6174 65.5132 38.9339V122.66C65.5132 124.976 63.8587 126.962 61.5424 126.962ZM6.94327 120.343H58.8951V41.2505H6.94327V120.343Z" fill="black"></path><path d="M207.47 126.962H150.885C148.569 126.962 146.583 124.976 146.583 122.66V38.9339C146.583 36.6174 148.569 34.6318 150.885 34.6318H207.47C209.786 34.6318 211.772 36.6174 211.772 38.9339V122.66C211.441 124.976 209.786 126.962 207.47 126.962ZM152.871 120.343H204.823V41.2505H152.871V120.343Z" fill="black"></path><path d="M207.47 210.357H150.885C148.569 210.357 146.583 208.371 146.583 206.055V139.537C146.583 137.221 148.569 135.235 150.885 135.235H207.47C209.786 135.235 211.772 137.221 211.772 139.537V206.055C211.441 208.371 209.786 210.357 207.47 210.357ZM152.871 203.738H204.823V141.854H152.871V203.738Z" fill="black"></path><path d="M61.5424 187.853H4.62695C2.31063 187.853 0.325195 185.868 0.325195 183.551V139.537C0.325195 137.221 2.31063 135.235 4.62695 135.235H61.2115C63.5278 135.235 65.5132 137.221 65.5132 139.537V183.551C65.5132 186.199 63.8587 187.853 61.5424 187.853ZM6.94327 181.235H58.8951V141.854H6.94327V181.235Z" fill="black"></path><path d="M207.47 260.328H150.885C148.569 260.328 146.583 258.343 146.583 256.026V222.933C146.583 220.617 148.569 218.631 150.885 218.631H207.47C209.786 218.631 211.772 220.617 211.772 222.933V256.026C211.441 258.343 209.786 260.328 207.47 260.328ZM152.871 253.71H204.823V225.581H152.871V253.71Z" fill="black"></path><path d="M134.01 87.2501H77.4258C75.1095 87.2501 73.124 85.2644 73.124 82.9478V38.9339C73.124 36.6174 75.1095 34.6318 77.4258 34.6318H134.01C136.327 34.6318 138.312 36.6174 138.312 38.9339V82.9478C138.312 85.5953 136.327 87.2501 134.01 87.2501ZM79.7421 80.6315H131.694V41.2505H79.7421V80.6315Z" fill="black"></path><path d="M134.01 144.833H77.4258C75.1095 144.833 73.124 142.847 73.124 140.531V101.15C73.124 98.8332 75.1095 96.8477 77.4258 96.8477H134.01C136.327 96.8477 138.312 98.8332 138.312 101.15V140.531C138.312 142.847 136.327 144.833 134.01 144.833ZM79.7421 138.214H131.694V103.466H79.7421V138.214Z" fill="black"></path><path d="M61.5424 260.328H4.62695C2.31063 260.328 0.325195 258.342 0.325195 256.026V200.76C0.325195 198.443 2.31063 196.458 4.62695 196.458H61.2115C63.5278 196.458 65.5132 198.443 65.5132 200.76V256.026C65.5132 258.342 63.8587 260.328 61.5424 260.328ZM6.94327 253.709H58.8951V203.076H6.94327V253.709Z" fill="black"></path><path d="M134.01 260.328H77.4258C75.1095 260.328 73.124 258.343 73.124 256.026V157.408C73.124 155.092 75.1095 153.106 77.4258 153.106H134.01C136.327 153.106 138.312 155.092 138.312 157.408V256.026C138.312 258.343 136.327 260.328 134.01 260.328ZM79.7421 253.71H131.694V159.725H79.7421V253.71Z" fill="black"></path><path d="M37.386 20.7328H10.9137C5.95014 20.7328 1.64844 16.4307 1.64844 11.4667C1.64844 6.50276 5.95014 2.20068 10.9137 2.20068H37.386C42.3495 2.20068 46.6513 6.50276 46.6513 11.4667C46.6513 16.7616 42.3495 20.7328 37.386 20.7328Z" fill="black"></path><path d="M91.6538 22.3872H65.1815C59.2253 22.3872 54.2617 17.4233 54.2617 11.4666C54.2617 5.50981 59.2253 0.545898 65.1815 0.545898H91.6538C97.6101 0.545898 102.574 5.50981 102.574 11.4666C102.574 17.4233 97.6101 22.3872 91.6538 22.3872ZM65.1815 3.8552C60.8798 3.8552 57.5708 7.16446 57.5708 11.4666C57.5708 15.7686 60.8798 19.0779 65.1815 19.0779H91.6538C95.9556 19.0779 99.2646 15.7686 99.2646 11.4666C99.2646 7.16446 95.9556 3.8552 91.6538 3.8552H65.1815Z" fill="black"></path><path d="M145.922 22.3872H119.45C113.493 22.3872 108.53 17.4233 108.53 11.4666C108.53 5.50981 113.493 0.545898 119.45 0.545898H145.922C151.878 0.545898 156.842 5.50981 156.842 11.4666C156.842 17.4233 151.878 22.3872 145.922 22.3872ZM119.45 3.8552C115.148 3.8552 111.839 7.16446 111.839 11.4666C111.839 15.7686 115.148 19.0779 119.45 19.0779H145.922C150.224 19.0779 153.533 15.7686 153.533 11.4666C153.533 7.16446 150.224 3.8552 145.922 3.8552H119.45Z" fill="black"></path><path d="M200.19 22.3872H173.718C167.761 22.3872 162.798 17.4233 162.798 11.4666C162.798 5.50981 167.761 0.545898 173.718 0.545898H200.19C206.146 0.545898 211.11 5.50981 211.11 11.4666C211.11 17.4233 206.146 22.3872 200.19 22.3872ZM174.049 3.8552C169.747 3.8552 166.438 7.16446 166.438 11.4666C166.438 15.7686 169.747 19.0779 174.049 19.0779H200.521C204.823 19.0779 208.132 15.7686 208.132 11.4666C208.132 7.16446 204.823 3.8552 200.521 3.8552H174.049Z" fill="black"></path><path d="M59.8873 77.9844C29.1133 77.9844 20.8407 48.5314 20.8407 48.2005C20.5098 46.5458 21.5026 44.5604 23.1571 44.2294C24.8116 43.8985 26.797 44.8911 27.1279 46.5458C27.4588 47.5386 34.0769 71.3657 59.8873 71.3657C81.396 71.3657 99.9266 58.4594 107.206 52.8336C108.53 51.8408 110.846 51.8408 111.839 53.4955C112.832 54.8192 112.832 57.1356 111.177 58.1284C103.567 64.0852 83.3815 77.9844 59.8873 77.9844Z" fill="black"></path><path d="M89.0067 49.855L88.6758 53.8262L107.868 56.1428L104.228 75.0062L108.199 75.6681L112.501 52.5026L89.0067 49.855Z" fill="black"></path></svg> 