<?xml version="1.0" encoding="UTF-8"?> <svg xmlns="http://www.w3.org/2000/svg" width="236" height="223" viewBox="0 0 236 223" fill="none"><path d="M105.065 104.955C72.4903 82.5166 10.9602 104.955 10.9602 104.955C7.34084 106.162 4.44531 110.263 4.44531 114.124V215.46C4.44531 219.32 7.58214 222.216 11.2016 222.216H145.12C148.981 222.216 152.6 219.32 153.565 215.46C153.806 215.701 169.973 149.591 105.065 104.955Z" fill="#C3B68F"></path><path d="M62.5969 131.978C62.5969 132.22 62.3556 132.22 62.3556 132.22C62.1143 132.22 62.1143 132.22 62.1143 131.978V124.499H59.4601C59.2188 124.499 59.2188 124.257 59.2188 124.257C59.2188 124.016 59.2188 124.016 59.4601 124.016H65.4924C65.7337 124.016 65.7337 124.257 65.7337 124.257C65.7337 124.499 65.7337 124.499 65.4924 124.499H62.8382V131.978H62.5969Z" fill="black"></path><path d="M62.3558 132.702C61.8732 132.702 61.6319 132.461 61.6319 131.978V124.74H59.219C58.7364 124.74 58.4951 124.499 58.4951 124.016C58.4951 123.534 58.7364 123.292 59.219 123.292H65.2513C65.7339 123.292 65.9752 123.534 65.9752 124.016C65.9752 124.257 65.7339 124.74 65.2513 124.74H62.8384V131.978C62.8384 132.461 62.5971 132.702 62.3558 132.702ZM59.219 124.257H62.1145V131.978V124.257H65.0101H59.219Z" fill="black"></path><path d="M72.7324 123.776C75.1454 123.776 77.0757 125.465 77.0757 128.119C77.0757 130.531 75.1454 132.462 72.7324 132.462C70.3195 132.462 68.3892 130.773 68.3892 128.119C68.3892 125.465 70.3195 123.776 72.7324 123.776ZM72.7324 131.738C74.6628 131.738 76.3518 130.049 76.3518 128.119C76.3518 126.188 74.9041 124.499 72.7324 124.499C70.8021 124.499 69.113 126.188 69.113 128.119C69.113 130.049 70.8021 131.738 72.7324 131.738Z" fill="black"></path><path d="M72.7316 132.702C70.0773 132.702 68.147 130.772 68.147 128.118C68.147 125.464 70.0773 123.534 72.7316 123.534C75.3858 123.534 77.3161 125.464 77.3161 128.118C77.3161 130.772 75.3858 132.702 72.7316 132.702ZM72.7316 124.016C70.3186 124.016 68.6296 125.705 68.6296 128.118C68.6296 130.289 70.3186 132.219 72.7316 132.219C75.1445 132.219 76.8336 130.53 76.8336 128.118C76.8336 125.705 75.1445 124.016 72.7316 124.016ZM72.7316 131.978C70.5599 131.978 68.8708 130.289 68.8708 128.118C68.8708 125.946 70.5599 124.257 72.7316 124.257C74.9032 124.257 76.5923 125.946 76.5923 128.118C76.5923 130.289 74.9032 131.978 72.7316 131.978ZM72.7316 124.74C70.8012 124.74 69.3534 126.188 69.3534 128.118C69.3534 130.048 70.8012 131.496 72.7316 131.496C74.6619 131.496 76.1097 130.048 76.1097 128.118C76.1097 126.188 74.6619 124.74 72.7316 124.74Z" fill="black"></path><path d="M81.1769 131.978C81.1769 132.219 80.9356 132.219 80.9356 132.219C80.6943 132.219 80.6943 132.219 80.6943 131.978V124.981C80.6943 124.74 80.6943 124.016 81.6595 124.016H82.866C83.5898 124.016 84.0724 124.016 84.555 124.257C85.5202 124.74 85.7615 125.946 85.7615 126.429C85.7615 127.153 85.5202 128.118 84.555 128.6C84.0724 128.842 83.5898 128.842 82.866 128.842H81.4182V131.978H81.1769ZM82.3834 128.118C83.1073 128.118 84.555 128.118 84.555 126.429C84.555 124.74 83.1073 124.74 82.3834 124.74H81.6595C81.4182 124.74 81.1769 124.74 81.1769 125.222V128.359H82.3834V128.118Z" fill="black"></path><path d="M80.9353 132.702C80.4527 132.702 80.2114 132.461 80.2114 131.978V124.981C80.2114 124.016 80.694 123.534 81.4179 123.534H82.6244C83.3483 123.534 83.8308 123.533 84.5547 124.016C85.7612 124.74 85.7612 125.946 85.7612 126.429C85.7612 127.635 85.2786 128.359 84.5547 128.842C84.0721 129.083 83.3483 129.083 82.6244 129.083H81.6592V132.219C81.4179 132.461 81.1766 132.702 80.9353 132.702ZM81.4179 124.257C80.9353 124.257 80.694 124.499 80.694 124.981V131.978V128.359H82.3831C82.8657 128.359 83.3483 128.359 83.8308 128.118C84.5547 127.876 84.796 127.153 84.796 126.188C84.796 125.705 84.5547 124.74 83.8308 124.499C83.3483 124.257 82.8657 124.257 82.3831 124.257H81.4179V124.257ZM82.3831 128.359H80.9353V124.981C80.9353 124.499 81.1766 124.257 81.6592 124.257H82.3831C83.1069 124.257 85.0373 124.257 85.0373 126.429C85.0373 128.359 83.1069 128.359 82.3831 128.359ZM81.4179 127.876H82.3831C83.3482 127.876 84.3134 127.876 84.3134 126.429C84.3134 124.981 83.3482 124.981 82.3831 124.981H81.6592V127.876H81.4179Z" fill="black"></path><path d="M52.9454 157.795L51.9802 160.208C51.9802 160.449 51.9802 160.449 51.7389 160.449C51.4976 160.449 51.2563 160.449 51.2563 160.208V159.966L54.3931 152.245C54.3931 152.004 54.6345 151.763 54.8758 151.763C55.3583 151.763 55.3583 152.004 55.3583 152.245L58.2538 159.966V160.208C58.2538 160.449 58.0126 160.449 57.7713 160.449C57.53 160.449 57.53 160.208 57.53 160.208L56.5648 157.795H52.9454ZM56.5648 157.071L54.8758 152.728L53.1867 157.071H56.5648Z" fill="black"></path><path d="M58.0129 160.931C57.5303 160.931 57.5303 160.69 57.2891 160.449L56.3239 158.036H52.7044L51.7393 160.208C51.7393 160.449 51.498 160.69 51.0154 160.69C50.7741 160.69 50.2915 160.449 50.2915 159.966V159.725L53.4283 152.004C53.6696 151.522 53.9109 151.28 54.1522 151.28C54.6348 151.28 54.8761 151.522 54.8761 152.004L57.7716 159.725C57.7716 159.966 57.7716 159.966 57.7716 160.208C58.7368 160.69 58.4955 160.931 58.0129 160.931ZM52.7044 157.554H57.0477L58.0129 160.208L54.8761 152.487C54.8761 152.487 54.8761 152.246 54.6348 152.246L56.5652 157.554H52.7044L54.6348 152.246C54.6348 152.246 54.6348 152.246 54.3935 152.487L51.2567 160.208V160.449L52.7044 157.554ZM53.4283 156.83H56.0826L54.8761 153.452L53.4283 156.83Z" fill="black"></path><path d="M62.5965 160.449C61.6314 160.449 61.6313 159.725 61.6313 159.484V153.211C61.6313 152.969 61.6314 152.245 62.5965 152.245H64.0443C64.7682 152.245 66.6985 152.245 66.6985 154.176C66.6985 155.382 65.9747 155.865 65.4921 156.106C65.9747 156.347 66.9398 156.588 66.9398 158.277C66.9398 160.449 64.7682 160.449 64.0443 160.449H62.5965ZM64.0443 155.865C64.5269 155.865 65.9747 155.865 65.9747 154.417C65.9747 152.969 64.7682 152.969 63.803 152.969H62.5965C62.3553 152.969 62.114 152.969 62.114 153.452V156.106H64.0443V155.865ZM62.3552 159.243C62.3552 159.484 62.5965 159.725 62.8378 159.725H64.2856C65.0095 159.725 66.6985 159.725 66.6985 158.036C66.6985 156.347 65.0095 156.347 64.5269 156.347H62.5965V159.243H62.3552Z" fill="black"></path><path d="M64.2856 160.69H62.5966C61.8727 160.69 61.3901 160.208 61.3901 159.243V152.969C61.3901 152.004 61.8727 151.522 62.5966 151.522H64.0443C64.7682 151.522 67.1811 151.522 67.1811 153.934C67.1811 154.9 66.6986 155.382 66.216 155.865C66.6986 156.106 67.4225 156.83 67.4225 158.036C67.4225 159.725 66.4573 160.69 64.2856 160.69ZM62.5966 152.487C62.114 152.487 61.8727 152.728 61.8727 153.211V159.484C61.8727 159.966 61.8727 160.208 62.5966 160.208H64.2856C65.4921 160.208 66.9399 159.966 66.9399 158.277C66.9399 157.554 66.6986 157.071 66.4573 156.83C66.6986 157.071 66.9399 157.554 66.9399 158.277C66.9399 160.208 65.0095 160.208 64.2856 160.208H62.8379C62.5966 160.208 62.114 160.208 62.114 159.484V153.211C62.114 152.728 62.3553 152.487 62.5966 152.487H64.0443C65.0095 152.487 66.4573 152.487 66.4573 154.176C66.4573 154.417 66.4573 154.9 66.216 155.141C66.4573 154.9 66.4573 154.658 66.4573 153.934C66.4573 152.487 65.2508 152.245 64.0443 152.245H62.5966V152.487ZM62.5966 159.484H64.0443C65.0095 159.484 66.216 159.484 66.216 158.277C66.216 157.071 65.2508 156.83 64.2856 156.83H62.5966V159.484ZM64.2856 156.106C64.5269 156.106 64.7682 156.106 64.7682 156.106L65.0095 155.865C64.7682 156.106 64.5269 156.106 64.2856 156.106ZM62.5966 155.382H64.0443C64.7682 155.382 65.7334 155.141 65.7334 154.176C65.7334 153.211 65.0095 152.969 63.8031 152.969H62.5966V155.382V155.382Z" fill="black"></path><path d="M74.4209 152.005C76.8339 152.005 78.7643 153.694 78.7643 156.348C78.7643 158.761 76.8339 160.691 74.4209 160.691C72.008 160.691 70.0776 159.002 70.0776 156.348C70.0776 153.694 72.008 152.005 74.4209 152.005ZM74.4209 159.967C76.3513 159.967 78.0404 158.278 78.0404 156.348C78.0404 154.418 76.5926 152.729 74.4209 152.729C72.4906 152.729 70.8015 154.418 70.8015 156.348C70.8015 158.278 72.4906 159.967 74.4209 159.967Z" fill="black"></path><path d="M74.42 160.931C71.7658 160.931 69.8354 159.001 69.8354 156.347C69.8354 153.693 71.7658 151.763 74.42 151.763C77.0743 151.763 79.0046 153.693 79.0046 156.347C79.0046 158.76 77.0743 160.931 74.42 160.931ZM74.42 152.245C72.0071 152.245 70.318 153.934 70.318 156.347C70.318 158.519 72.0071 160.449 74.42 160.449C76.833 160.449 78.522 158.76 78.522 156.347C78.522 153.934 76.833 152.245 74.42 152.245ZM74.42 160.208C72.2484 160.208 70.5593 158.519 70.5593 156.347C70.5593 154.176 72.2484 152.487 74.42 152.487C76.5917 152.487 78.2807 154.176 78.2807 156.347C78.2807 158.519 76.5917 160.208 74.42 160.208ZM74.42 152.969C72.4897 152.969 71.0419 154.417 71.0419 156.347C71.0419 158.277 72.4897 159.725 74.42 159.725C76.3504 159.725 77.7982 158.277 77.7982 156.347C77.7982 154.417 76.3504 152.969 74.42 152.969Z" fill="black"></path><path d="M82.1422 152.246C82.1422 152.004 82.3836 152.004 82.3836 152.004C82.6248 152.004 82.6249 152.004 82.6249 152.246V156.83C82.6249 158.036 82.6248 159.966 85.2791 159.966C87.9333 159.966 87.9333 158.036 87.9333 156.83V152.246C87.9333 152.004 88.1746 152.004 88.1746 152.004C88.4159 152.004 88.4159 152.004 88.4159 152.246V156.83C88.4159 158.036 88.4159 160.69 85.0378 160.69C81.6597 160.69 81.6597 158.277 81.6597 156.83V152.246H82.1422Z" fill="black"></path><path d="M85.762 160.931C82.1426 160.931 82.1426 158.036 82.1426 156.83V152.245C82.1426 151.763 82.3839 151.522 82.8665 151.522C83.3491 151.522 83.5904 151.763 83.5904 152.245V156.83C83.5904 158.277 83.8316 159.725 86.0033 159.725C88.1749 159.725 88.4162 158.277 88.4162 156.83V152.245C88.4162 151.763 88.6575 151.522 89.1401 151.522C89.6227 151.522 89.864 151.763 89.864 152.245V156.83C89.3814 157.795 89.3814 160.931 85.762 160.931ZM82.6252 152.245V156.83C82.6252 158.519 83.1077 160.208 85.762 160.208C88.4162 160.208 88.8988 158.519 88.8988 156.83V152.245V156.83C88.8988 158.036 88.8988 160.208 85.762 160.208C82.6252 160.208 82.6252 157.795 82.6252 156.83V152.245Z" fill="black"></path><path d="M95.8952 160.208C95.8952 160.449 95.6539 160.449 95.6539 160.449C95.4126 160.449 95.4126 160.449 95.4126 160.208V152.728H92.7584C92.5171 152.728 92.5171 152.487 92.5171 152.487C92.5171 152.245 92.5171 152.245 92.7584 152.245H98.7908C99.0321 152.245 99.032 152.487 99.032 152.487C99.032 152.728 99.0321 152.728 98.7908 152.728H96.1365V160.208H95.8952Z" fill="black"></path><path d="M95.6542 160.931C95.1716 160.931 94.9303 160.69 94.9303 160.208V152.969H92.5173C92.0348 152.969 91.7935 152.728 91.7935 152.245C91.7935 151.763 92.0348 151.522 92.5173 151.522H98.5497C99.0323 151.522 99.2736 151.763 99.2736 152.245C99.2736 152.487 99.0323 152.969 98.5497 152.969H96.1368V160.208C96.1368 160.69 95.8955 160.931 95.6542 160.931ZM92.5173 152.487H95.4129V160.208V152.487H98.3085H92.5173Z" fill="black"></path><path d="M48.1194 187.713C48.602 187.954 49.0845 187.954 49.5671 187.954C50.5323 187.954 51.7388 187.472 51.7388 186.266C51.7388 185.059 50.7736 184.818 50.0497 184.577C49.0846 184.335 47.8781 183.853 47.8781 182.405C47.8781 181.199 48.8433 180.234 50.291 180.234C50.7736 180.234 51.2562 180.475 51.7388 180.475C51.7388 180.475 51.9801 180.475 51.9801 180.716C51.9801 180.957 51.7388 180.957 51.7388 180.957H51.4975C51.2562 180.957 50.7736 180.716 50.291 180.716C49.0846 180.716 48.602 181.44 48.602 182.405C48.602 183.37 49.5671 183.853 50.291 184.094C51.2562 184.335 52.4627 184.818 52.4627 186.507C52.4627 187.954 51.2562 188.92 49.5671 188.92C48.602 188.92 47.8781 188.678 47.6368 188.437C47.3955 188.437 47.3955 188.196 47.3955 188.196C47.3955 187.954 47.6368 187.954 47.6368 187.954C47.8781 187.713 47.8781 187.713 48.1194 187.713Z" fill="black"></path><path d="M49.8084 188.92C48.8433 188.92 48.1194 188.678 47.8781 188.437C47.6368 188.437 47.3955 188.196 47.3955 187.713C47.3955 187.472 47.6368 186.989 48.1194 186.989C48.1194 186.989 48.3607 186.989 48.602 187.231C49.0846 187.472 49.5672 187.472 50.0498 187.472C50.5323 187.472 51.9801 187.472 51.9801 186.024C51.9801 185.059 51.4975 184.818 50.291 184.577C49.3259 184.335 47.8781 183.853 47.8781 182.164C47.8781 180.957 48.8433 179.51 50.5323 179.51C51.0149 179.51 51.7388 179.751 52.2214 179.992C52.2214 179.992 52.704 180.234 52.704 180.475C52.704 180.716 52.4627 181.199 51.9801 181.199C51.7388 181.199 51.7388 181.199 51.4975 180.957C51.2562 180.957 51.0149 180.716 50.5323 180.716C49.5672 180.716 49.0846 181.44 49.0846 181.923C49.0846 182.646 49.5672 182.888 50.5323 183.37C51.4975 183.853 52.9453 184.335 52.9453 186.024C52.9453 187.954 51.4975 188.92 49.8084 188.92ZM47.8781 187.954C48.3607 188.196 48.8433 188.437 49.8084 188.437C51.0149 188.437 52.2214 187.955 52.2214 186.507C52.2214 185.059 51.2562 184.818 50.291 184.335C49.3259 184.094 48.3607 183.611 48.3607 182.405C48.3607 181.44 49.0846 180.475 50.291 180.475C50.7736 180.475 51.2562 180.716 51.4975 180.716C51.7388 180.716 51.7388 180.716 51.7388 180.716C51.2562 180.475 50.7736 180.475 50.291 180.475C48.8433 180.475 48.1194 181.44 48.1194 182.405C48.1194 183.611 49.0846 184.094 50.0498 184.335C51.0149 184.577 51.9801 185.059 51.9801 186.507C51.9801 187.955 50.7736 188.437 49.5671 188.437C49.0846 188.437 48.3607 188.196 47.8781 187.954V187.954Z" fill="black"></path><path d="M60.4263 183.854C60.6676 183.854 60.6676 184.095 60.6676 184.095C60.6676 184.336 60.6676 184.336 60.4263 184.336H56.8069V187.231C56.8069 187.473 57.0482 187.714 57.2895 187.714H60.9089C61.1502 187.714 61.1502 187.955 61.1502 187.955C61.1502 188.197 61.1502 188.197 60.9089 188.197H57.0482C56.083 188.197 56.083 187.473 56.083 187.231V180.958C56.083 180.717 56.083 179.993 57.0482 179.993H60.6676C60.9089 179.993 60.9089 180.234 60.9089 180.234C60.9089 180.476 60.9089 180.476 60.6676 180.476H57.0482C56.8069 180.476 56.5656 180.476 56.5656 180.958V183.612H60.4263V183.854Z" fill="black"></path><path d="M60.908 188.92H57.0473C56.3234 188.92 55.8408 188.437 55.8408 187.472V181.199C55.8408 180.234 56.3234 179.751 57.0473 179.751H60.6667C61.1493 179.751 61.3906 179.992 61.3906 180.475C61.3906 180.716 61.1493 181.199 60.6667 181.199H57.0473V183.611H60.4254C60.908 183.611 60.908 183.853 60.908 184.335C60.908 184.818 60.6667 185.059 60.4254 185.059H57.0473V187.713H60.6667C61.1493 187.713 61.3906 187.954 61.3906 188.437C61.3906 188.678 61.1493 188.92 60.908 188.92ZM57.0473 180.475C56.5647 180.475 56.3234 180.716 56.3234 181.199V187.472C56.3234 187.954 56.3234 188.196 57.0473 188.196H60.908H57.2886C57.0473 188.196 56.5647 188.196 56.5647 187.472V184.335H60.4254H56.5647V181.44C56.3234 180.957 56.5647 180.716 57.0473 180.475H60.6667H57.0473Z" fill="black"></path><path d="M69.3532 188.196C69.3532 188.437 69.5945 188.437 69.5945 188.437C69.5945 188.678 69.3532 188.678 69.3532 188.678C69.1119 188.678 69.1119 188.678 69.1119 188.437L66.2163 184.818H65.2511V188.437C65.2511 188.678 65.0099 188.678 65.0099 188.678C64.7686 188.678 64.7686 188.678 64.7686 188.437V181.44C64.7686 181.199 64.7686 180.475 65.7338 180.475H67.1815C68.8706 180.475 69.5945 181.44 69.5945 182.646C69.5945 183.611 69.1119 184.818 67.1815 184.818L69.3532 188.196ZM66.4576 184.094C66.9402 184.094 68.6293 184.094 68.6293 182.405C68.6293 180.716 67.1815 180.716 66.4576 180.716H65.4924C65.2512 180.716 65.0099 180.716 65.0099 181.199V184.094H66.4576Z" fill="black"></path><path d="M69.1121 188.92C68.8708 188.92 68.6295 188.678 68.6295 188.678L65.9753 185.059H65.4927V188.437C65.4927 188.92 65.2514 189.161 64.7688 189.161C64.2862 189.161 64.0449 188.92 64.0449 188.437V181.44C64.0449 180.475 64.5275 179.992 65.2514 179.992H66.6992C68.6295 179.992 69.3534 181.199 69.3534 182.646C69.3534 183.853 68.8708 184.818 67.1817 185.059L69.3534 187.954L69.1121 188.196L69.3534 187.954C69.3534 188.196 69.5947 188.196 69.5947 188.437C69.836 188.678 69.5947 188.92 69.1121 188.92ZM64.7688 184.577H66.2166L69.1121 188.437L69.3534 188.196L69.1121 188.437L66.2166 184.577H66.6992C68.6295 184.577 68.8708 183.129 68.8708 182.646C68.8708 181.44 68.1469 180.716 66.6992 180.716H65.2514C64.7688 180.716 64.5275 180.957 64.5275 181.44V188.437L64.7688 184.577ZM66.4579 184.577H64.7688V181.44C64.7688 180.957 65.0101 180.716 65.4927 180.716H66.4579C66.9404 180.716 68.8708 180.716 68.8708 182.646C68.8708 183.853 68.1469 184.577 66.4579 184.577ZM65.4927 183.853H66.6992C67.6643 183.853 68.6295 183.611 68.6295 182.405C68.6295 181.199 67.6643 181.199 66.6992 181.199H65.4927V183.853Z" fill="black"></path><path d="M78.7645 180.234C78.7645 180.234 78.7645 179.992 79.0058 179.992C79.2471 179.992 79.4883 180.234 79.4883 180.234V180.475L76.3515 188.196C76.3515 188.437 76.1102 188.678 75.8689 188.678C75.6276 188.678 75.3863 188.437 75.3863 188.196L72.2495 180.475V180.234C72.2495 179.992 72.4908 179.992 72.7321 179.992C72.9734 179.992 72.9734 179.992 72.9734 180.234L76.1102 187.954L78.7645 180.234Z" fill="black"></path><path d="M75.6273 188.92C75.1447 188.92 74.9034 188.437 74.9034 188.437L71.7666 180.716C71.7666 180.716 71.7666 180.475 71.7666 180.234C71.7666 179.751 72.0079 179.51 72.4905 179.51C72.973 179.51 72.9731 179.751 72.9731 179.992L75.6273 186.989L78.2815 179.992H78.5228L78.2815 179.751C78.2815 179.751 78.5228 179.268 78.7641 179.268C79.0054 179.268 79.488 179.51 79.488 179.992C79.488 180.234 79.488 180.234 79.488 180.475L76.3512 187.954C76.5925 188.678 76.3512 188.92 75.6273 188.92ZM78.7641 180.234H79.0054L75.8686 188.196C75.8686 188.196 75.8686 188.196 76.1099 187.954L79.2467 180.234C79.2467 180.234 79.2467 180.234 79.2467 179.992L78.7641 180.234ZM72.4905 180.475C72.2492 180.475 72.2492 180.475 72.4905 180.475C72.2492 180.475 72.2492 180.475 72.4905 180.475L75.6273 188.196C75.6273 188.196 75.6273 188.437 75.8686 188.437L72.4905 180.475Z" fill="black"></path><path d="M82.8662 180.475C82.8662 180.234 83.1075 180.234 83.1075 180.234C83.3488 180.234 83.3488 180.475 83.3488 180.475V188.437C83.3488 188.678 83.1075 188.678 83.1075 188.678C82.8662 188.678 82.8662 188.437 82.8662 188.437V180.475Z" fill="black"></path><path d="M83.1072 188.92C82.6246 188.92 82.3833 188.678 82.3833 188.196V180.234C82.3833 179.751 82.6246 179.51 83.1072 179.51C83.5898 179.51 83.8311 179.751 83.8311 180.234V188.196C83.8311 188.92 83.3485 188.92 83.1072 188.92ZM83.1072 180.475V188.437V180.475Z" fill="black"></path><path d="M87.209 184.335C87.209 181.923 88.898 179.992 91.5523 179.992C92.5174 179.992 93.2413 180.234 93.7239 180.475C93.9652 180.475 93.9652 180.716 93.9652 180.716C93.9652 180.957 93.7239 180.957 93.7239 180.957C93.7239 180.957 93.4826 180.957 93.4826 180.716C92.7587 180.234 92.0348 180.234 91.7935 180.234C89.6219 180.234 88.1741 181.923 88.1741 183.853C88.1741 185.542 89.3806 187.472 92.0349 187.472C92.7587 187.472 93.2413 187.231 93.7239 187.231C93.7239 187.231 93.9652 186.989 94.2065 186.989C94.2065 186.989 94.4478 186.989 94.4478 187.231C94.4478 187.472 94.2065 187.472 94.2065 187.472C93.4826 187.954 92.5174 187.954 91.7935 187.954C88.6567 188.678 87.209 186.748 87.209 184.335Z" fill="black"></path><path d="M91.552 188.92C88.6564 188.92 86.7261 186.989 86.7261 184.335C86.7261 181.681 88.6564 179.751 91.3107 179.751C92.2758 179.751 92.9997 179.992 93.7236 180.234C93.9649 180.475 93.9649 180.716 93.9649 180.716C93.9649 180.957 93.7236 181.44 93.241 181.44C92.9997 181.44 92.9997 181.44 92.7584 181.199C92.2758 180.957 91.552 180.716 91.0694 180.716C89.139 180.716 87.6912 182.164 87.6912 184.094C87.6912 185.783 88.6564 187.472 91.0694 187.472C91.7933 187.472 92.2758 187.231 92.7584 187.231C92.9997 186.989 93.241 186.989 93.241 186.989C93.4823 186.989 93.7236 187.231 93.7236 187.713C93.7236 187.955 93.7236 188.196 93.241 188.196C92.9997 188.92 92.0346 188.92 91.552 188.92ZM91.552 180.475C89.139 180.475 87.45 182.164 87.45 184.577C87.45 186.507 88.6564 188.678 91.552 188.678C92.0346 188.678 92.9997 188.678 93.7236 188.196H93.4823C92.9997 188.437 92.5171 188.437 91.552 188.437C88.6564 188.437 87.45 186.266 87.45 184.577C87.45 182.164 89.139 180.475 91.552 180.475C92.0346 180.475 92.7584 180.475 93.4823 180.957C92.9997 180.475 92.2758 180.475 91.552 180.475Z" fill="black"></path><path d="M101.688 183.854C101.929 183.854 101.929 184.095 101.929 184.095C101.929 184.336 101.929 184.336 101.688 184.336H98.0681V187.231C98.0681 187.473 98.3094 187.714 98.5507 187.714H102.17C102.411 187.714 102.411 187.955 102.411 187.955C102.411 188.197 102.411 188.197 102.17 188.197H98.3094C97.3443 188.197 97.3442 187.473 97.3442 187.231V180.958C97.3442 180.717 97.3443 179.993 98.3094 179.993H101.929C102.17 179.993 102.17 180.234 102.17 180.234C102.17 180.476 102.17 180.476 101.929 180.476H98.3094C98.0681 180.476 97.8268 180.476 97.8268 180.958V183.612H101.688V183.854Z" fill="black"></path><path d="M102.169 188.92H98.3085C97.5846 188.92 97.1021 188.437 97.1021 187.472V181.199C97.1021 180.234 97.5846 179.751 98.3085 179.751H101.928C102.41 179.751 102.652 179.992 102.652 180.475C102.652 180.716 102.41 181.199 101.928 181.199H98.3085V183.611H101.687C102.169 183.611 102.169 183.853 102.169 184.335C102.169 184.818 101.928 185.059 101.687 185.059H98.3085V187.713H101.928C102.41 187.713 102.652 187.954 102.652 188.437C102.652 188.678 102.41 188.92 102.169 188.92ZM98.3085 180.475C97.8259 180.475 97.5846 180.716 97.5846 181.199V187.472C97.5846 187.954 97.5846 188.196 98.3085 188.196H102.169H98.5498C98.3085 188.196 97.8259 188.196 97.8259 187.472V184.335H101.687H97.8259V181.44C97.8259 180.957 98.0672 180.716 98.3085 180.475H101.928H98.3085Z" fill="black"></path><path d="M226.436 222.94H9.27075C4.20357 222.94 0.101562 218.838 0.101562 213.771V9.8923C0.101562 4.82549 4.20357 0.723816 9.27075 0.723816H226.436C231.503 0.723816 235.605 4.82549 235.605 9.8923V213.771C235.846 218.838 231.744 222.94 226.436 222.94ZM9.27075 5.30806C6.85781 5.30806 4.92745 7.23824 4.92745 9.65101V213.53C4.92745 215.942 6.85781 217.873 9.27075 217.873H226.436C228.848 217.873 230.779 215.942 230.779 213.53V9.8923C230.779 7.47953 228.848 5.54935 226.436 5.54935H9.27075V5.30806Z" fill="black"></path><path d="M144.878 105.92C145.361 106.403 145.361 106.886 144.878 107.368L120.99 133.426C120.507 133.909 120.025 133.909 119.542 133.426C119.06 132.943 119.06 132.461 119.542 131.978L143.43 105.92C143.913 105.679 144.395 105.438 144.878 105.92Z" fill="black"></path><path d="M120.266 134.874C119.783 134.874 119.301 134.632 118.818 134.391C117.853 133.667 117.853 132.22 118.577 131.255L142.465 105.197C142.948 104.714 143.43 104.473 143.913 104.473C144.396 104.473 145.119 104.714 145.602 104.955C146.085 105.438 146.326 105.92 146.326 106.403C146.326 106.886 146.085 107.609 145.843 108.092L121.955 134.15C121.473 134.632 120.99 134.874 120.266 134.874Z" fill="black"></path><path d="M145.602 116.537H143.672V107.127L134.261 107.851L134.02 105.92L145.602 105.197V116.537Z" fill="black"></path><path d="M142.465 117.984V108.574L133.055 109.298L132.813 104.955L146.809 103.749V117.743L142.465 117.984Z" fill="black"></path></svg> 