<?xml version="1.0" encoding="UTF-8"?> <svg xmlns="http://www.w3.org/2000/svg" width="237" height="224" viewBox="0 0 237 224" fill="none"><path d="M118.309 147.586C139.414 147.586 156.523 130.475 156.523 109.366C156.523 88.2579 139.414 71.146 118.309 71.146C97.2045 71.146 80.0957 88.2579 80.0957 109.366C80.0957 130.475 97.2045 147.586 118.309 147.586Z" fill="#C3B68F"></path><path d="M105.733 85.4183C105.733 85.6602 105.491 85.6602 105.491 85.6602C105.249 85.6602 105.249 85.6602 105.249 85.4183V77.9195H102.589C102.347 77.9195 102.347 77.6774 102.347 77.6774C102.347 77.4355 102.347 77.4355 102.589 77.4355H108.635C108.877 77.4355 108.877 77.6774 108.877 77.6774C108.877 77.9193 108.877 77.9195 108.635 77.9195H105.733V85.4183Z" fill="black"></path><path d="M105.491 86.1438C105.007 86.1438 104.765 85.9021 104.765 85.4183V78.1613H102.347C101.863 78.1613 101.621 77.9193 101.621 77.4355C101.621 76.9517 101.863 76.71 102.347 76.71H108.393C108.877 76.71 109.119 76.9517 109.119 77.4355C109.119 77.6774 108.877 78.1613 108.393 78.1613H105.975V85.4183C105.975 85.9021 105.733 86.1438 105.491 86.1438ZM102.347 77.6773H105.249V85.4183V77.6773H108.151H102.347Z" fill="black"></path><path d="M115.892 77.1936C118.31 77.1936 120.245 78.8871 120.245 81.548C120.245 83.967 118.31 85.9021 115.892 85.9021C113.473 85.9021 111.538 84.2089 111.538 81.548C111.538 78.8871 113.473 77.1936 115.892 77.1936ZM115.892 85.1766C117.826 85.1766 119.519 83.4832 119.519 81.548C119.519 79.6128 118.068 77.9194 115.892 77.9194C113.957 77.9194 112.264 79.6128 112.264 81.548C112.264 83.4832 113.957 85.1766 115.892 85.1766Z" fill="black"></path><path d="M115.891 86.1438C113.231 86.1438 111.296 84.2089 111.296 81.548C111.296 78.8871 113.231 76.9519 115.891 76.9519C118.552 76.9519 120.487 78.8871 120.487 81.548C120.487 84.2089 118.552 86.1438 115.891 86.1438ZM115.891 77.4356C113.473 77.4356 111.78 79.129 111.78 81.548C111.78 83.7251 113.473 85.6601 115.891 85.6601C118.31 85.6601 120.003 83.967 120.003 81.548C120.003 79.129 118.31 77.4356 115.891 77.4356ZM115.891 85.4183C113.715 85.4183 112.022 83.7251 112.022 81.548C112.022 79.3709 113.715 77.6774 115.891 77.6774C118.068 77.6774 119.761 79.3709 119.761 81.548C119.761 83.7251 118.068 85.4183 115.891 85.4183ZM115.891 78.1614C113.956 78.1614 112.505 79.6128 112.505 81.548C112.505 83.4832 113.956 84.9343 115.891 84.9343C117.826 84.9343 119.277 83.4832 119.277 81.548C119.277 79.6128 117.826 78.1614 115.891 78.1614Z" fill="black"></path><path d="M124.356 85.4183C124.356 85.6602 124.114 85.6602 124.114 85.6602C123.873 85.6602 123.873 85.6602 123.873 85.4183V78.4032C123.873 78.1613 123.873 77.4355 124.84 77.4355H126.049C126.775 77.4355 127.259 77.4355 127.742 77.6774C128.71 78.1612 128.952 79.3707 128.952 79.8545C128.952 80.5802 128.71 81.5479 127.742 82.0317C127.259 82.2736 126.775 82.2735 126.049 82.2735H124.598V85.4183H124.356ZM125.566 81.548C126.291 81.548 127.742 81.5478 127.742 79.8545C127.742 78.1612 126.291 78.1614 125.566 78.1614H124.84C124.598 78.1614 124.356 78.1612 124.356 78.645V81.7898H125.566V81.548Z" fill="black"></path><path d="M124.114 86.1438C123.631 86.1438 123.389 85.9021 123.389 85.4183V78.4032C123.389 77.4356 123.872 76.9519 124.598 76.9519H125.807C126.533 76.9519 127.017 76.9518 127.742 77.4356C128.951 78.1613 128.951 79.3708 128.951 79.8545C128.951 81.064 128.468 81.7897 127.742 82.2735C127.258 82.5154 126.533 82.5153 125.807 82.5153H124.84V85.6601C124.598 85.902 124.356 86.1438 124.114 86.1438ZM124.598 77.6774C124.114 77.6774 123.872 77.9194 123.872 78.4032V85.4183V81.7898H125.565C126.049 81.7898 126.533 81.7899 127.017 81.548C127.742 81.3061 127.984 80.5803 127.984 79.6127C127.984 79.1289 127.742 78.1614 127.017 77.9195C126.533 77.6777 126.049 77.6774 125.565 77.6774H124.598V77.6774ZM125.565 81.7898H124.114V78.4032C124.114 77.9194 124.356 77.6774 124.84 77.6774H125.565C126.291 77.6774 128.226 77.6775 128.226 79.8545C128.226 81.7897 126.291 81.7898 125.565 81.7898ZM124.598 81.064H125.565C126.533 81.064 127.5 81.0641 127.5 79.6127C127.5 78.1613 126.533 78.1614 125.565 78.1614H124.84V81.064H124.598Z" fill="black"></path><path d="M96.0588 111.302L95.0913 113.721C95.0913 113.962 95.0913 113.962 94.8495 113.962C94.6076 113.962 94.3657 113.962 94.3657 113.721V113.479L97.5099 105.738C97.5099 105.496 97.7518 105.254 97.9936 105.254C98.4773 105.254 98.4774 105.496 98.4774 105.738L101.38 113.479V113.721C101.38 113.962 101.138 113.962 100.896 113.962C100.654 113.962 100.654 113.721 100.654 113.721L99.6867 111.302H96.0588ZM99.6867 110.576L97.9936 106.222L96.3006 110.576H99.6867Z" fill="black"></path><path d="M101.138 114.204C100.654 114.204 100.654 113.962 100.412 113.72L99.4447 111.301H96.0587L95.0913 113.479C95.0913 113.72 94.8494 113.962 94.3657 113.962C94.1238 113.962 93.6401 113.72 93.6401 113.237V112.995L96.7842 105.254C97.0261 104.77 97.268 104.529 97.5099 104.529C97.9936 104.529 98.2354 104.77 98.2354 105.254L101.138 112.995C101.138 113.237 101.138 113.237 101.138 113.479C101.863 113.962 101.621 114.204 101.138 114.204ZM95.8168 110.818H100.17L101.138 113.479L97.9935 105.738C97.9935 105.738 97.9936 105.496 97.7517 105.496L99.6866 110.818H95.8168L97.7517 105.496C97.7517 105.496 97.7517 105.496 97.5099 105.738L94.3657 113.479V113.72L95.8168 110.818ZM96.5424 110.334H99.2028L97.9935 106.948L96.5424 110.334Z" fill="black"></path><path d="M105.734 113.962C104.766 113.962 104.766 113.237 104.766 112.995V106.705C104.766 106.464 104.766 105.738 105.734 105.738H107.185C107.91 105.738 109.845 105.738 109.845 107.673C109.845 108.883 109.12 109.366 108.636 109.608C109.12 109.85 110.087 110.092 110.087 111.786C110.087 113.963 107.91 113.962 107.185 113.962H105.734ZM107.185 109.124C107.668 109.124 109.12 109.124 109.12 107.673C109.12 106.222 107.91 106.222 106.943 106.222H105.734C105.492 106.222 105.25 106.222 105.25 106.705V109.367H107.185V109.124ZM105.492 112.753C105.492 112.995 105.734 113.237 105.975 113.237H107.427C108.152 113.237 109.845 113.237 109.845 111.543C109.845 109.85 108.152 109.85 107.668 109.85H105.734V112.753H105.492Z" fill="black"></path><path d="M107.426 114.204H105.733C105.008 114.204 104.524 113.72 104.524 112.753V106.464C104.524 105.496 105.008 105.012 105.733 105.012H107.184C107.91 105.012 110.329 105.012 110.329 107.431C110.329 108.399 109.845 108.883 109.361 109.366C109.845 109.608 110.57 110.334 110.57 111.543C110.57 113.237 109.603 114.204 107.426 114.204ZM105.733 105.98C105.249 105.98 105.008 106.222 105.008 106.705V112.995C105.008 113.479 105.008 113.72 105.733 113.72H107.426C108.636 113.72 110.087 113.479 110.087 111.785C110.087 111.06 109.845 110.576 109.603 110.334C109.845 110.576 110.087 111.06 110.087 111.785C110.087 113.721 108.152 113.72 107.426 113.72H105.975C105.733 113.72 105.249 113.721 105.249 112.995V106.705C105.249 106.222 105.491 105.98 105.733 105.98H107.184C108.152 105.98 109.603 105.98 109.603 107.673C109.603 107.915 109.603 108.399 109.361 108.641C109.603 108.399 109.603 108.157 109.603 107.431C109.603 105.98 108.394 105.738 107.184 105.738H105.733V105.98ZM105.733 112.995H107.184C108.152 112.995 109.361 112.995 109.361 111.785C109.361 110.576 108.394 110.334 107.426 110.334H105.733V112.995C105.733 112.995 105.733 112.753 105.733 112.995ZM107.426 109.608C107.668 109.608 107.91 109.608 107.91 109.608L108.152 109.366C107.91 109.366 107.668 109.608 107.426 109.608ZM105.733 108.882H107.184C107.91 108.882 108.877 108.641 108.877 107.673C108.877 106.705 108.152 106.464 106.943 106.464H105.733V108.882Z" fill="black"></path><path d="M117.584 105.496C120.003 105.496 121.938 107.189 121.938 109.85C121.938 112.269 120.003 114.204 117.584 114.204C115.166 114.204 113.231 112.511 113.231 109.85C113.231 107.189 115.166 105.496 117.584 105.496ZM117.584 113.479C119.519 113.479 121.212 111.785 121.212 109.85C121.212 107.915 119.761 106.221 117.584 106.221C115.649 106.221 113.956 107.915 113.956 109.85C113.956 111.785 115.649 113.479 117.584 113.479Z" fill="black"></path><path d="M117.584 114.204C114.924 114.204 112.989 112.269 112.989 109.608C112.989 106.947 114.924 105.012 117.584 105.012C120.244 105.012 122.179 106.947 122.179 109.608C122.179 112.269 120.244 114.204 117.584 114.204ZM117.584 105.738C115.165 105.738 113.473 107.431 113.473 109.85C113.473 112.027 115.165 113.962 117.584 113.962C120.003 113.962 121.696 112.269 121.696 109.85C121.696 107.431 120.003 105.738 117.584 105.738ZM117.584 113.72C115.407 113.72 113.714 112.027 113.714 109.85C113.714 107.673 115.407 105.98 117.584 105.98C119.761 105.98 121.454 107.673 121.454 109.85C121.454 112.027 119.761 113.72 117.584 113.72ZM117.584 106.222C115.649 106.222 114.198 107.673 114.198 109.608C114.198 111.543 115.649 112.995 117.584 112.995C119.519 112.995 120.97 111.543 120.97 109.608C120.97 107.915 119.519 106.222 117.584 106.222Z" fill="black"></path><path d="M125.324 105.738C125.324 105.496 125.565 105.496 125.565 105.496C125.807 105.496 125.807 105.496 125.807 105.738V110.334C125.807 111.543 125.807 113.479 128.468 113.479C131.128 113.479 131.128 111.543 131.128 110.334V105.738C131.128 105.496 131.37 105.496 131.37 105.496C131.612 105.496 131.612 105.496 131.612 105.738V110.334C131.612 111.543 131.612 114.204 128.226 114.204C124.84 114.204 124.84 111.785 124.84 110.334V105.738H125.324Z" fill="black"></path><path d="M128.951 114.204C125.323 114.204 125.323 111.301 125.323 110.092V105.496C125.323 105.012 125.565 104.77 126.049 104.77C126.533 104.77 126.774 105.012 126.774 105.496V110.092C126.774 111.543 127.016 112.995 129.193 112.995C131.37 112.995 131.612 111.543 131.612 110.092V105.496C131.612 105.012 131.853 104.77 132.337 104.77C132.821 104.77 133.063 105.012 133.063 105.496V110.092C132.579 111.301 132.579 114.204 128.951 114.204ZM125.807 105.738V110.334C125.807 112.027 126.291 113.72 128.951 113.72C131.612 113.72 132.095 112.027 132.095 110.334V105.738V110.334C132.095 111.543 132.095 113.72 128.951 113.72C125.807 113.72 125.807 111.301 125.807 110.334V105.738Z" fill="black"></path><path d="M139.109 113.721C139.109 113.962 138.867 113.962 138.867 113.962C138.625 113.962 138.625 113.962 138.625 113.721V106.222H135.965C135.723 106.222 135.723 105.98 135.723 105.98C135.723 105.738 135.723 105.738 135.965 105.738H142.011C142.253 105.738 142.253 105.98 142.253 105.98C142.253 106.222 142.253 106.222 142.011 106.222H139.351V113.721H139.109Z" fill="black"></path><path d="M138.867 114.204C138.384 114.204 138.142 113.962 138.142 113.479V106.222H135.723C135.239 106.222 134.998 105.98 134.998 105.496C134.998 105.012 135.239 104.77 135.723 104.77H141.77C142.253 104.77 142.495 105.012 142.495 105.496C142.495 105.738 142.253 106.222 141.77 106.222H139.351V113.479C139.351 114.204 139.109 114.204 138.867 114.204ZM135.723 105.98H138.625V113.72V105.98H141.528H135.723Z" fill="black"></path><path d="M91.2216 141.297C91.7054 141.539 92.1891 141.539 92.6728 141.539C93.6402 141.539 94.8495 141.055 94.8495 139.846C94.8495 138.636 93.8821 138.394 93.1565 138.152C92.189 137.91 90.9798 137.427 90.9798 135.975C90.9798 134.766 91.9472 133.798 93.3984 133.798C93.8821 133.798 94.3658 134.04 94.8495 134.04C94.8495 134.04 95.0914 134.04 95.0914 134.282C95.0914 134.524 94.8495 134.524 94.8495 134.524H94.6077C94.3658 134.524 93.8821 134.282 93.3984 134.282C92.1891 134.282 91.7054 135.008 91.7054 135.975C91.7054 136.943 92.6728 137.427 93.3984 137.669C94.3658 137.91 95.5751 138.394 95.5751 140.087C95.5751 141.539 94.3658 142.506 92.6728 142.506C91.7054 142.506 90.9798 142.265 90.7379 142.023C90.496 142.023 90.4961 141.781 90.4961 141.781C90.4961 141.539 90.7379 141.539 90.7379 141.539C90.9798 141.055 90.9798 141.297 91.2216 141.297Z" fill="black"></path><path d="M92.9147 142.506C91.9472 142.506 91.2216 142.265 90.9798 142.023C90.7379 142.023 90.4961 141.781 90.4961 141.297C90.4961 141.055 90.7379 140.571 91.2216 140.571C91.2216 140.571 91.4635 140.571 91.7054 140.813C92.1891 141.055 92.6727 141.055 93.1565 141.055C93.6402 141.055 95.0914 141.055 95.0914 139.604C95.0914 138.636 94.6076 138.394 93.3983 138.152C92.4309 137.91 90.9798 137.426 90.9798 135.733C90.9798 134.524 91.9472 133.072 93.6402 133.072C94.1239 133.072 94.8495 133.314 95.3332 133.556C95.3332 133.556 95.8169 133.798 95.8169 134.04C95.8169 134.282 95.5751 134.766 95.0914 134.766C94.8495 134.766 94.8495 134.765 94.6076 134.524C94.3658 134.524 94.1239 134.282 93.6402 134.282C92.6728 134.282 92.189 135.007 92.189 135.491C92.189 136.217 92.6728 136.459 93.6402 136.943C94.6076 137.426 96.0588 137.91 96.0588 139.604C96.0588 141.539 94.6077 142.506 92.9147 142.506ZM90.9798 141.539C91.4635 141.781 91.9472 142.023 92.9147 142.023C94.1239 142.023 95.3332 141.539 95.3332 140.087C95.3332 138.636 94.3658 138.394 93.3983 137.91C92.4309 137.668 91.4635 137.185 91.4635 135.975C91.4635 135.008 92.189 134.04 93.3983 134.04C93.882 134.04 94.3658 134.282 94.6076 134.282C94.8495 134.282 94.8495 134.282 94.8495 134.282C94.3658 134.04 93.882 134.04 93.3983 134.04C91.9472 134.04 91.2216 135.008 91.2216 135.975C91.2216 137.185 92.189 137.668 93.1565 137.91C94.1239 138.152 95.0914 138.636 95.0914 140.087C95.0914 141.539 93.8821 142.023 92.6728 142.023C92.1891 142.023 91.4635 141.781 90.9798 141.539V141.539Z" fill="black"></path><path d="M103.556 137.427C103.798 137.427 103.798 137.669 103.798 137.669C103.798 137.91 103.798 137.91 103.556 137.91H99.9283V140.813C99.9283 141.055 100.17 141.297 100.412 141.297H104.04C104.282 141.297 104.282 141.539 104.282 141.539C104.282 141.781 104.282 141.781 104.04 141.781H100.17C99.2027 141.781 99.2026 141.055 99.2026 140.813V134.524C99.2026 134.282 99.2027 133.556 100.17 133.556H103.798C104.04 133.556 104.04 133.798 104.04 133.798C104.04 134.04 104.04 134.04 103.798 134.04H100.17C99.9283 134.04 99.6864 134.04 99.6864 134.524V137.185H103.556V137.427Z" fill="black"></path><path d="M104.04 142.506H100.17C99.4447 142.506 98.9609 142.023 98.9609 141.055V134.766C98.9609 133.798 99.4447 133.314 100.17 133.314H103.798C104.282 133.314 104.524 133.556 104.524 134.04C104.524 134.282 104.282 134.766 103.798 134.766H100.17V137.185H103.556C104.04 137.185 104.04 137.426 104.04 137.91C104.04 138.394 103.798 138.636 103.556 138.636H100.17V141.297H103.798C104.282 141.297 104.524 141.539 104.524 142.023C104.524 142.023 104.282 142.506 104.04 142.506ZM100.17 134.04C99.6865 134.04 99.4446 134.282 99.4446 134.766V141.055C99.4446 141.539 99.4447 141.781 100.17 141.781H104.04H100.412C100.17 141.781 99.6865 141.781 99.6865 141.055V137.91H103.556H99.6865V135.008C99.4446 134.282 99.6865 134.04 100.17 134.04H103.798H100.17Z" fill="black"></path><path d="M112.505 141.539C112.505 141.781 112.747 141.781 112.747 141.781C112.747 142.023 112.505 142.023 112.505 142.023C112.263 142.023 112.263 142.023 112.263 141.781L109.361 138.152H108.152V141.781C108.152 142.023 107.91 142.023 107.91 142.023C107.668 142.023 107.668 142.023 107.668 141.781V134.766C107.668 134.524 107.668 133.798 108.635 133.798H110.087C111.78 133.798 112.505 134.766 112.505 135.975C112.505 136.943 112.021 138.152 110.087 138.152L112.505 141.539ZM109.603 137.669C110.087 137.669 111.78 137.669 111.78 135.975C111.78 134.282 110.328 134.282 109.603 134.282H108.635C108.394 134.282 108.152 134.282 108.152 134.766V137.669H109.603Z" fill="black"></path><path d="M112.263 142.507C112.021 142.507 111.779 142.265 111.779 142.265L109.119 138.636H108.635V142.023C108.635 142.507 108.393 142.749 107.91 142.749C107.426 142.749 107.184 142.507 107.184 142.023V135.008C107.184 134.04 107.668 133.556 108.393 133.556H109.845C111.779 133.556 112.505 134.766 112.505 136.217C112.505 137.427 112.021 138.394 110.328 138.636L112.505 141.539L112.263 141.781L112.505 141.539C112.505 141.781 112.747 141.781 112.747 142.023C112.989 142.265 112.747 142.507 112.263 142.507ZM107.91 137.91H109.361L112.263 141.781L112.505 141.539L112.263 141.781L109.361 137.91H109.845C111.779 137.91 112.021 136.459 112.021 135.975C112.021 134.766 111.296 134.04 109.845 134.04H108.393C107.91 134.04 107.668 134.282 107.668 134.766V141.781L107.91 137.91ZM109.603 137.91H107.91V134.766C107.91 134.282 108.152 134.04 108.635 134.04H109.603C110.086 134.04 112.021 134.04 112.021 135.975C112.021 137.427 111.296 137.91 109.603 137.91ZM108.635 137.427H109.845C110.812 137.427 111.779 137.185 111.779 135.975C111.779 134.766 110.812 134.766 109.845 134.766H108.877V137.427H108.635Z" fill="black"></path><path d="M121.937 133.798C121.937 133.798 121.937 133.556 122.179 133.556C122.421 133.556 122.663 133.798 122.663 133.798V134.04L119.519 141.781C119.519 142.023 119.277 142.265 119.035 142.265C118.793 142.265 118.551 142.023 118.551 141.781L115.407 134.04V133.798C115.407 133.556 115.649 133.556 115.891 133.556C116.133 133.556 116.133 133.556 116.133 133.798L119.277 141.539L121.937 133.798Z" fill="black"></path><path d="M118.793 142.506C118.309 142.506 118.068 142.023 118.068 142.023L114.923 134.282C114.923 134.282 114.923 134.04 114.923 133.798C114.923 133.314 115.165 133.072 115.649 133.072C116.133 133.072 116.133 133.314 116.133 133.556L118.793 140.571L121.454 133.556H121.695L121.454 133.314C121.454 133.314 121.695 132.831 121.937 132.831C122.179 132.831 122.663 133.073 122.663 133.556C122.663 133.798 122.663 133.798 122.663 134.04L119.519 141.539C119.761 142.022 119.519 142.506 118.793 142.506ZM121.937 133.798H122.179L119.035 141.781C119.035 141.781 119.035 141.781 119.277 141.539L122.421 133.798C122.421 133.798 122.421 133.798 122.421 133.556L121.937 133.798ZM115.649 134.04C115.649 134.04 115.407 134.04 115.649 134.04C115.407 134.04 115.649 134.04 115.649 134.04L118.793 141.781C118.793 141.781 118.793 142.023 119.035 142.023L115.649 134.04Z" fill="black"></path><path d="M126.049 134.04C126.049 133.798 126.291 133.798 126.291 133.798C126.533 133.798 126.533 134.04 126.533 134.04V142.023C126.533 142.265 126.291 142.265 126.291 142.265C126.049 142.265 126.049 142.023 126.049 142.023V134.04Z" fill="black"></path><path d="M126.291 142.506C125.807 142.506 125.565 142.264 125.565 141.781V133.798C125.565 133.314 125.807 133.072 126.291 133.072C126.775 133.072 127.017 133.314 127.017 133.798V141.781C127.017 142.264 126.533 142.506 126.291 142.506ZM126.291 134.04V142.023V134.04Z" fill="black"></path><path d="M130.403 137.91C130.403 135.491 132.096 133.556 134.756 133.556C135.724 133.556 136.449 133.798 136.933 134.04C137.175 134.04 137.175 134.282 137.175 134.282C137.175 134.524 136.933 134.524 136.933 134.524C136.933 134.524 136.691 134.524 136.691 134.282C135.965 133.798 135.24 133.798 134.998 133.798C132.821 133.798 131.37 135.492 131.37 137.427C131.37 139.12 132.58 141.055 135.24 141.055C135.966 141.055 136.449 140.813 136.933 140.813C136.933 140.813 137.175 140.571 137.417 140.571C137.417 140.571 137.659 140.571 137.659 140.813C137.659 141.055 137.417 141.055 137.417 141.055C136.691 141.539 135.724 141.539 134.998 141.539C131.854 142.265 130.403 140.329 130.403 137.91Z" fill="black"></path><path d="M134.756 142.506C131.854 142.506 129.919 140.571 129.919 137.91C129.919 135.249 131.854 133.314 134.514 133.314C135.482 133.314 136.207 133.556 136.933 133.798C137.175 134.04 137.175 134.282 137.175 134.282C137.175 134.524 136.933 135.008 136.449 135.008C136.207 135.008 136.207 135.008 135.965 134.766C135.482 134.524 134.756 134.282 134.272 134.282C132.337 134.282 130.886 135.733 130.886 137.668C130.886 139.362 131.854 141.055 134.272 141.055C134.998 141.055 135.482 140.813 135.965 140.813C136.207 140.571 136.449 140.571 136.449 140.571C136.691 140.571 136.933 140.813 136.933 141.297C136.933 141.539 136.933 141.781 136.449 141.781C136.207 142.506 135.24 142.506 134.756 142.506ZM134.756 134.04C132.338 134.04 130.644 135.733 130.644 138.152C130.644 140.087 131.854 142.265 134.756 142.265C135.24 142.265 136.207 142.264 136.933 141.781H136.691C136.207 142.022 135.724 142.023 134.756 142.023C131.854 142.023 130.644 139.845 130.644 138.152C130.644 135.733 132.338 134.04 134.756 134.04C135.24 134.04 135.965 134.04 136.691 134.524C136.207 134.04 135.482 134.04 134.756 134.04Z" fill="black"></path><path d="M144.914 137.427C145.156 137.427 145.156 137.669 145.156 137.669C145.156 137.91 145.156 137.91 144.914 137.91H141.286V140.813C141.286 141.055 141.528 141.297 141.77 141.297H145.398C145.64 141.297 145.64 141.539 145.64 141.539C145.64 141.781 145.64 141.781 145.398 141.781H141.528C140.561 141.781 140.561 141.055 140.561 140.813V134.524C140.561 134.282 140.561 133.556 141.528 133.556H145.156C145.398 133.556 145.398 133.798 145.398 133.798C145.398 134.04 145.398 134.04 145.156 134.04H141.528C141.286 134.04 141.044 134.04 141.044 134.524V137.185H144.914V137.427Z" fill="black"></path><path d="M145.397 142.506H141.528C140.802 142.506 140.318 142.023 140.318 141.055V134.766C140.318 133.798 140.802 133.314 141.528 133.314H145.156C145.639 133.314 145.881 133.556 145.881 134.04C145.881 134.282 145.639 134.766 145.156 134.766H141.528V137.185H144.914C145.397 137.185 145.397 137.426 145.397 137.91C145.397 138.394 145.156 138.636 144.914 138.636H141.528V141.297H145.156C145.639 141.297 145.881 141.539 145.881 142.023C145.881 142.023 145.639 142.506 145.397 142.506ZM141.528 134.04C141.044 134.04 140.802 134.282 140.802 134.766V141.055C140.802 141.539 140.802 141.781 141.528 141.781H145.397H141.77C141.528 141.781 141.044 141.781 141.044 141.055V137.91H144.914H141.044V135.008C141.044 134.282 141.286 134.04 141.528 134.04H145.156H141.528Z" fill="black"></path><path d="M226.903 223.059H9.23165C4.15264 223.059 0.0410156 218.947 0.0410156 213.867V9.46183C0.0410156 4.38194 4.15264 0.269531 9.23165 0.269531H226.903C231.982 0.269531 236.094 4.38194 236.094 9.46183V213.867C236.094 218.947 231.982 223.059 226.903 223.059ZM8.98977 5.10752C6.5712 5.10752 4.63637 7.04283 4.63637 9.46183V213.867C4.63637 216.286 6.5712 218.221 8.98977 218.221H226.662C229.08 218.221 231.015 216.286 231.015 213.867V9.46183C231.015 7.04283 229.08 5.10752 226.662 5.10752H8.98977Z" fill="black"></path><path d="M41.883 67.276C42.3667 66.7922 43.0923 66.7923 43.576 67.0342L71.8733 89.0469C72.357 89.5307 72.357 90.2563 72.1152 90.7401C71.8733 91.2239 70.9059 91.2239 70.4222 90.982L42.1249 68.9692C41.3993 68.7273 41.3993 68.0017 41.883 67.276Z" fill="black"></path><path d="M70.9055 92.6753C70.4218 92.6753 69.6962 92.4332 69.4544 92.1913L41.157 70.1785C40.1896 69.2109 39.9478 67.7594 40.9152 66.7918C41.3989 66.308 41.8826 66.0664 42.6082 65.8245C43.3337 65.8245 43.8175 66.0662 44.3012 66.3081L72.5985 88.321C73.0822 88.8048 73.3241 89.2888 73.566 90.0145C73.566 90.7402 73.3241 91.2238 73.0822 91.7076C72.8404 92.1914 71.873 92.4334 70.9055 92.6753C71.1474 92.6753 71.1474 92.6753 70.9055 92.6753ZM42.85 68.2435L41.8826 67.5176L42.85 68.2435Z" fill="black"></path><path d="M54.9428 65.8245L55.1846 68.2435L43.5754 68.7271L44.7847 80.3385L42.608 80.5803L40.915 66.55L54.9428 65.8245Z" fill="black"></path><path d="M41.3987 82.0317L39.4639 65.3405L56.152 64.615L56.3939 69.453L44.7847 69.9367L46.2359 81.3059L41.3987 82.0317Z" fill="black"></path><path d="M193.527 69.4529C194.011 69.9367 193.769 70.6623 193.285 71.1461L164.988 93.1589C164.504 93.6427 163.779 93.4008 163.295 92.917C162.811 92.4332 163.053 91.7077 163.537 91.2239L191.834 69.2108C192.318 68.9689 193.043 68.9691 193.527 69.4529Z" fill="black"></path><path d="M164.262 94.6104C164.02 94.6104 164.02 94.6104 163.779 94.6104C163.053 94.6104 162.569 94.1268 162.327 93.643C161.844 93.1592 161.844 92.4333 161.844 91.9495C161.844 91.2238 162.327 90.7401 162.811 90.4981L191.109 68.4852C191.592 68.0014 192.318 68.0012 193.043 68.0012C193.769 68.0012 194.253 68.4851 194.495 68.9689C195.22 69.9365 194.978 71.6299 194.011 72.3556L165.713 94.3685C165.23 94.3685 164.746 94.6104 164.262 94.6104ZM192.56 70.1784L193.527 69.4529L192.56 70.1784C192.318 70.1784 192.318 70.1784 192.56 70.1784Z" fill="black"></path><path d="M191.592 82.7576L189.415 82.2736L191.592 70.9043L180.225 69.2108L180.466 67.0339L194.494 68.7271L191.592 82.7576Z" fill="black"></path><path d="M192.56 84.2087L187.964 83.2411L190.141 71.8721L178.774 70.4205L179.499 65.5825L195.946 67.7596L192.56 84.2087Z" fill="black"></path><path d="M194.011 152.182C193.527 152.666 192.801 152.666 192.318 152.424L164.02 130.412C163.537 129.928 163.537 129.202 163.778 128.718C164.262 128.235 164.988 128.234 165.472 128.476L193.769 150.489C194.252 150.973 194.494 151.699 194.011 152.182Z" fill="black"></path><path d="M193.043 153.876C192.559 153.876 191.834 153.634 191.592 153.392L163.295 131.379C162.811 130.895 162.569 130.411 162.327 129.686C162.327 128.96 162.569 128.476 162.811 127.993C163.778 127.025 165.229 126.783 166.197 127.751L194.494 149.764C194.978 150.247 195.22 150.731 195.462 151.457C195.462 152.182 195.22 152.666 194.978 153.15C194.736 153.634 194.011 153.876 193.043 153.876C193.043 153.876 193.285 153.876 193.043 153.876ZM193.043 151.457L194.011 152.183L193.043 151.457Z" fill="black"></path><path d="M180.708 153.634V151.457L192.317 150.731L191.108 139.12L193.285 138.878L194.978 153.15L180.708 153.634Z" fill="black"></path><path d="M179.741 155.085L179.499 150.247L191.108 149.764L189.657 138.152L194.494 137.669L196.429 154.118L179.741 155.085Z" fill="black"></path><path d="M42.3662 154.843C41.8825 154.36 42.1244 153.634 42.6081 153.15L70.9054 131.138C71.3891 130.654 72.1147 130.896 72.5984 131.379C73.0821 131.863 72.8403 132.589 72.3566 133.073L44.0592 155.085C43.5755 155.569 42.8499 155.327 42.3662 154.843Z" fill="black"></path><path d="M43.3338 156.537C43.092 156.537 43.0919 156.537 42.8501 156.537C42.1245 156.537 41.6408 156.053 41.3989 155.569C40.6733 154.602 40.9152 152.908 41.8827 152.183L70.18 130.17C71.3893 129.444 72.8405 129.686 73.566 130.653C74.2916 131.863 74.0497 133.314 73.0823 134.04L44.7849 156.053C44.3012 156.295 43.8175 156.537 43.3338 156.537ZM43.3338 154.118L42.3663 154.843L43.3338 154.118Z" fill="black"></path><path d="M44.3012 141.781L46.4779 142.265L44.0594 153.634L55.6685 155.085L55.4267 157.504L41.3989 155.569L44.3012 141.781Z" fill="black"></path><path d="M56.3941 158.956L39.9478 156.537L43.3338 140.329L47.9291 141.297L45.5105 152.666L57.1196 154.118L56.3941 158.956Z" fill="black"></path></svg> 