<?xml version="1.0" encoding="UTF-8"?> <svg xmlns="http://www.w3.org/2000/svg" width="236" height="223" viewBox="0 0 236 223" fill="none"><path d="M234.466 8.37489C234.466 4.51447 231.329 1.61915 227.71 1.61915H179.451C175.59 1.61915 169.799 2.82553 166.421 4.27319C166.421 4.27319 98.6175 32.9851 101.513 111.883C104.891 202.844 157.493 216.355 157.493 216.355C161.113 217.32 167.145 218.044 171.006 218.044H227.951C231.812 218.044 234.707 214.908 234.707 211.289L234.466 8.37489Z" fill="#C3B68F"></path><path d="M160.388 88.9613C160.388 89.2026 160.147 89.2026 160.147 89.2026C159.906 89.2026 159.906 89.2026 159.906 88.9613V81.4817H157.252C157.01 81.4817 157.01 81.2404 157.01 81.2404C157.01 80.9992 157.01 80.9992 157.252 80.9992H163.284C163.525 80.9992 163.525 81.2404 163.525 81.2404C163.525 81.4817 163.525 81.4817 163.284 81.4817H160.63V88.9613H160.388Z" fill="black"></path><path d="M160.147 89.6851C159.665 89.6851 159.423 89.4438 159.423 88.9613V81.723H157.01C156.769 81.723 156.287 81.4817 156.287 80.9992C156.287 80.5166 156.528 80.2753 157.01 80.2753H163.043C163.525 80.2753 163.767 80.5166 163.767 80.9992C163.767 81.2404 163.525 81.723 163.043 81.723H160.63V88.9613C160.871 89.4438 160.389 89.6851 160.147 89.6851ZM157.252 81.2404H160.147V88.9613V81.2404H163.043H157.252Z" fill="black"></path><path d="M170.524 80.7588C172.937 80.7588 174.867 82.4477 174.867 85.1017C174.867 87.5145 172.937 89.4447 170.524 89.4447C168.111 89.4447 166.181 87.7558 166.181 85.1017C166.422 82.689 168.111 80.7588 170.524 80.7588ZM170.524 88.7209C172.454 88.7209 174.144 87.0319 174.144 85.1017C174.144 83.1715 172.696 81.4826 170.524 81.4826C168.594 81.4826 166.905 83.1715 166.905 85.1017C166.905 87.2732 168.594 88.7209 170.524 88.7209Z" fill="black"></path><path d="M170.523 89.6851C167.869 89.6851 165.938 87.7549 165.938 85.1009C165.938 82.4468 167.869 80.5166 170.523 80.5166C173.177 80.5166 175.108 82.4468 175.108 85.1009C175.108 87.7549 173.177 89.6851 170.523 89.6851ZM170.523 80.9992C168.11 80.9992 166.421 82.6881 166.421 85.1009C166.421 87.2723 168.11 89.2026 170.523 89.2026C172.936 89.2026 174.625 87.5136 174.625 85.1009C174.625 82.6881 172.936 80.9992 170.523 80.9992ZM170.523 89.2026C168.351 89.2026 166.662 87.5136 166.662 85.3421C166.662 83.1707 168.351 81.2404 170.523 81.2404C172.695 81.2404 174.384 82.9294 174.384 85.3421C174.625 87.2724 172.695 89.2026 170.523 89.2026ZM170.523 81.723C168.593 81.723 167.145 83.1706 167.145 85.1009C167.145 87.0311 168.593 88.4787 170.523 88.4787C172.453 88.4787 173.901 87.0311 173.901 85.1009C173.901 83.1706 172.453 81.723 170.523 81.723Z" fill="black"></path><path d="M178.969 88.9613C178.969 89.2026 178.728 89.2026 178.728 89.2026C178.486 89.2026 178.486 89.2026 178.486 88.9613V81.9643C178.486 81.723 178.486 80.9992 179.452 80.9992H180.658C181.382 80.9992 181.865 80.9992 182.347 81.2404C183.312 81.723 183.554 82.9294 183.554 83.4119C183.554 84.1358 183.312 85.1009 182.347 85.5834C181.865 85.8247 181.382 85.8247 180.658 85.8247H179.21V88.9613H178.969ZM180.175 85.1009C180.899 85.1009 182.347 85.1009 182.347 83.4119C182.347 81.723 180.899 81.723 180.175 81.723H179.452C179.21 81.723 178.969 81.723 178.969 82.2056V85.3422H180.175V85.1009Z" fill="black"></path><path d="M178.727 89.6851C178.245 89.6851 178.003 89.4438 178.003 88.9613V81.9643C178.003 80.9992 178.486 80.5166 179.21 80.5166H180.416C181.14 80.5166 181.623 80.5166 182.347 80.7579C183.553 81.4817 183.553 82.6881 183.553 83.1706C183.553 84.377 183.071 85.1009 182.347 85.5834C181.864 85.8247 181.14 85.8247 180.416 85.8247H179.451V88.9613C179.451 89.4438 178.969 89.6851 178.727 89.6851ZM179.21 81.2404C178.727 81.2404 178.486 81.4817 178.486 81.9643V88.9613V85.3421H180.175C180.658 85.3421 181.14 85.3421 181.623 85.1009C182.347 84.8596 182.588 84.1358 182.588 83.1706C182.588 82.6881 182.347 81.723 181.623 81.4817C181.14 81.2404 180.658 81.2404 180.175 81.2404H179.21V81.2404ZM180.175 85.3421H178.727V81.9643C178.727 81.4817 178.969 81.2404 179.451 81.2404H180.175C180.899 81.2404 182.829 81.2404 182.829 83.4119C182.829 85.3421 181.14 85.3421 180.175 85.3421ZM179.451 84.8596H180.416C181.382 84.8596 182.347 84.8596 182.347 83.4119C182.347 81.9643 181.382 81.9643 180.416 81.9643H179.692V84.8596H179.451Z" fill="black"></path><path d="M150.737 114.778L149.772 117.191C149.772 117.432 149.772 117.432 149.53 117.432C149.289 117.432 149.048 117.432 149.048 117.191V116.949L152.185 109.229C152.185 108.987 152.426 108.746 152.667 108.746C153.15 108.746 153.15 108.987 153.15 109.229L156.045 116.949V117.191C156.045 117.432 155.804 117.432 155.563 117.432C155.321 117.432 155.321 117.191 155.321 117.191L154.356 114.778H150.737ZM154.356 114.295L152.667 109.952L150.978 114.295H154.356Z" fill="black"></path><path d="M156.045 117.915C155.562 117.915 155.562 117.673 155.321 117.432L154.356 115.26H150.978L150.013 117.432C150.013 117.673 149.771 117.915 149.289 117.915C149.047 117.915 148.565 117.673 148.565 117.191V116.949L151.702 109.229C151.943 108.746 152.184 108.746 152.426 108.746C152.908 108.746 153.149 108.987 153.149 109.229L156.045 116.949C156.045 117.191 156.045 117.191 156.045 117.432C156.528 117.673 156.286 117.915 156.045 117.915ZM150.495 114.537H154.839L155.804 117.191L152.667 109.47C152.667 109.47 152.667 109.229 152.426 109.229L154.356 114.537H150.495L152.426 109.229C152.426 109.229 152.426 109.229 152.184 109.47L149.048 117.191V117.432L150.495 114.537ZM151.46 113.813H154.115L152.908 110.435L151.46 113.813Z" fill="black"></path><path d="M160.388 117.432C159.423 117.432 159.423 116.708 159.423 116.467V110.194C159.423 109.952 159.423 109.229 160.388 109.229H161.836C162.56 109.229 164.491 109.229 164.491 111.159C164.491 112.365 163.767 112.848 163.284 113.089C163.767 113.33 164.732 113.571 164.732 115.26C164.732 117.432 162.56 117.432 161.836 117.432H160.388V117.432ZM162.078 112.848C162.56 112.848 164.008 112.848 164.008 111.4C164.008 109.952 162.801 109.952 161.836 109.952H160.63C160.389 109.952 160.147 109.952 160.147 110.435V113.089H162.078V112.848ZM160.147 116.467C160.147 116.708 160.389 116.949 160.63 116.949H162.078C162.801 116.949 164.491 116.949 164.491 115.26C164.491 113.571 162.801 113.572 162.319 113.572H160.388V116.467H160.147Z" fill="black"></path><path d="M162.078 117.673H160.389C159.665 117.673 159.182 117.191 159.182 116.226V109.952C159.182 108.987 159.665 108.505 160.389 108.505H161.836C162.56 108.505 164.973 108.505 164.973 110.917C164.973 111.883 164.49 112.365 164.008 112.848C164.49 113.089 165.214 113.813 165.214 115.019C165.214 116.949 164.249 117.673 162.078 117.673ZM160.389 109.47C159.906 109.47 159.665 109.711 159.665 110.194V116.467C159.665 116.949 159.665 117.191 160.389 117.191H162.078C163.284 117.191 164.732 116.949 164.732 115.26C164.732 114.537 164.491 114.054 164.249 113.813C164.491 114.054 164.732 114.537 164.732 115.26C164.732 117.191 162.801 117.191 162.078 117.191H160.63C160.389 117.191 159.906 117.191 159.906 116.467V110.194C159.906 109.711 160.147 109.47 160.389 109.47H161.836C162.801 109.47 164.249 109.47 164.249 111.159C164.249 111.4 164.249 111.883 164.008 112.124C164.249 111.883 164.249 111.641 164.249 110.917C164.249 109.47 163.043 109.229 161.836 109.229H160.389V109.47ZM160.389 116.467C160.389 116.467 160.63 116.467 160.389 116.467H161.836C162.801 116.467 164.008 116.467 164.008 115.26C164.008 114.054 163.043 113.813 162.078 113.813H160.389V116.467ZM162.078 113.089C162.319 113.089 162.319 113.089 162.56 113.089L162.801 112.848C162.801 113.089 162.56 113.089 162.078 113.089ZM160.389 112.606H161.836C162.56 112.606 163.525 112.365 163.525 111.4C163.525 110.435 162.801 110.194 161.595 110.194H160.63V112.606H160.389Z" fill="black"></path><path d="M172.212 108.988C174.625 108.988 176.556 110.677 176.556 113.331C176.556 115.744 174.625 117.674 172.212 117.674C169.799 117.674 167.869 115.985 167.869 113.331C168.11 110.677 169.799 108.988 172.212 108.988ZM172.212 116.95C174.143 116.95 175.832 115.261 175.832 113.331C175.832 111.401 174.384 109.712 172.212 109.712C170.282 109.712 168.593 111.401 168.593 113.331C168.834 115.261 170.282 116.95 172.212 116.95Z" fill="black"></path><path d="M172.212 117.915C169.557 117.915 167.627 115.984 167.627 113.33C167.627 110.676 169.557 108.746 172.212 108.746C174.866 108.746 176.796 110.676 176.796 113.33C177.037 115.984 174.866 117.915 172.212 117.915ZM172.212 109.229C169.799 109.229 168.11 110.917 168.11 113.33C168.11 115.502 169.799 117.432 172.212 117.432C174.624 117.432 176.314 115.743 176.314 113.33C176.314 110.917 174.624 109.229 172.212 109.229ZM172.212 117.191C170.04 117.191 168.351 115.502 168.351 113.33C168.351 111.159 170.04 109.229 172.212 109.229C174.383 109.229 176.072 110.917 176.072 113.33C176.314 115.502 174.624 117.191 172.212 117.191ZM172.212 109.952C170.281 109.952 168.833 111.4 168.833 113.33C168.833 115.26 170.281 116.708 172.212 116.708C174.142 116.708 175.59 115.26 175.59 113.33C175.59 111.4 174.142 109.952 172.212 109.952Z" fill="black"></path><path d="M180.175 109.229C180.175 108.987 180.416 108.987 180.416 108.987C180.657 108.987 180.657 108.987 180.657 109.229V113.813C180.657 115.019 180.657 116.949 183.311 116.949C185.965 116.949 185.966 115.019 185.966 113.813V109.229C185.966 108.987 186.207 108.987 186.207 108.987C186.448 108.987 186.448 108.987 186.448 109.229V113.813C186.448 115.019 186.448 117.673 183.07 117.673C179.692 117.673 179.692 115.26 179.692 113.813V109.229H180.175Z" fill="black"></path><path d="M183.553 117.914C179.934 117.914 179.934 115.019 179.934 113.813V109.229C179.934 108.746 180.175 108.505 180.658 108.505C181.141 108.505 181.382 108.746 181.382 109.229V113.813C181.382 115.26 181.623 116.708 183.795 116.708C185.966 116.708 186.208 115.26 186.208 113.813V109.229C186.208 108.746 186.449 108.505 186.932 108.505C187.414 108.505 187.655 108.746 187.655 109.229V113.813C187.173 115.019 187.173 117.914 183.553 117.914ZM180.417 109.229V113.813C180.417 115.502 180.899 117.191 183.553 117.191C186.208 117.191 186.69 115.502 186.69 113.813V109.229V113.813C186.69 115.019 186.69 117.191 183.553 117.191C180.417 117.191 180.417 114.778 180.417 113.813V109.229Z" fill="black"></path><path d="M193.687 117.191C193.687 117.432 193.446 117.432 193.446 117.432C193.204 117.432 193.204 117.432 193.204 117.191V109.711H190.55C190.309 109.711 190.309 109.47 190.309 109.47C190.309 109.229 190.309 109.229 190.55 109.229H196.582C196.824 109.229 196.824 109.47 196.824 109.47C196.824 109.711 196.824 109.711 196.582 109.711H193.928V117.191H193.687Z" fill="black"></path><path d="M193.446 117.914C192.963 117.914 192.722 117.673 192.722 117.191V109.952H190.309C190.068 109.952 189.585 109.711 189.585 109.229C189.585 108.746 189.826 108.505 190.309 108.505H196.341C196.824 108.505 197.065 108.746 197.065 109.229C197.065 109.47 196.824 109.952 196.341 109.952H193.928V117.191C193.928 117.673 193.687 117.914 193.446 117.914ZM190.309 109.47H193.204V117.191V109.47H196.1H190.309Z" fill="black"></path><path d="M145.911 144.696C146.393 144.937 146.876 144.937 147.359 144.937C148.324 144.937 149.53 144.455 149.53 143.249C149.53 142.042 148.565 141.801 147.841 141.56C146.876 141.318 145.67 140.836 145.67 139.388C145.67 138.182 146.635 137.217 148.083 137.217C148.565 137.217 149.048 137.458 149.53 137.458C149.53 137.458 149.772 137.458 149.772 137.699C149.772 137.94 149.53 137.94 149.53 137.94H149.289C149.048 137.94 148.565 137.699 148.083 137.699C146.876 137.699 146.393 138.423 146.393 139.388C146.393 140.353 147.359 140.836 148.083 141.077C149.048 141.56 150.254 141.801 150.254 143.49C150.254 144.937 149.048 145.903 147.359 145.903C146.393 145.903 145.67 145.661 145.428 145.42C145.187 145.42 145.187 145.179 145.187 145.179C145.187 144.937 145.428 144.937 145.428 144.937C145.67 144.696 145.911 144.696 145.911 144.696Z" fill="black"></path><path d="M147.6 146.144C146.635 146.144 145.911 145.903 145.67 145.661C145.428 145.661 145.187 145.42 145.187 144.937C145.187 144.696 145.428 144.214 145.911 144.214C145.911 144.214 146.152 144.214 146.393 144.455C146.876 144.696 147.359 144.696 147.841 144.696C148.324 144.696 149.772 144.696 149.772 143.249C149.772 142.283 149.048 142.042 148.082 141.801C147.117 141.56 145.67 140.836 145.67 139.388C145.67 138.182 146.635 136.734 148.324 136.734C148.806 136.734 149.53 136.975 150.013 137.217C150.254 137.458 150.495 137.458 150.495 137.699C150.495 137.94 150.254 138.423 149.772 138.423C149.53 138.423 149.53 138.423 149.289 138.182C149.048 138.182 148.806 137.94 148.324 137.94C147.359 137.94 146.876 138.664 146.876 139.147C146.876 139.871 147.359 140.112 148.565 140.594C149.53 141.077 150.978 141.56 150.978 143.249C150.737 144.937 149.53 146.144 147.6 146.144ZM145.67 144.937C146.152 145.179 146.635 145.42 147.6 145.42C148.806 145.42 150.013 144.937 150.013 143.49C150.013 142.042 149.048 141.801 148.082 141.318C147.117 141.077 146.152 140.594 146.152 139.388C146.152 138.423 146.876 137.458 148.082 137.458C148.565 137.458 149.048 137.699 149.289 137.699H149.53C149.048 137.458 148.565 137.458 148.082 137.458C146.876 137.458 145.911 138.182 145.911 139.388C145.911 140.594 146.876 141.077 147.841 141.318C148.806 141.56 149.772 142.042 149.772 143.49C149.772 144.937 148.565 145.42 147.359 145.42C146.876 145.42 146.152 145.179 145.67 144.937V144.937Z" fill="black"></path><path d="M158.217 141.077C158.458 141.077 158.458 141.318 158.458 141.318C158.458 141.56 158.458 141.56 158.217 141.56H154.597V144.455C154.597 144.696 154.839 144.937 155.08 144.937H158.699C158.941 144.937 158.941 145.179 158.941 145.179C158.941 145.42 158.941 145.42 158.699 145.42H154.839C153.874 145.42 153.874 144.696 153.874 144.455V138.182C153.874 137.94 153.874 137.217 154.839 137.217H158.458C158.699 137.217 158.699 137.458 158.699 137.458C158.699 137.699 158.699 137.699 158.458 137.699H154.839C154.597 137.699 154.356 137.699 154.356 138.182V140.836H158.217V141.077Z" fill="black"></path><path d="M158.7 145.903H154.839C154.115 145.903 153.632 145.42 153.632 144.455V138.182C153.632 137.217 154.115 136.734 154.839 136.734H158.458C158.941 136.734 159.182 136.975 159.182 137.458C159.182 137.699 158.941 138.182 158.458 138.182H154.839V140.594H158.217C158.699 140.594 158.7 140.836 158.7 141.318C158.7 141.801 158.458 142.042 158.217 142.042H154.839V144.696H158.458C158.941 144.696 159.182 144.937 159.182 145.42C159.182 145.661 158.941 145.903 158.7 145.903ZM154.839 137.699C154.356 137.699 154.115 137.94 154.115 138.423V144.696C154.115 145.179 154.115 145.42 154.839 145.42H158.7H155.08C154.839 145.42 154.356 145.42 154.356 144.696V141.56H158.217H154.356V138.664C154.356 137.699 154.598 137.699 154.839 137.699H158.458H154.839Z" fill="black"></path><path d="M167.145 145.179C167.145 145.42 167.386 145.42 167.386 145.42C167.386 145.661 167.145 145.661 167.145 145.661C166.904 145.661 166.904 145.661 166.904 145.42L164.008 141.801H163.043V145.42C163.043 145.661 162.802 145.661 162.802 145.661C162.561 145.661 162.561 145.661 162.561 145.42V138.423C162.561 138.182 162.561 137.458 163.526 137.458H164.974C166.663 137.458 167.386 138.423 167.386 139.629C167.386 140.595 166.904 141.801 164.974 141.801L167.145 145.179ZM164.25 141.077C164.732 141.077 166.421 141.077 166.421 139.388C166.421 137.699 164.974 137.699 164.25 137.699H163.284C163.043 137.699 162.802 137.699 162.802 138.182V141.077H164.25Z" fill="black"></path><path d="M167.145 146.144C166.904 146.144 166.662 145.903 166.662 145.903L164.008 142.283H163.525V145.661C163.525 146.144 163.284 146.385 162.801 146.385C162.319 146.385 162.078 146.144 162.078 145.661V138.664C162.078 137.699 162.56 137.217 163.284 137.217H164.732C166.662 137.217 167.386 138.423 167.386 139.871C167.386 141.077 166.903 142.042 165.214 142.283L167.386 145.179L167.145 145.42L167.386 145.179C167.386 145.42 167.627 145.42 167.627 145.661C167.627 145.903 167.386 146.144 167.145 146.144ZM162.56 141.56H164.008L166.904 145.42C166.904 145.42 166.904 145.42 166.904 145.179L167.145 144.937L166.904 145.179L164.008 141.318H164.491C166.421 141.318 166.662 139.871 166.662 139.388C166.662 138.182 165.938 137.458 164.491 137.458H163.043C162.56 137.458 162.319 137.699 162.319 138.182V145.179V141.56H162.56ZM164.249 141.56H162.56V138.423C162.56 137.699 163.043 137.699 163.284 137.699H164.249C164.732 137.699 166.662 137.699 166.662 139.629C166.662 140.836 165.938 141.56 164.249 141.56ZM163.284 140.836H164.491C165.456 140.836 166.421 140.594 166.421 139.388C166.421 138.182 165.456 138.182 164.491 138.182H163.525V140.836H163.284Z" fill="black"></path><path d="M176.556 137.458C176.556 137.458 176.556 137.217 176.797 137.217C177.039 137.217 177.28 137.458 177.28 137.458V137.699L174.143 145.42C174.143 145.661 173.902 145.903 173.66 145.903C173.419 145.903 173.178 145.661 173.178 145.42L170.041 137.699V137.458C170.041 137.217 170.282 137.217 170.524 137.217C170.765 137.217 170.765 137.217 170.765 137.458L173.902 145.179L176.556 137.458Z" fill="black"></path><path d="M173.66 146.144C173.177 146.144 172.936 145.661 172.936 145.661L169.799 137.94C169.799 137.94 169.799 137.699 169.799 137.458C169.799 136.975 170.041 136.734 170.523 136.734C171.006 136.734 171.006 136.975 171.006 137.217L173.66 144.214L176.314 137.217H176.556L176.314 136.975C176.314 136.975 176.556 136.493 176.797 136.493C177.038 136.493 177.521 136.734 177.521 137.217C177.521 137.458 177.521 137.458 177.521 137.699L174.384 145.42C174.384 145.661 174.143 146.144 173.66 146.144ZM176.556 137.458H176.797L173.66 145.42C173.66 145.42 173.66 145.42 173.901 145.179L177.038 137.458C177.038 137.458 177.038 137.458 177.038 137.217L176.556 137.458ZM170.282 137.458L173.419 145.179C173.419 145.179 173.419 145.42 173.66 145.42L170.282 137.458Z" fill="black"></path><path d="M180.658 137.458C180.658 137.217 180.899 136.975 180.899 136.975C181.14 136.975 181.14 137.217 181.14 137.458V145.42C181.14 145.661 180.899 145.903 180.899 145.903C180.658 145.903 180.658 145.661 180.658 145.42V137.458Z" fill="black"></path><path d="M180.899 146.144C180.416 146.144 180.175 145.903 180.175 145.42V137.458C180.175 136.975 180.416 136.734 180.899 136.734C181.381 136.734 181.622 136.975 181.622 137.458V145.42C181.622 145.903 181.381 146.144 180.899 146.144ZM180.899 137.458V145.42V137.458Z" fill="black"></path><path d="M185 141.56C185 139.147 186.69 137.217 189.344 137.217C190.309 137.217 191.033 137.458 191.515 137.699C191.757 137.699 191.757 137.94 191.757 137.94C191.757 138.182 191.515 138.182 191.515 138.182C191.515 138.182 191.274 138.182 191.274 137.94C190.55 137.458 189.826 137.458 189.585 137.458C187.413 137.458 185.966 139.147 185.966 141.077C185.966 142.766 187.172 144.696 189.826 144.696C190.55 144.696 191.033 144.455 191.515 144.455C191.515 144.455 191.757 144.214 191.998 144.214C191.998 144.214 192.239 144.214 192.239 144.455C192.239 144.696 191.998 144.696 191.998 144.696C191.274 145.179 190.309 145.179 189.585 145.179C186.69 145.661 185 143.731 185 141.56Z" fill="black"></path><path d="M189.343 146.144C186.448 146.144 184.518 144.214 184.518 141.56C184.518 138.906 186.448 136.975 189.102 136.975C190.067 136.975 190.791 137.217 191.515 137.458C191.756 137.699 191.998 137.699 191.998 137.94C191.998 138.182 191.756 138.664 191.274 138.664C191.033 138.664 191.033 138.664 190.791 138.423C190.309 138.182 189.585 137.94 189.102 137.94C187.172 137.94 185.724 139.388 185.724 141.318C185.724 143.007 186.689 144.696 189.102 144.696C189.826 144.696 190.309 144.455 190.791 144.455C191.274 144.214 191.274 144.214 191.274 144.214C191.515 144.214 191.756 144.455 191.756 144.937C191.756 145.179 191.756 145.42 191.274 145.42C190.791 145.903 189.826 146.144 189.343 146.144ZM189.343 137.458C186.931 137.458 185.242 139.147 185.242 141.56C185.242 143.49 186.448 145.661 189.343 145.661C189.826 145.661 190.791 145.661 191.515 145.179H191.274C190.791 145.42 190.309 145.661 189.343 145.661C186.448 145.661 185.242 143.49 185.242 141.801C185.483 139.147 187.172 137.458 189.343 137.458C189.826 137.458 190.55 137.458 191.274 137.94C190.791 137.699 190.067 137.458 189.343 137.458Z" fill="black"></path><path d="M199.479 141.077C199.72 141.077 199.72 141.318 199.72 141.318C199.72 141.56 199.72 141.56 199.479 141.56H195.859V144.455C195.859 144.696 196.1 144.937 196.342 144.937H199.961C200.202 144.937 200.202 145.179 200.202 145.179C200.202 145.42 200.202 145.42 199.961 145.42H196.1C195.135 145.42 195.135 144.696 195.135 144.455V138.182C195.135 137.94 195.135 137.217 196.1 137.217H199.72C199.961 137.217 199.961 137.458 199.961 137.458C199.961 137.699 199.961 137.699 199.72 137.699H196.1C195.859 137.699 195.618 137.699 195.618 138.182V140.836H199.479V141.077Z" fill="black"></path><path d="M199.961 145.903H196.101C195.377 145.903 194.894 145.42 194.894 144.455V138.182C194.894 137.217 195.377 136.734 196.101 136.734H199.72C200.203 136.734 200.444 136.975 200.444 137.458C200.444 137.699 200.203 138.182 199.72 138.182H196.101V140.594H199.479C199.961 140.594 199.961 140.836 199.961 141.318C199.961 141.801 199.72 142.042 199.479 142.042H196.101V144.696H199.72C200.203 144.696 200.444 144.937 200.444 145.42C200.685 145.661 200.444 145.903 199.961 145.903ZM196.101 137.699C195.618 137.699 195.377 137.94 195.377 138.423V144.696C195.377 145.179 195.377 145.42 196.101 145.42H199.961H196.342C196.1 145.42 195.618 145.42 195.618 144.696V141.56H199.479H195.618V138.664C195.618 137.699 196.101 137.699 196.101 137.699H199.72H196.101Z" fill="black"></path><path d="M226.503 222.629H9.33809C4.27092 222.629 0.168945 218.527 0.168945 213.46V9.58128C0.168945 4.51447 4.27092 0.412766 9.33809 0.412766H226.503C231.57 0.412766 235.672 4.51447 235.672 9.58128V213.46C235.672 218.527 231.57 222.629 226.503 222.629ZM9.09686 4.99702C6.68392 4.99702 4.75352 6.92723 4.75352 9.34V213.219C4.75352 215.631 6.68392 217.562 9.09686 217.562H226.262C228.674 217.562 230.605 215.631 230.605 213.219V9.58128C230.605 7.16851 228.674 5.2383 226.262 5.2383H9.09686V4.99702Z" fill="black"></path><path d="M77.3833 117.432C77.3833 116.949 77.8659 116.467 78.3485 116.467H113.819C114.301 116.467 114.784 116.949 114.784 117.432C114.784 117.914 114.301 118.397 113.819 118.397H78.3485C77.8659 118.397 77.3833 117.914 77.3833 117.432Z" fill="black"></path><path d="M113.819 119.603H78.3484C77.1419 119.603 76.1768 118.638 76.1768 117.432C76.1768 116.226 77.1419 115.26 78.3484 115.26H113.819C115.025 115.26 115.99 116.226 115.99 117.432C115.99 118.638 115.025 119.603 113.819 119.603Z" fill="black"></path><path d="M84.8634 109.47L86.0698 110.917L79.0723 117.432L86.0698 123.946L84.8634 125.153L76.1768 117.432L84.8634 109.47Z" fill="black"></path><path d="M84.863 127.083L74.4873 117.432L84.863 107.781L87.7585 110.917L81.0023 117.432L87.7585 123.705L84.863 127.083Z" fill="black"></path></svg> 