<?xml version="1.0" encoding="UTF-8"?> <svg xmlns="http://www.w3.org/2000/svg" width="237" height="224" viewBox="0 0 237 224" fill="none"><path d="M232.485 40.7261H3.2041V178.851H232.485V40.7261Z" fill="#C3B68F"></path><path d="M106.477 85.7195C106.477 85.9614 106.235 85.9613 106.235 85.9613C105.994 85.9613 105.994 85.9614 105.994 85.7195V78.2205H103.333C103.091 78.2205 103.091 77.9787 103.091 77.9787C103.091 77.7368 103.091 77.7367 103.333 77.7367H109.38C109.622 77.7367 109.621 77.9787 109.621 77.9787C109.621 78.2206 109.622 78.2205 109.38 78.2205H106.477V85.7195Z" fill="black"></path><path d="M105.994 86.2031C105.51 86.2031 105.268 85.9613 105.268 85.4775V78.2205H102.85C102.366 78.2205 102.124 77.9786 102.124 77.4948C102.124 77.011 102.366 76.7692 102.85 76.7692H108.896C109.38 76.7692 109.622 77.011 109.622 77.4948C109.622 77.7367 109.38 78.2205 108.896 78.2205H106.477V85.4775C106.719 86.2032 106.477 86.2031 105.994 86.2031ZM103.091 77.9787H105.994V85.7194V77.9787H108.896H103.091Z" fill="black"></path><path d="M116.393 77.4948C118.812 77.4948 120.747 79.4299 120.747 81.8489C120.747 84.2679 118.812 86.2031 116.393 86.2031C113.975 86.2031 112.04 84.5098 112.04 81.8489C112.04 79.188 113.975 77.4948 116.393 77.4948ZM116.393 85.4775C118.328 85.4775 120.021 83.7841 120.021 81.8489C120.021 79.9137 118.57 78.2204 116.393 78.2204C114.459 78.2204 112.766 79.9137 112.766 81.8489C113.008 83.7841 114.459 85.4775 116.393 85.4775Z" fill="black"></path><path d="M116.394 86.2031C113.733 86.2031 111.798 84.268 111.798 81.6071C111.798 78.9462 113.733 77.011 116.394 77.011C119.054 77.011 120.989 78.9462 120.989 81.6071C120.989 84.268 119.054 86.2031 116.394 86.2031ZM116.394 77.7367C113.975 77.7367 112.282 79.43 112.282 81.849C112.282 84.268 113.975 85.9613 116.394 85.9613C118.57 85.9613 120.505 84.268 120.505 81.849C120.505 79.43 118.812 77.7367 116.394 77.7367ZM116.394 85.7194C114.217 85.7194 112.524 84.0261 112.524 81.849C112.524 79.6719 114.217 77.9786 116.394 77.9786C118.57 77.9786 120.263 79.6719 120.263 81.849C120.263 84.0261 118.812 85.7194 116.394 85.7194ZM116.394 78.2205C114.459 78.2205 113.008 79.6719 113.008 81.6071C113.008 83.5423 114.459 84.9936 116.394 84.9936C118.328 84.9936 119.78 83.5423 119.78 81.6071C119.78 79.6719 118.328 78.2205 116.394 78.2205Z" fill="black"></path><path d="M124.859 85.7195C124.859 85.9614 124.617 85.9613 124.617 85.9613C124.375 85.9613 124.375 85.9614 124.375 85.7195V78.7043C124.375 78.4624 124.375 77.7367 125.342 77.7367H126.552C127.277 77.7367 127.761 77.7368 128.245 77.9787C129.212 78.4625 129.454 79.6719 129.454 80.1557C129.454 80.8814 129.212 81.849 128.245 82.3328C127.761 82.5747 127.277 82.5747 126.552 82.5747H125.101V85.7195H124.859ZM126.31 81.6072C127.035 81.6072 128.487 81.6071 128.487 79.9138C128.487 78.2206 127.035 78.2205 126.31 78.2205H125.584C125.342 78.2205 125.101 78.2206 125.101 78.7043V81.849H126.31V81.6072Z" fill="black"></path><path d="M124.617 86.2031C124.133 86.2031 123.892 85.9613 123.892 85.4775V78.7044C123.892 77.7368 124.375 77.2531 125.101 77.2531H126.31C127.036 77.2531 127.519 77.2529 128.245 77.7367C129.454 78.4624 129.454 79.6719 129.454 80.1557C129.454 81.3652 128.971 82.0909 128.245 82.5747C127.761 82.8166 127.036 82.8167 126.31 82.8167H125.343V85.9613C125.343 86.2032 124.859 86.2031 124.617 86.2031ZM125.101 77.9787C124.617 77.9787 124.375 78.2206 124.375 78.7044V85.7194V82.091H126.068C126.794 82.091 127.278 82.0909 127.519 81.849C128.245 81.6071 128.487 80.8814 128.487 79.9139C128.487 79.4301 128.245 78.4624 127.519 78.2206C127.036 77.9787 126.552 77.9787 126.068 77.9787H125.101V77.9787ZM126.31 82.091H124.859V78.7044C124.859 77.9787 125.343 77.9787 125.585 77.9787H126.31C127.036 77.9787 128.971 77.9786 128.971 80.1557C128.729 82.0909 127.036 82.091 126.31 82.091ZM125.343 81.3652H126.31C127.278 81.3652 128.245 81.3652 128.245 79.9139C128.245 78.4625 127.278 78.4625 126.31 78.4625H125.585V81.3652H125.343Z" fill="black"></path><path d="M96.5611 111.361L95.5937 113.78C95.5937 114.022 95.5937 114.022 95.3518 114.022C95.11 114.022 94.8682 114.022 94.8682 113.78V113.538L98.0123 105.797C98.0123 105.555 98.2541 105.313 98.496 105.313C98.9797 105.313 98.9797 105.555 98.9797 105.797L101.882 113.538V113.78C101.882 114.022 101.64 114.022 101.398 114.022C101.156 114.022 101.156 113.78 101.156 113.78L100.189 111.361H96.5611ZM100.189 110.877L98.496 106.523L96.803 110.877H100.189Z" fill="black"></path><path d="M101.882 114.505C101.398 114.505 101.398 114.264 101.156 114.022L100.189 111.603H96.8028L95.8354 113.78C95.8354 114.022 95.5935 114.264 95.1098 114.264C94.868 114.264 94.3843 114.022 94.3843 113.538V113.296L97.5284 105.555C97.7702 105.071 98.0121 104.829 98.254 104.829C98.7377 104.829 98.9795 105.071 98.9795 105.555L101.882 113.296C101.882 113.538 101.882 113.538 101.882 113.78C102.366 114.264 102.124 114.505 101.882 114.505ZM96.3191 111.119H100.673L101.64 113.78L98.4959 106.039C98.4959 106.039 98.4959 105.797 98.254 105.797L100.189 111.119H96.3191L98.254 105.797C98.254 105.797 98.254 105.797 98.0121 106.039L94.868 113.78V114.022L96.3191 111.119ZM97.2866 110.635H99.947L98.7377 107.248L97.2866 110.635Z" fill="black"></path><path d="M106.236 114.022C105.269 114.022 105.269 113.296 105.269 113.054V106.765C105.269 106.523 105.269 105.797 106.236 105.797H107.687C108.413 105.797 110.348 105.797 110.348 107.732C110.348 108.942 109.622 109.426 109.138 109.667C109.622 109.909 110.589 110.151 110.589 111.845C110.589 114.022 108.413 114.022 107.687 114.022H106.236V114.022ZM107.929 109.426C108.413 109.426 109.864 109.426 109.864 107.974C109.864 106.523 108.655 106.523 107.687 106.523H106.478C106.236 106.523 105.994 106.523 105.994 107.007V109.667H107.929V109.426ZM105.994 113.054C105.994 113.296 106.236 113.538 106.478 113.538H107.929C108.655 113.538 110.348 113.538 110.348 111.845C110.348 110.151 108.655 110.151 108.171 110.151H106.236V113.054H105.994Z" fill="black"></path><path d="M107.929 114.505H106.236C105.51 114.505 105.026 114.022 105.026 113.054V106.765C105.026 105.797 105.51 105.313 106.236 105.313H107.687C108.412 105.313 110.831 105.313 110.831 107.732C110.831 108.7 110.347 109.184 109.864 109.667C110.347 109.909 111.073 110.635 111.073 111.845C111.073 113.538 110.105 114.505 107.929 114.505ZM106.236 106.039C105.752 106.039 105.51 106.281 105.51 106.765V113.054C105.51 113.538 105.51 113.78 106.236 113.78H107.929C109.138 113.78 110.589 113.538 110.589 111.845C110.589 111.119 110.347 110.635 110.105 110.393C110.347 110.635 110.589 111.119 110.589 111.845C110.589 113.78 108.654 113.78 107.929 113.78H106.478C106.236 113.78 105.752 113.78 105.752 113.054V106.765C105.752 106.281 106.236 106.039 106.236 106.039H107.687C108.654 106.039 110.105 106.039 110.105 107.732C110.105 107.974 110.105 108.458 109.864 108.7C110.105 108.458 110.105 108.216 110.105 107.732C110.105 106.281 108.896 106.039 107.687 106.039H106.236ZM106.478 113.054H107.929C108.896 113.054 110.105 113.054 110.105 111.845C110.105 110.635 109.138 110.393 108.171 110.393H106.478V113.054C106.236 113.054 106.236 113.054 106.478 113.054C106.478 113.054 106.236 113.054 106.478 113.054ZM107.929 109.667C108.171 109.667 108.412 109.667 108.654 109.667L108.896 109.426C108.654 109.668 108.171 109.667 107.929 109.667ZM106.236 109.184H107.687C108.412 109.184 109.38 108.942 109.38 107.974C109.38 107.006 108.654 106.765 107.445 106.765H106.478V109.184H106.236Z" fill="black"></path><path d="M118.328 105.555C120.747 105.555 122.682 107.49 122.682 109.909C122.682 112.328 120.747 114.264 118.328 114.264C115.91 114.264 113.975 112.57 113.975 109.909C113.975 107.248 115.91 105.555 118.328 105.555ZM118.328 113.538C120.263 113.538 121.956 111.845 121.956 109.909C121.956 107.974 120.505 106.281 118.328 106.281C116.394 106.281 114.701 107.974 114.701 109.909C114.701 112.087 116.152 113.538 118.328 113.538Z" fill="black"></path><path d="M118.328 114.505C115.668 114.505 113.733 112.57 113.733 109.909C113.733 107.249 115.668 105.313 118.328 105.313C120.989 105.313 122.923 107.249 122.923 109.909C122.923 112.57 120.747 114.505 118.328 114.505ZM118.328 106.039C115.91 106.039 114.217 107.732 114.217 110.151C114.217 112.57 115.91 114.264 118.328 114.264C120.505 114.264 122.44 112.57 122.44 110.151C122.44 107.732 120.505 106.039 118.328 106.039ZM118.328 114.022C116.151 114.022 114.458 112.328 114.458 110.151C114.458 107.974 116.151 106.281 118.328 106.281C120.505 106.281 122.198 107.974 122.198 110.151C122.198 112.328 120.505 114.022 118.328 114.022ZM118.328 106.523C116.393 106.523 114.942 107.974 114.942 109.909C114.942 111.845 116.393 113.296 118.328 113.296C120.263 113.296 121.714 111.845 121.714 109.909C121.714 107.974 120.021 106.523 118.328 106.523Z" fill="black"></path><path d="M126.068 106.039C126.068 105.797 126.31 105.797 126.31 105.797C126.551 105.797 126.551 105.797 126.551 106.039V110.635C126.551 111.845 126.551 113.78 129.212 113.78C131.872 113.78 131.872 111.845 131.872 110.635V106.039C131.872 105.797 132.114 105.797 132.114 105.797C132.356 105.797 132.356 105.797 132.356 106.039V110.635C132.356 111.845 132.356 114.505 128.97 114.505C125.584 114.505 125.584 112.087 125.584 110.635V106.039H126.068Z" fill="black"></path><path d="M129.454 114.505C125.826 114.505 125.826 111.603 125.826 110.393V105.797C125.826 105.313 126.068 105.071 126.552 105.071C127.035 105.071 127.277 105.313 127.277 105.797V110.393C127.277 111.845 127.519 113.296 129.696 113.296C131.873 113.296 132.114 111.845 132.114 110.393V105.797C132.114 105.313 132.356 105.071 132.84 105.071C133.324 105.071 133.566 105.313 133.566 105.797V110.393C133.082 111.603 133.082 114.505 129.454 114.505ZM126.31 106.039V110.635C126.31 112.328 126.794 114.022 129.454 114.022C132.114 114.022 132.598 112.328 132.598 110.635V106.039V110.635C132.598 111.845 132.598 114.022 129.454 114.022C126.31 114.022 126.31 111.603 126.31 110.635V106.039Z" fill="black"></path><path d="M139.612 114.022C139.612 114.264 139.37 114.264 139.37 114.264C139.128 114.264 139.128 114.264 139.128 114.022V106.523H136.467C136.226 106.523 136.226 106.281 136.226 106.281C136.226 106.039 136.226 106.039 136.467 106.039H142.514C142.756 106.039 142.756 106.281 142.756 106.281C142.756 106.523 142.756 106.523 142.514 106.523H139.853V114.022H139.612Z" fill="black"></path><path d="M139.37 114.505C138.886 114.505 138.644 114.264 138.644 113.78V106.523H136.226C135.742 106.523 135.5 106.281 135.5 105.797C135.5 105.313 135.742 105.071 136.226 105.071H142.272C142.756 105.071 142.998 105.313 142.998 105.797C142.998 106.039 142.756 106.523 142.272 106.523H139.853V113.78C140.095 114.264 139.612 114.505 139.37 114.505ZM136.226 106.039H139.128V113.78V106.039H142.03H136.226Z" fill="black"></path><path d="M91.9663 141.598C92.45 141.84 92.9337 141.84 93.4174 141.84C94.3849 141.84 95.5942 141.356 95.5942 140.147C95.5942 138.937 94.6267 138.695 93.9011 138.212C92.9337 137.97 91.7244 137.486 91.7244 136.035C91.7244 134.825 92.6918 133.857 94.143 133.857C94.6267 133.857 95.1104 134.099 95.5942 134.099C95.5942 134.099 95.836 134.099 95.836 134.341C95.836 134.583 95.5942 134.583 95.5942 134.583H95.3523C95.1104 134.583 94.6267 134.341 94.143 134.341C92.9337 134.341 92.45 135.067 92.45 136.035C92.45 137.002 93.4174 137.486 94.143 137.728C95.1104 137.97 96.3197 138.454 96.3197 140.147C96.3197 141.598 95.1105 142.566 93.4174 142.566C92.45 142.566 91.7244 142.324 91.4825 142.082C91.2407 142.082 91.2407 141.84 91.2407 141.84C91.2407 141.598 91.4825 141.598 91.4825 141.598C91.4825 141.356 91.7244 141.356 91.9663 141.598Z" fill="black"></path><path d="M93.4171 142.808C92.4497 142.808 91.7241 142.566 91.4822 142.324C91.2404 142.082 90.9985 141.84 90.9985 141.598C90.9985 141.356 91.2404 140.873 91.7241 140.873C91.7241 140.873 91.966 140.873 92.2078 141.114C92.6916 141.356 93.1753 141.356 93.659 141.356C93.9009 141.356 95.5939 141.356 95.5939 139.905C95.5939 138.937 95.1101 138.695 93.9008 138.454C92.9334 138.212 91.4822 137.728 91.4822 136.035C91.4822 134.825 92.4497 133.374 94.1427 133.374C94.6264 133.374 95.352 133.615 95.8357 133.857C95.8357 133.857 96.3194 134.099 96.3194 134.341C96.3194 134.583 96.0776 135.067 95.5939 135.067C95.352 135.067 95.352 135.067 95.1101 134.825C94.8682 134.825 94.6264 134.583 94.1427 134.583C93.1752 134.583 92.6915 135.309 92.6915 135.793C92.6915 136.518 93.1752 136.76 94.1427 137.244C95.1101 137.728 96.5613 138.212 96.5613 139.905C96.5613 141.84 95.352 142.808 93.4171 142.808ZM91.4822 141.598C91.4822 141.598 91.4822 141.84 91.4822 141.598C91.9659 141.84 92.4497 142.082 93.4171 142.082C94.6264 142.082 95.8357 141.598 95.8357 140.147C95.8357 138.937 94.8682 138.454 93.9008 137.97C92.9334 137.728 91.966 137.244 91.966 136.035C91.966 135.067 92.6915 134.099 93.9008 134.099C94.3845 134.099 94.8682 134.341 95.1101 134.341C95.352 134.341 95.352 134.341 95.352 134.341C94.8683 134.099 94.3845 134.099 93.9008 134.099C92.4496 134.099 91.7241 135.067 91.7241 136.035C91.7241 137.244 92.6916 137.486 93.659 137.97C94.6264 138.212 95.5939 138.695 95.5939 140.147C95.5939 141.598 94.3846 142.082 93.1753 142.082C92.6915 142.082 91.9659 141.84 91.4822 141.598V141.598C91.4822 141.598 91.4822 141.84 91.4822 141.598Z" fill="black"></path><path d="M104.059 137.728C104.301 137.728 104.301 137.97 104.301 137.97C104.301 138.212 104.301 138.212 104.059 138.212H100.432V141.114C100.432 141.356 100.673 141.598 100.915 141.598H104.543C104.785 141.598 104.785 141.84 104.785 141.84C104.785 142.082 104.785 142.082 104.543 142.082H100.673C99.706 142.082 99.7061 141.356 99.7061 141.114V134.825C99.7061 134.583 99.706 133.857 100.673 133.857H104.301C104.543 133.857 104.543 134.099 104.543 134.099C104.543 134.341 104.543 134.341 104.301 134.341H100.673C100.432 134.341 100.19 134.341 100.19 134.825V137.486H104.059V137.728Z" fill="black"></path><path d="M104.543 142.566H100.673C99.9476 142.566 99.4639 142.082 99.4639 141.114V134.825C99.4639 133.857 99.9476 133.374 100.673 133.374H104.301C104.785 133.374 105.027 133.616 105.027 134.099C105.027 134.341 104.785 134.825 104.301 134.825H100.673V137.244H104.059C104.543 137.244 104.543 137.486 104.543 137.97C104.543 138.453 104.301 138.695 104.059 138.695H100.673V141.356H104.301C104.785 141.356 105.027 141.598 105.027 142.082C105.268 142.324 105.027 142.566 104.543 142.566ZM100.673 134.341C100.189 134.341 99.9475 134.583 99.9475 135.067V141.356C99.9475 141.84 99.9476 142.082 100.673 142.082H104.543H100.915C100.673 142.082 100.189 142.082 100.189 141.356V138.212H104.059H100.189V135.309C100.189 134.583 100.431 134.341 100.673 134.341H104.301H100.673Z" fill="black"></path><path d="M113.25 141.84C113.25 142.082 113.492 142.082 113.492 142.082C113.492 142.324 113.25 142.324 113.25 142.324C113.008 142.324 113.008 142.324 113.008 142.082L110.106 138.454H108.896V142.082C108.896 142.324 108.654 142.324 108.654 142.324C108.413 142.324 108.413 142.324 108.413 142.082V135.067C108.413 134.825 108.413 134.099 109.38 134.099H110.831C112.524 134.099 113.25 135.067 113.25 136.276C113.25 137.244 112.766 138.454 110.831 138.454L113.25 141.84ZM110.348 137.97C110.831 137.97 112.524 137.97 112.524 136.276C112.524 134.583 111.073 134.583 110.348 134.583H109.38C109.138 134.583 108.896 134.583 108.896 135.067V137.97H110.348Z" fill="black"></path><path d="M113.008 142.808C112.766 142.808 112.524 142.566 112.524 142.566L109.864 138.937H109.38V142.324C109.38 142.808 109.138 143.05 108.654 143.05C108.171 143.05 107.929 142.808 107.929 142.324V135.309C107.929 134.341 108.412 133.857 109.138 133.857H110.589C112.524 133.857 113.25 135.067 113.25 136.518C113.25 137.728 112.766 138.695 111.073 138.937L113.25 141.84L113.008 142.082L113.25 141.84C113.25 142.082 113.491 142.082 113.491 142.324C113.491 142.566 113.25 142.808 113.008 142.808ZM108.654 138.212H110.105L113.008 142.082L113.25 141.84L113.008 142.082L110.105 138.212H110.589C112.524 138.212 112.766 136.76 112.766 136.276C112.766 135.067 112.04 134.341 110.589 134.341H109.138C108.654 134.341 108.412 134.583 108.412 135.067V142.082L108.654 138.212ZM110.347 138.212H108.654V135.067C108.654 134.583 108.896 134.341 109.38 134.341H110.347C110.831 134.341 112.766 134.341 112.766 136.276C112.766 137.486 111.798 138.212 110.347 138.212ZM109.138 137.728H110.347C111.315 137.728 112.282 137.486 112.282 136.276C112.282 135.067 111.315 135.067 110.347 135.067H109.38V137.728H109.138Z" fill="black"></path><path d="M122.44 134.099C122.44 134.099 122.44 133.857 122.682 133.857C122.924 133.857 123.165 134.099 123.165 134.099V134.341L120.021 142.082C120.021 142.324 119.779 142.566 119.538 142.566C119.296 142.566 119.054 142.324 119.054 142.082L115.91 134.341V134.099C115.91 133.858 116.152 133.857 116.393 133.857C116.635 133.857 116.635 133.858 116.635 134.099L119.779 141.84L122.44 134.099Z" fill="black"></path><path d="M119.538 142.808C119.054 142.808 118.812 142.324 118.812 142.324L115.668 134.583C115.668 134.583 115.668 134.341 115.668 134.099C115.668 133.616 115.91 133.374 116.394 133.374C116.877 133.374 116.877 133.615 116.877 133.857L119.538 140.873L122.198 133.857L122.44 134.099L122.198 133.857C122.198 133.857 122.44 133.374 122.682 133.374C122.924 133.374 123.407 133.616 123.407 134.099C123.407 134.341 123.407 134.341 123.407 134.583L120.263 142.082C120.263 142.324 120.021 142.808 119.538 142.808ZM122.44 134.099H122.682L119.538 142.082C119.538 142.082 119.538 142.082 119.78 141.84L122.924 134.099C122.924 134.099 122.924 134.099 122.924 133.857L122.44 134.099ZM116.152 134.099C116.152 134.341 116.152 134.341 116.152 134.099L119.296 141.84C119.296 141.84 119.296 142.082 119.538 142.082L116.152 134.099Z" fill="black"></path><path d="M126.552 134.341C126.552 134.099 126.794 134.099 126.794 134.099C127.036 134.099 127.036 134.341 127.036 134.341V142.324C127.036 142.566 126.794 142.566 126.794 142.566C126.552 142.566 126.552 142.324 126.552 142.324V134.341Z" fill="black"></path><path d="M127.036 142.808C126.552 142.808 126.31 142.566 126.31 142.082V134.341C126.31 133.857 126.552 133.616 127.036 133.616C127.519 133.616 127.761 133.857 127.761 134.341V142.324C127.519 142.566 127.277 142.808 127.036 142.808ZM127.036 134.099V142.082V134.099Z" fill="black"></path><path d="M130.905 138.212C130.905 135.793 132.598 133.857 135.259 133.857C136.226 133.857 136.952 134.099 137.435 134.341C137.677 134.341 137.677 134.583 137.677 134.583C137.677 134.825 137.435 134.825 137.435 134.825C137.435 134.825 137.194 134.825 137.194 134.583C136.468 134.099 135.742 134.099 135.501 134.099C133.324 134.099 131.873 135.793 131.873 137.728C131.873 139.421 133.082 141.356 135.742 141.356C136.468 141.356 136.952 141.114 137.435 141.114C137.435 141.114 137.677 140.873 137.919 140.873C137.919 140.873 138.161 140.872 138.161 141.114C138.161 141.356 137.919 141.356 137.919 141.356C137.194 141.84 136.226 141.84 135.501 141.84C132.598 142.566 130.905 140.631 130.905 138.212Z" fill="black"></path><path d="M135.259 142.808C132.356 142.808 130.421 140.872 130.421 138.212C130.421 135.551 132.356 133.616 135.017 133.616C135.984 133.616 136.71 133.857 137.435 134.341C137.677 134.583 137.677 134.825 137.677 134.825C137.677 135.067 137.435 135.551 136.952 135.551C136.71 135.551 136.71 135.551 136.468 135.309C135.742 134.825 135.017 134.825 134.775 134.825C132.84 134.825 131.389 136.276 131.389 138.212C131.389 139.905 132.356 141.598 134.775 141.598C135.5 141.598 135.984 141.356 136.468 141.356C136.71 141.115 136.952 141.114 136.952 141.114C137.193 141.114 137.435 141.356 137.435 141.84C137.435 142.082 137.435 142.324 136.952 142.324C136.952 142.808 135.984 142.808 135.259 142.808ZM135.259 134.099C132.84 134.099 131.147 135.793 131.147 138.212C131.147 140.147 132.356 142.324 135.259 142.324C135.742 142.324 136.71 142.324 137.435 141.84H137.193C137.193 141.84 137.193 141.84 136.952 141.84C136.468 142.082 135.984 142.082 135.017 142.082C132.114 142.082 130.905 139.905 130.905 138.212C131.389 135.793 133.082 134.099 135.259 134.099C135.742 134.099 136.468 134.099 137.193 134.583H137.435C136.71 134.341 135.984 134.099 135.259 134.099Z" fill="black"></path><path d="M145.417 137.728C145.659 137.728 145.659 137.97 145.659 137.97C145.659 138.212 145.659 138.212 145.417 138.212H141.789V141.114C141.789 141.356 142.031 141.598 142.273 141.598H145.901C146.142 141.598 146.142 141.84 146.142 141.84C146.142 142.082 146.142 142.082 145.901 142.082H142.031C141.064 142.082 141.063 141.356 141.063 141.114V134.825C141.063 134.583 141.064 133.857 142.031 133.857H145.659C145.901 133.857 145.901 134.099 145.901 134.099C145.901 134.341 145.901 134.341 145.659 134.341H142.031C141.789 134.341 141.547 134.341 141.547 134.825V137.486H145.417V137.728Z" fill="black"></path><path d="M145.9 142.566H142.031C141.305 142.566 140.821 142.082 140.821 141.114V134.825C140.821 133.857 141.305 133.374 142.031 133.374H145.658C146.142 133.374 146.384 133.616 146.384 134.099C146.384 134.341 146.142 134.825 145.658 134.825H142.031V137.244H145.417C145.9 137.244 145.9 137.486 145.9 137.97C145.9 138.453 145.658 138.695 145.417 138.695H142.031V141.356H145.658C146.142 141.356 146.384 141.598 146.384 142.082C146.626 142.324 146.384 142.566 145.9 142.566ZM142.031 134.341C141.547 134.341 141.305 134.583 141.305 135.067V141.356C141.305 141.84 141.305 142.082 142.031 142.082H145.9H142.272C142.031 142.082 141.547 142.082 141.547 141.356V138.212H145.417H141.547V135.309C141.547 134.583 141.789 134.341 142.031 134.341H145.658H142.031Z" fill="black"></path><path d="M227.406 223.36H9.73401C4.65501 223.36 0.543457 219.248 0.543457 214.168V9.76307C0.543457 4.68318 4.65501 0.570923 9.73401 0.570923H227.406C232.485 0.570923 236.596 4.68318 236.596 9.76307V214.168C236.596 219.248 232.485 223.36 227.406 223.36ZM9.73401 5.40891C7.31544 5.40891 5.38061 7.34408 5.38061 9.76307V214.168C5.38061 216.587 7.31544 218.522 9.73401 218.522H227.406C229.824 218.522 231.759 216.587 231.759 214.168V9.76307C231.759 7.34408 229.824 5.40891 227.406 5.40891H9.73401Z" fill="black"></path><path d="M234.178 174.255H3.2041V179.093H234.178V174.255Z" fill="black"></path><path d="M127.035 194.09H110.347C109.863 194.09 109.379 193.607 109.379 193.123V192.881C109.379 192.397 109.863 191.913 110.347 191.913H127.035C127.519 191.913 128.002 192.397 128.002 192.881V193.123C128.002 193.607 127.519 194.09 127.035 194.09Z" fill="#040000"></path><path d="M127.035 200.38H110.347C109.863 200.38 109.379 199.896 109.379 199.412V199.17C109.379 198.686 109.863 198.203 110.347 198.203H127.035C127.519 198.203 128.002 198.686 128.002 199.17V199.412C128.002 199.896 127.519 200.38 127.035 200.38Z" fill="#040000"></path><path d="M127.035 206.669H110.347C109.863 206.669 109.379 206.185 109.379 205.702V205.46C109.379 204.976 109.863 204.492 110.347 204.492H127.035C127.519 204.492 128.002 204.976 128.002 205.46V205.702C128.002 206.185 127.519 206.669 127.035 206.669Z" fill="#040000"></path><path d="M117.844 19.9227C118.328 19.9227 118.812 20.4064 118.812 20.8902V56.4496C118.812 56.9334 118.328 57.4172 117.844 57.4172C117.361 57.4172 116.877 56.9334 116.877 56.4496V20.8902C116.877 20.4064 117.361 19.9227 117.844 19.9227Z" fill="black"></path><path d="M117.845 58.6267C116.635 58.6267 115.668 57.6591 115.668 56.4496V20.8904C115.668 19.6809 116.635 18.7134 117.845 18.7134C119.054 18.7134 120.021 19.6809 120.021 20.8904V56.4496C120.021 57.6591 119.054 58.6267 117.845 58.6267Z" fill="black"></path><path d="M125.826 27.1798L124.375 28.6311L117.844 21.6162L111.556 28.6311L110.105 27.1798L117.844 18.7134L125.826 27.1798Z" fill="black"></path><path d="M124.375 30.3245L117.845 23.3093L111.556 30.3245L108.412 27.4216L117.845 17.0199L127.519 27.4216L124.375 30.3245Z" fill="black"></path></svg> 