<?xml version="1.0" encoding="UTF-8"?> <svg xmlns="http://www.w3.org/2000/svg" width="236" height="223" viewBox="0 0 236 223" fill="none"><path d="M233.332 9.89232C233.332 6.0319 230.195 3.13658 226.575 3.13658H8.20423C4.34353 3.13658 1.448 6.27317 1.448 9.89232V62.4906C1.448 66.351 2.89576 71.9004 4.82612 75.2783C4.82612 75.2783 39.5725 136.321 120.165 136.321C194.725 136.321 229.471 84.6881 229.471 84.6881C231.643 81.5515 233.332 76.0021 233.332 72.1417V9.89232V9.89232Z" fill="#C3B68F"></path><path d="M119.199 158.277C118.717 158.277 118.234 157.795 118.234 157.312V121.845C118.234 121.362 118.717 120.88 119.199 120.88C119.682 120.88 120.164 121.362 120.164 121.845V157.312C120.164 157.795 119.682 158.277 119.199 158.277Z" fill="black"></path><path d="M119.199 159.484C117.993 159.484 117.028 158.519 117.028 157.312V121.845C117.028 120.638 117.993 119.673 119.199 119.673C120.406 119.673 121.371 120.638 121.371 121.845V157.312C121.371 158.519 120.406 159.484 119.199 159.484Z" fill="black"></path><path d="M111.237 151.039L112.685 149.592L119.2 156.589L125.473 149.592L126.921 151.039L119.2 159.484L111.237 151.039Z" fill="black"></path><path d="M119.199 161.173L109.547 151.039L112.684 147.903L119.199 154.9L125.473 147.903L128.61 151.039L119.199 161.173Z" fill="black"></path><path d="M106.652 42.7059C106.652 42.9472 106.411 42.9472 106.411 42.9472C106.169 42.9472 106.169 42.9472 106.169 42.7059V35.2264H103.515C103.274 35.2264 103.274 34.9851 103.274 34.9851C103.274 34.7438 103.274 34.7438 103.515 34.7438H109.547C109.789 34.7438 109.789 34.9851 109.789 34.9851C109.789 35.2264 109.789 35.2264 109.547 35.2264H106.893V42.7059H106.652Z" fill="black"></path><path d="M106.411 43.4298C105.928 43.4298 105.687 43.1885 105.687 42.706V35.4677H103.274C102.791 35.4677 102.55 35.2264 102.55 34.7438C102.55 34.2613 102.791 34.02 103.274 34.02H109.306C109.789 34.02 110.03 34.2613 110.03 34.7438C110.03 34.9851 109.789 35.4677 109.306 35.4677H106.893V42.706C107.135 43.1885 106.652 43.4298 106.411 43.4298ZM103.274 34.9851H106.169V42.706V34.9851H109.065H103.274Z" fill="black"></path><path d="M116.787 34.5034C119.2 34.5034 121.13 36.1924 121.13 38.8464C121.13 41.2592 119.2 43.1894 116.787 43.1894C114.374 43.1894 112.444 41.5005 112.444 38.8464C112.444 36.1924 114.374 34.5034 116.787 34.5034ZM116.787 42.4656C118.718 42.4656 120.407 40.7766 120.407 38.8464C120.407 36.9162 118.959 35.2273 116.787 35.2273C114.857 35.2273 113.168 36.9162 113.168 38.8464C113.168 40.7766 114.857 42.4656 116.787 42.4656Z" fill="black"></path><path d="M116.786 43.4298C114.132 43.4298 112.202 41.4996 112.202 38.8456C112.202 36.1915 114.132 34.2613 116.786 34.2613C119.44 34.2613 121.371 36.1915 121.371 38.8456C121.371 41.4996 119.44 43.4298 116.786 43.4298ZM116.786 34.7438C114.373 34.7438 112.684 36.4328 112.684 38.8456C112.684 41.017 114.373 42.9473 116.786 42.9473C119.199 42.9473 120.888 41.2583 120.888 38.8456C120.888 36.4328 119.199 34.7438 116.786 34.7438ZM116.786 42.706C114.615 42.706 112.926 41.017 112.926 38.8456C112.926 36.6741 114.615 34.9851 116.786 34.9851C118.958 34.9851 120.647 36.6741 120.647 38.8456C120.647 41.017 118.958 42.706 116.786 42.706ZM116.786 35.4677C114.856 35.4677 113.408 36.9153 113.408 38.8456C113.408 40.7758 114.856 42.2234 116.786 42.2234C118.717 42.2234 120.164 40.7758 120.164 38.8456C120.164 36.9153 118.717 35.4677 116.786 35.4677Z" fill="black"></path><path d="M125.232 42.706C125.232 42.9473 124.991 42.9473 124.991 42.9473C124.75 42.9473 124.75 42.9473 124.75 42.706V35.709C124.75 35.4677 124.75 34.7439 125.715 34.7439H126.921C127.645 34.7439 128.128 34.7439 128.61 34.9851C129.575 35.4677 129.817 36.6741 129.817 37.1566C129.817 37.8805 129.575 38.8456 128.61 39.3281C128.128 39.5694 127.645 39.5694 126.921 39.5694H125.473V42.706H125.232ZM126.439 38.8456C127.162 38.8456 128.61 38.8456 128.61 37.1566C128.61 35.4677 127.162 35.4677 126.439 35.4677H125.715C125.473 35.4677 125.232 35.4677 125.232 35.9502V39.0868H126.439V38.8456Z" fill="black"></path><path d="M124.99 43.4298C124.508 43.4298 124.267 43.1885 124.267 42.706V35.709C124.267 34.7438 124.749 34.2613 125.473 34.2613H126.68C127.403 34.2613 127.886 34.2613 128.61 34.7438C129.816 35.4677 129.816 36.6741 129.816 37.1566C129.816 38.363 129.334 39.0868 128.61 39.5694C128.127 39.8107 127.403 39.8107 126.68 39.8107H125.473V42.9473C125.473 43.1885 125.232 43.4298 124.99 43.4298ZM125.473 34.9851C124.99 34.9851 124.749 35.2264 124.749 35.709V42.706V39.0868H126.438C126.921 39.0868 127.403 39.0868 127.886 38.8456C128.61 38.6043 128.851 37.8804 128.851 36.9153C128.851 36.4328 128.61 35.4677 127.886 35.2264C127.403 34.9851 126.921 34.9851 126.438 34.9851H125.473V34.9851ZM126.438 39.0868H124.99V35.709C124.99 35.2264 125.232 34.9851 125.714 34.9851H126.438C127.162 34.9851 129.092 34.9851 129.092 37.1566C129.092 39.0868 127.403 39.0868 126.438 39.0868ZM125.473 38.363H126.438C127.403 38.363 128.369 38.363 128.369 36.9153C128.369 35.4677 127.403 35.4677 126.438 35.4677H125.714V38.363H125.473Z" fill="black"></path><path d="M97.0003 68.5225L96.0352 70.9353C96.0352 71.1766 96.0352 71.1766 95.7939 71.1766C95.5526 71.1766 95.3113 71.1766 95.3113 70.9353V70.694L98.4481 62.9732C98.4481 62.7319 98.6894 62.4906 98.9307 62.4906C99.4133 62.4906 99.4133 62.7319 99.4133 62.9732L102.309 70.694V70.9353C102.309 71.1766 102.068 71.1766 101.826 71.1766C101.585 71.1766 101.585 70.9353 101.585 70.9353L100.62 68.5225H97.0003ZM100.62 67.7987L98.9307 63.4557L97.2416 67.7987H100.62Z" fill="black"></path><path d="M102.068 71.4179C101.585 71.4179 101.585 71.1766 101.344 70.9353L100.379 68.5226H96.7591L95.794 70.694C95.794 70.9353 95.5527 71.1766 95.0701 71.1766C94.8288 71.1766 94.3462 70.9353 94.3462 70.4528V70.2115L97.483 62.4907C97.7243 62.0081 97.9656 61.7668 98.2069 61.7668C98.6895 61.7668 98.9308 62.0081 98.9308 62.4907L101.826 70.2115C101.826 70.4528 101.826 70.4528 101.826 70.694C102.791 71.1766 102.55 71.4179 102.068 71.4179ZM96.7591 68.04H101.102L102.068 70.694L98.9308 62.9732C98.9308 62.9732 98.9308 62.7319 98.6895 62.7319L100.62 68.04H96.7591L98.6895 62.7319C98.6895 62.7319 98.6895 62.7319 98.4482 62.9732L95.3114 70.694V70.9353L96.7591 68.04ZM97.483 67.5575H100.137L98.9308 64.1796L97.483 67.5575Z" fill="black"></path><path d="M106.652 71.1766C105.687 71.1766 105.687 70.4528 105.687 70.2115V63.9383C105.687 63.697 105.687 62.9732 106.652 62.9732H108.099C108.823 62.9732 110.754 62.9732 110.754 64.9034C110.754 66.1098 110.03 66.5923 109.547 66.8336C110.03 67.0749 110.995 67.3162 110.995 69.0051C110.995 71.1766 108.823 71.1766 108.099 71.1766H106.652ZM108.341 66.3511C108.823 66.3511 110.271 66.3511 110.271 64.9034C110.271 63.4557 109.065 63.4557 108.099 63.4557H106.893C106.652 63.4557 106.41 63.4558 106.41 63.9383V66.5923H108.341V66.3511ZM106.41 69.9702C106.41 70.2115 106.652 70.4528 106.893 70.4528H108.341C109.065 70.4528 110.754 70.4528 110.754 68.7638C110.754 67.0749 109.065 67.0749 108.582 67.0749H106.652V69.9702H106.41Z" fill="black"></path><path d="M108.341 71.4179H106.652C105.928 71.4179 105.445 70.9354 105.445 69.9702V63.6971C105.445 62.7319 105.928 62.2494 106.652 62.2494H108.099C108.823 62.2494 111.236 62.2494 111.236 64.6622C111.236 65.6273 110.754 66.1098 110.271 66.5924C110.754 66.8337 111.477 67.5575 111.477 68.7639C111.477 70.4528 110.512 71.4179 108.341 71.4179ZM106.652 63.2145C106.169 63.2145 105.928 63.4558 105.928 63.9383V69.9702C105.928 70.4528 105.928 70.6941 106.652 70.6941H108.341C109.547 70.6941 110.995 70.4528 110.995 68.7639C110.995 68.04 110.754 67.5575 110.512 67.3162C110.754 67.5575 110.995 68.04 110.995 68.7639C110.995 70.6941 109.064 70.6941 108.341 70.6941H106.893C106.652 70.6941 106.169 70.6941 106.169 69.9702V63.6971C106.169 63.4558 106.41 63.2145 106.652 63.2145H108.099C109.064 63.2145 110.512 63.2145 110.512 64.9034C110.512 65.1447 110.512 65.6273 110.271 65.8685C110.512 65.6273 110.512 65.386 110.512 64.6622C110.512 63.2145 109.306 62.9732 108.099 62.9732H106.652V63.2145ZM106.652 70.2115H108.099C109.064 70.2115 110.271 70.2115 110.271 69.0051C110.271 67.7988 109.306 67.5575 108.341 67.5575H106.652V70.2115C106.652 70.2115 106.652 69.9702 106.652 70.2115ZM108.341 66.8337C108.582 66.8337 108.823 66.8337 108.823 66.8337L109.064 66.5924C108.823 66.5924 108.582 66.8337 108.341 66.8337ZM106.652 66.1098H108.099C108.823 66.1098 109.788 65.8685 109.788 64.9034C109.788 63.9383 109.064 63.6971 107.858 63.6971H106.652V66.1098V66.1098Z" fill="black"></path><path d="M118.475 62.732C120.888 62.732 122.818 64.4209 122.818 67.0749C122.818 69.4877 120.888 71.4179 118.475 71.4179C116.062 71.4179 114.132 69.729 114.132 67.0749C114.373 64.4209 116.062 62.732 118.475 62.732ZM118.475 70.6941C120.405 70.6941 122.095 69.0051 122.095 67.0749C122.095 65.1447 120.647 63.4558 118.475 63.4558C116.545 63.4558 114.856 65.1447 114.856 67.0749C114.856 69.0051 116.545 70.6941 118.475 70.6941Z" fill="black"></path><path d="M118.475 71.4179C115.821 71.4179 113.89 69.4877 113.89 66.8337C113.89 64.1796 115.821 62.2494 118.475 62.2494C121.129 62.2494 123.06 64.1796 123.06 66.8337C123.06 69.4877 121.129 71.4179 118.475 71.4179ZM118.475 62.9732C116.062 62.9732 114.373 64.6622 114.373 67.0749C114.373 69.2464 116.062 71.1766 118.475 71.1766C120.888 71.1766 122.577 69.4877 122.577 67.0749C122.577 64.6622 120.888 62.9732 118.475 62.9732ZM118.475 70.9354C116.303 70.9354 114.614 69.2464 114.614 67.0749C114.614 64.9034 116.303 63.2145 118.475 63.2145C120.647 63.2145 122.336 64.9034 122.336 67.0749C122.336 69.2464 120.647 70.9354 118.475 70.9354ZM118.475 63.4558C116.545 63.4558 115.097 64.9034 115.097 66.8337C115.097 68.7639 116.545 70.2115 118.475 70.2115C120.405 70.2115 121.853 68.7639 121.853 66.8337C121.853 65.1447 120.405 63.4558 118.475 63.4558Z" fill="black"></path><path d="M126.197 62.9732C126.197 62.7319 126.438 62.7319 126.438 62.7319C126.679 62.7319 126.679 62.7319 126.679 62.9732V67.5574C126.679 68.7638 126.679 70.694 129.333 70.694C131.988 70.694 131.988 68.7638 131.988 67.5574V62.9732C132.47 62.7319 132.711 62.7319 132.711 62.7319C132.953 62.7319 132.953 62.7319 132.953 62.9732V67.5574C132.953 68.7638 132.953 71.4179 129.575 71.4179C126.197 71.4179 126.197 69.0051 126.197 67.5574V62.9732V62.9732Z" fill="black"></path><path d="M129.816 71.4179C126.197 71.4179 126.197 68.5226 126.197 67.3162V62.7319C126.197 62.2494 126.438 62.0081 126.92 62.0081C127.403 62.0081 127.644 62.2494 127.644 62.7319V67.5575C127.644 69.0051 127.886 70.4528 130.057 70.4528C132.229 70.4528 132.47 69.0051 132.47 67.5575V62.9732C132.47 62.4907 132.711 62.2494 133.194 62.2494C133.677 62.2494 133.918 62.4907 133.918 62.9732V67.5575C133.435 68.5226 133.435 71.4179 129.816 71.4179ZM126.679 62.9732V67.5575C126.679 69.2464 127.162 70.9353 129.816 70.9353C132.47 70.9353 132.953 69.2464 132.953 67.5575V62.9732V67.5575C132.953 68.7638 132.953 70.9353 129.816 70.9353C126.679 70.9353 126.679 68.5226 126.679 67.5575V62.9732Z" fill="black"></path><path d="M139.95 70.9353C139.95 71.1766 139.709 71.1766 139.709 71.1766C139.468 71.1766 139.468 71.1766 139.468 70.9353V63.4557H136.813C136.572 63.4557 136.572 63.2145 136.572 63.2145C136.572 62.9732 136.572 62.9732 136.813 62.9732H142.846C143.087 62.9732 143.087 63.2145 143.087 63.2145C143.087 63.4558 143.087 63.4557 142.846 63.4557H139.95V70.9353Z" fill="black"></path><path d="M139.709 71.4179C139.227 71.4179 138.985 71.1766 138.985 70.6941V63.4558H136.572C136.09 63.4558 135.848 63.2145 135.848 62.7319C135.848 62.2494 136.09 62.0081 136.572 62.0081H142.605C143.087 62.0081 143.329 62.2494 143.329 62.7319C143.329 62.9732 143.087 63.4558 142.605 63.4558H140.192V70.6941C140.192 71.4179 139.95 71.4179 139.709 71.4179ZM136.572 63.2145H139.468V70.9353V63.2145H142.363H136.572Z" fill="black"></path><path d="M92.1745 98.4408C92.6571 98.6821 93.1397 98.6821 93.6222 98.6821C94.5874 98.6821 95.7939 98.1995 95.7939 96.9932C95.7939 95.7868 94.8287 95.5455 94.1048 95.3042C93.1397 95.0629 91.9332 94.5804 91.9332 93.1327C91.9332 91.9264 92.8984 90.9613 94.3461 90.9613C94.8287 90.9613 95.3113 91.2025 95.7939 91.2025C95.7939 91.2025 96.0352 91.2025 96.0352 91.4438C96.0352 91.6851 95.7939 91.6851 95.7939 91.6851H95.5526C95.3113 91.6851 94.8287 91.4438 94.3461 91.4438C93.1397 91.4438 92.6571 92.1676 92.6571 93.1327C92.6571 94.0978 93.6222 94.5804 94.3461 94.8217C95.3113 95.0629 96.5178 95.5455 96.5178 97.2344C96.5178 98.6821 95.3113 99.6472 93.6222 99.6472C92.6571 99.6472 91.9332 99.4059 91.6919 99.1646C91.6919 98.9234 91.6919 98.6821 91.6919 98.6821C91.6919 98.4408 91.9332 98.4408 91.9332 98.4408C91.9332 98.1995 91.9332 98.4408 92.1745 98.4408Z" fill="black"></path><path d="M93.8634 99.6472C92.8982 99.6472 92.1743 99.4059 91.933 99.1647C91.6917 99.1647 91.4504 98.9234 91.4504 98.4408C91.4504 98.1996 91.6917 97.717 92.1743 97.717C92.1743 97.717 92.4156 97.717 92.6569 97.9583C93.1395 98.1996 93.6221 98.1996 94.1047 98.1996C94.5873 98.1996 96.035 98.1996 96.035 96.7519C96.035 95.7868 95.5524 95.5455 94.346 95.3042C93.3808 95.063 91.933 94.5804 91.933 92.8915C91.933 91.6851 92.8982 90.2374 94.5873 90.2374C95.0699 90.2374 95.7937 90.4787 96.2763 90.72C96.2763 90.72 96.7589 90.9613 96.7589 91.2025C96.7589 91.4438 96.5176 91.9264 96.035 91.9264C95.7937 91.9264 95.7937 91.9264 95.5524 91.6851C95.3111 91.6851 95.0699 91.4438 94.5873 91.4438C93.6221 91.4438 93.1395 92.1677 93.1395 92.6502C93.1395 93.374 93.6221 93.6153 94.5873 94.0979C95.5524 94.5804 97.0002 95.063 97.0002 96.7519C97.0002 98.6821 95.5524 99.6472 93.8634 99.6472ZM91.933 98.6821C92.4156 98.9234 92.8982 99.1647 93.8634 99.1647C95.0699 99.1647 96.2763 98.6821 96.2763 97.2345C96.2763 95.7868 95.3111 95.5455 94.346 95.063C93.3808 94.8217 92.4156 94.3391 92.4156 93.1328C92.4156 92.1676 93.1395 91.2025 94.346 91.2025C94.8286 91.2025 95.3111 91.4438 95.5524 91.4438C95.7937 91.4438 95.7937 91.4438 95.7937 91.4438C95.3111 91.2025 94.8286 91.2025 94.346 91.2025C92.8982 91.2025 92.1743 92.1676 92.1743 93.1328C92.1743 94.3391 93.1395 94.8217 94.1047 95.063C95.0699 95.3042 96.035 95.7868 96.035 97.2345C96.035 98.6821 94.8286 99.1647 93.6221 99.1647C93.1395 99.1647 92.4156 98.9234 91.933 98.6821V98.6821Z" fill="black"></path><path d="M104.481 94.5813C104.723 94.5813 104.723 94.8226 104.723 94.8226C104.723 95.0638 104.723 95.0638 104.481 95.0638H100.862V97.9592C100.862 98.2004 101.103 98.4417 101.344 98.4417H104.964C105.205 98.4417 105.205 98.683 105.205 98.683C105.205 98.9243 105.205 98.9243 104.964 98.9243H101.103C100.138 98.9243 100.138 98.2004 100.138 97.9592V91.686C100.138 91.4447 100.138 90.7209 101.103 90.7209H104.723C104.964 90.7209 104.964 90.9621 104.964 90.9621C104.964 91.2034 104.964 91.2034 104.723 91.2034H101.344C101.103 91.2034 100.862 91.2034 100.862 91.686V94.34H104.481V94.5813Z" fill="black"></path><path d="M104.963 99.6472H101.102C100.378 99.6472 99.8958 99.1647 99.8958 98.1996V91.9264C99.8958 90.9613 100.378 90.4787 101.102 90.4787H104.722C105.204 90.4787 105.446 90.72 105.446 91.2025C105.446 91.4438 105.204 91.9264 104.722 91.9264H101.344V94.3391H104.722C105.204 94.3391 105.204 94.5804 105.204 95.063C105.204 95.5455 104.963 95.7868 104.722 95.7868H101.344V98.4408H104.963C105.446 98.4408 105.687 98.6821 105.687 99.1647C105.446 99.1647 105.204 99.6472 104.963 99.6472ZM101.102 91.2025C100.62 91.2025 100.378 91.4438 100.378 91.9264V98.1996C100.378 98.6821 100.378 98.9234 101.102 98.9234H104.963H101.344C101.102 98.9234 100.62 98.9234 100.62 98.1996V95.063H104.48H100.62V92.1677C100.62 91.4438 100.861 91.2025 101.102 91.2025H104.722H101.102Z" fill="black"></path><path d="M113.408 98.6822C113.408 98.9234 113.649 98.9234 113.649 98.9234C113.649 99.1647 113.408 99.1647 113.408 99.1647C113.167 99.1647 113.167 99.1647 113.167 98.9234L110.271 95.3043H109.306V98.9234C109.306 99.1647 109.065 99.1647 109.065 99.1647C108.823 99.1647 108.823 99.1647 108.823 98.9234V91.9264C108.823 91.6851 108.823 90.9613 109.788 90.9613H110.995C112.684 90.9613 113.408 91.9264 113.408 93.1328C113.408 94.0979 112.925 95.3043 110.995 95.3043L113.408 98.6822ZM110.512 94.8217C110.995 94.8217 112.684 94.8217 112.684 93.1328C112.684 91.4439 111.236 91.4439 110.512 91.4439H109.547C109.306 91.4439 109.065 91.4439 109.065 91.9264V94.8217H110.512Z" fill="black"></path><path d="M113.167 99.6472C112.925 99.6472 112.684 99.406 112.684 99.406L110.03 95.7868H109.547V99.1647C109.547 99.6472 109.306 99.8885 108.823 99.8885C108.341 99.8885 108.1 99.6472 108.1 99.1647V92.1677C108.1 91.2026 108.582 90.72 109.306 90.72H110.995C112.925 90.72 113.649 91.9264 113.649 93.3741C113.649 94.5804 113.167 95.5455 111.478 95.7868L113.649 98.6821H113.408L113.649 98.4409C113.649 98.6821 113.891 98.6821 113.891 98.9234C113.891 99.406 113.649 99.6472 113.167 99.6472ZM108.823 95.063H110.271L113.167 98.9234L113.408 98.6821L113.167 98.9234L110.271 95.063H110.754C112.684 95.063 112.925 93.6153 112.925 93.1328C112.925 91.9264 112.202 91.2026 110.754 91.2026H109.306C108.823 91.2026 108.582 91.4438 108.582 91.9264V98.9234L108.823 95.063ZM110.513 95.063H108.823V91.9264C108.823 91.4438 109.065 91.2026 109.547 91.2026H110.513C110.995 91.2026 112.925 91.2026 112.925 93.1328C112.925 94.5804 112.202 95.063 110.513 95.063ZM109.547 94.5804H110.754C111.719 94.5804 112.684 94.3392 112.684 93.1328C112.684 91.9264 111.719 91.9264 110.754 91.9264H109.789V94.5804H109.547Z" fill="black"></path><path d="M122.819 90.9613C122.819 90.9613 122.819 90.72 123.06 90.72C123.302 90.72 123.543 90.9613 123.543 90.9613V91.2026L120.406 98.9234C120.406 99.1647 120.165 99.406 119.924 99.406C119.682 99.406 119.441 99.1647 119.441 98.9234L116.304 91.2026V90.9613C116.304 90.72 116.545 90.72 116.787 90.72C117.028 90.72 117.028 90.72 117.028 90.9613L120.165 98.6821L122.819 90.9613Z" fill="black"></path><path d="M119.923 99.6473C119.441 99.6473 119.199 99.1647 119.199 99.1647L115.821 91.4439C115.821 91.4439 115.821 91.2026 115.821 90.9613C115.821 90.4788 116.063 90.2375 116.545 90.2375C117.028 90.2375 117.028 90.4788 117.028 90.72L119.682 97.7171L122.336 90.72H122.578L122.336 90.4788C122.336 90.4788 122.578 89.9962 122.819 89.9962C123.06 89.9962 123.543 90.2375 123.543 90.72C123.543 90.9613 123.543 90.9613 123.543 91.2026L120.647 99.1647C120.647 99.1647 120.406 99.6473 119.923 99.6473ZM122.819 90.9613H123.06L119.923 98.9234C119.923 98.9234 119.923 98.9234 120.165 98.6822L123.301 90.9613C123.301 90.9613 123.301 90.9613 123.301 90.72L122.819 90.9613ZM116.545 91.2026L119.682 98.9234C119.682 98.9234 119.682 99.1647 119.923 99.1647L116.545 91.2026Z" fill="black"></path><path d="M126.921 91.2025C126.921 90.9612 127.162 90.9613 127.162 90.9613C127.403 90.9613 127.403 91.2025 127.403 91.2025V98.9234C127.403 99.1647 127.162 99.1647 127.162 99.1647C126.921 99.1647 126.921 98.9234 126.921 98.9234V91.2025Z" fill="black"></path><path d="M127.162 99.6472C126.679 99.6472 126.438 99.4059 126.438 98.9234V90.9613C126.438 90.4787 126.679 90.2374 127.162 90.2374C127.644 90.2374 127.886 90.4787 127.886 90.9613V98.9234C127.886 99.4059 127.644 99.6472 127.162 99.6472ZM127.162 91.2025V99.1647V91.2025Z" fill="black"></path><path d="M131.264 95.063C131.264 92.6502 132.953 90.72 135.607 90.72C136.572 90.72 137.296 90.9613 137.779 91.2026C138.02 91.2026 138.02 91.4438 138.02 91.4438C138.02 91.6851 137.779 91.6851 137.779 91.6851C137.779 91.6851 137.538 91.6851 137.538 91.4438C136.814 90.9613 136.09 90.9613 135.849 90.9613C133.677 90.9613 132.229 92.6502 132.229 94.5804C132.229 96.2694 133.436 98.1996 136.09 98.1996C136.814 98.1996 137.296 97.9583 137.779 97.9583C137.779 97.9583 138.02 97.717 138.261 97.717C138.261 97.717 138.503 97.717 138.503 97.9583C138.503 98.1996 138.261 98.1996 138.261 98.1996C137.538 98.6821 136.572 98.6821 135.849 98.6821C132.712 99.406 131.264 97.4758 131.264 95.063Z" fill="black"></path><path d="M135.607 99.6472C132.711 99.6472 130.781 97.717 130.781 95.063C130.781 92.4089 132.711 90.4787 135.366 90.4787C136.331 90.4787 137.055 90.72 137.779 90.9613C138.02 91.2026 138.02 91.4438 138.02 91.4438C138.02 91.6851 137.779 92.1677 137.296 92.1677C137.055 92.1677 137.055 92.1677 136.813 91.9264C136.572 91.6851 135.848 91.6851 135.607 91.6851C133.677 91.6851 132.229 93.1328 132.229 95.063C132.229 96.7519 133.194 98.4408 135.607 98.4408C136.331 98.4408 136.813 98.1996 137.296 98.1996C137.537 97.9583 137.779 97.9583 137.779 97.9583C138.02 97.9583 138.261 98.1996 138.261 98.6821C138.261 98.9234 138.261 99.1647 137.779 99.1647C137.055 99.6472 136.089 99.6472 135.607 99.6472ZM135.607 91.2025C133.194 91.2025 131.505 92.8915 131.505 95.3043C131.505 97.2345 132.711 99.406 135.607 99.406C136.089 99.406 137.055 99.406 137.779 98.9234H137.537C137.055 99.1647 136.572 99.1647 135.607 99.1647C132.711 99.1647 131.505 96.9932 131.505 95.3043C131.505 92.8915 133.194 91.2025 135.607 91.2025C136.089 91.2025 136.813 91.2026 137.537 91.6851C137.055 91.2026 136.331 91.2025 135.607 91.2025Z" fill="black"></path><path d="M145.742 94.5813C145.984 94.5813 145.984 94.8226 145.984 94.8226C145.984 95.0638 145.984 95.0638 145.742 95.0638H142.123V97.9592C142.123 98.2004 142.364 98.4417 142.606 98.4417H146.225C146.466 98.4417 146.466 98.683 146.466 98.683C146.466 98.9243 146.466 98.9243 146.225 98.9243H142.364C141.399 98.9243 141.399 98.2004 141.399 97.9592V91.686C141.399 91.4447 141.399 90.7209 142.364 90.7209H145.984C146.225 90.7209 146.225 90.9621 146.225 90.9621C146.225 91.2034 146.225 91.2034 145.984 91.2034H142.364C142.123 91.2034 141.882 91.2034 141.882 91.686V94.34H145.742V94.5813Z" fill="black"></path><path d="M146.224 99.6472H142.363C141.64 99.6472 141.157 99.1647 141.157 98.1996V91.9264C141.157 90.9613 141.64 90.4787 142.363 90.4787H145.983C146.465 90.4787 146.707 90.72 146.707 91.2025C146.707 91.4438 146.465 91.9264 145.983 91.9264H142.363V94.3391H145.742C146.224 94.3391 146.224 94.5804 146.224 95.063C146.224 95.5455 145.983 95.7868 145.742 95.7868H142.363V98.4408H145.983C146.465 98.4408 146.707 98.6821 146.707 99.1647C146.948 99.1647 146.707 99.6472 146.224 99.6472ZM142.363 91.2025C141.881 91.2025 141.64 91.4438 141.64 91.9264V98.1996C141.64 98.6821 141.64 98.9234 142.363 98.9234H146.224H142.605C142.363 98.9234 141.881 98.9234 141.881 98.1996V95.063H145.742H141.881V92.1677C141.881 91.4438 142.122 91.2025 142.363 91.2025H145.983H142.363Z" fill="black"></path><path d="M226.576 222.216H9.411C4.34382 222.216 0.241817 218.114 0.241817 213.047V9.16851C0.000522808 4.1017 4.10252 0 9.1697 0H226.334C231.402 0 235.504 4.1017 235.504 9.16851V213.047C235.745 218.114 231.643 222.216 226.576 222.216ZM9.1697 4.82553C6.75676 4.82553 4.82641 6.75574 4.82641 9.16851V213.047C4.82641 215.46 6.75676 217.39 9.1697 217.39H226.334C228.747 217.39 230.678 215.46 230.678 213.047V9.16851C230.678 6.75574 228.747 4.82553 226.334 4.82553H9.1697V4.82553Z" fill="black"></path></svg> 