<?xml version="1.0" encoding="UTF-8"?> <svg xmlns="http://www.w3.org/2000/svg" width="237" height="223" viewBox="0 0 237 223" fill="none"><path d="M3.06738 143.56C3.06738 147.42 6.20421 150.798 9.82362 151.28C9.82362 151.28 80.5228 161.655 120.336 103.266C151.463 57.9064 121.543 8.44462 121.543 8.44462C119.612 5.30802 115.028 2.65399 111.167 2.65399H10.0649C6.20421 2.65399 3.30868 5.79056 3.30868 9.40971V143.56H3.06738Z" fill="#C3B68F"></path><path d="M47.9477 41.2583C47.9477 41.4996 47.7064 41.4996 47.7064 41.4996C47.4651 41.4996 47.4651 41.4996 47.4651 41.2583V33.7788H44.8109C44.5696 33.7788 44.5696 33.5375 44.5696 33.5375C44.5696 33.2962 44.5696 33.2963 44.8109 33.2963H50.8432C51.0845 33.2963 51.0845 33.5375 51.0845 33.5375C51.0845 33.7788 51.0845 33.7788 50.8432 33.7788H48.189V41.2583H47.9477Z" fill="black"></path><path d="M47.4652 41.9821C46.9826 41.9821 46.7413 41.7408 46.7413 41.2583V34.02H44.3284C43.8458 34.02 43.6045 33.7788 43.6045 33.2963C43.6045 32.8137 43.8458 32.5724 44.3284 32.5724H50.3607C50.8433 32.5724 51.0846 32.8137 51.0846 33.2963C51.0846 33.5375 50.8433 34.02 50.3607 34.02H47.9478V41.2583C48.1891 41.7408 47.9478 41.9821 47.4652 41.9821ZM44.5697 33.5375H47.4652V41.2583V33.5375H50.3607H44.5697Z" fill="black"></path><path d="M58.083 33.0558C60.496 33.0558 62.4263 34.7447 62.4263 37.3987C62.4263 39.8115 60.496 41.7418 58.083 41.7418C55.6701 41.7418 53.7397 40.0528 53.7397 37.3987C53.7397 34.7447 55.6701 33.0558 58.083 33.0558ZM58.083 41.0179C60.0134 41.0179 61.7025 39.3289 61.7025 37.3987C61.7025 35.4685 60.2547 33.7796 58.083 33.7796C56.1527 33.7796 54.4636 35.4685 54.4636 37.3987C54.4636 39.3289 55.9114 41.0179 58.083 41.0179Z" fill="black"></path><path d="M58.0821 41.9821C55.4279 41.9821 53.4976 40.0519 53.4976 37.3978C53.4976 34.7438 55.4279 32.8136 58.0821 32.8136C60.7364 32.8136 62.6667 34.7438 62.6667 37.3978C62.6667 39.8106 60.4951 41.9821 58.0821 41.9821ZM58.0821 33.2962C55.6692 33.2962 53.9801 34.9851 53.9801 37.3978C53.9801 39.5693 55.6692 41.4995 58.0821 41.4995C60.4951 41.4995 62.1841 39.8106 62.1841 37.3978C61.9429 34.9851 60.2538 33.2962 58.0821 33.2962ZM58.0821 41.2583C55.9105 41.2583 54.2214 39.5693 54.2214 37.3978C54.2214 35.2263 55.9105 33.5374 58.0821 33.5374C60.2538 33.5374 61.9429 35.2263 61.9429 37.3978C61.9429 39.5693 60.2538 41.2583 58.0821 41.2583ZM58.0821 34.02C56.1518 34.02 54.704 35.4676 54.704 37.3978C54.704 39.328 56.1518 40.7757 58.0821 40.7757C60.0125 40.7757 61.4603 39.328 61.4603 37.3978C61.219 35.4676 59.7712 34.02 58.0821 34.02Z" fill="black"></path><path d="M66.5273 41.2582C66.5273 41.4995 66.286 41.4995 66.286 41.4995C66.0447 41.4995 66.0447 41.4995 66.0447 41.2582V34.2612C66.0447 34.02 66.0447 33.2961 67.0099 33.2961H68.2163C68.9402 33.2961 69.4228 33.2961 69.9054 33.5374C70.8706 34.0199 71.1118 35.2264 71.1118 35.7089C71.1118 36.4327 70.8706 37.3978 69.9054 37.8804C69.4228 38.1216 68.9402 38.1217 68.2163 38.1217H66.7686V41.2582H66.5273ZM67.7337 37.3978C68.4576 37.3978 69.9054 37.3978 69.9054 35.7089C69.9054 34.02 68.4576 34.0199 67.7337 34.0199H67.0099C66.7686 34.0199 66.5273 34.02 66.5273 34.5025V37.6391H67.7337V37.3978Z" fill="black"></path><path d="M66.0449 41.9821C65.5623 41.9821 65.321 41.7408 65.321 41.2583V34.2613C65.321 33.2962 65.8036 32.8136 66.5275 32.8136H67.734C68.4579 32.8136 68.9405 32.8136 69.6643 33.2962C70.8708 34.02 70.8708 35.2264 70.8708 35.7089C70.8708 36.9153 70.3882 37.6391 69.6643 38.1217C69.1818 38.363 68.4579 38.3629 67.734 38.3629H66.7688V41.4995C66.7688 41.7408 66.5275 41.9821 66.0449 41.9821ZM66.7688 33.5374C66.2862 33.5374 66.0449 33.7787 66.0449 34.2613V41.2583V37.6391H67.734C68.2166 37.6391 68.6992 37.6391 69.1818 37.3978C69.9056 37.1566 70.1469 36.4328 70.1469 35.4676C70.1469 34.9851 69.9056 34.02 69.1818 33.7787C68.6992 33.5374 68.2166 33.5374 67.734 33.5374H66.7688V33.5374ZM67.734 37.6391H66.2862V34.2613C66.2862 33.7787 66.5275 33.5374 67.0101 33.5374H67.734C68.4579 33.5374 70.3882 33.5375 70.3882 35.7089C70.1469 37.6391 68.4579 37.6391 67.734 37.6391ZM66.7688 36.9153H67.734C68.6992 36.9153 69.6643 36.9153 69.6643 35.4676C69.6643 34.02 68.6992 34.02 67.734 34.02H67.0101V36.9153H66.7688Z" fill="black"></path><path d="M38.0541 67.075L37.0889 69.4878C37.0889 69.7291 37.0889 69.729 36.8476 69.729C36.6063 69.729 36.365 69.7291 36.365 69.4878V69.2465L39.5018 61.5255C39.5018 61.2843 39.7431 61.043 39.9844 61.043C40.467 61.043 40.467 61.2843 40.467 61.5255L43.3625 69.2465V69.4878C43.3625 69.7291 43.1212 69.729 42.8799 69.729C42.6386 69.729 42.6386 69.4878 42.6386 69.4878L41.6735 67.075H38.0541ZM41.6735 66.3511L39.9844 62.0081L38.2953 66.3511H41.6735Z" fill="black"></path><path d="M43.3628 69.9702C42.8802 69.9702 42.8802 69.7289 42.6389 69.4876L41.6737 67.0749H38.0543L37.0891 69.2464C37.0891 69.4876 36.8478 69.7289 36.3652 69.7289C36.1239 69.7289 35.6414 69.4876 35.6414 69.0051V68.7638L38.7782 61.043C39.0195 60.5605 39.2608 60.3192 39.5021 60.3192C39.9847 60.3192 40.2259 60.5605 40.2259 61.043L43.1215 68.7638C43.1215 69.0051 43.1215 69.0051 43.1215 69.2464C44.0867 69.7289 43.6041 69.9702 43.3628 69.9702ZM37.813 66.5923H42.1563L43.1215 69.2464L39.9846 61.5255C39.9846 61.5255 39.9846 61.2842 39.7434 61.2842L41.6737 66.5923H37.813L39.7434 61.2842C39.7434 61.2842 39.7434 61.2843 39.5021 61.5255L36.3652 69.2464V69.4876L37.813 66.5923ZM38.7782 66.1097H41.4324L40.2259 62.7319L38.7782 66.1097Z" fill="black"></path><path d="M47.7061 69.4877C46.741 69.4877 46.741 68.7638 46.741 68.5226V62.2495C46.741 62.0082 46.741 61.2843 47.7061 61.2843H49.1539C49.8778 61.2843 51.8081 61.2843 51.8081 63.2146C51.8081 64.4209 51.0843 64.9035 50.6017 65.1447C51.0843 65.386 52.0494 65.6273 52.0494 67.3162C52.0494 69.4877 49.8778 69.4877 49.1539 69.4877H47.7061ZM49.3952 64.9034C49.8778 64.9034 51.3256 64.9035 51.3256 63.4558C51.3256 62.0082 50.1191 62.0082 49.1539 62.0082H47.9474C47.7061 62.0082 47.4648 62.0081 47.4648 62.4907V65.1447H49.3952V64.9034ZM47.4648 68.5226C47.4648 68.7638 47.7061 69.0052 47.9474 69.0052H49.3952C50.1191 69.0052 51.8081 69.0051 51.8081 67.3162C51.8081 65.6273 50.1191 65.6273 49.6365 65.6273H47.7061V68.5226H47.4648Z" fill="black"></path><path d="M49.395 69.9702H47.706C46.9821 69.9702 46.4995 69.4876 46.4995 68.5225V62.2494C46.4995 61.2843 46.9821 60.8017 47.706 60.8017H49.1537C49.8776 60.8017 52.2906 60.8017 52.2906 63.2145C52.2906 64.1796 51.808 64.6621 51.3254 65.1446C51.808 65.3859 52.5319 66.1097 52.5319 67.3161C52.7732 69.005 51.5667 69.9702 49.395 69.9702ZM47.706 61.5255C47.2234 61.5255 46.9821 61.7668 46.9821 62.2494V68.5225C46.9821 69.005 46.9821 69.2464 47.706 69.2464H49.395C50.6015 69.2464 52.0493 69.005 52.0493 67.3161C52.0493 66.5923 51.808 66.1098 51.5667 65.8685C51.808 66.1098 52.0493 66.5923 52.0493 67.3161C52.0493 69.2463 50.1189 69.2464 49.395 69.2464H47.9473C47.706 69.2464 47.2234 69.2463 47.2234 68.5225V62.2494C47.2234 61.7668 47.4647 61.5255 47.706 61.5255H49.1537C50.1189 61.5255 51.5667 61.5255 51.5667 63.2145C51.5667 63.4557 51.5667 63.9383 51.3254 64.1795C51.5667 63.9383 51.5667 63.697 51.5667 62.9732C51.5667 61.5255 50.3602 61.2842 49.1537 61.2842H47.706V61.5255ZM47.9473 68.7638H49.395C50.3602 68.7638 51.5667 68.7638 51.5667 67.5574C51.5667 66.351 50.6015 66.1097 49.6363 66.1097H47.9473V68.7638C47.9473 68.5225 47.9473 68.5225 47.9473 68.7638ZM49.6363 65.3859C49.8776 65.3859 50.1189 65.3859 50.1189 65.3859L50.3602 65.1446C50.1189 65.1446 49.8776 65.3859 49.6363 65.3859ZM47.9473 64.6621H49.395C50.1189 64.6621 51.0841 64.4209 51.0841 63.4557C51.0841 62.4906 50.3602 62.2494 49.1537 62.2494H47.9473V64.6621Z" fill="black"></path><path d="M59.7718 61.0439C62.1847 61.0439 64.1151 62.7329 64.1151 65.3869C64.1151 67.7997 62.1847 69.7299 59.7718 69.7299C57.3588 69.7299 55.4285 68.041 55.4285 65.3869C55.4285 62.9741 57.3588 61.0439 59.7718 61.0439ZM59.7718 69.2474C61.7021 69.2474 63.3912 67.5585 63.3912 65.6282C63.3912 63.698 61.9434 62.009 59.7718 62.009C57.8414 62.009 56.1524 63.698 56.1524 65.6282C56.1524 67.5585 57.6001 69.2474 59.7718 69.2474Z" fill="black"></path><path d="M59.7709 69.9702C57.1166 69.9702 55.1863 68.04 55.1863 65.3859C55.1863 62.7319 57.1166 60.8017 59.7709 60.8017C62.4251 60.8017 64.3555 62.7319 64.3555 65.3859C64.3555 68.04 62.4251 69.9702 59.7709 69.9702ZM59.7709 61.5255C57.3579 61.5255 55.6689 63.2145 55.6689 65.6272C55.6689 67.7987 57.3579 69.7289 59.7709 69.7289C62.1838 69.7289 63.8729 68.04 63.8729 65.6272C63.6316 63.2145 61.9425 61.5255 59.7709 61.5255ZM59.7709 69.4876C57.5992 69.4876 55.9102 67.7987 55.9102 65.6272C55.9102 63.4557 57.5992 61.7668 59.7709 61.7668C61.9425 61.7668 63.6316 63.4557 63.6316 65.6272C63.6316 67.7987 61.9425 69.4876 59.7709 69.4876ZM59.7709 62.0081C57.8405 62.0081 56.3927 63.4557 56.3927 65.3859C56.3927 67.3161 57.8405 68.7638 59.7709 68.7638C61.7012 68.7638 63.149 67.3161 63.149 65.3859C62.9077 63.4557 61.4599 62.0081 59.7709 62.0081Z" fill="black"></path><path d="M67.4921 61.5255C67.4921 61.2843 67.7334 61.2842 67.7334 61.2842C67.9747 61.2842 67.9747 61.2843 67.9747 61.5255V66.1097C67.9747 67.3161 67.9747 69.2464 70.6289 69.2464C73.2832 69.2464 73.2832 67.3161 73.2832 66.1097V61.5255C73.2832 61.2843 73.5245 61.2842 73.5245 61.2842C73.7657 61.2842 73.7657 61.2843 73.7657 61.5255V66.1097C73.7657 67.3161 73.7657 69.9702 70.3876 69.9702C67.0095 69.9702 67.0095 67.5574 67.0095 66.1097V61.5255H67.4921Z" fill="black"></path><path d="M70.8711 69.9702C67.2517 69.9702 67.2517 67.0749 67.2517 65.8685V61.2842C67.2517 60.8016 67.493 60.5604 67.9756 60.5604C68.4582 60.5604 68.6995 60.8016 68.6995 61.2842V65.8685C68.6995 67.3162 68.9408 68.7638 71.1124 68.7638C73.2841 68.7638 73.5254 67.3162 73.5254 65.8685V61.2842C73.5254 60.8016 73.7667 60.5604 74.2492 60.5604C74.7318 60.5604 74.9731 60.8016 74.9731 61.2842V65.8685C74.7318 67.0749 74.7318 69.9702 70.8711 69.9702ZM67.7343 61.5255V66.1097C67.7343 67.7986 68.2169 69.4876 70.8711 69.4876C73.5254 69.4876 74.0079 67.7986 74.0079 66.1097V61.5255V66.1097C74.0079 67.3161 74.0079 69.4876 70.8711 69.4876C67.7343 69.4876 67.7343 67.0748 67.7343 66.1097V61.5255Z" fill="black"></path><path d="M81.246 69.4877C81.246 69.729 81.0048 69.7289 81.0048 69.7289C80.7635 69.7289 80.7635 69.729 80.7635 69.4877V62.008H78.1092C77.8679 62.008 77.8679 61.7667 77.8679 61.7667C77.8679 61.5255 77.8679 61.5255 78.1092 61.5255H84.1416C84.3829 61.5255 84.3829 61.7667 84.3829 61.7667C84.3829 62.008 84.3829 62.008 84.1416 62.008H81.4873V69.4877H81.246Z" fill="black"></path><path d="M80.7635 69.9702C80.2809 69.9702 80.0397 69.7289 80.0397 69.2464V62.008H77.6267C77.1441 62.008 76.9028 61.7667 76.9028 61.2842C76.9028 60.8016 77.1441 60.5604 77.6267 60.5604H83.6591C84.1417 60.5604 84.3829 60.8016 84.3829 61.2842C84.3829 61.5254 84.1417 62.008 83.6591 62.008H81.2461V69.2464C81.4874 69.7289 81.0048 69.9702 80.7635 69.9702ZM77.868 61.5255H80.7635V69.2464V61.5255H83.6591H77.868Z" fill="black"></path><path d="M33.4702 96.9933C33.9528 97.2345 34.4354 97.2346 34.918 97.2346C35.8832 97.2346 37.0896 96.752 37.0896 95.5456C37.0896 94.3392 36.1245 94.0979 35.4006 93.8566C34.4354 93.6153 33.2289 93.1328 33.2289 91.6851C33.2289 90.4788 34.1941 89.5137 35.6419 89.5137C36.1245 89.5137 36.607 89.755 37.0896 89.755C37.0896 89.755 37.3309 89.755 37.3309 89.9963C37.3309 90.2375 37.0896 90.2375 37.0896 90.2375H36.8483C36.607 90.2375 36.1245 89.9963 35.6419 89.9963C34.4354 89.9963 33.9528 90.72 33.9528 91.6851C33.9528 92.6503 34.918 93.1328 35.6419 93.3741C36.607 93.6154 37.8135 94.0979 37.8135 95.7869C37.8135 97.2345 36.607 98.1996 34.918 98.1996C33.9528 98.1996 33.2289 97.9583 32.9876 97.7171C32.7463 97.7171 32.7463 97.4758 32.7463 97.4758C32.7463 97.2345 32.9876 97.2346 32.9876 97.2346C33.2289 96.752 33.2289 96.752 33.4702 96.9933Z" fill="black"></path><path d="M34.9178 98.1996C33.9526 98.1996 33.2288 97.9583 32.9875 97.7171C32.7462 97.7171 32.5049 97.4758 32.5049 96.9933C32.5049 96.752 32.7462 96.2694 33.2288 96.2694C33.2288 96.2694 33.4701 96.2694 33.7114 96.5107C34.1939 96.752 34.6765 96.752 35.1591 96.752C35.6417 96.752 37.0895 96.752 37.0895 95.3043C37.0895 94.3392 36.6069 94.0979 35.4004 93.8566C34.4352 93.6153 32.9875 93.1328 32.9875 91.4438C32.9875 90.2375 33.9526 88.7899 35.6417 88.7899C36.1243 88.7899 36.8482 89.0311 37.3308 89.2724C37.3308 89.2724 37.8134 89.5137 37.8134 89.7549C37.8134 89.9962 37.5721 90.4788 37.0895 90.4788C36.8482 90.4788 36.8482 90.4787 36.6069 90.2375C36.3656 90.2375 36.1243 89.9962 35.6417 89.9962C34.6765 89.9962 34.1939 90.7201 34.1939 91.2026C34.1939 91.9265 34.6765 92.1677 35.6417 92.6502C36.6069 93.1328 38.0546 93.6154 38.0546 95.3043C38.0546 97.2345 36.8482 98.1996 34.9178 98.1996ZM32.9875 96.9933C32.9875 97.2345 32.9875 97.2345 32.9875 96.9933C33.4701 97.2345 33.9526 97.4758 34.9178 97.4758C36.1243 97.4758 37.3308 96.9932 37.3308 95.5456C37.3308 94.0979 36.3656 93.8567 35.4004 93.3741C34.4352 93.1328 33.4701 92.6502 33.4701 91.4438C33.4701 90.4787 34.1939 89.5137 35.4004 89.5137C35.883 89.5137 36.3656 89.7549 36.6069 89.7549C36.8482 89.7549 36.8482 89.7549 36.8482 89.7549C36.3656 89.5137 35.883 89.5137 35.4004 89.5137C33.9526 89.5137 33.2288 90.4787 33.2288 91.4438C33.2288 92.6502 34.1939 93.1328 35.1591 93.3741C36.1243 93.6154 37.0895 94.0979 37.0895 95.5456C37.0895 96.9932 35.883 97.4758 34.6765 97.4758C34.1939 97.4758 33.4701 97.2345 32.9875 96.9933V96.9933C32.9875 97.2345 33.2288 97.2345 32.9875 96.9933Z" fill="black"></path><path d="M45.5349 93.1328C45.7762 93.1328 45.7762 93.3741 45.7762 93.3741C45.7762 93.6154 45.7762 93.6154 45.5349 93.6154H41.9155V96.5106C41.9155 96.7519 42.1568 96.9932 42.3981 96.9932H46.0175C46.2588 96.9932 46.2588 97.2345 46.2588 97.2345C46.2588 97.4758 46.2588 97.4757 46.0175 97.4757H42.1568C41.1916 97.4757 41.1917 96.7519 41.1917 96.5106V90.2375C41.1917 89.9962 41.1916 89.2724 42.1568 89.2724H45.7762C46.0175 89.2724 46.0175 89.5137 46.0175 89.5137C46.0175 89.755 46.0175 89.755 45.7762 89.755H42.1568C41.9155 89.755 41.6742 89.7549 41.6742 90.2375V92.8915H45.5349V93.1328Z" fill="black"></path><path d="M46.0174 97.9583H42.1567C41.4328 97.9583 40.9502 97.4757 40.9502 96.5106V90.2375C40.9502 89.2723 41.4328 88.7899 42.1567 88.7899H45.7761C46.2587 88.7899 46.5 89.0311 46.5 89.5137C46.5 89.7549 46.2587 90.2375 45.7761 90.2375H42.1567V92.6502H45.5348C46.0174 92.6502 46.0174 92.8915 46.0174 93.3741C46.0174 93.8566 45.7761 94.0979 45.5348 94.0979H42.1567V96.7519H45.7761C46.2587 96.7519 46.5 96.9932 46.5 97.4757C46.7413 97.717 46.5 97.9583 46.0174 97.9583ZM42.1567 89.7549C41.6741 89.7549 41.4328 89.9962 41.4328 90.4787V96.7519C41.4328 97.2345 41.4328 97.4757 42.1567 97.4757H46.0174H42.398C42.1567 97.4757 41.6741 97.4758 41.6741 96.7519V93.6154H45.5348H41.6741V90.72C41.6741 89.9962 41.9154 89.7549 42.1567 89.7549H45.7761H42.1567Z" fill="black"></path><path d="M54.7037 97.2344C54.7037 97.4757 54.945 97.4756 54.945 97.4756C54.945 97.7169 54.7037 97.7169 54.7037 97.7169C54.4624 97.7169 54.4624 97.7169 54.4624 97.4756L51.5669 93.8565H50.6017V97.4756C50.6017 97.7169 50.3604 97.7169 50.3604 97.7169C50.1191 97.7169 50.1191 97.7169 50.1191 97.4756V90.4787C50.1191 90.2374 50.1191 89.5136 51.0843 89.5136H52.5321C54.2211 89.5136 54.945 90.4787 54.945 91.6851C54.945 92.6502 54.4624 93.8565 52.5321 93.8565L54.7037 97.2344ZM51.8082 93.374C52.2908 93.374 53.9798 93.374 53.9798 91.6851C53.9798 89.9961 52.5321 89.9962 51.8082 89.9962H50.843C50.6017 89.9962 50.3604 89.9961 50.3604 90.4787V93.374H51.8082Z" fill="black"></path><path d="M54.4625 98.1996C54.2212 98.1996 53.9799 97.9583 53.9799 97.9583L51.0844 94.3392H50.6018V97.717C50.6018 98.1995 50.3605 98.4409 49.8779 98.4409C49.3953 98.4409 49.1541 98.1995 49.1541 97.717V90.7201C49.1541 89.755 49.6366 89.2724 50.3605 89.2724H51.8083C53.7386 89.2724 54.4625 90.4788 54.4625 91.9264C54.4625 93.1328 53.9799 94.0979 52.2909 94.3392L54.4625 97.2345L54.2212 97.4757L54.4625 97.2345C54.4625 97.4758 54.7038 97.4757 54.7038 97.717C55.1864 97.9583 54.7038 98.1996 54.4625 98.1996ZM50.1192 93.6154H51.567L54.4625 97.4757L54.7038 97.2345L54.4625 97.4757L51.567 93.6154H52.0496C53.9799 93.6154 54.2212 92.1677 54.2212 91.6851C54.2212 90.4788 53.4973 89.755 52.0496 89.755H50.6018C50.1192 89.755 49.8779 89.9962 49.8779 90.4788V97.4757L50.1192 93.6154ZM51.8083 93.6154H50.1192V90.4788C50.1192 89.9962 50.3605 89.755 50.8431 89.755H51.8083C52.2909 89.755 54.2212 89.7549 54.2212 91.6851C54.2212 93.1328 53.256 93.6154 51.8083 93.6154ZM50.6018 93.1328H51.8083C52.7735 93.1328 53.7386 92.8915 53.7386 91.6851C53.7386 90.4788 52.7735 90.4788 51.8083 90.4788H50.8431V93.1328H50.6018Z" fill="black"></path><path d="M64.115 89.5137C64.115 89.5137 64.115 89.2724 64.3563 89.2724C64.5976 89.2724 64.8389 89.5137 64.8389 89.5137V89.755L61.7021 97.4757C61.7021 97.717 61.4608 97.9583 61.2195 97.9583C60.9782 97.9583 60.7369 97.717 60.7369 97.4757L57.6001 89.755V89.5137C57.6001 89.2724 57.8414 89.2724 58.0827 89.2724C58.324 89.2724 58.324 89.2724 58.324 89.5137L61.4608 97.2345L64.115 89.5137Z" fill="black"></path><path d="M60.9779 98.1996C60.4953 98.1996 60.254 97.717 60.254 97.717L57.1172 89.9961C57.1172 89.9961 57.1172 89.7548 57.1172 89.5136C57.1172 89.031 57.3585 88.7898 57.8411 88.7898C58.3237 88.7898 58.3237 89.031 58.3237 89.2723L60.9779 96.2693L63.6321 89.2723H63.8734L63.6321 89.031C63.6321 89.031 63.8734 88.5485 64.1147 88.5485C64.356 88.5485 64.8386 88.7897 64.8386 89.2723C64.8386 89.5135 64.8386 89.5136 64.8386 89.7549L61.7018 97.2345C61.7018 97.717 61.4605 98.1996 60.9779 98.1996ZM64.1147 89.5136H64.356L61.2192 97.4757C61.2192 97.4757 61.2192 97.4758 61.4605 97.2345L64.5973 89.5136C64.5973 89.5136 64.5973 89.5135 64.5973 89.2723L64.1147 89.5136ZM57.5998 89.7549L60.7366 97.4757C60.7366 97.4757 60.7366 97.717 60.9779 97.717L57.5998 89.7549Z" fill="black"></path><path d="M67.9753 89.755C67.9753 89.5137 68.2166 89.5137 68.2166 89.5137C68.4579 89.5137 68.4579 89.755 68.4579 89.755V97.717C68.4579 97.9583 68.2166 97.9583 68.2166 97.9583C67.9753 97.9583 67.9753 97.717 67.9753 97.717V89.755Z" fill="black"></path><path d="M68.4578 98.1996C67.9752 98.1996 67.7339 97.9583 67.7339 97.4758V89.5137C67.7339 89.0311 67.9752 88.7899 68.4578 88.7899C68.9404 88.7899 69.1816 89.0311 69.1816 89.5137V97.4758C68.9404 97.9583 68.6991 98.1996 68.4578 98.1996ZM68.4578 89.5137V97.4758V89.5137Z" fill="black"></path><path d="M72.3191 93.6163C72.3191 91.2035 74.0081 89.2733 76.6624 89.2733C77.6276 89.2733 78.3514 89.5146 78.834 89.7558C79.0753 89.7558 79.0753 89.9971 79.0753 89.9971C79.0753 90.2384 78.834 90.2383 78.834 90.2383C78.834 90.2383 78.5927 90.2384 78.5927 89.9971C77.8689 89.5146 77.145 89.5145 76.9037 89.5145C74.732 89.5145 73.2843 91.2035 73.2843 93.1337C73.2843 94.8226 74.4907 96.7528 77.145 96.7528C77.8689 96.7528 78.3514 96.5115 78.834 96.5115C78.834 96.5115 79.0753 96.2702 79.3166 96.2702C79.3166 96.2702 79.5579 96.2702 79.5579 96.5115C79.5579 96.7528 79.3166 96.7528 79.3166 96.7528C78.5927 97.2354 77.6276 97.2354 76.9037 97.2354C74.0082 97.9592 72.3191 96.029 72.3191 93.6163Z" fill="black"></path><path d="M76.9028 98.1996C74.0073 98.1996 72.0769 96.2694 72.0769 93.6154C72.0769 90.9613 74.0073 89.0311 76.6615 89.0311C77.6267 89.0311 78.3506 89.2724 79.0744 89.5137C79.3157 89.7549 79.3157 89.9962 79.3157 89.9962C79.3157 90.2375 79.0744 90.72 78.5919 90.72C78.3506 90.72 78.3506 90.72 78.1093 90.4787C77.6267 90.2375 76.9028 89.9962 76.4202 89.9962C74.4898 89.9962 73.0421 91.4439 73.0421 93.3741C73.0421 95.063 74.0073 96.752 76.4202 96.752C77.1441 96.752 77.6267 96.5107 78.1093 96.5107C78.3506 96.2694 78.5919 96.2694 78.5919 96.2694C78.8331 96.2694 79.0744 96.5107 79.0744 96.9933C79.0744 97.2345 79.0744 97.4758 78.5919 97.4758C78.3506 98.1996 77.3854 98.1996 76.9028 98.1996ZM76.6615 89.5137C74.2485 89.5137 72.5595 91.2026 72.5595 93.6154C72.5595 95.5456 73.766 97.7171 76.6615 97.7171C77.1441 97.7171 78.1093 97.7171 78.8331 97.2346H78.5919C78.1093 97.4758 77.6267 97.4758 76.6615 97.4758C73.766 97.4758 72.5595 95.3043 72.5595 93.6154C72.8008 91.2026 74.4898 89.7549 76.6615 89.5137C77.1441 89.5137 77.868 89.5137 78.5919 89.9962C78.1093 89.755 77.6267 89.5137 76.6615 89.5137Z" fill="black"></path><path d="M86.7962 93.1328C87.0375 93.1328 87.0375 93.3741 87.0375 93.3741C87.0375 93.6154 87.0375 93.6154 86.7962 93.6154H83.1768V96.5106C83.1768 96.7519 83.4181 96.9932 83.6594 96.9932H87.2788C87.5201 96.9932 87.5201 97.2345 87.5201 97.2345C87.5201 97.4758 87.5201 97.4757 87.2788 97.4757H83.4181C82.4529 97.4757 82.4529 96.7519 82.4529 96.5106V90.2375C82.4529 89.9962 82.4529 89.2724 83.4181 89.2724H87.2788C87.5201 89.2724 87.5201 89.5137 87.5201 89.5137C87.5201 89.755 87.5201 89.755 87.2788 89.755H83.6594C83.4181 89.755 83.1768 89.7549 83.1768 90.2375V92.8915H86.7962V93.1328Z" fill="black"></path><path d="M87.2786 97.9583H83.4179C82.694 97.9583 82.2114 97.4757 82.2114 96.5106V90.2375C82.2114 89.2723 82.694 88.7899 83.4179 88.7899H87.2786C87.7612 88.7899 88.0025 89.0311 88.0025 89.5137C88.0025 89.7549 87.7612 90.2375 87.2786 90.2375H83.6592V92.6502H87.0373C87.5199 92.6502 87.5199 92.8915 87.5199 93.3741C87.5199 93.8566 87.2786 94.0979 87.0373 94.0979H83.6592V96.7519H87.2786C87.7612 96.7519 88.0025 96.9932 88.0025 97.4757C88.0025 97.717 87.7612 97.9583 87.2786 97.9583ZM83.4179 89.7549C82.9353 89.7549 82.694 89.9962 82.694 90.4787V96.7519C82.694 97.2345 82.694 97.4757 83.4179 97.4757H87.2786H83.6592C83.4179 97.4757 82.9353 97.4758 82.9353 96.7519V93.6154H86.796H82.9353V90.72C82.9353 89.9962 83.1766 89.7549 83.4179 89.7549H87.0373H83.4179Z" fill="black"></path><path d="M226.988 222.216H9.82348C4.7563 222.216 0.654297 218.114 0.654297 213.047V9.16855C0.654297 4.10175 4.7563 0 9.82348 0H226.988C232.055 0 236.157 4.10175 236.157 9.16855V213.047C236.157 218.114 232.055 222.216 226.988 222.216ZM9.58218 4.82553C7.16924 4.82553 5.23889 6.75579 5.23889 9.16855V213.047C5.23889 215.46 7.16924 217.39 9.58218 217.39H226.747C229.16 217.39 231.09 215.46 231.09 213.047V9.16855C231.09 6.75579 229.16 4.82553 226.747 4.82553H9.58218Z" fill="black"></path><path d="M136.986 125.705C136.503 126.188 136.021 125.946 135.538 125.705L111.409 99.8884C110.926 99.4059 111.167 98.9234 111.409 98.4408C111.891 97.9583 112.374 98.1996 112.857 98.4408L136.986 124.257C137.469 124.74 137.469 125.222 136.986 125.705Z" fill="black"></path><path d="M136.503 127.153C136.021 127.153 135.297 126.911 134.814 126.429L110.685 100.612C110.202 100.13 109.961 99.6472 110.202 99.1647C110.202 98.6821 110.443 97.9583 110.926 97.717C111.891 96.9932 113.098 96.9932 114.063 97.717L138.192 123.534C138.675 124.016 138.916 124.499 138.675 124.981C138.675 125.464 138.434 126.188 137.951 126.429C137.468 126.911 136.986 127.153 136.503 127.153Z" fill="black"></path><path d="M126.369 125.705V123.775L136.021 124.257L135.779 114.848H137.71L137.951 126.429L126.369 125.705Z" fill="black"></path><path d="M139.157 127.635L124.921 126.67L125.403 122.327L134.573 123.051V113.641H138.916L139.157 127.635Z" fill="black"></path></svg> 