<?xml version="1.0" encoding="UTF-8"?> <svg xmlns="http://www.w3.org/2000/svg" width="307" height="224" viewBox="0 0 307 224" fill="none"><path d="M218.685 82.026C218.202 82.026 217.718 81.5421 217.718 81.0583V28.3243C217.718 27.8405 218.202 27.3567 218.685 27.3567C219.169 27.3567 219.653 27.8405 219.653 28.3243V81.0583C219.653 81.5421 219.169 82.026 218.685 82.026Z" fill="black"></path><path d="M218.685 83.2355C217.476 83.2355 216.508 82.2678 216.508 81.0583V28.3242C216.508 27.1147 217.476 26.1471 218.685 26.1471C219.894 26.1471 220.862 27.1147 220.862 28.3242V81.0583C220.862 82.2678 219.894 83.2355 218.685 83.2355Z" fill="black"></path><path d="M210.704 74.5271L212.155 73.3176L218.685 80.3326L225.215 73.3176L226.424 74.5271L218.685 82.9935L210.704 74.5271Z" fill="black"></path><path d="M218.685 84.9287L209.011 74.5271L212.155 71.6243L218.685 78.3975L224.973 71.6243L228.117 74.5271L218.685 84.9287Z" fill="black"></path><path d="M227.634 91.702H9.96212C4.88311 91.702 0.771484 87.5897 0.771484 82.5098V10.1819C0.771484 5.10201 4.88311 0.989746 9.96212 0.989746H227.634C232.713 0.989746 236.824 5.10201 236.824 10.1819V82.5098C236.824 87.5897 232.713 91.702 227.634 91.702ZM9.72024 5.82773C7.30167 5.82773 5.36676 7.7629 5.36676 10.1819V82.5098C5.36676 84.9288 7.30167 86.864 9.72024 86.864H227.392C229.811 86.864 231.745 84.9288 231.745 82.5098V10.1819C231.745 7.7629 229.811 5.82773 227.392 5.82773H9.72024Z" fill="black"></path><path d="M64.6223 27.5986C64.6223 27.8405 64.3805 27.8405 64.3805 27.8405C64.1386 27.8405 64.1386 27.8405 64.1386 27.5986V20.0997H61.4782C61.2363 20.0997 61.2363 19.8578 61.2363 19.8578C61.2363 19.6159 61.2363 19.6158 61.4782 19.6158H67.5246C67.7665 19.6158 67.7665 19.8578 67.7665 19.8578C67.7665 20.0997 67.7665 20.0997 67.5246 20.0997H64.8642V27.5986H64.6223Z" fill="black"></path><path d="M64.3805 28.3242C63.8968 28.3242 63.6549 28.0823 63.6549 27.5985V20.3416H61.2363C60.7526 20.3416 60.5107 20.0996 60.5107 19.6158C60.5107 19.132 60.7526 18.8901 61.2363 18.8901H67.2828C67.7665 18.8901 68.0084 19.132 68.0084 19.6158C68.0084 19.8577 67.7665 20.3416 67.2828 20.3416H64.8642V27.5985C65.1061 28.0823 64.6224 28.3242 64.3805 28.3242ZM61.4782 19.8577H64.3805V27.5985V19.8577H67.2828H61.4782Z" fill="black"></path><path d="M74.7806 19.3739C77.1992 19.3739 79.134 21.0672 79.134 23.7282C79.134 26.1472 77.1992 28.0823 74.7806 28.0823C72.3621 28.0823 70.4272 26.3891 70.4272 23.7282C70.4272 21.0672 72.3621 19.3739 74.7806 19.3739ZM74.7806 27.3567C76.7155 27.3567 78.4085 25.6634 78.4085 23.7282C78.4085 21.793 76.9574 20.0996 74.7806 20.0996C72.8458 20.0996 71.1528 21.793 71.1528 23.7282C71.1528 25.6634 72.8458 27.3567 74.7806 27.3567Z" fill="black"></path><path d="M74.7803 28.3242C72.1199 28.3242 70.1851 26.389 70.1851 23.7281C70.1851 21.0673 72.1199 19.1321 74.7803 19.1321C77.4408 19.1321 79.3756 21.0673 79.3756 23.7281C79.3756 26.389 77.4408 28.3242 74.7803 28.3242ZM74.7803 19.6158C72.3618 19.6158 70.6687 21.3092 70.6687 23.7281C70.6687 25.9052 72.3618 27.8404 74.7803 27.8404C77.1989 27.8404 78.8919 26.1471 78.8919 23.7281C78.8919 21.3092 77.1989 19.6158 74.7803 19.6158ZM74.7803 27.5986C72.6036 27.5986 70.9106 25.9052 70.9106 23.7281C70.9106 21.5511 72.6036 19.8577 74.7803 19.8577C76.9571 19.8577 78.6501 21.5511 78.6501 23.7281C78.6501 25.9052 76.9571 27.5986 74.7803 27.5986ZM74.7803 20.3416C72.8455 20.3416 71.3943 21.793 71.3943 23.7281C71.3943 25.6633 72.8455 27.1147 74.7803 27.1147C76.7152 27.1147 78.1663 25.6633 78.1663 23.7281C78.1663 21.793 76.7152 20.3416 74.7803 20.3416Z" fill="black"></path><path d="M83.2455 27.5986C83.2455 27.8405 83.0036 27.8405 83.0036 27.8405C82.7617 27.8405 82.7617 27.8405 82.7617 27.5986V20.5835C82.7617 20.3416 82.7618 19.616 83.7292 19.616H84.9385C85.6641 19.616 86.1478 19.616 86.6315 19.8579C87.5989 20.3417 87.8408 21.5511 87.8408 22.0349C87.8408 22.7606 87.5989 23.7282 86.6315 24.212C86.1478 24.4539 85.6641 24.4539 84.9385 24.4539H83.4873V27.5986H83.2455ZM84.4548 23.7282C85.1803 23.7282 86.6315 23.7282 86.6315 22.0349C86.6315 20.3417 85.1803 20.3417 84.4548 20.3417H83.7292C83.4874 20.3417 83.2455 20.3417 83.2455 20.8255V23.9702H84.4548V23.7282Z" fill="black"></path><path d="M83.0034 28.3242C82.5197 28.3242 82.2778 28.0823 82.2778 27.5986V20.5834C82.2778 19.6158 82.7616 19.1321 83.4871 19.1321H84.6964C85.422 19.1321 85.9057 19.132 86.6313 19.6158C87.8406 20.3415 87.8406 21.551 87.8406 22.0348C87.8406 23.2443 87.3569 23.97 86.6313 24.4538C86.1476 24.6957 85.422 24.6957 84.6964 24.6957H83.729V27.8404C83.729 28.0823 83.2452 28.3242 83.0034 28.3242ZM83.4871 19.8577C83.0034 19.8577 82.7615 20.0996 82.7615 20.5834V27.5986V23.9701H84.4546C84.9383 23.9701 85.422 23.97 85.9057 23.7281C86.6313 23.4863 86.8732 22.7605 86.8732 21.7929C86.8732 21.3091 86.6313 20.3416 85.9057 20.0997C85.422 19.8578 84.9383 19.8577 84.4546 19.8577H83.4871V19.8577ZM84.4546 23.9701H83.0034V20.5834C83.0034 20.0996 83.2453 19.8577 83.729 19.8577H84.4546C85.1801 19.8577 87.115 19.8577 87.115 22.0348C87.115 23.97 85.422 23.9701 84.4546 23.9701ZM83.729 23.4862H84.6964C85.6639 23.4862 86.6313 23.4862 86.6313 22.0348C86.6313 20.5834 85.6639 20.5834 84.6964 20.5834H83.9708V23.4862H83.729Z" fill="black"></path><path d="M97.2731 25.1796L96.3056 27.5986C96.3056 27.8405 96.3056 27.8404 96.0638 27.8404C95.8219 27.8404 95.5801 27.8405 95.5801 27.5986V27.3566L98.7242 19.6158C98.7242 19.3739 98.9661 19.1321 99.208 19.1321C99.6917 19.1321 99.6916 19.3739 99.6916 19.6158L102.594 27.3566V27.5986C102.594 27.8405 102.352 27.8404 102.11 27.8404C101.868 27.8404 101.868 27.5986 101.868 27.5986L100.901 25.1796H97.2731ZM101.143 24.6957L99.4498 20.3416L97.7568 24.6957H101.143Z" fill="black"></path><path d="M102.594 28.3243C102.11 28.3243 102.11 28.0824 101.868 27.8405L100.901 25.4215H97.2731L96.3057 27.5986C96.3057 27.8405 96.0638 28.0824 95.5801 28.0824C95.3383 28.0824 94.8545 27.8405 94.8545 27.3567V27.1148L97.9987 19.374C98.2405 18.8902 98.4824 18.6483 98.7242 18.6483C99.2079 18.6483 99.4498 18.8902 99.4498 19.374L102.352 27.1148C102.352 27.3567 102.352 27.3567 102.352 27.5986C103.32 28.0824 103.078 28.3243 102.594 28.3243ZM97.2731 24.9377H101.627L102.594 27.5986L99.4498 19.8578C99.4498 19.8578 99.4498 19.6159 99.208 19.6159L101.143 24.9377H97.2731L99.208 19.6159C99.208 19.6159 99.208 19.6159 98.9661 19.8578L95.822 27.5986V27.8405L97.2731 24.9377ZM97.9987 24.212H100.659L99.4498 20.8254L97.9987 24.212Z" fill="black"></path><path d="M107.189 27.8405C106.222 27.8405 106.222 27.1148 106.222 26.8729V20.5834C106.222 20.3415 106.222 19.6158 107.189 19.6158H108.64C109.366 19.6158 111.301 19.6159 111.301 21.5511C111.301 22.7606 110.575 23.2444 110.091 23.4863C110.575 23.7282 111.543 23.9701 111.543 25.6634C111.543 27.8405 109.366 27.8405 108.64 27.8405H107.189ZM108.64 23.2444C109.124 23.2444 110.575 23.2443 110.575 21.7929C110.575 20.3415 109.366 20.3416 108.398 20.3416H107.189C106.947 20.3416 106.705 20.3415 106.705 20.8253V23.4863H108.64V23.2444ZM106.947 26.8729C106.947 27.1148 107.189 27.3567 107.431 27.3567H108.882C109.608 27.3567 111.301 27.3567 111.301 25.6634C111.301 23.9701 109.608 23.9701 109.124 23.9701H107.189V26.8729H106.947Z" fill="black"></path><path d="M108.641 28.0824H106.948C106.222 28.0824 105.738 27.5986 105.738 26.631V20.3416C105.738 19.374 106.222 18.8901 106.948 18.8901H108.399C109.124 18.8901 111.543 18.8901 111.543 21.3092C111.543 22.2768 111.059 22.7605 110.575 23.2443C111.059 23.4863 111.785 24.2119 111.785 25.4215C112.027 27.3567 110.817 28.0824 108.641 28.0824ZM107.189 19.8577C106.706 19.8577 106.464 20.0996 106.464 20.5834V26.8729C106.464 27.3567 106.464 27.5986 107.189 27.5986H108.882C110.092 27.5986 111.543 27.3567 111.543 25.6634C111.543 24.9377 111.301 24.4538 111.059 24.2119C111.301 24.4538 111.543 24.9377 111.543 25.6634C111.543 27.5986 109.608 27.5986 108.882 27.5986H107.431C107.189 27.5986 106.706 27.5986 106.706 26.8729V20.5834C106.464 20.0996 106.706 19.8577 107.189 19.8577H108.641C109.608 19.8577 111.059 19.8578 111.059 21.5511C111.059 21.793 111.059 22.2768 110.817 22.5187C111.059 22.2768 111.059 22.0349 111.059 21.3092C111.059 19.8577 109.85 19.6158 108.641 19.6158H107.189V19.8577ZM107.189 26.8729H108.641C109.608 26.8729 110.817 26.8729 110.817 25.6634C110.817 24.4539 109.85 24.2119 108.882 24.2119H107.189V26.8729ZM108.882 23.4863C109.124 23.4863 109.366 23.4863 109.366 23.4863L109.608 23.2443C109.366 23.4863 109.124 23.4863 108.882 23.4863ZM107.189 23.0024H108.641C109.366 23.0024 110.334 22.7605 110.334 21.7929C110.334 20.8253 109.608 20.5834 108.399 20.5834H107.189V23.0024Z" fill="black"></path><path d="M119.041 19.3739C121.459 19.3739 123.394 21.0672 123.394 23.7282C123.394 26.1472 121.459 28.0823 119.041 28.0823C116.622 28.0823 114.688 26.3891 114.688 23.7282C114.688 21.0672 116.622 19.3739 119.041 19.3739ZM119.041 27.3567C120.976 27.3567 122.669 25.6634 122.669 23.7282C122.669 21.793 121.218 20.0996 119.041 20.0996C117.106 20.0996 115.413 21.793 115.413 23.7282C115.413 25.6634 117.106 27.3567 119.041 27.3567Z" fill="black"></path><path d="M119.041 28.3242C116.38 28.3242 114.445 26.389 114.445 23.7281C114.445 21.0673 116.38 19.1321 119.041 19.1321C121.701 19.1321 123.636 21.0673 123.636 23.7281C123.636 26.389 121.701 28.3242 119.041 28.3242ZM119.041 19.6158C116.622 19.6158 114.929 21.3092 114.929 23.7281C114.929 25.9052 116.622 27.8404 119.041 27.8404C121.459 27.8404 123.152 26.1471 123.152 23.7281C123.152 21.3092 121.459 19.6158 119.041 19.6158ZM119.041 27.5986C116.864 27.5986 115.171 25.9052 115.171 23.7281C115.171 21.5511 116.864 19.8577 119.041 19.8577C121.217 19.8577 122.91 21.5511 122.91 23.7281C122.91 25.9052 121.217 27.5986 119.041 27.5986ZM119.041 20.3416C117.106 20.3416 115.655 21.793 115.655 23.7281C115.655 25.6633 117.106 27.1147 119.041 27.1147C120.975 27.1147 122.427 25.6633 122.427 23.7281C122.427 21.793 120.975 20.3416 119.041 20.3416Z" fill="black"></path><path d="M126.78 19.6158C126.78 19.3739 127.022 19.3739 127.022 19.3739C127.263 19.3739 127.263 19.3739 127.263 19.6158V24.2119C127.263 25.4214 127.263 27.3566 129.924 27.3566C132.584 27.3566 132.584 25.4214 132.584 24.2119V19.6158C132.584 19.3739 132.826 19.3739 132.826 19.3739C133.068 19.3739 133.068 19.3739 133.068 19.6158V24.2119C133.068 25.4214 133.068 28.0823 129.682 28.0823C126.296 28.0823 126.296 25.6633 126.296 24.2119V19.6158H126.78Z" fill="black"></path><path d="M130.166 28.3242C126.538 28.3242 126.538 25.4214 126.538 24.2119V19.6158C126.538 19.132 126.78 18.8901 127.264 18.8901C127.747 18.8901 127.989 19.132 127.989 19.6158V24.2119C127.989 25.6633 128.231 27.1147 130.408 27.1147C132.585 27.1147 132.826 25.6633 132.826 24.2119V19.6158C132.826 19.132 133.068 18.8901 133.552 18.8901C134.036 18.8901 134.278 19.132 134.278 19.6158V24.2119C134.036 25.4214 134.036 28.3242 130.166 28.3242ZM127.264 19.6158V24.2119C127.264 25.9052 127.747 27.5985 130.408 27.5985C133.068 27.5985 133.552 25.9052 133.552 24.2119V19.6158V24.2119C133.552 25.4214 133.552 27.5985 130.408 27.5985C127.264 27.5985 127.264 25.1795 127.264 24.2119V19.6158Z" fill="black"></path><path d="M140.566 27.5986C140.566 27.8405 140.324 27.8405 140.324 27.8405C140.082 27.8405 140.082 27.8405 140.082 27.5986V20.0997H137.422C137.18 20.0997 137.18 19.8578 137.18 19.8578C137.18 19.6159 137.18 19.6158 137.422 19.6158H143.468C143.71 19.6158 143.71 19.8578 143.71 19.8578C143.71 20.0997 143.71 20.0997 143.468 20.0997H140.808V27.5986H140.566Z" fill="black"></path><path d="M140.082 28.3242C139.598 28.3242 139.357 28.0823 139.357 27.5985V20.3416H136.938C136.454 20.3416 136.212 20.0996 136.212 19.6158C136.212 19.132 136.454 18.8901 136.938 18.8901H142.984C143.468 18.8901 143.71 19.132 143.71 19.6158C143.71 19.8577 143.468 20.3416 142.984 20.3416H140.566V27.5985C140.808 28.0823 140.566 28.3242 140.082 28.3242ZM137.18 19.8577H140.082V27.5985V19.8577H142.984H137.18Z" fill="black"></path><path d="M152.175 27.1147C152.658 27.3566 153.142 27.3566 153.626 27.3566C154.593 27.3566 155.803 26.8728 155.803 25.6633C155.803 24.4538 154.835 24.212 154.11 23.9701C153.142 23.7282 151.933 23.2443 151.933 21.7929C151.933 20.5834 152.9 19.6158 154.351 19.6158C154.835 19.6158 155.319 19.8578 155.803 19.8578C155.803 19.8578 156.045 19.8578 156.045 20.0997C156.045 20.3416 155.803 20.3416 155.803 20.3416H155.561C155.319 20.3416 154.835 20.0997 154.351 20.0997C153.142 20.0997 152.659 20.8253 152.659 21.7929C152.659 22.7605 153.626 23.2443 154.351 23.4862C155.319 23.7281 156.528 24.2119 156.528 25.9052C156.528 27.3566 155.319 28.3242 153.626 28.3242C152.658 28.3242 151.933 28.0823 151.691 27.8404C151.449 27.8404 151.449 27.5986 151.449 27.5986C151.449 27.3567 151.691 27.3566 151.691 27.3566C151.933 26.8728 151.933 26.8728 152.175 27.1147Z" fill="black"></path><path d="M153.868 28.3242C152.9 28.3242 152.175 28.0823 151.933 27.8404C151.691 27.8404 151.449 27.5985 151.449 27.1147C151.449 26.8728 151.691 26.389 152.175 26.389C152.175 26.389 152.417 26.389 152.659 26.6309C153.142 26.8728 153.626 26.8728 154.11 26.8728C154.593 26.8728 156.044 26.8728 156.044 25.4214C156.044 24.4538 155.561 24.2119 154.351 23.97C153.384 23.7281 151.933 23.2444 151.933 21.5511C151.933 20.3416 152.9 18.8901 154.593 18.8901C155.077 18.8901 155.803 19.132 156.286 19.3739C156.286 19.3739 156.77 19.6158 156.77 19.8577C156.77 20.0996 156.528 20.5834 156.044 20.5834C155.803 20.5834 155.803 20.5835 155.561 20.3416C155.319 20.3416 155.077 20.0996 154.593 20.0996C153.626 20.0996 153.142 20.8253 153.142 21.3091C153.142 22.0348 153.626 22.2768 154.593 22.7606C155.561 23.2444 157.012 23.7281 157.012 25.4214C157.012 27.1147 155.561 28.3242 153.868 28.3242ZM151.933 27.1147C151.933 27.1147 151.933 27.3566 151.933 27.1147C152.417 27.3566 152.9 27.5985 153.868 27.5985C155.077 27.5985 156.286 27.1147 156.286 25.6633C156.286 24.2119 155.319 23.97 154.351 23.4862C153.384 23.2443 152.417 22.7606 152.417 21.5511C152.417 20.5835 153.142 19.6158 154.351 19.6158C154.835 19.6158 155.319 19.8577 155.561 19.8577C155.803 19.8577 155.803 19.8577 155.803 19.8577C155.319 19.6158 154.835 19.6158 154.351 19.6158C152.9 19.6158 152.175 20.5835 152.175 21.5511C152.175 22.7606 153.142 23.2443 154.11 23.4862C155.077 23.7281 156.044 24.2119 156.044 25.6633C156.044 27.1147 154.835 27.5985 153.626 27.5985C153.142 27.5985 152.417 27.3566 151.933 27.1147V27.1147Z" fill="black"></path><path d="M164.51 23.2443C164.752 23.2443 164.752 23.4862 164.752 23.4862C164.752 23.7281 164.752 23.7282 164.51 23.7282H160.882V26.6309C160.882 26.8728 161.124 27.1147 161.366 27.1147H164.994C165.236 27.1147 165.236 27.3567 165.236 27.3567C165.236 27.5986 165.236 27.5986 164.994 27.5986H161.124C160.157 27.5986 160.157 26.8728 160.157 26.6309V20.3416C160.157 20.0997 160.157 19.3739 161.124 19.3739H164.752C164.994 19.3739 164.994 19.6158 164.994 19.6158C164.994 19.8577 164.994 19.8577 164.752 19.8577H161.124C160.882 19.8577 160.64 19.8578 160.64 20.3416V23.0024H164.51V23.2443Z" fill="black"></path><path d="M164.993 28.0824H161.124C160.398 28.0824 159.915 27.5986 159.915 26.631V20.3416C159.915 19.374 160.398 18.8901 161.124 18.8901H164.752C165.235 18.8901 165.477 19.132 165.477 19.6158C165.477 19.8577 165.235 20.3416 164.752 20.3416H161.124V22.7606H164.51C164.994 22.7606 164.993 23.0025 164.993 23.4863C164.993 23.9701 164.752 24.2119 164.51 24.2119H161.124V26.8729H164.752C165.235 26.8729 165.477 27.1148 165.477 27.5986C165.477 27.8405 165.235 28.0824 164.993 28.0824ZM161.124 19.8577C160.64 19.8577 160.398 20.0996 160.398 20.5834V26.8729C160.398 27.3567 160.398 27.5986 161.124 27.5986H164.993H161.366C161.124 27.5986 160.64 27.5986 160.64 26.8729V23.4863H164.51H160.64V20.5834C160.64 20.0996 160.882 19.8577 161.124 19.8577H164.752H161.124Z" fill="black"></path><path d="M173.458 27.3567C173.458 27.5986 173.7 27.5986 173.7 27.5986C173.7 27.8405 173.458 27.8405 173.458 27.8405C173.216 27.8405 173.216 27.8405 173.216 27.5986L170.314 23.9702H169.105V27.5986C169.105 27.8405 168.863 27.8405 168.863 27.8405C168.621 27.8405 168.621 27.8405 168.621 27.5986V20.5835C168.621 20.3416 168.621 19.616 169.589 19.616H171.04C172.733 19.616 173.458 20.5835 173.458 21.793C173.458 22.7606 172.975 23.9702 171.04 23.9702L173.458 27.3567ZM170.556 23.4863C171.04 23.4863 172.733 23.4863 172.733 21.793C172.733 20.0997 171.282 20.0998 170.556 20.0998H169.589C169.347 20.0998 169.105 20.0997 169.105 20.5835V23.4863H170.556Z" fill="black"></path><path d="M173.217 28.3244C172.975 28.3244 172.733 28.0825 172.733 28.0825L170.073 24.4539H169.589V27.8405C169.589 28.3243 169.347 28.5663 168.863 28.5663C168.38 28.5663 168.138 28.3243 168.138 27.8405V20.8254C168.138 19.8578 168.621 19.374 169.347 19.374H170.798C172.733 19.374 173.458 20.5835 173.458 22.0349C173.458 23.2444 172.975 24.212 171.282 24.4539L173.458 27.3568L173.217 27.5987L173.458 27.3568C173.458 27.5987 173.7 27.5986 173.7 27.8405C173.942 28.0824 173.7 28.3244 173.217 28.3244ZM168.863 23.7283H170.314L173.217 27.5987L173.458 27.3568L173.217 27.5987L170.314 23.7283H170.798C172.733 23.7283 172.975 22.2768 172.975 21.793C172.975 20.5835 172.249 19.8579 170.798 19.8579H169.347C168.863 19.8579 168.621 20.0997 168.621 20.5835V27.5987L168.863 23.7283ZM170.556 23.7283H168.863V20.5835C168.863 20.0997 169.105 19.8579 169.589 19.8579H170.556C171.04 19.8579 172.975 19.8578 172.975 21.793C172.975 23.0025 172.249 23.7283 170.556 23.7283ZM169.589 23.2444H170.798C171.766 23.2444 172.733 23.0025 172.733 21.793C172.733 20.5835 171.766 20.5835 170.798 20.5835H169.831V23.2444H169.589Z" fill="black"></path><path d="M182.891 19.6159C182.891 19.6159 182.891 19.374 183.133 19.374C183.375 19.374 183.617 19.6159 183.617 19.6159V19.8579L180.472 27.5987C180.472 27.8406 180.231 28.0825 179.989 28.0825C179.747 28.0825 179.505 27.8406 179.505 27.5987L176.361 19.8579V19.6159C176.361 19.374 176.603 19.374 176.845 19.374C177.086 19.374 177.086 19.374 177.086 19.6159L180.231 27.3568L182.891 19.6159Z" fill="black"></path><path d="M179.988 28.3243C179.505 28.3243 179.263 27.8405 179.263 27.8405L176.119 20.0997C176.119 20.0997 176.119 19.8578 176.119 19.6159C176.119 19.1321 176.361 18.8902 176.844 18.8902C177.328 18.8902 177.328 19.1321 177.328 19.374L179.988 26.3891L182.649 19.374H182.891L182.649 19.1321C182.649 19.1321 182.891 18.6483 183.133 18.6483C183.374 18.6483 183.858 18.8902 183.858 19.374C183.858 19.6159 183.858 19.6159 183.858 19.8578L180.714 27.3567C180.714 27.8405 180.472 28.3243 179.988 28.3243ZM182.891 19.6159H183.133L179.988 27.5986C179.988 27.5986 179.988 27.5986 180.23 27.3567L183.374 19.6159C183.374 19.6159 183.374 19.6159 183.374 19.374L182.891 19.6159ZM176.602 19.6159C176.602 19.6159 176.361 19.6159 176.602 19.6159C176.361 19.6159 176.602 19.8578 176.602 19.6159L179.747 27.3567C179.747 27.3567 179.747 27.5986 179.988 27.5986L176.602 19.6159Z" fill="black"></path><path d="M187.002 19.6158C187.002 19.3739 187.244 19.3739 187.244 19.3739C187.486 19.3739 187.486 19.6158 187.486 19.6158V27.5986C187.486 27.8405 187.244 27.8404 187.244 27.8404C187.002 27.8404 187.002 27.5986 187.002 27.5986V19.6158Z" fill="black"></path><path d="M187.244 28.3242C186.76 28.3242 186.519 28.0823 186.519 27.5985V19.6158C186.519 19.132 186.76 18.8901 187.244 18.8901C187.728 18.8901 187.97 19.132 187.97 19.6158V27.5985C187.97 28.0823 187.728 28.3242 187.244 28.3242ZM187.244 19.6158V27.5985V19.6158Z" fill="black"></path><path d="M191.355 23.7282C191.355 21.3092 193.048 19.3739 195.709 19.3739C196.676 19.3739 197.402 19.6158 197.886 19.8577C198.127 19.8577 198.127 20.0996 198.127 20.0996C198.127 20.3415 197.886 20.3416 197.886 20.3416C197.886 20.3416 197.644 20.3415 197.644 20.0996C196.918 19.6158 196.193 19.6158 195.951 19.6158C193.774 19.6158 192.323 21.3091 192.323 23.2443C192.323 24.9376 193.532 26.8728 196.193 26.8728C196.918 26.8728 197.402 26.6309 197.886 26.6309C197.886 26.6309 198.127 26.3891 198.369 26.3891C198.369 26.3891 198.611 26.389 198.611 26.6309C198.611 26.8728 198.369 26.8728 198.369 26.8728C197.644 27.3566 196.676 27.3567 195.951 27.3567C192.807 28.0824 191.355 25.9053 191.355 23.7282Z" fill="black"></path><path d="M195.709 28.3242C192.807 28.3242 190.872 26.389 190.872 23.7281C190.872 21.0673 192.807 19.1321 195.467 19.1321C196.435 19.1321 197.16 19.3739 197.886 19.6158C198.128 19.8577 198.128 20.0997 198.128 20.0997C198.128 20.3416 197.886 20.8253 197.402 20.8253C197.16 20.8253 197.16 20.8253 196.918 20.5834C196.193 20.3415 195.709 20.0997 195.225 20.0997C193.291 20.0997 191.839 21.551 191.839 23.4862C191.839 25.1795 192.807 26.8728 195.225 26.8728C195.951 26.8728 196.435 26.6309 196.918 26.6309C197.16 26.389 197.402 26.3891 197.402 26.3891C197.644 26.3891 197.886 26.6309 197.886 27.1147C197.886 27.3566 197.886 27.5986 197.402 27.5986C197.16 28.3242 196.193 28.3242 195.709 28.3242ZM195.709 19.6158C193.291 19.6158 191.598 21.3092 191.598 23.7281C191.598 25.6633 192.807 27.8404 195.709 27.8404C196.193 27.8404 197.16 27.8404 197.886 27.3566H197.644C197.16 27.5985 196.677 27.5986 195.709 27.5986C192.807 27.5986 191.598 25.4214 191.598 23.7281C191.598 21.3092 193.291 19.6158 195.709 19.6158C196.193 19.6158 196.918 19.6159 197.644 20.0997C197.16 19.8578 196.435 19.6158 195.709 19.6158Z" fill="black"></path><path d="M205.867 23.2443C206.109 23.2443 206.109 23.4862 206.109 23.4862C206.109 23.7281 206.109 23.7282 205.867 23.7282H202.239V26.6309C202.239 26.8728 202.481 27.1147 202.723 27.1147H206.351C206.593 27.1147 206.593 27.3567 206.593 27.3567C206.593 27.5986 206.593 27.5986 206.351 27.5986H202.481C201.514 27.5986 201.514 26.8728 201.514 26.6309V20.3416C201.514 20.0997 201.514 19.3739 202.481 19.3739H206.109C206.351 19.3739 206.351 19.6158 206.351 19.6158C206.351 19.8577 206.351 19.8577 206.109 19.8577H202.481C202.239 19.8577 201.997 19.8578 201.997 20.3416V23.0024H205.867V23.2443Z" fill="black"></path><path d="M206.351 28.0824H202.481C201.756 28.0824 201.272 27.5986 201.272 26.631V20.3416C201.272 19.374 201.756 18.8901 202.481 18.8901H206.109C206.593 18.8901 206.835 19.132 206.835 19.6158C206.835 19.8577 206.593 20.3416 206.109 20.3416H202.481V22.7606H205.867C206.351 22.7606 206.351 23.0025 206.351 23.4863C206.351 23.9701 206.109 24.2119 205.867 24.2119H202.481V26.8729H206.109C206.593 26.8729 206.835 27.1148 206.835 27.5986C207.077 27.8405 206.593 28.0824 206.351 28.0824ZM202.481 19.8577C201.998 19.8577 201.756 20.0996 201.756 20.5834V26.8729C201.756 27.3567 201.756 27.5986 202.481 27.5986H206.351H202.723C202.481 27.5986 201.998 27.5986 201.998 26.8729V23.4863H205.867H201.998V20.5834C201.998 20.0996 202.239 19.8577 202.481 19.8577H206.109H202.481Z" fill="black"></path><path d="M46.4824 15.5037H18.9106V30.0176H46.4824V15.5037Z" fill="black"></path><path d="M234.406 38.726H3.43213V43.564H234.406V38.726Z" fill="black"></path><path d="M256.899 53.2399C256.657 52.5142 256.899 51.7886 257.382 51.5467C257.382 51.5467 257.866 51.3048 258.592 51.0629C259.317 50.821 259.801 51.3048 260.043 51.7886C260.285 52.5143 259.801 52.998 259.317 53.2399C258.833 53.4818 258.35 53.4818 258.35 53.4818C257.866 53.9656 257.382 53.7237 256.899 53.2399Z" fill="black"></path><path d="M265.122 52.5143C264.88 52.2724 264.88 52.0305 264.88 51.5467C265.122 50.821 265.605 50.5791 266.331 50.5791C267.057 50.821 268.024 51.0629 268.75 51.3048C269.475 51.5467 269.717 52.2724 269.475 52.7562C269.233 53.4819 268.508 53.7238 268.024 53.4819C267.298 53.24 266.573 52.9981 265.847 52.7562C265.605 52.9981 265.364 52.7562 265.122 52.5143Z" fill="black"></path><path d="M282.777 102.346C282.535 101.862 282.535 101.378 282.777 100.894C283.261 100.41 283.745 99.6848 283.986 98.9591C284.228 98.4753 285.196 98.2334 285.679 98.4753C286.163 98.7172 286.405 99.6848 286.163 100.169C285.679 100.894 285.196 101.62 284.712 102.346C284.228 102.829 283.503 103.071 283.019 102.588C283.019 102.588 283.019 102.346 282.777 102.346ZM287.131 93.6373C286.889 93.3954 286.889 93.1535 286.889 92.6697C287.131 91.944 287.131 91.2183 287.372 90.4926C287.372 89.7669 288.098 89.2831 288.824 89.525C289.549 89.525 290.033 90.2507 289.791 90.9764C289.791 91.944 289.549 92.6697 289.307 93.3954C289.065 94.1211 288.582 94.363 287.856 94.363C287.372 94.1211 287.131 93.8792 287.131 93.6373ZM287.372 84.2032C287.372 83.9613 287.131 83.9613 287.131 83.7194C287.131 82.9937 286.889 82.268 286.647 81.5423C286.405 80.8166 286.889 80.3328 287.614 80.0909C288.34 79.849 288.824 80.3328 289.065 81.0585C289.307 81.7842 289.307 82.7518 289.549 83.4775C289.549 84.2032 289.065 84.687 288.582 84.9289C288.098 84.9289 287.614 84.687 287.372 84.2032ZM273.587 56.8685C273.345 56.3847 273.345 55.901 273.828 55.4172C274.312 54.9334 275.038 54.9333 275.521 55.1752C276.005 55.659 276.731 56.3847 277.214 56.8685C277.698 57.3523 277.698 58.078 277.214 58.5618C276.731 59.0456 276.005 59.0456 275.521 58.5618C275.038 58.078 274.312 57.3523 273.828 56.8685C273.828 57.1104 273.587 57.1104 273.587 56.8685ZM284.954 75.011C284.954 75.011 284.954 74.7691 284.954 75.011C284.712 74.5272 284.712 74.0434 284.47 73.8015L283.986 72.592C283.745 71.8663 283.986 71.3825 284.712 70.8987C285.438 70.6568 285.921 70.8987 286.405 71.6244L286.889 72.8339C287.131 73.3177 287.131 73.5596 287.372 74.0434C287.614 74.7691 287.372 75.2529 286.647 75.4948C285.921 75.7367 285.438 75.4948 284.954 75.011ZM279.875 64.1255C279.633 63.6417 279.633 62.916 280.359 62.4322C280.842 62.1903 281.568 62.1903 282.052 62.916C282.293 63.3998 282.535 63.8836 283.019 64.3674L283.503 65.0931C283.745 65.5769 283.745 66.3026 283.019 66.7864C282.535 67.0283 281.81 67.0283 281.326 66.3026L280.842 65.5769C280.359 65.0931 280.117 64.6093 279.875 64.1255C279.875 64.1255 279.875 64.3674 279.875 64.1255Z" fill="black"></path><path d="M276.731 107.909C276.489 107.425 276.489 106.7 276.973 106.216C277.215 105.974 277.699 105.732 277.94 105.49C278.424 105.006 279.15 105.248 279.633 105.732C280.117 106.216 279.875 106.942 279.391 107.426C279.15 107.667 278.666 107.909 278.424 108.151C277.94 108.635 276.973 108.635 276.731 107.909Z" fill="black"></path><path d="M276.006 98.959L267.299 112.263L283.261 113.231L276.006 98.959Z" fill="black"></path><path d="M297.531 223.537H79.8591C74.7801 223.537 70.6685 219.425 70.6685 214.345V142.017C70.6685 136.937 74.7801 132.825 79.8591 132.825H297.531C302.61 132.825 306.721 136.937 306.721 142.017V214.345C306.963 219.425 302.61 223.537 297.531 223.537ZM79.8591 137.663C77.4405 137.663 75.5056 139.598 75.5056 142.017V214.345C75.5056 216.764 77.4405 218.699 79.8591 218.699H297.531C299.949 218.699 301.884 216.764 301.884 214.345V142.017C301.884 139.598 299.949 137.663 297.531 137.663H79.8591Z" fill="black"></path><path d="M134.76 159.434C134.76 159.676 134.519 159.676 134.519 159.676C134.277 159.676 134.277 159.676 134.277 159.434V151.935H131.616C131.375 151.935 131.375 151.693 131.375 151.693C131.375 151.451 131.375 151.451 131.616 151.451H137.663C137.905 151.451 137.905 151.693 137.905 151.693C137.905 151.935 137.905 151.935 137.663 151.935H135.002V159.434H134.76Z" fill="#999899"></path><path d="M134.277 160.16C133.793 160.16 133.551 159.918 133.551 159.434V152.177H131.133C130.649 152.177 130.407 151.935 130.407 151.451C130.407 150.967 130.649 150.725 131.133 150.725H137.179C137.663 150.725 137.905 150.967 137.905 151.451C137.905 151.693 137.663 152.177 137.179 152.177H134.761V159.434C135.002 159.918 134.761 160.16 134.277 160.16ZM131.375 151.693H134.277V159.434V151.693H137.179H131.375Z" fill="#999899"></path><path d="M144.919 151.209C147.337 151.209 149.272 152.903 149.272 155.563C149.272 157.982 147.337 159.918 144.919 159.918C142.5 159.918 140.565 158.224 140.565 155.563C140.565 153.144 142.5 151.209 144.919 151.209ZM144.919 159.192C146.854 159.192 148.547 157.499 148.547 155.563C148.547 153.628 147.096 151.935 144.919 151.935C142.984 151.935 141.291 153.628 141.291 155.563C141.291 157.499 142.742 159.192 144.919 159.192Z" fill="#999899"></path><path d="M144.919 160.16C142.258 160.16 140.323 158.224 140.323 155.563C140.323 152.903 142.258 150.967 144.919 150.967C147.579 150.967 149.514 152.903 149.514 155.563C149.514 158.224 147.579 160.16 144.919 160.16ZM144.919 151.451C142.5 151.451 140.807 153.144 140.807 155.563C140.807 157.741 142.5 159.676 144.919 159.676C147.337 159.676 149.03 157.982 149.03 155.563C148.788 153.144 147.095 151.451 144.919 151.451ZM144.919 159.676C142.742 159.676 141.049 157.982 141.049 155.805C141.049 153.628 142.742 151.935 144.919 151.935C147.095 151.935 148.788 153.628 148.788 155.805C148.788 157.982 147.095 159.676 144.919 159.676ZM144.919 152.177C142.984 152.177 141.533 153.628 141.533 155.563C141.533 157.499 142.984 158.95 144.919 158.95C146.853 158.95 148.305 157.499 148.305 155.563C148.063 153.628 146.612 152.177 144.919 152.177Z" fill="#999899"></path><path d="M153.384 159.434C153.384 159.676 153.142 159.676 153.142 159.676C152.9 159.676 152.9 159.676 152.9 159.434V152.419C152.9 152.177 152.9 151.451 153.867 151.451H155.077C155.802 151.451 156.286 151.451 156.77 151.693C157.737 152.177 157.979 153.386 157.979 153.87C157.979 154.596 157.737 155.563 156.77 156.047C156.286 156.289 155.802 156.289 155.077 156.289H153.626V159.434H153.384ZM154.593 155.564C155.319 155.564 156.77 155.563 156.77 153.87C156.77 152.177 155.319 152.177 154.593 152.177H153.867C153.626 152.177 153.384 152.177 153.384 152.661V155.805H154.593V155.564Z" fill="#999899"></path><path d="M152.9 160.16C152.416 160.16 152.174 159.918 152.174 159.434V152.419C152.174 151.451 152.658 150.967 153.384 150.967H154.593C155.318 150.967 155.802 150.967 156.528 151.451C157.737 152.177 157.737 153.386 157.737 153.87C157.737 155.08 157.253 155.805 156.528 156.289C156.044 156.531 155.318 156.531 154.593 156.531H153.625V159.676C153.625 159.918 153.384 160.16 152.9 160.16ZM153.625 151.693C153.142 151.693 152.9 151.935 152.9 152.419V159.434V155.805H154.593C155.077 155.805 155.56 155.805 156.044 155.563C156.77 155.322 157.011 154.596 157.011 153.628C157.011 153.144 156.77 152.177 156.044 151.935C155.56 151.693 155.077 151.693 154.593 151.693H153.625V151.693ZM154.593 155.805H153.142V152.419C153.142 151.935 153.384 151.693 153.867 151.693H154.593C155.318 151.693 157.253 151.693 157.253 153.87C157.011 155.805 155.318 155.805 154.593 155.805ZM153.625 155.322H154.593C155.56 155.322 156.528 155.322 156.528 153.87C156.528 152.419 155.56 152.419 154.593 152.419H153.867V155.322H153.625Z" fill="#999899"></path><path d="M167.411 157.015L166.444 159.434C166.444 159.676 166.444 159.676 166.202 159.676C165.96 159.676 165.718 159.676 165.718 159.434V159.192L168.862 151.451C168.862 151.209 169.104 150.967 169.346 150.967C169.83 150.967 169.83 151.209 169.83 151.451L172.732 159.192V159.434C172.732 159.676 172.49 159.676 172.248 159.676C172.007 159.676 172.007 159.434 172.007 159.434L171.039 157.015H167.411ZM171.039 156.531L169.346 152.177L167.653 156.531H171.039Z" fill="#999899"></path><path d="M172.732 160.16C172.248 160.16 172.248 159.918 172.007 159.676L171.039 157.257H167.411L166.444 159.434C166.444 159.676 166.202 159.918 165.718 159.918C165.476 159.918 164.993 159.676 164.993 159.192V158.95L168.137 151.209C168.379 150.725 168.621 150.484 168.862 150.484C169.346 150.484 169.588 150.725 169.588 151.209L172.49 158.95C172.49 159.192 172.49 159.192 172.49 159.434C173.216 159.918 172.974 160.16 172.732 160.16ZM167.169 156.773H171.523L172.49 159.434L169.346 151.693C169.346 151.693 169.346 151.451 169.104 151.451L171.039 156.773H167.169L169.104 151.451C169.104 151.451 169.104 151.451 168.862 151.693L165.718 159.434V159.676L167.169 156.773ZM168.137 156.289H170.797L169.588 152.903L168.137 156.289Z" fill="#999899"></path><path d="M177.086 159.676C176.119 159.676 176.119 158.95 176.119 158.708V152.419C176.119 152.177 176.119 151.451 177.086 151.451H178.537C179.263 151.451 181.198 151.451 181.198 153.386C181.198 154.596 180.472 155.08 179.988 155.321C180.472 155.563 181.439 155.805 181.439 157.499C181.439 159.676 179.263 159.676 178.537 159.676H177.086ZM178.779 155.08C179.263 155.08 180.714 155.08 180.714 153.628C180.714 152.177 179.505 152.177 178.537 152.177H177.328C177.086 152.177 176.844 152.177 176.844 152.661V155.321H178.779V155.08ZM176.844 158.708C176.844 158.95 177.086 159.192 177.328 159.192H178.779C179.505 159.192 181.198 159.192 181.198 157.499C181.198 155.805 179.505 155.805 179.021 155.805H177.086V158.708H176.844Z" fill="#999899"></path><path d="M178.779 159.918H177.086C176.36 159.918 175.876 159.434 175.876 158.466V152.177C175.876 151.209 176.36 150.725 177.086 150.725H178.537C179.262 150.725 181.681 150.725 181.681 153.144C181.681 154.112 181.197 154.596 180.714 155.08C181.197 155.322 181.923 156.047 181.923 157.257C181.923 159.192 180.955 159.918 178.779 159.918ZM177.086 151.693C176.602 151.693 176.36 151.935 176.36 152.419V158.708C176.36 159.192 176.36 159.434 177.086 159.434H178.779C179.988 159.434 181.439 159.192 181.439 157.499C181.439 156.773 181.197 156.289 180.955 156.047C181.197 156.289 181.439 156.773 181.439 157.499C181.439 159.434 179.504 159.434 178.779 159.434H177.328C177.086 159.434 176.602 159.434 176.602 158.708V152.419C176.602 151.935 176.844 151.693 177.086 151.693H178.537C179.504 151.693 180.955 151.693 180.955 153.386C180.955 153.628 180.955 154.112 180.714 154.354C180.955 154.112 180.955 153.87 180.955 153.144C180.955 151.693 179.746 151.451 178.537 151.451H177.086V151.693ZM177.086 158.708C177.328 158.708 177.328 158.708 177.086 158.708H178.537C179.504 158.708 180.714 158.708 180.714 157.499C180.714 156.289 179.746 156.047 178.779 156.047H177.086V158.708ZM178.779 155.322C179.021 155.322 179.263 155.322 179.263 155.322L179.504 155.08C179.504 155.322 179.262 155.322 178.779 155.322ZM177.086 154.838H178.537C179.262 154.838 180.23 154.596 180.23 153.628C180.23 152.661 179.504 152.419 178.295 152.419H177.086V154.838Z" fill="#999899"></path><path d="M189.179 151.209C191.597 151.209 193.532 152.903 193.532 155.563C193.532 157.982 191.597 159.918 189.179 159.918C186.76 159.918 184.825 158.224 184.825 155.563C184.825 153.144 186.76 151.209 189.179 151.209ZM189.179 159.192C191.113 159.192 192.806 157.499 192.806 155.563C192.806 153.628 191.355 151.935 189.179 151.935C187.244 151.935 185.551 153.628 185.551 155.563C185.551 157.499 187.002 159.192 189.179 159.192Z" fill="#999899"></path><path d="M189.178 160.16C186.518 160.16 184.583 158.224 184.583 155.563C184.583 152.903 186.518 150.967 189.178 150.967C191.839 150.967 193.774 152.903 193.774 155.563C193.774 158.224 191.597 160.16 189.178 160.16ZM189.178 151.451C186.76 151.451 185.067 153.144 185.067 155.563C185.067 157.741 186.76 159.676 189.178 159.676C191.597 159.676 193.29 157.982 193.29 155.563C193.048 153.144 191.355 151.451 189.178 151.451ZM189.178 159.676C187.002 159.676 185.309 157.982 185.309 155.805C185.309 153.628 187.002 151.935 189.178 151.935C191.355 151.935 193.048 153.628 193.048 155.805C193.048 157.982 191.355 159.676 189.178 159.676ZM189.178 152.177C187.243 152.177 185.792 153.628 185.792 155.563C185.792 157.499 187.243 158.95 189.178 158.95C191.113 158.95 192.564 157.499 192.564 155.563C192.323 153.628 190.871 152.177 189.178 152.177Z" fill="#999899"></path><path d="M196.918 151.693C196.918 151.451 197.16 151.451 197.16 151.451C197.402 151.451 197.402 151.451 197.402 151.693V156.289C197.402 157.499 197.402 159.434 200.062 159.434C202.723 159.434 202.723 157.499 202.723 156.289V151.693C202.723 151.451 202.965 151.451 202.965 151.451C203.207 151.451 203.207 151.451 203.207 151.693V156.289C203.207 157.499 203.207 160.16 199.821 160.16C196.435 160.16 196.435 157.741 196.435 156.289V151.693H196.918Z" fill="#999899"></path><path d="M200.305 160.16C196.677 160.16 196.677 157.257 196.677 156.047V151.693C196.677 151.209 196.919 150.967 197.402 150.967C197.886 150.967 198.128 151.209 198.128 151.693V156.289C198.128 157.741 198.37 159.192 200.547 159.192C202.723 159.192 202.965 157.741 202.965 156.289V151.693C202.965 151.209 203.207 150.967 203.691 150.967C204.174 150.967 204.416 151.209 204.416 151.693V156.289C203.933 157.257 203.933 160.16 200.305 160.16ZM197.161 151.451V156.047C197.161 157.741 197.644 159.434 200.305 159.434C202.965 159.434 203.449 157.741 203.449 156.047V151.693V156.289C203.449 157.499 203.449 159.676 200.305 159.676C197.16 159.676 197.161 157.257 197.161 156.289V151.451Z" fill="#999899"></path><path d="M210.462 159.434C210.462 159.676 210.22 159.676 210.22 159.676C209.978 159.676 209.978 159.676 209.978 159.434V151.935H207.317C207.076 151.935 207.076 151.693 207.076 151.693C207.076 151.451 207.076 151.451 207.317 151.451H213.364C213.606 151.451 213.606 151.693 213.606 151.693C213.606 151.935 213.606 151.935 213.364 151.935H210.704V159.434H210.462Z" fill="#999899"></path><path d="M210.22 160.16C209.736 160.16 209.494 159.918 209.494 159.434V152.177H207.076C206.592 152.177 206.35 151.935 206.35 151.451C206.35 150.967 206.592 150.725 207.076 150.725H213.122C213.606 150.725 213.848 150.967 213.848 151.451C213.848 151.693 213.606 152.177 213.122 152.177H210.704V159.434C210.945 159.918 210.462 160.16 210.22 160.16ZM207.076 151.693H209.978V159.434V151.693H212.88H207.076Z" fill="#999899"></path><path d="M222.313 158.95C222.797 159.192 223.281 159.192 223.765 159.192C224.732 159.192 225.941 158.708 225.941 157.499C225.941 156.289 224.974 156.047 224.248 155.805C223.281 155.563 222.072 155.08 222.072 153.628C222.072 152.419 223.039 151.451 224.49 151.451C224.974 151.451 225.458 151.693 225.941 151.693C225.941 151.693 226.183 151.693 226.183 151.935C226.183 152.177 225.941 152.177 225.941 152.177H225.699C225.457 152.177 224.974 151.935 224.49 151.935C223.281 151.935 222.797 152.661 222.797 153.628C222.797 154.596 223.765 155.08 224.49 155.322C225.457 155.563 226.667 156.047 226.667 157.741C226.667 159.192 225.458 160.16 223.765 160.16C222.797 160.16 222.072 159.918 221.83 159.676C221.588 159.676 221.588 159.434 221.588 159.434C221.588 159.192 221.83 159.192 221.83 159.192C221.83 158.708 222.072 158.708 222.313 158.95Z" fill="#999899"></path><path d="M223.764 160.16C222.797 160.16 222.071 159.918 221.829 159.676C221.588 159.676 221.346 159.434 221.346 158.95C221.346 158.708 221.588 158.224 222.071 158.224C222.071 158.224 222.313 158.224 222.555 158.466C223.039 158.708 223.522 158.708 224.006 158.708C224.49 158.708 225.941 158.708 225.941 157.257C225.941 156.289 225.457 156.047 224.248 155.805C223.281 155.563 221.829 155.08 221.829 153.386C221.829 152.177 222.797 150.725 224.49 150.725C224.974 150.725 225.699 150.967 226.183 151.209C226.183 151.209 226.667 151.451 226.667 151.693C226.667 151.935 226.425 152.419 225.941 152.419C225.699 152.419 225.699 152.419 225.457 152.177C225.215 152.177 224.974 151.935 224.49 151.935C223.522 151.935 223.039 152.661 223.039 153.144C223.039 153.87 223.522 154.112 224.49 154.596C225.457 155.08 226.908 155.563 226.908 157.257C226.908 159.192 225.699 160.16 223.764 160.16ZM221.829 158.95C221.829 159.192 221.829 159.192 221.829 158.95C222.313 159.192 222.797 159.434 223.764 159.434C224.974 159.434 226.183 158.95 226.183 157.499C226.183 156.047 225.215 155.805 224.248 155.322C223.281 155.08 222.313 154.596 222.313 153.386C222.313 152.419 223.039 151.451 224.248 151.451C224.732 151.451 225.215 151.693 225.457 151.693C225.699 151.693 225.699 151.693 225.699 151.693C225.215 151.451 224.732 151.451 224.248 151.451C222.797 151.451 222.071 152.419 222.071 153.386C222.071 154.596 223.039 155.08 224.006 155.322C224.974 155.563 225.941 156.047 225.941 157.499C225.941 158.95 224.732 159.434 223.522 159.434C223.039 159.434 222.313 159.192 221.829 158.95V158.95C221.829 159.192 221.829 159.192 221.829 158.95Z" fill="#999899"></path><path d="M234.406 155.08C234.648 155.08 234.648 155.321 234.648 155.321C234.648 155.563 234.648 155.563 234.406 155.563H230.778V158.466C230.778 158.708 231.02 158.95 231.262 158.95H234.89C235.132 158.95 235.132 159.192 235.132 159.192C235.132 159.434 235.132 159.434 234.89 159.434H231.02C230.053 159.434 230.053 158.708 230.053 158.466V152.177C230.053 151.935 230.053 151.209 231.02 151.209H234.648C234.89 151.209 234.89 151.451 234.89 151.451C234.89 151.693 234.89 151.693 234.648 151.693H231.02C230.778 151.693 230.536 151.693 230.536 152.177V154.838H234.406V155.08Z" fill="#999899"></path><path d="M234.89 159.918H231.02C230.294 159.918 229.811 159.434 229.811 158.466V152.177C229.811 151.209 230.294 150.725 231.02 150.725H234.648C235.131 150.725 235.373 150.967 235.373 151.451C235.373 151.693 235.131 152.177 234.648 152.177H231.02V154.596H234.406C234.89 154.596 234.89 154.838 234.89 155.322C234.89 155.805 234.648 156.047 234.406 156.047H231.02V158.708H234.648C235.131 158.708 235.373 158.95 235.373 159.434C235.615 159.676 235.373 159.918 234.89 159.918ZM231.02 151.693C230.536 151.693 230.294 151.935 230.294 152.419V158.708C230.294 159.192 230.294 159.434 231.02 159.434H234.89H231.262C231.02 159.434 230.536 159.434 230.536 158.708V155.563H234.406H230.536V152.661C230.536 151.935 230.778 151.693 231.02 151.693H234.648H231.02Z" fill="#999899"></path><path d="M243.597 159.192C243.597 159.434 243.839 159.434 243.839 159.434C243.839 159.676 243.597 159.676 243.597 159.676C243.355 159.676 243.355 159.676 243.355 159.434L240.453 155.805H239.243V159.434C239.243 159.676 239.002 159.676 239.002 159.676C238.76 159.676 238.76 159.676 238.76 159.434V152.419C238.76 152.177 238.76 151.451 239.727 151.451H241.178C242.871 151.451 243.597 152.419 243.597 153.628C243.597 154.596 243.113 155.805 241.178 155.805L243.597 159.192ZM240.695 155.322C241.178 155.322 242.871 155.322 242.871 153.628C242.871 151.935 241.42 151.935 240.695 151.935H239.727C239.485 151.935 239.243 151.935 239.243 152.419V155.322H240.695Z" fill="#999899"></path><path d="M243.355 160.16C243.113 160.16 242.871 159.918 242.871 159.918L240.211 156.289H239.727V159.676C239.727 160.16 239.485 160.401 239.001 160.401C238.518 160.401 238.276 160.16 238.276 159.676V152.661C238.276 151.693 238.76 151.209 239.485 151.209H240.936C242.871 151.209 243.597 152.419 243.597 153.87C243.597 155.08 243.113 156.047 241.42 156.289L243.597 159.192L243.355 159.434L243.597 159.192C243.597 159.434 243.839 159.434 243.839 159.676C244.08 159.918 243.597 160.16 243.355 160.16ZM239.001 155.563H240.453L243.355 159.434L243.597 159.192L243.355 159.434L240.453 155.563H240.936C242.871 155.563 243.113 154.112 243.113 153.628C243.113 152.419 242.388 151.693 240.936 151.693H239.485C239.001 151.693 238.76 151.935 238.76 152.419V159.434L239.001 155.563ZM240.694 155.563H239.001V152.419C239.001 151.935 239.243 151.693 239.727 151.693H240.694C241.178 151.693 243.113 151.693 243.113 153.628C243.113 155.08 242.146 155.563 240.694 155.563ZM239.485 155.08H240.694C241.662 155.08 242.629 154.838 242.629 153.628C242.629 152.419 241.662 152.419 240.694 152.419H239.727V155.08H239.485Z" fill="#999899"></path><path d="M252.788 151.451C252.788 151.451 252.788 151.209 253.029 151.209C253.271 151.209 253.513 151.451 253.513 151.451V151.693L250.369 159.434C250.369 159.676 250.127 159.918 249.885 159.918C249.643 159.918 249.402 159.676 249.402 159.434L246.257 151.693V151.451C246.257 151.209 246.499 151.209 246.741 151.209C246.983 151.209 246.983 151.209 246.983 151.451L250.127 159.192L252.788 151.451Z" fill="#999899"></path><path d="M249.885 160.16C249.401 160.16 249.159 159.676 249.159 159.676L246.015 151.935C246.015 151.935 246.015 151.693 246.015 151.451C246.015 150.967 246.257 150.725 246.741 150.725C247.224 150.725 247.224 150.967 247.224 151.209L249.885 158.224L252.545 151.209H252.787L252.545 150.967C252.545 150.967 252.787 150.484 253.029 150.484C253.271 150.484 253.755 150.725 253.755 151.209C253.755 151.451 253.755 151.451 253.755 151.693L250.611 159.192C250.611 159.676 250.369 160.16 249.885 160.16ZM252.787 151.451H253.029L249.885 159.434C249.885 159.434 249.885 159.434 250.127 159.192L253.271 151.451C253.271 151.451 253.271 151.451 253.271 151.209L252.787 151.451ZM246.499 151.693L249.643 159.434C249.643 159.434 249.643 159.676 249.885 159.676L246.499 151.693Z" fill="#999899"></path><path d="M256.898 151.693C256.898 151.451 257.14 151.451 257.14 151.451C257.382 151.451 257.382 151.693 257.382 151.693V159.676C257.382 159.918 257.14 159.918 257.14 159.918C256.898 159.918 256.898 159.676 256.898 159.676V151.693Z" fill="#999899"></path><path d="M257.382 160.16C256.899 160.16 256.657 159.918 256.657 159.434V151.693C256.657 151.209 256.899 150.967 257.382 150.967C257.866 150.967 258.108 151.209 258.108 151.693V159.676C257.866 159.918 257.624 160.16 257.382 160.16ZM257.382 151.451V159.434V151.451Z" fill="#999899"></path><path d="M261.252 155.563C261.252 153.144 262.945 151.209 265.605 151.209C266.573 151.209 267.298 151.451 267.782 151.693C268.024 151.693 268.024 151.935 268.024 151.935C268.024 152.177 267.782 152.177 267.782 152.177C267.782 152.177 267.54 152.177 267.54 151.935C266.815 151.451 266.089 151.451 265.847 151.451C263.671 151.451 262.219 153.144 262.219 155.08C262.219 156.773 263.429 158.708 266.089 158.708C266.815 158.708 267.298 158.466 267.782 158.466C267.782 158.466 268.024 158.224 268.266 158.224C268.266 158.224 268.508 158.224 268.508 158.466C268.508 158.708 268.266 158.708 268.266 158.708C267.54 159.192 266.573 159.192 265.847 159.192C262.945 159.918 261.252 157.982 261.252 155.563Z" fill="#999899"></path><path d="M265.605 160.16C262.703 160.16 260.768 158.224 260.768 155.563C260.768 152.903 262.703 150.967 265.363 150.967C266.331 150.967 267.056 151.209 267.782 151.451C268.024 151.693 268.024 151.935 268.024 151.935C268.024 152.177 267.782 152.661 267.298 152.661C267.056 152.661 267.056 152.661 266.815 152.419C266.089 152.177 265.605 151.935 265.122 151.935C263.187 151.935 261.735 153.386 261.735 155.322C261.735 157.015 262.703 158.708 265.122 158.708C265.847 158.708 266.331 158.466 266.815 158.466C267.056 158.224 267.298 158.224 267.298 158.224C267.54 158.224 267.782 158.466 267.782 158.95C267.782 159.192 267.782 159.434 267.298 159.434C267.298 160.16 266.331 160.16 265.605 160.16ZM265.605 151.451C263.187 151.451 261.494 153.144 261.494 155.563C261.494 157.499 262.703 159.676 265.605 159.676C266.089 159.676 267.056 159.676 267.782 159.192H267.54C267.056 159.434 266.573 159.434 265.605 159.434C262.703 159.434 261.494 157.257 261.494 155.563C261.736 153.144 263.429 151.693 265.605 151.451C266.089 151.451 266.815 151.451 267.54 151.935C267.056 151.693 266.573 151.451 265.605 151.451Z" fill="#999899"></path><path d="M275.763 155.08C276.005 155.08 276.005 155.321 276.005 155.321C276.005 155.563 276.005 155.563 275.763 155.563H272.135V158.466C272.135 158.708 272.377 158.95 272.619 158.95H276.247C276.489 158.95 276.489 159.192 276.489 159.192C276.489 159.434 276.489 159.434 276.247 159.434H272.377C271.41 159.434 271.41 158.708 271.41 158.466V152.177C271.41 151.935 271.41 151.209 272.377 151.209H276.005C276.247 151.209 276.247 151.451 276.247 151.451C276.247 151.693 276.247 151.693 276.005 151.693H272.377C272.135 151.693 271.893 151.693 271.893 152.177V154.838H275.763V155.08Z" fill="#999899"></path><path d="M276.247 159.918H272.377C271.652 159.918 271.168 159.434 271.168 158.466V152.177C271.168 151.209 271.652 150.725 272.377 150.725H276.005C276.489 150.725 276.731 150.967 276.731 151.451C276.731 151.693 276.489 152.177 276.005 152.177H272.377V154.596H275.763C276.247 154.596 276.247 154.838 276.247 155.322C276.247 155.805 276.005 156.047 275.763 156.047H272.377V158.708H276.005C276.489 158.708 276.731 158.95 276.731 159.434C276.973 159.676 276.731 159.918 276.247 159.918ZM272.377 151.693C271.894 151.693 271.652 151.935 271.652 152.419V158.708C271.652 159.192 271.652 159.434 272.377 159.434H276.247H272.619C272.377 159.434 271.894 159.434 271.894 158.708V155.563H275.763H271.894V152.661C271.894 151.935 272.135 151.693 272.377 151.693H276.005H272.377Z" fill="#999899"></path><path d="M116.379 147.581H88.8076V162.095H116.379V147.581Z" fill="#999899"></path><path d="M301.4 170.803H75.9893V175.641H301.4V170.803Z" fill="#999899"></path><path d="M286.406 157.983C286.89 157.983 287.373 158.466 287.373 158.95V211.684C287.373 212.168 286.89 212.652 286.406 212.652C285.922 212.652 285.438 212.168 285.438 211.684V158.95C285.438 158.466 285.922 157.983 286.406 157.983Z" fill="black"></path><path d="M286.406 213.861C285.196 213.861 284.229 212.894 284.229 211.684V158.95C284.229 157.741 285.196 156.773 286.406 156.773C287.615 156.773 288.582 157.741 288.582 158.95V211.684C288.582 212.894 287.615 213.861 286.406 213.861Z" fill="black"></path><path d="M294.387 165.481L292.936 166.691L286.405 159.676L280.117 166.691L278.666 165.481L286.405 157.015L294.387 165.481Z" fill="black"></path><path d="M292.936 168.384L286.406 161.611L280.117 168.384L276.973 165.481L286.406 155.08L296.08 165.481L292.936 168.384Z" fill="black"></path></svg> 