<?xml version="1.0" encoding="UTF-8"?> <svg xmlns="http://www.w3.org/2000/svg" width="237" height="223" viewBox="0 0 237 223" fill="none"><path d="M227.406 222.789H9.73401C4.65501 222.789 0.543457 218.677 0.543457 213.597V9.19218C0.543457 4.11229 4.65501 0 9.73401 0H227.406C232.485 0 236.596 4.11229 236.596 9.19218V213.597C236.596 218.677 232.485 222.789 227.406 222.789ZM9.49214 4.83799C7.07357 4.83799 5.13873 6.77319 5.13873 9.19218V213.597C5.13873 216.016 7.07357 217.951 9.49214 217.951H227.164C229.582 217.951 231.517 216.016 231.517 213.597V9.19218C231.517 6.77319 229.582 4.83799 227.164 4.83799H9.49214V4.83799Z" fill="black"></path><path d="M64.3938 26.6089C64.3938 26.8508 64.152 26.8508 64.152 26.8508C63.9101 26.8508 63.9101 26.8508 63.9101 26.6089V19.11H61.2496C61.0078 19.11 61.0078 18.8681 61.0078 18.8681C61.0078 18.6262 61.0078 18.6262 61.2496 18.6262H67.2961C67.5379 18.6262 67.538 18.8681 67.538 18.8681C67.538 19.11 67.5379 19.11 67.2961 19.11H64.6357V26.6089H64.3938Z" fill="black"></path><path d="M64.1519 27.3346C63.6682 27.3346 63.4264 27.0927 63.4264 26.6089V19.3519H61.0078C60.5241 19.3519 60.2822 19.11 60.2822 18.6262C60.2822 18.1424 60.5241 17.9005 61.0078 17.9005H67.0542C67.538 17.9005 67.7798 18.1424 67.7798 18.6262C67.7798 18.8681 67.538 19.3519 67.0542 19.3519H64.6357V26.6089C64.8775 27.0927 64.3938 27.3346 64.1519 27.3346ZM61.0078 18.8681H63.9101V26.6089V18.8681H66.8124H61.0078Z" fill="black"></path><path d="M74.5522 18.3843C76.9708 18.3843 78.9057 20.0776 78.9057 22.7385C78.9057 25.1575 76.9708 27.0927 74.5522 27.0927C72.1336 27.0927 70.1987 25.3994 70.1987 22.7385C70.1987 20.3195 72.1336 18.3843 74.5522 18.3843ZM74.5522 26.367C76.4871 26.367 78.1801 24.6737 78.1801 22.7385C78.1801 20.8033 76.7289 19.11 74.5522 19.11C72.6173 19.11 70.9243 20.8033 70.9243 22.7385C70.9243 24.6737 72.6173 26.367 74.5522 26.367Z" fill="black"></path><path d="M74.5518 27.3346C71.8914 27.3346 69.9565 25.3994 69.9565 22.7385C69.9565 20.0777 71.8914 18.1425 74.5518 18.1425C77.2123 18.1425 79.1472 20.0777 79.1472 22.7385C79.1472 25.3994 77.2123 27.3346 74.5518 27.3346ZM74.5518 18.6263C72.1333 18.6263 70.4403 20.3196 70.4403 22.7385C70.4403 24.9156 72.1333 26.8508 74.5518 26.8508C76.9704 26.8508 78.6635 25.1575 78.6635 22.7385C78.6635 20.3196 76.9704 18.6263 74.5518 18.6263ZM74.5518 26.6089C72.3751 26.6089 70.6822 24.9156 70.6822 22.7385C70.6822 20.5615 72.3751 18.8682 74.5518 18.8682C76.7286 18.8682 78.4216 20.5615 78.4216 22.7385C78.4216 24.9156 76.7286 26.6089 74.5518 26.6089ZM74.5518 19.352C72.617 19.352 71.1658 20.8034 71.1658 22.7385C71.1658 24.6737 72.617 26.1251 74.5518 26.1251C76.4867 26.1251 77.9379 24.6737 77.9379 22.7385C77.9379 20.8034 76.4867 19.352 74.5518 19.352Z" fill="black"></path><path d="M83.0169 26.6089C83.0169 26.8508 82.7751 26.8508 82.7751 26.8508C82.5332 26.8508 82.5332 26.8508 82.5332 26.6089V19.5938C82.5332 19.3519 82.5332 18.6262 83.5006 18.6262H84.7099C85.4355 18.6262 85.9193 18.6262 86.403 18.8681C87.3704 19.3519 87.6123 20.5614 87.6123 21.0452C87.6123 21.7709 87.3704 22.7385 86.403 23.2223C85.9193 23.4642 85.4355 23.4642 84.7099 23.4642H83.2588V26.6089H83.0169ZM84.2262 22.7385C84.9518 22.7385 86.403 22.7385 86.403 21.0452C86.403 19.3519 84.9518 19.3519 84.2262 19.3519H83.5006C83.2588 19.3519 83.0169 19.3519 83.0169 19.8357V22.9804H84.2262V22.7385Z" fill="black"></path><path d="M82.7749 27.3346C82.2912 27.3346 82.0493 27.0927 82.0493 26.6089V19.5939C82.0493 18.6263 82.533 18.1425 83.2586 18.1425H84.4679C85.1935 18.1425 85.6773 18.1425 86.4029 18.6263C87.6122 19.352 87.6122 20.5615 87.6122 21.0453C87.6122 22.2547 87.1285 22.9804 86.4029 23.4642C85.9191 23.7061 85.1935 23.7061 84.4679 23.7061H83.5005V26.6089C83.2586 27.0927 83.0168 27.3346 82.7749 27.3346ZM83.2586 18.8682C82.7749 18.8682 82.5331 19.1101 82.5331 19.5939V26.6089V22.9804H84.2261C84.7098 22.9804 85.1935 22.9804 85.6772 22.7385C86.4028 22.4966 86.6447 21.771 86.6447 20.8034C86.6447 20.3196 86.4028 19.352 85.6772 19.1101C85.1935 18.8682 84.7098 18.8682 84.2261 18.8682H83.2586ZM84.2261 22.9804H82.7749V19.5939C82.7749 19.1101 83.0168 18.8682 83.5005 18.8682H84.2261C84.9516 18.8682 86.8866 18.8682 86.8866 21.0453C86.8866 22.9804 85.1935 22.9804 84.2261 22.9804ZM83.2586 22.4966H84.2261C85.1935 22.4966 86.161 22.4966 86.161 21.0453C86.161 19.5939 85.1935 19.5939 84.2261 19.5939H83.5005V22.4966H83.2586Z" fill="black"></path><path d="M97.0446 24.1899L96.0772 26.6089C96.0772 26.8508 96.0772 26.8508 95.8353 26.8508C95.5934 26.8508 95.3516 26.8508 95.3516 26.6089V26.367L98.4957 18.6263C98.4957 18.3844 98.7375 18.1425 98.9794 18.1425C99.4631 18.1425 99.4631 18.3844 99.4631 18.6263L102.365 26.367V26.6089C102.365 26.8508 102.124 26.8508 101.882 26.8508C101.64 26.8508 101.64 26.6089 101.64 26.6089L100.672 24.1899H97.0446ZM100.914 23.7061L99.2213 19.1101L97.5282 23.4642H100.914V23.7061Z" fill="black"></path><path d="M102.365 27.3347C101.882 27.3347 101.882 27.0928 101.64 26.8509L100.672 24.4319H97.0445L96.0771 26.609C96.0771 26.8509 95.8352 27.0928 95.3515 27.0928C95.1097 27.0928 94.626 26.8509 94.626 26.3671V26.1252L97.7701 18.3844C98.0119 17.9006 98.2538 17.6587 98.4957 17.6587C98.9794 17.6587 99.2212 17.9006 99.2212 18.3844L102.124 26.1252C102.124 26.3671 102.124 26.3671 102.124 26.609C103.091 27.0928 102.607 27.3347 102.365 27.3347ZM97.0445 23.9481H101.398L102.365 26.609L99.2212 18.8682C99.2212 18.8682 99.2212 18.6263 98.9794 18.6263L100.914 23.9481H97.0445L98.9794 18.6263C98.9794 18.6263 98.9794 18.6263 98.7375 18.8682L95.5934 26.609V26.8509L97.0445 23.9481ZM97.7701 23.4643H100.431L99.2212 20.0777L97.7701 23.4643Z" fill="black"></path><path d="M106.961 26.8508C105.993 26.8508 105.993 26.1251 105.993 25.8832V19.5938C105.993 19.3519 105.993 18.6262 106.961 18.6262H108.412C109.137 18.6262 111.072 18.6262 111.072 20.5614C111.072 21.7709 110.347 22.2547 109.863 22.4966C110.347 22.7385 111.314 22.9804 111.314 24.6737C111.314 26.8508 109.137 26.8508 108.412 26.8508H106.961V26.8508ZM108.412 22.2547C108.895 22.2547 110.347 22.2547 110.347 20.8033C110.347 19.3519 109.137 19.3519 108.17 19.3519H106.961C106.719 19.3519 106.477 19.3519 106.477 19.8357V22.4966H108.412V22.2547ZM106.719 25.8832C106.719 26.1251 106.961 26.367 107.202 26.367H108.654C109.379 26.367 111.072 26.367 111.072 24.6737C111.072 22.9804 109.379 22.9804 108.895 22.9804H106.961V25.8832H106.719Z" fill="black"></path><path d="M108.412 27.0927H106.719C105.993 27.0927 105.509 26.6089 105.509 25.6413V19.5939C105.509 18.6263 105.993 18.1425 106.719 18.1425H108.17C108.895 18.1425 111.314 18.1425 111.314 20.5615C111.314 21.529 110.83 22.0128 110.346 22.4966C110.83 22.7385 111.556 23.4642 111.556 24.6737C111.798 26.367 110.588 27.0927 108.412 27.0927ZM106.96 18.8682C106.477 18.8682 106.235 19.1101 106.235 19.5939V25.8832C106.235 26.367 106.235 26.6089 106.96 26.6089H108.653C109.863 26.6089 111.314 26.367 111.314 24.6737C111.314 23.948 111.072 23.4642 110.83 23.2223C111.072 23.4642 111.314 23.948 111.314 24.6737C111.314 26.6089 109.379 26.6089 108.653 26.6089H107.202C106.96 26.6089 106.477 26.6089 106.477 25.8832V19.5939C106.235 19.1101 106.477 18.8682 106.96 18.8682H108.412C109.379 18.8682 110.83 18.8682 110.83 20.5615C110.83 20.8034 110.83 21.2871 110.588 21.529C110.83 21.2871 110.83 21.0452 110.83 20.3196C110.83 18.8682 109.621 18.6263 108.412 18.6263H106.96V18.8682ZM106.96 25.8832H108.412C109.379 25.8832 110.588 25.8832 110.588 24.6737C110.588 23.4642 109.621 23.2223 108.653 23.2223H106.96V25.8832ZM108.653 22.4966C108.895 22.4966 109.137 22.4966 109.137 22.4966L109.379 22.2547C109.137 22.4966 108.895 22.4966 108.653 22.4966ZM106.96 22.0128H108.412C109.137 22.0128 110.105 21.7709 110.105 20.8034C110.105 19.8358 109.379 19.5939 108.17 19.5939H106.96V22.0128Z" fill="black"></path><path d="M118.812 18.3843C121.23 18.3843 123.165 20.0776 123.165 22.7385C123.165 25.1575 121.23 27.0927 118.812 27.0927C116.393 27.0927 114.458 25.3994 114.458 22.7385C114.458 20.3195 116.393 18.3843 118.812 18.3843ZM118.812 26.367C120.746 26.367 122.439 24.6737 122.439 22.7385C122.439 20.8033 120.988 19.11 118.812 19.11C116.877 19.11 115.184 20.8033 115.184 22.7385C115.184 24.6737 116.877 26.367 118.812 26.367Z" fill="black"></path><path d="M118.812 27.3346C116.151 27.3346 114.216 25.3994 114.216 22.7385C114.216 20.0777 116.151 18.1425 118.812 18.1425C121.472 18.1425 123.407 20.0777 123.407 22.7385C123.407 25.3994 121.472 27.3346 118.812 27.3346ZM118.812 18.6263C116.393 18.6263 114.7 20.3196 114.7 22.7385C114.7 24.9156 116.393 26.8508 118.812 26.8508C121.23 26.8508 122.923 25.1575 122.923 22.7385C122.923 20.3196 121.23 18.6263 118.812 18.6263ZM118.812 26.6089C116.635 26.6089 114.942 24.9156 114.942 22.7385C114.942 20.5615 116.635 18.8682 118.812 18.8682C120.988 18.8682 122.681 20.5615 122.681 22.7385C122.681 24.9156 120.988 26.6089 118.812 26.6089ZM118.812 19.352C116.877 19.352 115.426 20.8034 115.426 22.7385C115.426 24.6737 116.877 26.1251 118.812 26.1251C120.746 26.1251 122.198 24.6737 122.198 22.7385C122.198 20.8034 120.746 19.352 118.812 19.352Z" fill="black"></path><path d="M126.551 18.8681C126.551 18.6262 126.793 18.6262 126.793 18.6262C127.035 18.6262 127.035 18.6262 127.035 18.8681V23.4642C127.035 24.6737 127.035 26.6089 129.695 26.6089C132.356 26.6089 132.356 24.6737 132.356 23.4642V18.8681C132.356 18.6262 132.598 18.6262 132.598 18.6262C132.839 18.6262 132.839 18.6262 132.839 18.8681V23.4642C132.839 24.6737 132.839 27.3346 129.453 27.3346C126.067 27.3346 126.067 24.9156 126.067 23.4642V18.8681H126.551Z" fill="black"></path><path d="M129.937 27.3346C126.31 27.3346 126.31 24.4318 126.31 23.2223V18.8682C126.31 18.3844 126.551 18.1425 127.035 18.1425C127.519 18.1425 127.761 18.3844 127.761 18.8682V23.4642C127.761 24.9156 128.003 26.367 130.179 26.367C132.356 26.367 132.598 24.9156 132.598 23.4642V18.8682C132.598 18.3844 132.84 18.1425 133.323 18.1425C133.807 18.1425 134.049 18.3844 134.049 18.8682V23.4642C133.807 24.4318 133.807 27.3346 129.937 27.3346ZM126.793 18.6263V23.2223C126.793 24.9156 127.277 26.6089 129.937 26.6089C132.598 26.6089 133.082 24.9156 133.082 23.2223V18.8682V23.4642C133.082 24.6737 133.082 26.8508 129.937 26.8508C126.793 26.8508 126.793 24.4318 126.793 23.4642V18.6263Z" fill="black"></path><path d="M140.337 26.6089C140.337 26.8508 140.095 26.8508 140.095 26.8508C139.853 26.8508 139.853 26.8508 139.853 26.6089V19.11H137.193C136.951 19.11 136.951 18.8681 136.951 18.8681C136.951 18.6262 136.951 18.6262 137.193 18.6262H143.239C143.481 18.6262 143.481 18.8681 143.481 18.8681C143.481 19.11 143.481 19.11 143.239 19.11H140.337V26.6089Z" fill="black"></path><path d="M139.853 27.3346C139.369 27.3346 139.128 27.0927 139.128 26.6089V19.3519H136.709C136.225 19.3519 135.983 19.11 135.983 18.6262C135.983 18.1424 136.225 17.9005 136.709 17.9005H142.755C143.239 17.9005 143.481 18.1424 143.481 18.6262C143.481 18.8681 143.239 19.3519 142.755 19.3519H140.337V26.6089C140.579 27.0927 140.337 27.3346 139.853 27.3346ZM136.951 18.8681H139.853V26.6089V18.8681H142.755H136.951Z" fill="black"></path><path d="M151.946 26.1251C152.43 26.367 152.914 26.367 153.397 26.367C154.365 26.367 155.574 25.8832 155.574 24.6737C155.574 23.4642 154.607 23.2223 153.881 22.9804C152.914 22.7385 151.704 22.2547 151.704 20.8033C151.704 19.5938 152.672 18.6262 154.123 18.6262C154.607 18.6262 155.09 18.8681 155.574 18.8681C155.574 18.8681 155.816 18.8681 155.816 19.11C155.816 19.3519 155.574 19.3519 155.574 19.3519H155.332C155.09 19.3519 154.607 19.11 154.123 19.11C152.914 19.11 152.43 19.8357 152.43 20.8033C152.43 21.7709 153.397 22.2547 154.123 22.4966C155.09 22.7385 156.3 23.2223 156.3 24.9156C156.3 26.367 155.09 27.3346 153.397 27.3346C152.43 27.3346 151.704 27.0927 151.463 26.8508C151.221 26.8508 151.221 26.6089 151.221 26.6089C151.221 26.367 151.463 26.367 151.463 26.367C151.704 25.8832 151.704 25.8832 151.946 26.1251Z" fill="black"></path><path d="M153.639 27.3346C152.672 27.3346 151.946 27.0927 151.704 26.8508C151.463 26.8508 151.221 26.6089 151.221 26.1251C151.221 25.8832 151.463 25.3994 151.946 25.3994C151.946 25.3994 152.188 25.3994 152.43 25.6413C152.914 25.8832 153.397 25.8832 153.881 25.8832C154.365 25.8832 155.816 25.8832 155.816 24.4318C155.816 23.4642 155.332 23.2223 154.123 22.9804C153.156 22.7385 151.704 22.2547 151.704 20.5614C151.704 19.3519 152.672 17.9005 154.365 17.9005C154.849 17.9005 155.574 18.1424 156.058 18.3843C156.058 18.3843 156.542 18.6262 156.542 18.8681C156.542 19.11 156.3 19.5938 155.816 19.5938C155.574 19.5938 155.574 19.5938 155.332 19.3519C155.09 19.3519 154.849 19.11 154.365 19.11C153.397 19.11 152.914 19.8357 152.914 20.3195C152.914 21.0452 153.397 21.2871 154.365 21.7709C155.332 22.2547 156.783 22.7385 156.783 24.4318C156.783 26.367 155.332 27.3346 153.639 27.3346ZM151.704 26.1251C151.704 26.367 151.704 26.367 151.704 26.1251C152.188 26.367 152.672 26.6089 153.639 26.6089C154.849 26.6089 156.058 26.1251 156.058 24.6737C156.058 23.2223 155.09 22.9804 154.123 22.4966C153.156 22.2547 152.188 21.7709 152.188 20.5614C152.188 19.5938 152.914 18.6262 154.123 18.6262C154.607 18.6262 155.09 18.8681 155.332 18.8681C155.574 18.8681 155.574 18.8681 155.574 18.8681C155.09 18.6262 154.607 18.6262 154.123 18.6262C152.672 18.6262 151.946 19.5938 151.946 20.5614C151.946 21.7709 152.914 22.2547 153.881 22.4966C154.849 22.7385 155.816 23.2223 155.816 24.6737C155.816 26.1251 154.607 26.6089 153.397 26.6089C152.914 26.6089 152.188 26.367 151.704 26.1251V26.1251C151.704 26.367 151.704 26.367 151.704 26.1251Z" fill="black"></path><path d="M164.281 22.2547C164.523 22.2547 164.523 22.4966 164.523 22.4966C164.523 22.7385 164.523 22.7385 164.281 22.7385H160.653V25.6413C160.653 25.8832 160.895 26.1251 161.137 26.1251H164.765C165.007 26.1251 165.007 26.367 165.007 26.367C165.007 26.6089 165.007 26.6089 164.765 26.6089H160.895C159.928 26.6089 159.928 25.8832 159.928 25.6413V19.5938C159.928 19.3519 159.928 18.6262 160.895 18.6262H164.523C164.765 18.6262 164.765 18.8681 164.765 18.8681C164.765 19.11 164.765 19.11 164.523 19.11H160.895C160.653 19.11 160.411 19.11 160.411 19.5938V22.2547H164.281V22.2547Z" fill="black"></path><path d="M164.765 27.0927H160.895C160.169 27.0927 159.686 26.6089 159.686 25.6413V19.5939C159.686 18.6263 160.169 18.1425 160.895 18.1425H164.523C165.006 18.1425 165.248 18.3844 165.248 18.8682C165.248 19.1101 165.006 19.5939 164.523 19.5939H160.895V22.0128H164.281C164.765 22.0128 164.765 22.2547 164.765 22.7385C164.765 23.2223 164.523 23.4642 164.281 23.4642H160.895V26.1251H164.523C165.006 26.1251 165.248 26.367 165.248 26.8508C165.248 26.8508 165.006 27.0927 164.765 27.0927ZM160.895 18.8682C160.411 18.8682 160.169 19.1101 160.169 19.5939V25.8832C160.169 26.367 160.169 26.6089 160.895 26.6089H164.765H161.137C160.895 26.6089 160.411 26.6089 160.411 25.8832V22.4966H164.281H160.411V19.5939C160.169 19.1101 160.411 18.8682 160.895 18.8682H164.523H160.895Z" fill="black"></path><path d="M173.23 26.367C173.23 26.6089 173.471 26.6089 173.471 26.6089C173.471 26.8508 173.23 26.8508 173.23 26.8508C172.988 26.8508 172.988 26.8508 172.988 26.6089L170.085 22.9804H169.118V26.6089C169.118 26.8508 168.876 26.8508 168.876 26.8508C168.634 26.8508 168.634 26.8508 168.634 26.6089V19.5938C168.634 19.3519 168.634 18.6262 169.602 18.6262H171.053C172.746 18.6262 173.471 19.5938 173.471 20.8033C173.471 21.7709 172.988 22.9804 171.053 22.9804L173.23 26.367ZM170.327 22.4966C170.811 22.4966 172.504 22.4966 172.504 20.8033C172.504 19.11 171.053 19.11 170.327 19.11H169.36C169.118 19.11 168.876 19.11 168.876 19.5938V22.4966H170.327Z" fill="black"></path><path d="M172.988 27.3346C172.746 27.3346 172.504 27.0927 172.504 27.0927L169.844 23.4642H169.36V26.6089C169.36 27.0927 169.118 27.3346 168.634 27.3346C168.151 27.3346 167.909 27.0927 167.909 26.6089V19.5939C167.909 18.6263 168.392 18.1425 169.118 18.1425H170.569C172.504 18.1425 173.23 19.352 173.23 20.8034C173.23 22.0128 172.746 22.9804 171.053 23.2223L173.23 26.1251L172.988 26.367L173.23 26.1251C173.23 26.367 173.472 26.367 173.472 26.6089C173.713 27.0927 173.471 27.3346 172.988 27.3346ZM168.634 22.7385H170.085L172.988 26.6089L173.23 26.367L172.988 26.6089L170.085 22.7385H170.569C172.504 22.7385 172.746 21.2872 172.746 20.8034C172.746 19.5939 172.02 18.8682 170.569 18.8682H169.118C168.634 18.8682 168.392 19.1101 168.392 19.5939V26.6089L168.634 22.7385ZM170.327 22.7385H168.634V19.5939C168.634 19.1101 168.876 18.8682 169.36 18.8682H170.327C170.811 18.8682 172.746 18.8682 172.746 20.8034C172.746 22.0128 172.02 22.7385 170.327 22.7385ZM169.36 22.2547H170.569C171.537 22.2547 172.504 22.0128 172.504 20.8034C172.504 19.5939 171.537 19.5939 170.569 19.5939H169.36V22.2547Z" fill="black"></path><path d="M182.662 18.6264C182.662 18.6264 182.662 18.3845 182.904 18.3845C183.146 18.3845 183.388 18.6264 183.388 18.6264V18.8683L180.244 26.6091C180.244 26.851 180.002 27.0929 179.76 27.0929C179.518 27.0929 179.034 26.851 179.034 26.6091L175.89 18.8683V18.6264C175.89 18.3845 176.132 18.3845 176.374 18.3845C176.616 18.3845 176.616 18.3845 176.616 18.6264L179.76 26.3672L182.662 18.6264Z" fill="black"></path><path d="M179.518 27.3347C179.034 27.3347 178.792 26.8509 178.792 26.8509L175.648 19.1101C175.648 19.1101 175.648 18.8682 175.648 18.6263C175.648 18.1425 175.89 17.9006 176.374 17.9006C176.857 17.9006 176.857 18.1425 176.857 18.3844L179.518 25.3995L182.178 18.3844H182.42L182.178 18.1425C182.178 18.1425 182.42 17.6587 182.662 17.6587C182.904 17.6587 183.387 17.9006 183.387 18.3844C183.387 18.6263 183.387 18.6263 183.387 18.8682L180.243 26.3671C180.485 26.8509 180.243 27.3347 179.518 27.3347ZM182.662 18.6263H182.904L179.76 26.609C179.76 26.609 179.76 26.609 180.001 26.3671L183.146 18.6263C183.146 18.6263 183.146 18.6263 183.146 18.3844L182.662 18.6263ZM176.374 18.6263C176.132 18.6263 176.132 18.8682 176.374 18.6263C176.132 18.8682 176.132 18.8682 176.374 18.6263L179.518 26.3671C179.518 26.3671 179.518 26.609 179.76 26.609L176.374 18.6263C176.374 18.6263 176.374 18.8682 176.374 18.6263Z" fill="black"></path><path d="M186.773 18.8681C186.773 18.6262 187.015 18.6262 187.015 18.6262C187.257 18.6262 187.257 18.8681 187.257 18.8681V26.6089C187.257 26.8508 187.015 26.8508 187.015 26.8508C186.773 26.8508 186.773 26.6089 186.773 26.6089V18.8681Z" fill="black"></path><path d="M187.016 27.3346C186.532 27.3346 186.29 27.0927 186.29 26.6089V18.8682C186.29 18.3844 186.532 18.1425 187.016 18.1425C187.499 18.1425 187.741 18.3844 187.741 18.8682V26.6089C187.741 27.0927 187.257 27.3346 187.016 27.3346ZM187.016 18.6263V26.6089V18.6263Z" fill="black"></path><path d="M191.127 22.7385C191.127 20.3195 192.82 18.3843 195.48 18.3843C196.448 18.3843 197.173 18.6262 197.657 18.8681C197.899 18.8681 197.899 19.11 197.899 19.11C197.899 19.3519 197.657 19.3519 197.657 19.3519C197.657 19.3519 197.415 19.3519 197.415 19.11C196.69 18.6262 195.964 18.6262 195.722 18.6262C193.546 18.6262 192.094 20.3195 192.094 22.2547C192.094 23.948 193.304 25.8832 195.964 25.8832C196.69 25.8832 197.173 25.6413 197.657 25.6413C197.657 25.6413 197.899 25.3994 198.141 25.3994C198.141 25.3994 198.383 25.3994 198.383 25.6413C198.383 25.8832 198.141 25.8832 198.141 25.8832C197.415 26.367 196.448 26.367 195.722 26.367C192.578 27.0927 191.127 25.1575 191.127 22.7385Z" fill="black"></path><path d="M195.48 27.3346C192.578 27.3346 190.643 25.3994 190.643 22.7385C190.643 20.0777 192.578 18.1425 195.238 18.1425C196.206 18.1425 196.931 18.3844 197.657 18.6263C197.899 18.8682 197.899 19.1101 197.899 19.1101C197.899 19.352 197.657 19.8358 197.173 19.8358C196.931 19.8358 196.931 19.8358 196.69 19.5939C196.448 19.352 195.722 19.352 195.48 19.352C193.545 19.352 192.094 20.8034 192.094 22.7385C192.094 24.4318 193.062 26.1251 195.48 26.1251C196.206 26.1251 196.69 25.8832 197.173 25.8832C197.415 25.6413 197.657 25.6413 197.657 25.6413C197.899 25.6413 198.141 25.8832 198.141 26.367C198.141 26.6089 198.141 26.8508 197.657 26.8508C196.931 27.3346 195.964 27.3346 195.48 27.3346ZM195.48 18.6263C193.062 18.6263 191.369 20.3196 191.369 22.7385C191.369 24.6737 192.578 26.8508 195.48 26.8508C195.964 26.8508 196.931 26.8508 197.657 26.367H197.415C196.931 26.6089 196.448 26.6089 195.48 26.6089C192.578 26.6089 191.369 24.4318 191.369 22.7385C191.369 20.3196 193.062 18.8682 195.48 18.6263C195.964 18.6263 196.69 18.6263 197.415 19.1101C196.931 18.8682 196.206 18.6263 195.48 18.6263Z" fill="black"></path><path d="M205.639 22.2547C205.88 22.2547 205.88 22.4966 205.88 22.4966C205.88 22.7385 205.88 22.7385 205.639 22.7385H202.011V25.6413C202.011 25.8832 202.253 26.1251 202.494 26.1251H206.122C206.364 26.1251 206.364 26.367 206.364 26.367C206.364 26.6089 206.364 26.6089 206.122 26.6089H202.253C201.285 26.6089 201.285 25.8832 201.285 25.6413V19.5938C201.285 19.3519 201.285 18.6262 202.253 18.6262H205.88C206.122 18.6262 206.122 18.8681 206.122 18.8681C206.122 19.11 206.122 19.11 205.88 19.11H202.253C202.011 19.11 201.769 19.11 201.769 19.5938V22.2547H205.639V22.2547Z" fill="black"></path><path d="M206.122 27.0927H202.252C201.527 27.0927 201.043 26.6089 201.043 25.6413V19.5939C201.043 18.6263 201.527 18.1425 202.252 18.1425H205.88C206.364 18.1425 206.606 18.3844 206.606 18.8682C206.606 19.1101 206.364 19.5939 205.88 19.5939H202.252V22.0128H205.638C206.122 22.0128 206.122 22.2547 206.122 22.7385C206.122 23.2223 205.88 23.4642 205.638 23.4642H202.252V26.1251H205.88C206.364 26.1251 206.606 26.367 206.606 26.8508C206.606 26.8508 206.364 27.0927 206.122 27.0927ZM202.252 18.8682C201.769 18.8682 201.527 19.1101 201.527 19.5939V25.8832C201.527 26.367 201.527 26.6089 202.252 26.6089H206.122H202.494C202.252 26.6089 201.769 26.6089 201.769 25.8832V22.4966H205.638H201.769V19.5939C201.769 19.1101 202.01 18.8682 202.252 18.8682H205.88H202.252Z" fill="black"></path><path d="M161.863 80.0686C161.863 79.8267 162.105 79.8267 162.105 79.8267C162.347 79.8267 162.347 80.0686 162.347 80.0686V87.5675C162.347 87.8094 162.347 88.2932 161.621 88.2932C161.379 88.2932 161.138 88.0513 160.896 87.8094L155.817 80.3105V87.8094C155.817 88.0513 155.575 88.0513 155.575 88.0513C155.333 88.0513 155.333 88.0513 155.333 87.8094V80.3105C155.333 80.0686 155.333 79.5848 156.059 79.5848C156.3 79.5848 156.542 79.8267 156.784 80.0686L161.863 87.5675V80.0686Z" fill="black"></path><path d="M162.105 88.5352C161.621 88.5352 161.379 88.2933 161.137 87.8095L156.542 81.2782V87.8095C156.542 88.2933 156.3 88.5352 155.816 88.5352C155.333 88.5352 155.091 88.2933 155.091 87.8095V80.3106C155.091 80.0687 155.091 79.1011 156.058 79.1011C156.542 79.1011 156.784 79.343 157.026 79.8268L161.621 86.3581V79.8268C161.621 79.343 161.863 79.1011 162.347 79.1011C162.83 79.1011 163.072 79.343 163.072 79.8268V87.3257C162.83 87.8095 162.83 88.5352 162.105 88.5352ZM155.816 80.0687C155.816 80.0687 155.816 80.3106 155.816 80.5525V88.0514V80.0687ZM156.3 80.0687L161.621 87.8095C161.863 88.0514 161.863 88.0514 161.863 88.0514L156.542 80.3106C156.542 80.0687 156.3 80.0687 156.3 80.0687ZM162.347 79.8268V87.8095C162.347 87.8095 162.347 87.5676 162.347 87.3257V79.8268Z" fill="black"></path><path d="M167.426 85.3905L166.458 87.8095C166.458 88.0514 166.459 88.0514 166.217 88.0514C165.975 88.0514 165.733 88.0514 165.733 87.8095V87.5676L168.877 79.8268C168.877 79.5849 169.119 79.343 169.361 79.343C169.844 79.343 169.845 79.5849 169.845 79.8268L172.747 87.5676V87.8095C172.747 88.0514 172.505 88.0514 172.263 88.0514C172.021 88.0514 172.021 87.8095 172.021 87.8095L171.054 85.3905H167.426ZM171.054 84.9067L169.361 80.5525L167.668 84.9067H171.054Z" fill="black"></path><path d="M172.747 88.5352C172.263 88.5352 172.263 88.2933 172.021 88.0514L171.054 85.6324H167.426L166.458 87.8095C166.458 88.0514 166.217 88.2933 165.733 88.2933C165.491 88.2933 165.007 88.0514 165.007 87.5676V87.3257L168.151 79.585C168.393 79.1012 168.635 78.8593 168.877 78.8593C169.361 78.8593 169.603 79.1012 169.603 79.585L172.505 87.3257C172.505 87.5676 172.505 87.5676 172.505 87.8095C173.472 88.2933 172.989 88.5352 172.747 88.5352ZM167.184 85.1486H171.537L172.505 87.8095L169.361 80.0688C169.361 80.0688 169.361 79.8269 169.119 79.8269L171.054 85.1486H167.184L169.119 79.8269C169.119 79.8269 169.119 79.8269 168.877 80.0688L165.733 87.8095V88.0514L167.184 85.1486ZM168.151 84.6648H170.812L169.603 81.2782L168.151 84.6648Z" fill="black"></path><path d="M182.421 79.8269C182.421 79.8269 182.421 79.585 182.663 79.585C182.904 79.585 183.146 79.8269 183.146 79.8269V80.0688L180.002 87.8095C180.002 88.0514 179.76 88.2933 179.518 88.2933C179.277 88.2933 179.035 88.0514 179.035 87.8095L175.891 80.0688V79.8269C175.891 79.585 176.132 79.585 176.374 79.585C176.616 79.585 176.616 79.585 176.616 79.8269L179.76 87.5676L182.421 79.8269Z" fill="black"></path><path d="M179.276 88.5352C178.793 88.5352 178.551 88.0514 178.551 88.0514L175.407 80.3107C175.407 80.3107 175.407 80.0688 175.407 79.8269C175.407 79.3431 175.649 79.1012 176.132 79.1012C176.616 79.1012 176.616 79.3431 176.616 79.585L179.276 86.6L181.937 79.585H182.179L181.937 79.3431C181.937 79.3431 182.179 78.8593 182.421 78.8593C182.662 78.8593 183.146 79.1012 183.146 79.585C183.146 79.8269 183.146 79.8269 183.146 80.0688L180.002 87.5676C180.244 88.0514 180.002 88.5352 179.276 88.5352ZM182.421 79.8269H182.662L179.518 87.8095C179.518 87.8095 179.518 87.8095 179.76 87.5676L182.904 79.8269C182.904 79.8269 182.904 79.8269 182.904 79.585L182.421 79.8269ZM175.89 79.8269C175.89 79.8269 175.89 80.0688 175.89 79.8269C175.89 80.0688 175.89 80.0688 175.89 79.8269L179.035 87.5676C179.035 87.5676 179.035 87.8095 179.276 87.8095L175.89 79.8269C176.132 79.8269 176.132 80.0688 175.89 79.8269Z" fill="black"></path><path d="M186.532 80.0688C186.532 79.8269 186.774 79.8269 186.774 79.8269C187.016 79.8269 187.016 80.0688 187.016 80.0688V88.0515C187.016 88.2934 186.774 88.2934 186.774 88.2934C186.532 88.2934 186.532 88.0515 186.532 88.0515V80.0688Z" fill="black"></path><path d="M186.774 88.5352C186.291 88.5352 186.049 88.2933 186.049 87.8095V79.8268C186.049 79.343 186.291 79.1011 186.774 79.1011C187.258 79.1011 187.5 79.343 187.5 79.8268V87.8095C187.5 88.2933 187.016 88.5352 186.774 88.5352ZM186.774 79.8268V87.8095V79.8268Z" fill="black"></path><path d="M46.2544 14.7559H18.6826V29.2698H46.2544V14.7559Z" fill="black"></path><path d="M192.337 51.2826H149.044V75.2306H192.337V51.2826Z" fill="black"></path><path d="M106.235 80.0686C106.235 79.8267 106.477 79.8267 106.477 79.8267C106.719 79.8267 106.719 80.0686 106.719 80.0686V87.5675C106.719 87.8094 106.719 88.2932 105.993 88.2932C105.751 88.2932 105.51 88.0513 105.268 87.8094L100.189 80.3105V87.8094C100.189 88.0513 99.9469 88.0513 99.9469 88.0513C99.705 88.0513 99.7051 88.0513 99.7051 87.8094V80.3105C99.7051 80.0686 99.705 79.5848 100.431 79.5848C100.672 79.5848 100.914 79.8267 101.156 80.0686L106.235 87.5675V80.0686Z" fill="black"></path><path d="M106.236 88.5352C105.752 88.5352 105.51 88.2933 105.268 87.8095L100.673 81.2782V87.8095C100.673 88.2933 100.431 88.5352 99.9472 88.5352C99.4635 88.5352 99.2217 88.2933 99.2217 87.8095V80.3106C99.2217 80.0687 99.2217 79.1011 100.189 79.1011C100.673 79.1011 100.915 79.343 101.157 79.8268L105.752 86.3581V79.8268C105.752 79.343 105.994 79.1011 106.477 79.1011C106.961 79.1011 107.203 79.343 107.203 79.8268V87.3257C107.203 87.8095 107.203 88.5352 106.236 88.5352ZM100.189 80.0687C100.189 80.0687 100.189 80.3106 100.189 80.5525V88.0514V80.0687ZM100.673 80.0687L105.994 87.8095C106.236 88.0514 106.236 88.0514 106.236 88.0514L100.915 80.3106C100.673 80.0687 100.673 80.0687 100.673 80.0687ZM106.477 79.8268V87.8095C106.477 87.8095 106.477 87.5676 106.477 87.3257V79.8268Z" fill="black"></path><path d="M111.799 85.3905L110.831 87.8095C110.831 88.0514 110.831 88.0514 110.589 88.0514C110.347 88.0514 110.105 88.0514 110.105 87.8095V87.5676L113.25 79.8268C113.25 79.5849 113.492 79.343 113.733 79.343C114.217 79.343 114.217 79.5849 114.217 79.8268L117.119 87.5676V87.8095C117.119 88.0514 116.878 88.0514 116.636 88.0514C116.394 88.0514 116.394 87.8095 116.394 87.8095L115.426 85.3905H111.799ZM115.426 84.9067L113.733 80.5525L112.04 84.9067H115.426Z" fill="black"></path><path d="M117.119 88.5352C116.636 88.5352 116.636 88.2933 116.394 88.0514L115.426 85.6324H111.798L110.831 87.8095C110.831 88.0514 110.589 88.2933 110.105 88.2933C109.864 88.2933 109.38 88.0514 109.38 87.5676V87.3257L112.524 79.585C112.766 79.1012 113.008 78.8593 113.25 78.8593C113.733 78.8593 113.975 79.1012 113.975 79.585L116.877 87.3257C116.877 87.5676 116.877 87.5676 116.877 87.8095C117.603 88.2933 117.361 88.5352 117.119 88.5352ZM111.557 85.1486H115.91L116.877 87.8095L113.733 80.0688C113.733 80.0688 113.733 79.8269 113.491 79.8269L115.426 85.1486H111.557L113.491 79.8269C113.491 79.8269 113.491 79.8269 113.25 80.0688L110.105 87.8095V88.0514L111.557 85.1486ZM112.524 84.6648H115.184L113.975 81.2782L112.524 84.6648Z" fill="black"></path><path d="M126.793 79.8269C126.793 79.8269 126.793 79.585 127.035 79.585C127.277 79.585 127.518 79.8269 127.518 79.8269V80.0688L124.374 87.8095C124.374 88.0514 124.132 88.2933 123.891 88.2933C123.649 88.2933 123.407 88.0514 123.407 87.8095L120.263 80.0688V79.8269C120.263 79.585 120.505 79.585 120.746 79.585C120.988 79.585 120.988 79.585 120.988 79.8269L124.132 87.5676L126.793 79.8269Z" fill="black"></path><path d="M123.649 88.5352C123.165 88.5352 122.923 88.0514 122.923 88.0514L119.779 80.3107C119.779 80.3107 119.779 80.0688 119.779 79.8269C119.779 79.3431 120.021 79.1012 120.505 79.1012C120.989 79.1012 120.989 79.3431 120.989 79.585L123.649 86.6L126.31 79.585H126.551L126.31 79.3431C126.31 79.3431 126.551 78.8593 126.793 78.8593C127.035 78.8593 127.519 79.1012 127.519 79.585C127.519 79.8269 127.519 79.8269 127.519 80.0688L124.375 87.5676C124.375 88.0514 124.375 88.5352 123.649 88.5352ZM126.793 79.8269H127.035L123.891 87.8095C123.891 87.8095 123.891 87.8095 124.133 87.5676L127.277 79.8269C127.277 79.8269 127.277 79.8269 127.277 79.585L126.793 79.8269ZM120.263 79.8269C120.263 79.8269 120.263 80.0688 120.263 79.8269C120.263 80.0688 120.263 80.0688 120.263 79.8269L123.407 87.5676C123.407 87.5676 123.407 87.8095 123.649 87.8095L120.263 79.8269C120.263 79.8269 120.263 80.0688 120.263 79.8269Z" fill="black"></path><path d="M130.664 80.0688C130.664 79.8269 130.905 79.8269 130.905 79.8269C131.147 79.8269 131.147 80.0688 131.147 80.0688V88.0515C131.147 88.2934 130.905 88.2934 130.905 88.2934C130.664 88.2934 130.664 88.0515 130.664 88.0515V80.0688Z" fill="black"></path><path d="M131.147 88.5352C130.663 88.5352 130.421 88.2933 130.421 87.8095V79.8268C130.421 79.343 130.663 79.1011 131.147 79.1011C131.631 79.1011 131.872 79.343 131.872 79.8268V87.8095C131.872 88.2933 131.389 88.5352 131.147 88.5352ZM131.147 79.8268V87.8095V79.8268Z" fill="black"></path><path d="M136.709 51.2826H93.417V75.2306H136.709V51.2826Z" fill="black"></path><path d="M234.178 37.9781H3.2041V42.8161H234.178V37.9781Z" fill="black"></path><path d="M211.443 101.356H76.7285V37.9781H211.443V101.356ZM81.5657 96.5178H206.606V42.8161H81.5657V96.5178Z" fill="black"></path></svg> 