<?xml version="1.0" encoding="UTF-8"?> <svg xmlns="http://www.w3.org/2000/svg" width="237" height="224" viewBox="0 0 237 224" fill="none"><path d="M104.728 147.95C104.728 147.708 104.97 147.708 104.97 147.708C105.211 147.708 105.211 147.95 105.211 147.95V155.449C105.211 155.691 105.211 156.174 104.486 156.174C104.244 156.174 104.002 155.933 103.76 155.691L98.6812 148.192V155.691C98.6812 155.933 98.4394 155.933 98.4394 155.933C98.1975 155.933 98.1975 155.933 98.1975 155.691V148.192C98.1975 147.95 98.1975 147.466 98.9231 147.466C99.1649 147.466 99.4068 147.708 99.6487 147.95L104.728 155.449V147.95Z" fill="black"></path><path d="M104.728 156.416C104.244 156.416 104.002 156.174 103.76 155.691L99.165 149.159V155.691C99.165 156.174 98.9232 156.416 98.4394 156.416C97.9557 156.416 97.7139 156.174 97.7139 155.691V148.192C97.7139 147.95 97.7139 146.982 98.6813 146.982C99.165 146.982 99.4069 147.224 99.6487 147.708L104.244 154.239V147.95C104.244 147.466 104.486 147.224 104.97 147.224C105.453 147.224 105.695 147.466 105.695 147.95V155.449C105.695 155.691 105.695 156.416 104.728 156.416ZM98.6813 147.95C98.6813 147.95 98.6813 148.192 98.6813 148.434V155.933V147.95ZM99.165 147.708L104.486 155.449C104.728 155.691 104.728 155.691 104.728 155.691L99.4069 147.95C99.165 147.95 99.165 147.95 99.165 147.708ZM104.97 147.708V155.691C104.97 155.691 104.97 155.449 104.97 155.207V147.708Z" fill="black"></path><path d="M110.29 153.272L109.323 155.691C109.323 155.933 109.323 155.933 109.081 155.933C108.839 155.933 108.597 155.933 108.597 155.691V155.449L111.742 147.95C111.742 147.708 111.983 147.466 112.225 147.466C112.709 147.466 112.709 147.708 112.709 147.95L115.611 155.691V155.933C115.611 156.174 115.369 156.174 115.128 156.174C114.886 156.174 114.886 155.933 114.886 155.933L113.918 153.514H110.29V153.272ZM113.918 152.788L112.225 148.434L110.532 152.788H113.918Z" fill="black"></path><path d="M115.611 156.416C115.128 156.416 115.128 156.174 114.886 155.933L113.918 153.514H110.29L109.323 155.691C109.323 155.933 109.081 156.174 108.597 156.174C108.356 156.174 107.872 155.933 107.872 155.449V155.207L111.016 147.466C111.258 146.982 111.5 146.74 111.742 146.74C112.225 146.74 112.467 146.982 112.467 147.466L115.369 155.207C115.369 155.449 115.369 155.449 115.369 155.691C116.095 156.174 115.853 156.416 115.611 156.416ZM110.049 153.03H114.402L115.369 155.691L112.225 147.95C112.225 147.95 112.225 147.708 111.983 147.708L113.918 153.03H110.049L111.983 147.708C111.983 147.708 111.983 147.708 111.742 147.95L108.597 155.691V155.933L110.049 153.03ZM111.016 152.304H113.676L112.467 148.917L111.016 152.304Z" fill="black"></path><path d="M125.285 147.708C125.285 147.708 125.285 147.466 125.527 147.466C125.769 147.466 126.011 147.708 126.011 147.708V147.95L122.867 155.691C122.867 155.933 122.625 156.174 122.383 156.174C122.141 156.174 121.899 155.933 121.899 155.691L118.755 147.95V147.708C118.755 147.466 118.997 147.466 119.239 147.466C119.481 147.466 119.481 147.466 119.481 147.708L122.625 155.449L125.285 147.708Z" fill="black"></path><path d="M122.141 156.416C121.658 156.416 121.416 155.933 121.416 155.933L118.272 148.192C118.272 148.192 118.272 147.95 118.272 147.708C118.272 147.224 118.514 146.982 118.997 146.982C119.481 146.982 119.481 147.224 119.481 147.466L122.141 154.481L124.802 147.466H125.044L124.802 147.224C124.802 147.224 125.044 146.74 125.286 146.74C125.527 146.74 126.011 146.982 126.011 147.466C126.011 147.708 126.011 147.708 126.011 147.95L122.867 155.691C122.867 155.933 122.867 156.416 122.141 156.416ZM125.286 147.708H125.527L122.383 155.691C122.383 155.691 122.383 155.691 122.625 155.449L125.769 147.708C125.769 147.708 125.769 147.708 125.769 147.466L125.286 147.708ZM118.755 147.708C118.755 147.95 118.755 147.95 118.755 147.708L121.9 155.449C121.9 155.449 121.9 155.691 122.141 155.691L118.755 147.708Z" fill="black"></path><path d="M129.155 147.95C129.155 147.708 129.397 147.466 129.397 147.466C129.639 147.466 129.639 147.708 129.639 147.95V155.933C129.639 156.174 129.397 156.416 129.397 156.416C129.155 156.416 129.155 156.174 129.155 155.933V147.95Z" fill="black"></path><path d="M129.639 156.416C129.155 156.416 128.913 156.174 128.913 155.691V147.95C128.913 147.466 129.155 147.224 129.639 147.224C130.123 147.224 130.365 147.466 130.365 147.95V155.933C130.365 156.174 129.881 156.416 129.639 156.416ZM129.639 147.708V155.691V147.708Z" fill="black"></path><path d="M135.686 119.164H92.3931V143.112H135.686V119.164Z" fill="black"></path><path d="M104.728 99.328C104.728 99.0861 104.97 99.0862 104.97 99.0862C105.211 99.0862 105.211 99.328 105.211 99.328V106.827C105.211 107.069 105.211 107.553 104.486 107.553C104.244 107.553 104.002 107.311 103.76 107.069L98.6812 99.5699V107.069C98.6812 107.311 98.4394 107.311 98.4394 107.311C98.1975 107.311 98.1975 107.311 98.1975 107.069V99.5699C98.1975 99.328 98.1975 98.8442 98.9231 98.8442C99.1649 98.8442 99.4068 99.0861 99.6487 99.328L104.728 106.827V99.328Z" fill="black"></path><path d="M104.728 108.036C104.244 108.036 104.002 107.794 103.76 107.311L99.165 100.779V107.311C99.165 107.794 98.9232 108.036 98.4394 108.036C97.9557 108.036 97.7139 107.794 97.7139 107.311V99.8118C97.7139 99.5699 97.7139 98.6023 98.6813 98.6023C99.165 98.6023 99.4069 98.8442 99.6487 99.328L104.244 105.859V99.328C104.244 98.8442 104.486 98.6023 104.97 98.6023C105.453 98.6023 105.695 98.8442 105.695 99.328V106.827C105.695 107.069 105.695 108.036 104.728 108.036ZM98.6813 99.328C98.6813 99.328 98.6813 99.5699 98.6813 99.8118V107.311V99.328ZM99.165 99.328L104.486 107.069C104.728 107.311 104.728 107.311 104.728 107.311L99.4069 99.5699C99.165 99.5699 99.165 99.328 99.165 99.328ZM104.97 99.328V107.311C104.97 107.311 104.97 107.069 104.97 106.827V99.328Z" fill="black"></path><path d="M110.29 104.892L109.323 107.311C109.323 107.553 109.323 107.553 109.081 107.553C108.839 107.553 108.597 107.553 108.597 107.311V107.069L111.742 99.57C111.742 99.3281 111.983 99.0862 112.225 99.0862C112.709 99.0862 112.709 99.3281 112.709 99.57L115.611 107.311V107.553C115.611 107.795 115.369 107.794 115.128 107.794C114.886 107.794 114.886 107.553 114.886 107.553L113.918 105.134H110.29V104.892ZM113.918 104.408L112.225 100.054L110.532 104.408H113.918Z" fill="black"></path><path d="M115.611 108.036C115.128 108.036 115.128 107.795 114.886 107.553L113.918 105.134H110.29L109.323 107.311C109.323 107.553 109.081 107.795 108.597 107.795C108.356 107.795 107.872 107.553 107.872 107.069V106.827L111.016 99.0862C111.258 98.6024 111.5 98.3605 111.742 98.3605C112.225 98.3605 112.467 98.6024 112.467 99.0862L115.369 106.827C115.369 107.069 115.369 107.069 115.369 107.311C116.095 107.795 115.853 108.036 115.611 108.036ZM110.049 104.65H114.402L115.369 107.311L112.225 99.57C112.225 99.57 112.225 99.3281 111.983 99.3281L113.918 104.65H110.049L111.983 99.3281C111.983 99.3281 111.983 99.3281 111.742 99.57L108.597 107.311V107.553L110.049 104.65ZM111.016 103.924H113.676L112.467 100.538L111.016 103.924Z" fill="black"></path><path d="M125.285 99.3281C125.285 99.3281 125.285 99.0862 125.527 99.0862C125.769 99.0862 126.011 99.3281 126.011 99.3281V99.57L122.867 107.311C122.867 107.553 122.625 107.794 122.383 107.794C122.141 107.794 121.899 107.553 121.899 107.311L118.755 99.57V99.3281C118.755 99.0862 118.997 99.0862 119.239 99.0862C119.481 99.0862 119.481 99.0862 119.481 99.3281L122.625 107.069L125.285 99.3281Z" fill="black"></path><path d="M122.141 108.036C121.658 108.036 121.416 107.553 121.416 107.553L118.272 99.8119C118.272 99.8119 118.272 99.57 118.272 99.3281C118.272 98.8443 118.514 98.6024 118.997 98.6024C119.481 98.6024 119.481 98.8443 119.481 99.0862L122.141 106.101L124.802 99.0862H125.044L124.802 98.8443C124.802 98.8443 125.044 98.3605 125.286 98.3605C125.527 98.3605 126.011 98.6024 126.011 99.0862C126.011 99.3281 126.011 99.3281 126.011 99.57L122.867 107.069C122.867 107.553 122.867 108.036 122.141 108.036ZM125.286 99.3281H125.527L122.383 107.311C122.383 107.311 122.383 107.311 122.625 107.069L125.769 99.3281C125.769 99.3281 125.769 99.3281 125.769 99.0862L125.286 99.3281ZM118.755 99.3281L121.9 107.069C121.9 107.069 121.9 107.311 122.141 107.311L118.755 99.3281Z" fill="black"></path><path d="M129.155 99.3281C129.155 99.0862 129.397 99.0862 129.397 99.0862C129.639 99.0862 129.639 99.3281 129.639 99.3281V107.311C129.639 107.553 129.397 107.553 129.397 107.553C129.155 107.553 129.155 107.311 129.155 107.311V99.3281Z" fill="black"></path><path d="M129.639 108.036C129.155 108.036 128.913 107.794 128.913 107.311V99.328C128.913 98.8442 129.155 98.6023 129.639 98.6023C130.123 98.6023 130.365 98.8442 130.365 99.328V107.311C130.365 107.794 129.881 108.036 129.639 108.036ZM129.639 99.328V107.311V99.328Z" fill="black"></path><path d="M135.686 70.7839H92.3931V94.732H135.686V70.7839Z" fill="black"></path><path d="M147.779 223.664H80.3003V1.35889H147.779V223.664ZM85.1374 218.826H142.941V6.19688H85.1374V218.826Z" fill="black"></path><path d="M227.35 223.664H9.67789C4.59888 223.664 0.487305 219.552 0.487305 214.472V10.0672C0.487305 4.9873 4.59888 0.875 9.67789 0.875H227.35C232.429 0.875 236.54 4.9873 236.54 10.0672V214.472C236.54 219.552 232.429 223.664 227.35 223.664ZM9.67789 5.71299C7.25931 5.71299 5.32446 7.64819 5.32446 10.0672V214.472C5.32446 216.891 7.25931 218.826 9.67789 218.826H227.35C229.768 218.826 231.703 216.891 231.703 214.472V10.0672C231.703 7.64819 229.768 5.71299 227.35 5.71299H9.67789Z" fill="black"></path><path d="M20.0779 60.6242C20.0779 60.8661 19.836 60.8661 19.836 60.8661C19.5942 60.8661 19.5942 60.8661 19.5942 60.6242V53.1253H16.9337C16.6919 53.1253 16.6919 52.8834 16.6919 52.8834C16.6919 52.6415 16.6919 52.6415 16.9337 52.6415H22.9802C23.222 52.6415 23.222 52.8834 23.222 52.8834C23.222 53.1253 23.222 53.1253 22.9802 53.1253H20.3198V60.6242H20.0779Z" fill="black"></path><path d="M19.836 61.108C19.3523 61.108 19.1105 60.8661 19.1105 60.3823V53.1252H16.6919C16.45 53.1252 15.9663 52.8833 15.9663 52.3995C15.9663 51.9157 16.2082 51.6738 16.6919 51.6738H22.7383C23.222 51.6738 23.4639 51.9157 23.4639 52.3995C23.4639 52.6414 23.222 53.1252 22.7383 53.1252H20.3197V60.3823C20.5616 60.8661 20.0779 61.108 19.836 61.108ZM16.6919 52.6415H19.5942V60.3823V52.6415H22.4964H16.6919Z" fill="black"></path><path d="M30.236 52.1577C32.6546 52.1577 34.5894 53.851 34.5894 56.5119C34.5894 58.9309 32.6546 60.8661 30.236 60.8661C27.8174 60.8661 25.8826 59.1728 25.8826 56.5119C25.8826 54.0929 27.8174 52.1577 30.236 52.1577ZM30.236 60.1404C32.1709 60.1404 33.8639 58.4471 33.8639 56.5119C33.8639 54.5767 32.4127 52.8834 30.236 52.8834C28.3011 52.8834 26.6081 54.5767 26.6081 56.5119C26.6081 58.689 28.3011 60.1404 30.236 60.1404Z" fill="black"></path><path d="M30.2359 61.108C27.5755 61.108 25.6406 59.1728 25.6406 56.5119C25.6406 53.851 27.5755 51.9158 30.2359 51.9158C32.8963 51.9158 34.8312 53.851 34.8312 56.5119C34.8312 59.1728 32.8963 61.108 30.2359 61.108ZM30.2359 52.6415C27.8173 52.6415 26.1243 54.3348 26.1243 56.7538C26.1243 58.9309 27.8173 60.8661 30.2359 60.8661C32.6545 60.8661 34.3475 59.1728 34.3475 56.7538C34.3475 54.3348 32.6545 52.6415 30.2359 52.6415ZM30.2359 60.6241C28.0592 60.6241 26.3662 58.9309 26.3662 56.7538C26.3662 54.5767 28.0592 52.6415 30.2359 52.6415C32.4126 52.6415 34.1056 54.3348 34.1056 56.7538C34.1056 58.689 32.4126 60.6241 30.2359 60.6241ZM30.2359 53.1253C28.3011 53.1253 26.8499 54.5767 26.8499 56.5119C26.8499 58.4471 28.3011 59.8985 30.2359 59.8985C32.1708 59.8985 33.6219 58.4471 33.6219 56.5119C33.6219 54.5767 32.1708 53.1253 30.2359 53.1253Z" fill="black"></path><path d="M38.701 60.6242C38.701 60.8661 38.4591 60.8661 38.4591 60.8661C38.2173 60.8661 38.2173 60.8661 38.2173 60.6242V53.6091C38.2173 53.3672 38.2173 52.6415 39.1847 52.6415H40.394C41.1196 52.6415 41.6033 52.6415 42.087 52.8834C43.0544 53.3672 43.2963 54.5767 43.2963 55.0605C43.2963 55.7862 43.0544 56.7538 42.087 57.2376C41.6033 57.4795 41.1196 57.4795 40.394 57.4795H38.9429V60.6242H38.701ZM39.9103 56.5119C40.6359 56.5119 42.087 56.5119 42.087 54.8186C42.087 53.1253 40.6359 53.1253 39.9103 53.1253H39.1847C38.9429 53.1253 38.701 53.1253 38.701 53.6091V56.7538H39.9103V56.5119Z" fill="black"></path><path d="M38.4592 61.108C37.9755 61.108 37.7336 60.8661 37.7336 60.3823V53.3671C37.7336 52.3995 38.2174 51.9158 38.9429 51.9158H40.1522C40.8778 51.9158 41.3615 51.9157 42.0871 52.1576C43.2963 52.8833 43.2963 54.0928 43.2963 54.5766C43.2963 55.7861 42.8126 56.5118 42.0871 56.9956C41.6034 57.2375 40.8778 57.2376 40.1522 57.2376H39.1848V60.3823C38.9429 60.8661 38.7011 61.108 38.4592 61.108ZM38.9429 52.6415C38.4592 52.6415 38.2173 52.8833 38.2173 53.3671V60.3823V56.7538H39.9103C40.3941 56.7538 40.8778 56.7538 41.3615 56.5119C42.0871 56.27 42.3289 55.5442 42.3289 54.5766C42.3289 54.0928 42.0871 53.1253 41.3615 52.8834C40.8778 52.6415 40.3941 52.6415 39.9103 52.6415H38.9429V52.6415ZM39.9103 56.9956H38.4592V53.6091C38.4592 53.1253 38.7011 52.8834 39.1848 52.8834H39.9103C40.6359 52.8834 42.5708 52.8834 42.5708 55.0605C42.5708 56.9957 40.8778 56.9956 39.9103 56.9956ZM38.9429 56.27H39.9103C40.8778 56.27 41.8452 56.27 41.8452 54.8186C41.8452 53.3672 40.8778 53.3671 39.9103 53.3671H39.1848V56.27H38.9429Z" fill="black"></path><path d="M18.143 86.2655L17.1755 88.6845C17.1755 88.9264 17.1755 88.9265 16.9337 88.9265C16.6918 88.9265 16.45 88.9264 16.45 88.6845V88.4426L19.5941 80.7018C19.5941 80.4599 19.836 80.218 20.0778 80.218C20.5615 80.218 20.5615 80.4599 20.5615 80.7018L23.4638 88.4426V88.6845C23.4638 88.9264 23.222 88.9265 22.9801 88.9265C22.7382 88.9265 22.7383 88.6845 22.7383 88.6845L21.7708 86.2655H18.143ZM22.0127 85.7817L20.3197 81.4275L18.6267 85.7817H22.0127Z" fill="black"></path><path d="M23.4638 89.4102C22.9801 89.4102 22.9801 89.1683 22.7382 88.9264L21.7708 86.7493H18.1429L17.1755 88.9264C17.1755 89.1683 16.9337 89.4102 16.4499 89.4102C16.2081 89.4102 15.7244 89.1683 15.7244 88.6845V88.4426L18.8685 80.7018C19.1104 80.218 19.3522 80.218 19.5941 80.218C20.0778 80.218 20.3197 80.4599 20.3197 80.7018L23.222 88.4426C23.222 88.6845 23.222 88.6845 23.222 88.9264C24.1894 89.1683 23.7057 89.4102 23.4638 89.4102ZM17.9011 86.0236H22.2545L23.222 88.6845L20.0778 80.9437C20.0778 80.9437 20.0778 80.7018 19.8359 80.7018L21.7708 86.0236H17.9011L19.8359 80.7018C19.8359 80.7018 19.8359 80.7018 19.5941 80.9437L16.4499 88.6845V88.9264L17.9011 86.0236ZM18.8685 85.5398H21.5289L20.3197 82.1532L18.8685 85.5398Z" fill="black"></path><path d="M28.059 88.9264C27.0916 88.9264 27.0916 88.2007 27.0916 87.9588V81.6694C27.0916 81.4275 27.0916 80.7018 28.059 80.7018H29.5101C30.2357 80.7018 32.1706 80.7018 32.1706 82.637C32.1706 83.8465 31.445 84.3303 30.9613 84.5722C31.445 84.8141 32.4124 85.056 32.4124 86.7493C32.4124 88.9264 30.2357 88.9264 29.5101 88.9264H28.059V88.9264ZM29.5101 84.3303C29.9938 84.3303 31.445 84.3303 31.445 82.8789C31.445 81.4275 30.2357 81.4275 29.2683 81.4275H28.059C27.8171 81.4275 27.5753 81.4275 27.5753 81.9113V84.5722H29.5101V84.3303ZM27.5753 87.9588C27.5753 88.2007 27.8171 88.4426 28.059 88.4426H29.5101C30.2357 88.4426 31.9287 88.4426 31.9287 86.7493C31.9287 85.056 30.2357 85.056 29.752 85.056H27.8171V87.9588H27.5753Z" fill="black"></path><path d="M29.5102 89.1683H27.8172C27.0916 89.1683 26.6079 88.6845 26.6079 87.7169V81.4275C26.6079 80.4599 27.0916 79.9761 27.8172 79.9761H29.5102C30.2358 79.9761 32.6543 79.9761 32.6543 82.3951C32.6543 83.3627 32.1706 83.8465 31.6869 84.3303C32.1706 84.5722 32.8962 85.2979 32.8962 86.5074C32.8962 88.4426 31.6869 89.1683 29.5102 89.1683ZM28.0591 80.9437C27.5753 80.9437 27.3335 81.1856 27.3335 81.6694V87.9588C27.3335 88.4426 27.3335 88.6845 28.0591 88.6845H29.5102C30.7195 88.6845 32.1706 88.4426 32.1706 86.7493C32.1706 86.0236 31.9288 85.5398 31.6869 85.2979C31.9288 85.5398 32.1706 86.0236 32.1706 86.7493C32.1706 88.6845 30.2358 88.6845 29.5102 88.6845H28.0591C27.8172 88.6845 27.3335 88.6845 27.3335 87.9588V81.6694C27.3335 81.1856 27.5753 80.9437 28.0591 80.9437H29.5102C30.4776 80.9437 31.9288 80.9437 31.9288 82.637C31.9288 82.8789 31.9288 83.3627 31.6869 83.6046C31.9288 83.3627 31.9288 83.1208 31.9288 82.3951C31.9288 80.9437 30.7195 80.7018 29.5102 80.7018H28.0591V80.9437ZM28.0591 87.9588H29.5102C30.4776 87.9588 31.6869 87.9588 31.6869 86.7493C31.6869 85.5398 30.7195 85.2979 29.7521 85.2979H28.0591V87.9588ZM29.7521 84.5722C29.9939 84.5722 29.9939 84.5722 30.2358 84.5722L30.4776 84.3303C30.2358 84.5722 29.9939 84.5722 29.7521 84.5722ZM28.0591 84.0884H29.5102C30.2358 84.0884 31.2032 83.8465 31.2032 82.8789C31.2032 81.9113 30.4776 81.6694 29.2683 81.6694H28.0591V84.0884V84.0884Z" fill="black"></path><path d="M39.9103 80.46C42.3289 80.46 44.2637 82.1532 44.2637 84.8141C44.2637 87.2331 42.3289 89.1683 39.9103 89.1683C37.4917 89.1683 35.5569 87.475 35.5569 84.8141C35.5569 82.3951 37.4917 80.46 39.9103 80.46ZM39.9103 88.4426C41.8452 88.4426 43.5382 86.7493 43.5382 84.8141C43.5382 82.8789 42.087 81.1856 39.9103 81.1856C37.9755 81.1856 36.2825 82.8789 36.2825 84.8141C36.2825 86.9912 37.7336 88.4426 39.9103 88.4426Z" fill="black"></path><path d="M39.9102 89.4102C37.2498 89.4102 35.3149 87.475 35.3149 84.8141C35.3149 82.1532 37.2498 80.218 39.9102 80.218C42.5706 80.218 44.5055 82.1532 44.5055 84.8141C44.5055 87.475 42.5706 89.4102 39.9102 89.4102ZM39.9102 80.7018C37.4916 80.7018 35.7986 82.3951 35.7986 84.8141C35.7986 86.9912 37.4916 88.9264 39.9102 88.9264C42.3288 88.9264 44.0218 87.2331 44.0218 84.8141C43.7799 82.3951 42.0869 80.7018 39.9102 80.7018ZM39.9102 88.6845C37.7335 88.6845 36.0405 86.9912 36.0405 84.8141C36.0405 82.637 37.7335 80.7018 39.9102 80.7018C42.0869 80.7018 43.7799 82.3951 43.7799 84.8141C43.7799 86.9912 42.0869 88.6845 39.9102 88.6845ZM39.9102 81.4275C37.9754 81.4275 36.5242 82.8789 36.5242 84.8141C36.5242 86.7493 37.9754 88.2007 39.9102 88.2007C41.8451 88.2007 43.2962 86.7493 43.2962 84.8141C43.2962 82.8789 41.8451 81.4275 39.9102 81.4275Z" fill="black"></path><path d="M47.6495 80.9437C47.6495 80.7018 47.8913 80.7018 47.8913 80.7018C48.1332 80.7018 48.1332 80.7018 48.1332 80.9437V85.5398C48.1332 86.7493 48.1332 88.6845 50.7936 88.6845C53.4541 88.6845 53.4541 86.7493 53.4541 85.5398V80.9437C53.4541 80.7018 53.6959 80.7018 53.6959 80.7018C53.9378 80.7018 53.9378 80.7018 53.9378 80.9437V85.5398C53.9378 86.7493 53.9378 89.4102 50.5518 89.4102C47.1658 89.4102 47.1658 86.9912 47.1658 85.5398V80.9437H47.6495Z" fill="black"></path><path d="M51.0356 89.4102C47.4077 89.4102 47.4077 86.5074 47.4077 85.2979V80.7018C47.4077 80.218 47.6496 79.9761 48.1333 79.9761C48.617 79.9761 48.8589 80.218 48.8589 80.7018V85.2979C48.8589 86.7493 49.1007 88.2007 51.2774 88.2007C53.4541 88.2007 53.696 86.7493 53.696 85.2979V80.7018C53.696 80.218 53.9379 79.9761 54.4216 79.9761C54.9053 79.9761 55.1471 80.218 55.1471 80.7018V85.2979C54.9053 86.5074 54.9053 89.4102 51.0356 89.4102ZM47.8914 80.7018V85.2979C47.8914 86.9912 48.3751 88.6845 51.0356 88.6845C54.1797 88.6845 54.1797 86.2655 54.1797 85.2979V80.7018V85.2979C54.1797 86.5074 54.1797 88.6845 51.0356 88.6845C47.8914 88.6845 47.8914 86.2655 47.8914 85.2979V80.7018Z" fill="black"></path><path d="M61.4353 88.6845C61.4353 88.9264 61.1935 88.9264 61.1935 88.9264C60.9516 88.9264 60.9516 88.9264 60.9516 88.6845V81.1856H58.2912C58.0493 81.1856 58.0493 80.9437 58.0493 80.9437C58.0493 80.7018 58.0493 80.7018 58.2912 80.7018H64.3376C64.5795 80.7018 64.5795 80.9437 64.5795 80.9437C64.5795 81.1856 64.5795 81.1856 64.3376 81.1856H61.6772V88.6845H61.4353Z" fill="black"></path><path d="M60.9518 89.4102C60.468 89.4102 60.2262 89.1683 60.2262 88.6845V81.4275H57.8076C57.5657 81.4275 57.082 81.1856 57.082 80.7018C57.082 80.218 57.3239 79.9761 57.8076 79.9761H63.854C64.3378 79.9761 64.5796 80.218 64.5796 80.7018C64.5796 80.9437 64.3378 81.4275 63.854 81.4275H61.4355V88.6845C61.6773 89.1683 61.4355 89.4102 60.9518 89.4102ZM58.0495 80.9437H60.9518V88.6845V80.9437H63.854H58.0495Z" fill="black"></path><path d="M17.1755 116.503C17.6592 116.745 18.143 116.745 18.6267 116.745C19.5941 116.745 20.8034 116.261 20.8034 115.052C20.8034 113.842 19.836 113.6 19.1104 113.358C18.143 113.116 16.9337 112.633 16.9337 111.181C16.9337 109.972 17.9011 109.004 19.3522 109.004C19.836 109.004 20.3197 109.246 20.8034 109.246C20.8034 109.246 21.0452 109.246 21.0452 109.488C21.0452 109.73 20.8034 109.73 20.8034 109.73H20.5615C20.3197 109.73 19.836 109.488 19.3522 109.488C18.143 109.488 17.6592 110.214 17.6592 111.181C17.6592 112.149 18.6267 112.633 19.3522 112.874C20.3197 113.358 21.529 113.6 21.529 115.293C21.529 116.745 20.3197 117.712 18.6267 117.712C17.6592 117.712 16.9337 117.471 16.6918 117.229C16.45 117.229 16.45 116.987 16.45 116.987C16.45 116.745 16.6918 116.745 16.6918 116.745C16.9337 116.261 16.9337 116.261 17.1755 116.503Z" fill="black"></path><path d="M18.8685 117.712C17.9011 117.712 17.1755 117.471 16.9337 117.229C16.6918 117.229 16.45 116.987 16.45 116.503C16.45 116.261 16.6918 115.777 17.1755 115.777C17.1755 115.777 17.4174 115.777 17.6592 116.019C18.143 116.261 18.6267 116.261 19.1104 116.261C19.5941 116.261 21.0452 116.261 21.0452 114.81C21.0452 113.842 20.3197 113.6 19.3522 113.358C18.3848 113.116 16.9337 112.391 16.9337 110.939C16.9337 109.73 17.9011 108.278 19.5941 108.278C20.0778 108.278 20.8034 108.52 21.2871 108.762C21.5289 109.004 21.7708 109.004 21.7708 109.246C21.7708 109.488 21.529 109.972 21.0452 109.972C20.8034 109.972 20.8034 109.972 20.5615 109.73C20.3197 109.73 20.0778 109.488 19.5941 109.488C18.6267 109.488 18.143 110.214 18.143 110.697C18.143 111.423 18.6267 111.665 19.836 112.149C20.8034 112.632 22.2545 113.116 22.2545 114.81C22.0127 116.503 20.5615 117.712 18.8685 117.712ZM16.9337 116.503C17.4174 116.745 17.9011 116.987 18.8685 116.987C20.0778 116.987 21.2871 116.503 21.2871 115.051C21.2871 113.6 20.3197 113.358 19.3522 112.874C18.3848 112.633 17.4174 112.149 17.4174 110.939C17.4174 109.972 18.143 109.004 19.3522 109.004C19.836 109.004 20.3197 109.246 20.5615 109.246H20.8034C20.3197 109.004 19.836 109.004 19.3522 109.004C18.143 109.004 17.1755 109.73 17.1755 110.939C17.1755 112.149 18.143 112.633 19.1104 112.874C20.0778 113.116 21.0452 113.6 21.0452 115.051C21.0452 116.503 19.836 116.987 18.6267 116.987C18.143 116.987 17.4174 116.745 16.9337 116.503V116.503Z" fill="black"></path><path d="M29.5104 112.632C29.7523 112.632 29.7523 112.874 29.7523 112.874C29.7523 113.116 29.7523 113.116 29.5104 113.116H25.8826V116.019C25.8826 116.261 26.1244 116.503 26.3663 116.503H29.9941C30.236 116.503 30.236 116.745 30.236 116.745C30.236 116.987 30.236 116.987 29.9941 116.987H26.1244C25.157 116.987 25.157 116.261 25.157 116.019V109.73C25.157 109.488 25.157 108.762 26.1244 108.762H29.7523C29.9941 108.762 29.9941 109.004 29.9941 109.004C29.9941 109.246 29.9941 109.246 29.7523 109.246H26.1244C25.8825 109.246 25.6407 109.246 25.6407 109.73V112.391H29.5104V112.632Z" fill="black"></path><path d="M29.9941 117.47H26.1243C25.3988 117.47 24.915 116.987 24.915 116.019V109.73C24.915 108.762 25.3988 108.278 26.1243 108.278H29.7522C30.2359 108.278 30.4778 108.52 30.4778 109.004C30.4778 109.246 30.2359 109.73 29.7522 109.73H26.1243V112.149H29.5103C29.9941 112.149 29.9941 112.391 29.9941 112.874C29.9941 113.358 29.7522 113.6 29.5103 113.6H26.1243V116.261H29.7522C30.2359 116.261 30.4778 116.503 30.4778 116.987C30.4778 117.229 30.2359 117.47 29.9941 117.47ZM26.1243 109.246C25.6406 109.246 25.3988 109.488 25.3988 109.972V116.261C25.3988 116.745 25.3988 116.987 26.1243 116.987H29.9941H26.3662C26.1243 116.987 25.6406 116.987 25.6406 116.261V113.116H29.5103H25.6406V110.213C25.6406 109.246 25.8825 109.246 26.1243 109.246H29.7522H26.1243Z" fill="black"></path><path d="M38.4588 116.745C38.4588 116.987 38.7007 116.987 38.7007 116.987C38.7007 117.229 38.4588 117.229 38.4588 117.229C38.217 117.229 38.217 117.229 38.217 116.987L35.3147 113.358H34.3472V116.987C34.3472 117.229 34.1054 117.229 34.1054 117.229C33.8635 117.229 33.8635 117.229 33.8635 116.987V109.972C33.8635 109.73 33.8635 109.004 34.831 109.004H36.2821C37.9751 109.004 38.7007 109.972 38.7007 111.181C38.7007 112.149 38.217 113.358 36.2821 113.358L38.4588 116.745ZM35.5565 112.875C36.0402 112.875 37.7333 112.875 37.7333 111.181C37.7333 109.488 36.2821 109.488 35.5565 109.488H34.5891C34.3472 109.488 34.1054 109.488 34.1054 109.972V112.875H35.5565Z" fill="black"></path><path d="M38.2169 117.712C37.9751 117.712 37.7332 117.471 37.7332 117.471L35.0728 113.842H34.5891V117.229C34.5891 117.712 34.3472 117.954 33.8635 117.954C33.3798 117.954 33.1379 117.712 33.1379 117.229V110.214C33.1379 109.246 33.6217 108.762 34.3472 108.762H35.7984C37.7332 108.762 38.4588 109.972 38.4588 111.423C38.4588 112.633 37.9751 113.6 36.2821 113.842L38.4588 116.745L38.2169 116.987L38.4588 116.745C38.4588 116.987 38.7007 116.987 38.7007 117.229C38.9425 117.471 38.7007 117.712 38.2169 117.712ZM33.8635 113.116H35.3147L38.2169 116.987C38.2169 116.987 38.2169 116.987 38.2169 116.745L38.4588 116.503L38.2169 116.745L35.3147 112.874H35.7984C37.7332 112.874 37.9751 111.423 37.9751 110.939C37.9751 109.73 37.2495 109.004 35.7984 109.004H34.3472C33.8635 109.004 33.6217 109.246 33.6217 109.73V116.745V113.116H33.8635ZM35.5565 113.116H33.8635V109.972C33.8635 109.246 34.3472 109.246 34.5891 109.246H35.5565C36.0402 109.246 37.9751 109.246 37.9751 111.181C37.9751 112.391 37.2495 113.116 35.5565 113.116ZM34.5891 112.391H35.7984C36.7658 112.391 37.7332 112.149 37.7332 110.939C37.7332 109.73 36.7658 109.73 35.7984 109.73H34.8309V112.391H34.5891Z" fill="black"></path><path d="M47.8915 109.004C47.8915 109.004 47.8915 108.762 48.1333 108.762C48.3752 108.762 48.6171 109.004 48.6171 109.004V109.246L45.4729 116.987C45.4729 117.228 45.2311 117.47 44.9892 117.47C44.7473 117.47 44.5055 117.228 44.5055 116.987L41.3613 109.246V109.004C41.3613 108.762 41.6032 108.762 41.845 108.762C42.0869 108.762 42.0869 108.762 42.0869 109.004L45.2311 116.745L47.8915 109.004Z" fill="black"></path><path d="M44.9891 117.712C44.5054 117.712 44.2635 117.229 44.2635 117.229L41.1194 109.488C41.1194 109.488 41.1194 109.246 41.1194 109.004C41.1194 108.52 41.3612 108.278 41.845 108.278C42.3287 108.278 42.3287 108.52 42.3287 108.762L44.9891 115.777L47.6495 108.762H47.8914L47.6495 108.52C47.6495 108.52 47.8914 108.036 48.1333 108.036C48.3751 108.036 48.8588 108.278 48.8588 108.762C48.8588 109.004 48.8588 109.004 48.8588 109.246L45.7147 116.987C45.7147 117.229 45.4728 117.712 44.9891 117.712ZM47.8914 109.004H48.1333L44.9891 116.987C44.9891 116.987 44.9891 116.987 45.231 116.745L48.3751 109.004C48.3751 109.004 48.3751 109.004 48.3751 108.762L47.8914 109.004ZM41.6031 109.004C41.6031 109.004 41.6031 109.246 41.6031 109.004L44.7472 116.745C44.7472 116.745 44.7473 116.987 44.9891 116.987L41.6031 109.004Z" fill="black"></path><path d="M52.0029 109.004C52.0029 108.762 52.2448 108.52 52.2448 108.52C52.4866 108.52 52.4866 108.762 52.4866 109.004V116.987C52.4866 117.229 52.2448 117.471 52.2448 117.471C52.0029 117.471 52.0029 117.229 52.0029 116.987V109.004Z" fill="black"></path><path d="M52.2449 117.712C51.7612 117.712 51.5193 117.47 51.5193 116.987V109.004C51.5193 108.52 51.7612 108.278 52.2449 108.278C52.7286 108.278 52.9704 108.52 52.9704 109.004V116.987C52.9704 117.47 52.7286 117.712 52.2449 117.712ZM52.2449 109.004V116.987V109.004Z" fill="black"></path><path d="M56.3564 113.116C56.3564 110.697 58.0495 108.762 60.7099 108.762C61.6773 108.762 62.4029 109.004 62.8866 109.246C63.1285 109.246 63.1285 109.488 63.1285 109.488C63.1285 109.73 62.8866 109.73 62.8866 109.73C62.8866 109.73 62.6447 109.73 62.6447 109.488C61.9192 109.004 61.1936 109.004 60.9517 109.004C58.775 109.004 57.3239 110.697 57.3239 112.633C57.3239 114.326 58.5332 116.261 61.1936 116.261C61.9192 116.261 62.4029 116.019 62.8866 116.019C62.8866 116.019 63.1285 115.777 63.3703 115.777C63.3703 115.777 63.6122 115.777 63.6122 116.019C63.6122 116.261 63.3703 116.261 63.3703 116.261C62.6447 116.745 61.6773 116.745 60.9517 116.745C57.8076 117.471 56.3564 115.294 56.3564 113.116Z" fill="black"></path><path d="M60.7099 117.712C57.8077 117.712 55.8728 115.777 55.8728 113.116C55.8728 110.455 57.8077 108.52 60.4681 108.52C61.4355 108.52 62.1611 108.762 62.8867 109.004C63.1285 109.246 63.3704 109.246 63.3704 109.488C63.3704 109.73 63.1285 110.214 62.6448 110.214C62.4029 110.214 62.4029 110.214 62.1611 109.972C61.6774 109.73 60.9518 109.488 60.4681 109.488C58.5332 109.488 57.0821 110.939 57.0821 112.874C57.0821 114.568 58.0495 116.261 60.4681 116.261C61.1937 116.261 61.6774 116.019 62.1611 116.019C62.6448 115.777 62.6448 115.777 62.6448 115.777C62.8867 115.777 63.1285 116.019 63.1285 116.503C63.1285 116.745 63.1285 116.987 62.6448 116.987C62.1611 117.712 61.1937 117.712 60.7099 117.712ZM60.7099 109.004C58.2914 109.004 56.5984 110.697 56.5984 113.116C56.5984 115.052 57.8077 117.229 60.7099 117.229C61.1937 117.229 62.1611 117.229 62.8867 116.745H62.6448C62.1611 116.987 61.6774 117.229 60.7099 117.229C57.8077 117.229 56.5984 115.052 56.5984 113.358C56.5984 110.697 58.2914 109.004 60.7099 109.004C61.1937 109.004 61.9192 109.004 62.6448 109.488C62.1611 109.246 61.4355 109.004 60.7099 109.004Z" fill="black"></path><path d="M70.8678 112.632C71.1097 112.632 71.1097 112.874 71.1097 112.874C71.1097 113.116 71.1097 113.116 70.8678 113.116H67.24V116.019C67.24 116.261 67.4818 116.503 67.7237 116.503H71.3515C71.5934 116.503 71.5934 116.745 71.5934 116.745C71.5934 116.987 71.5934 116.987 71.3515 116.987H67.4818C66.5144 116.987 66.5144 116.261 66.5144 116.019V109.73C66.5144 109.488 66.5144 108.762 67.4818 108.762H71.1097C71.3515 108.762 71.3515 109.004 71.3515 109.004C71.3515 109.246 71.3515 109.246 71.1097 109.246H67.4818C67.24 109.246 66.9981 109.246 66.9981 109.73V112.391H70.8678V112.632Z" fill="black"></path><path d="M71.3515 117.47H67.4817C66.7562 117.47 66.2725 116.987 66.2725 116.019V109.73C66.2725 108.762 66.7562 108.278 67.4817 108.278H71.1096C71.5933 108.278 71.8352 108.52 71.8352 109.004C71.8352 109.246 71.5933 109.73 71.1096 109.73H67.4817V112.149H70.8678C71.3515 112.149 71.3515 112.391 71.3515 112.874C71.3515 113.358 71.1096 113.6 70.8678 113.6H67.4817V116.261H71.1096C71.5933 116.261 71.8352 116.503 71.8352 116.987C72.077 117.229 71.8352 117.47 71.3515 117.47ZM67.4817 109.246C66.998 109.246 66.7562 109.488 66.7562 109.972V116.261C66.7562 116.745 66.7562 116.987 67.4817 116.987H71.3515H67.7236C67.4818 116.987 66.998 116.987 66.998 116.261V113.116H70.8678H66.998V110.213C66.998 109.246 67.2399 109.246 67.4817 109.246H71.1096H67.4817Z" fill="black"></path><path d="M46.1985 15.6309H18.6267V30.1448H46.1985V15.6309Z" fill="black"></path><path d="M85.1375 3.77783H80.3003V223.664H85.1375V3.77783Z" fill="black"></path></svg> 