<?xml version="1.0" encoding="UTF-8"?> <svg xmlns="http://www.w3.org/2000/svg" width="237" height="224" viewBox="0 0 237 224" fill="none"><path d="M217.527 140.935C217.043 140.935 216.56 140.451 216.56 139.967V28.6934C216.56 28.2096 217.043 27.7258 217.527 27.7258C218.011 27.7258 218.494 28.2096 218.494 28.6934V139.967C218.494 140.451 218.011 140.935 217.527 140.935Z" fill="black"></path><path d="M217.527 142.144C216.318 142.144 215.35 141.177 215.35 139.967V28.6934C215.35 27.4839 216.318 26.5164 217.527 26.5164C218.736 26.5164 219.703 27.4839 219.703 28.6934V139.967C219.703 141.177 218.736 142.144 217.527 142.144Z" fill="black"></path><path d="M209.545 133.678L210.996 132.227L217.527 139.242L224.057 132.227L225.266 133.678L217.527 142.144L209.545 133.678Z" fill="black"></path><path d="M217.527 143.838L207.853 133.436L210.997 130.533L217.527 137.548L223.815 130.533L226.959 133.436L217.527 143.838Z" fill="black"></path><path d="M227.201 223.664H9.52946C4.45045 223.664 0.338867 219.552 0.338867 214.472V10.0672C0.338867 4.9873 4.45045 0.875 9.52946 0.875H227.201C232.28 0.875 236.392 4.9873 236.392 10.0672V214.472C236.634 219.552 232.28 223.664 227.201 223.664ZM9.52946 5.71299C7.11088 5.71299 5.17602 7.64819 5.17602 10.0672V214.472C5.17602 216.891 7.11088 218.826 9.52946 218.826H227.201C229.62 218.826 231.555 216.891 231.555 214.472V10.0672C231.555 7.64819 229.62 5.71299 227.201 5.71299H9.52946Z" fill="black"></path><path d="M64.4304 27.4839C64.4304 27.7258 64.1886 27.7258 64.1886 27.7258C63.9467 27.7258 63.9467 27.7258 63.9467 27.4839V19.985H61.2863C61.0444 19.985 61.0444 19.7431 61.0444 19.7431C61.0444 19.5012 61.0444 19.5012 61.2863 19.5012H67.3327C67.5746 19.5012 67.5746 19.7431 67.5746 19.7431C67.5746 19.985 67.5746 19.985 67.3327 19.985H64.6723V27.4839H64.4304Z" fill="black"></path><path d="M63.9469 28.2096C63.4632 28.2096 63.2213 27.9677 63.2213 27.4839V20.2269H60.8027C60.5609 20.2269 60.0771 19.985 60.0771 19.5012C60.0771 19.0174 60.319 18.7755 60.8027 18.7755H66.8492C67.333 18.7755 67.5748 19.0174 67.5748 19.5012C67.5748 19.7431 67.333 20.2269 66.8492 20.2269H64.4306V27.4839C64.6725 27.9677 64.4306 28.2096 63.9469 28.2096ZM61.0446 19.7431H63.9469V27.4839V19.7431H66.8492H61.0446Z" fill="black"></path><path d="M74.5893 19.2593C77.0079 19.2593 78.9427 20.9526 78.9427 23.6135C78.9427 26.0324 77.0079 27.9676 74.5893 27.9676C72.1707 27.9676 70.2358 26.2743 70.2358 23.6135C70.2358 21.1945 72.1707 19.2593 74.5893 19.2593ZM74.5893 27.2419C76.5241 27.2419 78.2172 25.5486 78.2172 23.6135C78.2172 21.6783 76.766 19.985 74.5893 19.985C72.6544 19.985 70.9614 21.6783 70.9614 23.6135C70.9614 25.7905 72.4125 27.2419 74.5893 27.2419Z" fill="black"></path><path d="M74.5889 28.2095C71.9285 28.2095 69.9937 26.2744 69.9937 23.6135C69.9937 20.9526 71.9285 19.0173 74.5889 19.0173C77.2493 19.0173 79.1842 20.9526 79.1842 23.6135C79.1842 26.2744 77.2493 28.2095 74.5889 28.2095ZM74.5889 19.5011C72.1703 19.5011 70.4774 21.1945 70.4774 23.6135C70.4774 25.7906 72.1703 27.7257 74.5889 27.7257C77.0075 27.7257 78.7005 26.0325 78.7005 23.6135C78.4586 21.1945 76.7656 19.5011 74.5889 19.5011ZM74.5889 27.4838C72.4122 27.4838 70.7192 25.7906 70.7192 23.6135C70.7192 21.4364 72.4122 19.5011 74.5889 19.5011C76.7656 19.5011 78.4586 21.1945 78.4586 23.6135C78.4586 25.7906 76.7656 27.4838 74.5889 27.4838ZM74.5889 20.2268C72.6541 20.2268 71.2029 21.6783 71.2029 23.6135C71.2029 25.5487 72.6541 27 74.5889 27C76.5238 27 77.9749 25.5487 77.9749 23.6135C77.7331 21.6783 76.2819 20.2268 74.5889 20.2268Z" fill="black"></path><path d="M83.0535 27.4839C83.0535 27.7258 82.8117 27.7258 82.8117 27.7258C82.5698 27.7258 82.5698 27.7258 82.5698 27.4839V20.4688C82.5698 20.2269 82.5698 19.5012 83.5373 19.5012H84.7466C85.4721 19.5012 85.9559 19.5012 86.4396 19.7431C87.407 20.2269 87.6489 21.4364 87.6489 21.9202C87.6489 22.6459 87.407 23.6135 86.4396 24.0973C85.9559 24.3392 85.4721 24.3392 84.7466 24.3392H83.2954V27.4839H83.0535ZM84.2628 23.6135C84.9884 23.6135 86.4396 23.6135 86.4396 21.9202C86.4396 20.2269 84.9884 20.2269 84.2628 20.2269H83.5373C83.2954 20.2269 83.0535 20.2269 83.0535 20.7107V23.8554H84.2628V23.6135Z" fill="black"></path><path d="M82.5698 28.2095C82.0861 28.2095 81.8442 27.9676 81.8442 27.4838V20.4687C81.8442 19.5011 82.328 19.0173 83.0535 19.0173H84.2628C84.9884 19.0173 85.4721 19.0173 86.1977 19.2592C87.407 19.9849 87.407 21.1944 87.407 21.6782C87.407 22.8877 86.9233 23.6134 86.1977 24.0972C85.714 24.3391 84.9884 24.3391 84.2628 24.3391H83.2954V27.4838C83.2954 27.9676 83.0535 28.2095 82.5698 28.2095ZM83.2954 19.743C82.8117 19.743 82.5698 19.9849 82.5698 20.4687V27.4838V23.8553H84.2628C84.7465 23.8553 85.2303 23.8554 85.714 23.6135C86.4396 23.3716 86.6814 22.6458 86.6814 21.6782C86.6814 21.1944 86.4396 20.2269 85.714 19.985C85.2303 19.7431 84.7465 19.743 84.2628 19.743H83.2954V19.743ZM84.2628 23.8553H82.8117V20.4687C82.8117 19.9849 83.0536 19.743 83.5373 19.743H84.2628C84.9884 19.743 86.9233 19.743 86.9233 21.9201C86.9233 23.8553 84.9884 23.8553 84.2628 23.8553ZM83.2954 23.3715H84.2628C85.2303 23.3715 86.1977 23.3715 86.1977 21.9201C86.1977 20.4687 85.2303 20.4687 84.2628 20.4687H83.5373V23.3715H83.2954Z" fill="black"></path><path d="M97.0817 25.0648L96.1143 27.4838C96.1143 27.7257 96.1142 27.7257 95.8724 27.7257C95.6305 27.7257 95.3887 27.7257 95.3887 27.4838V27.2419L98.5328 19.5011C98.5328 19.2592 98.7747 19.0173 99.0165 19.0173C99.5003 19.0173 99.5002 19.2592 99.5002 19.5011L102.403 27.2419V27.4838C102.403 27.7257 102.161 27.7257 101.919 27.7257C101.677 27.7257 101.677 27.4838 101.677 27.4838L100.71 25.0648H97.0817ZM100.71 24.581L99.0165 20.2268L97.3235 24.581H100.71Z" fill="black"></path><path d="M102.403 28.2095C101.919 28.2095 101.919 27.9676 101.677 27.7257L100.71 25.5486H97.0817L96.1142 27.7257C96.1142 27.9676 95.8724 28.2095 95.3887 28.2095C95.1468 28.2095 94.6631 27.9676 94.6631 27.4838V27.2419L97.8072 19.5011C98.0491 19.0173 98.291 19.0173 98.5328 19.0173C99.0165 19.0173 99.2584 19.2592 99.2584 19.5011L102.161 27.2419C102.161 27.4838 102.161 27.4838 102.161 27.7257C102.886 27.9676 102.644 28.2095 102.403 28.2095ZM96.8398 24.823H101.193L102.161 27.4838L99.0165 19.743C99.0165 19.743 99.0165 19.5011 98.7747 19.5011L100.71 24.823H96.8398L98.7747 19.5011C98.7747 19.5011 98.7747 19.5011 98.5328 19.743L95.3887 27.4838V27.7257L96.8398 24.823ZM97.8072 24.3391H100.468L99.2584 20.9525L97.8072 24.3391Z" fill="black"></path><path d="M106.756 27.7258C105.789 27.7258 105.789 27.0001 105.789 26.7582V20.4688C105.789 20.2269 105.789 19.5012 106.756 19.5012H108.207C108.933 19.5012 110.868 19.5012 110.868 21.4364C110.868 22.6459 110.142 23.1297 109.658 23.3716C110.142 23.6135 111.109 23.8554 111.109 25.5487C111.109 27.7258 108.933 27.7258 108.207 27.7258H106.756V27.7258ZM108.449 23.1297C108.933 23.1297 110.384 23.1297 110.384 21.6783C110.384 20.2269 109.175 20.2269 108.207 20.2269H106.998C106.756 20.2269 106.514 20.2269 106.514 20.7107V23.3716H108.449V23.1297ZM106.514 26.7582C106.514 27.0001 106.756 27.242 106.998 27.242H108.449C109.175 27.242 110.868 27.242 110.868 25.5487C110.868 23.8554 109.175 23.8554 108.691 23.8554H106.756V26.7582H106.514Z" fill="black"></path><path d="M108.449 27.9677H106.756C106.03 27.9677 105.546 27.4839 105.546 26.5163V20.2269C105.546 19.2593 106.03 18.7755 106.756 18.7755H108.207C108.932 18.7755 111.351 18.7755 111.351 21.1945C111.351 22.1621 110.867 22.6459 110.384 23.1297C110.867 23.3716 111.593 24.0973 111.593 25.3068C111.593 27.242 110.625 27.9677 108.449 27.9677ZM106.756 19.7431C106.272 19.7431 106.03 19.985 106.03 20.4688V26.7582C106.03 27.242 106.03 27.4839 106.756 27.4839H108.449C109.658 27.4839 111.109 27.242 111.109 25.5487C111.109 24.823 110.867 24.3392 110.625 24.0973C110.867 24.3392 111.109 24.823 111.109 25.5487C111.109 27.4839 109.174 27.4839 108.449 27.4839H106.998C106.756 27.4839 106.272 27.4839 106.272 26.7582V20.4688C106.272 19.985 106.514 19.7431 106.756 19.7431H108.207C109.174 19.7431 110.625 19.7431 110.625 21.4364C110.625 21.6783 110.625 22.1621 110.384 22.404C110.625 22.1621 110.625 21.9202 110.625 21.1945C110.625 19.7431 109.416 19.5012 108.207 19.5012H106.756V19.7431ZM106.998 26.7582H108.449C109.416 26.7582 110.625 26.7582 110.625 25.5487C110.625 24.3392 109.658 24.0973 108.691 24.0973H106.998V26.7582C106.756 26.7582 106.756 26.7582 106.998 26.7582C106.756 26.7582 106.756 26.7582 106.998 26.7582ZM108.691 23.3716C108.932 23.3716 108.932 23.3716 109.174 23.3716L109.416 23.1297C109.174 23.3716 108.932 23.3716 108.691 23.3716ZM106.756 22.8878H108.207C108.932 22.8878 109.9 22.6459 109.9 21.6783C109.9 20.7107 109.174 20.4688 107.965 20.4688H106.756V22.8878V22.8878Z" fill="black"></path><path d="M118.849 19.2593C121.267 19.2593 123.202 20.9526 123.202 23.6135C123.202 26.0324 121.267 27.9676 118.849 27.9676C116.43 27.9676 114.495 26.2743 114.495 23.6135C114.495 21.1945 116.43 19.2593 118.849 19.2593ZM118.849 27.2419C120.783 27.2419 122.476 25.5486 122.476 23.6135C122.476 21.6783 121.025 19.985 118.849 19.985C116.914 19.985 115.221 21.6783 115.221 23.6135C115.221 25.7905 116.672 27.2419 118.849 27.2419Z" fill="black"></path><path d="M118.848 28.2095C116.188 28.2095 114.253 26.2744 114.253 23.6135C114.253 20.9526 116.188 19.0173 118.848 19.0173C121.509 19.0173 123.443 20.9526 123.443 23.6135C123.443 26.2744 121.267 28.2095 118.848 28.2095ZM118.848 19.5011C116.43 19.5011 114.737 21.1945 114.737 23.6135C114.737 25.7906 116.43 27.7257 118.848 27.7257C121.267 27.7257 122.96 26.0325 122.96 23.6135C122.718 21.1945 121.025 19.5011 118.848 19.5011ZM118.848 27.4838C116.671 27.4838 114.979 25.7906 114.979 23.6135C114.979 21.4364 116.671 19.5011 118.848 19.5011C121.025 19.5011 122.718 21.1945 122.718 23.6135C122.718 25.7906 121.025 27.4838 118.848 27.4838ZM118.848 20.2268C116.913 20.2268 115.462 21.6783 115.462 23.6135C115.462 25.5487 116.913 27 118.848 27C120.783 27 122.234 25.5487 122.234 23.6135C121.992 21.6783 120.541 20.2268 118.848 20.2268Z" fill="black"></path><path d="M126.588 19.7431C126.588 19.5012 126.83 19.5012 126.83 19.5012C127.072 19.5012 127.072 19.5012 127.072 19.7431V24.3392C127.072 25.5487 127.072 27.4839 129.732 27.4839C132.393 27.4839 132.393 25.5487 132.393 24.3392V19.7431C132.393 19.5012 132.635 19.5012 132.635 19.5012C132.876 19.5012 132.876 19.5012 132.876 19.7431V24.3392C132.876 25.5487 132.876 28.2096 129.49 28.2096C126.105 28.2096 126.104 25.7906 126.104 24.3392V19.7431H126.588Z" fill="black"></path><path d="M129.975 28.2095C126.347 28.2095 126.347 25.3067 126.347 24.0972V19.743C126.347 19.2592 126.589 19.0173 127.072 19.0173C127.556 19.0173 127.798 19.2592 127.798 19.743V24.3391C127.798 25.7905 128.04 27.2419 130.216 27.2419C132.393 27.2419 132.635 25.7905 132.635 24.3391V19.743C132.635 19.2592 132.877 19.0173 133.36 19.0173C133.844 19.0173 134.086 19.2592 134.086 19.743V24.3391C133.602 25.3067 133.602 28.2095 129.975 28.2095ZM126.83 19.5011V24.0972C126.83 25.7905 127.314 27.4838 129.975 27.4838C132.635 27.4838 133.119 25.7905 133.119 24.0972V19.743V24.3391C133.119 25.5486 133.119 27.7257 129.975 27.7257C126.83 27.7257 126.83 25.3067 126.83 24.3391V19.5011Z" fill="black"></path><path d="M140.132 27.4839C140.132 27.7258 139.89 27.7258 139.89 27.7258C139.648 27.7258 139.648 27.7258 139.648 27.4839V19.985H136.988C136.746 19.985 136.746 19.7431 136.746 19.7431C136.746 19.5012 136.746 19.5012 136.988 19.5012H143.034C143.276 19.5012 143.276 19.7431 143.276 19.7431C143.276 19.985 143.276 19.985 143.034 19.985H140.132V27.4839Z" fill="black"></path><path d="M139.89 28.2096C139.406 28.2096 139.165 27.9677 139.165 27.4839V20.2269H136.746C136.504 20.2269 136.021 19.985 136.021 19.5012C136.021 19.0174 136.262 18.7755 136.746 18.7755H142.793C143.276 18.7755 143.518 19.0174 143.518 19.5012C143.518 19.7431 143.276 20.2269 142.793 20.2269H140.374V27.4839C140.616 27.9677 140.132 28.2096 139.89 28.2096ZM136.746 19.7431H139.648V27.4839V19.7431H142.551H136.746Z" fill="black"></path><path d="M151.983 27.0001C152.467 27.242 152.951 27.242 153.435 27.242C154.402 27.242 155.611 26.7582 155.611 25.5487C155.611 24.3392 154.644 24.0973 153.918 23.6135C152.951 23.3716 151.742 22.8878 151.742 21.4364C151.742 20.2269 152.709 19.2593 154.16 19.2593C154.644 19.2593 155.128 19.5012 155.611 19.5012C155.611 19.5012 155.853 19.5012 155.853 19.7431C155.853 19.985 155.611 19.985 155.611 19.985H155.369C155.128 19.985 154.644 19.7431 154.16 19.7431C152.951 19.7431 152.467 20.4688 152.467 21.4364C152.467 22.404 153.435 22.8878 154.16 23.1297C155.128 23.3716 156.337 23.8554 156.337 25.5487C156.337 27.0001 155.128 27.9677 153.435 27.9677C152.467 27.9677 151.742 27.7258 151.5 27.4839C151.258 27.4839 151.258 27.242 151.258 27.242C151.258 27.0001 151.5 27.0001 151.5 27.0001C151.742 26.7582 151.742 26.7582 151.983 27.0001Z" fill="black"></path><path d="M153.434 28.2096C152.467 28.2096 151.741 27.9677 151.499 27.7258C151.257 27.7258 151.016 27.4839 151.016 27.0001C151.016 26.7582 151.257 26.2744 151.741 26.2744C151.741 26.2744 151.983 26.2744 152.225 26.5163C152.709 26.7582 153.192 26.7582 153.676 26.7582C153.918 26.7582 155.611 26.7582 155.611 25.3068C155.611 24.3392 155.127 24.0973 153.918 23.8554C152.95 23.6135 151.499 23.1297 151.499 21.4364C151.499 20.2269 152.467 18.7755 154.16 18.7755C154.644 18.7755 155.369 19.0174 155.853 19.2593C155.853 19.2593 156.336 19.5012 156.336 19.7431C156.336 19.985 156.095 20.4688 155.611 20.4688C155.369 20.4688 155.369 20.4688 155.127 20.2269C154.885 20.2269 154.644 19.985 154.16 19.985C153.192 19.985 152.709 20.7107 152.709 21.1945C152.709 21.9202 153.192 22.1621 154.16 22.6459C155.127 23.1297 156.578 23.6135 156.578 25.3068C156.578 27.242 155.369 28.2096 153.434 28.2096ZM151.499 27.0001C151.499 27.242 151.499 27.242 151.499 27.0001C151.983 27.242 152.467 27.4839 153.434 27.4839C154.643 27.4839 155.853 27.0001 155.853 25.5487C155.853 24.3392 154.885 23.8554 153.918 23.3716C152.95 23.1297 151.983 22.6459 151.983 21.4364C151.983 20.4688 152.709 19.5012 153.918 19.5012C154.402 19.5012 154.885 19.7431 155.127 19.7431C155.369 19.7431 155.369 19.7431 155.369 19.7431C154.885 19.5012 154.402 19.5012 153.918 19.5012C152.467 19.5012 151.741 20.4688 151.741 21.4364C151.741 22.6459 152.709 22.8878 153.676 23.3716C154.644 23.6135 155.611 24.0973 155.611 25.5487C155.611 27.0001 154.402 27.4839 153.192 27.4839C152.709 27.4839 151.983 27.242 151.499 27.0001V27.0001C151.499 27.0001 151.741 27.242 151.499 27.0001Z" fill="black"></path><path d="M164.077 23.1296C164.318 23.1296 164.318 23.3716 164.318 23.3716C164.318 23.6135 164.318 23.6135 164.077 23.6135H160.449V26.5162C160.449 26.7581 160.691 27 160.932 27H164.56C164.802 27 164.802 27.2419 164.802 27.2419C164.802 27.4838 164.802 27.4838 164.56 27.4838H160.691C159.723 27.4838 159.723 26.7581 159.723 26.5162V20.2269C159.723 19.985 159.723 19.2593 160.691 19.2593H164.318C164.56 19.2593 164.56 19.5012 164.56 19.5012C164.56 19.7431 164.56 19.7431 164.318 19.7431H160.691C160.449 19.7431 160.207 19.7431 160.207 20.2269V22.8878H164.077V23.1296Z" fill="black"></path><path d="M164.56 27.9677H160.69C159.965 27.9677 159.481 27.4839 159.481 26.5163V20.2269C159.481 19.2593 159.965 18.7755 160.69 18.7755H164.318C164.802 18.7755 165.044 19.0174 165.044 19.5012C165.044 19.7431 164.802 20.2269 164.318 20.2269H160.69V22.6459H164.076C164.56 22.6459 164.56 22.8878 164.56 23.3716C164.56 23.8554 164.318 24.0973 164.076 24.0973H160.69V26.7582H164.318C164.802 26.7582 165.044 27.0001 165.044 27.4839C165.286 27.7258 165.044 27.9677 164.56 27.9677ZM160.69 19.7431C160.207 19.7431 159.965 19.985 159.965 20.4688V26.7582C159.965 27.242 159.965 27.4839 160.69 27.4839H164.56H160.932C160.69 27.4839 160.207 27.4839 160.207 26.7582V23.6135H164.076H160.207V20.7107C160.207 19.985 160.448 19.7431 160.69 19.7431H164.318H160.69Z" fill="black"></path><path d="M173.266 27.242C173.266 27.4839 173.508 27.4839 173.508 27.4839C173.508 27.7258 173.266 27.7258 173.266 27.7258C173.024 27.7258 173.024 27.7258 173.024 27.4839L170.122 23.8554H169.155V27.4839C169.155 27.7258 168.913 27.7258 168.913 27.7258C168.671 27.7258 168.671 27.7258 168.671 27.4839V20.4688C168.671 20.2269 168.671 19.5012 169.638 19.5012H171.089C172.782 19.5012 173.508 20.4688 173.508 21.6783C173.508 22.6459 173.024 23.8554 171.089 23.8554L173.266 27.242ZM170.364 23.3716C170.848 23.3716 172.541 23.3716 172.541 21.6783C172.541 19.985 171.089 19.985 170.364 19.985H169.396C169.155 19.985 168.913 19.985 168.913 20.4688V23.3716H170.364Z" fill="black"></path><path d="M173.025 28.2096C172.783 28.2096 172.541 27.9676 172.541 27.9676L169.88 24.3392H169.155V27.7258C169.155 28.2096 168.913 28.4515 168.429 28.4515C167.945 28.4515 167.704 28.2096 167.704 27.7258V20.7107C167.704 19.7431 168.187 19.2593 168.913 19.2593H170.364C172.299 19.2593 173.025 20.4688 173.025 21.9202C173.025 23.1297 172.541 24.0973 170.848 24.3392L173.025 27.242L172.783 27.4839L173.025 27.242C173.025 27.4839 173.266 27.4839 173.266 27.7258C173.75 27.9677 173.266 28.2096 173.025 28.2096ZM168.671 23.6135H170.122L173.025 27.4839L173.266 27.242L173.025 27.4839L170.122 23.6135H170.606C172.541 23.6135 172.783 22.1621 172.783 21.6783C172.783 20.4688 172.057 19.7431 170.606 19.7431H169.155C168.671 19.7431 168.429 19.985 168.429 20.4688V27.4839L168.671 23.6135ZM170.364 23.6135H168.671V20.4688C168.671 19.985 168.913 19.7431 169.397 19.7431H170.364C170.848 19.7431 172.783 19.7431 172.783 21.6783C172.783 22.8878 171.815 23.6135 170.364 23.6135ZM169.155 23.1297H170.364C171.332 23.1297 172.299 22.8878 172.299 21.6783C172.299 20.4688 171.332 20.4688 170.364 20.4688H169.397V23.1297H169.155Z" fill="black"></path><path d="M182.699 19.5012C182.699 19.5012 182.699 19.2593 182.941 19.2593C183.183 19.2593 183.425 19.5012 183.425 19.5012V19.7431L180.281 27.4839C180.281 27.7258 180.039 27.9677 179.797 27.9677C179.555 27.9677 179.313 27.7258 179.313 27.4839L176.169 19.7431V19.5012C176.169 19.2593 176.411 19.2593 176.653 19.2593C176.895 19.2593 176.895 19.2593 176.895 19.5012L180.039 27.242L182.699 19.5012Z" fill="black"></path><path d="M179.555 28.2096C179.071 28.2096 178.829 27.7258 178.829 27.7258L175.685 19.985C175.685 19.985 175.685 19.7431 175.685 19.5012C175.685 19.0174 175.927 18.7755 176.411 18.7755C176.894 18.7755 176.894 19.0174 176.894 19.2593L179.555 26.2744L182.215 19.2593L182.457 19.5012L182.215 19.2593C182.215 19.2593 182.457 18.7755 182.699 18.7755C182.941 18.7755 183.424 19.0174 183.424 19.5012C183.424 19.7431 183.424 19.7431 183.424 19.985L180.28 27.4839C180.28 27.7258 180.038 28.2096 179.555 28.2096ZM182.699 19.5012H182.941L179.797 27.4839C179.797 27.4839 179.797 27.4839 180.038 27.242L183.183 19.5012C183.183 19.5012 183.183 19.5012 183.183 19.2593L182.699 19.5012ZM176.169 19.5012C176.169 19.7431 176.169 19.7431 176.169 19.5012L179.313 27.242C179.313 27.242 179.313 27.4839 179.555 27.4839L176.169 19.5012Z" fill="black"></path><path d="M186.569 19.7431C186.569 19.5012 186.811 19.5012 186.811 19.5012C187.052 19.5012 187.052 19.7431 187.052 19.7431V27.7258C187.052 27.9677 186.811 27.9677 186.811 27.9677C186.569 27.9677 186.569 27.7258 186.569 27.7258V19.7431Z" fill="black"></path><path d="M187.052 28.2095C186.569 28.2095 186.327 27.9676 186.327 27.4838V19.743C186.327 19.2592 186.569 19.0173 187.052 19.0173C187.536 19.0173 187.778 19.2592 187.778 19.743V27.7257C187.536 27.9676 187.294 28.2095 187.052 28.2095ZM187.052 19.5011V27.4838V19.5011Z" fill="black"></path><path d="M190.922 23.6135C190.922 21.1945 192.615 19.2593 195.275 19.2593C196.243 19.2593 196.968 19.5012 197.452 19.7431C197.694 19.7431 197.694 19.985 197.694 19.985C197.694 20.2269 197.452 20.2269 197.452 20.2269C197.452 20.2269 197.21 20.2269 197.21 19.985C196.485 19.5012 195.759 19.5012 195.517 19.5012C193.34 19.5012 191.889 21.1945 191.889 23.1296C191.889 24.8229 193.099 26.7581 195.759 26.7581C196.485 26.7581 196.968 26.5163 197.452 26.5163C197.452 26.5163 197.694 26.2744 197.936 26.2744C197.936 26.2744 198.178 26.2744 198.178 26.5163C198.178 26.7582 197.936 26.7581 197.936 26.7581C197.21 27.2419 196.243 27.242 195.517 27.242C192.615 27.9677 190.922 26.0325 190.922 23.6135Z" fill="black"></path><path d="M195.517 28.2095C192.615 28.2095 190.68 26.2744 190.68 23.6135C190.68 20.9526 192.615 19.0173 195.275 19.0173C196.243 19.0173 196.968 19.2592 197.694 19.743C197.936 19.9849 197.936 20.2268 197.936 20.2268C197.936 20.4687 197.694 20.9525 197.21 20.9525C196.968 20.9525 196.968 20.9525 196.727 20.7106C196.001 20.2268 195.275 20.2268 195.034 20.2268C193.099 20.2268 191.648 21.6783 191.648 23.6135C191.648 25.3068 192.615 27 195.034 27C195.759 27 196.243 26.7581 196.727 26.7581C196.968 26.5162 197.21 26.5162 197.21 26.5162C197.452 26.5162 197.694 26.7581 197.694 27.2419C197.694 27.4838 197.694 27.7257 197.21 27.7257C196.968 28.2095 196.001 28.2095 195.517 28.2095ZM195.275 19.5011C192.857 19.5011 191.164 21.1945 191.164 23.6135C191.164 25.5487 192.373 27.7257 195.275 27.7257C195.759 27.7257 196.727 27.7257 197.452 27.2419H197.21C197.21 27.2419 197.21 27.2419 196.968 27.2419C196.485 27.4838 196.001 27.4838 195.034 27.4838C192.131 27.4838 190.922 25.3068 190.922 23.6135C191.406 21.1945 193.099 19.5011 195.275 19.5011C195.759 19.5011 196.485 19.5012 197.21 19.985H197.452C196.968 19.7431 196.243 19.5011 195.275 19.5011Z" fill="black"></path><path d="M205.433 23.1296C205.675 23.1296 205.675 23.3716 205.675 23.3716C205.675 23.6135 205.675 23.6135 205.433 23.6135H201.806V26.5162C201.806 26.7581 202.048 27 202.289 27H205.917C206.159 27 206.159 27.2419 206.159 27.2419C206.159 27.4838 206.159 27.4838 205.917 27.4838H202.047C201.08 27.4838 201.08 26.7581 201.08 26.5162V20.2269C201.08 19.985 201.08 19.2593 202.047 19.2593H205.675C205.917 19.2593 205.917 19.5012 205.917 19.5012C205.917 19.7431 205.917 19.7431 205.675 19.7431H202.047C201.806 19.7431 201.564 19.7431 201.564 20.2269V22.8878H205.433V23.1296Z" fill="black"></path><path d="M205.917 27.9677H202.047C201.322 27.9677 200.838 27.4839 200.838 26.5163V20.2269C200.838 19.2593 201.322 18.7755 202.047 18.7755H205.675C206.159 18.7755 206.401 19.0174 206.401 19.5012C206.401 19.7431 206.159 20.2269 205.675 20.2269H202.047V22.6459H205.433C205.917 22.6459 205.917 22.8878 205.917 23.3716C205.917 23.8554 205.675 24.0973 205.433 24.0973H202.047V26.7582H205.675C206.159 26.7582 206.401 27.0001 206.401 27.4839C206.643 27.7258 206.401 27.9677 205.917 27.9677ZM202.047 19.7431C201.563 19.7431 201.322 19.985 201.322 20.4688V26.7582C201.322 27.242 201.322 27.4839 202.047 27.4839H205.917H202.289C202.047 27.4839 201.563 27.4839 201.563 26.7582V23.6135H205.433H201.563V20.7107C201.563 19.985 201.805 19.7431 202.047 19.7431H205.675H202.047Z" fill="black"></path><path d="M46.0498 15.6309H18.478V30.1448H46.0498V15.6309Z" fill="black"></path><path d="M234.215 38.6113H3.24072V43.4493H234.215V38.6113Z" fill="black"></path></svg> 