<?xml version="1.0" encoding="UTF-8"?> <svg xmlns="http://www.w3.org/2000/svg" width="237" height="223" viewBox="0 0 237 223" fill="none"><path d="M233.838 2.43066H91.8672V220.382H233.838V2.43066Z" fill="#C3B68F"></path><path d="M150.881 85.1603C150.881 85.4022 150.639 85.4021 150.639 85.4021C150.397 85.4021 150.397 85.4022 150.397 85.1603V77.6614H147.737C147.495 77.6614 147.495 77.4196 147.495 77.4196C147.495 77.1777 147.495 77.1777 147.737 77.1777H153.783C154.025 77.1777 154.025 77.4196 154.025 77.4196C154.025 77.6615 154.025 77.6614 153.783 77.6614H151.122V85.1603H150.881Z" fill="black"></path><path d="M150.639 85.886C150.155 85.886 149.913 85.6441 149.913 85.1603V77.9034H147.495C147.253 77.9034 146.769 77.6615 146.769 77.1777C146.769 76.6939 147.011 76.4519 147.495 76.4519H153.541C154.025 76.4519 154.267 76.6939 154.267 77.1777C154.267 77.4196 154.025 77.9034 153.541 77.9034H151.122V85.1603C151.122 85.6441 150.881 85.886 150.639 85.886ZM147.495 77.4196H150.397V85.1603V77.4196H153.299H147.495Z" fill="black"></path><path d="M161.039 76.9357C163.458 76.9357 165.392 78.6289 165.392 81.2898C165.392 83.7088 163.458 85.6442 161.039 85.6442C158.62 85.6442 156.686 83.9507 156.686 81.2898C156.686 78.6289 158.62 76.9357 161.039 76.9357ZM161.039 84.9183C162.974 84.9183 164.667 83.225 164.667 81.2898C164.667 79.3546 163.216 77.6613 161.039 77.6613C159.104 77.6613 157.411 79.3546 157.411 81.2898C157.411 83.225 158.862 84.9183 161.039 84.9183Z" fill="black"></path><path d="M161.039 85.886C158.378 85.886 156.443 83.9507 156.443 81.2898C156.443 78.629 158.378 76.6938 161.039 76.6938C163.699 76.6938 165.634 78.629 165.634 81.2898C165.634 83.9507 163.699 85.886 161.039 85.886ZM161.039 77.1777C158.62 77.1777 156.927 78.8709 156.927 81.2898C156.927 83.4669 158.62 85.4022 161.039 85.4022C163.457 85.4022 165.15 83.7088 165.15 81.2898C164.908 78.8709 163.215 77.1777 161.039 77.1777ZM161.039 85.1603C158.862 85.1603 157.169 83.4669 157.169 81.2898C157.169 79.1128 158.862 77.1777 161.039 77.1777C163.215 77.1777 164.908 78.8709 164.908 81.2898C164.908 83.4669 163.215 85.1603 161.039 85.1603ZM161.039 77.9033C159.104 77.9033 157.653 79.3546 157.653 81.2898C157.653 83.225 159.104 84.6765 161.039 84.6765C162.973 84.6765 164.425 83.225 164.425 81.2898C164.425 79.3546 162.973 77.9033 161.039 77.9033Z" fill="black"></path><path d="M169.504 85.1603C169.504 85.4022 169.262 85.4021 169.262 85.4021C169.02 85.4021 169.02 85.4022 169.02 85.1603V78.1452C169.02 77.9033 169.02 77.1777 169.988 77.1777H171.197C171.922 77.1777 172.406 77.1777 172.89 77.4196C173.857 77.9034 174.099 79.1129 174.099 79.5967C174.099 80.3224 173.857 81.2899 172.89 81.7737C172.406 82.0156 171.922 82.0156 171.197 82.0156H169.504V85.1603ZM170.713 81.2898C171.439 81.2898 172.89 81.29 172.89 79.5967C172.89 77.9034 171.439 77.9034 170.713 77.9034H169.988C169.746 77.9034 169.504 77.9034 169.504 78.3872V81.5318H170.713V81.2898Z" fill="black"></path><path d="M169.02 85.886C168.536 85.886 168.294 85.6441 168.294 85.1603V78.1452C168.294 77.1776 168.778 76.6938 169.504 76.6938H170.713C171.439 76.6938 171.922 76.6938 172.648 76.9357C173.857 77.6614 173.857 78.8709 173.857 79.3547C173.857 80.5642 173.373 81.2899 172.648 81.7737C172.164 82.0156 171.439 82.0157 170.713 82.0157H169.746V85.1603C169.746 85.6441 169.504 85.886 169.02 85.886ZM169.746 77.4195C169.262 77.4195 169.02 77.6614 169.02 78.1452V85.1603V81.5318H170.713C171.197 81.5318 171.68 81.5317 172.164 81.2898C172.89 81.0479 173.132 80.3223 173.132 79.3547C173.132 78.8709 172.89 77.9033 172.164 77.6614C171.68 77.4195 171.197 77.4195 170.713 77.4195H169.746V77.4195ZM170.713 81.5318H169.262V78.1452C169.262 77.6614 169.504 77.4195 169.987 77.4195H170.713C171.439 77.4195 173.373 77.4196 173.373 79.5967C173.373 81.5319 171.439 81.5318 170.713 81.5318ZM169.746 80.8062H170.713C171.68 80.8062 172.648 80.8061 172.648 79.3547C172.648 77.9033 171.68 77.9033 170.713 77.9033H169.987V80.8062H169.746Z" fill="black"></path><path d="M140.964 111.044L139.997 113.463C139.997 113.705 139.997 113.704 139.755 113.704C139.513 113.704 139.271 113.705 139.271 113.463V113.221L142.416 105.48C142.416 105.238 142.658 104.996 142.899 104.996C143.383 104.996 143.383 105.238 143.383 105.48L146.285 113.221V113.463C146.285 113.705 146.044 113.704 145.802 113.704C145.56 113.704 145.56 113.463 145.56 113.463L144.592 111.044H140.964ZM144.834 110.318L143.141 105.964L141.448 110.318H144.834Z" fill="black"></path><path d="M146.285 113.946C145.802 113.946 145.802 113.705 145.56 113.463L144.592 111.286H140.964L139.997 113.463C139.997 113.705 139.755 113.946 139.271 113.946C139.03 113.946 138.546 113.705 138.546 113.221V112.979L141.69 105.238C141.932 104.754 142.174 104.754 142.416 104.754C142.899 104.754 143.141 104.996 143.141 105.238L146.044 112.979C146.044 113.221 146.044 113.221 146.044 113.463C147.011 113.705 146.527 113.946 146.285 113.946ZM140.723 110.802H145.076L146.044 113.463L142.899 105.722C142.899 105.722 142.899 105.48 142.658 105.48L144.592 110.802H140.723L142.658 105.48C142.658 105.48 142.658 105.48 142.416 105.722L139.271 113.463V113.705L140.723 110.802ZM141.69 110.076H144.351L143.141 106.689L141.69 110.076Z" fill="black"></path><path d="M150.88 113.704C149.913 113.704 149.913 112.979 149.913 112.737V106.448C149.913 106.206 149.913 105.48 150.88 105.48H152.332C153.057 105.48 154.992 105.48 154.992 107.415C154.992 108.625 154.266 109.108 153.783 109.35C154.266 109.592 155.234 109.834 155.234 111.527C155.234 113.704 153.057 113.704 152.332 113.704H150.88V113.704ZM152.332 108.866C152.815 108.866 154.266 108.867 154.266 107.415C154.266 105.964 153.057 105.964 152.09 105.964H150.88C150.639 105.964 150.397 105.964 150.397 106.448V109.108H152.332V108.866ZM150.639 112.495C150.639 112.737 150.88 112.979 151.122 112.979H152.573C153.299 112.979 154.992 112.979 154.992 111.285C154.992 109.592 153.299 109.592 152.815 109.592H150.88V112.495H150.639Z" fill="black"></path><path d="M152.332 113.946H150.639C149.913 113.946 149.43 113.463 149.43 112.495V106.448C149.43 105.48 149.913 104.996 150.639 104.996H152.09C152.816 104.996 155.234 104.996 155.234 107.415C155.234 108.383 154.751 108.867 154.267 109.35C154.751 109.592 155.476 110.318 155.476 111.527C155.718 112.979 154.509 113.946 152.332 113.946ZM150.881 105.722C150.397 105.722 150.155 105.964 150.155 106.448V112.737C150.155 113.221 150.155 113.463 150.881 113.463H152.574C153.783 113.463 155.234 113.221 155.234 111.527C155.234 110.802 154.992 110.318 154.751 110.076C154.992 110.318 155.234 110.802 155.234 111.527C155.234 113.463 153.299 113.463 152.574 113.463H151.123C150.881 113.463 150.397 113.463 150.397 112.737V106.448C150.155 105.964 150.397 105.722 150.881 105.722H152.332C153.299 105.722 154.751 105.722 154.751 107.415C154.751 107.657 154.751 108.141 154.509 108.383C154.751 108.141 154.751 107.899 154.751 107.173C154.751 105.722 153.541 105.48 152.332 105.48H150.881V105.722ZM150.881 112.737H152.332C153.299 112.737 154.509 112.737 154.509 111.527C154.509 110.318 153.541 110.076 152.574 110.076H150.881V112.737C150.881 112.737 150.881 112.495 150.881 112.737ZM152.574 109.35C152.816 109.35 152.816 109.35 153.058 109.35L153.299 109.108C153.058 109.108 152.816 109.35 152.574 109.35ZM150.881 108.625H152.332C153.058 108.625 154.025 108.383 154.025 107.415C154.025 106.448 153.299 106.206 152.09 106.206H150.881V108.625Z" fill="black"></path><path d="M162.732 105.238C165.15 105.238 167.085 106.931 167.085 109.592C167.085 112.011 165.15 113.946 162.732 113.946C160.313 113.946 158.378 112.253 158.378 109.592C158.378 106.931 160.313 105.238 162.732 105.238ZM162.732 113.221C164.667 113.221 166.36 111.527 166.36 109.592C166.36 107.657 164.909 105.964 162.732 105.964C160.797 105.964 159.104 107.657 159.104 109.592C159.104 111.527 160.797 113.221 162.732 113.221Z" fill="black"></path><path d="M162.732 113.946C160.071 113.946 158.136 112.011 158.136 109.35C158.136 106.689 160.071 104.754 162.732 104.754C165.392 104.754 167.327 106.689 167.327 109.35C167.327 112.011 165.392 113.946 162.732 113.946ZM162.732 105.48C160.313 105.48 158.62 107.173 158.62 109.592C158.62 111.769 160.313 113.705 162.732 113.705C165.15 113.705 166.843 112.011 166.843 109.592C166.843 107.173 165.15 105.48 162.732 105.48ZM162.732 113.463C160.555 113.463 158.862 111.769 158.862 109.592C158.862 107.415 160.555 105.48 162.732 105.48C164.908 105.48 166.601 107.173 166.601 109.592C166.601 111.769 164.908 113.463 162.732 113.463ZM162.732 105.964C160.797 105.964 159.346 107.415 159.346 109.35C159.346 111.286 160.797 112.737 162.732 112.737C164.666 112.737 166.118 111.286 166.118 109.35C166.118 107.657 164.666 105.964 162.732 105.964Z" fill="black"></path><path d="M170.471 105.48C170.471 105.238 170.713 105.238 170.713 105.238C170.955 105.238 170.955 105.238 170.955 105.48V110.076C170.955 111.286 170.955 113.221 173.615 113.221C176.276 113.221 176.276 111.286 176.276 110.076V105.48C176.276 105.238 176.517 105.238 176.517 105.238C176.759 105.238 176.759 105.238 176.759 105.48V110.076C176.759 111.286 176.759 113.946 173.373 113.946C169.987 113.946 169.987 111.527 169.987 110.076V105.48H170.471Z" fill="black"></path><path d="M173.857 113.946C170.229 113.946 170.229 111.044 170.229 109.834V105.238C170.229 104.754 170.471 104.512 170.955 104.512C171.438 104.512 171.68 104.754 171.68 105.238V109.834C171.68 111.286 171.922 112.737 174.099 112.737C176.275 112.737 176.517 111.286 176.517 109.834V105.238C176.517 104.754 176.759 104.512 177.243 104.512C177.727 104.512 177.968 104.754 177.968 105.238V109.834C177.727 111.044 177.727 113.946 173.857 113.946ZM170.713 105.48V110.076C170.713 111.769 171.196 113.463 173.857 113.463C176.517 113.463 177.001 111.769 177.001 110.076V105.48V110.076C177.001 111.286 177.001 113.463 173.857 113.463C170.713 113.463 170.713 111.044 170.713 110.076V105.48Z" fill="black"></path><path d="M184.257 113.463C184.257 113.705 184.015 113.704 184.015 113.704C183.773 113.704 183.773 113.705 183.773 113.463V105.964H181.112C180.871 105.964 180.871 105.722 180.871 105.722C180.871 105.48 180.871 105.48 181.112 105.48H187.159C187.401 105.48 187.401 105.722 187.401 105.722C187.401 105.964 187.401 105.964 187.159 105.964H184.498V113.463H184.257Z" fill="black"></path><path d="M183.773 113.946C183.289 113.946 183.047 113.705 183.047 113.221V105.964H180.629C180.387 105.964 179.903 105.722 179.903 105.238C179.903 104.754 180.145 104.512 180.629 104.512H186.675C187.159 104.512 187.401 104.754 187.401 105.238C187.401 105.48 187.159 105.964 186.675 105.964H184.257V113.221C184.499 113.946 184.257 113.946 183.773 113.946ZM180.871 105.722H183.773V113.463V105.722H186.675H180.871Z" fill="black"></path><path d="M136.37 141.039C136.853 141.281 137.337 141.281 137.821 141.281C138.788 141.281 139.998 140.797 139.998 139.588C139.998 138.378 139.03 138.136 138.304 137.894C137.337 137.653 136.128 137.169 136.128 135.717C136.128 134.508 137.095 133.54 138.546 133.54C139.03 133.54 139.514 133.782 139.998 133.782C139.998 133.782 140.239 133.782 140.239 134.024C140.239 134.266 139.998 134.266 139.998 134.266H139.756C139.514 134.266 139.03 134.024 138.546 134.024C137.337 134.024 136.853 134.75 136.853 135.717C136.853 136.685 137.821 137.169 138.546 137.411C139.514 137.894 140.723 138.136 140.723 139.83C140.723 141.281 139.514 142.249 137.821 142.249C136.853 142.249 136.128 142.007 135.886 141.765C135.644 141.765 135.644 141.523 135.644 141.523C135.644 141.281 135.886 141.281 135.886 141.281C136.128 140.797 136.128 141.039 136.37 141.039Z" fill="black"></path><path d="M137.82 142.249C136.853 142.249 136.127 142.007 135.886 141.765C135.644 141.765 135.402 141.523 135.402 141.039C135.402 140.797 135.644 140.313 136.127 140.313C136.127 140.313 136.369 140.313 136.611 140.555C137.095 140.797 137.579 140.797 138.062 140.797C138.546 140.797 139.997 140.797 139.997 139.346C139.997 138.378 139.272 138.136 138.304 137.894C137.337 137.652 135.886 136.927 135.886 135.475C135.886 134.266 136.853 132.815 138.546 132.815C139.03 132.815 139.755 133.056 140.239 133.298C140.481 133.54 140.723 133.54 140.723 133.782C140.723 134.024 140.481 134.508 139.997 134.508C139.755 134.508 139.755 134.508 139.513 134.266C139.272 134.266 139.03 134.024 138.546 134.024C137.579 134.024 137.095 134.75 137.095 135.234C137.095 135.959 137.579 136.201 138.788 136.685C139.755 137.169 141.206 137.652 141.206 139.346C140.965 141.281 139.755 142.249 137.82 142.249ZM135.886 141.281C135.886 141.281 136.127 141.281 135.886 141.281C136.369 141.523 136.853 141.765 137.82 141.765C139.03 141.765 140.239 141.281 140.239 139.83C140.239 138.378 139.272 138.136 138.304 137.653C137.337 137.411 136.369 136.927 136.369 135.717C136.369 134.75 137.095 133.782 138.304 133.782C138.788 133.782 139.272 134.024 139.513 134.024H139.755C139.272 133.782 138.788 133.782 138.304 133.782C137.095 133.782 136.127 134.508 136.127 135.717C136.127 136.927 137.095 137.411 138.062 137.653C139.03 137.894 139.997 138.378 139.997 139.83C139.997 141.281 138.788 141.765 137.579 141.765C137.095 141.765 136.369 141.523 135.886 141.281V141.281C136.127 141.281 136.127 141.281 135.886 141.281Z" fill="black"></path><path d="M148.463 137.169C148.704 137.169 148.704 137.411 148.704 137.411C148.704 137.652 148.704 137.653 148.463 137.653H144.835V140.555C144.835 140.797 145.077 141.039 145.318 141.039H148.946C149.188 141.039 149.188 141.281 149.188 141.281C149.188 141.523 149.188 141.523 148.946 141.523H145.318C144.351 141.523 144.351 140.797 144.351 140.555V134.266C144.351 134.024 144.351 133.298 145.318 133.298H148.946C149.188 133.298 149.188 133.54 149.188 133.54C149.188 133.782 149.188 133.782 148.946 133.782H145.318C145.077 133.782 144.835 133.782 144.835 134.266V136.927H148.463V137.169Z" fill="black"></path><path d="M148.946 142.249H145.318C144.593 142.249 144.109 141.765 144.109 140.797V134.508C144.109 133.54 144.593 133.057 145.318 133.057H148.946C149.43 133.057 149.672 133.298 149.672 133.782C149.672 134.024 149.43 134.508 148.946 134.508H145.318V136.927H148.704C149.188 136.927 149.188 137.169 149.188 137.653C149.188 138.136 148.946 138.378 148.704 138.378H145.318V141.039H148.946C149.43 141.039 149.672 141.281 149.672 141.765C149.672 141.765 149.43 142.249 148.946 142.249ZM145.318 133.782C144.834 133.782 144.593 134.024 144.593 134.508V140.797C144.593 141.281 144.593 141.523 145.318 141.523H149.188H145.56C145.318 141.523 144.834 141.523 144.834 140.797V137.653H148.704H144.834V134.75C144.593 134.024 145.076 133.782 145.318 133.782H148.946H145.318Z" fill="black"></path><path d="M157.653 141.281C157.653 141.523 157.895 141.523 157.895 141.523C157.895 141.765 157.653 141.765 157.653 141.765C157.411 141.765 157.411 141.765 157.411 141.523L154.509 137.894H153.541V141.523C153.541 141.765 153.299 141.765 153.299 141.765C153.058 141.765 153.058 141.765 153.058 141.523V134.508C153.058 134.266 153.058 133.54 154.025 133.54H155.476C157.169 133.54 157.895 134.508 157.895 135.717C157.895 136.685 157.411 137.894 155.476 137.894L157.653 141.281ZM154.751 137.411C155.234 137.411 156.927 137.411 156.927 135.717C156.927 134.024 155.476 134.024 154.751 134.024H153.783C153.541 134.024 153.299 134.024 153.299 134.508V137.411H154.751Z" fill="black"></path><path d="M157.411 142.249C157.169 142.249 156.927 142.007 156.927 142.007L154.267 138.378H153.783V141.765C153.783 142.249 153.541 142.491 153.058 142.491C152.574 142.491 152.332 142.249 152.332 141.765V134.75C152.332 133.782 152.816 133.298 153.541 133.298H154.993C156.927 133.298 157.653 134.508 157.653 135.959C157.653 137.169 157.169 138.136 155.476 138.378L157.653 141.281L157.411 141.523L157.653 141.281C157.653 141.523 157.895 141.523 157.895 141.765C158.137 142.007 157.653 142.249 157.411 142.249ZM153.058 137.653H154.509L157.411 141.523C157.411 141.523 157.411 141.523 157.411 141.281L157.653 141.039L157.411 141.281L154.509 137.411H154.993C156.927 137.411 157.169 135.959 157.169 135.475C157.169 134.266 156.444 133.54 154.993 133.54H153.541C153.058 133.54 152.816 133.782 152.816 134.266V141.281V137.653H153.058ZM154.751 137.653H153.058V134.508C153.058 133.782 153.541 133.782 153.783 133.782H154.751C155.234 133.782 157.169 133.782 157.169 135.717C157.169 137.169 156.444 137.653 154.751 137.653ZM153.541 137.169H154.751C155.718 137.169 156.686 136.927 156.686 135.717C156.686 134.508 155.718 134.508 154.751 134.508H153.783V137.169H153.541Z" fill="black"></path><path d="M167.085 133.54C167.085 133.54 167.085 133.298 167.327 133.298C167.569 133.298 167.811 133.54 167.811 133.54V133.782L164.667 141.523C164.667 141.765 164.425 142.007 164.183 142.007C163.941 142.007 163.699 141.765 163.699 141.523L160.555 133.782V133.54C160.555 133.298 160.797 133.298 161.039 133.298C161.281 133.298 161.281 133.298 161.281 133.54L164.425 141.281L167.085 133.54Z" fill="black"></path><path d="M163.941 142.249C163.457 142.249 163.215 141.765 163.215 141.765L160.071 134.024C160.071 134.024 160.071 133.782 160.071 133.54C160.071 133.056 160.313 132.815 160.797 132.815C161.281 132.815 161.281 133.056 161.281 133.298L163.941 140.313L166.601 133.298H166.843L166.601 133.056C166.601 133.056 166.843 132.573 167.085 132.573C167.327 132.573 167.811 132.814 167.811 133.298C167.811 133.54 167.811 133.54 167.811 133.782L164.667 141.523C164.667 141.765 164.667 142.249 163.941 142.249ZM167.085 133.54H167.327L164.183 141.523C164.183 141.523 164.183 141.523 164.425 141.281L167.569 133.54C167.569 133.54 167.569 133.54 167.569 133.298L167.085 133.54ZM160.555 133.782L163.699 141.523C163.699 141.523 163.699 141.765 163.941 141.765L160.555 133.782Z" fill="black"></path><path d="M170.956 133.782C170.956 133.54 171.197 133.298 171.197 133.298C171.439 133.298 171.439 133.54 171.439 133.782V141.765C171.439 142.007 171.197 142.249 171.197 142.249C170.956 142.249 170.956 142.007 170.956 141.765V133.782Z" fill="black"></path><path d="M171.439 142.249C170.955 142.249 170.713 142.007 170.713 141.523V133.54C170.713 133.056 170.955 132.815 171.439 132.815C171.923 132.815 172.164 133.056 172.164 133.54V141.523C172.164 142.007 171.681 142.249 171.439 142.249ZM171.439 133.782V141.765V133.782Z" fill="black"></path><path d="M175.309 137.653C175.309 135.234 177.002 133.298 179.662 133.298C180.63 133.298 181.355 133.54 181.839 133.782C182.081 133.782 182.081 134.024 182.081 134.024C182.081 134.266 181.839 134.266 181.839 134.266C181.839 134.266 181.597 134.266 181.597 134.024C180.871 133.54 180.146 133.54 179.904 133.54C177.727 133.54 176.276 135.234 176.276 137.169C176.276 138.862 177.485 140.797 180.146 140.797C180.871 140.797 181.355 140.555 181.839 140.555C181.839 140.555 182.081 140.313 182.322 140.313C182.322 140.313 182.564 140.313 182.564 140.555C182.564 140.797 182.322 140.797 182.322 140.797C181.597 141.281 180.629 141.281 179.904 141.281C177.002 142.007 175.309 140.072 175.309 137.653Z" fill="black"></path><path d="M179.904 142.249C177.001 142.249 175.066 140.313 175.066 137.653C175.066 134.992 177.001 133.057 179.662 133.057C180.629 133.057 181.355 133.298 182.08 133.54C182.322 133.782 182.564 133.782 182.564 134.024C182.564 134.266 182.322 134.75 181.838 134.75C181.597 134.75 181.597 134.75 181.355 134.508C180.871 134.266 180.145 134.024 179.662 134.024C177.727 134.024 176.276 135.475 176.276 137.411C176.276 139.104 177.243 140.797 179.662 140.797C180.387 140.797 180.871 140.555 181.355 140.555C181.838 140.313 181.838 140.313 181.838 140.313C182.08 140.313 182.322 140.555 182.322 141.039C182.322 141.281 182.322 141.523 181.838 141.523C181.355 142.249 180.387 142.249 179.904 142.249ZM179.904 133.782C177.485 133.782 175.792 135.475 175.792 137.894C175.792 139.83 177.001 142.007 179.904 142.007C180.387 142.007 181.355 142.007 182.08 141.523H181.838C181.355 141.765 180.871 142.007 179.904 142.007C177.001 142.007 175.792 139.83 175.792 138.136C175.792 135.475 177.485 133.782 179.904 133.782C180.387 133.782 181.113 133.782 181.838 134.266C181.355 133.782 180.629 133.782 179.904 133.782Z" fill="black"></path><path d="M190.062 137.169C190.304 137.169 190.304 137.411 190.304 137.411C190.304 137.652 190.304 137.653 190.062 137.653H186.434V140.555C186.434 140.797 186.676 141.039 186.918 141.039H190.546C190.788 141.039 190.787 141.281 190.787 141.281C190.787 141.523 190.788 141.523 190.546 141.523H186.676C185.708 141.523 185.708 140.797 185.708 140.555V134.266C185.708 134.024 185.708 133.298 186.676 133.298H190.304C190.546 133.298 190.546 133.54 190.546 133.54C190.546 133.782 190.546 133.782 190.304 133.782H186.676C186.434 133.782 186.192 133.782 186.192 134.266V136.927H190.062V137.169Z" fill="black"></path><path d="M190.545 142.249H186.676C185.95 142.249 185.466 141.765 185.466 140.797V134.508C185.466 133.54 185.95 133.057 186.676 133.057H190.304C190.787 133.057 191.029 133.298 191.029 133.782C191.029 134.024 190.787 134.508 190.304 134.508H186.676V136.927H190.062C190.545 136.927 190.545 137.169 190.545 137.653C190.545 138.136 190.303 138.378 190.062 138.378H186.676V141.039H190.304C190.787 141.039 191.029 141.281 191.029 141.765C191.029 141.765 190.787 142.249 190.545 142.249ZM186.676 133.782C186.192 133.782 185.95 134.024 185.95 134.508V140.797C185.95 141.281 185.95 141.523 186.676 141.523H190.545H186.917C186.676 141.523 186.192 141.523 186.192 140.797V137.653H190.062H186.192V134.75C185.95 134.024 186.434 133.782 186.676 133.782H190.304H186.676Z" fill="black"></path><path d="M73.7285 113.704C73.7285 113.221 74.2123 112.737 74.696 112.737H110.249C110.733 112.737 111.216 113.221 111.216 113.704C111.216 114.188 110.733 114.672 110.249 114.672H74.696C74.2123 114.672 73.7285 114.188 73.7285 113.704Z" fill="black"></path><path d="M110.249 115.882H74.6958C73.4865 115.882 72.519 114.914 72.519 113.705C72.519 112.495 73.4865 111.527 74.6958 111.527H110.249C111.458 111.527 112.426 112.495 112.426 113.705C112.426 114.914 111.458 115.882 110.249 115.882Z" fill="black"></path><path d="M81.2263 105.964L82.4355 107.173L75.4217 113.704L82.4355 120.236L81.2263 121.687L72.7612 113.704L81.2263 105.964Z" fill="black"></path><path d="M81.226 123.38L70.8262 113.705L81.226 104.27L84.1283 107.415L77.3563 113.705L84.1283 120.236L81.226 123.38Z" fill="black"></path><path d="M227.308 222.801H9.63636C4.55735 222.801 0.445801 218.689 0.445801 213.609V9.20387C0.445801 4.12398 4.55735 0.0117188 9.63636 0.0117188H227.308C232.387 0.0117188 236.499 4.12398 236.499 9.20387V213.609C236.499 218.689 232.387 222.801 227.308 222.801ZM9.39452 4.84971C6.97595 4.84971 5.04108 6.78487 5.04108 9.20387V213.609C5.04108 216.028 6.97595 217.963 9.39452 217.963H227.066C229.485 217.963 231.42 216.028 231.42 213.609V9.20387C231.42 6.78487 229.485 4.84971 227.066 4.84971H9.39452Z" fill="black"></path><path d="M219.327 15.7352L208.927 25.4111C208.685 25.653 208.201 25.653 207.959 25.4111L207.718 25.1693C207.476 24.9274 207.476 24.4435 207.718 24.2016L218.117 14.5257C218.359 14.2838 218.843 14.2838 219.085 14.5257L219.327 14.7675C219.569 15.2513 219.569 15.4933 219.327 15.7352Z" fill="#040000"></path><path d="M218.117 25.4111L207.718 15.7352C207.476 15.4933 207.476 15.0094 207.718 14.7675L207.959 14.5257C208.201 14.2838 208.685 14.2838 208.927 14.5257L219.327 24.2016C219.569 24.4435 219.569 24.9274 219.327 25.1693L219.085 25.4111C218.843 25.653 218.601 25.653 218.117 25.4111Z" fill="#040000"></path></svg> 