<?xml version="1.0" encoding="UTF-8"?> <svg xmlns="http://www.w3.org/2000/svg" width="236" height="223" viewBox="0 0 236 223" fill="none"><path d="M232.849 9.4098C232.849 5.54938 229.712 2.65405 226.092 2.65405H124.749C120.888 2.65405 116.545 5.3081 114.856 8.68597C114.856 8.68597 88.3137 60.5605 115.58 103.266C154.67 164.551 226.334 151.522 226.334 151.522C229.953 150.798 233.09 147.179 233.09 143.56L232.849 9.4098Z" fill="#C3B68F"></path><path d="M170.111 41.017C170.111 41.2583 169.87 41.2583 169.87 41.2583C169.629 41.2583 169.629 41.2583 169.629 41.017V33.5375H166.975C166.733 33.5375 166.733 33.2962 166.733 33.2962C166.733 33.0549 166.733 33.0549 166.975 33.0549H173.007C173.248 33.0549 173.248 33.2962 173.248 33.2962C173.248 33.5375 173.248 33.5375 173.007 33.5375H170.353V41.017H170.111Z" fill="black"></path><path d="M169.629 41.4995C169.147 41.4995 168.905 41.2583 168.905 40.7757V33.5374H166.492C166.01 33.5374 165.769 33.2961 165.769 32.8136C165.769 32.331 166.01 32.0898 166.492 32.0898H172.525C173.007 32.0898 173.249 32.331 173.249 32.8136C173.249 33.0549 173.007 33.5374 172.525 33.5374H170.112V40.7757C170.353 41.2583 169.871 41.4995 169.629 41.4995ZM166.734 33.0549H169.629V40.7757V33.0549H172.525H166.734Z" fill="black"></path><path d="M180.006 32.5732C182.419 32.5732 184.349 34.2621 184.349 36.9162C184.349 39.3289 182.419 41.2591 180.006 41.2591C177.593 41.2591 175.663 39.5702 175.663 36.9162C175.904 34.5034 177.593 32.5732 180.006 32.5732ZM180.006 40.5353C181.936 40.5353 183.625 38.8464 183.625 36.9162C183.625 34.9859 182.178 33.297 180.006 33.297C178.076 33.297 176.386 34.9859 176.386 36.9162C176.386 38.8464 178.076 40.5353 180.006 40.5353Z" fill="black"></path><path d="M180.005 41.4995C177.351 41.4995 175.42 39.5693 175.42 36.9153C175.42 34.2613 177.351 32.331 180.005 32.331C182.659 32.331 184.59 34.2613 184.59 36.9153C184.59 39.5693 182.659 41.4995 180.005 41.4995ZM180.005 33.0549C177.592 33.0549 175.903 34.7438 175.903 37.1566C175.903 39.328 177.592 41.2583 180.005 41.2583C182.418 41.2583 184.107 39.5693 184.107 37.1566C184.107 34.7438 182.418 33.0549 180.005 33.0549ZM180.005 41.017C177.833 41.017 176.144 39.328 176.144 37.1566C176.144 34.9851 177.833 33.2962 180.005 33.2962C182.177 33.2962 183.866 34.9851 183.866 37.1566C183.866 39.328 182.418 41.017 180.005 41.017ZM180.005 33.5374C178.075 33.5374 176.627 34.9851 176.627 36.9153C176.627 38.8455 178.075 40.2932 180.005 40.2932C181.935 40.2932 183.383 38.8455 183.383 36.9153C183.383 34.9851 181.935 33.5374 180.005 33.5374Z" fill="black"></path><path d="M188.451 41.017C188.451 41.2583 188.21 41.2582 188.21 41.2582C187.968 41.2582 187.968 41.2583 187.968 41.017V34.0199C187.968 33.7786 187.968 33.0548 188.933 33.0548H190.14C190.864 33.0548 191.346 33.0548 191.829 33.2961C192.794 33.7787 193.035 34.985 193.035 35.4676C193.035 36.1914 192.794 37.1565 191.829 37.6391C191.346 37.8804 190.864 37.8804 190.14 37.8804H188.692V41.017H188.451ZM189.899 36.9153C190.622 36.9153 192.07 36.9152 192.07 35.2263C192.07 33.5374 190.622 33.5374 189.899 33.5374H189.175C188.933 33.5374 188.692 33.5374 188.692 34.0199V37.1565H189.899V36.9153Z" fill="black"></path><path d="M188.209 41.4995C187.727 41.4995 187.485 41.2583 187.485 40.7757V33.7787C187.485 32.8136 187.968 32.331 188.692 32.331H189.898C190.622 32.331 191.105 32.331 191.829 32.8136C193.035 33.5374 193.035 34.7438 193.035 35.2263C193.035 36.4327 192.553 37.1565 191.829 37.6391C191.346 37.8804 190.622 37.8804 189.898 37.8804H188.933V41.017C188.933 41.2583 188.451 41.4995 188.209 41.4995ZM188.692 33.0549C188.209 33.0549 187.968 33.2961 187.968 33.7787V40.7757V37.1566H189.657C190.14 37.1566 190.622 37.1566 191.105 36.9153C191.829 36.674 192.07 35.9502 192.07 34.9851C192.07 34.5025 191.829 33.5374 191.105 33.2962C190.622 33.0549 190.14 33.0549 189.657 33.0549H188.692V33.0549ZM189.898 37.3978H188.451V34.02C188.451 33.5374 188.692 33.2962 189.174 33.2962H189.898C190.622 33.2962 192.553 33.2961 192.553 35.4676C192.311 37.3978 190.622 37.3978 189.898 37.3978ZM188.933 36.674H189.898C190.863 36.674 191.829 36.674 191.829 35.2263C191.829 33.7787 190.863 33.7787 189.898 33.7787H189.174V36.674H188.933Z" fill="black"></path><path d="M160.218 66.5923L159.253 69.0051C159.253 69.2464 159.253 69.2464 159.012 69.2464C158.771 69.2464 158.529 69.2464 158.529 69.0051V68.7638L161.666 61.043C161.666 60.8017 161.907 60.5604 162.149 60.5604C162.631 60.5604 162.631 60.8017 162.631 61.043L165.527 68.7638V69.0051C165.527 69.2464 165.286 69.2464 165.044 69.2464C164.803 69.2464 164.803 69.0051 164.803 69.0051L163.838 66.5923H160.218ZM163.838 66.1098L162.149 61.7668L160.46 66.1098H163.838Z" fill="black"></path><path d="M165.527 69.7289C165.044 69.7289 165.044 69.4876 164.803 69.2463L163.838 66.8336H160.219L159.253 69.005C159.253 69.2463 159.012 69.4876 158.53 69.4876C158.288 69.4876 157.806 69.2463 157.806 68.7638V68.5225L160.942 60.8017C161.184 60.3191 161.425 60.0778 161.666 60.0778C162.149 60.0778 162.39 60.3191 162.39 60.8017L165.286 68.5225C165.286 68.7638 165.286 68.7638 165.286 69.005C166.01 69.4876 165.768 69.7289 165.527 69.7289ZM159.977 66.351H164.321L165.286 69.005L162.149 61.2842C162.149 61.2842 162.149 61.0429 161.908 61.0429L163.838 66.351H159.977L161.908 61.0429C161.908 61.0429 161.908 61.0429 161.666 61.2842L158.53 69.005V69.2463L159.977 66.351ZM160.942 65.6272H163.597L162.39 62.2493L160.942 65.6272Z" fill="black"></path><path d="M169.87 69.2464C168.905 69.2464 168.905 68.5226 168.905 68.2813V62.0081C168.905 61.7668 168.905 61.043 169.87 61.043H171.318C172.042 61.043 173.973 61.0429 173.973 62.9732C173.973 64.1795 173.249 64.6621 172.766 64.9034C173.249 65.1447 174.214 65.386 174.214 67.0749C174.214 69.2464 172.042 69.2464 171.318 69.2464H169.87V69.2464ZM171.56 64.6621C172.042 64.6621 173.49 64.6621 173.49 63.2144C173.49 61.7668 172.283 61.7668 171.318 61.7668H170.112C169.87 61.7668 169.629 61.7668 169.629 62.2494V64.9034H171.56V64.6621ZM169.629 68.2813C169.629 68.5226 169.87 68.7638 170.112 68.7638H171.56C172.283 68.7638 173.973 68.7638 173.973 67.0749C173.973 65.386 172.283 65.3859 171.801 65.3859H169.87V68.2813H169.629Z" fill="black"></path><path d="M171.56 69.4877H169.871C169.147 69.4877 168.664 69.0051 168.664 68.04V61.7668C168.664 60.8017 169.147 60.3192 169.871 60.3192H171.318C172.042 60.3192 174.455 60.3192 174.455 62.7319C174.455 63.697 173.972 64.1796 173.49 64.6622C173.972 64.9034 174.696 65.6272 174.696 66.8336C174.696 68.7638 173.731 69.4877 171.56 69.4877ZM169.871 61.2843C169.388 61.2843 169.147 61.5256 169.147 62.0081V68.2813C169.147 68.7638 169.147 69.0051 169.871 69.0051H171.56C172.766 69.0051 174.214 68.7638 174.214 67.0749C174.214 66.3511 173.972 65.8685 173.731 65.6272C173.972 65.8685 174.214 66.3511 174.214 67.0749C174.214 69.0051 172.283 69.0051 171.56 69.0051H170.112C169.87 69.0051 169.388 69.0051 169.388 68.2813V62.0081C169.388 61.5256 169.629 61.2843 169.871 61.2843H171.318C172.283 61.2843 173.731 61.2843 173.731 62.9732C173.731 63.2145 173.731 63.697 173.49 63.9383C173.731 63.697 173.731 63.4558 173.731 62.7319C173.731 61.2843 172.525 61.043 171.318 61.043H169.871V61.2843ZM170.112 68.2813H171.56C172.525 68.2813 173.731 68.2813 173.731 67.0749C173.731 65.8685 172.766 65.6272 171.801 65.6272H170.112V68.2813C169.87 68.2813 169.87 68.2813 170.112 68.2813C169.87 68.2813 169.87 68.2813 170.112 68.2813ZM171.56 64.9034C171.801 64.9034 172.042 64.9034 172.042 64.9034L172.283 64.6622C172.283 64.9034 172.042 64.9034 171.56 64.9034ZM169.871 64.4209H171.318C172.042 64.4209 173.007 64.1796 173.007 63.2145C173.007 62.2494 172.283 62.0081 171.077 62.0081H169.871V64.4209V64.4209Z" fill="black"></path><path d="M181.936 60.8026C184.349 60.8026 186.279 62.4915 186.279 65.1456C186.279 67.5583 184.349 69.4886 181.936 69.4886C179.523 69.4886 177.593 67.7996 177.593 65.1456C177.593 62.7328 179.523 60.8026 181.936 60.8026ZM181.936 68.7647C183.866 68.7647 185.555 67.0758 185.555 65.1456C185.555 63.2154 184.108 61.5264 181.936 61.5264C180.006 61.5264 178.317 63.2154 178.317 65.1456C178.317 67.0758 179.764 68.7647 181.936 68.7647Z" fill="black"></path><path d="M181.935 69.7289C179.281 69.7289 177.351 67.7987 177.351 65.1447C177.351 62.4906 179.281 60.5604 181.935 60.5604C184.589 60.5604 186.52 62.4906 186.52 65.1447C186.52 67.7987 184.348 69.7289 181.935 69.7289ZM181.935 61.043C179.522 61.043 177.833 62.7319 177.833 65.1447C177.833 67.3162 179.522 69.2464 181.935 69.2464C184.348 69.2464 186.037 67.5574 186.037 65.1447C185.796 62.7319 184.107 61.043 181.935 61.043ZM181.935 69.0051C179.764 69.0051 178.074 67.3162 178.074 65.1447C178.074 62.9732 179.764 61.2842 181.935 61.2842C184.107 61.2842 185.796 62.9732 185.796 65.1447C185.796 67.3162 184.107 69.0051 181.935 69.0051ZM181.935 61.7668C180.005 61.7668 178.557 63.2145 178.557 65.1447C178.557 67.0749 180.005 68.5225 181.935 68.5225C183.866 68.5225 185.313 67.0749 185.313 65.1447C185.072 63.2145 183.624 61.7668 181.935 61.7668Z" fill="black"></path><path d="M189.656 61.2842C189.656 61.0429 189.898 61.043 189.898 61.043C190.139 61.043 190.139 61.0429 190.139 61.2842V65.8685C190.139 67.0749 190.139 69.0051 192.793 69.0051C195.448 69.0051 195.448 67.0749 195.448 65.8685V61.2842C195.448 61.0429 195.689 61.043 195.689 61.043C195.93 61.043 195.93 61.0429 195.93 61.2842V65.8685C195.93 67.0749 195.93 69.7289 192.552 69.7289C189.174 69.7289 189.174 67.3162 189.174 65.8685V61.2842H189.656Z" fill="black"></path><path d="M193.035 69.729C189.416 69.729 189.416 66.8337 189.416 65.6273V61.043C189.416 60.5605 189.657 60.3192 190.14 60.3192C190.622 60.3192 190.864 60.5605 190.864 61.043V65.6273C190.864 67.0749 191.105 68.5226 193.277 68.5226C195.448 68.5226 195.69 67.0749 195.69 65.6273V61.043C195.69 60.5605 195.931 60.3192 196.414 60.3192C196.896 60.3192 197.137 60.5605 197.137 61.043V65.6273C196.655 66.8337 196.655 69.729 193.035 69.729ZM189.899 61.043V65.6273C189.899 67.3162 190.381 69.0051 193.035 69.0051C195.69 69.0051 196.172 67.3162 196.172 65.6273V61.043V65.6273C196.172 66.8337 196.172 69.0051 193.035 69.0051C189.899 69.0051 189.899 66.5924 189.899 65.6273V61.043Z" fill="black"></path><path d="M203.169 69.0051C203.169 69.2464 202.928 69.2464 202.928 69.2464C202.687 69.2464 202.687 69.2464 202.687 69.0051V61.5255H199.791C199.55 61.5255 199.55 61.2842 199.55 61.2842C199.55 61.0429 199.55 61.043 199.791 61.043H205.823C206.065 61.043 206.065 61.2842 206.065 61.2842C206.065 61.5255 206.065 61.5255 205.823 61.5255H203.169V69.0051Z" fill="black"></path><path d="M202.928 69.729C202.445 69.729 202.204 69.4877 202.204 69.0051V61.7668H199.791C199.308 61.7668 199.067 61.5256 199.067 61.043C199.067 60.5605 199.308 60.3192 199.791 60.3192H205.823C206.306 60.3192 206.547 60.5605 206.547 61.043C206.547 61.2843 206.306 61.7668 205.823 61.7668H203.41V69.0051C203.652 69.4877 203.169 69.729 202.928 69.729ZM199.791 61.2843H202.686V69.0051V61.2843H205.582H199.791Z" fill="black"></path><path d="M155.634 96.5107C156.117 96.752 156.599 96.752 157.082 96.752C158.047 96.752 159.253 96.2694 159.253 95.063C159.253 93.8566 158.288 93.6154 157.564 93.3741C156.599 93.1328 155.393 92.6503 155.393 91.2026C155.393 89.9962 156.358 89.0311 157.806 89.0311C158.288 89.0311 158.771 89.2724 159.253 89.2724C159.253 89.2724 159.495 89.2724 159.495 89.5136C159.495 89.7549 159.253 89.7549 159.253 89.7549H159.012C158.771 89.7549 158.288 89.5136 157.806 89.5136C156.599 89.5136 156.117 90.2375 156.117 91.2026C156.117 92.1677 157.082 92.6503 157.806 92.8916C158.771 93.1328 159.977 93.6154 159.977 95.3043C159.977 96.752 158.771 97.7171 157.082 97.7171C156.117 97.7171 155.393 97.4758 155.151 97.2346C154.91 97.2346 154.91 96.9933 154.91 96.9933C154.91 96.752 155.151 96.752 155.151 96.752C155.151 96.5107 155.393 96.5107 155.634 96.5107Z" fill="black"></path><path d="M157.082 97.9583C156.117 97.9583 155.393 97.717 155.152 97.4758C154.91 97.4758 154.669 97.2345 154.669 96.7519C154.669 96.5107 154.91 96.0281 155.393 96.0281C155.393 96.0281 155.634 96.0281 155.875 96.2694C156.358 96.5107 156.841 96.5107 157.323 96.5107C157.806 96.5107 159.254 96.5107 159.254 95.063C159.254 94.0979 158.771 93.8566 157.564 93.6154C156.599 93.3741 155.152 92.8915 155.152 91.2026C155.152 89.9962 156.117 88.5486 157.806 88.5486C158.288 88.5486 159.012 88.7898 159.495 89.0311C159.495 89.0311 159.977 89.2724 159.977 89.5136C159.977 89.7549 159.736 90.2375 159.254 90.2375C159.012 90.2375 159.012 90.2375 158.771 89.9962C158.53 89.9962 158.288 89.7549 157.806 89.7549C156.841 89.7549 156.358 90.4788 156.358 90.9613C156.358 91.6851 156.841 91.9264 157.806 92.409C158.771 92.8915 160.219 93.3741 160.219 95.063C160.219 96.7519 159.012 97.9583 157.082 97.9583ZM155.152 96.7519C155.634 96.9932 156.117 97.2345 157.082 97.2345C158.288 97.2345 159.495 96.752 159.495 95.3043C159.495 93.8566 158.53 93.6153 157.564 93.1328C156.599 92.8915 155.634 92.409 155.634 91.2026C155.634 90.2375 156.358 89.2724 157.564 89.2724C158.047 89.2724 158.53 89.5136 158.771 89.5136C159.012 89.5136 159.012 89.5136 159.012 89.5136C158.53 89.2724 158.047 89.2724 157.564 89.2724C156.117 89.2724 155.393 90.2375 155.393 91.2026C155.393 92.409 156.358 92.8915 157.323 93.1328C158.288 93.3741 159.254 93.8566 159.254 95.3043C159.254 96.752 158.047 97.2345 156.841 97.2345C156.358 97.2345 155.634 96.9932 155.152 96.7519V96.7519Z" fill="black"></path><path d="M167.699 92.8915C167.941 92.8915 167.941 93.1328 167.941 93.1328C167.941 93.3741 167.941 93.3741 167.699 93.3741H164.08V96.2694C164.08 96.5107 164.321 96.7519 164.562 96.7519H168.182C168.423 96.7519 168.423 96.9932 168.423 96.9932C168.423 97.2345 168.423 97.2345 168.182 97.2345H164.321C163.356 97.2345 163.356 96.5107 163.356 96.2694V89.9962C163.356 89.7549 163.356 89.0311 164.321 89.0311H167.941C168.182 89.0311 168.182 89.2724 168.182 89.2724C168.182 89.5137 168.182 89.5136 167.941 89.5136H164.321C164.08 89.5136 163.839 89.5137 163.839 89.9962V92.6502H167.699V92.8915Z" fill="black"></path><path d="M168.181 97.7171H164.321C163.597 97.7171 163.114 97.2345 163.114 96.2694V89.9962C163.114 89.0311 163.597 88.5486 164.321 88.5486H167.94C168.423 88.5486 168.664 88.7898 168.664 89.2724C168.664 89.5137 168.423 89.9962 167.94 89.9962H164.321V92.409H167.699C168.181 92.409 168.181 92.6502 168.181 93.1328C168.181 93.6153 167.94 93.8566 167.699 93.8566H164.321V96.5107H167.94C168.423 96.5107 168.664 96.752 168.664 97.2345C168.905 97.4758 168.664 97.7171 168.181 97.7171ZM164.321 89.5136C163.838 89.5136 163.597 89.7549 163.597 90.2375V96.5107C163.597 96.9932 163.597 97.2345 164.321 97.2345H168.181H164.562C164.321 97.2345 163.838 97.2345 163.838 96.5107V93.3741H167.699H163.838V90.4788C163.838 89.7549 164.079 89.5136 164.321 89.5136H167.94H164.321Z" fill="black"></path><path d="M176.627 96.9931C176.627 97.2344 176.868 97.2344 176.868 97.2344C176.868 97.4757 176.627 97.4756 176.627 97.4756C176.386 97.4756 176.386 97.4757 176.386 97.2344L173.49 93.6153H172.525V97.2344C172.525 97.4757 172.284 97.4756 172.284 97.4756C172.042 97.4756 172.042 97.4757 172.042 97.2344V90.2374C172.042 89.9961 172.042 89.2723 173.008 89.2723H174.455C176.144 89.2723 176.868 90.2374 176.868 91.4437C176.868 92.4089 176.386 93.6153 174.455 93.6153L176.627 96.9931ZM173.973 93.1327C174.455 93.1327 176.144 93.1327 176.144 91.4437C176.144 89.7548 174.697 89.7548 173.973 89.7548H173.008C172.766 89.7548 172.525 89.7548 172.525 90.2374V93.1327H173.973Z" fill="black"></path><path d="M176.627 97.9583C176.385 97.9583 176.144 97.717 176.144 97.717L173.49 94.0979H173.007V97.4757C173.007 97.9583 172.766 98.1996 172.283 98.1996C171.801 98.1996 171.56 97.9583 171.56 97.4757V90.4787C171.56 89.5136 172.042 89.031 172.766 89.031H174.214C176.144 89.031 176.868 90.2374 176.868 91.6851C176.868 92.8915 176.385 93.8566 174.696 94.0979L176.868 96.9932L176.627 97.2345L176.868 96.9932C176.868 97.2344 177.109 97.2344 177.109 97.4757C177.109 97.717 176.868 97.9583 176.627 97.9583ZM172.042 93.374H173.49L176.385 97.2345L176.627 96.9932L176.385 97.2345L173.49 93.374H173.972C175.903 93.374 176.144 91.9264 176.144 91.4438C176.144 90.2374 175.42 89.5136 173.972 89.5136H172.525C172.042 89.5136 171.801 89.7549 171.801 90.2374V97.2345L172.042 93.374ZM173.972 93.374H172.283V90.2374C172.283 89.7549 172.525 89.5136 173.007 89.5136H173.972C174.455 89.5136 176.385 89.5136 176.385 91.4438C176.385 92.6502 175.42 93.374 173.972 93.374ZM172.766 92.6502H173.972C174.938 92.6502 175.903 92.4089 175.903 91.2025C175.903 89.9962 174.938 89.9962 173.972 89.9962H173.007V92.6502H172.766Z" fill="black"></path><path d="M186.038 89.2723C186.038 89.2723 186.038 89.031 186.279 89.031C186.52 89.031 186.762 89.2723 186.762 89.2723V89.5136L183.625 97.2344C183.625 97.4757 183.384 97.717 183.142 97.717C182.901 97.717 182.66 97.4757 182.66 97.2344L179.523 89.5136V89.2723C179.523 89.0311 179.764 89.031 180.006 89.031C180.247 89.031 180.247 89.0311 180.247 89.2723L183.384 96.9931L186.038 89.2723Z" fill="black"></path><path d="M183.142 97.9583C182.659 97.9583 182.418 97.4757 182.418 97.4757L179.281 89.7549C179.281 89.7549 179.281 89.5136 179.281 89.2723C179.281 88.7898 179.523 88.5485 180.005 88.5485C180.488 88.5485 180.488 88.7898 180.488 89.0311L183.142 96.0281L185.796 89.0311H186.038L185.796 88.7898C185.796 88.7898 186.037 88.3072 186.279 88.3072C186.52 88.3072 187.003 88.5485 187.003 89.0311C187.003 89.2723 187.003 89.2723 187.003 89.5136L183.866 96.9932C183.866 97.4757 183.625 97.9583 183.142 97.9583ZM186.038 89.2723H186.279L183.142 97.2345C183.142 97.2345 183.142 97.2344 183.383 96.9932L186.52 89.2723C186.52 89.2723 186.52 89.2723 186.52 89.0311L186.038 89.2723ZM179.764 89.2723L182.901 96.9932C182.901 96.9932 182.901 97.2345 183.142 97.2345L179.764 89.2723Z" fill="black"></path><path d="M190.14 89.2724C190.14 89.0311 190.381 89.0311 190.381 89.0311C190.622 89.0311 190.622 89.2724 190.622 89.2724V97.2345C190.622 97.4758 190.381 97.4758 190.381 97.4758C190.14 97.4758 190.14 97.2345 190.14 97.2345V89.2724Z" fill="black"></path><path d="M190.381 97.9583C189.898 97.9583 189.657 97.7171 189.657 97.2345V89.2724C189.657 88.7898 189.898 88.5486 190.381 88.5486C190.863 88.5486 191.104 88.7898 191.104 89.2724V97.2345C191.104 97.7171 190.863 97.9583 190.381 97.9583ZM190.381 89.2724V97.2345V89.2724Z" fill="black"></path><path d="M194.482 93.374C194.482 90.9613 196.172 89.031 198.826 89.031C199.791 89.031 200.515 89.2723 200.997 89.5136C201.239 89.5136 201.239 89.7549 201.239 89.7549C201.239 89.9961 200.997 89.9962 200.997 89.9962C200.997 89.9962 200.756 89.9961 200.756 89.7549C200.032 89.2723 199.308 89.2723 199.067 89.2723C196.895 89.2723 195.448 90.9613 195.448 92.8915C195.448 94.5804 196.654 96.5106 199.308 96.5106C200.032 96.5106 200.515 96.2693 200.997 96.2693C200.997 96.2693 201.239 96.0281 201.48 96.0281C201.48 96.0281 201.721 96.028 201.721 96.2693C201.721 96.5106 201.48 96.5106 201.48 96.5106C200.756 96.9932 199.791 96.9932 199.067 96.9932C196.171 97.717 194.482 95.5455 194.482 93.374Z" fill="black"></path><path d="M198.825 97.9583C195.93 97.9583 194 96.0281 194 93.374C194 90.72 195.93 88.7898 198.584 88.7898C199.549 88.7898 200.273 89.0311 200.997 89.2723C201.238 89.5136 201.238 89.7549 201.238 89.7549C201.238 89.9962 200.997 90.4787 200.514 90.4787C200.273 90.4787 200.273 90.4787 200.032 90.2374C199.549 89.9962 198.825 89.7549 198.343 89.7549C196.412 89.7549 194.965 91.2025 194.965 93.1327C194.965 94.8217 195.93 96.5106 198.343 96.5106C199.067 96.5106 199.549 96.2693 200.032 96.2693C200.273 96.0281 200.514 96.0281 200.514 96.0281C200.756 96.0281 200.997 96.2693 200.997 96.7519C200.997 96.9931 200.997 97.2345 200.514 97.2345C200.514 97.717 199.308 97.9583 198.825 97.9583ZM198.825 89.2723C196.412 89.2723 194.723 90.9613 194.723 93.374C194.723 95.3042 195.93 97.4757 198.825 97.4757C199.308 97.4757 200.273 97.4757 200.997 96.9932H200.756C200.273 97.2344 199.791 97.2345 198.825 97.2345C195.93 97.2345 194.723 95.063 194.723 93.374C194.965 90.9613 196.654 89.2723 198.825 89.2723C199.308 89.2723 200.032 89.2723 200.756 89.7549C200.273 89.5136 199.549 89.2723 198.825 89.2723Z" fill="black"></path><path d="M208.96 92.8915C209.202 92.8915 209.202 93.1328 209.202 93.1328C209.202 93.3741 209.202 93.3741 208.96 93.3741H205.341V96.2694C205.341 96.5107 205.582 96.7519 205.824 96.7519H209.443C209.684 96.7519 209.684 96.9932 209.684 96.9932C209.684 97.2345 209.684 97.2345 209.443 97.2345H205.582C204.617 97.2345 204.617 96.5107 204.617 96.2694V89.9962C204.617 89.7549 204.617 89.0311 205.582 89.0311H209.202C209.443 89.0311 209.443 89.2724 209.443 89.2724C209.443 89.5137 209.443 89.5136 209.202 89.5136H205.582C205.341 89.5136 205.1 89.5137 205.1 89.9962V92.6502H208.96V92.8915Z" fill="black"></path><path d="M209.443 97.7171H205.582C204.859 97.7171 204.376 97.2345 204.376 96.2694V89.9962C204.376 89.0311 204.859 88.5486 205.582 88.5486H209.202C209.684 88.5486 209.926 88.7898 209.926 89.2724C209.926 89.5137 209.684 89.9962 209.202 89.9962H205.582V92.409H208.961C209.443 92.409 209.443 92.6502 209.443 93.1328C209.443 93.6153 209.202 93.8566 208.961 93.8566H205.582V96.5107H209.202C209.684 96.5107 209.926 96.752 209.926 97.2345C210.167 97.4758 209.926 97.7171 209.443 97.7171ZM205.582 89.5136C205.1 89.5136 204.859 89.7549 204.859 90.2375V96.5107C204.859 96.9932 204.859 97.2345 205.582 97.2345H209.443H205.824C205.582 97.2345 205.1 97.2345 205.1 96.5107V93.3741H208.961H205.1V90.4788C205.1 89.7549 205.341 89.5136 205.582 89.5136H209.202H205.582Z" fill="black"></path><path d="M226.334 222.216H9.16918C4.10201 222.216 0 218.114 0 213.047V9.16852C0 4.10171 4.10201 0 9.16918 0H226.334C231.401 0 235.503 4.10171 235.503 9.16852V212.806C235.744 217.873 231.401 222.216 226.334 222.216ZM9.16918 4.58424C6.75624 4.58424 4.82588 6.51446 4.82588 8.92723V212.806C4.82588 215.219 6.75624 217.149 9.16918 217.149H226.334C228.747 217.149 230.677 215.219 230.677 212.806V8.92723C230.677 6.51446 228.747 4.58424 226.334 4.58424H9.16918Z" fill="black"></path><path d="M107.134 121.845C106.652 121.362 106.893 120.88 107.134 120.397L132.953 96.2695C133.435 95.7869 133.918 96.0282 134.4 96.2695C134.883 96.5108 134.642 97.2346 134.4 97.7172L108.582 121.845C108.099 122.327 107.617 122.327 107.134 121.845Z" fill="black"></path><path d="M107.858 123.534C107.375 123.534 106.651 123.292 106.169 122.81C105.686 122.327 105.445 121.845 105.686 121.362C105.686 120.88 105.927 120.156 106.41 119.915L132.228 95.7869C133.194 95.063 134.4 95.063 135.365 95.7869C135.848 96.2694 136.089 96.752 135.848 97.2345C135.848 97.7171 135.606 98.4409 135.124 98.6822L109.305 122.81C109.064 123.292 108.34 123.534 107.858 123.534Z" fill="black"></path><path d="M107.134 111.229H109.064L108.341 120.88L117.992 120.638V122.569L106.41 122.81L107.134 111.229Z" fill="black"></path><path d="M105.204 124.016L105.928 110.022L110.271 110.263L109.788 119.673L119.199 119.432V123.775L105.204 124.016Z" fill="black"></path></svg> 