<?xml version="1.0" encoding="UTF-8"?> <svg xmlns="http://www.w3.org/2000/svg" width="194" height="194" viewBox="0 0 194 194" fill="none"><path d="M5.98764 101.491C5.98764 99.9936 5.98764 98.4967 5.98764 96.7004C5.98764 95.2035 5.98764 93.7066 5.98764 91.9103C8.3827 43.111 48.4999 4.19135 97.898 2.99382V0C97.5986 0 97.2992 0 96.9998 0C43.4104 0 0 43.4104 0 96.9998C0 100.293 0.299382 103.586 0.598764 106.879H6.58641C6.28703 105.083 6.28702 103.287 5.98764 101.491Z" fill="black"></path><path d="M194 97.0002C194 44.0095 151.188 0.59913 98.1977 0.000366211V2.99419V5.98801C147.895 6.58677 188.012 47.0034 188.012 97.0002C188.012 147.296 147.296 188.012 97.0002 188.012C50.2966 188.012 11.6763 152.386 6.58676 106.88H0.599121C5.38924 155.679 46.704 194 97.0002 194C150.29 194 194 150.29 194 97.0002Z" fill="black"></path><path d="M5.98779 92.2101C5.98779 93.707 5.98779 95.2039 5.98779 97.0002C5.98779 98.4971 5.98779 99.994 5.98779 101.79C5.98779 103.587 6.28717 105.383 6.28717 106.88H97.5987V5.98804C97.2993 5.98804 97 5.98804 96.7006 5.98804C48.5001 5.98804 8.68223 44.3089 5.98779 92.2101Z" fill="#040000"></path><path d="M5.98779 92.2101C8.68223 44.3089 48.5001 5.98802 97 5.98802C97.2994 5.98802 97.5987 5.98802 97.8981 5.98802V2.9942C48.5001 4.19173 8.38285 43.1114 5.98779 92.2101Z" fill="#040000"></path><path d="M6.58649 106.88C6.28711 105.083 6.28711 103.287 6.28711 101.79C6.28711 103.287 6.28711 105.083 6.58649 106.88Z" fill="#040000"></path></svg> 