<?xml version="1.0" encoding="UTF-8"?> <svg xmlns="http://www.w3.org/2000/svg" width="215" height="46" viewBox="0 0 215 46" fill="none"><path d="M1.79123 18.4326C2.3031 18.4326 4.09462 19.7127 4.60648 20.2247C5.63021 20.9927 5.88614 20.9927 5.88614 21.5047C5.88614 21.7607 5.63021 22.5288 5.11834 22.5288C5.11834 22.5288 4.86241 22.5288 4.60648 22.2728C3.58275 21.5047 3.32682 21.5047 1.5353 20.2247C1.27937 19.9687 1.02344 19.9687 1.02344 19.4567C1.02344 18.9446 1.27937 18.4326 1.79123 18.4326ZM6.398 26.3689C6.398 27.1369 4.35055 32.2571 3.07089 34.5612C2.55903 35.5852 2.55903 35.8412 2.04716 35.8412C1.79123 35.8412 1.02344 35.5852 1.02344 34.8172C1.02344 34.5611 1.02344 34.5611 1.5353 33.5371C3.32682 30.465 4.35055 27.3929 4.60648 26.3689C5.11834 25.8569 5.11834 25.8569 5.63021 25.8569C5.88614 25.8569 6.398 26.1129 6.398 26.3689ZM2.81496 10.7524C3.32682 10.7524 5.37427 12.2884 5.88614 12.5444C6.65393 13.0565 6.90986 13.3125 6.90986 13.5685C6.90986 14.0805 6.65393 14.5925 6.14207 14.5925C5.88614 14.5925 5.88614 14.5925 5.11834 14.0805C4.60648 13.8245 2.55903 12.5444 2.3031 12.2884C2.3031 12.2884 2.04716 12.0324 2.04716 11.7764C2.04716 11.2644 2.55903 10.7524 2.81496 10.7524ZM16.1234 30.977V23.2968H11.0048C10.237 23.2968 9.98104 23.8088 9.98104 24.3208V35.5852C9.98104 35.8412 9.98104 36.3532 9.21325 36.3532C8.44545 36.3532 8.44545 35.8412 8.44545 35.5852V24.0648C8.44545 22.2728 8.95732 21.7607 10.7488 21.7607H16.3793V18.9446H8.18952C7.93359 18.9446 7.42173 18.9446 7.42173 18.1766C7.42173 17.4086 7.93359 17.4086 8.18952 17.4086H11.7726V14.0805H8.18952C7.93359 14.0805 7.42173 14.0805 7.42173 13.3125C7.42173 12.8004 7.93359 12.8004 8.18952 12.8004H12.0285V11.0084C12.0285 10.7524 12.0285 10.2404 12.7963 10.2404C13.5641 10.2404 13.5641 10.7524 13.5641 11.0084V12.8004H20.4742V11.0084C20.4742 11.0084 20.4742 10.2404 21.242 10.2404C22.0098 10.2404 22.0098 10.7524 22.0098 11.0084V12.8004H26.1047C26.3607 12.8004 26.8725 12.8004 26.8725 13.5685C26.8725 14.3365 26.3607 14.3365 26.1047 14.3365H22.0098V17.6646H25.8488C26.1047 17.6646 26.6166 17.6646 26.6166 18.4326C26.6166 19.2007 26.1047 19.2006 25.8488 19.2006H17.659V22.0167H23.2895C25.081 22.0167 25.5929 22.7848 25.5929 24.3208V33.7931C25.5929 34.8172 25.3369 35.8412 24.0573 36.0972C23.8013 36.0972 23.5454 36.0972 20.9861 36.0972C20.7302 36.0972 19.9624 36.0972 19.9624 35.3292C19.9624 34.5611 20.4742 34.5612 20.7302 34.5612C20.7302 34.5612 22.7776 34.5612 23.0336 34.5612C23.5454 34.5612 24.0573 34.5611 24.0573 33.5371V24.3208C24.0573 23.8088 23.8013 23.2968 23.0336 23.2968H17.659V30.977H19.7064C20.2183 30.977 20.4742 30.721 20.4742 30.209V25.6009C20.4742 25.3448 20.4742 24.8328 21.242 24.8328C22.0098 24.8328 22.0098 25.3448 22.0098 25.6009V29.953C22.0098 31.7451 21.498 32.2571 19.7064 32.2571H14.3319C12.5404 32.2571 12.0285 31.7451 12.0285 29.953V25.6009C12.0285 25.3448 12.0285 24.8328 12.7963 24.8328C13.5641 24.8328 13.5641 25.3448 13.5641 25.6009V30.209C13.5641 30.721 13.82 30.977 14.3319 30.977H16.1234V30.977ZM20.4742 14.3365H13.3082V17.6646H20.4742V14.3365Z" fill="black"></path><path d="M9.21354 37.3772C8.44574 37.3772 7.42202 36.8652 7.42202 35.5851V24.0647C7.42202 21.7607 8.44574 20.7366 10.7491 20.7366H15.3559V19.7126H8.18981C6.91015 19.7126 6.39829 18.9446 6.39829 18.1765C6.39829 17.4085 6.91015 16.6405 8.18981 16.6405H10.7491V15.3605H8.18981C7.93388 15.3605 7.42202 15.3605 7.42202 15.1045C7.16608 15.3605 6.65422 15.6165 6.39829 15.6165C5.88643 15.6165 5.63049 15.3605 4.8627 14.8484C4.60677 14.5924 3.83897 14.3364 3.32711 13.8244C2.55932 13.3124 1.79152 13.0564 1.79152 12.8004C1.53559 12.5444 1.02373 12.0323 1.27966 11.2643C1.27966 10.4963 2.04745 9.72827 3.07118 9.72827C3.58304 9.72827 4.0949 9.98428 6.65422 11.5203C6.91015 11.7763 7.16608 11.7763 7.42202 12.0323C7.67795 11.7763 7.93388 11.7763 8.44574 11.7763H11.261V11.0083C11.261 9.72827 12.0288 9.21625 13.0525 9.21625C13.5644 9.21625 14.844 9.47226 14.844 11.0083V11.7763H19.9627V11.0083C19.9627 9.72827 20.9864 9.21625 21.7542 9.21625C22.522 9.21625 23.5457 9.72827 23.5457 11.0083V11.7763H26.6169C27.8965 11.7763 28.4084 12.5444 28.4084 13.3124C28.4084 14.0804 27.3847 15.3605 26.105 15.3605H23.0338V16.8965H26.105C27.3847 16.8965 27.8965 17.6645 27.8965 18.4326C27.8965 19.2006 27.3847 19.9686 26.105 19.9686H18.683V20.9926H23.2898C25.5932 20.9926 26.6169 22.0167 26.6169 24.3208V33.7931C26.6169 34.5611 26.6169 36.6092 24.3135 37.1212C24.0576 37.1212 23.8016 37.1212 20.9864 37.1212C19.1949 37.1212 19.1949 35.8411 19.1949 35.3291C19.1949 34.8171 19.1949 33.5371 20.9864 33.5371C20.9864 33.5371 23.0338 33.5371 23.2898 33.5371L23.0338 24.3208H22.266C22.522 24.5768 22.7779 25.0888 22.7779 25.6008V29.9529C22.7779 32.257 21.7542 33.281 19.4508 33.281H14.3322C12.0288 33.281 11.0051 32.257 11.0051 29.9529V25.6008C11.0051 24.8328 11.261 24.3208 11.7729 24.0647H11.0051V35.5851C10.7491 36.8652 9.98133 37.3772 9.21354 37.3772ZM18.683 29.9529H19.4508V25.6008C19.4508 24.8328 19.7067 24.3208 19.9627 24.0647H18.4271V29.9529H18.683ZM14.3322 29.9529H15.1V24.0647H13.8203C14.3322 24.3208 14.5881 24.8328 14.5881 25.6008V29.9529H14.3322ZM14.3322 16.6405H19.4508V15.3605H14.3322V16.6405ZM12.5406 13.5684C12.7966 13.5684 12.7966 13.5684 12.5406 13.5684C12.7966 13.5684 12.7966 13.5684 12.5406 13.5684ZM2.04745 36.8652C1.27966 36.8652 0.255932 36.0971 0.255932 35.0731C0.255932 34.5611 0.511863 34.3051 1.02373 33.281C2.55932 30.2089 3.58304 27.3929 4.0949 26.3688C4.35084 25.8568 4.60677 24.8328 5.88643 24.8328C6.65422 24.8328 7.67795 25.6008 7.67795 26.6248C7.67795 27.6489 5.37456 33.281 4.0949 35.3291C3.58304 36.0971 3.07118 36.8652 2.04745 36.8652ZM5.11863 23.2967C4.8627 23.2967 4.60677 23.2967 4.0949 23.0407C3.32711 22.5287 3.07118 22.2727 1.53559 21.2486L1.02373 20.7366C0 20.2246 0 19.7126 0 18.9446C0.255932 18.1766 0.767795 17.4085 1.79152 17.4085C2.04745 17.4085 2.55932 17.4085 5.37456 19.2006C6.39829 19.9686 6.91015 20.2246 6.91015 21.2486C6.91015 22.2727 6.14236 23.2967 5.11863 23.2967Z" fill="black"></path><path d="M58.3519 34.3052C58.8638 34.3052 59.1197 34.5612 59.1197 34.8172C59.1197 35.0732 59.1197 35.8412 58.3519 35.8412H50.674C47.8587 35.8412 45.0435 35.5852 42.7401 34.3052C40.9486 33.2811 39.413 31.4891 38.3893 29.953C37.1096 33.5371 34.2944 36.3532 33.5266 36.3532C33.0147 36.3532 32.7588 35.8412 32.7588 35.3292C32.7588 35.0732 32.7588 35.0732 33.0147 34.8172C35.83 32.2571 37.6215 28.929 38.1334 23.8088C38.1334 23.5528 38.1334 23.0408 38.9011 23.0408C39.413 23.0408 39.6689 23.2968 39.6689 23.8088C39.6689 24.0648 39.1571 26.3689 38.6452 28.1609C38.9011 28.929 40.6927 32.7691 44.7876 34.0491V20.2247H37.6215C35.574 20.2247 34.8062 19.4567 34.8062 17.4086V14.0805C34.8062 12.0324 35.574 11.2644 37.6215 11.2644H53.2333C55.2808 11.2644 56.0486 12.0324 56.0486 14.0805V17.4086C56.0486 19.4567 55.2808 20.2247 53.2333 20.2247H46.0672V25.6009H56.5604C56.8164 25.6009 57.3282 25.6009 57.3282 26.3689C57.3282 27.1369 56.8164 27.1369 56.5604 27.1369H46.0672V34.3052C47.091 34.3052 47.8588 34.5612 48.8825 34.5612H58.3519V34.3052ZM55.2808 14.0805C55.2808 13.0565 54.7689 12.5444 53.7452 12.5444H38.3893C37.3656 12.5444 36.8537 13.0565 36.8537 14.0805V17.1526C36.8537 18.1766 37.3656 18.6886 38.3893 18.6886H53.7452C54.7689 18.6886 55.2808 18.1766 55.2808 17.1526V14.0805Z" fill="black"></path><path d="M33.7832 37.1213C32.7595 37.1213 31.9917 36.0972 31.9917 35.3292C31.9917 34.5612 32.2476 34.3052 32.7595 34.0492C35.3188 31.7451 36.8544 28.417 37.6222 23.8088C37.8781 22.5288 38.6459 22.0168 39.4137 22.0168C40.4374 22.0168 41.2052 22.7848 41.2052 23.8088C41.2052 24.3208 40.6934 26.3689 40.1815 28.161C40.6934 29.185 41.973 31.4891 44.2764 32.5131V20.9927H38.1341C35.5747 20.9927 34.2951 19.7127 34.2951 17.1526V13.8245C34.2951 11.2644 35.3188 9.98438 38.1341 9.98438H53.7459C56.3052 9.98438 57.5849 11.2644 57.5849 13.8245V17.1526C57.5849 19.7127 56.3052 20.9927 53.7459 20.9927H47.6035V24.5768H57.073C58.3526 24.5768 58.8645 25.6009 58.8645 26.3689C58.8645 27.1369 58.3526 27.905 57.073 27.905H47.6035V33.2811C48.1154 33.2811 48.8832 33.2811 49.395 33.2811H58.0967C59.1204 33.2811 59.8882 34.0492 59.8882 34.8172C59.8882 35.8412 59.1204 36.6092 58.0967 36.6092H50.4188C47.6035 36.6092 44.5323 36.3532 41.973 34.8172C40.6934 34.0492 39.4137 33.0251 38.39 31.4891C37.1103 34.5612 34.8069 37.1213 33.7832 37.1213ZM45.812 34.5612C46.0679 34.5612 46.0679 34.5612 45.812 34.5612C46.0679 34.5612 46.0679 34.5612 45.812 34.5612C46.0679 34.5612 46.0679 34.5612 45.812 34.5612ZM38.39 28.673V28.929C38.39 28.929 38.39 28.929 38.6459 28.929C38.39 28.929 38.39 28.673 38.39 28.673ZM38.39 13.5685C37.8781 13.5685 37.8781 13.5685 37.8781 14.0805V17.1526C37.8781 17.6646 37.8781 17.6646 38.39 17.6646H53.7459C54.2577 17.6646 54.2577 17.6646 54.2577 17.1526V14.0805C54.2577 13.8245 54.2577 13.5685 54.2577 13.5685C54.2577 13.5685 54.2577 13.5685 53.7459 13.5685H38.39Z" fill="black"></path><path d="M68.8445 23.2968C68.8445 25.0888 68.5886 30.465 66.797 34.3052C66.2852 35.5852 66.0292 35.8412 65.5174 35.8412C65.0055 35.8412 64.4937 35.3292 64.4937 34.8172C64.4937 34.5612 64.4936 34.5612 64.7496 34.0491C66.2852 31.4891 67.053 27.6489 67.053 23.0408V15.6165C67.053 13.5685 67.8208 12.8004 69.8682 12.8004H77.2902V11.0084C77.2902 10.7524 77.2902 10.2404 78.058 10.2404C78.8258 10.2404 78.8258 10.7524 78.8258 11.0084V12.8004H89.8309C90.0868 12.8004 90.5987 12.8004 90.5987 13.5685C90.5987 14.3365 90.0868 14.3365 89.8309 14.3365H69.8682C68.8445 14.3365 68.3326 14.8485 68.3326 15.8725V17.6646H73.4513V15.6165C73.4513 15.3605 73.4513 14.8485 74.219 14.8485C74.9868 14.8485 74.9868 15.3605 74.9868 15.6165V17.6646H83.6885V15.6165C83.6885 15.3605 83.6885 14.8485 84.4563 14.8485C85.2241 14.8485 85.2241 15.3605 85.2241 15.6165V17.6646H89.8309C90.0868 17.6646 90.5987 17.6646 90.5987 18.4326C90.5987 19.2007 90.0868 19.2007 89.8309 19.2007H85.2241V21.5047C85.2241 23.0408 84.7122 23.8088 82.9207 23.8088H75.7546C73.9631 23.8088 73.4513 23.2968 73.4513 21.5047V19.2007H68.3326V23.2968H68.8445ZM70.8919 27.1369C70.636 27.1369 70.1241 27.1369 70.1241 26.3689C70.1241 25.6009 70.636 25.6009 70.8919 25.6009H84.7122C85.48 25.6009 85.9919 25.6009 86.5038 26.1129C86.7597 26.3689 87.0156 26.8809 87.0156 27.1369C87.0156 29.441 82.4089 32.2571 81.6411 32.5131C85.736 34.0492 89.8309 34.3052 90.0868 34.3052C90.5987 34.3052 91.1105 34.5612 91.1105 35.0732C91.1105 35.5852 90.8546 36.0972 90.3427 36.0972C89.5749 36.0972 84.4563 35.3292 80.1055 33.5371C78.8258 34.0491 77.0343 34.8172 73.9631 35.5852C72.1716 36.0972 70.636 36.0972 70.3801 36.0972C69.6123 36.0972 69.6123 35.3292 69.6123 35.3292C69.6123 34.8172 70.1241 34.5612 70.3801 34.5612C71.4038 34.3052 74.7309 34.0492 78.3139 32.5131C77.2902 32.0011 75.4987 30.977 73.9631 29.441C73.1953 28.673 73.1953 28.417 73.1953 28.161C73.1953 27.6489 73.7072 27.3929 73.9631 27.3929C74.219 27.3929 74.475 27.6489 74.7309 27.9049C76.2665 29.441 78.058 30.721 80.1055 31.7451C83.1766 30.209 85.48 28.1609 85.48 27.1369C85.48 26.8809 85.2241 26.8809 84.7122 26.8809H70.8919V27.1369ZM75.4987 18.9447V21.2487C75.4987 22.0167 75.7546 22.2728 76.5224 22.2728H83.1766C83.9444 22.2728 84.2004 22.0167 84.2004 21.2487V18.9447H75.4987Z" fill="black"></path><path d="M90.0875 37.1212C89.3197 37.1212 84.2011 36.3532 79.8502 34.5612C78.5706 35.0732 76.7791 35.8412 73.7079 36.6092C71.9164 37.1212 70.3808 37.1212 69.8689 37.1212C68.5893 37.1212 68.0774 36.0972 68.0774 35.3292C68.0774 34.8172 68.3333 33.7931 69.8689 33.7931C70.8926 33.7931 73.196 33.2811 75.7553 32.5131C74.7316 32.0011 73.7079 31.233 72.9401 30.209C72.1723 29.441 71.6604 28.929 71.6604 28.417V28.1609H70.6367C70.1249 28.1609 69.613 27.9049 69.3571 27.6489C69.1011 29.953 68.5893 32.5131 67.5655 34.8172C67.0537 35.8412 66.5418 36.8652 65.5181 36.8652C64.7503 36.8652 63.7266 36.0972 63.7266 35.0732C63.7266 34.5612 63.9825 34.3052 63.9825 34.0491C65.5181 31.4891 66.2859 27.9049 66.2859 23.5528V16.1285C66.2859 13.5685 67.3096 12.2884 70.1248 12.2884H76.5231V11.5204C76.5231 10.2404 77.5469 9.72833 78.3147 9.72833C78.8265 9.72833 80.1062 9.98434 80.1062 11.5204V12.2884H90.0875C91.3672 12.2884 91.879 13.0564 91.879 14.0805C91.879 14.8485 91.3672 15.8725 90.0875 15.8725H86.5045C86.5045 15.8725 86.5045 15.8725 86.5045 16.1285V17.1526H90.0875C91.3672 17.1526 91.879 17.9206 91.879 18.6886C91.879 18.9446 91.879 20.2247 90.0875 20.2247H86.5045V21.7607C86.5045 24.0648 85.4807 25.0888 83.1774 25.0888H76.0113C73.7079 25.0888 72.6842 24.0648 72.6842 21.7607V20.2247H69.3571V23.8088C69.3571 23.8088 69.3571 24.5768 69.3571 25.3449C69.613 25.0889 69.8689 25.0888 70.3808 25.0888H84.2011C84.9689 25.0888 85.9926 25.0888 86.7604 25.8569C87.2723 26.3689 87.5282 27.1369 87.5282 27.6489C87.5282 29.441 85.4807 31.233 83.4333 32.7691C86.5045 33.7931 89.3197 34.0491 89.5756 34.0491C90.8553 34.0491 91.3672 34.8172 91.3672 35.5852C91.879 36.3532 91.1112 37.1212 90.0875 37.1212ZM79.0825 32.5131C79.0825 32.5131 79.0825 32.7691 79.0825 32.5131C79.0825 32.7691 79.0825 32.7691 79.0825 32.5131C79.3384 32.7691 79.3384 32.7691 79.0825 32.5131C79.3384 32.5131 79.3384 32.7691 79.0825 32.5131ZM80.3621 32.7691C80.618 32.7691 80.618 32.7691 80.3621 32.7691C80.618 32.7691 80.618 32.7691 80.3621 32.7691C80.618 32.5131 80.618 32.7691 80.3621 32.7691C80.618 32.5131 80.618 32.5131 80.3621 32.7691ZM75.7553 27.9049C77.035 28.929 78.3147 29.953 79.8502 30.721C81.6418 29.697 83.1774 28.673 83.6892 27.9049H75.7553ZM76.5231 19.9687V21.2487H83.1774V19.7127H76.5231V19.9687ZM84.7129 18.1766C84.9689 18.1766 84.9689 18.1766 84.7129 18.1766C84.9689 18.1766 84.9689 18.1766 84.7129 18.1766C84.9689 18.1766 84.9689 18.1766 84.7129 18.1766C84.9689 18.1766 84.9689 18.1766 84.7129 18.1766ZM76.5231 16.6406H83.1774V15.6165V15.3605H76.5231C76.5231 15.3605 76.5231 15.3605 76.5231 15.6165V16.6406ZM69.8689 16.6406H73.196V15.6165V15.3605H70.3808C70.1249 15.3605 69.8689 15.3605 69.8689 15.3605C69.8689 15.3605 69.8689 15.3605 69.8689 15.8725V16.6406Z" fill="black"></path><path d="M126.174 28.4169C117.984 28.4169 112.61 22.5287 112.61 14.8485C112.61 6.6562 118.24 0.768005 126.686 0.768005C133.084 0.768005 141.786 4.35212 141.786 19.4566C141.786 36.3532 133.084 44.2894 122.079 44.2894C119.264 44.2894 116.705 43.7774 116.705 42.2414C116.705 41.4733 117.473 40.7053 118.24 40.7053C118.496 40.7053 119.264 40.9613 119.776 40.9613C120.288 40.9613 121.056 41.2173 122.335 41.2173C128.989 41.2173 133.852 37.3772 136.156 32.001C137.947 27.9049 138.203 24.8328 138.459 21.5047C134.364 28.4169 127.966 28.4169 126.174 28.4169ZM116.193 15.1045C116.193 21.7607 121.056 25.3448 126.43 25.3448C131.805 25.3448 137.691 21.7607 137.691 15.1045C137.691 9.72831 134.108 4.09611 126.686 4.09611C120.288 4.09611 116.193 8.70427 116.193 15.1045Z" fill="black"></path><path d="M122.336 45.5695C117.217 45.5695 115.937 44.0334 115.937 42.4974C115.937 41.2174 116.961 39.9373 118.241 39.9373C118.497 39.9373 119.009 39.9373 119.52 40.1933H119.776C120.288 40.1933 121.056 40.4493 122.08 40.4493C127.966 40.4493 132.829 37.3772 135.132 31.745C136.156 29.185 136.668 26.8809 136.924 24.8328C134.62 27.1369 131.037 29.441 125.919 29.441C117.473 29.441 111.331 23.5528 111.331 15.1045C111.331 6.40021 117.729 0 126.431 0C130.27 0 142.554 1.53605 142.554 19.7126C142.81 38.9133 132.317 45.5695 122.336 45.5695ZM118.241 41.9854C117.985 41.9854 117.729 42.2414 117.729 42.4974C117.729 43.0094 119.009 43.5214 122.08 43.5214C133.597 43.5214 140.763 34.3051 140.763 19.4566C140.763 3.3281 130.781 1.53605 126.686 1.53605C119.009 1.53605 113.634 6.91223 113.634 14.5925C113.634 22.0167 118.753 27.1369 126.175 27.1369C131.293 27.1369 135.132 25.0888 137.692 20.7367C137.947 20.4807 138.459 20.2247 138.715 20.2247C139.227 20.4807 139.483 20.7367 139.483 21.2487C139.227 24.5768 138.971 27.9049 137.18 32.0011C134.364 38.1453 128.99 41.7294 122.336 41.7294C121.056 41.7294 120.288 41.7294 119.776 41.4734H119.52C119.009 42.2414 118.497 41.9854 118.241 41.9854ZM126.686 26.3689C121.312 26.3689 115.425 22.7848 115.425 15.1045C115.425 8.19227 120.032 3.0721 126.942 3.0721C134.876 3.0721 138.971 8.9603 138.971 15.1045C138.715 22.5287 132.573 26.3689 126.686 26.3689ZM126.686 5.12017C121.056 5.12017 117.217 9.21631 117.217 15.1045C117.217 21.5047 121.824 24.5768 126.686 24.5768C131.549 24.5768 136.924 21.2487 136.924 15.1045C136.924 10.2403 133.597 5.12017 126.686 5.12017Z" fill="black"></path><path d="M152.023 11.5204C152.023 6.9123 155.35 1.02411 164.052 1.02411C172.498 1.02411 176.081 6.65629 176.081 11.5204C176.081 14.8486 174.289 18.6887 170.706 20.2247C176.081 22.5288 178.64 26.881 178.64 31.7451C178.64 39.6814 171.986 44.8015 164.308 44.8015C156.374 44.8015 149.976 39.6814 149.976 31.7451C149.976 29.441 150.487 23.5528 157.909 20.2247C153.815 18.6887 152.023 14.8486 152.023 11.5204ZM174.801 31.4891C174.801 27.393 172.242 22.0168 163.796 22.0168C155.606 22.0168 152.791 27.393 152.791 31.4891C152.791 36.8653 157.142 41.4734 163.796 41.4734C170.45 41.4734 174.801 37.1213 174.801 31.4891ZM172.242 11.5204C172.242 7.42432 169.426 4.0962 163.796 4.0962C158.165 4.0962 155.35 7.68032 155.35 11.5204C155.35 15.6166 158.421 18.9447 163.796 18.9447C169.426 18.9447 172.242 15.6166 172.242 11.5204Z" fill="black"></path><path d="M163.796 45.5695C154.838 45.5695 148.44 39.6813 148.44 31.489C148.44 26.6249 150.743 22.5287 155.35 19.9687C152.279 17.9206 150.999 14.3365 150.999 11.5204C150.999 5.88819 155.094 0 163.796 0C172.753 0 176.592 5.88819 176.592 11.5204C176.592 15.1045 175.057 18.1766 172.242 20.2247C176.592 22.5287 179.152 26.8809 179.152 31.745C179.408 39.6813 172.753 45.5695 163.796 45.5695ZM163.796 1.79206C155.094 1.79206 152.791 7.68026 152.791 11.2644C152.791 14.0805 154.326 17.6646 157.653 19.2006C157.909 19.4566 158.165 19.7126 158.165 19.9687C158.165 20.2247 157.909 20.7367 157.653 20.7367C151.511 23.2968 150.231 27.9049 150.231 31.233C150.231 38.1453 155.862 43.2654 163.796 43.2654C170.45 43.2654 177.36 39.1693 177.36 31.233C177.36 26.3689 174.801 22.5287 170.194 20.7367C169.938 20.4807 169.682 20.2247 169.682 19.9687C169.682 19.7126 169.938 19.2006 170.194 19.2006C173.009 17.6646 175.057 14.5925 175.057 11.2644C174.801 6.65622 171.474 1.79206 163.796 1.79206ZM163.796 42.4974C157.142 42.4974 152.023 37.8892 152.023 31.489C152.023 26.3689 155.606 21.2487 163.796 21.2487C171.986 21.2487 175.569 26.3689 175.569 31.489C175.825 37.8892 170.706 42.4974 163.796 42.4974ZM163.796 23.0408C156.374 23.0408 153.814 27.6489 153.814 31.489C153.814 36.6092 157.909 40.4493 163.796 40.4493C169.682 40.4493 173.777 36.6092 173.777 31.489C173.777 27.6489 171.218 23.0408 163.796 23.0408ZM163.796 19.9687C158.165 19.9687 154.326 16.6405 154.326 11.5204C154.326 7.42424 157.142 3.0721 163.796 3.0721C170.194 3.0721 173.265 7.42424 173.265 11.5204C173.265 15.8725 170.45 19.9687 163.796 19.9687ZM163.796 5.12017C158.165 5.12017 156.374 8.44827 156.374 11.7764C156.374 15.8725 159.189 18.1766 163.796 18.1766C168.403 18.1766 171.218 15.6165 171.218 11.7764C171.218 8.44827 169.426 5.12017 163.796 5.12017Z" fill="black"></path><path d="M197.323 11.5204C200.394 11.5204 202.441 13.8245 202.441 17.4086C202.441 20.9927 200.138 23.2968 197.323 23.2968C194.507 23.2968 192.204 20.9927 192.204 17.4086C192.204 14.0805 194.252 11.5204 197.323 11.5204ZM197.323 22.0167C199.114 22.0167 200.906 20.7367 200.906 17.6646C200.906 14.5925 199.114 13.3124 197.323 13.3124C195.531 13.3124 193.74 14.5925 193.74 17.6646C193.74 20.4807 195.531 22.0167 197.323 22.0167ZM209.863 12.2884C210.119 12.0324 210.375 11.7764 210.631 11.7764C210.887 11.7764 211.399 12.0324 211.399 12.5444C211.399 12.8004 211.399 12.8004 211.143 13.0564L196.555 34.0491C196.299 34.3051 196.043 34.5611 195.787 34.5611C195.531 34.5611 195.019 34.3051 195.019 33.7931C195.019 33.5371 195.019 33.5371 195.275 33.2811L209.863 12.2884ZM209.096 22.7848C212.167 22.7848 214.214 25.0888 214.214 28.673C214.214 32.2571 211.911 34.5611 209.096 34.5611C206.024 34.5611 203.977 32.2571 203.977 28.673C203.977 25.0888 206.28 22.7848 209.096 22.7848ZM209.096 33.0251C210.887 33.0251 212.679 31.489 212.679 28.673C212.679 25.6009 210.887 24.3208 209.096 24.3208C207.304 24.3208 205.513 25.6009 205.513 28.673C205.513 31.7451 207.304 33.0251 209.096 33.0251Z" fill="black"></path><path d="M209.096 35.5852C205.513 35.5852 202.954 32.7691 202.954 28.673C202.954 27.3929 203.21 26.1129 203.721 25.0888L197.323 34.5612C197.067 35.0732 196.555 35.5852 195.788 35.5852C195.02 35.5852 193.996 34.8172 193.996 34.0491C193.996 33.5371 194.252 33.2811 194.508 33.0251L201.418 22.7848C200.394 24.0648 198.859 24.5768 197.067 24.5768C193.484 24.5768 190.925 21.7607 190.925 17.6646C190.925 13.8245 193.484 10.7524 197.067 10.7524C200.65 10.7524 203.21 13.5685 203.21 17.6646C203.21 18.9446 202.954 20.2247 202.442 21.2487L208.84 11.7764L209.608 12.2884L208.84 11.7764C209.096 11.5204 209.608 10.7524 210.376 10.7524C211.143 10.7524 212.167 11.5204 212.167 12.5444C212.167 13.0565 211.911 13.3125 211.655 13.5685L204.489 23.8088C205.513 22.5288 207.049 22.0167 208.84 22.0167C212.423 22.0167 214.982 24.8328 214.982 28.929C215.238 32.7691 212.679 35.5852 209.096 35.5852ZM209.096 25.3449C207.816 25.3449 206.537 26.3689 206.537 28.673C206.537 31.233 207.816 32.0011 209.096 32.0011C210.376 32.0011 211.655 30.977 211.655 28.673C211.911 26.1129 210.376 25.3449 209.096 25.3449ZM197.323 14.0805C196.043 14.0805 194.764 15.1045 194.764 17.4086C194.764 19.9687 196.043 20.7367 197.323 20.7367C198.603 20.7367 199.882 19.7127 199.882 17.4086C199.882 15.1045 198.603 14.0805 197.323 14.0805ZM209.864 12.2884L210.12 12.5444L209.864 12.2884Z" fill="black"></path></svg> 