<?xml version="1.0" encoding="UTF-8"?> <svg xmlns="http://www.w3.org/2000/svg" width="207" height="208" viewBox="0 0 207 208" fill="none"><path d="M103.5 0C102.861 0 102.222 0 101.264 0V3.19444V6.38888C101.903 6.38888 102.542 6.38888 103.5 6.38888C157.167 6.38888 200.611 49.8332 200.611 103.5C200.611 157.166 156.847 200.611 103.5 200.611C53.028 200.611 11.5003 161.958 7.02804 112.444L3.8336 112.764L0.63916 113.083C5.43082 165.791 49.8335 207.319 103.5 207.319C160.681 207.319 207 161 207 103.819C207 46.6388 160.361 0 103.5 0Z" fill="black"></path><path d="M3.19444 103.5C3.19444 48.8749 46.9582 4.47221 101.264 3.19444V0C45.361 1.27778 0 46.9583 0 103.5C0 106.694 0.319444 109.889 0.319444 112.764L3.51388 112.444C3.51388 109.569 3.19444 106.375 3.19444 103.5Z" fill="black"></path><path d="M6.38867 103.5C6.38867 106.375 6.38867 109.569 6.70812 112.444L44.083 110.208C43.7636 107.333 43.4442 104.458 43.4442 101.583C43.4442 69.6388 69.3191 43.7638 101.263 43.7638V6.38892C48.8747 7.66669 6.38867 50.4722 6.38867 103.5Z" fill="#040000"></path><path d="M3.19434 103.5C3.19434 106.694 3.51378 109.569 3.51378 112.764L6.70822 112.444C6.38877 109.569 6.38877 106.375 6.38877 103.5C6.38877 50.4722 48.8748 7.66667 101.264 6.3889V3.19446C46.9581 4.47223 3.19434 48.8749 3.19434 103.5Z" fill="#040000"></path><path d="M101.263 159.402C133.208 159.402 159.083 133.527 159.083 101.583C159.083 69.6386 133.208 43.7637 101.263 43.7637V46.9581C101.263 46.9581 79.2218 40.8887 58.1385 68.0414C40.5691 96.4719 46.6386 109.889 46.6386 109.889H44.083C48.2358 138 72.1941 159.402 101.263 159.402ZM101.263 50.1525C129.694 50.1525 152.694 73.1525 152.694 101.583C152.694 130.014 129.694 153.013 101.263 153.013C72.833 153.013 49.833 130.014 49.833 101.583C49.833 73.1525 72.833 50.1525 101.263 50.1525Z" fill="black"></path><path d="M58.1392 68.0414C79.2225 40.8887 101.264 46.9581 101.264 46.9581V43.7637C69.3198 43.7637 43.4448 69.6386 43.4448 101.583C43.4448 104.458 43.7643 107.333 44.0837 110.208H46.6393C46.6393 109.889 40.5698 96.4719 58.1392 68.0414Z" fill="black"></path></svg> 