<?xml version="1.0" encoding="UTF-8"?> <svg xmlns="http://www.w3.org/2000/svg" width="216" height="179" viewBox="0 0 216 179" fill="none"><path d="M83.1479 92.5605H9.42186C4.23984 92.5605 0 88.3211 0 83.1396V9.42092C0 4.23941 4.23984 0 9.42186 0H83.1479C88.33 0 92.5698 4.23941 92.5698 9.42092V83.1396C92.5698 88.3211 88.33 92.5605 83.1479 92.5605Z" fill="black"></path><path d="M65.2464 21.668H27.3234C25.9101 21.668 24.9679 20.4904 24.9679 19.3128C24.9679 17.8996 26.1456 16.9575 27.3234 16.9575H65.2464C66.6596 16.9575 67.6018 18.1351 67.6018 19.3128C67.6018 20.7259 66.6596 21.668 65.2464 21.668Z" fill="white"></path><path d="M65.2464 36.2705H27.3234C25.9101 36.2705 24.9679 35.0929 24.9679 33.9153C24.9679 32.5021 26.1456 31.5601 27.3234 31.5601H65.2464C66.6596 31.5601 67.6018 32.7377 67.6018 33.9153C67.6018 35.0929 66.6596 36.2705 65.2464 36.2705Z" fill="white"></path><path d="M65.2464 50.873H27.3234C25.9101 50.873 24.9679 49.6954 24.9679 48.5178C24.9679 47.1047 26.1456 46.1626 27.3234 46.1626H65.2464C66.6596 46.1626 67.6018 47.3402 67.6018 48.5178C67.6018 49.6954 66.6596 50.873 65.2464 50.873Z" fill="white"></path><path d="M28.7368 65.2394C28.9723 64.5329 29.2079 64.2974 29.6789 64.2974C30.3856 64.2974 30.6211 65.0039 30.6211 65.2394L32.0344 75.1314C32.0344 75.3669 32.0344 75.3669 32.0344 75.3669C32.0344 75.6025 31.7989 75.838 31.5633 75.838C31.0922 75.838 31.0922 75.6025 31.0922 75.3669L29.6789 65.2394L26.3813 75.3669C26.3813 75.6025 26.1457 76.0735 25.6746 76.0735C25.2036 76.0735 24.968 75.838 24.7325 75.3669L21.4348 65.2394L20.0215 75.3669C20.0215 75.6025 20.0215 75.838 19.5504 75.838C19.3149 75.838 19.0793 75.6025 19.0793 75.3669C19.0793 75.3669 19.0793 75.3669 19.0793 75.1314L20.4926 65.2394C20.4926 65.0039 20.7282 64.2974 21.4348 64.2974C22.1415 64.2974 22.1415 64.5329 22.377 65.2394L25.6746 74.8959L28.7368 65.2394Z" fill="white"></path><path d="M31.5633 76.3092C31.0922 76.3092 30.6211 76.0737 30.6211 75.3671L29.4434 67.5949L26.8524 75.1316C26.8524 75.3671 26.6168 76.3092 25.4391 76.3092C24.4969 76.3092 24.2613 75.6026 24.0258 75.1316L21.4348 67.3593L20.2571 75.1316C20.2571 76.0737 19.5504 76.0737 19.3149 76.0737C18.6082 76.0737 18.3727 75.6026 18.3727 75.1316C18.3727 75.1316 18.3727 74.8961 18.3727 74.6606L19.786 64.7686C20.0215 63.8265 20.4926 63.3555 21.1992 63.3555C22.377 63.3555 22.6125 64.0621 22.8481 64.7686L25.4391 72.7764L28.0301 64.7686C28.2656 64.0621 28.5012 63.3555 29.4434 63.3555C30.6211 63.3555 30.8566 64.5331 30.8566 64.7686L32.2699 74.6606C32.2699 74.8961 32.2699 74.8961 32.2699 74.8961C32.741 76.0737 32.2699 76.3092 31.5633 76.3092Z" fill="white"></path><path d="M42.634 69.479C42.8695 69.479 43.105 69.7145 43.105 69.9501C43.105 70.1856 42.8695 70.4211 42.634 70.4211H37.923V74.425C37.923 74.896 38.1586 74.8961 38.3941 74.8961H43.3406C43.5761 74.8961 43.8117 75.1316 43.8117 75.3671C43.8117 75.6026 43.5761 75.8381 43.3406 75.8381H38.1586C36.9808 75.8381 36.9808 74.896 36.9808 74.425V66.1817C36.9808 65.7106 36.9808 64.7686 38.1586 64.7686H43.105C43.3406 64.7686 43.5761 65.0041 43.5761 65.2396C43.5761 65.4751 43.3406 65.7106 43.105 65.7106H38.3941C37.923 65.7106 37.923 65.7106 37.923 66.1817V69.7145H42.634V69.479Z" fill="white"></path><path d="M43.3406 76.0737H38.1585C37.2164 76.0737 36.2742 75.8382 36.2742 74.1895V65.9462C36.2742 64.2975 37.2164 64.062 38.1585 64.062H43.105C43.8117 64.062 44.0472 64.533 44.0472 65.0041C44.0472 65.4751 43.5761 65.9462 43.105 65.9462H38.3941V68.7725H42.6339C43.3406 68.7725 43.5761 69.2435 43.5761 69.7145C43.5761 70.1856 43.105 70.6567 42.6339 70.6567H38.3941V73.954H43.3406C44.0472 73.954 44.2827 74.425 44.2827 74.8961C44.2827 75.8382 43.8117 76.0737 43.3406 76.0737Z" fill="white"></path><path d="M57.0021 64.7684C57.0021 64.2974 57.2377 64.2974 57.4732 64.2974C57.7088 64.2974 57.9443 64.5329 57.9443 64.7684V74.6604C57.9443 75.1314 57.9443 75.838 57.2377 75.838C56.7666 75.838 56.531 75.6025 56.2955 75.1314L49.4646 65.2394V75.3669C49.4646 75.838 49.2291 75.838 48.9936 75.838C48.758 75.838 48.5225 75.6025 48.5225 75.3669V65.475C48.5225 65.0039 48.5225 64.2974 49.2291 64.2974C49.7002 64.2974 49.9357 64.5329 50.1713 65.0039L57.0021 74.8959V64.7684Z" fill="white"></path><path d="M57.2378 76.3091C56.5311 76.3091 56.06 75.8381 55.8245 75.3671L50.1714 67.1238V75.3671C50.1714 76.0736 49.7003 76.3091 49.2292 76.3091C48.5225 76.3091 48.287 75.8381 48.287 75.3671V65.4751C48.287 64.062 48.9936 63.8264 49.7003 63.8264C50.4069 63.8264 50.878 64.2975 51.1135 64.7685L56.7667 73.0118V64.7685C56.7667 64.062 57.2378 63.8264 57.7088 63.8264C58.4155 63.8264 58.651 64.2975 58.651 64.7685V74.6605C58.651 75.8381 58.1799 76.3091 57.2378 76.3091Z" fill="white"></path><path d="M63.5977 64.7686C63.5977 64.2976 63.8332 64.2976 64.0688 64.2976C64.3043 64.2976 64.5398 64.5331 64.5398 64.7686V70.8922C64.5398 72.5409 64.5398 75.1316 68.3086 75.1316C71.8418 75.1316 72.0773 72.5409 72.0773 70.8922V64.7686C72.0773 64.2976 72.3129 64.2976 72.5484 64.2976C72.784 64.2976 73.0195 64.5331 73.0195 64.7686V70.8922C73.0195 72.5409 73.0195 75.8382 68.5441 75.8382C64.0688 75.8382 64.0688 72.5409 64.0688 70.8922V64.7686H63.5977Z" fill="white"></path><path d="M68.073 76.3093C62.891 76.3093 62.891 72.0699 62.891 70.6568V64.5331C62.891 63.8266 63.3621 63.5911 63.8332 63.5911C64.5398 63.5911 64.7754 64.0621 64.7754 64.5331V70.6568C64.7754 72.541 65.0109 74.1896 67.8375 74.1896C70.664 74.1896 70.8996 72.541 70.8996 70.6568V64.5331C70.8996 63.8266 71.3707 63.5911 71.8418 63.5911C72.5484 63.5911 72.7839 64.0621 72.7839 64.5331V70.6568C73.255 72.3054 73.255 76.3093 68.073 76.3093Z" fill="white"></path><path d="M206.574 178.055H132.848C127.666 178.055 123.426 173.816 123.426 168.634V94.9158C123.426 89.7343 127.666 85.4949 132.848 85.4949H206.574C211.756 85.4949 215.996 89.7343 215.996 94.9158V168.634C215.996 173.816 211.756 178.055 206.574 178.055Z" fill="black"></path><path d="M183.255 111.167L159.465 134.955C158.523 135.897 157.345 135.897 156.403 134.955C155.461 134.013 155.461 132.835 156.403 131.893L180.193 108.105C181.135 107.163 182.313 107.163 183.255 108.105C183.962 109.047 183.962 110.46 183.255 111.167Z" fill="white"></path><path d="M156.403 111.167L180.193 134.955C181.135 135.897 182.313 135.897 183.255 134.955C184.197 134.013 184.197 132.835 183.255 131.893L159.465 108.105C158.523 107.163 157.345 107.163 156.403 108.105C155.461 109.047 155.461 110.46 156.403 111.167Z" fill="white"></path><path d="M140.621 155.445C140.621 152.384 142.977 149.793 146.51 149.793C147.923 149.793 148.865 150.264 149.572 150.499C149.808 150.735 149.808 150.735 149.808 150.97C149.808 151.206 149.572 151.441 149.337 151.441C149.101 151.441 149.101 151.441 148.865 151.206C147.923 150.735 146.981 150.735 146.51 150.735C143.448 150.735 141.564 152.855 141.564 155.681C141.564 158.036 143.212 160.627 146.51 160.627C147.452 160.627 148.159 160.391 148.865 160.156L149.337 159.92C149.572 159.92 149.808 160.156 149.808 160.391C149.808 160.627 149.572 160.862 149.572 160.862C148.394 161.333 147.217 161.569 146.51 161.569C142.741 161.333 140.621 158.507 140.621 155.445Z" fill="white"></path><path d="M146.51 161.804C142.741 161.804 139.915 159.214 139.915 155.445C139.915 151.677 142.506 149.086 146.274 149.086C147.452 149.086 148.63 149.322 149.572 150.028C150.043 150.264 150.043 150.735 150.043 150.97C150.043 151.441 149.572 151.912 149.101 151.912C148.865 151.912 148.63 151.912 148.394 151.677C147.452 151.206 146.746 151.206 146.274 151.206C143.683 151.206 142.035 153.09 142.035 155.445C142.035 157.565 143.448 159.685 146.51 159.685C147.452 159.685 148.159 159.449 148.63 159.214C149.101 158.978 149.337 158.978 149.337 158.978C149.808 158.978 150.279 159.449 150.279 159.92C150.279 160.156 150.279 160.627 149.572 160.862C148.394 161.804 147.217 161.804 146.51 161.804Z" fill="white"></path><path d="M155.932 161.098C154.754 161.098 154.754 160.156 154.754 159.685V150.264C154.754 150.028 154.99 149.793 155.225 149.793C155.461 149.793 155.696 150.028 155.696 150.264V159.685C155.696 160.156 155.932 160.156 156.167 160.156H159.701C159.936 160.156 160.172 160.391 160.172 160.627C160.172 160.862 159.936 161.098 159.701 161.098H155.932V161.098Z" fill="white"></path><path d="M159.701 161.569H155.932C154.99 161.569 154.047 161.333 154.047 159.685V150.264C154.047 149.557 154.519 149.322 154.99 149.322C155.696 149.322 155.932 149.793 155.932 150.264V159.685H159.23C159.936 159.685 160.172 160.156 160.172 160.627C160.643 161.098 160.172 161.569 159.701 161.569Z" fill="white"></path><path d="M170.065 149.793C173.362 149.793 175.718 152.148 175.718 155.445C175.718 158.743 173.127 161.098 170.065 161.098C166.767 161.098 164.411 158.743 164.411 155.445C164.411 152.148 167.002 149.793 170.065 149.793ZM170.065 160.391C172.891 160.391 174.776 158.272 174.776 155.445C174.776 152.619 172.656 150.499 170.065 150.499C167.238 150.499 165.354 152.619 165.354 155.445C165.354 158.272 167.474 160.391 170.065 160.391Z" fill="white"></path><path d="M170.065 161.804C166.531 161.804 163.705 158.978 163.705 155.445C163.705 151.912 166.531 149.086 170.065 149.086C173.598 149.086 176.424 151.912 176.424 155.445C176.424 159.214 173.833 161.804 170.065 161.804ZM170.065 151.206C167.709 151.206 165.825 153.09 165.825 155.445C165.825 157.8 167.709 159.685 170.065 159.685C172.42 159.685 174.304 157.8 174.304 155.445C174.304 153.09 172.42 151.206 170.065 151.206Z" fill="white"></path><path d="M181.135 159.92C181.842 160.156 182.549 160.391 183.255 160.391C184.668 160.391 186.082 159.92 186.082 158.036C186.082 156.388 184.904 156.152 183.726 155.681C182.313 155.21 180.664 154.739 180.664 152.619C180.664 150.971 181.842 149.557 183.962 149.557C184.668 149.557 185.375 149.793 186.082 150.028C186.317 150.028 186.317 150.264 186.317 150.499C186.317 150.735 186.082 150.97 185.846 150.97C185.846 150.97 185.611 150.971 185.375 150.735C185.14 150.499 184.433 150.499 183.726 150.499C182.077 150.499 181.371 151.677 181.371 152.619C181.371 154.032 182.549 154.503 183.726 154.739C185.14 155.21 186.788 155.916 186.788 157.801C186.788 159.92 185.14 160.862 183.02 160.862C181.606 160.862 180.9 160.391 180.429 160.391C180.193 160.391 179.958 160.156 179.958 159.92C179.958 159.685 180.193 159.449 180.429 159.449C180.9 159.685 180.9 159.92 181.135 159.92Z" fill="white"></path><path d="M183.255 161.805C181.842 161.805 180.9 161.334 180.429 161.098C179.958 160.862 179.722 160.627 179.722 160.156C179.722 159.685 180.193 159.214 180.664 159.214C180.9 159.214 180.9 159.214 181.371 159.449C181.842 159.685 182.549 159.92 183.255 159.92C183.726 159.92 185.611 159.685 185.611 158.272C185.611 157.094 184.904 156.859 183.726 156.388C182.313 155.916 180.429 155.21 180.429 152.855C180.429 150.735 182.077 149.322 184.197 149.322C184.904 149.322 185.611 149.557 186.553 149.793C187.024 150.028 187.26 150.264 187.26 150.735C187.26 151.206 186.788 151.677 186.317 151.677C186.082 151.677 185.846 151.677 185.611 151.442C185.375 151.442 184.904 151.206 184.197 151.206C183.02 151.206 182.549 151.913 182.549 152.855C182.549 153.797 183.02 154.032 184.433 154.503C185.846 154.974 187.966 155.681 187.966 158.272C187.731 160.391 185.846 161.805 183.255 161.805Z" fill="white"></path><path d="M198.095 154.974C198.33 154.974 198.566 155.21 198.566 155.445C198.566 155.681 198.33 155.916 198.095 155.916H193.384V159.92C193.384 160.391 193.619 160.391 193.855 160.391H198.801C199.037 160.391 199.272 160.627 199.272 160.862C199.272 161.098 199.037 161.333 198.801 161.333H193.619C192.442 161.333 192.442 160.391 192.442 159.92V151.677C192.442 151.206 192.442 150.264 193.619 150.264H198.566C198.801 150.264 199.037 150.499 199.037 150.735C199.037 150.97 198.801 151.206 198.566 151.206H193.855C193.384 151.206 193.384 151.206 193.384 151.677V155.21H198.095V154.974Z" fill="white"></path><path d="M198.801 161.569H193.619C192.677 161.569 191.735 161.333 191.735 159.685V151.441C191.735 149.793 192.677 149.557 193.619 149.557H198.566C199.272 149.557 199.508 150.028 199.508 150.499C199.508 150.97 199.037 151.441 198.566 151.441H193.855V154.268H198.095C198.801 154.268 199.037 154.739 199.037 155.21C199.037 155.681 198.566 156.152 198.095 156.152H193.855V159.449H198.801C199.508 159.449 199.743 159.92 199.743 160.391C199.743 161.098 199.272 161.569 198.801 161.569Z" fill="white"></path><path d="M106.231 47.3402C105.525 47.3402 105.054 46.6336 105.054 46.1626C105.054 46.1626 105.054 45.6916 105.289 44.7495C105.525 44.0429 105.996 43.8074 106.703 43.8074C107.409 44.0429 107.645 44.5139 107.645 45.2205C107.409 45.6916 107.409 46.1626 107.409 46.1626C107.409 46.8691 106.703 47.3402 106.231 47.3402Z" fill="black"></path><path d="M109.765 40.2745C109.529 40.2745 109.294 40.2745 109.058 40.039C108.587 39.5679 108.587 38.8614 109.058 38.3903C109.529 37.6837 110.236 37.2127 110.942 36.7416C111.413 36.2706 112.12 36.5061 112.591 36.9772C113.062 37.4482 112.827 38.1548 112.356 38.6258C111.885 39.0969 111.178 39.5679 110.707 40.039C110.236 40.039 110 40.2745 109.765 40.2745Z" fill="black"></path><path d="M160.172 49.931C159.701 49.931 159.23 49.6955 158.994 49.2244C158.758 48.5179 158.523 47.8113 158.052 47.1047C157.816 46.6337 158.052 45.9271 158.523 45.4561C158.994 45.2206 159.701 45.4561 160.172 45.9271C160.643 46.6337 160.878 47.3402 161.114 48.0468C161.349 48.7534 161.114 49.2244 160.407 49.46C160.407 49.931 160.172 49.931 160.172 49.931ZM154.99 42.1587C154.754 42.1587 154.283 42.1588 154.283 41.9232C153.812 41.4522 153.105 40.9811 152.634 40.5101C152.163 40.039 151.928 39.3325 152.399 38.8614C152.87 38.3904 153.576 38.1548 154.047 38.6259C154.754 39.0969 155.225 39.8035 155.932 40.2745C156.403 40.7456 156.403 41.4522 155.932 41.9232C155.696 42.1588 155.225 42.1587 154.99 42.1587ZM147.217 37.2128C146.981 37.2128 146.981 37.2128 146.746 37.2128C146.039 36.9773 145.332 36.7417 144.626 36.5062C143.919 36.2707 143.683 35.5641 143.919 35.0931C144.155 34.3865 144.861 34.151 145.332 34.3865C146.039 34.622 146.981 34.8575 147.688 35.3286C148.394 35.5641 148.63 36.2707 148.394 36.9772C148.159 36.9772 147.688 37.2128 147.217 37.2128ZM117.538 35.3286C117.067 35.3286 116.596 35.0931 116.36 34.622C116.124 33.9154 116.596 33.4444 117.067 33.2089C117.773 32.9733 118.48 32.7378 119.422 32.5023C120.129 32.2668 120.6 32.7378 120.835 33.4444C121.071 34.151 120.6 34.622 119.893 34.8576C119.187 35.0931 118.48 35.3286 117.773 35.5641C117.773 35.3286 117.538 35.3286 117.538 35.3286ZM138.266 34.622C138.266 34.622 138.03 34.622 138.266 34.622C137.795 34.622 137.324 34.3865 137.088 34.3865L135.91 34.151C135.204 34.151 134.733 33.4444 134.968 32.7378C134.968 32.0313 135.675 31.5602 136.381 31.7957L137.559 32.0312C138.03 32.0312 138.266 32.0313 138.737 32.2668C139.444 32.2668 139.915 32.9734 139.679 33.6799C139.444 34.151 138.737 34.622 138.266 34.622ZM126.724 33.6799C126.017 33.6799 125.546 33.2089 125.546 32.5023C125.546 31.7958 126.017 31.3247 126.724 31.3247C127.195 31.3247 127.902 31.3247 128.373 31.3247H129.08C129.786 31.3247 130.257 31.7958 130.257 32.5023C130.257 33.2089 129.786 33.6799 129.08 33.6799H128.373C127.666 33.6799 127.195 33.6799 126.724 33.6799Z" fill="black"></path><path d="M161.82 57.9388C161.114 57.9388 160.643 57.4677 160.643 56.7612C160.643 56.2901 160.643 56.0546 160.643 55.5835C160.643 54.877 161.114 54.4059 161.585 54.1704C162.292 54.1704 162.763 54.6414 162.998 55.1125C162.998 55.5835 162.998 55.8191 162.998 56.2901C162.998 57.4677 162.527 57.9388 161.82 57.9388Z" fill="black"></path><path d="M154.047 53.9351L160.643 67.8309L169.358 55.1127L154.047 53.9351Z" fill="black"></path></svg> 