<?xml version="1.0" encoding="UTF-8"?> <svg xmlns="http://www.w3.org/2000/svg" width="216" height="179" viewBox="0 0 216 179" fill="none"><path d="M83.1479 92.5605H9.42186C4.23984 92.5605 0 88.3211 0 83.1396V9.42092C0 4.23941 4.23984 0 9.42186 0H83.1479C88.33 0 92.5698 4.23941 92.5698 9.42092V83.1396C92.5698 88.3211 88.33 92.5605 83.1479 92.5605Z" fill="black"></path><path d="M71.1351 27.3206H21.4348C19.786 27.3206 18.3727 25.9075 18.3727 24.2588C18.3727 22.6102 19.786 21.197 21.4348 21.197H71.1351C72.7839 21.197 74.1972 22.6102 74.1972 24.2588C74.1972 25.672 72.7839 27.3206 71.1351 27.3206Z" fill="white"></path><path d="M71.1351 46.1624H21.4348C19.786 46.1624 18.3727 44.7493 18.3727 43.1006C18.3727 41.452 19.786 40.0388 21.4348 40.0388H71.1351C72.7839 40.0388 74.1972 41.452 74.1972 43.1006C74.1972 44.7493 72.7839 46.1624 71.1351 46.1624Z" fill="white"></path><path d="M71.1351 65.2401H21.4348C19.786 65.2401 18.3727 63.8269 18.3727 62.1783C18.3727 60.5296 19.786 59.1165 21.4348 59.1165H71.1351C72.7839 59.1165 74.1972 60.5296 74.1972 62.1783C74.1972 63.8269 72.7839 65.2401 71.1351 65.2401Z" fill="white"></path><path d="M206.574 178.997H132.848C127.666 178.997 123.426 174.758 123.426 169.576V95.8577C123.426 90.6762 127.666 86.4368 132.848 86.4368H206.574C211.756 86.4368 215.996 90.6762 215.996 95.8577V169.576C215.996 174.758 211.756 178.997 206.574 178.997Z" fill="black"></path><path d="M189.615 115.642L154.283 150.734C153.105 151.912 150.985 151.912 149.807 150.734C148.63 149.557 148.63 147.437 149.807 146.26L184.904 111.167C186.082 109.989 188.202 109.989 189.379 111.167C190.793 112.344 190.793 114.228 189.615 115.642Z" fill="white"></path><path d="M149.807 115.642L185.139 150.734C186.317 151.912 188.437 151.912 189.615 150.734C190.793 149.557 190.793 147.437 189.615 146.26L154.283 111.167C153.105 109.989 150.985 109.989 149.807 111.167C148.63 112.344 148.63 114.228 149.807 115.642Z" fill="white"></path><path d="M113.298 52.286C113.298 52.286 113.062 52.286 113.298 52.286C112.591 52.286 112.12 51.5795 112.12 51.1084C112.12 51.1084 112.12 50.6374 112.356 49.6953C112.591 48.9887 113.062 48.7532 113.769 48.7532C114.476 48.9887 114.711 49.4597 114.711 50.1663C114.476 50.6374 114.476 51.1084 114.476 51.1084C114.24 51.815 113.769 52.286 113.298 52.286Z" fill="black"></path><path d="M116.595 44.9849C116.36 44.9849 116.124 44.9849 115.889 44.7494C115.418 44.2783 115.418 43.5718 115.889 43.1007C116.36 42.3942 117.067 41.9231 117.773 41.4521C118.244 40.981 118.951 41.2166 119.422 41.6876C119.893 42.1586 119.658 42.8652 119.186 43.3363C118.715 43.8073 118.009 44.2783 117.538 44.7494C117.302 44.7494 117.067 44.9849 116.595 44.9849Z" fill="black"></path><path d="M167.238 54.8768C166.767 54.8768 166.296 54.6413 166.06 54.1702C165.825 53.4637 165.589 52.7571 165.118 52.0505C164.883 51.5795 165.118 50.8729 165.589 50.4019C166.06 50.1664 166.767 50.4019 167.238 50.8729C167.709 51.5795 167.945 52.2861 168.18 52.9926C168.416 53.6992 168.18 54.1702 167.474 54.4058C167.474 54.8768 167.238 54.8768 167.238 54.8768ZM162.056 47.1046C161.821 47.1046 161.349 47.1046 161.349 46.869C160.878 46.398 160.172 45.9269 159.701 45.4559C159.23 44.9849 158.994 44.2783 159.465 43.8072C159.936 43.3362 160.643 43.1007 161.114 43.5717C161.821 44.0428 162.292 44.7493 162.998 45.2204C163.469 45.6914 163.469 46.398 162.998 46.869C162.527 46.869 162.292 47.1046 162.056 47.1046ZM154.283 41.9231C154.047 41.9231 154.047 41.9231 153.812 41.9231C153.105 41.6875 152.399 41.452 151.692 41.2165C150.985 40.981 150.75 40.2744 150.985 39.8034C151.221 39.0968 151.928 38.8613 152.399 39.0968C153.105 39.3323 154.047 39.5678 154.754 40.0389C155.461 40.2744 155.696 40.981 155.461 41.6875C155.225 41.6875 154.754 41.9231 154.283 41.9231ZM124.604 40.0389C124.133 40.0389 123.662 39.8034 123.426 39.3323C123.191 38.6257 123.662 38.1547 124.133 37.9192C124.84 37.6836 125.546 37.4481 126.489 37.2126C127.195 36.9771 127.666 37.4481 127.902 38.1547C128.137 38.8613 127.666 39.3323 126.96 39.5678C126.253 39.8034 125.546 40.0389 124.84 40.2744C124.84 40.0389 124.604 40.0389 124.604 40.0389ZM145.332 39.3323C145.332 39.3323 145.097 39.3323 145.332 39.3323C144.861 39.3323 144.39 39.0968 144.155 39.0968L142.977 38.8613C142.27 38.8613 141.799 38.1547 142.035 37.4481C142.035 36.7416 142.741 36.2705 143.448 36.506L144.626 36.7416C145.097 36.7416 145.332 36.7416 145.803 36.9771C146.51 36.9771 146.981 37.6836 146.746 38.3902C146.274 39.0968 145.803 39.3323 145.332 39.3323ZM133.79 38.6257C133.084 38.6257 132.613 38.1547 132.613 37.4481C132.613 36.7416 133.084 36.2705 133.79 36.2705C134.262 36.2705 134.968 36.2705 135.439 36.2705H136.146C136.853 36.2705 137.324 36.7416 137.324 37.4481C137.324 38.1547 136.853 38.6257 136.146 38.6257H135.439C134.733 38.6257 134.262 38.6257 133.79 38.6257Z" fill="black"></path><path d="M168.887 62.8846C168.18 62.8846 167.709 62.4135 167.709 61.707C167.709 61.2359 167.709 61.0004 167.709 60.5294C167.709 59.8228 168.18 59.3517 168.651 59.1162C169.358 59.1162 169.829 59.5873 170.065 60.0583C170.065 60.5293 170.065 60.7649 170.065 61.2359C170.065 62.178 169.593 62.6491 168.887 62.8846Z" fill="black"></path><path d="M160.878 58.8809L167.709 72.7767L176.424 59.823L160.878 58.8809Z" fill="black"></path></svg> 