<?xml version="1.0" encoding="UTF-8"?> <svg xmlns="http://www.w3.org/2000/svg" width="220" height="173" viewBox="0 0 220 173" fill="none"><path d="M83.2323 92.5605H9.50622C4.32419 92.5605 0.0843506 88.3211 0.0843506 83.1396V9.42092C0.0843506 4.23941 4.32419 0 9.50622 0H83.2323C88.4143 0 92.6542 4.23941 92.6542 9.42092V83.1396C92.6542 88.3211 88.4143 92.5605 83.2323 92.5605Z" fill="black"></path><path d="M65.3307 26.3784H27.4077C25.9944 26.3784 25.0522 25.2008 25.0522 24.0232C25.0522 22.6101 26.23 21.668 27.4077 21.668H65.3307C66.744 21.668 67.6862 22.8456 67.6862 24.0232C67.6862 25.4363 66.744 26.3784 65.3307 26.3784Z" fill="white"></path><path d="M65.3307 67.3596H27.4077C25.9944 67.3596 25.0522 66.182 25.0522 65.0044C25.0522 63.5913 26.23 62.6492 27.4077 62.6492H65.3307C66.744 62.6492 67.6862 63.8268 67.6862 65.0044C67.6862 66.182 66.744 67.3596 65.3307 67.3596Z" fill="white"></path><path d="M28.8213 40.2741C29.0568 39.5675 29.2923 39.332 29.7634 39.332C30.4701 39.332 30.7056 40.0386 30.7056 40.2741L32.1189 50.1661C32.1189 50.4017 32.1189 50.4016 32.1189 50.4016C32.1189 50.6372 31.8834 50.8727 31.6478 50.8727C31.1767 50.8727 31.1767 50.6372 31.1767 50.4016L29.7634 40.2741L26.4658 50.4016C26.4658 50.6372 26.2302 51.1082 25.7591 51.1082C25.288 51.1082 25.0525 50.8727 24.8169 50.4016L21.5193 40.2741L20.106 50.4016C20.106 50.6372 20.106 50.8727 19.6349 50.8727C19.3994 50.8727 19.1638 50.6372 19.1638 50.4016C19.1638 50.4016 19.1638 50.4017 19.1638 50.1661L20.5771 40.2741C20.5771 40.0386 20.8126 39.332 21.5193 39.332C22.2259 39.332 22.2259 39.5675 22.4615 40.2741L25.7591 49.9306L28.8213 40.2741Z" fill="white"></path><path d="M31.6477 51.5793C31.1766 51.5793 30.7055 51.3438 30.7055 50.6372L29.5277 42.8649L26.9367 50.4017C26.9367 50.6372 26.7012 51.5793 25.5234 51.5793C24.5812 51.5793 24.3457 50.8727 24.1102 50.4017L21.5191 42.6294L20.3414 50.4017C20.3414 51.3438 19.6348 51.3438 19.3992 51.3438C18.6926 51.3438 18.457 50.8727 18.457 50.4017C18.457 50.4017 18.457 50.1662 18.457 49.9306L19.8703 40.0386C20.1059 39.0965 20.5769 38.6255 21.2836 38.6255C22.4613 38.6255 22.6969 39.3321 22.9324 40.0386L25.5234 48.0464L28.1145 40.0386C28.35 39.3321 28.5855 38.6255 29.5277 38.6255C30.7055 38.6255 30.941 39.8031 30.941 40.0386L32.3543 49.9306C32.3543 50.1662 32.3543 50.1662 32.3543 50.1662C32.8254 51.1083 32.3543 51.5793 31.6477 51.5793Z" fill="white"></path><path d="M42.7184 44.5134C42.9539 44.5134 43.1895 44.749 43.1895 44.9845C43.1895 45.22 42.9539 45.4556 42.7184 45.4556H38.0075V49.4594C38.0075 49.9305 38.243 49.9305 38.4786 49.9305H43.425C43.6606 49.9305 43.8961 50.166 43.8961 50.4015C43.8961 50.637 43.6606 50.8726 43.425 50.8726H38.243C37.0653 50.8726 37.0653 49.9305 37.0653 49.4594V41.2161C37.0653 40.7451 37.0653 39.803 38.243 39.803H43.1895C43.425 39.803 43.6606 40.0385 43.6606 40.274C43.6606 40.5095 43.425 40.7451 43.1895 40.7451H38.4786C38.0075 40.7451 38.0075 40.7451 38.0075 41.2161V44.749H42.7184V44.5134Z" fill="white"></path><path d="M43.425 51.3437H38.243C37.3008 51.3437 36.3586 51.1082 36.3586 49.4596V41.2162C36.3586 39.5676 37.3008 39.332 38.243 39.332H43.1895C43.8961 39.332 44.1317 39.8031 44.1317 40.2741C44.1317 40.7452 43.6605 41.2162 43.1895 41.2162H38.4785V44.0425H42.7184C43.425 44.0425 43.6605 44.5135 43.6605 44.9846C43.6605 45.4556 43.1895 45.9267 42.7184 45.9267H38.4785V49.224H43.425C44.1317 49.224 44.3672 49.6951 44.3672 50.1661C44.3672 50.8727 43.8961 51.3437 43.425 51.3437Z" fill="white"></path><path d="M57.0866 39.8031C57.0866 39.332 57.3221 39.332 57.5577 39.332C57.7932 39.332 58.0288 39.5675 58.0288 39.8031V49.695C58.0288 50.1661 58.0288 50.8727 57.3221 50.8727C56.851 50.8727 56.6155 50.6372 56.38 50.1661L49.5491 40.2741V50.4016C49.5491 50.8727 49.3136 50.8727 49.078 50.8727C48.8425 50.8727 48.6069 50.6371 48.6069 50.4016V40.5096C48.6069 40.0386 48.6069 39.332 49.3136 39.332C49.7847 39.332 50.0202 39.5676 50.2557 40.0386L57.0866 49.9306V39.8031Z" fill="white"></path><path d="M57.3221 51.5793C56.6155 51.5793 56.1444 51.1083 55.9089 50.6372L50.2557 42.3939V50.6372C50.2557 51.3438 49.7846 51.5793 49.3135 51.5793C48.6069 51.5793 48.3713 51.1083 48.3713 50.6372V40.5097C48.3713 39.0966 49.078 38.8611 49.7846 38.8611C50.4913 38.8611 50.9624 39.3321 51.1979 39.8032L56.8511 48.0464V39.8032C56.8511 39.0966 57.3221 38.8611 57.7932 38.8611C58.4999 38.8611 58.7354 39.3321 58.7354 39.8032V49.6951C58.7354 50.8727 58.2643 51.5793 57.3221 51.5793Z" fill="white"></path><path d="M63.6821 39.8031C63.6821 39.332 63.9177 39.332 64.1532 39.332C64.3888 39.332 64.6243 39.5675 64.6243 39.8031V45.9267C64.6243 47.5753 64.6243 50.1661 68.3931 50.1661C71.9262 50.1661 72.1618 47.5753 72.1618 45.9267V39.8031C72.1618 39.332 72.3973 39.332 72.6329 39.332C72.8684 39.332 73.104 39.5675 73.104 39.8031V45.9267C73.104 47.5753 73.104 50.8727 68.6286 50.8727C64.1532 50.8727 64.1532 47.5753 64.1532 45.9267V39.8031H63.6821Z" fill="white"></path><path d="M68.1574 51.5793C62.9753 51.5793 62.9753 47.3399 62.9753 45.9268V39.8032C62.9753 39.0966 63.4464 38.8611 63.9175 38.8611C64.6242 38.8611 64.8597 39.3321 64.8597 39.8032V45.9268C64.8597 47.8109 65.0952 49.4596 67.9218 49.4596C70.7484 49.4596 70.9839 47.8109 70.9839 45.9268V39.8032C70.9839 39.0966 71.455 38.8611 71.9261 38.8611C72.6328 38.8611 72.8683 39.3321 72.8683 39.8032V45.9268C73.3394 47.3399 73.3394 51.5793 68.1574 51.5793Z" fill="white"></path><path d="M209.721 172.638H135.995C130.813 172.638 126.573 168.399 126.573 163.217V89.4986C126.573 84.3171 130.813 80.0776 135.995 80.0776H209.721C214.903 80.0776 219.143 84.3171 219.143 89.4986V163.217C219.143 168.399 214.903 172.638 209.721 172.638Z" fill="black"></path><path d="M192.761 109.282L157.665 144.375C156.487 145.553 154.367 145.553 153.189 144.375C152.012 143.198 152.012 141.078 153.189 139.9L188.286 104.808C189.464 103.63 191.584 103.63 192.761 104.808C193.939 105.985 193.939 108.105 192.761 109.282Z" fill="white"></path><path d="M153.189 109.282L188.286 144.375C189.464 145.553 191.584 145.553 192.761 144.375C193.939 143.198 193.939 141.078 192.761 139.9L157.665 104.808C156.487 103.63 154.367 103.63 153.189 104.808C151.776 105.985 151.776 108.105 153.189 109.282Z" fill="white"></path><path d="M113.618 47.3402C112.911 47.3402 112.44 46.6336 112.44 46.1626C112.44 46.1626 112.44 45.6916 112.675 44.7495C112.911 44.0429 113.382 43.8074 114.089 43.8074C114.795 44.0429 115.031 44.5139 115.031 45.2205C114.795 45.6916 114.795 46.1626 114.795 46.1626C114.795 46.8691 114.324 47.3402 113.618 47.3402Z" fill="black"></path><path d="M117.151 40.2745C116.915 40.2745 116.68 40.2745 116.444 40.039C115.973 39.5679 115.973 38.8614 116.444 38.3903C116.915 37.6837 117.622 37.2127 118.329 36.7416C118.8 36.2706 119.506 36.5061 119.978 36.9772C120.449 37.4482 120.213 38.1548 119.742 38.6258C119.271 39.0969 118.564 39.5679 118.093 40.039C117.858 40.039 117.387 40.2745 117.151 40.2745Z" fill="black"></path><path d="M167.558 49.931C167.087 49.931 166.616 49.6955 166.38 49.2244C166.145 48.5179 165.909 47.8113 165.438 47.1047C165.203 46.6337 165.438 45.9271 165.909 45.4561C166.38 45.2206 167.087 45.4561 167.558 45.9271C168.029 46.6337 168.265 47.3402 168.5 48.0468C168.736 48.7534 168.5 49.2244 167.794 49.46C167.794 49.931 167.794 49.931 167.558 49.931ZM162.376 42.1587C162.14 42.1587 161.669 42.1588 161.669 41.9232C161.198 41.4522 160.492 40.9811 160.02 40.5101C159.549 40.039 159.314 39.3325 159.785 38.8614C160.256 38.3904 160.963 38.1548 161.434 38.6259C162.14 39.0969 162.611 39.8035 163.318 40.2745C163.789 40.7456 163.789 41.4522 163.318 41.9232C163.083 42.1588 162.847 42.1587 162.376 42.1587ZM154.603 37.2128C154.367 37.2128 154.367 37.2128 154.132 37.2128C153.425 36.9773 152.719 36.7417 152.012 36.5062C151.305 36.2707 151.07 35.5641 151.305 35.0931C151.541 34.3865 152.247 34.151 152.719 34.3865C153.425 34.622 154.367 34.8575 155.074 35.3286C155.781 35.5641 156.016 36.2707 155.781 36.9772C155.545 36.9772 155.074 37.2128 154.603 37.2128ZM124.924 35.3286C124.453 35.3286 123.982 35.0931 123.746 34.622C123.511 33.9154 123.982 33.4444 124.453 33.2089C125.16 32.9733 125.866 32.7378 126.808 32.5023C127.515 32.2668 127.986 32.7378 128.222 33.4444C128.457 34.151 127.986 34.622 127.279 34.8576C126.573 35.0931 125.866 35.3286 125.16 35.5641C125.16 35.3286 125.16 35.3286 124.924 35.3286ZM145.652 34.622C145.181 34.622 144.71 34.3865 144.474 34.3865L143.297 34.151C142.59 34.151 142.119 33.4444 142.354 32.7378C142.354 32.0313 143.061 31.5602 143.768 31.7957L144.945 32.0312C145.417 32.0312 145.652 32.0313 146.123 32.2668C146.83 32.2668 147.301 32.9734 147.065 33.6799C146.83 34.151 146.359 34.622 145.652 34.622ZM134.11 33.6799C133.404 33.6799 132.933 33.2089 132.933 32.5023C132.933 31.7958 133.404 31.3247 134.11 31.3247C134.581 31.3247 135.288 31.3247 135.759 31.3247H136.466C137.172 31.3247 137.644 31.7958 137.644 32.5023C137.644 33.2089 137.172 33.6799 136.466 33.6799H135.759C135.053 33.6799 134.581 33.6799 134.11 33.6799Z" fill="black"></path><path d="M169.207 57.9388C168.5 57.9388 168.029 57.4677 168.029 56.7612C168.029 56.2901 168.029 56.0546 168.029 55.5835C168.029 54.877 168.5 54.4059 168.971 54.1704C169.678 54.1704 170.149 54.6414 170.384 55.1125C170.384 55.5835 170.384 55.8191 170.384 56.2901C170.384 57.4677 169.913 57.9388 169.207 57.9388C169.207 57.9388 169.442 57.9388 169.207 57.9388Z" fill="black"></path><path d="M161.434 53.9351L168.264 67.8309L176.98 55.1127L161.434 53.9351Z" fill="black"></path></svg> 