<?xml version="1.0" encoding="UTF-8"?> <svg xmlns="http://www.w3.org/2000/svg" width="220" height="179" viewBox="0 0 220 179" fill="none"><path d="M83.2323 92.5605H9.50622C4.32419 92.5605 0.0843506 88.3211 0.0843506 83.1396V9.42092C0.0843506 4.23941 4.32419 0 9.50622 0H83.2323C88.4143 0 92.6542 4.23941 92.6542 9.42092V83.1396C92.6542 88.3211 88.4143 92.5605 83.2323 92.5605Z" fill="black"></path><path d="M71.2195 38.1548H21.5191C19.8703 38.1548 18.457 36.7417 18.457 35.093C18.457 33.4444 19.8703 32.0312 21.5191 32.0312H71.2195C72.8684 32.0312 74.2816 33.4444 74.2816 35.093C74.2816 36.7417 72.8684 38.1548 71.2195 38.1548Z" fill="white"></path><path d="M49.7847 57.232H21.5191C19.8703 57.232 18.457 55.8189 18.457 54.1702C18.457 52.5215 19.8703 51.1084 21.5191 51.1084H49.7847C51.4336 51.1084 52.8468 52.5215 52.8468 54.1702C53.0824 55.8189 51.6691 57.232 49.7847 57.232Z" fill="white"></path><path d="M209.721 178.997H135.995C130.813 178.997 126.573 174.758 126.573 169.576V95.8577C126.573 90.6762 130.813 86.4368 135.995 86.4368H209.721C214.903 86.4368 219.143 90.6762 219.143 95.8577V169.576C219.143 174.758 214.903 178.997 209.721 178.997Z" fill="black"></path><path d="M192.761 115.642L157.665 150.734C156.487 151.912 154.367 151.912 153.189 150.734C152.012 149.557 152.012 147.437 153.189 146.26L188.286 111.167C189.464 109.989 191.584 109.989 192.761 111.167C193.939 112.344 193.939 114.228 192.761 115.642Z" fill="white"></path><path d="M153.189 115.642L188.286 150.734C189.464 151.912 191.584 151.912 192.761 150.734C193.939 149.557 193.939 147.437 192.761 146.26L157.665 111.167C156.487 109.989 154.367 109.989 153.189 111.167C151.776 112.344 151.776 114.228 153.189 115.642Z" fill="white"></path><path d="M113.618 52.286C112.911 52.286 112.44 51.5795 112.44 51.1084C112.44 51.1084 112.44 50.6374 112.675 49.6953C112.911 48.9887 113.382 48.7532 114.089 48.7532C114.795 48.9887 115.031 49.4597 115.031 50.1663C114.795 50.6374 114.795 51.1084 114.795 51.1084C114.795 51.815 114.324 52.286 113.618 52.286Z" fill="black"></path><path d="M117.151 44.9849C116.915 44.9849 116.68 44.9849 116.444 44.7494C115.973 44.2783 115.973 43.5718 116.444 43.1007C116.915 42.3942 117.622 41.9231 118.329 41.4521C118.8 40.981 119.506 41.2166 119.978 41.6876C120.449 42.1586 120.213 42.8652 119.742 43.3363C119.271 43.8073 118.564 44.2783 118.093 44.7494C117.858 44.7494 117.387 44.9849 117.151 44.9849Z" fill="black"></path><path d="M167.558 54.8768C167.087 54.8768 166.616 54.6413 166.38 54.1702C166.145 53.4637 165.909 52.7571 165.438 52.0505C165.203 51.5795 165.438 50.8729 165.909 50.4019C166.38 50.1664 167.087 50.4019 167.558 50.8729C168.029 51.5795 168.265 52.2861 168.5 52.9926C168.736 53.6992 168.5 54.1702 167.794 54.4058C167.794 54.8768 167.794 54.8768 167.558 54.8768ZM162.376 47.1046C162.14 47.1046 161.669 47.1046 161.669 46.869C161.198 46.398 160.492 45.9269 160.02 45.4559C159.549 44.9849 159.314 44.2783 159.785 43.8072C160.256 43.3362 160.963 43.1007 161.434 43.5717C162.14 44.0428 162.611 44.7493 163.318 45.2204C163.789 45.6914 163.789 46.398 163.318 46.869C163.083 46.869 162.847 47.1046 162.376 47.1046ZM154.603 41.9231C154.367 41.9231 154.367 41.9231 154.132 41.9231C153.425 41.6875 152.719 41.452 152.012 41.2165C151.305 40.981 151.07 40.2744 151.305 39.8034C151.541 39.0968 152.247 38.8613 152.719 39.0968C153.425 39.3323 154.367 39.5678 155.074 40.0389C155.781 40.2744 156.016 40.981 155.781 41.6875C155.545 41.6875 155.074 41.9231 154.603 41.9231ZM124.924 40.0389C124.453 40.0389 123.982 39.8034 123.746 39.3323C123.511 38.6257 123.982 38.1547 124.453 37.9192C125.16 37.6836 125.866 37.4481 126.808 37.2126C127.515 36.9771 127.986 37.4481 128.222 38.1547C128.457 38.8613 127.986 39.3323 127.279 39.5678C126.573 39.8034 125.866 40.0389 125.16 40.2744C125.16 40.0389 125.16 40.0389 124.924 40.0389ZM145.652 39.3323C145.181 39.3323 144.71 39.0968 144.474 39.0968L143.297 38.8613C142.59 38.8613 142.119 38.1547 142.354 37.4481C142.354 36.7416 143.061 36.2705 143.768 36.506L144.945 36.7416C145.417 36.7416 145.652 36.7416 146.123 36.9771C146.83 36.9771 147.301 37.6836 147.065 38.3902C146.83 39.0968 146.359 39.3323 145.652 39.3323ZM134.11 38.6257C133.404 38.6257 132.933 38.1547 132.933 37.4481C132.933 36.7416 133.404 36.2705 134.11 36.2705C134.581 36.2705 135.288 36.2705 135.759 36.2705H136.466C137.172 36.2705 137.644 36.7416 137.644 37.4481C137.644 38.1547 137.172 38.6257 136.466 38.6257H135.759C135.053 38.6257 134.581 38.6257 134.11 38.6257Z" fill="black"></path><path d="M169.207 62.8846C168.5 62.8846 168.029 62.4135 168.029 61.707C168.029 61.2359 168.029 61.0004 168.029 60.5294C168.029 59.8228 168.5 59.3517 168.971 59.1162C169.678 59.1162 170.149 59.5873 170.384 60.0583C170.384 60.5293 170.384 60.7649 170.384 61.2359C170.384 62.178 169.913 62.6491 169.207 62.8846C169.207 62.8846 169.442 62.8846 169.207 62.8846Z" fill="black"></path><path d="M161.434 58.8809L168.264 72.7767L176.98 59.823L161.434 58.8809Z" fill="black"></path></svg> 