<?xml version="1.0" encoding="UTF-8"?> <svg xmlns="http://www.w3.org/2000/svg" width="228" height="185" viewBox="0 0 228 185" fill="none"><path d="M84.081 92.9052H10.355C5.17294 92.9052 0.933105 88.6658 0.933105 83.4843V9.76564C0.933105 4.58414 5.17294 0.344727 10.355 0.344727H84.081C89.263 0.344727 93.5029 4.58414 93.5029 9.76564V83.4843C93.5029 88.6658 89.263 92.9052 84.081 92.9052Z" fill="black"></path><path d="M72.0682 27.6653H22.3679C20.719 27.6653 19.3058 26.2522 19.3058 24.6035C19.3058 22.9549 20.719 21.5417 22.3679 21.5417H72.0682C73.717 21.5417 75.1303 22.9549 75.1303 24.6035C75.3659 26.2522 73.9525 27.6653 72.0682 27.6653Z" fill="white"></path><path d="M72.0682 46.7428H22.3679C20.719 46.7428 19.3058 45.3296 19.3058 43.6809C19.3058 42.0323 20.719 40.6191 22.3679 40.6191H72.0682C73.717 40.6191 75.1303 42.0323 75.1303 43.6809C75.3659 45.3296 73.9525 46.7428 72.0682 46.7428Z" fill="white"></path><path d="M72.0682 65.8201H22.3679C20.719 65.8201 19.3058 64.407 19.3058 62.7583C19.3058 61.1096 20.719 59.6965 22.3679 59.6965H72.0682C73.717 59.6965 75.1303 61.1096 75.1303 62.7583C75.3659 64.407 73.9525 65.8201 72.0682 65.8201Z" fill="white"></path><path d="M218.578 184.995H144.852C139.67 184.995 135.43 180.755 135.43 175.574V101.855C135.43 96.6737 139.67 92.4343 144.852 92.4343H218.578C223.76 92.4343 228 96.6737 228 101.855V175.574C228 180.755 223.76 184.995 218.578 184.995Z" fill="black"></path><path d="M198.321 93.1409L166.051 125.408C164.873 126.585 162.989 126.585 161.811 125.408C160.634 124.23 160.634 122.346 161.811 121.168L194.081 88.9015C195.259 87.7239 197.143 87.7239 198.321 88.9015C199.499 90.0791 199.499 91.9633 198.321 93.1409Z" fill="white"></path><path d="M161.811 93.1409L194.081 125.408C195.259 126.585 197.143 126.585 198.321 125.408C199.499 124.23 199.499 122.346 198.321 121.168L166.051 88.9015C164.873 87.7239 162.989 87.7239 161.811 88.9015C160.634 90.0791 160.634 91.9633 161.811 93.1409Z" fill="white"></path><path d="M151.683 154.848C150.27 154.848 149.327 153.906 149.327 152.492V111.982C149.327 110.569 150.27 109.627 151.683 109.627C153.096 109.627 154.038 110.569 154.038 111.982V152.492C154.038 153.906 153.096 154.848 151.683 154.848Z" fill="#999899"></path><path d="M161.34 119.99L159.691 121.403L151.683 112.925L143.91 121.403L142.025 119.99L151.683 109.627L161.34 119.99Z" fill="#999899"></path><path d="M211.512 135.299C210.098 135.299 209.156 134.357 209.156 132.944V90.5501C209.156 89.1369 210.098 88.1948 211.512 88.1948C212.925 88.1948 213.867 89.1369 213.867 90.5501V132.944C213.867 134.357 212.689 135.299 211.512 135.299Z" fill="#999899"></path><path d="M201.854 125.172L203.503 123.523L211.512 132.238L219.285 123.523L221.169 125.172L211.512 135.535L201.854 125.172Z" fill="#999899"></path><path d="M115.644 55.6925C114.938 55.6925 114.467 54.9859 114.467 54.5149C114.467 54.5149 114.467 54.0438 114.702 53.1017C114.938 52.3952 115.409 52.1597 116.115 52.1597C116.822 52.3952 117.058 52.8662 117.058 53.5728C116.822 54.0439 116.822 54.5149 116.822 54.5149C116.822 55.2215 116.351 55.6925 115.644 55.6925Z" fill="black"></path><path d="M119.178 48.3915C118.942 48.3915 118.707 48.3915 118.471 48.1559C118 47.6849 118 46.9783 118.471 46.5073C118.942 45.8007 119.649 45.3296 120.355 44.8586C120.826 44.3875 121.533 44.6231 122.004 45.0941C122.475 45.5652 122.24 46.2718 121.769 46.7428C121.298 47.2139 120.591 47.6849 120.12 48.1559C119.884 48.3915 119.413 48.3915 119.178 48.3915Z" fill="black"></path><path d="M169.584 58.2833C169.113 58.2833 168.642 58.0478 168.407 57.5767C168.171 56.8701 167.936 56.1636 167.465 55.457C167.229 54.986 167.465 54.2794 167.936 53.8084C168.407 53.5729 169.113 53.8084 169.584 54.2794C170.056 54.986 170.291 55.6925 170.527 56.3991C170.762 57.1057 170.527 57.5767 169.82 57.8123C169.82 58.2833 169.82 58.2833 169.584 58.2833ZM164.403 50.511C164.167 50.511 163.696 50.5111 163.696 50.2755C163.225 49.8045 162.518 49.3334 162.047 48.8624C161.576 48.3913 161.34 47.6848 161.811 47.2137C162.283 46.7427 162.989 46.5071 163.46 46.9782C164.167 47.4492 164.638 48.1558 165.345 48.6269C165.816 49.0979 165.816 49.8045 165.345 50.2755C165.109 50.5111 164.874 50.511 164.403 50.511ZM156.629 45.3295C156.394 45.3295 156.394 45.3295 156.158 45.3295C155.452 45.094 154.745 44.8585 154.038 44.6229C153.332 44.3874 153.096 43.6809 153.332 43.2099C153.567 42.5033 154.274 42.2677 154.745 42.5032C155.452 42.7388 156.394 42.9743 157.101 43.4453C157.807 43.6808 158.043 44.3874 157.807 45.094C157.572 45.094 157.101 45.3295 156.629 45.3295ZM126.951 43.4453C126.479 43.4453 126.008 43.2098 125.773 42.7388C125.537 42.0322 126.008 41.5611 126.479 41.3256C127.186 41.0901 127.893 40.8546 128.835 40.6191C129.542 40.3836 130.013 40.8546 130.248 41.5612C130.484 42.2677 130.013 42.7388 129.306 42.9743C128.599 43.2098 127.893 43.4453 127.186 43.6809C127.186 43.4453 127.186 43.4453 126.951 43.4453ZM147.679 42.9743C147.208 42.9743 146.736 42.7388 146.501 42.7388L145.323 42.5032C144.617 42.5032 144.145 41.7967 144.381 41.0901C144.381 40.3835 145.088 39.9125 145.794 40.148L146.972 40.3835C147.443 40.3835 147.679 40.3836 148.15 40.6191C148.856 40.6191 149.328 41.3257 149.092 42.0322C148.856 42.5033 148.385 42.9743 147.679 42.9743ZM136.137 42.0322C135.43 42.0322 134.959 41.5612 134.959 40.8546C134.959 40.148 135.43 39.677 136.137 39.677C136.608 39.677 137.315 39.677 137.786 39.677H138.492C139.199 39.677 139.67 40.148 139.67 40.8546C139.67 41.5612 139.199 42.0322 138.492 42.0322H137.786C137.315 42.0322 136.608 42.0322 136.137 42.0322Z" fill="black"></path><path d="M171.233 66.291C170.527 66.291 170.056 65.82 170.056 65.1134C170.056 64.6424 170.056 64.4069 170.056 63.9358C170.056 63.2293 170.527 62.7582 170.998 62.5227C171.704 62.5227 172.176 62.9937 172.411 63.4648C172.411 63.9358 172.411 64.1713 172.411 64.6424C172.647 65.5844 171.94 66.291 171.233 66.291C171.233 66.291 171.469 66.291 171.233 66.291Z" fill="black"></path><path d="M163.46 62.2871L170.291 76.183L179.006 63.2293L163.46 62.2871Z" fill="black"></path></svg> 