<?xml version="1.0" encoding="UTF-8"?> <svg xmlns="http://www.w3.org/2000/svg" width="375" height="343" viewBox="0 0 375 343" fill="none"><path d="M126.826 64.8629C126.452 64.8629 125.704 64.8629 125.33 64.4886L112.614 54.3805C111.866 53.6318 111.492 52.1343 112.24 51.3855C112.988 50.6368 114.484 50.2624 115.232 51.0112L127.948 61.1192C128.696 61.8679 129.07 63.3654 128.322 64.1142C127.948 64.4886 127.2 64.8629 126.826 64.8629Z" fill="#040000"></path><path d="M114.109 64.8636C113.361 64.8636 112.987 64.4892 112.613 64.1148C111.865 63.3661 111.865 61.8686 112.987 61.1199L125.703 51.0118C126.451 50.2631 127.947 50.2631 128.695 51.3862C129.443 52.1349 129.443 53.6324 128.321 54.3812L115.605 64.4892C114.857 64.8636 114.483 64.8636 114.109 64.8636Z" fill="#040000"></path><path d="M325.049 310.078C325.049 298.472 325.049 287.241 325.049 276.384C325.049 267.773 329.537 262.532 336.644 262.532C343.75 262.532 348.238 267.773 348.238 276.01C348.238 286.866 348.238 297.349 348.238 308.58C351.978 307.831 354.222 305.211 356.84 303.713C362.45 299.969 368.06 301.467 372.174 307.083C376.288 313.072 375.54 318.688 369.93 322.806C361.328 328.796 352.726 334.786 344.124 340.776C340.01 343.397 336.27 343.397 332.155 341.15C322.805 335.535 313.829 330.294 304.479 324.678C298.121 320.934 296.625 315.319 299.991 308.954C303.731 302.216 309.341 300.718 315.699 304.088C318.317 306.708 321.309 308.206 325.049 310.078Z" fill="black"></path><path d="M238.279 310.078C238.279 298.098 238.279 286.866 238.279 276.01C238.279 267.773 243.141 262.532 250.247 262.532C256.979 262.532 261.842 267.773 261.842 275.635C261.842 293.605 261.842 311.201 261.842 329.17C261.842 339.653 252.491 344.894 243.515 340.027C234.913 335.16 225.937 330.294 217.335 325.052C211.351 321.683 209.855 315.693 213.595 309.703C217.335 303.339 222.945 301.467 228.929 304.836C231.547 306.334 234.539 308.206 238.279 310.078Z" fill="black"></path><path d="M147.021 296.974C147.021 289.861 147.021 282.374 147.021 275.261C147.021 267.773 151.884 262.532 158.242 262.532C164.974 262.532 170.21 267.773 170.21 275.261C170.21 290.236 170.21 304.836 170.21 319.811C170.21 327.299 165.348 332.165 158.99 332.54C152.258 332.54 147.395 327.673 147.021 319.811C147.021 312.324 147.021 304.462 147.021 296.974Z" fill="black"></path><path d="M104.012 284.246C104.012 287.241 104.012 290.61 104.012 293.605C103.638 299.969 98.4017 304.836 92.4177 304.836C86.4336 304.836 81.1975 299.969 81.1975 293.98C80.8235 287.241 80.8235 280.128 81.1975 273.389C81.5715 267.399 86.8076 262.532 92.7917 262.532C98.7758 262.532 103.638 267.399 104.386 273.389C104.012 277.133 104.012 280.502 104.012 284.246Z" fill="black"></path><path d="M23.2258 291.359C30.6619 291.359 36.69 285.325 36.69 277.881C36.69 270.438 30.6619 264.404 23.2258 264.404C15.7898 264.404 9.76172 270.438 9.76172 277.881C9.76172 285.325 15.7898 291.359 23.2258 291.359Z" fill="black"></path><path d="M25.8435 216.11C24.7215 216.11 23.5994 215.361 23.5994 213.864C23.5994 210.12 23.5994 202.258 23.5994 197.017C23.5994 191.776 23.2254 191.402 22.1034 191.402H21.7294C21.7294 191.402 21.7294 191.402 21.3554 191.402C20.2334 191.402 19.4854 190.278 19.4854 189.53C19.4854 188.407 20.2334 187.283 21.3554 187.283C22.1034 187.283 22.4774 187.283 23.2254 187.283C25.8434 187.283 27.7135 188.781 27.7135 191.402C27.7135 191.776 27.7135 192.525 27.7135 193.273C27.7135 196.268 27.7135 201.51 27.7135 207.125C27.7135 209.371 27.7135 211.992 27.7135 214.238C28.0875 215.361 26.9655 216.11 25.8435 216.11Z" fill="black"></path><path d="M84.5623 215.736C83.0663 215.736 82.3184 214.612 82.3184 213.489C82.3184 212.741 82.6923 211.618 83.4403 210.869C86.0583 207.874 90.5463 203.381 93.9124 199.263C95.4084 197.391 96.1564 195.894 96.1564 194.396C96.1564 192.15 94.2864 190.653 92.0423 190.653C90.5463 190.653 88.6764 191.401 87.1803 193.648C86.8063 194.396 86.0583 194.771 85.3103 194.771C84.1883 194.771 83.0663 194.022 83.0663 192.899C83.0663 191.401 86.0583 186.909 92.0423 186.909C96.5304 186.909 100.644 189.53 100.644 194.396C100.644 196.643 99.8965 199.263 97.2785 201.884C94.2864 205.628 90.5464 208.997 87.5544 212.366C90.9204 212.366 95.0344 211.992 98.4004 211.992C99.8964 211.992 100.644 213.115 100.644 213.864C100.644 214.987 99.8964 216.11 98.4004 216.11H84.5623V215.736Z" fill="black"></path><path d="M169.462 197.766C171.706 197.766 172.828 196.268 172.828 194.022C172.828 192.15 171.332 190.653 168.714 190.653C166.844 190.653 165.722 191.776 164.6 192.525C164.226 192.899 163.852 193.273 163.104 193.273C161.982 193.273 160.86 192.15 160.86 191.027C160.86 188.781 165.348 186.535 168.714 186.535C173.576 186.535 176.568 189.53 176.568 194.022C176.568 196.643 175.447 198.515 173.576 199.638C178.065 201.884 178.064 206.376 178.064 207.125C178.064 212.366 173.95 216.484 167.966 216.484C162.356 216.484 158.616 213.115 158.616 211.243C158.616 210.12 159.738 208.997 160.86 208.997C161.234 208.997 161.982 209.371 162.356 209.746C164.226 211.618 165.348 212.366 167.966 212.366C170.584 212.366 173.576 210.494 173.576 207.125C173.576 203.381 171.332 201.884 168.34 201.884H167.966C167.592 201.884 167.592 201.884 167.218 201.884C166.096 201.884 165.348 200.761 165.348 200.012C165.348 198.889 166.096 198.14 167.218 198.14H169.462V197.766Z" fill="black"></path><path d="M253.239 213.864C253.239 215.361 252.117 215.736 251.369 215.736C250.621 215.736 249.125 214.987 249.125 213.864C249.125 212.366 249.125 210.869 249.125 209.371C245.385 209.371 241.271 209.371 240.897 209.371C238.279 209.371 237.157 208.248 237.157 206.376C237.157 205.628 237.531 204.505 238.279 203.381C240.523 200.012 246.881 191.402 249.499 187.283C249.873 186.535 250.621 186.535 250.995 186.535C252.117 186.535 253.239 187.658 253.239 188.781C253.239 189.155 253.239 189.904 252.865 190.278C241.645 204.879 241.645 204.879 241.645 205.253C241.645 205.628 242.393 205.628 243.141 205.628C244.263 205.628 246.881 205.628 249.125 205.628C249.125 204.13 249.125 202.633 249.125 201.51C249.125 200.761 249.125 200.012 249.125 199.638C249.125 198.14 250.247 197.391 251.369 197.391C252.491 197.391 253.239 198.14 253.239 199.638C253.239 201.51 253.239 203.007 253.239 205.628C254.735 205.628 255.857 205.628 255.857 205.628C256.979 205.628 257.728 206.376 257.728 207.5C257.728 208.623 256.979 209.371 255.483 209.371C255.109 209.371 253.987 209.371 252.865 209.371C253.239 210.494 253.239 211.992 253.239 213.864Z" fill="black"></path><path d="M334.398 216.11C331.032 216.11 326.17 214.238 326.17 211.618C326.17 210.494 326.918 209.371 328.04 209.371C328.414 209.371 328.788 209.746 329.536 210.12C331.032 211.618 332.902 211.992 334.772 211.992C338.886 211.992 340.756 208.997 340.756 206.002C340.756 204.505 340.008 200.761 335.52 200.761C334.398 200.761 333.276 201.135 332.528 201.135C332.154 201.51 331.78 201.51 331.032 201.51C330.658 201.51 330.658 201.51 330.284 201.51C328.414 201.51 327.666 200.761 327.666 198.889C327.666 198.515 328.414 192.525 329.162 189.155C329.536 186.909 330.284 186.16 332.902 186.16C332.902 186.16 332.902 186.16 333.276 186.16C334.398 186.16 335.146 186.16 341.13 186.16C342.626 186.16 343 187.283 343 188.407C343 189.53 342.252 190.278 341.13 190.278C340.008 190.278 334.772 190.278 333.65 190.278C332.902 190.278 332.528 190.653 332.528 191.401C332.154 192.899 331.78 195.894 331.78 196.643V197.017C331.78 197.391 331.78 197.391 332.154 197.391C332.528 197.391 332.528 197.391 332.902 197.017C333.65 197.017 334.772 196.643 335.894 196.643C342.626 196.643 345.244 201.135 345.244 205.628C344.87 211.618 340.756 216.11 334.398 216.11Z" fill="black"></path><path d="M10.1348 153.216H338.138" stroke="#999899" stroke-width="2" stroke-miterlimit="10"></path><path d="M332.528 171.56L364.319 153.216L332.528 134.871V171.56Z" fill="#999899"></path><path d="M82.6942 104.547H2.65714C1.53512 104.547 0.787109 103.798 0.787109 102.675V3.09228V2.71791V2.34354C0.787109 1.22042 1.53512 0.47168 2.65714 0.47168H68.4821C69.2301 0.47168 69.6041 0.846052 69.9781 1.22042L84.5643 22.934C84.9383 23.3084 84.9383 23.6828 84.9383 24.0571V103.05C84.5643 103.798 83.8163 104.547 82.6942 104.547ZM4.52716 100.803H80.8242V24.4315L67.3601 3.84103H4.52716V100.803Z" fill="#E17A39"></path><path d="M82.6943 29.6728H62.872C62.124 29.6728 61.75 29.2984 61.376 28.924C61.002 28.5497 61.002 27.8009 61.002 27.4265L66.238 1.59487C66.612 0.471757 67.3601 -0.276987 68.4821 0.0973853C69.6041 0.471757 70.3521 1.2205 69.9781 2.34362L65.116 25.5547H82.6943C83.8163 25.5547 84.5643 26.3034 84.5643 27.4265C84.5643 28.924 83.8163 29.6728 82.6943 29.6728Z" fill="#E17A39"></path><path d="M82.6945 78.7155H2.65723V102.675H82.6945V78.7155Z" fill="#EB7E36"></path><path d="M30.3346 93.3162H26.9686V97.4343H24.7246V85.4543H30.3346C32.9526 85.4543 34.4486 87.3262 34.4486 89.1981C34.4486 91.8187 32.5786 93.3162 30.3346 93.3162ZM29.9607 87.7006H26.9686V91.8187H29.9607C31.0827 91.8187 32.2046 91.0699 32.2046 89.5724C32.2046 88.075 31.0827 87.7006 29.9607 87.7006Z" fill="white"></path><path d="M44.9215 97.8086L40.0594 90.3212L39.3114 88.4493L39.6853 91.0699V98.183H37.4414V86.2031H39.6853L44.5474 93.6905L45.2954 95.5624L44.9215 92.9418V85.8287H47.1654V97.8086H44.9215Z" fill="white"></path><path d="M60.6303 97.8086L60.2563 96.6855V95.9368C59.5082 97.8086 58.0123 98.5574 56.1423 98.5574C52.4022 98.5574 50.5322 95.5624 50.5322 92.193C50.5322 89.9468 51.6541 85.4543 56.5162 85.4543C58.0122 85.4543 59.5083 85.8287 60.6303 86.9518C61.3783 87.7006 61.7524 88.4493 61.7524 89.5724H59.5083C59.1343 88.075 58.0122 87.3262 56.5162 87.3262C53.8982 87.3262 52.7762 89.1981 52.7762 91.8187C52.7762 95.5624 55.0202 96.3111 56.5162 96.3111C57.6382 96.3111 58.3863 95.9368 59.1343 95.188C59.8823 94.4393 59.8823 94.0649 59.8823 92.9418H56.8902V91.0699H62.1263V97.4343H60.6303V97.8086Z" fill="white"></path><path d="M26.2202 36.0371H15.748V46.5195H26.2202V36.0371Z" fill="#E17A39"></path><path d="M36.6918 45.3962H26.2197V55.8787H36.6918V45.3962Z" fill="#E17A39"></path><path d="M26.2202 53.2581H15.748V63.7405H26.2202V53.2581Z" fill="#E17A39"></path><path d="M47.1636 36.7859H36.6914V47.2683H47.1636V36.7859Z" fill="#E17A39"></path><path d="M47.1636 54.3813H36.6914V64.8638H47.1636V54.3813Z" fill="#E17A39"></path><path d="M58.0106 45.3962H47.5381V55.8787H58.0106V45.3962Z" fill="#E17A39"></path><path d="M68.4829 36.7859H58.0107V47.2683H68.4829V36.7859Z" fill="#E17A39"></path><path d="M68.4829 54.3813H58.0107V64.8638H68.4829V54.3813Z" fill="#E17A39"></path><path d="M240.898 109.413H158.242C157.12 109.413 156.372 108.665 156.372 107.542V4.21484V3.84047V3.4661C156.372 2.34298 157.12 1.59424 158.242 1.59424H225.937C226.685 1.59424 227.059 1.96861 227.433 2.34298L242.394 24.8053C242.768 25.1797 242.768 25.5541 242.768 25.9284V107.542C242.768 108.29 242.02 109.413 240.898 109.413ZM160.112 105.295H239.028V26.3028L224.815 5.33796H160.112V105.295Z" fill="#32ABD4"></path><path d="M240.897 31.9191H220.327C219.579 31.9191 219.205 31.5447 218.831 31.1703C218.457 30.796 218.457 30.0472 218.457 29.6729L224.067 3.09243C224.441 1.96932 225.189 1.22057 226.311 1.59494C227.433 1.96932 228.181 2.71806 227.807 3.84118L222.945 27.801H240.897C242.019 27.801 242.767 28.5497 242.767 29.6729C242.767 30.796 242.019 31.9191 240.897 31.9191Z" fill="#32ABD4"></path><path d="M240.897 82.4592H158.242V107.168H240.897V82.4592Z" fill="#29B6E3"></path><path d="M186.295 102.301C182.181 102.301 180.311 99.306 180.311 95.9367C180.311 92.5673 181.807 89.198 186.295 89.198C189.661 89.198 191.531 91.4442 191.531 93.6905H189.287C188.913 91.4442 186.669 91.4442 186.669 91.4442C184.799 91.4442 182.929 92.9417 182.929 95.9367C182.929 98.9317 184.425 100.429 186.295 100.429C187.043 100.429 187.791 100.055 188.539 99.6804C188.913 99.306 189.287 98.5573 189.287 98.1829H191.531C191.531 100.055 190.035 102.301 186.295 102.301Z" fill="white"></path><path d="M199.759 102.301C197.515 102.301 194.523 101.552 194.523 98.183H196.767C196.767 100.055 198.637 100.429 199.759 100.429C200.507 100.429 202.751 100.429 202.751 98.5574C202.751 97.8086 202.377 97.4343 201.255 97.0599L198.263 96.3112C196.767 95.9368 194.897 95.188 194.897 92.5674C194.897 89.9468 197.515 88.8237 199.759 88.8237C200.881 88.8237 202.377 88.8237 203.499 89.9468C204.247 90.6956 204.621 91.07 204.621 92.5674H202.377C202.377 90.6956 200.133 90.6956 199.759 90.6956C199.385 90.6956 197.141 90.6956 197.141 92.1931C197.141 92.9418 197.515 93.3162 199.011 93.6906L202.377 94.4393C203.499 94.8137 205.369 95.188 205.369 97.8086C204.995 100.804 203.125 102.301 199.759 102.301Z" fill="white"></path><path d="M212.476 102.301C210.232 102.301 207.24 101.552 207.24 98.183H209.484C209.484 100.055 211.354 100.429 212.476 100.429C213.224 100.429 215.468 100.429 215.468 98.5574C215.468 97.8086 215.094 97.4343 213.972 97.0599L210.98 96.3112C209.484 95.9368 207.614 95.188 207.614 92.5674C207.614 89.9468 210.232 88.8237 212.476 88.8237C213.598 88.8237 215.094 88.8237 216.216 89.9468C216.964 90.6956 217.338 91.07 217.338 92.5674H215.094C215.094 90.6956 212.85 90.6956 212.476 90.6956C212.102 90.6956 209.858 90.6956 209.858 92.1931C209.858 92.9418 210.232 93.3162 211.728 93.6906L215.094 94.4393C216.216 94.8137 218.086 95.188 218.086 97.8086C217.712 100.804 215.842 102.301 212.476 102.301Z" fill="white"></path><path d="M174.701 52.5095C176.197 52.5095 177.693 51.7608 177.319 49.5145L176.571 43.5246C176.571 43.1502 175.823 38.6577 182.181 36.7859L184.051 39.4065C182.555 40.1552 180.685 41.6527 180.685 43.5246C180.685 43.899 180.685 44.2733 180.685 44.6477L181.433 49.8889C181.433 50.2633 181.433 50.2633 181.433 50.6377C181.433 52.8839 179.937 53.6326 178.815 54.3814C179.563 54.7558 181.433 55.8789 181.433 58.1251C181.433 58.4995 181.433 58.8738 181.433 58.8738L180.685 64.1151C180.685 64.4894 180.685 64.8638 180.685 65.2382C180.685 67.4844 182.929 68.6075 184.051 69.3563L182.181 71.9769C176.571 70.4794 176.197 66.7357 176.571 65.2382L177.319 59.2482C177.693 57.3764 175.823 56.6276 174.701 56.2532V52.5095Z" fill="#32ABD4"></path><path d="M182.18 72.3512C175.448 70.4794 175.822 65.9869 175.822 65.2382L176.57 59.2482C176.57 58.4995 176.57 58.1251 176.196 57.7507C175.822 57.002 174.7 57.002 174.326 57.002H173.952V52.1351H174.326C174.7 52.1351 175.822 52.1351 176.196 51.3864C176.57 51.012 176.57 50.6377 176.57 49.8889L175.822 43.899C175.822 43.5246 175.074 38.6577 181.806 36.7859H182.18L184.424 40.1552L184.05 40.5296C182.554 41.2784 181.058 42.4015 181.058 44.2733C181.058 44.6477 181.058 45.0221 181.058 45.0221L181.806 50.2633C181.806 50.6377 181.806 51.012 181.806 51.012C181.806 52.8839 180.684 54.007 179.936 54.7558C180.684 55.5045 181.806 56.6276 181.806 58.4995C181.806 58.8738 181.806 59.2482 181.806 59.2482L181.058 64.4894C181.058 64.8638 181.058 64.8638 181.058 65.2382C181.058 67.11 182.928 68.2331 184.05 68.6075L184.798 68.9819L182.18 72.3512ZM175.074 55.8789C176.196 55.8789 176.944 56.6276 177.318 57.002C177.692 57.7507 178.066 58.4995 177.692 59.2482L176.944 65.2382C176.944 65.9869 176.57 69.3563 181.806 71.2281L182.928 69.3563C181.806 68.6075 179.936 67.4844 179.936 65.2382C179.936 64.8638 179.936 64.4894 179.936 64.1151L180.684 58.8738C180.684 58.8738 180.684 58.4995 180.684 58.1251C180.684 56.2532 179.562 55.5045 178.44 54.7558L177.692 54.3814L178.44 54.007C179.562 53.2583 180.684 52.5095 180.684 51.012C180.684 50.6377 180.684 50.6377 180.684 50.2633L179.936 45.0221C179.936 44.6477 179.936 44.2733 179.936 43.899C179.936 41.6527 181.806 40.5296 182.928 39.7809L181.806 37.909C176.57 39.7809 176.57 43.1502 176.944 43.899L177.692 49.8889C177.692 50.6377 177.692 51.3864 177.318 52.1351C176.57 52.8839 175.822 53.2583 175.074 53.2583V55.8789Z" fill="#32ABD4"></path><path d="M224.444 56.2532C223.322 56.2532 221.452 57.002 221.826 59.2482L222.574 65.2382C222.574 65.6125 223.322 70.105 216.964 71.9769L215.094 69.3563C216.59 68.6075 218.46 67.4844 218.46 65.2382C218.46 64.8638 218.46 64.4894 218.46 64.1151L217.712 58.8738C217.712 58.4995 217.712 58.4995 217.712 58.1251C217.712 55.8789 219.208 55.1301 220.33 54.3814C219.208 54.007 217.712 52.8839 217.712 50.6377C217.712 50.2633 217.712 50.2633 217.712 49.8889L218.46 44.6477C218.46 44.2733 218.46 43.899 218.46 43.5246C218.46 41.2784 216.216 40.1552 215.094 39.4065L216.964 36.7859C222.574 38.2834 222.948 42.0271 222.574 43.5246L221.826 49.5145C221.452 51.3864 223.322 52.1351 224.444 52.5095V56.2532Z" fill="#32ABD4"></path><path d="M216.963 72.3513L214.719 68.982L215.093 68.6076C216.589 67.8589 218.085 66.7358 218.085 64.8639C218.085 64.4895 218.085 64.1152 218.085 64.1152L217.337 58.8739C217.337 58.4996 217.337 58.4996 217.337 58.1252C217.337 56.2533 218.459 55.1302 219.207 54.3815C218.459 53.6327 217.337 52.5096 217.337 50.6378C217.337 50.2634 217.337 49.889 217.337 49.889L218.085 44.6478C218.085 44.2734 218.085 44.2734 218.085 43.8991C218.085 42.0272 216.215 40.9041 215.093 40.1553L214.719 39.781L216.963 36.4116H217.337C223.695 38.2835 223.695 42.7759 223.321 43.5247L222.573 49.5146C222.573 50.2634 222.573 50.6378 222.947 51.0121C223.321 51.7609 224.443 51.7609 224.817 51.7609H225.191V56.6277H224.817C224.443 56.6277 223.321 57.0021 222.947 57.3765C222.573 57.7508 222.573 58.1252 222.573 58.8739L223.321 64.8639C223.321 65.6126 224.069 70.1051 216.963 72.3513ZM216.215 69.3564L217.337 71.2282C222.573 69.3564 222.573 65.987 222.199 65.2383L221.451 59.2483C221.451 58.4996 221.451 57.7508 221.825 57.0021C222.573 56.2533 223.321 55.879 224.069 55.879V52.884C223.321 52.884 222.573 52.5096 221.825 51.7609C221.451 51.0121 221.077 50.2634 221.451 49.5146L222.199 43.5247C222.199 42.7759 222.573 39.4066 217.337 37.5347L216.215 39.4066C217.337 40.1553 219.207 41.2785 219.207 43.5247C219.207 43.8991 219.207 44.2734 219.207 44.6478L218.459 49.889C218.459 49.889 218.459 50.2634 218.459 50.6378C218.459 52.5096 219.581 53.2584 220.703 54.0071L221.451 54.3815L220.703 54.7559C219.955 55.1302 218.459 55.879 218.459 58.1252C218.459 58.4996 218.459 58.4996 218.459 58.8739L219.207 64.1152C219.207 64.4895 219.207 64.8639 219.207 65.2383C219.207 67.1101 217.337 68.6076 216.215 69.3564Z" fill="#32ABD4"></path><path d="M186.293 66.3613V61.1201H191.529V66.3613H186.293Z" fill="#32ABD4"></path><path d="M196.391 66.3613V61.1201H201.627V66.3613H196.391Z" fill="#32ABD4"></path><path d="M206.49 66.3613V61.1201H211.726V66.3613H206.49Z" fill="#32ABD4"></path></svg> 