<?xml version="1.0" encoding="UTF-8"?> <svg xmlns="http://www.w3.org/2000/svg" width="610" height="328" viewBox="0 0 610 328" fill="none"><path d="M578.017 322.85H342.786C328.384 322.85 316.383 310.848 316.383 296.446V158.665C316.383 144.263 328.384 132.261 342.786 132.261H578.017C592.419 132.261 604.42 144.263 604.42 158.665V296.446C604.42 310.848 592.419 322.85 578.017 322.85Z" fill="#C0B38D"></path><path d="M578.017 327.651H342.786C325.504 327.651 311.582 313.728 311.582 296.446V158.665C311.582 141.382 325.504 127.46 342.786 127.46H578.017C595.299 127.46 609.221 141.382 609.221 158.665V296.446C609.221 313.728 595.299 327.651 578.017 327.651ZM342.786 137.061C330.785 137.061 321.183 146.663 321.183 158.665V296.446C321.183 308.448 330.785 318.049 342.786 318.049H578.017C590.018 318.049 599.619 308.448 599.619 296.446V158.665C599.619 146.663 590.018 137.061 578.017 137.061H342.786Z" fill="#040000"></path><path d="M369.186 224.435C368.706 224.435 367.746 224.435 367.746 222.994C367.746 221.554 368.706 221.554 369.186 221.554H407.591C408.071 221.554 409.032 221.554 409.032 222.994C409.032 224.435 408.071 224.435 407.591 224.435H391.269C391.269 230.676 390.309 236.917 385.989 241.717C382.148 246.038 376.867 247.478 375.907 247.478C374.947 247.478 374.467 246.518 374.467 246.038C374.467 245.078 374.467 245.078 376.387 244.598C386.949 240.277 387.909 231.636 387.909 224.435H369.186V224.435ZM401.831 209.073C402.311 209.073 403.271 209.072 403.271 210.513C403.271 211.953 402.311 211.953 401.831 211.953H374.467C373.987 211.953 373.027 211.953 373.027 210.513C373.027 209.072 373.987 209.073 374.467 209.073H401.831Z" fill="#040000"></path><path d="M375.91 248.919C374.47 248.919 373.51 247.479 373.51 246.038C373.51 244.598 374.47 244.118 375.91 243.638C385.511 239.797 386.472 232.596 386.952 225.875H369.189C367.269 225.875 366.789 224.435 366.789 223.475C366.789 222.514 367.269 221.074 369.189 221.074H407.594C409.515 221.074 409.995 222.514 409.995 223.475C409.995 224.435 409.515 225.875 407.594 225.875H392.232C392.232 231.636 390.792 237.877 386.472 242.678C382.631 246.998 376.87 248.919 375.91 248.919ZM375.43 246.038C375.91 246.518 375.91 246.518 375.43 246.038C376.39 246.038 381.191 244.598 384.551 240.757C388.872 236.437 389.352 230.196 389.832 224.435C389.832 223.955 390.312 223.475 391.272 223.475H407.594V222.994H369.189H387.912C388.392 222.994 388.392 222.995 388.872 223.475C389.352 223.955 389.352 223.955 389.352 224.435C389.352 230.676 388.872 240.757 376.87 245.558C376.39 246.038 375.91 246.038 375.43 246.038ZM401.834 213.393H374.47C372.55 213.393 372.07 211.953 372.07 210.992C372.07 209.552 373.03 208.592 374.47 208.592H401.834C403.754 208.592 404.234 210.032 404.234 210.992C404.234 211.953 403.754 213.393 401.834 213.393ZM374.47 210.512L401.834 210.992H374.47V210.512Z" fill="#040000"></path><path d="M434.001 208.592C433.521 206.672 435.441 206.672 435.441 206.672C436.401 206.672 436.401 207.152 436.881 208.112L438.321 215.793L451.763 213.873C452.243 213.873 453.683 213.873 453.683 215.313C453.683 216.273 453.203 216.273 452.723 216.753L439.281 218.674L441.202 228.275L457.524 225.875C458.964 225.875 458.964 227.315 458.964 227.315C458.964 228.275 458.004 228.755 458.004 228.755L441.682 231.156L444.562 246.518C445.042 248.438 443.122 248.438 443.122 248.438C442.162 248.438 441.682 247.478 441.682 246.998L438.801 231.636L420.079 234.516C418.639 234.996 418.639 233.076 418.639 233.076C418.639 232.116 419.119 232.116 419.599 231.636L438.321 228.755L436.401 219.154L422.479 221.554C421.039 221.554 420.559 220.594 420.559 220.114C420.559 219.154 421.039 218.674 421.999 218.674L435.921 216.753L434.001 208.592Z" fill="#040000"></path><path d="M442.16 249.398C440.72 249.398 439.76 248.438 439.76 246.998L437.36 233.076L419.597 235.956C418.637 235.956 418.157 235.956 417.677 235.476C417.197 234.996 416.717 234.036 416.717 233.076C416.717 232.596 416.717 231.156 418.637 230.676L435.919 227.795L434.479 220.594L421.517 222.514C420.557 222.514 419.597 222.514 419.117 222.034C418.637 221.554 418.157 220.594 418.157 220.114C418.157 218.674 419.117 217.714 420.557 217.714L433.519 215.793L432.079 209.072C432.079 208.112 432.079 207.152 432.559 206.672C433.519 205.712 434.479 205.712 434.959 205.712C435.919 205.712 436.879 206.192 437.36 208.112L438.8 214.833L451.281 212.913C451.761 212.913 452.722 212.913 453.682 213.393C454.162 213.873 454.642 214.353 454.642 215.313C454.642 216.753 453.682 217.714 452.242 217.714L439.76 219.634L441.2 226.835L456.082 224.435C457.042 224.435 458.002 224.435 458.002 224.915C458.482 225.395 458.962 225.875 458.962 227.315C458.962 228.755 458.002 229.715 457.042 229.715L442.16 232.116L445.041 246.038C445.041 246.998 445.041 247.958 444.56 248.439C444.08 248.919 443.12 249.398 442.16 249.398ZM438.32 230.195C438.8 230.195 439.28 230.676 439.28 231.156L442.16 246.518V246.998C442.64 246.998 442.64 246.998 442.64 246.998C442.64 246.998 442.64 246.998 442.64 246.518L439.76 231.156C439.76 230.676 439.76 230.675 439.76 230.195C439.76 229.715 440.24 229.715 440.72 229.715L457.042 227.315C457.042 226.835 457.042 226.835 457.042 226.835L440.72 229.715C440.24 229.715 439.28 229.235 439.28 228.755L437.36 219.154C437.36 218.674 437.36 218.674 437.36 218.194C437.36 217.713 437.84 217.714 438.32 217.714L451.761 215.793C451.761 215.313 451.761 215.313 451.761 215.313C451.761 215.313 451.761 215.313 451.281 215.313L437.84 217.234C437.36 217.234 436.399 216.753 436.399 216.273L434.959 208.592V208.112H434.479V208.592L435.919 216.273C435.919 216.753 435.919 216.754 435.919 217.234C435.919 217.714 435.439 217.714 434.959 217.714L421.037 219.634V220.114C421.037 220.114 421.037 220.114 421.517 220.114L435.439 217.714C435.919 217.714 436.879 218.194 436.879 218.674L438.8 228.275C438.8 228.755 438.8 228.755 438.8 229.235C438.32 229.716 438.32 229.715 438.32 230.195L419.117 232.596C419.117 233.076 419.117 233.076 419.117 233.076L438.32 230.195C437.84 230.195 437.84 230.195 438.32 230.195Z" fill="#040000"></path><path d="M472.881 212.913C472.401 212.913 471.441 212.913 471.441 211.473C471.441 210.033 472.401 210.033 472.881 210.033H496.884C498.324 210.033 501.204 210.032 501.204 213.393C501.204 216.273 496.884 224.435 493.524 229.236C495.924 231.156 502.165 236.436 507.925 243.158C508.885 244.118 508.885 244.598 508.885 245.078C508.885 246.038 507.925 246.518 507.445 246.518C506.965 246.518 506.485 246.038 506.005 245.078C500.244 237.877 495.444 234.036 492.563 231.636C483.442 242.678 472.401 247.478 471.921 247.478C470.961 247.478 470.48 246.518 470.48 246.038C470.48 245.558 470.48 245.078 472.401 244.598C494.003 234.036 499.284 215.794 499.284 214.833C499.284 213.873 498.804 213.873 497.364 213.873H472.881V212.913Z" fill="#040000"></path><path d="M470.003 247.958C468.563 247.958 467.123 246.518 467.123 245.078C467.123 243.638 468.083 243.158 469.523 242.198C489.686 232.596 494.967 215.794 495.927 213.873H495.447H472.404C470.483 213.873 470.003 212.433 470.003 211.473C470.003 210.993 470.003 209.073 472.404 209.073H496.407C497.847 209.073 501.688 209.072 501.688 213.393C501.688 216.754 497.367 224.435 494.487 228.755C497.847 231.156 503.128 235.957 507.929 242.198C508.889 243.158 509.369 243.638 509.369 244.598C509.369 246.038 507.928 247.479 506.488 247.479C505.048 247.479 504.568 246.518 504.088 246.038C498.807 239.797 494.487 235.957 491.606 233.556C482.005 243.158 471.444 247.958 470.003 247.958ZM472.884 211.473H495.927C496.887 211.473 498.807 211.473 498.807 213.873C498.807 213.873 494.007 233.556 470.964 244.598C470.484 244.598 470.003 245.078 470.003 245.078C470.003 245.078 470.003 245.558 470.483 245.558C471.444 245.078 482.005 240.757 490.646 230.196C490.646 229.716 491.126 229.716 491.606 229.716C492.086 229.716 492.086 229.716 492.566 230.196C495.447 232.596 500.727 236.917 506.488 244.118C506.968 245.078 506.968 245.078 507.448 245.078C507.448 245.078 507.929 245.078 507.929 244.598C507.929 244.598 507.448 244.118 507.448 243.638C502.168 237.397 496.407 232.596 493.527 230.196C493.047 229.716 493.047 229.236 493.527 228.755C497.367 223.955 501.208 216.274 501.208 213.873C501.208 211.953 500.248 211.953 498.327 211.953L472.884 211.473C472.404 211.473 472.404 211.473 472.884 211.473Z" fill="#040000"></path><path d="M532.891 246.998C532.891 247.478 532.891 248.438 531.451 248.438C530.011 248.438 530.011 247.478 530.011 246.998V208.112C530.011 207.632 530.011 206.672 531.451 206.672C532.891 206.672 532.891 207.632 532.891 208.112V220.594C543.453 225.395 548.253 228.755 553.054 232.116C554.494 233.076 554.494 233.556 554.494 234.036C554.494 234.516 554.014 235.476 553.054 235.476C552.574 235.476 552.094 235.476 549.693 233.556C543.933 229.235 537.212 225.875 532.411 223.475V246.998H532.891Z" fill="#040000"></path><path d="M531.448 249.879C530.488 249.879 528.567 249.399 528.567 247.479V208.112C528.567 206.672 529.528 205.712 531.448 205.712C533.368 205.712 534.328 206.672 534.328 208.112V220.114C544.41 224.435 549.21 227.795 553.531 231.156L554.011 231.636C555.451 232.596 555.931 233.076 555.931 234.516C555.931 235.957 554.971 237.397 553.051 237.397C552.09 237.397 551.61 236.917 549.21 235.477C543.449 231.156 537.209 227.795 533.848 226.355V247.958C534.328 248.919 533.368 249.879 531.448 249.879ZM531.448 207.632C531.448 207.632 530.968 207.632 531.448 207.632L530.968 246.998C530.968 247.478 531.448 246.998 531.448 246.998V223.475C531.448 222.995 531.448 222.514 531.928 222.514C532.408 222.514 532.888 222.034 532.888 222.514C536.728 224.435 543.929 227.795 550.17 232.596C551.61 233.556 552.571 234.036 552.571 234.036C553.051 234.036 553.051 233.556 553.051 233.556L552.09 232.596L551.61 232.116C547.29 229.235 542.009 225.395 531.928 221.074C531.448 221.074 530.968 220.594 530.968 220.114L531.448 207.632C531.928 207.632 531.928 207.632 531.448 207.632Z" fill="#040000"></path><path d="M319.262 69.3708C317.821 69.3708 316.861 67.9308 316.861 66.4905C316.861 66.4905 316.861 65.5303 317.341 63.13C317.821 61.6898 318.782 60.7298 320.222 61.2099C321.662 61.6899 322.142 63.1299 322.142 64.5701C321.662 66.0103 321.662 66.9705 321.662 66.9705C321.662 68.4107 320.222 69.3708 319.262 69.3708Z" fill="black"></path><path d="M326.466 52.0884C325.986 52.0884 325.506 52.0885 325.026 51.6084C324.066 50.6482 324.066 48.7276 325.026 47.7675C325.986 46.3272 327.426 44.8871 328.866 43.4468C329.826 42.4866 331.267 42.4865 332.227 43.9268C333.187 44.887 332.707 46.8073 331.747 47.7675C330.786 48.7276 329.346 50.168 328.386 51.1281C327.426 52.0883 326.946 52.0884 326.466 52.0884Z" fill="black"></path><path d="M428.716 75.6123C427.755 75.6123 426.795 75.1321 426.315 73.6919C425.835 72.2516 425.355 70.3313 424.395 68.8911C423.915 67.4509 424.395 66.0107 425.355 65.0505C426.315 64.5705 427.755 65.0506 428.716 66.0107C429.676 67.9311 430.156 69.3712 430.636 71.2915C431.116 72.7317 430.636 74.1719 429.196 75.1321C429.196 75.1321 428.716 75.6123 428.716 75.6123ZM418.154 57.3691C417.674 57.3691 416.714 56.8893 416.714 56.4092C415.754 55.449 414.314 54.0087 413.354 53.0486C412.393 52.0884 411.913 50.1682 412.874 49.208C413.834 47.7678 415.274 47.7676 416.234 48.7278C417.674 50.168 418.634 51.1281 420.074 52.5683C421.035 53.5285 421.035 55.449 420.074 56.4092C419.594 56.8893 419.114 57.3691 418.154 57.3691ZM402.312 45.3672C401.832 45.3672 401.832 45.3672 401.352 45.3672C399.912 44.8871 398.472 43.9271 397.032 43.447C395.591 42.9669 395.111 41.5266 395.591 40.0864C396.071 38.6462 397.512 37.6859 398.472 38.166C399.912 38.6461 401.832 39.6063 403.272 40.0864C404.712 40.5665 405.193 42.4867 404.712 43.927C404.232 44.4071 403.272 45.3672 402.312 45.3672ZM342.304 40.5664C341.344 40.5664 340.384 39.6064 339.904 38.6462C339.424 37.206 340.384 35.7657 341.344 35.2856C342.784 34.8056 344.225 34.3255 346.145 33.8455C347.585 33.3654 348.545 34.3254 349.025 35.7656C349.505 37.2058 348.545 38.6461 347.105 39.1262C345.665 39.6063 344.225 40.0863 342.784 40.5664C342.784 40.5664 342.304 40.5664 342.304 40.5664ZM384.55 39.1262C384.07 39.1262 384.07 39.1262 384.55 39.1262C383.59 39.1262 382.63 38.6462 382.15 38.6462L379.749 38.166C378.309 38.166 377.349 36.7259 377.829 35.2856C377.829 33.8454 379.269 32.8852 380.709 32.8852L383.11 33.3652C384.07 33.3652 384.55 33.8455 385.51 33.8455C386.95 34.3255 387.91 35.7658 387.43 37.2061C386.47 38.1662 385.51 39.1262 384.55 39.1262ZM360.547 37.2061C359.107 37.2061 358.146 36.2457 358.146 34.3254C358.146 32.8852 359.107 31.4451 360.547 31.4451C361.507 31.4451 362.467 31.4451 363.907 31.4451H365.347C366.788 31.4451 367.748 32.8852 367.748 34.3254C367.748 35.7657 366.788 37.2061 365.347 37.2061H363.907C362.947 37.2061 361.987 37.2061 360.547 37.2061C361.027 37.2061 361.027 37.2061 360.547 37.2061Z" fill="black"></path><path d="M432.076 94.3347C430.636 94.3347 429.676 93.3746 429.676 91.9343C429.676 90.9742 429.676 90.0141 429.676 89.054C429.676 87.6137 430.636 86.1733 431.596 86.1733C433.036 86.1733 433.996 87.1335 434.476 88.5737C434.476 89.5339 434.476 90.4942 434.476 91.4544C434.476 92.8946 433.516 94.3347 432.076 94.3347Z" fill="black"></path><path d="M416.231 84.7334L430.153 117.858L447.435 87.614L416.231 84.7334Z" fill="black"></path><path d="M168.524 73.6916C167.084 71.2913 164.683 70.3311 161.803 70.3311C159.403 70.3311 156.522 71.7713 155.082 73.6916L130.119 112.097L116.197 96.2551C114.757 94.3348 112.356 93.3747 109.956 93.8547C107.556 93.8547 105.155 95.295 104.195 97.2153L81.1523 132.74H206.929L168.524 73.6916Z" fill="#4C4B4C"></path><path d="M115.718 81.8528C124.359 81.8528 131.56 74.6518 131.56 66.0105C131.56 57.3693 124.359 50.168 115.718 50.168C107.077 50.168 99.876 57.3693 99.876 66.0105C100.356 74.6518 107.077 81.8528 115.718 81.8528Z" fill="#4C4B4C"></path><path d="M165.641 8.40186H122.436V188.429H165.641V8.40186Z" fill="#C0B38D"></path><path d="M60.499 94.3348C60.499 95.775 61.4591 96.7351 62.4192 96.7351H133.949C134.909 96.7351 135.869 95.775 135.869 94.3348C135.869 92.8947 134.909 91.9346 133.949 91.9346H62.4192C60.9791 91.9346 60.499 92.8947 60.499 94.3348Z" fill="black"></path><path d="M133.47 99.1353H61.9407C59.5404 99.1353 57.6201 97.215 57.6201 94.3346C57.6201 91.4542 59.5404 89.5339 61.9407 89.5339H133.47C135.87 89.5339 137.791 91.4542 137.791 94.3346C137.791 97.215 135.87 99.1353 133.47 99.1353Z" fill="black"></path><path d="M73.462 113.538L76.8224 110.177L59.5402 94.3347L76.8224 78.4924L73.462 75.1318L52.8193 94.3347L73.462 113.538Z" fill="black"></path><path d="M73.4651 116.898L49.4619 94.3346L73.4651 71.771L80.186 78.4922L63.3838 94.3346L80.186 110.177L73.4651 116.898Z" fill="black"></path><path d="M229.003 94.3348C229.003 95.775 228.042 96.7351 227.082 96.7351H155.553C154.593 96.7351 153.633 95.775 153.633 94.3348C153.633 92.8947 154.593 91.9346 155.553 91.9346H227.082C228.042 91.9346 229.003 92.8947 229.003 94.3348Z" fill="black"></path><path d="M227.082 99.1353H155.553C153.153 99.1353 151.232 97.215 151.232 94.3346C151.232 91.4542 153.153 89.5339 155.553 89.5339H227.082C229.483 89.5339 231.403 91.4542 231.403 94.3346C231.403 97.215 229.483 99.1353 227.082 99.1353ZM156.513 94.3346H226.602H156.513Z" fill="black"></path><path d="M216.036 113.538L212.676 110.177L229.478 94.3347L212.676 78.4924L216.036 75.1318L236.679 94.3347L216.036 113.538Z" fill="black"></path><path d="M215.559 116.898L209.318 110.177L226.121 94.3346L209.318 78.4922L215.559 71.771L240.042 94.3346L215.559 116.898Z" fill="black"></path><path d="M262.132 191.31H26.9015C12.4996 191.31 0.498047 179.308 0.498047 164.906V27.1245C0.498047 12.7223 12.4996 0.720459 26.9015 0.720459H262.132C276.534 0.720459 288.536 12.7223 288.536 27.1245V164.906C288.536 179.788 276.534 191.31 262.132 191.31ZM26.9015 12.2423C18.2604 12.2423 11.5395 18.9634 11.5395 27.6047V165.385C11.5395 174.027 18.2604 180.748 26.9015 180.748H262.132C270.773 180.748 277.494 174.027 277.494 165.385V27.6047C277.494 18.9634 270.773 12.2423 262.132 12.2423H26.9015Z" fill="black"></path></svg> 