<?xml version="1.0" encoding="UTF-8"?> <svg xmlns="http://www.w3.org/2000/svg" width="610" height="333" viewBox="0 0 610 333" fill="none"><path d="M278.24 137.494V166.779C278.24 174.46 271.999 180.221 264.798 180.221H18.0462C10.3652 180.221 4.60449 173.98 4.60449 166.779V137.494H278.24Z" fill="#C0B38D"></path><path d="M261.916 191.263H26.6857C12.2838 191.263 0.282227 179.261 0.282227 164.859V27.0776C0.282227 12.6754 12.2838 0.673584 26.6857 0.673584H261.916C276.318 0.673584 288.32 12.6754 288.32 27.0776V164.859C288.32 179.741 276.318 191.263 261.916 191.263ZM27.1657 12.1953C18.5246 12.1953 11.8037 18.9164 11.8037 27.5577V165.339C11.8037 173.98 18.5246 180.701 27.1657 180.701H262.396C271.037 180.701 277.758 173.98 277.758 165.339V27.5577C277.758 18.9164 271.037 12.1953 262.396 12.1953H27.1657V12.1953Z" fill="black"></path><path d="M319.045 69.324C317.605 69.324 316.645 67.8837 316.645 66.4435C316.645 66.4435 316.645 65.4833 317.125 63.083C317.605 61.6428 318.565 60.6827 320.005 61.1627C321.445 61.6428 321.925 63.0831 321.925 64.5233C321.445 65.9635 321.445 66.9236 321.445 66.9236C321.445 68.3638 320.005 69.324 319.045 69.324Z" fill="black"></path><path d="M326.249 52.0415C325.769 52.0415 325.289 52.0415 324.809 51.5614C323.849 50.6013 323.849 48.681 324.809 47.7209C325.769 46.2807 327.209 44.8403 328.649 43.4001C329.61 42.44 331.05 42.44 332.01 43.8802C332.97 44.8404 332.49 46.7607 331.53 47.7209C330.57 48.681 329.13 50.1212 328.169 51.0813C327.209 52.0414 326.729 52.0415 326.249 52.0415Z" fill="black"></path><path d="M428.499 75.5647C427.539 75.5647 426.579 75.0847 426.099 73.6444C425.618 72.2042 425.138 70.284 424.178 68.8437C423.698 67.4035 424.178 65.9632 425.138 65.0031C426.098 64.523 427.539 65.0032 428.499 65.9633C429.459 67.8836 429.939 69.3238 430.419 71.2441C430.899 72.6843 430.419 74.1245 428.979 75.0846C428.979 75.5647 428.979 75.5647 428.499 75.5647ZM417.937 57.3221C417.457 57.3221 416.497 56.842 416.497 56.3619C415.537 55.4018 414.097 53.9615 413.137 53.0013C412.177 52.0412 411.697 50.121 412.657 49.1608C413.617 47.7206 415.057 47.7206 416.017 48.6807C417.457 50.121 418.417 51.0812 419.858 52.5214C420.818 53.4815 420.818 55.4018 419.858 56.3619C419.378 56.842 418.898 57.3221 417.937 57.3221ZM402.575 45.3203C402.095 45.3203 402.095 45.3203 401.615 45.3203C400.175 44.8403 398.735 43.88 397.295 43.3999C395.855 42.9199 395.374 41.4798 395.855 40.0395C396.335 38.5993 397.775 37.6392 398.735 38.1193C400.175 38.5994 402.095 39.5595 403.536 40.0395C404.976 40.5196 405.456 42.4398 404.976 43.88C404.016 44.3601 403.055 45.3203 402.575 45.3203ZM342.088 40.5196C341.127 40.5196 340.167 39.5594 339.687 38.5992C339.207 37.159 340.167 35.7189 341.127 35.2388C342.568 34.7588 344.008 34.2786 345.928 33.7985C347.368 33.3185 348.328 34.2787 348.808 35.7189C349.288 37.1592 348.328 38.5993 346.888 39.0793C345.448 39.5594 344.008 40.0396 342.568 40.5196C342.568 40.5196 342.088 40.5196 342.088 40.5196ZM384.333 39.0793C383.853 39.0793 383.853 39.0793 384.333 39.0793C383.373 39.0793 382.413 38.5992 381.933 38.5992L379.532 38.1193C378.092 38.1193 377.132 36.6791 377.612 35.2388C377.612 33.7986 379.052 32.8385 380.493 32.8385L382.893 33.3186C383.853 33.3186 384.333 33.7985 385.293 33.7985C386.733 34.2786 387.693 35.7189 387.213 37.1591C386.253 38.1192 385.293 39.0793 384.333 39.0793ZM360.81 37.1591C359.37 37.1591 358.41 36.1989 358.41 34.2786C358.41 32.8384 359.37 31.3982 360.81 31.3982C361.77 31.3982 362.73 31.3982 364.17 31.3982H365.611C367.051 31.3982 368.011 32.8384 368.011 34.2786C368.011 35.7189 367.051 37.1591 365.611 37.1591H364.17C362.73 37.1591 361.77 37.1591 360.81 37.1591Z" fill="black"></path><path d="M431.859 94.2878C430.419 94.2878 429.459 93.3277 429.459 91.8875C429.459 90.9273 429.459 89.9672 429.459 89.007C429.459 87.5668 430.419 86.1267 431.379 86.1267C432.819 86.1267 433.78 87.0869 434.26 88.5271C434.26 89.4872 434.26 90.4472 434.26 91.4074C434.26 92.8476 433.299 94.2878 431.859 94.2878C431.859 94.2878 432.339 94.2878 431.859 94.2878Z" fill="black"></path><path d="M416.015 84.6863L429.936 117.812L447.219 87.5668L416.015 84.6863Z" fill="black"></path><path d="M578.758 327.604H343.527C329.126 327.604 317.124 315.602 317.124 301.199V163.418C317.124 149.016 329.126 137.014 343.527 137.014H578.758C593.16 137.014 605.161 149.016 605.161 163.418V301.199C605.161 316.082 593.16 327.604 578.758 327.604Z" fill="#C0B38D"></path><path d="M578.758 332.404H343.527C326.245 332.404 312.323 318.482 312.323 301.2V163.418C312.323 146.136 326.245 132.214 343.527 132.214H578.758C596.04 132.214 609.962 146.136 609.962 163.418V301.2C609.962 318.482 596.04 332.404 578.758 332.404ZM344.007 142.295C332.006 142.295 322.405 151.897 322.405 163.899V301.679C322.405 313.681 332.006 323.283 344.007 323.283H579.238C591.24 323.283 600.841 313.681 600.841 301.679V163.899C600.841 151.897 591.24 142.295 579.238 142.295H344.007Z" fill="#040000"></path><path d="M370.414 229.668C369.934 229.668 368.974 229.668 368.974 228.228C368.974 226.788 369.934 226.788 370.414 226.788H408.819C409.299 226.788 410.259 226.788 410.259 228.228C410.259 229.668 409.299 229.668 408.819 229.668H392.497C392.497 235.909 391.537 242.15 387.216 246.951C383.375 251.272 378.095 252.712 377.135 252.712C376.175 252.712 375.695 251.752 375.695 251.272C375.695 250.312 375.694 250.312 377.615 249.832C388.176 245.511 389.136 236.869 389.136 229.668H370.414V229.668ZM403.058 214.306C403.538 214.306 404.498 214.306 404.498 215.746C404.498 217.187 403.538 217.186 403.058 217.186H375.695C375.214 217.186 374.254 217.187 374.254 215.746C374.254 214.306 375.214 214.306 375.695 214.306H403.058Z" fill="#040000"></path><path d="M376.651 253.672C375.211 253.672 374.251 252.232 374.251 250.792C374.251 249.351 375.211 248.871 376.651 248.391C386.253 244.551 387.213 237.349 387.693 230.628H369.931C368.01 230.628 367.53 229.188 367.53 228.228C367.53 227.268 368.01 225.828 369.931 225.828H408.336C410.256 225.828 410.736 227.268 410.736 228.228C410.736 229.188 410.256 230.628 408.336 230.628H392.974C392.974 236.389 391.533 242.63 387.213 247.431C383.372 251.752 378.092 253.672 376.651 253.672ZM376.651 251.272C377.612 251.272 382.412 249.831 385.773 245.991C390.093 241.67 390.573 235.429 391.053 229.668C391.053 229.188 391.533 228.708 392.494 228.708H408.816V228.228H370.411H389.133C389.613 228.228 389.613 228.228 390.093 228.708C390.573 229.188 390.573 229.188 390.573 229.668C390.573 235.909 390.093 245.991 378.092 250.792C377.132 250.792 376.651 250.791 376.651 251.272ZM403.055 218.147H375.691C373.771 218.147 373.291 216.706 373.291 215.746C373.291 214.306 374.251 213.346 375.691 213.346H403.055C404.975 213.346 405.455 214.786 405.455 215.746C405.455 216.706 404.975 218.147 403.055 218.147ZM375.691 215.266L403.055 215.746H375.691V215.266Z" fill="#040000"></path><path d="M434.742 213.346C434.262 211.426 436.182 211.426 436.182 211.426C437.142 211.426 437.142 211.906 437.622 212.866L439.062 220.547L452.504 218.627C452.984 218.627 454.424 218.627 454.424 220.067C454.424 221.027 453.944 221.027 453.464 221.507L440.023 223.427L441.943 233.029L458.265 230.629C459.705 230.629 459.705 232.069 459.705 232.069C459.705 233.029 458.745 233.509 458.745 233.509L442.423 235.91L445.303 251.272C445.783 253.192 443.863 253.192 443.863 253.192C442.903 253.192 442.423 252.232 442.423 251.752L439.542 236.39L420.82 239.27C419.38 239.75 419.38 237.83 419.38 237.83C419.38 236.87 419.86 236.87 420.34 236.39L439.062 233.509L437.142 223.908L423.22 226.308C421.78 226.308 421.3 225.348 421.3 224.868C421.3 223.907 421.78 223.427 422.74 223.427L436.662 221.507L434.742 213.346Z" fill="#040000"></path><path d="M443.38 254.152C441.94 254.152 440.98 253.192 440.98 251.752L438.579 237.83L420.817 240.71C419.857 240.71 419.377 240.71 418.897 240.23C418.417 239.75 417.937 238.79 417.937 237.83C417.937 237.35 417.937 235.909 419.857 235.429L437.139 232.549L435.699 225.348L422.737 227.268C421.777 227.268 420.817 227.268 420.337 226.788C419.857 226.308 419.377 225.348 419.377 224.868C419.377 223.427 420.337 222.467 421.777 222.467L434.739 220.547L433.299 213.826C433.299 212.866 433.299 211.906 433.779 211.426C434.739 210.465 435.699 210.465 436.179 210.465C437.139 210.465 438.099 210.945 438.579 212.866L440.019 219.587L452.501 217.666C452.981 217.666 453.941 217.667 454.901 218.147C455.381 218.627 455.861 219.107 455.861 220.067C455.861 221.507 454.901 222.467 453.461 222.467L440.98 224.388L442.42 231.589L457.302 229.188C458.262 229.188 458.742 229.188 459.222 229.668C459.702 230.148 460.182 230.628 460.182 232.069C460.182 233.509 459.222 234.469 458.262 234.469L443.38 236.869L446.26 250.792C446.26 251.752 446.26 252.712 445.78 253.192C444.82 253.672 444.34 254.152 443.38 254.152ZM439.059 235.429C439.539 235.429 440.019 235.909 440.019 236.39L442.9 251.752V252.232C443.38 252.232 443.38 252.232 443.38 252.232C443.38 252.232 443.38 252.232 443.38 251.752L440.499 236.39C440.499 235.909 440.499 235.909 440.499 235.429C440.499 234.949 440.98 234.949 441.46 234.949L457.782 232.549C457.782 232.069 457.782 232.069 457.782 232.069L441.46 234.949C440.98 234.949 440.019 234.469 440.019 233.989L438.099 224.388C438.099 223.908 438.099 223.907 438.099 223.427C438.099 222.947 438.579 222.947 439.059 222.947L452.501 221.027C452.501 220.547 452.501 220.547 452.501 220.547C452.501 220.547 452.501 220.547 452.021 220.547L438.579 222.467C438.099 222.467 437.139 221.987 437.139 221.507L435.699 213.826V213.346H435.219V213.826L436.659 221.507C436.659 221.987 436.659 221.987 436.659 222.467C436.659 222.947 436.179 222.947 435.699 222.947L421.777 224.868V225.348C421.777 225.348 421.777 225.348 422.257 225.348L436.179 222.947C436.659 222.947 437.619 223.428 437.619 223.908L439.539 233.509C439.539 233.989 439.539 233.989 439.539 234.469C439.539 234.469 439.059 234.949 439.059 235.429L419.857 237.83C419.857 238.31 419.857 238.31 419.857 238.31L439.059 235.429Z" fill="#040000"></path><path d="M473.623 217.666C473.143 217.666 472.183 217.667 472.183 216.226C472.183 214.786 473.143 214.786 473.623 214.786H497.626C499.066 214.786 501.947 214.786 501.947 218.147C501.947 221.027 497.626 229.188 494.266 233.989C496.666 235.909 502.907 241.19 508.668 247.911C509.628 248.872 509.628 249.351 509.628 249.832C509.628 250.792 508.668 251.272 508.187 251.272C507.707 251.272 507.227 250.792 506.747 249.832C500.987 242.63 496.186 238.79 493.306 236.39C484.184 247.431 473.143 252.232 472.663 252.232C471.703 252.232 471.223 251.272 471.223 250.792C471.223 250.312 471.223 249.832 473.143 249.352C494.746 238.79 500.026 220.547 500.026 219.587C500.026 218.627 499.546 218.627 498.106 218.627H473.623V217.666Z" fill="#040000"></path><path d="M471.224 252.712C469.784 252.712 468.344 251.272 468.344 249.832C468.344 248.391 469.304 247.911 470.744 246.951C490.907 237.35 496.187 220.547 497.147 218.627H496.667H473.624C471.704 218.627 471.224 217.186 471.224 216.226C471.224 215.746 471.224 213.826 473.624 213.826H497.628C499.068 213.826 502.908 213.826 502.908 218.147C502.908 221.507 498.588 229.188 495.707 233.509C499.068 235.91 504.348 240.71 509.149 246.951C510.109 247.911 510.589 248.391 510.589 249.352C510.589 250.792 509.149 252.232 507.709 252.232C506.269 252.232 505.789 251.272 505.309 250.792C500.028 244.551 495.707 240.71 492.827 238.31C483.226 248.391 472.184 252.712 471.224 252.712ZM473.624 216.707H496.667C497.628 216.707 499.548 216.707 499.548 219.107C499.548 219.107 494.747 238.79 471.704 249.832C471.224 249.832 470.744 250.312 470.744 250.312C470.744 250.312 470.744 250.792 471.224 250.792C472.184 250.312 482.746 245.991 491.387 235.429C491.387 234.949 491.867 234.949 492.347 234.949C492.827 234.949 492.827 234.949 493.307 235.429C496.187 237.83 501.468 242.15 507.229 249.352C507.709 250.312 507.709 250.312 508.189 250.312C508.189 250.312 508.669 250.312 508.669 249.832C508.669 249.832 508.189 249.351 508.189 248.871C502.908 242.63 497.147 237.83 494.267 235.429C493.787 234.949 493.787 234.469 494.267 233.989C498.108 229.188 501.948 221.507 501.948 219.107C501.948 217.187 500.988 217.187 499.068 217.187L473.624 216.707C473.144 216.226 473.624 216.226 473.624 216.707Z" fill="#040000"></path><path d="M534.118 252.232C534.118 252.712 534.118 253.672 532.678 253.672C531.237 253.672 531.237 252.712 531.237 252.232V212.866C531.237 212.386 531.237 211.426 532.678 211.426C534.118 211.426 534.118 212.386 534.118 212.866V225.348C544.679 230.148 549.48 233.509 554.28 236.869C555.72 237.829 555.72 238.31 555.72 238.79C555.72 239.27 555.24 240.23 554.28 240.23C553.8 240.23 553.32 240.23 550.92 238.31C545.159 233.989 538.438 230.628 533.638 228.228V252.232H534.118Z" fill="#040000"></path><path d="M532.674 254.632C531.714 254.632 529.794 254.152 529.794 252.232V212.866C529.794 211.425 530.754 210.465 532.674 210.465C534.595 210.465 535.555 211.425 535.555 212.866V224.868C545.636 229.188 550.437 232.549 554.757 235.909L555.237 236.389C556.677 237.35 557.157 237.829 557.157 239.27C557.157 240.71 556.197 242.15 554.277 242.15C553.317 242.15 552.837 241.67 550.437 240.23C544.676 235.909 538.435 232.549 535.075 231.109V252.712C535.075 253.672 534.114 254.632 532.674 254.632ZM532.194 212.386C532.194 212.386 532.194 212.866 532.194 212.386L531.714 251.752C531.714 252.232 532.194 251.752 532.194 251.752V228.228C532.194 227.748 532.194 227.268 532.674 227.268C533.154 227.268 533.634 226.788 533.634 227.268C537.475 229.188 544.676 232.549 550.917 237.35C552.357 238.31 553.317 238.79 553.317 238.79C553.797 238.79 553.797 238.31 553.797 238.31L552.837 237.35L552.357 236.869C548.036 233.989 542.756 230.148 532.674 225.828C532.194 225.828 531.714 225.348 531.714 224.868L532.194 212.386C532.674 212.386 532.674 212.866 532.194 212.386Z" fill="#040000"></path><path d="M168.307 73.6448C166.867 71.2444 164.466 70.2842 161.586 70.2842C159.186 70.2842 156.305 71.7245 154.865 73.6448L129.902 111.571L115.98 95.7282C114.54 93.8079 112.14 92.8477 109.739 93.3278C107.339 93.3278 104.939 94.7679 103.979 96.6882L80.9355 132.214H206.712L168.307 73.6448Z" fill="#4C4B4C"></path><path d="M115.98 81.8057C124.621 81.8057 131.822 74.6047 131.822 65.9634C131.822 57.3221 124.621 50.1211 115.98 50.1211C107.339 50.1211 100.138 57.3221 100.138 65.9634C100.138 74.6047 106.859 81.8057 115.98 81.8057Z" fill="#4C4B4C"></path><path d="M233.592 47.7209C235.032 47.7209 235.992 48.6811 235.992 50.1213V156.698C235.992 158.138 235.032 159.098 233.592 159.098C232.152 159.098 231.191 158.138 231.191 156.698V50.1213C231.191 48.6811 232.152 47.7209 233.592 47.7209Z" fill="black"></path><path d="M233.592 161.498C230.711 161.498 228.791 159.098 228.791 156.698V50.1213C228.791 47.2408 230.711 45.3206 233.592 45.3206C236.472 45.3206 238.392 47.7209 238.392 50.1213V156.698C238.392 159.098 235.992 161.498 233.592 161.498Z" fill="black"></path><path d="M252.794 56.3621L249.433 59.7227L233.591 42.4402L217.749 59.7227L214.389 56.3621L233.591 35.7192L252.794 56.3621Z" fill="black"></path><path d="M248.956 63.083L233.594 45.8004L217.752 63.083L211.031 56.362L233.594 31.8784L256.157 56.362L248.956 63.083Z" fill="black"></path></svg> 