<?xml version="1.0" encoding="UTF-8"?> <svg xmlns="http://www.w3.org/2000/svg" width="608" height="326" viewBox="0 0 608 326" fill="none"><path d="M261.957 190.589H26.7267C12.3248 190.589 0.323242 178.587 0.323242 164.185V26.404C0.323242 12.0018 12.3248 0 26.7267 0H261.957C276.359 0 288.361 12.0018 288.361 26.404V164.185C287.881 178.587 276.359 190.589 261.957 190.589ZM26.7267 11.0417C18.0855 11.0417 11.3647 17.7627 11.3647 26.404V164.185C11.3647 172.826 18.0855 179.547 26.7267 179.547H261.957C270.598 179.547 277.319 172.826 277.319 164.185V26.404C277.319 17.7627 270.598 11.0417 261.957 11.0417H26.7267Z" fill="black"></path><path d="M318.601 68.1706C317.16 68.1706 316.2 66.7304 316.2 65.2902C316.2 65.2902 316.2 64.3301 316.68 61.9297C317.16 60.4895 318.12 59.5293 319.561 60.0094C321.001 60.4895 321.481 61.9297 321.481 63.3699C321.001 64.8101 321.001 65.7703 321.001 65.7703C321.001 67.2105 320.041 68.1706 318.601 68.1706Z" fill="black"></path><path d="M325.805 51.3679C325.325 51.3679 324.845 51.3679 324.365 50.8878C323.404 49.9276 323.404 48.0073 324.365 47.0472C325.325 45.607 326.765 44.1668 328.205 42.7265C329.165 41.7664 330.605 41.7664 331.566 43.2066C332.526 44.1668 332.046 46.0871 331.086 47.0472C330.125 48.0073 328.685 49.4476 327.725 50.4077C327.245 50.8878 326.285 51.3679 325.805 51.3679Z" fill="black"></path><path d="M428.054 74.4116C427.094 74.4116 426.134 73.9316 425.654 72.4913C425.174 71.0511 424.694 69.1308 423.734 67.6906C423.254 66.2504 423.734 64.8102 424.694 63.85C425.654 63.3699 427.094 63.85 428.054 64.8102C429.015 66.7305 429.495 68.1707 429.975 70.091C430.455 71.5312 429.975 72.9714 428.535 73.9316C429.015 74.4116 428.535 74.4116 428.054 74.4116ZM417.973 56.1688C417.493 56.1688 416.533 55.6888 416.533 55.2087C415.573 54.2485 414.133 52.8083 413.173 51.8482C412.212 50.888 411.732 48.9677 412.693 48.0076C413.653 46.5674 415.093 46.5674 416.053 47.5275C417.493 48.9677 418.453 49.9279 419.893 51.3681C420.854 52.3283 420.854 54.2485 419.893 55.2087C418.933 55.6888 418.453 56.1688 417.973 56.1688ZM402.131 44.167C401.651 44.167 401.651 44.167 401.171 44.167C399.731 43.2069 398.291 42.7268 396.85 41.7666C395.41 41.2866 394.93 39.8463 395.41 38.4061C395.89 36.9659 397.331 36.0058 398.291 36.4858C399.731 36.9659 401.651 37.926 403.091 38.4061C404.531 38.8862 405.011 40.8065 404.531 42.2467C404.051 43.2069 403.091 44.167 402.131 44.167ZM341.643 39.3663C340.683 39.3663 339.723 38.4061 339.243 37.446C338.763 36.0058 339.723 34.5655 340.683 34.0855C342.123 33.6054 343.564 33.1253 345.484 32.6452C346.924 32.1652 347.884 33.1253 348.364 34.5655C348.844 36.0058 347.884 37.446 346.444 37.926C345.484 38.4061 344.044 38.8862 342.603 39.3663C342.123 39.3663 342.123 39.3663 341.643 39.3663ZM383.889 37.926C382.929 37.926 381.969 37.446 381.488 37.446L379.088 36.9659C377.648 36.9659 376.688 35.5257 377.168 34.0855C377.168 32.6452 378.608 31.6851 380.048 31.6851L382.449 32.1652C383.409 32.1652 383.889 32.6452 384.849 32.6452C386.289 33.1253 387.249 34.5655 386.769 36.0058C386.289 36.9659 385.329 37.926 383.889 37.926ZM360.366 36.0058C358.925 36.0058 357.965 35.0456 357.965 33.1253C357.965 31.6851 358.925 30.2449 360.366 30.2449C361.326 30.2449 362.286 30.2449 363.726 30.2449H365.166C366.606 30.2449 367.567 31.6851 367.567 33.1253C367.567 34.5655 366.606 36.0058 365.166 36.0058H363.726C362.286 36.0058 361.326 36.0058 360.366 36.0058Z" fill="black"></path><path d="M431.893 93.1346C430.453 93.1346 429.493 92.1745 429.493 90.7343C429.493 89.7741 429.493 88.814 429.493 87.8538C429.493 86.4136 430.453 84.9734 431.413 84.9734C432.854 84.9734 433.814 85.9335 434.294 87.3738C434.294 88.3339 434.294 89.294 434.294 90.2542C434.294 91.6944 433.334 93.1346 431.893 93.1346Z" fill="black"></path><path d="M415.57 84.0129L429.492 116.658L447.254 86.4133L415.57 84.0129Z" fill="black"></path><path d="M157.784 85.9332C156.824 84.9731 155.864 84.0129 154.424 84.0129C152.984 84.0129 151.544 84.493 151.064 85.9332L137.622 106.576L129.941 97.9351C128.981 96.9749 128.021 96.4949 126.58 96.4949C125.14 96.4949 124.18 97.455 123.22 98.4151L110.738 117.618H178.427L157.784 85.9332Z" fill="#4C4B4C"></path><path d="M129.459 90.2536C134.26 90.2536 138.101 86.413 138.101 81.6123C138.101 76.8115 134.26 72.9709 129.459 72.9709C124.659 72.9709 120.818 76.8115 120.818 81.6123C120.818 86.413 124.659 90.2536 129.459 90.2536Z" fill="#4C4B4C"></path><path d="M581.199 325.01H345.969C331.567 325.01 319.565 313.008 319.565 298.606V160.825C319.565 146.422 331.567 134.421 345.969 134.421H581.199C595.601 134.421 607.603 146.422 607.603 160.825V298.606C607.603 313.008 595.601 325.01 581.199 325.01ZM345.969 145.462C337.328 145.462 330.607 152.183 330.607 160.825V298.606C330.607 307.247 337.328 313.968 345.969 313.968H581.199C589.841 313.968 596.561 307.247 596.561 298.606V160.825C596.561 152.183 589.841 145.462 581.199 145.462H345.969Z" fill="black"></path><path d="M490.469 208.832C489.029 206.431 486.628 205.471 483.748 205.471C481.348 205.471 478.467 206.911 477.027 208.832L452.064 246.758L438.142 230.915C436.702 228.995 434.302 228.035 431.901 228.515C429.501 228.515 427.101 229.955 426.141 231.875L403.098 267.401H528.874L490.469 208.832Z" fill="#4C4B4C"></path><path d="M438.142 216.993C446.783 216.993 453.984 209.792 453.984 201.151C453.984 192.509 446.783 185.308 438.142 185.308C429.501 185.308 422.3 192.509 422.3 201.151C422.3 209.792 429.501 216.993 438.142 216.993Z" fill="#4C4B4C"></path></svg> 