<?xml version="1.0" encoding="UTF-8"?> <svg xmlns="http://www.w3.org/2000/svg" width="595" height="346" viewBox="0 0 595 346" fill="none"><path d="M567.869 345.783H332.638C318.236 345.783 306.234 333.781 306.234 319.379V181.597C306.234 167.195 318.236 155.193 332.638 155.193H567.869C582.27 155.193 594.272 167.195 594.272 181.597V319.379C594.272 333.781 582.27 345.783 567.869 345.783ZM332.638 166.235C323.997 166.235 317.276 172.956 317.276 181.597V319.379C317.276 328.02 323.997 334.741 332.638 334.741H567.869C576.51 334.741 583.231 328.02 583.231 319.379V181.597C583.231 172.956 576.51 166.235 567.869 166.235H332.638Z" fill="black"></path><g opacity="0.36"><path opacity="0.36" d="M565.465 304.976C565.465 312.657 559.224 318.418 552.023 318.418H349.437C341.756 318.418 335.995 312.177 335.995 304.976V196C335.995 188.319 342.236 182.558 349.437 182.558H552.023C559.704 182.558 565.465 188.799 565.465 196V304.976Z" fill="#4C4B4C"></path></g><path d="M361.917 246.408C361.437 246.408 360.477 246.407 360.477 244.967C360.477 243.527 361.437 243.527 361.917 243.527H400.322C400.802 243.527 401.762 243.527 401.762 244.967C401.762 246.407 400.802 246.408 400.322 246.408H384C384 252.649 383.04 258.889 378.719 263.69C374.879 268.011 369.598 269.451 368.638 269.451C367.678 269.451 367.198 268.491 367.198 268.011C367.198 267.051 367.198 267.05 369.118 266.57C379.679 262.25 380.639 253.609 380.639 246.408H361.917ZM394.561 231.045C395.041 231.045 396.001 231.045 396.001 232.485C396.001 233.926 395.041 233.925 394.561 233.925H367.198C366.717 233.925 365.757 233.926 365.757 232.485C365.757 231.045 366.717 231.045 367.198 231.045H394.561Z" fill="white"></path><path d="M368.641 270.412C367.2 270.412 366.24 268.971 366.24 267.531C366.24 266.09 367.2 265.61 368.641 265.13C378.242 261.29 379.202 254.089 379.682 247.368H361.92C360 247.368 359.52 245.927 359.52 244.967C359.52 244.007 360 242.567 361.92 242.567H400.325C402.245 242.567 402.725 244.007 402.725 244.967C402.725 245.927 402.245 247.368 400.325 247.368H384.963C384.963 253.129 383.523 259.37 379.202 264.17C375.362 268.491 369.601 270.412 368.641 270.412ZM368.161 268.011C369.121 268.011 373.921 266.571 377.282 262.73C381.602 258.409 382.082 252.169 382.562 246.408C382.562 245.928 383.043 245.447 384.003 245.447H400.325V244.967H361.92H380.642C381.122 244.967 381.122 244.967 381.602 245.447C382.082 245.927 382.082 245.928 382.082 246.408C382.082 252.649 381.602 262.73 369.601 267.531C369.121 267.531 368.641 268.011 368.161 268.011ZM394.564 234.886H367.201C365.28 234.886 364.8 233.446 364.8 232.485C364.8 231.045 365.76 230.085 367.201 230.085H394.564C396.484 230.085 396.964 231.525 396.964 232.485C396.964 233.446 396.484 234.886 394.564 234.886ZM367.201 232.005L394.564 232.485H367.201V232.005Z" fill="white"></path><path d="M424.809 230.085C424.329 228.165 426.249 228.165 426.249 228.165C427.21 228.165 427.69 228.645 427.69 229.605L429.13 237.286L442.572 235.366C443.052 235.366 444.492 235.366 444.492 236.806C444.492 237.766 444.012 237.766 443.532 238.246L430.09 240.166L432.01 249.768L448.332 247.367C449.773 247.367 449.772 248.808 449.772 248.808C449.772 249.768 448.812 250.248 448.812 250.248L432.49 252.648L435.371 268.011C435.851 269.931 433.93 269.931 433.93 269.931C432.97 269.931 432.49 268.971 432.49 268.491L429.61 253.128L410.887 256.009C409.447 256.489 409.447 254.569 409.447 254.569C409.447 253.608 410.407 253.608 410.407 253.128L429.13 250.248L427.21 240.646L413.288 243.047C411.848 243.047 411.367 242.087 411.367 241.607C411.367 240.647 411.848 240.166 412.808 240.166L426.73 238.246L424.809 230.085Z" fill="white"></path><path d="M432.969 270.891C431.528 270.891 430.568 269.931 430.568 268.491L428.168 254.089L410.406 256.969C409.446 256.969 408.965 256.969 408.485 256.489C408.005 256.009 407.525 255.049 407.525 254.089C407.525 253.609 407.525 252.168 409.446 251.688L426.728 248.808L425.288 241.607L412.326 243.527C411.366 243.527 410.406 243.527 409.926 243.047C409.446 242.567 408.966 241.606 408.966 241.126C408.966 239.686 409.926 238.726 411.366 238.726L424.328 236.806L422.887 230.085C422.887 229.125 422.887 228.165 423.367 227.685C424.328 226.724 425.288 226.724 425.768 226.724C426.728 226.724 428.168 227.204 428.168 229.124L429.608 235.846L442.09 233.925C442.57 233.925 443.53 233.926 444.49 234.406C444.97 234.886 445.45 235.365 445.45 236.326C445.45 237.766 444.49 238.726 443.05 238.726L430.568 240.646L432.009 247.847L446.89 245.447C447.851 245.447 448.811 245.447 448.811 245.927C449.291 246.407 449.771 246.887 449.771 248.327C449.771 249.768 448.811 250.728 447.851 250.728L432.969 253.128L435.849 267.05C435.849 268.01 435.849 268.971 435.369 269.451C434.889 270.411 433.929 270.891 432.969 270.891ZM428.648 252.168C429.128 252.168 429.608 252.648 429.608 253.128L432.489 268.491V268.971C432.969 268.971 432.969 268.971 432.969 268.971C432.969 268.971 432.969 268.971 432.969 268.491L430.088 253.128C430.088 252.648 430.088 252.648 430.088 252.168C430.088 251.688 430.568 251.688 431.048 251.688L447.371 249.288C447.371 248.808 447.371 248.808 447.371 248.808L431.048 251.688C430.568 251.688 429.608 251.208 429.608 250.728L427.688 241.126C427.688 240.646 427.688 240.646 427.688 240.166C427.688 239.686 428.168 239.686 428.648 239.686L442.09 237.766C442.09 237.286 442.09 237.286 442.09 237.286C442.09 237.286 442.09 237.286 441.61 237.286L428.168 239.206C427.688 239.206 426.728 238.726 426.728 238.246L425.288 230.565V230.085H424.808V230.565L426.248 238.246C426.248 238.726 426.248 238.726 426.248 239.206C426.248 239.687 425.768 239.686 425.288 239.686L411.366 241.607V242.087C411.366 242.087 411.366 242.087 411.846 242.087L425.768 239.686C426.248 239.686 427.208 240.166 427.208 240.646L429.128 250.248C429.128 250.728 429.128 250.728 429.128 251.208C429.128 251.208 428.648 251.688 428.648 252.168L409.446 254.569C409.446 255.049 409.446 255.048 409.446 255.048L428.648 252.168Z" fill="white"></path><path d="M461.29 234.406C460.81 234.406 459.85 234.406 459.85 232.965C459.85 231.525 460.81 231.525 461.29 231.525H485.293C486.733 231.525 489.614 231.525 489.614 234.886C489.614 237.766 485.293 245.927 481.933 250.728C484.813 252.648 490.574 257.929 496.335 264.65C497.295 265.61 497.295 266.09 497.295 266.57C497.295 267.53 496.335 268.011 495.855 268.011C495.374 268.011 494.894 267.53 494.414 266.57C488.654 259.369 483.853 255.528 480.973 253.128C471.851 264.17 460.81 268.971 460.33 268.971C459.37 268.971 458.89 268.01 458.89 267.53C458.89 267.05 458.89 266.57 460.81 266.09C482.413 255.529 487.693 237.286 487.693 236.326C487.693 235.365 487.213 235.366 485.773 235.366H461.29V234.406Z" fill="white"></path><path d="M458.891 269.931C457.451 269.931 456.011 268.491 456.011 267.05C456.011 265.61 456.971 265.13 458.411 264.17C478.574 254.569 483.854 237.766 484.814 235.846H484.334H461.291C459.371 235.846 458.891 234.405 458.891 233.445C458.891 232.965 458.891 231.045 461.291 231.045H485.294C486.735 231.045 490.575 231.045 490.575 235.366C490.575 238.726 486.255 246.407 483.374 250.728C486.735 253.128 492.015 257.929 496.816 264.17C497.776 265.13 498.256 265.61 498.256 266.57C498.256 268.011 496.816 269.451 495.376 269.451C493.936 269.451 493.455 268.491 492.975 268.011C487.695 261.77 483.374 257.929 480.494 255.528C470.893 265.13 459.851 269.931 458.891 269.931ZM461.291 233.445H484.334C485.294 233.445 487.215 233.445 487.215 235.846C487.215 235.846 482.414 255.529 459.371 266.57C458.891 266.57 458.411 267.05 458.411 267.05C458.411 267.05 458.411 267.53 458.891 267.53C459.851 267.05 470.413 262.73 479.054 252.168C479.054 251.688 479.534 251.688 480.014 251.688C480.494 251.688 480.494 251.688 480.974 252.168C483.854 254.569 489.135 258.889 494.896 266.09C495.376 267.051 495.376 267.05 495.856 267.05C495.856 267.05 496.336 267.05 496.336 266.57C496.336 266.57 495.856 266.091 495.856 265.61C490.575 259.37 484.814 254.569 481.934 252.168C481.454 251.688 481.454 251.208 481.934 250.728C485.775 245.927 489.615 238.246 489.615 235.846C489.615 233.925 488.655 233.925 486.735 233.925L461.291 233.445C461.291 232.965 461.291 232.965 461.291 233.445Z" fill="white"></path><path d="M519.864 268.971C519.864 269.451 519.864 270.412 518.424 270.412C516.983 270.412 516.983 269.451 516.983 268.971V229.605C516.983 229.125 516.983 228.165 518.424 228.165C519.864 228.165 519.864 229.125 519.864 229.605V242.087C530.425 246.888 535.226 250.248 540.027 253.609C541.467 254.569 541.467 255.049 541.467 255.529C541.467 256.009 540.987 256.969 540.027 256.969C539.546 256.969 539.066 256.969 536.666 255.049C530.905 250.728 524.184 247.368 519.384 244.967V268.971H519.864Z" fill="white"></path><path d="M518.42 271.371C517.46 271.371 515.54 270.891 515.54 268.971V229.605C515.54 228.165 516.5 227.205 518.42 227.205C520.341 227.205 521.301 228.165 521.301 229.605V241.607C531.382 245.927 536.183 249.288 540.503 252.648L540.983 253.128C542.423 254.088 542.903 254.569 542.903 256.009C542.903 257.449 541.943 258.889 540.023 258.889C539.063 258.889 538.583 258.409 536.183 256.969C530.422 252.648 524.181 249.288 520.821 247.847V269.451C521.301 270.411 519.861 271.371 518.42 271.371ZM518.42 229.124C517.94 229.124 517.94 229.604 518.42 229.124L517.94 268.491C517.94 268.971 518.42 268.491 518.42 268.491V244.967C518.42 244.487 518.42 244.007 518.9 244.007C519.38 244.007 519.861 243.527 519.861 244.007C523.701 245.927 530.902 249.288 537.143 254.089C538.583 255.049 539.543 255.528 539.543 255.528C540.023 255.528 540.023 255.048 540.023 255.048L539.063 254.089L538.583 253.609C534.262 250.728 528.982 246.887 518.9 242.567C518.42 242.567 517.94 242.087 517.94 241.607L518.42 229.124C518.42 229.124 518.9 229.604 518.42 229.124Z" fill="white"></path><path d="M319.679 68.7803C318.238 68.7803 317.278 67.3401 317.278 65.8998C317.278 65.8998 317.278 64.9395 317.758 62.539C318.238 61.0987 319.199 60.1384 320.639 60.6185C322.079 61.0986 322.559 62.539 322.559 63.9793C322.079 65.4196 322.079 66.3798 322.079 66.3798C322.079 67.8201 320.639 68.7803 319.679 68.7803Z" fill="black"></path><path d="M326.883 51.9775C326.403 51.9775 325.923 51.9777 325.443 51.4976C324.483 50.5374 324.483 48.6172 325.443 47.657C326.403 46.2168 327.843 44.7764 329.283 43.3362C330.243 42.3761 331.684 42.3759 332.644 43.8162C333.604 44.7763 333.124 46.6969 332.164 47.657C331.203 48.6172 329.763 50.0572 328.803 51.0173C327.843 51.4974 327.363 51.9775 326.883 51.9775Z" fill="black"></path><path d="M429.133 75.021C428.173 75.021 427.212 74.5411 426.732 73.1009C426.252 71.6607 425.772 69.7404 424.812 68.3001C424.332 66.8599 424.812 65.4198 425.772 64.4596C426.732 63.9795 428.173 64.4594 429.133 65.4195C430.093 67.3398 430.573 68.7802 431.053 70.7005C431.533 72.1407 431.053 73.5809 429.613 74.541C429.613 75.0211 429.133 75.021 429.133 75.021ZM418.571 56.7783C418.091 56.7783 417.131 56.2981 417.131 55.8181C416.171 54.8579 414.731 53.4179 413.771 52.4578C412.81 51.4976 412.33 49.5771 413.29 48.617C414.251 47.1767 415.691 47.1769 416.651 48.137C418.091 49.5772 419.051 50.5373 420.491 51.9775C421.452 52.9377 421.452 54.8579 420.491 55.8181C420.011 56.2981 419.531 56.7783 418.571 56.7783ZM402.729 44.7764C402.249 44.7764 402.249 44.7764 401.769 44.7764C400.329 44.2964 398.889 43.3364 397.448 42.8563C396.008 42.3763 395.528 40.936 396.008 39.4958C396.488 38.0555 397.928 37.0953 398.889 37.5753C400.329 38.0554 402.249 39.0157 403.689 39.4958C405.129 39.9758 405.61 41.8961 405.13 43.3363C404.649 43.8164 403.689 44.7764 402.729 44.7764ZM342.721 39.9757C341.761 39.9757 340.801 39.0157 340.321 38.0556C339.841 36.6154 340.801 35.1751 341.761 34.695C343.201 34.2149 344.642 33.7349 346.562 33.2549C348.002 32.7748 348.962 33.7348 349.442 35.175C349.922 36.6152 348.962 38.0555 347.522 38.5355C346.082 39.0156 344.642 39.4956 343.201 39.9757C343.201 39.9757 342.721 39.9757 342.721 39.9757ZM384.967 38.5355C384.487 38.5355 384.487 38.5355 384.967 38.5355C384.007 38.5355 383.047 38.0556 382.567 38.0556L380.166 37.5753C378.726 37.5753 377.766 36.1352 378.246 34.695C378.246 33.2548 379.686 32.2947 381.126 32.2947L383.527 32.7746C384.487 32.7746 384.967 33.2549 385.927 33.2549C387.367 33.7349 388.327 35.1749 387.847 36.6151C386.887 37.5753 385.927 38.5355 384.967 38.5355ZM360.964 36.6151C359.524 36.6151 358.563 35.6551 358.563 33.7348C358.563 32.2946 359.524 30.8545 360.964 30.8545C361.924 30.8545 362.884 30.8545 364.324 30.8545H365.764C367.205 30.8545 368.165 32.2946 368.165 33.7348C368.165 35.175 367.205 36.6151 365.764 36.6151H364.324C363.364 36.6151 362.404 36.6151 360.964 36.6151C361.444 36.6151 361.444 36.6151 360.964 36.6151Z" fill="black"></path><path d="M432.493 93.7441C431.053 93.7441 430.093 92.784 430.093 91.3437C430.093 90.3835 430.093 89.4234 430.093 88.4632C430.093 87.023 431.053 85.5825 432.013 85.5825C433.453 85.5825 434.413 86.5427 434.893 87.983C434.893 88.9432 434.893 89.9035 434.893 90.8637C434.893 92.304 433.933 93.7441 432.493 93.7441Z" fill="black"></path><path d="M416.648 84.1426L430.57 117.268L447.853 87.0229L416.648 84.1426Z" fill="black"></path><path d="M262.55 191.199H27.3194C12.9176 191.199 0.916016 179.197 0.916016 164.795V27.0139C0.916016 12.6117 12.9176 0.609863 27.3194 0.609863H262.55C276.952 0.609863 288.953 12.6117 288.953 27.0139V164.795C288.953 179.197 276.952 191.199 262.55 191.199ZM27.7995 11.6518C19.1584 11.6518 12.4375 18.3726 12.4375 27.0139V164.795C12.4375 173.437 19.1584 180.157 27.7995 180.157H263.03C271.671 180.157 278.392 173.437 278.392 164.795V27.0139C278.392 18.3726 271.671 11.6518 263.03 11.6518H27.7995V11.6518Z" fill="black"></path><path d="M169.419 78.3816C167.979 75.9812 165.579 75.021 162.698 75.021C160.298 75.021 157.418 76.4613 155.977 78.3816L131.014 116.308L117.092 100.465C115.652 98.5449 113.252 97.5847 110.852 98.0648C108.451 98.0648 106.051 99.5048 105.091 101.425L82.0479 136.951H207.824L169.419 78.3816Z" fill="#4C4B4C"></path><path d="M117.092 86.063C125.733 86.063 132.934 78.8616 132.934 70.2203C132.934 61.579 125.733 54.3779 117.092 54.3779C108.451 54.3779 101.25 61.579 101.25 70.2203C101.25 79.3417 108.451 86.063 117.092 86.063Z" fill="#4C4B4C"></path></svg> 