<?xml version="1.0" encoding="UTF-8"?> <svg xmlns="http://www.w3.org/2000/svg" width="608" height="327" viewBox="0 0 608 327" fill="none"><path d="M261.868 191.582H26.6378C12.2359 191.582 0.234375 179.58 0.234375 165.178V27.3965C0.234375 12.9943 12.2359 0.992432 26.6378 0.992432H261.868C276.27 0.992432 288.272 12.9943 288.272 27.3965V165.178C288.272 179.58 276.27 191.582 261.868 191.582ZM26.6378 12.0341C17.9967 12.0341 11.2759 18.7552 11.2759 27.3965V165.178C11.2759 173.819 17.9967 180.54 26.6378 180.54H261.868C270.509 180.54 277.23 173.819 277.23 165.178V27.3965C277.23 18.7552 270.509 12.0341 261.868 12.0341H26.6378Z" fill="black"></path><path d="M318.998 69.6428C318.518 69.6428 318.518 69.6428 318.998 69.6428C317.558 69.6428 316.598 68.2027 316.598 66.7625C316.598 66.7625 316.598 65.8023 317.078 63.402C317.558 61.9618 318.518 61.0016 319.958 61.4817C321.398 61.9618 321.878 63.4019 321.878 64.8421C321.398 66.2823 321.398 67.2425 321.398 67.2425C320.918 68.2026 319.958 69.6428 318.998 69.6428Z" fill="black"></path><path d="M325.716 52.3603C325.236 52.3603 324.756 52.3603 324.276 51.8802C323.316 50.92 323.316 48.9997 324.276 48.0396C325.236 46.5994 326.676 45.1592 328.116 43.719C329.076 42.7588 330.517 42.7588 331.477 44.1991C332.437 45.1592 331.957 47.0794 330.997 48.0396C330.037 48.9997 328.596 50.44 327.636 51.4002C327.156 51.8802 326.676 52.3603 325.716 52.3603Z" fill="black"></path><path d="M428.453 75.4038C427.493 75.4038 426.533 74.9237 426.053 73.4835C425.573 72.0433 425.093 70.123 424.133 68.6827C423.653 67.2425 424.133 65.8023 425.093 64.8421C426.053 64.3621 427.493 64.8422 428.453 65.8024C429.414 67.7226 429.894 69.1628 430.374 71.0831C430.854 72.5233 430.374 73.9636 428.934 74.9237C428.934 75.4038 428.453 75.4038 428.453 75.4038ZM417.892 57.161C417.412 57.161 416.452 56.681 416.452 56.2009C415.492 55.2408 414.052 53.8005 413.091 52.8403C412.131 51.8802 411.651 49.96 412.611 48.9998C413.572 47.5596 415.012 47.5596 415.972 48.5197C417.412 49.9599 418.372 50.9201 419.812 52.3603C420.773 53.3204 420.773 55.2408 419.812 56.2009C419.332 56.681 418.372 57.161 417.892 57.161ZM402.05 45.1592C401.57 45.1592 401.57 45.1592 401.09 45.1592C399.65 44.6791 398.21 43.719 396.769 43.2389C395.329 42.7588 394.849 41.3186 395.329 39.8784C395.809 38.4382 397.249 37.478 398.21 37.9581C399.65 38.4382 401.57 39.3983 403.01 39.8784C404.45 40.3585 404.93 42.2788 404.45 43.719C403.97 44.6791 403.01 45.1592 402.05 45.1592ZM341.562 40.8385C340.602 40.8385 339.642 39.8784 339.162 38.9183C338.682 37.478 339.642 36.0378 340.602 35.5578C342.042 35.0777 343.483 34.5976 345.403 34.1175C346.843 33.6375 347.803 34.5976 348.283 36.0378C348.763 37.478 347.803 38.9183 346.363 39.3984C344.923 39.8784 343.482 40.3584 342.042 40.8385C342.042 40.8385 342.042 40.8385 341.562 40.8385ZM383.808 39.3984C382.848 39.3984 381.887 38.9183 381.407 38.9183L379.007 38.4382C377.567 38.4382 376.607 36.998 377.087 35.5578C377.087 34.1175 378.527 33.1574 379.967 33.1574L382.367 33.6374C383.328 33.6374 383.808 34.1175 384.768 34.1175C386.208 34.5976 387.168 36.0378 386.688 37.478C386.208 38.4382 385.248 39.3984 383.808 39.3984ZM360.285 36.998C358.844 36.998 357.884 36.0378 357.884 34.1175C357.884 32.6773 358.844 31.2371 360.285 31.2371C361.245 31.2371 362.205 31.2371 363.645 31.2371H365.085C366.525 31.2371 367.486 32.6773 367.486 34.1175C367.486 35.5577 366.525 36.998 365.085 36.998H363.645C362.685 36.998 361.245 36.998 360.285 36.998Z" fill="black"></path><path d="M431.812 94.1266C430.372 94.1266 429.412 93.1665 429.412 91.7263C429.412 90.7662 429.412 89.806 429.412 88.8458C429.412 87.4056 430.372 85.9655 431.332 85.9655C432.773 85.9655 433.733 86.9256 434.213 88.3658C434.213 89.326 434.213 90.286 434.213 91.2462C434.213 92.6864 433.253 94.1266 431.812 94.1266Z" fill="black"></path><path d="M415.968 85.0052L429.41 117.65L447.172 87.4056L415.968 85.0052Z" fill="black"></path><path d="M581.11 326.002H345.879C331.477 326.002 319.476 314 319.476 299.598V161.817C319.476 147.415 331.477 135.413 345.879 135.413H581.11C595.512 135.413 607.513 147.415 607.513 161.817V299.598C607.513 314.48 595.512 326.002 581.11 326.002ZM345.879 146.935C337.238 146.935 330.517 153.656 330.517 162.297V300.078C330.517 308.719 337.238 315.44 345.879 315.44H581.11C589.751 315.44 596.472 308.719 596.472 300.078V162.297C596.472 153.656 589.751 146.935 581.11 146.935H345.879Z" fill="black"></path><path d="M490.379 210.304C488.939 207.904 486.539 206.944 483.658 206.944C481.258 206.944 478.377 208.384 476.937 210.304L451.974 248.23L438.052 232.388C436.612 230.467 434.212 229.507 431.812 229.987C429.411 229.987 427.011 231.428 426.051 233.348L403.008 268.873H528.784L490.379 210.304Z" fill="#EDBA18"></path><path d="M438.052 217.986C446.693 217.986 453.894 210.785 453.894 202.143C453.894 193.502 446.693 186.301 438.052 186.301C429.411 186.301 422.21 193.502 422.21 202.143C422.21 210.785 429.411 217.986 438.052 217.986Z" fill="#EDBA18"></path><path d="M168.737 78.7643C167.297 76.3639 164.897 75.4038 162.017 75.4038C159.616 75.4038 156.736 76.844 155.296 78.7643L130.332 116.69L116.411 100.848C114.97 98.9273 112.57 97.9672 110.17 98.4473C107.77 98.4473 105.369 99.8876 104.409 101.808L81.3662 137.333H207.142L168.737 78.7643Z" fill="#4C4B4C"></path><path d="M115.932 86.9255C124.573 86.9255 131.774 79.7244 131.774 71.0831C131.774 62.4418 124.573 55.2407 115.932 55.2407C107.291 55.2407 100.09 62.4418 100.09 71.0831C100.57 79.7244 107.291 86.9255 115.932 86.9255Z" fill="#4C4B4C"></path></svg> 