<?xml version="1.0" encoding="UTF-8"?> <svg xmlns="http://www.w3.org/2000/svg" width="629" height="329" viewBox="0 0 629 329" fill="none"><path d="M597.017 323.88H361.786C347.384 323.88 335.383 311.879 335.383 297.476V159.695C335.383 145.293 347.384 133.291 361.786 133.291H597.017C611.419 133.291 623.42 145.293 623.42 159.695V297.476C623.42 312.359 611.419 323.88 597.017 323.88Z" fill="#C0B38D"></path><path d="M597.017 328.681H361.786C344.504 328.681 330.582 314.759 330.582 297.476V159.695C330.582 142.412 344.504 128.49 361.786 128.49H597.017C614.299 128.49 628.221 142.412 628.221 159.695V297.476C628.221 314.759 614.299 328.681 597.017 328.681ZM361.786 138.572C349.785 138.572 340.183 148.173 340.183 160.175V297.956C340.183 309.958 349.785 319.559 361.786 319.559H597.017C609.018 319.559 618.619 309.958 618.619 297.956V160.175C618.619 148.173 609.018 138.572 597.017 138.572H361.786Z" fill="#040000"></path><path d="M388.186 225.945C387.706 225.945 386.746 225.945 386.746 224.505C386.746 223.065 387.706 223.065 388.186 223.065H426.591C427.071 223.065 428.032 223.065 428.032 224.505C428.032 225.945 427.071 225.945 426.591 225.945H410.269C410.269 232.186 409.309 238.427 404.989 243.228C401.148 247.548 395.867 248.989 394.907 248.989C393.947 248.989 393.467 248.029 393.467 247.549C393.467 246.588 393.467 246.588 395.387 246.108C405.949 241.788 406.909 233.146 406.909 225.945H388.186V225.945ZM420.831 210.583C421.311 210.583 422.271 210.583 422.271 212.023C422.271 213.463 421.311 213.463 420.831 213.463H393.467C392.987 213.463 392.027 213.463 392.027 212.023C392.027 210.583 392.987 210.583 393.467 210.583H420.831Z" fill="#040000"></path><path d="M394.91 249.949C393.47 249.949 392.51 248.509 392.51 247.069C392.51 245.628 393.47 245.148 394.91 244.668C404.511 240.828 405.472 233.626 405.952 226.905H388.189C386.269 226.905 385.789 225.465 385.789 224.505C385.789 223.545 386.269 222.105 388.189 222.105H426.594C428.515 222.105 428.995 223.545 428.995 224.505C428.995 225.465 428.515 226.905 426.594 226.905H411.232C411.232 232.666 409.792 238.907 405.472 243.708C401.631 248.029 395.87 249.949 394.91 249.949ZM394.43 247.549C394.91 247.549 394.91 247.549 394.43 247.549C395.39 247.549 400.191 246.108 403.551 242.268C407.872 237.947 408.352 231.706 408.832 225.945C408.832 225.465 409.312 224.985 410.272 224.985H426.594V224.505H388.189H406.912C407.392 224.505 407.392 224.505 407.872 224.985C408.352 225.465 408.352 225.465 408.352 225.945C408.352 232.186 407.872 242.268 395.87 247.069C395.39 247.069 394.91 247.069 394.43 247.549ZM420.834 214.424H393.47C391.55 214.424 391.07 212.983 391.07 212.023C391.07 210.583 392.03 209.623 393.47 209.623H420.834C422.754 209.623 423.234 211.063 423.234 212.023C423.234 212.983 422.754 214.424 420.834 214.424ZM393.47 211.543L420.834 212.023H393.47V211.543Z" fill="#040000"></path><path d="M453.001 209.623C452.521 207.703 454.441 207.702 454.441 207.702C455.401 207.702 455.401 208.183 455.881 209.143L457.321 216.824L470.763 214.904C471.243 214.904 472.683 214.904 472.683 216.344C472.683 217.304 472.203 217.304 471.723 217.784L458.281 219.704L460.202 229.306L476.524 226.906C477.964 226.906 477.964 228.346 477.964 228.346C477.964 229.306 477.004 229.786 477.004 229.786L460.682 232.187L463.562 247.549C464.042 249.469 462.122 249.469 462.122 249.469C461.162 249.469 460.682 248.509 460.682 248.029L457.801 232.667L439.079 235.547C437.639 236.027 437.639 234.107 437.639 234.107C437.639 233.147 438.119 233.147 438.599 232.667L457.321 229.786L455.401 220.185L441.479 222.585C440.039 222.585 439.559 221.625 439.559 221.145C439.559 220.185 440.039 219.704 440.999 219.704L454.921 217.784L453.001 209.623Z" fill="#040000"></path><path d="M461.16 250.429C459.72 250.429 458.76 249.469 458.76 248.029L456.36 234.107L438.597 236.987C437.637 236.987 437.157 236.987 436.677 236.507C436.197 236.027 435.717 235.067 435.717 234.107C435.717 233.627 435.717 232.186 437.637 231.706L454.919 228.826L453.479 221.625L440.517 223.545C439.557 223.545 438.597 223.545 438.117 223.065C437.637 222.585 437.157 221.625 437.157 221.145C437.157 219.705 438.117 218.745 439.557 218.745L452.519 216.824L451.079 210.103C451.079 209.143 451.079 208.183 451.559 207.703C452.519 206.742 453.479 206.743 453.959 206.743C454.919 206.743 455.879 207.223 456.36 209.143L457.8 215.864L470.281 213.944C470.761 213.944 471.722 213.944 472.682 214.424C473.162 214.904 473.642 215.384 473.642 216.344C473.642 217.784 472.682 218.745 471.242 218.745L458.76 220.665L460.2 227.866L475.082 225.465C476.042 225.465 477.002 225.466 477.002 225.946C477.482 226.426 477.962 226.906 477.962 228.346C477.962 229.786 477.002 230.746 476.042 230.746L461.16 233.147L464.041 247.069C464.041 248.029 464.041 248.989 463.56 249.469C463.08 249.949 462.12 250.429 461.16 250.429ZM457.32 231.226C457.8 231.226 458.28 231.706 458.28 232.186L461.16 247.549V248.029C461.64 248.029 461.64 248.029 461.64 248.029C461.64 248.029 461.64 248.029 461.64 247.549L458.76 232.186C458.76 231.706 458.76 231.706 458.76 231.226C458.76 230.746 459.24 230.746 459.72 230.746L476.042 228.346C476.042 227.866 476.042 227.866 476.042 227.866L459.72 230.746C459.24 230.746 458.28 230.266 458.28 229.786L456.36 220.185C456.36 219.705 456.36 219.705 456.36 219.224C456.36 218.744 456.84 218.745 457.32 218.745L470.761 216.824C470.761 216.344 470.761 216.344 470.761 216.344C470.761 216.344 470.761 216.344 470.281 216.344L456.84 218.264C456.36 218.264 455.399 217.784 455.399 217.304L453.959 209.623V209.143H453.479V209.623L454.919 217.304C454.919 217.784 454.919 217.784 454.919 218.264C454.919 218.744 454.439 218.745 453.959 218.745L440.037 220.665V221.145C440.037 221.145 440.037 221.145 440.517 221.145L454.439 218.745C454.919 218.745 455.879 219.224 455.879 219.704L457.8 229.306C457.8 229.786 457.8 229.786 457.8 230.266C457.32 230.746 457.32 231.226 457.32 231.226L438.117 233.627C438.117 234.107 438.117 234.107 438.117 234.107L457.32 231.226C456.84 231.226 456.84 231.226 457.32 231.226Z" fill="#040000"></path><path d="M491.881 213.943C491.401 213.943 490.441 213.943 490.441 212.503C490.441 211.063 491.401 211.063 491.881 211.063H515.884C517.324 211.063 520.204 211.063 520.204 214.423C520.204 217.304 515.884 225.465 512.524 230.266C514.924 232.186 521.165 237.467 526.925 244.188C527.885 245.148 527.885 245.628 527.885 246.108C527.885 247.068 526.925 247.548 526.445 247.548C525.965 247.548 525.485 247.068 525.005 246.108C519.244 238.907 514.444 235.066 511.563 232.666C502.442 243.708 491.401 248.508 490.921 248.508C489.961 248.508 489.48 247.548 489.48 247.068C489.48 246.588 489.48 246.108 491.401 245.628C513.003 235.066 518.284 216.824 518.284 215.863C518.284 214.903 517.804 214.903 516.364 214.903H491.881V213.943Z" fill="#040000"></path><path d="M489.003 248.989C487.563 248.989 486.123 247.548 486.123 246.108C486.123 244.668 487.083 244.188 488.523 243.228C508.686 233.626 513.967 216.824 514.927 214.903H514.447H491.404C489.483 214.903 489.003 213.463 489.003 212.503C489.003 212.023 489.003 210.103 491.404 210.103H515.407C516.847 210.103 520.688 210.103 520.688 214.423C520.688 217.784 516.367 225.465 513.487 229.786C516.847 232.186 522.128 236.987 526.929 243.228C527.889 244.188 528.369 244.668 528.369 245.628C528.369 247.068 526.928 248.509 525.488 248.509C524.048 248.509 523.568 247.548 523.088 247.068C517.807 240.827 513.487 236.987 510.606 234.587C501.005 244.668 490.444 248.989 489.003 248.989ZM491.884 212.983H514.927C515.887 212.983 517.807 212.983 517.807 215.384C517.807 215.384 513.007 235.066 489.964 246.108C489.484 246.108 489.003 246.588 489.003 246.588C489.003 246.588 489.003 247.068 489.483 247.068C490.444 246.588 501.005 242.268 509.646 231.706C509.646 231.226 510.126 231.226 510.606 231.226C511.086 231.226 511.086 231.226 511.566 231.706C514.447 234.106 519.727 238.427 525.488 245.628C525.968 246.588 525.968 246.588 526.448 246.588C526.448 246.588 526.929 246.588 526.929 246.108C526.929 246.108 526.448 245.628 526.448 245.148C521.168 238.907 515.407 234.106 512.527 231.706C512.047 231.226 512.047 230.746 512.527 230.266C516.367 225.465 520.208 217.784 520.208 215.384C520.208 213.463 519.248 213.463 517.327 213.463L491.884 212.983C491.404 212.503 491.404 212.503 491.884 212.983Z" fill="#040000"></path><path d="M551.891 248.509C551.891 248.989 551.891 249.949 550.451 249.949C549.011 249.949 549.011 248.989 549.011 248.509V209.143C549.011 208.663 549.011 207.702 550.451 207.702C551.891 207.702 551.891 208.663 551.891 209.143V221.625C562.453 226.425 567.253 229.786 572.054 233.147C573.494 234.107 573.494 234.587 573.494 235.067C573.494 235.547 573.014 236.507 572.054 236.507C571.574 236.507 571.094 236.507 568.693 234.587C562.933 230.266 556.212 226.905 551.411 224.505V248.509H551.891Z" fill="#040000"></path><path d="M550.448 250.909C549.488 250.909 547.567 250.429 547.567 248.509V209.143C547.567 207.703 548.528 206.743 550.448 206.743C552.368 206.743 553.328 207.703 553.328 209.143V221.145C563.41 225.466 568.21 228.826 572.531 232.187L573.011 232.666C574.451 233.627 574.931 234.107 574.931 235.547C574.931 236.987 573.971 238.427 572.051 238.427C571.09 238.427 570.61 237.947 568.21 236.507C562.449 232.186 556.209 228.826 552.848 227.386V248.989C553.328 249.949 552.368 250.909 550.448 250.909ZM550.448 208.663C550.448 208.663 549.968 208.663 550.448 208.663L549.968 248.029C549.968 248.509 550.448 248.029 550.448 248.029V224.505C550.448 224.025 550.448 223.545 550.928 223.545C551.408 223.545 551.888 223.065 551.888 223.545C555.728 225.466 562.929 228.826 569.17 233.627C570.61 234.587 571.571 235.067 571.571 235.067C572.051 235.067 572.051 234.587 572.051 234.587L571.09 233.627L570.61 233.147C566.29 230.266 561.009 226.425 550.928 222.105C550.448 222.105 549.968 221.625 549.968 221.145L550.448 208.663C550.928 208.663 550.928 208.663 550.448 208.663Z" fill="#040000"></path><path d="M380.503 70.4014C380.023 70.4014 380.023 70.4014 380.503 70.4014C379.063 70.4014 378.103 68.9613 378.103 67.5211C378.103 67.5211 378.103 66.561 378.583 64.1607C379.063 62.7205 380.023 61.7603 381.463 62.2403C382.903 62.7204 383.383 64.1606 383.383 65.6008C382.903 67.041 382.903 68.0011 382.903 68.0011C382.423 69.4413 381.463 70.4014 380.503 70.4014Z" fill="black"></path><path d="M387.221 53.5989C386.741 53.5989 386.261 53.599 385.781 53.1189C384.821 52.1588 384.821 50.2382 385.781 49.2781C386.741 47.8378 388.181 46.3978 389.621 44.9575C390.581 43.9974 392.021 43.9973 392.982 45.4375C393.942 46.3977 393.462 48.3179 392.501 49.2781C391.541 50.2382 390.101 51.6785 389.141 52.6387C388.661 53.1187 388.181 53.5989 387.221 53.5989Z" fill="black"></path><path d="M489.958 76.6423C488.998 76.6423 488.038 76.1624 487.558 74.7222C487.078 73.282 486.598 71.3617 485.638 69.9215C485.158 68.4813 485.638 67.0408 486.598 66.0807C487.558 65.6006 488.998 66.0807 489.958 67.0409C490.919 68.9612 491.399 70.4016 491.879 72.3219C492.359 73.7621 491.879 75.2022 490.439 76.1624C490.439 76.6424 489.958 76.6423 489.958 76.6423ZM479.397 58.3996C478.917 58.3996 477.957 57.9195 477.957 57.4394C476.997 56.4793 475.557 55.039 474.596 54.0789C473.636 53.1187 473.156 51.1985 474.116 50.2383C475.077 48.7981 476.517 48.7982 477.477 49.7584C478.917 51.1986 479.877 52.1587 481.317 53.5989C482.277 54.559 482.277 56.4793 481.317 57.4394C480.837 57.9195 479.877 58.3996 479.397 58.3996ZM463.555 46.3978C463.075 46.3978 463.075 46.3978 462.595 46.3978C461.155 45.9177 459.714 44.9575 458.274 44.4774C456.834 43.9973 456.354 42.5573 456.834 41.1171C457.314 39.6769 458.754 38.7166 459.714 39.1967C461.155 39.6768 463.075 40.6371 464.515 41.1171C465.955 41.5972 466.435 43.5174 465.955 44.9577C465.475 45.9178 464.515 46.3978 463.555 46.3978ZM403.067 42.077C402.107 42.077 401.147 41.1171 400.667 40.1569C400.187 38.7167 401.147 37.2764 402.107 36.7964C403.547 36.3163 404.987 35.8363 406.908 35.3562C408.348 34.8761 409.308 35.8361 409.788 37.2763C410.268 38.7165 409.308 40.1568 407.868 40.6369C406.428 41.117 404.987 41.597 403.547 42.077C403.547 41.597 403.547 42.077 403.067 42.077ZM445.313 40.1569C444.352 40.1569 443.392 39.6767 442.912 39.6767L440.512 39.1967C439.072 39.1967 438.112 37.7566 438.592 36.3164C438.592 34.8762 440.032 33.916 441.472 33.916L443.872 34.396C444.833 34.396 445.313 34.8759 446.273 34.8759C447.713 35.356 448.673 36.7963 448.193 38.2365C447.713 39.1967 446.753 40.1569 445.313 40.1569ZM421.79 38.2365C420.349 38.2365 419.389 37.2765 419.389 35.3562C419.389 33.916 420.349 32.4756 421.79 32.4756C422.75 32.4756 423.71 32.4756 425.15 32.4756H426.59C428.03 32.4756 428.991 33.916 428.991 35.3562C428.991 36.7964 428.03 38.2365 426.59 38.2365H425.15C424.19 38.2365 422.75 38.2365 421.79 38.2365Z" fill="black"></path><path d="M493.317 95.3655C491.877 95.3655 490.917 94.4053 490.917 92.9651C490.917 92.0049 490.917 91.0446 490.917 90.0844C490.917 88.6442 491.877 87.2041 492.837 87.2041C494.278 87.2041 495.238 88.1643 495.718 89.6045C495.718 90.5646 495.718 91.5247 495.718 92.4848C495.718 93.9251 494.758 95.3655 493.317 95.3655Z" fill="black"></path><path d="M477.473 86.2439L490.914 118.889L508.677 88.6443L477.473 86.2439Z" fill="black"></path><path d="M285.933 190.9H50.7023C36.3004 190.9 24.2988 178.898 24.2988 164.496V26.7148C24.2988 12.3126 36.3004 0.310791 50.7023 0.310791H285.933C300.335 0.310791 312.336 12.3126 312.336 26.7148V164.496C312.336 178.898 300.335 190.9 285.933 190.9ZM51.1824 11.3524C42.5412 11.3524 35.8203 18.0735 35.8203 26.7148V164.496C35.8203 173.137 42.5412 179.858 51.1824 179.858H286.413C295.054 179.858 301.775 173.137 301.775 164.496V26.7148C301.775 18.0735 295.054 11.3524 286.413 11.3524H51.1824Z" fill="black"></path><path d="M192.324 72.8018C190.883 70.4014 188.483 69.4412 185.603 69.4412C183.202 69.4412 180.322 70.8814 178.882 72.8018L153.919 111.208L139.997 95.3654C138.557 93.4451 136.156 92.4849 133.756 92.965C131.356 92.965 128.955 94.4053 127.995 96.3256L104.952 131.851H230.729L192.324 72.8018Z" fill="#4C4B4C"></path><path d="M139.996 80.9631C148.637 80.9631 155.838 73.7621 155.838 65.1208C155.838 56.4794 148.637 49.2781 139.996 49.2781C131.355 49.2781 124.154 56.4794 124.154 65.1208C124.154 73.7621 130.875 80.9631 139.996 80.9631Z" fill="#4C4B4C"></path><path d="M253.286 152.974C250.406 152.974 248.485 150.574 248.485 148.173C248.485 145.293 250.886 143.372 253.286 143.372C254.246 143.372 317.134 142.892 322.415 101.606C327.216 66.0807 287.37 52.6387 269.608 48.3181C267.208 47.838 265.287 44.9575 266.248 42.5572C266.728 40.1568 269.608 38.2364 272.008 39.1966C287.85 43.0372 338.257 58.3994 332.016 103.046C325.295 152.014 257.607 152.974 253.286 152.974Z" fill="black"></path><path d="M291.209 29.1152L293.609 33.4357L272.967 44.4774L285.448 64.6406L281.128 67.041L265.766 42.5573L291.209 29.1152Z" fill="black"></path><path d="M67.9837 149.614C46.3808 149.614 7.97585 144.333 1.73504 106.887C-6.90608 57.4395 58.8625 35.8364 61.7428 35.3563C64.1431 34.3961 67.0235 35.8364 67.9837 38.7169C68.9438 41.1172 67.5035 43.9976 64.6232 44.9578C64.1431 44.9578 4.13535 64.6408 11.3363 105.927C17.5771 141.453 59.8226 141.932 77.5849 140.492C80.4653 140.492 82.3855 142.413 82.8655 144.813C82.8655 147.693 80.9453 149.614 78.545 150.094C75.6646 149.134 71.8242 149.614 67.9837 149.614Z" fill="black"></path><path d="M62.7049 164.496L59.3445 161.135L75.6666 143.853L57.9043 128.97L60.7847 125.13L82.8676 143.853L62.7049 164.496Z" fill="black"></path></svg> 