<?xml version="1.0" encoding="UTF-8"?> <svg xmlns="http://www.w3.org/2000/svg" width="640" height="383" viewBox="0 0 640 383" fill="none"><path d="M381.207 112.704C379.767 112.704 378.807 111.264 378.807 109.824C378.807 109.824 378.807 108.864 379.287 106.463C379.767 105.023 380.727 104.063 382.167 104.543C383.607 105.023 384.087 106.463 384.087 107.903C383.607 109.344 383.607 110.304 383.607 110.304C383.607 111.744 382.647 112.704 381.207 112.704Z" fill="black"></path><path d="M388.411 95.9019C387.931 95.9019 387.451 95.9017 386.971 95.4216C386.011 94.4614 386.011 92.5412 386.971 91.581C387.931 90.1408 389.371 88.7008 390.812 87.2605C391.772 86.3004 393.212 86.3003 394.172 87.7405C395.132 88.7006 394.652 90.6209 393.692 91.581C392.732 92.5412 391.292 93.9815 390.331 94.9416C389.851 95.4217 388.891 95.9019 388.411 95.9019Z" fill="black"></path><path d="M490.661 118.945C489.701 118.945 488.741 118.465 488.261 117.025C487.781 115.585 487.3 113.664 486.34 112.224C485.86 110.784 486.34 109.344 487.3 108.384C488.261 107.904 489.701 108.384 490.661 109.344C491.621 111.264 492.101 112.704 492.581 114.625C493.061 116.065 492.581 117.505 491.141 118.465C491.621 118.945 491.141 118.945 490.661 118.945ZM480.58 100.703C480.1 100.703 479.139 100.222 479.139 99.7423C478.179 98.7821 476.739 97.3419 475.779 96.3817C474.819 95.4216 474.339 93.5013 475.299 92.5412C476.259 91.1009 477.699 91.1011 478.659 92.0612C480.1 93.5014 481.06 94.4615 482.5 95.9018C483.46 96.8619 483.46 98.7821 482.5 99.7423C481.54 100.222 481.06 100.703 480.58 100.703ZM464.738 88.7006C464.257 88.7006 464.257 88.7006 463.777 88.7006C462.337 88.2205 460.897 87.2603 459.457 86.7802C458.017 86.3001 457.537 84.8598 458.017 83.4196C458.497 81.9794 459.937 81.0194 460.897 81.4995C462.337 81.9796 464.257 82.9395 465.698 83.4196C467.138 83.8997 467.618 85.8202 467.138 87.2605C466.658 87.7405 465.698 88.7006 464.738 88.7006ZM404.25 83.8999C403.29 83.8999 402.329 82.9396 401.849 81.9795C401.369 80.5392 402.329 79.0989 403.29 78.6189C404.73 78.1388 406.17 77.6588 408.09 77.1787C409.53 76.6986 410.49 77.6589 410.971 79.0991C411.451 80.5393 410.49 81.9796 409.05 82.4597C407.61 82.9398 406.17 83.4198 404.73 83.8999C404.73 83.8999 404.73 83.8999 404.25 83.8999ZM446.495 82.4597C445.535 82.4597 444.575 81.9795 444.095 81.9795L441.695 81.4995C440.254 81.4995 439.294 80.0591 439.774 78.6189C439.774 77.1786 441.214 76.2185 442.655 76.2185L445.055 76.6987C446.015 76.6987 446.495 77.1787 447.455 77.1787C448.895 77.6588 449.856 79.0991 449.376 80.5393C448.895 81.4994 447.935 82.4597 446.495 82.4597ZM422.972 80.5393C421.532 80.5393 420.572 79.5792 420.572 77.6589C420.572 76.2187 421.532 74.7783 422.972 74.7783C423.932 74.7783 424.892 74.7783 426.333 74.7783H427.773C429.213 74.7783 430.173 76.2187 430.173 77.6589C430.173 79.0992 429.213 80.5393 427.773 80.5393H426.333C424.892 80.5393 423.932 80.5393 422.972 80.5393Z" fill="black"></path><path d="M494.5 137.668C493.06 137.668 492.1 136.708 492.1 135.268C492.1 134.308 492.1 133.347 492.1 132.387C492.1 130.947 493.06 129.507 494.02 129.507C495.46 129.507 496.42 130.467 496.9 131.907C496.9 132.867 496.9 133.827 496.9 134.787C496.9 136.228 495.94 137.668 494.5 137.668Z" fill="black"></path><path d="M478.177 128.067L492.099 161.191L509.861 130.947L478.177 128.067Z" fill="black"></path><path d="M55.2438 230.322C40.3619 230.802 28.3604 218.8 28.3604 203.918V61.8162C28.3604 47.414 40.3619 35.4121 54.7638 35.4121L282.793 44.0537C296.235 44.5337 307.277 55.0953 308.237 68.5373L316.398 199.117C316.398 213.519 304.396 225.521 289.994 225.521L55.2438 230.322ZM39.4018 61.8162V205.838C39.4018 213.52 45.6426 219.761 53.3236 219.281L289.994 214.96C298.635 214.96 305.356 208.239 305.356 199.598L296.715 68.5373C296.235 61.8163 290.474 56.0555 283.754 56.0555L55.2438 46.934C46.1227 46.4539 39.4018 53.6549 39.4018 61.8162Z" fill="black"></path><path d="M197.342 108.384C195.902 105.983 193.502 105.023 190.621 105.023C188.221 105.023 185.34 106.463 183.9 108.384L158.937 146.31L145.015 130.467C143.575 128.547 141.175 127.587 138.774 128.067C136.374 128.067 133.974 129.507 133.014 131.427L109.971 166.953H235.747L197.342 108.384Z" fill="#4C4B4C"></path><path d="M145.015 116.065C153.656 116.065 160.857 108.864 160.857 100.222C160.857 91.5809 153.656 84.3799 145.015 84.3799C136.374 84.3799 129.173 91.5809 129.173 100.222C129.173 109.344 136.374 116.065 145.015 116.065Z" fill="#4C4B4C"></path><path d="M34.1244 259.126C27.8836 259.126 22.1229 257.687 16.8422 254.806C-18.6824 233.683 15.402 174.154 16.8422 171.753C18.2824 169.353 21.1627 168.873 23.563 169.833C25.9634 171.273 26.4434 174.154 25.4833 176.554C25.0032 177.034 -5.2407 230.322 22.1229 246.645C49.0064 262.967 113.815 210.159 136.378 189.036C138.298 187.115 141.178 187.115 143.099 189.036C145.019 190.956 145.019 193.837 143.099 195.757C135.418 202.958 74.9297 259.126 34.1244 259.126Z" fill="black"></path><path d="M321.685 109.824C320.725 109.824 319.764 109.344 318.804 108.864C316.884 107.424 316.404 104.063 317.844 102.143C318.324 101.663 350.488 58.936 345.688 32.0518C344.728 25.8109 341.367 20.5299 336.567 17.1693C304.882 -4.43402 233.353 33.0119 232.873 33.492C230.473 34.9322 227.592 33.972 226.152 31.5716C224.712 29.1712 225.672 26.2909 228.072 24.8507C231.433 23.4105 305.363 -15.4758 341.847 9.00802C349.048 13.8088 353.849 21.01 355.289 30.1314C360.57 61.3363 326.965 105.983 325.525 107.423C324.565 108.864 323.125 109.824 321.685 109.824Z" fill="black"></path><path d="M345.684 107.423L345.204 103.103L322.161 105.983L320.721 82.9399H315.92L317.84 111.264L345.684 107.423Z" fill="black"></path><path d="M315.44 113.665L313.52 80.539L323.121 80.0591L324.081 103.103L347.124 100.222L348.084 109.824L315.44 113.665Z" fill="black"></path><path d="M150.296 206.318L145.976 205.838L144.536 185.675L122.453 185.195L121.973 181.354L148.856 181.834L150.296 206.318Z" fill="black"></path><path d="M153.178 209.199L143.577 208.239L142.617 188.076L120.534 187.596L119.094 178.474L151.258 179.434L153.178 209.199Z" fill="black"></path><path d="M608.758 377.225H373.527C359.126 377.225 347.124 365.223 347.124 350.821V213.039C347.124 198.637 359.126 186.635 373.527 186.635H608.758C623.16 186.635 635.161 198.637 635.161 213.039V350.821C635.161 365.703 623.16 377.225 608.758 377.225Z" fill="#C0B38D"></path><path d="M608.758 382.025H373.527C356.245 382.025 342.323 368.103 342.323 350.821V213.039C342.323 195.757 356.245 181.834 373.527 181.834H608.758C626.04 181.834 639.962 195.757 639.962 213.039V350.821C639.962 368.103 626.04 382.025 608.758 382.025ZM374.007 191.916C362.006 191.916 352.405 201.517 352.405 213.519V351.301C352.405 363.302 362.006 372.904 374.007 372.904H609.238C621.24 372.904 630.841 363.302 630.841 351.301V213.519C630.841 201.517 621.24 191.916 609.238 191.916H374.007Z" fill="#040000"></path><path d="M399.935 278.81C399.455 278.81 398.495 278.81 398.495 277.369C398.495 275.929 399.455 275.929 399.935 275.929H438.34C438.82 275.929 439.78 275.929 439.78 277.369C439.78 278.81 438.82 278.81 438.34 278.81H422.018C422.018 285.051 421.058 291.292 416.737 296.092C412.897 300.413 407.616 301.853 406.656 301.853C405.696 301.853 405.216 300.893 405.216 300.413C405.216 299.453 405.216 299.453 407.136 298.973C417.698 294.652 418.658 286.011 418.658 278.81H399.935ZM432.58 263.927C433.06 263.927 434.02 263.927 434.02 265.368C434.02 266.808 433.06 266.808 432.58 266.808H405.216C404.736 266.808 403.776 266.808 403.776 265.368C403.776 263.927 404.736 263.927 405.216 263.927H432.58Z" fill="#040000"></path><path d="M406.653 303.293C405.213 303.293 404.253 301.853 404.253 300.413C404.253 298.973 405.213 298.493 406.653 298.013C416.254 294.172 417.214 286.971 417.694 280.25H399.932C398.012 280.25 397.052 278.81 397.052 277.849C397.052 276.889 397.532 275.449 399.932 275.449H438.337C440.257 275.449 440.737 276.889 440.737 277.849C440.737 278.81 440.257 280.25 438.337 280.25H422.975C422.975 286.011 422.015 292.252 417.214 297.052C413.374 301.373 407.613 303.293 406.653 303.293ZM406.653 300.893C407.613 300.893 412.414 299.453 415.774 295.612C420.095 291.292 420.575 284.571 421.055 279.29C421.055 278.81 421.535 278.329 422.495 278.329H438.817V277.849H400.412H399.932H400.412H419.135C419.615 277.849 419.615 277.849 420.095 278.329C420.575 278.809 420.575 278.81 420.575 279.29C420.575 285.531 420.095 295.612 408.093 300.413C407.133 300.413 406.653 300.413 406.653 300.893ZM432.576 267.768H405.213C403.293 267.768 402.812 266.328 402.812 265.368C402.812 263.927 403.773 262.967 405.213 262.967H432.576C434.497 262.967 434.977 264.408 434.977 265.368C434.977 266.328 434.497 267.768 432.576 267.768ZM405.693 264.888L433.056 265.368H405.693V264.888Z" fill="#040000"></path><path d="M464.742 262.967C464.262 261.047 466.182 261.047 466.182 261.047C467.142 261.047 467.622 261.527 467.622 262.487L469.062 270.168L482.504 268.248C482.984 268.248 484.424 268.248 484.424 269.688C484.424 270.649 483.944 270.648 483.464 271.128L470.023 273.049L471.943 282.65L488.265 280.25C489.705 280.25 489.705 281.69 489.705 281.69C489.705 282.65 488.745 283.13 488.745 283.13L472.423 285.53L475.303 300.893C475.783 302.813 473.863 302.813 473.863 302.813C472.903 302.813 472.423 301.853 472.423 301.373L469.542 286.011L450.82 288.891C449.38 289.371 449.38 287.451 449.38 287.451C449.38 286.491 450.34 286.491 450.34 286.011L469.062 283.13L467.142 273.529L453.22 275.929C451.78 275.929 451.3 274.969 451.3 274.489C451.3 273.529 451.78 273.049 452.74 273.049L466.662 271.128L464.742 262.967Z" fill="#040000"></path><path d="M473.38 303.773C471.94 303.773 470.98 302.813 470.98 301.373L468.579 287.451L450.817 290.331C449.857 290.331 449.377 290.331 448.897 289.851C448.417 289.371 447.937 288.411 447.937 287.451C447.937 286.971 447.937 285.531 449.857 285.05L467.139 282.17L465.699 274.969L452.737 276.889C451.777 276.889 450.817 276.89 450.337 276.41C449.857 275.929 449.377 274.969 449.377 274.489C449.377 273.049 450.337 272.089 451.777 272.089L464.739 270.168L463.299 263.447C463.299 262.487 463.299 261.527 463.779 261.047C464.739 260.087 465.699 260.087 466.179 260.087C467.139 260.087 468.579 260.567 468.579 262.487L470.019 269.208L482.501 267.288C482.981 267.288 483.941 267.288 484.901 267.768C485.381 268.248 485.861 268.728 485.861 269.688C485.861 271.129 484.901 272.089 483.461 272.089L470.98 274.009L472.42 281.21L487.302 278.81C488.262 278.81 489.222 278.81 489.222 279.29C489.702 279.77 490.182 280.25 490.182 281.69C490.182 283.13 489.222 284.091 488.262 284.091L473.38 286.491L476.26 300.413C476.26 301.373 476.26 302.333 475.78 302.814C474.82 303.774 473.86 303.773 473.38 303.773ZM469.059 284.571C469.539 284.571 470.019 285.05 470.019 285.53L472.9 300.893V301.373C473.38 301.373 473.38 301.373 473.38 301.373C473.38 301.373 473.38 301.373 473.38 300.893L470.499 285.53C470.499 285.05 470.499 285.051 470.499 284.571C470.499 284.09 470.98 284.091 471.46 284.091L487.782 281.69C487.782 281.21 487.782 281.21 487.782 281.21L471.46 284.091C470.98 284.091 470.019 283.61 470.019 283.13L468.099 273.529C468.099 273.049 468.099 273.049 468.099 272.569C468.099 272.089 468.579 272.089 469.059 272.089L482.501 270.168C482.501 269.688 482.501 269.688 482.501 269.688C482.501 269.688 482.501 269.688 482.021 269.688L468.579 271.609C468.099 271.609 467.139 271.128 467.139 270.648L466.659 262.967V262.487H466.179V262.967L467.619 270.648C467.619 271.128 467.619 271.129 467.619 271.609C467.619 272.089 467.139 272.089 466.659 272.089L452.737 274.009V274.489C452.737 274.489 452.737 274.489 453.217 274.489L467.139 272.089C467.619 272.089 468.579 272.569 468.579 273.049L470.499 282.65C470.499 283.13 470.499 283.131 470.499 283.611C469.539 284.091 469.059 284.09 469.059 284.571L449.857 286.971C449.857 287.451 449.857 287.451 449.857 287.451L469.059 284.571Z" fill="#040000"></path><path d="M503.623 267.288C503.143 267.288 502.183 267.288 502.183 265.848C502.183 264.407 503.143 264.408 503.623 264.408H527.626C529.066 264.408 531.947 264.407 531.947 267.768C531.947 270.648 527.626 278.81 524.266 283.611C527.146 285.531 532.907 290.811 538.668 297.532C539.628 298.492 539.628 298.973 539.628 299.453C539.628 300.413 538.668 300.893 538.187 300.893C537.707 300.893 537.227 300.413 536.747 299.453C530.987 292.252 526.186 288.411 523.306 286.011C514.184 297.053 503.143 301.853 502.663 301.853C501.703 301.853 501.223 300.893 501.223 300.413C501.223 299.933 501.223 299.453 503.143 298.973C524.746 288.411 530.026 270.169 530.026 269.208C530.026 268.248 529.546 268.248 528.106 268.248H503.623V267.288Z" fill="#040000"></path><path d="M501.224 302.333C499.784 302.333 498.344 300.893 498.344 299.453C498.344 298.012 499.304 297.532 500.744 296.572C520.907 286.971 526.187 270.168 527.147 268.248H526.667H503.624C501.704 268.248 501.224 266.807 501.224 265.847C501.224 265.367 501.224 263.447 503.624 263.447H527.628C529.068 263.447 532.908 263.447 532.908 267.768C532.908 271.128 528.588 278.809 525.707 283.13C529.068 285.53 534.348 290.331 539.149 296.572C540.109 297.532 540.589 298.013 540.589 298.973C540.589 300.413 539.149 301.853 537.709 301.853C536.269 301.853 535.789 300.893 535.309 300.413C530.028 294.172 525.707 290.331 522.827 287.931C513.226 298.012 502.184 302.333 501.224 302.333ZM503.624 266.327H526.667C527.628 266.327 529.548 266.327 529.548 268.728C529.548 268.728 524.747 288.411 501.704 299.453C501.224 299.453 500.744 299.933 500.744 299.933C500.744 299.933 500.744 300.413 501.224 300.413C502.184 299.933 512.746 295.612 521.387 285.05C521.387 284.57 521.867 284.57 522.347 284.57C522.827 284.57 522.827 284.57 523.307 285.05C526.187 287.451 531.468 291.772 537.229 298.973C537.709 299.933 537.709 299.933 538.189 299.933C538.189 299.933 538.669 299.933 538.669 299.453C538.669 299.453 538.189 298.973 538.189 298.493C532.908 292.252 527.147 287.451 524.267 285.05C523.787 284.57 523.787 284.09 524.267 283.61C528.108 278.81 531.948 271.128 531.948 268.728C531.948 266.807 530.988 266.808 529.068 266.808L503.624 266.327C503.144 265.847 503.144 265.847 503.624 266.327Z" fill="#040000"></path><path d="M564.118 301.853C564.118 302.333 564.118 303.293 562.678 303.293C561.237 303.293 561.237 302.333 561.237 301.853V262.487C561.237 262.007 561.237 261.047 562.678 261.047C564.118 261.047 564.118 262.007 564.118 262.487V274.969C574.679 279.77 579.48 283.13 584.28 286.491C585.72 287.451 585.72 287.931 585.72 288.411C585.72 288.891 585.24 289.851 584.28 289.851C583.8 289.851 583.32 289.851 580.92 287.931C575.159 283.61 568.438 280.25 563.638 277.849V301.853H564.118Z" fill="#040000"></path><path d="M562.196 304.253C561.236 304.253 559.315 303.773 559.315 301.853V262.487C559.315 261.047 560.276 260.087 562.196 260.087C564.116 260.087 565.076 261.047 565.076 262.487V274.489C575.157 278.81 579.958 282.17 584.279 285.53L584.759 286.011C586.199 286.971 586.679 287.451 586.679 288.891C586.679 290.332 585.719 291.772 583.799 291.772C582.838 291.772 582.358 291.291 579.958 289.851C574.197 285.531 567.957 282.17 564.596 280.73V302.333C565.076 303.293 564.116 304.253 562.196 304.253ZM562.196 262.007L561.716 301.373C561.716 301.853 562.196 301.373 562.196 301.373V277.849C562.196 277.369 562.196 276.889 562.676 276.889C563.156 276.889 563.636 276.409 563.636 276.889C567.476 278.81 574.677 282.17 580.918 286.971C582.358 287.931 583.319 288.411 583.319 288.411C583.799 288.411 583.799 287.931 583.799 287.931L582.838 286.971L582.358 286.491C578.038 283.611 572.757 279.77 562.676 275.449C562.196 275.449 561.716 274.969 561.716 274.489L562.196 262.007C562.676 262.007 562.676 262.007 562.196 262.007Z" fill="#040000"></path></svg> 