<?xml version="1.0" encoding="UTF-8"?> <svg xmlns="http://www.w3.org/2000/svg" width="611" height="340" viewBox="0 0 611 340" fill="none"><path d="M579.758 334.85H344.527C330.126 334.85 318.124 322.848 318.124 308.446V170.665C318.124 156.263 330.126 144.261 344.527 144.261H579.758C594.16 144.261 606.161 156.263 606.161 170.665V308.446C606.161 322.848 594.16 334.85 579.758 334.85Z" fill="#C0B38D"></path><path d="M579.758 339.651H344.527C327.245 339.651 313.323 325.728 313.323 308.446V170.665C313.323 153.382 327.245 139.46 344.527 139.46H579.758C597.04 139.46 610.962 153.382 610.962 170.665V308.446C610.962 325.728 597.04 339.651 579.758 339.651ZM345.007 149.061C333.006 149.061 323.405 158.663 323.405 170.665V308.446C323.405 320.448 333.006 330.049 345.007 330.049H580.238C592.24 330.049 601.841 320.448 601.841 308.446V170.665C601.841 158.663 592.24 149.061 580.238 149.061H345.007Z" fill="#040000"></path><path d="M371.414 236.435C370.934 236.435 369.974 236.435 369.974 234.994C369.974 233.554 370.934 233.554 371.414 233.554H409.819C410.299 233.554 411.259 233.554 411.259 234.994C411.259 236.435 410.299 236.435 409.819 236.435H393.497C393.497 242.676 392.537 248.917 388.216 253.717C384.375 258.038 379.095 259.478 378.135 259.478C377.175 259.478 376.695 258.518 376.695 258.038C376.695 257.078 376.694 257.078 378.615 256.598C389.176 252.277 390.136 243.636 390.136 236.435H371.414V236.435ZM404.058 221.073C404.538 221.073 405.498 221.072 405.498 222.513C405.498 223.953 404.538 223.953 404.058 223.953H376.695C376.214 223.953 375.254 223.953 375.254 222.513C375.254 221.072 376.214 221.073 376.695 221.073H404.058Z" fill="#040000"></path><path d="M377.651 260.919C376.211 260.919 375.251 259.479 375.251 258.038C375.251 256.598 376.211 256.118 377.651 255.638C387.253 251.797 388.213 244.596 388.693 237.875H370.931C369.01 237.875 368.53 236.435 368.53 235.475C368.53 234.514 369.01 233.074 370.931 233.074H409.336C411.256 233.074 411.736 234.514 411.736 235.475C411.736 236.435 411.256 237.875 409.336 237.875H393.974C393.974 243.636 392.533 249.877 388.213 254.678C384.372 258.998 379.092 260.919 377.651 260.919ZM377.651 258.038C377.651 258.518 377.651 258.518 377.651 258.038C378.612 258.038 383.412 256.598 386.773 252.757C391.093 248.437 391.573 242.196 392.053 236.435C392.053 235.955 392.533 235.475 393.494 235.475H409.816V234.994H371.411H390.133C390.613 234.994 390.613 234.995 391.093 235.475C391.573 235.955 391.573 235.955 391.573 236.435C391.573 242.676 391.093 252.757 379.092 257.558C378.132 258.038 377.651 258.038 377.651 258.038ZM404.055 225.393H376.691C374.771 225.393 374.291 223.953 374.291 222.992C374.291 221.552 375.251 220.592 376.691 220.592H404.055C405.975 220.592 406.455 222.032 406.455 222.992C406.455 223.953 405.975 225.393 404.055 225.393ZM376.691 222.512L404.055 222.992H376.691V222.512Z" fill="#040000"></path><path d="M435.742 220.592C435.262 218.672 437.182 218.672 437.182 218.672C438.142 218.672 438.142 219.152 438.622 220.112L440.062 227.793L453.504 225.873C453.984 225.873 455.424 225.873 455.424 227.313C455.424 228.273 454.944 228.273 454.464 228.753L441.023 230.674L442.943 240.275L459.265 237.875C460.705 237.875 460.705 239.315 460.705 239.315C460.705 240.275 459.745 240.755 459.745 240.755L443.423 243.156L446.303 258.518C446.783 260.438 444.863 260.438 444.863 260.438C443.903 260.438 443.423 259.478 443.423 258.998L440.542 243.636L421.82 246.516C420.38 246.996 420.38 245.076 420.38 245.076C420.38 244.116 420.86 244.116 421.34 243.636L440.062 240.755L438.142 231.154L424.22 233.554C422.78 233.554 422.3 232.594 422.3 232.114C422.3 231.154 422.78 230.674 423.74 230.674L437.662 228.753L435.742 220.592Z" fill="#040000"></path><path d="M444.38 261.398C442.94 261.398 441.98 260.438 441.98 258.998L439.579 245.076L421.817 247.956C420.857 247.956 420.377 247.956 419.897 247.476C419.417 246.996 418.937 246.036 418.937 245.076C418.937 244.596 418.937 243.156 420.857 242.676L438.139 239.795L436.699 232.594L423.737 234.514C422.777 234.514 421.817 234.514 421.337 234.034C420.857 233.554 420.377 232.594 420.377 232.114C420.377 230.674 421.337 229.714 422.777 229.714L435.739 227.793L434.299 221.072C434.299 220.112 434.299 219.152 434.779 218.672C435.739 217.712 436.699 217.712 437.179 217.712C438.139 217.712 439.099 218.192 439.579 220.112L441.019 226.833L453.501 224.913C453.981 224.913 454.941 224.913 455.901 225.393C456.381 225.873 456.861 226.353 456.861 227.313C456.861 228.753 455.901 229.714 454.461 229.714L441.98 231.634L443.42 238.835L458.302 236.435C459.262 236.435 459.742 236.435 460.222 236.915C460.702 237.395 461.182 237.875 461.182 239.315C461.182 240.755 460.222 241.715 459.262 241.715L444.38 244.116L447.26 258.038C447.26 258.998 447.26 259.958 446.78 260.439C445.82 260.919 445.34 261.398 444.38 261.398ZM440.059 242.195C440.539 242.195 441.019 242.676 441.019 243.156L443.9 258.518V258.998C444.38 258.998 444.38 258.998 444.38 258.998C444.38 258.998 444.38 258.998 444.38 258.518L441.499 243.156C441.499 242.676 441.499 242.675 441.499 242.195C441.499 241.715 441.98 241.715 442.46 241.715L458.782 239.315C458.782 238.835 458.782 238.835 458.782 238.835L442.46 241.715C441.98 241.715 441.019 241.235 441.019 240.755L439.099 231.154C439.099 230.674 439.099 230.674 439.099 230.194C439.099 229.713 439.579 229.714 440.059 229.714L453.501 227.793C453.501 227.313 453.501 227.313 453.501 227.313C453.501 227.313 453.501 227.313 453.021 227.313L439.579 229.234C439.099 229.234 438.139 228.753 438.139 228.273L437.659 220.112V219.632H437.179V220.112L438.619 227.793C438.619 228.273 438.619 228.273 438.619 228.753C438.619 229.233 438.139 229.234 437.659 229.234L423.737 231.154V231.634C423.737 231.634 423.737 231.634 424.217 231.634L438.139 229.234C438.619 229.234 439.579 229.713 439.579 230.194L441.499 239.795C441.499 240.275 441.499 240.275 441.499 240.755C440.539 241.715 440.059 241.715 440.059 242.195L420.857 244.596C420.857 245.076 420.857 245.076 420.857 245.076L440.059 242.195Z" fill="#040000"></path><path d="M474.623 224.913C474.143 224.913 473.183 224.913 473.183 223.473C473.183 222.033 474.143 222.033 474.623 222.033H498.626C500.066 222.033 502.947 222.032 502.947 225.393C502.947 228.273 498.626 236.435 495.266 241.236C497.666 243.156 503.907 248.436 509.668 255.158C510.628 256.118 510.628 256.598 510.628 257.078C510.628 258.038 509.668 258.518 509.187 258.518C508.707 258.518 508.227 258.038 507.747 257.078C501.987 249.877 497.186 246.036 494.306 243.636C485.184 254.678 474.143 259.478 473.663 259.478C472.703 259.478 472.223 258.518 472.223 258.038C472.223 257.558 472.223 257.078 474.143 256.598C495.746 246.036 501.026 227.794 501.026 226.833C501.026 225.873 500.546 225.873 499.106 225.873H474.623V224.913Z" fill="#040000"></path><path d="M472.224 259.958C470.784 259.958 469.344 258.518 469.344 257.078C469.344 255.638 470.304 255.158 471.744 254.198C491.907 244.596 497.187 227.794 498.147 225.873H497.667H474.624C472.704 225.873 472.224 224.433 472.224 223.473C472.224 222.993 472.224 221.073 474.624 221.073H498.628C500.068 221.073 503.908 221.072 503.908 225.393C503.908 228.754 499.588 236.435 496.707 240.755C500.068 243.156 505.348 247.957 510.149 254.198C511.109 255.158 511.589 255.638 511.589 256.598C511.589 258.038 510.149 259.479 508.709 259.479C507.269 259.479 506.789 258.518 506.309 258.038C501.028 251.797 496.707 247.957 493.827 245.556C484.226 255.158 473.184 259.958 472.224 259.958ZM474.624 223.473H497.667C498.628 223.473 500.548 223.473 500.548 225.873C500.548 225.873 495.747 245.556 472.704 256.598C472.224 256.598 471.744 257.078 471.744 257.078C471.744 257.078 471.744 257.558 472.224 257.558C473.184 257.078 483.746 252.757 492.387 242.196C492.387 241.716 492.867 241.716 493.347 241.716C493.827 241.716 493.827 241.716 494.307 242.196C497.187 244.596 502.468 248.917 508.229 256.118C508.709 257.078 508.709 257.078 509.189 257.078C509.189 257.078 509.669 257.078 509.669 256.598C509.669 256.598 509.189 256.118 509.189 255.638C503.908 249.397 498.147 244.596 495.267 242.196C494.787 241.716 494.787 241.236 495.267 240.755C499.108 235.955 502.948 228.274 502.948 225.873C502.948 223.953 501.988 223.953 500.068 223.953L474.624 223.473C474.144 223.473 474.624 223.473 474.624 223.473Z" fill="#040000"></path><path d="M535.118 258.998C535.118 259.478 535.118 260.438 533.678 260.438C532.237 260.438 532.237 259.478 532.237 258.998V220.112C532.237 219.632 532.237 218.672 533.678 218.672C535.118 218.672 535.118 219.632 535.118 220.112V232.594C545.679 237.395 550.48 240.755 555.28 244.116C556.72 245.076 556.72 245.556 556.72 246.036C556.72 246.516 556.24 247.476 555.28 247.476C554.8 247.476 554.32 247.476 551.92 245.556C546.159 241.235 539.438 237.875 534.638 235.475V258.998H535.118Z" fill="#040000"></path><path d="M533.674 261.879C532.714 261.879 530.794 261.399 530.794 259.479V220.112C530.794 218.672 531.754 217.712 533.674 217.712C535.595 217.712 536.555 218.672 536.555 220.112V232.114C546.636 236.435 551.437 239.795 555.757 243.156L556.237 243.636C557.677 244.596 558.157 245.076 558.157 246.516C558.157 247.957 557.197 249.397 555.277 249.397C554.317 249.397 553.837 248.917 551.437 247.477C545.676 243.156 539.435 239.795 536.075 238.355V259.958C536.075 260.919 535.114 261.879 533.674 261.879ZM533.194 219.632L532.714 258.998C532.714 259.478 533.194 258.998 533.194 258.998V235.475C533.194 234.995 533.194 234.514 533.674 234.514C534.154 234.514 534.634 234.034 534.634 234.514C538.475 236.435 545.676 239.795 551.917 244.596C553.357 245.556 554.317 246.036 554.317 246.036C554.797 246.036 554.797 245.556 554.797 245.556L553.837 244.596L553.357 244.116C549.036 241.235 543.756 237.395 533.674 233.074C533.194 233.074 532.714 232.594 532.714 232.114L533.194 219.632C533.674 219.632 533.674 219.632 533.194 219.632Z" fill="#040000"></path><path d="M234.591 7.43994H263.875C271.556 7.43994 277.316 13.6808 277.316 20.8819V173.065C277.316 180.746 271.076 186.507 263.875 186.507H234.591V7.43994Z" fill="#C0B38D"></path><path d="M262.438 191.308H27.2071C12.8053 191.308 0.803711 179.306 0.803711 164.904V27.1225C0.803711 12.7203 12.8053 0.718506 27.2071 0.718506H262.438C276.84 0.718506 288.841 12.7203 288.841 27.1225V164.904C288.841 179.786 276.84 191.308 262.438 191.308ZM27.2071 12.2404C18.566 12.2404 11.8451 18.9615 11.8451 27.6028V165.384C11.8451 174.025 18.566 180.746 27.2071 180.746H262.438C271.079 180.746 277.8 174.025 277.8 165.384V27.6028C277.8 18.9615 271.079 12.2404 262.438 12.2404H27.2071Z" fill="black"></path><path d="M319.566 69.3691C319.086 69.3691 319.086 69.3691 319.566 69.3691C318.126 69.3691 317.166 67.929 317.166 66.4887C317.166 66.4887 317.166 65.5285 317.646 63.1281C318.126 61.6878 319.086 60.7278 320.526 61.2079C321.967 61.688 322.447 63.128 322.447 64.5683C321.967 66.0085 321.967 66.9687 321.967 66.9687C321.487 68.409 320.526 69.3691 319.566 69.3691Z" fill="black"></path><path d="M326.284 52.0867C325.804 52.0867 325.324 52.0868 324.844 51.6067C323.884 50.6465 323.884 48.7259 324.844 47.7657C325.804 46.3255 327.244 44.8854 328.685 43.4451C329.645 42.4849 331.085 42.4848 332.045 43.9251C333.005 44.8853 332.525 46.8056 331.565 47.7657C330.605 48.7259 329.165 50.1663 328.205 51.1264C327.724 52.0866 327.244 52.0867 326.284 52.0867Z" fill="black"></path><path d="M429.022 75.1299C428.062 75.1299 427.102 74.65 426.622 73.2098C426.141 71.7695 425.661 69.8493 424.701 68.409C424.221 66.9688 424.701 65.5284 425.661 64.5682C426.622 64.0881 428.062 64.5683 429.022 65.5284C429.982 67.4487 430.462 68.8891 430.942 70.8094C431.422 72.2496 430.942 73.6898 429.502 74.6499C429.502 75.13 429.022 75.1299 429.022 75.1299ZM418.46 56.8872C417.98 56.8872 417.02 56.407 417.02 55.927C416.06 54.9668 414.62 53.5265 413.66 52.5664C412.7 51.6062 412.22 49.686 413.18 48.7259C414.14 47.2857 415.58 47.2858 416.54 48.2459C417.98 49.6861 418.941 50.6462 420.381 52.0864C421.341 53.0466 421.341 54.9668 420.381 55.927C419.901 56.8871 418.941 56.8872 418.46 56.8872ZM402.618 45.3653C402.138 45.3653 402.138 45.3653 401.658 45.3653C400.218 44.8852 398.778 43.9253 397.338 43.4452C395.898 42.9651 395.417 41.5248 395.898 40.0846C396.378 38.6444 397.818 37.6841 398.778 38.1642C400.218 38.6443 402.138 39.6045 403.579 40.0846C405.019 40.5647 405.499 42.4849 405.019 43.9251C404.539 44.4052 403.579 45.3653 402.618 45.3653ZM342.131 40.5646C341.17 40.5646 340.21 39.6046 339.73 38.6445C339.25 37.2042 340.21 35.764 341.17 35.2839C342.611 34.8038 344.051 34.3238 345.971 33.8437C347.411 33.3637 348.371 34.3236 348.851 35.7638C349.331 37.2041 348.371 38.6443 346.931 39.1244C345.491 39.6045 344.051 40.0845 342.611 40.5646C342.611 40.5646 342.611 40.5646 342.131 40.5646ZM384.376 39.1244C383.416 39.1244 382.456 38.6445 381.976 38.6445L379.575 38.1642C378.135 38.1642 377.175 36.7241 377.655 35.2839C377.655 33.8437 379.095 32.8835 380.536 32.8835L382.936 33.3635C383.896 33.3635 384.376 33.8437 385.336 33.8437C386.776 34.3238 387.736 35.7641 387.256 37.2043C386.776 38.1644 385.816 39.1244 384.376 39.1244ZM360.853 37.2043C359.413 37.2043 358.453 36.244 358.453 34.3237C358.453 32.8835 359.413 31.4434 360.853 31.4434C361.813 31.4434 362.773 31.4434 364.213 31.4434H365.654C367.094 31.4434 368.054 32.8835 368.054 34.3237C368.054 35.7639 367.094 37.2043 365.654 37.2043H364.213C363.253 37.2043 361.813 37.2043 360.853 37.2043Z" fill="black"></path><path d="M432.381 94.333C430.941 94.333 429.98 93.3729 429.98 91.9326C429.98 90.9725 429.98 90.0124 429.98 89.0523C429.98 87.612 430.941 86.1716 431.901 86.1716C433.341 86.1716 434.301 87.1318 434.781 88.572C434.781 89.5322 434.781 90.4925 434.781 91.4527C434.781 92.8929 433.821 94.333 432.381 94.333Z" fill="black"></path><path d="M416.536 84.7312L429.978 117.857L447.74 87.1316L416.536 84.7312Z" fill="black"></path><path d="M163.542 78.4905C162.102 76.0901 159.702 75.1299 156.821 75.1299C154.421 75.1299 151.541 76.5702 150.1 78.4905L125.137 116.416L111.215 100.574C109.775 98.6535 107.375 97.6933 104.975 98.1734C102.574 98.1734 100.174 99.6137 99.2139 101.534L76.1709 137.06H202.427L163.542 78.4905Z" fill="#4C4B4C"></path><path d="M111.215 86.6516C119.856 86.6516 127.057 79.4506 127.057 70.8094C127.057 62.1681 119.856 54.9668 111.215 54.9668C102.574 54.9668 95.373 62.1681 95.373 70.8094C95.373 79.4506 102.574 86.6516 111.215 86.6516Z" fill="#4C4B4C"></path><path d="M196.673 96.7333C196.673 95.2931 197.153 94.333 198.113 94.333H257.161C258.121 94.333 258.601 95.2931 258.601 96.7333C258.601 98.1734 258.121 99.1335 257.161 99.1335H198.113C197.153 99.1335 196.673 98.1734 196.673 96.7333Z" fill="black"></path><path d="M257.161 101.534H198.113C195.713 101.534 194.272 99.6136 194.272 96.7332C194.272 93.8527 195.713 91.9324 198.113 91.9324H257.161C259.561 91.9324 261.001 93.8527 261.001 96.7332C261.001 99.6136 259.081 101.534 257.161 101.534Z" fill="black"></path><path d="M209.628 77.5305L212.988 81.371L195.706 96.7334L212.988 112.576L209.628 116.417L188.985 96.7334L209.628 77.5305Z" fill="black"></path><path d="M209.631 119.777L185.628 96.7333L209.631 74.1697L216.352 81.3708L199.55 96.7333L216.352 112.576L209.631 119.777Z" fill="black"></path></svg> 