<?xml version="1.0" encoding="UTF-8"?> <svg xmlns="http://www.w3.org/2000/svg" width="606" height="339" viewBox="0 0 606 339" fill="none"><path d="M574.546 333.85H339.316C324.914 333.85 312.912 321.848 312.912 307.446V169.665C312.912 155.263 324.914 143.261 339.316 143.261H574.546C588.948 143.261 600.95 155.263 600.95 169.665V307.446C600.47 321.848 588.948 333.85 574.546 333.85Z" fill="#C0B38D"></path><path d="M574.546 338.651H339.315C322.033 338.651 308.111 324.728 308.111 307.446V169.665C308.111 152.382 322.033 138.46 339.315 138.46H574.546C591.828 138.46 605.75 152.382 605.75 169.665V307.446C605.27 324.728 591.348 338.651 574.546 338.651ZM339.315 148.061C327.314 148.061 317.713 157.663 317.713 169.665V307.446C317.713 319.448 327.314 329.049 339.315 329.049H574.546C586.548 329.049 596.149 319.448 596.149 307.446V169.665C596.149 157.663 586.548 148.061 574.546 148.061H339.315Z" fill="#040000"></path><path d="M365.716 235.435C365.236 235.435 364.275 235.435 364.275 233.994C364.275 232.554 365.236 232.554 365.716 232.554H404.121C404.601 232.554 405.561 232.554 405.561 233.994C405.561 235.435 404.601 235.435 404.121 235.435H387.799C387.799 241.676 386.838 247.917 382.518 252.717C378.677 257.038 373.397 258.478 372.437 258.478C371.476 258.478 370.996 257.518 370.996 257.038C370.996 256.078 370.996 256.078 372.917 255.598C383.478 251.277 384.438 242.636 384.438 235.435H365.716V235.435ZM398.36 220.073C398.84 220.073 399.8 220.072 399.8 221.513C399.8 222.953 398.84 222.953 398.36 222.953H370.996C370.516 222.953 369.556 222.953 369.556 221.513C369.556 220.072 370.516 220.073 370.996 220.073H398.36Z" fill="#040000"></path><path d="M372.44 259.919C370.999 259.919 370.039 258.479 370.039 257.038C370.039 255.598 370.999 255.118 372.44 254.638C382.041 250.797 383.001 243.596 383.481 236.875H365.719C363.798 236.875 363.318 235.435 363.318 234.475C363.318 233.514 363.798 232.074 365.719 232.074H404.124C406.044 232.074 406.524 233.514 406.524 234.475C406.524 235.435 406.044 236.875 404.124 236.875H388.762C388.762 242.636 387.322 248.877 383.001 253.678C378.68 257.998 373.4 259.919 372.44 259.919ZM371.959 257.038C371.959 257.518 371.959 257.518 371.959 257.038C372.92 257.038 377.72 255.598 381.081 251.757C385.401 247.437 385.881 241.196 386.361 235.435C386.361 234.955 386.841 234.475 387.802 234.475H404.124V233.994H365.719H384.441C384.921 233.994 384.921 233.995 385.401 234.475C385.881 234.955 385.881 234.955 385.881 235.435C385.881 241.676 385.401 251.757 373.4 256.558C372.92 257.038 372.44 257.038 371.959 257.038ZM398.363 224.393H370.999C369.079 224.393 368.599 222.953 368.599 221.992C368.599 220.552 369.559 219.592 370.999 219.592H398.363C400.283 219.592 400.763 221.032 400.763 221.992C400.763 222.953 400.283 224.393 398.363 224.393ZM370.999 221.512L398.363 221.992H370.999V221.512Z" fill="#040000"></path><path d="M430.53 219.592C430.05 217.672 431.97 217.672 431.97 217.672C432.93 217.672 432.93 218.152 433.41 219.112L434.85 226.793L448.292 224.873C448.772 224.873 450.212 224.873 450.212 226.313C450.212 227.273 449.732 227.273 449.252 227.753L435.811 229.674L437.731 239.275L454.053 236.875C455.493 236.875 455.493 238.315 455.493 238.315C455.493 239.275 454.533 239.755 454.533 239.755L438.211 242.156L441.091 257.518C441.571 259.438 439.651 259.438 439.651 259.438C438.691 259.438 438.211 258.478 438.211 257.998L435.331 242.636L416.608 245.516C415.168 245.996 415.168 244.076 415.168 244.076C415.168 243.116 415.648 243.116 416.128 242.636L434.85 239.755L432.93 230.154L419.009 232.554C417.568 232.554 417.088 231.594 417.088 231.114C417.088 230.154 417.568 229.674 418.528 229.674L432.45 227.753L430.53 219.592Z" fill="#040000"></path><path d="M438.689 260.398C437.249 260.398 436.289 259.438 436.289 257.998L433.889 244.076L416.127 246.956C415.166 246.956 414.686 246.956 414.206 246.476C413.726 245.996 413.246 245.036 413.246 244.076C413.246 243.596 413.246 242.156 415.166 241.676L432.449 238.795L431.009 231.594L418.047 233.514C417.087 233.514 416.126 233.514 415.646 233.034C415.166 232.554 414.686 231.594 414.686 231.114C414.686 229.674 415.646 228.714 417.087 228.714L430.048 226.793L428.608 220.072C428.608 219.112 428.608 218.152 429.088 217.672C430.048 216.712 431.008 216.712 431.488 216.712C432.449 216.712 433.409 217.192 433.889 219.112L435.329 225.833L447.811 223.913C448.291 223.913 449.251 223.913 450.211 224.393C450.691 224.873 451.171 225.353 451.171 226.313C451.171 227.753 450.211 228.714 448.771 228.714L436.289 230.634L437.729 237.835L452.611 235.435C453.572 235.435 454.052 235.435 454.532 235.915C455.012 236.395 455.492 236.875 455.492 238.315C455.492 239.755 454.532 240.715 453.571 240.715L438.689 243.116L441.57 257.038C441.57 257.998 441.57 258.958 441.09 259.439C440.61 259.919 439.65 260.398 438.689 260.398ZM434.369 241.195C434.849 241.195 435.329 241.676 435.329 242.156L438.209 257.518V257.998C438.69 257.998 438.689 257.998 438.689 257.998C438.689 257.998 438.689 257.998 438.689 257.518L435.809 242.156C435.809 241.676 435.809 241.675 435.809 241.195C435.809 240.715 436.289 240.715 436.769 240.715L453.091 238.315C453.091 237.835 453.091 237.835 453.091 237.835L436.769 240.715C436.289 240.715 435.329 240.235 435.329 239.755L433.409 230.154C433.409 229.674 433.409 229.674 433.409 229.194C433.409 228.713 433.889 228.714 434.369 228.714L447.811 226.793C447.811 226.313 447.811 226.313 447.811 226.313C447.811 226.313 447.811 226.313 447.331 226.313L433.889 228.234C433.409 228.234 432.449 227.753 432.449 227.273L431.009 219.592V219.112H430.528V219.592L431.969 227.273C431.969 227.753 431.969 227.754 431.969 228.234C431.969 228.714 431.489 228.714 431.009 228.714L417.087 230.634V231.114C417.087 231.114 417.087 231.114 417.567 231.114L431.488 228.714C431.969 228.714 432.929 229.194 432.929 229.674L434.849 239.275C434.849 239.755 434.849 239.755 434.849 240.235C434.849 240.716 434.369 240.715 434.369 241.195L415.166 243.596C415.166 244.076 415.166 244.076 415.166 244.076L434.369 241.195Z" fill="#040000"></path><path d="M468.933 223.913C468.452 223.913 467.492 223.913 467.492 222.473C467.492 221.033 468.452 221.033 468.933 221.033H492.936C494.376 221.033 497.256 221.032 497.256 224.393C497.256 227.273 492.936 235.435 489.575 240.236C491.975 242.156 498.216 247.436 503.977 254.158C504.937 255.118 504.937 255.598 504.937 256.078C504.937 257.038 503.977 257.518 503.497 257.518C503.017 257.518 502.537 257.038 502.057 256.078C496.296 248.877 491.495 245.036 488.615 242.636C479.494 253.678 468.452 258.478 467.972 258.478C467.012 258.478 466.532 257.518 466.532 257.038C466.532 256.558 466.532 256.078 468.452 255.598C490.055 245.036 495.336 226.794 495.336 225.833C495.336 224.873 494.856 224.873 493.416 224.873H468.933V223.913Z" fill="#040000"></path><path d="M466.534 258.958C465.094 258.958 463.653 257.518 463.653 256.078C463.653 254.638 464.613 254.158 466.054 253.198C486.216 243.596 491.497 226.794 492.457 224.873H491.977H468.934C467.014 224.873 466.534 223.433 466.534 222.473C466.534 221.993 466.534 220.073 468.934 220.073H492.937C494.377 220.073 498.218 220.072 498.218 224.393C498.218 227.754 493.897 235.435 491.017 239.755C494.377 242.156 499.658 246.957 504.459 253.198C505.419 254.158 505.899 254.638 505.899 255.598C505.899 257.038 504.459 258.479 503.018 258.479C501.578 258.479 501.098 257.518 500.618 257.038C495.337 250.797 491.017 246.957 488.136 244.556C478.535 254.158 467.494 258.958 466.534 258.958ZM468.934 222.473H491.977C492.937 222.473 494.857 222.473 494.857 224.873C494.857 224.873 490.057 244.556 467.014 255.598C466.534 255.598 466.054 256.078 466.054 256.078C466.054 256.078 466.054 256.558 466.534 256.558C467.494 256.078 478.055 251.757 486.696 241.196C486.696 240.716 487.176 240.716 487.656 240.716C488.136 240.716 488.137 240.716 488.617 241.196C491.497 243.596 496.778 247.917 502.538 255.118C503.018 256.078 503.018 256.078 503.498 256.078C503.498 256.078 503.978 256.078 503.978 255.598C503.978 255.598 503.498 255.118 503.498 254.638C498.218 248.397 492.457 243.596 489.577 241.196C489.097 240.716 489.097 240.236 489.577 239.755C493.417 234.955 497.258 227.274 497.258 224.873C497.258 222.953 496.297 222.953 494.377 222.953L468.934 222.473Z" fill="#040000"></path><path d="M529.42 257.998C529.42 258.478 529.42 259.438 527.98 259.438C526.54 259.438 526.54 258.478 526.54 257.998V219.112C526.54 218.632 526.54 217.672 527.98 217.672C529.42 217.672 529.42 218.632 529.42 219.112V231.594C539.982 236.395 544.782 239.755 549.583 243.116C551.023 244.076 551.023 244.556 551.023 245.036C551.023 245.516 550.543 246.476 549.583 246.476C549.103 246.476 548.623 246.476 546.223 244.556C540.462 240.235 533.741 236.875 528.94 234.475V257.998H529.42Z" fill="#040000"></path><path d="M527.977 260.879C527.017 260.879 525.097 260.399 525.097 258.479V219.112C525.097 217.672 526.057 216.712 527.977 216.712C529.897 216.712 530.858 217.672 530.858 219.112V231.114C540.939 235.435 545.74 238.795 550.06 242.156L550.54 242.636C551.98 243.596 552.46 244.076 552.46 245.516C552.46 246.957 551.5 248.397 549.58 248.397C548.62 248.397 548.14 247.917 545.74 246.477C539.979 242.156 533.738 238.795 530.377 237.355V258.958C530.377 259.919 529.417 260.879 527.977 260.879ZM527.977 218.632C527.497 218.632 527.497 218.632 527.977 218.632L527.497 257.998C527.497 258.478 527.977 257.998 527.977 257.998V234.475C527.977 233.995 527.977 233.514 528.457 233.514C528.937 233.514 529.417 233.034 529.417 233.514C533.258 235.435 540.459 238.795 546.7 243.596C548.14 244.556 549.1 245.036 549.1 245.036C549.58 245.036 549.58 244.556 549.58 244.556L548.62 243.596L548.14 243.116C543.819 240.235 538.539 236.395 528.457 232.074C527.977 232.074 527.497 231.594 527.497 231.114L527.977 218.632C527.977 218.632 528.457 218.632 527.977 218.632Z" fill="#040000"></path><path d="M318.677 68.3691C317.237 68.3691 316.276 66.929 316.276 65.4887C316.276 65.4887 316.276 64.5285 316.756 62.1281C317.237 60.6878 318.197 59.7278 319.637 60.2079C321.077 60.688 321.557 62.128 321.557 63.5683C321.077 65.0085 321.077 65.9687 321.077 65.9687C321.077 67.409 320.117 68.3691 318.677 68.3691Z" fill="black"></path><path d="M325.881 51.5667C325.401 51.5667 324.921 51.5668 324.441 51.0867C323.481 50.1266 323.481 48.2063 324.441 47.2462C325.401 45.806 326.841 44.3656 328.281 42.9254C329.241 41.9653 330.682 41.9655 331.642 43.4057C332.602 44.3658 332.122 46.286 331.162 47.2462C330.202 48.2063 328.761 49.6466 327.801 50.6067C327.321 51.0868 326.361 51.5667 325.881 51.5667Z" fill="black"></path><path d="M428.131 74.6101C427.171 74.6101 426.21 74.1299 425.73 72.6897C425.25 71.2495 424.77 69.3292 423.81 67.889C423.33 66.4488 423.81 65.0086 424.77 64.0484C425.73 63.5684 427.171 64.0485 428.131 65.0087C429.091 66.9289 429.571 68.369 430.051 70.2893C430.531 71.7296 430.051 73.1697 428.611 74.1299C429.091 74.6099 428.611 74.6101 428.131 74.6101ZM418.049 56.3671C417.569 56.3671 416.609 55.8873 416.609 55.4072C415.649 54.4471 414.209 53.0068 413.249 52.0466C412.289 51.0865 411.809 49.1663 412.769 48.2061C413.729 46.7659 415.169 46.7657 416.129 47.7259C417.569 49.1661 418.529 50.1262 419.97 51.5664C420.93 52.5265 420.93 54.4471 419.97 55.4072C419.009 55.8873 418.529 56.3671 418.049 56.3671ZM402.207 44.3653C401.727 44.3653 401.727 44.3653 401.247 44.3653C399.807 43.8852 398.367 42.9252 396.927 42.4452C395.486 41.9651 395.006 40.5248 395.486 39.0846C395.966 37.6444 397.407 36.6841 398.367 37.1642C399.807 37.6443 401.727 38.6045 403.167 39.0846C404.608 39.5647 405.088 41.4849 404.608 42.9251C404.128 43.4052 403.167 44.3653 402.207 44.3653ZM341.719 39.5646C340.759 39.5646 339.799 38.6046 339.319 37.6444C338.839 36.2042 339.799 34.764 340.759 34.2839C342.199 33.8038 343.64 33.3238 345.56 32.8437C347 32.3637 347.96 33.3236 348.44 34.7638C348.92 36.2041 347.96 37.6443 346.52 38.1244C345.08 38.6045 343.64 39.0845 342.2 39.5646C342.2 39.5646 342.199 39.5646 341.719 39.5646ZM383.965 38.1244C383.965 38.1244 383.485 38.1244 383.965 38.1244C383.005 38.1244 382.045 37.6444 381.565 37.6444L379.164 37.1642C377.724 37.1642 376.764 35.7241 377.244 34.2839C377.244 32.8437 378.684 31.8835 380.124 31.8835L382.525 32.3635C383.485 32.3635 383.965 32.8437 384.925 32.8437C386.365 33.3238 387.325 34.7641 386.845 36.2043C386.365 37.1644 384.925 38.1244 383.965 38.1244ZM360.442 36.2043C359.002 36.2043 358.042 35.244 358.042 33.3237C358.042 31.8835 359.002 30.4434 360.442 30.4434C361.402 30.4434 362.362 30.4434 363.802 30.4434H365.242C366.683 30.4434 367.643 31.8835 367.643 33.3237C367.643 34.7639 366.683 36.2043 365.242 36.2043H363.802C362.362 36.2043 361.402 36.2043 360.442 36.2043Z" fill="black"></path><path d="M431.971 93.333C430.53 93.333 429.57 92.3729 429.57 90.9326C429.57 89.9725 429.57 89.0124 429.57 88.0523C429.57 86.612 430.53 85.1716 431.491 85.1716C432.931 85.1716 433.891 86.1318 434.371 87.572C434.371 88.5322 434.371 89.4925 434.371 90.4527C434.371 91.8929 433.411 93.333 431.971 93.333Z" fill="black"></path><path d="M415.646 83.7312L429.568 116.857L447.331 86.6118L415.646 83.7312Z" fill="black"></path><path d="M167.932 72.6899C166.492 70.2895 164.091 69.3293 161.211 69.3293C158.811 69.3293 155.93 70.7696 154.49 72.6899L129.527 110.616L115.605 94.773C114.165 92.8527 111.765 91.8926 109.364 92.3727C106.964 92.3727 104.564 93.8129 103.603 95.7332L80.5605 131.259H206.817L167.932 72.6899Z" fill="#4C4B4C"></path><path d="M115.605 80.8511C124.246 80.8511 131.447 73.6501 131.447 65.0088C131.447 56.3675 124.246 49.1663 115.605 49.1663C106.964 49.1663 99.7627 56.3675 99.7627 65.0088C99.7627 73.6501 106.964 80.8511 115.605 80.8511Z" fill="#4C4B4C"></path><path d="M10.706 73.6489L10.7061 116.856L282.901 116.855L282.901 73.6487L10.706 73.6489Z" fill="#C0B38D"></path><path d="M146.812 158.623C145.372 158.623 144.412 158.143 144.412 157.663V108.215C144.412 107.735 145.372 107.255 146.812 107.255C148.253 107.255 149.213 107.735 149.213 108.215V157.663C149.213 157.663 148.253 158.623 146.812 158.623Z" fill="black"></path><path d="M146.812 161.023C143.932 161.023 142.012 159.583 142.012 157.663V108.216C142.012 106.295 143.932 104.855 146.812 104.855C149.693 104.855 151.613 106.295 151.613 108.216V157.663C151.613 159.103 149.693 161.023 146.812 161.023Z" fill="black"></path><path d="M127.609 140.38L130.97 137.02L146.812 154.302L162.654 137.02L166.014 140.38L146.812 161.023L127.609 140.38Z" fill="black"></path><path d="M146.815 164.864L124.252 140.38L130.973 133.659L146.815 150.942L162.177 133.659L169.378 140.38L146.815 164.864Z" fill="black"></path><path d="M146.812 35.7241C145.372 35.7241 144.412 36.2043 144.412 36.6843V86.1318C144.412 86.6119 145.372 87.092 146.812 87.092C148.253 87.092 149.213 86.6119 149.213 86.1318V36.6843C149.213 36.2043 148.253 35.7241 146.812 35.7241Z" fill="black"></path><path d="M146.812 89.9722C143.932 89.9722 142.012 88.5322 142.012 86.6119V37.1645C142.012 35.2442 143.932 33.8042 146.812 33.8042C149.693 33.8042 151.613 35.2442 151.613 37.1645V86.6119C151.613 88.5322 149.693 89.9722 146.812 89.9722ZM146.812 85.1715V38.1247V85.1715Z" fill="black"></path><path d="M127.609 49.1662L130.97 52.0469L146.812 35.2441L162.654 52.0469L166.014 49.1662L146.812 28.043L127.609 49.1662Z" fill="black"></path><path d="M162.177 55.4072L146.815 38.6048L130.973 55.4072L124.252 49.1661L146.815 24.6826L169.378 49.1661L162.177 55.4072Z" fill="black"></path><path d="M262.027 190.788H26.796C12.3941 190.788 0.392578 178.786 0.392578 164.384V26.603C0.392578 12.2008 12.3941 0.198975 26.796 0.198975H262.027C276.428 0.198975 288.43 12.2008 288.43 26.603V164.384C287.95 178.786 276.428 190.788 262.027 190.788ZM26.796 11.2406C18.1549 11.2406 11.434 17.9617 11.434 26.603V164.384C11.434 173.025 18.1549 179.746 26.796 179.746H262.027C270.668 179.746 277.389 173.025 277.389 164.384V26.603C277.389 17.9617 270.668 11.2406 262.027 11.2406H26.796Z" fill="black"></path></svg> 