<?xml version="1.0" encoding="UTF-8"?> <svg xmlns="http://www.w3.org/2000/svg" width="608" height="327" viewBox="0 0 608 327" fill="none"><path d="M262.212 191.447H26.9816C12.5797 191.447 0.578125 179.446 0.578125 165.043V27.2621C0.578125 12.8599 12.5797 0.858032 26.9816 0.858032H262.212C276.614 0.858032 288.616 12.8599 288.616 27.2621V165.043C288.136 179.926 276.614 191.447 262.212 191.447ZM26.9816 12.3799C18.3404 12.3799 11.6195 19.1009 11.6195 27.7422V165.043C11.6195 173.685 18.3404 180.406 26.9816 180.406H262.212C270.853 180.406 277.574 173.685 277.574 165.043V27.2621C277.574 18.6208 270.853 11.8998 262.212 11.8998H26.9816V12.3799Z" fill="black"></path><path d="M318.862 69.5089C317.422 69.5089 316.462 68.0687 316.462 66.6284C316.462 66.6284 316.462 65.6682 316.942 63.2678C317.422 61.8276 318.382 60.8675 319.822 61.3475C321.263 61.8276 321.743 63.2679 321.743 64.7081C321.263 66.1484 321.263 67.1085 321.263 67.1085C321.263 68.5488 320.302 69.5089 318.862 69.5089Z" fill="black"></path><path d="M326.066 52.226C325.586 52.226 325.106 52.2259 324.626 51.7459C323.666 50.7857 323.666 48.8655 324.626 47.9053C325.586 46.4651 327.027 45.0249 328.467 43.5847C329.427 42.6246 330.867 42.6245 331.827 44.0647C332.787 45.0248 332.307 46.9452 331.347 47.9053C330.387 48.8655 328.947 50.3056 327.987 51.2658C327.507 52.2259 326.547 52.226 326.066 52.226Z" fill="black"></path><path d="M428.316 75.2694C427.356 75.2694 426.396 74.7894 425.916 73.3491C425.436 71.9089 424.956 69.9886 423.996 68.5484C423.515 67.1082 423.996 65.668 424.956 64.7079C425.916 64.2278 427.356 64.7078 428.316 65.6679C429.276 67.5882 429.756 69.0285 430.236 70.9488C430.716 72.389 430.236 73.8293 428.796 74.7895C429.276 75.2695 428.796 75.2694 428.316 75.2694ZM418.235 57.0267C417.755 57.0267 416.795 56.5466 416.795 56.0665C415.834 55.1063 414.394 53.6662 413.434 52.7061C412.474 51.7459 411.994 49.8255 412.954 48.8654C413.914 47.4252 415.354 47.4253 416.315 48.3854C417.755 49.8257 418.715 50.7857 420.155 52.226C421.115 53.1861 421.115 55.1063 420.155 56.0665C419.195 57.0266 418.715 57.0267 418.235 57.0267ZM402.393 45.0249C401.913 45.0249 401.913 45.0249 401.433 45.0249C399.992 44.5448 398.552 43.5847 397.112 43.1046C395.672 42.6245 395.192 41.1843 395.672 39.744C396.152 38.3038 397.592 37.3437 398.552 37.8238C399.992 38.3038 401.913 39.264 403.353 39.744C404.793 40.2241 405.273 42.1445 404.793 43.5847C404.313 44.5449 403.353 45.0249 402.393 45.0249ZM341.905 40.7042C340.945 40.7042 339.985 39.7441 339.505 38.784C339.025 37.3438 339.985 35.9035 340.945 35.4234C342.385 34.9433 343.825 34.4633 345.745 33.9833C347.186 33.5032 348.146 34.4633 348.626 35.9035C349.106 37.3437 348.146 38.7839 346.706 39.2639C345.265 39.744 343.825 40.2242 342.385 40.7042C342.385 40.7042 342.385 40.7042 341.905 40.7042ZM384.15 39.2639C383.19 39.2639 382.23 38.784 381.75 38.784L379.35 38.3039C377.91 38.3039 376.95 36.8636 377.43 35.4234C377.43 33.9832 378.87 33.023 380.31 33.023L382.71 33.5031C383.67 33.5031 384.15 33.9833 385.111 33.9833C386.551 34.4633 387.511 35.9035 387.031 37.3437C386.551 38.3038 385.111 39.2639 384.15 39.2639ZM360.627 37.3437C359.187 37.3437 358.227 36.3835 358.227 34.4632C358.227 33.023 359.187 31.5829 360.627 31.5829C361.588 31.5829 362.548 31.5829 363.988 31.5829H365.428C366.868 31.5829 367.828 33.023 367.828 34.4632C367.828 35.9034 366.868 37.3437 365.428 37.3437H363.988C362.548 37.3437 361.588 37.3437 360.627 37.3437Z" fill="black"></path><path d="M432.155 94.4722C430.715 94.4722 429.755 93.512 429.755 92.0718C429.755 91.1117 429.755 90.1516 429.755 89.1915C429.755 87.7513 430.715 86.311 431.675 86.311C433.115 86.311 434.075 87.2712 434.555 88.7114C434.555 89.6715 434.555 90.6317 434.555 91.5919C434.555 93.0321 433.595 94.4722 432.155 94.4722Z" fill="black"></path><path d="M415.832 84.871L429.754 117.996L447.516 87.2713L415.832 84.871Z" fill="black"></path><path d="M490.723 210.17C489.283 207.77 486.882 206.81 484.002 206.81C481.602 206.81 478.721 208.25 477.281 210.17L452.318 248.096L438.396 232.254C436.956 230.334 434.556 229.373 432.155 229.853C429.755 229.853 427.355 231.294 426.395 233.214L403.352 268.739H529.128L490.723 210.17Z" fill="#4C4B4C"></path><path d="M438.396 217.851C447.037 217.851 454.238 210.65 454.238 202.009C454.238 193.368 447.037 186.167 438.396 186.167C429.755 186.167 422.554 193.368 422.554 202.009C422.554 211.13 429.755 217.851 438.396 217.851Z" fill="#4C4B4C"></path><path d="M438.396 323.467L405.752 322.027L546.89 136.719L577.134 140.079L438.396 323.467Z" fill="#727171"></path><path d="M581.453 326.348H346.223C331.821 326.348 319.819 314.346 319.819 299.944V162.163C319.819 147.761 331.821 135.759 346.223 135.759H581.453C595.855 135.759 607.857 147.761 607.857 162.163V299.944C607.377 314.346 595.855 326.348 581.453 326.348ZM346.223 146.801C337.582 146.801 330.861 153.522 330.861 162.163V299.944C330.861 308.585 337.582 315.306 346.223 315.306H581.453C590.094 315.306 596.815 308.585 596.815 299.944V162.163C596.815 153.522 590.094 146.801 581.453 146.801H346.223Z" fill="black"></path><path d="M168.603 78.6299C167.163 76.2295 164.762 75.2693 161.882 75.2693C159.482 75.2693 156.601 76.7096 155.161 78.6299L130.198 116.556L116.276 100.713C114.836 98.7929 112.435 97.8328 110.035 98.3128C107.635 98.3128 105.235 99.753 104.274 101.673L81.2314 137.199H207.008L168.603 78.6299Z" fill="#4C4B4C"></path><path d="M116.276 86.7911C124.917 86.7911 132.118 79.59 132.118 70.9487C132.118 62.3074 124.917 55.1063 116.276 55.1063C107.635 55.1063 100.434 62.3074 100.434 70.9487C100.434 79.59 107.635 86.7911 116.276 86.7911Z" fill="#4C4B4C"></path></svg> 