<?xml version="1.0" encoding="UTF-8"?> <svg xmlns="http://www.w3.org/2000/svg" width="609" height="327" viewBox="0 0 609 327" fill="none"><path d="M262.438 191.447H27.2071C12.8053 191.447 0.803711 179.446 0.803711 165.043V27.2621C0.803711 12.8599 12.8053 0.858032 27.2071 0.858032H262.438C276.84 0.858032 288.841 12.8599 288.841 27.2621V165.043C288.841 179.926 277.32 191.447 262.438 191.447ZM27.6872 12.3799C19.0461 12.3799 12.3252 19.1009 12.3252 27.7422V165.043C12.3252 173.685 19.0461 180.406 27.6872 180.406H262.918C271.559 180.406 278.28 173.685 278.28 165.043V27.2621C278.28 18.6208 271.559 11.8998 262.918 11.8998H27.6872V12.3799Z" fill="black"></path><path d="M319.566 69.5089C318.126 69.5089 317.166 68.0687 317.166 66.6284C317.166 66.6284 317.166 65.6682 317.646 63.2678C318.126 61.8276 319.086 60.8675 320.526 61.3475C321.967 61.8276 322.447 63.2679 322.447 64.7081C321.967 66.1484 321.967 67.1085 321.967 67.1085C321.967 68.5488 321.007 69.5089 319.566 69.5089Z" fill="black"></path><path d="M326.771 52.226C326.291 52.226 325.811 52.2259 325.33 51.7459C324.37 50.7857 324.37 48.8655 325.33 47.9053C326.291 46.4651 327.731 45.0249 329.171 43.5847C330.131 42.6246 331.571 42.6245 332.531 44.0647C333.492 45.0248 333.011 46.9452 332.051 47.9053C331.091 48.8655 329.651 50.3056 328.691 51.2658C327.731 52.2259 327.251 52.226 326.771 52.226Z" fill="black"></path><path d="M429.02 75.2694C428.06 75.2694 427.1 74.7894 426.62 73.3491C426.14 71.9089 425.66 69.9886 424.7 68.5484C424.22 67.1082 424.7 65.668 425.66 64.7079C426.62 64.2278 428.06 64.7078 429.02 65.6679C429.98 67.5882 430.46 69.0285 430.941 70.9488C431.421 72.389 430.941 73.8293 429.5 74.7895C429.5 75.2695 429.5 75.2694 429.02 75.2694ZM418.459 57.0267C417.979 57.0267 417.019 56.5466 417.019 56.0665C416.059 55.1063 414.618 53.6662 413.658 52.7061C412.698 51.7459 412.218 49.8255 413.178 48.8654C414.138 47.4252 415.579 47.4253 416.539 48.3854C417.979 49.8257 418.939 50.7857 420.379 52.226C421.339 53.1861 421.339 55.1063 420.379 56.0665C419.899 57.0266 419.419 57.0267 418.459 57.0267ZM403.097 45.0249C402.617 45.0249 402.617 45.0249 402.137 45.0249C400.697 44.5448 399.256 43.5847 397.816 43.1046C396.376 42.6245 395.896 41.1843 396.376 39.744C396.856 38.3038 398.296 37.3437 399.256 37.8238C400.697 38.3038 402.617 39.264 404.057 39.744C405.497 40.2241 405.977 42.1445 405.497 43.5847C404.537 44.5449 404.057 45.0249 403.097 45.0249ZM342.609 40.7042C341.649 40.7042 340.689 39.7441 340.209 38.784C339.729 37.3438 340.689 35.9035 341.649 35.4234C343.089 34.9433 344.529 34.4633 346.45 33.9833C347.89 33.5032 348.85 34.4633 349.33 35.9035C349.81 37.3437 348.85 38.7839 347.41 39.2639C345.969 39.744 344.529 40.2242 343.089 40.7042C343.089 40.7042 342.609 40.7042 342.609 40.7042ZM384.855 39.2639C384.855 39.2639 384.375 39.2639 384.855 39.2639C383.894 39.2639 382.934 38.784 382.454 38.784L380.054 38.3039C378.614 38.3039 377.654 36.8636 378.134 35.4234C378.134 33.9832 379.574 33.023 381.014 33.023L383.414 33.5031C384.374 33.5031 384.855 33.9833 385.815 33.9833C387.255 34.4633 388.215 35.9035 387.735 37.3437C386.775 38.3038 385.815 39.2639 384.855 39.2639ZM361.331 37.3437C359.891 37.3437 358.931 36.3835 358.931 34.4632C358.931 33.023 359.891 31.5829 361.331 31.5829C362.292 31.5829 363.252 31.5829 364.692 31.5829H366.132C367.572 31.5829 368.532 33.023 368.532 34.4632C368.532 35.9034 367.572 37.3437 366.132 37.3437H364.692C363.252 37.3437 362.292 37.3437 361.331 37.3437Z" fill="black"></path><path d="M432.381 94.4722C430.941 94.4722 429.98 93.512 429.98 92.0718C429.98 91.1117 429.98 90.1516 429.98 89.1915C429.98 87.7513 430.941 86.311 431.901 86.311C433.341 86.311 434.301 87.2712 434.781 88.7114C434.781 89.6715 434.781 90.6317 434.781 91.5919C435.261 93.0321 434.301 94.4722 432.381 94.4722C432.861 94.4722 432.861 94.4722 432.381 94.4722Z" fill="black"></path><path d="M416.536 84.871L430.458 117.996L448.22 87.2713L416.536 84.871Z" fill="black"></path><path d="M581.679 326.348H346.448C332.046 326.348 320.045 314.346 320.045 299.944V162.163C320.045 147.761 332.046 135.759 346.448 135.759H581.679C596.081 135.759 608.082 147.761 608.082 162.163V299.944C608.082 314.346 596.561 326.348 581.679 326.348ZM346.928 146.801C338.287 146.801 331.566 153.522 331.566 162.163V299.944C331.566 308.585 338.287 315.306 346.928 315.306H582.159C590.8 315.306 597.521 308.585 597.521 299.944V162.163C597.521 153.522 590.8 146.801 582.159 146.801H346.928Z" fill="black"></path><path d="M491.427 210.17C489.987 207.77 487.587 206.81 484.706 206.81C482.306 206.81 479.425 208.25 477.985 210.17L453.022 248.096L439.1 232.254C437.66 230.334 435.26 229.373 432.859 229.853C430.459 229.853 428.059 231.294 427.099 233.214L404.056 268.739H529.832L491.427 210.17Z" fill="#EDBA18"></path><path d="M439.1 217.851C447.741 217.851 454.942 210.65 454.942 202.009C454.942 193.368 447.741 186.167 439.1 186.167C430.459 186.167 423.258 193.368 423.258 202.009C423.258 211.13 429.979 217.851 439.1 217.851Z" fill="#EDBA18"></path><path d="M169.307 78.6299C167.867 76.2295 165.466 75.2693 162.586 75.2693C160.186 75.2693 157.305 76.7096 155.865 78.6299L130.902 116.556L116.98 100.713C115.54 98.7929 113.14 97.8328 110.739 98.3128C108.339 98.3128 105.939 99.753 104.979 101.673L81.9355 137.199H207.712L169.307 78.6299Z" fill="#B28247"></path><path d="M116.98 86.7911C125.621 86.7911 132.822 79.59 132.822 70.9487C132.822 62.3074 125.621 55.1063 116.98 55.1063C108.339 55.1063 101.138 62.3074 101.138 70.9487C101.138 79.59 108.339 86.7911 116.98 86.7911Z" fill="#B28247"></path></svg> 