<?xml version="1.0" encoding="UTF-8"?> <svg xmlns="http://www.w3.org/2000/svg" width="214" height="143" viewBox="0 0 214 143" fill="none"><path d="M194.277 142.197H19.1616C8.51625 142.197 0 133.685 0 123.046V20.1051C0 9.46525 8.51625 0.953369 19.1616 0.953369H194.277C204.922 0.953369 213.439 9.46525 213.439 20.1051V123.046C213.439 133.685 204.922 142.197 194.277 142.197ZM19.1616 8.93325C13.0405 8.93325 7.98398 13.9872 7.98398 20.1051V123.046C7.98398 129.163 13.0405 134.217 19.1616 134.217H194.277C200.398 134.217 205.455 129.163 205.455 123.046V20.1051C205.455 13.9872 200.398 8.93325 194.277 8.93325H19.1616Z" fill="black"></path><path d="M86.7595 84.21C87.5579 84.21 87.5579 84.742 87.5579 85.008C87.5579 85.54 87.2918 85.806 86.7595 85.806H74.5174C73.1867 85.806 72.1222 85.806 72.1222 84.21C72.1222 83.146 72.3883 82.88 74.2513 81.55C75.5819 80.4861 79.3078 77.0281 82.2352 74.1022C84.0982 72.2402 84.6304 70.3782 84.6304 68.7822C84.6304 66.1223 82.7675 64.2603 80.1062 64.2603C78.2432 64.2603 76.3803 65.0583 75.3158 66.3883C74.7835 66.9202 74.7835 67.1862 74.2513 67.1862C73.719 67.1862 73.4529 66.6543 73.4529 66.3883C73.4529 65.5903 76.1142 62.6643 80.1062 62.6643C83.2998 62.6643 86.7595 64.5263 86.7595 69.0482C86.7595 71.7082 85.695 73.3042 84.0982 74.9001C81.703 77.8261 76.3803 82.348 73.9851 84.21H86.7595Z" fill="black"></path><path d="M86.7594 86.604H74.5173C73.4528 86.604 71.3237 86.604 71.3237 84.476C71.3237 83.146 71.856 82.88 73.7189 81.2841L74.2512 80.7521C75.848 79.4221 79.3077 76.4961 81.7029 73.8362C83.2997 72.2402 83.832 70.6442 83.832 69.0482C83.832 66.6543 82.2352 65.0583 79.84 65.0583C78.2432 65.0583 76.6464 65.8563 75.3157 66.9203C74.7835 67.4523 74.5173 67.7183 73.9851 67.7183C73.1867 67.7183 72.3883 66.9203 72.3883 66.1223C72.3883 64.7923 75.5819 61.6003 79.84 61.6003C83.2997 61.6003 87.2917 63.7283 87.2917 68.5162C87.2917 71.4422 85.9611 73.3042 84.6304 74.9002C82.5013 77.2941 78.2432 81.0181 75.848 83.146H87.2917C88.3563 83.146 88.8885 83.944 88.8885 84.742C88.3562 85.806 87.824 86.604 86.7594 86.604ZM79.84 63.4623C82.7675 63.4623 85.1627 65.8563 85.1627 68.7822C85.1627 70.6442 84.3643 72.5062 82.5013 74.3682C80.1061 77.0281 76.6464 79.9541 75.0496 81.5501L74.5173 82.0821C72.6544 83.678 72.6544 83.678 72.6544 84.21C72.6544 84.742 72.9205 85.008 74.5173 85.008H86.7594C86.7594 85.008 87.0256 85.008 87.0256 84.742V84.476H73.9851C73.7189 84.476 73.4528 84.21 73.4528 83.944C73.4528 83.678 73.4528 83.412 73.7189 83.146C75.5819 81.5501 81.1707 76.7621 83.832 73.8362C85.4288 71.9742 86.2272 70.6442 86.2272 68.2502C86.2272 64.2603 83.0336 62.6643 80.1061 62.6643C76.6464 62.6643 74.2512 65.3243 73.9851 65.8563L74.2512 66.1223C74.2512 66.1223 74.5173 65.8563 74.7835 65.5903C75.848 64.5263 77.7109 63.4623 79.84 63.4623Z" fill="black"></path><path d="M95.8081 65.8563C95.8081 64.7923 95.8081 62.9303 98.4694 62.9303H107.252C108.05 62.9303 108.05 63.4623 108.05 63.7283C108.05 64.2603 107.784 64.5263 107.252 64.5263H99.0017C98.2033 64.5263 97.9371 64.7923 97.9371 65.5903V72.5062C98.7355 72.2402 99.8001 71.4422 102.195 71.4422C106.986 71.4422 109.913 74.3681 109.913 78.6241C109.913 82.614 106.72 86.072 101.397 86.072C99.2678 86.072 97.1387 85.54 95.2758 84.742C95.0097 84.476 94.4774 84.476 94.4774 83.678C94.4774 83.146 95.0097 82.88 95.2758 82.88C95.2758 82.88 96.3403 83.146 96.3403 83.412C96.8726 83.678 98.7355 84.476 100.865 84.476C105.655 84.476 107.784 81.816 107.784 78.8901C107.784 75.4321 105.123 73.5701 101.929 73.5701C99.8001 73.5701 99.0017 74.1021 97.671 74.9001C97.4049 75.1661 97.1387 75.1661 96.8726 75.1661C96.0742 75.1661 96.0742 74.6341 96.0742 74.1021V65.8563H95.8081Z" fill="black"></path><path d="M100.865 86.8701C98.7355 86.8701 96.6064 86.3381 94.4774 85.5401C94.2112 85.5401 93.4128 85.0081 93.4128 83.9441C93.4128 83.1461 94.2112 82.3482 95.0096 82.3482C95.2758 82.3482 96.3403 82.8801 96.3403 82.8801C97.1387 83.1461 98.7355 83.6781 100.598 83.6781C105.123 83.6781 106.719 81.0182 106.719 78.6242C106.719 75.4322 104.058 73.8363 101.397 73.8363C99.5339 73.8363 98.7355 74.3683 97.4048 74.9003C97.4048 75.6982 97.1387 75.6982 96.6064 75.6982C95.808 75.6982 95.0096 75.4323 95.0096 74.1023V65.8564C95.0096 65.0584 95.0096 62.3984 98.2032 62.3984H106.986C108.05 62.3984 108.582 63.1964 108.582 63.9944C108.582 64.7924 108.05 65.5904 106.986 65.5904H98.7355C98.4694 65.5904 98.2032 65.5904 98.2032 65.5904C98.2032 65.5904 98.2032 65.5904 98.2032 66.1224V71.9743C99.0016 71.7083 100.066 71.1763 101.663 71.1763C106.719 71.1763 110.179 74.3683 110.179 78.8902C110.179 83.6781 106.453 86.8701 100.865 86.8701ZM95.0096 83.9441C95.0096 84.2101 95.0096 84.2101 95.2758 84.4761C97.1387 85.2741 99.0016 85.8061 101.131 85.8061C105.921 85.8061 109.115 83.1461 109.115 79.1562C109.115 75.4322 106.187 72.7723 101.929 72.7723C99.8 72.7723 98.7355 73.3043 98.2032 73.8363C97.9371 73.8363 97.671 73.8363 97.4048 73.8363C97.1387 73.8363 97.1387 73.5703 97.1387 73.3043V66.3884C97.1387 64.7924 98.2032 64.5264 99.0016 64.5264H107.252C107.518 64.5264 107.518 64.5264 107.518 64.2604C107.518 63.9944 107.518 63.9944 107.252 63.9944H98.4694C96.6064 63.9944 96.6064 65.0584 96.6064 66.1224V74.3683V74.6343C96.6064 74.6343 96.6064 74.6343 96.8726 74.6343C97.1387 74.6343 97.1387 74.6343 97.4048 74.3683C98.7355 73.5703 99.8 73.0383 101.929 73.0383C105.921 73.0383 108.582 75.4322 108.582 79.1562C108.582 82.0822 106.719 85.5401 101.131 85.5401C99.5339 85.5401 97.671 85.2741 96.3403 84.4761C95.808 84.2101 95.2758 83.9441 95.0096 83.9441Z" fill="black"></path><path d="M121.357 62.3984C124.55 62.3984 126.679 64.7924 126.679 68.5163C126.679 72.2403 124.284 74.6342 121.357 74.6342C118.429 74.6342 116.034 72.2403 116.034 68.5163C116.034 64.7924 118.429 62.3984 121.357 62.3984ZM121.357 73.3043C123.22 73.3043 125.083 71.9743 125.083 68.7823C125.083 65.5904 123.22 64.2604 121.357 64.2604C119.494 64.2604 117.631 65.8564 117.631 68.7823C117.631 71.7083 119.494 73.3043 121.357 73.3043ZM134.397 63.1964C134.663 62.9304 134.929 62.6644 135.196 62.6644C135.462 62.6644 135.994 62.9304 135.994 63.4624C135.994 63.7284 135.994 63.7284 135.728 63.9944L120.558 85.8061C120.292 86.0721 120.026 86.3381 119.76 86.3381C119.494 86.3381 118.962 86.0721 118.962 85.5401C118.962 85.2741 118.962 85.2741 119.228 85.0081L134.397 63.1964ZM133.599 74.1023C136.792 74.1023 138.921 76.4962 138.921 80.2202C138.921 83.9441 136.526 86.3381 133.599 86.3381C130.405 86.3381 128.276 83.9441 128.276 80.2202C128.276 76.4962 130.671 74.1023 133.599 74.1023ZM133.599 84.7421C135.462 84.7421 137.325 83.1461 137.325 80.2202C137.325 77.0282 135.462 75.6982 133.599 75.6982C131.736 75.6982 129.873 77.0282 129.873 80.2202C129.873 83.1461 131.736 84.7421 133.599 84.7421Z" fill="black"></path><path d="M133.599 86.87C130.139 86.87 127.478 83.944 127.478 80.2201C127.478 76.4961 130.139 73.5702 133.599 73.5702C137.058 73.5702 139.72 76.4961 139.72 80.2201C139.72 83.944 137.058 86.87 133.599 86.87ZM133.599 74.6341C130.937 74.6341 128.808 76.7621 128.808 79.9541C128.808 83.146 130.671 85.274 133.599 85.274C136.26 85.274 138.389 83.146 138.389 79.9541C138.389 76.7621 136.526 74.6341 133.599 74.6341ZM119.76 86.87C118.961 86.87 118.429 86.338 118.429 85.54C118.429 85.008 118.695 84.742 118.695 84.476L133.865 62.6643L134.397 62.9303L133.865 62.3983C134.131 62.1323 134.397 61.6003 135.196 61.6003C135.994 61.6003 136.526 62.1323 136.526 62.9303C136.526 63.4623 136.26 63.4623 136.26 63.9943L121.091 85.806C120.824 86.604 120.558 86.87 119.76 86.87ZM119.76 85.54C119.76 85.54 120.026 85.54 120.026 85.274L135.196 63.4623C135.196 63.1963 135.462 63.1963 135.462 63.1963L135.196 63.4623L134.663 63.1963L135.196 63.4623L119.76 85.54ZM133.599 85.54C131.47 85.54 129.075 83.944 129.075 80.2201C129.075 76.4961 131.204 74.9001 133.599 74.9001C135.994 74.9001 138.123 76.4961 138.123 80.2201C138.123 83.678 135.994 85.54 133.599 85.54ZM133.599 76.2301C132.268 76.2301 130.405 77.2941 130.405 80.2201C130.405 83.146 132.002 84.21 133.599 84.21C135.196 84.21 136.792 83.146 136.792 80.2201C136.792 77.2941 135.196 76.2301 133.599 76.2301ZM121.357 75.4321C117.897 75.4321 115.236 72.5062 115.236 68.7822C115.236 65.0583 117.897 62.1323 121.357 62.1323C124.816 62.1323 127.478 65.0583 127.478 68.7822C127.478 72.5062 124.816 75.4321 121.357 75.4321ZM121.357 63.1963C118.695 63.1963 116.566 65.3243 116.566 68.5162C116.566 71.7082 118.429 73.8362 121.357 73.8362C124.018 73.8362 126.147 71.7082 126.147 68.5162C126.147 65.3243 124.018 63.1963 121.357 63.1963ZM121.357 73.8362C119.228 73.8362 116.832 72.2402 116.832 68.5162C116.832 64.7923 118.961 63.1963 121.357 63.1963C123.752 63.1963 125.881 64.7923 125.881 68.5162C125.881 72.2402 123.486 73.8362 121.357 73.8362ZM121.357 64.7923C120.026 64.7923 118.163 65.8563 118.163 68.7822C118.163 71.7082 119.76 72.7722 121.357 72.7722C122.953 72.7722 124.55 71.7082 124.55 68.7822C124.55 65.8563 122.687 64.7923 121.357 64.7923Z" fill="black"></path></svg> 