<?xml version="1.0" encoding="UTF-8"?> <svg xmlns="http://www.w3.org/2000/svg" width="214" height="142" viewBox="0 0 214 142" fill="none"><path d="M194.277 141.244H19.1616C8.51624 141.244 0 132.732 0 122.092V19.1517C0 8.51188 8.51624 0 19.1616 0H194.277C204.922 0 213.439 8.51188 213.439 19.1517V122.092C213.172 132.732 204.656 141.244 194.277 141.244ZM19.1616 7.97988C13.0405 7.97988 7.98398 13.0338 7.98398 19.1517V122.092C7.98398 128.21 13.0405 133.264 19.1616 133.264H194.277C200.398 133.264 205.455 128.21 205.455 122.092V19.1517C205.455 13.0338 200.398 7.97988 194.277 7.97988H19.1616Z" fill="black"></path><path d="M92.082 69.957C92.8804 69.957 92.8804 70.4889 92.8804 70.7549C92.8804 71.2869 92.6143 71.5529 92.082 71.5529H79.8399C78.5092 71.5529 77.4447 71.5529 77.4447 69.957C77.4447 68.893 77.7108 68.627 79.5737 67.297C80.9044 66.233 84.6303 62.7751 87.5577 59.8491C89.4206 57.9871 89.9529 56.1252 89.9529 54.5292C89.9529 51.8692 88.09 50.0072 85.4287 50.0072C83.5658 50.0072 81.7028 50.8052 80.6383 52.1352C80.106 52.6672 80.106 52.9332 79.5737 52.9332C79.0415 52.9332 78.7754 52.4012 78.7754 52.1352C78.7754 51.3372 81.4367 48.4113 85.4287 48.4113C88.6223 48.4113 92.082 50.2732 92.082 54.7952C92.082 57.4551 91.0175 59.0511 89.4207 60.6471C87.0255 63.573 81.7028 68.095 79.3076 69.957H92.082Z" fill="black"></path><path d="M92.082 72.3509H79.8398C78.7753 72.3509 76.6462 72.3509 76.6462 70.2229C76.6462 68.893 77.1785 68.627 79.0414 67.031L79.5737 66.499C81.1705 65.169 84.6302 62.2431 87.0254 59.5831C88.6222 57.9871 89.1545 56.3912 89.1545 54.7952C89.1545 52.4012 87.5577 50.8052 85.1625 50.8052C83.5657 50.8052 81.9689 51.6032 80.9044 52.6672C80.3721 53.1992 80.106 53.7312 79.3076 53.7312C78.5092 53.7312 77.7108 52.9332 77.7108 52.1352C77.7108 50.8052 80.9044 47.6133 85.1625 47.6133C88.8884 47.6133 92.6143 50.0073 92.6143 54.5292C92.6143 57.4551 91.2836 59.3171 89.9529 60.9131C88.09 63.307 84.098 66.499 81.1705 69.159H92.6143C93.6788 69.159 94.211 69.957 94.211 70.7549C93.6788 71.5529 92.8804 72.3509 92.082 72.3509ZM85.1625 49.2093C88.09 49.2093 90.4852 51.6032 90.4852 54.5292C90.4852 56.3912 89.6868 58.2531 87.8238 60.1151C85.4286 62.7751 81.9689 65.701 80.3721 67.297L79.8398 67.829C77.9769 69.425 77.9769 69.425 77.9769 69.957C77.9769 70.4889 78.243 70.7549 79.8398 70.7549H92.082C92.082 70.7549 92.3481 70.7549 92.3481 70.4889V70.2229H79.3076C79.0414 70.2229 78.7753 69.9569 78.7753 69.691C78.7753 69.425 78.7753 69.159 79.0414 68.893C80.9044 67.297 86.4932 62.5091 89.1545 59.5831C90.4852 57.9871 91.5497 56.6572 91.5497 53.9972C91.5497 50.0073 88.3561 48.4113 85.4287 48.4113C81.9689 48.4113 79.5737 51.0712 79.3076 51.6032L79.5737 51.8692C79.5737 51.8692 79.8399 51.6032 80.106 51.3372C80.9044 50.2732 83.0334 49.2093 85.1625 49.2093Z" fill="black"></path><path d="M101.13 51.6032C101.13 50.5392 101.13 48.6772 103.792 48.6772H112.574C113.373 48.6772 113.373 49.2092 113.373 49.4752C113.373 50.0072 113.107 50.2732 112.574 50.2732H104.324C103.526 50.2732 103.26 50.5392 103.26 51.3372V58.2531C104.058 57.9871 105.122 57.1891 107.518 57.1891C112.308 57.1891 115.236 60.1151 115.236 64.371C115.236 68.361 112.042 71.8189 106.719 71.8189C104.59 71.8189 102.461 71.2869 100.598 70.489C100.332 70.223 99.7998 70.223 99.7998 69.425C99.7998 68.893 100.332 68.627 100.598 68.627C100.598 68.627 101.663 68.893 101.663 69.159C102.195 69.425 104.058 70.223 106.187 70.223C110.977 70.223 113.107 67.563 113.107 64.637C113.107 61.1791 110.445 59.3171 107.252 59.3171C105.122 59.3171 104.324 59.8491 102.993 60.6471C102.727 60.9131 102.461 60.9131 102.195 60.9131C101.397 60.9131 101.397 60.3811 101.397 59.8491V51.6032H101.13Z" fill="black"></path><path d="M106.187 72.6169C104.058 72.6169 101.929 72.0849 99.7999 71.2869C99.5337 71.2869 98.7354 70.7549 98.7354 69.6909C98.7354 68.893 99.5337 68.095 100.332 68.095C100.598 68.095 101.663 68.627 101.663 68.627C102.461 68.893 104.058 69.4249 105.921 69.4249C110.445 69.4249 112.042 66.765 112.042 64.371C112.042 61.1791 109.381 59.5831 106.719 59.5831C104.856 59.5831 104.058 60.1151 102.727 60.6471C102.461 60.9131 101.929 60.9131 101.397 60.9131C100.598 60.9131 99.7999 60.6471 99.7999 59.3171V51.0712C99.7999 50.2732 99.7999 47.6133 102.993 47.6133H111.776C112.84 47.6133 113.373 48.4113 113.373 49.2093C113.373 50.0073 112.84 50.8052 111.776 50.8052H103.526C103.26 50.8052 102.993 50.8052 102.993 50.8052C102.993 50.8052 102.993 50.8052 102.993 51.3372V57.1891C103.792 56.9231 104.856 56.3911 106.453 56.3911C111.51 56.3911 114.969 59.5831 114.969 64.105C115.502 69.4249 111.776 72.6169 106.187 72.6169ZM100.332 69.6909C100.332 69.6909 100.066 69.6909 100.332 69.6909C100.332 69.9569 100.332 69.9569 100.598 70.2229C102.461 71.0209 104.324 71.5529 106.453 71.5529C111.244 71.5529 114.437 68.893 114.437 64.903C114.437 61.1791 111.51 58.5191 107.252 58.5191C105.389 58.5191 104.058 59.0511 103.526 59.5831C103.26 59.5831 102.993 59.5831 102.727 59.5831C102.461 59.5831 102.461 59.3171 102.461 59.0511V52.1352C102.461 50.5392 103.526 50.2732 104.324 50.2732H112.574C112.84 50.2732 112.84 50.2732 112.84 50.0072C112.84 49.7413 112.84 49.7412 112.574 49.7412H103.792C101.929 49.7412 101.929 50.8052 101.929 51.8692V60.1151V60.3811C101.929 60.3811 101.929 60.3811 102.195 60.3811C102.461 60.3811 102.461 60.3811 102.727 60.1151C104.058 59.3171 105.123 58.7851 107.252 58.7851C111.244 58.7851 113.905 61.1791 113.905 64.903C113.905 67.829 112.042 71.2869 106.453 71.2869C104.058 71.2869 102.461 70.7549 101.663 70.2229C101.131 69.9569 100.332 69.6909 100.332 69.6909Z" fill="black"></path><path d="M126.679 48.1453C129.873 48.1453 132.002 50.5392 132.002 54.2632C132.002 57.9871 129.607 60.3811 126.679 60.3811C123.752 60.3811 121.357 57.9871 121.357 54.2632C121.357 50.5392 123.486 48.1453 126.679 48.1453ZM126.679 59.0511C128.542 59.0511 130.405 57.7211 130.405 54.5292C130.405 51.3372 128.542 50.0072 126.679 50.0072C124.816 50.0072 122.953 51.6032 122.953 54.5292C122.953 57.4551 124.816 59.0511 126.679 59.0511ZM139.72 48.9433C139.986 48.6773 140.252 48.4113 140.518 48.4113C140.784 48.4113 141.317 48.6773 141.317 49.2093C141.317 49.4752 141.317 49.4752 141.05 49.7412L125.881 71.5529C125.615 71.8189 125.349 72.0849 125.082 72.0849C124.816 72.0849 124.284 71.8189 124.284 71.2869C124.284 71.0209 124.284 71.0209 124.55 70.7549L139.72 48.9433ZM138.921 59.8491C142.115 59.8491 144.244 62.2431 144.244 65.967C144.244 69.691 141.849 72.0849 138.921 72.0849C135.728 72.0849 133.599 69.691 133.599 65.967C133.599 62.2431 135.728 59.8491 138.921 59.8491ZM138.921 70.489C140.784 70.489 142.647 68.893 142.647 65.967C142.647 62.7751 140.784 61.4451 138.921 61.4451C137.058 61.4451 135.195 62.7751 135.195 65.967C135.195 68.893 137.058 70.489 138.921 70.489Z" fill="black"></path><path d="M138.921 72.6169C135.462 72.6169 132.8 69.691 132.8 65.967C132.8 62.2431 135.462 59.3171 138.921 59.3171C142.381 59.3171 145.042 62.2431 145.042 65.967C145.042 69.691 142.381 72.6169 138.921 72.6169ZM138.921 60.3811C136.26 60.3811 134.131 62.5091 134.131 65.701C134.131 68.893 135.994 71.0209 138.921 71.0209C141.583 71.0209 143.712 68.893 143.712 65.701C143.712 62.5091 141.583 60.3811 138.921 60.3811ZM125.082 72.6169C124.284 72.6169 123.752 72.0849 123.752 71.2869C123.752 70.7549 124.018 70.4889 124.284 70.2229L139.453 48.4113L139.986 48.6773L139.453 48.1453C139.72 47.8793 139.986 47.3473 140.784 47.3473C141.583 47.3473 142.115 47.8793 142.115 48.6773C142.115 49.2093 141.849 49.2093 141.849 49.7412L126.679 71.5529C126.147 72.3509 125.881 72.6169 125.082 72.6169ZM125.082 71.2869C125.082 71.2869 125.349 71.2869 125.349 71.0209L140.518 49.2093C140.518 48.9433 140.784 48.9433 140.784 48.9433L140.518 49.2093L139.986 48.9433L140.518 49.2093L125.082 71.2869ZM138.921 71.2869C136.792 71.2869 134.397 69.691 134.397 65.967C134.397 62.2431 136.526 60.6471 138.921 60.6471C141.316 60.6471 143.445 62.2431 143.445 65.967C143.445 69.425 141.05 71.2869 138.921 71.2869ZM138.921 61.9771C137.591 61.9771 135.728 63.0411 135.728 65.967C135.728 68.893 137.324 69.957 138.921 69.957C140.518 69.957 142.115 68.893 142.115 65.967C142.115 63.0411 140.252 61.9771 138.921 61.9771ZM126.679 61.1791C123.219 61.1791 120.558 58.2531 120.558 54.5292C120.558 50.8052 123.219 47.8793 126.679 47.8793C130.139 47.8793 132.8 50.8052 132.8 54.5292C132.8 58.2531 130.139 61.1791 126.679 61.1791ZM126.679 48.9433C124.018 48.9433 121.889 51.0712 121.889 54.2632C121.889 57.4551 123.752 59.5831 126.679 59.5831C129.34 59.5831 131.47 57.4551 131.47 54.2632C131.47 51.0712 129.34 48.9433 126.679 48.9433ZM126.679 59.5831C124.55 59.5831 122.155 57.9871 122.155 54.2632C122.155 50.5392 124.284 48.9433 126.679 48.9433C129.074 48.9433 131.203 50.5392 131.203 54.2632C131.203 57.9871 128.808 59.5831 126.679 59.5831ZM126.679 50.5392C125.349 50.5392 123.486 51.6032 123.486 54.5292C123.486 57.4551 125.082 58.5191 126.679 58.5191C128.276 58.5191 129.873 57.4551 129.873 54.5292C129.873 51.6032 128.01 50.5392 126.679 50.5392Z" fill="black"></path><path d="M30.6052 104.004C26.347 104.004 23.1534 101.611 23.1534 98.6846C23.1534 95.7586 26.6132 93.3646 30.6052 93.3646H178.841C183.099 93.3646 186.293 95.7586 186.293 98.6846C186.293 101.611 182.833 104.004 178.841 104.004H30.6052Z" fill="#C3B68F"></path><path d="M30.6052 104.536C26.347 104.536 23.1534 102.142 23.1534 99.2165C23.1534 96.2906 26.6132 93.8966 30.6052 93.8966H49.5006C53.7588 93.8966 56.9523 96.2906 56.9523 99.2165C56.9523 102.142 53.4926 104.536 49.5006 104.536H30.6052Z" fill="black"></path></svg> 