<?xml version="1.0" encoding="UTF-8"?> <svg xmlns="http://www.w3.org/2000/svg" width="241" height="156" viewBox="0 0 241 156" fill="none"><path d="M207.243 149.145H32.1278C21.4824 149.145 12.9662 140.634 12.9662 129.994V27.0532C12.9662 16.4133 21.4824 7.90143 32.1278 7.90143H207.243C217.888 7.90143 226.405 16.4133 226.405 27.0532V129.994C226.405 140.368 217.888 149.145 207.243 149.145ZM32.1278 15.8813C26.0067 15.8813 20.9502 20.9353 20.9502 27.0532V129.994C20.9502 136.112 26.0067 141.166 32.1278 141.166H207.243C213.364 141.166 218.421 136.112 218.421 129.994V27.0532C218.421 20.9353 213.364 15.8813 207.243 15.8813H32.1278Z" fill="black"></path><path d="M81.0962 113.502C79.7655 113.502 79.7655 112.438 79.7655 111.906V102.064C79.7655 101.798 80.0316 101.532 80.2978 101.532C80.5639 101.532 80.83 101.798 80.83 102.064V112.172C80.83 112.704 81.0962 112.704 81.3623 112.704H85.0882C85.3543 112.704 85.6204 112.97 85.6204 113.236C85.6204 113.502 85.3543 113.768 85.0882 113.768H81.0962V113.502Z" fill="black"></path><path d="M84.822 114.3H80.83C80.0316 114.3 78.7009 114.034 78.7009 112.172V102.33C78.7009 101.532 79.2332 101.266 79.7655 101.266C80.5639 101.266 80.83 101.798 80.83 102.33V112.172H84.2897C85.0881 112.172 85.3543 112.704 85.3543 113.236C86.1527 113.768 85.6204 114.3 84.822 114.3Z" fill="black"></path><path d="M94.1367 101.532C97.5964 101.532 100.258 104.192 100.258 107.65C100.258 111.108 97.5964 113.768 94.1367 113.768C90.677 113.768 88.0156 111.374 88.0156 107.65C88.2818 104.192 90.9431 101.532 94.1367 101.532ZM94.1367 112.97C97.0642 112.97 99.1932 110.576 99.1932 107.65C99.1932 104.724 97.0642 102.33 94.1367 102.33C91.2092 102.33 89.0802 104.724 89.0802 107.65C89.0802 110.576 91.4754 112.97 94.1367 112.97Z" fill="black"></path><path d="M94.1367 114.566C90.4109 114.566 87.4834 111.64 87.4834 107.916C87.4834 104.192 90.4109 101.266 94.1367 101.266C97.8626 101.266 100.79 104.192 100.79 107.916C100.79 111.64 98.1287 114.566 94.1367 114.566ZM94.1367 103.128C91.7415 103.128 89.6125 104.99 89.6125 107.65C89.6125 110.31 91.4754 112.172 94.1367 112.172C96.5319 112.172 98.661 110.31 98.661 107.65C98.661 104.99 96.798 103.128 94.1367 103.128Z" fill="black"></path><path d="M105.58 109.778L104.25 113.236C104.25 113.502 103.983 113.768 103.717 113.768C103.451 113.768 103.185 113.502 103.185 113.236V112.97L107.443 102.33C107.443 102.064 107.709 101.798 108.242 101.798C108.774 101.798 109.04 102.064 109.04 102.33L113.298 112.97V113.236C113.298 113.502 113.032 113.768 112.766 113.768C112.5 113.768 112.5 113.502 112.234 113.236L110.903 109.778H105.58ZM110.903 108.98L108.508 102.596L106.113 108.98H110.903Z" fill="black"></path><path d="M113.032 114.566C112.234 114.566 111.967 114.034 111.967 113.768L110.637 110.576H105.846L104.782 113.768C104.782 114.034 104.516 114.566 103.717 114.566C103.185 114.566 102.653 114.034 102.653 113.502C102.653 113.236 102.653 113.236 102.653 112.97L106.911 102.064C107.177 101.266 107.975 101 108.242 101C108.774 101 109.306 101.266 109.572 102.064L113.83 112.704C113.83 112.97 114.097 112.97 114.097 113.236C114.097 114.034 113.564 114.566 113.032 114.566ZM106.911 108.448H109.838L108.242 104.724L106.911 108.448Z" fill="black"></path><path d="M121.016 101.798C121.814 101.798 122.879 101.798 123.944 102.33C126.605 103.394 127.137 106.32 127.137 107.65C127.137 108.182 127.137 111.108 125.008 112.438C123.944 113.236 122.613 113.502 121.016 113.502H118.089C116.758 113.502 116.758 112.438 116.758 111.906V103.128C116.758 102.596 116.758 101.532 118.089 101.532H121.016V101.798ZM117.822 112.172C117.822 112.704 118.089 112.704 118.355 112.704H121.016C122.879 112.704 123.677 112.438 124.476 111.906C126.073 110.842 126.339 108.448 126.339 107.916C126.339 102.862 122.347 102.862 121.016 102.862H118.355C117.822 102.862 117.822 102.862 117.822 103.394V112.172Z" fill="black"></path><path d="M121.016 114.3H118.089C117.29 114.3 115.959 114.034 115.959 112.172V103.394C115.959 101.532 117.024 101.266 118.089 101.266H121.016C121.814 101.266 122.879 101.266 124.21 101.798C127.403 103.128 127.935 106.32 127.935 107.916C127.935 110.31 127.137 112.172 125.54 113.236C124.21 114.034 122.879 114.3 121.016 114.3ZM118.355 111.906H121.016C122.879 111.906 123.677 111.64 124.21 111.108C125.54 110.044 125.806 108.182 125.806 107.65C125.806 103.926 123.411 103.394 121.282 103.394H118.621L118.355 111.906Z" fill="black"></path><path d="M130.863 102.064C130.863 101.798 131.129 101.532 131.395 101.532C131.661 101.532 131.928 101.798 131.928 102.064V113.236C131.928 113.768 131.661 113.768 131.395 113.768C131.129 113.768 130.863 113.502 130.863 113.236V102.064Z" fill="black"></path><path d="M131.395 114.566C130.597 114.566 130.331 114.034 130.331 113.502V102.33C130.331 101.532 130.863 101.266 131.395 101.266C132.194 101.266 132.46 101.798 132.46 102.33V113.502C132.726 114.034 131.928 114.566 131.395 114.566ZM131.395 102.064H131.661H130.863H131.395Z" fill="black"></path><path d="M145.234 102.064C145.234 101.532 145.5 101.532 145.766 101.532C146.032 101.532 146.299 101.798 146.299 102.064V112.704C146.299 113.236 146.299 113.768 145.5 113.768C144.968 113.768 144.702 113.502 144.436 112.97L137.25 102.596V113.236C137.25 113.768 136.984 113.768 136.718 113.768C136.452 113.768 136.186 113.502 136.186 113.236V102.596C136.186 102.064 136.186 101.532 136.984 101.532C137.516 101.532 137.782 101.798 138.048 102.33L145.234 112.704V102.064Z" fill="black"></path><path d="M145.5 114.566C144.702 114.566 144.17 114.034 143.904 113.502L137.783 104.724V113.236C137.783 114.034 137.25 114.3 136.718 114.3C135.92 114.3 135.653 113.768 135.653 113.236V102.596C135.653 101 136.452 100.734 137.25 100.734C138.049 100.734 138.581 101.266 138.847 101.798L144.968 110.576V102.064C144.968 101.266 145.5 101 146.033 101C146.565 101 147.097 101.532 147.097 102.064V112.704C147.097 114.034 146.299 114.566 145.5 114.566ZM145.766 102.064H146.033H145.234H145.766Z" fill="black"></path><path d="M159.605 108.98C159.605 108.448 159.339 108.448 159.073 108.448H156.678C156.412 108.448 156.145 108.182 156.145 107.916C156.145 107.65 156.412 107.384 156.678 107.384H159.339C160.67 107.384 160.67 108.448 160.67 108.98V111.906C160.67 112.172 160.67 112.704 160.137 112.97C159.871 113.236 158.275 113.768 156.412 113.768C151.621 113.768 149.758 110.31 149.758 107.65C149.758 104.458 151.887 101.532 156.145 101.532C156.678 101.532 158.275 101.532 159.871 102.33C160.137 102.33 160.137 102.596 160.137 102.862C160.137 103.128 159.871 103.394 159.605 103.394C159.339 103.394 159.339 103.394 159.073 103.128C158.541 102.862 157.476 102.33 155.879 102.33C152.42 102.33 150.557 104.724 150.557 107.384C150.557 110.044 152.154 112.704 156.145 112.704C156.944 112.704 158.275 112.438 158.807 112.172C159.073 112.172 159.073 111.906 159.073 111.64V108.98H159.605Z" fill="black"></path><path d="M156.412 114.566C151.355 114.566 149.226 111.108 149.226 107.916C149.226 104.724 151.355 101.266 156.412 101.266C157.742 101.266 159.073 101.532 160.404 102.064C160.936 102.33 161.202 102.596 161.202 103.128C161.202 103.66 160.67 104.192 160.138 104.192C159.871 104.192 159.605 104.192 159.339 103.926C158.541 103.394 157.476 103.128 156.412 103.128C153.218 103.128 151.621 105.522 151.621 107.65C151.621 109.778 152.952 112.172 156.678 112.172C157.476 112.172 158.275 112.172 159.073 111.906V108.98H156.678C155.879 108.98 155.613 108.448 155.613 107.916C155.613 107.384 156.146 106.852 156.678 106.852H159.339C160.138 106.852 161.468 107.118 161.468 108.98V111.906C161.468 112.172 161.468 112.97 160.67 113.502C159.871 114.034 158.275 114.566 156.412 114.566Z" fill="black"></path><path d="M2.85667 -1.79191e-07L0 4.48895L237.363 155.386L240.22 150.898L2.85667 -1.79191e-07Z" fill="black"></path><path d="M106.379 69.8785C109.024 69.8785 111.169 67.7349 111.169 65.0906C111.169 62.4463 109.024 60.3027 106.379 60.3027C103.733 60.3027 101.588 62.4463 101.588 65.0906C101.588 67.7349 103.733 69.8785 106.379 69.8785Z" fill="black"></path><path d="M116.226 60.5686C118.871 60.5686 121.016 58.4249 121.016 55.7806C121.016 53.1363 118.871 50.9927 116.226 50.9927C113.58 50.9927 111.435 53.1363 111.435 55.7806C111.435 58.4249 113.58 60.5686 116.226 60.5686Z" fill="black"></path><path d="M129.798 65.6226C132.444 65.6226 134.589 63.479 134.589 60.8347C134.589 58.1904 132.444 56.0468 129.798 56.0468C127.153 56.0468 125.008 58.1904 125.008 60.8347C125.008 63.479 127.153 65.6226 129.798 65.6226Z" fill="black"></path><path d="M132.46 78.1243C135.105 78.1243 137.25 75.9807 137.25 73.3363C137.25 70.692 135.105 68.5484 132.46 68.5484C129.814 68.5484 127.669 70.692 127.669 73.3363C127.669 75.9807 129.814 78.1243 132.46 78.1243Z" fill="black"></path><path d="M122.347 87.1683C124.992 87.1683 127.137 85.0247 127.137 82.3804C127.137 79.7361 124.992 77.5925 122.347 77.5925C119.701 77.5925 117.556 79.7361 117.556 82.3804C117.556 85.0247 119.701 87.1683 122.347 87.1683Z" fill="black"></path><path d="M109.04 83.1783C111.686 83.1783 113.831 81.0346 113.831 78.3903C113.831 75.7461 111.686 73.6025 109.04 73.6025C106.394 73.6025 104.25 75.7461 104.25 78.3903C104.25 81.0346 106.394 83.1783 109.04 83.1783Z" fill="black"></path></svg> 