<?xml version="1.0" encoding="UTF-8"?> <svg xmlns="http://www.w3.org/2000/svg" width="214" height="142" viewBox="0 0 214 142" fill="none"><path d="M194.277 141.244H19.1616C8.51625 141.244 0 132.732 0 122.092V19.1517C0 8.51186 8.51625 0 19.1616 0H194.277C204.922 0 213.439 8.51186 213.439 19.1517V122.092C213.439 132.732 204.922 141.244 194.277 141.244ZM19.1616 8.24585C13.0405 8.24585 7.98398 13.2998 7.98398 19.4177V122.358C7.98398 128.476 13.0405 133.53 19.1616 133.53H194.277C200.398 133.53 205.455 128.476 205.455 122.358V19.1517C205.455 13.0338 200.398 7.97988 194.277 7.97988H19.1616V8.24585Z" fill="black"></path><path d="M62.009 80.5968C64.6704 79.2668 68.6623 75.8088 68.6623 73.9469C68.6623 73.1489 68.1301 72.6169 67.3317 72.6169C60.4122 72.6169 46.5733 81.6607 46.5733 87.2467C46.5733 88.0447 47.1056 88.8426 48.4362 88.8426C52.1621 88.8426 56.6864 86.1827 60.1461 86.1827C61.7429 86.1827 63.3397 87.7787 63.3397 89.1086C64.1381 89.1086 64.6703 88.8426 65.2026 88.8426C65.7349 88.8426 66.001 89.1086 66.001 89.3746C66.001 89.3746 66.001 89.3746 65.7349 89.3746C64.9365 89.3746 64.1381 89.3746 63.0736 89.6406C62.009 92.8326 53.7589 98.6845 50.2992 98.6845C49.2346 98.6845 47.904 97.8865 47.904 96.8225C47.904 94.4285 55.3557 90.9706 60.6784 89.3746C60.9445 88.8426 60.9445 88.3106 60.9445 88.0446C60.9445 87.2466 60.4122 86.4487 59.0816 86.4487C56.4202 86.4487 50.2992 89.3746 47.1056 89.3746C45.5088 89.3746 43.912 88.3106 43.912 86.7146C43.912 80.5967 58.2832 71.0209 65.7349 71.0209C67.5978 71.0209 68.6623 72.3509 68.6623 73.6808C68.6623 76.3408 62.5413 81.1287 62.009 81.1287C62.2752 81.3947 61.7429 81.1288 62.009 80.5968C61.7429 80.8628 61.7429 80.5968 62.009 80.5968ZM60.4122 90.1726C54.2912 91.5026 49.2346 94.9605 49.2346 97.6205C49.2346 98.1525 49.5008 98.4185 50.2992 98.4185C52.6944 98.6845 58.8154 93.8966 60.4122 90.1726Z" fill="black"></path><path d="M69.993 86.4487C69.993 86.7147 68.1301 89.3746 68.1301 89.9066C68.1301 89.9066 73.7189 84.3207 74.5173 84.3207C75.0495 84.3207 76.1141 85.1187 76.1141 86.1827C76.1141 87.2466 74.2511 89.1086 74.2511 89.3746C74.2511 89.3746 77.977 86.7146 78.5093 86.7146C79.0415 86.7146 79.5738 87.7786 79.5738 88.8426C79.5738 89.9066 77.7109 90.9706 77.7109 92.3006C77.7109 92.5666 77.7109 92.5666 77.977 92.5666C79.5738 92.5666 83.2997 88.5767 83.2997 88.5767C83.2997 88.5767 83.2997 88.5767 83.5658 88.5767H83.8319L83.5658 88.8426C83.5658 88.8426 79.5738 93.0986 77.977 93.0986C77.1786 93.0986 76.3802 92.3006 76.3802 91.2366C76.3802 89.9066 78.5093 87.7787 78.5093 87.2467C78.2431 87.2467 76.1141 88.5766 74.7834 89.6406C73.985 90.4386 73.4527 90.9706 73.1866 90.9706C72.9205 90.9706 72.1221 90.1726 72.1221 89.9066C72.1221 89.1086 74.7834 85.6507 74.7834 84.8527C73.7189 84.8527 68.9285 89.6406 68.1301 90.9706C67.0655 92.0346 67.0655 92.8326 66.5333 92.8326C66.2671 92.8326 65.4688 92.3006 65.4688 91.5026C65.4688 90.1726 67.5978 87.7786 68.6623 85.3847C68.6623 85.1187 68.9285 85.1187 68.9285 85.1187C69.1946 84.8527 69.993 85.6507 69.993 86.4487Z" fill="black"></path><path d="M87.2916 85.3846C87.2916 85.9166 83.5658 90.1725 83.5658 91.5025C83.5658 91.7685 83.8319 92.0345 84.0981 92.0345C85.961 92.0345 89.6868 88.5766 89.6868 88.5766C89.6868 88.5766 89.6868 88.5766 89.953 88.5766L89.6868 88.8426C89.6868 88.8426 85.6949 92.5665 83.5658 92.5665C83.0335 92.5665 81.969 91.7685 81.969 90.7045C81.969 89.3746 84.8965 85.6506 85.4287 84.3207C85.4287 84.0547 85.6949 84.0546 85.6949 84.0546C86.4933 84.0546 87.2916 84.8526 87.2916 85.3846ZM90.4852 79.7987C90.4852 80.0647 89.953 80.5967 89.6868 80.8627C89.4207 80.8627 89.1546 81.1287 88.8884 81.1287C88.3562 81.3947 88.09 81.6607 87.8239 81.6607C87.8239 81.6607 87.5578 81.6607 87.5578 81.3947C87.5578 80.5967 88.8884 79.0007 88.8884 78.2028C89.6868 78.2028 90.4852 79.5328 90.4852 79.7987Z" fill="black"></path><path d="M96.8724 88.5766C96.8724 88.5766 97.1385 88.5766 96.8724 88.5766C97.1385 88.5766 97.1385 88.5766 97.1385 88.5766L96.8724 88.8426C96.8724 88.8426 92.6142 92.8326 91.0174 92.8326C90.219 92.8326 89.4207 92.3006 89.4207 90.9706C89.4207 84.8527 95.8078 75.5428 98.203 75.5428C99.2676 75.5428 99.7998 76.3408 99.7998 77.4048C99.7998 79.5328 94.7433 85.3847 91.5497 88.3106C91.5497 88.3106 91.0174 89.9066 91.0174 91.2366C91.0174 92.0346 91.2836 92.3006 91.8158 92.3006C92.8804 92.3006 96.8724 88.5766 96.8724 88.5766ZM99.2676 77.1388C99.2676 76.8728 99.0014 76.6069 98.7353 76.6069C96.8724 76.6069 92.6142 84.0547 91.8158 87.2467C94.211 85.1187 99.2676 79.2668 99.2676 77.1388Z" fill="black"></path><path d="M101.397 90.7047C101.663 90.4387 101.663 90.4387 101.663 90.4387C101.663 90.4387 101.663 90.7047 101.397 90.9707C100.864 91.5027 100.066 92.3007 98.7353 92.3007C97.4046 92.3007 96.3401 91.2367 96.3401 89.6407C96.3401 86.7148 99.2675 83.7888 100.598 83.7888C101.397 83.7888 101.929 84.8528 101.929 85.3848C101.929 86.1828 99.7998 88.0448 97.9369 89.1087C97.9369 89.3747 97.9369 89.9067 97.9369 90.1727C97.9369 91.2367 98.4691 92.0347 99.2675 92.0347C100.066 91.7687 100.864 91.2367 101.397 90.7047ZM101.397 85.3848C101.397 85.1188 101.397 85.1188 101.13 85.1188C100.598 85.1188 99.2676 86.4488 98.203 88.8427C99.5337 87.5127 101.397 86.1828 101.397 85.3848Z" fill="black"></path><path d="M128.01 88.5766C128.276 88.5766 128.276 88.5766 128.276 88.5766L128.01 88.8426C125.615 91.2366 120.026 95.4925 115.236 95.4925C112.308 95.4925 108.582 92.8326 108.582 89.6406C108.582 81.3947 122.155 71.2869 128.808 71.2869C131.204 71.2869 132.002 73.4148 132.002 74.7448C132.002 77.1388 127.478 80.8627 126.413 80.8627C125.615 80.8627 124.816 80.3307 124.816 80.0647C124.816 80.0647 124.816 79.7987 125.083 79.7987C127.212 79.5327 131.47 76.6068 131.47 73.9468C131.47 73.1488 130.671 72.6168 129.607 72.6168C123.22 72.6168 110.179 82.7247 110.179 90.7046C110.179 93.3645 112.042 94.6945 114.703 94.6945C120.292 94.9605 124.816 91.7686 128.01 88.5766Z" fill="black"></path><path d="M130.671 85.6506C129.873 85.3846 128.808 84.8526 128.808 84.3206C128.808 83.2566 130.139 82.1926 130.937 82.1926C131.47 82.1926 132.268 82.7246 132.268 82.9906C132.268 83.7886 131.736 84.8526 130.937 85.6506C132.002 86.1826 133.599 86.4486 133.599 87.2466C133.599 88.5766 131.47 90.1725 131.47 91.5025C131.47 91.7685 131.736 92.3005 132.268 92.3005C133.333 92.3005 136.792 88.8425 136.792 88.8425C136.792 88.8425 136.792 88.8425 137.059 88.8425C137.059 88.8425 137.059 88.8425 137.059 89.1085L136.792 89.3745C136.792 89.3745 133.333 92.8325 131.736 92.8325C130.671 92.8325 129.873 92.0345 129.873 90.9705C129.873 89.1085 131.47 87.5126 131.47 86.4486C131.47 86.1826 131.204 85.9166 130.937 85.9166C129.873 87.2466 128.808 88.3105 128.01 89.1085C128.01 89.1085 128.01 89.1085 127.744 89.1085L128.01 88.8425C128.542 87.7785 129.873 86.7146 130.671 85.6506ZM131.47 82.7246C131.204 82.7246 130.139 83.5226 130.139 84.5866C130.139 84.8526 130.405 85.1186 130.671 85.3846C131.47 84.3206 131.736 83.5226 131.47 82.7246C131.736 82.7246 131.736 82.7246 131.47 82.7246Z" fill="black"></path><path d="M144.51 88.5767C144.51 88.8426 144.51 89.1086 144.244 89.1086C144.244 89.1086 141.05 92.5666 138.655 92.5666C137.058 92.5666 136.26 91.5026 136.26 89.9066C136.26 86.9807 139.187 84.0547 140.518 84.0547C141.317 84.0547 141.849 85.1187 141.849 85.6507C141.849 86.4487 139.986 88.3106 138.123 89.3746C138.123 89.6406 138.123 90.1726 138.123 90.4386C138.123 91.5026 138.655 92.3006 139.454 92.3006C141.05 91.7686 144.244 88.5767 144.51 88.5767C144.244 88.5767 144.244 88.5767 144.51 88.5767ZM141.05 85.3847C141.05 85.1187 141.05 85.1187 140.784 85.1187C140.252 85.1187 138.921 86.4487 138.123 88.8426C139.454 87.5126 141.05 86.1827 141.05 85.3847Z" fill="black"></path><path d="M151.163 92.3006C150.099 92.3006 149.301 91.5026 149.301 90.4386C149.301 89.9066 149.301 89.3746 149.301 89.3746C147.704 90.9706 145.309 93.3645 144.776 93.3645C143.978 93.3645 142.913 92.5665 142.913 91.5026C142.913 88.8426 147.171 84.5867 150.099 84.5867C151.43 84.5867 152.494 85.6506 152.494 86.4486C152.494 86.9806 152.228 87.2466 152.228 87.2466L151.962 86.9806C151.962 86.9806 152.228 86.7146 152.228 86.4486C152.228 86.1826 151.962 85.9167 151.696 85.9167C148.768 85.9167 144.51 90.4386 144.51 92.5666C144.51 92.8326 144.51 93.0986 145.042 93.0986C145.575 93.0986 147.97 90.9706 149.567 89.3746C150.631 88.3106 151.163 87.7786 151.43 87.7786C151.696 87.7786 152.494 88.5766 152.494 89.1086C152.494 89.3746 151.163 90.4386 151.163 91.5026C151.163 92.0346 151.43 92.0345 151.962 92.0345C153.559 92.0345 156.486 89.1086 156.486 89.1086C156.486 89.1086 156.486 89.1086 156.752 89.1086L156.486 89.3746C156.22 89.1086 153.026 92.3006 151.163 92.3006Z" fill="black"></path><path d="M163.406 80.3308C165.002 80.3308 166.865 80.5968 166.865 80.8628V81.1288C166.865 81.1288 165.535 80.8628 163.938 80.8628C162.873 80.8628 162.341 81.1288 162.341 81.1288C159.946 84.5867 156.22 89.9067 156.22 93.6306C156.22 94.9606 156.752 95.4926 157.817 95.4926L158.083 95.7586L157.817 96.0246C157.018 96.0246 155.422 94.9606 155.422 92.8326C155.422 89.6407 157.817 85.1187 159.946 81.6608C158.881 81.9268 158.083 82.1927 158.083 82.1927C157.817 82.1927 157.285 81.6607 157.285 81.3947C157.285 81.3947 157.285 81.3948 157.551 81.1288C158.083 80.8628 159.147 80.5968 160.478 80.5968C161.543 78.4688 162.607 76.8728 162.607 76.0748C162.607 75.8088 162.607 75.8088 162.873 75.8088C163.406 75.8088 164.47 77.1388 164.47 77.9368C164.47 78.2028 163.938 79.0008 162.873 80.3308H163.406Z" fill="black"></path><path d="M164.736 90.7047C165.002 90.4387 165.002 90.4387 165.002 90.4387C165.002 90.4387 165.002 90.7047 164.736 90.9707C164.204 91.5027 163.406 92.3007 162.075 92.3007C160.744 92.3007 159.68 91.2367 159.68 89.6407C159.68 86.7148 162.607 83.7888 163.938 83.7888C164.736 83.7888 165.268 84.8528 165.268 85.3848C165.268 86.1828 163.139 88.0448 161.276 89.1087C161.276 89.3747 161.276 89.9067 161.276 90.1727C161.276 91.2367 161.809 92.0347 162.607 92.0347C163.406 91.7687 164.204 91.2367 164.736 90.7047ZM164.736 85.3848C164.736 85.1188 164.736 85.1188 164.47 85.1188C163.938 85.1188 162.607 86.4488 161.543 88.8427C162.873 87.5127 164.736 86.1828 164.736 85.3848Z" fill="black"></path><path d="M102.727 68.0949C103.526 68.6269 104.59 69.1589 105.655 69.6909C106.719 69.4249 107.784 68.8929 108.582 68.0949C107.518 67.8289 106.719 67.2969 105.655 66.7649C104.59 67.2969 103.792 67.8289 102.727 68.0949Z" fill="black"></path><path d="M94.4771 62.2429C94.4771 63.3069 95.0093 64.3709 95.5416 65.4349C96.6061 65.9669 97.6706 66.2329 98.7352 66.4989C98.2029 65.4349 97.9368 64.6369 97.6706 63.5729C96.34 63.3069 95.2754 62.7749 94.4771 62.2429Z" fill="black"></path><path d="M112.574 66.4989C113.639 66.4989 114.703 65.9669 115.768 65.4349C116.3 64.3709 116.566 63.5729 116.832 62.2429C115.768 62.7749 114.969 63.0409 113.905 63.3069C113.372 64.3709 113.106 65.4349 112.574 66.4989Z" fill="black"></path><path d="M102.195 63.307C101.396 63.573 100.598 63.573 99.5336 63.573C99.7997 64.637 100.332 65.435 100.864 66.2329C101.929 65.9669 102.727 65.701 103.792 65.169C103.259 64.637 102.727 64.105 102.195 63.307Z" fill="black"></path><path d="M107.251 65.4349C108.05 65.9669 109.114 66.2329 110.179 66.4989C110.711 65.7009 111.243 64.6369 111.51 63.8389C110.711 63.8389 109.913 63.8389 108.848 63.5729C108.316 64.1049 107.784 64.6369 107.251 65.4349Z" fill="black"></path><path d="M104.324 62.509C104.59 63.041 105.122 63.573 105.389 63.839C105.921 63.307 106.187 63.041 106.453 62.509C105.921 62.243 105.655 61.977 105.122 61.7111C105.122 61.977 104.59 62.243 104.324 62.509Z" fill="black"></path><path d="M100.864 59.8491C100.332 59.8491 99.7997 59.5831 99.5336 59.5831C99.5336 60.1151 99.2675 60.6471 99.2675 61.4451C99.2675 61.4451 99.2675 61.4451 99.2675 61.7111C99.2675 61.7111 99.2675 61.7111 99.5336 61.7111C100.066 61.7111 100.864 61.711 101.397 61.4451C101.13 60.9131 101.13 60.3811 100.864 59.8491Z" fill="black"></path><path d="M110.179 59.8491C110.179 60.3811 109.913 60.9131 109.913 61.1791C110.445 61.1791 110.977 61.445 111.776 61.445C111.776 61.445 111.776 61.445 112.042 61.445C112.042 61.445 112.042 61.4451 112.042 61.1791C112.042 60.6471 112.042 59.8491 111.776 59.3171C110.977 59.5831 110.711 59.8491 110.179 59.8491Z" fill="black"></path><path d="M113.639 58.5191C113.905 59.3171 113.905 60.1151 113.905 61.1791C114.969 60.9131 115.768 60.3811 116.566 59.8491C116.3 58.7851 116.034 57.9871 115.502 56.9231C114.969 57.7211 114.171 58.2531 113.639 58.5191Z" fill="black"></path><path d="M97.1384 61.1791C97.1384 60.3811 97.1384 59.5831 97.4045 58.5191C96.6061 57.9871 96.0739 57.4551 95.2755 56.9231C94.7432 57.7211 94.4771 58.7851 94.2109 59.8491C95.2755 60.3811 96.34 60.9131 97.1384 61.1791Z" fill="black"></path><path d="M103.26 60.913C103.526 60.647 103.792 60.647 104.324 60.381C104.058 60.115 104.058 60.115 103.792 59.849C103.526 59.849 103.26 59.849 102.993 59.849C102.993 60.115 102.993 60.647 103.26 60.913Z" fill="black"></path><path d="M106.985 60.381C107.251 60.647 107.518 60.647 108.05 60.913C108.05 60.647 108.316 60.115 108.316 59.849C108.05 59.849 107.784 59.849 107.518 59.849C107.251 60.115 107.251 60.115 106.985 60.381Z" fill="black"></path><path d="M91.2834 55.3271C91.5496 56.3911 92.0819 57.4551 92.8803 58.2531C93.1464 57.1891 93.6787 56.3911 94.2109 55.3271C93.6787 54.5291 93.1464 53.4651 92.8803 52.4011C92.0819 53.1991 91.5496 54.2631 91.2834 55.3271Z" fill="black"></path><path d="M118.429 52.4011C118.163 53.4651 117.631 54.2631 117.098 55.3271C117.631 56.1251 118.163 57.1891 118.429 58.2531C118.961 57.4551 119.493 56.3911 120.026 55.3271C119.493 54.2631 118.961 53.1991 118.429 52.4011Z" fill="black"></path><path d="M100.066 57.7211C100.332 57.7211 100.864 57.9871 101.13 57.9871C101.13 57.7211 101.13 57.4551 101.13 57.1891C100.864 56.9231 100.864 56.9231 100.598 56.6571C100.332 56.9231 100.066 57.4551 100.066 57.7211Z" fill="black"></path><path d="M110.179 57.9871C110.445 57.9871 110.977 57.7211 111.243 57.7211C110.977 57.4551 110.977 57.1891 110.711 56.6571C110.445 56.9231 110.445 56.9231 110.179 57.1891C110.179 57.4551 110.179 57.7211 110.179 57.9871Z" fill="black"></path><path d="M108.05 52.6672C107.251 52.1352 106.453 51.8691 105.655 51.6031C104.856 51.8691 104.058 52.1352 103.259 52.6672C102.727 53.4651 102.461 54.2631 102.195 55.0611C102.461 55.8591 102.727 56.6571 103.259 57.455C104.058 57.987 104.856 58.253 105.655 58.519C106.453 58.253 107.251 57.987 108.05 57.455C108.582 56.6571 108.848 55.8591 109.114 55.0611C108.848 54.5291 108.582 53.4651 108.05 52.6672Z" fill="black"></path><path d="M112.042 55.3271C112.308 55.8591 112.574 56.1251 112.84 56.6571C113.373 56.3911 113.905 55.859 114.171 55.593C113.639 55.061 113.373 54.7951 112.84 54.5291C112.574 54.5291 112.308 54.7951 112.042 55.3271Z" fill="black"></path><path d="M96.8722 55.0612C96.8722 55.3272 96.8722 55.3272 96.8722 55.0612C96.8722 55.3272 96.8722 55.3272 96.8722 55.0612C97.4045 55.5932 97.6706 56.1252 98.2029 56.3912C98.469 55.8592 98.7351 55.5932 99.0013 55.0612C98.7351 54.5292 98.469 54.2632 98.2029 53.7312C97.6706 54.2632 97.4045 54.7952 96.8722 55.0612Z" fill="black"></path><path d="M110.977 52.9332C110.711 52.9332 110.179 52.6672 109.913 52.6672C109.913 52.9332 109.913 53.1992 109.913 53.4652C110.179 53.7311 110.179 53.7312 110.445 53.9972C110.711 53.4652 110.977 53.1992 110.977 52.9332Z" fill="black"></path><path d="M100.864 52.6672C100.598 52.6672 100.066 52.9332 99.7997 52.9332C100.066 53.1992 100.066 53.4652 100.332 53.9972C100.598 53.7312 100.598 53.7311 100.864 53.4652C100.864 53.1992 100.864 52.9332 100.864 52.6672Z" fill="black"></path><path d="M113.905 49.4751C113.905 50.2731 113.905 51.0711 113.639 52.1351C114.437 52.6671 114.969 53.1991 115.768 53.7311C116.3 52.9331 116.566 51.8691 116.832 50.8051C115.768 50.0071 114.969 49.7411 113.905 49.4751Z" fill="black"></path><path d="M97.1384 49.4751C96.0738 49.7411 95.2754 50.2731 94.4771 50.8051C94.7432 51.8691 95.0093 52.6671 95.5416 53.7311C96.0738 53.1991 96.8722 52.6671 97.6706 52.1351C97.4045 51.0711 97.1384 50.2731 97.1384 49.4751Z" fill="black"></path><path d="M111.51 49.2091C110.977 49.2091 110.179 49.2091 109.647 49.4751C109.913 50.0071 109.913 50.2731 109.913 50.8051C110.445 50.8051 110.977 51.0711 111.243 51.0711C111.776 50.5391 111.776 49.7411 111.51 49.2091C111.776 49.2091 111.776 49.2091 111.51 49.2091C111.776 49.2091 111.51 49.2091 111.51 49.2091Z" fill="black"></path><path d="M100.864 50.8051C100.864 50.2731 101.13 49.7411 101.13 49.4751C100.598 49.4751 100.066 49.2091 99.2675 49.2091C99.2675 49.2091 99.2675 49.2091 99.0013 49.2091C99.0013 49.2091 99.0013 49.2091 99.0013 49.4751C99.0013 50.0071 99.0013 50.8051 99.2675 51.3372C100.066 50.8051 100.332 50.8051 100.864 50.8051Z" fill="black"></path><path d="M107.784 49.7412C107.518 50.0072 107.252 50.0072 106.719 50.2732C106.985 50.5392 106.985 50.5392 107.251 50.8052C107.518 50.8052 107.784 50.8052 108.05 50.8052C108.05 50.2732 108.05 50.0072 107.784 49.7412Z" fill="black"></path><path d="M104.058 50.2732C103.792 50.0072 103.526 50.0072 102.993 49.7412C102.993 50.0072 102.727 50.5392 102.727 50.8052C102.993 50.8052 103.259 50.8052 103.526 50.8052C103.792 50.5392 104.058 50.2732 104.058 50.2732Z" fill="black"></path><path d="M106.719 48.1452C106.453 47.6132 105.921 47.0812 105.655 46.8152C105.122 47.3472 104.856 47.6132 104.59 48.1452C105.122 48.4111 105.388 48.6772 105.921 48.9431C105.921 48.4112 106.453 48.1452 106.719 48.1452Z" fill="black"></path><path d="M98.4691 44.1552C97.4045 44.1552 96.34 44.6872 95.2755 45.2192C94.7432 46.2831 94.4771 47.0811 94.2109 48.4111C95.2755 47.8791 96.0739 47.6131 97.1384 47.3471C97.6707 46.0172 97.9368 45.2191 98.4691 44.1552Z" fill="black"></path><path d="M112.574 44.1552C113.106 45.2191 113.372 46.0171 113.639 47.0811C114.703 47.3471 115.768 47.6131 116.566 48.1451C116.566 47.0811 116.034 46.0171 115.502 44.9531C114.703 44.6872 113.639 44.4211 112.574 44.1552Z" fill="black"></path><path d="M108.848 47.3473C109.647 47.0813 110.445 47.0812 111.51 47.0812C111.243 46.0173 110.711 45.2193 110.179 44.4213C109.114 44.6873 108.316 44.9532 107.251 45.4852C107.784 45.7512 108.316 46.5493 108.848 47.3473Z" fill="black"></path><path d="M103.792 45.2192C102.993 44.6872 101.929 44.4212 100.864 44.1552C100.332 44.9532 99.7997 46.0172 99.5336 46.8152C100.332 46.8152 101.13 46.8152 102.195 47.0812C102.727 46.5492 103.259 45.7512 103.792 45.2192Z" fill="black"></path><path d="M108.316 42.2933C107.517 41.7613 106.453 41.2294 105.388 40.6974C104.324 40.9634 103.259 41.4953 102.461 42.2933C103.525 42.5593 104.324 43.0913 105.388 43.6233C106.453 43.0913 107.251 42.8253 108.316 42.2933Z" fill="black"></path></svg> 