<?xml version="1.0" encoding="UTF-8"?> <svg xmlns="http://www.w3.org/2000/svg" width="214" height="142" viewBox="0 0 214 142" fill="none"><path d="M194.277 141.244H19.1616C8.51629 141.244 0 132.732 0 122.092V19.1517C0 8.51187 8.51629 0 19.1616 0H194.277C204.922 0 213.439 8.51187 213.439 19.1517V122.092C213.173 132.732 204.656 141.244 194.277 141.244ZM18.8955 8.24585C12.7744 8.24585 7.71784 13.2998 7.71784 19.4177V122.092C7.71784 128.21 12.7744 133.264 18.8955 133.264H194.011C200.132 133.264 205.189 128.21 205.189 122.092V19.1517C205.189 13.0338 200.132 7.97988 194.011 7.97988H18.8955V8.24585Z" fill="black"></path><path d="M55.6219 56.9231C55.3558 57.1891 55.3559 57.7211 55.3559 58.2531L54.5574 59.8491L52.9606 63.307C52.4283 64.371 51.8961 65.169 51.6299 66.233C52.4283 66.233 53.2268 66.499 54.0252 66.233C54.2913 66.233 54.2913 66.233 54.5574 66.233C54.5574 66.233 54.5574 65.967 54.8236 65.967C55.0897 65.967 55.3558 65.967 55.0897 66.499C55.0897 66.765 54.2913 67.031 54.0252 67.031C53.4929 67.297 52.9607 67.031 52.4284 67.297C52.1623 67.297 51.8961 67.563 51.6299 67.563C51.0977 67.829 50.5654 69.159 50.2993 69.691L49.2348 72.6169C48.7025 73.6809 48.4364 74.7449 48.1702 75.8089C47.3718 77.9368 46.3073 80.3308 45.5089 82.4588C44.9767 83.7888 44.7105 85.1187 43.1137 84.0547C42.3153 83.5227 42.0492 82.9908 42.3153 82.1928C42.5814 80.8628 43.1138 79.7988 43.3799 78.4688C43.9122 76.8729 44.4444 75.5429 44.9766 74.2129C45.775 72.3509 46.3074 70.2229 47.3719 68.095C46.8396 68.095 46.3073 68.3609 45.5089 68.6269C44.7105 68.6269 43.9122 68.893 43.3799 68.893C42.5815 68.893 41.2508 69.159 40.9846 69.691C40.7185 69.9569 40.4524 71.0209 40.1863 71.5529L39.9201 72.6169C39.654 73.6809 39.1217 74.7449 38.8556 75.8089C38.5895 77.1389 38.0572 78.2028 37.7911 79.5328C37.525 80.3308 37.525 81.9268 36.7266 81.9268C35.9282 82.1927 34.5975 80.8628 34.5975 80.0648C34.3313 79.2668 34.8636 78.4688 34.8636 77.9368C35.662 75.2768 36.7265 72.6169 37.5249 69.9569C36.9927 69.6909 35.9281 69.4249 36.1943 68.6269C36.4604 68.3609 36.9927 68.095 37.2588 68.095C37.7911 67.829 38.0572 68.095 38.3233 67.563C38.5894 67.031 38.5895 66.765 38.8556 66.233C39.1217 65.169 39.654 64.371 39.9201 63.307C41.2508 60.3811 42.3153 57.1891 43.9121 54.2632C44.1782 53.9972 44.1783 53.7312 44.1783 53.4652C44.1783 53.4652 44.4444 52.9332 44.1783 53.1992C44.4444 52.6672 45.2428 52.9332 45.7751 52.9332C46.5735 53.1992 47.3719 53.7312 47.1057 54.5292C46.8396 55.0612 46.5734 55.3272 46.3073 55.8592C46.0412 56.3912 46.0412 56.9231 45.7751 57.4551C45.5089 58.2531 45.2428 58.7851 44.7106 59.5831C44.1783 60.9131 43.646 61.977 43.1137 63.307C42.8476 64.105 42.8476 64.637 42.3153 65.435C42.0492 65.967 41.7831 66.499 41.5169 67.031C42.5815 67.031 43.3799 66.765 44.1783 66.499H45.7751C46.3073 66.499 47.1057 66.499 47.6379 66.499C48.1702 66.233 48.9686 64.105 49.2348 63.307L50.5654 59.8491L53.2268 53.9972C53.4929 53.4652 53.4929 52.9332 54.2913 53.1992C55.0897 53.1992 56.1542 53.9972 56.4204 54.7952C56.6865 55.5931 55.8881 56.1251 55.6219 56.9231ZM43.1137 60.1151C42.3153 61.7111 41.517 63.041 40.7186 64.637C40.1863 66.233 39.654 67.829 39.1218 69.4249C39.654 68.095 40.1863 67.031 40.7186 65.701L43.1137 60.1151ZM45.5089 78.4688C45.2428 78.7348 44.9767 79.2668 44.7106 79.5328C44.4444 79.7988 44.4444 80.3308 44.4444 80.5968C44.4444 80.3308 44.7106 80.3308 44.7106 80.0648C45.2428 79.5328 45.2428 79.0008 45.5089 78.4688Z" fill="black"></path><path d="M69.7269 72.6168C69.1947 73.6808 68.6624 74.7448 68.1301 75.5428C67.3317 76.6068 66.7995 77.6708 66.0011 78.4688C65.4688 79.2668 64.4043 80.3307 63.3398 80.5967C62.0091 80.8627 61.2107 79.7987 60.6785 78.7348C59.8801 76.6068 60.4123 74.4788 60.9445 72.3509C60.9445 72.3509 60.9445 72.0849 60.9445 71.8189C60.6784 72.3509 60.1462 72.8828 59.88 73.4148C59.3478 74.2128 59.0816 74.7448 58.5494 75.2768C58.2832 75.5428 55.3558 79.0008 55.0897 78.4688C55.0897 78.4688 55.622 78.2028 55.3558 78.2028C54.8236 78.4688 54.2913 78.4688 53.759 78.4688H54.0252C53.2268 78.4688 52.6945 77.4048 52.4284 76.6068C52.1622 75.5428 52.1622 74.4788 52.4284 73.4148C52.6945 71.2869 53.759 69.1589 54.8235 67.2969C55.0897 66.7649 55.3558 66.4989 55.888 65.9669C56.1542 65.7009 56.4204 65.701 56.6865 65.435C57.2188 64.903 57.751 64.637 58.5494 64.637C60.4123 64.637 60.9446 66.4989 61.4768 68.0949C62.2752 67.0309 63.872 65.435 65.2027 67.031C66.0011 67.8289 65.4688 68.6269 64.9365 69.4249C64.1381 70.7549 63.6059 72.0849 63.3398 73.4148C63.3398 73.4148 63.6059 72.8828 63.6059 72.6168C63.872 72.6168 61.2107 80.5967 64.9365 76.0748C66.001 74.7448 67.0656 73.1489 67.864 71.8189C68.3963 71.0209 68.6624 70.4889 69.1946 69.6909C69.4608 69.4249 69.9931 68.6269 69.9931 69.4249C70.7915 71.0209 69.9931 71.8189 69.7269 72.6168ZM60.6785 69.9569C60.6785 69.6909 59.88 67.8289 60.1462 67.5629L60.4123 68.6269C60.4123 68.0949 60.1461 66.7649 59.6139 66.7649C58.5493 66.7649 57.4848 68.8929 57.2187 69.6909C56.4203 71.2869 55.888 72.8828 55.6219 74.7448C55.6219 74.2128 57.751 67.8289 58.5494 67.8289C58.0171 67.8289 56.1542 73.4148 56.1542 73.9468C56.1542 74.2128 55.6219 76.0748 56.1542 76.3408C56.4203 76.3408 57.4849 75.2768 57.4849 75.0108C58.2832 74.2128 58.8155 73.4149 59.3478 72.3509L60.1462 71.0209C60.4123 70.7549 60.4123 70.4889 60.6785 70.2229C60.6785 70.2229 60.6785 70.2229 60.6785 69.9569ZM60.6785 69.6909V69.9569C60.9446 69.9569 60.9446 69.6909 60.6785 69.6909ZM61.743 71.2869C61.4769 71.5529 61.4768 72.0849 61.4768 72.0849L61.743 71.2869Z" fill="black"></path><path d="M88.6224 69.9569C88.3563 71.0209 87.5579 71.2869 86.7595 71.8189C86.2272 72.3509 85.4288 72.8829 84.8965 73.1489C84.3642 73.4149 83.832 73.4149 83.5658 73.6809C83.5658 73.6809 83.2997 73.9469 83.0336 74.2129C82.7675 74.4789 82.5013 74.7449 82.2351 74.7449C81.7029 75.0109 81.4367 75.0109 80.9045 75.0109C80.6383 75.0109 79.0416 77.1388 78.7754 77.4048C78.2432 77.9368 77.7109 78.7348 77.1786 79.2668C76.6463 79.7988 75.848 80.8628 75.0496 80.8628C74.2512 80.8628 73.4527 79.2668 73.1866 78.7348C72.9205 77.6708 73.4528 78.2028 73.9851 77.9368C74.7835 77.6708 75.5818 76.6068 76.1141 76.0748C76.9125 75.2769 77.4447 74.4789 78.2431 73.4149C78.5093 73.1489 78.7755 72.8829 79.0416 72.6169L79.3077 71.8189V72.0849L79.5738 71.8189L79.84 71.2869C80.1061 71.0209 80.1061 70.4889 80.3723 70.2229C80.6384 69.4249 81.1706 68.627 81.4368 67.829C81.4368 67.563 81.7029 65.967 81.1706 65.967C80.9045 65.967 79.3077 67.297 79.3077 67.297L79.5738 67.031C79.3077 67.297 79.0416 67.563 78.7754 68.095C78.7754 68.095 79.0416 68.095 79.0416 67.829C78.7755 68.095 75.8479 72.0849 75.5818 72.3509C75.0495 73.1489 74.5173 73.9469 73.9851 74.7449C73.7189 75.2769 73.4527 75.8089 73.1866 76.0748C72.9205 76.3408 72.9205 76.3409 72.6544 76.3409C72.3882 76.8729 71.8559 77.6708 71.5898 78.2028C71.0575 79.0008 70.7914 79.7988 70.2591 80.5968C69.7268 81.3948 69.7269 82.1928 69.4607 82.9908C69.1946 83.5228 68.9284 84.0547 68.9284 84.5867C68.9284 84.5867 68.9285 84.3208 69.1946 84.3208L68.9284 85.6507L68.6624 87.2467C68.3962 88.3107 68.1301 89.6407 68.1301 90.7047C68.1301 91.2366 68.1301 92.0347 67.8639 92.3006C67.0655 93.0986 66.001 91.7686 65.7349 91.2366C64.9365 89.6407 65.7349 86.7147 66.001 84.8527C66.2672 83.5228 66.5333 82.4588 66.7994 81.3948C67.0655 81.1288 67.0656 80.8628 67.3317 80.3308C67.3317 80.3308 67.3316 79.5328 67.5978 79.5328V79.2668C67.3316 79.5328 67.5978 78.7348 67.5978 78.7348C67.5978 78.4688 67.8639 77.9368 67.8639 77.6708C68.1301 76.8729 68.3962 76.3409 68.3962 75.8089C68.3962 75.5429 69.4608 72.6169 69.7269 72.6169V72.8829C69.993 72.6169 69.993 72.3509 69.993 71.8189C69.993 71.8189 69.993 72.0849 69.7269 72.0849C69.7269 72.0849 71.0576 68.361 71.0576 68.095C71.3237 67.297 71.5898 66.765 71.8559 65.967C71.8559 65.701 72.1221 65.435 72.1221 65.435C72.1221 65.169 71.8559 65.169 71.8559 65.169C71.8559 64.371 72.3882 63.307 73.4528 63.573C73.985 63.839 74.5173 64.105 74.7834 64.637C75.0496 65.169 75.0496 65.435 74.7834 65.967V65.701C75.0496 65.701 74.5173 67.297 74.5173 67.031V66.499C74.2511 67.563 73.985 68.361 73.7189 69.4249L73.4528 69.9569C73.4528 69.9569 73.4527 70.2229 73.1866 70.2229C72.3882 72.6169 71.0575 76.8728 70.7914 77.4048C71.0575 76.8728 71.3236 76.3409 71.5898 75.8089C71.3236 76.3409 71.0576 76.6068 71.0576 76.6068C71.0576 76.6068 74.5173 70.7549 75.0496 70.2229C76.3802 68.361 77.7109 66.233 79.0416 64.371C79.5739 63.573 80.9045 62.243 81.9691 62.243C83.832 62.509 84.3643 64.637 84.3643 65.967C84.3643 65.701 84.3643 65.435 84.6304 65.435C85.1627 65.701 84.3643 68.361 84.0981 68.893C83.832 69.9569 83.0336 71.2869 82.5013 72.3509C83.2997 72.0849 83.832 71.5529 84.6304 71.0209C85.1627 70.7549 85.961 70.4889 86.4933 70.2229C86.4933 69.9569 88.3563 69.4249 88.3563 69.4249C88.3563 69.9569 88.6224 69.9569 88.6224 69.9569ZM69.993 73.4149C69.993 73.6809 69.4607 75.0109 69.1946 75.2769C68.6623 76.6068 67.864 78.2028 67.3317 79.7988C66.7994 81.3948 66.2671 83.2568 65.7349 84.8527C66.001 83.5228 66.5333 82.4588 67.0655 81.1288C67.5978 79.7988 68.1301 78.4688 68.6624 76.8728C68.9285 76.0749 69.1946 75.5429 69.4607 74.7449C69.7269 74.7449 69.993 74.2129 69.993 73.4149C69.993 73.6809 69.993 73.6809 69.993 73.4149ZM71.3237 75.8089C71.5898 75.5429 71.5898 75.0109 71.5898 74.7449C71.3236 75.0109 71.3237 75.5429 71.3237 75.8089ZM73.7189 69.159L73.4528 69.4249L73.7189 69.159ZM73.7189 69.159C73.7189 68.893 73.7189 68.893 73.7189 68.893V69.159ZM75.3157 70.4889C75.3157 70.4889 75.3157 70.223 75.3157 70.4889V70.4889ZM75.8479 69.9569L76.6464 68.893C76.1141 69.1589 76.1141 69.4249 75.8479 69.9569ZM82.5013 72.8829C82.5013 72.8829 82.2351 72.8829 82.2351 73.1489L82.5013 72.8829Z" fill="black"></path><path d="M106.453 69.9569C106.187 71.0209 105.389 71.2869 104.591 71.8189C104.058 72.3509 103.26 72.8829 102.728 73.1489C102.195 73.4149 101.663 73.4149 101.397 73.6809C101.397 73.6809 101.131 73.9469 100.865 74.2129C100.598 74.4789 100.332 74.7449 100.066 74.7449C99.534 75.0109 99.2678 75.0109 98.7356 75.0109C98.4694 75.0109 96.8727 77.1388 96.6065 77.4048C96.0743 77.9368 95.542 78.7348 95.0097 79.2668C94.4775 79.7988 93.679 80.8628 92.8806 80.8628C92.0822 80.8628 91.2839 79.2668 91.0177 78.7348C90.7516 77.6708 91.2838 78.2028 91.8161 77.9368C92.6145 77.6708 93.4129 76.6068 93.9452 76.0748C94.7436 75.2769 95.2758 74.4789 96.0742 73.4149C96.3404 73.1489 96.6065 72.8829 96.8726 72.6169L97.1388 71.8189V72.0849L97.4049 71.8189L97.6711 71.2869C97.9372 71.0209 97.9371 70.4889 98.2033 70.2229C98.4694 69.4249 99.0017 68.627 99.2679 67.829C99.2679 67.563 99.534 65.967 99.0017 65.967C98.7356 65.967 97.1388 67.297 97.1388 67.297L97.4049 67.031C97.1388 67.297 96.8727 67.563 96.6065 68.095C96.6065 68.095 96.8726 68.095 96.8726 67.829C96.6065 68.095 93.679 72.0849 93.4129 72.3509C92.8806 73.1489 92.3484 73.9469 91.8161 74.7449C91.55 75.2769 91.2839 75.8089 91.0177 76.0748C90.7516 76.3408 90.7516 76.3409 90.4854 76.3409C90.2193 76.8729 89.687 77.6708 89.4209 78.2028C88.8886 79.0008 88.6225 79.7988 88.0902 80.5968C87.558 81.3948 87.558 82.1928 87.2919 82.9908C87.0257 83.5228 86.7596 84.0547 86.7596 84.5867C86.7596 84.5867 86.7596 84.3208 87.0257 84.3208L86.7596 85.6507L86.4934 87.2467C86.2273 88.3107 85.9612 89.6407 85.9612 90.7047C85.9612 91.2366 85.9612 92.0347 85.695 92.3006C84.8966 93.0986 83.8321 91.7686 83.5659 91.2366C82.7675 89.6407 83.5659 86.7147 83.8321 84.8527C84.0982 83.5228 84.3644 82.4588 84.6305 81.3948C84.8967 81.1288 84.8966 80.8628 85.1627 80.3308C85.1627 80.3308 85.1628 79.5328 85.4289 79.5328V79.2668C85.1628 79.5328 85.4289 78.7348 85.4289 78.7348C85.4289 78.4688 85.695 77.9368 85.695 77.6708C85.9612 76.8729 86.2273 76.3409 86.2273 75.8089C86.2273 75.5429 87.2918 72.6169 87.5579 72.6169V72.8829C87.8241 72.6169 87.8241 72.3509 87.8241 71.8189C87.8241 71.8189 87.8241 72.0849 87.5579 72.0849C87.5579 72.0849 88.8886 68.361 88.8886 68.095C89.1547 67.297 89.4209 66.765 89.687 65.967C89.687 65.701 89.9532 65.435 89.9532 65.435C89.9532 65.169 89.687 65.169 89.687 65.169C89.687 64.371 90.2193 63.307 91.2839 63.573C91.8161 63.839 92.3484 64.105 92.6145 64.637C92.8807 65.169 92.8807 65.435 92.6145 65.967V65.701C92.8807 65.701 92.3484 67.297 92.3484 67.031V66.499C92.0823 67.563 91.8161 68.361 91.5499 69.4249L91.2839 69.9569C91.2839 69.9569 91.2839 70.2229 91.0177 70.2229C90.2193 72.6169 88.8887 76.8728 88.6225 77.4048C88.8887 76.8728 89.1548 76.3409 89.4209 75.8089C89.1548 76.3409 88.8886 76.6068 88.8886 76.6068C88.8886 76.6068 92.3483 70.7549 92.8806 70.2229C94.2113 68.361 95.5419 66.233 96.8726 64.371C97.4049 63.573 98.7356 62.243 99.8001 62.243C101.663 62.509 102.195 64.637 102.195 65.967C102.195 65.701 102.195 65.435 102.461 65.435C102.994 65.701 102.195 68.361 101.929 68.893C101.663 69.9569 100.865 71.2869 100.332 72.3509C101.131 72.0849 101.663 71.5529 102.461 71.0209C102.994 70.7549 103.792 70.4889 104.324 70.2229C104.324 69.9569 106.187 69.4249 106.187 69.4249C106.187 69.9569 106.453 69.9569 106.453 69.9569ZM87.8241 73.4149C87.8241 73.6809 87.2918 75.0109 87.0257 75.2769C86.4934 76.6068 85.695 78.2028 85.1627 79.7988C84.6305 81.3948 84.0982 83.2568 83.5659 84.8527C83.8321 83.5228 84.3643 82.4588 84.8966 81.1288C85.4289 79.7988 85.9611 78.4688 86.4934 76.8728C86.7595 76.0749 87.0257 75.5429 87.2919 74.7449C87.558 74.7449 87.8241 74.2129 87.8241 73.4149C87.8241 73.6809 87.8241 73.6809 87.8241 73.4149ZM89.1547 75.8089C89.4209 75.5429 89.4209 75.0109 89.4209 74.7449C89.4209 75.0109 89.1547 75.5429 89.1547 75.8089ZM91.5499 69.159L91.2839 69.4249L91.5499 69.159ZM91.5499 69.159C91.5499 68.893 91.5499 68.893 91.5499 68.893V69.159ZM93.4129 70.4889C93.4129 70.4889 93.4129 70.223 93.4129 70.4889V70.4889ZM93.6791 69.9569L94.4774 68.893C94.2113 69.1589 93.9452 69.4249 93.6791 69.9569ZM100.599 72.8829C100.599 72.8829 100.332 72.8829 100.332 73.1489L100.599 72.8829Z" fill="black"></path><path d="M123.486 71.5528L120.292 73.9468C119.228 74.7448 118.163 75.8087 117.099 76.6067C116.566 76.8727 116.034 77.4047 115.502 77.9367C115.236 78.4687 114.969 79.5327 114.703 80.0647C113.373 84.3206 112.042 88.5766 109.913 92.3005C109.115 93.3645 108.582 94.6945 107.252 94.9605C105.655 95.4925 103.792 94.6945 102.993 93.3645C101.663 91.5025 103.26 89.3746 104.324 87.7786C105.389 86.4486 106.453 84.8526 107.784 83.5227C108.582 82.7247 109.647 81.6607 110.711 80.8627C111.51 80.0647 112.574 79.5327 113.107 78.4687C113.639 77.4048 113.905 76.0747 114.171 74.7448C114.437 73.6808 114.703 72.8828 114.969 71.8188C114.437 72.3508 113.905 73.1488 113.373 73.6808L110.977 76.0747C110.179 76.8727 109.381 77.6707 108.316 78.2027C108.05 78.2027 106.719 78.7347 106.719 78.7347H106.453C106.719 78.7347 105.921 79.0007 105.921 79.0007C105.655 79.0007 105.123 79.0007 104.856 78.7347C104.058 78.4687 103.792 77.4047 103.526 76.8727C103.526 76.6067 103.526 74.4788 104.058 74.4788V74.7448C104.058 74.4788 104.058 74.2128 104.324 73.9468C104.058 73.9468 105.389 70.4888 105.389 69.9568C105.655 69.1588 105.921 68.3609 106.187 67.8289C106.453 67.5629 106.453 67.5629 106.719 67.2969C106.719 67.2969 106.985 67.0309 106.985 66.7649C107.252 65.9669 108.316 65.4349 109.115 65.7009C109.381 65.9669 109.913 66.2329 109.913 66.7649C109.913 67.0309 109.647 67.0309 109.647 67.2969C109.647 67.2969 109.115 68.6269 109.115 68.3609C109.115 68.3609 109.115 68.0949 109.115 67.8289C108.316 69.4249 107.518 71.2868 106.985 72.8828C107.252 72.3508 108.316 69.4248 108.582 69.4248C108.582 69.4248 105.123 76.3408 106.985 76.8727C107.518 77.1387 108.848 76.0748 109.115 75.5428C110.179 74.7448 111.244 73.9468 112.042 73.1488H111.776C111.776 73.1488 113.373 71.0208 113.639 70.7548C114.171 69.9568 115.236 69.4249 115.502 68.3609C115.768 67.8289 115.768 67.5629 116.566 67.2969C117.365 67.0309 118.695 67.5629 118.961 68.6268C118.961 69.1588 118.961 69.4249 118.695 69.6909C117.631 71.5528 116.566 73.4148 116.034 75.2768C117.631 73.9468 119.228 72.6168 121.091 71.2868C121.623 70.7548 122.421 70.4888 122.953 69.9568C123.22 69.6908 124.284 68.6269 124.55 69.6909C124.816 71.0208 124.018 71.2868 123.486 71.5528ZM112.042 81.3947C110.445 82.7247 109.115 84.3206 108.05 85.9166C106.719 87.5126 105.389 89.1086 104.856 90.9706C104.59 91.7685 104.856 94.1625 106.187 93.6305C106.985 93.3645 107.518 92.3005 107.784 91.7686C108.316 90.9706 108.582 90.1726 109.115 89.3746L109.381 89.1086C110.445 86.1826 111.244 83.7886 112.042 81.3947ZM110.977 89.3746L111.244 88.8426C111.51 88.3106 111.776 87.5126 112.042 86.9806C111.776 87.5126 111.51 87.7786 111.51 88.3106C111.244 88.5766 110.977 89.1086 110.977 89.3746ZM112.574 83.7887C112.574 84.0547 112.308 84.8526 112.308 85.1186C112.042 85.3846 112.042 85.6506 112.042 85.9166L112.574 84.3206C112.574 84.0547 112.574 84.0547 112.574 83.7887Z" fill="black"></path><path d="M146.639 60.381C146.373 60.381 146.639 60.647 146.639 60.381C146.639 60.647 146.639 61.179 146.639 61.179V60.913C146.639 61.445 146.639 62.243 146.373 62.775C146.373 62.509 146.639 62.243 146.639 62.243C146.639 62.509 146.373 63.041 146.373 63.307C146.107 64.105 145.841 64.903 145.575 65.701C145.043 67.2969 143.978 68.6269 142.913 69.9569C141.849 71.2868 140.784 72.3508 139.454 73.4148C138.921 73.6808 138.389 73.9468 137.857 74.2128C137.325 74.4788 137.059 75.0108 136.526 75.2768C135.196 76.0748 133.599 77.1388 132.268 77.4047C132.002 77.4047 131.736 77.4047 131.47 77.4047C131.204 77.4047 130.937 77.4047 130.671 77.4047C130.405 77.1388 130.139 77.4048 130.139 77.6708C129.607 78.2028 129.341 79.5327 129.074 80.5967C128.276 82.4587 127.744 84.5867 127.478 86.4486C127.478 86.4486 127.478 86.4486 127.478 86.1826C126.945 86.9806 124.816 87.2466 124.55 85.9166V85.6506C124.55 85.6506 124.55 85.6506 124.55 85.9166C124.018 85.1186 124.55 83.7887 124.816 82.9907L125.615 79.2667C125.881 78.2027 126.147 77.1388 126.679 76.0748C126.945 75.8088 126.945 75.2768 127.212 75.0108L127.478 73.9468C127.478 73.9468 127.478 73.9468 127.478 74.2128V73.9468C127.212 74.2128 127.478 73.4148 127.478 73.4148C127.744 72.8828 127.744 72.6168 128.01 72.0848C128.276 71.2868 128.542 70.7549 128.542 70.2229C128.542 69.9569 129.607 67.0309 130.139 67.0309V67.2969C130.405 67.0309 130.405 66.7649 130.405 66.2329C130.405 66.2329 130.405 66.499 130.139 66.499C130.139 66.499 132.002 62.243 132.268 61.711C132.534 60.913 132.8 60.115 133.333 59.317C133.599 59.051 133.865 59.0511 133.865 58.7851C133.865 58.5191 134.131 58.2531 134.131 58.2531C134.397 57.9871 134.663 56.9231 135.196 56.9231C135.994 56.6571 136.526 57.7211 136.792 58.2531C137.058 58.7851 136.792 59.051 136.792 59.317C136.792 59.317 136.26 60.647 135.994 60.647V60.381C134.929 62.243 134.131 64.105 133.333 66.2329C133.333 65.9669 135.196 62.243 135.196 62.243C135.196 62.243 133.067 66.7649 133.067 67.2969C132.268 68.8929 131.736 70.4889 131.204 72.3508C132.002 70.7549 132.8 69.1589 133.865 67.5629C134.663 66.2329 135.994 65.169 136.792 63.839C136.792 63.839 137.059 63.041 137.325 63.041L137.059 63.573L137.591 63.041C137.591 62.509 138.389 61.711 138.921 61.445C139.454 60.913 139.986 60.3811 140.252 59.8491C141.051 59.0511 142.115 57.7211 143.18 57.4551C144.776 56.6571 146.373 58.7851 146.639 60.381ZM124.816 83.2566C124.55 83.7886 124.55 84.3206 124.55 84.8526C124.55 84.5866 124.816 84.5866 124.816 84.3207C124.816 84.0547 124.816 83.7886 124.816 83.2566ZM125.082 82.1927C125.615 80.0647 126.413 78.2027 127.212 76.0748C126.679 77.4047 125.881 78.4687 125.615 80.0647C125.349 80.5967 125.082 81.6607 125.082 82.1927ZM142.913 61.711C143.18 58.2531 139.454 62.775 138.921 63.573C137.059 65.9669 134.929 68.3609 133.333 71.0209C133.333 71.0209 133.333 70.7549 133.599 70.7549C133.599 70.7549 132.534 72.8828 132.268 73.1488C131.736 73.9468 131.204 75.0108 130.937 75.8088C131.204 75.8088 132.534 75.0108 132.534 75.2768C132.534 75.2768 131.736 75.5428 131.47 75.8088C134.929 74.2128 138.123 71.5529 140.252 68.3609C139.454 69.4249 138.655 70.2229 137.857 71.2868C137.325 71.8188 136.792 72.3508 136.26 72.8828C135.994 73.1488 135.462 73.4148 134.929 73.6808C135.196 73.4148 135.994 72.8828 136.26 72.6168C136.792 72.3508 137.059 71.8188 137.591 71.5529C138.389 70.7549 139.188 69.6909 139.986 68.6269C141.317 66.4989 142.647 64.105 142.913 61.711ZM132.534 67.5629L131.736 69.4249L132.534 67.5629Z" fill="black"></path><path d="M159.148 77.9367C158.615 79.0006 158.083 80.0646 157.551 80.8626C156.752 81.9266 156.22 82.9906 155.422 83.7886C154.89 84.5866 153.825 85.6505 152.76 85.9165C151.43 86.1825 150.631 85.1186 150.099 84.0546C149.301 81.9266 149.833 79.7987 150.365 77.6707C150.365 77.6707 150.365 77.4047 150.365 77.1387C150.099 77.6707 149.567 78.2027 149.301 78.7347C148.768 79.5326 148.502 80.0646 147.97 80.5966C147.704 80.8626 144.776 84.3206 144.51 83.7886C144.51 83.7886 145.043 83.5226 144.776 83.5226C144.244 83.7886 143.712 83.7886 143.18 83.7886H143.446C142.647 83.7886 142.115 82.7246 141.849 81.9266C141.583 80.8626 141.583 79.7986 141.849 78.7347C142.115 76.6067 143.18 74.4787 144.244 72.6167C144.51 72.0848 144.776 71.8188 145.309 71.2868C145.575 71.0208 145.841 71.0208 146.107 70.7548C146.639 70.2228 147.172 69.9568 147.97 69.9568C149.833 69.9568 150.365 71.8188 150.898 73.4147C151.696 72.3508 153.293 70.7548 154.623 72.3508C155.422 73.1488 154.89 73.9467 154.357 74.7447C153.559 76.0747 153.027 77.4047 152.76 78.7347C152.76 78.7347 153.027 78.2027 153.027 77.9367C153.293 77.9367 150.631 85.9166 154.357 81.3946C155.422 80.0646 156.486 78.4687 157.285 77.1387C157.817 76.3407 158.083 75.8087 158.615 75.0107C158.882 74.7447 159.414 73.9467 159.414 74.7447C160.212 76.3407 159.414 77.1387 159.148 77.9367ZM150.099 75.2767C150.099 75.0107 149.301 73.1488 149.567 72.8828L149.833 73.9467C149.833 73.4147 149.567 72.0848 149.035 72.0848C147.97 72.0848 146.906 74.2127 146.639 75.0107C145.841 76.6067 145.309 78.2027 145.043 80.0646C145.043 79.5326 147.172 73.1488 147.97 73.1488C147.438 73.1488 145.575 78.7347 145.575 79.2666C145.575 79.5326 145.043 81.3946 145.575 81.6606C145.841 81.6606 146.906 80.5967 146.906 80.3307C147.704 79.5327 148.236 78.7347 148.768 77.6707L149.567 76.3407C149.833 76.0747 149.833 75.8087 150.099 75.5427C150.099 75.5427 150.099 75.5427 150.099 75.2767ZM150.099 75.0107V75.2767C150.365 75.2767 150.365 75.0107 150.099 75.0107ZM150.898 76.6067C150.631 76.8727 150.631 77.4047 150.631 77.4047L150.898 76.6067Z" fill="black"></path><path d="M171.656 76.8727C171.39 77.4047 171.123 77.9367 170.591 78.7347C169.793 80.0647 168.994 81.1287 167.93 82.4587C167.132 83.5227 166.067 84.8526 165.002 85.6506C164.736 85.9166 163.14 86.9806 163.14 86.9806H162.873C163.14 86.9806 162.341 87.5126 162.075 87.5126C161.543 87.5126 161.01 87.5126 160.744 87.2466C160.212 86.9806 159.946 86.4486 159.946 85.9166C159.68 85.1186 159.68 84.3206 159.68 83.5227C159.68 83.2567 160.212 81.3947 160.478 81.3947V81.6607L160.744 80.8627C160.744 80.8627 162.607 76.8727 162.607 76.6067C161.543 76.8727 160.212 76.8728 159.414 75.8088C159.148 75.5428 159.148 75.2768 159.148 75.0108C159.148 74.7448 158.881 74.4788 158.881 74.2128C158.615 72.3508 160.478 69.9568 162.341 71.2868C162.341 71.0208 162.873 71.5528 162.873 71.8188C162.873 72.0848 162.607 72.8828 162.341 72.8828C162.341 72.8828 162.607 72.3508 162.607 72.0848C162.341 72.8828 161.543 73.4148 161.543 74.2128C161.543 74.7448 161.809 74.7448 162.341 74.7448C163.14 75.0108 164.204 74.7448 165.002 75.0108C164.47 74.7448 163.672 74.7448 163.406 74.7448C163.938 74.7448 164.47 74.7448 165.002 75.0108C166.067 75.2768 166.599 75.5428 166.333 76.8727C165.801 77.9367 165.269 79.0007 165.002 80.0647C164.47 81.1287 164.204 82.1927 163.938 83.2566C163.938 83.5226 163.14 85.1186 163.406 85.3846C163.672 85.9166 165.801 84.0547 166.333 83.5227C166.333 83.5227 166.067 83.5227 166.067 83.7887L166.865 82.7247L167.93 81.3947L169.793 79.0007L171.656 76.3408C171.922 76.0748 172.72 75.0108 172.986 75.8088C172.188 76.0748 171.656 76.6067 171.656 76.8727ZM160.478 86.7146C160.478 86.4486 160.478 86.4486 160.478 86.7146C160.212 86.1826 160.212 85.9166 159.946 85.6506V86.1826L159.68 85.3846V85.1187C159.68 84.5867 159.68 84.0547 159.68 83.7887C159.68 84.0547 159.68 84.3206 159.68 84.8526C159.68 85.3846 159.68 85.6506 159.68 86.1826C160.212 85.9166 160.478 86.4486 160.478 86.7146C160.744 86.7146 160.744 86.7146 160.478 86.7146C160.744 86.9806 161.01 87.2466 161.277 87.5126C161.01 87.2466 160.744 86.7146 160.478 86.7146ZM160.212 82.7247C160.212 82.9907 160.212 82.9907 160.212 82.7247C160.212 82.9907 160.212 82.9907 160.212 82.7247ZM160.212 82.7247C160.478 81.9267 160.744 80.8627 161.277 80.0647L162.075 78.4687C162.341 78.2027 162.873 76.3408 163.14 76.3408C162.873 76.3408 162.341 77.6707 162.341 77.6707C162.075 78.2027 161.809 79.0007 161.543 79.5327C161.011 80.5967 160.478 81.6607 160.212 82.7247ZM160.478 86.1826C160.478 86.1826 160.212 86.1826 160.478 86.1826C160.212 86.1826 160.478 86.1826 160.478 86.1826ZM161.277 74.4788C161.543 74.7448 161.543 74.7448 161.277 74.4788C161.809 74.7448 162.075 75.0108 162.341 75.0108C162.075 75.0108 161.809 75.0108 161.543 74.7448C161.543 74.7448 161.277 74.7448 161.277 74.4788ZM165.269 77.6707L164.47 79.2667L165.269 77.6707Z" fill="black"></path></svg> 