<?xml version="1.0" encoding="UTF-8"?> <svg xmlns="http://www.w3.org/2000/svg" width="214" height="142" viewBox="0 0 214 142" fill="none"><path d="M194.277 141.244H19.1616C8.51624 141.244 0 132.732 0 122.092V19.1518C0 8.51191 8.51624 0 19.1616 0H194.277C204.922 0 213.439 8.51191 213.439 19.1518V122.092C213.439 132.732 204.656 141.244 194.277 141.244ZM19.1616 8.2459C13.0405 8.2459 7.98399 13.2998 7.98399 19.4177V122.358C7.98399 128.476 13.0405 133.53 19.1616 133.53H194.277C200.398 133.53 205.455 128.476 205.455 122.358V19.4177C205.455 13.2998 200.398 8.2459 194.277 8.2459H19.1616Z" fill="black"></path><path d="M69.1944 80.5969C67.3315 80.5969 66.5331 79.7989 66.0009 79.0009C65.7347 78.4689 65.4686 77.9369 65.4686 77.4049V68.0951H54.8233V77.4049C54.8233 77.9369 54.5572 78.7349 54.291 79.0009C53.7588 79.5329 52.9603 80.3309 51.3635 80.3309C50.299 80.3309 49.2345 80.0649 48.7022 79.2669C48.1699 78.7349 47.9038 77.9369 47.9038 77.1389L48.17 53.1993C48.17 52.4013 48.4361 51.8693 48.9684 51.3373C49.7668 50.5393 50.5652 50.2733 51.6297 50.2733C53.2265 50.2733 54.291 51.0713 54.5571 51.8693C54.8233 52.4013 55.0894 52.9333 55.0894 53.4653V61.7112H65.7347V53.4653C65.7347 52.9333 66.0009 52.1353 66.267 51.8693C66.7993 51.3373 67.5976 50.5393 69.1944 50.5393C70.259 50.5393 71.3235 50.8053 71.8558 51.6033C72.388 52.1353 72.6542 52.9333 72.6542 53.7313L72.388 77.671C72.388 78.4689 72.1219 79.2669 71.5897 79.5329C71.3235 80.3309 70.259 80.5969 69.1944 80.5969ZM53.2265 65.9671L67.8638 66.2331V77.671C67.8638 77.937 67.8638 77.9369 67.8638 78.2029C68.1299 78.4689 68.396 78.7349 69.1944 78.7349C69.7267 78.7349 70.259 78.7349 70.5251 78.2029C70.7912 77.9369 70.7913 77.937 70.7913 77.671L71.0574 53.7313C71.0574 53.4653 71.0574 53.1993 70.7913 53.1993C70.5251 52.9333 69.9929 52.6673 69.4606 52.6673C68.6622 52.6673 68.3961 52.9333 68.1299 53.1993C68.1299 53.4652 67.8638 53.4653 67.8638 53.7313V63.8391L53.2265 63.5731V53.4653C53.2265 53.1993 53.2265 53.1993 53.2265 52.9333C52.9603 52.6673 52.6942 52.4013 51.8958 52.4013C51.3635 52.4013 50.8313 52.6673 50.5651 52.9333C50.299 53.1993 50.299 53.1993 50.299 53.4653L50.0329 77.4049C50.0329 77.6709 50.0329 77.9369 50.299 77.9369C50.5652 78.2029 51.0974 78.4689 51.6297 78.4689C52.6942 78.4689 52.9604 78.2029 52.9604 77.9369C52.9604 77.6709 53.2265 77.6709 53.2265 77.4049V65.9671Z" fill="black"></path><path d="M85.6947 80.8628C85.6947 80.8628 85.4285 80.8628 85.6947 80.8628C82.2349 80.8628 79.3075 79.2668 77.7107 76.6069C76.38 74.7449 75.8478 72.351 75.8478 69.691C75.8478 67.031 76.6462 64.9031 77.9768 63.0411C79.0414 61.4451 80.6382 60.3811 82.235 59.5832C83.5656 59.0512 84.8963 58.7852 85.9608 58.7852C88.0899 58.7852 89.9528 59.3172 91.2835 60.3811C91.5496 59.5832 92.348 58.7852 93.9448 58.7852C95.2754 58.7852 96.34 59.3172 96.8723 60.3811C97.1384 60.9131 97.1384 61.1791 97.1384 61.7111L96.8723 77.9369C96.8723 78.4688 96.6061 79.0009 96.34 79.5328C96.0738 80.0648 95.2754 80.8628 93.6786 80.8628C92.348 80.8628 91.2834 80.3308 91.0173 79.0009C89.6867 80.3308 87.8237 80.8628 85.6947 80.8628ZM85.6947 60.6471C84.6301 60.6471 83.5656 60.9131 82.7672 61.1791C81.4366 61.7111 80.1059 62.7751 79.3075 64.1051C78.243 65.701 77.7107 67.563 77.7107 69.691C77.7107 72.085 78.243 73.9469 79.3075 75.5429C80.9043 77.6709 82.7672 79.0009 85.6947 79.0009C88.0899 79.0009 89.9528 78.2029 91.0173 76.3409L92.348 73.9469L92.8803 77.9369C92.8803 78.7348 93.4125 79.0009 93.9448 79.0009C94.7432 79.0009 94.7432 78.7348 95.0093 78.4688C95.0093 78.2028 95.0093 78.2028 95.2754 77.9369L95.5416 61.7111C95.5416 61.4451 95.5416 61.4451 95.5416 61.1791C95.5416 60.9131 95.2754 60.6471 94.477 60.6471C93.6786 60.6471 93.4125 60.9131 93.4125 61.1791L93.1464 64.9031L91.5496 62.7751C89.9528 61.4451 88.356 60.6471 85.6947 60.6471C85.9608 60.6471 85.9608 60.6471 85.6947 60.6471ZM86.4931 77.1389C84.364 77.1389 82.5011 76.0749 81.7027 74.2129C81.1704 72.8829 80.6382 71.553 80.6382 69.957C80.6382 68.095 81.1704 66.499 82.235 65.169C83.2995 63.5731 84.8963 63.0411 86.7592 62.7751C88.356 62.7751 89.6867 63.3071 91.0173 64.6371C92.0818 65.967 92.8803 67.297 92.8803 68.893V70.223C92.8803 72.351 92.0819 74.2129 90.4851 75.5429C88.8883 76.6069 87.8237 77.1389 86.4931 77.1389ZM86.4931 64.6371C85.4285 64.6371 84.364 65.1691 83.5656 66.233C82.7672 67.297 82.5011 68.361 82.5011 69.957C82.5011 71.287 82.7672 72.3509 83.2995 73.4149C84.0979 74.7449 84.8963 75.2769 86.4931 75.2769C87.2915 75.2769 88.0899 75.0109 88.8883 74.2129C89.9528 73.1489 90.4851 71.819 90.4851 70.223V68.893C90.4851 67.829 90.2189 66.765 89.4205 65.967C88.6221 64.9031 87.5576 64.6371 86.4931 64.6371Z" fill="black"></path><path d="M104.59 89.1088C104.324 89.1088 104.324 89.1088 104.59 89.1088C102.993 89.1088 102.195 88.3108 101.663 87.5128C101.396 86.9808 101.13 86.4488 101.13 85.9168L101.397 61.7112C101.397 60.9132 101.663 60.3811 101.929 59.8491C102.195 59.3172 102.993 58.7852 104.324 58.7852C105.655 58.7852 106.719 59.5832 106.985 60.6471C107.251 60.3811 107.518 60.1151 107.784 59.8491C109.114 59.0512 110.711 58.5192 112.574 58.5192C116.034 58.5192 118.695 60.1152 120.558 62.7751C121.889 64.6371 122.421 67.0311 122.421 69.6911C122.421 72.351 121.623 74.745 120.292 76.6069C118.429 79.2669 115.768 80.5969 112.308 80.5969C110.445 80.5969 108.848 80.0649 107.784 79.2669V85.3848C107.784 86.1828 107.518 86.7148 106.985 87.2468C106.453 88.8428 105.655 89.1088 104.59 89.1088ZM104.324 60.9132C103.792 60.9132 103.792 61.1791 103.526 61.1791C103.526 61.4451 103.259 61.4451 103.259 61.9771L102.993 86.1828C102.993 86.4488 102.993 86.4488 102.993 86.7148C103.259 86.9808 103.526 87.2468 104.324 87.2468C105.122 87.2468 105.389 86.9808 105.389 86.7148C105.389 86.4488 105.655 86.4488 105.655 86.1828V75.011L107.518 77.4049C108.582 78.7349 110.179 79.5329 112.308 79.5329C114.969 79.5329 117.098 78.4689 118.695 76.341C119.76 74.745 120.558 72.883 120.558 70.489C120.558 68.095 120.026 66.2331 118.961 64.6371C117.631 62.5091 115.502 61.1791 112.574 61.1791C111.243 61.1791 109.913 61.4452 108.848 62.2431C108.05 62.7751 107.518 63.3071 107.251 64.1051L105.921 66.7651L105.122 62.2431C105.122 61.1792 104.856 60.9132 104.324 60.9132ZM112.042 77.4049C111.776 77.4049 111.776 77.4049 112.042 77.4049C110.445 77.4049 108.848 76.8729 107.784 75.543C106.719 74.213 105.921 72.883 105.921 71.287V69.957C105.921 68.095 106.453 66.4991 107.784 65.1691C109.114 63.8391 110.445 63.0411 112.042 63.0411C113.905 63.0411 115.502 63.8391 116.566 65.4351C117.365 66.7651 117.897 68.3611 117.897 70.223C117.897 72.085 117.365 73.681 116.566 75.011C115.235 76.607 113.639 77.4049 112.042 77.4049ZM112.042 64.9031C110.977 64.9031 110.179 65.4351 109.381 66.2331C108.582 67.2971 108.05 68.3611 108.05 69.6911V71.021C108.05 72.085 108.316 73.149 109.114 73.947C109.913 74.745 110.711 75.277 111.776 75.277C113.106 75.277 113.905 74.745 114.703 73.681C115.502 72.617 115.768 71.553 115.768 69.957C115.768 68.361 115.502 67.2971 114.969 66.2331C114.171 65.4351 113.373 64.9031 112.042 64.9031Z" fill="black"></path><path d="M128.542 89.3747C126.945 89.3747 126.147 88.5767 125.615 87.7787C125.348 87.2467 125.082 86.7147 125.082 86.1828L125.348 61.9771C125.348 61.1791 125.615 60.6471 125.881 60.1151C126.147 59.5831 126.945 59.0512 128.276 59.0512C129.607 59.0512 130.671 59.8491 130.937 60.9131C131.203 60.6471 131.469 60.3811 131.736 60.1151C133.066 59.3171 134.663 58.7852 136.526 58.7852C139.986 58.7852 142.647 60.3811 144.51 63.0411C145.841 64.9031 146.373 67.297 146.373 69.957C146.373 72.6169 145.575 75.0109 144.244 76.8729C142.381 79.5329 139.453 80.8628 136.26 80.8628C134.397 80.8628 132.8 80.3308 131.736 79.5329V85.6508C131.736 86.4488 131.469 86.9807 130.937 87.5127C130.671 88.8427 129.873 89.3747 128.542 89.3747ZM128.276 61.1791C127.744 61.1791 127.744 61.4451 127.477 61.4451C127.477 61.7111 127.211 61.7111 127.211 62.2431L126.945 86.4487C126.945 86.7147 126.945 86.7148 126.945 86.9807C127.211 87.2467 127.477 87.5127 128.01 87.5127C128.808 87.5127 129.074 87.2467 129.074 86.9807C129.34 86.7148 129.34 86.7147 129.34 86.4487V75.0109L131.203 77.4049C132.268 78.7349 133.865 79.5329 135.994 79.5329C138.655 79.5329 140.784 78.4689 142.381 76.3409C143.445 74.7449 144.244 72.8829 144.244 70.489C144.244 68.095 143.712 66.233 142.647 64.6371C141.316 62.5091 139.187 61.1791 136.26 61.1791C134.663 61.1791 133.599 61.4451 132.534 62.2431C131.736 62.7751 131.203 63.3071 130.937 64.1051L129.607 66.765L128.808 62.2431C129.34 61.4451 128.808 61.1791 128.276 61.1791ZM135.994 77.6709C134.397 77.6709 132.8 77.1389 131.736 75.8089C130.671 74.4789 129.873 73.1489 129.873 71.553V70.223C129.873 68.361 130.405 66.765 131.736 65.4351C133.066 64.1051 134.397 63.3071 135.994 63.3071C137.857 63.3071 139.453 64.1051 140.518 65.7011C141.316 67.031 141.849 68.627 141.849 70.489C141.849 72.3509 141.316 73.9469 140.518 75.2769C139.187 76.8729 137.857 77.6709 135.994 77.6709ZM132.002 69.957V71.287C132.002 72.3509 132.268 73.4149 133.066 74.2129C133.865 75.0109 134.663 75.5429 135.728 75.5429C137.058 75.5429 137.857 75.0109 138.655 73.9469C139.453 72.8829 139.72 71.819 139.72 70.223C139.72 68.627 139.453 67.563 138.921 66.499C138.123 65.435 137.324 64.9031 135.994 64.9031C134.929 64.9031 134.131 65.4351 133.332 66.2331C132.534 67.563 132.002 68.627 132.002 69.957Z" fill="black"></path><path d="M154.623 89.6408C154.091 89.6408 153.825 89.6408 153.292 89.3748C151.962 88.8428 151.163 87.7788 151.163 86.4488C151.163 85.9168 151.163 85.6508 151.429 85.1188L154.623 78.7349L147.171 64.1051C146.905 63.5731 146.905 63.0411 146.905 62.7751C146.905 61.9771 147.171 60.6471 148.768 59.8491C149.3 59.5831 149.833 59.3171 150.365 59.3171C151.429 59.3171 152.76 59.8492 153.558 61.7111L158.083 71.819L162.607 61.9771C163.405 60.1151 164.736 59.8491 165.801 59.8491C166.599 59.8491 167.131 60.1152 167.663 60.3812C168.728 60.9131 169.526 61.9771 169.26 63.0411C169.26 63.5731 168.994 64.1051 168.728 64.6371L157.284 87.5128C157.018 89.3748 155.688 89.6408 154.623 89.6408ZM150.365 61.4451C150.099 61.4451 149.833 61.4451 149.566 61.7111C148.768 61.9771 148.768 62.5091 148.768 62.7751C148.768 63.0411 148.768 63.0411 148.768 63.3071L156.486 79.0009L153.026 86.1828C153.026 86.4488 153.026 86.4488 153.026 86.7148C153.026 87.2468 153.026 87.5128 153.825 87.7788C154.091 87.7788 154.357 87.7788 154.623 87.7788C154.889 87.7788 155.421 87.7788 155.954 86.7148L167.397 63.8391C167.397 63.5731 167.663 63.3071 167.663 63.0411C167.663 62.7751 167.663 62.2431 167.131 62.2431C166.865 61.9771 166.333 61.9771 166.067 61.9771C165.801 61.9771 165.268 61.9771 164.736 63.0411L158.615 77.1389L152.228 63.0411C151.429 61.7111 150.897 61.4451 150.365 61.4451Z" fill="black"></path></svg> 