<?xml version="1.0" encoding="UTF-8"?> <svg xmlns="http://www.w3.org/2000/svg" width="266" height="176" viewBox="0 0 266 176" fill="none"><path d="M24.3026 0.081543H242.037C255.273 0.081543 265.862 10.6714 265.862 23.9087V151.979C265.862 165.217 255.273 175.806 242.037 175.806H24.3026C11.0665 175.806 0.477539 165.217 0.477539 151.979V23.9087C0.477539 11.0023 11.0665 0.081543 24.3026 0.081543ZM242.037 165.878C249.648 165.878 255.935 159.591 255.935 151.979V23.9087C255.935 16.2973 249.648 10.0095 242.037 10.0095H24.3026C16.6919 10.0095 10.4046 16.2973 10.4046 23.9087V151.979C10.4046 159.591 16.6919 165.878 24.3026 165.878H242.037Z" fill="black"></path><path d="M126.882 104.988C125.889 104.326 124.897 103.002 124.566 101.347C124.235 99.6927 123.904 97.3762 123.904 94.7287V91.0886C123.904 88.4412 124.235 86.1247 124.897 84.47C125.558 82.8154 126.22 81.4917 127.544 80.8299C128.867 80.168 130.191 79.8369 132.176 79.8369C134.162 79.8369 135.485 80.1679 136.809 81.1607C137.802 81.8226 138.794 83.1462 139.456 84.8009C140.118 86.4555 140.118 88.772 140.118 91.4194V95.0598C140.118 97.7072 139.787 100.024 139.456 101.678C138.794 103.333 138.133 104.657 136.809 105.319C135.816 105.98 134.162 106.311 132.176 106.311C129.529 106.311 127.875 105.98 126.882 104.988ZM133.169 101.016C133.5 100.024 133.5 98.6999 133.5 97.0453V89.1031C133.5 87.1175 133.5 85.7938 133.169 85.1319C132.838 84.1391 132.176 83.8081 131.515 83.8081C130.853 83.8081 130.191 84.1391 129.86 85.1319C129.529 86.1247 129.529 87.4485 129.529 89.1031V97.0453C129.529 99.0309 129.529 100.355 129.86 101.016C130.191 102.009 130.853 102.34 131.515 102.34C132.507 102.34 132.838 102.009 133.169 101.016Z" fill="#282828"></path><path d="M215.564 95.0598V96.3834C215.564 98.038 215.564 99.3619 215.564 100.024C215.564 100.686 215.895 101.347 216.226 101.678C216.556 102.009 216.887 102.34 217.549 102.34C218.542 102.34 218.873 102.009 219.204 101.347C219.535 100.685 219.535 99.6927 219.866 98.038L224.829 98.3691C224.829 98.7 224.829 99.0309 224.829 99.3618C224.829 101.678 224.167 103.664 222.844 104.657C221.52 105.98 219.866 106.311 217.218 106.311C214.24 106.311 212.255 105.319 211.262 103.664C210.269 102.009 209.607 99.0309 209.607 95.3906V90.7578C209.607 86.7866 210.269 84.1392 211.262 82.4845C212.586 80.8299 214.571 79.8369 217.218 79.8369C219.204 79.8369 220.858 80.168 221.851 80.8299C222.844 81.4917 223.506 82.8154 224.167 84.1392C224.498 85.7938 224.829 87.7793 224.829 90.4267V94.7287H215.564V95.0598ZM216.226 84.1392C215.895 84.4701 215.895 85.1319 215.564 85.7938C215.564 86.4557 215.564 87.7793 215.564 89.434V91.4194H219.866V89.434C219.866 87.7793 219.866 86.4557 219.535 85.7938C219.535 84.801 219.204 84.4701 218.873 84.1392C218.542 83.8082 218.211 83.4773 217.549 83.4773C217.218 83.8082 216.556 83.8082 216.226 84.1392Z" fill="#282828"></path><path d="M112.653 94.3975L106.035 70.5701H111.661L113.977 81.1601C114.639 83.8076 114.97 86.1241 115.3 87.7788H115.631C115.962 86.4551 116.293 84.1385 116.955 81.1601L119.271 70.2393H124.897L118.279 94.0667V105.318H112.653V94.3975V94.3975Z" fill="#282828"></path><path d="M158.318 80.168V105.65H153.685L153.023 102.671C151.7 104.988 150.045 106.311 147.398 106.311C145.744 106.311 144.42 105.649 143.758 104.657C143.096 103.664 142.435 101.678 142.435 99.3618V80.168H148.06V99.031C148.06 100.024 148.06 101.016 148.391 101.347C148.722 101.678 149.053 102.009 149.714 102.009C150.376 102.009 150.707 102.009 151.038 101.678C151.369 101.347 151.7 101.016 152.031 100.355V79.8369H158.318V80.168Z" fill="#282828"></path><path d="M187.768 80.168V105.65H183.136L182.474 102.671C181.15 104.988 179.496 106.311 176.848 106.311C175.194 106.311 173.87 105.649 173.208 104.657C172.547 103.664 171.885 101.678 171.885 99.3618V80.168H177.51V99.031C177.51 100.024 177.51 101.016 177.841 101.347C178.172 101.678 178.503 102.009 179.165 102.009C179.826 102.009 180.157 102.009 180.488 101.678C180.819 101.347 181.15 101.016 181.481 100.355V79.8369H187.768V80.168Z" fill="#282828"></path><path d="M173.87 75.5338H168.245V105.979H162.619V75.5338H156.994V70.9009H174.201V75.5338H173.87Z" fill="#282828"></path><path d="M206.96 84.4695C206.629 82.8148 205.967 81.8221 205.306 80.8293C204.644 80.1675 203.32 79.8364 201.997 79.8364C201.004 79.8364 200.011 80.1675 199.018 80.8293C198.026 81.4912 197.364 82.1529 197.033 83.1457V69.5776H191.408V105.98H196.04L196.702 103.663C197.033 104.656 197.695 105.318 198.688 105.649C199.68 106.311 200.673 106.311 201.666 106.311C203.651 106.311 204.975 105.318 205.967 103.663C206.96 102.009 207.291 99.0304 207.291 95.3901V91.4189C207.291 88.1096 207.291 86.1241 206.96 84.4695ZM201.666 94.7282C201.666 96.7138 201.666 98.0377 201.335 99.0305C201.335 100.023 201.004 100.685 200.673 101.347C200.342 101.678 199.68 102.009 199.349 102.009C199.018 102.009 198.357 102.009 198.026 101.678C197.695 101.347 197.364 101.016 197.033 100.685V86.1241C197.364 85.4623 197.695 84.8004 198.026 84.4695C198.357 84.1386 199.018 83.8076 199.68 83.8076C200.342 83.8076 200.673 84.1386 201.004 84.4695C201.335 84.8004 201.666 85.7932 201.666 86.786C201.666 87.7788 201.997 89.4334 201.997 91.4189V94.7282H201.666Z" fill="#282828"></path><path d="M99.0865 74.21C98.4246 71.5625 96.4393 69.5768 93.792 68.9149C89.1594 67.5912 70.9597 67.5913 70.9597 67.5913C70.9597 67.5913 52.76 67.5912 48.1273 68.9149C45.4801 69.5768 43.4947 71.5625 42.8329 74.21C41.5093 78.843 41.5093 88.4401 41.5093 88.4401C41.5093 88.4401 41.5093 98.0371 42.8329 102.67C43.4947 105.318 45.4801 107.303 48.1273 107.965C52.76 109.289 70.9597 109.289 70.9597 109.289C70.9597 109.289 89.1594 109.289 93.792 107.965C96.4393 107.303 98.4246 105.318 99.0865 102.67C100.41 98.0371 100.41 88.4401 100.41 88.4401C100.41 88.4401 100.41 78.843 99.0865 74.21Z" fill="#282828"></path><path d="M65.335 97.0452V79.5054L80.5566 88.4408L65.335 97.0452Z" fill="white"></path></svg> 