<?xml version="1.0" encoding="UTF-8"?> <svg xmlns="http://www.w3.org/2000/svg" width="269" height="178" viewBox="0 0 269 178" fill="none"><path d="M66 4H7V171H66V4Z" fill="#C3B68F"></path><path d="M117.04 90.5128C117.04 91.5184 116.369 92.1889 115.363 92.1889H44.2953C43.2896 92.1889 42.6191 91.5184 42.6191 90.5128C42.6191 89.5071 43.2896 88.8367 44.2953 88.8367H115.363C116.369 88.8367 117.04 89.5071 117.04 90.5128Z" fill="black"></path><path d="M115.363 93.8648H44.2947C42.2833 93.8648 40.9424 92.5239 40.9424 90.5126C40.9424 88.5013 42.2833 87.1604 44.2947 87.1604H115.363C117.374 87.1604 118.715 88.5013 118.715 90.5126C118.715 92.5239 117.039 93.8648 115.363 93.8648ZM115.363 90.5126H117.039H115.363Z" fill="black"></path><path d="M104.301 103.922L102.29 101.575L114.023 90.5125L102.29 79.4497L104.301 77.1033L118.716 90.5125L104.301 103.922Z" fill="black"></path><path d="M104.3 106.268L99.9424 101.575L111.675 90.5125L99.9424 79.7848L104.3 74.7563L121.397 90.5125L104.3 106.268Z" fill="black"></path><path d="M24.1497 0H244.85C258.267 0 269 10.7268 269 24.1354V153.864C269 167.273 258.267 178 244.85 178H24.1497C10.7332 178 0 167.273 0 153.864V24.1354C0 10.7268 10.7332 0 24.1497 0ZM244.85 167.608C252.565 167.608 258.938 161.239 258.938 153.529V23.8003C258.938 16.0903 252.565 9.72096 244.85 9.72096H24.1497C16.4352 9.72096 10.0623 16.0903 10.0623 23.8003V153.529C10.0623 161.239 16.4352 167.608 24.1497 167.608H244.85Z" fill="black"></path></svg> 