<?xml version="1.0" encoding="UTF-8"?> <svg xmlns="http://www.w3.org/2000/svg" width="1166" height="415" viewBox="0 0 1166 415" fill="none"><path d="M287.735 415.001H283.845C281.511 415.001 279.955 413.444 279.955 411.109C279.955 408.774 281.511 407.218 283.845 407.218H287.735C289.679 407.218 291.624 408.774 291.624 411.109C291.624 413.055 290.068 415.001 288.124 415.001C288.124 415.001 287.735 415.001 287.735 415.001ZM264.397 415.001H260.508C258.174 415.001 256.618 413.444 256.618 411.109C256.618 408.774 258.174 407.218 260.508 407.218H264.397C266.731 407.218 268.287 408.774 268.287 411.109C268.287 413.444 266.342 415.001 264.397 415.001ZM240.671 415.001H236.781C234.447 415.001 232.892 413.444 232.892 411.109C232.892 408.774 234.447 407.218 236.781 407.218H240.671C243.005 407.218 244.56 408.774 244.56 411.109C244.56 413.444 243.005 415.001 240.671 415.001ZM217.333 415.001H213.444C211.11 415.001 209.554 413.444 209.554 411.109C209.554 408.774 211.11 407.218 213.444 407.218H217.333C219.667 407.218 221.223 408.774 221.223 411.109C221.223 413.444 219.667 415.001 217.333 415.001ZM193.996 415.001H190.106C187.773 415.001 186.217 413.444 186.217 411.109C186.217 408.774 187.773 407.218 190.106 407.218H193.996C196.33 407.218 197.885 408.774 197.885 411.109C197.885 413.444 195.941 415.001 193.996 415.001ZM170.269 415.001H166.38C164.046 415.001 162.49 413.444 162.49 411.109C162.49 408.774 164.046 407.218 166.38 407.218H170.269C172.603 407.218 174.159 408.774 174.159 411.109C174.159 413.444 172.603 415.001 170.269 415.001ZM146.932 415.001H143.042C140.709 415.001 139.153 413.444 139.153 411.109C139.153 408.774 140.709 407.218 143.042 407.218H146.932C149.266 407.218 150.822 408.774 150.822 411.109C150.822 413.444 148.877 415.001 146.932 415.001ZM123.206 415.001H119.316C116.982 415.001 115.426 413.444 115.426 411.109C115.426 408.774 116.982 407.218 119.316 407.218H123.206C125.539 407.218 127.095 408.774 127.095 411.109C127.095 413.444 125.539 415.001 123.206 415.001ZM99.8681 415.001H95.9785C93.6448 415.001 92.0889 413.444 92.0889 411.109C92.0889 408.774 93.6448 407.218 95.9785 407.218H99.8681C102.202 407.218 103.758 408.774 103.758 411.109C103.758 413.444 101.813 415.001 99.8681 415.001ZM76.1417 415.001H72.2521C69.9183 415.001 68.3625 413.444 68.3625 411.109C68.3625 408.774 69.9183 407.218 72.2521 407.218H76.1417C78.4754 407.218 80.0312 408.774 80.0312 411.109C80.0312 413.444 78.4754 415.001 76.1417 415.001ZM52.8042 415.001H48.9146C46.5809 415.001 45.025 413.444 45.025 411.109C45.025 408.774 46.5809 407.218 48.9146 407.218H52.8042C55.1379 407.218 56.6938 408.774 56.6938 411.109C56.6938 413.444 54.749 415.001 52.8042 415.001ZM29.0778 414.612C27.133 414.612 25.5772 414.222 24.4103 413.833C22.4656 413.444 20.9097 411.109 21.6876 409.164C22.0765 407.218 24.4103 405.661 26.3551 406.44C27.522 406.829 28.6889 406.829 29.8557 406.829C31.8005 407.218 33.7453 408.774 33.3563 411.109C32.9674 413.055 31.0226 414.612 29.0778 414.612ZM306.016 407.996C304.849 407.996 303.682 407.607 302.904 406.829C301.348 405.272 301.737 402.937 303.293 401.381C304.071 400.602 304.849 399.824 305.627 399.046C307.182 397.489 309.516 397.1 311.072 398.657C312.628 400.213 313.017 402.548 311.461 404.105C310.294 405.272 309.516 406.44 308.349 407.218C307.96 407.607 307.183 407.996 306.016 407.996ZM9.24102 403.326C8.07415 403.326 6.9072 402.937 6.12929 401.77C5.35137 400.602 4.57343 399.435 3.79552 397.878C2.62864 395.933 3.40665 393.598 5.35144 392.43C7.29623 391.263 9.62995 392.041 10.7968 393.987C11.1858 395.154 11.9637 395.933 12.7416 396.711C13.9085 398.268 13.5195 400.992 11.9637 402.159C10.7968 402.937 10.0189 403.326 9.24102 403.326ZM315.74 387.372C313.406 387.372 311.85 385.426 311.85 383.48V379.589C311.85 377.254 313.406 375.697 315.74 375.697C318.073 375.697 319.629 377.254 319.629 379.589V383.091V383.48C319.629 385.426 317.684 387.372 315.74 387.372ZM4.1845 381.145C1.85075 381.145 0.294922 379.589 0.294922 377.254V373.362C0.294922 371.028 1.85075 369.471 4.1845 369.471C6.51824 369.471 8.07407 371.028 8.07407 373.362V377.254C8.07407 379.2 6.12929 381.145 4.1845 381.145ZM315.74 363.634C313.406 363.634 311.85 362.077 311.85 359.742V355.851C311.85 353.516 313.406 351.959 315.74 351.959C318.073 351.959 319.629 353.516 319.629 355.851V359.742C319.629 362.077 318.073 363.634 315.74 363.634ZM4.1845 357.407C1.85075 357.407 0.294922 355.851 0.294922 353.516V349.625C0.294922 347.29 1.85075 345.733 4.1845 345.733C6.51824 345.733 8.07407 347.29 8.07407 349.625V353.516C8.07407 355.851 6.12929 357.407 4.1845 357.407ZM315.74 340.285C313.406 340.285 311.85 338.729 311.85 336.394V332.502C311.85 330.167 313.406 328.611 315.74 328.611C318.073 328.611 319.629 330.167 319.629 332.502V336.394C319.629 338.339 318.073 340.285 315.74 340.285ZM4.1845 334.059C1.85075 334.059 0.294922 332.502 0.294922 330.167V326.276C0.294922 323.941 1.85075 322.385 4.1845 322.385C6.51824 322.385 8.07407 323.941 8.07407 326.276V330.167C8.07407 332.113 6.12929 334.059 4.1845 334.059ZM315.74 316.547C313.406 316.547 311.85 314.991 311.85 312.656V308.765C311.85 306.43 313.406 304.873 315.74 304.873C318.073 304.873 319.629 306.43 319.629 308.765V312.656C319.629 314.991 318.073 316.547 315.74 316.547ZM4.1845 310.321C1.85075 310.321 0.294922 308.765 0.294922 306.43V302.538C0.294922 300.203 1.85075 298.647 4.1845 298.647C6.51824 298.647 8.07407 300.203 8.07407 302.538V306.43C8.07407 308.765 6.12929 310.321 4.1845 310.321ZM315.74 293.199C313.406 293.199 311.85 291.642 311.85 289.307V285.416C311.85 283.081 313.406 281.524 315.74 281.524C318.073 281.524 319.629 283.081 319.629 285.416V289.307C319.629 291.253 318.073 293.199 315.74 293.199ZM4.1845 286.972C1.85075 286.972 0.294922 285.416 0.294922 283.081V279.19C0.294922 276.855 1.85075 275.298 4.1845 275.298C6.51824 275.298 8.07407 276.855 8.07407 279.19V283.081C8.07407 285.027 6.12929 286.972 4.1845 286.972ZM315.74 269.461C313.406 269.461 311.85 267.904 311.85 265.57V261.678C311.85 259.343 313.406 257.787 315.74 257.787C318.073 257.787 319.629 259.343 319.629 261.678V265.57C319.629 267.904 318.073 269.461 315.74 269.461ZM4.1845 263.235C1.85075 263.235 0.294922 261.678 0.294922 259.343V255.452C0.294922 253.117 1.85075 251.56 4.1845 251.56C6.51824 251.56 8.07407 253.117 8.07407 255.452V259.343C8.07407 261.678 6.12929 263.235 4.1845 263.235ZM315.74 246.112C313.406 246.112 311.85 244.556 311.85 242.221V238.329C311.85 235.995 313.406 234.438 315.74 234.438C318.073 234.438 319.629 235.995 319.629 238.329V242.221C319.629 244.167 318.073 246.112 315.74 246.112ZM4.1845 239.886C1.85075 239.886 0.294922 238.329 0.294922 235.995V232.103C0.294922 229.768 2.23971 228.212 4.1845 228.212C6.51824 228.212 8.07407 230.157 8.07407 232.103V235.995C8.07407 237.94 6.12929 239.886 4.1845 239.886ZM312.628 223.153C311.072 223.153 309.905 222.375 309.127 221.207C308.738 220.04 307.96 219.261 307.182 218.483C306.016 216.927 306.405 214.203 307.96 213.035C309.516 211.868 312.239 212.257 313.406 213.813C314.184 214.981 314.962 216.148 315.74 217.705C316.906 219.651 316.129 221.985 314.184 223.153C313.795 222.764 313.017 223.153 312.628 223.153ZM10.7968 218.094C10.0189 218.094 8.85199 217.705 8.07407 217.316C6.51824 215.759 6.12926 213.424 7.68509 211.868C8.85197 210.7 9.62995 209.533 10.7968 208.755C12.3527 207.198 15.0753 207.587 16.2422 209.144C17.798 210.7 17.4091 213.424 15.8532 214.592C15.0753 215.37 14.2974 216.148 13.5195 216.927C13.1305 217.316 11.9637 218.094 10.7968 218.094ZM294.347 209.144C293.958 209.144 293.569 209.144 293.569 209.144C292.402 208.755 291.235 208.755 290.068 208.755C288.124 208.365 286.179 206.809 286.568 204.474C286.568 202.139 288.513 200.972 290.846 200.972C292.402 200.972 293.958 201.361 295.125 201.75C297.07 202.139 298.625 204.474 297.848 206.42C297.848 207.976 295.903 209.144 294.347 209.144ZM271.009 208.365H267.12C264.786 208.365 263.23 206.809 263.23 204.474C263.23 202.139 264.786 200.583 267.12 200.583H271.009C273.343 200.583 274.899 202.139 274.899 204.474C274.899 206.809 272.954 208.365 271.009 208.365ZM247.283 208.365H243.393C241.06 208.365 239.504 206.809 239.504 204.474C239.504 202.139 241.06 200.583 243.393 200.583H247.283C249.617 200.583 251.173 202.139 251.173 204.474C251.173 206.809 249.617 208.365 247.283 208.365ZM223.946 208.365H220.056C217.722 208.365 216.166 206.809 216.166 204.474C216.166 202.139 217.722 200.583 220.056 200.583H223.946C226.279 200.583 227.835 202.139 227.835 204.474C227.835 206.809 225.89 208.365 223.946 208.365ZM200.219 208.365H196.33C193.996 208.365 192.44 206.809 192.44 204.474C192.44 202.139 193.996 200.583 196.33 200.583H200.219C202.553 200.583 204.109 202.139 204.109 204.474C204.109 206.809 202.553 208.365 200.219 208.365ZM176.882 208.365H172.992C170.658 208.365 169.103 206.809 169.103 204.474C169.103 202.139 170.658 200.583 172.992 200.583H176.882C179.215 200.583 180.771 202.139 180.771 204.474C180.771 206.809 178.826 208.365 176.882 208.365ZM153.155 208.365H149.266C146.932 208.365 145.376 206.809 145.376 204.474C145.376 202.139 146.932 200.583 149.266 200.583H153.155C155.489 200.583 157.045 202.139 157.045 204.474C157.045 206.809 155.489 208.365 153.155 208.365ZM129.818 208.365H125.928C123.595 208.365 122.039 206.809 122.039 204.474C122.039 202.139 123.595 200.583 125.928 200.583H129.818C132.152 200.583 133.707 202.139 133.707 204.474C133.707 206.809 131.763 208.365 129.818 208.365ZM106.091 208.365H102.202C99.8681 208.365 98.3123 206.809 98.3123 204.474C98.3123 202.139 99.8681 200.583 102.202 200.583H106.091C108.425 200.583 109.981 202.139 109.981 204.474C109.981 206.809 108.425 208.365 106.091 208.365ZM82.754 208.365H78.8644C76.5307 208.365 74.9748 206.809 74.9748 204.474C74.9748 202.139 76.5307 200.583 78.8644 200.583H82.754C85.0877 200.583 86.6436 202.139 86.6436 204.474C86.6436 206.809 84.6988 208.365 82.754 208.365ZM59.0275 208.365H55.138C52.8042 208.365 51.2484 206.809 51.2484 204.474C51.2484 202.139 52.8042 200.583 55.138 200.583H59.0275C61.3613 200.583 62.9171 202.139 62.9171 204.474C62.9171 206.809 61.3613 208.365 59.0275 208.365ZM35.6901 208.365H31.8005C29.4668 208.365 27.9109 206.809 27.9109 204.474C27.9109 202.139 29.4668 200.583 32.1895 200.583H35.6901C38.0238 200.583 39.5797 202.139 39.5797 204.474C39.5797 206.809 37.6349 208.365 35.6901 208.365Z" fill="black"></path><path d="M163.269 259.342C164.436 259.342 165.214 260.121 165.214 261.288V387.371C165.214 388.538 164.436 389.316 163.269 389.316C162.102 389.316 161.324 388.538 161.324 387.371V261.288C161.324 260.121 162.102 259.342 163.269 259.342Z" fill="black"></path><path d="M163.268 391.262C160.935 391.262 159.379 389.705 159.379 387.37V261.288C159.379 258.953 160.935 257.396 163.268 257.396C165.602 257.396 167.158 258.953 167.158 261.288V387.37C167.158 389.316 165.213 391.262 163.268 391.262ZM163.268 259.342V261.288V259.342Z" fill="black"></path><path d="M178.828 274.13L176.105 276.465L163.269 262.844L150.434 276.465L147.711 274.13L163.269 257.396L178.828 274.13Z" fill="black"></path><path d="M175.715 279.189L163.268 265.569L150.433 279.189L144.987 274.13L163.268 254.284L181.549 274.13L175.715 279.189Z" fill="black"></path><path d="M287.345 360.131H31.4111C15.8528 360.131 3.40625 347.679 3.40625 332.113V181.904C3.40625 166.338 15.8528 153.885 31.4111 153.885H287.345C302.904 153.885 315.35 166.338 315.35 181.904V332.502C315.35 347.679 302.515 360.131 287.345 360.131ZM31.4111 165.56C22.4651 165.56 15.075 172.953 15.075 181.904V332.502C15.075 341.453 22.4651 348.846 31.4111 348.846H287.345C296.291 348.846 303.681 341.453 303.681 332.502V181.904C303.681 172.953 296.291 165.56 287.345 165.56H31.4111Z" fill="black"></path><path d="M709.754 260.9H705.865C703.531 260.9 701.975 259.343 701.975 257.008C701.975 254.673 703.531 253.117 705.865 253.117H709.754C711.699 253.117 713.644 254.673 713.644 257.008C713.644 258.954 712.088 260.9 710.143 260.9H709.754ZM686.417 260.9H682.527C680.194 260.9 678.638 259.343 678.638 257.008C678.638 254.673 680.194 253.117 682.527 253.117H686.417C688.751 253.117 690.306 254.673 690.306 257.008C690.306 259.343 688.362 260.9 686.417 260.9ZM662.691 260.9H658.801C656.467 260.9 654.911 259.343 654.911 257.008C654.911 254.673 656.467 253.117 658.801 253.117H662.691C665.024 253.117 666.58 254.673 666.58 257.008C666.58 259.343 665.024 260.9 662.691 260.9ZM639.353 260.9H635.464C633.13 260.9 631.574 259.343 631.574 257.008C631.574 254.673 633.13 253.117 635.464 253.117H639.353C641.687 253.117 643.243 254.673 643.243 257.008C643.243 259.343 641.298 260.9 639.353 260.9ZM615.627 260.9H611.737C609.403 260.9 607.847 259.343 607.847 257.008C607.847 254.673 609.403 253.117 611.737 253.117H615.627C617.96 253.117 619.516 254.673 619.516 257.008C619.516 259.343 617.96 260.9 615.627 260.9ZM592.289 260.9H588.4C586.066 260.9 584.51 259.343 584.51 257.008C584.51 254.673 586.066 253.117 588.4 253.117H592.289C594.623 253.117 596.179 254.673 596.179 257.008C596.179 259.343 594.623 260.9 592.289 260.9ZM568.952 260.9H565.062C562.728 260.9 561.173 259.343 561.173 257.008C561.173 254.673 562.728 253.117 565.062 253.117H568.952C571.285 253.117 572.841 254.673 572.841 257.008C572.841 259.343 570.896 260.9 568.952 260.9ZM545.225 260.9H541.336C539.002 260.9 537.446 259.343 537.446 257.008C537.446 254.673 539.002 253.117 541.336 253.117H545.225C547.559 253.117 549.115 254.673 549.115 257.008C549.115 259.343 547.559 260.9 545.225 260.9ZM521.888 260.9H517.998C515.665 260.9 514.109 259.343 514.109 257.008C514.109 254.673 515.665 253.117 517.998 253.117H521.888C524.222 253.117 525.777 254.673 525.777 257.008C525.777 259.343 523.833 260.9 521.888 260.9ZM498.162 260.9H494.272C491.938 260.9 490.382 259.343 490.382 257.008C490.382 254.673 491.938 253.117 494.272 253.117H498.162C500.495 253.117 502.051 254.673 502.051 257.008C502.051 259.343 500.495 260.9 498.162 260.9ZM474.824 260.9H470.935C468.601 260.9 467.045 259.343 467.045 257.008C467.045 254.673 468.601 253.117 470.935 253.117H474.824C477.158 253.117 478.714 254.673 478.714 257.008C478.714 259.343 476.769 260.9 474.824 260.9ZM451.098 260.9C449.153 260.9 447.597 260.511 446.43 260.121C444.485 259.732 442.93 257.397 443.708 255.452C444.097 253.506 446.43 251.949 448.375 252.728C449.542 253.117 450.709 253.117 451.876 253.117C453.82 253.506 455.765 255.063 455.376 257.397C454.987 259.343 453.042 260.9 451.098 260.9ZM728.035 254.284C726.869 254.284 725.702 253.895 724.924 253.117C723.368 251.56 723.757 249.225 725.313 247.669C726.091 246.891 726.869 246.112 727.647 245.334C729.202 243.777 731.536 243.388 733.092 244.945C734.648 246.501 735.037 248.836 733.481 250.393C732.314 251.56 731.536 252.728 730.369 253.506C729.98 253.895 729.202 254.284 728.035 254.284ZM431.261 249.615C430.094 249.615 428.927 249.225 428.149 248.058C427.371 246.891 426.593 245.723 425.815 244.167C424.648 242.221 425.426 239.886 427.371 238.718C429.316 237.551 431.65 238.329 432.817 240.275C433.206 241.442 433.983 242.221 434.761 242.999C435.928 244.556 435.539 247.28 433.984 248.447C432.817 249.225 432.039 249.615 431.261 249.615ZM737.759 233.66C735.426 233.66 733.87 231.714 733.87 229.768V225.877C733.87 223.542 735.426 221.985 737.759 221.985C740.093 221.985 741.649 223.542 741.649 225.877V229.379V229.768C741.649 231.714 739.704 233.66 737.759 233.66ZM425.815 227.044C423.482 227.044 421.926 225.488 421.926 223.153V219.261C421.926 216.926 423.482 215.37 425.815 215.37C428.149 215.37 429.705 216.926 429.705 219.261V223.153C429.705 225.488 428.149 227.044 425.815 227.044ZM737.759 209.922C735.426 209.922 733.87 208.365 733.87 206.03V202.139C733.87 199.804 735.426 198.248 737.759 198.248C740.093 198.248 741.649 199.804 741.649 202.139V206.03C741.649 208.365 740.093 209.922 737.759 209.922ZM425.815 203.696C423.482 203.696 421.926 202.139 421.926 199.804V195.913C421.926 193.578 423.482 192.021 425.815 192.021C428.149 192.021 429.705 193.578 429.705 195.913V199.804C429.705 201.75 428.149 203.696 425.815 203.696ZM737.759 186.573C735.426 186.573 733.87 185.017 733.87 182.682V178.79C733.87 176.455 735.426 174.899 737.759 174.899C740.093 174.899 741.649 176.455 741.649 178.79V182.682C741.649 184.627 740.093 186.573 737.759 186.573ZM425.815 180.347C423.482 180.347 421.926 178.79 421.926 176.455V172.564C421.926 170.229 423.482 168.673 425.815 168.673C428.149 168.673 429.705 170.229 429.705 172.564V176.455C429.705 178.401 428.149 180.347 425.815 180.347ZM737.759 162.835C735.426 162.835 733.87 161.279 733.87 158.944V155.053C733.87 152.718 735.426 151.161 737.759 151.161C740.093 151.161 741.649 152.718 741.649 155.053V158.944C741.649 161.279 740.093 162.835 737.759 162.835ZM425.815 156.609C423.482 156.609 421.926 155.053 421.926 152.718V148.826C421.926 146.491 423.482 144.935 425.815 144.935C428.149 144.935 429.705 146.491 429.705 148.826V152.718C429.705 155.053 428.149 156.609 425.815 156.609ZM737.759 139.487C735.426 139.487 733.87 137.93 733.87 135.595V131.704C733.87 129.369 735.426 127.813 737.759 127.813C740.093 127.813 741.649 129.369 741.649 131.704V135.595C741.649 137.541 740.093 139.487 737.759 139.487ZM425.815 133.261C423.482 133.261 421.926 131.704 421.926 129.369V125.478C421.926 123.143 423.482 121.586 425.815 121.586C428.149 121.586 429.705 123.143 429.705 125.478V129.369C429.705 131.315 428.149 133.261 425.815 133.261ZM737.759 115.749C735.426 115.749 733.87 114.192 733.87 111.858V107.966C733.87 105.631 735.426 104.075 737.759 104.075C740.093 104.075 741.649 105.631 741.649 107.966V111.858C741.649 114.192 740.093 115.749 737.759 115.749ZM425.815 109.523C423.482 109.523 421.926 107.966 421.926 105.631V101.74C421.926 99.405 423.482 97.8484 425.815 97.8484C428.149 97.8484 429.705 99.405 429.705 101.74V105.631C429.705 107.966 428.149 109.523 425.815 109.523ZM737.759 92.4004C735.426 92.4004 733.87 90.8439 733.87 88.509V84.6176C733.87 82.2827 735.426 80.7261 737.759 80.7261C740.093 80.7261 741.649 82.2827 741.649 84.6176V88.509C741.649 90.4547 740.093 92.4004 737.759 92.4004ZM425.815 86.1741C423.482 86.1741 421.926 84.6175 421.926 82.2827V78.3912C421.926 76.0564 423.871 74.4998 425.815 74.4998C428.149 74.4998 429.705 76.4455 429.705 78.3912V82.2827C429.705 84.2284 428.149 86.1741 425.815 86.1741ZM734.259 69.4409C732.703 69.4409 731.536 68.6627 730.758 67.4952C730.369 66.3278 729.591 65.5495 728.813 64.7712C727.647 63.2146 728.036 60.4906 729.591 59.3232C731.147 58.1558 733.87 58.5449 735.037 60.1015C735.815 61.2689 736.593 62.4363 737.37 63.9929C738.537 65.9386 737.759 68.2735 735.815 69.4409C735.815 69.0518 735.037 69.4409 734.259 69.4409ZM432.817 64.3821C432.039 64.3821 430.872 63.9929 430.094 63.6038C428.538 62.0472 428.149 59.7123 429.705 58.1558C430.872 56.9883 431.65 55.8209 432.817 55.0426C434.372 53.486 437.095 53.8752 438.262 55.4318C439.818 56.9883 439.429 59.7123 437.873 60.8798C437.095 61.6581 436.317 62.4364 435.539 63.2146C435.15 63.6038 433.983 64.3821 432.817 64.3821ZM716.367 55.4318C715.978 55.4318 715.589 55.4318 715.589 55.4318C714.422 55.0426 713.255 55.0426 712.088 55.0426C710.143 54.6535 708.199 53.0969 708.588 50.762C708.588 48.4272 710.532 47.2597 712.866 47.2597C714.422 47.2597 715.978 47.6489 717.145 48.038C719.089 48.4272 720.645 50.762 719.867 52.7078C719.867 54.2643 717.923 55.4318 716.367 55.4318ZM693.029 54.6535H689.14C686.806 54.6535 685.25 53.0969 685.25 50.762C685.25 48.4272 686.806 46.8706 689.14 46.8706H693.029C695.363 46.8706 696.919 48.4272 696.919 50.762C696.919 53.0969 694.974 54.6535 693.029 54.6535ZM669.303 54.6535H665.413C663.08 54.6535 661.524 53.0969 661.524 50.762C661.524 48.4272 663.08 46.8706 665.413 46.8706H669.303C671.637 46.8706 673.192 48.4272 673.192 50.762C673.192 53.0969 671.637 54.6535 669.303 54.6535ZM645.965 54.6535H642.076C639.742 54.6535 638.186 53.0969 638.186 50.762C638.186 48.4272 639.742 46.8706 642.076 46.8706H645.965C648.299 46.8706 649.855 48.4272 649.855 50.762C649.855 53.0969 647.91 54.6535 645.965 54.6535ZM622.239 54.6535H618.349C616.016 54.6535 614.46 53.0969 614.46 50.762C614.46 48.4272 616.016 46.8706 618.349 46.8706H622.239C624.573 46.8706 626.128 48.4272 626.128 50.762C626.128 53.0969 624.573 54.6535 622.239 54.6535ZM598.901 54.6535H595.012C592.678 54.6535 591.122 53.0969 591.122 50.762C591.122 48.4272 592.678 46.8706 595.012 46.8706H598.901C601.235 46.8706 602.791 48.4272 602.791 50.762C602.791 53.0969 600.846 54.6535 598.901 54.6535ZM575.175 54.6535H571.286C568.952 54.6535 567.396 53.0969 567.396 50.762C567.396 48.4272 568.952 46.8706 571.286 46.8706H575.175C577.509 46.8706 579.065 48.4272 579.065 50.762C579.065 53.0969 577.509 54.6535 575.175 54.6535ZM551.838 54.6535H547.948C545.614 54.6535 544.059 53.0969 544.059 50.762C544.059 48.4272 545.614 46.8706 547.948 46.8706H551.838C554.171 46.8706 555.727 48.4272 555.727 50.762C555.727 53.0969 553.782 54.6535 551.838 54.6535ZM528.111 54.6535H524.222C521.888 54.6535 520.332 53.0969 520.332 50.762C520.332 48.4272 521.888 46.8706 524.222 46.8706H528.111C530.445 46.8706 532.001 48.4272 532.001 50.762C532.001 53.0969 530.445 54.6535 528.111 54.6535ZM504.774 54.6535H500.884C498.55 54.6535 496.995 53.0969 496.995 50.762C496.995 48.4272 498.55 46.8706 500.884 46.8706H504.774C507.107 46.8706 508.663 48.4272 508.663 50.762C508.663 53.0969 506.718 54.6535 504.774 54.6535ZM481.047 54.6535H477.158C474.824 54.6535 473.268 53.0969 473.268 50.762C473.268 48.4272 474.824 46.8706 477.158 46.8706H481.047C483.381 46.8706 484.937 48.4272 484.937 50.762C484.937 53.0969 483.381 54.6535 481.047 54.6535ZM457.71 54.6535H453.82C451.487 54.6535 449.931 53.0969 449.931 50.762C449.931 48.4272 451.487 46.8706 454.209 46.8706H457.71C460.044 46.8706 461.599 48.4272 461.599 50.762C461.599 53.0969 459.655 54.6535 457.71 54.6535Z" fill="black"></path><path d="M585.288 105.63C586.455 105.63 587.233 106.409 587.233 107.576V233.659C587.233 234.826 586.455 235.604 585.288 235.604C584.122 235.604 583.344 234.826 583.344 233.659V107.576C583.344 106.409 584.122 105.63 585.288 105.63Z" fill="black"></path><path d="M585.288 237.55C582.954 237.55 581.398 235.993 581.398 233.659V107.576C581.398 105.241 582.954 103.685 585.288 103.685C587.622 103.685 589.177 105.241 589.177 107.576V233.659C589.177 235.604 587.233 237.55 585.288 237.55ZM585.288 105.63V107.576V105.63Z" fill="black"></path><path d="M600.847 120.418L598.124 122.753L585.289 109.133L572.453 122.753L569.73 120.418L585.289 103.685L600.847 120.418Z" fill="black"></path><path d="M597.734 125.477L585.288 111.857L572.452 125.477L567.007 120.418L585.288 100.572L603.569 120.418L597.734 125.477Z" fill="black"></path><path d="M709.364 206.419H453.43C437.871 206.419 425.425 193.967 425.425 178.401V28.1917C425.425 12.6259 437.871 0.17334 453.43 0.17334H709.364C724.922 0.17334 737.369 12.6259 737.369 28.1917V178.401C737.369 193.967 724.533 206.419 709.364 206.419ZM453.43 11.8477C444.484 11.8477 437.094 19.2414 437.094 28.1917V178.401C437.094 187.351 444.484 194.745 453.43 194.745H709.364C718.31 194.745 725.7 187.351 725.7 178.401V28.1917C725.7 19.2414 718.31 11.8477 709.364 11.8477H453.43Z" fill="black"></path><path d="M1134.49 394.765H1130.6C1128.27 394.765 1126.71 393.208 1126.71 390.873C1126.71 388.539 1128.27 386.982 1130.6 386.982H1134.49C1136.44 386.982 1138.38 388.539 1138.38 390.873C1138.38 392.819 1136.83 394.765 1134.88 394.765H1134.49ZM1110.77 394.765H1106.88C1104.54 394.765 1102.99 393.208 1102.99 390.873C1102.99 388.539 1104.54 386.982 1106.88 386.982H1110.77C1113.1 386.982 1114.66 388.539 1114.66 390.873C1114.66 393.208 1113.1 394.765 1110.77 394.765ZM1087.43 394.765H1083.54C1081.21 394.765 1079.65 393.208 1079.65 390.873C1079.65 388.539 1081.21 386.982 1083.54 386.982H1087.43C1089.76 386.982 1091.32 388.539 1091.32 390.873C1091.32 393.208 1089.37 394.765 1087.43 394.765ZM1063.7 394.765H1059.81C1057.48 394.765 1055.92 393.208 1055.92 390.873C1055.92 388.539 1057.48 386.982 1059.81 386.982H1063.7C1066.04 386.982 1067.59 388.539 1067.59 390.873C1067.59 393.208 1066.04 394.765 1063.7 394.765ZM1040.37 394.765H1036.48C1034.14 394.765 1032.59 393.208 1032.59 390.873C1032.59 388.539 1034.14 386.982 1036.48 386.982H1040.37C1042.7 386.982 1044.26 388.539 1044.26 390.873C1044.26 393.208 1042.31 394.765 1040.37 394.765ZM1016.64 394.765H1012.75C1010.42 394.765 1008.86 393.208 1008.86 390.873C1008.86 388.539 1010.42 386.982 1012.75 386.982H1016.64C1018.97 386.982 1020.53 388.539 1020.53 390.873C1020.53 393.208 1018.97 394.765 1016.64 394.765ZM993.302 394.765H989.413C987.079 394.765 985.523 393.208 985.523 390.873C985.523 388.539 987.079 386.982 989.413 386.982H993.302C995.636 386.982 997.192 388.539 997.192 390.873C997.192 393.208 995.247 394.765 993.302 394.765ZM969.576 394.765H965.686C963.352 394.765 961.796 393.208 961.796 390.873C961.796 388.539 963.352 386.982 965.686 386.982H969.576C971.909 386.982 973.465 388.539 973.465 390.873C973.465 393.208 971.909 394.765 969.576 394.765ZM946.238 394.765H942.349C940.015 394.765 938.459 393.208 938.459 390.873C938.459 388.539 940.015 386.982 942.349 386.982H946.238C948.572 386.982 950.128 388.539 950.128 390.873C950.128 393.208 948.572 394.765 946.238 394.765ZM922.901 394.765H919.011C916.677 394.765 915.122 393.208 915.122 390.873C915.122 388.539 916.677 386.982 919.011 386.982H922.901C925.234 386.982 926.79 388.539 926.79 390.873C926.79 393.208 924.845 394.765 922.901 394.765ZM899.174 394.765H895.285C892.951 394.765 891.395 393.208 891.395 390.873C891.395 388.539 892.951 386.982 895.285 386.982H899.174C901.508 386.982 903.064 388.539 903.064 390.873C903.064 393.208 901.508 394.765 899.174 394.765ZM875.837 394.765C875.448 394.765 875.448 394.765 875.837 394.765C873.892 394.765 872.336 394.376 871.169 393.987C869.225 393.597 867.669 391.263 868.447 389.317C868.836 387.371 871.169 385.815 873.114 386.593C874.281 386.982 875.448 386.982 876.615 386.982C878.56 387.371 880.504 388.928 880.115 391.263C879.337 393.208 877.782 394.765 875.837 394.765ZM1152.77 388.149C1151.61 388.149 1150.44 387.76 1149.66 386.982C1148.11 385.425 1148.5 383.091 1150.05 381.534C1150.83 380.756 1151.61 379.977 1152.39 379.199C1153.94 377.643 1156.28 377.253 1157.83 378.81C1159.39 380.367 1159.78 382.701 1158.22 384.258C1157.05 385.425 1156.28 386.593 1155.11 387.371C1154.33 387.76 1153.55 388.149 1152.77 388.149ZM856 383.48C854.833 383.48 853.666 383.091 852.888 381.923C852.11 380.756 851.333 379.588 850.555 378.032C849.388 376.086 850.166 373.751 852.111 372.584C854.055 371.416 856.389 372.195 857.556 374.14C857.945 375.308 858.723 376.086 859.501 376.864C860.667 378.421 860.278 381.145 858.723 382.312C857.556 383.091 856.778 383.48 856 383.48ZM1162.11 367.136C1159.78 367.136 1158.22 365.19 1158.22 363.244V359.353C1158.22 357.018 1159.78 355.461 1162.11 355.461C1164.44 355.461 1166 357.018 1166 359.353V362.855V363.244C1166 365.579 1164.44 367.136 1162.11 367.136ZM850.555 360.909C848.221 360.909 846.665 359.353 846.665 357.018V353.127C846.665 350.792 848.221 349.235 850.555 349.235C852.888 349.235 854.444 350.792 854.444 353.127V357.018C854.444 359.353 852.499 360.909 850.555 360.909ZM1162.11 343.787C1159.78 343.787 1158.22 342.23 1158.22 339.896V336.004C1158.22 333.669 1159.78 332.113 1162.11 332.113C1164.44 332.113 1166 333.669 1166 336.004V339.896C1166 341.841 1164.44 343.787 1162.11 343.787ZM850.555 337.561C848.221 337.561 846.665 336.004 846.665 333.669V329.778C846.665 327.443 848.221 325.886 850.555 325.886C852.888 325.886 854.444 327.443 854.444 329.778V333.669C854.444 335.615 852.499 337.561 850.555 337.561ZM1162.11 320.049C1159.78 320.049 1158.22 318.493 1158.22 316.158V312.266C1158.22 309.932 1159.78 308.375 1162.11 308.375C1164.44 308.375 1166 309.932 1166 312.266V316.158C1166 318.493 1164.44 320.049 1162.11 320.049ZM850.555 313.823C848.221 313.823 846.665 312.266 846.665 309.932V306.04C846.665 303.705 848.221 302.149 850.555 302.149C852.888 302.149 854.444 303.705 854.444 306.04V309.932C854.444 312.266 852.499 313.823 850.555 313.823ZM1162.11 296.701C1159.78 296.701 1158.22 295.144 1158.22 292.809V288.918C1158.22 286.583 1159.78 285.026 1162.11 285.026C1164.44 285.026 1166 286.583 1166 288.918V292.809C1166 294.755 1164.44 296.701 1162.11 296.701ZM850.555 290.474C848.221 290.474 846.665 288.918 846.665 286.583V282.692C846.665 280.357 848.221 278.8 850.555 278.8C852.888 278.8 854.444 280.357 854.444 282.692V286.583C854.444 288.529 852.499 290.474 850.555 290.474ZM1162.11 272.963C1159.78 272.963 1158.22 271.406 1158.22 269.071V265.18C1158.22 262.845 1159.78 261.289 1162.11 261.289C1164.44 261.289 1166 262.845 1166 265.18V269.071C1166 271.406 1164.44 272.963 1162.11 272.963ZM850.555 266.737C848.221 266.737 846.665 265.18 846.665 262.845V258.954C846.665 256.619 848.221 255.062 850.555 255.062C852.888 255.062 854.444 256.619 854.444 258.954V262.845C854.444 265.18 852.499 266.737 850.555 266.737ZM1162.11 249.614C1159.78 249.614 1158.22 248.058 1158.22 245.723V241.831C1158.22 239.497 1159.78 237.94 1162.11 237.94C1164.44 237.94 1166 239.497 1166 241.831V245.723C1166 247.669 1164.44 249.614 1162.11 249.614ZM850.555 243.388C848.221 243.388 846.665 241.831 846.665 239.497V235.605C846.665 233.27 848.221 231.714 850.555 231.714C852.888 231.714 854.444 233.27 854.444 235.605V239.497C854.444 241.442 852.499 243.388 850.555 243.388ZM1162.11 225.877C1159.78 225.877 1158.22 224.32 1158.22 221.985V218.094C1158.22 215.759 1159.78 214.202 1162.11 214.202C1164.44 214.202 1166 215.759 1166 218.094V221.985C1166 224.32 1164.44 225.877 1162.11 225.877ZM850.555 219.65C848.221 219.65 846.665 218.094 846.665 215.759V211.867C846.665 209.532 848.61 207.976 850.555 207.976C852.888 207.976 854.444 209.922 854.444 211.867V215.759C854.444 218.094 852.499 219.65 850.555 219.65ZM1159 202.917C1157.44 202.917 1156.28 202.139 1155.5 200.971C1155.11 199.804 1154.33 199.026 1153.55 198.247C1152.39 196.691 1152.77 193.967 1154.33 192.799C1155.89 191.632 1158.61 192.021 1159.78 193.578C1160.55 194.745 1161.33 195.912 1162.11 197.469C1163.28 199.415 1162.5 201.75 1160.55 202.917C1160.17 202.917 1159.78 202.917 1159 202.917ZM857.556 197.858C856.778 197.858 855.611 197.469 854.833 197.08C853.277 195.523 852.888 193.188 854.444 191.632C855.611 190.464 856.389 189.297 857.556 188.519C859.112 186.962 861.834 187.351 863.001 188.908C864.557 190.464 864.168 193.188 862.612 194.356C861.834 195.134 861.056 195.912 860.279 196.691C859.501 197.469 858.723 197.858 857.556 197.858ZM1140.72 189.297C1140.33 189.297 1139.94 189.297 1139.94 189.297C1138.77 188.908 1137.61 188.908 1136.44 188.908C1134.49 188.519 1132.55 186.962 1132.94 184.627C1132.94 182.292 1134.88 181.125 1137.22 181.125C1138.77 181.125 1140.33 181.514 1141.49 181.903C1143.44 182.292 1145 184.627 1144.22 186.573C1144.22 188.13 1142.66 189.297 1140.72 189.297ZM1117.38 188.519H1113.49C1111.16 188.519 1109.6 186.962 1109.6 184.627C1109.6 182.292 1111.16 180.736 1113.49 180.736H1117.38C1119.71 180.736 1121.27 182.292 1121.27 184.627C1121.27 186.962 1119.71 188.519 1117.38 188.519ZM1094.04 188.519H1090.15C1087.82 188.519 1086.26 186.962 1086.26 184.627C1086.26 182.292 1087.82 180.736 1090.15 180.736H1094.04C1096.38 180.736 1097.93 182.292 1097.93 184.627C1097.93 186.962 1095.99 188.519 1094.04 188.519ZM1070.32 188.519H1066.43C1064.09 188.519 1062.54 186.962 1062.54 184.627C1062.54 182.292 1064.09 180.736 1066.43 180.736H1070.32C1072.65 180.736 1074.21 182.292 1074.21 184.627C1074.21 186.962 1072.65 188.519 1070.32 188.519ZM1046.98 188.519H1043.09C1040.75 188.519 1039.2 186.962 1039.2 184.627C1039.2 182.292 1040.75 180.736 1043.09 180.736H1046.98C1049.31 180.736 1050.87 182.292 1050.87 184.627C1050.87 186.962 1048.92 188.519 1046.98 188.519ZM1023.25 188.519H1019.36C1017.03 188.519 1015.47 186.962 1015.47 184.627C1015.47 182.292 1017.03 180.736 1019.36 180.736H1023.25C1025.59 180.736 1027.14 182.292 1027.14 184.627C1027.14 186.962 1025.59 188.519 1023.25 188.519ZM999.914 188.519H996.025C993.691 188.519 992.135 186.962 992.135 184.627C992.135 182.292 993.691 180.736 996.025 180.736H999.914C1002.25 180.736 1003.8 182.292 1003.8 184.627C1003.8 186.962 1001.86 188.519 999.914 188.519ZM976.188 188.519H972.298C969.965 188.519 968.409 186.962 968.409 184.627C968.409 182.292 969.965 180.736 972.298 180.736H976.188C978.522 180.736 980.078 182.292 980.078 184.627C980.078 186.962 978.522 188.519 976.188 188.519ZM952.85 188.519H948.961C946.627 188.519 945.071 186.962 945.071 184.627C945.071 182.292 946.627 180.736 948.961 180.736H952.85C955.184 180.736 956.74 182.292 956.74 184.627C956.74 186.962 954.795 188.519 952.85 188.519ZM929.124 188.519H925.235C922.901 188.519 921.345 186.962 921.345 184.627C921.345 182.292 922.901 180.736 925.235 180.736H929.124C931.458 180.736 933.014 182.292 933.014 184.627C933.014 186.962 931.458 188.519 929.124 188.519ZM905.787 188.519H901.897C899.563 188.519 898.008 186.962 898.008 184.627C898.008 182.292 899.563 180.736 901.897 180.736H905.787C908.12 180.736 909.676 182.292 909.676 184.627C909.676 186.962 907.731 188.519 905.787 188.519ZM882.06 188.519H878.171C875.837 188.519 874.281 186.962 874.281 184.627C874.281 182.292 875.837 180.736 878.56 180.736H882.06C884.394 180.736 885.95 182.292 885.95 184.627C885.95 186.962 884.394 188.519 882.06 188.519Z" fill="black"></path><path d="M1009.64 239.497C1010.81 239.497 1011.58 240.275 1011.58 241.443V367.525C1011.58 368.693 1010.81 369.471 1009.64 369.471C1008.47 369.471 1007.7 368.693 1007.7 367.525V241.443C1007.7 240.275 1008.47 239.497 1009.64 239.497Z" fill="black"></path><path d="M1009.64 371.028C1007.31 371.028 1005.75 369.471 1005.75 367.136V241.443C1005.75 239.108 1007.31 237.551 1009.64 237.551C1011.97 237.551 1013.53 239.108 1013.53 241.443V367.525C1013.53 369.471 1011.97 371.028 1009.64 371.028ZM1009.64 239.497V241.443V239.497Z" fill="black"></path><path d="M1025.2 253.896L1022.48 256.62L1009.64 243L996.805 256.62L994.082 253.896L1009.64 237.163L1025.2 253.896Z" fill="black"></path><path d="M1022.48 259.344L1009.64 245.724L997.193 259.344L991.358 254.285L1009.64 234.438L1027.92 254.285L1022.48 259.344Z" fill="black"></path><path d="M1133.72 340.284H877.784C862.226 340.284 849.779 327.832 849.779 312.266V161.667C849.779 146.102 862.226 133.649 877.784 133.649H1133.72C1149.28 133.649 1161.72 146.102 1161.72 161.667V312.266C1161.72 327.832 1149.28 340.284 1133.72 340.284ZM877.784 145.712C868.838 145.712 861.448 153.106 861.448 162.056V312.655C861.448 321.605 868.838 328.999 877.784 328.999H1133.72C1142.66 328.999 1150.05 321.605 1150.05 312.655V161.667C1150.05 152.717 1142.66 145.323 1133.72 145.323H877.784V145.712Z" fill="black"></path></svg> 