<?xml version="1.0" encoding="UTF-8"?> <svg xmlns="http://www.w3.org/2000/svg" width="332" height="142" viewBox="0 0 332 142" fill="none"><path d="M248.911 141.236H75.1816C64.7456 141.236 56.1514 132.641 56.1514 122.205V19.9917C56.1514 9.55548 64.7456 0.960938 75.1816 0.960938H248.911C259.347 0.960938 267.941 9.55548 267.941 19.9917V122.205C267.941 132.641 259.347 141.236 248.911 141.236ZM75.1816 9.24853C69.0428 9.24853 64.1318 14.1596 64.1318 20.2985V122.512C64.1318 128.651 69.0428 133.562 75.1816 133.562H248.911C255.05 133.562 259.961 128.651 259.961 122.512V20.2985C259.961 14.1596 255.05 9.24853 248.911 9.24853H75.1816Z" fill="black"></path><path d="M267.02 93.9656C248.604 93.9656 232.95 92.4309 231.415 92.4309C229.881 92.1239 228.346 90.8962 228.653 89.0545C228.96 87.2129 230.188 86.292 232.029 86.292C252.594 88.4406 309.071 90.5893 322.884 77.3907C325.032 75.549 325.953 73.4003 325.646 70.9447C325.339 65.1128 323.191 60.5086 319.2 57.1322C308.151 47.9239 286.665 48.8448 277.763 50.0726C276.229 50.3795 274.694 49.1518 274.387 47.3102C274.08 45.4685 275.308 44.2406 277.15 43.9337C289.12 42.7059 310.913 42.092 323.191 52.5281C328.716 57.1322 331.478 63.2711 331.785 70.9447C332.092 75.242 330.557 78.9253 327.181 82.3017C316.745 91.817 289.734 93.9656 267.02 93.9656Z" fill="black"></path><path d="M290.348 60.8154L292.803 58.053L278.684 47.0029L290.655 33.8044L287.892 31.3489L273.466 47.31L290.348 60.8154Z" fill="black"></path><path d="M78.559 95.1936C53.3898 95.1936 18.0916 92.738 5.50698 79.8463C1.82369 76.163 0.288865 71.8658 0.595807 67.2616C2.43746 42.0921 48.7857 40.2502 50.9343 40.2502C52.469 40.2502 54.0037 41.478 54.0037 43.3197C54.0037 45.1614 52.776 46.3892 50.9343 46.3892C38.9636 46.6961 7.65546 51.3004 6.73464 67.5685C6.4277 70.6379 7.65546 73.0934 9.80406 75.549C21.4678 87.5199 61.6773 90.2825 95.4408 88.7478C96.9755 88.7478 98.5103 89.9756 98.5103 91.8173C98.5103 93.659 97.2825 94.8867 95.4408 94.8867C91.1437 94.8867 85.3118 95.1936 78.559 95.1936Z" fill="black"></path><path d="M83.1625 77.0837L80.707 79.8463L94.2124 91.8172L81.6278 104.402L84.0833 106.857L99.7373 91.5102L83.1625 77.0837Z" fill="black"></path></svg> 