<?xml version="1.0" encoding="UTF-8"?> <svg xmlns="http://www.w3.org/2000/svg" width="347" height="99" viewBox="0 0 347 99" fill="none"><path d="M323.037 84.6634C322.438 84.6634 321.54 84.065 321.54 83.1675V61.0295C321.54 60.4312 322.139 59.5337 323.037 59.5337C323.636 59.5337 324.534 60.132 324.534 61.0295V83.1675C324.534 84.065 323.935 84.6634 323.037 84.6634Z" fill="black"></path><path d="M323.037 85.5607C321.839 85.5607 320.941 84.6632 320.941 83.4666V61.3285C320.941 60.1319 321.839 59.2344 323.037 59.2344C324.234 59.2344 325.133 60.1319 325.133 61.3285V83.4666C325.133 84.364 324.234 85.5607 323.037 85.5607ZM323.037 60.431C322.737 60.431 322.438 60.7302 322.438 61.0294V83.1674C322.438 83.4666 322.737 83.7657 323.037 83.7657C323.336 83.7657 323.636 83.4666 323.636 83.1674V61.0294C323.636 60.7302 323.336 60.431 323.037 60.431Z" fill="black"></path><path d="M312.259 74.4915L314.055 72.6965L323.037 82.2697L332.018 72.6965L333.815 74.4915L323.037 86.1589L312.259 74.4915Z" fill="black"></path><path d="M323.037 87.3553L311.061 74.4913L314.055 71.7988L323.037 81.372L332.018 71.7988L335.012 74.4913L323.037 87.3553ZM313.157 74.4913L323.037 84.962L332.916 74.4913L332.018 73.5938L323.037 83.167L314.055 73.5938L313.157 74.4913Z" fill="black"></path><path d="M323.336 13.1633C323.935 13.1633 324.833 13.7617 324.833 14.6591V36.7972C324.833 37.3955 324.234 38.293 323.336 38.293C322.737 38.293 321.839 37.6947 321.839 36.7972V14.6591C321.839 13.7617 322.438 13.1633 323.336 13.1633Z" fill="black"></path><path d="M323.336 38.8915C322.139 38.8915 321.24 37.994 321.24 36.7974V14.6593C321.24 13.4627 322.139 12.5652 323.336 12.5652C324.534 12.5652 325.432 13.4627 325.432 14.6593V36.7974C325.432 37.994 324.534 38.8915 323.336 38.8915ZM323.336 14.061C323.037 14.061 322.737 14.3602 322.737 14.6593V36.7974C322.737 37.0965 323.037 37.3957 323.336 37.3957C323.635 37.3957 323.935 37.0965 323.935 36.7974V14.6593C323.935 14.3602 323.635 14.061 323.336 14.061Z" fill="black"></path><path d="M334.114 23.3351L332.018 25.13L323.336 15.5568L314.355 25.13L312.558 23.3351L323.336 11.6677L334.114 23.3351Z" fill="black"></path><path d="M332.018 26.3265L323.037 16.7533L314.055 26.3265L311.061 23.634L323.037 10.77L335.012 23.634L332.018 26.3265ZM323.336 14.36L332.318 23.9332L333.216 23.0357L323.336 12.8642L313.456 23.3349L314.355 24.2323L323.336 14.36Z" fill="black"></path><path d="M25.747 47.5672C25.747 47.268 26.0464 47.268 26.0464 47.268C26.3458 47.268 26.3458 47.5672 26.3458 47.5672V56.8412C26.3458 57.1404 26.3458 58.0379 25.4476 58.0379C24.8489 58.0379 24.8489 57.7387 24.5495 57.4395L18.5618 47.8663V57.4395C18.5618 57.7387 18.2624 57.7387 18.2624 57.7387C17.963 57.7387 17.963 57.7387 17.963 57.4395V47.8663C17.963 47.5672 17.963 46.6697 18.8612 46.6697C19.4599 46.6697 19.4599 46.9688 19.7593 47.268L26.3458 56.8412V47.5672H25.747Z" fill="#040000"></path><path d="M26.0464 58.6364C25.1482 58.6364 24.8488 58.038 24.5495 57.7389L19.4599 50.2598V57.4397C19.4599 58.3372 18.8611 58.6364 18.2624 58.6364C17.6636 58.6364 17.0648 58.038 17.0648 57.4397V47.8665C17.0648 46.3707 17.963 46.0715 18.5617 46.0715C19.4599 46.0715 19.7593 46.6699 20.0587 46.969L25.1482 54.4481V47.2682C25.1482 46.3707 25.747 46.0715 26.3458 46.0715C26.9445 46.0715 27.5433 46.6699 27.5433 47.2682V56.8414C27.5433 58.6364 26.6451 58.6364 26.0464 58.6364Z" fill="#040000"></path><path d="M36.8243 51.7553C37.1237 51.7553 37.1237 52.0544 37.1237 52.0544C37.1237 52.3536 37.1237 52.3536 36.8243 52.3536H32.3335V56.2427C32.3335 56.5419 32.6329 56.841 32.9323 56.841H37.7224C38.0218 56.841 38.0218 57.1402 38.0218 57.1402C38.0218 57.4394 38.0218 57.4394 37.7224 57.4394H32.9323C31.7347 57.4394 31.7347 56.5419 31.7347 56.2427V48.4645C31.7347 48.1653 31.7347 47.2678 32.9323 47.2678H37.7224C38.0218 47.2678 38.0218 47.567 38.0218 47.567C38.0218 47.8661 38.0218 47.8661 37.7224 47.8661H33.2317C32.9323 47.8661 32.6329 47.8661 32.6329 48.4645V51.7553H36.8243V51.7553Z" fill="#040000"></path><path d="M37.423 58.6362H32.6328C32.034 58.6362 30.5371 58.337 30.5371 56.542V48.7638C30.5371 46.9688 31.7346 46.6697 32.6328 46.6697H37.423C38.0217 46.6697 38.6205 47.268 38.6205 47.8663C38.6205 48.4647 38.0217 49.063 37.423 49.063H32.9322V51.4563H36.8242C37.423 51.4563 38.0217 52.0546 38.0217 52.6529C38.0217 53.2513 37.423 53.8496 36.8242 53.8496H32.9322V56.542H37.423C38.0217 56.542 38.6205 57.1404 38.6205 57.7387C38.6205 58.0379 38.0217 58.6362 37.423 58.6362Z" fill="#040000"></path><path d="M54.4879 47.2676C54.4879 46.9684 54.4879 46.9684 54.7873 46.9684C55.0867 46.9684 55.386 46.9684 55.386 47.2676V47.5668L52.3922 57.4391C52.3922 57.7383 52.0928 58.0375 51.7934 58.0375C51.1947 58.0375 51.1947 57.7383 51.1947 57.4391L48.2008 47.8659L45.5063 57.14C45.5063 57.4391 45.2069 57.7383 44.9076 57.7383C44.3088 57.7383 44.3088 57.4391 44.3088 57.14L41.3149 47.2676C41.3149 47.2676 41.3149 47.2676 41.3149 46.9684C41.3149 46.6693 41.6143 46.6693 41.9137 46.6693C42.2131 46.6693 42.2131 46.6693 42.2131 46.9684L45.2069 56.5417L47.9014 46.9684C47.9014 46.3701 48.2008 46.3701 48.5002 46.3701C48.7996 46.3701 49.099 46.3701 49.099 46.9684L51.7934 56.5417L54.4879 47.2676Z" fill="#040000"></path><path d="M51.7933 58.636C50.5958 58.636 50.2964 57.7385 50.2964 57.4393L48.2007 50.5586L46.105 57.4393C46.105 57.7385 45.8056 58.636 44.6081 58.636C43.4105 58.636 43.4105 57.7385 43.1112 57.4393L40.1173 47.5669V47.2678C40.1173 46.6695 40.7161 46.0711 41.3149 46.0711C41.6142 46.0711 42.213 46.3703 42.5124 46.9686L44.6081 54.1485L46.7038 46.9686C46.7038 46.3703 47.3026 45.772 48.2007 45.772C48.5001 45.772 49.3983 45.772 49.6976 46.9686L51.7933 54.1485L53.889 46.9686C54.1884 46.3703 54.4878 46.0711 55.0866 46.0711C55.6853 46.0711 56.2841 46.6695 56.2841 47.2678C56.2841 47.5669 56.2841 47.5669 56.2841 47.8661L53.2903 57.4393C52.9909 58.0376 52.6915 58.636 51.7933 58.636ZM54.4878 47.2678L55.0866 47.5669L54.4878 47.2678Z" fill="#040000"></path><path d="M59.2782 56.8407C59.877 57.1399 60.4758 57.1399 61.3739 57.1399C62.5715 57.1399 64.0684 56.5416 64.0684 55.0457C64.0684 53.5499 62.8708 53.2508 61.6733 52.6524C60.4758 52.3533 58.6794 51.755 58.6794 49.6608C58.6794 48.165 59.877 46.6692 61.6733 46.6692C62.2721 46.6692 63.1702 46.9684 63.769 46.9684C63.769 46.9684 64.0684 46.9684 64.0684 47.2675C64.0684 47.5667 63.769 47.5667 63.769 47.5667H63.4696C63.1702 47.5667 62.5715 47.2675 61.9727 47.2675C60.4758 47.2675 59.877 48.165 59.877 49.3617C59.877 50.5583 61.0745 51.1566 62.2721 51.4558C63.4696 52.0541 65.2659 52.3533 65.2659 54.4474C65.2659 56.5416 63.769 57.439 61.6733 57.439C60.4758 57.439 59.5776 57.1399 59.2782 56.8407C58.9788 56.8407 58.9788 56.5416 58.9788 56.5416C58.9788 56.2424 59.2782 56.2424 59.2782 56.2424C58.9788 56.5416 58.9788 56.5416 59.2782 56.8407Z" fill="#040000"></path><path d="M61.3738 58.6359C59.8768 58.6359 58.9787 58.3368 58.6793 58.0376C58.0805 57.7384 57.7811 57.4393 57.7811 56.841C57.7811 55.9435 58.6793 55.3451 59.5774 55.9435H59.8768C60.4756 56.2426 61.0744 56.2426 61.3738 56.2426C61.9725 56.2426 63.4694 56.2426 63.4694 54.7468C63.4694 53.8493 62.8707 53.5502 61.6731 53.251C60.4756 52.9518 58.3799 52.0544 58.3799 49.6611C58.3799 46.9686 61.3738 45.1736 64.667 46.6694C65.2658 46.9686 65.5651 47.5669 65.5651 47.8661C65.5651 48.4644 64.9664 49.0627 64.3676 49.0627C64.0682 49.0627 64.0682 49.0627 63.7688 48.7636C63.4694 48.7636 63.1701 48.4644 62.5713 48.4644C61.6731 48.4644 61.0744 49.0627 61.0744 49.6611C61.0744 50.2594 61.6731 50.5585 62.8707 51.1569C64.3676 51.7552 66.1639 52.3535 66.1639 55.046C65.5651 57.1401 63.7688 58.6359 61.3738 58.6359Z" fill="#040000"></path><path d="M97.8988 57.1405C98.1982 57.1405 98.1982 57.4397 98.1982 57.4397C98.1982 57.7389 98.1982 57.7389 97.8988 57.7389H92.2105C91.6117 57.7389 91.0129 57.7389 91.0129 57.1405C91.0129 56.8414 91.0129 56.5422 91.9111 55.9439C92.5099 55.3456 94.3062 53.8497 95.5037 52.3539C96.4019 51.4564 96.7013 50.5589 96.7013 49.9606C96.7013 48.764 95.8031 47.8665 94.6056 47.8665C93.7074 47.8665 92.8092 48.1656 92.2105 48.764C91.9111 49.0631 91.9111 49.0631 91.6117 49.0631C91.3123 49.0631 91.3123 48.764 91.3123 48.764C91.3123 48.4648 92.5099 46.969 94.3062 46.969C95.8031 46.969 97.3 47.8665 97.3 49.9606C97.3 51.1573 96.7013 52.0548 96.1025 52.6531C94.9049 53.8497 92.5099 55.9439 91.3123 57.1405H97.8988V57.1405Z" fill="black"></path><path d="M97.8988 58.9354H92.2105C91.6117 58.9354 90.4142 58.9354 90.4142 57.4395C90.4142 56.5421 90.7136 56.2429 91.6117 55.6446L91.9111 55.3454C92.5099 54.7471 94.3062 53.2513 95.2043 52.0546C96.1025 51.1571 96.1025 50.5588 96.1025 50.2596C96.1025 49.6613 95.5037 48.7638 94.6056 48.7638C94.0068 48.7638 93.408 49.063 92.8093 49.6613C92.5099 49.9605 92.2105 50.2596 91.6117 50.2596C91.013 50.2596 90.4142 49.6613 90.4142 49.063C90.4142 48.1655 92.2105 46.6697 94.3062 46.6697C96.1025 46.6697 98.1982 47.8663 98.1982 50.2596C98.1982 51.7554 97.5994 52.6529 96.7013 53.5504C95.8031 54.4479 94.6056 55.6446 93.408 56.542H97.5994C98.1982 56.542 98.797 57.1404 98.797 57.7387C99.0963 58.337 98.4976 58.9354 97.8988 58.9354Z" fill="black"></path><path d="M100.294 52.6528C100.294 51.4561 100.294 47.2678 103.887 47.2678C107.479 47.2678 107.479 51.4561 107.479 52.6528C107.479 53.8494 107.479 58.0377 103.887 58.0377C100.294 58.3368 100.294 53.8494 100.294 52.6528ZM106.581 52.6528C106.581 51.1569 106.282 47.8661 103.887 47.8661C101.491 47.8661 101.192 50.8578 101.192 52.6528C101.192 54.1486 101.491 57.4394 103.887 57.4394C106.282 57.4394 106.581 54.4477 106.581 52.6528Z" fill="black"></path><path d="M103.887 58.935C102.39 58.935 99.3958 58.0375 99.3958 52.6525C99.3958 47.2676 102.09 46.3701 103.887 46.3701C105.683 46.3701 108.377 47.2676 108.377 52.6525C108.377 58.3366 105.383 58.935 103.887 58.935ZM103.887 48.7634C103.288 48.7634 101.791 48.7634 101.791 52.6525C101.791 56.5417 103.288 56.5417 103.887 56.5417C104.485 56.5417 105.982 56.5417 105.982 52.6525C105.982 48.7634 104.485 48.7634 103.887 48.7634Z" fill="black"></path><path d="M116.46 57.1405C116.76 57.1405 116.76 57.4397 116.76 57.4397C116.76 57.7389 116.76 57.7389 116.46 57.7389H110.772C110.173 57.7389 109.575 57.7389 109.575 57.1405C109.575 56.8414 109.575 56.5422 110.473 55.9439C111.072 55.3456 112.868 53.8497 114.065 52.3539C114.964 51.4564 115.263 50.5589 115.263 49.9606C115.263 48.764 114.365 47.8665 113.167 47.8665C112.269 47.8665 111.371 48.1656 110.772 48.764C110.473 49.0631 110.473 49.0631 110.173 49.0631C109.874 49.0631 109.874 48.764 109.874 48.764C109.874 48.4648 111.072 46.969 112.868 46.969C114.365 46.969 115.862 47.8665 115.862 49.9606C115.862 51.1573 115.263 52.0548 114.664 52.6531C113.467 53.8497 111.072 55.9439 109.874 57.1405H116.46V57.1405Z" fill="black"></path><path d="M116.461 58.9354H110.772C110.173 58.9354 108.976 58.9354 108.976 57.4395C108.976 56.5421 109.275 56.2429 110.173 55.6446L110.473 55.3454C111.072 54.7471 112.868 53.2513 113.766 52.0546C114.664 51.1571 114.664 50.5588 114.664 50.2596C114.664 49.6613 114.065 48.7638 113.167 48.7638C112.569 48.7638 111.97 49.063 111.371 49.6613C111.072 49.9605 110.772 50.2596 110.473 50.2596C109.874 50.2596 109.275 49.6613 109.275 49.063C109.275 48.1655 111.072 46.6697 113.167 46.6697C114.964 46.6697 117.059 47.8663 117.059 50.2596C117.059 51.7554 116.461 52.6529 115.562 53.5504C114.664 54.4479 113.467 55.6446 112.269 56.542H116.461C117.059 56.542 117.658 57.1404 117.658 57.7387C117.359 58.337 117.059 58.9354 116.461 58.9354Z" fill="black"></path><path d="M120.652 49.6611C120.353 49.6611 120.353 49.6611 120.652 49.6611C120.053 49.6611 120.053 49.362 120.053 49.362C120.053 49.0628 120.353 49.0628 120.353 49.0628L122.449 47.567C122.748 47.2678 122.748 47.2678 123.047 47.2678C123.347 47.2678 123.347 47.567 123.347 47.8661V57.7385C123.347 58.0377 123.047 58.0377 123.047 58.0377C122.748 58.0377 122.449 58.0377 122.449 57.7385V48.4645L120.652 49.6611Z" fill="black"></path><path d="M122.748 58.9354C122.149 58.9354 121.55 58.337 121.55 57.7387V49.6613L120.951 49.9605C120.951 49.9605 120.652 50.2596 120.353 50.2596C119.754 50.2596 119.155 49.6613 119.155 49.063C119.155 48.4647 119.754 48.1655 119.754 48.1655L121.85 46.9688C122.149 46.6697 122.448 46.6697 122.748 46.6697C123.047 46.6697 123.945 46.9688 123.945 48.1655V58.0379C123.945 58.6362 123.347 58.9354 122.748 58.9354Z" fill="black"></path><path d="M129.634 57.4395C129.634 58.0378 129.334 58.337 128.736 58.337C128.137 58.337 127.837 58.0378 127.837 57.4395C127.837 56.8412 128.137 56.542 128.736 56.542C129.334 56.542 129.634 56.8412 129.634 57.4395Z" fill="black"></path><path d="M128.736 58.9355C127.838 58.9355 127.239 58.3372 127.239 57.4397C127.239 56.5422 127.838 55.9438 128.736 55.9438C129.634 55.9438 130.233 56.5422 130.233 57.4397C130.233 58.3372 129.634 58.9355 128.736 58.9355Z" fill="black"></path><path d="M134.723 54.1486C132.628 54.1486 131.43 52.6528 131.43 50.8578C131.43 48.7636 132.927 47.2678 135.023 47.2678C136.52 47.2678 138.915 48.1653 138.915 52.0544C138.915 56.2427 136.819 58.3368 134.125 58.3368C133.526 58.3368 132.628 58.3368 132.628 57.7385C132.628 57.4394 132.927 57.4394 132.927 57.4394H133.226C133.226 57.4394 133.526 57.4394 133.825 57.4394C135.622 57.4394 136.819 56.5419 137.418 55.0461C137.717 54.1486 138.017 53.2511 138.017 52.3536C136.819 54.1486 135.322 54.1486 134.723 54.1486ZM132.328 50.8578C132.328 52.6528 133.526 53.5502 135.023 53.5502C136.52 53.5502 137.717 52.6528 137.717 50.8578C137.717 49.362 136.819 48.1653 135.023 48.1653C133.226 48.1653 132.328 49.362 132.328 50.8578Z" fill="black"></path><path d="M133.825 58.935C132.029 58.935 131.729 58.0375 131.729 57.7383C131.729 57.14 132.328 56.5417 132.927 56.5417H133.226C133.526 56.5417 133.526 56.5417 133.825 56.5417C135.023 56.5417 136.22 55.9433 136.52 54.7467V54.4475C135.921 54.7467 135.322 54.7467 134.424 54.7467C132.029 54.7467 130.233 52.9517 130.233 50.5584C130.233 48.1651 132.029 46.3701 134.424 46.3701C136.52 46.3701 138.915 47.8659 138.915 51.755C139.513 57.14 136.52 58.935 133.825 58.935ZM135.023 48.7634C133.825 48.7634 133.226 49.6609 133.226 50.8576C133.226 52.3534 134.125 52.6525 135.023 52.6525C135.921 52.6525 137.118 52.0542 137.118 50.8576C137.118 49.9601 136.52 48.7634 135.023 48.7634Z" fill="black"></path><path d="M142.507 57.4395C142.507 58.0378 142.208 58.337 141.609 58.337C141.01 58.337 140.711 57.7386 140.711 57.4395C140.711 56.8412 141.01 56.542 141.609 56.542C142.208 56.542 142.507 56.8412 142.507 57.4395Z" fill="black"></path><path d="M141.609 58.9355C140.711 58.9355 140.112 58.3372 140.112 57.4397C140.112 56.5422 140.711 55.9438 141.609 55.9438C142.507 55.9438 143.106 56.5422 143.106 57.4397C143.106 58.3372 142.507 58.9355 141.609 58.9355Z" fill="black"></path><path d="M151.189 57.1405C151.489 57.1405 151.489 57.4397 151.489 57.4397C151.489 57.7389 151.489 57.7389 151.189 57.7389H145.501C144.902 57.7389 144.304 57.7389 144.304 57.1405C144.304 56.8414 144.304 56.5422 145.202 55.9439C145.801 55.3456 147.597 53.8497 148.794 52.3539C149.693 51.4564 149.992 50.5589 149.992 49.9606C149.992 48.764 149.094 47.8665 147.896 47.8665C146.998 47.8665 146.1 48.1656 145.501 48.764C145.202 49.0631 145.202 49.0631 144.902 49.0631C144.603 49.0631 144.603 48.764 144.603 48.764C144.603 48.4648 145.801 46.969 147.597 46.969C149.094 46.969 150.591 47.8665 150.591 49.9606C150.591 51.1573 149.992 52.0548 149.393 52.6531C148.196 53.8497 145.801 55.9439 144.603 57.1405H151.189V57.1405Z" fill="black"></path><path d="M151.189 58.9354H145.501C144.902 58.9354 143.705 58.9354 143.705 57.4395C143.705 56.5421 144.004 56.2429 144.902 55.6446L145.202 55.3454C145.801 54.7471 147.597 53.2513 148.495 52.0546C149.393 51.1571 149.393 50.5588 149.393 50.2596C149.393 49.6613 148.794 48.7638 147.896 48.7638C147.297 48.7638 146.699 49.063 146.1 49.6613C145.801 49.9605 145.501 50.2596 144.902 50.2596C144.304 50.2596 143.705 49.6613 143.705 49.063C143.705 48.1655 145.501 46.6697 147.597 46.6697C149.393 46.6697 151.489 47.8663 151.489 50.2596C151.489 51.7554 150.89 52.6529 149.992 53.5504C149.094 54.4479 147.896 55.6446 146.699 56.542H150.89C151.489 56.542 152.088 57.1404 152.088 57.7387C152.387 58.337 151.788 58.9354 151.189 58.9354Z" fill="black"></path><path d="M155.381 49.6611C154.782 49.6611 154.782 49.362 154.782 49.362C154.782 49.0628 155.081 49.0628 155.081 49.0628L157.177 47.567C157.476 47.2678 157.476 47.2678 157.776 47.2678C158.075 47.2678 158.075 47.567 158.075 47.8661V57.7385C158.075 58.0377 157.776 58.0377 157.776 58.0377C157.476 58.0377 157.177 58.0377 157.177 57.7385V48.4645L155.381 49.6611Z" fill="black"></path><path d="M157.476 58.9354C156.878 58.9354 156.279 58.337 156.279 57.7387V49.6613L155.68 49.9605C155.68 49.9605 155.381 50.2596 155.081 50.2596C154.483 50.2596 153.884 49.6613 153.884 49.063C153.884 48.4647 154.483 48.1655 154.483 48.1655L156.578 46.9688C156.878 46.6697 157.177 46.6697 157.476 46.6697C157.776 46.6697 158.674 46.9688 158.674 48.1655V58.0379C158.674 58.6362 158.075 58.9354 157.476 58.9354Z" fill="black"></path><path d="M183.822 46.6699C183.822 46.3707 184.122 46.0715 184.421 46.0715C184.72 46.0715 185.02 46.3707 185.02 46.6699V46.969L181.427 58.6364C181.427 58.9355 181.128 59.5339 180.529 59.5339C179.93 59.5339 179.631 59.2347 179.631 58.9355L176.338 47.5673L173.044 58.9355C173.044 59.2347 172.745 59.5339 172.146 59.5339C171.548 59.5339 171.248 59.2347 171.248 58.9355L167.656 46.969V46.6699C167.656 46.3707 167.955 46.0715 168.254 46.0715C168.554 46.0715 168.554 46.3707 168.853 46.6699L172.446 58.3372L175.739 46.969C176.038 46.3707 176.338 46.3707 176.637 46.3707C176.936 46.3707 177.236 46.3707 177.535 46.969L180.828 58.3372L183.822 46.6699Z" fill="black"></path><path d="M180.529 60.1318C179.332 60.1318 179.032 59.2343 179.032 58.9351L176.338 50.2594L173.643 59.2343C173.643 59.5335 173.344 60.4309 172.146 60.4309C170.949 60.4309 170.649 59.5335 170.649 59.2343L167.057 47.5669C167.057 47.5669 167.057 47.2678 167.057 46.9686C167.057 46.0711 167.656 45.772 168.254 45.772C168.853 45.772 169.152 46.0711 169.452 46.6695L172.146 55.9435L174.841 46.9686C175.14 46.0711 175.44 45.772 176.338 45.772C176.637 45.772 177.535 45.772 177.835 46.9686L180.529 55.9435L183.224 46.6695C183.523 46.0711 183.822 45.772 184.421 45.772C185.02 45.772 185.619 46.3703 185.619 46.9686C185.619 47.2678 185.619 47.2678 185.619 47.5669L182.026 59.2343C181.727 59.2343 181.427 60.1318 180.529 60.1318ZM183.822 46.6695L184.421 46.9686L183.822 46.6695Z" fill="black"></path><path d="M193.702 52.0549C194.001 52.0549 194.301 52.3541 194.301 52.6533C194.301 52.9524 194.001 53.2516 193.702 53.2516H188.313V57.739C188.313 58.3374 188.612 58.3374 188.912 58.3374H194.6C194.899 58.3374 195.199 58.6365 195.199 58.9357C195.199 59.2348 194.899 59.534 194.6 59.534H188.612C187.115 59.534 187.115 58.3374 187.115 58.0382V47.8667C187.115 47.2683 187.115 46.3708 188.612 46.3708H194.301C194.6 46.3708 194.899 46.67 194.899 46.9692C194.899 47.2683 194.6 47.5675 194.301 47.5675H188.912C188.313 47.5675 188.313 47.5675 188.313 48.1658V52.0549H193.702Z" fill="black"></path><path d="M194.6 59.833H188.613C187.714 59.833 186.517 59.5338 186.517 57.4397V47.8664C186.517 46.0715 187.714 45.4731 188.613 45.4731H194.301C195.199 45.4731 195.498 46.0715 195.498 46.6698C195.498 47.2681 194.9 47.8664 194.301 47.8664H188.912V51.1572H193.702C194.6 51.1572 194.9 51.7556 194.9 52.3539C194.9 52.9522 194.301 53.5505 193.702 53.5505H188.912V57.1405H194.6C195.498 57.1405 195.798 57.7388 195.798 58.3371C195.798 59.2346 195.199 59.833 194.6 59.833Z" fill="black"></path><path d="M198.791 58.9357C197.295 58.9357 197.295 57.739 197.295 57.4399V47.8667C197.295 47.2683 197.295 46.3708 198.791 46.3708H201.187C202.384 46.3708 205.378 46.3708 205.378 49.3625C205.378 51.4566 204.18 52.0549 203.582 52.3541C204.18 52.6533 205.977 53.2516 205.977 55.6449C205.977 59.2348 202.683 59.2348 201.486 59.2348H198.791V58.9357ZM201.187 52.0549C202.085 52.0549 204.18 52.0549 204.18 49.6616C204.18 47.2683 202.384 47.2683 200.887 47.2683H198.791C198.193 47.2683 198.193 47.2683 198.193 47.8667V51.7558H201.187V52.0549ZM198.492 57.4399C198.492 58.0382 198.791 58.0382 199.091 58.0382H201.187C202.384 58.0382 204.779 58.0382 204.779 55.6449C204.779 52.9524 202.384 52.9524 201.187 52.9524H198.193V57.4399H198.492Z" fill="black"></path><path d="M201.187 59.833H198.792C197.893 59.833 196.696 59.5338 196.696 57.4397V47.8664C196.696 46.0715 197.893 45.4731 198.792 45.4731H201.187C204.48 45.4731 206.276 46.6698 206.276 49.3623C206.276 50.8581 205.677 51.7556 205.079 52.3539C205.977 52.9522 206.576 53.8497 206.576 55.6447C206.576 57.4397 205.677 59.833 201.187 59.833ZM199.091 57.4397H201.187C202.983 57.4397 204.181 57.1405 204.181 55.6447C204.181 54.1489 203.282 53.5505 201.486 53.5505H199.39V57.4397H199.091ZM199.091 51.1572H201.187C202.983 51.1572 203.582 50.5589 203.582 49.3623C203.582 48.1656 202.983 47.8664 201.187 47.8664H199.39L199.091 51.1572Z" fill="black"></path><path d="M208.672 57.7383C209.57 58.0375 210.169 58.3366 211.067 58.3366C212.564 58.3366 214.36 57.7383 214.36 55.6442C214.36 53.8492 213.162 53.2509 211.665 52.9517C210.169 52.3534 208.372 51.755 208.372 49.6609C208.372 47.8659 209.869 46.3701 212.264 46.3701C213.162 46.3701 213.761 46.6693 214.659 46.9684C214.659 46.9684 214.959 47.2676 214.959 47.5668C214.959 47.8659 214.659 48.1651 214.36 48.1651C214.36 48.1651 214.061 48.1651 213.761 47.8659C213.462 47.8659 212.863 47.5668 211.965 47.5668C210.169 47.5668 209.27 48.7634 209.27 49.9601C209.27 51.4559 210.468 52.0542 211.965 52.6525C213.462 53.2509 215.557 53.8492 215.557 56.2425C215.557 58.6358 213.462 59.8324 211.366 59.8324C209.869 59.8324 208.672 59.2341 208.372 59.2341C208.073 59.2341 207.773 58.935 207.773 58.6358C207.773 58.3366 208.073 58.0375 208.372 58.0375C208.073 57.7383 208.073 57.7383 208.672 57.7383Z" fill="black"></path><path d="M210.767 60.1318C208.971 60.1318 208.073 59.5335 207.474 59.5335C206.875 59.2343 206.576 58.9351 206.576 58.3368C206.576 57.7385 207.175 57.1402 207.773 57.1402C208.073 57.1402 208.073 57.1402 208.372 57.4393C208.971 57.7385 209.57 58.0376 210.468 58.0376C211.067 58.0376 212.863 58.0376 212.863 56.2427C212.863 55.046 211.965 54.7469 210.767 54.1485C209.27 53.5502 206.875 52.6527 206.875 49.9603C206.875 47.567 208.671 45.772 211.366 45.772C212.264 45.772 213.162 46.0711 214.06 46.3703C214.659 46.6695 214.959 46.9686 214.959 47.5669C214.959 48.1653 214.36 48.7636 213.761 48.7636C213.462 48.7636 213.162 48.7636 212.863 48.4644C212.564 48.4644 211.965 48.1653 211.366 48.1653C210.168 48.1653 209.57 49.0628 209.57 49.9603C209.57 50.8577 210.168 51.1569 211.665 51.7552C213.162 52.3535 215.557 53.251 215.557 56.2427C215.857 58.3368 214.06 60.1318 210.767 60.1318Z" fill="black"></path><path d="M218.252 46.6699C218.252 46.3707 218.551 46.0715 218.85 46.0715C219.15 46.0715 219.449 46.3707 219.449 46.6699V58.6364C219.449 59.2347 219.15 59.2347 218.85 59.2347C218.551 59.2347 218.252 58.9355 218.252 58.6364V46.6699Z" fill="black"></path><path d="M218.851 60.1318C217.952 60.1318 217.653 59.5335 217.653 58.9351V46.9686C217.653 46.0711 218.252 45.772 218.851 45.772C219.449 45.772 220.048 46.3703 220.048 46.9686V58.9351C220.048 59.5335 219.449 60.1318 218.851 60.1318ZM218.551 46.6695H218.851H217.952H218.551Z" fill="black"></path><path d="M227.533 58.935C227.533 59.2341 227.233 59.5333 226.934 59.5333C226.634 59.5333 226.335 59.2341 226.335 58.935V47.5668H222.144C221.844 47.5668 221.545 47.2676 221.545 46.9684C221.545 46.6693 221.844 46.3701 222.144 46.3701H231.425C231.724 46.3701 232.023 46.6693 232.023 46.9684C232.023 47.2676 231.724 47.5668 231.425 47.5668H227.533V58.935Z" fill="black"></path><path d="M226.934 60.1318C226.036 60.1318 225.736 59.5335 225.736 58.9351V48.1653H222.443C221.844 48.1653 221.245 47.5669 221.245 46.9686C221.245 46.3703 221.844 45.772 222.443 45.772H231.724C232.323 45.772 232.921 46.3703 232.921 46.9686C232.921 47.5669 232.323 48.1653 231.724 48.1653H228.431V58.9351C228.131 59.5335 227.533 60.1318 226.934 60.1318ZM226.634 58.9351H227.533H226.634Z" fill="black"></path><path d="M240.406 52.0549C240.705 52.0549 241.005 52.3541 241.005 52.6533C241.005 52.9524 240.705 53.2516 240.406 53.2516H235.017V57.739C235.017 58.3374 235.316 58.3374 235.616 58.3374H241.304C241.603 58.3374 241.903 58.6365 241.903 58.9357C241.903 59.2348 241.603 59.534 241.304 59.534H235.316C233.819 59.534 233.819 58.3374 233.819 58.0382V47.8667C233.819 47.2683 233.819 46.3708 235.316 46.3708H241.005C241.304 46.3708 241.603 46.67 241.603 46.9692C241.603 47.2683 241.304 47.5675 241.005 47.5675H235.616C235.017 47.5675 235.017 47.5675 235.017 48.1658V52.0549H240.406Z" fill="black"></path><path d="M241.304 59.833H235.317C234.418 59.833 233.221 59.5338 233.221 57.4397V47.8664C233.221 46.0715 234.418 45.4731 235.317 45.4731H241.005C241.903 45.4731 242.202 46.0715 242.202 46.6698C242.202 47.2681 241.604 47.8664 241.005 47.8664H235.616V51.1572H240.406C241.304 51.1572 241.604 51.7556 241.604 52.3539C241.604 52.9522 241.005 53.5505 240.406 53.5505H235.616V57.1405H241.304C242.202 57.1405 242.502 57.7388 242.502 58.3371C242.502 59.2346 241.903 59.833 241.304 59.833Z" fill="black"></path><path d="M255.974 46.0715C259.567 46.0715 262.561 48.764 262.561 52.6531C262.561 56.5422 259.567 59.2347 255.974 59.2347C252.382 59.2347 249.388 56.5422 249.388 52.6531C249.388 48.764 252.382 46.0715 255.974 46.0715ZM255.974 58.3372C259.268 58.3372 261.363 55.9439 261.363 52.6531C261.363 49.3623 258.968 46.969 255.974 46.969C252.98 46.969 250.585 49.3623 250.585 52.6531C250.585 55.9439 252.98 58.3372 255.974 58.3372Z" fill="black"></path><path d="M255.974 60.132C251.783 60.132 248.789 56.8412 248.789 52.6529C248.789 48.4646 252.082 45.1738 255.974 45.1738C259.866 45.1738 263.16 48.4646 263.16 52.6529C263.16 56.8412 260.166 60.132 255.974 60.132ZM255.974 47.8663C253.28 47.8663 251.184 49.9604 251.184 52.6529C251.184 55.3454 253.28 57.4395 255.974 57.4395C258.669 57.4395 260.764 55.3454 260.764 52.6529C260.764 49.9604 258.669 47.8663 255.974 47.8663Z" fill="black"></path><path d="M266.453 58.9357C266.453 59.2348 266.153 59.534 265.854 59.534C265.554 59.534 265.255 59.2348 265.255 58.9357V47.8667C265.255 47.2683 265.255 46.3708 266.752 46.3708H268.548C269.446 46.3708 270.345 46.3708 271.243 46.9692C272.74 47.8667 273.039 49.3625 273.039 50.26C273.039 51.4566 272.74 52.6533 271.243 53.5508C270.345 53.5508 269.446 53.8499 268.548 53.8499H266.453V58.9357ZM268.249 52.6533C269.446 52.6533 271.842 52.6533 271.842 49.9608C271.842 47.2683 269.746 47.2683 268.249 47.2683H267.051C266.453 47.2683 266.453 47.2683 266.453 47.8667V52.6533H268.249V52.6533Z" fill="black"></path><path d="M265.854 60.1321C264.956 60.1321 264.656 59.5338 264.656 58.9355V47.8664C264.656 46.0715 265.854 45.4731 266.752 45.4731H268.548C269.446 45.4731 270.644 45.4731 271.542 46.0715C273.338 46.969 273.638 49.0631 273.638 49.9606C273.638 51.7556 272.74 52.9522 271.542 53.8497C270.644 54.448 269.746 54.448 268.548 54.448H267.351V58.9355C267.051 59.5338 266.453 60.1321 265.854 60.1321ZM265.554 58.9355H266.453H265.554ZM267.051 52.0547H268.249C270.045 52.0547 270.943 51.7556 270.943 50.2597C270.943 48.4648 269.746 48.1656 268.249 48.1656H267.051V52.0547Z" fill="black"></path><path d="M282.021 52.0549C282.32 52.0549 282.62 52.3541 282.62 52.6533C282.62 52.9524 282.32 53.2516 282.021 53.2516H276.632V57.739C276.632 58.3374 276.931 58.3374 277.231 58.3374H282.919C283.218 58.3374 283.518 58.6365 283.518 58.9357C283.518 59.2348 283.218 59.534 282.919 59.534H276.931C275.434 59.534 275.434 58.3374 275.434 58.0382V47.8667C275.434 47.2683 275.434 46.3708 276.931 46.3708H282.62C282.919 46.3708 283.218 46.67 283.218 46.9692C283.218 47.2683 282.919 47.5675 282.62 47.5675H277.231C276.632 47.5675 276.632 47.5675 276.632 48.1658V52.0549H282.021Z" fill="black"></path><path d="M282.62 59.833H276.632C275.734 59.833 274.536 59.5338 274.536 57.4397V47.8664C274.536 46.0715 275.734 45.4731 276.632 45.4731H282.32C283.218 45.4731 283.518 46.0715 283.518 46.6698C283.518 47.2681 282.919 47.8664 282.32 47.8664H276.931V51.1572H281.721C282.62 51.1572 282.919 51.7556 282.919 52.3539C282.919 52.9522 282.32 53.5505 281.721 53.5505H276.931V57.1405H282.62C283.518 57.1405 283.817 57.7388 283.817 58.3371C283.817 59.2346 283.518 59.833 282.62 59.833Z" fill="black"></path><path d="M295.493 46.6699C295.493 46.3707 295.792 46.0715 296.092 46.0715C296.391 46.0715 296.691 46.3707 296.691 46.6699V58.038C296.691 58.6364 296.691 59.2347 295.792 59.2347C295.194 59.2347 294.894 58.9355 294.595 58.6364L286.811 47.2682V58.9355C286.811 59.2347 286.511 59.5339 286.212 59.5339C285.913 59.5339 285.613 59.2347 285.613 58.9355V47.5673C285.613 46.969 285.613 46.3707 286.511 46.3707C287.11 46.3707 287.41 46.6699 287.709 47.2682L295.493 58.6364V46.6699Z" fill="black"></path><path d="M295.493 60.1321C294.595 60.1321 293.996 59.5338 293.697 58.9355L287.41 49.6614V58.9355C287.41 59.833 286.811 60.1321 286.212 60.1321C285.613 60.1321 285.015 59.5338 285.015 58.9355V47.5673C285.015 45.7723 285.913 45.4731 286.811 45.4731C287.709 45.4731 288.308 46.0715 288.607 46.6698L295.194 55.9438V46.6698C295.194 45.7723 295.793 45.4731 296.391 45.4731C296.99 45.4731 297.589 46.0715 297.589 46.6698V58.038C297.289 59.833 296.391 60.1321 295.493 60.1321ZM295.793 46.6698H296.092H295.194H295.793Z" fill="black"></path><path d="M335.611 98.1254H11.3766C5.08955 98.1254 0 93.0396 0 86.7572V11.3682C0 5.08577 5.08955 0 11.3766 0H335.611C341.898 0 346.987 5.08577 346.987 11.3682V86.7572C347.287 93.0396 342.197 98.1254 335.611 98.1254ZM11.3766 5.98325C8.38279 5.98325 5.9877 8.37656 5.9877 11.3682V86.7572C5.9877 89.7488 8.38279 92.1421 11.3766 92.1421H335.611C338.605 92.1421 341 89.7488 341 86.7572V11.3682C341 8.37656 338.605 5.98325 335.611 5.98325H11.3766V5.98325Z" fill="black"></path><path d="M77.2416 95.4329C76.3434 95.4329 75.7446 94.8346 75.7446 93.9371V2.99166C75.7446 2.09418 76.3434 1.49585 77.2416 1.49585C78.1397 1.49585 78.7385 2.09418 78.7385 2.99166V93.9371C78.7385 94.8346 78.1397 95.4329 77.2416 95.4329Z" fill="black"></path></svg> 