<?xml version="1.0" encoding="UTF-8"?> <svg xmlns="http://www.w3.org/2000/svg" width="322" height="272" viewBox="0 0 322 272" fill="none"><path d="M275.544 85.074C275.544 84.2599 276.358 83.4458 277.172 83.4458H317.873C318.687 83.4458 319.501 84.2599 319.501 85.074C319.501 85.8881 318.687 86.7022 317.873 86.7022H277.172C276.358 86.7022 275.544 85.8881 275.544 85.074Z" fill="black"></path><path d="M318.28 88.7375H277.579C275.544 88.7375 273.916 87.1093 273.916 85.0741C273.916 83.0388 275.544 81.4106 277.579 81.4106H318.28C320.315 81.4106 321.943 83.0388 321.943 85.0741C321.943 87.1093 320.315 88.7375 318.28 88.7375Z" fill="black"></path><path d="M288.161 71.6415L290.196 74.0838L278.8 85.0741L290.196 96.0646L288.161 98.5068L273.916 85.0741L288.161 71.6415Z" fill="black"></path><path d="M288.161 101.356L271.066 85.0741L288.161 68.792L293.045 74.4908L281.649 85.0741L293.045 96.0646L288.161 101.356Z" fill="black"></path><path d="M247.867 89.1445C247.053 89.1445 245.832 88.7375 245.018 87.9234L233.622 77.747L224.26 87.9234C222.632 89.5516 220.19 89.5516 218.562 87.9234C216.934 86.2952 216.934 83.8528 218.562 82.2246L230.773 69.1989C232.401 67.5707 234.843 67.5707 236.471 68.7918L250.716 81.8176C252.344 83.4458 252.344 85.8881 251.123 87.5163C250.309 88.7375 249.088 89.1445 247.867 89.1445Z" fill="#040000"></path><path d="M252.751 271.097H50.062C41.5148 271.097 34.5957 264.177 34.5957 255.629V15.468C34.5957 6.9199 41.5148 0 50.062 0H252.751C261.298 0 268.217 6.9199 268.217 15.468V255.629C268.624 264.177 261.705 271.097 252.751 271.097ZM50.062 8.14105C45.9919 8.14105 42.7358 11.3975 42.7358 15.468V255.629C42.7358 259.699 45.9919 262.956 50.062 262.956H252.751C256.821 262.956 260.077 259.699 260.077 255.629V15.468C260.077 11.3975 256.821 8.14105 252.751 8.14105H50.062Z" fill="black"></path><path d="M4.07007 54.545H2.03503C0.814014 54.545 0 53.731 0 52.5098C0 51.2887 0.814014 50.4746 2.03503 50.4746H4.07007C5.29109 50.4746 6.1051 51.2887 6.1051 52.5098C6.1051 53.731 5.29109 54.545 4.07007 54.545Z" fill="black"></path><path d="M286.125 54.545H282.055C280.834 54.545 280.02 53.731 280.02 52.5098C280.02 51.2887 280.834 50.4746 282.055 50.4746H286.125C287.346 50.4746 288.161 51.2887 288.161 52.5098C288.161 53.731 287.346 54.545 286.125 54.545ZM269.438 54.545H265.368C264.147 54.545 263.333 53.731 263.333 52.5098C263.333 51.2887 264.147 50.4746 265.368 50.4746H269.438C270.659 50.4746 271.473 51.2887 271.473 52.5098C271.473 53.731 270.659 54.545 269.438 54.545ZM253.158 54.545H249.088C247.867 54.545 247.053 53.731 247.053 52.5098C247.053 51.2887 247.867 50.4746 249.088 50.4746H253.158C254.379 50.4746 255.193 51.2887 255.193 52.5098C255.193 53.731 253.972 54.545 253.158 54.545ZM236.471 54.545H232.401C231.18 54.545 230.366 53.731 230.366 52.5098C230.366 51.2887 231.18 50.4746 232.401 50.4746H236.471C237.692 50.4746 238.506 51.2887 238.506 52.5098C238.506 53.731 237.692 54.545 236.471 54.545ZM219.783 54.545H215.713C214.492 54.545 213.678 53.731 213.678 52.5098C213.678 51.2887 214.492 50.4746 215.713 50.4746H219.783C221.004 50.4746 221.818 51.2887 221.818 52.5098C221.818 53.731 221.004 54.545 219.783 54.545ZM203.096 54.545H199.026C197.805 54.545 196.991 53.731 196.991 52.5098C196.991 51.2887 197.805 50.4746 199.026 50.4746H203.096C204.317 50.4746 205.131 51.2887 205.131 52.5098C205.131 53.731 204.317 54.545 203.096 54.545ZM186.409 54.545H182.339C181.118 54.545 180.304 53.731 180.304 52.5098C180.304 51.2887 181.118 50.4746 182.339 50.4746H186.409C187.63 50.4746 188.444 51.2887 188.444 52.5098C188.444 53.731 187.63 54.545 186.409 54.545ZM170.129 54.545H166.059C164.838 54.545 164.024 53.731 164.024 52.5098C164.024 51.2887 164.838 50.4746 166.059 50.4746H170.129C171.35 50.4746 172.164 51.2887 172.164 52.5098C172.164 53.731 170.943 54.545 170.129 54.545ZM153.441 54.545H149.371C148.15 54.545 147.336 53.731 147.336 52.5098C147.336 51.2887 148.15 50.4746 149.371 50.4746H153.441C154.662 50.4746 155.476 51.2887 155.476 52.5098C155.476 53.731 154.662 54.545 153.441 54.545ZM136.754 54.545H132.684C131.463 54.545 130.649 53.731 130.649 52.5098C130.649 51.2887 131.463 50.4746 132.684 50.4746H136.754C137.975 50.4746 138.789 51.2887 138.789 52.5098C138.789 53.731 137.975 54.545 136.754 54.545ZM120.067 54.545H115.997C114.776 54.545 113.962 53.731 113.962 52.5098C113.962 51.2887 114.776 50.4746 115.997 50.4746H120.067C121.288 50.4746 122.102 51.2887 122.102 52.5098C122.102 53.731 121.288 54.545 120.067 54.545ZM103.787 54.545H99.7166C98.4956 54.545 97.6816 53.731 97.6816 52.5098C97.6816 51.2887 98.4956 50.4746 99.7166 50.4746H103.787C105.008 50.4746 105.822 51.2887 105.822 52.5098C105.822 53.731 104.601 54.545 103.787 54.545ZM87.0994 54.545H83.0293C81.8083 54.545 80.9943 53.731 80.9943 52.5098C80.9943 51.2887 81.8083 50.4746 83.0293 50.4746H87.0994C88.3204 50.4746 89.1344 51.2887 89.1344 52.5098C89.1344 53.731 88.3204 54.545 87.0994 54.545ZM70.4122 54.545H66.3421C65.1211 54.545 64.3071 53.731 64.3071 52.5098C64.3071 51.2887 65.1211 50.4746 66.3421 50.4746H70.4122C71.6332 50.4746 72.4472 51.2887 72.4472 52.5098C72.4472 53.731 71.6332 54.545 70.4122 54.545ZM53.7249 54.545H49.6548C48.4338 54.545 47.6198 53.731 47.6198 52.5098C47.6198 51.2887 48.4338 50.4746 49.6548 50.4746H53.7249C54.9459 50.4746 55.7599 51.2887 55.7599 52.5098C55.7599 53.731 54.9459 54.545 53.7249 54.545ZM37.0377 54.545H32.9676C31.7466 54.545 30.9326 53.731 30.9326 52.5098C30.9326 51.2887 31.7466 50.4746 32.9676 50.4746H37.0377C38.2587 50.4746 39.0727 51.2887 39.0727 52.5098C39.0727 53.731 38.2587 54.545 37.0377 54.545ZM20.7574 54.545H16.6874C15.4664 54.545 14.6523 53.731 14.6523 52.5098C14.6523 51.2887 15.4664 50.4746 16.6874 50.4746H20.7574C21.9785 50.4746 22.7925 51.2887 22.7925 52.5098C22.7925 53.731 21.5714 54.545 20.7574 54.545Z" fill="black"></path><path d="M300.777 54.545H298.742C297.521 54.545 296.707 53.731 296.707 52.5098C296.707 51.2887 297.521 50.4746 298.742 50.4746H300.777C301.998 50.4746 302.812 51.2887 302.812 52.5098C302.812 53.731 301.591 54.545 300.777 54.545Z" fill="black"></path><path d="M4.07007 193.35H2.03503C0.814014 193.35 0 192.536 0 191.315C0 190.093 0.814014 189.279 2.03503 189.279H4.07007C5.29109 189.279 6.1051 190.093 6.1051 191.315C6.1051 192.536 5.29109 193.35 4.07007 193.35Z" fill="black"></path><path d="M286.125 193.35H282.055C280.834 193.35 280.02 192.536 280.02 191.315C280.02 190.093 280.834 189.279 282.055 189.279H286.125C287.346 189.279 288.161 190.093 288.161 191.315C288.161 192.536 287.346 193.35 286.125 193.35ZM269.438 193.35H265.368C264.147 193.35 263.333 192.536 263.333 191.315C263.333 190.093 264.147 189.279 265.368 189.279H269.438C270.659 189.279 271.473 190.093 271.473 191.315C271.473 192.536 270.659 193.35 269.438 193.35ZM253.158 193.35H249.088C247.867 193.35 247.053 192.536 247.053 191.315C247.053 190.093 247.867 189.279 249.088 189.279H253.158C254.379 189.279 255.193 190.093 255.193 191.315C255.193 192.536 253.972 193.35 253.158 193.35ZM236.471 193.35H232.401C231.18 193.35 230.366 192.536 230.366 191.315C230.366 190.093 231.18 189.279 232.401 189.279H236.471C237.692 189.279 238.506 190.093 238.506 191.315C238.506 192.536 237.692 193.35 236.471 193.35ZM219.783 193.35H215.713C214.492 193.35 213.678 192.536 213.678 191.315C213.678 190.093 214.492 189.279 215.713 189.279H219.783C221.004 189.279 221.818 190.093 221.818 191.315C221.818 192.536 221.004 193.35 219.783 193.35ZM203.096 193.35H199.026C197.805 193.35 196.991 192.536 196.991 191.315C196.991 190.093 197.805 189.279 199.026 189.279H203.096C204.317 189.279 205.131 190.093 205.131 191.315C205.131 192.536 204.317 193.35 203.096 193.35ZM186.409 193.35H182.339C181.118 193.35 180.304 192.536 180.304 191.315C180.304 190.093 181.118 189.279 182.339 189.279H186.409C187.63 189.279 188.444 190.093 188.444 191.315C188.444 192.536 187.63 193.35 186.409 193.35ZM170.129 193.35H166.059C164.838 193.35 164.024 192.536 164.024 191.315C164.024 190.093 164.838 189.279 166.059 189.279H170.129C171.35 189.279 172.164 190.093 172.164 191.315C172.164 192.536 170.943 193.35 170.129 193.35ZM153.441 193.35H149.371C148.15 193.35 147.336 192.536 147.336 191.315C147.336 190.093 148.15 189.279 149.371 189.279H153.441C154.662 189.279 155.476 190.093 155.476 191.315C155.476 192.536 154.662 193.35 153.441 193.35ZM136.754 193.35H132.684C131.463 193.35 130.649 192.536 130.649 191.315C130.649 190.093 131.463 189.279 132.684 189.279H136.754C137.975 189.279 138.789 190.093 138.789 191.315C138.789 192.536 137.975 193.35 136.754 193.35ZM120.067 193.35H115.997C114.776 193.35 113.962 192.536 113.962 191.315C113.962 190.093 114.776 189.279 115.997 189.279H120.067C121.288 189.279 122.102 190.093 122.102 191.315C122.102 192.536 121.288 193.35 120.067 193.35ZM103.787 193.35H99.7166C98.4956 193.35 97.6816 192.536 97.6816 191.315C97.6816 190.093 98.4956 189.279 99.7166 189.279H103.787C105.008 189.279 105.822 190.093 105.822 191.315C105.822 192.536 104.601 193.35 103.787 193.35ZM87.0994 193.35H83.0293C81.8083 193.35 80.9943 192.536 80.9943 191.315C80.9943 190.093 81.8083 189.279 83.0293 189.279H87.0994C88.3204 189.279 89.1344 190.093 89.1344 191.315C89.1344 192.536 88.3204 193.35 87.0994 193.35ZM70.4122 193.35H66.3421C65.1211 193.35 64.3071 192.536 64.3071 191.315C64.3071 190.093 65.1211 189.279 66.3421 189.279H70.4122C71.6332 189.279 72.4472 190.093 72.4472 191.315C72.4472 192.536 71.6332 193.35 70.4122 193.35ZM53.7249 193.35H49.6548C48.4338 193.35 47.6198 192.536 47.6198 191.315C47.6198 190.093 48.4338 189.279 49.6548 189.279H53.7249C54.9459 189.279 55.7599 190.093 55.7599 191.315C55.7599 192.536 54.9459 193.35 53.7249 193.35ZM37.0377 193.35H32.9676C31.7466 193.35 30.9326 192.536 30.9326 191.315C30.9326 190.093 31.7466 189.279 32.9676 189.279H37.0377C38.2587 189.279 39.0727 190.093 39.0727 191.315C39.0727 192.536 38.2587 193.35 37.0377 193.35ZM20.7574 193.35H16.6874C15.4664 193.35 14.6523 192.536 14.6523 191.315C14.6523 190.093 15.4664 189.279 16.6874 189.279H20.7574C21.9785 189.279 22.7925 190.093 22.7925 191.315C22.7925 192.536 21.5714 193.35 20.7574 193.35Z" fill="black"></path><path d="M300.777 193.35H298.742C297.521 193.35 296.707 192.536 296.707 191.315C296.707 190.093 297.521 189.279 298.742 189.279H300.777C301.998 189.279 302.812 190.093 302.812 191.315C302.812 192.536 301.591 193.35 300.777 193.35Z" fill="black"></path><path d="M264.961 61.8718C271.255 61.8718 276.357 56.769 276.357 50.4743C276.357 44.1797 271.255 39.0769 264.961 39.0769C258.667 39.0769 253.564 44.1797 253.564 50.4743C253.564 56.769 258.667 61.8718 264.961 61.8718Z" fill="black"></path><path d="M264.961 202.712C271.255 202.712 276.357 197.609 276.357 191.315C276.357 185.02 271.255 179.917 264.961 179.917C258.667 179.917 253.564 185.02 253.564 191.315C253.564 197.609 258.667 202.712 264.961 202.712Z" fill="black"></path></svg> 