<?xml version="1.0" encoding="UTF-8"?> <svg xmlns="http://www.w3.org/2000/svg" width="303" height="272" viewBox="0 0 303 272" fill="none"><path d="M225.889 100.949C226.703 100.949 227.517 101.763 227.517 102.577V143.283C227.517 144.097 226.703 144.911 225.889 144.911C225.075 144.911 224.261 144.097 224.261 143.283V102.577C224.261 101.356 225.075 100.949 225.889 100.949Z" fill="black"></path><path d="M225.889 146.946C223.854 146.946 222.226 145.318 222.226 143.283V102.577C222.226 100.542 223.854 98.9138 225.889 98.9138C227.924 98.9138 229.552 100.542 229.552 102.577V143.283C229.552 145.318 227.924 146.946 225.889 146.946Z" fill="black"></path><path d="M239.319 113.161L236.877 115.196L225.888 103.798L214.899 115.196L212.864 113.161L225.888 98.9138L239.319 113.161Z" fill="black"></path><path d="M236.878 118.045L225.889 106.648L215.306 118.045L209.608 113.161L225.889 96.0645L242.169 113.161L236.878 118.045Z" fill="black"></path><path d="M252.751 271.097H50.0619C41.5148 271.097 34.5957 264.177 34.5957 255.629V15.468C34.5957 6.91989 41.5148 0 50.0619 0H252.751C261.298 0 268.217 6.91989 268.217 15.468V255.629C268.624 264.177 261.298 271.097 252.751 271.097ZM50.0619 8.14105C45.9918 8.14105 42.7358 11.3975 42.7358 15.468V255.629C42.7358 259.7 45.9918 262.956 50.0619 262.956H252.751C256.821 262.956 260.077 259.7 260.077 255.629V15.468C260.077 11.3975 256.821 8.14105 252.751 8.14105H50.0619V8.14105Z" fill="black"></path><path d="M239.319 83.4457C238.505 83.4457 237.284 83.0387 236.47 82.2246L225.074 72.0483L215.713 82.2246C214.085 83.8528 211.643 83.8528 210.015 82.2246C208.387 80.5964 208.387 78.1541 210.015 76.5258L222.225 63.5002C223.853 61.872 226.295 61.872 227.923 63.0931L242.168 76.1188C243.796 77.747 243.796 80.1893 242.575 81.8175C241.354 83.0387 240.133 83.4457 239.319 83.4457Z" fill="#040000"></path><path d="M4.07007 54.545H2.03503C0.814014 54.545 0 53.7309 0 52.5097C0 51.2886 0.814014 50.4745 2.03503 50.4745H4.07007C5.29109 50.4745 6.1051 51.2886 6.1051 52.5097C6.1051 53.7309 4.88408 54.545 4.07007 54.545Z" fill="black"></path><path d="M286.125 54.545H282.055C280.834 54.545 280.02 53.7309 280.02 52.5097C280.02 51.2886 280.834 50.4745 282.055 50.4745H286.125C287.346 50.4745 288.16 51.2886 288.16 52.5097C288.16 53.7309 287.346 54.545 286.125 54.545ZM269.438 54.545H265.368C264.147 54.545 263.333 53.7309 263.333 52.5097C263.333 51.2886 264.147 50.4745 265.368 50.4745H269.438C270.659 50.4745 271.473 51.2886 271.473 52.5097C271.473 53.7309 270.659 54.545 269.438 54.545ZM252.751 54.545H248.681C247.46 54.545 246.646 53.7309 246.646 52.5097C246.646 51.2886 247.46 50.4745 248.681 50.4745H252.751C253.972 50.4745 254.786 51.2886 254.786 52.5097C254.786 53.7309 253.972 54.545 252.751 54.545ZM236.471 54.545H232.401C231.18 54.545 230.366 53.7309 230.366 52.5097C230.366 51.2886 231.18 50.4745 232.401 50.4745H236.471C237.692 50.4745 238.506 51.2886 238.506 52.5097C238.506 53.7309 237.285 54.545 236.471 54.545ZM219.783 54.545H215.713C214.492 54.545 213.678 53.7309 213.678 52.5097C213.678 51.2886 214.492 50.4745 215.713 50.4745H219.783C221.005 50.4745 221.819 51.2886 221.819 52.5097C221.819 53.7309 221.005 54.545 219.783 54.545ZM203.096 54.545H199.026C197.805 54.545 196.991 53.7309 196.991 52.5097C196.991 51.2886 197.805 50.4745 199.026 50.4745H203.096C204.317 50.4745 205.131 51.2886 205.131 52.5097C205.131 53.7309 204.317 54.545 203.096 54.545ZM186.409 54.545H182.339C181.118 54.545 180.304 53.7309 180.304 52.5097C180.304 51.2886 181.118 50.4745 182.339 50.4745H186.409C187.63 50.4745 188.444 51.2886 188.444 52.5097C188.444 53.7309 187.63 54.545 186.409 54.545ZM170.129 54.545H166.059C164.838 54.545 164.024 53.7309 164.024 52.5097C164.024 51.2886 164.838 50.4745 166.059 50.4745H170.129C171.35 50.4745 172.164 51.2886 172.164 52.5097C172.164 53.7309 170.943 54.545 170.129 54.545ZM153.441 54.545H149.371C148.15 54.545 147.336 53.7309 147.336 52.5097C147.336 51.2886 148.15 50.4745 149.371 50.4745H153.441C154.662 50.4745 155.477 51.2886 155.477 52.5097C155.477 53.7309 154.662 54.545 153.441 54.545ZM136.754 54.545H132.684C131.463 54.545 130.649 53.7309 130.649 52.5097C130.649 51.2886 131.463 50.4745 132.684 50.4745H136.754C137.975 50.4745 138.789 51.2886 138.789 52.5097C138.789 53.7309 137.975 54.545 136.754 54.545ZM120.067 54.545H115.997C114.776 54.545 113.962 53.7309 113.962 52.5097C113.962 51.2886 114.776 50.4745 115.997 50.4745H120.067C121.288 50.4745 122.102 51.2886 122.102 52.5097C122.102 53.7309 121.288 54.545 120.067 54.545ZM103.38 54.545H99.3096C98.0886 54.545 97.2746 53.7309 97.2746 52.5097C97.2746 51.2886 98.0886 50.4745 99.3096 50.4745H103.38C104.601 50.4745 105.415 51.2886 105.415 52.5097C105.415 53.7309 104.601 54.545 103.38 54.545ZM87.0995 54.545H83.0294C81.8084 54.545 80.9944 53.7309 80.9944 52.5097C80.9944 51.2886 81.8084 50.4745 83.0294 50.4745H87.0995C88.3205 50.4745 89.1345 51.2886 89.1345 52.5097C89.1345 53.7309 87.9135 54.545 87.0995 54.545ZM70.4122 54.545H66.3421C65.1211 54.545 64.3071 53.7309 64.3071 52.5097C64.3071 51.2886 65.1211 50.4745 66.3421 50.4745H70.4122C71.6332 50.4745 72.4472 51.2886 72.4472 52.5097C72.4472 53.7309 71.6332 54.545 70.4122 54.545ZM53.725 54.545H49.6549C48.4339 54.545 47.6199 53.7309 47.6199 52.5097C47.6199 51.2886 48.4339 50.4745 49.6549 50.4745H53.725C54.946 50.4745 55.76 51.2886 55.76 52.5097C55.76 53.7309 54.946 54.545 53.725 54.545ZM37.0377 54.545H32.9676C31.7466 54.545 30.9326 53.7309 30.9326 52.5097C30.9326 51.2886 31.7466 50.4745 32.9676 50.4745H37.0377C38.2587 50.4745 39.0727 51.2886 39.0727 52.5097C39.0727 53.7309 38.2587 54.545 37.0377 54.545ZM20.7574 54.545H16.6874C15.4664 54.545 14.6523 53.7309 14.6523 52.5097C14.6523 51.2886 15.4664 50.4745 16.6874 50.4745H20.7574C21.9785 50.4745 22.7925 51.2886 22.7925 52.5097C22.7925 53.7309 21.5714 54.545 20.7574 54.545Z" fill="black"></path><path d="M300.778 54.545H298.743C297.522 54.545 296.708 53.7309 296.708 52.5097C296.708 51.2886 297.522 50.4745 298.743 50.4745H300.778C301.999 50.4745 302.813 51.2886 302.813 52.5097C302.813 53.7309 301.592 54.545 300.778 54.545Z" fill="black"></path></svg> 