<?xml version="1.0" encoding="UTF-8"?> <svg xmlns="http://www.w3.org/2000/svg" width="303" height="272" viewBox="0 0 303 272" fill="none"><path d="M225.889 107.869C226.703 107.869 227.517 108.683 227.517 109.497V150.202C227.517 151.017 226.703 151.831 225.889 151.831C225.075 151.831 224.261 151.017 224.261 150.202V109.497C224.261 108.683 225.075 107.869 225.889 107.869Z" fill="black"></path><path d="M225.889 154.273C223.854 154.273 222.226 152.645 222.226 150.609V109.904C222.226 107.869 223.854 106.241 225.889 106.241C227.924 106.241 229.552 107.869 229.552 109.904V150.609C229.552 152.645 227.924 154.273 225.889 154.273Z" fill="black"></path><path d="M239.321 120.488L236.879 122.523L225.889 110.718L215.307 122.523L212.865 120.488L225.889 106.241L239.321 120.488Z" fill="black"></path><path d="M236.878 125.372L225.889 113.975L215.307 125.372L210.016 120.488L225.889 102.984L242.169 120.488L236.878 125.372Z" fill="black"></path><path d="M253.158 271.097H50.0617C41.5146 271.097 34.5955 264.177 34.5955 255.629V15.468C34.5955 6.9199 41.5146 0 50.0617 0H252.751C261.298 0 268.217 6.9199 268.217 15.468V255.629C268.624 264.177 261.705 271.097 253.158 271.097ZM50.0617 8.14105C45.9916 8.14105 42.7356 11.3975 42.7356 15.468V255.629C42.7356 259.699 45.9916 262.956 50.0617 262.956H252.751C256.821 262.956 260.077 259.699 260.077 255.629V15.468C260.077 11.3975 256.821 8.14105 252.751 8.14105H50.0617Z" fill="black"></path><path d="M239.319 90.7729C238.505 90.7729 237.284 90.3658 236.47 89.5517L225.074 79.3754L215.713 89.5517C214.085 91.1799 211.643 91.1799 210.015 89.5517C208.387 87.9235 208.387 85.4812 210.015 83.853L222.225 70.8273C223.853 69.1991 226.295 69.1991 227.923 70.4203L242.168 83.4459C243.796 85.0741 243.796 87.5164 242.575 89.1446C241.354 90.3658 240.54 90.7729 239.319 90.7729Z" fill="#040000"></path><path d="M4.07006 54.545H2.03503C0.814012 54.545 0 53.731 0 52.5098C0 51.2887 0.814012 50.4746 2.03503 50.4746H4.07006C5.29108 50.4746 6.10509 51.2887 6.10509 52.5098C6.10509 53.731 5.29108 54.545 4.07006 54.545Z" fill="black"></path><path d="M286.126 54.545H282.056C280.835 54.545 280.021 53.731 280.021 52.5098C280.021 51.2887 280.835 50.4746 282.056 50.4746H286.126C287.347 50.4746 288.161 51.2887 288.161 52.5098C288.161 53.731 287.347 54.545 286.126 54.545ZM269.846 54.545H265.775C264.554 54.545 263.74 53.731 263.74 52.5098C263.74 51.2887 264.554 50.4746 265.775 50.4746H269.846C271.067 50.4746 271.881 51.2887 271.881 52.5098C271.881 53.731 270.66 54.545 269.846 54.545ZM253.158 54.545H249.088C247.867 54.545 247.053 53.731 247.053 52.5098C247.053 51.2887 247.867 50.4746 249.088 50.4746H253.158C254.379 50.4746 255.193 51.2887 255.193 52.5098C255.193 53.731 253.972 54.545 253.158 54.545ZM236.471 54.545H232.401C231.18 54.545 230.366 53.731 230.366 52.5098C230.366 51.2887 231.18 50.4746 232.401 50.4746H236.471C237.692 50.4746 238.506 51.2887 238.506 52.5098C238.506 53.731 237.692 54.545 236.471 54.545ZM219.784 54.545H215.714C214.493 54.545 213.679 53.731 213.679 52.5098C213.679 51.2887 214.493 50.4746 215.714 50.4746H219.784C221.005 50.4746 221.819 51.2887 221.819 52.5098C221.819 53.731 221.005 54.545 219.784 54.545ZM203.096 54.545H199.026C197.805 54.545 196.991 53.731 196.991 52.5098C196.991 51.2887 197.805 50.4746 199.026 50.4746H203.096C204.317 50.4746 205.132 51.2887 205.132 52.5098C205.132 53.731 204.317 54.545 203.096 54.545ZM186.816 54.545H182.746C181.525 54.545 180.711 53.731 180.711 52.5098C180.711 51.2887 181.525 50.4746 182.746 50.4746H186.816C188.037 50.4746 188.851 51.2887 188.851 52.5098C188.851 53.731 187.63 54.545 186.816 54.545ZM170.129 54.545H166.059C164.838 54.545 164.024 53.731 164.024 52.5098C164.024 51.2887 164.838 50.4746 166.059 50.4746H170.129C171.35 50.4746 172.164 51.2887 172.164 52.5098C172.164 53.731 171.35 54.545 170.129 54.545ZM153.442 54.545H149.372C148.151 54.545 147.337 53.731 147.337 52.5098C147.337 51.2887 148.151 50.4746 149.372 50.4746H153.442C154.663 50.4746 155.477 51.2887 155.477 52.5098C155.477 53.731 154.663 54.545 153.442 54.545ZM136.754 54.545H132.684C131.463 54.545 130.649 53.731 130.649 52.5098C130.649 51.2887 131.463 50.4746 132.684 50.4746H136.754C137.975 50.4746 138.789 51.2887 138.789 52.5098C138.789 53.731 137.975 54.545 136.754 54.545ZM120.067 54.545H115.997C114.776 54.545 113.962 53.731 113.962 52.5098C113.962 51.2887 114.776 50.4746 115.997 50.4746H120.067C121.288 50.4746 122.102 51.2887 122.102 52.5098C122.102 53.731 121.288 54.545 120.067 54.545ZM103.787 54.545H99.7169C98.4959 54.545 97.6819 53.731 97.6819 52.5098C97.6819 51.2887 98.4959 50.4746 99.7169 50.4746H103.787C105.008 50.4746 105.822 51.2887 105.822 52.5098C105.822 53.731 104.601 54.545 103.787 54.545ZM87.0997 54.545H83.0296C81.8086 54.545 80.9946 53.731 80.9946 52.5098C80.9946 51.2887 81.8086 50.4746 83.0296 50.4746H87.0997C88.3207 50.4746 89.1347 51.2887 89.1347 52.5098C89.1347 53.731 88.3207 54.545 87.0997 54.545ZM70.4124 54.545H66.3424C65.1214 54.545 64.3073 53.731 64.3073 52.5098C64.3073 51.2887 65.1214 50.4746 66.3424 50.4746H70.4124C71.6335 50.4746 72.4475 51.2887 72.4475 52.5098C72.4475 53.731 71.6335 54.545 70.4124 54.545ZM53.7252 54.545H49.6551C48.4341 54.545 47.6201 53.731 47.6201 52.5098C47.6201 51.2887 48.4341 50.4746 49.6551 50.4746H53.7252C54.9462 50.4746 55.7602 51.2887 55.7602 52.5098C55.7602 53.731 54.9462 54.545 53.7252 54.545ZM37.4449 54.545H33.3749C32.1539 54.545 31.3398 53.731 31.3398 52.5098C31.3398 51.2887 32.1539 50.4746 33.3749 50.4746H37.4449C38.666 50.4746 39.48 51.2887 39.48 52.5098C39.48 53.731 38.2589 54.545 37.4449 54.545ZM20.7577 54.545H16.6876C15.4666 54.545 14.6526 53.731 14.6526 52.5098C14.6526 51.2887 15.4666 50.4746 16.6876 50.4746H20.7577C21.9787 50.4746 22.7927 51.2887 22.7927 52.5098C22.7927 53.731 21.9787 54.545 20.7577 54.545Z" fill="black"></path><path d="M300.777 54.545H298.742C297.521 54.545 296.707 53.731 296.707 52.5098C296.707 51.2887 297.521 50.4746 298.742 50.4746H300.777C301.998 50.4746 302.812 51.2887 302.812 52.5098C302.812 53.731 301.998 54.545 300.777 54.545Z" fill="black"></path><path d="M4.07006 193.35H2.03503C0.814012 193.35 0 192.536 0 191.315C0 190.093 0.814012 189.279 2.03503 189.279H4.07006C5.29108 189.279 6.10509 190.093 6.10509 191.315C6.10509 192.536 5.29108 193.35 4.07006 193.35Z" fill="black"></path><path d="M286.126 193.35H282.056C280.835 193.35 280.021 192.536 280.021 191.315C280.021 190.093 280.835 189.279 282.056 189.279H286.126C287.347 189.279 288.161 190.093 288.161 191.315C288.161 192.536 287.347 193.35 286.126 193.35ZM269.846 193.35H265.775C264.554 193.35 263.74 192.536 263.74 191.315C263.74 190.093 264.554 189.279 265.775 189.279H269.846C271.067 189.279 271.881 190.093 271.881 191.315C271.881 192.536 270.66 193.35 269.846 193.35ZM253.158 193.35H249.088C247.867 193.35 247.053 192.536 247.053 191.315C247.053 190.093 247.867 189.279 249.088 189.279H253.158C254.379 189.279 255.193 190.093 255.193 191.315C255.193 192.536 253.972 193.35 253.158 193.35ZM236.471 193.35H232.401C231.18 193.35 230.366 192.536 230.366 191.315C230.366 190.093 231.18 189.279 232.401 189.279H236.471C237.692 189.279 238.506 190.093 238.506 191.315C238.506 192.536 237.692 193.35 236.471 193.35ZM219.784 193.35H215.714C214.493 193.35 213.679 192.536 213.679 191.315C213.679 190.093 214.493 189.279 215.714 189.279H219.784C221.005 189.279 221.819 190.093 221.819 191.315C221.819 192.536 221.005 193.35 219.784 193.35ZM203.096 193.35H199.026C197.805 193.35 196.991 192.536 196.991 191.315C196.991 190.093 197.805 189.279 199.026 189.279H203.096C204.317 189.279 205.132 190.093 205.132 191.315C205.132 192.536 204.317 193.35 203.096 193.35ZM186.816 193.35H182.746C181.525 193.35 180.711 192.536 180.711 191.315C180.711 190.093 181.525 189.279 182.746 189.279H186.816C188.037 189.279 188.851 190.093 188.851 191.315C188.851 192.536 187.63 193.35 186.816 193.35ZM170.129 193.35H166.059C164.838 193.35 164.024 192.536 164.024 191.315C164.024 190.093 164.838 189.279 166.059 189.279H170.129C171.35 189.279 172.164 190.093 172.164 191.315C172.164 192.536 171.35 193.35 170.129 193.35ZM153.442 193.35H149.372C148.151 193.35 147.337 192.536 147.337 191.315C147.337 190.093 148.151 189.279 149.372 189.279H153.442C154.663 189.279 155.477 190.093 155.477 191.315C155.477 192.536 154.663 193.35 153.442 193.35ZM136.754 193.35H132.684C131.463 193.35 130.649 192.536 130.649 191.315C130.649 190.093 131.463 189.279 132.684 189.279H136.754C137.975 189.279 138.789 190.093 138.789 191.315C138.789 192.536 137.975 193.35 136.754 193.35ZM120.067 193.35H115.997C114.776 193.35 113.962 192.536 113.962 191.315C113.962 190.093 114.776 189.279 115.997 189.279H120.067C121.288 189.279 122.102 190.093 122.102 191.315C122.102 192.536 121.288 193.35 120.067 193.35ZM103.787 193.35H99.7169C98.4959 193.35 97.6819 192.536 97.6819 191.315C97.6819 190.093 98.4959 189.279 99.7169 189.279H103.787C105.008 189.279 105.822 190.093 105.822 191.315C105.822 192.536 104.601 193.35 103.787 193.35ZM87.0997 193.35H83.0296C81.8086 193.35 80.9946 192.536 80.9946 191.315C80.9946 190.093 81.8086 189.279 83.0296 189.279H87.0997C88.3207 189.279 89.1347 190.093 89.1347 191.315C89.1347 192.536 88.3207 193.35 87.0997 193.35ZM70.4124 193.35H66.3424C65.1214 193.35 64.3073 192.536 64.3073 191.315C64.3073 190.093 65.1214 189.279 66.3424 189.279H70.4124C71.6335 189.279 72.4475 190.093 72.4475 191.315C72.4475 192.536 71.6335 193.35 70.4124 193.35ZM53.7252 193.35H49.6551C48.4341 193.35 47.6201 192.536 47.6201 191.315C47.6201 190.093 48.4341 189.279 49.6551 189.279H53.7252C54.9462 189.279 55.7602 190.093 55.7602 191.315C55.7602 192.536 54.9462 193.35 53.7252 193.35ZM37.4449 193.35H33.3749C32.1539 193.35 31.3398 192.536 31.3398 191.315C31.3398 190.093 32.1539 189.279 33.3749 189.279H37.4449C38.666 189.279 39.48 190.093 39.48 191.315C39.48 192.536 38.2589 193.35 37.4449 193.35ZM20.7577 193.35H16.6876C15.4666 193.35 14.6526 192.536 14.6526 191.315C14.6526 190.093 15.4666 189.279 16.6876 189.279H20.7577C21.9787 189.279 22.7927 190.093 22.7927 191.315C22.7927 192.536 21.9787 193.35 20.7577 193.35Z" fill="black"></path><path d="M300.777 193.35H298.742C297.521 193.35 296.707 192.536 296.707 191.315C296.707 190.093 297.521 189.279 298.742 189.279H300.777C301.998 189.279 302.812 190.093 302.812 191.315C302.812 192.536 301.998 193.35 300.777 193.35Z" fill="black"></path><path d="M264.96 61.8718C271.254 61.8718 276.357 56.769 276.357 50.4743C276.357 44.1797 271.254 39.0769 264.96 39.0769C258.666 39.0769 253.564 44.1797 253.564 50.4743C253.564 56.769 258.666 61.8718 264.96 61.8718Z" fill="black"></path><path d="M264.96 202.712C271.254 202.712 276.357 197.609 276.357 191.315C276.357 185.02 271.254 179.917 264.96 179.917C258.666 179.917 253.564 185.02 253.564 191.315C253.564 197.609 258.666 202.712 264.96 202.712Z" fill="black"></path></svg> 