<?xml version="1.0" encoding="UTF-8"?> <svg xmlns="http://www.w3.org/2000/svg" width="250" height="236" viewBox="0 0 250 236" fill="none"><path d="M128.41 203.457C127.899 203.457 127.387 202.945 127.387 202.432V84.5604C127.387 84.0479 127.899 83.5354 128.41 83.5354C128.922 83.5354 129.434 84.0479 129.434 84.5604V202.432C129.689 203.201 129.178 203.457 128.41 203.457Z" fill="black"></path><path d="M128.41 204.738C127.132 204.738 126.109 203.713 126.109 202.432V84.5603C126.109 83.2791 127.132 82.2542 128.41 82.2542C129.689 82.2542 130.712 83.2791 130.712 84.5603V202.432C130.968 203.713 129.689 204.738 128.41 204.738Z" fill="black"></path><path d="M120.225 195.77L121.76 194.233L128.41 201.664L135.316 194.233L136.851 195.77L128.41 204.739L120.225 195.77Z" fill="black"></path><path d="M128.41 206.532L118.435 195.77L121.76 192.439L128.41 199.87L135.316 192.439L138.642 195.77L128.41 206.532Z" fill="black"></path><path d="M239.929 236H9.73023C4.35893 236 0.0107354 231.644 0.0107354 226.263V9.73724C-0.245041 4.35614 4.10316 0 9.47446 0H239.673C245.044 0 249.393 4.35614 249.393 9.73724V226.263C249.648 231.644 245.3 236 239.929 236ZM9.47446 5.12486C6.91669 5.12486 4.87048 7.17481 4.87048 9.73724V226.263C4.87048 228.825 6.91669 230.875 9.47446 230.875H239.673C242.231 230.875 244.277 228.825 244.277 226.263V9.73724C244.277 7.17481 242.231 5.12486 239.673 5.12486H9.47446V5.12486Z" fill="black"></path><path d="M34.7966 63.5488C35.3081 63.5488 36.3312 63.5488 37.3543 64.0613C39.6563 65.0863 40.1679 67.3925 40.1679 68.6737C40.1679 69.1862 40.1679 71.4924 38.3774 72.7736C37.3543 73.5423 36.3312 73.5423 34.7966 73.5423H32.2388C31.2157 73.5423 31.2157 72.7736 31.2157 72.2611V64.83C31.2157 64.3176 31.2157 63.5488 32.2388 63.5488H34.7966V63.5488ZM31.983 72.2611C31.983 72.7736 32.2388 72.7736 32.4946 72.7736H34.7966C36.3312 72.7736 37.0986 72.5173 37.8659 72.0049C39.4005 70.9799 39.4005 68.9299 39.4005 68.4175C39.4005 64.0613 36.0754 64.0613 34.7966 64.0613H32.4946C32.2388 64.0613 31.983 64.0613 31.983 64.5738V72.2611V72.2611Z" fill="black"></path><path d="M34.7966 73.7985H32.2389C31.2158 73.7985 30.7042 73.286 30.7042 72.261V64.8299C30.7042 64.3175 30.7042 63.2925 32.2389 63.2925H34.7966C35.3082 63.2925 36.3313 63.2925 37.3544 63.805C39.9122 64.8299 40.1679 67.6486 40.1679 68.6736C40.1679 70.7235 39.4006 72.261 38.1217 73.0297C37.3544 73.5422 36.3313 73.7985 34.7966 73.7985ZM32.2389 63.805C31.4716 63.805 31.4716 64.3175 31.4716 64.8299V72.261C31.4716 72.7735 31.4716 73.286 32.2389 73.286H34.7966C36.3313 73.286 37.3544 73.0297 38.1217 72.5172C39.1448 71.7485 39.9122 70.4673 39.9122 68.6736C39.9122 67.6486 39.6564 65.0862 37.3544 64.3175C36.3313 64.0612 35.564 64.0612 34.7966 64.0612H32.2389V63.805ZM34.5409 73.0297H32.2389C31.9831 73.0297 31.4716 73.0297 31.4716 72.261V64.8299C31.4716 64.0612 31.9831 64.0612 32.2389 64.0612H34.5409C37.6102 64.0612 39.4006 65.5987 39.4006 68.6736C39.4006 69.4423 39.1448 71.4923 37.866 72.5172C37.0986 72.7735 36.0755 73.0297 34.5409 73.0297ZM32.2389 72.5172H34.5409C36.0755 72.5172 36.8428 72.261 37.3544 71.7485C38.6333 70.9798 38.6333 69.1861 38.6333 68.4174C38.6333 64.8299 36.3313 64.5737 34.5409 64.5737H32.2389H31.9831C31.9831 64.5737 31.9831 64.5737 31.9831 64.8299L32.2389 72.5172C32.2389 72.261 32.2389 72.261 32.2389 72.5172Z" fill="black"></path><path d="M47.8416 67.905C48.0974 67.905 48.0974 68.1612 48.0974 68.1612C48.0974 68.4175 48.0974 68.6737 47.8416 68.6737H43.4934V72.2611C43.4934 72.7736 43.7492 72.7736 44.005 72.7736H48.3531C48.6089 72.7736 48.6089 73.0298 48.6089 73.0298C48.6089 73.2861 48.6089 73.5423 48.3531 73.5423H43.7492C42.7261 73.5423 42.7261 72.7736 42.7261 72.2611V64.83C42.7261 64.3176 42.7261 63.5488 43.7492 63.5488H48.3531C48.6089 63.5488 48.6089 63.8051 48.6089 64.0613C48.6089 64.3176 48.3531 64.3176 48.3531 64.3176H44.005C43.7492 64.3176 43.4934 64.3176 43.4934 64.83V67.905H47.8416Z" fill="black"></path><path d="M48.6087 73.7985H44.0047C42.9816 73.7985 42.4701 73.286 42.4701 72.261V64.8299C42.4701 64.3175 42.4701 63.2925 44.0047 63.2925H48.3529C48.8645 63.2925 49.1203 63.5487 49.1203 64.0612C49.1203 64.5737 48.8645 64.8299 48.3529 64.8299H44.0047H43.749C43.749 64.8299 43.749 64.8299 43.749 65.0862V67.9049H47.8414C48.3529 67.9049 48.6087 68.1611 48.6087 68.6736C48.6087 69.1861 48.3529 69.4423 47.8414 69.4423H43.749V72.7735V73.0297C43.749 73.0297 43.749 73.0297 44.0047 73.0297H48.3529C48.8645 73.0297 49.1203 73.286 49.1203 73.7985C49.1203 73.5422 48.8645 73.7985 48.6087 73.7985ZM43.749 63.805C42.9816 63.805 42.9816 64.3175 42.9816 64.8299V72.261C42.9816 72.7735 42.9816 73.286 43.749 73.286H48.3529H43.749C43.4932 73.286 42.9816 73.286 42.9816 72.5172V68.6736H47.5856H43.2374V65.0862C43.2374 64.0612 43.749 63.805 43.749 63.805H48.3529H43.749Z" fill="black"></path><path d="M51.678 72.5169C52.4453 72.7731 52.9569 73.0294 53.4684 73.0294C54.7473 73.0294 56.0262 72.5169 56.0262 70.9794C56.0262 69.442 55.0031 69.1857 53.7242 68.6732C52.4453 68.1608 50.9107 67.6483 50.9107 65.8546C50.9107 64.3171 51.9338 63.0359 53.98 63.0359C54.7473 63.0359 55.2589 63.2921 55.7704 63.5484C55.7704 63.5484 56.0262 63.8046 56.0262 64.0609C56.0262 64.3171 55.7704 64.5733 55.7704 64.5733C55.7704 64.5733 55.5147 64.5733 55.2589 64.3171C55.0031 64.3171 54.4915 64.0609 53.7242 64.0609C52.4453 64.0609 51.678 65.0858 51.678 66.1108C51.678 67.392 52.7011 67.6483 53.7242 68.1608C55.0031 68.6732 56.5378 69.1857 56.5378 70.9794C56.5378 72.7731 55.0031 73.7981 53.2127 73.7981C51.9338 73.7981 51.1665 73.2856 50.9107 73.2856C50.6549 73.2856 50.6549 73.0294 50.6549 72.7731C50.6549 72.5169 50.9107 72.2607 50.9107 72.2607C51.4222 72.2607 51.4222 72.2606 51.678 72.5169Z" fill="black"></path><path d="M53.7244 74.0543C52.4455 74.0543 51.6782 73.5419 51.4224 73.5419C51.1667 73.5419 50.9109 73.2856 50.9109 72.7731C50.9109 72.2606 51.1667 72.0044 51.6782 72.0044C51.6782 72.0044 51.934 72.0044 52.1898 72.2606C52.7013 72.5169 53.2129 72.7731 53.9802 72.7731C54.236 72.7731 56.2822 72.7731 56.2822 70.9794C56.2822 69.9545 55.5149 69.442 54.236 69.1857C52.9571 68.6732 51.1667 68.1608 51.1667 66.1108C51.1667 64.5733 52.1898 63.0359 54.4918 63.0359C55.2591 63.0359 55.7706 63.2921 56.538 63.5484C56.7937 63.5484 57.0495 63.8046 57.0495 64.3171C57.0495 64.5733 56.7937 65.0858 56.2822 65.0858C56.0264 65.0858 56.0264 65.0858 55.7706 64.8296C55.5149 64.8296 55.0033 64.5733 54.4918 64.5733C53.2129 64.5733 52.7013 65.3421 52.7013 66.1108C52.7013 67.1358 53.4687 67.392 54.7475 67.9045C56.0264 68.417 57.8168 68.9295 57.8168 70.9794C57.3053 72.7731 55.7706 74.0543 53.7244 74.0543ZM51.1667 72.7731C51.1667 72.7731 51.4224 72.7731 51.1667 72.7731C51.6782 73.0294 52.4455 73.5419 53.4687 73.5419C55.0033 73.5419 56.538 72.7731 56.538 70.9794C56.538 69.1857 55.2591 68.9295 53.9802 68.417C52.7013 67.9045 51.6782 67.6483 51.6782 66.1108C51.6782 65.0858 52.4455 63.8046 53.9802 63.8046C54.7475 63.8046 55.2591 64.0609 55.5149 64.0609H55.7706C55.2591 63.8046 54.4918 63.8046 53.9802 63.8046C52.4455 63.8046 51.4224 64.8296 51.4224 66.1108C51.4224 67.6483 52.7013 68.1608 53.9802 68.417C55.0033 68.9295 56.2822 69.1857 56.2822 70.9794C56.2822 72.7731 54.7475 73.2856 53.4687 73.2856C52.7013 73.2856 52.1898 73.0294 51.4224 72.7731H51.1667C51.4224 72.7731 51.4224 72.7731 51.1667 72.7731Z" fill="black"></path><path d="M60.1185 63.5484C60.1185 63.2921 60.3743 63.0359 60.6301 63.0359C60.8859 63.0359 61.1416 63.2921 61.1416 63.5484V73.0294C61.1416 73.5419 60.8859 73.5419 60.6301 73.5419C60.3743 73.5419 60.1185 73.2856 60.1185 73.0294V63.5484Z" fill="black"></path><path d="M60.6299 74.0543C60.1183 74.0543 59.8625 73.7981 59.8625 73.2856V63.8046C59.8625 63.2921 60.3741 63.0359 60.6299 63.0359C61.1414 63.0359 61.3972 63.2921 61.3972 63.8046V73.2856C61.3972 73.7981 61.1414 74.0543 60.6299 74.0543ZM60.6299 63.5484V73.2856V63.5484Z" fill="black"></path><path d="M72.3958 69.4423C72.3958 68.9298 72.14 68.9298 71.8843 68.9298H69.8381C69.5823 68.9298 69.5823 68.6736 69.5823 68.6736C69.5823 68.4173 69.5823 68.1611 69.8381 68.1611H72.14C73.1631 68.1611 73.1631 68.9298 73.1631 69.4423V72.0048C73.1631 72.261 73.1631 72.7735 72.6516 73.0297C72.3958 73.286 71.1169 73.5422 69.5823 73.5422C65.4899 73.5422 63.9552 70.7235 63.9552 68.4173C63.9552 65.8549 65.7456 63.2925 69.3265 63.2925C69.8381 63.2925 71.1169 63.2925 72.3958 64.0612C72.6516 64.0612 72.6516 64.3175 72.6516 64.5737C72.6516 64.8299 72.3958 65.0862 72.14 65.0862C72.14 65.0862 72.14 65.0862 71.6285 64.8299C71.1169 64.5737 70.3496 64.3175 69.0707 64.3175C66.2572 64.3175 64.4667 66.3674 64.4667 68.6736C64.4667 70.9798 66.0014 73.0297 69.3265 73.0297C70.0938 73.0297 71.1169 72.7735 71.6285 72.7735C71.8843 72.7735 71.8843 72.5172 71.8843 72.261V69.4423H72.3958Z" fill="black"></path><path d="M69.8381 74.0542C65.7456 74.0542 63.9552 71.2356 63.9552 68.4169C63.9552 65.8545 65.7456 62.7795 69.8381 62.7795C71.1169 62.7795 72.14 63.0358 73.1631 63.5483C73.4189 63.8045 73.6747 63.8045 73.6747 64.317C73.6747 64.8295 73.4189 65.0857 72.9074 65.0857C72.6516 65.0857 72.6516 65.0857 72.3958 64.8295C71.6285 64.317 70.8612 64.317 69.8381 64.317C66.7687 64.317 65.4899 66.3669 65.4899 68.4169C65.4899 70.4668 66.7687 72.5168 70.0938 72.5168C70.8612 72.5168 71.6285 72.5168 72.3958 72.2605C72.3958 72.2605 72.3958 72.2605 72.3958 72.0043V69.4419V69.1856C72.3958 69.1856 72.3958 69.1856 72.14 69.1856H70.0938C69.5823 69.1856 69.3265 68.9294 69.3265 68.4169C69.3265 67.9044 69.5823 67.6482 70.0938 67.6482H72.3958C73.4189 67.6482 73.9305 68.1607 73.9305 69.1856V71.7481C73.9305 72.0043 73.9305 72.5168 73.4189 73.0293C72.6516 73.5418 71.3727 74.0542 69.8381 74.0542ZM69.5823 63.5483C66.0014 63.5483 64.4667 66.1107 64.4667 68.4169C64.4667 70.7231 65.7456 73.2855 69.8381 73.2855C71.3727 73.2855 72.6516 73.0293 72.6516 72.773C72.9074 72.5168 72.9074 72.2605 72.9074 72.0043V69.4419C72.9074 68.9294 72.9074 68.4169 72.14 68.4169H69.8381H71.8843C72.14 68.4169 72.6516 68.4169 72.6516 69.1856V71.7481C72.6516 72.0043 72.6516 72.2605 72.14 72.5168C71.3727 72.773 70.3496 73.0293 69.5823 73.0293C65.7456 73.0293 64.4667 70.4668 64.4667 68.1607C64.7225 65.5982 66.7687 63.8045 69.5823 63.5483C70.6054 63.5483 71.6285 63.8045 72.3958 64.317C72.6516 64.317 72.6516 64.317 72.6516 64.317C71.6285 63.8045 70.8612 63.5483 69.5823 63.5483Z" fill="black"></path><path d="M84.1616 63.5484C84.1616 63.2921 84.4174 63.0359 84.6732 63.0359C84.9289 63.0359 85.1847 63.2921 85.1847 63.5484V72.5169C85.1847 73.0294 85.1847 73.5419 84.4174 73.5419C83.9058 73.5419 83.9058 73.2856 83.6501 73.0294L77.2556 64.0609V73.2856C77.2556 73.5419 76.9999 73.7981 76.7441 73.7981C76.4883 73.7981 76.2325 73.5419 76.2325 73.2856V64.3171C76.2325 64.0609 76.2325 63.2921 76.9999 63.2921C77.5114 63.2921 77.5114 63.5484 77.7672 63.8046L83.9058 72.7731V63.5484H84.1616Z" fill="black"></path><path d="M84.1614 74.0543C83.6499 74.0543 83.3941 73.7981 83.1383 73.2856L77.5112 65.0858V73.2856C77.5112 73.7981 77.2554 74.0543 76.7439 74.0543C76.2323 74.0543 75.9766 73.7981 75.9766 73.2856V64.3171C75.9766 64.0609 75.9766 63.0359 76.9997 63.0359C77.5112 63.0359 77.767 63.2921 78.0228 63.8046L83.6499 72.0044V63.8046C83.6499 63.2921 83.9056 63.0359 84.4172 63.0359C84.9287 63.0359 85.1845 63.2921 85.1845 63.8046V72.7731C85.1845 73.0294 85.1845 74.0543 84.1614 74.0543ZM76.7439 63.5484C76.4881 63.5484 76.4881 63.8046 76.4881 64.3171V73.2856V63.5484H76.7439ZM77.2554 63.5484L83.6499 72.7731C83.9056 73.0294 83.9056 73.2856 84.1614 73.2856L77.767 64.0609C77.5112 63.8046 77.2554 63.5484 77.2554 63.5484ZM84.4172 63.5484V73.2856C84.673 73.2856 84.673 73.0294 84.673 72.5169L84.4172 63.5484C84.673 63.5484 84.673 63.5484 84.4172 63.5484Z" fill="black"></path><path d="M99.7639 74.8232C99.7639 75.0794 99.5082 75.3357 99.2524 75.3357C98.9966 75.3357 98.7408 75.0794 98.7408 74.8232V63.8047C98.7408 63.5485 98.9966 63.2922 99.2524 63.2922C99.5082 63.2922 99.7639 63.5485 99.7639 63.8047V74.8232Z" fill="black"></path><path d="M99.2522 75.5918C98.7406 75.5918 98.4849 75.3356 98.4849 74.8231V63.8046C98.4849 63.2921 98.7406 63.0359 99.2522 63.0359C99.7637 63.0359 100.02 63.2921 100.02 63.8046V74.8231C100.02 75.3356 99.508 75.5918 99.2522 75.5918ZM99.2522 63.5484V74.8231V63.5484Z" fill="black"></path><path d="M125.853 63.5484C125.853 63.2921 125.853 63.2921 126.109 63.2921C126.365 63.2921 126.621 63.5484 126.621 63.5484V63.8046L123.807 73.0294C123.807 73.2856 123.551 73.5419 123.04 73.5419C122.528 73.5419 122.528 73.2856 122.272 73.0294L119.715 64.0609L117.157 73.0294C117.157 73.2856 116.901 73.5419 116.389 73.5419C115.878 73.5419 115.878 73.2856 115.622 73.0294L112.809 63.8046C112.809 63.8046 112.809 63.8046 112.809 63.5484C112.809 63.2921 113.064 63.0359 113.32 63.0359C113.576 63.0359 113.576 63.2921 113.576 63.2921L116.389 72.5169L118.947 63.5484C118.947 63.0359 119.203 63.0359 119.459 63.0359C119.715 63.0359 119.97 63.0359 120.226 63.5484L122.784 72.5169L125.853 63.5484Z" fill="black"></path><path d="M123.039 74.0543C122.272 74.0543 122.016 73.5419 122.016 73.2856L119.714 65.3421L117.412 73.2856C117.412 73.5419 117.157 74.0543 116.389 74.0543C115.622 74.0543 115.366 73.5419 115.366 73.2856L112.553 64.0609V63.8046C112.553 63.2921 113.064 63.0359 113.32 63.0359C113.832 63.0359 113.832 63.5484 114.087 63.5484L116.389 71.7482L118.691 63.8046C118.947 63.0359 119.203 63.0359 119.714 63.0359C119.97 63.0359 120.482 63.0359 120.737 63.8046L123.039 71.7482L125.341 63.5484C125.341 63.2921 125.597 63.0359 126.109 63.0359C126.365 63.0359 126.876 63.2921 126.876 63.8046C126.876 64.0609 126.876 64.0609 126.876 64.0609L124.063 73.2856C124.063 73.5419 123.807 74.0543 123.039 74.0543ZM126.109 63.8046L123.295 73.5419L123.551 73.2856L126.109 63.8046C126.365 63.8046 126.365 63.8046 126.109 63.8046C126.365 63.5484 126.365 63.5484 126.109 63.8046C126.109 63.5484 126.109 63.5484 126.109 63.8046ZM119.714 63.5484C119.714 63.5484 119.459 63.5484 119.459 63.8046L116.645 73.2856L116.901 73.0294L119.714 63.5484ZM113.32 63.5484C113.32 63.5484 113.32 63.8046 113.32 63.5484L116.133 73.0294C116.133 73.2856 116.133 73.2856 116.389 73.2856L113.32 63.5484ZM119.97 63.5484L122.784 73.0294C122.784 73.2856 122.784 73.2856 123.039 73.2856L120.226 63.8046C119.97 63.5484 119.97 63.5484 119.97 63.5484Z" fill="black"></path><path d="M134.294 67.905C134.549 67.905 134.549 68.1612 134.549 68.1612C134.549 68.4175 134.549 68.6737 134.294 68.6737H129.945V72.2611C129.945 72.7736 130.201 72.7736 130.457 72.7736H134.805C135.061 72.7736 135.061 73.0298 135.061 73.0298C135.061 73.2861 135.061 73.5423 134.805 73.5423H130.201C129.178 73.5423 129.178 72.7736 129.178 72.2611V64.83C129.178 64.3176 129.178 63.5488 130.201 63.5488H134.805C135.061 63.5488 135.061 63.8051 135.061 64.0613C135.061 64.3176 134.805 64.3176 134.805 64.3176H130.457C130.201 64.3176 129.945 64.3176 129.945 64.83V67.905H134.294Z" fill="black"></path><path d="M135.061 73.7985H130.201C129.178 73.7985 128.667 73.286 128.667 72.261V64.8299C128.667 64.3175 128.667 63.2925 130.201 63.2925H134.805C135.317 63.2925 135.573 63.5487 135.573 64.0612C135.573 64.5737 135.317 64.8299 134.805 64.8299H130.457H130.201C130.201 64.8299 130.201 64.8299 130.201 65.0862V67.9049H134.294C134.805 67.9049 135.061 68.1611 135.061 68.6736C135.061 69.1861 134.805 69.4423 134.294 69.4423H130.201V72.7735V73.0297C130.201 73.0297 130.201 73.0297 130.457 73.0297H134.805C135.317 73.0297 135.573 73.286 135.573 73.7985C135.573 73.5422 135.317 73.7985 135.061 73.7985ZM130.201 63.805C129.434 63.805 129.434 64.3175 129.434 64.8299V72.261C129.434 72.7735 129.434 73.286 130.201 73.286H134.805H130.201C129.946 73.286 129.434 73.286 129.434 72.5172V68.6736H134.038H129.434V65.0862C129.69 64.0612 130.201 63.805 130.201 63.805H134.805H130.201Z" fill="black"></path><path d="M139.153 73.5423C138.13 73.5423 138.13 72.7736 138.13 72.2611V64.83C138.13 64.3176 138.13 63.5488 139.153 63.5488H140.944C141.967 63.5488 144.269 63.5488 144.269 66.1113C144.269 67.6487 143.246 68.1612 142.734 68.4175C143.246 68.6737 144.525 69.1862 144.525 70.9799C144.525 73.7986 141.711 73.7986 140.944 73.7986H139.153V73.5423ZM140.944 67.905C141.455 67.905 143.502 67.905 143.502 66.1113C143.502 64.3176 141.967 64.3176 140.944 64.3176H139.409C139.153 64.3176 138.898 64.3176 138.898 64.83V67.905H140.944ZM138.898 72.2611C138.898 72.7736 139.153 72.7736 139.409 72.7736H140.944C141.967 72.7736 143.757 72.7736 143.757 70.7236C143.757 68.6737 141.711 68.6737 140.944 68.6737H138.642V72.2611H138.898Z" fill="black"></path><path d="M141.2 73.7985H139.153C138.13 73.7985 137.619 73.286 137.619 72.261V64.8299C137.619 64.3175 137.619 63.2925 139.153 63.2925H140.944C141.967 63.2925 144.525 63.2925 144.525 66.1112C144.525 67.3924 144.013 67.9049 143.502 68.4174C144.269 68.6736 145.036 69.4423 145.036 70.9798C145.036 72.7735 143.757 73.7985 141.2 73.7985ZM139.153 63.805C138.386 63.805 138.386 64.3175 138.386 64.8299V72.261C138.386 72.7735 138.386 73.286 139.153 73.286H141.2C142.479 73.286 144.525 73.0297 144.525 70.7235C144.525 69.1861 143.502 68.6736 142.734 68.4174L141.967 68.1611L142.734 67.9049C142.223 68.1611 141.711 68.1611 141.2 68.1611H138.642V64.5737C138.386 64.0612 138.898 63.805 139.153 63.805H140.944C141.967 63.805 143.757 63.805 143.757 65.8549C143.757 66.6236 143.502 67.1361 142.99 67.6486C143.502 67.3924 144.013 66.8799 144.013 65.8549C144.013 64.0612 142.479 63.805 140.944 63.805H139.153ZM139.153 67.6486H140.944C141.967 67.6486 142.99 67.3924 142.99 66.1112C142.99 64.8299 141.967 64.5737 140.688 64.5737H139.153H138.898C138.898 64.5737 138.898 64.5737 138.898 64.8299V67.6486H139.153ZM140.944 73.0297H139.409C139.153 73.0297 138.642 73.0297 138.642 72.261V68.4174H141.2C143.246 68.4174 144.269 69.1861 144.269 70.9798C144.269 73.0297 141.967 73.0297 140.944 73.0297ZM139.153 72.5172H140.944C142.223 72.5172 143.502 72.5172 143.502 70.9798C143.502 69.4423 142.223 69.1861 141.2 69.1861H139.153V72.5172C139.153 72.261 139.153 72.261 139.153 72.5172Z" fill="black"></path><path d="M158.848 74.8232C158.848 75.0794 158.592 75.3357 158.337 75.3357C158.081 75.3357 157.825 75.0794 157.825 74.8232V63.8047C157.825 63.5485 158.081 63.2922 158.337 63.2922C158.592 63.2922 158.848 63.5485 158.848 63.8047V74.8232Z" fill="black"></path><path d="M158.592 75.5918C158.081 75.5918 157.825 75.3356 157.825 74.8231V63.8046C157.825 63.2921 158.081 63.0359 158.592 63.0359C159.104 63.0359 159.36 63.2921 159.36 63.8046V74.8231C159.36 75.3356 158.848 75.5918 158.592 75.5918ZM158.592 63.5484C158.336 63.5484 158.336 63.5484 158.592 63.5484V74.8231V63.5484Z" fill="black"></path><path d="M173.172 63.5484C173.172 63.2921 173.427 63.0359 173.683 63.0359C173.939 63.0359 174.195 63.2921 174.195 63.5484V73.0294C174.195 73.5419 173.939 73.5419 173.683 73.5419C173.427 73.5419 173.172 73.2856 173.172 73.0294V63.5484Z" fill="black"></path><path d="M173.427 74.0543C172.916 74.0543 172.66 73.7981 172.66 73.2856V63.8046C172.66 63.2921 173.172 63.0359 173.427 63.0359C173.939 63.0359 174.195 63.2921 174.195 63.8046V73.2856C174.195 73.7981 173.939 74.0543 173.427 74.0543ZM173.427 63.5484V73.2856V63.5484C173.683 63.5484 173.683 63.5484 173.427 63.5484Z" fill="black"></path><path d="M178.543 73.542C177.52 73.542 177.52 72.7732 177.52 72.2608V63.8047C177.52 63.5485 177.775 63.2922 178.031 63.2922C178.287 63.2922 178.543 63.5485 178.543 63.8047V72.2608C178.543 72.7732 178.799 72.7732 179.054 72.7732H182.124C182.379 72.7732 182.379 73.0295 182.379 73.0295C182.379 73.2857 182.379 73.542 182.124 73.542H178.543Z" fill="black"></path><path d="M181.868 73.7981H178.543C177.52 73.7981 177.008 73.2856 177.008 72.2607V63.8046C177.008 63.2921 177.264 63.0359 177.775 63.0359C178.287 63.0359 178.543 63.2921 178.543 63.8046V72.2607V72.5169C178.543 72.5169 178.543 72.5169 178.799 72.5169H181.868C182.379 72.5169 182.635 72.7731 182.635 73.2856C182.635 73.5419 182.379 73.7981 181.868 73.7981ZM177.775 63.5484V72.2607C177.775 72.7731 177.776 73.2856 178.543 73.2856H181.868H178.799C178.543 73.2856 178.031 73.2856 178.031 72.5169L177.775 63.5484C178.031 63.5484 178.031 63.5484 177.775 63.5484Z" fill="black"></path><path d="M185.96 73.542C184.937 73.542 184.937 72.7732 184.937 72.2608V63.8047C184.937 63.5485 185.193 63.2922 185.449 63.2922C185.705 63.2922 185.96 63.5485 185.96 63.8047V72.2608C185.96 72.7732 186.216 72.7732 186.472 72.7732H189.541C189.797 72.7732 189.797 73.0295 189.797 73.0295C189.797 73.2857 189.797 73.542 189.541 73.542H185.96Z" fill="black"></path><path d="M189.286 73.7981H185.961C184.937 73.7981 184.426 73.2856 184.426 72.2607V63.8046C184.426 63.2921 184.682 63.0359 185.193 63.0359C185.705 63.0359 185.961 63.2921 185.961 63.8046V72.2607V72.5169C185.961 72.5169 185.961 72.5169 186.216 72.5169H189.286C189.797 72.5169 190.053 72.7731 190.053 73.2856C190.053 73.5419 189.541 73.7981 189.286 73.7981ZM185.193 63.5484V72.2607C185.193 72.7731 185.193 73.2856 185.961 73.2856H189.286H186.216C185.961 73.2856 185.449 73.2856 185.449 72.5169L185.193 63.5484Z" fill="black"></path><path d="M192.099 63.5484C192.099 63.2921 192.355 63.0359 192.611 63.0359C192.867 63.0359 193.122 63.2921 193.122 63.5484V69.1857C193.122 70.7232 193.122 73.0294 196.447 73.0294C199.773 73.0294 199.773 70.7232 199.773 69.1857V63.8046C199.773 63.5484 200.028 63.2921 200.284 63.2921C200.54 63.2921 200.796 63.5484 200.796 63.8046V69.1857C200.796 70.7232 200.796 73.7981 196.703 73.7981C192.611 73.7981 192.611 70.7232 192.611 69.1857V63.5484H192.099Z" fill="black"></path><path d="M196.191 74.0543C191.843 74.0543 191.843 70.4669 191.843 69.1857V63.8046C191.843 63.2921 192.099 63.0359 192.611 63.0359C193.122 63.0359 193.378 63.2921 193.378 63.8046V69.1857C193.378 70.9794 193.634 72.7731 196.447 72.7731C199.261 72.7731 199.517 70.9794 199.517 69.1857V63.8046C199.517 63.2921 199.772 63.0359 200.284 63.0359C200.795 63.0359 201.051 63.2921 201.051 63.8046V69.1857C200.795 70.4669 200.795 74.0543 196.191 74.0543ZM192.611 63.5484C192.355 63.5484 192.355 63.5484 192.611 63.5484V69.1857C192.611 71.2357 193.122 73.2856 196.447 73.2856C199.772 73.2856 200.284 71.2357 200.284 69.1857V63.8046V69.1857C200.284 70.4669 200.284 73.2856 196.703 73.2856C193.122 73.2856 193.122 70.4669 193.122 69.1857L192.611 63.5484Z" fill="black"></path><path d="M203.865 72.5169C204.632 72.7731 205.144 73.0294 205.655 73.0294C206.934 73.0294 208.213 72.5169 208.213 70.9794C208.213 69.442 207.19 69.1857 205.911 68.6732C204.632 68.1608 203.098 67.6483 203.098 65.8546C203.098 64.3171 204.121 63.0359 206.167 63.0359C206.934 63.0359 207.446 63.2921 207.957 63.5484C207.957 63.5484 208.213 63.8046 208.213 64.0609C208.213 64.3171 207.957 64.5733 207.957 64.5733C207.957 64.5733 207.702 64.5733 207.446 64.3171C207.446 64.0609 206.934 64.0609 206.423 64.0609C205.144 64.0609 204.377 65.0858 204.377 66.1108C204.377 67.392 205.4 67.6483 206.423 68.1608C207.702 68.6732 209.236 69.1857 209.236 70.9794C209.236 72.7731 207.702 73.7981 205.911 73.7981C204.632 73.7981 203.865 73.2856 203.609 73.2856C203.353 73.2856 203.353 73.0294 203.353 72.7731C203.353 72.5169 203.609 72.2607 203.609 72.2607C203.353 72.2607 203.609 72.2606 203.865 72.5169Z" fill="black"></path><path d="M205.655 74.0543C204.376 74.0543 203.609 73.5419 203.353 73.5419C203.097 73.5419 202.842 73.2856 202.842 72.7731C202.842 72.2606 203.097 72.0044 203.609 72.0044C203.609 72.0044 203.865 72.0044 204.121 72.2606C204.632 72.5169 205.144 72.7731 205.911 72.7731C206.167 72.7731 208.213 72.7731 208.213 70.9794C208.213 69.9545 207.446 69.442 206.167 69.1857C204.888 68.6732 203.097 68.1608 203.097 66.1108C203.097 64.5733 204.121 63.0359 206.423 63.0359C207.19 63.0359 207.701 63.2921 208.469 63.5484C208.469 63.5484 208.98 63.8046 208.98 64.3171C208.98 64.5733 208.725 65.0858 208.213 65.0858C207.957 65.0858 207.957 65.0858 207.701 64.8296C207.446 64.8296 206.934 64.5733 206.423 64.5733C205.144 64.5733 204.632 65.3421 204.632 66.1108C204.632 67.1358 205.399 67.392 206.678 67.9045C207.957 68.417 209.748 68.9295 209.748 70.9794C209.492 72.7731 207.957 74.0543 205.655 74.0543ZM203.353 72.7731C203.865 73.0294 204.632 73.5419 205.655 73.5419C207.19 73.5419 208.725 72.7731 208.725 70.9794C208.725 69.1857 207.446 68.9295 206.167 68.417C204.888 67.9045 203.865 67.6483 203.865 66.1108C203.865 65.0858 204.632 63.8046 206.167 63.8046C206.934 63.8046 207.446 64.0609 207.701 64.0609H207.957C207.446 63.8046 206.678 63.8046 206.167 63.8046C204.632 63.8046 203.609 64.8296 203.609 66.1108C203.609 67.6483 204.888 68.1608 206.167 68.417C207.19 68.9295 208.469 69.1857 208.469 70.9794C208.469 72.7731 206.934 73.2856 205.655 73.2856C204.888 73.2856 204.376 73.0294 203.609 72.7731H203.353C203.353 72.7731 203.609 72.7731 203.353 72.7731Z" fill="black"></path><path d="M215.63 73.2861C215.63 73.5423 215.375 73.7986 215.119 73.7986C214.863 73.7986 214.607 73.5423 214.607 73.2861V64.3176H211.282C211.026 64.3176 211.026 64.0613 211.026 64.0613C211.026 63.8051 211.026 63.5488 211.282 63.5488H218.444C218.7 63.5488 218.7 63.8051 218.7 64.0613C218.7 64.3176 218.7 64.3176 218.444 64.3176H215.119V73.2861H215.63Z" fill="black"></path><path d="M215.375 74.0543C214.863 74.0543 214.607 73.7981 214.607 73.2856V64.5733H211.794C211.282 64.5733 211.026 64.3171 211.026 63.8046C211.026 63.2921 211.282 63.0359 211.794 63.0359H218.956C219.467 63.0359 219.723 63.2921 219.723 63.8046C219.723 64.3171 219.467 64.5733 218.956 64.5733H216.142V73.2856C216.142 73.7981 215.63 74.0543 215.375 74.0543ZM211.794 63.8046H215.375V73.2856V63.8046H218.956H211.794Z" fill="black"></path><path d="M38.1215 101.729C38.8888 101.729 39.9119 101.729 40.935 102.241C43.4928 103.266 44.0043 106.085 44.0043 107.366C44.0043 107.879 44.0043 110.441 41.9581 111.978C40.935 112.491 39.6561 112.747 38.1215 112.747H35.3079C34.0291 112.747 34.0291 111.722 34.0291 111.466V103.266C34.0291 102.754 34.0291 101.985 35.3079 101.985H38.1215V101.729ZM35.0522 111.21C35.0522 111.722 35.3079 111.722 35.5637 111.722H38.1215C39.9119 111.722 40.6792 111.466 41.4466 110.954C42.9812 109.929 43.237 107.622 43.237 107.11C43.237 102.497 39.4004 102.497 38.3773 102.497H35.8195C35.3079 102.497 35.3079 102.497 35.3079 103.01V111.21H35.0522Z" fill="black"></path><path d="M38.1215 113.26H35.308C34.5407 113.26 33.5176 113.004 33.5176 111.21V103.01C33.5176 101.217 34.5407 100.96 35.308 100.96H38.1215C38.8889 100.96 39.912 100.96 41.1909 101.473C44.2602 102.754 44.516 105.829 44.516 107.11C44.516 109.416 43.7486 111.21 42.214 112.235C41.1909 113.004 39.912 113.26 38.1215 113.26ZM35.8196 111.21H38.1215C39.912 111.21 40.4235 110.954 40.9351 110.441C42.214 109.673 42.214 107.879 42.214 107.11C42.214 103.523 39.912 103.01 37.8658 103.01H35.5638L35.8196 111.21Z" fill="black"></path><path d="M52.7007 106.598C52.9565 106.598 53.2123 106.854 53.2123 107.11C53.2123 107.367 52.9565 107.623 52.7007 107.623H47.841V111.466C47.841 111.979 48.0968 111.979 48.3525 111.979H53.2123C53.4681 111.979 53.7238 112.235 53.7238 112.491C53.7238 112.748 53.4681 113.004 53.2123 113.004H48.0968C46.8179 113.004 46.8179 111.979 46.8179 111.723V103.523C46.8179 103.01 46.8179 102.242 48.0968 102.242H52.9565C53.2123 102.242 53.4681 102.498 53.4681 102.754C53.4681 103.01 53.2123 103.267 52.9565 103.267H48.3525C47.841 103.267 47.841 103.267 47.841 103.779V107.367H52.7007V106.598Z" fill="black"></path><path d="M53.2124 113.26H48.0968C47.3295 113.26 46.3064 113.004 46.3064 111.21V103.01C46.3064 101.217 47.3295 100.96 48.0968 100.96H52.9566C53.7239 100.96 53.9797 101.473 53.9797 101.985C53.9797 102.498 53.4681 103.01 52.9566 103.01H48.3526V105.829H52.445C53.2124 105.829 53.4681 106.342 53.4681 106.854C53.4681 107.367 52.9566 107.879 52.445 107.879H48.3526V110.954H53.2124C53.9797 110.954 54.2355 111.466 54.2355 111.979C54.2355 113.004 53.9797 113.26 53.2124 113.26Z" fill="black"></path><path d="M56.7934 111.722C57.5607 111.978 58.0723 112.235 58.8396 112.235C60.1185 112.235 61.6532 111.722 61.6532 109.928C61.6532 108.391 60.3743 107.878 59.3512 107.622C58.0723 107.11 56.2819 106.597 56.2819 104.547C56.2819 103.01 57.5607 101.472 59.6069 101.472C60.3743 101.472 60.8858 101.729 61.6532 101.985C61.6532 101.985 61.9089 102.241 61.9089 102.497C61.9089 102.754 61.6532 103.01 61.3974 103.01C61.3974 103.01 61.1416 103.01 60.8858 102.754C60.6301 102.754 60.1185 102.497 59.3512 102.497C57.8165 102.497 57.0492 103.522 57.0492 104.547C57.0492 105.829 58.0723 106.341 59.3512 106.854C60.6301 107.366 62.4205 107.878 62.4205 109.928C62.4205 111.978 60.6301 113.003 58.5838 113.003C57.305 113.003 56.2819 112.491 56.0261 112.491C55.7703 112.491 55.5145 112.235 55.5145 111.978C55.5145 111.722 55.7703 111.466 56.0261 111.466C56.2819 111.466 56.5376 111.466 56.7934 111.722Z" fill="black"></path><path d="M58.8394 113.516C57.3048 113.516 56.5374 113.003 56.0259 113.003C55.7701 113.003 55.2585 112.491 55.2585 111.978C55.2585 111.466 55.7701 110.953 56.2816 110.953C56.5374 110.953 56.5374 110.953 57.049 111.21C57.5605 111.466 58.0721 111.722 58.8394 111.722C59.351 111.722 61.1414 111.722 61.1414 110.185C61.1414 109.16 60.3741 108.903 59.0952 108.391C57.8163 107.878 55.7701 107.11 55.7701 104.803C55.7701 102.754 57.3048 101.216 59.6067 101.216C60.3741 101.216 61.1414 101.472 61.9087 101.729C62.4203 101.985 62.676 102.241 62.676 102.754C62.676 103.266 62.1645 103.778 61.6529 103.778C61.3972 103.778 61.1414 103.779 60.8856 103.522C60.6298 103.522 60.1183 103.266 59.6067 103.266C58.5836 103.266 58.0721 104.035 58.0721 104.803C58.0721 105.572 58.5836 105.828 60.1183 106.341C61.3972 106.853 63.4434 107.622 63.4434 110.185C63.1876 111.978 61.3972 113.516 58.8394 113.516Z" fill="black"></path><path d="M66.0011 101.986C66.0011 101.73 66.2569 101.473 66.5127 101.473C66.7684 101.473 67.0242 101.73 67.0242 101.986V112.492C67.0242 113.004 66.7684 113.004 66.5127 113.004C66.2569 113.004 66.0011 112.748 66.0011 112.492V101.986Z" fill="black"></path><path d="M66.5127 113.516C65.7454 113.516 65.4896 113.004 65.4896 112.491V101.985C65.4896 101.217 66.0012 100.96 66.5127 100.96C67.2801 100.96 67.5358 101.473 67.5358 101.985V112.491C67.5358 113.26 67.0243 113.516 66.5127 113.516ZM66.257 101.985H66.5127H65.7454H66.257Z" fill="black"></path><path d="M79.5572 108.391C79.5572 107.878 79.3014 107.878 79.0456 107.878H76.4879C76.2321 107.878 75.9763 107.622 75.9763 107.366C75.9763 107.11 76.2321 106.854 76.4879 106.854H79.0456C80.3245 106.854 80.3245 107.878 80.3245 108.135V110.953C80.3245 111.21 80.3245 111.722 79.813 111.978C79.5572 112.235 78.0225 112.747 76.4879 112.747C71.8839 112.747 70.3492 109.416 70.3492 107.11C70.3492 104.291 72.3955 101.472 76.2321 101.472C76.7436 101.472 78.0225 101.472 79.5572 102.241C79.813 102.241 79.813 102.497 79.813 102.754C79.813 103.01 79.5572 103.266 79.3014 103.266C79.3014 103.266 79.0456 103.266 78.7899 103.01C78.2783 102.754 77.2552 102.241 75.9763 102.241C72.6512 102.241 70.8608 104.547 70.8608 107.11C70.8608 109.672 72.3955 111.978 76.2321 111.978C76.9994 111.978 78.0225 111.722 78.7899 111.466C79.0456 111.466 79.0456 111.21 79.0456 110.953V108.391H79.5572Z" fill="black"></path><path d="M76.488 113.516C71.884 113.516 69.8378 110.185 69.8378 107.11C69.8378 104.035 71.884 100.704 76.488 100.704C77.7668 100.704 79.0457 100.96 80.0688 101.473C80.5804 101.729 80.8362 102.242 80.8362 102.498C80.8362 103.01 80.3246 103.523 79.813 103.523C79.5573 103.523 79.3015 103.523 79.3015 103.267C78.5342 102.754 77.5111 102.498 76.488 102.498C73.4186 102.498 72.1398 104.548 72.1398 106.854C72.1398 108.904 73.4186 111.21 76.7437 111.21C77.2553 111.21 78.2784 111.21 79.0457 110.954V108.135H76.7437C75.9764 108.135 75.7206 107.623 75.7206 107.11C75.7206 106.598 76.2322 106.085 76.7437 106.085H79.3015C80.0688 106.085 81.0919 106.341 81.0919 108.135V110.954C81.0919 111.21 81.0919 111.979 80.3246 112.491C79.813 113.004 78.2784 113.516 76.488 113.516Z" fill="black"></path><path d="M92.3458 101.985C92.3458 101.729 92.6016 101.473 92.8574 101.473C93.1132 101.473 93.3689 101.729 93.3689 101.985V111.979C93.3689 112.491 93.3689 113.004 92.6016 113.004C92.09 113.004 91.8343 112.747 91.5785 112.235L84.6725 102.498V112.491C84.6725 112.747 84.4167 113.004 84.161 113.004C83.9052 113.004 83.6494 112.747 83.6494 112.491V102.498C83.6494 101.985 83.6494 101.473 84.4167 101.473C84.9283 101.473 85.1841 101.729 85.4399 102.241L92.09 111.979V101.985H92.3458Z" fill="black"></path><path d="M92.8574 114.029L92.6017 113.516C91.5786 113.516 91.3228 113.004 90.8112 112.491L85.1842 104.291V112.235C85.1842 113.004 84.6726 113.26 84.161 113.26C83.3937 113.26 83.1379 112.747 83.1379 112.235V102.498C83.1379 101.473 83.6495 100.96 84.161 100.96V100.448L84.4168 100.96C85.4399 100.96 85.6957 101.473 86.2073 101.985L91.8343 110.185V102.241C91.8343 101.473 92.3459 101.216 92.8574 101.216C93.369 101.216 93.8805 101.729 93.8805 102.241V112.235C93.8805 113.26 93.369 113.772 92.8574 113.772V114.029ZM92.6017 101.985H92.8574H92.0901H92.6017Z" fill="black"></path><path d="M47.5853 209.351C47.5853 209.095 47.8411 208.838 48.0968 208.838C48.3526 208.838 48.6084 209.095 48.6084 209.351V209.607L45.5391 219.601C45.5391 219.857 45.2833 220.369 44.7717 220.369C44.2602 220.369 44.0044 220.113 44.0044 219.601L40.9351 210.12L38.1216 219.857C38.1216 220.113 37.8658 220.626 37.3542 220.626C36.8427 220.626 36.5869 220.369 36.5869 219.857L33.5176 209.607V209.351C33.5176 209.095 33.7734 208.838 34.0291 208.838C34.2849 208.838 34.2849 209.095 34.5407 209.351L37.61 219.344L40.4235 209.351C40.6793 208.838 40.9351 208.838 41.1909 208.838C41.4466 208.838 41.7024 208.838 41.9582 209.351L44.7717 219.344L47.5853 209.351Z" fill="black"></path><path d="M44.5159 221.651L44.2601 221.138C43.4928 221.138 43.237 220.369 42.9813 220.113L40.6793 212.426L38.3773 220.113C38.3773 220.369 38.1215 221.138 37.0984 221.138L36.8426 221.651L36.5868 221.138C35.8195 221.138 35.5637 220.369 35.308 220.113L32.2386 209.863C32.2386 209.863 32.2386 209.607 32.2386 209.351C32.2386 208.582 32.7502 208.326 33.2618 208.326C33.7733 208.326 34.0291 208.582 34.2849 209.095L36.5868 217.038L38.8888 209.095C39.1446 208.582 39.4004 208.07 40.1677 208.07L40.4235 207.557L40.6793 208.07C40.935 208.07 41.7024 208.326 41.7024 209.095L44.0044 217.038L46.3063 209.095C46.3063 208.838 46.5621 208.326 47.3294 208.326C47.841 208.326 48.3526 208.838 48.3526 209.351C48.3526 209.607 48.3526 209.607 48.3526 209.863L45.7948 220.113C45.7948 220.369 45.539 221.138 44.5159 221.138V221.651ZM47.5852 209.351L48.0968 209.607L47.5852 209.351Z" fill="black"></path><path d="M56.7933 214.219C57.049 214.219 57.3048 214.476 57.3048 214.732C57.3048 214.988 57.049 215.244 56.7933 215.244H51.9335V219.088C51.9335 219.601 52.1893 219.601 52.4451 219.601H57.3048C57.5606 219.601 57.8164 219.857 57.8164 220.113C57.8164 220.369 57.5606 220.626 57.3048 220.626H52.1893C50.9104 220.626 50.9104 219.601 50.9104 219.344V211.145C50.9104 210.632 50.9104 209.863 52.1893 209.863H57.049C57.3048 209.863 57.5606 210.12 57.5606 210.376C57.5606 210.632 57.3048 210.888 57.049 210.888H52.4451C51.9335 210.888 51.9335 210.888 51.9335 211.401V214.988H56.7933V214.219Z" fill="black"></path><path d="M57.5604 220.882H52.4449C51.6775 220.882 50.6544 220.625 50.6544 218.832V210.632C50.6544 208.838 51.6775 208.582 52.4449 208.582H57.3046C58.0719 208.582 58.3277 209.095 58.3277 209.607C58.3277 210.119 57.8162 210.632 57.3046 210.632H52.7006V213.451H56.793C57.5604 213.451 57.8162 213.963 57.8162 214.476C57.8162 214.988 57.3046 215.501 56.793 215.501H52.7006V218.576H57.5604C58.3277 218.576 58.5835 219.088 58.5835 219.6C58.5835 220.369 58.0719 220.882 57.5604 220.882Z" fill="black"></path><path d="M62.1644 220.369C60.8855 220.369 60.8855 219.344 60.8855 219.088V210.888C60.8855 210.376 60.8855 209.607 62.1644 209.607H64.2106C65.2337 209.607 67.7915 209.607 67.7915 212.169C67.7915 213.963 66.7684 214.476 66.001 214.732C66.7684 214.988 68.0472 215.501 68.0472 217.55C68.0472 220.625 64.9779 220.625 64.2106 220.625H62.1644V220.369ZM64.2106 214.219C64.9779 214.219 66.7684 214.219 66.7684 212.169C66.7684 210.119 65.2337 210.119 63.9548 210.119H62.1644C61.6528 210.119 61.6528 210.119 61.6528 210.632V214.219H64.2106V214.219ZM61.6528 218.832C61.6528 219.344 61.9086 219.344 62.1644 219.344H63.9548C64.9779 219.344 67.0241 219.344 67.0241 217.294C67.0241 214.988 64.9779 214.988 63.9548 214.988H61.3971V218.832H61.6528Z" fill="black"></path><path d="M64.2107 220.882H62.1645C61.3971 220.882 60.374 220.625 60.374 218.832V210.632C60.374 208.838 61.3971 208.582 62.1645 208.582H64.2107C67.0242 208.582 68.5589 209.607 68.5589 211.913C68.5589 213.194 68.0473 213.963 67.5358 214.476C68.3031 214.988 69.0704 215.757 69.0704 217.294C68.8146 218.832 68.0473 220.882 64.2107 220.882ZM62.4202 218.832H64.2107C65.7453 218.832 66.7684 218.576 66.7684 217.294C66.7684 216.013 66.0011 215.501 64.4664 215.501H62.676V218.832H62.4202ZM62.4202 213.451H64.2107C65.7453 213.451 66.2569 212.938 66.2569 211.913C66.2569 210.888 65.7453 210.632 63.9549 210.632H62.4202V213.451Z" fill="black"></path><path d="M82.6267 41.2554C83.6498 41.7679 84.6729 42.0241 85.4402 42.0241C87.2307 42.0241 89.5327 41.2554 89.5327 38.693C89.5327 36.3868 87.998 35.8743 86.2076 35.3618C84.4171 34.5931 81.8594 33.8243 81.8594 31.2619C81.8594 28.9557 83.6498 26.9058 86.4634 26.9058C87.4865 26.9058 88.5096 27.162 89.2769 27.6745C89.5327 27.6745 89.7884 27.9307 89.7884 28.187C89.7884 28.4432 89.5327 28.6995 89.2769 28.6995C89.2769 28.6995 89.0211 28.6995 88.5096 28.4432C87.998 28.187 87.2307 27.9307 86.2076 27.9307C83.9056 27.9307 82.8825 29.4682 82.8825 31.0057C82.8825 33.0556 84.4171 33.5681 86.2076 34.0806C88.2538 34.8493 90.5558 35.618 90.5558 38.693C90.5558 41.5116 88.2538 43.0491 85.1845 43.0491C83.394 43.0491 82.1151 42.5366 81.6036 42.2804C81.3478 42.0241 81.092 42.0241 81.092 41.5116C81.092 41.2554 81.3478 40.9991 81.6036 40.9991C82.1151 40.9991 82.3709 40.9991 82.6267 41.2554Z" fill="black"></path><path d="M85.6958 43.5616C83.6496 43.5616 82.3707 43.0492 81.8592 42.7929C81.6034 42.5367 80.8361 42.2804 80.8361 41.5117C80.8361 40.743 81.3476 40.2305 82.1149 40.2305C82.3707 40.2305 82.6265 40.2305 82.8823 40.4867H83.138C83.9054 40.9992 84.9285 40.9992 85.6958 40.9992C86.4631 40.9992 89.0209 40.743 89.0209 38.4368C89.0209 36.6431 87.9978 36.3868 85.9516 35.6181C84.1612 34.8494 81.3476 34.0806 81.3476 30.7495C81.3476 28.4433 83.138 25.8809 86.7189 25.8809C87.742 25.8809 88.7651 26.1371 89.7882 26.6496C90.2998 26.9058 90.5556 27.4183 90.5556 27.9308C90.5556 28.6995 90.044 29.212 89.2767 29.212C89.0209 29.212 88.7651 29.212 88.2536 28.9558C87.9978 28.6995 87.2305 28.4433 86.2074 28.4433C84.4169 28.4433 83.6496 29.7245 83.6496 30.7495C83.6496 32.2869 84.6727 32.5432 86.4631 33.3119C88.2536 34.0806 91.0671 35.1056 91.0671 38.4368C91.5787 41.5117 89.2767 43.5616 85.6958 43.5616ZM89.5325 36.1306C90.044 36.6431 90.2998 37.4118 90.2998 38.4368C90.2998 39.2055 90.044 39.718 89.7882 40.2305C90.044 39.718 90.2998 39.2055 90.2998 38.4368C90.2998 37.4118 90.044 36.6431 89.5325 36.1306ZM83.3938 28.9558C82.8823 29.4683 82.8823 30.237 82.8823 31.0057C82.8823 32.0307 83.138 32.5432 83.6496 33.0557C83.138 32.5432 82.8823 31.7745 82.8823 31.0057C82.6265 30.237 82.8823 29.4683 83.3938 28.9558ZM89.2767 27.9308C89.5325 27.9308 89.5325 27.9308 89.2767 27.9308L89.5325 27.4183L89.2767 27.9308Z" fill="black"></path><path d="M103.6 34.0812C104.112 34.0812 104.112 34.3374 104.112 34.5937C104.112 34.8499 103.856 35.1062 103.6 35.1062H96.9499V40.7435C96.9499 41.5123 97.2057 41.5123 97.7173 41.5123H104.623C105.135 41.5123 105.135 41.7685 105.135 42.0247C105.135 42.281 104.879 42.5372 104.623 42.5372H97.2057C95.4153 42.5372 95.4153 41.256 95.4153 40.4873V28.7001C95.4153 27.9314 95.4153 26.6501 97.2057 26.6501H104.112C104.623 26.6501 104.623 26.9064 104.623 27.1626C104.623 27.4189 104.367 27.6751 104.112 27.6751H97.4615C96.9499 27.6751 96.6942 27.9314 96.6942 28.4439V33.3125H103.6V34.0812Z" fill="black"></path><path d="M104.623 43.3059H97.2058C95.6711 43.3059 94.9038 42.5371 94.9038 40.7434V28.9562C94.9038 27.1625 95.6711 26.3938 97.2058 26.3938H104.112C104.879 26.3938 105.391 27.1625 105.391 27.675C105.391 28.4437 104.879 28.9562 104.112 28.9562H97.4616C97.4616 28.9562 97.4616 28.9562 97.2058 28.9562C97.2058 28.9562 97.2058 28.9562 97.2058 29.2125V33.3124H103.344C104.112 33.3124 104.623 33.8249 104.623 34.5936C104.623 35.3623 104.112 35.8748 103.344 35.8748H97.2058V40.7434C97.2058 40.7434 97.2058 40.7434 97.2058 40.9997C97.2058 40.9997 97.2058 40.9997 97.4616 40.9997H104.623C105.391 40.9997 105.902 41.5122 105.902 42.2809C105.902 42.7934 105.391 43.3059 104.623 43.3059ZM96.95 27.675C96.4385 27.9313 96.1827 28.1875 96.1827 28.9562V40.7434C96.1827 41.5122 96.1827 42.0246 96.95 42.0246C96.4385 41.7684 96.1827 41.5122 96.1827 40.7434V28.9562C96.1827 28.4437 96.4385 27.9313 96.95 27.675Z" fill="black"></path><path d="M118.691 41.7685C118.947 42.0247 118.947 42.0247 118.947 42.281C118.947 42.5372 118.691 42.7935 118.179 42.7935C117.924 42.7935 117.668 42.5372 117.668 42.281L112.297 35.1062H110.506V42.0247C110.506 42.5372 109.995 42.7935 109.739 42.7935C109.227 42.7935 108.971 42.5372 108.971 42.0247V28.7001C108.971 27.9314 108.971 26.6501 110.762 26.6501H113.575C116.9 26.6501 118.179 28.4439 118.179 31.0063C118.179 32.8 117.156 35.1062 113.575 35.3624L118.691 41.7685ZM113.32 34.3374C114.343 34.3374 117.412 34.3374 117.412 31.2625C117.412 28.1876 114.599 28.1876 113.32 28.1876H111.529C111.018 28.1876 110.762 28.4439 110.762 28.9563V34.3374H113.32V34.3374Z" fill="black"></path><path d="M118.435 43.5617C117.924 43.5617 117.668 43.0493 117.412 42.793L112.297 35.8745H111.529V42.0243C111.529 42.793 110.762 43.3055 110.25 43.3055C109.483 43.3055 108.971 42.793 108.971 42.0243V28.6996C108.971 26.9059 109.739 26.1372 111.273 26.1372H114.087C117.924 26.1372 119.458 28.6996 119.458 31.0058C119.458 33.0558 118.435 35.362 115.366 35.8745L119.458 41.2556L118.947 41.768L119.458 41.5118C119.714 41.768 119.97 42.0243 119.97 42.5368C119.714 43.0493 118.947 43.5617 118.435 43.5617ZM110.762 27.6747C110.25 27.9309 109.995 28.1872 109.995 28.9559V42.2805V28.9559C109.995 28.4434 110.25 27.9309 110.762 27.6747ZM118.435 42.2805L118.947 42.0243L118.435 42.2805ZM111.273 33.8245H113.32C114.854 33.8245 116.645 33.5683 116.645 31.2621C116.645 29.2121 115.366 28.9559 113.32 28.9559H111.529C111.529 28.9559 111.529 28.9559 111.273 28.9559C111.273 28.9559 111.273 28.9559 111.273 29.2121V33.8245V33.8245ZM117.668 29.7246C117.924 30.2371 117.924 30.7496 117.924 31.2621C117.924 31.5183 117.924 32.0308 117.924 32.287C117.924 31.7746 118.179 31.5183 118.179 31.2621C117.924 30.7496 117.924 30.2371 117.668 29.7246Z" fill="black"></path><path d="M134.549 27.1617C134.549 26.9054 134.805 26.6492 135.061 26.6492C135.317 26.6492 135.828 26.9054 135.828 27.1617C135.828 27.4179 135.828 27.4179 135.572 27.6741L129.69 42.0238C129.69 42.28 129.434 42.7925 128.667 42.7925C127.899 42.7925 127.643 42.28 127.643 42.0238L121.761 27.6741C121.761 27.4179 121.505 27.4179 121.505 27.1617C121.505 26.9054 121.761 26.6492 122.272 26.6492C122.784 26.6492 122.784 26.9054 122.784 27.1617L128.411 41.5113L134.549 27.1617Z" fill="black"></path><path d="M128.922 43.5616C127.899 43.5616 127.387 42.7929 127.387 42.2804L121.505 27.9308C121.505 27.6746 121.249 27.4183 121.249 27.1621C121.249 26.3933 122.016 25.8809 122.528 25.8809C123.295 25.8809 123.551 26.3933 123.551 26.6496L128.666 39.4618L133.782 26.6496L134.293 26.9058L133.782 26.6496C133.782 26.3933 134.038 25.8809 134.805 25.8809C135.572 25.8809 136.084 26.3933 136.084 27.1621C136.084 27.4183 136.084 27.6746 135.828 27.9308L129.945 42.2804C130.201 42.7929 129.945 43.5616 128.922 43.5616ZM122.528 27.4183L123.039 28.9558L122.528 27.4183ZM134.549 27.1621L135.061 27.4183L134.549 28.6995L135.061 27.4183V27.1621H134.549Z" fill="black"></path><path d="M140.176 27.4189C140.176 26.9064 140.432 26.6501 140.943 26.6501C141.455 26.6501 141.711 26.9064 141.711 27.4189V42.281C141.711 42.7935 141.199 43.0497 140.943 43.0497C140.432 43.0497 140.176 42.7935 140.176 42.281V27.4189Z" fill="black"></path><path d="M140.688 43.5617C139.92 43.5617 139.409 43.0493 139.409 42.2805V27.4184C139.409 26.6497 140.176 26.1372 140.688 26.1372C141.455 26.1372 141.966 26.6497 141.966 27.4184V42.2805C142.222 43.3055 141.455 43.5617 140.688 43.5617ZM140.688 27.4184V42.2805V27.4184Z" fill="black"></path><path d="M146.315 34.8499C146.315 30.2376 149.384 26.6501 154.499 26.6501C156.29 26.6501 157.824 27.1626 158.592 27.6751C158.848 27.9314 159.103 28.1876 159.103 28.1876C159.103 28.4438 158.848 28.7001 158.592 28.7001C158.336 28.7001 158.336 28.7001 158.08 28.4439C156.801 27.6751 155.267 27.6751 154.755 27.6751C150.663 27.6751 147.849 30.75 147.849 34.5937C147.849 37.9248 150.151 41.5123 155.011 41.5123C156.546 41.5123 157.313 41.256 158.336 40.7435L159.103 40.4873C159.359 40.4873 159.615 40.7435 159.615 40.9998C159.615 41.256 159.359 41.5123 159.103 41.5123C157.569 42.281 155.778 42.5372 154.755 42.5372C149.384 43.0497 146.315 39.2061 146.315 34.8499Z" fill="black"></path><path d="M154.755 43.5617C149.384 43.5617 145.803 39.9743 145.803 34.8495C145.803 29.7246 149.64 26.1372 154.755 26.1372C156.546 26.1372 158.08 26.6497 159.359 27.1622C159.871 27.4184 160.127 27.9309 160.127 28.1872C160.127 28.9559 159.615 29.4684 158.848 29.4684C158.592 29.4684 158.336 29.4684 158.08 29.2121C156.801 28.4434 155.523 28.4434 154.755 28.4434C151.174 28.4434 148.361 31.0058 148.361 34.8495C148.361 37.9244 150.407 41.2556 154.755 41.2556C156.29 41.2556 157.057 40.9993 157.825 40.7431C158.592 40.4868 158.592 40.4868 158.848 40.4868C159.359 40.4868 160.127 40.9993 160.127 41.768C160.127 42.0243 159.871 42.5368 159.359 43.0493C157.569 43.5617 155.778 43.5617 154.755 43.5617ZM149.128 29.4684C147.849 30.7496 147.082 32.7995 147.082 34.8495C147.082 36.6432 147.594 38.4369 148.872 39.9743C147.594 38.4369 147.082 36.6432 147.082 34.8495C147.082 32.7995 147.849 30.7496 149.128 29.4684ZM158.592 28.1872C158.592 28.1872 158.592 28.4434 158.592 28.1872V28.1872Z" fill="black"></path><path d="M171.637 34.0812C172.149 34.0812 172.149 34.3374 172.149 34.5937C172.149 34.8499 171.893 35.1062 171.637 35.1062H164.731V40.7435C164.731 41.5123 164.987 41.5123 165.498 41.5123H172.404C172.916 41.5123 172.916 41.7685 172.916 42.0247C172.916 42.281 172.66 42.5372 172.404 42.5372H164.987C163.196 42.5372 163.196 41.256 163.196 40.4873V28.7001C163.196 27.9314 163.196 26.6501 164.987 26.6501H171.893C172.404 26.6501 172.404 26.9064 172.404 27.1626C172.404 27.4189 172.149 27.6751 171.893 27.6751H165.243C164.731 27.6751 164.475 27.9314 164.475 28.4439V33.3125H171.637V34.0812Z" fill="black"></path><path d="M172.66 43.3059H165.242C163.708 43.3059 162.94 42.5371 162.94 40.7434V28.9562C162.94 27.1625 163.708 26.3938 165.242 26.3938H172.148C172.916 26.3938 173.427 27.1625 173.427 27.675C173.427 28.4437 172.916 28.9562 172.148 28.9562H165.498C165.498 28.9562 165.498 28.9562 165.242 28.9562C165.242 28.9562 165.242 28.9562 165.242 29.2125V33.3124H171.381C172.148 33.3124 172.66 33.8249 172.66 34.5936C172.66 35.3623 172.148 35.8748 171.381 35.8748H165.242V40.7434C165.242 40.7434 165.242 40.7434 165.242 40.9997C165.242 40.9997 165.242 40.9997 165.498 40.9997H172.404C173.171 40.9997 173.683 41.5122 173.683 42.2809C173.939 42.7934 173.427 43.3059 172.66 43.3059ZM164.987 27.675C164.475 27.9313 164.219 28.1875 164.219 28.9562V40.7434C164.219 41.5122 164.219 42.0246 164.987 42.0246C164.475 41.7684 164.219 41.5122 164.219 40.7434V28.9562C164.219 28.4437 164.475 27.9313 164.987 27.675Z" fill="black"></path><path d="M216.653 131.197H31.4712V133.759H216.653V131.197Z" fill="black"></path><path d="M216.653 145.546H31.4712V148.108H216.653V145.546Z" fill="black"></path><path d="M216.653 160.152H31.4712V162.715H216.653V160.152Z" fill="black"></path><path d="M216.653 174.502H31.4712V177.064H216.653V174.502Z" fill="black"></path></svg> 