<?xml version="1.0" encoding="UTF-8"?> <svg xmlns="http://www.w3.org/2000/svg" width="322" height="272" viewBox="0 0 322 272" fill="none"><path d="M274.727 79.3753C274.727 78.5612 275.541 77.7471 276.355 77.7471H317.056C317.87 77.7471 318.684 78.5612 318.684 79.3753C318.684 80.1894 317.87 81.0035 317.056 81.0035H276.355C275.541 81.0035 274.727 80.1894 274.727 79.3753Z" fill="black"></path><path d="M317.463 83.0387H276.763C274.728 83.0387 273.1 81.4105 273.1 79.3753C273.1 77.34 274.728 75.7118 276.763 75.7118H317.463C319.498 75.7118 321.126 77.34 321.126 79.3753C321.126 81.4105 319.498 83.0387 317.463 83.0387Z" fill="black"></path><path d="M287.345 66.3496L289.38 68.3849L277.577 79.3753L289.38 90.3657L287.345 92.808L273.1 79.3753L287.345 66.3496Z" fill="black"></path><path d="M287.346 95.6574L269.844 79.3753L287.346 63.5002L292.23 68.7919L280.833 79.3753L292.23 90.3657L287.346 95.6574Z" fill="black"></path><path d="M253.158 271.097H50.4686C41.9215 271.097 35.0024 264.177 35.0024 255.629V15.468C35.0024 6.91989 41.9215 0 50.4686 0H253.158C261.705 0 268.624 6.91989 268.624 15.468V255.629C268.624 264.177 261.705 271.097 253.158 271.097ZM50.4686 8.14105C46.3986 8.14105 43.1426 11.3975 43.1426 15.468V255.629C43.1426 259.7 46.3986 262.956 50.4686 262.956H253.158C257.228 262.956 260.484 259.7 260.484 255.629V15.468C260.484 11.3975 257.228 8.14105 253.158 8.14105H50.4686V8.14105Z" fill="black"></path><path d="M247.052 83.4457C246.238 83.4457 245.017 83.0387 244.203 82.2246L232.807 72.0483L223.445 82.2246C221.817 83.8528 219.375 83.8528 217.747 82.2246C216.119 80.5964 216.119 78.1541 217.747 76.5258L229.958 63.5002C231.586 61.872 234.028 61.872 235.656 63.0931L249.901 76.1188C251.529 77.747 251.529 80.1893 250.308 81.8175C249.494 83.0387 248.273 83.4457 247.052 83.4457Z" fill="#040000"></path><path d="M4.07007 54.545H2.03503C0.814014 54.545 0 53.7309 0 52.5097C0 51.2886 0.814014 50.4745 2.03503 50.4745H4.07007C5.29109 50.4745 6.1051 51.2886 6.1051 52.5097C6.1051 53.7309 5.29109 54.545 4.07007 54.545Z" fill="black"></path><path d="M286.533 54.545H282.463C281.242 54.545 280.428 53.7309 280.428 52.5097C280.428 51.2886 281.242 50.4745 282.463 50.4745H286.533C287.754 50.4745 288.568 51.2886 288.568 52.5097C288.568 53.7309 287.347 54.545 286.533 54.545ZM269.846 54.545H265.776C264.554 54.545 263.74 53.7309 263.74 52.5097C263.74 51.2886 264.554 50.4745 265.776 50.4745H269.846C271.067 50.4745 271.881 51.2886 271.881 52.5097C271.881 53.7309 271.067 54.545 269.846 54.545ZM253.158 54.545H249.088C247.867 54.545 247.053 53.7309 247.053 52.5097C247.053 51.2886 247.867 50.4745 249.088 50.4745H253.158C254.379 50.4745 255.193 51.2886 255.193 52.5097C255.193 53.7309 254.379 54.545 253.158 54.545ZM236.471 54.545H232.401C231.18 54.545 230.366 53.7309 230.366 52.5097C230.366 51.2886 231.18 50.4745 232.401 50.4745H236.471C237.692 50.4745 238.506 51.2886 238.506 52.5097C238.506 53.7309 237.692 54.545 236.471 54.545ZM219.784 54.545H215.714C214.493 54.545 213.679 53.7309 213.679 52.5097C213.679 51.2886 214.493 50.4745 215.714 50.4745H219.784C221.005 50.4745 221.819 51.2886 221.819 52.5097C221.819 53.7309 221.005 54.545 219.784 54.545ZM203.504 54.545H199.434C198.213 54.545 197.399 53.7309 197.399 52.5097C197.399 51.2886 198.213 50.4745 199.434 50.4745H203.504C204.725 50.4745 205.539 51.2886 205.539 52.5097C205.539 53.7309 204.318 54.545 203.504 54.545ZM186.816 54.545H182.746C181.525 54.545 180.711 53.7309 180.711 52.5097C180.711 51.2886 181.525 50.4745 182.746 50.4745H186.816C188.037 50.4745 188.851 51.2886 188.851 52.5097C188.851 53.7309 188.037 54.545 186.816 54.545ZM170.129 54.545H166.059C164.838 54.545 164.024 53.7309 164.024 52.5097C164.024 51.2886 164.838 50.4745 166.059 50.4745H170.129C171.35 50.4745 172.164 51.2886 172.164 52.5097C172.164 53.7309 171.35 54.545 170.129 54.545ZM153.442 54.545H149.372C148.151 54.545 147.337 53.7309 147.337 52.5097C147.337 51.2886 148.151 50.4745 149.372 50.4745H153.442C154.663 50.4745 155.477 51.2886 155.477 52.5097C155.477 53.7309 154.663 54.545 153.442 54.545ZM137.162 54.545H133.091C131.87 54.545 131.056 53.7309 131.056 52.5097C131.056 51.2886 131.87 50.4745 133.091 50.4745H137.162C138.383 50.4745 139.197 51.2886 139.197 52.5097C139.197 53.7309 137.976 54.545 137.162 54.545ZM120.474 54.545H116.404C115.183 54.545 114.369 53.7309 114.369 52.5097C114.369 51.2886 115.183 50.4745 116.404 50.4745H120.474C121.695 50.4745 122.509 51.2886 122.509 52.5097C122.509 53.7309 121.695 54.545 120.474 54.545ZM103.787 54.545H99.7171C98.4961 54.545 97.682 53.7309 97.682 52.5097C97.682 51.2886 98.4961 50.4745 99.7171 50.4745H103.787C105.008 50.4745 105.822 51.2886 105.822 52.5097C105.822 53.7309 105.008 54.545 103.787 54.545ZM87.0999 54.545H83.0298C81.8088 54.545 80.9948 53.7309 80.9948 52.5097C80.9948 51.2886 81.8088 50.4745 83.0298 50.4745H87.0999C88.3209 50.4745 89.1349 51.2886 89.1349 52.5097C89.1349 53.7309 88.3209 54.545 87.0999 54.545ZM70.4126 54.545H66.3425C65.1215 54.545 64.3075 53.7309 64.3075 52.5097C64.3075 51.2886 65.1215 50.4745 66.3425 50.4745H70.4126C71.6336 50.4745 72.4476 51.2886 72.4476 52.5097C72.4476 53.7309 71.6336 54.545 70.4126 54.545ZM54.1323 54.545H50.0623C48.8413 54.545 48.0273 53.7309 48.0273 52.5097C48.0273 51.2886 48.8413 50.4745 50.0623 50.4745H54.1323C55.3534 50.4745 56.1674 51.2886 56.1674 52.5097C56.1674 53.7309 54.9464 54.545 54.1323 54.545ZM37.4451 54.545H33.375C32.154 54.545 31.34 53.7309 31.34 52.5097C31.34 51.2886 32.154 50.4745 33.375 50.4745H37.4451C38.6661 50.4745 39.4801 51.2886 39.4801 52.5097C39.4801 53.7309 38.6661 54.545 37.4451 54.545ZM20.7579 54.545H16.6879C15.4668 54.545 14.6528 53.7309 14.6528 52.5097C14.6528 51.2886 15.4668 50.4745 16.6879 50.4745H20.7579C21.9789 50.4745 22.793 51.2886 22.793 52.5097C22.793 53.7309 21.9789 54.545 20.7579 54.545Z" fill="black"></path><path d="M300.777 54.545H298.742C297.521 54.545 296.707 53.7309 296.707 52.5097C296.707 51.2886 297.521 50.4745 298.742 50.4745H300.777C301.998 50.4745 302.812 51.2886 302.812 52.5097C302.812 53.7309 301.998 54.545 300.777 54.545Z" fill="black"></path></svg> 