<?xml version="1.0" encoding="UTF-8"?> <svg xmlns="http://www.w3.org/2000/svg" width="232" height="169" viewBox="0 0 232 169" fill="none"><path d="M41.1398 21.372C40.8794 21.1113 40.619 20.8507 40.0982 20.8507C39.5775 20.8507 39.3171 21.1113 39.0567 21.372L35.1511 27.3665L33.0681 24.7602C32.8078 24.4995 32.5474 24.2389 32.0267 24.2389C31.7663 24.2389 31.2455 24.4995 30.9851 24.7602L27.3398 30.494H47.3888L41.1398 21.372Z" fill="#4C4B4C"></path><path d="M32.8079 22.675C34.1097 22.675 35.4116 21.6325 35.4116 20.0687C35.4116 18.7656 34.3701 17.4624 32.8079 17.4624C31.506 17.4624 30.2041 18.5049 30.2041 20.0687C30.2041 21.6325 31.506 22.675 32.8079 22.675Z" fill="#4C4B4C"></path><path d="M65.094 47.6954H7.55078C4.16588 47.6954 1.30176 44.8285 1.30176 41.4403V7.55824C1.30176 4.17004 4.16588 1.3031 7.55078 1.3031H65.094C68.4789 1.3031 71.343 4.17004 71.343 7.55824V41.4403C71.343 44.8285 68.4789 47.6954 65.094 47.6954ZM7.55078 3.90941C5.46777 3.90941 3.90552 5.4732 3.90552 7.55824V41.4403C3.90552 43.5253 5.46777 45.0891 7.55078 45.0891H65.094C67.177 45.0891 68.7393 43.5253 68.7393 41.4403V7.55824C68.7393 5.4732 67.177 3.90941 65.094 3.90941H7.55078V3.90941Z" fill="black"></path><path d="M65.094 48.9986H7.55089C3.38487 48.9986 0 45.6104 0 41.4403V7.5583C0 3.3882 3.38487 0 7.55089 0H65.094C69.26 0 72.6449 3.3882 72.6449 7.5583V41.4403C72.6449 45.6104 69.26 48.9986 65.094 48.9986ZM7.55089 2.60631C4.94713 2.60631 2.60376 4.95199 2.60376 7.5583V41.4403C2.60376 44.0466 4.94713 46.3923 7.55089 46.3923H65.094C67.6978 46.3923 70.0411 44.0466 70.0411 41.4403V7.5583C70.0411 4.95199 67.6978 2.60631 65.094 2.60631H7.55089V2.60631ZM65.094 46.3923H7.55089C4.94713 46.3923 2.60376 44.0466 2.60376 41.4403V7.5583C2.60376 4.95199 4.94713 2.60631 7.55089 2.60631H65.094C67.6978 2.60631 70.0411 4.95199 70.0411 7.5583V41.4403C70.0411 44.0466 67.6978 46.3923 65.094 46.3923ZM7.55089 5.21262C6.24901 5.21262 5.20752 6.25514 5.20752 7.5583V41.4403C5.20752 42.7435 6.24901 43.786 7.55089 43.786H65.094C66.3959 43.786 67.4374 42.7435 67.4374 41.4403V7.5583C67.4374 6.25514 66.3959 5.21262 65.094 5.21262H7.55089V5.21262Z" fill="black"></path><path d="M119.513 21.372C119.252 21.1113 118.992 20.8507 118.471 20.8507C117.951 20.8507 117.69 21.1113 117.43 21.372L113.524 27.3665L111.441 24.7602C111.181 24.4995 110.92 24.2389 110.4 24.2389C110.139 24.2389 109.619 24.4995 109.358 24.7602L105.713 30.494H125.762L119.513 21.372Z" fill="#4C4B4C"></path><path d="M111.181 22.675C112.483 22.675 113.785 21.6325 113.785 20.0687C113.785 18.7656 112.743 17.4624 111.181 17.4624C109.879 17.4624 108.577 18.5049 108.577 20.0687C108.577 21.6325 109.879 22.675 111.181 22.675Z" fill="#4C4B4C"></path><path d="M143.467 47.6954H85.9243C82.5394 47.6954 79.6753 44.8285 79.6753 41.4403V7.55824C79.6753 4.17004 82.5394 1.3031 85.9243 1.3031H143.467C146.852 1.3031 149.717 4.17004 149.717 7.55824V41.4403C149.717 44.8285 146.852 47.6954 143.467 47.6954ZM85.9243 3.90941C83.8413 3.90941 82.2791 5.4732 82.2791 7.55824V41.4403C82.2791 43.5253 83.8413 45.0891 85.9243 45.0891H143.467C145.55 45.0891 147.113 43.5253 147.113 41.4403V7.55824C147.113 5.4732 145.55 3.90941 143.467 3.90941H85.9243V3.90941Z" fill="black"></path><path d="M143.468 48.9986H85.9244C81.7584 48.9986 78.3735 45.6104 78.3735 41.4403V7.5583C78.3735 3.3882 81.7584 0 85.9244 0H143.468C147.634 0 151.019 3.3882 151.019 7.5583V41.4403C151.019 45.6104 147.634 48.9986 143.468 48.9986ZM85.9244 2.60631C83.3207 2.60631 80.9773 4.95199 80.9773 7.5583V41.4403C80.9773 44.0466 83.3207 46.3923 85.9244 46.3923H143.468C146.071 46.3923 148.415 44.0466 148.415 41.4403V7.5583C148.415 4.95199 146.071 2.60631 143.468 2.60631H85.9244V2.60631ZM143.468 46.3923H85.9244C83.3207 46.3923 80.9773 44.0466 80.9773 41.4403V7.5583C80.9773 4.95199 83.3207 2.60631 85.9244 2.60631H143.468C146.071 2.60631 148.415 4.95199 148.415 7.5583V41.4403C148.415 44.0466 146.332 46.3923 143.468 46.3923ZM85.9244 5.21262C84.6225 5.21262 83.5811 6.25514 83.5811 7.5583V41.4403C83.5811 42.7435 84.6225 43.786 85.9244 43.786H143.468C144.769 43.786 145.811 42.7435 145.811 41.4403V7.5583C145.811 6.25514 144.769 5.21262 143.468 5.21262H85.9244V5.21262Z" fill="black"></path><path d="M199.969 21.372C199.708 21.1113 199.448 20.8507 198.927 20.8507C198.406 20.8507 198.146 21.1113 197.886 21.372L193.98 27.3665L191.897 24.7602C191.637 24.4995 191.376 24.2389 190.856 24.2389C190.595 24.2389 190.074 24.4995 189.814 24.7602L186.169 30.494H206.218L199.969 21.372Z" fill="#4C4B4C"></path><path d="M191.637 22.675C192.939 22.675 194.241 21.6325 194.241 20.0687C194.241 18.7656 193.199 17.4624 191.637 17.4624C190.335 17.4624 189.033 18.5049 189.033 20.0687C189.033 21.6325 190.335 22.675 191.637 22.675Z" fill="#4C4B4C"></path><path d="M223.924 47.6954H166.381C162.996 47.6954 160.132 44.8285 160.132 41.4403V7.55824C160.132 4.17004 162.996 1.3031 166.381 1.3031H223.924C227.309 1.3031 230.173 4.17004 230.173 7.55824V41.4403C230.173 44.8285 227.309 47.6954 223.924 47.6954ZM166.381 3.90941C164.298 3.90941 162.736 5.4732 162.736 7.55824V41.4403C162.736 43.5253 164.298 45.0891 166.381 45.0891H223.924C226.007 45.0891 227.569 43.5253 227.569 41.4403V7.55824C227.569 5.4732 226.007 3.90941 223.924 3.90941H166.381V3.90941Z" fill="black"></path><path d="M223.924 48.9986H166.38C162.214 48.9986 158.83 45.6104 158.83 41.4403V7.5583C158.83 3.3882 162.214 0 166.38 0H223.924C228.09 0 231.474 3.3882 231.474 7.5583V41.4403C231.474 45.6104 228.09 48.9986 223.924 48.9986ZM166.38 2.60631C163.777 2.60631 161.433 4.95199 161.433 7.5583V41.4403C161.433 44.0466 163.777 46.3923 166.38 46.3923H223.924C226.527 46.3923 228.871 44.0466 228.871 41.4403V7.5583C228.871 4.95199 226.527 2.60631 223.924 2.60631H166.38V2.60631ZM223.924 46.3923H166.38C163.777 46.3923 161.433 44.0466 161.433 41.4403V7.5583C161.433 4.95199 163.777 2.60631 166.38 2.60631H223.924C226.527 2.60631 228.871 4.95199 228.871 7.5583V41.4403C228.871 44.0466 226.527 46.3923 223.924 46.3923ZM166.38 5.21262C165.079 5.21262 164.037 6.25514 164.037 7.5583V41.4403C164.037 42.7435 165.079 43.786 166.38 43.786H223.924C225.226 43.786 226.267 42.7435 226.267 41.4403V7.5583C226.267 6.25514 225.226 5.21262 223.924 5.21262H166.38V5.21262Z" fill="black"></path><path d="M41.1398 79.232C40.8794 78.9713 40.619 78.7107 40.0982 78.7107C39.5775 78.7107 39.3171 78.9713 39.0567 79.232L35.1511 85.2265L33.0681 82.6202C32.8078 82.3595 32.5474 82.0989 32.0267 82.0989C31.7663 82.0989 31.2455 82.3595 30.9851 82.6202L27.3398 88.354H47.3888L41.1398 79.232Z" fill="#4C4B4C"></path><path d="M32.8079 80.535C34.1097 80.535 35.4116 79.4925 35.4116 77.9287C35.4116 76.6255 34.3701 75.3224 32.8079 75.3224C31.506 75.3224 30.2041 76.3649 30.2041 77.9287C30.2041 79.2319 31.506 80.535 32.8079 80.535Z" fill="#4C4B4C"></path><path d="M65.094 105.556H7.55078C4.16588 105.556 1.30176 102.689 1.30176 99.3005V65.4185C1.30176 62.0303 4.16588 59.1633 7.55078 59.1633H65.094C68.4789 59.1633 71.343 62.0303 71.343 65.4185V99.3005C71.343 102.689 68.4789 105.556 65.094 105.556ZM7.55078 61.7696C5.46777 61.7696 3.90552 63.3334 3.90552 65.4185V99.3005C3.90552 101.386 5.46777 102.949 7.55078 102.949H65.094C67.177 102.949 68.7393 101.386 68.7393 99.3005V65.4185C68.7393 63.3334 67.177 61.7696 65.094 61.7696H7.55078Z" fill="black"></path><path d="M65.094 106.859H7.55089C3.38487 106.859 0 103.471 0 99.3006V65.4185C0 61.2484 3.38487 57.8602 7.55089 57.8602H65.094C69.26 57.8602 72.6449 61.2484 72.6449 65.4185V99.3006C72.6449 103.471 69.26 106.859 65.094 106.859ZM7.55089 60.4665C4.94713 60.4665 2.60376 62.8122 2.60376 65.4185V99.3006C2.60376 101.907 4.94713 104.253 7.55089 104.253H65.094C67.6978 104.253 70.0411 101.907 70.0411 99.3006V65.4185C70.0411 62.8122 67.6978 60.4665 65.094 60.4665H7.55089ZM65.094 104.253H7.55089C4.94713 104.253 2.60376 101.907 2.60376 99.3006V65.4185C2.60376 62.8122 4.94713 60.4665 7.55089 60.4665H65.094C67.6978 60.4665 70.0411 62.8122 70.0411 65.4185V99.3006C70.0411 101.907 67.6978 104.253 65.094 104.253ZM7.55089 63.0728C6.24901 63.0728 5.20752 64.1154 5.20752 65.4185V99.3006C5.20752 100.604 6.24901 101.646 7.55089 101.646H65.094C66.3959 101.646 67.4374 100.604 67.4374 99.3006V65.4185C67.4374 64.1154 66.3959 63.0728 65.094 63.0728H7.55089Z" fill="black"></path><path d="M119.513 79.232C119.252 78.9713 118.992 78.7107 118.471 78.7107C117.951 78.7107 117.69 78.9713 117.43 79.232L113.524 85.2265L111.441 82.6202C111.181 82.3595 110.92 82.0989 110.4 82.0989C110.139 82.0989 109.619 82.3595 109.358 82.6202L105.713 88.354H125.762L119.513 79.232Z" fill="#4C4B4C"></path><path d="M111.181 80.535C112.483 80.535 113.785 79.4925 113.785 77.9287C113.785 76.6255 112.743 75.3224 111.181 75.3224C109.879 75.3224 108.577 76.3649 108.577 77.9287C108.577 79.2319 109.879 80.535 111.181 80.535Z" fill="#4C4B4C"></path><path d="M143.467 105.556H85.9243C82.5394 105.556 79.6753 102.689 79.6753 99.3005V65.4185C79.6753 62.0303 82.5394 59.1633 85.9243 59.1633H143.467C146.852 59.1633 149.717 62.0303 149.717 65.4185V99.3005C149.717 102.689 146.852 105.556 143.467 105.556ZM85.9243 61.7696C83.8413 61.7696 82.2791 63.3334 82.2791 65.4185V99.3005C82.2791 101.386 83.8413 102.949 85.9243 102.949H143.467C145.55 102.949 147.113 101.386 147.113 99.3005V65.4185C147.113 63.3334 145.55 61.7696 143.467 61.7696H85.9243Z" fill="black"></path><path d="M143.468 106.859H85.9244C81.7584 106.859 78.3735 103.471 78.3735 99.3006V65.4185C78.3735 61.2484 81.7584 57.8602 85.9244 57.8602H143.468C147.634 57.8602 151.019 61.2484 151.019 65.4185V99.3006C151.019 103.471 147.634 106.859 143.468 106.859ZM85.9244 60.4665C83.3207 60.4665 80.9773 62.8122 80.9773 65.4185V99.3006C80.9773 101.907 83.3207 104.253 85.9244 104.253H143.468C146.071 104.253 148.415 101.907 148.415 99.3006V65.4185C148.415 62.8122 146.071 60.4665 143.468 60.4665H85.9244ZM143.468 104.253H85.9244C83.3207 104.253 80.9773 101.907 80.9773 99.3006V65.4185C80.9773 62.8122 83.3207 60.4665 85.9244 60.4665H143.468C146.071 60.4665 148.415 62.8122 148.415 65.4185V99.3006C148.415 101.907 146.332 104.253 143.468 104.253ZM85.9244 63.0728C84.6225 63.0728 83.5811 64.1154 83.5811 65.4185V99.3006C83.5811 100.604 84.6225 101.646 85.9244 101.646H143.468C144.769 101.646 145.811 100.604 145.811 99.3006V65.4185C145.811 64.1154 144.769 63.0728 143.468 63.0728H85.9244Z" fill="black"></path><path d="M199.969 79.232C199.708 78.9713 199.448 78.7107 198.927 78.7107C198.406 78.7107 198.146 78.9713 197.886 79.232L193.98 85.2265L191.897 82.6202C191.637 82.3595 191.376 82.0989 190.856 82.0989C190.595 82.0989 190.074 82.3595 189.814 82.6202L186.169 88.354H206.218L199.969 79.232Z" fill="#4C4B4C"></path><path d="M191.637 80.535C192.939 80.535 194.241 79.4925 194.241 77.9287C194.241 76.6255 193.199 75.3224 191.637 75.3224C190.335 75.3224 189.033 76.3649 189.033 77.9287C189.033 79.2319 190.335 80.535 191.637 80.535Z" fill="#4C4B4C"></path><path d="M223.924 105.556H166.381C162.996 105.556 160.132 102.689 160.132 99.3005V65.4185C160.132 62.0303 162.996 59.1633 166.381 59.1633H223.924C227.309 59.1633 230.173 62.0303 230.173 65.4185V99.3005C230.173 102.689 227.309 105.556 223.924 105.556ZM166.381 61.7696C164.298 61.7696 162.736 63.3334 162.736 65.4185V99.3005C162.736 101.386 164.298 102.949 166.381 102.949H223.924C226.007 102.949 227.569 101.386 227.569 99.3005V65.4185C227.569 63.3334 226.007 61.7696 223.924 61.7696H166.381Z" fill="black"></path><path d="M223.924 106.859H166.38C162.214 106.859 158.83 103.471 158.83 99.3006V65.4185C158.83 61.2484 162.214 57.8602 166.38 57.8602H223.924C228.09 57.8602 231.474 61.2484 231.474 65.4185V99.3006C231.474 103.471 228.09 106.859 223.924 106.859ZM166.38 60.4665C163.777 60.4665 161.433 62.8122 161.433 65.4185V99.3006C161.433 101.907 163.777 104.253 166.38 104.253H223.924C226.527 104.253 228.871 101.907 228.871 99.3006V65.4185C228.871 62.8122 226.527 60.4665 223.924 60.4665H166.38ZM223.924 104.253H166.38C163.777 104.253 161.433 101.907 161.433 99.3006V65.4185C161.433 62.8122 163.777 60.4665 166.38 60.4665H223.924C226.527 60.4665 228.871 62.8122 228.871 65.4185V99.3006C228.871 101.907 226.527 104.253 223.924 104.253ZM166.38 63.0728C165.079 63.0728 164.037 64.1154 164.037 65.4185V99.3006C164.037 100.604 165.079 101.646 166.38 101.646H223.924C225.226 101.646 226.267 100.604 226.267 99.3006V65.4185C226.267 64.1154 225.226 63.0728 223.924 63.0728H166.38Z" fill="black"></path><path d="M196.585 161.331C196.585 165.501 193.2 168.628 189.294 168.628H40.6191C36.4531 168.628 33.3286 165.24 33.3286 161.331V135.789C33.3286 131.619 36.7135 128.491 40.6191 128.491H189.034C193.2 128.491 196.324 131.879 196.324 135.789V161.331H196.585Z" fill="black"></path><path d="M51.0337 152.208H53.6375V141.001H54.6789V152.208H57.2827L54.1582 157.421L51.0337 152.208Z" fill="white"></path><path d="M54.158 157.942C53.8976 157.942 53.6372 157.942 53.6372 157.681L50.5127 152.468C50.5127 152.208 50.5127 151.947 50.5127 151.687C50.5127 151.426 50.7731 151.426 51.0335 151.426H52.8561V140.74C52.8561 140.479 53.1165 139.958 53.6372 139.958H54.6787C54.9391 139.958 55.4599 140.219 55.4599 140.74V151.426H57.2824C57.5428 151.426 57.8032 151.426 57.8032 151.687C57.8032 151.947 57.8032 152.208 57.8032 152.468L54.6787 157.681C54.6787 157.942 54.4184 157.942 54.158 157.942ZM52.3353 152.729L54.158 155.857L55.9806 152.729H54.6787C54.4183 152.729 54.158 152.729 54.158 152.468C54.158 152.729 53.8976 152.729 53.6372 152.729H52.3353Z" fill="white"></path><path d="M68.7386 149.081C68.2178 149.081 66.6556 149.081 66.3952 149.081C65.8745 149.081 65.8745 148.56 65.8745 148.56C65.8745 148.299 65.8744 148.299 66.1348 148.299C66.1348 148.299 66.9159 148.299 67.4367 148.299C67.6971 147.778 68.2179 147.257 68.4783 146.475C67.9575 145.953 67.4367 145.432 66.6556 144.911C65.8745 144.39 65.8745 144.39 65.8745 144.129C65.8745 143.868 66.1348 143.608 66.3952 143.608C66.3952 143.608 66.6556 143.608 66.916 143.868C67.1764 143.347 67.6971 142.305 68.2179 141.001C68.4782 140.48 68.4782 140.219 68.7386 140.219C68.9989 140.219 69.2593 140.48 69.2593 140.741C69.2593 141.001 67.9575 143.608 67.6971 144.39C68.2178 144.911 68.4782 145.171 68.999 145.432C69.7801 143.868 70.3008 142.826 70.5612 142.044C70.5612 141.783 70.8216 141.783 71.082 141.783C71.3424 141.783 71.6027 142.044 71.6027 142.305C71.6027 142.565 70.8216 144.39 68.4783 148.038C69.7801 148.038 70.0405 148.038 71.082 147.778C71.082 147.517 70.5612 146.735 70.5612 146.475C70.5612 146.214 70.8216 146.214 71.082 146.214C71.3424 146.214 71.3423 146.214 71.3423 146.475C71.3423 146.735 71.6027 146.735 72.1235 148.299C72.3839 149.081 72.3839 149.081 72.3839 149.081C72.3839 149.342 72.1235 149.602 71.8631 149.602C71.6027 149.602 71.6027 149.342 71.6027 149.342C71.6027 149.342 71.3423 148.82 71.3423 148.56C70.5612 148.56 70.3009 148.56 69.7801 148.82V156.639C69.7801 156.9 69.7801 157.16 69.2593 157.16C68.7386 157.16 68.7386 156.9 68.7386 156.639V149.081ZM67.6971 151.166C67.6971 151.687 67.6971 152.99 67.1764 154.815C66.916 155.857 66.916 156.118 66.6556 156.118C66.3952 156.118 66.1348 155.857 66.1348 155.597C66.1348 155.597 66.3952 154.815 66.3952 154.554C66.6556 153.512 66.916 152.469 66.916 151.427C66.916 151.166 67.1763 150.905 67.4367 150.905C67.1763 150.905 67.6971 150.905 67.6971 151.166ZM71.6027 151.427C71.8631 152.73 72.1235 154.554 72.1235 154.815C72.1235 155.075 71.8631 155.336 71.6027 155.336C71.082 155.336 71.082 155.075 71.082 154.294C71.082 153.512 70.8216 152.73 70.8216 152.209C70.8216 151.948 70.5612 151.427 70.5612 151.166C70.5612 150.905 70.8216 150.645 71.082 150.645C71.3424 150.645 71.3423 150.905 71.6027 151.427ZM76.2895 150.123C76.2895 151.166 76.2895 152.469 76.0291 153.512C75.7687 154.554 75.2479 155.597 73.9461 156.9C73.6857 156.9 73.1649 157.421 72.9046 157.421C72.6442 157.421 72.3839 157.161 72.3839 156.9C72.3839 156.639 72.6442 156.639 72.6442 156.379C74.9875 155.075 75.5083 153.512 75.5083 150.384C75.5083 150.123 75.5083 149.863 76.0291 149.863C76.2895 149.602 76.2895 149.863 76.2895 150.123ZM82.0177 142.305C82.0177 142.305 82.5385 142.305 82.5385 142.826C82.5385 143.347 82.278 143.347 82.0177 143.347H77.8517V145.171H81.497C81.497 145.171 82.0177 145.171 82.0177 145.693C82.0177 146.214 81.7573 146.214 81.497 146.214H73.165C72.9046 146.214 72.6442 146.214 72.6442 145.693C72.6442 145.171 72.9046 145.171 73.165 145.171H76.8102V143.347H72.6442C72.6442 143.347 72.1235 143.347 72.1235 142.826C72.1235 142.305 72.3838 142.305 72.6442 142.305H76.8102V141.001C76.8102 140.741 76.8102 140.48 77.331 140.48C77.8517 140.48 77.8517 140.741 77.8517 141.001V142.305H82.0177ZM80.7158 147.517C81.7573 147.517 82.2781 147.778 82.2781 149.081V150.123C82.2781 150.384 82.278 150.645 81.7573 150.645C81.2365 150.645 81.2366 150.384 81.2366 150.123V149.081C81.2366 148.56 80.9762 148.299 80.4554 148.299H74.4668C73.9461 148.299 73.6857 148.56 73.6857 149.081V149.863C73.6857 150.123 73.6857 150.384 73.165 150.384C72.6442 150.384 72.6442 150.123 72.6442 149.863V148.82C72.6442 147.778 72.9046 147.257 74.2064 147.257H80.7158V147.517ZM79.1535 155.597C79.1535 156.118 79.4139 156.118 79.4139 156.118C79.6743 156.118 79.6743 156.118 80.7158 156.118C81.4969 156.118 81.497 155.857 81.497 154.294C81.497 153.512 81.4969 153.251 82.0177 153.251C82.5384 153.251 82.5385 153.772 82.5385 154.033C82.5385 154.815 82.5384 156.118 82.0177 156.639C81.7573 156.9 81.4969 156.9 79.6743 156.9C78.6328 156.9 78.1121 156.639 78.1121 155.336V149.863C78.1121 149.602 78.1121 149.342 78.6328 149.342C79.1536 149.342 79.1535 149.602 79.1535 149.863V155.597Z" fill="white"></path><path d="M68.9994 157.942C68.739 157.942 67.9579 157.942 67.9579 156.639V153.772C67.9579 154.033 67.9579 154.294 67.6975 154.815C67.4371 155.597 67.1768 156.379 66.3956 156.379C65.8749 156.379 65.0938 155.857 65.0938 155.336C65.0938 155.075 65.0938 155.075 65.3541 154.554C65.3541 154.294 65.3541 154.294 65.3541 154.294C65.6145 153.251 65.8749 152.209 65.8749 151.166C65.8749 150.384 66.656 150.123 66.9164 150.123C67.1768 150.123 67.4371 150.123 67.6975 150.384V149.863H67.4371C66.9164 149.863 66.1352 149.863 66.1352 149.863C65.3541 149.863 65.0938 149.342 65.0938 148.82C65.0938 148.299 65.3542 147.778 65.8749 147.778C65.8749 147.778 66.1353 147.778 66.656 147.778C66.9164 147.517 67.1768 146.996 67.4371 146.735C67.1768 146.475 66.656 145.953 66.1352 145.432C65.3541 144.65 65.0938 144.65 65.0938 144.129C65.0938 143.347 65.8749 142.826 66.3956 143.086C66.656 142.565 66.9164 141.783 67.1768 141.001C67.4372 140.48 67.6976 139.959 68.2183 139.959C68.7391 139.959 69.2598 140.48 69.2598 141.001C69.2598 141.523 68.2183 143.608 67.6975 144.39L67.9579 144.65C68.4787 143.868 68.7391 143.086 69.2598 142.305C69.5202 141.783 70.0409 141.523 70.3013 141.523C70.5617 141.523 71.0824 141.783 71.3428 142.044C71.6032 141.783 71.8636 141.783 72.124 141.783H75.5089V141.001C75.5089 140.22 76.0296 139.698 76.5503 139.698C77.0711 139.698 77.5919 139.959 77.5919 141.001V141.523H81.2372C82.0183 141.523 82.2787 142.044 82.2787 142.565C82.2787 143.086 82.0183 143.608 81.2372 143.608H77.5919V144.129H80.7164C81.4975 144.129 81.7579 144.65 81.7579 145.171C81.7579 145.693 81.4975 146.214 80.7164 146.214H72.3844C71.6032 146.214 71.3428 145.693 71.3428 145.171C71.3428 144.65 71.6032 144.129 72.3844 144.129H75.2485V143.608H71.8636C71.3428 143.608 71.0825 143.347 70.8221 143.347C70.5617 144.129 70.0409 144.911 69.2598 145.953C69.7806 145.693 70.5617 145.693 70.8221 146.475C70.8221 146.735 71.0824 146.735 71.3428 147.517C71.6032 146.996 72.3843 146.735 73.1655 146.735H79.6749C81.2372 146.735 81.7579 147.517 81.7579 148.82V149.863C81.7579 150.645 81.2372 151.166 80.7164 151.166C80.456 151.166 79.6749 151.166 79.6749 149.863V148.82H78.373C78.6334 149.081 78.8938 149.342 78.8938 149.863V155.336C78.8938 155.336 79.1542 155.336 79.6749 155.336C79.9353 155.336 79.9353 155.336 79.9353 155.336C79.9353 155.336 79.9353 154.815 79.9353 154.294C79.9353 153.772 79.9353 152.73 80.9768 152.73C81.4976 152.73 82.2787 152.99 82.2787 154.033C82.2787 156.118 82.0183 156.639 81.7579 157.161C81.2371 157.682 80.9768 157.682 78.8938 157.682C77.8523 157.682 76.8107 157.421 76.8107 155.597V150.123C76.8107 149.602 77.0712 149.081 77.3315 149.081H75.5089C75.7692 149.081 76.29 149.602 76.29 150.123C76.29 151.166 76.29 152.469 76.0296 153.512C75.7693 154.554 75.2485 155.857 73.6863 157.161H73.4259C72.9051 157.682 72.3844 157.682 72.124 157.682C71.6032 157.682 71.0825 157.161 71.0825 156.379C71.0825 156.118 71.0824 155.857 71.3428 155.597C70.3013 155.597 70.3013 154.815 70.0409 153.772C70.0409 153.251 70.041 152.73 69.7806 152.469V156.379C70.3013 157.682 69.5202 157.942 68.9994 157.942ZM71.8636 150.645C71.8636 150.905 72.124 151.166 72.124 151.427C72.3844 152.73 72.6447 154.554 72.6447 155.075C72.6447 155.336 72.6447 155.597 72.3844 155.597C73.9466 154.554 74.4674 153.512 74.4674 150.384C74.4674 149.602 74.7277 149.342 75.2485 149.081H74.4674V150.123C74.4674 151.166 73.6862 151.427 73.4259 151.427C72.9051 151.166 72.3843 151.166 71.8636 150.645C71.8636 150.645 72.124 150.645 71.8636 150.645ZM66.9164 151.166H67.6975H66.9164ZM70.3013 149.602V150.123C70.5617 149.863 70.5617 149.863 70.8221 149.863V149.602C70.5617 149.602 70.3013 149.602 70.3013 149.602ZM69.7806 146.996C69.5202 147.257 69.5202 147.517 69.2598 147.778C69.5202 147.778 69.5202 147.778 69.7806 147.778C69.7806 147.257 69.7806 147.257 69.7806 146.996Z" fill="white"></path><path d="M96.5982 146.214C98.1605 145.953 98.9415 145.693 99.983 145.171C100.764 144.911 100.764 144.911 100.764 144.911C101.025 144.911 101.285 145.171 101.285 145.432C101.285 145.693 101.025 145.953 100.504 145.953C99.4623 146.214 97.6397 146.735 96.8586 146.735C97.3794 147.778 98.6812 149.342 99.202 150.123C99.7227 150.905 99.7227 150.905 99.7227 151.166C99.7227 151.427 99.4623 151.687 99.202 151.687C99.202 151.687 98.4208 151.427 98.1605 151.166C97.3794 150.905 96.5982 150.645 96.3378 150.645C96.0775 150.645 96.0774 150.384 96.0774 150.123C96.0774 149.863 96.3378 149.602 96.3378 149.602C96.5982 149.602 97.6397 149.863 98.1605 150.123C96.8586 148.56 96.0775 147.257 95.8171 146.475C91.3908 147.257 89.0474 147.257 87.7455 147.257C87.2248 147.257 86.9644 147.257 86.9644 146.735C86.9644 146.214 87.2248 146.214 87.4851 146.214C90.3492 146.214 92.6926 146.214 95.2963 145.693C94.7756 144.911 94.5152 144.129 93.9945 143.347C91.3907 143.608 89.5681 143.868 88.5266 143.868C87.7455 143.868 87.4851 143.868 87.4851 143.347C87.4851 142.826 87.7455 142.826 88.2662 142.826C90.3492 142.826 91.9115 142.826 93.7341 142.565C93.4737 142.044 92.953 140.741 92.953 140.48C92.953 140.219 93.2133 139.959 93.4737 139.959C93.7341 139.959 93.7341 139.959 93.9945 140.48C94.2549 140.741 94.7756 142.044 94.7756 142.305C96.3378 142.044 97.3794 141.783 98.4209 141.523C98.9416 141.262 98.9416 141.262 99.202 141.262C99.7227 141.262 99.7227 141.783 99.7227 141.783C99.7227 142.044 99.4623 142.305 99.202 142.305C97.9001 142.826 96.0775 143.086 95.2963 143.086C95.5567 144.911 96.0775 145.693 96.5982 146.214ZM95.036 155.597C96.0775 155.597 97.119 155.597 97.9001 155.336L98.9416 155.075C99.2019 155.075 99.4623 155.336 99.4623 155.597C99.4623 156.118 99.202 156.118 98.4209 156.118C97.3794 156.379 96.3378 156.379 95.036 156.379C92.1718 156.379 88.5266 155.857 88.5266 152.99C88.5266 151.948 89.0474 150.905 89.8285 150.905C90.0889 150.905 90.3493 151.166 90.3493 151.427L90.0889 151.948C89.8285 152.209 89.8285 152.469 89.8285 153.251C89.3077 155.336 92.953 155.597 95.036 155.597Z" fill="white"></path><path d="M95.0374 157.16C90.0902 157.16 87.7469 155.857 87.7469 152.99C87.7469 151.947 88.5279 150.123 89.5694 150.123C90.0902 150.123 90.611 150.644 90.611 151.165C90.611 151.426 90.611 151.687 90.3506 151.947V152.208C90.3506 152.468 90.0902 152.729 90.0902 152.99C90.0902 154.553 93.2147 154.814 95.0374 154.814C96.0789 154.814 97.1204 154.814 97.9016 154.553L98.9431 154.293C99.4638 154.293 99.9845 154.814 99.9845 155.596C99.9845 156.639 98.9431 156.899 98.4223 156.899C97.1205 157.16 96.0789 157.16 95.0374 157.16ZM99.2034 152.729C98.9431 152.729 98.9431 152.729 97.9016 152.208C97.1204 151.687 96.3393 151.687 96.0789 151.687C95.2978 151.426 95.2978 150.905 95.2978 150.644C95.2978 149.862 95.8185 149.601 96.3393 149.601H96.5997C96.0789 148.82 95.8186 148.298 95.5582 148.038C91.1318 148.82 88.7884 148.82 87.7469 148.82C87.4865 148.82 86.1846 148.82 86.1846 147.516C86.1846 146.995 86.4449 146.474 87.4865 146.474C90.0902 146.474 92.1733 146.474 94.2563 145.953C93.9959 145.692 93.9959 145.171 93.7355 144.91C91.9129 145.171 90.0902 145.171 88.528 145.171C87.7468 145.171 86.7054 145.171 86.7054 144.128C86.7054 143.607 86.9657 143.086 88.0072 143.086C89.8299 143.086 91.1317 143.086 92.4336 142.825C91.9129 141.783 91.9129 141.522 91.9129 141.261C91.9129 140.479 92.4337 140.219 93.2148 140.219C93.9959 140.219 94.2563 140.74 94.2563 141.001C94.2563 141.261 94.5166 141.783 94.777 142.304V142.564C96.0789 142.304 96.86 142.043 97.9016 141.783C98.4223 141.522 98.6827 141.522 98.6827 141.522C99.4638 141.522 99.7242 142.304 99.7242 142.564C99.7242 143.086 99.4638 143.607 98.6827 143.607C97.9015 143.868 96.8601 144.128 95.5582 144.389C95.8186 144.649 95.8185 145.171 96.0789 145.431C97.3808 145.171 98.1619 144.91 98.9431 144.649C99.7242 144.389 99.7242 144.389 99.9845 144.389C100.505 144.389 101.026 144.91 101.026 145.692C101.026 146.474 100.245 146.735 99.7242 146.995C98.9431 147.256 97.9016 147.516 97.1205 147.777C97.6412 148.559 98.4223 149.862 98.9431 150.383V150.644C99.4638 151.165 99.4638 151.426 99.4638 151.947C100.505 152.208 99.9846 152.729 99.2034 152.729ZM98.9431 151.426C99.2034 151.426 99.2035 151.426 99.4638 151.687C99.2035 151.426 99.2034 151.426 98.9431 151.426C98.9431 151.165 98.9431 151.165 98.9431 151.426Z" fill="white"></path><path d="M113.003 141.262C113.003 141.001 113.263 140.741 113.523 140.741C113.784 140.741 114.044 141.001 114.044 141.262C114.044 141.523 113.263 142.826 113.003 143.086C114.565 143.086 115.867 142.826 117.95 142.565L118.991 142.305C119.252 142.305 119.512 142.565 119.512 142.826C119.512 143.086 119.252 143.347 117.689 143.608C116.387 143.868 114.044 143.868 112.482 144.129C112.482 144.129 111.701 145.171 110.399 147.256C110.92 146.735 111.961 145.953 113.523 145.953C115.867 145.953 116.127 147.778 116.387 148.038C116.908 147.778 120.554 146.214 121.074 146.214C121.595 146.214 121.595 146.735 121.595 146.735C121.595 146.996 121.335 146.996 120.814 147.256C119.252 147.778 117.169 148.82 116.908 148.82C116.908 149.342 116.908 149.602 116.908 151.687C116.908 152.469 116.908 152.73 116.387 152.73C115.867 152.73 115.867 152.469 115.867 152.208C115.867 151.948 115.867 150.645 115.867 150.384C115.867 150.123 115.867 149.602 115.867 149.081C113.784 150.123 111.701 151.166 111.701 152.73C111.701 154.815 114.825 154.815 115.867 154.815C117.95 154.815 118.991 154.554 120.033 154.554H120.293C120.814 154.554 120.814 154.815 120.814 155.075C120.814 155.336 120.553 155.597 120.293 155.597C119.772 155.597 117.95 155.857 116.127 155.857C114.825 155.857 110.659 155.857 110.659 152.99C110.659 150.905 112.742 149.602 115.606 148.299C115.606 148.038 115.346 146.475 113.523 146.475C111.701 146.475 109.878 148.038 108.837 149.602C108.316 150.384 108.316 150.384 108.055 150.384C107.795 150.384 107.535 150.123 107.535 149.863C107.535 149.602 108.055 148.82 108.316 148.56C109.878 146.214 110.659 144.911 111.701 143.608C111.44 143.608 110.399 143.608 110.138 143.608C107.795 143.608 107.795 143.608 107.795 143.086C107.795 142.565 108.316 142.565 108.316 142.565C108.837 142.565 111.701 142.565 112.221 142.565L113.003 141.262Z" fill="white"></path><path d="M115.867 156.9C111.701 156.9 109.878 155.597 109.878 153.251C109.878 150.905 112.222 149.602 114.825 148.299C114.565 147.778 114.305 147.517 113.523 147.517C112.222 147.517 110.659 148.56 109.097 150.384C108.576 151.166 108.316 151.427 107.795 151.427C107.014 151.427 106.754 150.905 106.754 150.384C106.754 150.123 106.754 149.863 107.535 148.82C108.837 146.996 109.618 145.953 110.139 144.911C109.878 144.911 109.878 144.911 109.618 144.911C107.274 144.911 106.493 144.911 106.493 143.868C106.493 143.347 106.754 142.826 107.795 142.826H108.837C109.618 142.826 110.659 142.826 111.44 142.826L112.222 141.262C112.482 141.001 112.742 140.48 113.263 140.48C114.044 140.48 114.565 141.001 114.565 141.523C114.565 141.783 114.305 142.305 114.044 142.565C115.086 142.565 116.388 142.305 117.689 142.044C117.95 142.044 118.21 142.044 118.471 142.044C118.731 142.044 118.731 142.044 118.731 142.044C119.252 142.044 119.773 142.565 119.773 143.086C119.773 144.129 118.991 144.129 117.429 144.39C116.127 144.65 114.044 144.65 112.482 144.911C112.482 145.171 112.222 145.432 111.961 145.693C112.222 145.693 112.742 145.432 113.263 145.432C114.305 145.432 115.606 145.693 116.388 147.257C117.689 146.735 120.033 145.693 120.554 145.693C121.335 145.693 121.595 146.214 121.595 146.996C121.595 147.778 121.074 148.038 120.293 148.299C119.252 148.82 117.429 149.342 116.648 149.602C116.648 150.123 116.648 150.645 116.648 151.948C116.648 152.73 116.648 153.772 115.346 153.772C114.825 153.772 114.305 153.512 114.305 152.469C114.305 152.209 114.305 151.948 114.305 151.427C114.305 151.166 114.305 150.645 114.305 150.645C114.305 150.645 114.305 150.645 114.305 150.384C113.003 150.905 111.44 151.948 111.44 152.99C111.44 153.772 112.742 154.294 115.086 154.294C117.169 154.294 118.21 154.033 118.991 154.033C119.252 154.033 119.252 154.033 119.512 154.033C120.033 154.033 120.554 154.294 120.554 155.075C120.554 155.336 120.554 156.118 119.512 156.118C119.512 156.639 117.69 156.9 115.867 156.9Z" fill="white"></path><path d="M135.135 148.56C135.655 149.602 136.176 150.905 136.957 151.687C137.999 151.166 138.78 150.645 140.082 149.863C140.863 149.342 140.863 149.342 140.863 149.342C141.123 149.342 141.384 149.602 141.384 149.863C141.384 150.123 140.863 150.645 140.342 150.905C139.301 151.687 137.738 152.469 137.478 152.73C138.78 154.294 140.342 155.336 142.165 156.118C142.686 156.379 142.686 156.379 142.686 156.639C142.686 156.9 142.425 157.16 142.165 157.16C141.904 157.16 139.821 156.118 137.999 154.554C136.176 152.73 134.874 150.645 134.093 148.82C133.052 149.863 132.01 150.645 131.489 151.166V155.597C132.791 155.336 134.354 155.075 135.395 154.815C135.655 154.815 136.176 154.554 136.436 154.554C136.697 154.554 136.697 154.815 136.697 155.075C136.697 155.336 136.437 155.597 135.395 155.857C133.572 156.379 128.886 157.16 127.844 157.16C127.584 157.16 127.323 156.9 127.323 156.639C127.323 156.118 127.584 156.118 127.844 156.118C128.886 156.118 130.188 155.857 130.448 155.857V151.948C128.625 152.99 126.803 153.772 126.542 153.772C126.282 153.772 126.021 153.512 126.021 153.251C126.021 152.99 126.282 152.73 126.542 152.73C128.886 151.948 131.229 150.905 133.312 148.82H126.542C126.542 148.82 126.021 148.82 126.021 148.299C126.021 147.778 126.282 147.778 126.542 147.778H133.833V145.693H127.844C127.584 145.693 127.323 145.432 127.323 145.171C127.323 144.911 127.584 144.65 127.844 144.65H133.833V142.826H127.063C126.803 142.826 126.542 142.826 126.542 142.305C126.542 141.783 126.803 141.783 127.063 141.783H133.833V140.48C133.833 140.219 133.833 139.959 134.354 139.959C134.874 139.959 134.874 140.219 134.874 140.48V141.783H141.904C141.904 141.783 142.425 141.783 142.425 142.305C142.425 142.826 141.904 142.826 141.904 142.826H134.874V144.65H140.863C141.123 144.65 141.384 144.65 141.384 145.171C141.384 145.693 140.863 145.693 140.863 145.693H134.874V147.778H142.165C142.425 147.778 142.686 147.778 142.686 148.299C142.686 148.82 142.425 148.82 142.165 148.82H135.135V148.56Z" fill="white"></path><path d="M142.165 157.942C141.384 157.942 139.301 156.638 137.478 155.075C137.218 155.075 137.218 154.814 136.957 154.814C136.957 155.075 136.957 155.075 136.957 155.335C136.957 156.378 136.176 156.378 135.135 156.638C133.573 157.16 128.365 157.942 127.584 157.942C126.803 157.942 126.282 157.42 126.282 156.638C126.282 156.378 126.282 155.596 127.323 155.596C128.105 155.596 128.886 155.335 129.406 155.335V153.25C127.844 154.032 126.542 154.553 126.022 154.553C125.501 154.553 124.98 154.032 124.98 153.25C124.98 152.99 125.241 152.468 125.761 152.208C127.584 151.687 129.407 150.905 130.969 149.341H125.761C124.98 149.341 124.72 148.82 124.72 148.298C124.72 147.777 124.98 147.256 126.022 147.256H132.792V146.474H127.323C126.542 146.474 126.282 145.953 126.282 145.431C126.282 144.91 126.542 144.389 127.323 144.389H132.792V143.868H126.542C125.761 143.868 125.241 143.346 125.241 142.825C125.241 142.304 125.501 141.783 126.542 141.783H132.792V141.261C132.792 140.479 133.312 140.219 133.833 140.219C134.354 140.219 134.875 140.479 134.875 141.261V141.522H141.123C141.905 141.522 142.425 142.043 142.425 142.564C142.425 143.086 142.165 143.607 141.123 143.607H134.875V144.128H140.342C141.123 144.128 141.384 144.649 141.384 145.171C141.384 145.692 140.863 146.213 140.342 146.213H134.875V146.995H141.644C142.425 146.995 142.686 147.516 142.686 148.038C142.686 148.559 142.425 149.08 141.644 149.08H141.123C141.384 149.341 141.384 149.601 141.384 149.862C141.384 150.383 140.863 150.905 140.082 151.426C139.301 151.947 138.52 152.468 137.999 152.729C139.041 153.772 140.342 154.553 141.905 155.335C142.425 155.596 142.946 155.857 142.946 156.378C143.467 157.16 142.946 157.942 142.165 157.942ZM132.271 151.687V155.075H132.531C133.573 154.814 134.614 154.814 135.135 154.553C135.916 154.293 136.176 154.293 136.176 154.293C136.437 154.293 136.437 154.293 136.697 154.293C135.656 152.99 134.614 151.687 134.093 150.123C133.312 150.644 132.531 151.165 132.271 151.687ZM136.176 149.341C136.437 149.862 136.697 150.644 137.218 151.165C137.999 150.644 138.78 150.383 139.822 149.601C139.822 149.601 139.822 149.601 140.082 149.341H136.176ZM134.354 148.298C134.354 148.038 134.354 148.298 134.354 148.298V148.298Z" fill="white"></path><path d="M154.924 155.336C154.924 157.161 153.882 157.161 152.58 157.161H151.018C150.757 157.161 150.497 157.161 150.497 156.639C150.497 156.118 150.757 156.118 151.018 156.118H152.58C152.84 156.118 153.622 156.118 153.622 155.076V147.257H146.071C146.071 147.257 145.55 147.257 145.55 146.735C145.55 146.214 145.81 146.214 146.071 146.214H162.214C162.474 146.214 162.735 146.214 162.735 146.735C162.735 147.257 162.474 147.257 162.214 147.257H154.663V155.336H154.924ZM150.237 149.602C150.237 149.863 148.935 152.99 147.372 155.336C146.852 156.118 146.852 156.118 146.591 156.118C146.331 156.118 146.071 155.857 146.071 155.597C146.071 155.336 146.071 155.336 146.331 155.076C147.633 153.251 148.674 151.427 149.195 149.602C149.195 149.342 149.195 149.081 149.716 149.081C149.976 149.081 150.237 149.602 150.237 149.602ZM161.172 141.262C161.433 141.262 161.693 141.262 161.693 141.783C161.693 142.305 161.433 142.305 161.172 142.305H147.372C147.372 142.305 146.852 142.305 146.852 141.783C146.852 141.262 147.112 141.262 147.372 141.262H161.172ZM159.35 149.602C160.391 152.209 161.954 154.554 162.214 155.336C162.214 155.597 162.474 155.597 162.474 155.857C162.474 156.118 162.214 156.379 161.954 156.379C161.693 156.379 161.693 156.379 160.912 155.336C159.61 153.512 158.308 150.124 158.308 149.602C158.308 149.081 158.829 149.081 158.829 149.081C159.35 149.081 159.35 149.342 159.35 149.602Z" fill="white"></path><path d="M152.58 157.682H151.018C150.236 157.682 149.716 157.161 149.716 156.379C149.716 155.857 149.976 155.076 151.018 155.076C151.018 155.076 151.538 155.076 151.799 155.076H152.58H152.84C152.84 155.076 152.84 155.076 152.84 154.815V147.517H146.07C145.289 147.517 145.029 146.996 145.029 146.475C145.029 145.953 145.289 145.432 146.07 145.432H162.214C162.995 145.432 163.516 145.953 163.516 146.475C163.516 146.996 163.255 147.517 162.214 147.517H155.444V155.076C155.444 157.682 153.882 157.682 152.58 157.682ZM161.953 156.9C161.432 156.9 161.172 156.639 160.391 155.597C159.349 153.772 157.527 150.384 157.527 149.602C157.527 148.82 158.048 148.56 158.829 148.56C159.61 148.56 159.87 149.342 159.87 149.342L159.349 149.602L159.87 149.342C160.651 151.687 162.214 153.772 162.734 154.815C162.734 155.076 162.995 155.336 162.995 155.597C163.255 156.379 162.734 156.9 161.953 156.9ZM146.591 156.9C146.07 156.9 145.289 156.379 145.289 155.597C145.289 155.336 145.55 154.815 145.55 154.815C146.851 152.99 147.633 151.427 148.414 149.342C148.674 148.82 148.934 148.56 149.455 148.56C150.236 148.56 150.757 149.081 150.757 149.602C150.757 150.124 149.455 153.512 147.893 155.597C147.372 156.379 147.112 156.9 146.591 156.9ZM161.172 142.826H147.372C146.591 142.826 146.331 142.305 146.331 141.783C146.331 141.262 146.591 140.741 147.372 140.741H161.172C161.953 140.741 162.214 141.262 162.214 141.783C162.474 142.305 161.953 142.826 161.172 142.826Z" fill="white"></path><path d="M171.328 152.209H173.931V141.001H174.973V152.209H177.577L174.452 157.421L171.328 152.209Z" fill="white"></path><path d="M174.452 157.942C174.192 157.942 173.931 157.942 173.931 157.682L170.807 152.469C170.807 152.209 170.807 151.948 170.807 151.687C170.807 151.427 171.067 151.427 171.327 151.427H173.15V140.741C173.15 140.48 173.41 139.959 173.931 139.959H174.973C175.233 139.959 175.754 140.219 175.754 140.741V151.427H177.576C177.837 151.427 178.097 151.427 178.097 151.687C178.097 151.948 178.097 152.209 178.097 152.469L174.973 157.682C174.973 157.942 174.712 157.942 174.452 157.942ZM172.629 152.73L174.452 155.857L176.274 152.73H174.973C174.712 152.73 174.452 152.73 174.452 152.469C174.452 152.73 174.192 152.73 173.931 152.73H172.629Z" fill="white"></path></svg> 