<?xml version="1.0" encoding="UTF-8"?> <svg xmlns="http://www.w3.org/2000/svg" width="66" height="152" viewBox="0 0 66 152" fill="none"><path d="M16 0H10V152H16V0Z" fill="black"></path><path d="M11.5 76C17.8512 76 23 70.8513 23 64.5C23 58.1487 17.8512 53 11.5 53C5.14871 53 0 58.1487 0 64.5C0 70.8513 5.14871 76 11.5 76Z" fill="black"></path><path d="M47.3068 25.0723C46.6802 26.3259 46.3669 27.5795 46.3669 28.5197C46.3669 30.7135 47.3068 33.5342 50.4397 33.5342C53.2593 33.5342 53.8859 31.6538 54.5124 29.4599C55.4523 27.2661 56.3921 24.1321 59.525 24.1321C62.3446 24.1321 64.8509 26.3259 64.8509 29.7733C64.8509 31.0269 64.5377 32.2806 63.9111 33.2208C63.9111 33.5342 63.5978 33.8476 63.2845 33.8476C62.9712 33.8476 62.6579 33.5342 62.6579 33.2208C62.6579 33.2208 62.6579 32.9074 62.9712 32.2806C63.2845 31.6538 63.5978 30.7135 63.5978 29.4599C63.5978 26.6393 61.7181 25.3857 59.8383 25.3857C57.332 25.3857 56.7055 27.2661 56.0789 29.4599C55.139 31.9672 54.1991 34.7878 50.4397 34.7878C46.9935 34.7878 45.1138 31.9672 45.1138 28.2063C45.1138 26.0125 45.7403 24.4455 46.0536 23.8187C46.3669 23.5053 46.3669 23.1919 46.9935 23.1919C47.3068 23.1919 47.62 23.5053 47.62 23.8187C47.62 24.4455 47.3068 24.4455 47.3068 25.0723Z" fill="black"></path><path d="M50.4401 36.0414C46.6806 36.0414 44.1743 33.2208 44.1743 28.8332C44.1743 26.326 44.8009 24.759 45.1142 24.1321C45.4275 23.8187 45.7408 22.8785 46.6806 22.8785C47.6205 22.8785 48.2471 23.5053 48.2471 24.4456C48.2471 24.759 48.2471 25.0724 47.9338 25.3858V25.6992C47.3072 26.6394 47.3072 27.893 47.3072 28.8332C47.3072 29.7734 47.6205 32.9074 50.4401 32.9074C52.6331 32.9074 52.9464 31.6538 53.8862 29.1466C54.8261 26.9528 55.766 23.5053 59.8387 23.5053C62.6583 23.5053 65.7912 25.6992 65.7912 30.0868C65.7912 31.3404 65.4779 32.594 64.8513 33.8476C64.538 34.4744 63.9115 34.7878 63.2849 34.7878C62.345 34.7878 61.7184 34.161 61.7184 33.2208C61.7184 32.9074 61.7185 32.594 62.0317 31.9672C62.345 31.6538 62.6583 30.7136 62.6583 29.46C62.6583 27.2662 61.0919 26.326 59.8387 26.326C57.959 26.326 57.6457 27.5796 56.7059 29.7734C55.766 32.594 54.5128 36.0414 50.4401 36.0414ZM48.2471 33.8476C48.8737 34.161 49.5002 34.4744 50.4401 34.4744C51.6932 34.4744 52.6331 34.161 53.2597 33.5342C52.6331 34.161 51.6932 34.4744 50.4401 34.4744C49.5002 34.161 48.5604 34.161 48.2471 33.8476ZM63.5982 33.2208C63.2849 33.2208 63.2849 33.2208 63.5982 33.2208L64.2248 33.5342L63.5982 33.2208ZM59.8387 25.0724C58.5856 25.0724 57.959 25.3858 57.3324 26.0126C57.959 25.3858 58.5856 25.0724 59.8387 25.0724C60.7786 25.0724 61.7185 25.3858 62.3451 25.6992C61.4052 25.0724 60.4653 25.0724 59.8387 25.0724Z" fill="black"></path><path d="M54.8251 42.6228C60.4642 42.6228 64.8503 46.3836 64.8503 52.6517C64.8503 54.8455 64.2237 56.7259 63.5971 57.6661C63.2839 57.9795 62.9706 58.2929 62.9706 58.2929C62.6573 58.2929 62.344 57.9795 62.344 57.6661C62.344 57.3527 62.344 57.3527 62.6573 57.0393C63.5971 55.4723 63.5971 53.5919 63.5971 52.9651C63.5971 47.9506 59.8377 44.5032 55.1384 44.5032C51.0656 44.5032 46.6796 47.3238 46.6796 53.2785C46.6796 55.1589 46.9928 56.0991 47.6194 57.3527L47.9327 58.2929C47.9327 58.6063 47.6194 58.9197 47.3061 58.9197C46.9929 58.9197 46.6796 58.6063 46.6796 58.2929C45.7397 56.4125 45.4264 54.2187 45.4264 52.9651C44.7998 46.3836 49.4991 42.6228 54.8251 42.6228Z" fill="black"></path><path d="M46.6805 59.5466C46.3672 59.5466 45.7406 59.2332 45.114 58.6064C44.1742 56.4126 43.8608 54.2188 43.8608 52.9652C43.8608 46.3837 48.2469 41.9961 54.5127 41.9961C60.7784 41.9961 65.1645 46.6971 65.1645 52.9652C65.1645 55.159 64.5379 57.0394 63.9113 58.6064C63.598 59.2332 62.9714 59.5466 62.6581 59.5466C61.7183 59.5466 61.0917 58.9198 61.0917 57.9796C61.0917 57.6662 61.0917 57.3528 61.405 57.0394C62.3449 55.4724 62.3449 53.9054 62.3449 52.9652C62.3449 48.5775 59.212 45.1301 54.5127 45.1301C50.7532 45.1301 46.6805 47.6373 46.6805 52.9652C46.6805 54.8456 46.9937 55.7858 47.307 56.726C47.6203 57.6662 47.6203 57.6662 47.6203 57.9796C48.2469 58.6064 47.6203 59.5466 46.6805 59.5466ZM54.8259 43.2497C57.3322 43.2497 59.8386 44.1899 61.405 45.7569C59.8386 44.1899 57.6455 43.2497 54.8259 43.2497C52.6329 43.2497 50.4399 43.8765 48.5602 45.4435C50.4399 44.1899 52.6329 43.2497 54.8259 43.2497Z" fill="black"></path><path d="M46.3669 77.7237C46.0536 78.0371 46.0536 78.0371 45.7403 78.0371C45.427 78.0371 45.1138 77.7237 45.1138 77.0969C45.1138 76.7835 45.427 76.4701 45.7403 76.4701L54.5124 69.8887V67.6949H46.0536C45.427 67.6949 45.1138 67.0681 45.1138 66.7547C45.1138 66.1279 45.427 65.8145 46.0536 65.8145H62.3447C63.2845 65.8145 64.8509 65.8145 64.8509 68.0083V71.4557C64.8509 75.5299 62.6579 77.0969 59.525 77.0969C57.332 77.0969 54.5124 75.8433 54.1991 71.4557L46.3669 77.7237ZM55.4523 71.1423C55.4523 72.3959 55.4523 76.1567 59.2118 76.1567C62.9712 76.1567 62.9712 72.7093 62.9712 71.1423V68.9485C62.9712 68.3217 62.6579 68.0083 62.0314 68.0083H55.4523V71.1423V71.1423Z" fill="black"></path><path d="M45.7408 78.9773C44.8009 78.9773 44.1743 78.0371 44.1743 77.4103C44.1743 76.7835 44.8009 76.4701 45.1142 76.1567L53.573 69.8887V68.9485H46.054C45.1142 68.9485 44.4876 68.0083 44.4876 67.3815C44.4876 66.4413 45.1142 65.8145 46.054 65.8145H62.3451C64.5381 65.8145 65.4779 66.7547 65.4779 68.6351V72.0825C65.4779 76.7835 62.345 78.6639 59.5254 78.6639C57.0191 78.6639 54.1995 77.4103 53.573 73.6495L46.9939 78.6639L46.3673 78.0371L46.6806 78.6639C46.3673 78.6639 46.054 78.9773 45.7408 78.9773ZM46.054 77.0969L46.6806 77.7237L46.054 77.0969ZM57.959 76.4701C58.5856 76.4701 58.8989 76.7835 59.2122 76.7835C59.8387 76.7835 60.4653 76.7835 61.0919 76.4701C60.4653 76.7835 59.2121 76.7835 57.959 76.4701ZM56.3925 68.6351V71.1423C56.3925 73.0227 56.7058 75.2165 59.5254 75.2165C62.0317 75.2165 62.3451 73.6495 62.3451 71.1423V68.9485C62.3451 68.9485 62.3451 68.9485 62.3451 68.6351C62.3451 68.6351 62.345 68.6351 62.0317 68.6351H56.3925ZM54.8261 67.0681H62.0317C62.9716 67.0681 63.2849 67.3815 63.5982 68.0083C63.2849 67.3815 62.9716 67.0681 62.0317 67.0681H45.7408H54.8261Z" fill="black"></path><path d="M64.8522 94.6476C64.8522 100.289 60.7795 104.677 54.827 104.677C48.8745 104.677 44.8018 100.289 44.8018 94.6476C44.8018 89.0064 48.8745 84.6188 54.827 84.6188C60.7795 84.6188 64.8522 89.0064 64.8522 94.6476ZM46.3682 94.6476C46.3682 99.3487 50.1277 103.11 54.827 103.11C59.5263 103.11 63.2858 99.3487 63.2858 94.6476C63.2858 89.9466 59.5263 86.1858 54.827 86.1858C50.1277 86.1858 46.3682 89.6332 46.3682 94.6476Z" fill="black"></path><path d="M54.8261 105.303C48.5603 105.303 44.1743 100.602 44.1743 94.6476C44.1743 88.693 48.8736 83.9919 54.8261 83.9919C60.7786 83.9919 65.4779 88.693 65.4779 94.6476C65.4779 100.602 61.0919 105.303 54.8261 105.303ZM47.3072 99.6621C48.8736 102.169 51.6932 103.736 55.1394 103.736C58.5856 103.736 61.4052 102.169 62.9716 99.6621C61.4052 102.169 58.5856 103.736 55.1394 103.736C51.6932 103.736 48.8736 102.169 47.3072 99.6621ZM54.8261 86.8126C50.4401 86.8126 46.9939 89.9466 46.9939 94.3342C46.9939 98.7218 50.4401 101.856 54.8261 101.856C59.2121 101.856 62.6583 98.4084 62.6583 94.3342C62.6583 90.26 59.2121 86.8126 54.8261 86.8126ZM54.8261 85.2456C57.959 85.2456 60.7786 86.8126 62.6583 89.3198C61.0919 86.8126 58.2723 85.2456 54.8261 85.2456C51.3799 85.2456 48.5603 86.8126 46.9939 89.3198C48.8736 86.8126 51.6932 85.2456 54.8261 85.2456Z" fill="black"></path><path d="M45.4272 114.705C45.4272 112.511 46.9937 112.511 47.9336 112.511H64.2246C64.8512 112.511 65.1645 112.825 65.1645 113.452C65.1645 114.078 64.8512 114.392 64.2246 114.392H47.9336C46.9937 114.392 46.9937 114.705 46.9937 115.332V121.287C46.9937 121.914 46.6804 121.914 46.3671 121.914C46.0538 121.914 45.7406 121.6 45.7406 121.287V114.705H45.4272Z" fill="black"></path><path d="M46.0542 122.54C45.1144 122.54 44.4878 121.914 44.4878 120.973V114.705C44.4878 112.825 45.4277 111.885 47.6207 111.885H63.9117C64.8515 111.885 65.4781 112.825 65.4781 113.452C65.4781 114.392 64.8515 115.019 63.9117 115.019H47.6207C47.6207 115.019 47.6207 115.019 47.3074 115.019C47.3074 115.019 47.3074 115.019 47.3074 115.332V121.287C47.6207 121.914 46.6808 122.54 46.0542 122.54ZM47.6207 113.138C46.6808 113.138 46.0542 113.138 46.0542 114.079C46.3675 113.452 46.9941 113.138 47.6207 113.138H63.9117H47.6207Z" fill="black"></path><path d="M45.4272 131.002C45.4272 128.808 46.9937 128.808 47.9336 128.808H64.2246C64.8512 128.808 65.1645 129.122 65.1645 129.749C65.1645 130.375 64.8512 130.689 64.2246 130.689H47.9336C46.9937 130.689 46.9937 131.002 46.9937 131.629V137.584C46.9937 138.21 46.6804 138.21 46.3671 138.21C46.0538 138.21 45.7406 137.897 45.7406 137.584V131.002H45.4272Z" fill="black"></path><path d="M46.0542 138.837C45.1144 138.837 44.4878 138.21 44.4878 137.27V131.002C44.4878 129.122 45.4277 128.182 47.6207 128.182H63.9117C64.8515 128.182 65.4781 129.122 65.4781 129.749C65.4781 130.689 64.8515 131.316 63.9117 131.316H47.6207C47.6207 131.316 47.6207 131.316 47.3074 131.316C47.3074 131.316 47.3074 131.316 47.3074 131.629V137.584C47.6207 138.524 46.6808 138.837 46.0542 138.837ZM47.6207 129.749C46.6808 129.749 46.0542 129.749 46.0542 130.689C46.3675 130.062 46.9941 129.749 47.6207 129.749H63.9117H47.6207Z" fill="black"></path></svg> 