<?xml version="1.0" encoding="UTF-8"?> <svg xmlns="http://www.w3.org/2000/svg" width="274" height="163" viewBox="0 0 274 163" fill="none"><path d="M41.1394 21.372C40.879 21.1113 40.6186 20.8507 40.0979 20.8507C39.5771 20.8507 39.3167 21.1113 39.0563 21.372L35.1506 27.3665L33.0677 24.7602C32.8073 24.4995 32.5469 24.2389 32.0262 24.2389C31.7658 24.2389 31.2451 24.4995 30.9847 24.7602L27.3394 30.494H47.3884L41.1394 21.372Z" fill="#4C4B4C"></path><path d="M32.8073 22.675C34.1092 22.675 35.4111 21.6325 35.4111 20.0687C35.4111 18.7656 34.3696 17.4624 32.8073 17.4624C31.5055 17.4624 30.2036 18.5049 30.2036 20.0687C30.2036 21.6325 31.2451 22.675 32.8073 22.675Z" fill="#4C4B4C"></path><path d="M65.0939 47.6954H7.55085C4.16596 47.6954 1.30176 44.8285 1.30176 41.4403V7.55824C1.30176 4.17004 4.16596 1.3031 7.55085 1.3031H65.0939C68.4788 1.3031 71.343 4.17004 71.343 7.55824V41.4403C71.343 44.8285 68.4788 47.6954 65.0939 47.6954ZM7.55085 3.90941C5.46784 3.90941 3.90552 5.4732 3.90552 7.55824V41.4403C3.90552 43.5253 5.46784 45.0891 7.55085 45.0891H65.0939C67.1769 45.0891 68.7393 43.5253 68.7393 41.4403V7.55824C68.7393 5.4732 67.1769 3.90941 65.0939 3.90941H7.55085V3.90941Z" fill="black"></path><path d="M65.094 48.9986H7.55097C3.38495 48.9986 0 45.6104 0 41.4403V7.5583C0 3.3882 3.38495 0 7.55097 0H65.094C69.26 0 72.645 3.3882 72.645 7.5583V41.4403C72.645 45.6104 69.26 48.9986 65.094 48.9986ZM7.55097 2.60631C4.68683 2.60631 2.60376 4.95199 2.60376 7.5583V41.4403C2.60376 44.0466 4.94721 46.3923 7.55097 46.3923H65.094C67.9581 46.3923 70.0412 44.0466 70.0412 41.4403V7.5583C70.0412 4.95199 67.6978 2.60631 65.094 2.60631H7.55097V2.60631ZM65.094 46.3923H7.55097C4.94721 46.3923 2.60376 44.0466 2.60376 41.4403V7.5583C2.60376 4.95199 4.94721 2.60631 7.55097 2.60631H65.094C67.6978 2.60631 70.0412 4.95199 70.0412 7.5583V41.4403C70.0412 44.0466 67.6978 46.3923 65.094 46.3923ZM7.55097 5.21262C6.24909 5.21262 5.20752 6.25514 5.20752 7.5583V41.4403C5.20752 42.7435 6.24909 43.786 7.55097 43.786H65.094C66.3959 43.786 67.4374 42.7435 67.4374 41.4403V7.5583C67.4374 6.25514 66.3959 5.21262 65.094 5.21262H7.55097V5.21262Z" fill="black"></path><path d="M119.513 21.372C119.253 21.1113 118.992 20.8507 118.471 20.8507C117.951 20.8507 117.69 21.1113 117.43 21.372L113.524 27.3665L111.441 24.7602C111.181 24.4995 110.92 24.2389 110.4 24.2389C110.139 24.2389 109.619 24.4995 109.358 24.7602L105.713 30.494H125.762L119.513 21.372Z" fill="#4C4B4C"></path><path d="M111.181 22.675C112.483 22.675 113.785 21.6325 113.785 20.0687C113.785 18.7656 112.743 17.4624 111.181 17.4624C109.879 17.4624 108.577 18.5049 108.577 20.0687C108.577 21.6325 109.879 22.675 111.181 22.675Z" fill="#4C4B4C"></path><path d="M143.467 47.6954H85.9238C82.5389 47.6954 79.6748 44.8285 79.6748 41.4403V7.55824C79.6748 4.17004 82.5389 1.3031 85.9238 1.3031H143.467C146.852 1.3031 149.716 4.17004 149.716 7.55824V41.4403C149.716 44.8285 146.852 47.6954 143.467 47.6954ZM85.9238 3.90941C83.8408 3.90941 82.2786 5.4732 82.2786 7.55824V41.4403C82.2786 43.5253 83.8408 45.0891 85.9238 45.0891H143.467C145.55 45.0891 147.112 43.5253 147.112 41.4403V7.55824C147.112 5.4732 145.55 3.90941 143.467 3.90941H85.9238V3.90941Z" fill="black"></path><path d="M143.467 48.9986H85.9239C81.7579 48.9986 78.373 45.6104 78.373 41.4403V7.5583C78.373 3.3882 81.7579 0 85.9239 0H143.467C147.633 0 151.018 3.3882 151.018 7.5583V41.4403C151.018 45.6104 147.633 48.9986 143.467 48.9986ZM85.9239 2.60631C83.0598 2.60631 80.9768 4.95199 80.9768 7.5583V41.4403C80.9768 44.0466 83.3202 46.3923 85.9239 46.3923H143.467C146.331 46.3923 148.414 44.0466 148.414 41.4403V7.5583C148.414 4.95199 146.071 2.60631 143.467 2.60631H85.9239V2.60631ZM143.467 46.3923H85.9239C83.3202 46.3923 80.9768 44.0466 80.9768 41.4403V7.5583C80.9768 4.95199 83.3202 2.60631 85.9239 2.60631H143.467C146.071 2.60631 148.414 4.95199 148.414 7.5583V41.4403C148.414 44.0466 146.071 46.3923 143.467 46.3923ZM85.9239 5.21262C84.6221 5.21262 83.5806 6.25514 83.5806 7.5583V41.4403C83.5806 42.7435 84.6221 43.786 85.9239 43.786H143.467C144.769 43.786 145.81 42.7435 145.81 41.4403V7.5583C145.81 6.25514 144.769 5.21262 143.467 5.21262H85.9239V5.21262Z" fill="black"></path><path d="M199.969 21.372C199.708 21.1113 199.448 20.8507 198.927 20.8507C198.407 20.8507 198.146 21.1113 197.886 21.372L193.98 27.3665L191.897 24.7602C191.637 24.4995 191.376 24.2389 190.856 24.2389C190.595 24.2389 190.075 24.4995 189.814 24.7602L186.169 30.494H206.218L199.969 21.372Z" fill="#4C4B4C"></path><path d="M191.637 22.675C192.939 22.675 194.241 21.6325 194.241 20.0687C194.241 18.7656 193.199 17.4624 191.637 17.4624C190.335 17.4624 189.033 18.5049 189.033 20.0687C189.033 21.6325 190.335 22.675 191.637 22.675Z" fill="#4C4B4C"></path><path d="M223.924 47.6954H166.38C162.996 47.6954 160.131 44.8285 160.131 41.4403V7.55824C160.131 4.17004 162.996 1.3031 166.38 1.3031H223.924C227.308 1.3031 230.173 4.17004 230.173 7.55824V41.4403C230.173 44.8285 227.308 47.6954 223.924 47.6954ZM166.38 3.90941C164.297 3.90941 162.735 5.4732 162.735 7.55824V41.4403C162.735 43.5253 164.297 45.0891 166.38 45.0891H223.924C226.007 45.0891 227.569 43.5253 227.569 41.4403V7.55824C227.569 5.4732 226.007 3.90941 223.924 3.90941H166.38V3.90941Z" fill="black"></path><path d="M223.924 48.9986H166.381C162.215 48.9986 158.83 45.6104 158.83 41.4403V7.5583C158.83 3.3882 162.215 0 166.381 0H223.924C228.09 0 231.475 3.3882 231.475 7.5583V41.4403C231.475 45.6104 228.09 48.9986 223.924 48.9986ZM166.381 2.60631C163.516 2.60631 161.433 4.95199 161.433 7.5583V41.4403C161.433 44.0466 163.777 46.3923 166.381 46.3923H223.924C226.788 46.3923 228.871 44.0466 228.871 41.4403V7.5583C228.871 4.95199 226.527 2.60631 223.924 2.60631H166.381V2.60631ZM223.924 46.3923H166.381C163.777 46.3923 161.433 44.0466 161.433 41.4403V7.5583C161.433 4.95199 163.777 2.60631 166.381 2.60631H223.924C226.527 2.60631 228.871 4.95199 228.871 7.5583V41.4403C228.871 44.0466 226.527 46.3923 223.924 46.3923ZM166.381 5.21262C165.079 5.21262 164.037 6.25514 164.037 7.5583V41.4403C164.037 42.7435 165.079 43.786 166.381 43.786H223.924C225.225 43.786 226.267 42.7435 226.267 41.4403V7.5583C226.267 6.25514 225.225 5.21262 223.924 5.21262H166.381V5.21262Z" fill="black"></path><path d="M41.1394 79.232C40.879 78.9713 40.6186 78.7107 40.0979 78.7107C39.5771 78.7107 39.3167 78.9713 39.0563 79.232L35.1506 85.2265L33.0677 82.6202C32.8073 82.3595 32.5469 82.0989 32.0262 82.0989C31.7658 82.0989 31.2451 82.3595 30.9847 82.6202L27.3394 88.354H47.3884L41.1394 79.232Z" fill="#4C4B4C"></path><path d="M32.8073 80.535C34.1092 80.535 35.4111 79.4925 35.4111 77.9287C35.4111 76.6255 34.3696 75.3224 32.8073 75.3224C31.5055 75.3224 30.2036 76.3649 30.2036 77.9287C30.2036 79.2319 31.2451 80.535 32.8073 80.535Z" fill="#4C4B4C"></path><path d="M65.0939 105.556H7.55085C4.16596 105.556 1.30176 102.689 1.30176 99.3005V65.4185C1.30176 62.0303 4.16596 59.1633 7.55085 59.1633H65.0939C68.4788 59.1633 71.343 62.0303 71.343 65.4185V99.3005C71.343 102.689 68.4788 105.556 65.0939 105.556ZM7.55085 61.7696C5.46784 61.7696 3.90552 63.3334 3.90552 65.4185V99.3005C3.90552 101.386 5.46784 102.949 7.55085 102.949H65.0939C67.1769 102.949 68.7393 101.386 68.7393 99.3005V65.4185C68.7393 63.3334 67.1769 61.7696 65.0939 61.7696H7.55085Z" fill="black"></path><path d="M65.094 106.859H7.55097C3.38495 106.859 0 103.471 0 99.3006V65.4185C0 61.2484 3.38495 57.8602 7.55097 57.8602H65.094C69.26 57.8602 72.645 61.2484 72.645 65.4185V99.3006C72.645 103.471 69.26 106.859 65.094 106.859ZM7.55097 60.4665C4.68683 60.4665 2.60376 62.8122 2.60376 65.4185V99.3006C2.60376 101.907 4.94721 104.253 7.55097 104.253H65.094C67.9581 104.253 70.0412 101.907 70.0412 99.3006V65.4185C70.0412 62.8122 67.6978 60.4665 65.094 60.4665H7.55097ZM65.094 104.253H7.55097C4.94721 104.253 2.60376 101.907 2.60376 99.3006V65.4185C2.60376 62.8122 4.94721 60.4665 7.55097 60.4665H65.094C67.6978 60.4665 70.0412 62.8122 70.0412 65.4185V99.3006C70.0412 101.907 67.6978 104.253 65.094 104.253ZM7.55097 63.0728C6.24909 63.0728 5.20752 64.1154 5.20752 65.4185V99.3006C5.20752 100.604 6.24909 101.646 7.55097 101.646H65.094C66.3959 101.646 67.4374 100.604 67.4374 99.3006V65.4185C67.4374 64.1154 66.3959 63.0728 65.094 63.0728H7.55097Z" fill="black"></path><path d="M119.513 79.232C119.253 78.9713 118.992 78.7107 118.471 78.7107C117.951 78.7107 117.69 78.9713 117.43 79.232L113.524 85.2265L111.441 82.6202C111.181 82.3595 110.92 82.0989 110.4 82.0989C110.139 82.0989 109.619 82.3595 109.358 82.6202L105.713 88.354H125.762L119.513 79.232Z" fill="#4C4B4C"></path><path d="M111.181 80.535C112.483 80.535 113.785 79.4925 113.785 77.9287C113.785 76.6255 112.743 75.3224 111.181 75.3224C109.879 75.3224 108.577 76.3649 108.577 77.9287C108.577 79.2319 109.879 80.535 111.181 80.535Z" fill="#4C4B4C"></path><path d="M143.467 105.556H85.9238C82.5389 105.556 79.6748 102.689 79.6748 99.3005V65.4185C79.6748 62.0303 82.5389 59.1633 85.9238 59.1633H143.467C146.852 59.1633 149.716 62.0303 149.716 65.4185V99.3005C149.716 102.689 146.852 105.556 143.467 105.556ZM85.9238 61.7696C83.8408 61.7696 82.2786 63.3334 82.2786 65.4185V99.3005C82.2786 101.386 83.8408 102.949 85.9238 102.949H143.467C145.55 102.949 147.112 101.386 147.112 99.3005V65.4185C147.112 63.3334 145.55 61.7696 143.467 61.7696H85.9238Z" fill="black"></path><path d="M143.467 106.859H85.9239C81.7579 106.859 78.373 103.471 78.373 99.3006V65.4185C78.373 61.2484 81.7579 57.8602 85.9239 57.8602H143.467C147.633 57.8602 151.018 61.2484 151.018 65.4185V99.3006C151.018 103.471 147.633 106.859 143.467 106.859ZM85.9239 60.4665C83.0598 60.4665 80.9768 62.8122 80.9768 65.4185V99.3006C80.9768 101.907 83.3202 104.253 85.9239 104.253H143.467C146.331 104.253 148.414 101.907 148.414 99.3006V65.4185C148.414 62.8122 146.071 60.4665 143.467 60.4665H85.9239ZM143.467 104.253H85.9239C83.3202 104.253 80.9768 101.907 80.9768 99.3006V65.4185C80.9768 62.8122 83.3202 60.4665 85.9239 60.4665H143.467C146.071 60.4665 148.414 62.8122 148.414 65.4185V99.3006C148.414 101.907 146.071 104.253 143.467 104.253ZM85.9239 63.0728C84.6221 63.0728 83.5806 64.1154 83.5806 65.4185V99.3006C83.5806 100.604 84.6221 101.646 85.9239 101.646H143.467C144.769 101.646 145.81 100.604 145.81 99.3006V65.4185C145.81 64.1154 144.769 63.0728 143.467 63.0728H85.9239Z" fill="black"></path><path d="M199.969 79.232C199.708 78.9713 199.448 78.7107 198.927 78.7107C198.407 78.7107 198.146 78.9713 197.886 79.232L193.98 85.2265L191.897 82.6202C191.637 82.3595 191.376 82.0989 190.856 82.0989C190.595 82.0989 190.075 82.3595 189.814 82.6202L186.169 88.354H206.218L199.969 79.232Z" fill="#4C4B4C"></path><path d="M191.637 80.535C192.939 80.535 194.241 79.4925 194.241 77.9287C194.241 76.6255 193.199 75.3224 191.637 75.3224C190.335 75.3224 189.033 76.3649 189.033 77.9287C189.033 79.2319 190.335 80.535 191.637 80.535Z" fill="#4C4B4C"></path><path d="M223.924 105.556H166.38C162.996 105.556 160.131 102.689 160.131 99.3005V65.4185C160.131 62.0303 162.996 59.1633 166.38 59.1633H223.924C227.308 59.1633 230.173 62.0303 230.173 65.4185V99.3005C230.173 102.689 227.308 105.556 223.924 105.556ZM166.38 61.7696C164.297 61.7696 162.735 63.3334 162.735 65.4185V99.3005C162.735 101.386 164.297 102.949 166.38 102.949H223.924C226.007 102.949 227.569 101.386 227.569 99.3005V65.4185C227.569 63.3334 226.007 61.7696 223.924 61.7696H166.38Z" fill="black"></path><path d="M223.924 106.859H166.381C162.215 106.859 158.83 103.471 158.83 99.3006V65.4185C158.83 61.2484 162.215 57.8602 166.381 57.8602H223.924C228.09 57.8602 231.475 61.2484 231.475 65.4185V99.3006C231.475 103.471 228.09 106.859 223.924 106.859ZM166.381 60.4665C163.516 60.4665 161.433 62.8122 161.433 65.4185V99.3006C161.433 101.907 163.777 104.253 166.381 104.253H223.924C226.788 104.253 228.871 101.907 228.871 99.3006V65.4185C228.871 62.8122 226.527 60.4665 223.924 60.4665H166.381ZM223.924 104.253H166.381C163.777 104.253 161.433 101.907 161.433 99.3006V65.4185C161.433 62.8122 163.777 60.4665 166.381 60.4665H223.924C226.527 60.4665 228.871 62.8122 228.871 65.4185V99.3006C228.871 101.907 226.527 104.253 223.924 104.253ZM166.381 63.0728C165.079 63.0728 164.037 64.1154 164.037 65.4185V99.3006C164.037 100.604 165.079 101.646 166.381 101.646H223.924C225.225 101.646 226.267 100.604 226.267 99.3006V65.4185C226.267 64.1154 225.225 63.0728 223.924 63.0728H166.381Z" fill="black"></path><path d="M261.418 138.395C260.636 138.395 260.116 137.874 260.116 137.092V56.2964C260.116 55.5145 260.636 54.9933 261.418 54.9933C262.199 54.9933 262.719 55.5145 262.719 56.2964V137.092C262.719 137.874 261.938 138.395 261.418 138.395Z" fill="black"></path><path d="M261.418 139.698C259.855 139.698 258.814 138.656 258.814 137.092V56.2965C258.814 54.9933 259.855 53.6902 261.418 53.6902C262.98 53.6902 264.021 54.7327 264.021 56.2965V137.092C264.021 138.656 262.72 139.698 261.418 139.698ZM261.418 56.2965V137.092V56.2965Z" fill="black"></path><path d="M251.002 129.013L252.825 127.188L261.418 136.31L269.75 127.188L271.833 129.013L261.418 139.959L251.002 129.013Z" fill="black"></path><path d="M261.418 141.784L248.92 128.752L252.826 125.364L261.418 134.225L269.75 125.364L273.656 128.752L261.418 141.784Z" fill="black"></path><path d="M103.63 145.953C106.218 145.953 108.316 143.853 108.316 141.262C108.316 138.671 106.218 136.571 103.63 136.571C101.041 136.571 98.9429 138.671 98.9429 141.262C98.9429 143.853 101.041 145.953 103.63 145.953Z" fill="black"></path><path d="M113.264 137.092C115.852 137.092 117.951 134.991 117.951 132.4C117.951 129.809 115.852 127.709 113.264 127.709C110.675 127.709 108.577 129.809 108.577 132.4C108.577 134.991 110.675 137.092 113.264 137.092Z" fill="black"></path><path d="M126.542 141.783C129.131 141.783 131.229 139.683 131.229 137.092C131.229 134.501 129.131 132.401 126.542 132.401C123.954 132.401 121.855 134.501 121.855 137.092C121.855 139.683 123.954 141.783 126.542 141.783Z" fill="black"></path><path d="M129.406 154.293C131.995 154.293 134.093 152.193 134.093 149.602C134.093 147.011 131.995 144.911 129.406 144.911C126.818 144.911 124.72 147.011 124.72 149.602C124.72 152.193 126.818 154.293 129.406 154.293Z" fill="black"></path><path d="M119.513 162.894C122.101 162.894 124.2 160.794 124.2 158.203C124.2 155.612 122.101 153.512 119.513 153.512C116.925 153.512 114.826 155.612 114.826 158.203C114.826 160.794 116.925 162.894 119.513 162.894Z" fill="black"></path><path d="M106.494 158.985C109.082 158.985 111.181 156.884 111.181 154.294C111.181 151.703 109.082 149.602 106.494 149.602C103.905 149.602 101.807 151.703 101.807 154.294C101.807 156.884 103.905 158.985 106.494 158.985Z" fill="black"></path></svg> 