<?xml version="1.0" encoding="UTF-8"?> <svg xmlns="http://www.w3.org/2000/svg" width="137" height="165" viewBox="0 0 137 165" fill="none"><path d="M63.8751 41.4973H56.5332V91.4408H63.8751V41.4973Z" fill="black"></path><path d="M2.937 21.6668C4.4054 22.4012 5.87383 22.7685 6.97513 22.7685C9.54483 22.7685 12.8487 21.6668 12.8487 17.9945C12.8487 14.6894 10.6461 13.9549 8.07639 13.2205C5.50668 12.1188 1.83569 11.0171 1.83569 7.34474C1.83569 4.03966 4.4054 1.10181 8.44351 1.10181C9.91191 1.10181 11.3803 1.46904 12.4816 2.2035C12.8487 2.2035 13.2158 2.57073 13.2158 2.93796C13.2158 3.3052 12.8487 3.67243 12.4816 3.67243C12.4816 3.67243 12.1145 3.67243 11.3803 3.3052C10.6461 2.93796 9.54479 2.57073 8.07639 2.57073C4.77248 2.57073 3.30412 4.77412 3.30412 6.97751C3.30412 9.91537 5.50668 10.6498 8.07639 11.3843C11.0132 12.486 14.3171 13.5877 14.3171 17.9945C14.3171 22.034 11.0132 24.2374 6.60801 24.2374C4.0383 24.2374 2.20282 23.5029 1.46862 23.1357C1.10152 22.7685 0.734375 22.7685 0.734375 22.034C0.734375 21.6668 1.10152 21.2995 1.46862 21.2995C2.20282 21.2995 2.2028 21.6668 2.937 21.6668Z" fill="black"></path><path d="M6.97487 25.339C4.0381 25.339 2.20261 24.6045 1.46842 24.2373C1.10132 23.8701 0 23.5028 0 22.4011C0 21.2994 0.734193 20.565 1.83548 20.565C2.20258 20.565 2.56969 20.565 2.93678 20.9322H3.3039C4.40519 21.6667 5.87358 21.6667 6.97487 21.6667C8.07616 21.6667 11.7471 21.2994 11.7471 17.9944C11.7471 15.4237 10.2787 15.0565 7.34193 13.9548C4.77226 12.8531 0.734182 11.7514 0.734182 6.9774C0.734182 3.67232 3.30388 0 8.44323 0C9.91162 0 11.38 0.367231 12.8484 1.10169C13.5826 1.46893 13.9497 2.20339 13.9497 2.93785C13.9497 4.03955 13.2155 4.77401 12.1142 4.77401C11.7471 4.77401 11.38 4.77401 10.6458 4.40678C10.2787 4.03955 9.17744 3.67232 7.70905 3.67232C5.13938 3.67232 4.03809 5.50847 4.03809 6.9774C4.03809 9.18079 5.50644 9.54802 8.07612 10.6497C10.6458 11.7514 14.6839 13.2203 14.6839 17.9944C15.4181 22.4011 12.1142 25.339 6.97487 25.339ZM12.4813 14.6893C13.2155 15.4237 13.5826 16.5254 13.5826 17.9944C13.5826 19.096 13.2155 19.8305 12.8484 20.565C13.2155 19.8305 13.5826 19.096 13.5826 17.9944C13.5826 16.5254 13.2155 15.4237 12.4813 14.6893ZM3.67097 4.40678C2.93677 5.14124 2.93678 6.24294 2.93678 7.34463C2.93678 8.81356 3.30389 9.54802 4.03809 10.2825C3.30389 9.54802 2.93678 8.44633 2.93678 6.9774C2.93678 6.24294 2.93677 5.14124 3.67097 4.40678ZM12.4813 2.93785L12.8484 2.20339L12.4813 2.93785Z" fill="black"></path><path d="M23.4937 12.853C23.4937 6.2428 27.8988 1.10156 35.2408 1.10156C37.8105 1.10156 40.013 1.83603 41.1143 2.57049C41.4814 2.93772 41.8486 3.30495 41.8486 3.30495C41.8486 3.67218 41.4814 4.03942 41.1143 4.03942C40.7472 4.03942 40.7472 4.03941 40.3801 3.67218C38.5447 2.57049 36.3421 2.57049 35.6079 2.57049C29.7343 2.57049 25.6962 6.97727 25.6962 12.4857C25.6962 17.2598 29.0001 22.401 35.975 22.401C38.1776 22.401 39.2789 22.0338 40.7473 21.2993L41.8486 20.9321C42.2157 20.9321 42.5828 21.2993 42.5828 21.6665C42.5828 22.0338 42.2157 22.401 41.8486 22.401C39.646 23.5027 37.0763 23.8699 35.6079 23.8699C27.5317 24.6044 23.4937 19.0959 23.4937 12.853Z" fill="black"></path><path d="M35.2415 25.3389C27.5324 25.3389 22.3931 20.1977 22.3931 12.8531C22.3931 5.50843 27.8995 0.367188 35.2415 0.367188C37.8112 0.367188 40.0138 1.10165 41.8493 1.83611C42.5835 2.20335 42.9506 2.93781 42.9506 3.30504C42.9506 4.40674 42.2164 5.1412 41.1151 5.1412C40.748 5.1412 40.3809 5.1412 40.0138 4.77397C38.1783 3.67227 36.3428 3.67227 35.2415 3.67227C30.1021 3.67227 26.0641 7.34459 26.0641 12.8531C26.0641 17.2598 29.0008 22.0339 35.2415 22.0339C37.4441 22.0339 38.5454 21.6666 39.6467 21.2994C40.748 20.9322 40.748 20.9322 41.1151 20.9322C41.8493 20.9322 42.9506 21.6666 42.9506 22.7683C42.9506 23.1355 42.5835 23.87 41.8493 24.6045C39.6467 25.3389 36.7099 25.3389 35.2415 25.3389ZM27.1654 5.1412C25.3299 6.97736 24.2286 9.91521 24.2286 12.8531C24.2286 15.4237 24.9627 17.9943 26.7982 20.1977C24.9627 17.9943 24.2286 15.4237 24.2286 12.8531C24.2286 9.54798 25.3299 6.97736 27.1654 5.1412ZM40.748 3.30504C41.1151 3.30504 41.1151 3.30504 40.748 3.30504C41.1151 3.30504 41.1151 3.30504 40.748 3.30504Z" fill="black"></path><path d="M64.6099 22.7682C64.977 23.1354 64.977 23.1354 64.977 23.5026C64.977 23.8699 64.6099 24.2371 63.8757 24.2371C63.5086 24.2371 63.1415 23.8699 63.1415 23.5026L55.4325 13.2202H52.8628V23.1354C52.8628 23.8699 52.1286 24.2371 51.7615 24.2371C51.0273 24.2371 50.6602 23.8699 50.6602 23.1354V4.4066C50.6602 3.30491 50.6601 1.46875 53.2298 1.46875H57.2679C62.0402 1.46875 63.8757 4.03937 63.8757 7.71169C63.8757 10.2823 62.4073 13.5874 57.2679 13.9546L64.6099 22.7682ZM56.9008 12.1185C58.3692 12.1185 62.7744 12.1185 62.7744 7.71169C62.7744 3.30491 58.7363 3.30491 56.9008 3.30491H54.3311C53.5969 3.30491 53.2298 3.67214 53.2298 4.4066V12.1185H56.9008Z" fill="black"></path><path d="M63.8757 25.3389C63.1415 25.3389 62.7744 24.6044 62.4073 24.2372L55.0653 14.3219H53.964V23.1355C53.964 24.2372 52.8627 24.9717 52.1285 24.9717C51.0272 24.9717 50.293 24.2372 50.293 23.1355V4.40669C50.293 1.83607 51.3943 0.734375 53.5969 0.734375H57.635C63.1414 0.734375 65.3441 4.40669 65.3441 7.71178C65.3441 10.6496 63.8756 13.9547 59.4704 14.6892L65.3441 22.401L64.6099 23.1355L65.3441 22.7683C65.7112 23.1355 66.0782 23.5027 66.0782 24.2372C66.0782 24.6044 64.977 25.3389 63.8757 25.3389ZM52.8627 2.57053C52.1285 2.93776 51.7614 3.305 51.7614 4.40669V23.5027V4.40669C52.1285 3.305 52.4956 2.93776 52.8627 2.57053ZM63.8757 23.1355L64.6099 22.7683L63.8757 23.1355ZM53.964 11.0169H56.9008C59.1034 11.0169 61.6731 10.6496 61.6731 7.34454C61.6731 4.40669 59.8376 4.03946 56.9008 4.03946H54.3311C54.3311 4.03946 54.3311 4.03946 53.964 4.03946C53.964 4.03946 53.964 4.03946 53.964 4.40669V11.0169V11.0169ZM63.1414 5.50838C63.5085 6.24285 63.5086 6.97731 63.5086 7.71178C63.5086 8.07901 63.5086 8.81347 63.5086 9.1807C63.5086 8.44624 63.8757 8.07901 63.8757 7.71178C63.5086 6.61008 63.1414 5.87562 63.1414 5.50838Z" fill="black"></path><path d="M84.066 1.10156C90.6738 1.10156 95.8131 5.87557 95.8131 12.853C95.8131 19.8304 90.6738 24.6044 84.066 24.6044C77.4583 24.6044 72.3188 19.8304 72.3188 12.853C72.3188 5.87557 77.8254 1.10156 84.066 1.10156ZM84.066 22.7682C89.5725 22.7682 93.9776 18.3614 93.9776 12.853C93.9776 7.3445 89.5725 2.93772 84.066 2.93772C78.5596 2.93772 74.1543 7.3445 74.1543 12.853C74.1543 18.3614 78.5596 22.7682 84.066 22.7682Z" fill="black"></path><path d="M84.0654 25.3389C76.7234 25.3389 71.584 19.8305 71.584 12.8531C71.584 5.87566 77.0905 0.367188 84.0654 0.367188C91.0402 0.367188 96.5467 5.87566 96.5467 12.8531C96.5467 19.8305 91.4073 25.3389 84.0654 25.3389ZM90.306 3.67227C93.2428 5.50843 95.0783 8.81351 95.0783 12.8531C95.0783 16.8926 93.2428 19.8305 90.306 22.0339C93.2428 20.1977 95.0783 16.8926 95.0783 12.8531C95.0783 8.81351 93.2428 5.50843 90.306 3.67227ZM78.1918 3.67227C75.255 5.50843 73.4195 8.81351 73.4195 12.8531C73.4195 16.8926 75.255 20.1977 78.1918 22.0339C75.255 20.1977 73.4195 16.8926 73.4195 12.8531C73.4195 8.81351 75.255 5.50843 78.1918 3.67227ZM84.0654 3.67227C78.926 3.67227 75.255 7.71182 75.255 12.8531C75.255 17.9943 78.926 22.0339 84.0654 22.0339C89.2047 22.0339 92.8757 17.9943 92.8757 12.8531C92.8757 7.71182 89.2047 3.67227 84.0654 3.67227Z" fill="black"></path><path d="M107.928 23.8699C105.358 23.8699 105.358 22.0338 105.358 20.9321V2.20326C105.358 1.46879 105.725 1.10156 106.459 1.10156C107.193 1.10156 107.561 1.46879 107.561 2.20326V21.2993C107.561 22.401 107.928 22.401 108.662 22.401H115.637C116.371 22.401 116.371 22.7682 116.371 23.1355C116.371 23.5027 116.004 23.8699 115.637 23.8699H107.928Z" fill="black"></path><path d="M115.269 24.9717H107.927C105.724 24.9717 104.623 23.87 104.623 21.2994V2.20335C104.623 1.10165 105.724 0.367188 106.459 0.367188C107.56 0.367188 108.294 1.10165 108.294 2.20335V21.2994C108.294 21.2994 108.294 21.2994 108.294 21.6666C108.294 21.6666 108.294 21.6666 108.661 21.6666H115.636C116.737 21.6666 117.471 22.4011 117.471 23.5028C117.104 24.2372 116.37 24.9717 115.269 24.9717ZM106.091 2.20335V21.2994C106.091 22.4011 106.091 23.1355 107.193 23.1355C106.458 22.7683 106.091 22.4011 106.091 21.2994V2.20335Z" fill="black"></path><path d="M127.017 23.8699C124.448 23.8699 124.448 22.0338 124.448 20.9321V2.20326C124.448 1.46879 124.815 1.10156 125.549 1.10156C126.283 1.10156 126.65 1.46879 126.65 2.20326V21.2993C126.65 22.401 127.017 22.401 127.752 22.401H134.726C135.461 22.401 135.461 22.7682 135.461 23.1355C135.461 23.5027 135.094 23.8699 134.726 23.8699H127.017Z" fill="black"></path><path d="M134.359 24.9717H127.017C124.814 24.9717 123.713 23.87 123.713 21.2994V2.20335C123.713 1.10165 124.814 0.367188 125.548 0.367188C126.65 0.367188 127.384 1.10165 127.384 2.20335V21.2994C127.384 21.2994 127.384 21.2994 127.384 21.6666C127.384 21.6666 127.384 21.6666 127.751 21.6666H134.726C135.827 21.6666 136.561 22.4011 136.561 23.5028C136.194 24.2372 135.46 24.9717 134.359 24.9717ZM125.548 2.20335V21.2994C125.548 22.4011 125.548 23.1355 126.65 23.1355C125.916 22.7683 125.548 22.4011 125.548 21.2994V2.20335Z" fill="black"></path><path d="M60.203 151.3C62.8386 151.3 64.9752 149.162 64.9752 146.526C64.9752 143.889 62.8386 141.752 60.203 141.752C57.5673 141.752 55.4307 143.889 55.4307 146.526C55.4307 149.162 57.5673 151.3 60.203 151.3Z" fill="black"></path><path d="M79.6603 164.153H42.2162C34.14 164.153 27.5322 157.543 27.5322 149.464V83.3619C27.5322 75.2828 34.14 68.6726 42.2162 68.6726H79.6603C87.7365 68.6726 94.3442 75.2828 94.3442 83.3619V149.464C94.3442 157.543 87.7365 164.153 79.6603 164.153ZM42.5833 75.65C38.5452 75.65 35.2413 78.9551 35.2413 82.9946V149.096C35.2413 153.136 38.5452 156.441 42.5833 156.441H80.0274C84.0655 156.441 87.3694 153.136 87.3694 149.096V82.9946C87.3694 78.9551 84.0655 75.65 80.0274 75.65H42.5833V75.65Z" fill="black"></path><path d="M60.9385 101.723C57.6346 101.723 55.0649 99.1526 55.0649 95.8475V86.6667C55.0649 83.3616 57.6346 80.791 60.9385 80.791C64.2424 80.791 66.812 83.3616 66.812 86.6667V95.8475C66.4449 99.1526 63.8753 101.723 60.9385 101.723ZM60.9385 84.8306C59.8372 84.8306 58.7359 85.9323 58.7359 87.034V96.2147C58.7359 97.3164 59.8372 98.4181 60.9385 98.4181C62.0398 98.4181 63.141 97.3164 63.141 96.2147V87.034C62.774 85.565 62.0398 84.8306 60.9385 84.8306Z" fill="black"></path></svg> 