<?xml version="1.0" encoding="UTF-8"?> <svg xmlns="http://www.w3.org/2000/svg" width="273" height="141" viewBox="0 0 273 141" fill="none"><path d="M83.993 3.18066H37.8896V135.711H83.993V3.18066Z" fill="#C3B68F"></path><path d="M239.261 3.18066H193.157V135.711H239.261V3.18066Z" fill="#C3B68F"></path><path d="M3.44458 71.566C3.44458 70.7708 3.9745 70.2407 4.76939 70.2407H109.164C109.959 70.2407 110.489 70.7708 110.489 71.566C110.489 72.3612 109.959 72.8913 109.164 72.8913H4.76939C3.9745 72.8913 3.44458 72.3612 3.44458 71.566Z" fill="black"></path><path d="M109.164 74.2167H4.76937C3.1796 74.2167 2.11975 73.1565 2.11975 71.5661C2.11975 69.9758 3.1796 68.9155 4.76937 68.9155H109.164C110.754 68.9155 111.814 69.9758 111.814 71.5661C111.814 73.1565 110.489 74.2167 109.164 74.2167ZM3.44456 71.5661H4.76937H3.44456Z" fill="black"></path><path d="M13.5132 60.9639L15.1029 63.0843L5.82928 71.5663L15.1029 80.3133L13.5132 82.4337L1.85486 71.5663L13.5132 60.9639Z" fill="black"></path><path d="M13.5131 84.2891L0 71.5662L13.5131 59.1084L16.9576 63.0843L7.68392 71.5662L16.9576 80.3132L13.5131 84.2891Z" fill="black"></path><path d="M51.1375 0H225.482C236.081 0 244.56 8.48193 244.56 19.0843V121.663C244.56 132.265 236.081 140.747 225.482 140.747H51.1375C40.5391 140.747 32.0603 132.265 32.0603 121.663V18.8193C32.0603 8.48193 40.5391 0 51.1375 0ZM225.482 132.53C231.577 132.53 236.611 127.494 236.611 121.398V18.8193C236.611 12.7229 231.577 7.68675 225.482 7.68675H51.1375C45.0434 7.68675 40.0092 12.7229 40.0092 18.8193V121.398C40.0092 127.494 45.0434 132.53 51.1375 132.53H225.482V132.53Z" fill="black"></path><path d="M268.671 71.566C268.671 72.3612 268.141 72.8913 267.346 72.8913H163.746C162.952 72.8913 162.422 72.3612 162.422 71.566C162.422 70.7708 162.952 70.2407 163.746 70.2407H267.346C268.141 70.2407 268.671 71.0359 268.671 71.566Z" fill="black"></path><path d="M267.347 74.2167H163.746C162.157 74.2167 161.097 73.1565 161.097 71.5661C161.097 69.9758 162.157 68.9155 163.746 68.9155H267.347C268.936 68.9155 269.996 69.9758 269.996 71.5661C269.996 73.1565 268.936 74.2167 267.347 74.2167ZM267.347 71.5661H268.671H267.347Z" fill="black"></path><path d="M258.868 82.4337L257.013 80.3133L266.552 71.5663L257.013 63.0843L258.868 60.9639L270.261 71.5663L258.868 82.4337Z" fill="black"></path><path d="M258.868 84.2891L255.158 80.3132L264.432 71.5662L255.158 63.0843L258.868 59.1084L272.116 71.5662L258.868 84.2891Z" fill="black"></path></svg> 