<?xml version="1.0" encoding="UTF-8"?> <svg xmlns="http://www.w3.org/2000/svg" width="214" height="142" viewBox="0 0 214 142" fill="none"><path d="M178.169 30.5942H38.6743V110.938H178.169V30.5942Z" fill="#C3B68F"></path><path d="M21.8708 21.8153C22.4042 21.2832 23.2044 21.2832 23.7379 21.5493L54.9442 45.7587C55.4776 46.2908 55.4775 47.0889 55.2108 47.621C54.6774 48.153 53.8773 48.153 53.3438 47.887L22.1375 23.6776C21.3374 23.1455 21.3374 22.3474 21.8708 21.8153Z" fill="black"></path><path d="M53.8774 49.4832C53.344 49.4832 52.5439 49.2172 52.2772 48.9512L21.0709 24.7417C20.004 23.6776 19.7373 22.0814 20.8042 21.0172C21.871 19.9531 23.4713 19.687 24.5382 20.7512L55.7445 44.9606C56.2779 45.4927 56.5446 46.0248 56.8113 46.8229C56.8113 47.621 56.5447 48.1531 56.278 48.6851C55.4778 48.9512 54.9443 49.4832 53.8774 49.4832C54.1441 49.4832 54.1441 49.4832 53.8774 49.4832ZM22.938 22.6134L21.871 21.8153L22.938 22.6134Z" fill="black"></path><path d="M36.2739 20.2188L36.5406 22.6131L23.4713 23.4112L25.0716 36.181L22.4044 36.447L20.5374 20.7508L36.2739 20.2188Z" fill="black"></path><path d="M21.3375 37.7773L19.2037 19.4207L37.6074 18.6226L37.8741 23.9433L25.0716 24.4754L26.6719 37.2452L21.3375 37.7773Z" fill="black"></path><path d="M188.837 24.2094C189.371 24.7415 189.104 25.5396 188.571 26.0716L157.365 50.2811C156.831 50.8132 156.031 50.5471 155.497 50.015C154.964 49.483 155.231 48.6849 155.764 48.1528L186.97 23.9433C187.771 23.4113 188.571 23.6773 188.837 24.2094Z" fill="black"></path><path d="M156.831 51.8774C156.565 51.8774 156.565 51.8774 156.298 51.8774C155.498 51.8774 154.964 51.3454 154.698 50.8133C154.164 50.2812 154.164 49.4831 154.164 48.951C154.164 48.1529 154.697 47.6208 155.231 47.3548L186.437 23.1454C186.971 22.6133 187.771 22.6133 188.571 22.6133C189.371 22.6133 189.905 23.1454 190.171 23.6774C190.971 24.7416 190.705 26.6038 189.638 27.402L158.432 51.6114C157.898 51.6114 157.365 51.8774 156.831 51.8774ZM188.838 24.2095L187.771 25.0076L188.838 24.2095Z" fill="black"></path><path d="M186.971 38.5752L184.57 38.0431L186.971 25.5393L174.168 23.9431L174.701 21.2827L190.171 23.411L186.971 38.5752Z" fill="black"></path><path d="M188.037 40.1714L182.97 39.1073L185.37 26.6035L172.834 25.0073L173.368 19.6865L191.772 22.0809L188.037 40.1714Z" fill="black"></path><path d="M189.638 114.929C189.105 115.461 188.304 115.461 187.771 115.195L156.565 90.9852C156.031 90.4531 156.031 89.655 156.298 89.1229C156.831 88.5908 157.632 88.5908 158.165 88.8569L189.371 113.066C189.905 113.598 190.171 114.397 189.638 114.929Z" fill="black"></path><path d="M188.571 116.79C188.037 116.79 187.237 116.524 186.971 116.258L155.764 92.0489C154.698 90.9848 154.431 89.3886 155.498 88.3244C156.031 87.7923 156.565 87.5263 157.365 87.2603C158.165 87.2603 158.698 87.5263 159.232 87.7923L190.438 112.002C190.971 112.534 191.238 113.066 191.505 113.864C191.505 114.662 191.238 115.194 190.971 115.726C190.171 116.524 189.371 116.79 188.571 116.79C188.571 116.79 188.838 116.79 188.571 116.79ZM188.571 114.13L189.638 114.928L188.571 114.13Z" fill="black"></path><path d="M174.968 116.79V114.13L187.771 113.598L186.171 100.828L188.838 100.562L190.705 115.992L174.968 116.79Z" fill="black"></path><path d="M173.901 118.121L173.635 112.8L186.437 112.268L184.837 99.4979L190.171 98.9658L192.305 117.322L173.901 118.121Z" fill="black"></path><path d="M22.404 117.855C21.8706 117.323 22.1373 116.525 22.6708 115.993L53.8769 91.7832C54.4103 91.2511 55.2105 91.5171 55.744 92.0492C56.2774 92.5813 56.0107 93.3794 55.4772 93.9115L24.2711 118.121C23.7377 118.653 22.9375 118.653 22.404 117.855Z" fill="black"></path><path d="M23.4711 119.717C22.6709 119.717 21.8708 119.451 21.3373 118.653C20.5372 117.589 20.8038 115.726 21.8707 114.928L53.0769 90.7189C54.4105 89.9208 56.0108 90.1869 56.811 91.251C57.3444 91.7831 57.3444 92.5812 57.3444 93.1133C57.3444 93.9114 56.811 94.4435 56.2776 94.7095L25.0714 119.451C24.5379 119.717 24.0045 119.717 23.4711 119.717ZM23.4711 117.057L24.0045 118.387L23.4711 117.057L22.4042 117.855L23.4711 117.057Z" fill="black"></path><path d="M24.2713 103.489L26.9386 104.021L24.2713 116.525L37.0739 118.387L36.8072 120.781L21.3374 118.919L24.2713 103.489Z" fill="black"></path><path d="M37.874 122.377L19.7371 119.983L23.4711 101.893L28.5388 102.957L25.8716 115.461L38.6742 117.057L37.874 122.377Z" fill="black"></path><path d="M19.2038 0H194.705C205.374 0 213.909 8.51321 213.909 19.1547V122.111C213.909 132.753 205.374 141.266 194.705 141.266H19.2038C8.53498 141.266 0 132.753 0 122.111V19.1547C0 8.51321 8.53498 0 19.2038 0ZM194.705 133.019C200.84 133.019 205.908 127.964 205.908 121.845V19.1547C205.908 13.0358 200.84 7.98113 194.705 7.98113H19.2038C13.0692 7.98113 8.00159 13.0358 8.00159 19.1547V122.111C8.00159 128.23 13.0692 133.285 19.2038 133.285H194.705V133.019Z" fill="black"></path></svg> 