<?xml version="1.0" encoding="UTF-8"?> <svg xmlns="http://www.w3.org/2000/svg" width="214" height="142" viewBox="0 0 214 142" fill="none"><path d="M55.4777 45.2264C54.9443 45.7585 54.1441 45.7585 53.6107 45.4925L22.4044 21.283C21.871 20.751 21.871 19.9528 22.1377 19.4208C22.4044 18.8887 23.4713 18.8887 24.0048 19.1547L55.211 43.3642C56.0111 43.8962 56.0112 44.6944 55.4777 45.2264Z" fill="black"></path><path d="M54.4107 47.0889C53.8773 47.0889 53.0772 46.8228 52.8105 46.5568L21.6043 22.3473C21.0708 21.8153 20.8041 21.2832 20.5374 20.4851C20.5374 19.687 20.8041 19.1549 21.0708 18.6228C21.6042 18.0907 22.1377 17.8247 22.9379 17.8247C23.738 17.8247 24.2714 18.0907 24.8049 18.3568L56.0111 42.5662C56.5445 43.0983 56.8112 43.6304 57.0779 44.4285C57.0779 45.2266 56.8112 45.7587 56.5445 46.2907C56.0111 46.8228 55.2109 47.0889 54.4107 47.0889ZM54.4107 44.4285L55.4776 45.2266L54.4107 44.4285Z" fill="black"></path><path d="M41.0748 47.0891L40.8081 44.4288L53.6107 43.8967L52.2771 31.1269L54.6775 30.8608L56.5446 46.291L41.0748 47.0891Z" fill="black"></path><path d="M39.7412 48.4194L39.4745 43.0986L52.2771 42.5665L50.6767 29.7967L56.0111 29.2646L58.1449 47.6213L39.7412 48.4194Z" fill="black"></path><path d="M158.698 44.9604C158.165 44.4283 158.432 43.6302 158.965 43.0981L190.171 18.8887C190.705 18.3566 191.505 18.6226 192.038 19.1547C192.572 19.6868 192.305 20.4849 191.771 21.017L160.565 45.2264C159.765 45.7585 158.965 45.4924 158.698 44.9604Z" fill="black"></path><path d="M159.765 46.8225C159.498 46.8225 159.498 46.8225 159.232 46.8225C158.432 46.8225 157.898 46.2904 157.631 45.7584C157.098 45.2263 157.098 44.4282 157.098 43.8961C157.098 43.098 157.631 42.5659 158.165 42.2999L189.371 17.8244C190.705 17.0263 192.305 17.2923 193.105 18.3565C193.905 19.4206 193.639 21.2829 192.572 22.081L161.365 46.2904C160.832 46.8225 160.299 46.8225 159.765 46.8225ZM159.765 44.1621L158.698 44.9603L159.765 44.1621Z" fill="black"></path><path d="M160.565 30.5942L163.232 31.1263L160.565 43.6301L173.368 45.2263L172.834 47.8867L157.365 45.7584L160.565 30.5942Z" fill="black"></path><path d="M174.168 49.483L155.764 47.0886L159.498 28.998L164.566 30.0622L162.166 42.566L174.701 44.1622L174.168 49.483Z" fill="black"></path><path d="M158.698 94.1771C159.232 93.645 160.032 93.645 160.565 93.9111L191.771 118.121C192.305 118.653 192.305 119.451 192.038 119.983C191.771 120.515 190.705 120.515 190.171 120.249L158.965 96.0394C158.165 95.5073 158.165 94.7092 158.698 94.1771Z" fill="black"></path><path d="M190.971 121.845C190.438 121.845 189.638 121.579 189.371 121.313L158.165 97.1037C157.631 96.5716 157.365 96.0395 157.098 95.2414C157.098 94.4433 157.365 93.9112 157.631 93.3792C158.165 92.8471 158.698 92.5811 159.498 92.5811C160.299 92.5811 160.832 92.8471 161.365 93.1131L192.572 117.323C193.105 117.855 193.372 118.387 193.639 119.185C193.639 119.983 193.372 120.515 193.105 121.047C192.305 121.579 191.505 121.845 190.971 121.845ZM159.765 94.9754L158.698 94.1773L159.765 94.9754Z" fill="black"></path><path d="M173.101 92.5811L173.368 94.9754L160.565 95.7735L161.899 108.543L159.498 108.809L157.631 93.1131L173.101 92.5811Z" fill="black"></path><path d="M158.165 110.14L156.031 92.049L174.435 90.9849L174.701 96.3056L161.899 96.8377L163.499 109.608L158.165 110.14Z" fill="black"></path><path d="M55.4777 94.4433C56.0111 94.9753 55.7444 95.7735 55.211 96.3055L24.0047 120.515C23.4713 121.047 22.6711 120.781 22.1377 120.249C21.6043 119.717 21.871 118.919 22.4044 118.387L53.6107 94.1772C54.4108 93.6452 55.211 93.9112 55.4777 94.4433Z" fill="black"></path><path d="M23.2046 122.111C22.4044 122.111 21.6043 121.845 21.0708 121.047C20.2707 119.717 20.5374 118.121 21.6043 117.322L52.8105 93.113C54.1441 92.3149 55.7444 92.5809 56.5445 93.6451C57.078 94.1771 57.078 94.9753 57.078 95.5073C57.078 96.3054 56.5446 96.8375 56.0111 97.1036L24.8049 121.313C24.5382 121.845 23.738 122.111 23.2046 122.111Z" fill="black"></path><path d="M53.6106 109.075L50.9434 108.543L53.6106 95.7732L40.8081 94.177L41.3415 91.5166L56.8112 93.6449L53.6106 109.075Z" fill="black"></path><path d="M54.6776 110.405L49.6099 109.341L52.0104 97.1035L39.4746 95.2412L40.008 90.1865L58.4116 92.5809L54.6776 110.405Z" fill="black"></path><path d="M19.2038 0H194.705C205.374 0 213.909 8.51321 213.909 19.1547V122.111C213.909 132.753 205.374 141.266 194.705 141.266H19.2038C8.53502 141.266 0 132.753 0 122.111V19.1547C0 8.51321 8.53502 0 19.2038 0ZM194.705 133.019C200.84 133.019 205.908 127.964 205.908 121.845V19.1547C205.908 13.0358 200.84 7.98113 194.705 7.98113H19.2038C13.0693 7.98113 8.00159 13.0358 8.00159 19.1547V122.111C8.00159 128.23 13.0693 133.285 19.2038 133.285H194.705V133.019Z" fill="black"></path><path d="M106.421 97.1036C121.594 97.1036 133.893 84.8353 133.893 69.7017C133.893 54.5681 121.594 42.2998 106.421 42.2998C91.2486 42.2998 78.949 54.5681 78.949 69.7017C78.949 84.8353 91.2486 97.1036 106.421 97.1036Z" fill="#C3B68F"></path></svg> 