<?xml version="1.0" encoding="UTF-8"?> <svg xmlns="http://www.w3.org/2000/svg" width="214" height="142" viewBox="0 0 214 142" fill="none"><path d="M8.32666 86.3056L8.32666 132.706H206.285V86.3056L8.32666 86.3056Z" fill="#C3B68F"></path><path d="M108.05 40.5337C108.851 40.5337 109.384 41.067 109.384 41.867V98.4004C109.384 99.2004 108.851 99.7337 108.05 99.7337C107.25 99.7337 106.716 99.2004 106.716 98.4004V41.867C106.716 41.067 107.25 40.5337 108.05 40.5337Z" fill="black"></path><path d="M108.05 100.8C106.449 100.8 105.382 99.7335 105.382 98.1335V41.8669C105.382 40.2669 106.449 39.2002 108.05 39.2002C109.651 39.2002 110.718 40.2669 110.718 41.8669V98.4002C110.718 99.7335 109.651 100.8 108.05 100.8ZM108.05 40.5335V41.8669V40.5335Z" fill="black"></path><path d="M118.722 50.4003L116.854 52.2669L108.05 42.6669L99.2461 52.2669L97.3785 50.4003L108.05 38.9336L118.722 50.4003Z" fill="black"></path><path d="M116.854 54.1336L108.05 44.8002L99.2462 54.1336L95.5111 50.4002L108.05 37.0669L120.589 50.4002L116.854 54.1336Z" fill="black"></path><path d="M194.757 141.333H19.2089C8.53729 141.333 0 132.8 0 122.133V19.2C0 8.53333 8.53729 0 19.2089 0H194.757C205.429 0 213.966 8.53333 213.966 19.2V122.4C213.699 132.8 205.162 141.333 194.757 141.333ZM18.9421 8C12.8059 8 7.73691 13.0667 7.73691 19.2V122.4C7.73691 128.533 12.8059 133.6 18.9421 133.6H194.49C200.626 133.6 205.695 128.533 205.695 122.4V19.2C205.695 13.0667 200.626 8 194.49 8H18.9421V8Z" fill="black"></path></svg> 