<?xml version="1.0" encoding="UTF-8"?> <svg xmlns="http://www.w3.org/2000/svg" width="214" height="142" viewBox="0 0 214 142" fill="none"><path d="M132.026 136.477L97.0861 133.019L185.37 1.33008L210.709 15.9622L132.026 136.477Z" fill="#C3B68F"></path><path d="M79.7493 58.5286C79.4826 59.0606 78.4157 59.3267 77.8823 59.0606L29.8727 29.5304C29.3393 29.2644 29.0725 28.2003 29.3393 27.6682C29.606 27.1361 30.6729 26.8701 31.2063 27.1361L79.2158 56.6663C79.7493 57.1984 80.016 57.9965 79.7493 58.5286Z" fill="black"></path><path d="M78.4156 60.3909C77.8822 60.3909 77.3488 60.3909 77.082 60.1249L29.0725 30.5947C28.5391 30.3286 28.0056 29.5305 28.0056 28.9984C27.7389 28.2003 28.0056 27.6683 28.2723 26.8701C28.5391 26.3381 29.3392 25.806 29.8727 25.806C30.6728 25.54 31.2063 25.806 32.0064 26.072L80.016 55.6022C80.5494 55.8683 81.0828 56.6664 81.0828 57.1984C81.0828 57.7305 81.0828 58.5286 80.8161 59.3267C80.5494 59.8588 79.7493 60.3909 79.2158 60.3909C78.9491 60.3909 78.6824 60.3909 78.4156 60.3909Z" fill="black"></path><path d="M65.613 62.5192L65.0796 59.8588L77.6154 57.1984L74.1481 44.9607L76.8153 44.1626L81.0828 59.3267L65.613 62.5192Z" fill="black"></path><path d="M64.5463 63.8494L63.4794 58.7947L76.0152 56.4004L72.5478 43.8966L77.6155 42.5664L82.6832 60.3909L64.5463 63.8494Z" fill="black"></path><path d="M19.2038 0H194.705C205.374 0 213.909 8.51321 213.909 19.1547V122.111C213.909 132.753 205.374 141.266 194.705 141.266H19.2038C8.53503 141.266 0 132.753 0 122.111V19.1547C0 8.51321 8.53503 0 19.2038 0ZM194.705 133.019C200.84 133.019 205.908 127.964 205.908 121.845V19.1547C205.908 13.0358 200.84 7.98113 194.705 7.98113H19.2038C13.0693 7.98113 8.00159 13.0358 8.00159 19.1547V122.111C8.00159 128.23 13.0693 133.019 19.2038 133.019H194.705Z" fill="black"></path></svg> 