<?xml version="1.0" encoding="UTF-8"?> <svg xmlns="http://www.w3.org/2000/svg" width="395" height="260" viewBox="0 0 395 260" fill="none"><path d="M361.298 194.697C361.972 194.697 362.646 195.371 362.646 196.045V229.747C362.646 230.421 361.972 231.095 361.298 231.095C360.624 231.095 359.95 230.421 359.95 229.747V196.045C359.95 195.371 360.624 194.697 361.298 194.697Z" fill="black"></path><path d="M361.298 232.78C359.613 232.78 358.264 231.432 358.264 229.747V196.045C358.264 194.36 359.613 193.012 361.298 193.012C362.983 193.012 364.331 194.36 364.331 196.045V229.747C364.331 231.432 362.983 232.78 361.298 232.78Z" fill="black"></path><path d="M372.083 204.807L370.397 206.829L361.298 197.056L352.198 206.829L350.176 204.807L361.298 193.012L372.083 204.807Z" fill="black"></path><path d="M370.06 209.188L361.297 199.415L352.198 209.188L347.816 204.807L361.297 190.652L374.441 204.807L370.06 209.188Z" fill="black"></path><path d="M142.566 23.1548C145.731 23.1548 148.296 20.5897 148.296 17.4256C148.296 14.2614 145.731 11.6963 142.566 11.6963C139.402 11.6963 136.837 14.2614 136.837 17.4256C136.837 20.5897 139.402 23.1548 142.566 23.1548Z" fill="black"></path><path d="M144.588 23.1555L146.61 28.5478L149.307 26.8627L145.936 22.4814L144.588 23.1555Z" fill="black"></path><path d="M142.567 20.796C144.428 20.796 145.937 19.2871 145.937 17.4258C145.937 15.5645 144.428 14.0557 142.567 14.0557C140.706 14.0557 139.197 15.5645 139.197 17.4258C139.197 19.2871 140.706 20.796 142.567 20.796Z" fill="#EFEBE1"></path><path d="M203.568 53.149C202.557 53.149 201.883 52.138 201.883 51.4639C201.883 51.4639 201.883 50.7899 202.22 49.4418C202.557 48.4308 203.231 48.0938 204.242 48.0938C205.253 48.4308 205.59 49.1048 205.59 50.1159C205.253 50.7899 205.253 51.4639 205.253 51.4639C205.253 52.475 204.579 53.149 203.568 53.149Z" fill="black"></path><path d="M208.623 42.702C208.286 42.702 207.949 42.7019 207.612 42.3649C206.938 41.6909 206.938 40.6799 207.612 40.0058C208.286 38.9948 209.297 38.3207 210.308 37.6467C210.982 36.9727 211.993 37.3097 212.667 37.9837C213.342 38.6578 213.005 39.6688 212.33 40.3428C211.656 41.0169 210.645 41.6909 209.971 42.3649C209.297 42.3649 208.96 42.702 208.623 42.702Z" fill="black"></path><path d="M280.748 56.5197C280.074 56.5197 279.399 56.1827 279.062 55.5087C278.725 54.4976 278.388 53.4866 277.714 52.4755C277.377 51.8015 277.714 50.7904 278.388 50.1164C279.062 49.7794 280.074 50.1164 280.748 50.7904C281.422 51.8015 281.759 52.8125 282.096 53.8236C282.433 54.8346 282.096 55.5086 281.085 55.8457C281.085 56.5197 280.748 56.5197 280.748 56.5197ZM273.333 45.7352C272.996 45.7352 272.322 45.7352 272.322 45.3982C271.648 44.7241 270.637 44.0501 269.963 43.3761C269.289 42.702 268.952 41.691 269.626 41.017C270.3 40.3429 271.311 40.0059 271.985 40.6799C272.996 41.354 273.67 42.365 274.681 43.0391C275.355 43.7131 275.355 44.7241 274.681 45.3982C274.344 45.3982 273.67 45.7352 273.333 45.7352ZM262.211 38.3208C261.874 38.3208 261.874 38.3208 261.537 38.3208C260.526 37.9838 259.515 37.6468 258.504 37.3098C257.493 36.9728 257.156 35.9617 257.493 35.2877C257.83 34.2766 258.841 33.9396 259.515 34.2766C260.526 34.6136 261.874 34.9507 262.885 35.6247C263.896 35.9617 264.233 36.9728 263.896 37.9838C263.559 37.9838 262.885 38.3208 262.211 38.3208ZM219.745 35.6247C219.071 35.6247 218.397 35.2877 218.06 34.6136C217.723 33.6026 218.397 32.9286 219.071 32.5915C220.082 32.2545 221.094 31.9175 222.442 31.5805C223.453 31.2435 224.127 31.9175 224.464 32.9286C224.801 33.9396 224.127 34.6136 223.116 34.9507C222.105 35.2877 221.094 35.6247 220.083 35.9617C220.083 35.6247 220.083 35.6247 219.745 35.6247ZM249.404 34.6136C248.73 34.6136 248.056 34.2766 247.719 34.2766L246.034 33.9396C245.023 33.9396 244.349 32.9286 244.686 31.9175C244.686 30.9065 245.697 30.2324 246.708 30.5694L248.393 30.9065C249.067 30.9065 249.404 30.9065 250.078 31.2435C251.089 31.2435 251.763 32.2545 251.426 33.2656C251.089 34.2766 250.415 34.6136 249.404 34.6136ZM232.89 33.6026C231.878 33.6026 231.204 32.9286 231.204 31.9175C231.204 30.9065 231.878 30.2324 232.89 30.2324C233.564 30.2324 234.575 30.2324 235.249 30.2324H236.26C237.271 30.2324 237.945 30.9065 237.945 31.9175C237.945 32.9286 237.271 33.6026 236.26 33.6026H235.249C234.238 33.6026 233.564 33.6026 232.89 33.6026Z" fill="black"></path><path d="M283.107 67.9782C282.096 67.9782 281.422 67.3042 281.422 66.2932C281.422 65.6191 281.422 65.2821 281.422 64.6081C281.422 63.597 282.096 62.923 282.77 62.5859C283.781 62.5859 284.455 63.26 284.792 63.934C284.792 64.608 284.792 64.9451 284.792 65.6191C284.792 67.3042 284.118 67.9782 283.107 67.9782Z" fill="black"></path><path d="M271.984 62.5859L281.758 82.47L293.891 63.934L271.984 62.5859Z" fill="black"></path><path d="M382.193 259.403H137.174C130.096 259.403 124.367 253.674 124.367 246.597V137.066C124.367 129.989 130.096 124.26 137.174 124.26H382.193C389.27 124.26 395 129.989 395 137.066V246.597C395 253.674 389.27 259.403 382.193 259.403ZM136.837 130.663C133.466 130.663 130.77 133.359 130.77 136.729V246.26C130.77 249.63 133.466 252.326 136.837 252.326H381.856C385.226 252.326 387.922 249.63 387.922 246.26V137.066C387.922 133.696 385.226 131 381.856 131H136.837V130.663Z" fill="black"></path><path d="M153.351 103.365H12.811C5.73343 103.365 0.00390625 97.6361 0.00390625 90.5587V13.0449C0.00390625 5.96756 5.73343 0.238281 12.811 0.238281H153.351C160.429 0.238281 166.158 5.96756 166.158 13.0449V90.8957C166.158 97.6361 160.429 103.365 153.351 103.365ZM12.811 6.64159C9.44073 6.64159 6.74445 9.33773 6.74445 12.7079V90.5587C6.74445 93.9289 9.44073 96.625 12.811 96.625H153.351C156.722 96.625 159.418 93.9289 159.418 90.5587V13.0449C159.418 9.67474 156.722 6.97861 153.351 6.97861H12.811V6.64159Z" fill="black"></path><path d="M285.13 176.497C285.804 176.834 286.478 176.834 287.152 176.834C288.5 176.834 289.848 176.16 289.848 174.475C289.848 172.79 288.837 172.453 287.489 172.116C286.141 171.779 284.456 171.105 284.456 169.083C284.456 167.398 285.804 166.05 287.826 166.05C288.5 166.05 289.174 166.05 289.848 166.387C289.848 166.387 290.185 166.387 290.185 166.724C290.185 167.061 289.848 167.061 289.848 167.061H289.511C289.174 167.061 288.5 166.724 287.826 166.724C286.141 166.724 285.467 167.735 285.467 168.746C285.467 170.094 286.478 170.431 287.826 170.768C289.174 171.105 290.859 171.779 290.859 173.801C290.859 175.823 289.174 176.834 287.152 176.834C285.804 176.834 285.13 176.497 284.793 176.16C284.456 176.16 284.456 175.823 284.456 175.823C284.456 175.486 284.456 175.486 284.793 175.486C284.793 176.497 284.793 176.497 285.13 176.497Z" fill="black"></path><path d="M287.151 178.519C285.803 178.519 284.792 178.182 284.455 177.845C284.118 177.845 283.781 177.508 283.781 176.834C283.781 176.497 284.118 175.823 284.455 175.823C284.455 175.823 284.792 175.823 285.129 176.16C285.803 176.497 286.477 176.497 286.814 176.497C287.488 176.497 289.174 176.497 289.174 174.812C289.174 173.464 288.5 173.464 287.151 172.79C285.803 172.453 283.781 171.779 283.781 169.42C283.781 167.735 285.129 166.05 287.488 166.05C288.163 166.05 288.837 166.05 289.848 166.387C290.185 166.724 290.522 166.724 290.522 167.061C290.522 167.398 290.185 167.735 289.848 167.735C289.848 167.735 289.511 167.735 289.174 167.398C288.837 167.398 288.499 167.061 287.825 167.061C286.477 167.061 285.803 168.072 285.803 168.746C285.803 169.757 286.477 170.094 287.825 170.431C289.174 170.768 291.196 171.442 291.196 174.138C291.196 176.834 289.511 178.519 287.151 178.519ZM288.162 172.453C289.174 172.79 290.185 173.464 290.185 175.149C290.185 176.497 289.511 177.171 288.5 177.508C289.511 177.171 290.185 176.497 290.185 175.149C290.522 173.464 289.511 172.79 288.162 172.453ZM284.792 176.834C285.129 176.834 285.129 176.834 285.129 177.171C285.129 177.171 285.129 177.171 284.792 176.834ZM286.477 167.398C285.466 167.735 284.792 168.746 284.792 169.757C284.792 171.442 286.14 171.779 287.488 172.116C286.14 171.779 285.129 171.105 285.129 169.42C285.129 168.746 285.803 167.735 286.477 167.398Z" fill="black"></path><path d="M299.959 171.78C300.296 171.78 300.296 172.117 300.296 172.117C300.296 172.454 300.296 172.454 299.959 172.454H295.241V176.161C295.241 176.498 295.241 176.835 295.915 176.835H300.633C300.97 176.835 300.97 177.172 300.97 177.172C300.97 177.509 300.97 177.509 300.633 177.509H295.578C294.229 177.509 294.229 176.498 294.229 176.161V168.073C294.229 167.736 294.229 166.725 295.578 166.725H300.296C300.633 166.725 300.633 167.062 300.633 167.062C300.633 167.399 300.633 167.399 300.296 167.399H295.578C295.241 167.399 294.903 167.399 294.903 168.073V171.443H299.959V171.78Z" fill="black"></path><path d="M300.633 178.183H295.577C294.566 178.183 293.892 177.509 293.892 176.498V168.41C293.892 167.062 294.566 166.725 295.577 166.725H300.296C300.97 166.725 300.97 167.062 300.97 167.399C300.97 167.736 300.633 168.073 300.296 168.073H295.577V171.106H299.958C300.633 171.106 300.633 171.443 300.633 171.78C300.633 172.117 300.296 172.454 299.958 172.454H295.577V175.824H300.296C300.97 175.824 300.97 176.161 300.97 176.498C301.644 177.846 301.307 178.183 300.633 178.183ZM295.577 167.399C294.903 167.399 294.903 167.736 294.903 168.41V176.498C294.903 177.172 294.903 177.509 295.577 177.509C295.24 177.509 294.903 177.172 294.903 176.498V172.791C294.903 172.454 294.903 172.454 295.24 172.454C294.903 172.454 294.903 172.117 294.903 172.117V168.747C294.903 167.736 295.24 167.399 295.577 167.399Z" fill="black"></path><path d="M305.688 174.138L304.34 177.508C304.34 177.508 304.34 177.845 304.003 177.845C303.666 177.845 303.666 177.845 303.666 177.508V177.171L307.71 167.061C307.71 166.724 308.047 166.387 308.384 166.387C309.058 166.387 309.058 166.724 309.058 167.061L313.102 177.171V177.508C313.102 177.845 312.765 177.845 312.765 177.845C312.428 177.845 312.428 177.508 312.428 177.508L311.08 174.138H305.688ZM310.743 173.464L308.384 167.735L306.025 173.464H310.743Z" fill="black"></path><path d="M312.765 178.519C312.091 178.519 312.091 178.182 312.091 177.845L311.08 174.812H306.362L305.351 177.845C305.351 178.182 305.014 178.519 304.677 178.519C304.34 178.519 303.666 178.182 303.666 177.508V177.171L307.71 167.061C308.047 166.387 308.384 166.387 308.721 166.387C309.395 166.387 309.732 166.724 309.732 167.061L313.776 177.171V177.508C313.439 178.182 313.102 178.519 312.765 178.519ZM310.743 173.801C311.08 173.801 311.08 173.801 311.417 174.138L312.765 177.508L308.721 167.398C308.721 167.061 308.721 167.061 308.384 167.061C308.047 167.061 308.047 167.061 308.047 167.398L304.003 177.508C304.003 177.508 304.003 177.508 304.003 177.845L305.351 174.475L305.688 174.138C305.688 174.138 305.688 174.138 305.351 174.138V173.801L307.71 168.072C307.71 167.735 308.384 167.735 308.384 168.072L310.743 173.801C311.08 173.464 311.08 173.464 310.743 173.801ZM306.699 173.127H310.069L308.384 168.746L306.699 173.127Z" fill="black"></path><path d="M322.876 177.171L323.213 177.508C323.213 177.845 322.876 177.845 322.876 177.845C322.539 177.845 322.539 177.845 322.539 177.508L318.831 172.453H317.146V177.171C317.146 177.508 316.809 177.508 316.809 177.508C316.472 177.508 316.472 177.508 316.472 177.171V167.735C316.472 167.398 316.472 166.387 317.82 166.387H319.842C322.202 166.387 323.213 167.735 323.213 169.42C323.213 170.768 322.539 172.453 319.842 172.453L322.876 177.171ZM318.831 171.779C319.505 171.779 321.528 171.779 321.528 169.757C321.528 167.735 319.505 167.735 318.831 167.735H317.483C317.146 167.735 316.809 167.735 316.809 168.409V172.116H318.831V171.779Z" fill="black"></path><path d="M322.539 178.519C322.202 178.519 321.865 178.182 321.865 178.182L318.158 173.464H317.484V177.845C317.484 178.519 317.147 178.856 316.473 178.856C315.799 178.856 315.462 178.519 315.462 177.845V168.409C315.462 167.061 316.136 166.724 317.147 166.724H319.169C321.865 166.724 322.876 168.409 322.876 170.094C322.876 171.442 322.202 173.127 319.843 173.464L322.876 177.171L322.539 177.508L322.876 177.171C322.876 177.508 323.213 177.508 323.213 177.845C323.213 178.182 322.876 178.519 322.539 178.519ZM317.484 167.398C316.81 167.398 316.81 167.735 316.81 168.409V177.845V173.127C316.81 172.79 316.81 172.79 317.147 172.79C316.81 172.79 316.81 172.453 316.81 172.453V168.746C316.81 167.735 316.81 167.398 317.484 167.398ZM318.495 172.453L318.832 173.127V172.79C318.832 172.79 318.832 172.453 319.169 172.453H318.832H318.495V172.453ZM319.506 167.398C320.517 167.398 321.865 168.072 321.865 169.757C321.865 171.105 321.191 172.116 319.506 172.116C321.528 171.779 321.865 170.431 321.865 169.757C322.202 168.409 321.191 167.398 319.506 167.398ZM317.484 171.442H318.832C319.843 171.442 321.191 171.105 321.191 169.757C321.191 168.072 319.843 168.072 318.832 168.072H317.484V171.442Z" fill="black"></path><path d="M325.573 172.453C325.573 169.42 327.933 166.724 331.303 166.724C332.651 166.724 333.662 167.061 334.336 167.398C334.673 167.398 334.673 167.735 334.673 167.735C334.673 168.072 334.336 168.072 334.336 168.072C334.336 168.072 334.336 168.072 333.999 167.735C332.988 167.061 331.977 167.061 331.64 167.061C328.607 167.061 326.922 169.083 326.922 171.779C326.922 174.138 328.607 176.497 331.977 176.497C332.988 176.497 333.662 176.16 334.336 176.16C334.336 176.16 334.673 175.823 335.01 175.823C335.01 175.823 335.347 175.823 335.347 176.16C335.347 176.497 335.347 176.497 335.01 176.497C333.999 177.171 332.651 177.171 331.977 177.171C327.596 177.845 325.573 175.486 325.573 172.453Z" fill="black"></path><path d="M331.303 178.519C327.595 178.519 324.899 176.16 324.899 172.453C324.899 169.083 327.595 166.387 330.966 166.387C331.977 166.387 333.325 166.724 333.999 167.061C334.336 167.398 334.336 167.735 334.336 167.735C334.336 168.072 333.999 168.746 333.662 168.746C333.325 168.746 333.325 168.746 332.988 168.409C332.314 168.072 331.303 167.735 330.966 167.735C328.269 167.735 326.584 169.42 326.584 172.116C326.584 174.475 327.932 176.497 331.303 176.497C332.314 176.497 332.988 176.16 333.325 176.16C333.662 175.823 333.999 175.823 333.999 175.823C334.336 175.823 334.673 176.16 334.673 176.834C334.673 177.171 334.673 177.508 333.999 177.508C333.325 178.182 331.977 178.519 331.303 178.519ZM329.281 167.398C327.258 168.072 325.91 170.094 325.91 172.453C325.91 174.475 327.258 176.834 329.618 177.508C326.921 176.834 325.91 174.475 325.91 172.453C325.91 169.757 327.258 168.072 329.281 167.398ZM333.325 167.398C333.325 167.398 333.662 167.398 333.662 167.735C333.662 167.735 333.662 167.398 333.325 167.398Z" fill="black"></path><path d="M344.784 171.443V167.062C344.784 166.725 345.121 166.725 345.121 166.725C345.458 166.725 345.458 166.725 345.458 167.062V177.509C345.458 177.846 345.121 177.846 345.121 177.846C344.784 177.846 344.784 177.846 344.784 177.509V172.454H338.717V177.509C338.717 177.846 338.38 177.846 338.38 177.846C338.043 177.846 338.043 177.846 338.043 177.509V167.062C338.043 166.725 338.38 166.725 338.38 166.725C338.717 166.725 338.717 166.725 338.717 167.062V171.443H344.784Z" fill="black"></path><path d="M345.121 178.519C344.447 178.519 344.11 178.182 344.11 177.508V172.79H338.717V177.508C338.717 178.182 338.38 178.519 337.706 178.519C337.032 178.519 336.695 178.182 336.695 177.508V167.061C336.695 166.387 337.032 166.05 337.706 166.05C338.38 166.05 338.717 166.387 338.717 167.061V171.105H344.11V167.061C344.11 166.387 344.447 166.05 345.121 166.05C345.795 166.05 346.132 166.387 346.132 167.061V177.508C346.132 178.182 345.795 178.519 345.121 178.519ZM344.784 171.779C345.121 171.779 345.121 172.116 345.121 172.116V177.171V166.724V171.105C345.121 171.779 345.121 171.779 344.784 171.779ZM338.38 167.061V177.508V172.453C338.38 172.116 338.38 172.116 338.717 172.116C338.38 172.116 338.38 171.779 338.38 171.779V167.061Z" fill="black"></path><path d="M376.801 139.089C377.475 139.089 377.475 139.089 377.475 139.426V139.763L373.431 143.807L377.475 147.851C377.475 147.851 377.475 147.851 377.475 148.188C377.475 148.525 377.138 148.525 377.138 148.525H376.801L372.756 144.481L368.712 148.525C368.712 148.525 368.712 148.525 368.375 148.525C368.038 148.525 368.038 148.188 368.038 148.188V147.851L372.082 143.807L368.038 139.763C368.038 139.763 368.038 139.763 368.038 139.426C368.038 139.089 368.375 139.089 368.375 139.089H368.712L372.756 143.133L376.801 139.089Z" fill="#040000"></path><path d="M377.138 149.874C376.801 149.874 376.464 149.874 376.127 149.537L372.419 145.829L368.712 149.537C368.375 149.874 368.038 149.874 367.701 149.874C367.027 149.874 366.353 149.2 366.353 148.526C366.353 148.189 366.353 147.851 366.69 147.514L370.397 143.807L366.69 140.1C366.353 139.763 366.353 139.426 366.353 139.089C366.353 138.078 367.701 137.404 368.375 138.078L372.082 141.785L375.79 138.078C376.464 137.404 377.812 138.078 377.812 139.089C377.812 139.426 377.812 139.763 377.475 140.1L373.767 143.807L377.475 147.514C377.812 147.851 377.812 148.189 377.812 148.526C378.486 149.2 377.812 149.874 377.138 149.874Z" fill="#040000"></path><path d="M365.679 175.149C368.099 175.149 370.06 173.188 370.06 170.768C370.06 168.348 368.099 166.387 365.679 166.387C363.259 166.387 361.298 168.348 361.298 170.768C361.298 173.188 363.259 175.149 365.679 175.149Z" fill="black"></path><path d="M367.027 175.149L368.712 179.193L370.398 177.845L368.038 174.475L367.027 175.149Z" fill="black"></path><path d="M365.679 173.465C367.168 173.465 368.375 172.257 368.375 170.768C368.375 169.279 367.168 168.072 365.679 168.072C364.19 168.072 362.983 169.279 362.983 170.768C362.983 172.257 364.19 173.465 365.679 173.465Z" fill="#EFEBE1"></path><path d="M379.496 186.271H265.918V184.922V157.287H267.266H380.844V158.635V186.271H379.496ZM268.614 183.574H378.148V159.646H268.614V183.574Z" fill="black"></path></svg> 