<?xml version="1.0" encoding="UTF-8"?> <svg xmlns="http://www.w3.org/2000/svg" width="391" height="263" viewBox="0 0 391 263" fill="none"><path d="M204.287 59.5523C204.287 59.5523 203.95 59.5523 204.287 59.5523C203.275 59.5523 202.601 58.5413 202.601 57.8672C202.601 57.8672 202.601 57.1932 202.938 55.8451C203.275 54.8341 203.95 54.4971 204.961 54.4971C205.972 54.8341 206.309 55.5081 206.309 56.5192C205.972 57.1932 205.972 57.8672 205.972 57.8672C205.635 58.8783 204.961 59.5523 204.287 59.5523Z" fill="black"></path><path d="M209.006 49.1053C208.669 49.1053 208.331 49.1053 207.994 48.7682C207.32 48.0942 207.32 47.0832 207.994 46.4091C208.668 45.3981 209.68 44.724 210.691 44.05C211.365 43.376 212.376 43.713 213.05 44.3871C213.724 45.0611 213.387 46.0721 212.713 46.7462C212.039 47.4202 211.028 48.0942 210.354 48.7682C210.017 49.1053 209.68 49.1053 209.006 49.1053Z" fill="black"></path><path d="M281.129 63.2601C280.455 63.2601 279.781 62.923 279.444 62.249C279.107 61.238 278.77 60.2269 278.096 59.2159C277.759 58.5418 278.096 57.5308 278.77 56.8567C279.444 56.5197 280.455 56.8567 281.129 57.5308C281.803 58.5418 282.14 59.5529 282.477 60.5639C282.814 61.575 282.477 62.249 281.466 62.586C281.803 63.2601 281.466 63.2601 281.129 63.2601ZM274.051 52.1385C273.714 52.1385 273.04 52.1385 273.04 51.8015C272.366 51.1275 271.355 50.4534 270.681 49.7794C270.007 49.1054 269.67 48.0943 270.344 47.4203C271.018 46.7462 272.029 46.4092 272.703 47.0833C273.714 47.7573 274.388 48.7684 275.399 49.4424C276.073 50.1164 276.073 51.1275 275.399 51.8015C274.725 52.1385 274.388 52.1385 274.051 52.1385ZM262.929 45.0612C262.592 45.0612 262.592 45.0612 262.255 45.0612C261.244 44.7241 260.233 44.3871 259.222 44.0501C258.211 43.7131 257.874 42.702 258.211 42.028C258.548 41.017 259.559 40.6799 260.233 41.017C261.244 41.354 262.592 41.691 263.603 42.365C264.615 42.702 264.952 43.7131 264.615 44.7241C264.278 44.3871 263.603 45.0612 262.929 45.0612ZM220.464 42.365C219.79 42.365 219.116 42.028 218.779 41.354C218.442 40.3429 219.116 39.6689 219.79 39.3319C220.801 38.9949 221.812 38.6578 223.16 38.3208C224.171 37.9838 224.845 38.6578 225.182 39.6689C225.519 40.6799 224.845 41.354 223.834 41.691C222.823 42.028 221.812 42.365 220.801 42.7021C220.801 42.028 220.464 42.365 220.464 42.365ZM250.122 41.354C250.122 41.354 249.785 41.354 250.122 41.354C249.448 41.354 248.774 41.017 248.437 41.017L246.752 40.6799C245.741 40.6799 245.067 39.6689 245.404 38.6578C245.404 37.6468 246.415 36.9728 247.426 37.3098L249.111 37.6468C249.785 37.6468 250.122 37.6468 250.796 37.9838C251.808 37.9838 252.482 38.9949 252.145 40.0059C251.47 40.6799 250.796 41.354 250.122 41.354ZM233.608 40.0059C232.597 40.0059 231.923 39.3319 231.923 38.3208C231.923 37.3098 232.597 36.6357 233.608 36.6357C234.282 36.6357 235.293 36.6357 235.967 36.6357H236.978C237.989 36.6357 238.663 37.3098 238.663 38.3208C238.663 39.3319 237.989 40.0059 236.978 40.0059H235.967C234.956 40.0059 234.282 40.0059 233.608 40.0059Z" fill="black"></path><path d="M283.825 74.7194C282.814 74.7194 282.14 74.0454 282.14 73.0343C282.14 72.3603 282.14 72.0233 282.14 71.3493C282.14 70.3382 282.814 69.6642 283.488 69.3271C284.499 69.3271 285.173 70.0012 285.51 70.6752C285.51 71.3492 285.51 71.6863 285.51 72.3603C285.51 73.7084 284.836 74.7194 283.825 74.7194Z" fill="black"></path><path d="M272.367 68.9893L282.14 88.8732L294.611 70.6743L272.367 68.9893Z" fill="black"></path><path d="M378.193 262.436H133.174C126.097 262.436 120.367 256.706 120.367 249.629V139.762C120.367 132.684 126.097 126.955 133.174 126.955H378.193C385.271 126.955 391 132.684 391 139.762V249.292C391 256.706 385.271 262.436 378.193 262.436ZM133.174 133.695C129.804 133.695 127.108 136.392 127.108 139.762V249.292C127.108 252.662 129.804 255.358 133.174 255.358H378.193C381.563 255.358 384.26 252.662 384.26 249.292V139.762C384.26 136.392 381.563 133.695 378.193 133.695H133.174Z" fill="black"></path><path d="M154.07 103.365H13.5295C6.45189 103.365 0.722412 97.6361 0.722412 90.5587V13.0449C0.722412 5.96756 6.45189 0.238281 13.5295 0.238281H154.07C161.147 0.238281 166.877 5.96756 166.877 13.0449V90.8957C167.214 97.6361 161.484 103.365 154.07 103.365ZM13.5295 6.64159C10.1592 6.64159 7.46296 9.33773 7.46296 12.7079V90.5587C7.46296 93.9289 10.1592 96.625 13.5295 96.625H154.07C157.44 96.625 160.136 93.9289 160.136 90.5587V13.0449C160.136 9.67474 157.44 6.97861 154.07 6.97861H13.5295V6.64159Z" fill="black"></path><path d="M188.446 206.828C189.794 207.502 190.805 207.502 191.816 207.502C194.175 207.502 196.872 206.491 196.872 203.795C196.872 201.099 194.849 200.425 192.827 199.751C190.468 199.077 187.772 198.066 187.772 194.696C187.772 192 189.794 189.641 193.164 189.641C194.512 189.641 195.523 189.978 196.534 190.315C196.872 190.315 197.209 190.652 197.209 190.989C197.209 191.326 196.872 191.663 196.534 191.663C196.534 191.663 196.197 191.663 195.86 191.326C195.186 190.989 194.512 190.652 193.164 190.652C190.468 190.652 189.12 192.337 189.12 194.359C189.12 196.718 191.142 197.392 193.164 198.066C195.523 198.74 198.22 199.751 198.22 203.458C198.22 206.828 195.186 208.851 191.816 208.851C189.457 208.851 188.109 208.177 187.435 207.84C187.098 207.84 186.761 207.502 186.761 207.165C186.761 206.828 187.098 206.491 187.435 206.491C187.772 206.491 187.772 206.491 188.446 206.828Z" fill="black"></path><path d="M191.817 209.862C189.458 209.862 187.772 209.188 187.098 208.851C186.761 208.514 185.75 208.177 185.75 207.166C185.75 206.155 186.424 205.481 187.435 205.481C187.772 205.481 187.772 205.481 188.446 205.818H188.783C189.795 206.155 190.806 206.492 191.817 206.492C192.828 206.492 195.861 206.155 195.861 203.459C195.861 201.437 194.513 201.1 192.491 200.089C190.132 199.415 186.761 198.066 186.761 194.359C186.761 191.326 189.121 188.293 193.165 188.293C194.513 188.293 195.861 188.63 196.872 188.967C197.546 189.304 197.883 189.641 197.883 190.315C197.883 191.326 197.209 192 196.198 192C195.861 192 195.524 192 195.187 191.663C194.85 191.663 193.839 191.326 192.828 191.326C190.806 191.326 189.795 192.674 189.795 194.022C189.795 195.707 191.143 196.381 193.165 197.055C195.524 197.729 198.894 199.078 198.894 203.122C199.231 207.166 196.198 209.862 191.817 209.862Z" fill="black"></path><path d="M214.06 198.066C214.734 198.066 214.734 198.403 214.734 198.74C214.734 199.077 214.397 199.414 214.06 199.414H205.971V206.154C205.971 206.828 206.308 207.165 206.982 207.165H215.408C216.082 207.165 216.082 207.503 216.082 207.84C216.082 208.177 215.745 208.514 215.408 208.514H206.645C204.623 208.514 204.623 206.828 204.623 206.154V192C204.623 191.326 204.623 189.641 206.645 189.641H215.071C215.745 189.641 215.745 189.978 215.745 190.315C215.745 190.652 215.408 190.989 215.071 190.989H206.982C206.308 190.989 205.971 190.989 205.971 192V198.066H214.06Z" fill="black"></path><path d="M215.408 209.525H206.645C205.297 209.525 203.612 208.851 203.612 206.155V192C203.612 189.978 204.623 188.63 206.645 188.63H215.071C216.082 188.63 216.756 189.304 216.756 190.315C216.756 191.326 216.082 192 215.071 192H206.982V197.055H214.397C215.408 197.055 216.082 197.729 216.082 198.74C216.082 199.751 215.408 200.425 214.397 200.425H206.645V206.155H215.071C216.082 206.155 216.756 206.829 216.756 207.84C216.756 208.851 216.082 209.525 215.408 209.525ZM205.297 198.403V199.077C205.297 199.077 205.297 198.74 205.297 198.403C205.297 198.74 205.297 198.74 205.297 198.403ZM214.06 198.74V197.729V198.74Z" fill="black"></path><path d="M223.835 202.448L221.813 208.178C221.813 208.515 221.476 208.852 221.139 208.852C220.802 208.852 220.127 208.515 220.127 208.178C220.127 207.841 220.127 207.841 220.127 207.504L226.868 190.316C226.868 189.979 227.205 189.305 228.216 189.305C229.227 189.305 229.227 189.979 229.564 190.316L236.305 207.504C236.305 207.841 236.305 207.841 236.305 208.178C236.305 208.515 235.968 208.852 235.294 208.852C234.957 208.852 234.62 208.515 234.62 208.178L232.597 202.448H223.835ZM232.26 201.1L228.216 190.99L224.172 201.1H232.26Z" fill="black"></path><path d="M235.967 209.863C234.956 209.863 234.619 208.852 234.619 208.852L232.597 203.797H224.845L222.823 208.852C222.823 209.189 222.149 210.2 221.138 210.2C220.464 210.2 219.453 209.526 219.453 208.515C219.453 208.178 219.453 207.841 219.453 207.841L226.53 190.316C226.867 188.968 227.879 188.968 228.553 188.968C229.227 188.968 230.238 189.305 230.575 190.316L237.315 207.504C237.315 207.841 237.652 208.178 237.652 208.515C237.652 209.189 236.641 209.863 235.967 209.863ZM223.497 201.437L223.16 202.111H223.497C223.834 201.774 223.834 201.774 223.497 201.437C223.497 201.437 223.834 201.437 223.497 201.437ZM232.934 201.774H233.271L232.934 201.1C233.271 201.437 233.271 201.437 232.934 201.774ZM225.856 200.426H231.249L228.553 193.349L225.856 200.426ZM228.553 190.316H228.89C228.89 189.979 228.216 189.979 228.216 190.316C228.216 190.316 228.216 190.316 228.553 190.316Z" fill="black"></path><path d="M253.155 207.504C253.492 207.841 253.492 207.841 253.492 208.178C253.492 208.516 253.155 208.853 252.818 208.853C252.481 208.853 252.481 208.515 252.144 208.515L245.741 200.09H243.718V208.178C243.718 208.853 243.044 208.853 243.044 208.853C242.707 208.853 242.37 208.516 242.37 208.178V192.002C242.37 191.328 242.37 189.643 244.392 189.643H247.763C251.47 189.643 253.492 192.002 253.492 194.698C253.492 197.057 252.144 199.753 247.763 199.753L253.155 207.504ZM246.752 198.405C248.1 198.405 251.47 198.405 251.47 194.698C251.47 190.991 248.1 190.991 246.752 190.991H244.392C243.718 190.991 243.381 190.991 243.381 192.002V198.405H246.752V198.405Z" fill="black"></path><path d="M252.818 209.863C252.144 209.863 251.807 209.189 251.47 209.189L245.404 201.1H244.393V208.515C244.393 209.526 243.719 210.2 242.708 210.2C241.697 210.2 241.022 209.526 241.022 208.515V192.338C241.022 190.316 242.034 188.968 244.056 188.968H247.426C252.144 188.968 253.83 192.001 253.83 195.034C253.83 197.393 252.481 200.089 249.111 200.763L253.83 207.167L253.155 207.504L253.83 207.167C254.167 207.504 254.167 207.841 254.167 208.178C254.504 209.189 253.492 209.863 252.818 209.863ZM252.818 207.841L253.155 207.504L252.818 207.841ZM246.415 199.415L246.752 199.752C246.752 199.752 246.752 199.752 246.752 199.415C246.752 199.415 246.752 199.415 246.752 199.078H246.415V199.415ZM242.708 199.078V199.752C242.708 199.415 243.045 199.415 242.708 199.078C242.708 199.078 243.045 199.078 242.708 199.078ZM244.393 197.73H246.752C248.774 197.73 250.796 197.393 250.796 194.697C250.796 192.338 249.111 192.001 246.752 192.001H244.393V197.73Z" fill="black"></path><path d="M258.211 199.078C258.211 193.686 261.918 189.305 268.322 189.305C270.681 189.305 272.366 189.979 273.377 190.653C273.714 190.99 273.714 190.99 273.714 191.327C273.714 191.664 273.377 192.001 273.04 192.001C272.703 192.001 272.703 192.001 272.366 191.664C270.681 190.653 268.996 190.653 268.322 190.653C263.266 190.653 259.896 194.36 259.896 199.078C259.896 203.122 262.592 207.504 268.322 207.504C270.007 207.504 271.355 207.167 272.366 206.83C272.366 206.83 273.04 206.493 273.377 206.493C273.714 206.493 274.051 206.83 274.051 207.167C274.051 207.504 273.714 207.841 273.377 207.841C271.692 208.852 269.67 208.852 268.322 208.852C261.581 208.852 258.211 204.47 258.211 199.078Z" fill="black"></path><path d="M267.985 209.862C261.582 209.862 257.2 205.481 257.2 199.414C257.2 193.348 261.582 188.63 267.985 188.63C270.007 188.63 272.03 188.967 273.378 189.978C274.052 190.315 274.389 190.989 274.389 191.326C274.389 192.337 273.715 193.011 272.704 193.011C272.367 193.011 272.03 193.011 271.693 192.674C270.344 191.663 268.659 191.663 267.985 191.663C263.604 191.663 260.571 194.696 260.571 199.077C260.571 202.785 262.93 206.492 268.322 206.492C270.007 206.492 271.018 206.155 272.03 205.818C272.704 205.481 273.041 205.481 273.378 205.481C274.052 205.481 275.063 206.155 275.063 207.166C275.063 207.503 274.726 208.177 274.052 208.514C271.693 209.525 269.333 209.862 267.985 209.862Z" fill="black"></path><path d="M291.577 197.729V189.978C291.577 189.304 291.914 189.304 292.251 189.304C292.588 189.304 292.925 189.641 292.925 189.978V208.177C292.925 208.851 292.588 208.851 292.251 208.851C291.914 208.851 291.577 208.514 291.577 208.177V199.414H281.129V208.177C281.129 208.851 280.792 208.851 280.455 208.851C280.118 208.851 279.781 208.514 279.781 208.177V189.978C279.781 189.304 280.118 189.304 280.455 189.304C280.792 189.304 281.129 189.641 281.129 189.978V197.729H291.577Z" fill="black"></path><path d="M292.251 209.862C291.24 209.862 290.566 209.188 290.566 208.177V200.089H281.803V208.177C281.803 209.188 281.129 209.862 280.118 209.862C279.107 209.862 278.433 209.188 278.433 208.177V189.978C278.433 188.967 279.107 188.293 280.118 188.293C281.129 188.293 281.803 188.967 281.803 189.978V196.718H290.566V189.978C290.566 188.967 291.24 188.293 292.251 188.293C293.262 188.293 293.936 188.967 293.936 189.978V208.177C293.936 209.188 292.925 209.862 292.251 209.862ZM280.118 198.066V198.74L280.455 198.403C280.455 198.403 280.118 198.403 280.118 198.066ZM291.914 198.403L292.251 198.74V198.066C292.251 198.403 291.914 198.403 291.914 198.403Z" fill="black"></path><path d="M159.463 180.205H156.767V218.288H159.463V180.205Z" fill="black"></path><path d="M367.071 220.984H148.677V224.355H367.071V220.984Z" fill="black"></path><path d="M372.801 142.121C372.801 142.121 373.138 142.121 372.801 142.121C373.475 142.121 373.475 142.121 373.475 142.458V142.795L369.431 146.839L373.475 150.884C373.475 150.884 373.475 150.884 373.475 151.221C373.475 151.558 373.138 151.558 373.138 151.558H372.801L368.757 147.513L364.713 151.558C364.713 151.558 364.713 151.558 364.376 151.558C364.039 151.558 364.039 151.221 364.039 151.221V150.884L368.083 146.839L364.039 142.795C364.039 142.795 364.039 142.795 364.039 142.458C364.039 142.121 364.376 142.121 364.376 142.121H364.713L368.757 146.165L372.801 142.121Z" fill="#040000"></path><path d="M373.138 152.569C372.801 152.569 372.464 152.569 372.127 152.232L368.42 148.525L364.713 152.232C364.376 152.569 364.039 152.569 363.702 152.569C363.028 152.569 362.354 151.895 362.354 151.221C362.354 150.884 362.354 150.547 362.691 150.21L366.398 146.503L362.691 142.795C362.354 142.458 362.354 142.121 362.354 141.784C362.354 140.773 363.702 140.099 364.376 140.773L368.083 144.48L371.79 140.773C372.464 140.099 373.812 140.773 373.812 141.784C373.812 142.121 373.812 142.458 373.475 142.795L369.768 146.503L373.475 150.21C373.812 150.547 373.812 150.884 373.812 151.221C374.486 152.232 373.812 152.569 373.138 152.569Z" fill="#040000"></path><path d="M344.827 205.144C348.922 205.144 352.241 201.825 352.241 197.73C352.241 193.635 348.922 190.315 344.827 190.315C340.732 190.315 337.412 193.635 337.412 197.73C337.412 201.825 340.732 205.144 344.827 205.144Z" fill="black"></path><path d="M347.523 205.144L350.219 212.221L353.59 209.862L349.208 204.133L347.523 205.144Z" fill="black"></path><path d="M344.827 202.111C347.247 202.111 349.208 200.15 349.208 197.73C349.208 195.31 347.247 193.349 344.827 193.349C342.407 193.349 340.445 195.31 340.445 197.73C340.445 200.15 342.407 202.111 344.827 202.111Z" fill="#EFEBE1"></path><path d="M144.633 23.1548C147.797 23.1548 150.362 20.5897 150.362 17.4256C150.362 14.2614 147.797 11.6963 144.633 11.6963C141.469 11.6963 138.904 14.2614 138.904 17.4256C138.904 20.5897 141.469 23.1548 144.633 23.1548Z" fill="black"></path><path d="M146.655 23.1555L148.677 28.5478L151.373 26.8627L148.003 22.4814L146.655 23.1555Z" fill="black"></path><path d="M144.633 20.796C146.495 20.796 148.004 19.2871 148.004 17.4258C148.004 15.5645 146.495 14.0557 144.633 14.0557C142.772 14.0557 141.263 15.5645 141.263 17.4258C141.263 19.2871 142.772 20.796 144.633 20.796Z" fill="#EFEBE1"></path></svg> 