<?xml version="1.0" encoding="UTF-8"?> <svg xmlns="http://www.w3.org/2000/svg" width="400" height="238" viewBox="0 0 400 238" fill="none"><path d="M49.5426 62.2152C60.5245 62.2152 69.4272 53.3128 69.4272 42.3312C69.4272 31.3496 60.5245 22.4473 49.5426 22.4473C38.5606 22.4473 29.658 31.3496 29.658 42.3312C29.658 53.3128 38.5606 62.2152 49.5426 62.2152Z" fill="black"></path><path d="M56.6201 62.5527L64.0347 80.7516L73.1345 75.0223L61.6755 59.5195L56.6201 62.5527Z" fill="black"></path><path d="M49.542 54.4634C56.2429 54.4634 61.675 49.0315 61.675 42.3308C61.675 35.6302 56.2429 30.1982 49.542 30.1982C42.8412 30.1982 37.4091 35.6302 37.4091 42.3308C37.4091 49.0315 42.8412 54.4634 49.542 54.4634Z" fill="#EFEBE1"></path><path d="M122.341 197.697C133.323 197.697 142.225 188.794 142.225 177.813C142.225 166.831 133.323 157.929 122.341 157.929C111.359 157.929 102.456 166.831 102.456 177.813C102.456 188.794 111.359 197.697 122.341 197.697Z" fill="black"></path><path d="M129.418 197.696L136.833 216.232L145.933 210.503L134.474 194.663L129.418 197.696Z" fill="black"></path><path d="M122.34 189.945C129.041 189.945 134.473 184.513 134.473 177.812C134.473 171.112 129.041 165.68 122.34 165.68C115.639 165.68 110.207 171.112 110.207 177.812C110.207 184.513 115.639 189.945 122.34 189.945Z" fill="#EFEBE1"></path><path d="M93.3565 100.635H12.807C5.72946 100.635 0 94.9056 0 87.8283V13.3476C0 6.27029 5.72946 0.541016 12.807 0.541016H93.3565C100.434 0.541016 106.164 6.27029 106.164 13.3476V88.1653C106.501 94.9056 100.434 100.635 93.3565 100.635ZM12.807 6.94432C9.43676 6.94432 6.74054 9.64045 6.74054 13.0106V87.8283C6.74054 91.1985 9.43676 93.8946 12.807 93.8946H93.3565C96.7268 93.8946 99.423 91.1985 99.423 87.8283V13.3476C99.423 9.97747 96.7268 7.28135 93.3565 7.28135H12.807V6.94432Z" fill="black"></path><path d="M386.233 237.126H86.953C79.8755 237.126 74.146 231.397 74.146 224.32V149.502C74.146 142.425 79.8755 136.695 86.953 136.695H386.57C393.648 136.695 399.377 142.425 399.377 149.502V224.32C399.04 231.397 393.311 237.126 386.233 237.126ZM86.953 143.436C83.5828 143.436 80.8865 146.132 80.8865 149.502V224.32C80.8865 227.69 83.5828 230.386 86.953 230.386H386.57C389.94 230.386 392.637 227.69 392.637 224.32V149.502C392.637 146.132 389.94 143.436 386.57 143.436H86.953Z" fill="black"></path><path d="M174.244 216.233C173.233 216.233 172.558 215.559 172.558 214.548V161.636C172.558 160.625 173.233 159.951 174.244 159.951C175.255 159.951 175.929 160.625 175.929 161.636V214.548C175.929 215.222 174.918 216.233 174.244 216.233Z" fill="black"></path><path d="M162.448 70.6402C161.437 70.6402 160.762 69.6292 160.762 68.9551C160.762 68.9551 160.762 68.2811 161.099 66.933C161.437 65.922 162.111 65.585 163.122 65.585C164.133 65.922 164.47 66.596 164.47 67.6071C164.133 68.2811 164.133 68.9551 164.133 68.9551C164.133 69.9662 163.122 70.6402 162.448 70.6402Z" fill="black"></path><path d="M167.502 60.5301C167.165 60.5301 166.828 60.5301 166.491 60.1931C165.817 59.519 165.817 58.508 166.491 57.834C167.165 56.8229 168.177 56.1489 169.188 55.4748C169.862 54.8008 170.873 55.1378 171.547 55.8119C172.221 56.4859 171.884 57.4969 171.21 58.171C170.536 58.845 169.525 59.519 168.851 60.1931C168.176 60.1931 167.839 60.5301 167.502 60.5301Z" fill="black"></path><path d="M239.627 74.3479C238.953 74.3479 238.279 74.0109 237.942 73.3369C237.605 72.3258 237.268 71.3148 236.594 70.3037C236.257 69.6297 236.594 68.6186 237.268 67.9446C237.942 67.6076 238.953 67.9446 239.627 68.6186C240.301 69.6297 240.638 70.6407 240.975 71.6518C241.312 72.6628 240.975 73.3369 239.964 73.6739C239.964 74.3479 239.627 74.3479 239.627 74.3479ZM232.212 63.2264C231.875 63.2264 231.201 63.2264 231.201 62.8894C230.527 62.2153 229.516 61.5413 228.842 60.8673C228.168 60.1932 227.831 59.1822 228.505 58.5081C229.179 57.8341 230.19 57.4971 230.864 58.1711C231.875 58.8452 232.549 59.8562 233.56 60.5302C234.234 61.2043 234.234 62.2153 233.56 62.8894C233.223 63.2264 232.549 63.2264 232.212 63.2264ZM221.09 56.149C220.753 56.149 220.753 56.149 220.416 56.149C219.405 55.812 218.394 55.475 217.383 55.138C216.372 54.801 216.035 53.7899 216.372 53.1159C216.709 52.1048 217.72 51.7678 218.394 52.1048C219.405 52.4418 220.753 52.7789 221.764 53.4529C222.776 53.7899 223.113 54.801 222.776 55.812C222.439 55.812 221.764 56.149 221.09 56.149ZM178.625 53.4529C177.951 53.4529 177.277 53.1159 176.94 52.4419C176.603 51.4308 177.277 50.7568 177.951 50.4197C178.962 50.0827 179.973 49.7457 181.321 49.4087C182.332 49.0717 183.006 49.7457 183.343 50.7568C183.68 51.7678 183.006 52.4419 181.995 52.7789C180.984 53.1159 179.973 53.4529 178.962 53.7899C178.962 53.4529 178.625 53.4529 178.625 53.4529ZM208.283 52.4419C208.283 52.4419 207.946 52.4419 208.283 52.4419C207.609 52.4419 206.935 52.1048 206.598 52.1048L204.913 51.7678C203.902 51.7678 203.228 50.7568 203.565 49.7457C203.565 48.7347 204.576 48.0606 205.587 48.3977L207.272 48.7347C207.946 48.7347 208.283 48.7347 208.957 49.0717C209.969 49.0717 210.643 50.0827 210.306 51.0938C209.632 51.7678 208.957 52.4419 208.283 52.4419ZM191.769 51.0938C190.758 51.0938 190.084 50.4198 190.084 49.4087C190.084 48.3977 190.758 47.7236 191.769 47.7236C192.443 47.7236 193.454 47.7236 194.128 47.7236H195.139C196.15 47.7236 196.824 48.3977 196.824 49.4087C196.824 50.4198 196.15 51.0938 195.139 51.0938H194.128C193.117 51.0938 192.443 51.0938 191.769 51.0938Z" fill="black"></path><path d="M241.986 85.8073C240.975 85.8073 240.301 85.1333 240.301 84.1222C240.301 83.4482 240.301 83.1112 240.301 82.4371C240.301 81.4261 240.975 80.7521 241.649 80.415C242.66 80.415 243.334 81.0891 243.671 81.7631C243.671 82.4371 243.671 82.7742 243.671 83.4482C243.671 85.1333 242.997 85.8073 241.986 85.8073Z" fill="black"></path><path d="M230.864 80.0771L240.3 99.9611L252.77 81.7622L230.864 80.0771Z" fill="black"></path></svg> 