<?xml version="1.0" encoding="UTF-8"?> <svg xmlns="http://www.w3.org/2000/svg" width="343" height="54" viewBox="0 0 343 54" fill="none"><path d="M33.601 39.2815C33.601 40.0887 33.0634 40.0887 32.7946 40.0887C32.257 40.0887 31.9882 39.8196 31.9882 39.2815V20.4478H25.268C24.7304 20.4478 24.4615 19.9097 24.4615 19.6407C24.4615 19.3716 24.7304 18.8335 25.268 18.8335H40.3213C40.8589 18.8335 41.1277 19.3716 41.1277 19.6407C41.1277 20.1788 40.8589 20.4478 40.3213 20.4478H33.601V39.2815Z" fill="black"></path><path d="M32.7947 41.1651C31.7194 41.1651 30.913 40.358 30.913 39.2818V21.5243H25.268C24.1928 21.5243 23.3864 20.7171 23.3864 19.6409C23.3864 18.5647 24.1928 17.7576 25.268 17.7576H40.3213C41.3965 17.7576 42.203 18.5647 42.203 19.6409C42.203 20.7171 41.3965 21.5243 40.3213 21.5243H34.6763V39.2818C34.6763 40.358 33.6011 41.1651 32.7947 41.1651Z" fill="black"></path><path d="M49.4608 33.0933L47.0416 39.2815C47.0416 39.5506 46.7728 40.0887 46.2351 40.0887C45.9663 40.0887 45.4287 39.8196 45.4287 39.2815C45.4287 39.0124 45.4287 38.7434 45.6975 38.7434L53.2242 19.6407C53.493 19.1026 53.7618 18.5645 54.5682 18.5645C55.6434 18.5645 55.9123 19.3716 55.9123 19.6407L63.4389 38.7434C63.4389 39.0124 63.7077 39.2815 63.7077 39.2815C63.7077 39.8196 63.1701 40.0887 62.6325 40.0887C62.0949 40.0887 61.826 39.5506 61.826 39.2815L59.4068 33.0933H49.4608ZM58.8691 31.748L54.5682 20.7169L50.2673 31.748H58.8691Z" fill="black"></path><path d="M62.6324 41.1652C61.5572 41.1652 61.0195 40.0889 61.0195 39.8199L58.8691 34.1698H50.2672L48.1167 39.8199C47.8479 40.0889 47.5791 41.1652 46.2351 41.1652C45.4286 41.1652 44.3534 40.358 44.3534 39.2818C44.3534 39.0127 44.3534 38.7437 44.6222 38.4746L52.1488 19.1028C52.6865 17.7576 53.7617 17.4885 54.5681 17.4885C55.3746 17.4885 56.4498 17.7576 56.9874 19.1028L64.5141 38.2056C64.5141 38.4746 64.7829 38.7437 64.7829 39.2818C64.5141 40.358 63.7076 41.1652 62.6324 41.1652ZM51.6112 30.6721H57.2562L54.2993 23.4077L51.6112 30.6721Z" fill="black"></path><path d="M71.7718 39.8196C69.3525 39.8196 69.3525 37.9362 69.3525 37.1291V21.524C69.3525 20.7169 69.3525 18.8335 71.7718 18.8335H75.5351C77.4168 18.8335 82.5242 18.8335 82.5242 23.9455C82.5242 27.1741 80.3737 28.2503 79.2985 28.7884C80.6425 29.3265 83.3306 30.1337 83.3306 33.9004C83.3306 39.5505 77.6856 39.5505 75.804 39.5505H71.7718V39.8196ZM75.804 28.2503C77.148 28.2503 80.9113 28.2503 80.9113 24.2145C80.9113 20.4478 77.6856 20.4478 75.5351 20.4478H72.3094C71.503 20.4478 71.2342 20.7169 71.2342 21.524V27.9813H75.804V28.2503ZM71.2342 37.1291C71.2342 37.9362 71.503 38.2053 72.3094 38.2053H75.804C77.9544 38.2053 81.7177 38.2053 81.7177 34.1695C81.7177 29.8647 77.6856 29.5956 76.0728 29.5956H71.2342V37.1291V37.1291Z" fill="black"></path><path d="M75.804 40.627H71.7719C70.159 40.627 68.2773 40.0889 68.2773 36.8603V21.5243C68.2773 18.5647 70.159 17.7576 71.7719 17.7576H75.5352C77.4168 17.7576 83.3306 17.7576 83.3306 23.6767C83.3306 26.0982 82.2554 27.4435 81.1802 28.2506C82.5242 29.0578 83.8683 30.6721 83.8683 33.6317C84.4059 37.1294 82.793 40.627 75.804 40.627ZM72.0407 37.1294C72.0407 37.1294 72.3095 37.1294 72.0407 37.1294H75.5352C78.7609 37.1294 80.3737 36.5912 80.3737 34.1698C80.3737 31.7483 79.0297 30.6721 75.804 30.6721H72.0407V37.1294C72.0407 37.1294 72.0407 37.1294 72.0407 37.1294ZM72.0407 27.1744H75.5352C78.4921 27.1744 79.5673 26.3673 79.5673 24.2148C79.5673 21.7934 78.2233 21.5243 75.2664 21.5243H72.0407V27.1744Z" fill="black"></path><path d="M140.856 39.2815C140.856 40.0887 140.318 40.0887 140.049 40.0887C139.512 40.0887 139.243 39.8196 139.243 39.2815V20.4478H132.523C131.985 20.4478 131.716 19.9097 131.716 19.6407C131.448 19.3716 131.716 18.8335 132.254 18.8335H147.307C147.845 18.8335 148.114 19.3716 148.114 19.6407C148.114 20.1788 147.845 20.4478 147.307 20.4478H140.587V39.2815H140.856Z" fill="#727171"></path><path d="M139.781 41.1651C138.705 41.1651 137.899 40.358 137.899 39.2818V21.5243H132.254C131.179 21.5243 130.372 20.7171 130.372 19.6409C130.372 18.5647 131.179 17.7576 132.254 17.7576H147.307C148.382 17.7576 149.189 18.5647 149.189 19.6409C149.189 20.7171 148.382 21.5243 147.307 21.5243H141.662V39.2818C141.662 40.358 140.856 41.1651 139.781 41.1651Z" fill="#727171"></path><path d="M156.716 33.0933L154.296 39.2815C154.296 39.5506 154.028 40.0887 153.49 40.0887C153.221 40.0887 152.683 39.8196 152.683 39.2815C152.683 39.0124 152.683 38.7434 152.952 38.7434L160.479 19.6407C160.748 19.1026 161.017 18.5645 161.823 18.5645C162.898 18.5645 163.167 19.3716 163.167 19.6407L170.694 38.7434C170.694 39.0124 170.962 39.2815 170.962 39.2815C170.962 39.8196 170.425 40.0887 169.887 40.0887C169.35 40.0887 169.081 39.5506 169.081 39.2815L166.662 33.0933H156.716ZM165.855 31.748L161.554 20.7169L157.253 31.748H165.855Z" fill="#727171"></path><path d="M169.887 41.1652C168.812 41.1652 168.274 40.0889 168.274 39.8199L166.124 34.1698H157.522L155.372 39.8199C155.103 40.0889 154.834 41.1652 153.49 41.1652C152.684 41.1652 151.608 40.358 151.608 39.2818C151.608 39.0127 151.608 38.7437 151.877 38.4746L159.404 19.1028C159.941 17.7576 161.017 17.4885 161.823 17.4885C162.629 17.4885 163.705 17.7576 164.242 19.1028L171.769 38.2056C171.769 38.4746 172.038 38.7437 172.038 39.2818C171.769 40.358 170.694 41.1652 169.887 41.1652ZM158.597 30.6721H164.242L161.285 23.4077L158.597 30.6721Z" fill="#727171"></path><path d="M178.758 39.8196C176.339 39.8196 176.339 37.9362 176.339 37.1291V21.524C176.339 20.7169 176.339 18.8335 178.758 18.8335H182.79C184.672 18.8335 189.779 18.8335 189.779 23.9455C189.779 27.1741 187.628 28.2503 186.553 28.7884C187.897 29.3265 190.585 30.1337 190.585 33.9004C190.585 39.5505 184.94 39.5505 183.059 39.5505H178.758V39.8196ZM182.79 28.2503C184.134 28.2503 187.897 28.2503 187.897 24.2145C187.897 20.4478 184.672 20.4478 182.521 20.4478H179.295C178.489 20.4478 178.22 20.7169 178.22 21.524V27.9813H182.79V28.2503ZM178.22 37.1291C178.22 37.9362 178.489 38.2053 179.295 38.2053H182.79C184.94 38.2053 188.704 38.2053 188.704 34.1695C188.704 29.8647 184.672 29.5956 183.059 29.5956H178.22V37.1291V37.1291Z" fill="#727171"></path><path d="M182.79 40.627H178.758C177.145 40.627 175.263 40.0889 175.263 36.8603V21.5243C175.263 18.5647 177.145 17.7576 178.758 17.7576H182.79C184.672 17.7576 190.585 17.7576 190.585 23.6767C190.585 26.0982 189.51 27.4435 188.435 28.2506C189.779 29.0578 191.123 30.6721 191.123 33.6317C191.392 37.1294 189.779 40.627 182.79 40.627ZM179.295 37.1294H182.79C186.016 37.1294 187.629 36.5912 187.629 34.1698C187.629 31.7483 186.284 30.6721 183.059 30.6721H179.295V37.1294C179.295 37.1294 179.295 37.1294 179.295 37.1294ZM179.295 27.1744H182.79C185.747 27.1744 186.822 26.3673 186.822 24.2148C186.822 21.7934 185.478 21.5243 182.521 21.5243H179.295V27.1744Z" fill="#727171"></path><path d="M255.368 39.2815C255.368 40.0887 254.831 40.0887 254.562 40.0887C254.024 40.0887 253.755 39.8196 253.755 39.2815V20.4478H247.035C246.498 20.4478 246.229 19.9097 246.229 19.6407C246.229 19.1025 246.498 18.8335 247.035 18.8335H262.088C262.626 18.8335 262.895 19.3716 262.895 19.6407C262.895 20.1788 262.626 20.4478 262.088 20.4478H255.368V39.2815Z" fill="#727171"></path><path d="M254.293 41.1651C253.218 41.1651 252.411 40.358 252.411 39.2818V21.5243H246.766C245.691 21.5243 244.885 20.7171 244.885 19.6409C244.885 18.5647 245.691 17.7576 246.766 17.7576H261.82C262.895 17.7576 263.701 18.5647 263.701 19.6409C263.701 20.7171 262.895 21.5243 261.82 21.5243H256.175V39.2818C256.175 40.358 255.368 41.1651 254.293 41.1651Z" fill="#727171"></path><path d="M271.228 33.0933L268.809 39.2815C268.809 39.5506 268.54 40.0887 268.002 40.0887C267.734 40.0887 267.196 39.8196 267.196 39.2815C267.196 39.0124 267.196 38.7434 267.465 38.7434L274.991 19.6407C275.26 19.1026 275.529 18.5645 276.335 18.5645C277.411 18.5645 277.679 19.3716 277.679 19.6407L285.206 38.7434C285.206 39.0124 285.475 39.2815 285.475 39.2815C285.475 39.8196 284.937 40.0887 284.4 40.0887C283.862 40.0887 283.593 39.5506 283.593 39.2815L281.174 33.0933H271.228ZM280.368 31.748L276.067 20.7169L271.766 31.748H280.368Z" fill="#727171"></path><path d="M284.4 41.1652C283.324 41.1652 282.787 40.0889 282.787 39.8199L280.636 34.1698H272.034L269.884 39.8199C269.615 40.0889 269.346 41.1652 268.002 41.1652C267.196 41.1652 266.121 40.358 266.121 39.2818C266.121 39.0127 266.121 38.7437 266.389 38.4746L273.916 19.1028C274.454 17.7576 275.529 17.4885 276.335 17.4885C277.142 17.4885 278.217 17.7576 278.755 19.1028L286.281 38.2056C286.281 38.4746 286.55 38.7437 286.55 39.2818C286.281 40.358 285.206 41.1652 284.4 41.1652ZM273.11 30.6721H278.755L275.798 23.4077L273.11 30.6721Z" fill="#727171"></path><path d="M293.271 39.8196C290.851 39.8196 290.851 37.9362 290.851 37.1291V21.524C290.851 20.7169 290.851 18.8335 293.271 18.8335H297.034C298.916 18.8335 304.023 18.8335 304.023 23.9455C304.023 27.1741 301.873 28.2503 300.797 28.7884C302.141 29.3265 304.829 30.1337 304.829 33.9004C304.829 39.5505 299.184 39.5505 297.303 39.5505H293.271V39.8196ZM297.303 28.2503C298.647 28.2503 302.41 28.2503 302.41 24.2145C302.41 20.4478 299.184 20.4478 297.034 20.4478H293.808C293.002 20.4478 292.733 20.7169 292.733 21.524V27.9813H297.303V28.2503ZM292.733 37.1291C292.733 37.9362 293.002 38.2053 293.808 38.2053H297.303C299.453 38.2053 303.217 38.2053 303.217 34.1695C303.217 29.8647 299.184 29.5956 297.572 29.5956H292.733V37.1291V37.1291Z" fill="#727171"></path><path d="M297.571 40.627H293.539C291.926 40.627 290.045 40.0889 290.045 36.8603V21.5243C290.045 18.5647 291.926 17.7576 293.539 17.7576H297.303C299.184 17.7576 305.098 17.7576 305.098 23.6767C305.098 26.0982 304.023 27.4435 302.947 28.2506C304.292 29.0578 305.636 30.6721 305.636 33.6317C305.904 37.1294 304.292 40.627 297.571 40.627ZM293.808 37.1294H297.303C300.528 37.1294 302.141 36.5912 302.141 34.1698C302.141 31.7483 300.797 30.6721 297.571 30.6721H293.808V37.1294C293.808 37.1294 293.808 37.1294 293.808 37.1294ZM293.808 27.1744H297.303C300.259 27.1744 301.335 26.3673 301.335 24.2148C301.335 21.7934 299.991 21.5243 297.034 21.5243H293.808V27.1744Z" fill="#727171"></path><path d="M109.943 0H0V4.30484H109.943V0Z" fill="black"></path><path d="M110.212 2.1521H104.835V51.6578H110.212V2.1521Z" fill="black"></path><path d="M222.036 0H114.244V4.30484H222.036V0Z" fill="#727171"></path><path d="M222.305 2.1521H216.929V51.6578H222.305V2.1521Z" fill="#727171"></path><path d="M333.592 0H225.799V4.30484H333.592V0Z" fill="#727171"></path><path d="M333.592 2.1521H328.215V51.6578H333.592V2.1521Z" fill="#727171"></path><path d="M5.37618 2.1521H0V51.6578H5.37618V2.1521Z" fill="black"></path><path d="M343 49.5056H104.835V53.8105H343V49.5056Z" fill="black"></path></svg> 