<?xml version="1.0" encoding="UTF-8"?> <svg xmlns="http://www.w3.org/2000/svg" width="602" height="374" viewBox="0 0 602 374" fill="none"><path d="M26.1405 24.6215H9.46068C8.73548 24.6215 8.01041 24.6219 8.01041 23.1714C8.01041 21.7209 9.46068 21.7204 9.46068 21.7204H26.1405V18.0943C26.1405 17.369 26.1404 16.6442 27.5908 16.6442C29.0412 16.6442 29.0413 18.0943 29.0413 18.0943V34.7749C29.0413 35.5001 29.0412 36.9509 27.5908 36.9509C26.1404 36.9509 26.1405 35.4999 26.1405 35.4999V32.5988C21.7893 33.3241 9.46086 35.4999 8.73566 35.4999C8.01045 35.4999 7.28516 34.775 7.28516 34.0498C7.28516 32.5994 8.01045 32.5988 8.73566 32.5988C15.2625 31.8736 20.3389 31.1491 25.4153 29.6986V24.6215H26.1405ZM17.438 58.7078V68.8602C17.438 69.5855 17.4381 70.3112 15.9877 70.3112C14.5373 70.3112 14.5372 69.5855 14.5372 68.8602V45.6533C14.5372 41.3019 15.9875 39.8511 20.3388 39.8511H47.8967C52.2479 39.8511 53.6982 41.3019 53.6982 45.6533V63.784C53.6982 69.5858 50.7974 69.5862 46.4462 69.5862H41.3699C40.6447 69.5862 39.9194 69.5857 39.9194 68.1352C39.9194 66.6847 41.3699 66.6851 41.3699 66.6851C42.0951 66.6851 47.1715 66.6851 47.8967 66.6851C49.3471 66.6851 50.7975 66.6849 50.7975 63.784V58.7078H17.438V58.7078ZM50.0722 47.8293V45.6533C50.0722 43.4776 49.3471 42.7522 47.1714 42.7522H21.064C18.8884 42.7522 18.1632 43.4776 18.1632 45.6533V47.8293H50.0722ZM17.438 50.7295V55.8067H50.0722V50.7295H17.438ZM40.6446 31.1487C40.6446 33.3244 42.095 33.3248 43.5454 33.3248C54.4235 33.3248 55.1488 33.3248 55.874 33.3248C56.5992 33.3248 57.3243 32.5995 57.3243 29.6986C57.3243 28.9734 57.3244 27.5226 58.7748 27.5226C59.5 27.5226 60.9503 28.2475 60.9503 28.9727C60.9503 30.4231 60.2252 34.0496 59.5 34.7749C58.7748 35.5001 57.3242 35.4999 52.973 35.4999C51.5226 35.4999 44.9958 35.4999 43.5454 35.4999C40.6446 35.4999 38.4689 34.775 38.4689 30.4237V18.0943C38.4689 17.369 38.469 16.6442 39.9194 16.6442C41.3698 16.6442 41.3699 18.0943 41.3699 18.0943V22.4463C44.2707 21.7211 49.3471 20.9959 55.1487 18.8202C56.5992 18.095 57.3243 18.0943 58.0495 18.0943C58.7747 18.0943 59.5 18.82 59.5 19.5453C59.5 20.2705 58.7748 20.9959 55.1487 22.4463C49.3471 24.622 44.9959 25.3466 41.3699 25.3466V31.1487H40.6446Z" fill="black"></path><path d="M15.9855 72.4857C15.2603 72.4857 12.3595 72.4857 12.3595 68.8596V45.6532C12.3595 40.5767 14.5351 37.676 19.6115 37.676H24.6878C23.9626 36.9508 23.9626 36.2254 23.9626 34.775V34.0499C18.8862 34.7751 9.45866 36.9509 8.73345 36.9509C6.55783 36.9509 5.10742 35.5005 5.10742 33.3249C5.10742 31.8745 5.83263 30.424 8.73345 29.6988H10.909C15.9854 28.9736 20.3366 28.248 23.9626 27.5228V25.3468H9.45848C7.28286 25.3468 5.83245 23.8964 5.83245 21.7208C5.83245 20.2703 6.55766 18.0947 9.45848 18.0947H23.9626V16.6446C23.9626 13.7438 25.413 13.0186 27.5886 13.0186C29.039 13.0186 31.2147 13.7438 31.2147 16.6446V33.3249C31.2147 34.7753 30.4896 35.4998 30.4896 36.225H47.8945C52.971 36.225 55.1466 38.4014 55.1466 44.2031V62.3334C55.1466 69.5855 50.07 69.5855 45.7188 69.5855H40.6425C38.4669 69.5855 37.0164 68.1351 37.0164 65.9595C37.0164 64.5091 37.7416 62.3334 40.6425 62.3334C41.3677 62.3334 42.8181 62.3334 44.2685 62.3334C45.7189 62.3334 46.4441 62.3334 47.1693 62.3334C48.6197 62.3334 48.6198 62.3329 48.6198 60.8825V57.2564H19.6115V65.9595C19.6115 71.036 17.4359 72.4857 15.9855 72.4857ZM51.5206 65.9595C51.5206 66.6847 50.7953 67.4094 50.0701 68.1346C50.7953 67.4094 51.5206 67.4099 51.5206 65.9595ZM15.9855 57.2564C15.9855 57.2564 16.7107 57.2564 15.9855 57.2564C16.7107 57.2564 15.9855 57.2564 15.9855 57.2564ZM19.6115 54.3554H48.6198V52.9053H19.6115V54.3554ZM15.9855 48.5542C16.7107 49.2794 16.7107 49.2794 15.9855 48.5542C16.7107 49.2794 16.7107 49.2794 15.9855 48.5542ZM19.6115 45.6532H48.6198C48.6198 44.2027 48.6197 44.2031 47.1693 44.2031H21.0618C19.6114 44.2031 19.6115 44.2027 19.6115 45.6532ZM26.8636 23.1717C27.5888 23.1717 27.5888 23.1717 26.8636 23.1717C27.5888 23.1717 27.5888 23.1717 26.8636 23.1717ZM42.818 37.676C40.6424 37.676 35.5659 37.6758 35.5659 31.1489V18.8206C35.5659 15.9198 37.0164 15.1945 39.192 15.1945C40.6424 15.1945 42.818 15.9198 42.818 18.8206V20.9957C45.7188 20.2705 49.3449 19.5451 53.6961 18.0947C55.8717 17.3695 56.5969 16.6446 57.3221 16.6446C58.7725 16.6446 60.9481 18.095 60.9481 20.2707C60.9481 22.4463 58.7727 23.8966 55.8718 24.6218C50.7954 26.0722 47.1693 26.7976 43.5432 27.5228V31.1489V31.8739H44.2685C52.2458 31.8739 55.1466 31.8739 55.8718 31.8739C55.8718 31.8739 55.8718 31.1492 55.8718 29.6988C55.8718 26.798 58.0475 26.0727 59.4979 26.0727C61.6735 26.0727 63.1239 27.5232 63.1239 29.6988C63.1239 29.6988 63.1238 35.5005 60.9481 36.9509C59.4977 38.4014 58.0473 38.401 52.9708 38.401L42.818 37.676ZM39.192 23.8968C39.192 24.622 39.192 24.622 39.192 23.8968C39.9172 24.622 39.9172 23.8968 39.192 23.8968Z" fill="black"></path><path d="M102.287 38.4009H126.218C126.944 38.4009 127.669 38.4006 127.669 39.851C127.669 41.3014 126.218 41.3019 126.218 41.3019H75.4542C74.729 41.3019 74.0039 41.3014 74.0039 39.851C74.0039 38.4006 75.4542 38.4009 75.4542 38.4009H99.386V34.7749H84.8819C81.2559 34.7749 80.5307 33.3246 80.5307 30.4238V23.8967C80.5307 20.2706 81.9811 19.5456 84.8819 19.5456H116.791C120.417 19.5456 121.867 20.9958 121.867 23.8967V30.4238C121.867 34.0498 120.417 34.7749 116.791 34.7749H102.287V38.4009ZM76.1794 68.8595C75.4542 68.8595 74.7289 68.1346 74.7289 67.4094C74.7289 66.6842 74.7291 66.6838 77.6299 65.2334C81.2559 63.783 84.1567 61.6079 87.0575 59.4322C87.7827 58.707 87.7828 58.7072 88.508 58.7072C89.2332 58.7072 89.9582 59.4321 89.9582 60.1573C89.233 61.6077 78.355 68.8595 76.1794 68.8595ZM103.012 65.2334C103.012 66.6838 103.012 69.5854 100.111 69.5854C99.3858 69.5854 98.6606 69.5854 92.859 69.5854C92.1338 69.5854 90.6835 69.585 90.6835 67.4094C90.6835 65.959 92.134 65.9593 92.134 65.9593C92.134 65.9593 97.2103 65.9593 97.9355 65.9593C99.3859 65.9593 100.111 65.2338 100.111 63.7833V55.0811H86.3322C82.7062 55.0811 81.2559 53.63 81.2559 50.7292V48.5541C81.2559 44.928 82.7062 44.203 86.3322 44.203H116.791C120.417 44.203 121.142 45.6532 121.142 48.5541V50.7292C121.142 54.3552 119.692 55.0811 116.791 55.0811H103.012V65.2334V65.2334ZM83.4314 24.6217H118.966V22.4466C118.966 21.7214 118.241 20.9957 117.516 20.9957H84.8819C84.1567 20.9957 83.4314 21.7214 83.4314 22.4466V24.6217ZM83.4314 27.5227V30.4238C83.4314 31.149 84.1567 31.8738 84.8819 31.8738H117.516C118.241 31.8738 118.966 31.149 118.966 30.4238V27.5227H83.4314ZM86.3322 47.1031C85.607 47.1031 84.8819 47.8288 84.8819 48.5541V51.4551C84.8819 52.1803 85.607 52.9052 86.3322 52.9052H116.791C117.516 52.9052 118.241 52.1803 118.241 51.4551V48.5541C118.241 47.8288 117.516 47.1031 116.791 47.1031H86.3322ZM113.89 58.7072C114.615 58.7072 114.615 58.7068 116.066 60.1573C120.417 63.7833 125.493 65.9593 126.944 65.9593C127.669 65.9593 127.669 66.6842 127.669 67.4094C127.669 68.1346 126.944 68.8595 126.218 68.8595C124.768 68.8595 121.142 66.6838 119.692 65.2334C116.066 63.0578 113.89 61.6075 113.165 60.8823C112.44 60.1571 112.44 60.1574 112.44 59.4322C111.714 59.4322 113.165 58.7072 113.89 58.7072Z" fill="black"></path><path d="M92.8623 71.7606C89.2363 71.7606 88.5113 69.585 88.5113 68.1345C88.5113 67.4093 88.5113 64.5084 92.1373 64.5084C92.1373 64.5084 95.0379 64.5084 96.4883 64.5084H97.2136H97.9388V57.2562H91.412C92.1372 57.9815 92.1373 58.707 92.1373 59.4322C91.4121 63.0583 79.0835 69.5855 76.9079 69.5855C74.7323 69.5855 73.2819 68.135 73.2819 65.9594C73.2819 63.7837 74.7323 63.0585 76.9079 62.3333C80.534 60.8829 82.7094 59.4319 85.6103 57.2562C81.259 57.2562 79.8087 55.0804 79.8087 50.7291V48.554C79.8087 44.9279 81.2592 42.752 84.8852 42.0268H76.1827C72.5566 42.0268 72.5566 39.1258 72.5566 39.1258C72.5566 37.6753 73.2818 36.2247 76.1827 36.2247H97.9388H85.6103C81.259 36.2247 79.0834 34.0498 79.0834 29.6985V23.1713C79.0834 18.82 81.259 16.6442 85.6103 16.6442H117.519C121.871 16.6442 124.046 18.82 124.046 23.1713V29.6985C124.046 34.0498 121.871 36.2247 117.519 36.2247H104.466H126.947C130.573 36.2247 130.573 39.1258 130.573 39.1258C130.573 40.5762 129.848 42.0268 126.947 42.0268H118.245C121.871 42.752 123.321 44.2027 123.321 48.554V50.7291C123.321 55.0804 121.145 57.2562 116.794 57.2562H116.069L116.794 57.9813C121.145 61.6074 125.497 63.7834 126.947 63.7834C127.672 63.7834 129.123 64.5088 129.123 66.6844C129.123 68.8601 127.672 70.3105 125.497 70.3105C124.046 70.3105 122.596 69.5853 118.245 66.6844H117.519C113.168 64.5088 111.718 63.0585 110.992 62.3333C110.992 62.3333 109.542 60.8825 109.542 60.1573C109.542 59.4321 109.542 58.7065 110.267 57.9813H103.74V65.2335C103.74 68.8596 102.29 71.0354 98.6641 71.7606C98.6641 71.7606 97.9388 71.7606 92.8623 71.7606ZM100.84 66.6844C100.84 67.4096 100.115 67.4093 99.3893 68.1345C100.115 68.1345 100.84 67.4096 100.84 66.6844ZM86.3355 51.455H116.069V48.554H86.3355V51.455ZM85.6103 29.6985H117.519V28.9725L85.6103 29.6985ZM85.6103 23.1713H117.519H85.6103Z" fill="black"></path><path d="M176.984 21.7203C179.16 21.7203 182.061 21.7204 182.061 24.6213C182.061 27.5222 178.435 31.1488 176.259 33.3244H185.687C190.038 33.3244 191.488 34.7743 191.488 39.1256V46.3778C191.488 50.7291 190.038 52.1799 185.687 52.1799H150.877V63.0581C150.877 65.959 153.052 65.9591 154.503 65.9591H186.412C190.038 65.9591 190.763 65.9589 191.488 59.432C191.488 57.9816 191.488 57.256 192.939 57.256C192.939 57.256 195.114 57.2565 195.114 58.707C195.114 59.4322 194.389 63.0576 193.664 65.2332C192.214 69.5845 189.313 69.5852 185.687 69.5852H153.053C148.701 69.5852 146.526 69.5849 146.526 63.7831V39.1256C146.526 34.7743 147.976 33.3244 152.327 33.3244H171.183C172.633 31.874 177.709 26.7968 177.709 25.3463C177.709 24.6211 176.984 24.6213 176.259 24.6213H158.854C153.052 30.423 143.625 36.2246 142.9 36.2246C142.175 36.2246 141.449 34.7747 141.449 34.0495C141.449 33.3242 142.175 32.5985 142.9 32.5985C146.526 30.4228 154.503 26.0716 160.305 18.0942C161.03 17.369 161.03 16.6441 162.48 16.6441C163.205 16.6441 163.931 17.369 163.931 18.0942C163.931 18.8194 163.931 18.8199 163.205 19.5451C162.48 20.2704 162.48 20.995 161.755 21.7203H176.984V21.7203ZM167.557 36.2246H153.778C151.602 36.2246 150.877 36.95 150.877 39.1256V50.0039H167.557V36.2246V36.2246ZM170.457 36.2246V50.0039H184.962C187.137 50.0039 187.862 49.2785 187.862 47.1028V39.8507C187.862 37.675 187.137 36.9505 184.962 36.9505H170.457V36.2246Z" fill="black"></path><path d="M186.409 71.0363H153.774C150.148 71.0363 145.072 71.0365 145.072 63.059V38.4009C145.072 37.6757 145.072 36.9501 145.072 36.2249C143.621 36.9501 142.896 36.9508 142.171 36.9508C139.995 36.9508 138.545 34.7751 138.545 33.3247C138.545 31.149 139.995 30.4236 140.72 30.4236C147.973 26.7974 153.774 22.4459 157.4 16.644C158.126 15.9188 158.851 14.468 161.026 14.468C163.202 14.468 164.652 15.9186 164.652 17.3691C164.652 18.0943 164.652 18.0948 164.652 18.8201H176.256C178.431 18.8201 182.783 18.8197 182.783 23.8963C182.783 26.072 181.332 28.2477 179.157 31.1486H184.233C189.309 31.1486 192.21 33.3241 192.21 39.126V46.3783C192.21 51.4549 190.035 53.6306 184.233 53.6306H152.324V63.059C152.324 64.5094 152.324 64.5091 154.499 64.5091H186.409C189.309 64.5091 189.309 64.5094 190.035 59.4328C190.035 57.9824 190.76 55.0816 193.661 55.0816C195.836 55.0816 197.287 56.5321 197.287 58.7078C197.287 59.433 196.561 63.7844 195.836 65.9601C194.386 71.0367 189.309 71.0363 186.409 71.0363ZM149.423 66.6851C150.148 66.6851 150.148 66.6851 149.423 66.6851C150.148 66.6851 150.148 66.6851 149.423 66.6851ZM149.423 50.7295C149.423 51.4547 149.423 50.7295 149.423 50.7295V50.7295ZM172.63 47.8293H184.958C185.683 47.8293 186.409 47.8288 186.409 46.3783V39.126C186.409 38.4008 186.409 37.6759 184.958 37.6759H172.63V47.8293ZM152.324 47.8293H165.377V37.6759H153.049C152.324 37.6759 151.599 37.6755 151.599 39.126V47.8293H152.324ZM173.355 34.0497H174.805C174.805 34.0497 174.805 34.0499 174.805 33.3247V32.5987C174.08 33.324 173.355 34.0497 173.355 34.0497ZM153.774 31.1486H171.179C172.63 29.6982 174.805 27.5228 175.531 26.0724H159.576C158.125 27.5228 155.95 29.6982 153.774 31.1486ZM179.157 23.1713C179.882 23.8965 179.882 24.6212 179.882 25.3464V26.0724C179.882 25.3471 180.607 24.6214 180.607 24.6214C180.607 23.8961 180.607 23.1713 179.157 23.1713ZM160.301 20.9952C160.301 21.7204 159.576 21.721 159.576 22.4462H161.026C160.301 21.721 160.301 21.7204 160.301 20.9952Z" fill="black"></path><path d="M225.571 31.8735C226.296 31.8735 226.296 31.8735 225.571 31.8735C227.021 28.2473 227.746 24.6212 227.746 20.9951C227.746 18.8194 227.746 18.094 229.922 18.094C230.647 18.094 232.097 18.8197 232.097 19.545C232.097 20.2702 231.372 24.6214 229.922 31.1484C230.647 31.1484 231.372 31.1484 232.823 31.1484C245.151 31.1484 245.876 38.4007 245.876 45.653C245.876 63.7837 240.8 66.6848 233.548 66.6848C227.746 66.6848 227.746 65.2339 227.746 64.5087C227.746 63.7835 228.471 63.0586 229.197 63.0586H230.647C232.097 63.0586 232.823 63.0586 233.548 63.0586C238.624 63.0586 242.25 61.6082 242.25 44.9279C242.25 38.4009 241.525 33.3245 232.823 33.3245C231.372 33.3245 229.922 33.3245 229.197 33.3245C225.571 49.2795 221.219 57.9818 217.593 63.7837C216.868 65.2341 216.143 65.9597 215.418 65.9597C215.418 65.9597 213.242 65.9592 213.242 64.5087C213.242 63.7835 213.242 63.7833 214.692 61.6076C219.044 54.3554 222.67 44.2027 225.571 34.0495C223.395 34.0495 213.242 36.2247 212.517 36.2247C211.791 36.2247 211.066 35.4998 211.066 34.7746C211.066 33.3241 211.792 33.3245 213.967 33.3245L225.571 31.8735ZM253.854 34.7746C258.205 41.3016 259.655 47.8287 259.655 49.2791C259.655 50.7296 258.93 50.7292 257.48 50.7292C256.029 50.7292 256.029 50.0047 256.029 47.829C254.579 41.302 250.953 34.7749 245.876 29.6983C243.701 27.5226 243.701 27.5225 243.701 26.7972C243.701 26.072 244.426 25.3463 245.151 25.3463C247.327 26.0715 251.678 31.8737 253.854 34.7746ZM258.93 28.2473C258.93 28.9726 258.205 29.6983 256.754 29.6983C256.029 29.6983 256.029 29.6983 253.128 26.0722C252.403 25.347 250.227 23.1706 248.777 21.7201C248.052 20.9949 248.052 20.9952 248.052 20.27C248.052 19.5448 248.777 18.8199 249.502 18.8199C252.403 18.8199 258.93 26.7969 258.93 28.2473ZM265.457 23.1711C265.457 23.8963 264.732 24.6212 263.281 24.6212C262.556 24.6212 262.556 24.6212 259.655 20.9951C258.93 20.2698 256.754 18.0943 255.304 16.6439C254.579 15.9187 254.579 15.919 254.579 15.1938C254.579 14.4686 255.304 13.7428 256.029 13.7428C259.655 13.7428 265.457 22.4459 265.457 23.1711Z" fill="black"></path><path d="M232.827 69.5852C230.652 69.5852 224.85 69.5845 224.85 65.2333C224.85 63.0576 226.3 61.6072 227.751 61.6072C228.476 61.6072 229.201 61.6072 229.926 61.6072C230.652 61.6072 232.102 61.6072 232.827 61.6072C236.453 61.6072 240.079 61.6076 240.079 45.653C240.079 39.1261 239.354 36.2249 232.827 36.2249C232.102 36.2249 231.377 36.2249 230.651 36.2249C227.751 48.5534 224.125 57.9819 219.048 65.9592C218.323 67.4096 217.598 68.8593 215.422 68.8593C213.972 68.8593 211.796 68.1341 211.796 65.2333C211.796 63.7829 211.796 63.7829 213.246 61.6072C216.873 55.0803 220.498 46.3785 223.399 36.9508C221.949 36.9508 219.773 37.6758 218.323 37.6758C213.247 38.401 213.246 38.4009 213.246 38.4009C211.071 38.4009 210.346 36.9504 210.346 34.7748C210.346 31.874 212.521 31.874 215.422 31.1487L226.3 29.6987C227.026 26.7978 227.751 23.8966 227.751 20.2706C227.751 18.8202 228.476 15.9195 231.377 15.9195C233.552 15.9195 235.003 17.3699 235.003 19.5456C235.003 20.2708 234.278 24.6215 233.552 28.9728C248.057 28.9728 248.057 39.1261 248.057 45.653C246.606 63.058 242.98 69.5852 232.827 69.5852ZM226.3 34.0498C227.026 34.0498 227.026 34.0498 226.3 34.0498C227.026 34.0498 227.026 34.0498 226.3 34.0498C227.026 34.775 227.026 34.775 226.3 34.0498C227.026 34.0498 227.751 33.3247 228.476 33.3247C228.476 33.3247 228.476 33.324 228.476 32.5988C227.751 33.324 227.026 34.0498 226.3 34.0498ZM257.484 52.9051C254.583 52.9051 254.583 50.7296 253.858 48.554C252.408 42.0271 249.507 36.2252 244.43 31.1487C242.255 28.9731 241.529 28.2479 241.529 27.5227C241.529 26.0723 242.98 23.8966 245.156 23.8966C248.782 23.8966 253.858 31.8743 254.583 33.3247C258.935 39.8516 260.385 47.1036 260.385 48.554C261.11 51.4548 259.66 52.9051 257.484 52.9051ZM257.484 31.1487C256.034 31.1487 255.308 30.4235 253.133 27.5227L252.408 26.7977C251.682 26.0725 249.507 23.897 248.782 22.4466C248.056 21.7214 247.331 20.9958 247.331 20.2706C247.331 18.8202 248.782 16.6445 250.957 16.6445C253.858 16.6445 261.11 26.0723 261.11 27.5227C261.11 29.6983 258.935 31.1487 257.484 31.1487ZM264.011 26.7977C262.56 26.7977 261.835 26.0726 258.935 22.4466C258.209 21.7214 256.034 19.545 255.309 18.0946C254.583 17.3694 254.583 16.6447 254.583 15.9195C254.583 13.7439 256.034 12.2935 258.209 12.2935C261.11 12.2935 268.362 20.996 268.362 23.1716C267.637 25.3472 266.187 26.7977 264.011 26.7977Z" fill="black"></path><path d="M287.211 69.5862C287.211 70.3114 287.211 71.0363 285.761 71.0363C284.311 71.0363 284.311 70.3114 284.311 69.5862V37.6759C282.86 39.8516 281.41 42.0275 279.959 44.2032C279.234 44.9284 279.234 44.9282 278.509 44.9282C277.784 44.9282 277.059 44.2026 277.059 42.7522C277.059 42.027 277.784 41.3021 277.784 41.3021C282.86 35.5003 287.211 27.5229 290.112 18.8202C290.112 18.095 290.838 17.3692 291.563 17.3692C292.288 17.3692 293.738 18.095 293.738 18.8202C293.738 19.5454 291.563 26.797 287.937 32.5988V69.5862H287.211ZM311.868 69.5862C311.868 70.3114 311.868 71.0363 310.418 71.0363C308.968 71.0363 308.968 70.3114 308.968 69.5862V56.5317H299.54C295.189 56.5317 293.738 55.0809 293.738 50.7295V31.8738C293.738 27.5224 295.189 26.0725 299.54 26.0725H308.968V18.8202C308.968 18.095 308.968 17.3692 310.418 17.3692C311.868 17.3692 311.868 18.095 311.868 18.8202V26.0725H322.021C326.373 26.0725 327.823 27.5224 327.823 31.8738V50.7295C327.823 55.0809 326.373 56.5317 322.021 56.5317H311.868V69.5862ZM295.914 39.8511H308.242V28.9727H298.815C296.639 28.9727 295.914 29.6981 295.914 31.8738V39.8511ZM295.914 42.0271V50.0045C295.914 52.1802 296.639 52.9056 298.815 52.9056H308.242V42.0271H295.914ZM324.197 39.8511V31.8738C324.197 29.6981 323.472 28.9727 321.296 28.9727H311.868V39.8511H324.197ZM311.868 53.6306H322.021C324.197 53.6306 324.922 52.9052 324.922 50.7295V42.7522H311.868V53.6306Z" fill="black"></path><path d="M309.691 72.4857C308.241 72.4857 306.065 71.7605 306.065 68.8596V57.9813H298.088C293.012 57.9813 290.111 55.8058 290.111 50.004V31.1484C290.111 26.0718 292.286 23.1711 298.088 23.1711H306.065V17.369C306.065 14.4681 307.516 13.7429 309.691 13.7429C311.867 13.7429 313.317 15.1933 313.317 17.369V23.1711H322.02C327.096 23.1711 329.272 25.3466 329.272 31.1484V50.004C329.272 55.0806 327.096 57.9813 322.02 57.9813H313.317V68.8596C313.317 72.4857 310.417 72.4857 309.691 72.4857ZM309.691 55.0811C310.417 55.0811 310.416 55.0811 310.416 55.0811C310.416 55.0811 310.417 54.3559 309.691 55.0811C309.691 55.0811 309.691 54.3559 309.691 55.0811ZM313.317 51.455H321.295C322.02 51.455 322.745 51.4544 322.745 50.004V43.4768H313.317V51.455ZM298.088 44.2028V50.729C298.088 51.4543 298.088 52.18 299.538 52.18H306.79V44.9278H298.088V44.2028ZM309.691 41.3017C310.417 41.3017 310.416 41.3017 310.416 41.3017C310.416 40.5765 309.691 40.5765 309.691 41.3017C309.691 40.5765 309.691 40.5765 309.691 41.3017ZM294.462 40.5766C294.462 41.3019 294.462 41.3019 294.462 40.5766C294.462 41.3019 294.462 41.3019 294.462 40.5766ZM313.317 37.6756H322.745V31.1484C322.745 29.6979 322.745 29.6983 321.295 29.6983H313.317V37.6756ZM298.088 37.6756H306.79V30.4233H299.538C298.813 30.4233 298.088 30.423 298.088 31.8734V37.6756ZM309.691 26.7972C309.691 27.5224 309.691 27.5224 309.691 26.7972C310.417 26.7972 310.416 26.7972 310.416 26.7972C310.416 26.7972 310.417 26.7972 309.691 26.7972ZM285.76 72.4857C283.584 72.4857 282.134 71.0353 282.134 68.8596V42.0267C281.408 42.752 281.408 43.4768 280.683 43.4768C279.958 44.202 279.233 44.9278 277.782 44.9278C275.607 44.9278 274.156 42.7521 274.156 41.3017C274.156 39.8512 274.882 39.1258 275.607 38.4006C280.683 32.5988 285.034 24.6214 287.935 16.6439C288.661 15.1935 289.386 14.4679 290.836 14.4679C292.286 14.4679 294.462 15.9185 294.462 17.369C294.462 18.8194 291.561 26.0718 288.66 31.1484V68.1346C288.66 72.4859 286.485 72.4857 285.76 72.4857ZM283.584 35.4995C284.309 35.4995 284.309 35.4995 283.584 35.4995C284.309 35.4995 285.034 36.2246 285.034 36.2246V32.5985C284.309 33.3237 283.584 34.0491 283.584 35.4995Z" fill="black"></path><path d="M385.839 47.1026C385.839 61.607 377.137 68.1341 366.259 68.1341C355.381 68.1341 348.129 60.8825 348.129 51.4547C348.129 46.3781 349.579 37.6753 360.457 26.7971C353.205 27.5223 348.129 27.5221 348.129 27.5221C347.403 27.5221 345.953 27.5225 345.953 26.072C345.953 24.6216 346.678 24.6211 350.304 24.6211C353.205 24.6211 356.831 24.6212 360.457 23.896C361.182 23.896 364.808 23.171 364.808 23.171C366.259 23.171 366.259 23.8958 366.259 24.6211C366.259 25.3463 366.259 25.3466 364.808 26.7971C356.831 33.324 351.029 42.7513 351.029 50.7287C351.029 58.7061 356.831 64.508 365.534 64.508C378.587 64.508 381.488 53.6298 381.488 46.3776C381.488 42.7515 380.763 34.7746 377.137 26.072C377.137 25.3468 375.686 22.4452 375.686 21.72C375.686 20.9948 376.412 20.2699 377.862 20.2699C378.587 20.2699 378.587 20.2701 380.038 23.171C383.664 28.9727 389.465 34.0491 395.267 38.4004C395.992 39.1256 395.992 39.1252 395.992 39.8505C395.992 40.5757 395.267 41.3014 394.542 41.3014C393.817 41.3014 393.091 41.3011 391.641 39.1254C388.015 36.2245 385.114 32.5983 382.213 28.9722C383.664 34.0487 385.839 39.8505 385.839 47.1026ZM390.191 22.4459C390.916 23.8964 393.092 26.7969 393.092 27.5221C393.092 28.2473 392.366 28.9722 391.641 28.9722C390.916 28.9722 390.191 28.9722 388.74 25.3461C388.015 24.6209 385.839 20.2701 385.114 19.5449V18.8199C385.114 18.8199 385.114 17.3689 387.29 17.3689C386.565 18.0941 386.565 18.0946 390.191 22.4459ZM397.443 18.8199C398.168 20.2703 400.344 23.1708 400.344 23.896C400.344 24.6212 399.618 25.3461 398.168 25.3461C397.443 25.3461 397.443 25.3461 395.267 21.72C394.542 20.9948 391.641 16.644 391.641 15.9188V15.1938C391.641 14.4685 392.366 13.7428 393.817 13.7428C393.817 14.468 395.267 16.6442 397.443 18.8199Z" fill="black"></path><path d="M366.255 70.3112C354.652 70.3112 345.949 62.3339 345.949 51.4556C345.949 44.2034 348.85 36.9505 355.377 28.9731C350.3 29.6983 348.125 29.699 347.399 29.699C344.499 29.699 343.773 27.5233 343.773 26.0729C343.773 22.4468 345.949 22.4468 349.575 22.4468C352.476 22.4468 356.102 22.4461 359.728 21.7209C360.453 21.7209 361.178 21.7209 361.904 21.7209C363.354 21.7209 364.079 21.7209 364.804 21.7209C366.98 21.7209 368.43 23.1713 368.43 25.347C368.43 26.7974 367.705 27.5226 366.255 28.9731C358.278 34.7748 353.201 44.2034 353.201 51.4556C353.201 58.7078 358.278 63.784 366.255 63.784C378.583 63.784 380.759 53.6313 380.759 47.8295C380.759 44.9286 380.034 36.9507 376.408 28.248V27.523C374.957 25.3473 374.957 24.6223 374.957 23.1718C374.957 21.7214 376.408 19.5457 378.584 19.5457C380.034 19.5457 380.759 20.2711 382.21 22.4468C385.836 27.5233 390.187 32.5997 396.714 37.6762C397.439 38.4015 398.164 39.1269 398.164 40.5773C398.164 42.753 396.714 44.2034 394.538 44.2034C393.088 44.2034 392.362 43.4778 390.187 42.0274C388.736 40.577 387.286 39.1265 385.836 38.4013C386.561 41.3022 386.561 44.2034 386.561 47.8295C387.286 63.7844 376.408 70.3112 366.255 70.3112ZM379.309 23.8969C379.309 23.8969 379.309 24.6219 380.034 24.6219C380.034 25.3471 380.034 25.347 380.759 25.347C381.484 26.0722 381.484 27.5228 382.21 28.248C382.21 28.248 382.209 28.2482 382.935 27.523C380.759 26.7978 380.034 26.0725 379.309 23.8969C379.309 24.6221 379.309 24.6221 379.309 23.8969ZM361.904 25.347C361.904 25.347 361.904 26.0722 361.904 25.347C362.629 26.0722 362.629 26.7979 362.629 26.7979C363.354 26.0727 363.354 26.0722 364.079 25.347C364.079 25.347 364.804 25.3471 364.804 24.6219C364.079 24.6219 363.354 24.6219 363.354 24.6219C362.629 25.3471 361.904 25.347 361.904 25.347ZM390.912 31.1491C388.736 31.1491 388.736 30.424 386.561 26.7979L385.11 24.6219C384.385 23.1715 382.935 21.721 382.935 20.9958C382.935 20.9958 382.21 20.2711 382.21 18.8207C382.21 17.3702 382.935 15.1946 385.836 15.1946C387.286 15.1946 388.011 15.9193 391.637 20.9958C392.362 22.4463 395.263 25.3473 395.263 27.523C394.538 29.6986 393.088 31.1491 390.912 31.1491ZM398.164 27.523C395.988 27.523 395.988 26.7978 393.813 23.8969V23.1718C393.813 22.4466 392.362 20.996 391.637 20.2708C390.912 19.5455 390.187 18.0947 390.187 18.0947C390.187 18.0947 389.462 17.3701 389.462 15.9196C389.462 15.1944 390.187 14.4688 390.912 13.7436C391.637 13.0184 392.362 13.0186 393.813 13.0186C395.263 13.0186 396.714 15.1939 398.889 18.0947V18.8207C400.34 20.9963 402.515 23.8965 402.515 25.347C401.79 26.0722 400.34 27.523 398.164 27.523Z" fill="black"></path><path d="M416.303 28.9722C415.578 28.9722 414.853 28.9722 414.853 28.9722C413.402 28.9722 413.402 28.2475 413.402 26.7971C413.402 25.3467 414.128 25.3461 414.853 25.3461C414.853 25.3461 420.654 24.6211 421.38 24.6211L460.541 21.72H462.717C463.442 21.72 464.167 21.7204 464.167 23.896C464.167 25.3465 463.442 25.3468 460.541 26.0721C448.212 27.5225 433.708 36.2249 433.708 48.5537C433.708 56.5311 439.51 61.6074 449.663 63.7831C453.289 64.5083 453.289 64.5087 453.289 65.9591C453.289 65.9591 453.289 68.1342 451.113 68.1342C449.663 68.1342 444.586 66.6836 440.96 65.2332C438.059 63.7827 429.357 59.432 429.357 48.5537C429.357 38.4006 436.609 30.4227 448.938 25.3461L416.303 28.9722Z" fill="black"></path><path d="M449.659 69.5853C447.484 69.5853 442.407 68.1347 438.781 66.6842C428.628 62.333 426.452 54.3556 426.452 48.5539C426.452 40.5766 430.804 34.0494 438.781 28.2477L416.3 30.4236C415.574 30.4236 414.849 30.4236 414.124 30.4236C411.948 30.4236 410.498 28.9732 410.498 26.7976C410.498 26.0724 410.498 23.8967 412.674 23.1715C413.399 23.1715 419.926 22.4465 419.926 22.4465L458.362 19.5455H460.537C463.438 19.5455 464.163 21.7211 464.163 23.1715C464.163 26.0724 461.988 26.7976 458.362 26.7976C446.033 28.248 433.705 36.95 433.705 47.103C433.705 54.3551 438.056 58.7065 448.209 60.8822C451.835 61.6074 453.285 62.3326 453.285 64.5082C454.01 67.4091 452.56 69.5853 449.659 69.5853ZM443.858 64.5082C446.033 65.2335 448.209 65.9592 448.934 65.9592C448.209 65.9592 448.209 65.9592 447.484 65.9592C446.033 65.234 445.308 64.5082 443.858 64.5082ZM414.124 26.7976C414.124 26.7976 414.849 26.7976 415.574 26.7976H419.2C418.475 26.7976 415.575 26.7976 414.124 26.7976ZM449.659 24.6216C449.659 24.6216 450.384 25.3468 449.659 24.6216C449.659 25.3468 449.659 25.3473 449.659 26.0726C451.835 25.3473 454.736 24.6218 457.637 23.8966L449.659 24.6216Z" fill="black"></path><path d="M503.322 42.7518H489.543C485.192 42.7518 483.741 41.3019 483.741 36.9506V23.1714C483.741 22.4462 483.741 21.7204 485.192 21.7204C486.642 21.7204 486.642 22.4462 486.642 23.1714V36.9506C486.642 39.1263 488.092 39.8508 489.543 39.8508H503.322V18.8203C503.322 18.0951 503.322 17.3693 504.772 17.3693C506.223 17.3693 506.223 18.0951 506.223 18.8203V39.8508H520.002C522.177 39.8508 522.902 39.1263 522.902 36.9506V23.1714C522.902 22.4462 522.902 21.7204 524.353 21.7204C525.803 21.7204 525.803 22.4462 525.803 23.1714V36.9506C525.803 41.3019 524.353 42.7518 520.002 42.7518H506.223V66.6843H522.177C524.353 66.6843 525.078 65.9589 525.078 63.7832V51.4549C525.078 50.7297 525.078 50.004 526.529 50.004C527.979 50.004 527.979 50.7297 527.979 51.4549V63.7832C527.979 68.1345 526.528 69.5853 522.177 69.5853H485.917C481.566 69.5853 480.115 68.1345 480.115 63.7832V51.4549C480.115 50.7297 480.115 50.004 481.566 50.004C483.016 50.004 483.016 50.7297 483.016 51.4549V63.7832C483.016 65.9589 484.466 66.6843 485.917 66.6843H501.871V42.7518H503.322Z" fill="black"></path><path d="M523.632 71.0363H487.372C482.295 71.0363 479.395 68.8608 479.395 63.059V50.7295C479.395 47.8286 480.845 47.1034 483.021 47.1034C485.196 47.1034 486.647 48.5538 486.647 50.7295V63.059C486.647 63.7842 486.646 64.5091 488.097 64.5091H502.601V44.2031H490.273C485.196 44.2031 483.021 42.0267 483.021 36.2249V22.4462C483.021 19.5453 484.471 18.8201 486.647 18.8201C488.822 18.8201 490.273 20.2705 490.273 22.4462V36.2249C490.273 36.9501 490.273 37.6759 491.723 37.6759H503.326V18.8201C503.326 15.9191 504.777 15.1939 506.952 15.1939C509.128 15.1939 510.578 16.6444 510.578 18.8201V37.6759H522.182C523.632 37.6759 523.632 37.6754 523.632 36.2249V22.4462C523.632 19.5453 525.083 18.8201 527.258 18.8201C529.434 18.8201 530.884 20.2705 530.884 22.4462V36.2249C530.884 41.3015 528.709 44.2031 522.907 44.2031H510.578V64.5091H525.083C525.808 64.5091 526.533 64.5094 526.533 63.059V50.7295C526.533 47.8286 527.984 47.1034 530.159 47.1034C532.335 47.1034 533.785 48.5538 533.785 50.7295V63.059C530.884 68.8608 528.709 71.0363 523.632 71.0363ZM504.777 67.4102C505.502 67.4102 505.502 67.4102 504.777 67.4102V67.4102ZM504.777 41.302C505.502 42.0273 505.502 41.302 505.502 41.302C505.502 41.302 505.502 40.5768 504.777 41.302C504.777 41.302 504.777 40.5768 504.777 41.302Z" fill="black"></path><path d="M553.371 41.3016H547.57C546.844 41.3016 546.119 41.3011 546.119 39.8507C546.119 38.4002 547.57 38.4006 547.57 38.4006H553.371V23.1713H547.57C546.844 23.1713 546.119 23.1708 546.119 21.7203C546.119 20.2699 547.57 20.2703 547.57 20.2703H562.799C563.524 20.2703 564.249 20.2699 564.249 21.7203C564.249 23.1708 562.799 23.1713 562.799 23.1713H556.272V38.4006H561.348C562.074 38.4006 562.799 38.4002 562.799 39.8507C562.799 41.3011 561.348 41.3016 561.348 41.3016H556.272V57.2559C558.448 56.5307 560.623 55.8059 561.348 55.8059C562.799 55.0807 563.524 55.0808 563.524 55.0808C564.249 55.0808 564.974 55.8057 564.974 56.5309C564.974 57.9813 564.974 57.9815 560.623 59.4319C554.822 60.8824 547.57 62.333 547.57 62.333C546.844 62.333 546.119 61.6072 546.119 60.882C546.119 59.4316 546.844 59.4319 547.57 59.4319C549.02 58.7067 551.921 58.7062 554.096 57.981V41.3016H553.371ZM571.501 50.7288C567.875 50.7288 567.15 49.2788 567.15 45.6527V23.1713C567.15 19.5452 568.6 18.8202 571.501 18.8202H592.532C596.158 18.8202 597.608 20.2704 597.608 23.1713V45.6527C597.608 49.2788 596.158 50.7288 592.532 50.7288H587.456V64.5081C587.456 66.6837 588.906 66.6841 590.356 66.6841C594.708 66.6841 595.433 66.6842 595.433 65.959C595.433 65.2338 595.433 64.5082 596.158 60.157C596.158 58.7065 596.158 57.981 597.608 57.981C598.334 57.981 599.059 58.7067 599.059 59.4319C599.059 60.8824 598.334 66.6837 597.608 68.1341C596.883 69.5846 596.158 69.5851 588.906 69.5851C586.005 69.5851 583.83 68.8593 583.83 64.5081V50.7288H577.303C576.578 56.5306 574.402 63.0578 565.7 67.4091C562.799 68.8595 559.898 69.5851 559.173 69.5851C558.448 69.5851 557.722 68.8595 557.722 67.4091C557.722 66.6839 558.448 65.959 559.173 65.959C567.15 63.7834 572.952 60.1568 574.402 50.0038H571.501V50.7288ZM570.051 28.9725H593.982V24.6214C593.982 23.1709 593.257 22.4463 591.807 22.4463H572.226C570.776 22.4463 570.051 23.1709 570.051 24.6214V28.9725ZM593.982 31.1485H570.051V37.6755H593.982V31.1485ZM570.051 40.5766V45.6527C570.051 47.1031 570.776 47.8287 572.226 47.8287H591.807C593.257 47.8287 593.982 47.1031 593.982 45.6527V40.5766H570.051Z" fill="black"></path><path d="M559.169 72.4857C556.993 72.4857 555.543 71.0353 555.543 68.8596C555.543 68.1344 555.543 66.6847 558.444 65.9594C565.696 63.7838 570.772 60.8824 572.222 53.6302H571.497C567.146 53.6302 564.97 51.4544 564.97 47.1031V41.3019C564.97 42.7523 563.52 43.477 561.344 43.477H557.718V55.8062C559.169 55.8062 559.894 55.0812 560.619 55.0812H561.344C562.795 54.356 563.52 54.3552 563.52 54.3552C564.97 54.3552 566.421 55.8057 566.421 57.9813C566.421 60.8822 564.97 60.8829 560.619 62.3333C555.543 63.7838 547.565 65.2335 546.84 65.2335C545.39 65.2335 543.939 63.7831 543.939 61.6074C543.939 59.4318 546.115 58.7073 546.115 58.7073C547.565 57.982 549.741 57.9815 551.192 57.2563V43.477H547.565C544.665 43.477 543.939 42.0273 543.939 40.5768C543.939 39.1264 544.665 36.9507 547.565 36.9507H551.192V25.3465H547.565C544.665 25.3465 543.939 23.8968 543.939 22.4464C543.939 20.9959 544.665 19.5453 547.565 19.5453H562.795C564.245 19.5453 564.97 20.2702 565.696 20.9954C566.421 18.8198 568.596 18.0944 571.497 18.0944H592.528C596.88 18.0944 599.055 20.2702 599.055 24.6215V47.1031C599.055 51.4544 596.88 53.6302 592.528 53.6302H589.627V65.2335V65.9594H590.353C591.803 65.9594 593.253 65.9594 593.979 65.9594C593.979 65.2342 593.979 64.5088 593.979 63.0584V61.6074C593.979 60.157 593.979 57.2563 597.605 57.2563C599.78 57.2563 601.231 58.7067 601.231 60.8824C601.231 61.6076 601.231 68.1349 599.055 70.3106C597.605 72.4862 596.154 72.4857 588.902 72.4857C586.001 72.4857 582.375 71.7612 582.375 65.9594V53.6302H579.474C578.024 59.4319 575.849 65.9593 567.146 70.3106C564.245 71.0358 560.619 72.4857 559.169 72.4857ZM554.818 58.7073C555.543 58.7073 555.543 58.7073 554.818 58.7073V58.7073ZM571.497 46.378H591.078C591.078 46.378 591.803 46.3782 591.803 45.653V42.0269H571.497V46.378ZM554.092 39.8509C554.092 39.8509 554.817 39.8509 554.092 39.8509C554.817 39.8509 554.818 39.8509 554.818 39.8509C554.818 39.1257 554.817 39.1257 554.092 39.8509C554.092 39.1257 554.817 39.1257 554.092 39.8509ZM594.704 39.1259C594.704 39.8511 594.704 39.8511 594.704 39.1259V39.1259ZM568.596 39.1259C568.596 39.8511 568.596 39.1259 568.596 39.1259V39.1259ZM557.718 36.2248H561.344C563.52 36.2248 564.245 37.6756 564.97 38.4008V23.8965C564.245 23.8965 563.52 24.6215 562.795 24.6215H558.444V36.2248H557.718ZM571.497 36.2248H591.803V33.3246H571.497V36.2248ZM594.704 30.4236C594.704 29.6984 594.704 29.6984 594.704 30.4236V30.4236ZM568.596 29.6986C568.596 30.4238 568.596 30.4238 568.596 29.6986C568.596 30.4238 568.596 30.4238 568.596 29.6986ZM571.497 26.7975H591.803V23.8965V23.1714H572.222C572.222 23.1714 571.497 23.1712 571.497 23.8965V26.7975Z" fill="black"></path><path d="M308.972 144.282C306.796 144.282 305.346 142.832 305.346 140.656V137.03C305.346 134.854 306.796 133.404 308.972 133.404C311.147 133.404 312.598 134.854 312.598 137.03V140.656C312.598 142.832 311.147 144.282 308.972 144.282Z" fill="black"></path><path d="M308.972 195.773C306.796 195.773 305.346 194.323 305.346 192.147V185.621C305.346 183.445 306.796 181.995 308.972 181.995C311.147 181.995 312.598 183.445 312.598 185.621V192.147C312.598 194.323 311.147 195.773 308.972 195.773ZM308.972 170.39C306.796 170.39 305.346 168.94 305.346 166.764V160.238C305.346 158.062 306.796 156.612 308.972 156.612C311.147 156.612 312.598 158.062 312.598 160.238V166.764C312.598 168.215 311.147 170.39 308.972 170.39Z" fill="black"></path><path d="M308.972 218.98C306.796 218.98 305.346 217.53 305.346 215.354V211.728C305.346 209.552 306.796 208.102 308.972 208.102C311.147 208.102 312.598 209.552 312.598 211.728V215.354C312.598 217.53 311.147 218.98 308.972 218.98Z" fill="black"></path><path d="M290.84 210.277L308.97 241.462L327.1 210.277H290.84Z" fill="black"></path><path d="M21.7929 324.862H5.11325C4.38804 324.862 3.66275 324.863 3.66275 323.412C3.66275 321.962 5.11325 321.961 5.11325 321.961H21.7929V318.335C21.7929 317.61 21.793 316.885 23.2434 316.885C24.6938 316.885 24.6937 318.335 24.6937 318.335V335.016C24.6937 335.741 24.6938 337.191 23.2434 337.191C21.793 337.191 21.7929 335.741 21.7929 335.741V332.84C17.4416 333.565 5.1132 335.741 4.388 335.741C3.66279 335.741 2.9375 335.016 2.9375 334.291C2.9375 332.84 3.66279 332.84 4.388 332.84C10.9148 332.114 15.9912 331.389 21.0676 329.939V324.862H21.7929ZM13.8156 358.947V369.1C13.8156 369.826 13.8157 370.551 12.3653 370.551C10.9149 370.551 10.9148 369.826 10.9148 369.1V345.894C10.9148 341.543 12.3651 340.092 16.7164 340.092H44.2743C48.6255 340.092 50.0758 341.543 50.0758 345.894V364.024C50.0758 369.826 47.175 369.825 42.8238 369.825H36.297C35.5718 369.825 34.8465 369.826 34.8465 368.375C34.8465 366.925 36.297 366.925 36.297 366.925C37.0222 366.925 42.0986 366.925 42.8238 366.925C44.2742 366.925 45.7246 366.925 45.7246 364.024V358.947H13.8156V358.947ZM45.7246 348.069V345.894C45.7246 343.718 44.9994 342.993 42.8238 342.993H16.7164C14.5407 342.993 13.8156 343.718 13.8156 345.894V348.069H45.7246ZM13.8156 350.97V356.047H46.4498V350.97H13.8156ZM36.297 331.389C36.297 333.565 37.7474 333.565 39.1978 333.565C50.0758 333.565 50.8011 333.565 51.5263 333.565C52.2515 333.565 52.9766 332.839 52.9766 329.939C52.9766 329.213 52.9767 327.763 54.4271 327.763C55.1523 327.763 56.6026 328.488 56.6026 329.213C56.6026 330.664 55.8776 334.29 55.1524 335.016C54.4272 335.741 52.9768 335.741 48.6256 335.741C47.1752 335.741 40.6482 335.741 39.1978 335.741C36.2969 335.741 34.1215 335.016 34.1215 330.664V318.335C34.1215 317.61 34.1213 316.885 35.5717 316.885C37.0221 316.885 37.0222 318.335 37.0222 318.335V322.686C39.9231 321.961 44.9995 321.236 50.8011 319.06C52.2515 318.335 52.9767 318.335 53.7019 318.335C54.4271 318.335 55.1524 319.061 55.1524 319.786C55.1524 320.511 54.4271 321.236 50.8011 322.686C44.9995 324.862 40.6483 325.587 37.0222 325.587V331.389H36.297Z" fill="black"></path><path d="M11.6359 372.727C10.9107 372.727 8.00989 372.727 8.00989 369.101V345.894C8.00989 340.817 10.1855 337.917 15.262 337.917H20.3383C19.6131 337.191 19.6133 336.466 19.6133 335.016V334.29C14.5368 335.016 5.10906 337.191 4.38385 337.191C2.20823 337.191 0.757812 335.74 0.757812 333.565C0.757812 332.839 0.757812 330.664 4.38385 329.938H6.55939C11.6358 329.213 15.987 328.488 20.3383 327.763V325.587H5.83413C3.65851 325.587 2.2081 324.137 2.2081 321.961C2.2081 320.511 2.9333 318.335 5.83413 318.335H20.3383V316.885C20.3383 313.984 21.7887 313.259 23.9643 313.259C25.4147 313.259 27.5904 313.984 27.5904 316.885V333.565C27.5904 335.015 26.8653 335.74 26.8653 336.466H44.2703C49.3467 336.466 51.5223 338.641 51.5223 344.443V362.573C51.5223 369.826 46.4458 369.826 42.0945 369.826H36.2929C34.1173 369.826 32.6669 368.375 32.6669 366.2C32.6669 364.749 33.3921 362.573 36.2929 362.573C37.0182 362.573 38.4686 362.573 39.919 362.573C41.3694 362.573 42.8198 362.573 42.8198 362.573C44.2702 362.573 44.2703 362.574 44.2703 361.123V357.497H15.262V366.2C15.262 372.001 13.8116 372.727 11.6359 372.727ZM47.1711 366.2C47.1711 366.925 46.4458 367.65 45.7206 368.376C46.4458 367.65 47.1711 367.65 47.1711 366.2ZM15.262 354.596H44.2703V353.146H15.262V354.596ZM15.262 346.619H44.2703C44.2703 345.168 44.2702 345.169 42.8198 345.169H16.7122C15.987 344.444 15.262 345.168 15.262 346.619ZM23.2393 331.389C23.2393 331.389 23.2393 332.115 23.2393 331.389V331.389ZM23.2393 323.412C23.2393 323.412 23.2393 324.137 23.2393 323.412V323.412ZM38.4685 337.917C36.2929 337.917 31.2164 337.916 31.2164 331.389V319.06C31.2164 316.159 32.6668 315.434 34.8424 315.434C36.2929 315.434 38.4685 316.159 38.4685 319.06V321.236C42.8197 320.511 46.4458 319.785 49.3466 318.335C51.5222 317.61 52.2474 316.885 52.9726 316.885C54.423 316.885 55.8736 318.335 55.8736 320.511C55.8736 322.687 53.6979 324.137 50.7971 324.862C45.7206 326.313 41.3693 327.038 38.4685 327.763V331.389V332.114H39.1937C46.4458 332.114 50.0719 332.114 50.7971 332.114C50.7971 332.114 50.7971 331.389 50.7971 329.938C50.7971 327.038 52.9727 326.312 54.4231 326.312C56.5988 326.312 58.0492 327.763 58.0492 329.938C58.0492 329.938 58.0493 335.74 55.8736 337.191C54.4232 338.641 52.9728 338.642 47.8963 338.642L38.4685 337.917ZM35.5677 324.137C35.5677 324.862 35.5677 324.862 35.5677 324.137C35.5677 324.862 35.5677 324.862 35.5677 324.137C35.5677 324.137 35.5677 324.862 35.5677 324.137Z" fill="black"></path><path d="M98.6698 338.642H122.602C123.327 338.642 124.052 338.641 124.052 340.092C124.052 341.542 122.602 341.543 122.602 341.543H71.837C71.1118 341.543 70.3867 341.542 70.3867 340.092C70.3867 338.641 71.837 338.642 71.837 338.642H95.769V335.015H81.2648C77.6388 335.015 76.9135 333.565 76.9135 330.664V324.137C76.9135 320.511 78.364 319.786 81.2648 319.786H113.174C116.8 319.786 118.25 321.236 118.25 324.137V330.664C118.25 334.29 116.8 335.015 113.174 335.015H98.6698V338.642ZM72.5623 369.101C71.837 369.101 71.1117 368.376 71.1117 367.651C71.1117 366.926 71.1119 366.926 74.0128 365.475C77.6388 364.025 80.5395 361.849 83.4404 359.674C84.1656 358.948 84.1657 358.948 84.8909 358.948C85.6161 358.948 86.3412 359.673 86.3412 360.399C85.616 362.574 74.0127 369.101 72.5623 369.101ZM98.6698 365.475C98.6698 366.926 98.6698 369.826 95.769 369.826C95.0438 369.826 94.3186 369.826 88.5169 369.826C87.7917 369.826 86.3412 369.827 86.3412 367.651C86.3412 366.201 87.7917 366.2 87.7917 366.2C87.7917 366.2 92.868 366.2 93.5932 366.2C95.0437 366.2 95.769 365.475 95.769 364.025V355.322H81.9899C78.3638 355.322 76.9135 353.871 76.9135 350.97V348.795C76.9135 345.169 78.3638 344.443 81.9899 344.443H112.449C116.075 344.443 116.8 345.894 116.8 348.795V350.97C116.8 354.596 115.35 355.322 112.449 355.322H98.6698V365.475V365.475ZM79.0891 325.587H114.624V323.412C114.624 322.687 113.899 321.961 113.174 321.961H80.5396C79.8144 321.961 79.0891 322.687 79.0891 323.412V325.587ZM79.0891 327.763V330.664C79.0891 331.389 79.8144 332.114 80.5396 332.114H113.174C113.899 332.114 114.624 331.389 114.624 330.664V327.763H79.0891ZM81.9899 347.344C81.2647 347.344 80.5396 348.07 80.5396 348.795V351.695C80.5396 352.421 81.2647 353.146 81.9899 353.146H112.449C113.174 353.146 113.899 352.421 113.899 351.695V348.795C113.899 348.07 113.174 347.344 112.449 347.344H81.9899ZM109.548 358.948C110.273 358.948 110.273 358.948 111.723 360.399C116.075 364.025 121.151 366.2 122.602 366.2C123.327 366.2 123.327 366.926 123.327 367.651C123.327 368.376 122.602 369.101 121.876 369.101C120.426 369.101 116.8 366.926 115.349 365.475C111.723 363.299 109.548 361.849 108.823 361.124C108.097 360.399 108.097 360.399 108.097 359.674C108.097 359.674 108.823 358.948 109.548 358.948Z" fill="black"></path><path d="M88.5129 372.002C84.8869 372.002 84.1617 369.826 84.1617 368.376C84.1617 367.65 84.1617 364.75 87.7877 364.75C87.7877 364.75 90.6885 364.75 92.139 364.75H92.864H93.5892V357.497H87.0624C87.7876 358.223 87.7877 358.948 87.7877 359.673C87.0625 363.299 74.7339 369.826 72.5583 369.826C70.3827 369.826 68.9323 368.375 68.9323 366.2C68.9323 364.024 70.3827 363.299 72.5583 362.574C76.1843 361.123 78.36 359.673 81.2609 357.497C76.9096 357.497 75.4591 355.322 75.4591 350.97V348.795C75.4591 345.169 76.9096 342.993 80.5356 342.268H71.8331C68.207 342.268 68.207 339.367 68.207 339.367C68.207 337.916 68.9322 336.466 71.8331 336.466H93.5892H81.2609C76.9096 336.466 74.7338 334.29 74.7338 329.939V323.412C74.7338 319.061 76.9096 316.885 81.2609 316.885H113.17C117.521 316.885 119.697 319.061 119.697 323.412V329.939C119.697 334.29 117.521 336.466 113.17 336.466H100.116H122.597C126.224 336.466 126.224 339.367 126.224 339.367C126.224 340.817 125.498 342.268 122.597 342.268H113.895C117.521 342.993 118.971 344.444 118.971 348.795V350.97C118.971 355.322 116.796 357.497 112.445 357.497H111.719L112.445 358.222C116.796 361.123 121.147 363.299 122.597 364.025C123.323 364.025 124.773 364.75 124.773 366.926C124.773 369.101 123.323 370.552 121.147 370.552C119.697 370.552 118.246 369.826 113.895 367.651H113.17C108.819 365.475 107.368 364.025 106.643 363.299C105.918 362.574 105.193 361.849 105.193 361.123C105.193 360.398 105.193 359.673 105.918 358.947H99.391V366.2C99.391 369.826 97.9405 372.002 94.3145 372.727C95.0397 372.002 94.3146 372.002 88.5129 372.002ZM96.49 366.926C96.49 367.651 95.7649 367.65 95.0397 368.376C95.7649 368.376 96.49 367.651 96.49 366.926ZM81.9859 351.695H111.719V348.795H81.9859V351.695ZM81.2609 329.939H113.17V329.214L81.2609 329.939ZM81.2609 323.412H113.17H81.2609Z" fill="black"></path><path d="M172.633 321.961C174.808 321.961 177.709 321.962 177.709 324.863C177.709 327.763 174.083 331.389 171.908 333.565H181.335C185.687 333.565 187.137 335.016 187.137 339.367V346.619C187.137 350.971 185.687 352.422 181.335 352.422H146.525V363.3C146.525 366.201 148.701 366.2 150.152 366.2H182.061C185.687 366.2 186.412 366.201 187.137 359.674C187.137 358.223 187.137 357.498 188.587 357.498C188.587 357.498 190.763 357.497 190.763 358.948C190.763 359.673 190.038 363.299 189.313 365.475C187.862 369.827 184.961 369.826 181.335 369.826H148.701C144.35 369.826 142.174 369.827 142.174 364.025V339.367C142.174 335.016 143.625 333.565 147.976 333.565H166.831C168.282 332.115 173.358 327.038 173.358 325.588C173.358 324.862 172.633 324.863 171.908 324.863H154.503C148.701 330.664 139.273 336.466 138.548 336.466C137.823 336.466 137.098 335.016 137.098 334.291C137.098 333.566 137.823 332.84 138.548 332.84C142.174 330.664 150.151 326.313 155.953 318.335C156.678 317.61 156.678 316.885 158.129 316.885C158.854 316.885 159.579 317.61 159.579 318.335C159.579 319.061 159.579 319.061 158.854 319.786C158.129 320.512 158.129 321.236 157.404 321.961H172.633V321.961ZM163.205 336.466H149.426C147.251 336.466 146.525 337.191 146.525 339.367V350.246H163.205V336.466V336.466ZM166.831 336.466V350.246H181.335C183.511 350.246 184.236 349.52 184.236 347.344V340.092C184.236 337.917 183.511 337.191 181.335 337.191H166.831V336.466Z" fill="black"></path><path d="M182.059 372.002H149.425C145.799 372.002 140.722 372.002 140.722 364.024V339.367C140.722 338.642 140.722 337.916 140.722 337.191C139.272 337.916 138.547 337.917 137.821 337.917C135.646 337.917 134.195 335.741 134.195 334.291C134.195 332.115 135.646 331.39 136.371 331.39C143.623 327.763 149.425 323.412 153.051 317.61C153.776 316.885 154.501 315.434 156.677 315.434C158.852 315.434 160.303 316.885 160.303 318.335C160.303 319.06 160.303 319.061 160.303 319.786H171.906C174.082 319.786 178.433 319.786 178.433 324.862C178.433 327.038 176.983 329.214 174.807 332.115H179.883C184.96 332.115 187.861 334.29 187.861 340.092V347.344C187.861 352.421 185.685 354.596 179.883 354.596H147.249V364.024C147.249 365.475 147.249 365.475 149.425 365.475H181.334C184.235 365.475 184.235 365.475 184.96 360.398C184.96 358.948 185.685 356.047 188.586 356.047C190.762 356.047 192.212 357.498 192.212 359.673C192.212 360.399 191.487 364.75 190.761 366.926C190.036 372.002 185.685 372.002 182.059 372.002ZM145.073 350.97C145.073 351.695 145.073 351.695 145.073 350.97V350.97ZM164.654 350.97C165.379 350.97 165.379 350.97 164.654 350.97V350.97ZM168.28 348.069H180.609C181.334 348.069 182.059 348.069 182.059 346.619V339.367C182.059 338.642 182.059 337.917 180.609 337.917H168.28V348.069ZM147.974 348.069H161.028V337.917H148.699C147.974 337.917 147.249 337.916 147.249 339.367V348.069H147.974ZM164.654 335.016C164.654 335.016 164.654 335.741 164.654 335.016C165.379 335.741 165.379 335.016 164.654 335.016ZM169.005 334.291H170.456C170.456 334.291 170.456 334.29 170.456 333.565V332.84C169.731 334.29 169.005 334.291 169.005 334.291ZM149.425 331.39H166.83C168.28 329.939 170.456 327.763 171.181 326.313H155.226C153.776 328.488 151.6 329.939 149.425 331.39ZM174.807 323.412C175.532 324.138 175.532 324.862 175.532 325.587V326.313C175.532 325.587 176.257 324.862 176.257 324.862C176.257 324.137 176.257 324.138 174.807 323.412ZM155.952 321.961C155.952 322.687 155.226 322.687 155.226 323.412H156.677C155.952 321.962 155.952 321.961 155.952 321.961Z" fill="black"></path><path d="M221.947 332.839C221.947 332.114 221.947 332.114 221.947 332.839C223.398 329.213 224.123 325.587 224.123 321.961C224.123 319.785 224.123 319.06 226.299 319.06C227.024 319.06 228.474 319.786 228.474 320.511C228.474 321.236 227.749 325.587 226.299 332.114C227.024 332.114 227.749 332.114 229.2 332.114C241.528 332.114 242.253 339.366 242.253 346.619C242.253 364.749 237.177 367.65 229.925 367.65C224.123 367.65 224.123 366.199 224.123 365.474C224.123 364.749 224.848 364.024 225.574 364.024H227.024C228.474 364.024 229.2 364.024 229.925 364.024C235.001 364.024 238.627 362.574 238.627 345.894C238.627 339.367 237.902 334.29 229.2 334.29C227.749 334.29 226.299 334.29 225.574 334.29C221.947 350.245 217.596 358.947 213.97 364.749C213.245 366.199 212.52 366.925 211.795 366.925C211.795 366.925 209.619 366.925 209.619 365.474C209.619 364.749 209.619 364.749 211.069 362.573C215.421 355.321 219.047 345.168 221.947 335.015C219.772 335.015 209.619 337.19 208.894 337.19C208.168 337.19 207.443 336.466 207.443 335.74C207.443 334.29 208.169 334.29 210.344 334.29L221.947 332.839ZM249.505 335.015C253.856 341.542 255.307 348.069 255.307 349.52C255.307 350.97 254.582 350.97 253.131 350.97C251.681 350.97 251.681 350.244 251.681 348.069C250.231 341.542 246.604 335.015 241.528 329.938C239.352 327.763 239.352 327.763 239.352 327.038C239.352 326.313 240.078 325.587 240.803 325.587C243.704 327.038 248.055 332.114 249.505 335.015ZM255.307 328.488C255.307 329.213 254.582 329.938 253.131 329.938C252.406 329.938 252.406 329.938 249.505 326.312C248.78 325.587 246.604 323.412 245.154 321.961C244.429 321.236 244.429 321.236 244.429 320.511C244.429 319.786 245.154 319.06 245.879 319.06C248.78 319.06 255.307 327.038 255.307 328.488ZM261.834 323.412C261.834 324.137 261.108 324.862 259.658 324.862C258.933 324.862 258.933 324.862 256.032 321.236C255.307 320.511 253.131 318.335 251.681 316.885C250.956 316.16 250.956 316.159 250.956 315.434C250.956 314.709 251.681 313.984 252.406 313.984C255.307 314.709 261.834 322.687 261.834 323.412Z" fill="black"></path><path d="M228.478 369.826C226.302 369.826 220.5 369.827 220.5 365.475C220.5 363.299 221.951 361.849 223.401 361.849C224.126 361.849 224.852 361.849 225.577 361.849C226.302 361.849 227.752 361.849 228.478 361.849C232.104 361.849 235.73 361.849 235.73 345.894C235.73 339.367 235.004 336.466 228.478 336.466C227.752 336.466 227.027 336.466 226.302 336.466C223.401 348.795 219.775 358.223 214.699 366.2C213.973 367.651 213.248 369.101 211.073 369.101C209.622 369.101 207.447 368.376 207.447 365.475C207.447 364.025 207.446 364.025 208.897 361.849C212.523 355.322 216.149 346.619 219.05 337.191C217.6 337.191 215.424 337.917 213.973 337.917C208.897 338.642 208.897 338.642 208.897 338.642C206.721 338.642 205.996 337.191 205.996 335.016C205.996 332.115 208.172 332.115 211.073 331.39L221.951 329.939C222.676 327.038 223.401 324.137 223.401 320.511C223.401 319.061 224.126 316.16 227.027 316.16C229.203 316.16 230.653 317.61 230.653 319.786C230.653 320.511 229.928 324.862 229.203 329.214C243.707 329.214 243.707 339.367 243.707 345.894C242.982 363.3 238.63 369.826 228.478 369.826ZM222.676 334.291C222.676 334.291 222.676 335.016 222.676 334.291C222.676 335.016 223.401 335.016 222.676 334.291C223.401 334.291 224.126 333.565 224.851 333.565C224.851 333.565 224.851 333.565 224.851 332.84C223.401 333.565 223.401 334.291 222.676 334.291ZM253.134 353.147C250.234 353.147 250.234 350.971 249.508 348.795C248.058 342.268 245.157 336.466 240.081 331.39C237.905 329.214 237.18 328.489 237.18 327.763C237.18 326.313 238.63 324.137 240.806 324.137C244.432 324.137 249.508 332.114 250.234 333.565C254.585 340.092 256.035 347.345 256.035 348.795C257.486 351.696 255.31 353.147 253.134 353.147ZM253.134 332.115C251.684 332.115 250.959 331.389 248.783 328.488L248.058 327.763C247.333 327.038 245.157 324.863 244.432 323.412C243.707 322.687 242.982 321.961 242.982 321.236C242.982 319.786 244.432 317.61 246.608 317.61C249.508 317.61 256.761 327.038 256.761 328.488C256.761 329.939 255.31 332.115 253.134 332.115ZM259.661 327.038C258.211 327.038 257.486 326.312 254.585 322.686C253.86 321.961 251.684 319.785 250.959 318.335C250.234 317.61 250.234 316.885 250.234 316.16C250.234 313.984 251.684 312.534 253.86 312.534C256.761 312.534 264.013 321.236 264.013 323.412C263.287 325.588 261.837 327.038 259.661 327.038Z" fill="black"></path><path d="M282.864 369.825C282.864 370.551 282.864 371.276 281.413 371.276C279.963 371.276 279.963 370.551 279.963 369.825V337.917C278.513 340.092 277.062 342.267 275.612 344.443C274.887 345.168 274.886 345.169 274.161 345.169C273.436 345.169 272.711 344.443 272.711 342.993C272.711 342.268 273.436 341.543 273.436 341.543C278.513 335.741 282.864 327.763 285.765 319.06C285.765 318.335 286.49 317.61 287.215 317.61C287.94 317.61 289.391 318.335 289.391 319.06C289.391 319.786 287.215 327.038 283.589 332.84V369.825H282.864ZM307.521 369.825C307.521 370.551 307.521 371.276 306.071 371.276C304.62 371.276 304.62 370.551 304.62 369.825V356.772H295.192C290.841 356.772 289.391 355.321 289.391 350.97V332.115C289.391 327.763 290.841 326.312 295.192 326.312H304.62V319.06C304.62 318.335 304.62 317.61 306.071 317.61C307.521 317.61 307.521 318.335 307.521 319.06V326.312H317.674C322.025 326.312 323.476 327.763 323.476 332.115V350.97C323.476 355.321 322.025 356.772 317.674 356.772H307.521V369.825ZM291.566 340.092H303.895V329.214H294.467C292.292 329.214 291.566 329.939 291.566 332.115V340.092ZM291.566 342.993V350.97C291.566 353.146 292.292 353.871 294.467 353.871H303.895V342.993H291.566ZM320.575 340.092V332.115C320.575 329.939 319.849 329.214 317.674 329.214H307.521V340.092H320.575ZM307.521 353.871H317.674C319.849 353.871 320.575 353.146 320.575 350.97V342.993H307.521V353.871V353.871Z" fill="black"></path><path d="M306.067 373.451C304.616 373.451 302.441 372.726 302.441 369.825V358.947H294.464C289.387 358.947 286.486 356.771 286.486 350.97V332.114C286.486 327.038 288.662 324.137 294.464 324.137H302.441V318.335C302.441 315.434 303.891 314.709 306.067 314.709C308.242 314.709 309.693 316.159 309.693 318.335V324.137H318.395C323.472 324.137 326.372 326.313 326.372 332.114V350.97C326.372 356.046 324.197 358.947 318.395 358.947H309.693V369.825C308.968 372.726 306.792 373.451 306.067 373.451ZM305.342 355.321C305.342 355.321 305.342 356.046 305.342 355.321C306.067 355.321 306.067 355.321 306.067 355.321C306.067 355.321 306.067 355.321 305.342 355.321ZM308.968 352.421H316.945C317.67 352.421 318.395 352.42 318.395 350.97V344.443H308.968V352.421ZM293.738 344.443V350.97C293.738 351.695 293.738 352.421 295.189 352.421H302.441V345.168H293.738V344.443ZM305.342 341.542C305.342 341.542 306.067 341.542 305.342 341.542C306.067 341.542 306.067 341.542 306.067 341.542C306.067 341.542 306.067 340.817 305.342 341.542C305.342 341.542 306.067 340.817 305.342 341.542ZM308.968 337.916H318.395V331.389C318.395 329.939 318.395 329.938 316.945 329.938H308.968V337.916ZM293.738 337.916H302.441V330.664H295.189C294.464 330.664 293.738 330.664 293.738 332.114V337.916ZM305.342 327.763C306.067 327.763 306.067 327.763 306.067 327.763C306.067 327.038 306.067 327.038 305.342 327.763C305.342 327.038 305.342 327.038 305.342 327.763ZM281.41 373.451C279.234 373.451 277.784 372.001 277.784 369.825V342.992C277.059 343.718 277.059 344.443 276.333 344.443C275.608 345.168 274.883 345.893 273.433 345.893C271.257 345.893 269.807 343.718 269.807 342.267C269.807 340.817 270.532 340.092 271.257 339.366C276.333 333.565 280.685 325.587 283.585 317.61C284.311 316.16 285.036 315.434 286.486 315.434C287.937 315.434 290.112 316.884 290.112 319.06C290.112 320.511 287.212 327.763 284.311 332.839V369.825C285.036 372.726 282.135 373.451 281.41 373.451ZM279.959 335.74C280.685 335.74 281.41 336.465 281.41 336.465V332.839C280.685 333.565 279.959 335.015 279.959 335.74C279.234 335.74 279.234 335.74 279.959 335.74Z" fill="black"></path><path d="M381.494 347.344C381.494 361.848 372.791 368.375 361.913 368.375C351.035 368.375 343.783 361.123 343.783 351.695C343.783 346.618 345.233 337.916 356.112 327.038C348.859 327.763 343.783 327.763 343.783 327.763C343.058 327.763 341.607 327.763 341.607 326.312C341.607 324.862 342.333 324.862 345.959 324.862C348.86 324.862 352.486 324.862 356.112 324.137C356.837 324.137 360.463 323.412 360.463 323.412C361.913 323.412 361.913 324.137 361.913 324.862C361.913 325.587 361.913 325.588 360.463 327.038C352.486 333.565 346.684 342.992 346.684 350.97C346.684 358.947 352.485 364.749 361.188 364.749C374.242 364.749 377.142 353.871 377.142 346.619C377.142 342.993 376.417 335.015 372.791 326.312C372.791 325.587 371.341 322.686 371.341 321.961C371.341 321.236 372.066 320.511 373.516 320.511C374.242 320.511 374.242 320.511 375.692 323.412C379.318 329.214 385.12 334.29 390.921 338.641C391.647 339.367 391.647 339.366 391.647 340.092C391.647 340.817 390.921 341.543 390.196 341.543C389.471 341.543 388.746 341.542 387.295 339.367C383.669 336.466 380.769 332.839 377.868 329.213C380.043 335.015 381.494 340.817 381.494 347.344ZM385.845 322.686C386.57 324.137 388.746 327.038 388.746 327.763C388.746 328.488 388.021 329.213 387.295 329.213C386.57 329.213 385.845 329.213 384.395 325.587C383.669 324.862 381.494 320.511 380.769 319.786V319.06C380.769 319.06 380.768 317.61 382.944 317.61C382.219 318.335 382.944 318.335 385.845 322.686ZM393.097 319.06C393.822 320.51 395.998 323.412 395.998 324.137C395.998 324.862 395.273 325.587 393.822 325.587C393.097 325.587 393.097 325.587 390.921 321.961C390.196 321.236 387.295 316.885 387.295 316.16V315.434C387.295 314.709 388.021 313.984 389.471 313.984C390.196 314.709 391.647 316.884 393.097 319.06Z" fill="black"></path><path d="M362.642 370.551C351.038 370.551 342.336 362.573 342.336 351.695C342.336 344.443 345.237 337.191 351.763 329.213C346.687 329.938 344.511 329.938 343.786 329.938C341.611 329.938 340.16 328.488 340.16 326.312C340.16 322.686 342.336 322.686 345.962 322.686C348.863 322.686 352.489 322.686 356.115 321.961C356.84 321.961 357.565 321.961 358.29 321.961C359.741 321.961 360.466 321.961 361.191 321.961C363.367 321.961 364.817 323.411 364.817 325.587C364.817 327.038 364.092 327.763 362.642 329.213C354.664 335.015 349.588 344.443 349.588 351.695C349.588 358.947 354.664 364.024 362.642 364.024C374.97 364.024 377.146 353.871 377.146 348.069C377.146 345.168 376.42 337.191 372.794 328.488C372.794 328.488 372.794 327.763 372.069 327.763C370.619 325.588 370.619 324.862 370.619 324.137C370.619 322.687 372.069 320.511 374.245 320.511C375.695 320.511 376.42 321.236 377.871 323.412C381.497 328.489 385.848 333.565 392.375 338.642C393.1 339.367 393.825 340.092 393.825 341.543C393.825 343.718 392.375 345.169 390.199 345.169C388.749 345.169 388.024 344.443 385.848 342.993C384.398 341.542 382.947 340.092 381.497 339.367C382.222 342.267 382.222 345.169 382.222 348.795C383.673 364.024 372.794 370.551 362.642 370.551ZM374.97 324.862C375.695 326.313 375.695 326.312 375.695 326.312C376.42 327.037 376.42 328.488 377.146 329.213C377.146 329.213 377.146 329.213 377.871 328.488C377.146 327.763 375.695 326.313 374.97 324.862ZM357.565 325.587C358.29 326.312 358.29 326.312 357.565 325.587C358.29 326.312 358.29 327.038 358.29 327.038C359.015 326.313 359.016 326.312 359.741 325.587C359.741 325.587 360.466 325.587 360.466 324.862C359.741 324.862 359.741 324.862 359.016 324.862C358.29 325.587 358.29 325.587 357.565 325.587ZM387.298 331.389C385.123 331.389 385.123 330.664 382.947 327.038L382.222 325.587C381.497 324.137 380.046 321.961 379.321 321.961C379.321 321.961 378.596 321.236 378.596 319.786C378.596 318.335 379.321 316.16 382.222 316.16C383.673 316.16 384.398 316.884 388.024 321.961C388.749 322.686 391.65 326.313 391.65 328.488C390.924 329.939 388.749 331.389 387.298 331.389ZM381.497 319.06C381.497 319.06 381.497 319.785 381.497 319.06C381.497 319.785 381.497 319.06 381.497 319.06ZM394.55 327.763C392.375 327.763 392.375 327.038 390.199 324.137V323.412C390.199 322.687 388.749 321.961 388.024 320.511C387.298 319.061 386.573 318.335 385.848 317.61C385.848 317.61 385.123 316.884 385.123 315.434C385.123 314.709 385.848 313.259 386.573 313.259C387.298 312.534 388.024 312.534 389.474 312.534C390.925 312.534 392.375 314.709 394.55 317.61L395.276 318.335C398.902 322.686 398.902 324.137 398.902 324.862C398.177 326.313 396.001 327.763 394.55 327.763ZM388.749 315.434C388.749 315.434 388.749 316.159 388.749 315.434C388.749 316.159 388.749 315.434 388.749 315.434Z" fill="black"></path><path d="M411.952 329.213C411.226 329.213 410.501 329.213 410.501 329.213C409.051 329.213 409.051 328.488 409.051 327.038C409.051 325.588 409.776 325.587 410.501 325.587C410.501 325.587 416.303 324.862 417.028 324.862L456.189 321.961H458.365C459.09 321.961 459.815 321.961 459.815 324.137C459.815 325.587 459.09 325.587 456.189 326.312C443.861 327.763 429.357 336.466 429.357 348.795C429.357 356.772 435.158 361.848 445.311 364.024C448.937 364.749 448.937 364.749 448.937 366.199C448.937 366.199 448.937 368.375 446.762 368.375C445.311 368.375 440.235 366.925 436.609 365.474C433.708 364.024 425.005 359.673 425.005 348.795C425.005 338.642 432.257 330.664 444.586 325.587L411.952 329.213Z" fill="black"></path><path d="M446.034 369.826C443.858 369.826 438.782 368.377 435.156 366.926C425.003 362.575 422.827 354.597 422.827 348.795C422.827 340.818 427.179 334.29 435.156 328.488L412.675 330.664C411.949 330.664 411.224 330.664 410.499 330.664C408.323 330.664 406.873 329.214 406.873 327.038C406.873 326.313 406.873 324.137 409.049 323.412C409.774 323.412 416.301 322.686 416.301 322.686L454.737 319.786H456.912C459.813 319.786 460.538 321.961 460.538 323.412C460.538 326.313 458.363 327.038 454.737 327.038C442.408 328.488 430.079 337.191 430.079 347.344C430.079 354.596 434.431 358.948 444.584 361.124C448.21 361.849 449.66 362.574 449.66 364.75C449.66 367.651 448.21 369.826 446.034 369.826ZM439.507 364.75C441.683 365.475 443.858 366.2 445.309 366.2C444.584 366.2 444.584 366.2 443.859 366.2C442.408 365.475 440.958 365.475 439.507 364.75ZM410.499 327.763C410.499 327.763 411.224 327.763 411.949 327.763H415.575C414.125 327.038 411.224 327.763 410.499 327.763ZM446.034 324.862C446.034 324.862 446.034 325.587 446.034 324.862C446.034 325.587 446.034 325.587 446.034 326.312C448.21 325.587 451.111 324.862 454.011 324.137L446.034 324.862Z" fill="black"></path><path d="M499.699 342.993H485.92C481.569 342.993 480.118 341.542 480.118 337.191V323.413C480.118 322.687 480.118 321.962 481.569 321.962C483.019 321.962 483.019 322.687 483.019 323.413V337.191C483.019 339.367 484.469 340.092 485.92 340.092H499.699V319.06C499.699 318.335 499.699 317.61 501.149 317.61C502.6 317.61 502.6 318.335 502.6 319.06V340.092H516.379C518.554 340.092 519.279 339.367 519.279 337.191V323.413C519.279 322.687 519.279 321.962 520.73 321.962C522.18 321.962 522.18 322.687 522.18 323.413V337.191C522.18 341.542 520.73 342.993 516.379 342.993H502.6V366.926H518.554C520.73 366.926 521.455 366.201 521.455 364.025V351.696C521.455 350.97 521.455 350.246 522.905 350.246C524.356 350.246 524.356 350.97 524.356 351.696V364.025C524.356 368.376 522.905 369.826 518.554 369.826H482.294C477.943 369.826 476.492 368.376 476.492 364.025V351.696C476.492 350.97 476.492 350.246 477.942 350.246C479.393 350.246 479.393 350.97 479.393 351.696V364.025C479.393 366.201 480.843 366.926 482.294 366.926H498.248V342.993H499.699Z" fill="black"></path><path d="M519.283 371.277H483.022C477.946 371.277 475.045 369.101 475.045 363.299V350.97C475.045 348.069 476.495 347.344 478.671 347.344C480.847 347.344 482.297 348.794 482.297 350.97V363.299C482.297 364.025 482.297 364.749 483.747 364.749H498.252V344.443H485.923C480.847 344.443 478.671 342.267 478.671 336.466V322.686C478.671 319.786 480.121 319.06 482.297 319.06C484.473 319.06 485.923 320.511 485.923 322.686V336.466C485.923 337.191 485.923 337.917 487.374 337.917H498.977V319.06C498.977 316.159 500.427 315.434 502.603 315.434C504.778 315.434 506.229 316.885 506.229 319.06V337.917H517.832C519.282 337.917 519.283 337.916 519.283 336.466V322.686C519.283 319.786 520.733 319.06 522.909 319.06C525.084 319.06 526.535 320.511 526.535 322.686V336.466C526.535 341.542 524.359 344.443 518.557 344.443H506.229V364.749H520.733C521.458 364.749 522.183 364.75 522.183 363.299V350.97C522.183 348.069 523.634 347.344 525.809 347.344C527.985 347.344 529.435 348.794 529.435 350.97V363.299C526.535 369.101 524.359 371.277 519.283 371.277ZM500.427 341.543C500.427 341.543 501.152 342.268 500.427 341.543C501.152 342.268 501.152 341.543 501.152 341.543C501.152 341.543 501.152 341.543 500.427 341.543C500.427 341.543 501.152 341.543 500.427 341.543Z" fill="black"></path><path d="M549.022 341.542H543.22C542.495 341.542 541.77 341.542 541.77 340.091C541.77 338.641 543.22 338.641 543.22 338.641H549.022V323.412H543.22C542.495 323.412 541.77 323.411 541.77 321.961C541.77 320.51 543.22 320.511 543.22 320.511H558.449C559.174 320.511 559.9 320.51 559.9 321.961C559.9 323.411 558.449 323.412 558.449 323.412H551.922V338.641H556.999C557.724 338.641 558.449 338.641 558.449 340.091C558.449 341.542 556.999 341.542 556.999 341.542H551.922V357.497C554.098 356.772 556.273 356.047 556.999 356.047C558.449 355.322 559.174 355.321 559.174 355.321C559.9 355.321 560.625 356.047 560.625 356.772C560.625 358.222 560.625 358.223 556.274 359.673C550.472 361.123 543.22 362.573 543.22 362.573C542.495 362.573 541.77 361.848 541.77 361.123C541.77 359.673 542.495 359.673 543.22 359.673C544.67 358.948 547.571 358.947 549.747 358.222V341.542H549.022ZM567.152 351.695C563.526 351.695 562.8 350.245 562.8 346.619V324.137C562.8 320.511 564.251 319.786 567.152 319.786H588.183C591.809 319.786 593.259 321.236 593.259 324.137V346.619C593.259 350.245 591.809 351.695 588.183 351.695H583.106V365.474C583.106 367.65 584.556 367.65 586.007 367.65C590.358 367.65 591.083 367.65 591.083 366.925C591.083 366.2 591.083 365.474 591.809 361.123C591.809 359.673 591.808 358.947 593.259 358.947C593.984 358.947 594.709 359.673 594.709 360.398C594.709 361.849 593.984 367.65 593.259 369.1C592.534 370.551 591.809 370.551 584.557 370.551C581.656 370.551 579.48 369.826 579.48 365.474V351.695H572.953C572.228 357.497 570.052 364.024 561.35 368.375C558.449 369.826 555.548 370.551 554.823 370.551C554.098 370.551 553.373 369.826 553.373 368.375C553.373 367.65 554.098 366.925 554.823 366.925C562.8 364.75 568.602 361.123 570.052 350.97H567.152V351.695ZM565.701 329.213H589.633V324.862C589.633 323.411 588.908 322.686 587.457 322.686H567.877C566.426 322.686 565.701 323.411 565.701 324.862V329.213ZM589.633 332.114H565.701V338.641H589.633V332.114ZM565.701 341.542V346.619C565.701 348.069 566.426 348.795 567.877 348.795H587.457C588.908 348.795 589.633 348.069 589.633 346.619V341.542H565.701Z" fill="black"></path><path d="M554.819 372.727C552.644 372.727 551.193 371.276 551.193 369.101C551.193 368.375 551.193 366.925 554.094 366.2C561.346 364.024 566.422 361.123 567.873 353.871H567.148C562.797 353.871 560.621 351.695 560.621 347.344V341.543C560.621 342.993 559.17 343.718 556.995 343.718H553.369V356.047C554.819 356.047 555.544 355.321 556.27 355.321C558.445 354.596 558.445 354.596 559.17 354.596C560.621 354.596 562.071 356.047 562.071 358.222C562.071 361.123 560.621 361.123 556.27 362.574C551.193 364.024 543.216 366.2 542.491 366.2C541.04 366.2 539.59 364.749 539.59 362.574C539.59 360.398 541.766 359.673 541.766 359.673C543.216 358.948 545.391 358.948 546.842 358.222V344.443H543.216C540.315 344.443 539.59 342.993 539.59 340.817C539.59 338.641 540.315 337.191 543.216 337.191H546.842V325.588H543.216C540.315 325.588 539.59 324.137 539.59 322.687C539.59 321.236 540.315 319.786 543.216 319.786H558.445C559.896 319.786 560.621 320.511 561.346 321.236C562.071 319.786 564.247 318.335 567.148 318.335H588.179C592.53 318.335 594.705 320.511 594.705 324.863V347.344C594.705 351.695 592.53 353.871 588.179 353.871H585.278V365.475V366.2H586.003C587.453 366.2 588.904 366.2 589.629 366.2C589.629 365.474 589.629 364.75 589.629 363.299V361.849C589.629 360.398 589.629 357.497 593.255 357.497C595.431 357.497 596.881 358.948 596.881 361.123C596.881 361.849 596.881 368.376 594.705 370.552C593.255 372.727 591.805 372.727 584.553 372.727C581.652 372.727 578.026 372.001 578.026 366.2V353.871H575.125C573.674 359.673 571.499 366.2 562.796 370.552C559.896 371.277 556.27 372.727 554.819 372.727ZM550.468 358.947C550.468 359.673 551.193 358.947 550.468 358.947C551.193 358.947 551.193 358.947 550.468 358.947C551.193 358.947 551.193 358.947 550.468 358.947ZM567.148 346.619C567.873 346.619 567.873 346.619 567.148 346.619H586.728C586.728 346.619 587.453 346.619 587.453 345.894V342.268H567.148V346.619ZM549.743 340.092C550.468 340.092 550.468 340.092 549.743 340.092C550.468 340.092 550.468 340.092 550.468 340.092C551.193 340.092 550.468 339.367 549.743 340.092C550.468 340.092 550.468 339.367 549.743 340.092ZM554.094 336.466H557.72C559.896 336.466 560.621 337.917 561.346 338.642V324.138C560.621 324.138 559.896 324.863 559.17 324.863H554.819V336.466H554.094ZM567.148 336.466H587.453V333.565H567.148V336.466ZM567.148 327.039H587.453V324.138V323.413H567.873H567.148V327.039Z" fill="black"></path><path d="M187.316 0.036377H6.31641V85.0364H187.316V0.036377Z" fill="#040000"></path></svg> 