<?xml version="1.0" encoding="UTF-8"?> <svg xmlns="http://www.w3.org/2000/svg" width="270" height="116" viewBox="0 0 270 116" fill="none"><path d="M140.905 26.2838C140.069 26.2838 139.513 25.4486 139.513 24.8918C139.513 24.8918 139.513 24.335 139.791 23.2215C140.07 22.3863 140.626 22.108 141.461 22.108C142.297 22.3864 142.575 22.9431 142.575 23.7782C142.297 24.335 142.297 24.8918 142.297 24.8918C142.297 25.727 141.74 26.2838 140.905 26.2838Z" fill="black"></path><path d="M145.081 17.9323C144.802 17.9323 144.524 17.9322 144.245 17.6538C143.689 17.0971 143.689 16.2619 144.245 15.7051C144.802 14.8699 145.637 14.3132 146.473 13.7565C147.029 13.1997 147.865 13.478 148.421 14.0348C148.978 14.5915 148.7 15.4267 148.143 15.9835C147.586 16.5403 146.751 17.0971 146.194 17.6538C145.916 17.6538 145.359 17.9323 145.081 17.9323Z" fill="black"></path><path d="M204.656 29.3458C204.099 29.3458 203.543 29.0675 203.264 28.5107C202.986 27.6756 202.707 26.8404 202.151 26.0053C201.872 25.4485 202.151 24.6134 202.707 24.0566C203.264 23.7782 204.099 24.0566 204.656 24.6134C205.213 25.4485 205.491 26.2837 205.77 27.1188C206.048 27.954 205.77 28.5107 204.934 28.7891C204.934 29.3459 204.934 29.3458 204.656 29.3458ZM198.531 20.1593C198.253 20.1593 197.696 20.1593 197.696 19.8809C197.14 19.3241 196.304 18.7673 195.748 18.2106C195.191 17.6538 194.912 16.8187 195.469 16.2619C196.026 15.7052 196.861 15.4268 197.418 15.9835C198.253 16.5403 198.81 17.3755 199.645 17.9322C200.202 18.489 200.202 19.3241 199.645 19.8809C199.367 20.1593 199.088 20.1593 198.531 20.1593ZM189.345 14.3132C189.066 14.3132 189.066 14.3132 188.788 14.3132C187.953 14.0349 187.118 13.7565 186.282 13.4781C185.447 13.1997 185.169 12.3646 185.447 11.8078C185.726 10.9727 186.561 10.6943 187.118 10.9727C187.953 11.2511 189.066 11.5295 189.901 12.0862C190.737 12.3646 191.015 13.1997 190.737 14.0348C190.458 14.0348 189.901 14.3132 189.345 14.3132ZM154.268 12.0862C153.711 12.0862 153.154 11.8078 152.876 11.251C152.597 10.4159 153.154 9.85918 153.711 9.5808C154.546 9.30242 155.381 9.02399 156.495 8.74561C157.33 8.46722 157.887 9.02397 158.165 9.85912C158.443 10.6943 157.887 11.251 157.051 11.5294C156.216 11.8078 155.381 12.0862 154.546 12.3646C154.546 12.0862 154.546 12.0862 154.268 12.0862ZM178.766 11.251C178.209 11.251 177.652 10.9727 177.374 10.9727L175.982 10.6943C175.147 10.6943 174.59 9.85915 174.868 9.02401C174.868 8.18886 175.704 7.63211 176.539 7.9105L177.931 8.18889C178.487 8.18889 178.766 8.18883 179.323 8.46721C180.158 8.46721 180.715 9.30237 180.436 10.1375C180.158 10.6943 179.601 11.251 178.766 11.251ZM165.125 10.1375C164.29 10.1375 163.733 9.58075 163.733 8.74561C163.733 7.91046 164.29 7.3537 165.125 7.3537C165.681 7.3537 166.517 7.3537 167.073 7.3537H167.909C168.744 7.3537 169.301 7.91046 169.301 8.74561C169.301 9.58075 168.744 10.1375 167.909 10.1375H167.073C166.517 10.1375 165.681 10.1375 165.125 10.1375Z" fill="black"></path><path d="M206.605 38.811C205.77 38.811 205.213 38.2542 205.213 37.4191C205.213 36.8623 205.213 36.5839 205.213 36.0272C205.213 35.192 205.77 34.6353 206.326 34.3569C207.162 34.3569 207.718 34.9136 207.997 35.4704C207.997 36.0271 207.997 36.3055 207.997 36.8623C208.275 38.2542 207.718 38.811 206.605 38.811C206.883 38.811 206.883 38.811 206.605 38.811Z" fill="black"></path><path d="M197.418 34.0784L205.491 50.503L215.792 35.4703L197.418 34.0784Z" fill="black"></path><path d="M16.7427 12.6429V2.89952C16.7427 2.06438 17.2995 1.78601 17.8562 1.78601C18.413 1.78601 18.9698 2.06438 18.9698 2.89952V26.0053C18.9698 26.8405 18.413 27.1188 17.8562 27.1188C17.2995 27.1188 16.7427 26.8405 16.7427 26.0053V14.5916H3.37996V26.0053C3.37996 26.8405 2.82316 27.1188 2.26638 27.1188C1.7096 27.1188 1.15283 26.8405 1.15283 26.0053V2.89952C1.15283 2.06438 1.7096 1.78601 2.26638 1.78601C2.82316 1.78601 3.37996 2.06438 3.37996 2.89952V12.6429H16.7427Z" fill="black"></path><path d="M17.8561 27.6756C16.7425 27.6756 15.9073 26.8404 15.9073 25.7269V15.4267H4.77175V25.7269C4.77175 27.1188 3.6582 27.6756 2.82303 27.6756C1.70947 27.6756 0.874268 26.8404 0.874268 25.7269V2.62125C0.874268 1.22934 1.98786 0.672546 2.82303 0.672546C3.93659 0.672546 4.77175 1.50773 4.77175 2.62125V11.251H15.9073V2.62125C15.9073 1.22934 17.0209 0.672546 17.8561 0.672546C18.9696 0.672546 19.8048 1.50773 19.8048 2.62125V25.7269C19.8048 27.1188 18.6912 27.6756 17.8561 27.6756Z" fill="black"></path><path d="M38.7353 1.78601C45.6951 1.78601 51.2628 7.07528 51.2628 14.3132C51.2628 21.5512 45.9734 26.8405 38.7353 26.8405C31.7756 26.8405 26.2078 21.5512 26.2078 14.3132C26.2078 7.07528 31.7756 1.78601 38.7353 1.78601ZM38.7353 24.8918C44.5815 24.8918 49.3141 20.1593 49.3141 14.3132C49.3141 8.4672 44.8599 3.73472 38.7353 3.73472C32.8891 3.73472 28.1565 8.4672 28.1565 14.3132C28.1565 20.1593 32.8891 24.8918 38.7353 24.8918Z" fill="black"></path><path d="M38.7353 27.6756C30.9404 27.6756 25.3726 21.8295 25.3726 14.0348C25.3726 6.24016 31.2188 0.394165 38.7353 0.394165C46.2518 0.394165 52.0981 6.24016 52.0981 14.0348C52.0981 21.8295 46.2518 27.6756 38.7353 27.6756ZM38.7353 4.56989C33.4459 4.56989 29.27 8.74561 29.27 14.3132C29.27 19.8809 33.4459 24.0566 38.7353 24.0566C44.0247 24.0566 48.2006 19.8809 48.2006 14.3132C48.2006 8.74561 44.0247 4.56989 38.7353 4.56989Z" fill="black"></path><path d="M77.9883 3.73472C78.5451 2.06443 78.8234 1.78601 80.2154 1.78601C81.8857 1.78601 81.8858 3.17798 82.1641 4.01312L85.2264 25.4485C85.2264 26.0053 85.2264 26.0053 85.2264 26.0053C85.2264 26.5621 84.948 26.8405 84.1129 26.8405C83.2777 26.8405 83.2777 26.2837 82.9993 25.7269L79.937 3.73472L72.6989 25.4485C72.4205 26.0053 72.1421 26.8405 71.0286 26.8405C69.915 26.8405 69.6366 26.2837 69.0798 25.4485L61.8417 3.73472L58.7794 25.7269C58.7794 26.2837 58.501 26.8405 57.6658 26.8405C57.1091 26.8405 56.5522 26.2837 56.5522 26.0053C56.5522 26.0053 56.5522 25.7269 56.5522 25.4485L59.6146 4.01312C59.6146 3.17798 59.8929 1.78601 61.5633 1.78601C62.9552 1.78601 63.2336 2.34281 63.7904 3.73472L70.7501 24.8918L77.9883 3.73472Z" fill="black"></path><path d="M71.0287 28.2324L70.7503 27.6756C69.0799 27.6756 68.5232 26.5621 68.2448 25.4485L62.3986 7.91051L59.8931 25.7269C59.6147 27.1189 59.0579 27.6756 57.9443 27.6756C56.5524 27.6756 55.9956 26.8405 55.9956 25.7269C55.9956 25.4486 55.9956 25.4486 55.9956 24.8918L59.0579 3.45638C59.0579 2.62124 59.6147 0.394165 62.1202 0.394165C64.0689 0.394165 64.6257 1.50769 65.1825 3.17798L71.307 21.2728L77.4316 3.17798C77.9884 1.50769 78.5452 0.394165 80.4939 0.394165C82.9994 0.394165 83.2778 2.62124 83.5562 3.45638L86.6184 24.8918C86.6184 25.4486 86.6184 25.4486 86.6184 25.7269C86.6184 26.5621 85.7833 27.6756 84.6697 27.6756C83.5562 27.6756 82.721 27.1189 82.721 25.7269L80.2155 8.18891L74.3693 25.7269C74.0909 26.2837 73.8125 27.954 71.8638 27.954L71.0287 28.2324ZM79.3803 3.17798H81.0506C80.7723 2.62122 80.7723 2.62127 80.2155 2.62127C79.6587 2.89965 79.6587 2.8996 79.3803 3.17798ZM61.8418 2.89959C61.5634 2.89959 61.285 2.89962 61.0066 3.45638H62.677C62.677 2.89962 62.3986 2.89959 61.8418 2.89959Z" fill="black"></path><path d="M104.435 12.9213C105.27 12.9213 105.27 13.4781 105.27 13.7565C105.27 14.3133 104.992 14.5916 104.435 14.5916H94.1348V23.2215C94.1348 24.335 94.4132 24.335 95.2484 24.335H105.827C106.662 24.335 106.662 24.8917 106.662 25.1701C106.662 25.7269 106.384 26.0053 105.827 26.0053H94.6916C91.9077 26.0053 91.9077 24.0566 91.9077 22.9431V5.12667C91.9077 4.01314 91.9077 2.06445 94.6916 2.06445H105.27C106.106 2.06445 106.106 2.62118 106.106 2.89956C106.106 3.45633 105.827 3.73476 105.27 3.73476H94.97C94.1348 3.73476 93.8564 4.01313 93.8564 4.84827V12.3646H104.435V12.9213Z" fill="black"></path><path d="M105.827 27.3973H94.6919C93.0216 27.3973 90.7944 26.5621 90.7944 23.2215V5.40505C90.7944 2.62122 92.1864 1.22931 94.6919 1.22931H105.271C106.663 1.22931 107.219 2.34279 107.219 3.17794C107.219 4.29147 106.384 5.12665 105.271 5.12665H94.9703C94.9703 5.12665 94.9703 5.12665 94.6919 5.12665C94.6919 5.12665 94.6919 5.12667 94.6919 5.40505V12.0862H104.157C105.271 12.0862 106.106 12.9213 106.106 14.0349C106.106 15.1484 105.271 15.9836 104.157 15.9836H94.6919V23.4999C94.6919 23.4999 94.6919 23.4999 94.6919 23.7783C94.6919 23.7783 94.6919 23.7783 94.9703 23.7783H105.549C106.941 23.7783 107.498 24.6134 107.498 25.727C107.776 26.5621 106.941 27.3973 105.827 27.3973ZM93.5783 3.73474C93.2999 3.73474 93.3 4.01307 93.3 4.29145C93.3 4.01307 93.2999 3.73474 93.5783 3.73474Z" fill="black"></path><path d="M175.425 85.5791V75.8357C175.425 75.0006 175.982 74.7222 176.539 74.7222C177.095 74.7222 177.652 75.0006 177.652 75.8357V98.9415C177.652 99.7766 177.095 100.055 176.539 100.055C175.982 100.055 175.425 99.7766 175.425 98.9415V87.5278H162.062V98.9415C162.062 99.7766 161.506 100.055 160.949 100.055C160.392 100.055 159.835 99.7766 159.835 98.9415V75.8357C159.835 75.0006 160.392 74.7222 160.949 74.7222C161.506 74.7222 162.062 75.0006 162.062 75.8357V85.5791H175.425Z" fill="black"></path><path d="M176.538 100.89C175.425 100.89 174.59 100.055 174.59 98.9414V88.6413H163.454V98.9414C163.454 100.333 162.341 100.89 161.505 100.89C160.392 100.89 159.557 100.055 159.557 98.9414V75.8357C159.557 74.4438 160.67 73.887 161.505 73.887C162.619 73.887 163.454 74.7222 163.454 75.8357V84.4656H174.59V75.8357C174.59 74.4438 175.703 73.887 176.538 73.887C177.652 73.887 178.487 74.7222 178.487 75.8357V98.9414C178.487 100.055 177.652 100.89 176.538 100.89Z" fill="black"></path><path d="M197.418 75.0006C204.377 75.0006 209.945 80.2899 209.945 87.5278C209.945 94.7658 204.656 100.055 197.418 100.055C190.458 100.055 184.89 94.7658 184.89 87.5278C184.89 80.2899 190.458 75.0006 197.418 75.0006ZM197.418 98.1063C203.264 98.1063 207.996 93.3739 207.996 87.5278C207.996 81.6818 203.542 76.9492 197.418 76.9492C191.571 76.9492 186.839 81.6818 186.839 87.5278C186.839 93.3739 191.571 98.1063 197.418 98.1063Z" fill="black"></path><path d="M197.418 100.89C189.623 100.89 184.055 95.0441 184.055 87.2495C184.055 79.4548 189.901 73.6088 197.418 73.6088C204.934 73.6088 210.78 79.4548 210.78 87.2495C210.78 95.0441 205.213 100.89 197.418 100.89ZM197.418 77.7845C192.128 77.7845 187.952 81.9602 187.952 87.5278C187.952 93.0955 192.128 97.2712 197.418 97.2712C202.707 97.2712 206.883 93.0955 206.883 87.5278C206.883 81.9602 202.707 77.7845 197.418 77.7845Z" fill="black"></path><path d="M236.949 76.9492C237.506 75.2789 237.784 75.0006 239.176 75.0006C240.846 75.0006 240.846 76.3925 241.125 77.2276L244.187 98.6631C244.187 99.2199 244.187 99.2199 244.187 99.2199C244.187 99.7766 243.908 100.055 243.073 100.055C242.238 100.055 242.238 99.4982 241.96 98.9415L238.897 76.9492L231.659 98.6631C231.381 99.2199 231.103 100.055 229.989 100.055C228.597 100.055 228.597 99.4983 228.04 98.6631L220.802 76.9492L217.74 98.9415C217.74 99.4982 217.461 100.055 216.626 100.055C216.069 100.055 215.513 99.4982 215.513 99.2199C215.513 99.2199 215.513 98.9415 215.513 98.6631L218.575 77.2276C218.575 76.3925 218.853 75.0006 220.524 75.0006C221.916 75.0006 222.194 75.5573 222.751 76.9492L229.711 98.1063L236.949 76.9492Z" fill="black"></path><path d="M229.989 101.447L229.711 100.89C228.04 100.89 227.484 99.7767 227.205 98.6632L221.359 81.125L218.854 98.9415C218.575 100.333 218.018 100.89 216.905 100.89C215.513 100.89 214.956 100.055 214.956 98.9415C214.956 98.6631 214.956 98.6632 214.956 98.1064L218.018 76.6709C218.018 75.8358 218.575 73.6088 221.081 73.6088C223.029 73.6088 223.586 74.7223 224.143 76.3926L230.268 94.4875L236.392 76.3926C236.949 74.7223 237.506 73.6088 239.454 73.6088C241.96 73.6088 242.238 75.8358 242.517 76.6709L245.579 98.1064C245.579 98.6632 245.579 98.6631 245.579 98.9415C245.579 99.7767 244.744 100.89 243.63 100.89C242.517 100.89 241.681 100.333 241.681 98.9415L239.176 81.4034L233.33 98.9415C233.051 99.4983 232.773 101.169 230.824 101.169L229.989 101.447ZM238.062 76.3926H239.733C239.454 75.8358 239.454 75.8358 238.898 75.8358C238.619 75.8358 238.341 75.8358 238.062 76.3926ZM220.802 75.8358C220.524 75.8358 220.245 75.8358 219.967 76.3926H221.637C221.359 75.8358 221.081 75.8358 220.802 75.8358Z" fill="black"></path><path d="M263.118 86.1359C263.953 86.1359 263.953 86.6927 263.953 86.971C263.953 87.5278 263.675 87.8061 263.118 87.8061H252.817V96.436C252.817 97.5495 253.096 97.5495 253.931 97.5495H264.51C265.345 97.5495 265.345 98.1063 265.345 98.3847C265.345 98.9414 265.067 99.2198 264.51 99.2198H253.374C250.59 99.2198 250.59 97.2711 250.59 96.1576V78.3412C250.59 77.2277 250.59 75.279 253.374 75.279H264.231C265.067 75.279 265.067 75.8358 265.067 76.1142C265.067 76.6709 264.788 76.9493 264.231 76.9493H253.931C253.096 76.9493 252.817 77.2277 252.817 78.0628V85.5791H263.118V86.1359Z" fill="black"></path><path d="M264.51 100.333H253.374C251.704 100.333 249.477 99.4982 249.477 96.1576V78.3412C249.477 75.5574 250.869 74.1655 253.374 74.1655H264.231C265.623 74.1655 266.18 75.279 266.18 76.1142C266.18 77.2277 265.345 78.0628 264.231 78.0628H253.931C253.931 78.0628 253.931 78.0628 253.653 78.0628C253.653 78.0628 253.653 78.0628 253.653 78.3412V85.0223H263.118C264.232 85.0223 265.067 85.8575 265.067 86.971C265.067 88.0846 264.232 88.9197 263.118 88.9197H253.653V96.436C253.653 96.436 253.653 96.436 253.653 96.7144C253.653 96.7144 253.653 96.7144 253.931 96.7144H264.51C265.902 96.7144 266.459 97.5496 266.459 98.6631C266.459 99.4982 265.902 100.333 264.51 100.333ZM252.261 76.6709C251.982 76.6709 251.982 76.9493 251.982 77.2277C251.982 76.9493 252.261 76.9493 252.261 76.6709Z" fill="black"></path><path d="M269.799 110.912H153.432V115.644H269.799V110.912Z" fill="black"></path><path d="M53.2117 49.111C55.518 49.111 57.3876 47.2415 57.3876 44.9353C57.3876 42.6291 55.518 40.7596 53.2117 40.7596C50.9055 40.7596 49.0359 42.6291 49.0359 44.9353C49.0359 47.2415 50.9055 49.111 53.2117 49.111Z" fill="black"></path></svg> 