<?xml version="1.0" encoding="UTF-8"?> <svg xmlns="http://www.w3.org/2000/svg" width="653" height="365" viewBox="0 0 653 365" fill="none"><path d="M5.81693 321.16C5.81693 321.16 5.09163 321.885 4.36642 321.885C2.91599 321.885 2.91602 320.434 2.91602 319.709C2.91602 318.984 3.64121 318.259 4.36642 318.259L13.0691 312.457C14.5195 311.732 14.5194 311.007 15.2446 311.007C16.695 311.007 16.6951 312.458 16.6951 313.908V356.695C16.6951 358.146 15.2447 358.871 14.5195 358.871C13.069 358.871 12.3438 358.146 12.3438 356.695V316.808L5.81693 321.16Z" fill="black"></path><path d="M14.5154 360.321C12.3397 360.321 10.8893 358.87 10.8893 356.695V319.709L6.53802 322.61C5.81281 322.61 5.08758 323.335 4.36237 323.335C2.18675 323.335 0.736328 321.159 0.736328 319.709C0.736328 318.259 2.18677 316.808 2.91198 316.808L11.6145 311.007C13.0649 310.282 13.7901 309.556 15.2405 309.556C18.8666 309.556 18.8666 313.183 18.8666 313.908V356.695C18.1413 358.87 16.691 360.321 14.5154 360.321ZM13.065 314.633H13.7901C14.5153 314.633 14.5154 315.358 14.5154 316.083V355.97V313.182C14.5154 312.457 14.5154 312.457 14.5154 311.732L13.7901 312.457L13.065 314.633C12.3398 314.633 12.3398 314.633 13.065 314.633ZM4.36237 320.434L5.08763 321.885L4.36237 320.434Z" fill="black"></path><path d="M60.2025 319.709C59.4772 319.709 58.752 319.709 58.752 318.259C58.752 316.808 60.2025 316.808 60.2025 316.808H83.409V310.282C83.409 309.556 83.409 308.831 84.8594 308.831C86.3098 308.831 86.3098 309.556 86.3098 310.282V316.808H109.516C110.242 316.808 110.967 316.808 110.967 318.259C110.967 319.709 109.516 319.709 109.516 319.709H101.539C99.3636 326.236 96.4627 336.389 87.0351 345.817C93.5619 351.618 100.814 355.97 109.516 358.146C110.967 358.146 110.967 358.871 110.967 359.596C110.967 360.321 110.242 361.772 109.516 361.772C108.066 361.772 96.4627 358.146 84.8594 347.993C74.7065 357.42 61.6529 361.772 60.2025 361.772C59.4772 361.772 58.752 360.321 58.752 359.596C58.752 358.871 59.4772 358.146 60.2025 358.146C70.3553 355.245 76.8821 350.893 82.6838 345.817C74.7065 337.114 70.3553 326.961 68.1797 319.709H60.2025ZM71.8057 319.709C74.7065 329.862 79.783 337.84 84.8594 343.641C91.3863 337.114 95.7375 328.412 98.6383 319.709H71.8057Z" fill="black"></path><path d="M109.513 363.948C107.337 363.948 95.7339 360.322 84.8559 350.895C74.703 359.597 61.6493 363.948 60.1989 363.948C58.0233 363.948 56.5729 361.772 56.5729 360.322C56.5729 358.146 58.7485 357.421 59.4737 356.696C67.4509 353.795 74.703 350.169 79.7794 345.818C71.8022 337.115 68.1761 326.962 66.7257 321.161H59.4737C56.5729 321.161 55.8477 318.985 55.8477 317.535C55.8477 316.084 56.5729 313.908 59.4737 313.908H81.2298V309.556C81.2298 306.656 82.6802 305.93 84.8559 305.93C87.0315 305.93 88.4819 307.381 88.4819 309.556V313.908H109.513C112.414 313.908 113.139 315.359 113.139 317.535C113.139 319.71 112.414 321.161 109.513 321.161H102.986C100.81 328.413 97.1843 337.115 89.9323 345.818C95.7339 350.894 102.261 354.52 110.238 356.696C110.963 356.696 113.139 357.421 113.139 359.597C113.139 362.498 111.688 363.948 109.513 363.948ZM64.5501 358.872C63.0997 359.597 61.6493 359.597 60.9241 360.322C60.1989 360.322 60.1989 360.322 60.1989 360.322C60.9241 360.322 62.3745 359.597 64.5501 358.872ZM84.8559 346.543C85.5811 346.543 85.5811 346.543 84.8559 346.543C85.5811 346.543 85.5811 345.818 85.5811 345.818C85.5811 345.818 85.5811 345.818 84.8559 345.818C84.8559 345.818 84.8558 345.818 84.1306 345.818C84.8558 345.818 84.8559 345.818 84.8559 346.543ZM74.703 321.886C76.8786 329.138 80.5047 335.665 85.5811 341.466C90.6575 336.39 94.2836 329.138 96.4592 321.886H74.703ZM100.085 318.26C100.085 318.26 100.085 318.985 100.085 318.26C100.085 318.985 100.085 318.985 100.085 318.26C100.81 318.26 100.81 318.26 100.81 318.26H100.085ZM69.6265 318.26C70.3517 318.985 70.3517 318.985 69.6265 318.26C70.3517 318.985 70.3517 318.985 69.6265 318.26C70.3517 318.26 70.3518 318.26 70.3518 318.26H69.6265ZM84.8559 318.26H85.5811L84.8559 317.535C84.8559 317.535 84.8559 317.534 84.8559 318.26Z" fill="black"></path><path d="M153.761 355.97C153.761 360.321 152.311 361.772 147.959 361.772H141.433C140.707 361.772 139.982 361.046 139.982 360.321C139.982 358.87 140.707 358.871 141.433 358.871C142.158 358.871 145.784 358.871 147.234 358.871C148.685 358.871 150.86 358.871 150.86 355.97V343.641H127.654C126.928 343.641 126.203 343.641 126.203 342.19C126.203 340.74 127.654 340.74 127.654 340.74H150.86V335.664C150.86 334.939 150.86 334.213 152.311 334.213C153.036 334.213 153.036 334.213 153.761 334.213C155.937 333.488 158.112 332.038 161.738 330.587C162.464 329.862 163.189 329.862 163.189 329.137C163.189 328.412 162.464 328.412 161.738 328.412H137.081C136.356 328.412 135.631 328.412 135.631 326.961C135.631 325.511 137.081 325.511 137.081 325.511H163.189C165.364 325.511 167.54 325.511 167.54 328.412C167.54 330.588 166.09 331.313 164.639 332.763C163.914 332.763 160.288 334.939 155.211 337.114V340.74H178.418C179.143 340.74 179.868 340.74 179.868 342.19C179.868 343.641 178.418 343.641 178.418 343.641H153.761V355.97ZM171.891 313.908C176.242 313.908 177.693 315.358 177.693 319.709V326.961C177.693 327.686 177.693 328.412 176.242 328.412C174.792 328.412 174.792 326.961 174.792 326.961V319.709C174.792 317.533 174.067 316.808 171.891 316.808H134.18C132.005 316.808 131.28 317.533 131.28 319.709V326.961C131.28 327.686 131.28 328.412 129.829 328.412C128.379 328.412 128.379 327.686 128.379 326.961V319.709C128.379 315.358 129.829 313.908 134.18 313.908H151.585V310.282C151.585 309.556 151.585 308.831 153.036 308.831C154.486 308.831 154.486 309.556 154.486 310.282V313.908H171.891Z" fill="black"></path><path d="M147.958 363.223H141.432C139.256 363.223 137.806 361.772 137.806 359.597C137.806 358.872 137.806 355.971 141.432 355.971C142.157 355.971 142.882 355.971 144.332 355.971C145.783 355.971 146.508 355.971 146.508 355.971C147.958 355.971 147.958 355.971 147.958 354.521V344.367H126.202C123.301 344.367 122.576 342.917 122.576 340.741C122.576 338.566 123.301 337.115 126.202 337.115H147.958V333.489C147.958 329.863 150.859 329.863 152.31 329.863C153.76 329.138 155.21 328.412 156.661 327.687H135.63C132.729 327.687 132.004 326.237 132.004 324.787C132.004 323.336 132.729 321.161 135.63 321.161H161.737C163.188 321.161 167.539 321.16 167.539 325.512C167.539 328.413 165.363 329.863 163.188 331.313C162.463 332.038 158.837 333.489 154.485 335.665V336.39H176.242C179.142 336.39 179.868 337.841 179.868 340.016C179.868 342.192 179.142 343.642 176.242 343.642H154.485V354.521C155.936 359.597 154.485 363.223 147.958 363.223ZM151.584 358.147C150.859 358.872 150.134 359.597 149.409 359.597C150.859 359.597 151.584 358.872 151.584 358.147ZM151.584 341.466C151.584 342.192 152.31 342.192 151.584 341.466C152.31 342.192 152.31 341.466 153.035 341.466C152.31 341.466 152.31 341.466 151.584 341.466C152.31 341.466 151.584 341.466 151.584 341.466ZM163.913 326.237C164.638 326.962 164.638 326.962 164.638 327.687V326.962C164.638 326.962 164.638 326.237 163.913 326.237ZM175.516 329.863C174.066 329.863 171.89 329.138 171.89 326.237V318.985C171.89 318.259 171.89 317.535 170.44 317.535H132.729C132.004 317.535 131.279 317.534 131.279 318.985V326.237C131.279 328.413 129.828 329.863 127.653 329.863C126.927 329.863 124.027 329.863 124.027 326.237V318.985C124.027 313.908 126.202 311.007 131.279 311.007H147.233V309.556C147.233 305.93 150.134 305.93 150.859 305.93C151.584 305.93 154.485 305.93 154.485 309.556V311.007H170.44C175.516 311.007 178.417 313.183 178.417 318.985V326.237C179.142 329.138 177.692 329.863 175.516 329.863ZM174.791 316.084C174.791 316.084 175.516 316.809 175.516 317.535C175.516 316.809 174.791 316.084 174.791 316.084Z" fill="black"></path><path d="M277.037 318.985C280.663 318.259 286.465 316.809 291.541 316.809C305.32 316.809 311.122 325.511 311.122 334.939C311.122 351.619 295.167 354.521 291.541 355.246C285.015 356.696 278.488 356.696 278.488 356.696C277.762 356.696 276.312 356.696 276.312 354.521C276.312 353.07 277.762 353.07 278.488 353.07C281.389 353.07 283.564 353.07 286.465 353.07C290.091 352.345 308.221 350.894 308.221 334.939C308.221 329.863 305.32 320.435 292.267 320.435C287.19 320.435 280.663 321.886 270.511 324.787C269.785 324.787 264.709 326.237 263.984 326.237C262.533 326.237 262.533 324.786 262.533 324.061C262.533 322.61 263.984 322.611 264.709 321.886L277.037 318.985Z" fill="black"></path><path d="M278.484 358.872C274.858 358.872 274.133 356.696 274.133 355.246C274.133 354.52 274.133 351.62 278.484 351.62C280.66 351.62 283.561 351.62 285.736 351.62C294.439 350.894 305.317 347.269 305.317 335.665C305.317 332.764 304.592 323.336 290.813 323.336C285.736 323.336 279.209 324.786 269.782 327.687C269.782 327.687 263.98 329.863 263.255 329.863C261.079 329.863 259.629 328.413 259.629 326.237C259.629 323.336 262.53 322.611 263.255 322.611L277.034 318.985C282.11 317.535 287.187 316.809 291.538 316.809C306.042 316.809 313.294 326.962 313.294 336.39C313.294 347.994 306.042 355.971 292.263 358.872C285.736 358.872 279.209 358.872 278.484 358.872ZM279.935 355.246C279.209 355.246 277.759 355.246 277.759 355.246H278.484C278.484 355.246 279.209 355.246 279.935 355.246ZM308.218 340.741C306.767 344.367 304.592 347.994 300.24 350.169C303.867 347.994 306.767 345.093 308.218 340.741ZM268.331 323.336L263.98 324.061C263.98 324.061 263.255 324.062 263.255 324.787C263.255 324.787 266.881 324.061 268.331 323.336Z" fill="black"></path><path d="M329.255 319.709C328.53 319.709 327.805 319.709 327.805 318.259C327.805 316.808 329.255 316.808 329.255 316.808H352.462V310.282C352.462 309.556 352.462 308.831 353.912 308.831C355.363 308.831 355.363 309.556 355.363 310.282V316.808H378.569C379.294 316.808 380.02 316.808 380.02 318.259C380.02 319.709 378.569 319.709 378.569 319.709H371.317C369.141 326.236 366.241 336.389 356.813 345.817C363.34 351.618 370.592 355.97 379.294 358.146C380.745 358.146 380.745 358.871 380.745 359.596C380.745 360.321 380.02 361.772 379.294 361.772C377.844 361.772 366.241 358.146 354.637 347.993C344.484 357.42 331.431 361.772 329.98 361.772C329.255 361.772 328.53 360.321 328.53 359.596C328.53 358.871 329.255 358.146 329.98 358.146C340.133 355.245 346.66 350.893 352.462 345.817C344.484 337.114 340.133 326.961 337.958 319.709H329.255ZM340.858 319.709C343.759 329.862 348.836 337.84 353.912 343.641C360.439 337.114 364.79 328.412 367.691 319.709H340.858Z" fill="black"></path><path d="M378.566 363.948C376.39 363.948 364.787 360.322 353.909 350.895C343.756 359.597 330.702 363.948 329.252 363.948C327.076 363.948 325.626 361.772 325.626 360.322C325.626 358.146 327.801 357.421 328.526 356.696C336.504 353.795 343.756 350.169 348.832 345.818C340.855 337.115 337.229 326.962 335.778 321.161H328.526C325.626 321.161 324.9 318.985 324.9 317.535C324.9 316.084 325.626 313.908 328.526 313.908H350.283V309.556C350.283 306.656 351.733 305.93 353.909 305.93C356.084 305.93 357.535 307.381 357.535 309.556V313.908H378.566C381.466 313.908 382.192 315.359 382.192 317.535C382.192 319.71 381.466 321.161 378.566 321.161H372.039C369.863 328.413 366.237 337.115 358.985 345.818C364.787 350.894 371.314 354.52 379.291 356.696C380.016 356.696 382.192 357.421 382.192 359.597C382.192 362.498 380.741 363.948 378.566 363.948ZM334.328 358.872C332.878 359.597 331.427 359.597 330.702 360.322C329.977 360.322 329.977 360.322 329.977 360.322C329.977 360.322 331.427 359.597 334.328 358.872ZM354.634 346.543C355.359 346.543 355.359 345.818 355.359 345.818C355.359 345.818 355.359 345.818 354.634 345.818C354.634 345.818 354.634 345.818 353.909 345.818C353.909 345.818 353.909 345.818 354.634 346.543C353.909 346.543 353.909 346.543 354.634 346.543C353.909 346.543 353.909 346.543 354.634 346.543ZM343.756 321.886C345.931 329.138 349.557 335.665 354.634 341.466C359.71 336.39 363.336 329.138 365.512 321.886H343.756ZM369.138 318.26C369.138 318.26 369.138 318.985 369.138 318.26C369.138 318.985 369.138 318.985 369.138 318.26C369.863 318.26 369.863 318.26 369.863 318.26H369.138ZM339.404 318.26C339.404 318.985 339.404 318.985 339.404 318.26C339.404 318.985 339.404 318.985 339.404 318.26C340.13 318.26 340.13 318.26 340.13 318.26H339.404ZM353.909 318.26H354.634L353.909 317.535C353.909 317.535 353.909 317.534 353.909 318.26Z" fill="black"></path><path d="M422.81 355.97C422.81 360.321 421.359 361.772 417.008 361.772H410.481C409.756 361.772 409.031 361.046 409.031 360.321C409.031 358.87 409.756 358.871 410.481 358.871C411.207 358.871 414.833 358.871 416.283 358.871C417.733 358.871 419.909 358.871 419.909 355.97V343.641H396.702C395.977 343.641 395.252 343.641 395.252 342.19C395.252 340.74 396.702 340.74 396.702 340.74H419.909V335.664C419.909 334.939 419.909 334.213 421.359 334.213C422.085 334.213 422.085 334.213 422.81 334.213C424.985 333.488 427.161 332.038 430.787 330.587C431.512 329.862 432.237 329.862 432.237 329.137C432.237 328.412 431.512 328.412 430.787 328.412H406.13C405.405 328.412 404.68 328.412 404.68 326.961C404.68 325.511 406.13 325.511 406.13 325.511H432.237C434.413 325.511 436.589 325.511 436.589 328.412C436.589 330.588 435.138 331.313 433.688 332.763C432.963 332.763 429.337 334.939 424.26 337.114V340.74H447.467C448.192 340.74 448.917 340.74 448.917 342.19C448.917 343.641 447.467 343.641 447.467 343.641H424.26V355.97H422.81ZM440.94 313.908C445.291 313.908 446.742 315.358 446.742 319.709V326.961C446.742 327.686 446.742 328.412 445.291 328.412C443.841 328.412 443.841 326.961 443.841 326.961V319.709C443.841 317.533 443.116 316.808 440.94 316.808H403.229C401.054 316.808 400.328 317.533 400.328 319.709V326.961C400.328 327.686 400.328 328.412 398.878 328.412C397.428 328.412 397.428 327.686 397.428 326.961V319.709C397.428 315.358 398.878 313.908 403.229 313.908H420.634V310.282C420.634 309.556 420.634 308.831 422.085 308.831C423.535 308.831 423.535 309.556 423.535 310.282V313.908H440.94Z" fill="black"></path><path d="M417.007 363.223H410.481C408.305 363.223 406.854 361.772 406.854 359.597C406.854 358.872 406.854 355.971 410.481 355.971C411.206 355.971 411.931 355.971 413.381 355.971C414.832 355.971 415.557 355.971 415.557 355.971C417.007 355.971 417.007 355.971 417.007 354.521V344.367H395.251C392.35 344.367 391.625 342.917 391.625 340.741C391.625 338.566 392.35 337.115 395.251 337.115H417.007V333.489C417.007 329.863 419.908 329.863 421.359 329.863C422.809 329.138 424.26 328.412 425.71 327.687H404.679C401.778 327.687 401.053 326.237 401.053 324.787C401.053 323.336 401.778 321.161 404.679 321.161H430.787C432.237 321.161 436.588 321.16 436.588 325.512C436.588 328.413 434.412 329.863 432.237 331.313C431.512 332.038 427.886 333.489 423.534 335.665V336.39H445.291C448.192 336.39 448.917 337.841 448.917 340.016C448.917 342.192 448.192 343.642 445.291 343.642H423.534V354.521C424.985 359.597 424.259 363.223 417.007 363.223ZM421.359 358.147C420.633 358.872 419.908 359.597 419.183 359.597C419.908 359.597 420.633 358.872 421.359 358.147ZM420.633 341.466C421.359 342.192 421.359 342.192 420.633 341.466C421.359 342.192 421.359 341.466 422.084 341.466C422.084 341.466 421.359 341.466 420.633 341.466C421.359 341.466 421.359 341.466 420.633 341.466ZM421.359 334.939C421.359 334.939 422.084 334.939 421.359 334.939C422.084 334.939 421.359 334.939 421.359 334.939ZM432.962 326.237C433.687 326.962 433.687 326.962 433.687 327.687V326.962C433.687 326.962 433.687 326.237 432.962 326.237ZM444.565 329.863C443.115 329.863 440.939 329.138 440.939 326.237V318.985C440.939 318.259 440.939 317.535 439.489 317.535H401.778C401.053 317.535 400.328 317.534 400.328 318.985V326.237C400.328 328.413 398.877 329.863 396.702 329.863C395.976 329.863 393.076 329.863 393.076 326.237V318.985C393.076 313.908 395.251 311.007 400.328 311.007H416.282V309.556C416.282 305.93 419.183 305.93 419.908 305.93C420.634 305.93 423.534 305.93 423.534 309.556V311.007H439.489C444.565 311.007 447.466 313.183 447.466 318.985V326.237C448.191 329.138 446.741 329.863 444.565 329.863ZM443.84 316.084C443.84 316.084 444.565 316.809 444.565 317.535C444.565 316.809 443.84 316.084 443.84 316.084Z" fill="black"></path><path d="M478.649 324.061C479.374 324.061 479.374 324.061 478.649 324.061C480.099 320.435 480.824 316.809 480.824 313.183C480.824 311.007 480.824 310.282 483 310.282C483.725 310.282 485.176 311.007 485.176 311.732C485.176 312.458 484.45 316.809 483 323.336C483.725 323.336 484.45 323.336 485.901 323.336C498.229 323.336 498.955 330.588 498.955 337.84C498.955 355.97 493.878 358.872 486.626 358.872C480.824 358.872 480.824 357.421 480.824 356.696C480.824 355.97 481.549 355.245 482.275 355.245H483.725C485.176 355.245 485.901 355.245 486.626 355.245C491.702 355.245 495.329 353.795 495.329 337.115C495.329 330.588 494.603 325.512 485.901 325.512C484.45 325.512 483 325.512 482.275 325.512C478.649 341.467 474.298 350.169 470.672 355.97C469.946 357.421 469.221 358.146 468.496 358.146C468.496 358.146 466.32 358.146 466.32 356.696C466.32 355.97 466.32 355.971 467.771 353.795C472.122 346.543 475.748 336.39 478.649 326.237C476.473 326.237 466.32 328.413 465.595 328.413C464.87 328.413 464.145 327.687 464.145 326.962C464.145 325.511 464.87 325.512 467.046 325.512L478.649 324.061ZM506.932 326.962C511.283 333.489 512.733 340.016 512.733 341.466C512.733 342.917 512.008 342.917 510.558 342.917C509.108 342.917 509.107 342.192 509.107 340.016C507.657 333.489 504.031 326.962 498.955 321.886C496.779 319.71 496.779 319.71 496.779 318.985C496.779 318.259 497.504 317.535 498.229 317.535C500.405 318.26 504.756 324.061 506.932 326.962ZM512.008 319.71C512.008 320.435 511.283 321.161 509.833 321.161C509.107 321.161 509.107 321.161 506.207 317.535C505.481 316.809 503.306 314.633 501.855 313.183C501.13 312.457 501.13 312.458 501.13 311.732C501.13 311.007 501.855 310.282 502.581 310.282C505.481 311.008 512.008 318.984 512.008 319.71ZM518.535 315.359C518.535 316.084 517.81 316.809 516.359 316.809C515.634 316.809 515.634 316.809 512.733 313.183C512.008 312.457 509.833 310.282 508.382 308.831C507.657 308.106 507.657 308.107 507.657 307.381C507.657 306.656 508.382 305.93 509.107 305.93C512.733 305.93 518.535 313.908 518.535 315.359Z" fill="black"></path><path d="M485.903 361.047C483.727 361.047 477.926 361.046 477.926 356.695C477.926 354.519 479.376 353.069 480.827 353.069C481.552 353.069 482.277 353.069 483.002 353.069C483.728 353.069 485.178 353.069 485.903 353.069C489.529 353.069 493.155 353.069 493.155 337.115C493.155 330.588 492.43 327.686 485.903 327.686C485.178 327.686 484.453 327.686 483.728 327.686C480.827 340.015 477.201 349.443 472.124 357.421C471.399 358.871 470.674 360.321 468.498 360.321C467.048 360.321 464.872 359.596 464.872 356.695C464.872 355.244 464.872 355.244 466.323 353.069C469.949 346.542 473.575 337.84 476.475 328.412C475.025 328.412 472.849 329.137 471.399 329.137C466.323 329.863 466.323 329.862 466.323 329.862C464.147 329.862 463.422 328.412 463.422 326.236C463.422 323.336 465.597 323.336 468.498 322.61L479.376 321.16C480.101 318.259 480.827 315.358 480.827 311.732C480.827 310.282 481.552 307.381 484.453 307.381C486.628 307.381 488.079 308.832 488.079 311.007C488.079 311.732 487.354 316.083 486.628 320.434C501.132 320.434 501.132 330.588 501.132 337.115C499.682 355.245 496.056 361.047 485.903 361.047ZM479.376 325.511C479.376 325.511 480.101 326.237 479.376 325.511C480.101 326.237 480.101 326.237 479.376 325.511C480.101 326.237 480.101 326.237 479.376 325.511C480.101 325.511 480.827 324.786 481.552 324.786C481.552 324.786 481.552 324.786 481.552 324.06C480.827 324.786 480.101 325.511 479.376 325.511ZM510.56 345.092C507.659 345.092 507.659 342.916 506.934 340.741C505.484 334.214 502.583 328.412 497.506 323.335C495.331 321.16 494.606 320.435 494.606 319.709C494.606 318.259 496.056 316.808 498.232 316.808C501.858 316.808 506.934 324.786 507.659 326.236C512.01 332.763 513.461 340.015 513.461 341.466C514.186 343.641 512.736 345.092 510.56 345.092ZM510.56 323.335C509.11 323.335 508.385 322.61 506.209 319.709L505.484 318.984C504.759 318.259 502.583 316.084 501.858 314.633C501.132 313.908 500.407 313.182 500.407 312.457C500.407 311.007 501.858 308.831 504.033 308.831C506.934 308.831 514.186 318.259 514.186 319.709C514.186 321.885 512.011 323.335 510.56 323.335ZM517.087 318.984C515.637 318.984 514.911 318.259 512.011 314.633C511.285 313.908 509.11 311.733 508.385 310.282C507.659 309.557 507.659 308.831 507.659 308.106C507.659 305.931 509.11 304.48 511.285 304.48C514.186 304.48 521.438 313.183 521.438 315.358C520.713 316.809 518.537 318.984 517.087 318.984Z" fill="black"></path><path d="M554.788 334.213H541.01C536.658 334.213 535.208 332.763 535.208 328.412V314.633C535.208 313.908 535.208 313.182 536.658 313.182C538.109 313.182 538.109 313.908 538.109 314.633V328.412C538.109 330.588 539.559 331.312 541.01 331.312H554.788V310.282C554.788 309.557 554.789 308.831 556.239 308.831C557.689 308.831 557.689 309.557 557.689 310.282V331.312H571.468C573.644 331.312 574.369 330.588 574.369 328.412V314.633C574.369 313.908 574.369 313.182 575.82 313.182C577.27 313.182 577.27 313.908 577.27 314.633V328.412C577.27 332.763 575.82 334.213 571.468 334.213H557.689V358.146H573.644C575.819 358.146 576.545 357.42 576.545 355.245V342.916C576.545 342.191 576.545 341.465 577.995 341.465C579.446 341.465 579.446 342.191 579.446 342.916V355.245C579.446 359.596 577.995 361.047 573.644 361.047H537.384C533.032 361.047 531.582 359.596 531.582 355.245V342.916C531.582 342.191 531.582 341.465 533.032 341.465C534.483 341.465 534.483 342.191 534.483 342.916V355.245C534.483 357.42 535.933 358.146 537.384 358.146H553.338V334.213H554.788Z" fill="black"></path><path d="M574.372 363.223H538.112C533.036 363.223 530.135 361.048 530.135 355.246V342.917C530.135 340.016 531.585 339.291 533.761 339.291C535.936 339.291 537.387 340.741 537.387 342.917V355.246C537.387 355.971 537.387 356.696 538.837 356.696H553.341V336.39H541.013C535.936 336.39 533.761 334.214 533.761 328.412V314.633C533.761 311.732 535.211 311.007 537.387 311.007C539.562 311.007 541.013 312.457 541.013 314.633V328.412C541.013 329.138 541.013 329.863 542.463 329.863H554.067V311.007C554.067 308.106 555.517 307.381 557.693 307.381C559.868 307.381 561.319 308.831 561.319 311.007V329.863H572.922C574.372 329.863 574.372 329.863 574.372 328.412V314.633C574.372 311.732 575.823 311.007 577.998 311.007C580.174 311.007 581.625 312.457 581.625 314.633V328.412C581.625 333.489 579.449 336.39 573.647 336.39H559.868V356.696H574.372C575.098 356.696 575.823 356.696 575.823 355.246V342.917C575.823 340.016 577.273 339.291 579.449 339.291C581.625 339.291 583.075 340.741 583.075 342.917V355.246C582.35 361.048 579.449 363.223 574.372 363.223ZM555.517 333.489C556.242 333.489 556.242 333.489 555.517 333.489C556.242 334.214 556.242 333.489 556.242 333.489C556.242 332.764 556.242 332.764 555.517 333.489C556.242 332.764 556.242 332.764 555.517 333.489Z" fill="black"></path><path d="M604.106 332.763H598.304C597.579 332.763 596.854 332.763 596.854 331.312C596.854 329.862 598.304 329.862 598.304 329.862H604.106V314.633H598.304C597.579 314.633 596.854 314.632 596.854 313.182C596.854 311.732 598.304 311.732 598.304 311.732H613.533C614.258 311.732 614.984 311.732 614.984 313.182C614.984 314.632 613.533 314.633 613.533 314.633H607.006V329.862H612.083C612.808 329.862 613.533 329.862 613.533 331.312C613.533 332.763 612.083 332.763 612.083 332.763H607.006V348.718C609.182 347.992 611.358 347.268 612.083 347.268C613.533 346.542 614.258 346.543 614.258 346.543C614.984 346.543 615.709 347.267 615.709 347.993C615.709 349.443 615.709 349.443 611.358 350.894C605.556 352.344 598.304 353.795 598.304 353.795C597.579 353.795 596.854 353.069 596.854 352.344C596.854 350.893 597.579 350.894 598.304 350.894C599.754 350.168 602.655 350.168 604.831 349.443V332.763H604.106ZM622.236 342.917C618.61 342.917 617.884 341.466 617.884 337.839V315.358C617.884 311.732 619.335 311.007 622.236 311.007H643.267C646.893 311.007 648.343 312.457 648.343 315.358V337.839C648.343 341.466 646.893 342.917 643.267 342.917H638.19V356.695C638.19 358.87 639.641 358.871 641.091 358.871C645.442 358.871 646.168 358.871 646.168 358.146C646.168 357.421 646.168 356.695 646.893 352.344C646.893 350.893 646.893 350.169 648.343 350.169C649.068 350.169 649.794 350.893 649.794 351.619C649.794 353.069 649.068 358.87 648.343 360.321C647.618 361.771 646.893 361.772 639.641 361.772C636.74 361.772 634.564 361.046 634.564 356.695V342.917H628.037C627.312 348.718 625.136 355.245 616.434 359.596C613.533 361.046 610.632 361.772 609.907 361.772C609.182 361.772 608.457 361.046 608.457 359.596C608.457 358.871 609.182 358.146 609.907 358.146C617.884 355.97 623.686 352.344 625.137 342.191H622.236V342.917ZM620.785 320.434H644.717V316.083C644.717 314.633 643.992 313.908 642.541 313.908H622.961C621.511 313.908 620.785 314.633 620.785 316.083V320.434ZM644.717 323.335H620.785V329.862H644.717V323.335ZM620.785 332.763V337.839C620.785 339.29 621.511 340.015 622.961 340.015H642.541C643.992 340.015 644.717 339.29 644.717 337.839V332.763H620.785Z" fill="black"></path><path d="M610.636 363.947C608.46 363.947 607.01 362.497 607.01 360.321C607.01 359.596 607.01 358.146 609.91 357.421C617.162 355.246 622.239 352.344 623.689 345.092H622.964C618.613 345.092 616.437 342.916 616.437 338.565V332.764C616.437 334.214 614.987 334.939 612.811 334.939H609.185V347.268C610.636 347.268 611.361 346.543 612.086 346.543H612.811C614.262 345.818 614.262 345.817 614.987 345.817C616.437 345.817 617.888 347.268 617.888 349.443C617.888 352.344 616.437 352.345 612.086 353.795C607.01 355.246 599.032 357.421 598.307 357.421C596.857 357.421 595.406 355.971 595.406 353.795C595.406 351.619 597.582 350.894 597.582 350.894C599.032 350.169 601.208 350.168 602.658 349.443V335.665H599.032C596.131 335.665 595.406 334.215 595.406 332.039C595.406 330.588 596.131 329.138 599.032 329.138H602.658V317.535H599.032C596.131 317.535 595.406 316.084 595.406 314.634C595.406 313.183 596.131 311.733 599.032 311.733H614.262C615.712 311.733 616.437 312.458 617.162 313.183C617.888 311.732 620.063 310.283 622.964 310.283H643.995C648.346 310.283 650.522 312.458 650.522 316.809V339.291C650.522 343.642 648.346 345.817 643.995 345.817H641.094V357.421V358.146H641.819C643.27 358.146 644.72 358.146 645.446 358.146C645.446 357.421 645.446 356.696 645.446 355.245V353.795C645.446 352.345 645.446 349.443 649.072 349.443C651.247 349.443 652.698 350.894 652.698 353.069C652.698 353.069 652.698 360.322 650.522 362.497C649.072 364.673 647.621 364.673 640.369 364.673C637.468 364.673 633.842 363.948 633.842 358.146V345.817H630.941C629.491 351.619 627.315 358.146 618.613 362.497C614.987 363.222 611.361 363.947 610.636 363.947ZM606.284 350.169C606.284 350.894 605.559 350.894 606.284 350.169C606.284 350.894 606.284 350.894 606.284 350.169C606.284 350.894 606.284 350.894 606.284 350.169ZM622.964 334.214V337.84V338.565H642.545C642.545 338.565 643.27 338.565 643.27 337.84V334.214H622.964ZM605.559 331.313C605.559 331.313 605.559 332.038 605.559 331.313C606.284 331.313 606.284 331.313 606.284 331.313H605.559ZM609.185 328.413H612.811C614.987 328.413 615.712 329.863 616.437 330.588V316.084C615.712 316.084 614.987 316.809 614.262 316.809H609.91V328.413H609.185ZM622.964 328.413H643.27V325.512H622.964V328.413ZM622.964 318.985H643.27V316.084L642.545 315.359H622.964L622.239 316.084V318.985H622.964Z" fill="black"></path><path d="M5.81693 20.9196C5.81693 20.9196 5.09163 21.6447 4.36642 21.6447C2.91599 21.6447 2.91602 20.1939 2.91602 19.4687C2.91602 18.7435 3.64121 18.0186 4.36642 18.0186L13.0691 12.2166C14.5195 11.4914 14.5194 10.7665 15.2446 10.7665C16.695 10.7665 16.6951 12.2171 16.6951 13.6676V56.455C16.6951 57.9054 15.2447 58.6301 14.5195 58.6301C13.069 58.6301 12.3438 57.9054 12.3438 56.455V16.5686L5.81693 20.9196Z" fill="black"></path><path d="M14.5154 60.0812C12.3397 60.0812 10.8893 58.6307 10.8893 56.4551V19.4679L6.53802 22.3689C5.81281 23.0942 5.08758 23.094 4.36237 23.094C2.18675 23.094 0.736328 20.9183 0.736328 19.4679C0.736328 18.0174 2.18677 16.5677 2.91198 16.5677L11.6145 10.7655C13.0649 10.0403 13.7901 9.31543 15.2405 9.31543C18.8666 9.31543 18.8666 12.9414 18.8666 13.6666V56.4551C18.1413 58.6307 16.691 60.0812 14.5154 60.0812ZM13.065 14.3917H13.7901C14.5153 14.3917 14.5154 15.1165 14.5154 15.8417V55.7291V12.9416C14.5154 12.2163 14.5154 12.2158 14.5154 11.4906L13.7901 12.2156L13.065 14.3917C12.3398 14.3917 12.3398 14.3917 13.065 14.3917ZM4.36237 19.4679C4.36237 20.1931 4.36237 20.1931 4.36237 19.4679L5.08763 20.9189L4.36237 19.4679Z" fill="black"></path><path d="M60.2025 19.4677C59.4772 19.4677 58.752 19.468 58.752 18.0176C58.752 16.5671 60.2025 16.5675 60.2025 16.5675H83.409V10.0404C83.409 9.31516 83.409 8.58942 84.8594 8.58942C86.3098 8.58942 86.3098 9.31516 86.3098 10.0404V16.5675H109.516C110.242 16.5675 110.967 16.5671 110.967 18.0176C110.967 19.468 109.516 19.4677 109.516 19.4677H101.539C99.3636 25.9946 96.4627 36.1483 87.0351 45.5761C93.5619 51.3779 100.814 55.7288 109.516 57.9044C110.967 57.9044 110.967 58.6293 110.967 59.3545C110.967 60.0797 110.242 61.5305 109.516 61.5305C108.066 61.5305 96.4627 57.9043 84.8594 47.7512C74.7065 57.179 61.6529 61.5305 60.2025 61.5305C58.752 61.5305 58.752 60.0797 58.752 59.3545C58.752 58.6293 59.4772 57.9044 60.2025 57.9044C70.3553 55.0036 76.8821 50.6526 82.6838 45.5761C74.7065 36.8735 70.3553 26.7198 68.1797 19.4677H60.2025ZM71.8057 19.4677C74.7065 29.6207 79.783 37.5984 84.8594 43.4001C91.3863 36.8732 95.7375 28.1702 98.6383 19.4677H71.8057Z" fill="black"></path><path d="M109.513 63.7076C107.337 63.7076 95.7339 60.0812 84.8559 50.6533C74.703 59.356 61.6493 63.7076 60.1989 63.7076C58.0233 63.7076 56.5729 61.532 56.5729 60.0815C56.5729 57.9059 58.7485 57.1806 59.4737 56.4554C67.4509 53.5545 74.703 49.9284 79.7794 45.5771C71.8022 36.8744 68.1761 26.7211 66.7257 20.9194H59.4737C56.5729 20.9194 55.8477 18.7437 55.8477 17.2933C55.8477 15.8428 56.5729 13.6671 59.4737 13.6671H81.2298V9.31599C81.2298 6.4151 82.6802 5.68988 84.8559 5.68988C87.0315 5.68988 88.4819 7.14032 88.4819 9.31599V13.6671H109.513C112.414 13.6671 113.139 15.1176 113.139 17.2933C113.139 19.4689 112.414 20.9194 109.513 20.9194H102.986C100.81 28.1716 97.1843 36.8744 89.9323 45.5771C95.7339 50.6536 102.261 54.2798 110.238 56.4554C110.963 56.4554 113.139 57.1799 113.139 59.3556C113.139 61.5313 111.688 63.7076 109.513 63.7076ZM64.5501 58.6306C63.0997 59.3558 61.6493 59.3563 60.9241 60.0815H60.1989C60.9241 60.0815 62.3745 59.3558 64.5501 58.6306ZM107.337 59.3556C108.062 59.3556 108.062 59.3556 108.788 59.3556C108.062 60.0808 108.062 60.0808 107.337 59.3556ZM84.8559 46.3021C85.5811 46.3021 85.5811 46.3021 84.8559 46.3021C85.5811 46.3021 85.5811 45.5771 85.5811 45.5771H84.8559C84.8559 45.5771 84.8558 45.5771 84.1306 45.5771C84.8558 45.5771 84.8559 45.5769 84.8559 46.3021ZM74.703 20.9194C76.8786 28.1716 80.5047 34.6982 85.5811 40.5C90.6575 35.4235 94.2836 28.1716 96.4592 20.9194H74.703ZM100.085 18.0183C100.085 18.7435 100.085 18.7435 100.085 18.0183C100.81 18.0183 100.81 18.0183 100.81 18.0183H100.085ZM69.6265 18.0183C70.3517 18.0183 70.3517 18.7435 69.6265 18.0183C70.3517 18.7435 70.3517 18.7435 69.6265 18.0183C70.3517 18.0183 70.3518 18.0183 70.3518 18.0183H69.6265ZM84.8559 17.2933H85.5811L84.8559 16.5682C84.8559 17.2934 84.8559 17.2933 84.8559 17.2933Z" fill="black"></path><path d="M153.761 55.7284C153.761 60.0797 152.311 61.5305 147.959 61.5305H141.433C140.707 61.5305 139.982 60.8057 139.982 60.0804C139.982 58.63 140.707 58.6295 141.433 58.6295C142.158 58.6295 145.784 58.6295 147.234 58.6295C148.685 58.6295 150.86 58.6293 150.86 55.7284V43.4001H127.654C126.928 43.4001 126.203 43.4005 126.203 41.95C126.203 40.4996 127.654 40.4991 127.654 40.4991H150.86V35.4229C150.86 34.6977 150.86 33.972 152.311 33.972C153.036 33.972 153.036 33.972 153.761 33.972C155.937 33.2468 158.112 31.7963 161.738 30.3459C162.464 29.6207 163.189 29.621 163.189 28.8958C163.189 28.1706 162.464 28.1708 161.738 28.1708H137.081C136.356 28.1708 135.631 28.1702 135.631 26.7198C135.631 25.2694 137.081 25.2697 137.081 25.2697H163.189C165.364 25.2697 167.54 25.2699 167.54 28.1708C167.54 30.3464 166.09 31.0715 164.639 32.5219C163.914 32.5219 160.288 34.6974 155.211 36.873V40.4991H178.418C179.143 40.4991 179.868 40.4996 179.868 41.95C179.868 43.4005 178.418 43.4001 178.418 43.4001H153.761V55.7284ZM171.891 13.6665C176.242 13.6665 177.693 15.1164 177.693 19.4677V26.7198C177.693 27.445 177.693 28.1708 176.242 28.1708C174.792 28.1708 174.792 26.7198 174.792 26.7198V19.4677C174.792 17.292 174.067 16.5675 171.891 16.5675H134.18C132.005 16.5675 131.28 17.292 131.28 19.4677V26.7198C131.28 27.445 131.28 28.1708 129.829 28.1708C128.379 28.1708 128.379 27.445 128.379 26.7198V19.4677C128.379 15.1164 129.829 13.6665 134.18 13.6665H151.585V10.0404C151.585 9.31516 151.585 8.58942 153.036 8.58942C154.486 8.58942 154.486 9.31516 154.486 10.0404V13.6665H171.891Z" fill="black"></path><path d="M147.958 62.9808H141.432C139.256 62.9808 137.806 61.5304 137.806 59.3548C137.806 58.6296 137.806 55.7287 141.432 55.7287C142.157 55.7287 142.882 55.7287 144.332 55.7287C145.783 55.7287 146.508 55.7287 146.508 55.7287C147.958 55.7287 147.958 55.7291 147.958 54.2786V44.1255H126.202C123.301 44.1255 122.576 42.6751 122.576 40.4995C122.576 38.3238 123.301 36.8734 126.202 36.8734H147.958V33.2474C147.958 29.6213 150.859 29.6213 152.31 29.6213C153.76 28.8961 155.21 28.1714 156.661 27.4462H135.63C132.729 27.4462 132.004 25.9956 132.004 24.5452C132.004 23.0948 132.729 20.9191 135.63 20.9191H161.737C163.188 20.9191 167.539 20.919 167.539 25.2702C167.539 28.1711 165.363 29.6218 163.188 31.0723C163.188 31.0723 159.562 33.2477 154.485 35.4233V36.1484H176.242C179.142 36.1484 179.868 37.5988 179.868 39.7744C179.868 41.9501 179.142 43.4005 176.242 43.4005H154.485V54.2786C155.936 59.3551 154.485 62.9808 147.958 62.9808ZM151.584 57.9047C150.859 58.6299 150.134 59.3548 149.409 59.3548C150.859 59.3548 151.584 58.6299 151.584 57.9047ZM151.584 41.2245C151.584 41.2245 152.31 41.9497 151.584 41.2245C152.31 41.9497 152.31 41.2245 153.035 41.2245C152.31 41.2245 152.31 41.2245 151.584 41.2245C152.31 41.2245 151.584 41.2245 151.584 41.2245ZM163.913 25.9952C164.638 26.7205 164.638 26.721 164.638 27.4462V26.7203C164.638 26.7203 164.638 25.9952 163.913 25.9952ZM175.516 29.6213C174.066 29.6213 171.89 28.8961 171.89 25.9952V18.7431C171.89 18.0179 171.89 17.2931 170.44 17.2931H132.729C132.004 17.2931 131.279 17.2927 131.279 18.7431V25.9952C131.279 28.8961 128.378 29.6213 127.653 29.6213C126.927 29.6213 124.027 29.6213 124.027 25.9952V18.7431C124.027 13.6667 126.202 10.766 131.279 10.766H147.233V9.31593C147.233 5.68988 150.134 5.68988 150.859 5.68988C151.584 5.68988 154.485 5.68988 154.485 9.31593V10.766H170.44C175.516 10.766 178.417 12.9415 178.417 18.7431V25.9952C179.142 28.8961 177.692 29.6213 175.516 29.6213ZM174.791 15.8421C174.791 15.8421 175.516 16.5679 175.516 17.2931C174.791 16.5679 174.791 15.8421 174.791 15.8421Z" fill="black"></path><path d="M277.037 18.7434C280.663 18.0182 286.465 16.5683 291.541 16.5683C305.32 16.5683 311.122 25.2708 311.122 34.6985C311.122 51.3783 295.167 54.2786 291.541 55.0038C285.015 56.4542 278.488 56.4548 278.488 56.4548C277.762 56.4548 276.312 56.4544 276.312 54.2788C276.312 52.8284 277.762 52.8287 278.488 52.8287C281.389 52.8287 283.564 52.8287 286.465 52.8287C290.091 52.1035 308.221 50.6531 308.221 34.6985C308.221 29.6221 305.32 20.1943 292.267 20.1943C287.19 20.1943 280.663 21.6446 270.511 24.5454C269.785 24.5454 264.709 25.9955 263.984 25.9955C262.533 25.9955 262.533 24.5456 262.533 23.8204C262.533 22.37 263.984 22.3696 264.709 21.6444L277.037 18.7434Z" fill="#999899"></path><path d="M278.484 57.9059C274.858 57.9059 274.133 55.7301 274.133 54.2797C274.133 53.5544 274.133 50.6534 278.484 50.6534C280.66 50.6534 283.561 50.6534 285.736 50.6534C294.439 49.9282 305.317 46.3024 305.317 34.6985C305.317 31.7975 304.592 22.3688 290.813 22.3688C285.011 22.3688 279.209 23.8192 269.782 26.7201C269.782 26.7201 263.98 28.8962 263.255 28.8962C261.079 28.8962 259.629 27.4457 259.629 25.27C259.629 22.369 262.53 21.6438 263.255 21.6438L277.034 18.0176C282.11 16.5671 287.187 15.8415 291.538 15.8415C306.042 15.8415 313.294 25.9954 313.294 35.4235C313.294 47.0274 306.042 55.0049 292.263 57.9059C285.736 57.9059 279.209 57.9059 278.484 57.9059ZM279.935 54.2797C279.209 54.2797 277.759 54.2797 277.759 54.2797H278.484C278.484 54.2797 279.209 54.2797 279.935 54.2797ZM308.218 40.4999C306.767 44.8513 303.867 47.7525 299.515 50.6534C303.867 47.7525 307.493 44.8513 308.218 40.4999ZM268.331 23.0939L263.98 23.8199C263.98 23.8199 263.255 23.8197 263.255 24.5449C263.255 24.5449 266.881 23.0939 268.331 23.0939Z" fill="#999899"></path><path d="M345.935 142.755C343.759 142.755 342.309 141.305 342.309 139.129V135.503C342.309 133.327 343.759 131.877 345.935 131.877C348.11 131.877 349.561 133.327 349.561 135.503V139.129C349.561 141.305 348.11 142.755 345.935 142.755Z" fill="black"></path><path d="M345.935 194.971C343.759 194.971 342.309 193.521 342.309 191.345V184.818C342.309 182.643 343.759 181.192 345.935 181.192C348.11 181.192 349.561 182.643 349.561 184.818V191.345C349.561 193.521 348.11 194.971 345.935 194.971ZM345.935 168.864C343.759 168.864 342.309 167.414 342.309 165.238V158.711C342.309 156.535 343.759 155.085 345.935 155.085C348.11 155.085 349.561 156.535 349.561 158.711V165.238C349.561 167.414 348.11 168.864 345.935 168.864Z" fill="black"></path><path d="M345.935 218.178C343.759 218.178 342.309 216.728 342.309 214.552V210.926C342.309 208.751 343.759 207.3 345.935 207.3C348.11 207.3 349.561 208.751 349.561 210.926V214.552C349.561 216.728 348.11 218.178 345.935 218.178Z" fill="black"></path><path d="M327.803 208.751L345.933 240.66L364.063 208.751H327.803Z" fill="black"></path><path d="M229.2 40.1766C229.2 50.1025 224.64 54.6837 221.6 56.2107C217.8 58.5013 214 60.7919 212.48 60.7919C211.72 61.5554 211.72 60.0284 211.72 59.2648C211.72 58.5013 212.48 58.5013 215.52 56.2107C218.56 54.6837 225.4 51.6295 226.16 41.7036C223.12 47.0483 217.8 47.0483 217.04 47.0483C210.96 47.0483 205.64 42.4672 205.64 35.5954C205.64 28.7236 210.96 23.3789 217.04 23.3789C219.32 23.3789 223.12 24.1424 226.16 27.9601V18.0342L206.4 18.7977C204.88 18.7977 198.04 18.7977 197.28 18.7977C196.52 18.7977 195 18.7977 195 17.2706C195 15.7436 196.52 15.7436 197.28 15.7436H206.4L226.92 14.98V6.58119C226.92 5.05412 228.44 5.05412 228.44 5.05412C229.2 5.05412 229.96 5.81766 229.96 6.58119V14.2165H237.56C239.08 14.2165 245.16 14.2165 245.92 14.2165C247.44 14.2165 247.44 14.98 247.44 15.7436C247.44 17.2706 245.92 17.2706 245.16 17.2706H236.8H229.2V40.1766ZM217.04 27.1965C212.48 27.1965 208.68 30.2507 208.68 35.5954C208.68 41.7036 212.48 43.9942 217.04 43.9942C222.36 43.9942 225.4 39.413 225.4 35.5954C225.4 32.5412 223.12 27.1965 217.04 27.1965ZM239.08 7.34472C239.84 8.10825 242.12 11.1624 242.12 11.9259C242.12 12.6894 241.36 13.453 239.84 13.453C239.08 13.453 238.32 13.453 237.56 11.1624C236.04 9.63531 234.52 7.34472 233 5.05412C233 4.29059 232.24 4.29059 232.24 3.52706C232.24 2.76353 233 2 234.52 2C236.04 2 237.56 5.05413 239.08 7.34472ZM248.2 6.58119C249.72 7.34472 252 11.1624 252 11.9259C252 12.6894 251.24 13.453 249.72 13.453C248.96 13.453 248.96 12.6894 246.68 9.63531C245.92 8.87178 243.64 5.05413 242.88 4.29059V3.52706C242.88 2.76353 243.64 2 245.16 2C245.16 2 247.44 4.29059 248.2 6.58119Z" fill="black" stroke="black" stroke-width="3.5" stroke-miterlimit="10" stroke-linecap="round" stroke-linejoin="round"></path><path d="M229.2 342.177C229.2 352.102 224.64 356.684 221.6 358.211C217.8 360.501 214 362.792 212.48 362.792C211.72 363.555 211.72 362.028 211.72 361.265C211.72 360.501 212.48 360.501 215.52 358.211C218.56 356.684 225.4 353.63 226.16 343.704C223.12 349.048 217.8 349.048 217.04 349.048C210.96 349.048 205.64 344.467 205.64 337.595C205.64 330.724 210.96 325.379 217.04 325.379C219.32 325.379 223.12 326.142 226.16 329.96V320.034L206.4 320.798C204.88 320.798 198.04 320.798 197.28 320.798C196.52 320.798 195 320.798 195 319.271C195 317.744 196.52 317.744 197.28 317.744H206.4L226.92 316.98V308.581C226.92 307.054 228.44 307.054 228.44 307.054C229.2 307.054 229.96 307.818 229.96 308.581V316.216H237.56C239.08 316.216 245.16 316.216 245.92 316.216C247.44 316.216 247.44 316.98 247.44 317.744C247.44 319.271 245.92 319.271 245.16 319.271H236.8H229.2V342.177ZM217.04 329.197C212.48 329.197 208.68 332.251 208.68 337.595C208.68 343.704 212.48 345.994 217.04 345.994C222.36 345.994 225.4 341.413 225.4 337.595C225.4 334.541 223.12 329.197 217.04 329.197ZM239.08 309.345C239.84 310.108 242.12 313.162 242.12 313.926C242.12 314.689 241.36 315.453 239.84 315.453C239.08 315.453 238.32 315.453 237.56 313.162C236.04 311.635 234.52 309.345 233 307.054C233 306.291 232.24 306.291 232.24 305.527C232.24 304.764 233 304 234.52 304C236.04 304 237.56 307.054 239.08 309.345ZM248.2 308.581C249.72 309.345 252 313.162 252 313.926C252 314.689 251.24 315.453 249.72 315.453C248.96 315.453 248.96 314.689 246.68 311.635C245.92 310.872 243.64 307.054 242.88 306.291V305.527C242.88 304.764 243.64 304 245.16 304C245.16 304 247.44 306.291 248.2 308.581Z" fill="black" stroke="black" stroke-width="3.5" stroke-miterlimit="10" stroke-linecap="round" stroke-linejoin="round"></path></svg> 