<?xml version="1.0" encoding="UTF-8"?> <svg xmlns="http://www.w3.org/2000/svg" width="301" height="148" viewBox="0 0 301 148" fill="none"><path d="M157.569 46.4808C156.734 46.4808 156.177 45.6457 156.177 45.0889C156.177 45.0889 156.177 44.5321 156.455 43.4185C156.734 42.5833 157.291 42.3049 158.126 42.3049C158.961 42.5833 159.239 43.1401 159.239 43.9753C158.961 44.5321 158.961 45.0889 158.961 45.0889C158.961 45.924 158.404 46.4808 157.569 46.4808Z" fill="black"></path><path d="M161.745 37.8508C161.467 37.8508 161.188 37.8509 160.91 37.5725C160.353 37.0158 160.353 36.1806 160.91 35.6238C161.467 34.7887 162.302 34.2319 163.137 33.6752C163.694 33.1184 164.529 33.3968 165.086 33.9536C165.642 34.5103 165.364 35.3455 164.807 35.9022C164.25 36.459 163.415 37.0158 162.859 37.5725C162.58 37.5725 162.023 37.8508 161.745 37.8508Z" fill="black"></path><path d="M221.32 49.2646C220.764 49.2646 220.207 48.9863 219.928 48.4295C219.65 47.5944 219.372 46.7593 218.815 45.9241C218.536 45.3673 218.815 44.5322 219.372 43.9754C219.928 43.697 220.764 43.9754 221.32 44.5322C221.877 45.3673 222.156 46.2025 222.434 47.0376C222.712 47.8728 222.434 48.4296 221.599 48.7079C221.599 49.2647 221.599 49.2646 221.32 49.2646ZM215.196 40.3565C214.917 40.3565 214.361 40.3564 214.361 40.0781C213.804 39.5213 212.969 38.9645 212.412 38.4078C211.855 37.851 211.577 37.0158 212.134 36.459C212.69 35.9023 213.525 35.624 214.082 36.1807C214.917 36.7375 215.474 37.5726 216.309 38.1294C216.866 38.6861 216.866 39.5213 216.309 40.0781C216.031 40.0781 215.753 40.3565 215.196 40.3565ZM206.009 34.232C205.731 34.232 205.731 34.232 205.452 34.232C204.617 33.9536 203.782 33.6753 202.947 33.3969C202.111 33.1185 201.833 32.2834 202.111 31.7266C202.39 30.8914 203.225 30.613 203.782 30.8914C204.617 31.1698 205.731 31.4482 206.566 32.005C207.401 32.2834 207.679 33.1185 207.401 33.9536C207.123 33.9536 206.566 34.232 206.009 34.232ZM170.932 32.005C170.375 32.005 169.818 31.7266 169.54 31.1698C169.261 30.3346 169.818 29.7779 170.375 29.4995C171.21 29.2211 172.045 28.9428 173.159 28.6644C173.994 28.386 174.551 28.9427 174.829 29.7779C175.108 30.613 174.551 31.1698 173.716 31.4482C172.881 31.7266 172.045 32.0049 171.21 32.2833C171.21 32.0049 171.21 32.005 170.932 32.005ZM195.709 31.1698C195.43 31.1698 195.43 31.1698 195.709 31.1698C195.152 31.1698 194.595 30.8914 194.317 30.8914L192.925 30.6131C192.089 30.6131 191.533 29.7779 191.811 28.9428C191.811 28.1076 192.646 27.5509 193.481 27.8293L194.873 28.1076C195.43 28.1076 195.709 28.1076 196.265 28.386C197.1 28.386 197.657 29.2211 197.379 30.0563C196.822 30.613 196.265 31.1698 195.709 31.1698ZM181.789 30.0563C180.954 30.0563 180.397 29.4995 180.397 28.6644C180.397 27.8292 180.954 27.2725 181.789 27.2725C182.346 27.2725 183.181 27.2725 183.738 27.2725H184.573C185.408 27.2725 185.965 27.8292 185.965 28.6644C185.965 29.4995 185.408 30.0563 184.573 30.0563H183.738C183.181 30.0563 182.346 30.0563 181.789 30.0563Z" fill="black"></path><path d="M223.269 58.7295C222.434 58.7295 221.877 58.1727 221.877 57.3376C221.877 56.7808 221.877 56.5025 221.877 55.9457C221.877 55.1106 222.434 54.5539 222.991 54.2755C223.826 54.2755 224.383 54.8323 224.661 55.389C224.661 55.9458 224.661 56.2241 224.661 56.7809C224.94 58.1728 224.383 58.7295 223.269 58.7295C223.548 58.7295 223.548 58.7295 223.269 58.7295Z" fill="black"></path><path d="M214.082 53.9971L222.156 70.4216L232.456 55.389L214.082 53.9971Z" fill="black"></path><path d="M24.7769 32.5617V22.8183C24.7769 21.9832 25.3336 21.7048 25.8904 21.7048C26.4472 21.7048 27.004 21.9832 27.004 22.8183V45.9241C27.004 46.7592 26.4472 47.0376 25.8904 47.0376C25.3336 47.0376 24.7769 46.7592 24.7769 45.9241V34.232H11.4141V45.6457C11.4141 46.4808 10.8574 46.7592 10.3006 46.7592C9.74379 46.7592 9.18701 46.4808 9.18701 45.6457V22.5399C9.18701 21.7048 9.74379 21.4264 10.3006 21.4264C10.8574 21.4264 11.4141 21.7048 11.4141 22.5399V32.2833H24.7769V32.5617Z" fill="black"></path><path d="M25.6122 47.5944C24.4986 47.5944 23.6634 46.7593 23.6634 45.6457V35.3455H12.5278V45.6457C12.5278 47.0376 11.4143 47.5944 10.5791 47.5944C9.46554 47.5944 8.63037 46.7593 8.63037 45.6457V22.5399C8.63037 21.148 9.74393 20.5913 10.5791 20.5913C11.6927 20.5913 12.5278 21.4264 12.5278 22.5399V31.1698H23.6634V22.5399C23.6634 21.148 24.777 20.5913 25.6122 20.5913C26.7257 20.5913 27.5609 21.4264 27.5609 22.5399V45.6457C27.8393 47.0376 26.7257 47.5944 25.6122 47.5944Z" fill="black"></path><path d="M46.7697 21.7048C53.7295 21.7048 59.2973 26.9941 59.2973 34.232C59.2973 41.4699 54.0079 46.7592 46.7697 46.7592C39.81 46.7592 34.2422 41.4699 34.2422 34.232C34.2422 26.9941 39.81 21.7048 46.7697 21.7048ZM46.7697 44.8105C52.6159 44.8105 57.3486 40.078 57.3486 34.232C57.3486 28.386 52.8943 23.6535 46.7697 23.6535C40.9235 23.6535 36.1909 28.386 36.1909 34.232C36.1909 40.078 40.6452 44.8105 46.7697 44.8105Z" fill="black"></path><path d="M46.7697 47.5944C38.9748 47.5944 33.407 41.7483 33.407 33.9536C33.407 26.1589 39.2532 20.3129 46.7697 20.3129C54.5646 20.3129 60.1324 26.1589 60.1324 33.9536C60.1324 41.7483 54.2862 47.5944 46.7697 47.5944ZM46.7697 24.4886C41.4803 24.4886 37.3044 28.6644 37.3044 34.232C37.3044 39.7997 41.4803 43.9754 46.7697 43.9754C52.0591 43.9754 56.235 39.7997 56.235 34.232C56.235 28.6644 52.0591 24.4886 46.7697 24.4886Z" fill="black"></path><path d="M86.0225 23.9318C86.5792 22.5399 86.8576 21.9832 88.2496 21.9832C89.9199 21.9832 89.9199 23.375 90.1983 24.2102L93.2606 45.6457C93.2606 46.2024 93.2606 46.2024 93.2606 46.2024C93.2606 46.7592 92.9822 47.0376 92.147 47.0376C91.3119 47.0376 91.3119 46.4808 91.0335 45.9241L87.9712 23.9318L80.733 45.6457C80.4547 46.2024 80.1763 47.0376 79.0627 47.0376C77.6708 47.0376 77.6708 46.4808 77.114 45.6457L69.8758 23.9318L66.8135 45.9241C66.8135 46.4808 66.5352 47.0376 65.7 47.0376C65.1432 47.0376 64.5864 46.4808 64.5864 46.2024C64.5864 46.2024 64.5864 45.9241 64.5864 45.6457L67.6487 24.2102C67.6487 23.375 67.9271 21.9832 69.5974 21.9832C70.9894 21.9832 71.2678 22.5399 71.8246 23.9318L78.7843 45.0889L86.0225 23.9318Z" fill="black"></path><path d="M79.0628 48.1511L78.7845 47.5943C77.1141 47.5943 76.5573 46.4808 76.2789 45.3673L70.4328 27.8292L67.9272 45.6457C67.6489 47.0376 67.0921 47.5943 65.9785 47.5943C64.5866 47.5943 64.0298 46.7592 64.0298 45.6457C64.0298 45.3673 64.0298 45.3673 64.0298 44.8105L67.0921 23.3751C67.0921 22.5399 67.6489 20.3129 70.1544 20.3129C72.1031 20.3129 72.6599 21.4264 73.2167 23.0967L79.3412 41.1916L85.4658 23.0967C86.0226 21.4264 86.5794 20.3129 88.5281 20.3129C91.0336 20.3129 91.312 22.5399 91.5904 23.3751L94.6527 44.8105C94.6527 45.3673 94.6527 45.3673 94.6527 45.6457C94.6527 46.4808 93.8175 47.5943 92.704 47.5943C91.5904 47.5943 90.7552 47.0376 90.7552 45.6457L88.2497 28.1075L82.4035 45.6457C82.1251 46.2025 81.8468 47.8727 79.898 47.8727L79.0628 48.1511ZM87.4146 23.0967H89.0849C88.8065 22.5399 88.8065 22.5399 88.2497 22.5399C87.6929 22.8183 87.6929 22.8183 87.4146 23.0967ZM69.876 22.8183C69.5976 22.8183 69.3192 22.8183 69.0408 23.3751H70.7111C70.7111 22.8183 70.4328 22.8183 69.876 22.8183Z" fill="black"></path><path d="M112.469 32.84C113.305 32.84 113.305 33.3967 113.305 33.6751C113.305 34.2319 113.026 34.5103 112.469 34.5103H102.169V43.1401C102.169 44.2537 102.447 44.2536 103.283 44.2536H113.861C114.697 44.2536 114.697 44.8104 114.697 45.0888C114.697 45.6455 114.418 45.924 113.861 45.924H102.726C99.9419 45.924 99.9419 43.9753 99.9419 42.8617V25.0454C99.9419 23.9318 99.9419 21.9832 102.726 21.9832H113.583C114.418 21.9832 114.418 22.5399 114.418 22.8183C114.418 23.375 114.14 23.6535 113.583 23.6535H103.283C102.447 23.6535 102.169 23.9318 102.169 24.767V32.2832H112.469V32.84Z" fill="black"></path><path d="M113.862 47.3159H102.726C101.056 47.3159 98.8286 46.4808 98.8286 43.1402V25.3237C98.8286 22.5399 100.221 21.1479 102.726 21.1479H113.583C114.975 21.1479 115.532 22.2615 115.532 23.0967C115.532 24.2102 114.697 25.0454 113.583 25.0454H103.283C103.283 25.0454 103.283 25.0454 103.004 25.0454C103.004 25.0454 103.004 25.0453 103.004 25.3237V32.0049H112.47C113.583 32.0049 114.418 32.84 114.418 33.9535C114.418 35.0671 113.583 35.9022 112.47 35.9022H103.004V43.4185C103.004 43.4185 103.004 43.4185 103.004 43.6969C103.004 43.6969 103.004 43.6969 103.283 43.6969H113.862C115.254 43.6969 115.81 44.5321 115.81 45.6456C115.81 46.4808 114.975 47.3159 113.862 47.3159ZM101.334 44.5321C101.334 44.5321 101.334 44.8105 101.334 44.5321C101.334 44.8105 101.334 44.5321 101.334 44.5321ZM101.613 23.6535C101.334 23.6535 101.334 23.9318 101.334 24.2102C101.334 23.9318 101.334 23.6535 101.613 23.6535Z" fill="black"></path><path d="M192.089 116.633V106.89C192.089 106.055 192.646 105.776 193.203 105.776C193.76 105.776 194.316 106.055 194.316 106.89V129.995C194.316 130.831 193.76 131.109 193.203 131.109C192.646 131.109 192.089 130.831 192.089 129.995V118.582H178.727V129.995C178.727 130.831 178.17 131.109 177.613 131.109C177.056 131.109 176.5 130.831 176.5 129.995V106.89C176.5 106.055 177.056 105.776 177.613 105.776C178.17 105.776 178.727 106.055 178.727 106.89V116.633H192.089Z" fill="black"></path><path d="M193.203 131.944C192.089 131.944 191.254 131.109 191.254 129.995V119.695H180.118V129.995C180.118 131.387 179.005 131.944 178.17 131.944C177.056 131.944 176.221 131.109 176.221 129.995V106.89C176.221 105.498 177.335 104.941 178.17 104.941C179.283 104.941 180.118 105.776 180.118 106.89V115.52H191.254V106.89C191.254 105.498 192.368 104.941 193.203 104.941C194.316 104.941 195.151 105.776 195.151 106.89V129.995C195.151 131.387 194.316 131.944 193.203 131.944Z" fill="black"></path><path d="M214.082 106.055C221.042 106.055 226.61 111.344 226.61 118.582C226.61 125.82 221.32 131.109 214.082 131.109C207.122 131.109 201.555 125.82 201.555 118.582C201.833 111.065 207.122 106.055 214.082 106.055ZM214.082 129.16C219.928 129.16 224.661 124.428 224.661 118.582C224.661 112.736 220.207 108.003 214.082 108.003C208.236 108.003 203.503 112.736 203.503 118.582C203.503 124.428 208.236 129.16 214.082 129.16Z" fill="black"></path><path d="M214.082 131.944C206.287 131.944 200.719 126.098 200.719 118.303C200.719 110.509 206.566 104.663 214.082 104.663C221.599 104.663 227.445 110.509 227.445 118.303C227.445 126.098 221.877 131.944 214.082 131.944ZM214.082 108.838C208.793 108.838 204.617 113.014 204.617 118.582C204.617 124.149 208.793 128.325 214.082 128.325C219.372 128.325 223.547 124.149 223.547 118.582C223.547 113.014 219.372 108.838 214.082 108.838Z" fill="black"></path><path d="M253.613 108.003C254.17 106.333 254.448 106.055 255.84 106.055C257.51 106.055 257.51 107.447 257.789 108.282L260.851 129.717C260.851 130.274 260.851 130.274 260.851 130.274C260.851 130.831 260.573 131.109 259.738 131.109C258.902 131.109 258.902 130.552 258.624 129.995L255.562 108.003L248.324 129.717C248.045 130.274 247.767 131.109 246.653 131.109C245.54 131.109 245.261 130.552 244.705 129.717L237.466 108.003L234.404 129.995C234.404 130.552 234.126 131.109 233.291 131.109C232.734 131.109 232.177 130.552 232.177 130.274C232.177 130.274 232.177 129.995 232.177 129.717L235.239 108.282C235.239 107.447 235.518 106.055 237.188 106.055C238.58 106.055 238.858 106.611 239.415 108.003L246.375 129.16L253.613 108.003Z" fill="black"></path><path d="M246.653 132.501L246.375 131.944C244.705 131.944 244.148 130.831 243.87 129.717L238.023 112.179L235.518 129.995C235.239 131.387 234.683 131.944 233.569 131.944C232.177 131.944 231.62 131.109 231.62 129.995C231.62 129.717 231.62 129.717 231.62 129.16L234.683 107.725C234.683 106.89 235.239 104.663 237.745 104.663C239.694 104.663 240.25 105.776 240.807 107.446L246.932 125.541L253.056 107.446C253.613 105.776 254.17 104.663 256.119 104.663C258.624 104.663 258.903 106.89 259.181 107.725L262.243 129.16C262.243 129.717 262.243 129.717 262.243 129.995C262.243 130.831 261.408 131.944 260.295 131.944C259.181 131.944 258.346 131.387 258.346 129.995L255.84 112.457L249.994 129.995C249.716 130.552 249.437 132.223 247.489 132.223L246.653 132.501ZM255.005 107.446H256.675C256.397 106.89 256.397 106.89 255.84 106.89C255.284 107.168 255.005 107.168 255.005 107.446ZM237.467 107.168C237.188 107.168 236.91 107.168 236.631 107.725H238.302C238.023 107.168 238.023 107.168 237.467 107.168Z" fill="black"></path><path d="M279.782 117.19C280.617 117.19 280.617 117.747 280.617 118.025C280.617 118.582 280.339 118.86 279.782 118.86H269.482V127.49C269.482 128.604 269.76 128.604 270.595 128.604H281.174C282.009 128.604 282.009 129.16 282.009 129.439C282.009 129.996 281.731 130.274 281.174 130.274H270.038C267.254 130.274 267.254 128.325 267.254 127.212V109.395C267.254 108.282 267.254 106.333 270.038 106.333H280.617C281.452 106.333 281.452 106.89 281.452 107.168C281.452 107.725 281.174 108.003 280.617 108.003H270.317C269.482 108.003 269.203 108.282 269.203 109.117V116.633H279.782V117.19Z" fill="black"></path><path d="M281.452 131.387H270.317C268.646 131.387 266.419 130.552 266.419 127.212V109.395C266.419 106.611 267.811 105.219 270.317 105.219H280.896C282.287 105.219 282.844 106.333 282.844 107.168C282.844 108.282 282.009 109.117 280.896 109.117H270.595C270.595 109.117 270.595 109.117 270.317 109.117C270.317 109.117 270.317 109.117 270.317 109.395V116.076H279.782C280.896 116.076 281.731 116.912 281.731 118.025C281.731 119.139 280.896 119.974 279.782 119.974H270.317V127.49C270.317 127.49 270.317 127.49 270.317 127.768C270.317 127.768 270.317 127.768 270.595 127.768H281.174C282.566 127.768 283.123 128.603 283.123 129.717C283.123 130.552 282.566 131.387 281.452 131.387ZM268.925 107.725C268.646 107.725 268.646 108.003 268.646 108.282C268.646 108.003 268.925 108.003 268.925 107.725Z" fill="black"></path><path d="M136.133 0.269409H0V5.00183H136.133V0.269409Z" fill="black"></path><path d="M300.661 147.255H154.506V88.5165H300.661V147.255ZM160.074 141.687H295.093V94.0841H160.074V141.687Z" fill="black"></path><path d="M136.133 2.7749H130.565V59.8433H136.133V2.7749Z" fill="black"></path></svg> 