<?xml version="1.0" encoding="UTF-8"?> <svg xmlns="http://www.w3.org/2000/svg" width="578" height="395" viewBox="0 0 578 395" fill="none"><path d="M287.891 151.006C285.508 151.006 283.92 149.416 283.92 147.032V143.058C283.92 140.674 285.508 139.084 287.891 139.084C290.274 139.084 291.862 140.674 291.862 143.058V147.032C291.862 149.416 290.274 151.006 287.891 151.006Z" fill="black"></path><path d="M287.891 207.435C285.508 207.435 283.92 205.845 283.92 203.461V196.308C283.92 193.924 285.508 192.334 287.891 192.334C290.274 192.334 291.862 193.924 291.862 196.308V203.461C291.862 205.845 290.274 207.435 287.891 207.435ZM287.891 179.618C285.508 179.618 283.92 178.028 283.92 175.644V168.491C283.92 166.107 285.508 164.517 287.891 164.517C290.274 164.517 291.862 166.107 291.862 168.491V175.644C291.862 177.233 290.274 179.618 287.891 179.618Z" fill="black"></path><path d="M287.891 232.867C285.508 232.867 283.92 231.278 283.92 228.893V224.919C283.92 222.535 285.508 220.946 287.891 220.946C290.274 220.946 291.862 222.535 291.862 224.919V228.893C291.862 231.278 290.274 232.867 287.891 232.867Z" fill="black"></path><path d="M268.035 223.33L287.891 257.505L307.748 223.33H268.035Z" fill="black"></path><path d="M4.35605 360.03C3.5618 360.03 2.76758 360.03 2.76758 358.441C2.76758 356.851 4.35605 356.851 4.35605 356.851H55.1879C55.9821 356.851 56.7764 356.851 56.7764 358.441C56.7764 360.03 55.1879 360.03 55.1879 360.03H33.7433C33.7433 367.978 32.1547 376.72 26.595 383.078C21.8295 388.642 14.6813 391.026 13.8871 391.026C12.2986 391.026 12.2985 389.437 12.2985 388.642C12.2985 387.847 12.2985 387.847 14.6813 386.257C28.9777 380.694 29.772 368.773 29.772 360.03H4.35605V360.03ZM48.0396 339.366C48.8339 339.366 49.6282 339.366 49.6282 340.956C49.6282 342.545 48.0396 342.545 48.0396 342.545H12.2985C11.5043 342.545 10.71 342.545 10.71 340.956C10.71 339.366 11.5043 339.366 12.2985 339.366H48.0396Z" fill="black"></path><path d="M13.0869 392.616C10.7042 392.616 9.11566 390.231 9.11566 388.642C9.11566 386.258 10.7042 385.463 13.0869 384.668C25.0006 379.899 27.3833 371.157 27.3833 361.62H4.35014C1.9674 361.62 0.378906 360.03 0.378906 357.646C0.378906 356.056 1.17315 353.672 4.35014 353.672H55.182C57.5647 353.672 59.1532 355.262 59.1532 357.646C59.1532 360.03 57.5647 361.62 55.182 361.62H35.3258C35.3258 369.567 33.7373 377.515 27.3833 383.873C22.6179 389.437 14.6754 392.616 13.0869 392.616ZM29.7661 357.646C30.5604 358.441 30.5604 358.441 29.7661 357.646C30.5604 358.441 31.3546 359.235 31.3546 359.235C31.3546 360.03 31.3546 360.825 31.3546 361.62C31.3546 360.825 31.3546 360.03 31.3546 358.441C31.3546 357.646 32.1488 356.851 32.943 356.851L29.7661 357.646ZM48.0337 344.93H12.2926C9.11561 344.93 8.32137 342.545 8.32137 340.956C8.32137 338.571 9.90986 336.982 12.2926 336.982H48.0337C51.2107 336.982 52.0049 338.571 52.0049 340.956C51.2107 343.34 50.4164 344.93 48.0337 344.93Z" fill="black"></path><path d="M97.2787 338.571C96.4845 336.187 98.8672 336.187 98.8672 336.187C99.6614 336.187 100.456 336.982 100.456 337.777L102.044 348.109L120.312 344.93C121.106 344.93 122.695 344.93 122.695 346.519C122.695 347.314 121.9 348.109 121.106 348.109L102.838 351.288L105.221 364.004L126.666 360.825C129.049 360.825 129.049 362.414 129.049 362.414C129.049 364.004 128.254 364.004 127.46 364.004L106.015 367.183L109.987 387.052C110.781 389.437 108.398 389.437 107.604 389.437C106.015 389.437 106.015 388.642 106.015 387.847L102.044 367.183L77.4226 371.157C75.8341 371.157 75.834 369.567 75.834 369.567C75.834 367.978 76.6283 367.978 77.4226 367.978L102.044 364.004L99.6614 351.288L81.3938 354.467C79.0111 354.467 79.011 352.877 79.011 352.877C79.011 351.288 79.8053 351.288 80.5995 351.288L98.8672 348.109L97.2787 338.571Z" fill="black"></path><path d="M109.197 392.616C107.608 392.616 106.02 391.821 105.226 389.437L102.049 371.157L79.0155 375.131C77.427 375.131 76.6327 375.131 75.8385 374.336C75.0442 373.541 74.25 372.746 74.25 371.157C74.25 369.567 75.0443 367.978 77.4271 367.978L100.46 364.004L98.8717 355.261L82.1925 357.646C80.604 357.646 79.8098 357.646 79.0155 356.851C78.2213 356.056 77.4271 355.261 77.4271 353.672C77.4271 351.288 79.0155 350.493 80.604 349.698L97.2833 347.314L95.6947 339.366C95.6947 337.777 95.6947 336.982 96.489 336.187C97.2832 334.597 99.6659 334.597 99.6659 334.597C100.46 334.597 102.843 334.597 103.637 337.777L105.226 346.519L121.111 344.135C121.905 344.135 123.493 344.135 124.288 344.929C125.082 345.724 125.876 346.519 125.876 348.109C125.876 350.493 124.288 351.288 122.699 352.082L106.814 354.467L108.403 363.209L128.259 360.03C129.847 360.03 130.642 360.03 131.436 360.825C132.23 361.62 133.024 362.414 133.024 364.004C133.024 365.593 131.436 367.183 129.847 367.978L110.785 371.157L113.962 389.437C113.962 391.026 113.962 391.821 113.168 392.616C111.58 392.616 109.991 392.616 109.197 392.616ZM103.637 367.183C104.431 367.183 104.431 367.978 105.226 367.978V367.183C105.226 367.183 105.226 367.183 106.02 366.388C105.226 366.388 105.226 365.593 104.431 365.593C104.431 365.593 104.431 366.388 103.637 367.183C103.637 367.183 104.431 366.388 103.637 367.183ZM100.46 350.493C101.254 350.493 101.254 351.288 102.049 351.288V350.493C102.049 350.493 102.049 350.493 102.843 349.698C102.049 349.698 102.049 348.903 101.255 348.903C101.255 349.698 101.254 349.698 100.46 350.493C101.254 350.493 101.254 350.493 100.46 350.493Z" fill="black"></path><path d="M156.857 344.135C156.063 344.135 155.269 344.135 155.269 342.545C155.269 340.956 156.857 340.956 156.857 340.956H188.627C191.01 340.956 194.187 340.956 194.187 344.93C194.187 348.903 188.627 359.235 183.862 365.594C187.039 367.978 194.981 375.131 202.924 383.873C203.718 385.463 204.512 385.463 204.512 386.257C204.512 387.052 203.718 388.642 202.129 388.642C201.335 388.642 200.541 387.847 199.747 387.052C191.804 377.515 185.45 371.952 181.479 368.773C169.565 383.078 154.475 389.437 153.68 389.437C152.092 389.437 152.092 388.642 152.092 387.052C152.092 386.258 152.092 386.258 154.475 384.668C183.067 370.362 190.216 346.519 190.216 345.724C190.216 344.93 189.421 344.135 187.833 344.135H156.857V344.135Z" fill="black"></path><path d="M153.674 391.026C151.292 391.026 149.703 389.437 149.703 387.052C149.703 384.668 151.292 383.873 152.88 383.079C178.296 371.157 186.238 350.493 187.033 345.724H156.851C153.674 345.724 152.88 344.135 152.88 341.751C152.88 340.956 152.88 337.777 156.851 337.777H188.621C191.004 337.777 196.564 337.777 196.564 344.135C196.564 348.903 191.004 358.441 187.033 364.799C191.004 367.978 198.152 374.336 204.506 382.284C205.301 383.873 206.095 384.668 206.095 385.463C206.095 387.847 204.506 389.437 202.123 389.437C199.741 389.437 198.947 387.847 198.152 387.052C191.798 379.105 186.239 373.541 182.267 370.362C169.559 385.463 155.263 391.026 153.674 391.026ZM197.358 381.489C198.152 383.079 199.741 383.873 200.535 385.463L201.329 386.258L200.535 385.463C199.741 383.873 198.152 382.284 197.358 381.489ZM181.473 365.594C181.473 366.388 180.679 366.388 180.679 367.183C180.679 367.183 180.679 367.183 181.473 367.183H182.267C181.473 366.388 181.473 365.594 181.473 365.594ZM189.415 342.545C190.21 342.545 191.798 344.135 191.798 345.724C191.798 345.724 191.004 348.109 189.415 352.083C191.004 348.903 191.798 346.519 191.798 344.93C191.798 343.34 191.004 342.545 189.415 342.545Z" fill="black"></path><path d="M244.221 390.231C244.221 391.026 244.221 391.821 242.633 391.821C241.044 391.821 240.25 391.026 240.25 390.231V337.777C240.25 336.982 240.25 336.187 241.838 336.187C243.427 336.187 244.221 336.982 244.221 337.777V354.467C258.518 360.825 264.872 365.594 271.226 369.567C272.814 371.157 273.608 371.157 273.608 371.952C273.608 372.746 272.814 374.336 272.02 374.336C271.226 374.336 271.226 374.336 268.049 371.952C260.106 366.388 251.369 361.62 245.015 358.441V390.231H244.221Z" fill="black"></path><path d="M241.833 393.41C240.244 393.41 237.861 393.41 237.861 389.437V336.982C237.861 334.598 239.45 333.008 241.833 333.008C244.215 333.008 245.804 334.598 245.804 336.982V352.877C258.512 358.441 265.66 363.209 271.22 367.183L272.014 367.978C273.603 368.773 275.191 370.362 275.191 371.952C275.191 374.336 273.603 375.926 271.22 375.926C269.631 375.926 268.837 375.131 266.454 373.541C259.306 367.978 251.364 364.004 246.598 361.62V389.437C245.804 392.616 244.215 393.41 241.833 393.41ZM241.833 389.437V358.441C241.833 357.646 241.833 356.851 242.627 356.851H243.421H242.627C241.833 356.851 241.038 356.056 241.038 355.262V338.571L241.833 389.437ZM264.866 367.978C265.66 368.773 267.249 369.567 268.043 370.362C269.631 371.952 270.426 372.746 271.22 372.746C271.22 372.746 270.426 371.952 269.631 371.952L268.837 371.157C268.043 370.362 266.454 368.773 264.866 367.978Z" fill="black"></path><path d="M314.108 351.288C315.696 347.314 316.49 343.34 316.49 339.366C316.49 336.982 316.49 336.187 318.873 336.187C319.667 336.187 321.256 336.982 321.256 337.777C321.256 338.571 320.462 343.34 318.873 350.493C319.667 350.493 320.462 350.493 322.05 350.493C335.552 350.493 336.347 358.441 336.347 366.388C336.347 386.257 330.787 389.437 322.844 389.437C316.49 389.437 316.49 387.847 316.49 387.052C316.49 386.257 317.285 385.463 318.079 385.463H319.667C321.256 385.463 322.05 385.463 322.844 385.463C328.404 385.463 332.375 383.873 332.375 365.593C332.375 358.441 331.581 352.877 322.05 352.877C320.462 352.877 318.873 352.877 318.079 352.877C314.108 370.362 309.342 379.899 305.371 386.257C304.577 387.847 303.782 388.642 302.988 388.642C302.988 388.642 300.605 388.642 300.605 387.052C300.605 386.257 300.605 386.257 302.194 383.873C306.959 375.925 310.931 364.799 314.108 353.672C311.725 353.672 300.605 356.056 299.811 356.056C299.017 356.056 298.223 355.261 298.223 354.467C298.223 352.877 299.017 352.877 301.4 352.877L314.108 351.288ZM344.289 353.672C349.054 360.825 350.643 367.978 350.643 369.567C350.643 371.157 349.849 371.157 348.26 371.157C346.672 371.157 346.672 370.362 346.672 367.978C345.083 360.825 341.112 353.672 335.552 348.109C333.17 345.724 333.17 345.724 333.17 344.93C333.17 344.135 333.964 343.34 334.758 343.34C337.141 344.93 341.906 350.493 344.289 353.672ZM349.849 346.519C349.849 347.314 349.055 348.109 347.466 348.109C346.672 348.109 346.672 348.109 343.495 344.135C342.701 343.34 340.318 340.956 338.729 339.366C337.935 338.571 337.935 338.571 337.935 337.777C337.935 336.982 338.729 336.187 339.524 336.187C343.495 336.187 349.849 345.724 349.849 346.519ZM357.791 340.956C357.791 341.75 356.997 342.545 355.408 342.545C354.614 342.545 354.614 342.545 351.437 338.571C350.643 337.777 348.26 335.392 346.672 333.803C345.877 333.008 345.877 333.008 345.877 332.213C345.877 331.418 346.672 330.624 347.466 330.624C350.643 331.418 357.791 340.161 357.791 340.956Z" fill="black"></path><path d="M321.26 391.821C318.878 391.821 312.524 391.821 312.524 387.052C312.524 384.668 314.112 383.078 315.701 383.078C316.495 383.078 317.289 383.078 318.083 383.078C318.878 383.078 320.466 383.078 321.26 383.078C325.232 383.078 329.203 383.078 329.203 365.594C329.203 358.441 328.409 355.262 321.26 355.262C320.466 355.262 319.672 355.262 318.878 355.262C315.701 368.773 311.729 379.105 306.17 387.847C305.375 389.437 304.581 391.026 302.198 391.026C300.61 391.026 298.227 390.231 298.227 387.052C298.227 385.463 298.227 385.463 299.816 383.078C303.787 375.926 307.758 366.388 310.935 356.056C309.347 356.056 306.964 356.851 305.375 356.851C299.816 357.646 299.816 357.646 299.816 357.646C297.433 357.646 296.639 356.056 296.639 353.672C296.639 350.493 299.021 350.493 302.198 349.698L314.112 348.109C314.906 344.93 315.701 341.75 315.701 337.777C315.701 336.187 316.495 333.008 319.672 333.008C322.055 333.008 323.643 334.598 323.643 336.982C323.643 337.777 322.849 342.545 322.055 347.314C338.734 347.314 338.734 358.441 338.734 365.594C336.351 384.668 332.38 391.821 321.26 391.821ZM314.112 352.877C314.906 352.877 314.906 352.877 314.112 352.877C314.906 353.672 314.906 353.672 314.112 352.877C314.906 353.672 314.906 353.672 314.112 352.877C314.906 352.877 315.701 352.082 316.495 352.082C316.495 352.082 316.495 352.082 316.495 351.288C315.701 352.082 314.906 352.877 314.112 352.877ZM318.083 337.777C318.083 337.777 318.083 338.571 318.083 337.777V337.777ZM348.265 373.541C345.088 373.541 345.088 371.157 344.294 368.773C342.705 361.62 339.528 355.262 333.968 349.698C331.586 347.314 330.791 346.519 330.791 345.724C330.791 344.135 332.38 342.545 334.763 342.545C338.734 342.545 344.294 351.288 345.088 352.877C349.853 360.03 351.442 367.978 351.442 369.567C352.236 371.952 350.647 373.541 348.265 373.541ZM348.265 350.493C346.676 350.493 345.882 349.698 343.499 346.519L342.705 345.724C341.911 344.93 339.528 342.545 338.734 340.956C337.94 340.161 337.145 339.366 337.145 338.571C337.145 336.982 338.734 334.598 341.117 334.598C344.294 334.598 352.236 344.93 352.236 346.519C352.236 348.109 349.853 350.493 348.265 350.493ZM355.413 344.93C353.825 344.93 353.03 344.135 349.853 340.161C349.059 339.366 346.676 336.982 345.882 335.392C345.088 334.598 345.088 333.803 345.088 333.008C345.088 330.624 346.676 329.034 349.059 329.034C352.236 329.034 360.178 338.571 360.178 340.956C359.384 343.34 357.796 344.93 355.413 344.93Z" fill="black"></path><path d="M370.489 352.082C372.077 352.082 376.843 355.262 378.431 356.851C380.814 358.441 380.814 358.441 380.814 359.235C380.814 360.03 380.02 361.62 379.226 361.62C378.431 361.62 378.431 361.62 376.049 360.03C374.46 358.441 373.666 358.441 370.489 356.056C368.9 355.262 368.9 355.262 368.9 353.672C368.9 352.877 369.695 352.082 370.489 352.082ZM383.991 369.567C383.991 371.157 378.431 382.284 374.46 389.437C372.872 391.821 372.077 392.616 371.283 392.616C370.489 392.616 368.9 391.821 368.9 390.231C368.9 389.437 368.9 389.437 369.695 388.642C375.254 380.694 377.637 375.131 380.02 368.773C380.814 367.183 380.814 367.183 381.608 367.183C382.403 367.978 383.991 367.978 383.991 369.567ZM373.666 335.392C375.254 335.392 381.608 340.161 382.403 340.161C384.785 341.75 384.785 342.545 384.785 342.545C384.785 343.34 383.991 344.93 383.197 344.93C382.403 344.93 382.403 344.93 380.02 343.34C377.637 341.75 376.843 340.956 373.666 339.366C372.872 339.366 372.872 338.571 372.872 337.777C372.077 336.187 372.872 335.392 373.666 335.392ZM395.905 365.594C395.905 379.105 392.728 384.668 390.345 387.847C388.757 390.231 385.58 393.41 383.991 393.41C383.197 393.41 382.403 392.616 382.403 391.821C382.403 391.026 383.197 391.026 383.197 390.231C391.139 384.668 391.934 376.72 392.728 366.388C392.728 365.593 392.728 364.004 394.316 364.004C395.905 363.209 395.905 364.799 395.905 365.594ZM387.962 343.34C387.168 343.34 386.374 343.34 386.374 341.75C386.374 340.161 387.962 340.161 387.962 340.161H404.642V336.187C404.642 335.392 404.642 334.598 406.23 334.598C407.819 334.598 407.818 335.392 407.818 336.187V340.161H425.292C426.086 340.161 426.88 340.161 426.88 341.75C426.88 343.34 425.292 343.34 425.292 343.34H403.053C400.67 348.903 398.288 352.877 396.699 355.262C403.847 355.262 412.584 354.467 418.938 353.672C417.35 352.082 417.349 352.082 413.378 348.903C412.584 348.109 412.584 348.109 412.584 347.314C412.584 346.519 413.378 345.724 414.172 345.724C414.967 345.724 417.349 348.109 418.144 348.903C419.732 350.493 426.086 357.646 426.086 359.235C426.086 360.03 425.292 360.825 424.498 360.825C423.703 360.825 423.704 360.03 422.909 360.03C421.321 357.646 421.321 357.646 420.526 356.056C414.967 356.851 391.934 357.646 387.168 357.646C386.374 357.646 385.58 357.646 385.58 356.056C385.58 355.262 385.58 355.262 386.374 354.467C386.374 354.467 387.168 354.467 391.934 354.467C393.522 351.288 396.699 346.519 398.288 341.75H387.962V343.34ZM407.024 390.231C407.024 391.026 407.024 391.821 405.436 391.821C403.847 391.821 403.847 390.231 403.847 390.231V365.594C403.847 364.799 403.847 364.004 405.436 364.004C407.024 364.004 407.024 364.799 407.024 365.594V390.231ZM418.144 387.847C418.144 389.437 418.938 389.437 420.526 389.437C422.909 389.437 423.703 389.437 423.703 383.873C423.703 379.899 423.703 379.899 425.292 379.899C426.086 379.899 426.88 379.899 426.88 381.489C426.88 383.873 426.88 389.437 425.292 391.026C423.703 392.616 419.732 392.616 418.144 392.616C414.967 391.821 414.967 389.437 414.967 387.847V365.594C414.967 364.799 414.967 364.004 416.555 364.004C418.144 364.004 418.144 364.799 418.144 365.594V387.847V387.847Z" fill="black"></path><path d="M384.79 395C382.407 395 380.819 393.41 380.819 391.026C380.819 389.437 382.407 387.847 382.407 387.847C388.761 383.078 390.349 375.925 390.349 365.593C390.349 361.62 392.732 361.62 394.321 361.62C395.115 361.62 398.292 361.62 398.292 365.593C398.292 380.694 394.321 385.463 391.938 388.642C391.938 389.437 387.967 395 384.79 395ZM420.531 394.205C419.737 394.205 418.148 394.205 418.148 394.205C414.971 393.41 412.588 391.026 412.588 387.052V364.799C412.588 361.62 414.177 360.825 416.56 360.825C418.148 360.825 420.531 361.62 420.531 364.799V387.052C421.325 387.052 422.119 387.052 422.119 387.052C422.119 387.052 422.119 384.668 422.119 383.873C422.119 379.899 422.119 377.515 426.091 377.515C428.473 377.515 430.062 379.105 430.062 381.489C430.062 381.489 430.062 390.231 428.473 392.616C426.091 394.205 422.914 394.205 420.531 394.205ZM371.288 394.205C369.699 394.205 367.316 392.616 367.316 390.231C367.316 388.642 368.111 387.847 368.111 387.847C373.67 380.694 376.053 374.336 378.436 368.773C379.23 367.183 380.024 365.593 382.407 365.593C383.996 365.593 386.378 367.183 386.378 369.567C386.378 371.952 380.819 383.873 376.053 390.231C373.67 393.41 372.876 394.205 371.288 394.205ZM371.288 389.437C371.288 390.231 371.288 390.231 371.288 389.437C371.288 390.231 371.288 390.231 371.288 389.437ZM405.44 393.41C403.852 393.41 401.469 392.616 401.469 389.437V365.593C401.469 362.414 403.057 361.62 405.44 361.62C407.823 361.62 409.411 362.414 409.411 365.593V390.231C408.617 392.616 407.029 393.41 405.44 393.41ZM425.296 364.004C423.708 364.004 422.914 362.414 422.119 362.414C421.325 361.62 420.531 360.825 420.531 360.03C413.383 360.825 392.732 361.62 387.967 361.62C384.79 361.62 383.995 359.235 383.995 357.646C383.995 356.056 384.79 355.261 385.584 354.467C386.378 354.467 386.378 354.467 391.144 353.672C392.732 351.288 394.321 348.109 395.909 344.93H387.173C386.378 344.93 385.584 344.929 384.79 344.135C383.996 344.929 383.201 345.724 381.613 345.724C380.024 345.724 380.024 345.724 376.847 343.34C374.465 341.75 373.67 340.956 370.493 339.366C369.699 339.366 368.111 337.777 368.905 335.392C368.905 333.803 370.493 332.213 372.876 332.213C375.259 332.213 382.407 336.982 382.407 336.982C383.201 337.777 383.201 337.777 383.995 338.571C384.79 337.777 385.584 336.982 387.173 336.982H402.263V334.597C402.263 331.418 403.852 330.624 406.234 330.624C407.029 330.624 410.206 330.624 410.206 334.597V336.982H425.296C427.679 336.982 429.267 338.571 429.267 340.956C429.267 342.545 428.473 344.93 425.296 344.93H417.354C418.148 345.724 418.942 346.519 420.531 348.109C422.914 350.493 429.267 357.646 429.267 360.03C429.267 362.414 427.679 364.004 425.296 364.004ZM395.115 356.851C395.115 356.851 394.321 356.851 395.115 356.851C394.321 356.851 394.321 356.851 395.115 356.851ZM421.325 355.261C421.325 355.261 420.531 355.261 421.325 355.261V355.261ZM404.646 345.724C403.057 348.903 401.469 351.288 400.675 353.672C405.44 353.672 410.206 353.672 414.971 352.877C414.177 352.082 413.383 351.288 412.588 350.493C411.794 349.698 411 348.903 411 348.109C411 347.314 411.794 346.519 411.794 345.724H404.646V345.724ZM406.234 341.75C407.029 341.75 406.234 340.956 406.234 341.75C406.234 340.956 406.234 341.75 406.234 341.75ZM379.23 363.209C377.642 363.209 377.642 363.209 375.259 360.825C373.67 359.235 372.876 359.235 370.493 357.646H369.699C368.111 356.851 367.316 356.056 367.316 353.672C367.316 352.082 368.905 349.698 371.288 349.698C372.876 349.698 376.053 351.288 380.024 354.467C382.407 356.056 383.201 356.851 383.201 358.441C383.201 360.825 381.613 363.209 379.23 363.209Z" fill="black"></path><path d="M457.082 365.594C454.7 369.567 451.523 375.131 449.14 379.899C448.346 380.694 448.346 381.489 447.551 381.489C446.757 381.489 445.963 380.694 445.963 379.899C445.963 379.105 445.963 379.105 447.551 375.926C450.728 370.362 454.7 364.799 457.877 359.235V352.877C454.7 352.877 449.934 353.672 448.346 353.672C446.757 353.672 446.757 352.877 446.757 352.082C446.757 350.493 447.551 350.493 449.14 350.493C452.317 350.493 455.494 350.493 457.877 349.698V340.161C457.877 338.571 457.877 336.982 459.465 336.982C461.054 336.982 461.054 338.571 461.054 338.571C461.054 340.161 460.259 356.056 460.259 359.235C462.642 356.851 471.379 344.93 480.91 344.93C485.675 344.93 491.235 347.314 491.235 354.467C491.235 356.056 490.441 361.62 489.647 367.183C488.852 372.746 488.058 377.515 488.058 379.899C488.058 381.489 488.058 383.873 491.235 383.873C493.618 383.873 496.001 382.284 496.001 381.489C496.795 380.694 497.589 380.694 497.589 380.694C498.383 380.694 499.177 381.489 499.177 382.284C499.177 383.873 494.412 387.052 490.441 387.052C484.087 387.052 484.087 380.694 484.087 379.899C484.087 377.515 484.881 372.746 485.675 367.183C486.47 361.62 487.264 356.851 487.264 354.467C487.264 348.903 482.498 348.109 480.116 348.109C473.762 348.109 466.613 354.467 459.465 363.209C459.465 371.157 459.465 379.899 459.465 387.847C459.465 390.231 459.465 391.026 457.877 391.026C456.288 391.026 456.288 390.231 456.288 387.847L457.082 365.594Z" fill="black"></path><path d="M458.665 393.41C457.871 393.41 456.282 393.411 456.282 392.616C455.488 391.821 455.488 390.231 455.488 388.642V373.541C453.899 375.926 452.311 379.105 450.723 381.489C449.928 382.284 449.134 383.873 447.545 383.873C445.957 383.873 443.574 382.284 443.574 379.899C443.574 378.31 444.368 377.515 445.957 375.131C449.134 370.362 452.311 364.799 455.488 360.03L456.282 359.235V355.262C453.105 355.262 449.928 356.056 448.34 356.056C445.957 356.056 444.369 354.467 444.369 352.083C444.369 348.109 447.545 348.109 449.134 348.109C451.517 348.109 453.899 348.109 456.282 347.314V339.366C456.282 337.777 456.282 333.803 460.253 333.803C461.842 333.803 464.225 334.598 464.225 337.777C464.225 338.571 464.225 343.34 464.225 348.903C464.225 350.493 464.225 352.083 464.225 352.877C468.99 348.109 475.344 342.545 482.492 342.545C488.846 342.545 495.2 346.519 495.2 354.467C495.2 356.056 494.406 360.03 494.406 364.799V367.183C493.612 371.952 492.818 377.515 492.818 379.105C492.818 381.489 493.612 381.489 494.406 381.489C495.2 381.489 496.789 381.489 498.377 379.899C499.172 379.105 499.966 378.31 501.554 378.31C503.143 378.31 505.526 379.899 505.526 382.284C505.526 385.463 499.172 389.437 494.406 389.437C488.846 389.437 485.669 386.258 485.669 379.899C485.669 378.31 486.464 375.131 486.464 371.157L487.258 367.183C488.052 360.825 488.846 356.056 488.846 355.262C488.846 351.288 484.875 350.493 483.287 350.493C478.521 350.493 472.167 355.262 465.019 364.799C465.019 372.747 465.019 380.694 465.019 388.642C461.842 389.437 461.842 393.41 458.665 393.41ZM457.076 364.004C457.076 364.004 457.871 364.004 457.076 364.004C457.871 364.004 457.871 364.004 458.665 364.799V364.004C458.665 363.209 458.665 363.209 459.459 362.415C460.253 361.62 460.253 361.62 461.048 360.825C461.048 360.825 460.253 360.825 460.253 360.03L459.459 361.62C457.871 362.415 457.076 363.209 457.076 364.004Z" fill="black"></path><path d="M528.546 343.34C527.752 343.34 526.958 343.34 526.958 341.75C526.958 340.161 528.546 340.161 529.34 340.161C534.9 340.161 542.843 340.161 548.402 339.366C549.991 339.366 556.345 338.571 557.933 338.571C560.316 338.571 561.11 340.161 561.11 340.956C561.11 341.75 561.11 341.75 556.345 345.724C548.402 352.082 542.843 356.851 538.077 360.825C542.843 358.441 547.608 357.646 552.373 357.646C563.493 357.646 570.641 364.004 570.641 373.541C570.641 383.873 561.904 391.821 548.402 391.821C540.46 391.821 532.517 388.642 532.517 381.489C532.517 375.925 537.283 372.746 542.843 372.746C549.991 372.746 556.345 378.31 557.933 386.257C565.082 383.078 567.464 376.72 567.464 373.541C567.464 367.978 564.287 360.825 552.373 360.825C540.46 360.825 531.723 367.978 530.135 369.567C525.369 373.541 524.575 374.336 524.575 374.336C523.781 374.336 522.986 373.541 522.986 372.746C522.986 371.952 522.986 371.952 526.163 368.773C526.163 368.773 552.374 346.519 557.139 342.545C547.608 342.545 536.489 343.34 528.546 343.34ZM542.048 375.131C538.077 375.131 534.9 377.515 534.9 379.899C534.9 384.668 541.254 387.052 547.608 387.052C550.785 387.052 552.374 386.257 553.168 386.257C552.374 379.104 547.608 375.131 542.048 375.131Z" fill="black"></path><path d="M547.613 392.616C538.876 392.616 529.345 388.642 529.345 380.694C529.345 374.336 534.111 370.362 541.259 370.362C548.407 370.362 554.761 375.131 557.938 383.078C563.498 379.899 563.498 375.131 563.498 372.746C563.498 369.567 561.91 362.414 549.996 362.414C538.876 362.414 530.14 369.567 528.551 371.157C523.786 375.925 522.991 375.925 521.403 375.925C519.02 375.925 517.432 374.336 517.432 371.952C517.432 370.362 518.226 369.567 520.609 367.183L521.403 366.388C521.403 366.388 523.786 364.799 547.613 344.135C540.465 344.929 533.317 344.929 526.963 344.929C524.58 344.929 522.991 343.34 522.991 340.956C522.991 340.161 522.991 336.982 526.963 336.982C533.317 336.982 541.259 336.982 546.025 336.187C546.819 336.187 547.613 336.187 548.407 336.187C551.584 336.187 554.761 335.392 555.556 335.392C558.733 335.392 560.321 337.777 560.321 340.161C560.321 342.545 560.321 342.545 554.761 346.519C550.79 349.698 547.613 352.877 544.436 355.261C546.025 355.261 548.407 354.467 549.996 354.467C561.91 354.467 569.852 361.62 569.852 371.952C572.235 384.668 561.91 392.616 547.613 392.616ZM555.556 387.052V387.847H556.35C556.35 387.052 556.35 387.052 555.556 387.052C556.35 387.052 556.35 387.052 555.556 387.052ZM542.053 377.515C538.876 377.515 537.288 379.105 537.288 380.694C537.288 383.873 542.848 385.463 548.407 385.463C549.996 385.463 550.79 385.463 551.584 385.463C549.996 379.899 546.025 377.515 542.053 377.515ZM535.699 360.825C534.905 361.62 533.317 362.414 532.522 364.004C533.317 363.209 534.905 362.414 535.699 360.825C535.699 361.62 535.699 361.62 535.699 360.825C535.699 360.825 535.699 361.62 535.699 360.825ZM557.144 340.161C557.938 340.956 557.938 340.956 557.938 341.75C558.733 340.956 558.733 340.956 558.733 340.956C558.733 340.161 558.733 340.161 557.144 340.161Z" fill="black"></path><path d="M16.2623 15.8954H52.0034C55.1804 15.8954 55.9746 14.3058 55.9746 11.9215C55.9746 10.332 55.1804 7.94769 52.0034 7.94769H16.2623C13.8795 7.94769 12.291 9.53723 12.291 11.9215C12.291 14.3058 13.0853 15.8954 16.2623 15.8954Z" fill="black"></path><path d="M34.5278 51.6598C38.499 46.0964 39.2932 38.9435 40.0875 32.5853H59.9437C62.3264 32.5853 63.9149 30.9958 63.9149 28.6115C63.9149 26.2272 62.3264 24.6376 59.9437 24.6376H9.11186C5.93487 24.6376 5.14062 26.2272 5.14062 28.6115C5.14062 30.9958 6.72912 32.5853 9.11186 32.5853H32.145C32.145 39.7382 30.5565 46.8912 24.2025 51.6598H34.5278Z" fill="black"></path><path d="M116.341 51.6599L113.959 40.5332L133.021 37.3541C134.609 37.3541 136.198 35.7646 136.198 33.3803C136.198 31.7907 135.403 30.9959 134.609 30.2012C133.815 29.4064 133.02 29.4064 131.432 29.4064L111.576 32.5855L109.987 23.843L125.872 21.4587C128.255 21.4587 129.049 19.8692 129.049 17.4849C129.049 15.8953 128.255 15.1006 127.461 14.3058C125.872 13.511 125.078 13.511 124.284 13.511L108.399 15.8953L106.81 7.15289C106.016 3.97382 103.633 3.97382 102.839 3.97382C102.839 3.97382 100.456 3.97382 99.6621 5.56335C100.456 7.15289 99.6621 7.94766 100.456 9.5372L102.045 17.4849L85.3657 19.8692C82.983 19.8692 82.1887 21.4587 82.1887 23.843C82.1887 25.4326 82.9829 26.2273 83.7771 27.0221C84.5714 27.8169 85.3657 27.8169 86.9542 27.8169L103.633 25.4326L105.222 34.175L82.1887 38.1489C79.8059 38.1489 79.0117 40.5332 79.0117 41.3279C79.0117 42.9175 79.8059 43.7122 80.6002 44.507C81.3944 45.3018 82.1886 45.3018 83.7771 45.3018L106.81 41.3279L108.399 50.8652H116.341V51.6599Z" fill="black"></path><path d="M175.902 51.6598C179.079 49.2755 183.05 46.0964 186.227 42.1226C188.61 44.5069 192.581 47.686 196.552 51.6598H206.877C201.318 44.5069 194.964 38.9435 190.992 35.7644C194.964 29.4063 200.523 19.8691 200.523 15.1005C200.523 8.74231 194.964 8.74231 192.581 8.74231H160.811C156.84 8.74231 156.84 11.9214 156.84 12.7162C156.84 14.3057 157.634 16.69 160.811 16.69H190.992C189.404 20.6638 182.256 38.9435 160.811 51.6598H175.902Z" fill="black"></path><path d="M250.569 51.6599V32.5855C255.334 34.9698 263.277 38.9436 270.425 44.507C273.602 46.8913 274.396 46.8913 275.19 46.8913C277.573 46.8913 279.162 44.507 279.162 42.9175C279.162 40.5332 277.573 39.7384 275.985 38.9436L275.19 38.1489C269.631 34.175 262.483 29.4064 249.775 23.843V7.94766C249.775 5.56335 248.186 3.97382 245.803 3.97382C243.421 3.97382 241.832 5.56335 241.832 7.94766V50.8652H250.569V51.6599Z" fill="black"></path><path d="M347.464 16.6902C350.641 20.6641 351.435 21.4588 353.024 21.4588C355.407 21.4588 356.995 19.8693 356.995 17.485C356.995 15.8955 349.052 5.56348 345.876 5.56348C343.493 5.56348 341.904 7.15301 341.904 9.53732C341.904 10.3321 342.699 11.1269 343.493 11.9216C344.287 13.5112 346.67 15.8955 347.464 16.6902Z" fill="black"></path><path d="M349.044 40.5331C349.838 42.9174 349.838 45.3017 353.015 45.3017C355.398 45.3017 356.986 43.7122 356.986 41.3279C356.986 39.7383 355.398 31.7906 350.632 24.6377C349.838 23.0482 343.484 14.3057 340.307 14.3057C337.924 14.3057 336.336 15.8953 336.336 18.2796C336.336 19.8691 337.13 20.6639 339.513 22.2534C344.278 26.2273 347.455 33.3802 349.044 40.5331Z" fill="black"></path><path d="M354.614 11.1268C357.791 15.1006 357.791 15.8954 360.174 15.8954C362.557 15.8954 364.145 14.3058 364.145 11.9215C364.145 9.53722 356.203 0 353.026 0C350.643 0 349.055 1.58954 349.055 3.97384C349.055 4.76861 349.849 5.56338 349.849 6.35815C351.437 7.94769 353.82 10.332 354.614 11.1268Z" fill="black"></path><path d="M314.106 51.6599C317.283 44.507 320.46 36.5593 322.842 26.2273C323.637 26.2273 324.431 26.2273 325.225 26.2273C332.373 26.2273 333.168 29.4064 333.168 36.5593C333.168 44.507 332.373 48.4809 330.785 50.8652H338.727C339.522 46.8913 340.316 42.1227 340.316 36.5593C340.316 30.2012 340.316 18.2796 323.637 18.2796C324.431 13.511 325.225 8.74243 325.225 7.94766C325.225 5.56335 323.637 3.97382 321.254 3.97382C318.077 3.97382 317.283 6.35812 317.283 8.74243C316.488 12.7163 316.488 15.8953 315.694 19.0744L303.781 20.664C301.398 20.664 298.221 21.4587 298.221 24.6378C298.221 27.0221 299.809 28.6116 301.398 28.6116C301.398 28.6116 302.192 28.6116 307.752 27.8169C309.34 27.8169 311.723 27.0221 313.311 27.0221C310.929 36.5593 307.752 44.507 303.781 50.8652H314.106V51.6599Z" fill="black"></path><path d="M376.061 11.1269C379.238 12.7165 380.032 13.5113 382.415 15.1008C385.592 17.4851 385.592 17.4851 387.181 17.4851C388.769 17.4851 389.563 16.6903 390.358 15.8956C391.152 15.8956 391.946 16.6903 392.74 16.6903H401.477C399.888 19.8694 398.3 23.0485 396.712 25.4328C391.946 25.4328 391.946 25.4328 391.152 26.2275C390.358 27.0223 389.563 27.8171 389.563 29.4066C389.563 30.2014 389.563 33.3805 393.535 33.3805C398.3 33.3805 418.95 32.5857 426.099 31.7909C426.099 32.5857 426.893 32.5857 427.687 34.1752C427.687 34.97 429.276 35.7648 430.864 35.7648C432.453 35.7648 434.835 34.1752 434.835 31.7909C434.835 29.4066 429.276 23.0485 426.099 19.8694C424.51 18.2799 423.716 17.4851 422.922 16.6903H430.864C433.247 16.6903 434.835 15.1008 434.835 12.7165C434.835 11.1269 434.041 8.74264 430.864 8.74264H415.773V7.1531C415.773 3.97403 412.596 3.17926 411.802 3.17926C410.214 3.17926 407.831 3.97403 407.831 7.1531V9.53741H392.74C391.152 9.53741 390.358 10.3322 389.563 11.1269C388.769 11.1269 388.769 10.3322 387.975 10.3322C387.975 10.3322 380.827 5.56357 378.444 5.56357C376.855 5.56357 375.267 7.1531 374.473 8.74264C373.678 9.53741 376.061 11.1269 376.061 11.1269ZM417.362 21.4589C418.156 22.2537 418.95 23.0485 419.745 23.8432C414.979 23.8432 410.214 24.638 405.448 24.638C407.037 22.2537 407.831 19.8694 409.419 16.6903H417.362C416.568 17.4851 416.568 18.2799 416.568 19.0746C415.773 19.8694 416.568 20.6642 417.362 21.4589Z" fill="black"></path><path d="M373.668 27.817C376.845 30.2013 377.639 30.2013 379.228 31.7909C381.61 33.3804 381.61 34.1752 383.199 34.1752C385.582 34.1752 387.17 31.7909 387.17 30.2013C387.17 28.6118 386.376 27.817 383.993 26.2275C380.816 23.8432 376.845 21.4589 375.256 21.4589C372.874 21.4589 371.285 23.0484 371.285 25.4327C371.285 26.2275 372.874 27.0222 373.668 27.817Z" fill="black"></path><path d="M400.681 51.6598C401.475 48.4807 403.063 43.7121 403.063 36.5592C403.063 32.5853 399.887 32.5853 399.092 32.5853C398.298 32.5853 395.121 32.5853 395.121 36.5592C395.121 42.9173 394.327 47.6859 392.738 51.6598H400.681Z" fill="black"></path><path d="M385.58 51.66C387.962 46.0966 390.345 41.328 390.345 39.7384C390.345 37.3541 387.962 35.7646 386.374 35.7646C383.991 35.7646 383.197 37.3541 382.403 38.9437C380.814 42.9175 379.226 46.8913 376.049 51.66H385.58Z" fill="black"></path><path d="M424.509 51.66V35.7646C424.509 32.5855 422.92 31.7908 420.538 31.7908C418.949 31.7908 416.566 32.5855 416.566 35.7646V51.66H424.509Z" fill="black"></path><path d="M434.031 51.6598C434.031 49.2755 432.442 48.4807 430.06 48.4807C427.677 48.4807 426.883 50.0702 426.883 51.6598H434.031Z" fill="black"></path><path d="M413.386 51.66V35.7646C413.386 32.5855 411.797 31.7908 409.415 31.7908C407.032 31.7908 405.443 32.5855 405.443 35.7646V51.66H413.386Z" fill="black"></path><path d="M507.102 51.6601C506.308 50.0705 505.513 49.2758 503.925 49.2758C503.131 49.2758 502.336 50.0705 500.748 50.8653C499.954 51.6601 499.159 51.6601 498.365 51.6601H507.102Z" fill="black"></path><path d="M454.684 51.6598C456.273 49.2755 457.861 46.0964 459.449 43.7121V51.6598H466.598C466.598 46.0964 466.598 40.533 466.598 34.9696C473.746 25.4324 480.1 20.6638 484.865 20.6638C486.454 20.6638 490.425 21.4586 490.425 25.4324C490.425 27.022 489.631 30.9958 488.837 37.3539L488.042 41.3278C487.248 45.3016 487.248 48.4807 487.248 50.0702C487.248 50.865 487.248 50.865 487.248 51.6598H495.191C495.191 51.6598 495.191 50.865 495.191 50.0702C495.191 48.4807 495.985 42.9173 496.779 38.1487V35.7644C497.573 30.9958 497.573 27.022 497.573 25.4324C497.573 17.4847 491.219 13.5109 484.865 13.5109C477.717 13.5109 470.569 19.0743 466.598 23.8429C466.598 22.2533 466.598 20.6638 466.598 19.869C466.598 15.1004 466.598 10.3318 466.598 8.74228C466.598 6.35797 465.009 4.76843 462.627 4.76843C458.655 4.76843 458.655 7.94751 458.655 10.3318V18.2795C456.273 18.2795 453.89 19.0743 451.507 19.0743C450.713 19.0743 446.742 19.0743 446.742 23.0481C446.742 25.4324 448.33 27.022 450.713 27.022C452.301 27.022 455.478 27.022 458.655 26.2272V30.201L457.861 30.9958C454.684 35.7644 451.507 41.3278 448.33 46.0964C446.742 49.2755 445.947 49.2755 445.947 50.865C445.947 51.6598 445.947 51.6598 445.947 52.4545H454.684V51.6598Z" fill="black"></path><path d="M574.62 51.6599C576.208 49.2756 577.002 46.0965 577.002 42.9174C577.002 32.5855 569.06 25.4325 557.146 25.4325C555.558 25.4325 553.175 25.4325 551.587 26.2273C554.764 23.843 557.941 20.6639 561.912 17.4849C566.677 13.511 567.471 13.511 567.471 11.1267C567.471 8.7424 565.883 6.35809 562.706 6.35809C561.912 6.35809 558.735 6.35809 555.558 7.15286H553.175C547.615 7.94763 538.084 7.94763 534.113 7.94763C530.936 7.94763 530.142 11.1267 530.142 11.9215C530.142 14.3058 531.73 15.8953 534.113 15.8953C539.673 15.8953 547.615 15.1005 554.763 15.1005C546.027 22.2535 528.553 37.3541 528.553 37.3541L527.759 38.1488C525.376 40.5331 524.582 41.3279 524.582 42.9174C524.582 45.3018 526.171 46.8913 528.553 46.8913C530.142 46.8913 530.936 46.0965 535.702 42.1227C537.29 40.5331 546.027 33.3802 557.146 33.3802C569.06 33.3802 570.648 40.5331 570.648 43.7122C570.648 45.3018 569.854 49.2756 566.677 52.4547H574.62V51.6599Z" fill="black"></path><path d="M542.047 51.6598C542.047 51.6598 541.252 51.6598 542.047 51.6598C542.047 49.2755 543.635 47.6859 546.812 47.6859C549.989 47.6859 552.372 49.2755 553.96 51.6598H562.697C559.52 44.5069 553.96 40.533 546.812 40.533C539.664 40.533 534.898 45.3016 534.898 50.865C534.898 50.865 534.898 50.865 534.898 51.6598H542.047V51.6598Z" fill="black"></path></svg> 