<?xml version="1.0" encoding="UTF-8"?> <svg xmlns="http://www.w3.org/2000/svg" width="644" height="362" viewBox="0 0 644 362" fill="none"><path d="M322.054 137.844C319.878 137.844 318.428 136.394 318.428 134.218V130.592C318.428 128.416 319.878 126.966 322.054 126.966C324.229 126.966 325.68 128.416 325.68 130.592V134.218C325.68 136.394 324.229 137.844 322.054 137.844Z" fill="black"></path><path d="M322.054 190.059C319.878 190.059 318.428 188.609 318.428 186.433V179.906C318.428 177.73 319.878 176.28 322.054 176.28C324.229 176.28 325.68 177.73 325.68 179.906V186.433C325.68 188.609 324.229 190.059 322.054 190.059ZM322.054 163.952C319.878 163.952 318.428 162.501 318.428 160.325V153.798C318.428 151.623 319.878 150.172 322.054 150.172C324.229 150.172 325.68 151.623 325.68 153.798V160.325C325.68 162.501 324.229 163.952 322.054 163.952Z" fill="black"></path><path d="M322.054 213.267C319.878 213.267 318.428 211.817 318.428 209.641V206.015C318.428 203.839 319.878 202.389 322.054 202.389C324.229 202.389 325.68 203.839 325.68 206.015V209.641C325.68 211.817 324.229 213.267 322.054 213.267Z" fill="black"></path><path d="M303.922 204.564L322.052 235.749L340.182 204.564H303.922Z" fill="black"></path><path d="M46.4744 13.1062H29.7947C29.0695 13.1062 28.3442 13.1065 28.3442 11.6561C28.3442 10.2057 29.7947 10.206 29.7947 10.206H46.4744V6.57993C46.4744 5.85472 46.4745 5.12897 47.9249 5.12897C49.3753 5.12897 49.3754 6.57993 49.3754 6.57993V23.2594C49.3754 23.9846 49.3753 25.4354 47.9249 25.4354C46.4745 25.4354 46.4744 23.9844 46.4744 23.9844V21.0843C42.1231 21.8095 29.7946 23.9844 29.0694 23.9844C28.3442 23.9844 27.6191 23.2596 27.6191 22.5343C27.6191 21.0839 28.3442 21.0843 29.0694 21.0843C35.5963 20.3591 40.6729 19.6337 45.7493 18.1832V13.1062H46.4744ZM37.772 46.4669V56.6192C37.772 57.3444 37.7719 58.0701 36.3215 58.0701C34.8711 58.0701 34.8712 57.3444 34.8712 56.6192V33.4126C34.8712 29.0613 36.3215 27.6105 40.6728 27.6105H68.2306C72.5819 27.6105 74.0324 29.0613 74.0324 33.4126V51.543C74.0324 57.3448 71.1316 57.3451 66.7803 57.3451H61.7038C60.9786 57.3451 60.2535 57.3446 60.2535 55.8941C60.2535 54.4437 61.7038 54.4441 61.7038 54.4441C62.429 54.4441 67.5054 54.4441 68.2306 54.4441C69.681 54.4441 71.1316 54.4439 71.1316 51.543V46.4669H37.772V46.4669ZM70.4064 36.3136V34.1376C70.4064 31.962 69.6812 31.2366 67.5056 31.2366H41.3981C39.2224 31.2366 38.4973 31.962 38.4973 34.1376V36.3136H70.4064ZM37.772 38.4888V43.5658H70.4064V38.4888H37.772ZM60.9785 18.9083C60.9785 21.0839 62.4291 21.0843 63.8795 21.0843C74.7577 21.0843 75.4827 21.0843 76.208 21.0843C76.9332 21.0843 77.6585 20.3591 77.6585 17.4582C77.6585 16.733 77.6583 15.2822 79.1087 15.2822C79.8339 15.2822 81.2845 16.007 81.2845 16.7323C81.2845 18.1827 80.5592 21.8091 79.834 22.5343C79.1088 23.2596 77.6584 23.2594 73.3072 23.2594C71.8567 23.2594 65.33 23.2594 63.8795 23.2594C60.9787 23.2594 58.803 22.5345 58.803 18.1832V5.85401C58.803 5.12879 58.8031 4.40393 60.2535 4.40393C61.7039 4.40393 61.7038 5.85401 61.7038 5.85401V10.206C64.6046 9.4808 69.681 8.75559 75.4827 6.57993C76.9331 5.85472 77.6585 5.85401 78.3837 5.85401C79.1089 5.85401 79.834 6.57976 79.834 7.30497C79.834 8.03019 79.1087 8.75559 75.4827 10.206C69.681 12.3817 65.3298 13.1062 61.7038 13.1062V18.9083H60.9785Z" fill="black"></path><path d="M36.3195 60.2448C35.5943 60.2448 32.6935 60.2448 32.6935 56.6188V33.4123C32.6935 28.3358 34.8691 25.4351 39.9456 25.4351H45.0221C44.2969 24.7099 44.2968 23.9845 44.2968 22.5341V21.8091C39.2204 22.5343 29.7927 24.7101 29.0674 24.7101C26.8918 24.7101 25.4414 23.2597 25.4414 21.084C25.4414 20.3588 25.4414 18.1832 29.0674 17.458H31.2432C36.3197 16.7328 40.6708 16.0072 44.2968 15.282V13.106H29.7927C27.6171 13.106 26.1667 11.6556 26.1667 9.47992C26.1667 8.02949 26.8919 5.85385 29.7927 5.85385H44.2968V4.40378C44.2968 1.50292 45.7473 0.77771 47.9229 0.77771C49.3733 0.77771 51.5489 1.50292 51.5489 4.40378V21.084C51.5489 22.5345 50.8237 23.259 50.8237 23.9842H68.2286C73.3051 23.9842 75.4807 26.1605 75.4807 31.9622V50.0926C75.4807 57.3447 70.4043 57.3447 66.0531 57.3447H60.9765C58.8009 57.3447 57.3505 55.8943 57.3505 53.7186C57.3505 52.2682 58.0757 50.0926 60.9765 50.0926C61.7017 50.0926 63.1522 50.0926 64.6026 50.0926C66.053 50.0926 67.5036 50.0926 67.5036 50.0926C68.954 50.0926 68.9539 50.092 68.9539 48.6416V45.0155H39.9456V53.7186C39.9456 59.5203 37.7699 60.2448 36.3195 60.2448ZM71.8547 54.4437C71.8547 55.1689 71.1296 55.8936 70.4044 56.6188C71.1296 55.8936 71.8547 55.1689 71.8547 54.4437ZM71.8547 45.7406C71.8547 45.0154 71.8547 45.7406 71.8547 45.7406V45.7406ZM36.3195 45.0155C36.3195 45.7408 37.0447 45.7408 36.3195 45.0155C37.0447 45.7408 36.3195 45.0155 36.3195 45.0155ZM39.9456 42.1145H68.9539V40.6644H39.9456V42.1145ZM71.8547 37.7634C71.8547 37.0382 71.8547 37.0382 71.8547 37.7634V37.7634ZM36.3195 37.0384C36.3195 37.7636 37.0447 37.7636 36.3195 37.0384C37.0447 37.0384 36.3195 37.0384 36.3195 37.0384ZM39.9456 34.1373H68.9539C68.9539 32.6869 68.954 32.6873 67.5036 32.6873H41.3961C39.9456 32.6873 39.9456 32.6869 39.9456 34.1373ZM47.1976 11.6559C47.9228 11.6559 47.9228 11.6559 47.1976 11.6559C47.9228 11.6559 47.9228 11.6559 47.1976 11.6559ZM63.1523 26.1602C60.9767 26.1602 55.9002 26.16 55.9002 19.6331V7.30481C55.9002 4.40395 57.3506 3.67874 59.5263 3.67874C60.9767 3.67874 63.1523 4.40395 63.1523 7.30481V9.47992C67.5035 8.7547 71.1296 8.0302 74.0304 6.57977C76.206 5.85456 76.9312 5.12881 77.6564 5.12881C79.1069 5.12881 80.5572 6.57924 80.5572 8.75488C80.5572 10.9305 78.3815 12.3808 75.4807 13.106C70.4042 14.5564 66.7783 15.2818 63.1523 16.007V19.6331V20.3581H63.8775C71.8548 20.3581 74.7555 20.3581 75.4807 20.3581C75.4807 20.3581 75.4807 19.6334 75.4807 18.183C75.4807 15.2822 77.6563 14.5569 79.1067 14.5569C81.2824 14.5569 82.7328 16.0074 82.7328 18.183C82.7328 18.183 82.7329 23.9847 80.5572 25.4351C79.1068 26.8856 77.6564 26.8852 72.5799 26.8852L63.1523 26.1602ZM59.5263 12.3809C59.5263 13.1062 59.5263 12.3809 59.5263 12.3809C60.2515 12.3809 59.5263 12.3809 59.5263 12.3809Z" fill="black"></path><path d="M122.621 26.1598H146.553C147.278 26.1598 148.003 26.1594 148.003 27.6098C148.003 29.0603 146.553 29.0608 146.553 29.0608H95.7884C95.0632 29.0608 94.3379 29.0603 94.3379 27.6098C94.3379 26.1594 95.7884 26.1598 95.7884 26.1598H119.72V22.5336H105.216C101.59 22.5336 100.865 21.0834 100.865 18.1825V11.6553C100.865 8.02913 102.315 7.30408 105.216 7.30408H137.125C140.751 7.30408 142.201 8.75435 142.201 11.6553V18.1825C142.201 21.8086 140.751 22.5336 137.125 22.5336H122.621V26.1598ZM96.5136 57.3448C95.7884 57.3448 95.0631 56.619 95.0631 55.8938C95.0631 55.1686 95.0631 55.1691 97.9639 53.7187C101.59 52.2682 104.491 50.0922 107.392 47.9165C108.117 47.1913 108.117 47.1915 108.842 47.1915C109.567 47.1915 110.292 47.9163 110.292 48.6416C109.567 50.092 98.6893 57.3448 96.5136 57.3448ZM123.346 53.7187C123.346 55.1691 123.346 58.0698 120.445 58.0698C119.72 58.0698 118.995 58.0698 113.193 58.0698C112.468 58.0698 111.018 58.0695 111.018 55.8938C111.018 54.4434 112.468 54.4437 112.468 54.4437C112.468 54.4437 117.545 54.4437 118.27 54.4437C119.72 54.4437 120.445 53.7181 120.445 52.2677V43.5653H106.666C103.04 43.5653 101.59 42.1151 101.59 39.2142V37.0381C101.59 33.412 103.04 32.687 106.666 32.687H137.125C140.751 32.687 141.476 34.1372 141.476 37.0381V39.2142C141.476 42.8403 140.026 43.5653 137.125 43.5653H123.346V53.7187V53.7187ZM103.766 13.1053H139.301V10.9302C139.301 10.205 138.575 9.47922 137.85 9.47922H105.216C104.491 9.47922 103.766 10.205 103.766 10.9302V13.1053ZM103.766 16.0064V18.9075C103.766 19.6327 104.491 20.3576 105.216 20.3576H137.85C138.575 20.3576 139.301 19.6327 139.301 18.9075V16.0064H103.766ZM106.666 35.588C105.941 35.588 105.216 36.3129 105.216 37.0381V39.9392C105.216 40.6644 105.941 41.3893 106.666 41.3893H137.125C137.85 41.3893 138.575 40.6644 138.575 39.9392V37.0381C138.575 36.3129 137.85 35.588 137.125 35.588H106.666ZM134.224 46.4664C134.949 46.4664 134.95 46.4661 136.4 47.9165C140.751 51.5426 145.828 53.7187 147.278 53.7187C148.003 53.7187 148.003 54.4435 148.003 55.1688C148.003 55.894 147.278 56.6189 146.553 56.6189C145.102 56.6189 141.476 54.4432 140.026 52.9927C136.4 50.817 134.224 49.3668 133.499 48.6416C132.774 47.9163 132.774 47.9167 132.774 47.1915C132.049 47.1915 133.499 46.4664 134.224 46.4664Z" fill="black"></path><path d="M113.196 60.2445C109.57 60.2445 108.845 58.0689 108.845 56.6185C108.845 55.8933 108.845 52.9924 112.471 52.9924C112.471 52.9924 115.372 52.9924 116.822 52.9924H117.548H118.273V45.7403H111.746C112.471 46.4656 112.471 47.1911 112.471 47.9163C111.746 51.5424 99.4173 58.0694 97.2417 58.0694C95.0661 58.0694 93.6157 56.619 93.6157 54.4434C93.6157 52.2677 95.0661 51.5425 97.2417 50.8173C100.868 49.3669 103.043 47.916 105.944 45.7403C101.593 45.7403 100.143 43.5654 100.143 39.2142V37.0382C100.143 33.4122 101.593 31.2364 105.219 30.5112H96.5167C92.8906 30.5112 92.8906 27.6102 92.8906 27.6102C92.8906 26.1597 93.6158 24.71 96.5167 24.71H118.273H105.944C101.593 24.71 99.4174 22.5342 99.4174 18.183V11.656C99.4174 7.30471 101.593 5.12891 105.944 5.12891H137.853C142.204 5.12891 144.38 7.30471 144.38 11.656V18.183C144.38 22.5342 142.204 24.71 137.853 24.71H124.8H147.281C150.907 24.71 150.907 27.6102 150.907 27.6102C150.907 29.0606 150.182 30.5112 147.281 30.5112H138.579C142.205 31.2364 143.655 32.687 143.655 37.0382V39.2142C143.655 43.5654 141.479 45.7403 137.128 45.7403H136.403L137.128 46.4663C141.479 49.3671 145.831 51.5422 147.281 52.2674C148.006 52.2674 149.457 52.9928 149.457 55.1684C149.457 57.344 148.006 58.7944 145.831 58.7944C144.38 58.7944 142.93 58.0692 138.579 55.1684H137.853C133.502 52.9928 132.052 51.5425 131.326 50.8173C130.601 50.0921 129.876 49.3666 129.876 48.6414C129.876 47.9161 129.876 47.1915 130.601 46.4663H124.074V53.7183C124.074 57.3444 122.624 59.5193 118.998 60.2445C118.998 59.5193 118.273 60.2445 113.196 60.2445ZM121.174 55.1684C121.174 55.8936 120.448 55.8933 119.723 56.6185C120.448 55.8933 121.174 55.8936 121.174 55.1684ZM106.669 39.9392H136.403V37.0382H106.669V39.9392ZM105.944 18.183H137.853V17.458L105.944 18.183ZM105.944 11.656H137.853H105.944Z" fill="black"></path><path d="M197.322 9.47972C199.498 9.47972 202.399 9.4799 202.399 12.3808C202.399 15.2816 198.773 18.9082 196.597 21.0839H206.025C210.376 21.0839 211.826 22.5338 211.826 26.8851V34.1372C211.826 38.4885 210.376 39.9393 206.025 39.9393H171.215V50.8175C171.215 53.7184 173.39 53.7186 174.841 53.7186H206.75C210.376 53.7186 211.101 53.7184 211.826 47.1915C211.826 45.741 211.826 45.0155 213.277 45.0155C213.277 45.0155 215.452 45.016 215.452 46.4664C215.452 47.1916 214.727 50.817 214.002 52.9927C212.552 57.344 209.651 57.3447 206.025 57.3447H173.39C169.039 57.3447 166.863 57.3443 166.863 51.5426V26.8851C166.863 22.5338 168.314 21.0839 172.665 21.0839H191.52C192.971 19.6334 198.048 14.5562 198.048 13.1058C198.048 12.3806 197.322 12.3808 196.597 12.3808H179.192C173.39 18.1825 163.963 23.984 163.237 23.984C162.512 23.984 161.787 22.5341 161.787 21.8089C161.787 21.0837 162.512 20.358 163.237 20.358C166.863 18.1823 174.841 13.831 180.642 5.85364C181.368 5.12843 181.368 4.40356 182.818 4.40356C183.543 4.40356 184.268 5.12843 184.268 5.85364C184.268 6.57886 184.269 6.57939 183.543 7.3046C182.818 8.02982 182.818 8.7545 182.093 9.47972H197.322V9.47972ZM187.894 23.984H174.116C171.94 23.984 171.215 24.7094 171.215 26.8851V37.7633H187.894V23.984V23.984ZM190.795 23.984V37.7633H205.3C207.475 37.7633 208.2 37.0379 208.2 34.8623V27.6101C208.2 25.4345 207.475 24.71 205.3 24.71H190.795V23.984Z" fill="black"></path><path d="M206.746 59.5202H174.112C170.486 59.5202 165.41 59.5203 165.41 51.5428V26.8847C165.41 26.1595 165.41 25.4348 165.41 24.7096C163.959 25.4348 163.234 25.4346 162.509 25.4346C160.333 25.4346 158.883 23.2589 158.883 21.8085C158.883 19.6328 160.333 18.9074 161.059 18.9074C168.311 15.2812 174.112 10.9297 177.738 5.1278C178.463 4.40257 179.189 2.95264 181.364 2.95264C183.54 2.95264 184.99 4.40239 184.99 5.85285C184.99 6.57809 184.99 6.57862 184.99 7.30385H196.594C198.769 7.30385 203.12 7.30349 203.12 12.3801C203.12 14.5558 201.67 16.7315 199.494 19.6324H204.571C209.647 19.6324 212.548 21.8079 212.548 27.6098V34.8621C212.548 39.9387 210.373 42.1144 204.571 42.1144H171.937V51.5428C171.937 52.9933 171.937 52.9929 174.112 52.9929H206.021C208.922 52.9929 208.922 52.9933 209.647 47.9166C209.647 46.4662 210.372 43.5654 213.273 43.5654C215.449 43.5654 216.899 45.0159 216.899 47.1916C216.899 47.9168 216.174 52.2682 215.449 54.4439C214.724 59.5205 209.647 59.5202 206.746 59.5202ZM169.761 55.169C170.486 55.169 170.486 55.169 169.761 55.169C170.486 55.169 170.486 55.169 169.761 55.169ZM192.968 36.3131H205.296C206.021 36.3131 206.746 36.3126 206.746 34.8621V27.6098C206.746 26.8846 206.747 26.1597 205.296 26.1597H192.968V36.3131ZM172.662 36.3131H185.716V26.1597H173.387C172.662 26.1597 171.937 26.1593 171.937 27.6098V36.3131H172.662ZM193.693 22.5335H195.143C195.143 22.5335 195.143 22.5337 195.143 21.8085V21.0834C194.418 21.8087 193.693 22.5335 193.693 22.5335ZM174.112 19.6324H191.517C192.967 18.182 195.143 16.0066 195.868 14.5562H179.914C178.464 16.0066 176.288 18.182 174.112 19.6324ZM199.494 11.6551C200.22 12.3803 200.22 13.1059 200.22 13.8311V14.5562C200.22 13.8309 200.945 13.1052 200.945 13.1052C200.945 11.6547 200.945 11.6551 199.494 11.6551ZM180.639 9.47901C180.639 10.2042 179.914 10.2048 179.914 10.93H181.364C180.639 10.2048 180.639 9.47901 180.639 9.47901Z" fill="black"></path><path d="M245.895 20.3578C246.62 20.3578 246.62 20.3578 245.895 20.3578C247.345 16.7317 248.071 13.1057 248.071 9.47957C248.071 7.30393 248.07 6.57942 250.246 6.57942C250.971 6.57942 252.422 7.30428 252.422 8.0295C252.422 8.75471 251.696 13.1058 250.246 19.6328C250.971 19.6328 251.696 19.6328 253.147 19.6328C265.475 19.6328 266.201 26.8849 266.201 34.1371C266.201 52.2675 261.124 55.1685 253.872 55.1685C248.07 55.1685 248.071 53.7177 248.071 52.9925C248.071 52.2673 248.796 51.5424 249.521 51.5424H250.971C252.422 51.5424 253.147 51.5424 253.872 51.5424C258.949 51.5424 262.575 50.092 262.575 33.412C262.575 26.8851 261.849 21.8088 253.147 21.8088C251.696 21.8088 250.246 21.8088 249.521 21.8088C245.895 37.7635 241.544 46.4658 237.918 52.2675C237.192 53.7179 236.467 54.4435 235.742 54.4435C235.742 54.4435 233.566 54.4429 233.566 52.9925C233.566 52.2673 233.566 52.268 235.017 50.0924C239.368 42.8402 242.994 32.6868 245.895 22.5338C243.719 22.5338 233.566 24.7098 232.841 24.7098C232.116 24.7098 231.391 23.9841 231.391 23.2588C231.391 21.8084 232.116 21.8088 234.292 21.8088L245.895 20.3578ZM274.178 23.2588C278.529 29.7858 279.98 36.3127 279.98 37.7632C279.98 39.2136 279.254 39.2141 277.804 39.2141C276.354 39.2141 276.354 38.4887 276.354 36.3131C274.903 29.7861 271.277 23.2592 266.201 18.1827C264.025 16.007 264.025 16.0069 264.025 15.2817C264.025 14.5564 264.75 13.8316 265.475 13.8316C267.651 14.5568 272.002 20.358 274.178 23.2588ZM279.254 16.0067C279.254 16.7319 278.529 17.4577 277.079 17.4577C276.354 17.4577 276.354 17.4577 273.453 13.8316C272.728 13.1064 270.552 10.93 269.101 9.47957C268.376 8.75436 268.376 8.75471 268.376 8.0295C268.376 7.30428 269.101 6.57942 269.827 6.57942C272.728 7.30464 279.254 15.2815 279.254 16.0067ZM285.781 11.6556C285.781 12.3808 285.056 13.1057 283.606 13.1057C282.88 13.1057 282.88 13.1057 279.98 9.47957C279.254 8.75436 277.079 6.57889 275.628 5.12846C274.903 4.40324 274.903 4.4036 274.903 3.67838C274.903 2.95316 275.628 2.22742 276.354 2.22742C279.98 2.22742 285.781 10.2051 285.781 11.6556Z" fill="black"></path><path d="M253.15 57.3449C250.974 57.3449 245.173 57.3442 245.173 52.9928C245.173 50.8172 246.623 49.3667 248.073 49.3667C248.799 49.3667 249.524 49.3667 250.249 49.3667C250.974 49.3667 252.425 49.3667 253.15 49.3667C256.776 49.3667 260.402 49.3671 260.402 33.4123C260.402 26.8853 259.677 23.984 253.15 23.984C252.425 23.984 251.699 23.984 250.974 23.984C248.073 36.3128 244.447 45.7414 239.371 53.7188C238.646 55.1692 237.921 56.6189 235.745 56.6189C234.294 56.6189 232.119 55.8937 232.119 52.9928C232.119 51.5424 232.119 51.5424 233.569 49.3667C237.195 42.8398 240.821 34.1378 243.722 24.71C242.272 24.71 240.096 25.435 238.646 25.435C233.569 26.1602 233.569 26.1601 232.844 26.1601C230.669 26.1601 229.943 24.7096 229.943 22.5339C229.943 19.6331 232.119 18.9078 235.02 18.9078L245.898 17.4578C246.623 14.5569 247.348 11.6556 247.348 8.02955C247.348 6.57911 248.073 3.6784 250.974 3.6784C253.15 3.6784 254.6 5.12884 254.6 7.3045C254.6 8.02972 253.875 12.3805 253.15 16.7318C267.654 16.7318 267.654 26.8853 267.654 33.4123C266.929 51.5428 263.303 57.3449 253.15 57.3449ZM246.623 21.8089C247.348 22.5341 247.348 22.5341 246.623 21.8089C247.348 22.5341 247.348 22.5341 246.623 21.8089C247.348 22.5341 247.348 22.5341 246.623 21.8089C247.348 21.8089 248.073 21.0839 248.799 21.0839C248.799 21.0839 248.799 21.0832 248.799 20.3579C248.073 21.8084 247.348 21.8089 246.623 21.8089ZM277.807 41.3895C274.906 41.3895 274.906 39.214 274.181 37.0384C272.73 30.5114 269.829 24.7094 264.753 19.6329C262.577 17.4572 261.852 16.732 261.852 16.0068C261.852 14.5564 263.303 12.3807 265.478 12.3807C269.104 12.3807 274.181 20.3585 274.906 21.8089C279.257 28.3359 280.708 35.5879 280.708 37.0384C281.433 39.9392 279.982 41.3895 277.807 41.3895ZM277.807 19.6329C276.356 19.6329 275.631 18.9077 273.456 16.0068L272.73 15.2817C272.005 14.5565 269.829 12.381 269.104 10.9306C268.379 10.2054 267.654 9.47981 267.654 8.75459C267.654 7.30415 269.104 5.12849 271.28 5.12849C274.181 5.12849 281.433 14.5564 281.433 16.0068C281.433 18.1825 279.257 19.6329 277.807 19.6329ZM284.334 15.2817C282.883 15.2817 282.158 14.5567 279.257 10.9306C278.532 10.2054 276.356 8.0299 274.906 6.57946C274.181 5.85424 274.181 5.12866 274.181 4.40344C274.181 2.22778 275.631 0.777344 277.807 0.777344C280.708 0.777344 287.96 9.47999 287.96 11.6556C287.96 13.1061 286.509 15.2817 284.334 15.2817Z" fill="black"></path><path d="M307.545 57.3448C307.545 58.07 307.546 58.7949 306.095 58.7949C304.645 58.7949 304.645 58.07 304.645 57.3448V25.4351C303.194 27.6107 301.744 29.7866 300.293 31.9622C299.568 32.6874 299.568 32.6873 298.843 32.6873C298.118 32.6873 297.393 31.9617 297.393 30.5112C297.393 29.786 298.118 29.0612 298.118 29.0612C303.194 23.2594 307.546 15.2822 310.446 6.57963C310.446 5.85441 311.172 5.12866 311.897 5.12866C312.622 5.12866 314.073 5.85441 314.073 6.57963C314.073 7.30484 311.897 14.5563 308.271 20.358V57.3448H307.545ZM332.203 57.3448C332.203 58.07 332.203 58.7949 330.752 58.7949C329.302 58.7949 329.302 58.07 329.302 57.3448V44.2905H319.874C315.523 44.2905 314.073 42.8398 314.073 38.4885V19.633C314.073 15.2817 315.523 13.8318 319.874 13.8318H329.302V6.57963C329.302 5.85441 329.302 5.12866 330.752 5.12866C332.203 5.12866 332.203 5.85441 332.203 6.57963V13.8318H342.356C346.707 13.8318 348.157 15.2817 348.157 19.633V38.4885C348.157 42.8398 346.707 44.2905 342.356 44.2905H332.203V57.3448ZM316.248 27.6102H328.577V16.732H319.149C316.973 16.732 316.248 17.4573 316.248 19.633V27.6102ZM316.248 30.5112V38.4885C316.248 40.6641 316.973 41.3895 319.149 41.3895H328.577V30.5112H316.248ZM344.531 27.6102V19.633C344.531 17.4573 343.806 16.732 341.63 16.732H331.478V27.6102H344.531ZM332.203 42.1145H342.356C344.531 42.1145 345.256 41.39 345.256 39.2144V31.2363H332.203V42.1145V42.1145Z" fill="black"></path><path d="M330.025 60.9704C328.575 60.9704 326.399 60.2452 326.399 57.3444V46.4662H318.422C313.345 46.4662 310.445 44.2898 310.445 38.4881V19.6328C310.445 14.5563 312.62 11.6556 318.422 11.6556H326.399V5.8536C326.399 2.95275 327.85 2.22754 330.025 2.22754C332.201 2.22754 333.651 3.67796 333.651 5.8536V11.6556H342.354C347.43 11.6556 350.331 13.8311 350.331 19.6328V38.4881C350.331 43.5646 348.155 46.4662 342.354 46.4662H333.651V57.3444C333.651 60.9704 330.75 60.9704 330.025 60.9704ZM330.025 43.5651C330.75 43.5651 330.751 43.5651 330.751 43.5651C330.751 42.8399 330.025 42.8399 330.025 43.5651C330.025 42.8399 330.025 42.8399 330.025 43.5651ZM333.651 39.9391H341.629C342.354 39.9391 343.079 39.9386 343.079 38.4881V31.9619H333.651V39.9391ZM318.422 32.687V39.2141C318.422 39.9393 318.422 40.6641 319.872 40.6641H327.124V33.412H318.422V32.687ZM330.025 29.0609C330.025 29.0609 330.025 29.7861 330.025 29.0609C330.75 29.0609 330.751 29.0609 330.751 29.0609H330.025ZM333.651 26.1599H343.079V19.6328C343.079 18.1824 343.079 18.1827 341.629 18.1827H333.651V26.1599ZM318.422 26.1599H327.124V18.9078H319.872C319.147 18.9078 318.422 18.9074 318.422 20.3578V26.1599ZM330.025 15.2817C330.025 15.2817 330.025 16.0069 330.025 15.2817C330.75 15.2817 330.751 15.2817 330.751 15.2817H330.025ZM306.094 60.9704C303.918 60.9704 302.468 59.52 302.468 57.3444V30.511C301.742 31.2362 301.742 31.9619 301.017 31.9619C300.292 32.6871 299.567 33.412 298.116 33.412C295.941 33.412 294.49 31.2364 294.49 29.7859C294.49 28.3355 295.216 27.6101 295.941 26.8849C301.017 21.0832 305.368 13.1059 308.269 5.12856C308.994 3.67814 309.719 2.95346 311.17 2.95346C312.62 2.95346 314.796 4.40388 314.796 6.57952C314.796 8.02994 311.895 15.2814 308.994 20.3578V57.3444C308.994 60.9704 306.819 60.9704 306.094 60.9704ZM303.918 23.2589C304.643 23.2589 304.643 23.2589 303.918 23.2589C304.643 23.2589 305.368 23.9839 305.368 23.9839V20.3578C304.643 21.8083 303.918 22.5336 303.918 23.2589Z" fill="black"></path><path d="M406.171 35.5876C406.171 50.0917 397.469 56.6179 386.591 56.6179C375.713 56.6179 368.461 49.3664 368.461 39.9387C368.461 34.8622 369.911 26.1596 380.789 15.2815C373.537 16.0067 368.461 16.0065 368.461 16.0065C367.736 16.0065 366.285 16.0069 366.285 14.5565C366.285 13.106 367.01 13.1055 370.636 13.1055C373.537 13.1055 377.163 13.1057 380.789 12.3805C381.514 12.3805 385.14 11.6555 385.14 11.6555C386.591 11.6555 386.591 12.3803 386.591 13.1055C386.591 13.8307 386.591 13.8311 385.14 15.2815C377.163 21.8083 371.362 31.2364 371.362 39.2136C371.362 47.1909 377.163 52.9919 385.866 52.9919C398.919 52.9919 401.82 42.1138 401.82 34.8617C401.82 31.2357 401.095 23.2589 397.469 14.5565C397.469 13.8312 396.019 10.9306 396.019 10.2054C396.019 9.48019 396.744 8.75445 398.194 8.75445C398.919 8.75445 398.919 8.75463 400.37 11.6555C403.996 17.4571 409.797 22.5334 415.599 26.8846C416.324 27.6098 416.324 27.6103 416.324 28.3356C416.324 29.0608 415.599 29.7856 414.874 29.7856C414.149 29.7856 413.424 29.7853 411.973 27.6096C408.347 24.7088 405.446 21.0835 402.545 17.4575C403.996 22.5339 406.171 28.3356 406.171 35.5876ZM410.523 10.9304C411.248 12.3808 413.423 15.2813 413.423 16.0065C413.423 16.7317 412.698 17.4575 411.973 17.4575C411.248 17.4575 410.523 17.4575 409.072 13.8314C408.347 13.1062 406.171 8.75463 405.446 8.02942V7.30439C405.446 7.30439 405.446 5.85345 407.622 5.85345C406.897 5.85345 406.897 6.57919 410.523 10.9304ZM417.775 7.30439C418.5 8.75481 420.675 11.6553 420.675 12.3805C420.675 13.1057 419.95 13.8314 418.5 13.8314C417.775 13.8314 417.775 13.8314 415.599 10.2054C414.874 9.48019 411.973 5.1286 411.973 4.40339V3.67836C411.973 2.95315 412.698 2.22742 414.149 2.22742C414.149 2.22742 415.599 4.40357 417.775 7.30439Z" fill="black"></path><path d="M386.589 58.07C374.986 58.07 366.283 50.0927 366.283 39.2144C366.283 31.9622 369.184 24.7093 375.711 16.7319C370.634 17.4571 368.459 17.4578 367.733 17.4578C365.558 17.4578 364.107 16.0073 364.107 13.8317C364.107 10.2056 366.283 10.2056 369.909 10.2056C372.81 10.2056 376.436 10.2049 380.062 9.47964C380.787 9.47964 381.512 9.47964 382.238 9.47964C383.688 9.47964 384.413 9.47964 385.138 9.47964C387.314 9.47964 388.764 10.9301 388.764 13.1057C388.764 14.5562 388.039 15.2814 386.589 16.7319C378.612 22.5336 373.535 31.9622 373.535 39.2144C373.535 46.4666 378.612 51.5428 386.589 51.5428C398.917 51.5428 401.093 41.3901 401.093 35.5883C401.093 32.6874 400.368 24.7095 396.742 16.0068C396.742 16.0068 396.742 15.2818 396.016 15.2818C394.566 13.1061 394.566 12.3809 394.566 11.6557C394.566 10.2052 396.016 8.02955 398.192 8.02955C399.642 8.02955 400.368 8.75495 401.818 10.9306C405.444 16.0072 409.795 21.0835 416.322 26.1601C417.047 26.8853 417.773 27.6107 417.773 29.0611C417.773 31.2368 416.322 32.6872 414.147 32.6872C412.696 32.6872 411.971 31.9617 409.795 30.5112C408.345 29.0608 406.894 27.6103 405.444 26.8851C406.169 29.786 406.169 32.6872 406.169 36.3134C407.62 52.2682 396.742 58.07 386.589 58.07ZM399.642 12.3807C399.642 13.1059 399.642 13.1059 399.642 12.3807C400.368 13.8311 400.368 13.8317 400.368 13.8317C401.093 14.5569 401.093 16.0066 401.818 16.7319C401.818 16.7319 401.818 16.732 402.543 16.0068C401.093 15.2816 400.368 13.8311 399.642 12.3807ZM382.238 13.8317C382.963 14.5569 382.963 15.2818 382.963 15.2818C383.688 14.5565 383.688 14.5569 384.413 13.8317C384.413 13.8317 385.138 13.831 385.138 13.1057C384.413 13.1057 384.413 13.1057 383.688 13.1057C382.963 13.831 382.238 13.8317 382.238 13.8317ZM411.246 19.6329C409.07 19.6329 409.07 18.9079 406.894 15.2818L406.169 13.8317C405.444 12.3812 403.994 10.2056 403.268 10.2056C403.268 10.2056 402.543 9.48 402.543 8.02955C402.543 6.57911 403.268 4.40345 406.169 4.40345C407.62 4.40345 408.345 5.12902 411.971 10.2056C412.696 10.9308 415.597 14.5562 415.597 16.7319C414.872 18.1823 413.421 19.6329 411.246 19.6329ZM418.498 16.0068C416.322 16.0068 416.322 15.2816 414.147 12.3807V11.6557C414.147 10.9304 412.696 10.205 411.971 8.7546C411.246 7.30416 410.521 6.57876 410.521 5.85354C410.521 5.85354 409.795 5.12885 409.795 3.67841C409.795 2.95318 410.521 1.50239 411.246 1.50239C411.971 0.777167 413.421 0.777344 414.147 0.777344C415.597 0.777344 417.047 2.95265 419.223 5.85354L419.948 6.57947C423.574 10.9308 423.574 12.3805 423.574 13.1057C422.124 13.831 420.673 16.0068 418.498 16.0068ZM412.696 3.67841C413.421 3.67841 413.421 3.67841 412.696 3.67841C413.421 3.67841 413.421 3.67841 412.696 3.67841Z" fill="black"></path><path d="M436.637 17.4567C435.912 17.4567 435.187 17.4567 435.187 17.4567C433.736 17.4567 433.736 16.7311 433.736 15.2807C433.736 13.8302 434.461 13.8306 435.187 13.8306C435.187 13.8306 440.988 13.1046 441.713 13.1046L480.875 10.2045H483.05C483.776 10.2045 484.501 10.2039 484.501 12.3796C484.501 13.83 483.776 13.8304 480.875 14.5556C468.546 16.006 454.042 24.7085 454.042 37.0372C454.042 45.0147 459.844 50.091 469.997 52.2667C473.623 52.9919 473.623 52.9923 473.623 54.4427C473.623 54.4427 473.623 56.6178 471.447 56.6178C469.997 56.6178 464.92 55.1681 461.294 53.7177C458.393 52.2672 449.691 47.9155 449.691 37.0372C449.691 26.8842 456.943 18.9071 469.271 13.8306L436.637 17.4567Z" fill="black"></path><path d="M469.994 58.0699C467.818 58.0699 462.741 56.6193 459.115 55.1689C448.962 50.8175 446.787 42.8401 446.787 37.0383C446.787 29.0608 451.138 22.5334 459.115 16.7316L436.634 18.9077C435.909 18.9077 435.183 18.9077 434.458 18.9077C432.282 18.9077 430.832 17.4572 430.832 15.2815C430.832 13.8311 431.557 12.3806 433.008 11.6554C433.733 11.6554 440.26 10.9304 440.26 10.9304L478.696 8.0293H480.872C483.773 8.0293 484.498 10.205 484.498 11.6554C484.498 14.5563 482.322 15.2815 478.696 15.2815C466.367 16.732 454.039 25.435 454.039 35.5882C454.039 42.8404 458.39 47.191 468.543 49.3667C472.169 50.0919 473.62 50.8172 473.62 52.9928C474.345 55.8937 472.894 58.0699 469.994 58.0699ZM463.467 52.2678C465.642 52.993 467.818 53.7188 469.268 53.7188C468.543 53.7188 468.543 53.7188 467.818 53.7188C466.367 52.9935 464.917 52.993 463.467 52.2678ZM434.458 15.2815C434.458 15.2815 435.183 15.2815 435.909 15.2815H439.535C438.084 15.2815 435.909 15.2815 434.458 15.2815ZM469.994 13.1055C469.994 13.1055 470.719 13.1055 469.994 13.1055C469.994 13.8307 469.994 13.8313 469.994 14.5565C472.169 13.8313 475.07 13.1057 477.971 12.3805L469.994 13.1055Z" fill="black"></path><path d="M523.656 30.5113H509.877C505.526 30.5113 504.075 29.0614 504.075 24.7101V10.9309C504.075 10.2056 504.075 9.47989 505.526 9.47989C506.976 9.47989 506.976 10.2056 506.976 10.9309V24.7101C506.976 26.8858 508.427 27.6103 509.877 27.6103H523.656V6.57974C523.656 5.85453 523.656 5.12878 525.106 5.12878C526.557 5.12878 526.557 5.85453 526.557 6.57974V27.6103H540.336C542.511 27.6103 543.236 26.8858 543.236 24.7101V10.9309C543.236 10.2056 543.236 9.47989 544.687 9.47989C546.137 9.47989 546.137 10.2056 546.137 10.9309V24.7101C546.137 29.0614 544.687 30.5113 540.336 30.5113H526.557V54.4437H542.511C544.687 54.4437 545.412 53.7183 545.412 51.5427V39.2144C545.412 38.4892 545.412 37.7634 546.862 37.7634C548.313 37.7634 548.313 38.4892 548.313 39.2144V51.5427C548.313 55.894 546.862 57.3448 542.511 57.3448H506.251C501.9 57.3448 500.449 55.894 500.449 51.5427V39.2144C500.449 38.4892 500.449 37.7634 501.9 37.7634C503.35 37.7634 503.35 38.4892 503.35 39.2144V51.5427C503.35 53.7183 504.801 54.4437 506.251 54.4437H522.205V30.5113H523.656Z" fill="black"></path><path d="M543.966 59.5203H507.706C502.629 59.5203 499.729 57.3448 499.729 51.5429V39.2143C499.729 36.3134 501.179 35.5882 503.355 35.5882C505.53 35.5882 506.981 37.0386 506.981 39.2143V51.5429C506.981 52.2681 506.981 52.993 508.431 52.993H522.935V32.6871H510.607C505.53 32.6871 503.355 30.5116 503.355 24.7097V10.9302C503.355 8.02924 504.805 7.30401 506.981 7.30401C509.156 7.30401 510.607 8.75447 510.607 10.9302V24.7097C510.607 25.435 510.607 26.1598 512.057 26.1598H523.66V7.30401C523.66 4.40309 525.111 3.67786 527.286 3.67786C529.462 3.67786 530.913 5.12832 530.913 7.30401V26.1598H542.516C543.966 26.1598 543.966 26.1602 543.966 24.7097V10.9302C543.966 8.02924 545.417 7.30401 547.592 7.30401C549.768 7.30401 551.218 8.75447 551.218 10.9302V24.7097C551.218 29.7863 549.043 32.6871 543.241 32.6871H530.913V52.993H545.417C546.142 52.993 546.867 52.9934 546.867 51.5429V39.2143C546.867 36.3134 548.317 35.5882 550.493 35.5882C552.669 35.5882 554.119 37.0386 554.119 39.2143V51.5429C551.218 57.3448 549.043 59.5203 543.966 59.5203ZM525.111 55.8941C525.836 55.8941 525.836 55.8941 525.111 55.8941V55.8941ZM525.111 29.786C525.836 30.5112 525.836 29.786 525.836 29.786C525.836 29.0608 525.836 29.0608 525.111 29.786C525.111 29.0608 525.111 29.0608 525.111 29.786Z" fill="black"></path><path d="M573.703 29.0608H567.902C567.176 29.0608 566.451 29.0603 566.451 27.6098C566.451 26.1594 567.902 26.1598 567.902 26.1598H573.703V10.9302H567.902C567.176 10.9302 566.451 10.9297 566.451 9.47922C566.451 8.02877 567.902 8.02913 567.902 8.02913H583.131C583.856 8.02913 584.581 8.02877 584.581 9.47922C584.581 10.9297 583.131 10.9302 583.131 10.9302H576.604V26.1598H581.681C582.406 26.1598 583.131 26.1594 583.131 27.6098C583.131 29.0603 581.681 29.0608 581.681 29.0608H576.604V45.0154C578.78 44.2902 580.955 43.5653 581.681 43.5653C583.131 42.8401 583.856 42.8403 583.856 42.8403C584.581 42.8403 585.307 43.5652 585.307 44.2904C585.307 45.7408 585.307 45.741 580.955 47.1915C575.154 48.6419 567.902 50.0925 567.902 50.0925C567.176 50.0925 566.451 49.3668 566.451 48.6416C566.451 47.1911 567.176 47.1915 567.902 47.1915C569.352 46.4662 572.253 46.4657 574.428 45.7405V29.0608H573.703ZM591.833 39.2142C588.207 39.2142 587.482 37.7632 587.482 34.1371V11.6553C587.482 8.02913 588.933 7.30408 591.833 7.30408H612.864C616.49 7.30408 617.941 8.75435 617.941 11.6553V34.1371C617.941 37.7632 616.49 39.2142 612.864 39.2142H607.788V52.9927C607.788 55.1684 609.238 55.1688 610.689 55.1688C615.04 55.1688 615.765 55.1689 615.765 54.4437C615.765 53.7185 615.765 52.9929 616.49 48.6416C616.49 47.1911 616.491 46.4664 617.941 46.4664C618.666 46.4664 619.391 47.1913 619.391 47.9165C619.391 49.367 618.666 55.1684 617.941 56.6189C617.216 58.0693 616.49 58.0698 609.238 58.0698C606.338 58.0698 604.162 57.3441 604.162 52.9927V39.2142H597.635C596.91 45.016 594.734 51.5425 586.032 55.8938C583.131 57.3443 580.23 58.0698 579.505 58.0698C578.78 58.0698 578.055 57.3443 578.055 55.8938C578.055 55.1686 578.78 54.4437 579.505 54.4437C587.482 52.268 593.284 48.6414 594.734 38.4882H591.833V39.2142ZM590.383 16.7315H614.315V12.3803C614.315 10.9298 613.59 10.2052 612.139 10.2052H592.559C591.108 10.2052 590.383 10.9298 590.383 12.3803V16.7315ZM614.315 19.6325H590.383V26.1598H614.315V19.6325ZM590.383 29.0608V34.1371C590.383 35.5875 591.108 36.3131 592.559 36.3131H612.139C613.59 36.3131 614.315 35.5875 614.315 34.1371V29.0608H590.383Z" fill="black"></path><path d="M579.503 60.2445C577.327 60.2445 575.877 58.7941 575.877 56.6185C575.877 55.8933 575.877 54.4435 578.778 53.7183C586.03 51.5427 591.106 48.6414 592.556 41.3893H591.831C587.48 41.3893 585.304 39.2135 585.304 34.8622V29.0611C585.304 30.5115 583.854 31.2362 581.678 31.2362H578.052V43.5653C579.503 43.5653 580.228 42.8402 580.953 42.8402C583.129 42.115 583.129 42.1143 583.854 42.1143C585.304 42.1143 586.755 43.5647 586.755 45.7403C586.755 48.6412 585.304 48.6419 580.953 50.0923C575.877 51.5427 567.899 52.9924 567.174 52.9924C565.724 52.9924 564.273 51.542 564.273 49.3664C564.273 47.1908 566.449 46.4663 566.449 46.4663C567.899 45.7411 570.075 45.7405 571.526 45.0153V31.2362H567.899C564.999 31.2362 564.273 29.7858 564.273 27.6102C564.273 25.4345 564.999 23.9841 567.899 23.9841H571.526V12.381H567.899C564.999 12.381 564.273 10.9304 564.273 9.47997C564.273 8.02956 564.999 6.57985 567.899 6.57985H583.129C584.579 6.57985 585.304 7.30471 586.03 8.02991C586.755 6.5795 588.93 5.12891 591.831 5.12891H612.862C617.213 5.12891 619.389 7.30471 619.389 11.656V34.1372C619.389 38.4885 617.213 40.6642 612.862 40.6642H609.961V52.2674V52.9924H610.687C612.137 52.9924 613.588 52.9924 614.313 52.9924C614.313 52.2672 614.313 51.5427 614.313 50.0923V48.6414C614.313 47.1909 614.313 44.2903 617.939 44.2903C620.114 44.2903 621.565 45.7407 621.565 47.9163C621.565 47.9163 621.565 55.1688 619.389 57.3444C617.939 59.52 616.488 59.5195 609.236 59.5195C606.335 59.5195 602.709 58.7941 602.709 52.9924V40.6642H599.809C598.358 46.4659 596.182 52.9931 587.48 57.3444C584.579 59.52 580.953 60.2445 579.503 60.2445ZM575.152 46.4663C575.152 47.1915 575.152 47.1915 575.152 46.4663C575.152 47.1915 575.152 47.1915 575.152 46.4663C575.877 47.1915 575.877 47.1915 575.152 46.4663ZM591.831 31.2362V34.8622C591.831 34.8622 591.831 35.5882 592.556 35.5882H612.137C612.137 35.5882 612.862 35.5874 612.862 34.8622V31.2362H591.831ZM574.426 27.6102C574.426 27.6102 575.152 28.3354 574.426 27.6102C575.152 27.6102 575.152 27.6102 575.152 27.6102C575.152 27.6102 575.152 27.6102 574.426 27.6102C574.426 27.6102 575.152 27.6102 574.426 27.6102ZM578.052 24.71H581.678C583.854 24.71 584.579 26.1599 585.304 26.8851V12.381C584.579 12.381 583.854 13.106 583.129 13.106H578.778V24.71H578.052ZM591.831 24.71H612.137V21.809H591.831V24.71ZM591.831 15.282H612.137V12.381V11.656H592.556H591.831V15.282Z" fill="black"></path><path d="M42.1249 313.348H25.4451C24.7199 313.348 23.9948 313.348 23.9948 311.897C23.9948 310.447 25.4451 310.447 25.4451 310.447H42.1249V306.82C42.1249 306.095 42.1248 305.37 43.5752 305.37C45.0256 305.37 45.0257 306.82 45.0257 306.82V323.501C45.0257 324.226 45.0256 325.677 43.5752 325.677C42.1248 325.677 42.1249 324.226 42.1249 324.226V321.325C37.7737 322.05 25.445 324.226 24.7198 324.226C23.9946 324.226 23.2695 323.501 23.2695 322.776C23.2695 321.325 23.9946 321.325 24.7198 321.325C31.2467 320.599 36.3232 319.875 41.3997 318.424V313.348H42.1249ZM34.1476 347.433V357.585C34.1476 358.31 34.1475 359.036 32.6971 359.036C31.2467 359.036 31.2468 358.31 31.2468 357.585V334.379C31.2468 330.027 32.6972 328.577 37.0484 328.577H64.6061C68.9573 328.577 70.4079 330.027 70.4079 334.379V352.509C70.4079 358.31 67.5071 358.311 63.1558 358.311H58.0793C57.3541 358.311 56.629 358.31 56.629 356.86C56.629 355.409 58.0793 355.41 58.0793 355.41C58.8045 355.41 63.8809 355.41 64.6061 355.41C66.0565 355.41 67.5071 355.41 67.5071 352.509V347.433H34.1476V347.433ZM66.0566 336.555V334.379C66.0566 332.203 65.3314 331.478 63.1558 331.478H37.0484C34.8728 331.478 34.1476 332.203 34.1476 334.379V336.555H66.0566ZM34.1476 339.455V344.532H66.7818V339.455H34.1476ZM56.629 319.15C56.629 321.325 58.0794 321.325 59.5298 321.325C70.4079 321.325 71.1329 321.325 71.8582 321.325C72.5834 321.325 73.3087 320.599 73.3087 317.699C73.3087 316.973 73.3087 315.523 74.7592 315.523C75.4844 315.523 76.9347 316.248 76.9347 316.974C76.9347 318.424 76.2094 322.05 75.4842 322.776C74.759 323.501 73.3086 323.501 68.9574 323.501C67.507 323.501 60.9802 323.501 59.5298 323.501C56.629 323.501 54.4533 322.776 54.4533 318.424V306.095C54.4533 305.37 54.4534 304.645 55.9038 304.645C57.3542 304.645 57.354 306.095 57.354 306.095V310.447C60.2549 309.721 65.3315 308.996 71.1331 306.82C72.5835 306.095 73.3087 306.095 74.0339 306.095C74.7591 306.095 75.4842 306.821 75.4842 307.546C75.4842 308.272 74.7592 308.996 71.1331 310.447C65.3315 312.622 60.9801 313.348 57.354 313.348V319.15H56.629Z" fill="black"></path><path d="M31.9679 361.211C31.2427 361.211 28.3419 361.211 28.3419 357.585V334.378C28.3419 329.302 30.5175 326.401 35.594 326.401H40.6705C39.9453 325.676 39.9452 324.95 39.9452 323.5V322.775C34.8688 323.5 25.4411 325.676 24.7159 325.676C22.5403 325.676 21.0898 324.225 21.0898 322.05C21.0898 321.325 21.0898 319.149 24.7159 318.424H26.8916C31.9681 317.698 36.3192 316.973 39.9452 316.248V314.072H25.4411C23.2655 314.072 21.8151 312.621 21.8151 310.445C21.8151 308.995 22.5403 306.819 25.4411 306.819H39.9452V305.369C39.9452 302.468 41.3957 301.743 43.5713 301.743C45.0217 301.743 47.1973 302.468 47.1973 305.369V322.05C47.1973 323.5 46.4721 324.225 46.4721 324.95H63.8772C68.9536 324.95 71.1292 327.126 71.1292 332.928V351.059C71.1292 358.311 66.0527 358.311 61.7014 358.311H56.6251C54.4495 358.311 52.9991 356.861 52.9991 354.685C52.9991 353.234 53.7243 351.059 56.6251 351.059C57.3503 351.059 58.8007 351.059 60.2511 351.059C61.7016 351.059 62.4267 351.059 63.1519 351.059C64.6023 351.059 64.6022 351.058 64.6022 349.608V345.982H35.594V354.685C35.594 359.761 34.1436 361.211 31.9679 361.211ZM67.5032 354.685C67.5032 355.41 66.7779 356.135 66.0527 356.86C66.7779 356.135 67.5032 355.41 67.5032 354.685ZM32.6932 345.257C32.6932 345.982 32.6932 345.982 32.6932 345.257C32.6932 345.982 32.6932 345.982 32.6932 345.257ZM35.594 342.356H64.6022V340.905H35.594V342.356ZM67.5032 338.004C67.5032 337.279 67.5032 338.004 67.5032 338.004V338.004ZM32.6932 337.279C32.6932 338.005 32.6932 338.005 32.6932 337.279C32.6932 338.005 32.6932 337.279 32.6932 337.279ZM35.594 334.378H64.6022C64.6022 332.928 64.6023 332.928 63.1519 332.928H37.0445C36.3193 332.928 35.594 332.928 35.594 334.378ZM58.8006 326.401C56.625 326.401 51.5486 326.401 51.5486 319.874V307.545C51.5486 304.644 52.999 303.919 55.1746 303.919C56.625 303.919 58.8006 304.644 58.8006 307.545V309.72C63.1519 308.995 66.7779 308.27 69.6787 306.819C71.8543 306.094 72.5796 305.369 73.3048 305.369C74.7552 305.369 76.9308 306.82 76.9308 308.995C76.9308 311.171 74.7551 312.621 71.8543 313.347C66.7778 314.797 63.1519 315.522 59.5259 316.248V319.874V320.599H60.2511C68.2284 320.599 71.1291 320.599 71.8543 320.599C71.8543 320.599 71.8543 319.874 71.8543 318.424C71.8543 315.523 74.0299 314.798 75.4803 314.798C77.6559 314.798 79.1063 316.248 79.1063 318.424C79.1063 318.424 79.1064 324.225 76.9308 325.676C75.4804 327.126 74.0299 327.126 68.9535 327.126L58.8006 326.401ZM55.8999 312.622C55.8999 313.347 55.8999 313.347 55.8999 312.622V312.622Z" fill="black"></path><path d="M119.002 327.126H142.934C143.659 327.126 144.384 327.126 144.384 328.576C144.384 330.027 142.934 330.027 142.934 330.027H92.1692C91.444 330.027 90.7188 330.027 90.7188 328.576C90.7188 327.126 92.1692 327.126 92.1692 327.126H116.101V323.5H101.597C97.9708 323.5 97.2456 322.05 97.2456 319.149V312.622C97.2456 308.996 98.696 308.271 101.597 308.271H133.506C137.132 308.271 138.582 309.721 138.582 312.622V319.149C138.582 322.775 137.132 323.5 133.506 323.5H119.002V327.126ZM92.8945 357.585C92.1693 357.585 91.444 356.86 91.444 356.135C91.444 355.409 91.444 355.409 94.3448 353.959C97.9708 352.508 100.872 350.333 103.773 348.157C104.498 347.432 104.498 347.432 105.223 347.432C105.948 347.432 106.673 348.157 106.673 348.882C105.948 350.333 94.3449 357.585 92.8945 357.585ZM119.002 353.959C119.002 355.409 119.002 358.311 116.101 358.311C115.376 358.311 114.651 358.311 108.849 358.311C108.124 358.311 106.673 358.31 106.673 356.135C106.673 354.684 108.124 354.684 108.124 354.684C108.124 354.684 113.2 354.684 113.925 354.684C115.376 354.684 116.101 353.959 116.101 352.508V343.806H102.322C98.6961 343.806 97.2456 342.355 97.2456 339.454V337.279C97.2456 333.653 98.6961 332.928 102.322 332.928H132.781C136.407 332.928 137.132 334.378 137.132 337.279V339.454C137.132 343.08 135.682 343.806 132.781 343.806H119.002V353.959ZM99.4213 313.347H134.956V311.172C134.956 310.447 134.231 309.721 133.506 309.721H100.872C100.146 309.721 99.4213 310.447 99.4213 311.172V313.347ZM99.4213 316.248V319.149C99.4213 319.874 100.146 320.599 100.872 320.599H133.506C134.231 320.599 134.956 319.874 134.956 319.149V316.248H99.4213ZM102.322 335.828C101.597 335.828 100.872 336.554 100.872 337.279V340.18C100.872 340.905 101.597 341.63 102.322 341.63H132.781C133.506 341.63 134.231 340.905 134.231 340.18V337.279C134.231 336.554 133.506 335.828 132.781 335.828H102.322ZM129.88 346.706C130.605 346.706 130.605 346.707 132.056 348.157C136.407 351.783 141.483 353.959 142.934 353.959C143.659 353.959 143.659 354.684 143.659 355.41C143.659 356.135 142.934 356.86 142.208 356.86C140.758 356.86 137.132 354.684 135.682 353.234C132.056 351.058 129.88 349.608 129.155 348.882C128.43 348.157 128.43 348.158 128.43 347.432C128.43 348.158 129.155 346.706 129.88 346.706Z" fill="black"></path><path d="M108.845 360.486C105.219 360.486 104.493 358.31 104.493 356.86C104.493 356.135 104.493 353.234 108.119 353.234C108.119 353.234 111.02 353.234 112.471 353.234H113.196H113.921V345.982H107.394C108.12 346.707 108.119 347.433 108.119 348.158C107.394 351.784 95.066 358.311 92.8903 358.311C90.7147 358.311 89.2643 356.861 89.2643 354.685C89.2643 352.509 90.7147 351.784 92.8903 351.059C96.5164 349.608 98.6919 348.158 101.593 345.982C97.2414 345.982 95.7911 343.806 95.7911 339.455V337.28C95.7911 333.654 97.2414 331.478 100.867 330.753H92.1651C88.5391 330.753 88.5391 327.852 88.5391 327.852C88.5391 326.401 89.2643 324.951 92.1651 324.951H113.921H101.593C97.2414 324.951 95.0659 322.776 95.0659 318.425V311.898C95.0659 307.546 97.2414 305.37 101.593 305.37H133.502C137.853 305.37 140.029 307.546 140.029 311.898V318.425C140.029 322.776 137.853 324.951 133.502 324.951H120.448H142.93C146.556 324.951 146.556 327.852 146.556 327.852C146.556 329.302 145.83 330.753 142.93 330.753H134.227C137.853 331.478 139.303 332.929 139.303 337.28V339.455C139.303 343.806 137.128 345.982 132.777 345.982H132.051L132.777 346.707C137.128 349.608 141.479 351.784 142.93 352.509C143.655 352.509 145.105 353.234 145.105 355.41C145.105 357.586 143.655 359.036 141.479 359.036C140.029 359.036 138.578 358.311 134.227 355.41H133.502C129.15 353.234 127.7 351.784 126.975 351.059C126.25 350.334 125.525 349.608 125.525 348.883C125.525 348.158 125.524 347.432 126.25 346.707H119.723V353.959C119.723 357.585 118.273 359.761 114.647 360.486C115.372 360.486 114.646 360.486 108.845 360.486ZM116.822 355.41C116.822 356.135 116.097 356.135 115.372 356.86C116.097 356.135 116.822 356.135 116.822 355.41ZM102.318 340.181H132.051V337.28H102.318V340.181ZM101.593 318.425H133.502V317.699L101.593 318.425ZM101.593 311.898H133.502H101.593Z" fill="black"></path><path d="M192.965 309.722C195.14 309.722 198.041 309.722 198.041 312.623C198.041 315.523 194.415 319.149 192.239 321.325H201.667C206.018 321.325 207.469 322.776 207.469 327.127V334.379C207.469 338.73 206.018 340.181 201.667 340.181H166.857V351.059C166.857 353.96 169.033 353.96 170.483 353.96H202.392C206.018 353.96 206.744 353.96 207.469 347.433C207.469 345.983 207.469 345.257 208.919 345.257C208.919 345.257 211.095 345.257 211.095 346.707C211.095 347.433 210.37 351.059 209.644 353.235C208.194 357.586 205.293 357.586 201.667 357.586H169.033C164.682 357.586 162.506 357.586 162.506 351.784V327.127C162.506 322.776 163.957 321.325 168.308 321.325H187.163C188.614 319.874 193.69 314.798 193.69 313.348C193.69 312.622 192.965 312.623 192.239 312.623H174.835C169.033 318.424 159.605 324.226 158.88 324.226C158.155 324.226 157.43 322.776 157.43 322.051C157.43 321.326 158.155 320.6 158.88 320.6C162.506 318.424 170.483 314.073 176.285 306.095C177.01 305.37 177.01 304.645 178.461 304.645C179.186 304.645 179.911 305.37 179.911 306.095C179.911 306.821 179.911 306.821 179.186 307.546C178.461 308.272 178.461 308.996 177.735 309.722H192.965V309.722ZM183.537 324.951H169.758C167.582 324.951 166.857 325.676 166.857 327.852V338.73H183.537V324.951V324.951ZM187.163 324.951V338.73H201.667C203.843 338.73 204.568 338.005 204.568 335.829V328.577C204.568 326.401 203.843 325.677 201.667 325.677H187.163V324.951Z" fill="black"></path><path d="M202.391 359.761H169.757C166.131 359.761 161.054 359.761 161.054 351.784V327.126C161.054 326.401 161.054 325.675 161.054 324.95C159.604 325.675 158.879 325.676 158.153 325.676C155.978 325.676 154.527 323.5 154.527 322.05C154.527 319.874 155.978 319.149 156.703 319.149C163.955 315.523 169.757 311.171 173.383 305.369C174.108 304.644 174.833 303.193 177.009 303.193C179.184 303.193 180.635 304.644 180.635 306.094C180.635 306.82 180.635 306.82 180.635 307.545H192.238C194.414 307.545 198.765 307.545 198.765 312.622C198.765 314.797 197.315 316.973 195.139 319.874H200.216C205.292 319.874 208.193 322.049 208.193 327.851V335.103C208.193 340.18 206.017 342.355 200.216 342.355H167.581V351.784C167.581 353.234 167.581 353.234 169.757 353.234H201.666C204.567 353.234 204.567 353.234 205.292 348.158C205.292 346.707 206.017 343.806 208.918 343.806C211.094 343.806 212.544 345.257 212.544 347.433C212.544 348.158 211.819 352.509 211.094 354.685C210.369 359.761 206.017 359.761 202.391 359.761ZM184.986 339.454C185.711 339.454 185.711 339.454 184.986 339.454V339.454ZM188.612 336.554H200.941C201.666 336.554 202.391 336.554 202.391 335.103V327.851C202.391 327.126 202.391 326.401 200.941 326.401H188.612V336.554ZM168.306 336.554H181.36V326.401H169.032C168.306 326.401 167.581 326.401 167.581 327.851V336.554H168.306ZM184.986 323.5C185.711 323.5 185.711 323.5 184.986 323.5V323.5ZM189.337 322.775H190.788C190.788 322.775 190.788 322.775 190.788 322.05V321.324C190.063 322.049 189.337 322.775 189.337 322.775ZM169.757 319.874H187.162C188.612 318.423 190.788 316.248 191.513 314.798H175.558C174.108 316.248 171.932 318.423 169.757 319.874ZM195.139 311.897C195.864 312.622 195.864 313.346 195.864 314.072V314.798C195.864 314.072 196.59 313.347 196.59 313.347C196.59 312.621 196.589 311.897 195.139 311.897ZM176.284 309.721C176.284 310.446 175.558 310.446 175.558 311.171H177.009C176.284 310.446 176.284 310.446 176.284 309.721Z" fill="black"></path><path d="M242.28 320.599C243.73 316.973 244.455 313.347 244.455 309.721C244.455 307.545 244.455 306.819 246.631 306.819C247.356 306.819 248.807 307.545 248.807 308.27C248.807 308.996 248.081 313.347 246.631 319.874C247.356 319.874 248.081 319.874 249.532 319.874C261.86 319.874 262.585 327.126 262.585 334.378C262.585 352.509 257.509 355.41 250.257 355.41C244.455 355.41 244.455 353.959 244.455 353.234C244.455 352.509 245.18 351.784 245.906 351.784H247.356C248.806 351.784 249.532 351.784 250.257 351.784C255.333 351.784 258.959 350.334 258.959 333.653C258.959 327.126 258.234 322.05 249.532 322.05C248.081 322.05 246.631 322.05 245.906 322.05C242.28 338.005 237.928 346.707 234.302 352.509C233.577 353.96 232.852 354.685 232.127 354.685C232.127 354.685 229.951 354.685 229.951 353.234C229.951 352.509 229.951 352.509 231.401 350.333C235.753 343.081 239.379 332.928 242.28 322.775C240.104 322.775 229.951 324.95 229.226 324.95C228.501 324.95 227.775 324.225 227.775 323.5C227.775 322.05 228.501 322.05 230.676 322.05L242.28 320.599ZM269.837 323.5C274.189 330.027 275.639 336.554 275.639 338.005C275.639 339.455 274.914 339.455 273.464 339.455C272.013 339.455 272.013 338.73 272.013 336.554C270.563 330.027 266.937 323.5 261.86 318.424C259.685 316.248 259.685 316.248 259.685 315.523C259.685 314.797 260.41 314.072 261.135 314.072C264.036 314.797 267.662 320.599 269.837 323.5ZM275.639 316.248C275.639 316.973 274.914 317.698 273.464 317.698C272.738 317.698 272.738 317.698 269.837 314.072C269.112 313.346 266.937 311.171 265.486 309.721C264.761 308.995 264.761 308.996 264.761 308.27C264.761 307.545 265.486 306.819 266.211 306.819C269.112 307.545 275.639 315.523 275.639 316.248ZM282.166 311.897C282.166 312.622 281.441 313.347 279.99 313.347C279.265 313.347 279.265 313.347 276.364 309.721C275.639 308.995 273.463 306.82 272.013 305.369C271.288 304.644 271.288 304.644 271.288 303.919C271.288 303.194 272.013 302.468 272.738 302.468C275.639 302.468 282.166 311.171 282.166 311.897Z" fill="black"></path><path d="M248.81 357.586C246.634 357.586 240.832 357.586 240.832 353.234C240.832 351.059 242.283 349.608 243.733 349.608C244.458 349.608 245.183 349.608 245.909 349.608C246.634 349.608 248.084 349.608 248.81 349.608C252.436 349.608 256.062 349.609 256.062 333.653C256.062 327.126 255.336 324.225 248.81 324.225C248.084 324.225 247.359 324.225 246.634 324.225C243.733 336.554 240.107 345.982 235.03 353.959C234.305 355.41 233.58 356.861 231.404 356.861C229.954 356.861 227.778 356.135 227.778 353.234C227.778 351.784 227.778 351.784 229.229 349.608C232.855 343.081 236.481 334.378 239.382 324.95C237.931 324.95 235.756 325.676 234.305 325.676C229.229 326.401 229.229 326.401 229.229 326.401C227.053 326.401 226.328 324.951 226.328 322.775C226.328 319.874 228.504 319.874 231.404 319.149L242.283 317.698C243.008 314.797 243.733 311.897 243.733 308.27C243.733 306.82 244.458 303.919 247.359 303.919C249.535 303.919 250.985 305.37 250.985 307.545C250.985 308.271 250.26 312.621 249.535 316.973C264.039 316.973 264.039 327.126 264.039 333.653C263.313 351.784 258.962 357.586 248.81 357.586ZM243.008 322.775C243.008 323.5 243.008 322.775 243.008 322.775C243.733 322.775 244.458 322.05 245.184 322.05C245.184 322.05 245.184 322.049 245.184 321.324C243.733 322.049 243.733 322.05 243.008 322.775ZM273.467 341.631C270.566 341.631 270.566 339.455 269.84 337.28C268.39 330.753 265.489 324.951 260.413 319.874C258.237 317.698 257.512 316.973 257.512 316.248C257.512 314.797 258.962 312.622 261.138 312.622C264.764 312.622 269.841 320.599 270.566 322.05C274.917 328.577 276.367 335.829 276.367 337.28C277.092 340.181 275.642 341.631 273.467 341.631ZM273.467 319.874C272.016 319.874 271.291 319.149 269.115 316.248L268.39 315.523C267.665 314.797 265.489 312.622 264.764 311.171C264.039 310.446 263.314 309.721 263.314 308.995C263.314 307.545 264.764 305.369 266.94 305.369C269.841 305.369 277.093 314.797 277.093 316.248C277.093 318.423 275.642 319.874 273.467 319.874ZM279.993 315.523C278.543 315.523 277.818 314.798 274.917 311.171C274.192 310.446 272.016 308.27 271.291 306.819C270.566 306.094 270.566 305.369 270.566 304.644C270.566 302.469 272.016 301.018 274.192 301.018C277.093 301.018 284.345 309.721 284.345 311.897C283.619 313.347 282.169 315.523 279.993 315.523Z" fill="black"></path><path d="M303.196 357.585C303.196 358.31 303.196 359.036 301.746 359.036C300.295 359.036 300.295 358.31 300.295 357.585V325.677C298.845 327.852 297.394 330.027 295.944 332.203C295.219 332.928 295.219 332.929 294.493 332.929C293.768 332.929 293.043 332.203 293.043 330.753C293.043 330.027 293.768 329.303 293.768 329.303C298.845 323.501 303.196 315.523 306.097 306.821C306.097 306.095 306.822 305.37 307.547 305.37C308.272 305.37 309.723 306.095 309.723 306.821C309.723 307.546 307.547 314.798 303.921 320.6V357.585H303.196ZM327.853 357.585C327.853 358.31 327.853 359.036 326.403 359.036C324.952 359.036 324.952 358.31 324.952 357.585V344.532H315.524C311.173 344.532 309.723 343.081 309.723 338.73V319.875C309.723 315.523 311.173 314.073 315.524 314.073H324.952V306.821C324.952 306.095 324.952 305.37 326.403 305.37C327.853 305.37 327.853 306.095 327.853 306.821V314.073H338.006C342.357 314.073 343.807 315.523 343.807 319.875V338.73C343.807 343.081 342.357 344.532 338.006 344.532H327.853V357.585ZM311.898 328.577H324.227V317.699H314.799C312.624 317.699 311.898 318.424 311.898 320.6V328.577ZM311.898 330.753V338.73C311.898 340.905 312.624 341.631 314.799 341.631H324.227V330.753H311.898ZM340.907 328.577V320.6C340.907 318.424 340.181 317.699 338.006 317.699H327.853V328.577H340.907ZM327.853 342.356H338.006C340.181 342.356 340.907 341.63 340.907 339.455V331.478H327.853V342.356V342.356Z" fill="black"></path><path d="M326.399 361.211C324.949 361.211 322.773 360.486 322.773 357.585V346.707H314.796C309.719 346.707 306.819 344.531 306.819 338.729V319.874C306.819 314.797 308.994 311.897 314.796 311.897H322.773V306.094C322.773 303.193 324.223 302.468 326.399 302.468C328.575 302.468 330.025 303.919 330.025 306.094V311.897H338.728C343.804 311.897 345.98 314.072 345.98 319.874V338.729C345.98 343.806 343.804 346.707 338.728 346.707H330.025V357.585C329.3 361.211 327.124 361.211 326.399 361.211ZM325.674 343.806C326.399 343.806 326.399 343.806 326.399 343.806C326.399 343.806 326.399 343.081 325.674 343.806C325.674 343.806 325.674 343.081 325.674 343.806ZM329.3 340.18H337.277C338.002 340.18 338.728 340.18 338.728 338.729V332.202H329.3V340.18ZM314.071 332.928V339.454C314.071 340.18 314.07 340.905 315.521 340.905H322.773V333.653H314.071V332.928ZM325.674 329.302C325.674 330.027 325.674 330.027 325.674 329.302C326.399 329.302 326.399 329.302 326.399 329.302C326.399 329.302 326.399 329.302 325.674 329.302ZM311.17 329.302C311.17 330.027 311.17 330.027 311.17 329.302V329.302ZM341.628 329.302C341.628 330.027 341.628 330.027 341.628 329.302V329.302ZM329.3 326.401H338.728V319.874C338.728 318.423 338.727 318.424 337.277 318.424H329.3V326.401ZM314.071 326.401H322.773V319.149H315.521C314.796 319.149 314.071 319.148 314.071 320.599V326.401ZM325.674 315.523C325.674 316.248 325.674 316.248 325.674 315.523C326.399 315.523 326.399 315.523 326.399 315.523C326.399 315.523 326.399 315.523 325.674 315.523ZM301.742 361.211C299.566 361.211 298.116 359.761 298.116 357.585V330.752C297.391 331.477 297.391 332.202 296.665 332.202C295.94 332.927 295.215 333.653 293.765 333.653C291.589 333.653 290.139 331.478 290.139 330.027C290.139 328.577 290.864 327.851 291.589 327.126C296.666 321.324 301.017 313.347 303.918 305.369C304.643 303.919 305.368 303.193 306.819 303.193C308.269 303.193 310.445 304.644 310.445 306.819C310.445 308.27 307.544 315.522 304.643 320.599V357.585C305.368 361.211 302.467 361.211 301.742 361.211ZM300.292 324.225C301.017 324.225 301.742 324.95 301.742 324.95V321.324C301.017 322.049 300.292 322.775 300.292 324.225C299.566 324.225 299.566 324.225 300.292 324.225Z" fill="black"></path><path d="M401.826 335.829C401.826 350.333 393.123 356.86 382.245 356.86C371.367 356.86 364.115 349.609 364.115 340.181C364.115 335.104 365.565 326.401 376.444 315.523C369.192 316.248 364.115 316.248 364.115 316.248C363.39 316.248 361.939 316.248 361.939 314.798C361.939 313.347 362.665 313.347 366.291 313.347C369.192 313.347 372.818 313.347 376.444 312.622C377.169 312.622 380.795 311.897 380.795 311.897C382.245 311.897 382.245 312.621 382.245 313.347C382.245 314.072 382.245 314.072 380.795 315.523C372.818 322.05 367.016 331.477 367.016 339.455C367.016 347.432 372.818 353.234 381.52 353.234C394.574 353.234 397.475 342.356 397.475 335.104C397.475 331.477 396.749 323.5 393.123 314.798C393.123 314.072 391.673 311.171 391.673 310.446C391.673 309.72 392.398 308.996 393.849 308.996C394.574 308.996 394.574 308.996 396.024 311.897C399.65 317.698 405.452 322.775 411.254 327.126C411.979 327.851 411.979 327.851 411.979 328.576C411.979 329.302 411.254 330.027 410.528 330.027C409.803 330.027 409.078 330.027 407.628 327.851C404.002 324.95 401.101 321.324 398.2 317.698C400.375 322.774 401.826 328.576 401.826 335.829ZM406.177 311.172C406.902 312.622 409.078 315.523 409.078 316.248C409.078 316.973 408.353 317.698 407.628 317.698C406.902 317.698 406.177 317.698 404.727 314.072C404.002 313.347 401.826 308.996 401.101 308.27V307.545C401.101 307.545 401.101 306.094 403.276 306.094C402.551 306.82 403.276 306.82 406.177 311.172ZM413.429 307.545C414.154 308.996 416.33 311.896 416.33 312.622C416.33 313.347 415.605 314.072 414.154 314.072C413.429 314.072 413.429 314.072 411.254 310.446C410.528 309.72 407.628 305.37 407.628 304.644V303.919C407.628 303.194 408.353 302.468 409.803 302.468C410.528 303.193 411.979 305.37 413.429 307.545Z" fill="black"></path><path d="M382.974 358.311C371.37 358.311 362.668 350.333 362.668 339.454C362.668 332.202 365.569 324.95 372.096 316.973C367.019 317.698 364.843 317.698 364.118 317.698C361.943 317.698 360.492 316.247 360.492 314.072C360.492 310.445 362.668 310.445 366.294 310.445C369.195 310.445 372.821 310.446 376.447 309.72C377.172 309.72 377.897 309.72 378.622 309.72C380.073 309.72 380.798 309.72 381.523 309.72C383.699 309.72 385.149 311.171 385.149 313.346C385.149 314.797 384.424 315.522 382.974 316.973C374.996 322.774 369.92 332.202 369.92 339.454C369.92 346.706 374.996 351.784 382.974 351.784C395.302 351.784 397.478 341.63 397.478 335.828C397.478 332.927 396.753 324.95 393.127 316.248V315.522C391.676 313.347 391.676 312.622 391.676 311.171C391.676 309.721 393.126 307.545 395.302 307.545C396.752 307.545 397.478 308.27 398.928 310.445C402.554 315.522 406.905 320.599 413.432 325.676C414.157 326.401 414.883 327.125 414.883 328.576C414.883 330.752 413.432 332.202 411.257 332.202C409.806 332.202 409.081 331.477 406.905 330.027C405.455 328.576 404.005 327.126 402.554 326.401C403.279 329.302 403.279 332.202 403.279 335.828C404.005 352.508 393.127 358.311 382.974 358.311ZM395.302 312.621C395.302 312.621 395.302 313.346 396.027 313.346L396.753 314.072C397.478 314.797 397.478 316.247 398.203 316.973C398.203 316.973 398.203 316.973 398.928 316.248C397.478 315.522 396.027 314.797 395.302 312.621C395.302 313.347 395.302 313.347 395.302 312.621ZM377.897 314.072C378.622 314.072 378.622 314.797 377.897 314.072C378.622 314.797 378.622 315.522 378.622 315.522C379.348 314.797 379.347 314.797 380.073 314.072C380.073 314.072 380.798 314.072 380.798 313.346C380.073 313.346 380.073 313.346 379.348 313.346C378.622 314.072 378.622 314.072 377.897 314.072ZM407.631 319.874C405.455 319.874 405.455 319.149 403.279 315.522L402.554 314.072C401.829 312.621 400.379 310.446 399.653 309.72C399.653 309.72 398.928 308.996 398.928 307.545C398.928 306.095 399.653 303.919 402.554 303.919C404.005 303.919 404.73 304.644 408.356 309.72C409.081 311.171 411.982 314.072 411.982 316.248C411.257 318.423 409.081 319.874 407.631 319.874ZM414.883 316.248C412.707 316.248 412.707 315.522 410.531 312.621V311.896C410.531 311.171 409.081 310.446 408.356 308.995C407.631 307.545 406.905 306.819 406.905 306.094C406.905 306.094 406.18 305.37 406.18 303.919C406.18 303.194 406.905 301.743 407.631 301.743C408.356 301.018 409.081 301.018 410.531 301.018C411.982 301.018 413.432 303.193 415.608 306.094V306.819C417.784 309.72 419.234 311.896 419.234 313.346C418.509 314.797 416.333 316.248 414.883 316.248Z" fill="black"></path><path d="M432.286 317.698C431.56 317.698 430.835 317.698 430.835 317.698C429.385 317.698 429.385 316.974 429.385 315.523C429.385 314.073 430.11 314.072 430.835 314.072C430.835 314.072 436.637 313.347 437.362 313.347L476.523 310.446H478.699C479.424 310.446 480.149 310.447 480.149 312.622C480.149 314.073 479.424 314.073 476.523 314.798C464.195 316.249 449.69 324.951 449.69 337.28C449.69 345.257 455.492 350.334 465.645 352.509C469.271 353.234 469.271 353.235 469.271 354.685C469.271 354.685 469.271 356.86 467.095 356.86C465.645 356.86 460.569 355.41 456.943 353.959C454.042 352.509 445.339 348.158 445.339 337.28C445.339 327.127 452.591 319.149 464.92 314.072L432.286 317.698Z" fill="black"></path><path d="M466.366 358.311C464.19 358.311 459.114 356.86 455.488 355.41C445.335 351.058 443.16 343.081 443.16 337.279C443.16 329.302 447.511 322.775 455.488 316.973L433.007 319.149C432.282 319.149 431.556 319.149 430.831 319.149C428.655 319.149 427.205 317.699 427.205 315.523C427.205 314.798 427.205 312.622 429.381 311.897C430.106 311.897 436.633 311.172 436.633 311.172L475.068 308.271H477.244C480.145 308.271 480.87 310.447 480.87 311.897C480.87 314.798 478.694 315.523 475.068 315.523C462.74 316.973 450.412 325.675 450.412 335.828C450.412 343.081 454.763 347.432 464.916 349.608C468.542 350.333 469.992 351.058 469.992 353.234C469.992 356.134 468.542 358.311 466.366 358.311ZM459.839 353.234C462.015 353.959 464.19 354.685 465.641 354.685C464.916 354.685 464.915 354.685 464.19 354.685C462.74 353.959 461.289 353.234 459.839 353.234ZM430.831 315.523C430.831 315.523 431.556 315.523 432.282 315.523H435.908C434.457 315.523 431.556 315.523 430.831 315.523ZM466.366 313.347C466.366 314.072 466.366 314.073 466.366 314.798C468.542 314.073 471.442 313.347 474.343 312.622L466.366 313.347ZM477.244 311.897C477.244 312.622 477.244 312.622 477.244 311.897C476.519 312.622 477.244 312.622 477.244 311.897C477.244 311.897 477.244 312.622 477.244 311.897Z" fill="black"></path><path d="M520.031 331.478H506.252C501.901 331.478 500.45 330.028 500.45 325.677V311.898C500.45 311.172 500.45 310.447 501.901 310.447C503.351 310.447 503.351 311.172 503.351 311.898V325.677C503.351 327.852 504.802 328.577 506.252 328.577H520.031V307.547C520.031 306.821 520.031 306.096 521.481 306.096C522.932 306.096 522.932 306.821 522.932 307.547V328.577H536.711C538.886 328.577 539.611 327.852 539.611 325.677V311.898C539.611 311.172 539.611 310.447 541.062 310.447C542.512 310.447 542.512 311.172 542.512 311.898V325.677C542.512 330.028 541.062 331.478 536.711 331.478H522.932V355.41H538.886C541.062 355.41 541.787 354.684 541.787 352.509V340.181C541.787 339.456 541.787 338.73 543.237 338.73C544.688 338.73 544.688 339.456 544.688 340.181V352.509C544.688 356.86 543.237 358.311 538.886 358.311H502.626C498.275 358.311 496.824 356.86 496.824 352.509V340.181C496.824 339.456 496.824 338.73 498.275 338.73C499.725 338.73 499.725 339.456 499.725 340.181V352.509C499.725 354.684 501.176 355.41 502.626 355.41H518.58V331.478H520.031Z" fill="black"></path><path d="M539.614 359.761H503.354C498.278 359.761 495.377 357.585 495.377 351.784V339.454C495.377 336.553 496.827 335.828 499.003 335.828C501.179 335.828 502.629 337.278 502.629 339.454V351.784C502.629 352.509 502.629 353.234 504.079 353.234H518.583V332.928H506.255C501.179 332.928 499.003 330.751 499.003 324.95V311.171C499.003 308.27 500.453 307.545 502.629 307.545C504.805 307.545 506.255 308.995 506.255 311.171V324.95C506.255 325.675 506.255 326.401 507.705 326.401H519.309V307.545C519.309 304.644 520.759 303.919 522.935 303.919C525.11 303.919 526.561 305.369 526.561 307.545V326.401H538.164C539.614 326.401 539.614 326.4 539.614 324.95V311.171C539.614 308.27 541.065 307.545 543.24 307.545C545.416 307.545 546.866 308.995 546.866 311.171V324.95C546.866 330.026 544.691 332.928 538.889 332.928H526.561V353.234H541.065C541.79 353.234 542.515 353.234 542.515 351.784V339.454C542.515 336.553 543.966 335.828 546.141 335.828C548.317 335.828 549.767 337.278 549.767 339.454V351.784C546.867 357.585 544.691 359.761 539.614 359.761ZM520.759 330.027C520.759 330.027 521.484 330.027 520.759 330.027C521.484 330.752 521.484 330.027 521.484 330.027C521.484 329.301 521.484 329.301 520.759 330.027C520.759 329.301 521.484 329.301 520.759 330.027Z" fill="black"></path><path d="M569.354 329.302H563.552C562.827 329.302 562.102 329.302 562.102 327.851C562.102 326.401 563.552 326.401 563.552 326.401H569.354V311.172H563.552C562.827 311.172 562.102 311.171 562.102 309.721C562.102 308.27 563.552 308.271 563.552 308.271H578.781C579.507 308.271 580.232 308.27 580.232 309.721C580.232 311.171 578.781 311.172 578.781 311.172H572.254V326.401H577.331C578.056 326.401 578.781 326.401 578.781 327.851C578.781 329.302 577.331 329.302 577.331 329.302H572.254V345.256C574.43 344.531 576.606 343.806 577.331 343.806C578.781 343.081 579.506 343.08 579.506 343.08C580.232 343.08 580.957 343.806 580.957 344.531C580.957 345.982 580.957 345.982 576.606 347.432C570.804 348.883 563.552 350.333 563.552 350.333C562.827 350.333 562.102 349.608 562.102 348.882C562.102 347.432 562.827 347.432 563.552 347.432C565.002 346.707 567.903 346.707 570.079 345.981V329.302H569.354ZM587.484 339.454C583.858 339.454 583.132 338.004 583.132 334.378V311.897C583.132 308.271 584.583 307.546 587.484 307.546H608.515C612.141 307.546 613.591 308.996 613.591 311.897V334.378C613.591 338.004 612.141 339.454 608.515 339.454H603.438V353.234C603.438 355.409 604.889 355.41 606.339 355.41C610.69 355.41 611.416 355.41 611.416 354.684C611.416 353.959 611.415 353.234 612.141 348.882C612.141 347.432 612.141 346.706 613.591 346.706C614.316 346.706 615.042 347.432 615.042 348.157C615.042 349.608 614.316 355.409 613.591 356.86C612.866 358.31 612.141 358.311 604.889 358.311C601.988 358.311 599.812 357.585 599.812 353.234V339.454H593.285C592.56 345.256 590.385 351.783 581.682 356.135C578.781 357.585 575.881 358.311 575.155 358.311C574.43 358.311 573.705 357.585 573.705 356.135C573.705 355.409 574.43 354.684 575.155 354.684C583.133 352.509 588.934 348.882 590.384 338.729H587.484V339.454ZM586.033 317.698H609.965V313.347C609.965 311.896 609.24 311.172 607.79 311.172H588.209C586.759 311.172 586.033 311.896 586.033 313.347V317.698ZM609.965 319.874H586.033V326.401H609.965V319.874ZM586.033 329.302V334.378C586.033 335.829 586.759 336.554 588.209 336.554H607.79C609.24 336.554 609.965 335.829 609.965 334.378V329.302H586.033Z" fill="black"></path><path d="M575.151 360.486C572.976 360.486 571.525 359.036 571.525 356.86C571.525 356.135 571.525 354.684 574.426 353.959C581.678 351.783 586.755 348.883 588.205 341.631H587.48C583.128 341.631 580.953 339.455 580.953 335.104V329.303C580.953 330.753 579.502 331.478 577.327 331.478H573.701V343.807C575.151 343.807 575.876 343.081 576.602 343.081C578.777 342.356 578.777 342.356 579.502 342.356C580.953 342.356 582.403 343.806 582.403 345.982C582.403 348.883 580.953 348.883 576.602 350.333C571.525 351.783 563.548 353.959 562.823 353.959C561.372 353.959 559.922 352.509 559.922 350.333C559.922 348.157 562.097 347.433 562.097 347.433C563.548 346.708 565.724 346.707 567.174 345.982V332.203H563.548C560.647 332.203 559.922 330.752 559.922 328.577C559.922 326.401 560.647 324.951 563.548 324.951H567.174V313.348H563.548C560.647 313.348 559.922 311.897 559.922 310.447C559.922 308.996 560.647 307.547 563.548 307.547H578.777C580.228 307.547 580.953 308.271 581.678 308.997C582.403 306.821 584.579 306.096 587.48 306.096H608.511C612.862 306.096 615.038 308.271 615.038 312.623V335.104C615.038 339.455 612.862 341.631 608.511 341.631H605.61V353.234V353.959H606.335C607.786 353.959 609.236 353.959 609.961 353.959C609.961 353.234 609.961 352.509 609.961 351.059V349.608C609.961 348.158 609.961 345.257 613.587 345.257C615.763 345.257 617.213 346.707 617.213 348.883C617.213 349.608 617.213 356.135 615.038 358.311C613.587 360.487 612.137 360.486 604.885 360.486C601.984 360.486 598.358 359.761 598.358 353.959V341.631H595.457C594.007 347.433 591.831 353.96 583.128 358.311C580.228 359.761 576.602 360.486 575.151 360.486ZM570.8 346.707C570.8 347.432 570.8 347.432 570.8 346.707C570.8 347.432 571.525 347.432 570.8 346.707C571.525 347.432 571.525 347.432 570.8 346.707C570.8 347.432 571.525 347.432 570.8 346.707ZM587.48 331.478V335.104V335.829H607.06C607.06 335.829 607.786 335.829 607.786 335.104V331.478H587.48ZM570.075 327.852C570.8 328.577 570.8 328.577 570.075 327.852C570.8 327.852 570.8 327.852 570.8 327.852C571.525 327.852 570.8 327.852 570.075 327.852C570.8 327.852 570.8 327.852 570.075 327.852ZM574.426 324.951H578.052C580.228 324.951 580.953 326.402 581.678 327.127V312.623C580.953 312.623 580.228 313.348 579.502 313.348H575.151V324.951H574.426ZM587.48 324.951H607.786V322.051H587.48V324.951ZM587.48 315.524H607.786V312.623C607.786 312.623 607.786 312.623 607.786 311.898H588.205L587.48 312.623V315.524Z" fill="black"></path><path d="M643.316 33.5137H0.316406V76.5137H643.316V33.5137Z" fill="#040000"></path></svg> 