<?xml version="1.0" encoding="UTF-8"?> <svg xmlns="http://www.w3.org/2000/svg" width="269" height="117" viewBox="0 0 269 117" fill="none"><path d="M141.433 26.6112C140.598 26.6112 140.042 25.776 140.042 25.2193C140.042 25.2193 140.042 24.6625 140.32 23.549C140.598 22.7138 141.155 22.4355 141.99 22.4355C142.825 22.7138 143.104 23.2706 143.104 24.1057C142.825 24.6625 142.825 25.2193 142.825 25.2193C142.825 26.0544 142.269 26.6112 141.433 26.6112Z" fill="black"></path><path d="M145.609 17.9813C145.331 17.9813 145.053 17.9813 144.774 17.7029C144.217 17.1462 144.217 16.311 144.774 15.7543C145.331 14.9191 146.166 14.3624 147.001 13.8056C147.558 13.2488 148.393 13.5272 148.95 14.084C149.507 14.6407 149.229 15.4759 148.672 16.0326C148.115 16.5894 147.28 17.1462 146.723 17.7029C146.166 17.9813 145.888 17.9813 145.609 17.9813Z" fill="black"></path><path d="M205.185 29.6734C204.628 29.6734 204.071 29.395 203.793 28.8382C203.515 28.0031 203.236 27.1679 202.679 26.3328C202.401 25.776 202.679 24.9409 203.236 24.3841C203.793 24.1057 204.628 24.3841 205.185 24.9409C205.742 25.776 206.02 26.6112 206.298 27.4463C206.577 28.2815 206.298 28.8382 205.463 29.1166C205.463 29.6734 205.185 29.6734 205.185 29.6734ZM199.06 20.4868C198.782 20.4868 198.225 20.4868 198.225 20.2084C197.668 19.6516 196.833 19.0949 196.276 18.5381C195.441 17.9813 195.441 17.1462 195.998 16.311C196.555 15.7543 197.39 15.4759 197.947 16.0327C198.782 16.5894 199.339 17.4246 200.174 17.9813C200.731 18.5381 200.731 19.3732 200.174 19.93C199.895 20.4868 199.339 20.4868 199.06 20.4868ZM189.873 14.6407C189.595 14.6407 189.595 14.6407 189.317 14.6407C188.482 14.3624 187.646 14.084 186.811 13.8056C185.976 13.5272 185.698 12.6921 185.976 12.1353C186.254 11.3002 187.09 11.0218 187.646 11.3002C188.481 11.5785 189.595 11.8569 190.43 12.4137C191.265 12.6921 191.544 13.5272 191.265 14.3624C190.987 14.084 190.43 14.6407 189.873 14.6407ZM154.796 12.1353C154.24 12.1353 153.683 11.8569 153.404 11.3002C153.126 10.465 153.683 9.90824 154.24 9.62986C155.075 9.35148 155.91 9.07309 157.023 8.79471C157.859 8.51633 158.415 9.07309 158.694 9.90824C158.972 10.7434 158.415 11.3002 157.58 11.5785C156.745 11.8569 155.91 12.1353 155.075 12.4137C155.075 12.1353 154.796 12.1353 154.796 12.1353ZM179.295 11.5785C178.738 11.5785 178.181 11.3002 177.903 11.3002L176.511 11.0218C175.676 11.0218 175.119 10.1866 175.397 9.35148C175.397 8.51633 176.232 7.95956 177.068 8.23795L178.459 8.51633C179.016 8.51633 179.295 8.51633 179.851 8.79471C180.687 8.79471 181.243 9.62986 180.965 10.465C180.687 11.0218 180.13 11.5785 179.295 11.5785ZM165.654 10.465C164.818 10.465 164.262 9.90824 164.262 9.07309C164.262 8.23795 164.818 7.68118 165.654 7.68118C166.21 7.68118 167.045 7.68118 167.602 7.68118H168.437C169.273 7.68118 169.829 8.23795 169.829 9.07309C169.829 9.90824 169.273 10.465 168.437 10.465H167.602C166.767 10.465 166.21 10.465 165.654 10.465Z" fill="black"></path><path d="M207.134 39.1384C206.298 39.1384 205.742 38.5816 205.742 37.7465C205.742 37.1897 205.742 36.9113 205.742 36.3546C205.742 35.5194 206.298 34.9626 206.855 34.6843C207.69 34.6843 208.247 35.241 208.526 35.7978C208.526 36.3546 208.526 36.6329 208.526 37.1897C208.526 38.3032 207.969 39.1384 207.134 39.1384Z" fill="black"></path><path d="M197.947 34.4059L206.02 50.8304L216.042 35.5194L197.947 34.4059Z" fill="black"></path><path d="M17.2712 12.6921V2.94867C17.2712 2.11353 17.8279 1.83514 18.3847 1.83514C18.9415 1.83514 19.4983 2.11353 19.4983 2.94867V26.0544C19.4983 26.8895 18.9415 27.1679 18.3847 27.1679C17.5496 26.8895 17.2712 26.6112 17.2712 26.0544V14.6407H3.90845V26.0544C3.90845 26.8895 3.35167 27.1679 2.79489 27.1679C2.23811 26.8895 1.95972 26.6112 1.95972 26.0544V2.94867C1.95972 2.11353 2.5165 1.83514 3.07328 1.83514C3.63006 1.83514 4.18684 2.11353 4.18684 2.94867V12.6921H17.2712Z" fill="black"></path><path d="M18.1066 28.0031C16.9931 28.0031 16.1579 27.1679 16.1579 26.0544V15.7543H5.02229V26.0544C5.02229 27.4463 3.90873 28.0031 3.07356 28.0031C1.68161 28.0031 0.846436 27.1679 0.846436 26.0544V2.94868C0.846436 1.83515 1.68161 1 2.79517 1C3.90873 1 4.7439 1.83515 4.7439 2.94868V11.5785H15.8795V2.94868C16.1579 1.83515 17.2714 1 18.1066 1C19.2202 1 20.0553 1.83515 20.0553 2.94868V26.0544C20.3337 27.4463 19.2202 28.0031 18.1066 28.0031Z" fill="black"></path><path d="M39.2644 2.11353C46.2241 2.11353 51.7919 7.40279 51.7919 14.6407C51.7919 21.8787 46.5025 27.1679 39.2644 27.1679C32.3046 27.1679 26.7368 21.8787 26.7368 14.6407C26.7368 7.40279 32.0262 2.11353 39.2644 2.11353ZM39.2644 25.2193C45.1106 25.2193 49.8432 20.4868 49.8432 14.6407C49.5648 8.51632 45.1106 3.78382 39.2644 3.78382C33.4182 3.78382 28.6855 8.51632 28.6855 14.3623C28.6855 20.2084 33.1398 25.2193 39.2644 25.2193Z" fill="black"></path><path d="M39.2643 28.0031C31.4694 28.0031 25.9016 22.1571 25.9016 14.3623C25.9016 6.56765 31.4694 1 39.2643 1C47.0593 1 52.6271 6.84603 52.6271 14.6407C52.6271 22.4354 46.7809 28.0031 39.2643 28.0031ZM39.2643 4.89735C33.9749 4.89735 29.7991 9.07309 29.7991 14.6407C29.7991 20.2084 33.9749 24.3841 39.2643 24.3841C44.5537 24.3841 48.7296 20.2084 48.7296 14.6407C48.7296 9.07309 44.2754 4.89735 39.2643 4.89735Z" fill="black"></path><path d="M78.5168 4.0622C79.0736 2.39191 79.3519 2.11353 80.7439 2.11353C82.4142 2.11353 82.4142 3.50544 82.6926 4.34058L85.7549 25.776C85.7549 26.3328 85.7549 26.3328 85.7549 26.3328C85.7549 26.8895 85.4765 27.1679 84.6414 27.1679C83.8062 27.1679 83.8062 26.6112 83.5278 26.0544L80.4655 3.78382L73.2274 25.4976C72.949 26.0544 72.6706 26.8895 71.557 26.8895C70.4435 26.8895 70.1651 26.3328 69.8867 25.4976L62.6485 3.78382L59.5863 25.776C59.5863 26.3328 59.3079 26.8895 58.4727 26.8895C57.9159 26.8895 57.3591 26.3328 57.3591 26.0544C57.3591 26.0544 57.3591 25.776 57.3591 25.4976L60.4214 4.0622C60.4214 3.22706 60.6998 1.83514 62.3702 1.83514C63.7621 1.83514 64.0405 2.39191 64.5973 3.78382L71.557 24.9409L78.5168 4.0622Z" fill="black"></path><path d="M71.5573 28.5598L71.2789 28.0031C69.6086 28.0031 69.0518 26.8896 68.7734 25.776L62.9272 8.23794L60.4217 26.0544C60.1433 27.4463 59.5865 28.0031 58.473 28.0031C57.081 28.0031 56.2458 27.1679 56.2458 26.0544C56.2458 25.776 56.2458 25.776 56.2458 25.2193L59.3081 3.78382C59.3081 2.94868 59.8649 0.721619 62.3704 0.721619C64.3192 0.721619 64.8759 1.83515 65.4327 3.50544L71.5573 21.6003L77.6819 3.78382C78.2387 2.11353 78.7954 1 80.7442 1C83.2497 1 83.5281 3.22706 83.8064 4.06221L86.8687 25.4976C86.8687 26.0544 86.8687 26.0544 86.8687 26.0544C86.8687 26.8896 86.0336 28.0031 84.92 28.0031C83.8064 28.0031 82.9713 27.4463 82.9713 26.0544L80.4658 8.51632L74.6196 26.0544C74.3412 26.6112 74.0628 28.2815 72.1141 28.2815L71.5573 28.5598ZM79.909 3.50544L81.3009 3.78382C81.0226 3.22706 81.0226 3.22706 80.4658 3.22706C80.1874 3.22706 80.1874 3.22706 79.909 3.50544ZM62.3704 3.22706C62.092 3.22706 61.8136 3.22706 61.5353 3.78382H63.2056C62.9272 3.22706 62.9272 3.22706 62.3704 3.22706Z" fill="black"></path><path d="M104.686 13.2488C105.521 13.2488 105.521 13.8056 105.521 14.084C105.521 14.6407 105.242 14.9191 104.686 14.9191H94.3853V23.549C94.3853 24.6625 94.6636 24.6625 95.4988 24.6625H106.356C107.191 24.6625 107.191 25.2193 107.191 25.4976C107.191 26.0544 106.913 26.3328 106.356 26.3328H95.2204C92.4365 26.3328 92.4365 24.3841 92.4365 23.2706V5.45411C92.4365 4.34058 92.4365 2.39191 95.2204 2.39191H105.799C106.634 2.39191 106.634 2.94867 106.634 3.22705C106.634 3.78382 106.356 4.0622 105.799 4.0622H95.4988C94.6636 4.0622 94.3853 4.34058 94.3853 5.17573V12.6921H104.686V13.2488Z" fill="black"></path><path d="M106.356 27.4463H95.2207C93.5504 27.4463 91.3232 26.6112 91.3232 23.2706V5.45412C91.3232 2.67029 92.7152 1.27838 95.2207 1.27838H105.8C107.191 1.27838 107.748 2.39191 107.748 3.22706C107.748 4.34059 106.913 5.17573 105.8 5.17573H95.4991C95.4991 5.17573 95.4991 5.17573 95.2207 5.17573C95.2207 5.17573 95.2207 5.17573 95.2207 5.45412V12.1353H104.686C105.8 12.1353 106.635 12.9704 106.635 14.084C106.635 15.1975 105.8 16.0326 104.686 16.0326H95.2207V23.549C95.2207 23.549 95.2207 23.549 95.2207 23.8273C95.2207 23.8273 95.2207 23.8273 95.4991 23.8273H106.356C107.748 23.8273 108.305 24.6625 108.305 25.776C108.305 26.6112 107.47 27.4463 106.356 27.4463ZM93.8288 3.78382C93.5504 3.78382 93.5504 4.0622 93.5504 4.34059C93.5504 4.0622 93.8288 4.0622 93.8288 3.78382Z" fill="black"></path><path d="M175.954 85.9066V76.1632C175.954 75.3281 176.511 75.0497 177.067 75.0497C177.624 75.0497 178.181 75.3281 178.181 76.1632V99.2689C178.181 100.104 177.624 100.382 177.067 100.382C176.511 100.382 175.954 100.104 175.954 99.2689V87.8553H162.591V99.2689C162.591 100.104 162.034 100.382 161.478 100.382C160.921 100.382 160.364 100.104 160.364 99.2689V76.1632C160.364 75.3281 160.921 75.0497 161.478 75.0497C162.034 75.0497 162.591 75.3281 162.591 76.1632V85.9066H175.954Z" fill="black"></path><path d="M177.067 101.218C175.954 101.218 175.118 100.382 175.118 99.2689V88.9688H163.983V99.2689C163.983 100.661 162.869 101.218 162.034 101.218C160.921 101.218 160.085 100.382 160.085 99.2689V76.1632C160.085 74.7713 161.199 74.2145 162.034 74.2145C163.148 74.2145 163.983 75.0497 163.983 76.1632V84.7931H175.118V76.1632C175.118 74.7713 176.232 74.2145 177.067 74.2145C178.181 74.2145 179.016 75.0497 179.016 76.1632V99.2689C179.016 100.382 177.902 101.218 177.067 101.218Z" fill="black"></path><path d="M197.947 75.0497C204.906 75.0497 210.474 80.3389 210.474 87.5769C210.474 94.8148 205.185 100.104 197.947 100.104C190.987 100.104 185.419 94.8148 185.419 87.5769C185.419 80.3389 190.987 75.0497 197.947 75.0497ZM197.947 98.1554C203.793 98.1554 208.525 93.4229 208.525 87.5769C208.525 81.7309 204.071 76.9984 197.947 76.9984C192.1 76.9984 187.368 81.7309 187.368 87.5769C187.368 93.4229 192.1 98.1554 197.947 98.1554Z" fill="black"></path><path d="M197.946 101.218C190.152 101.218 184.584 95.3716 184.584 87.5769C184.584 79.7822 190.43 73.9362 197.946 73.9362C205.463 73.9362 211.309 79.7822 211.309 87.5769C211.309 95.3716 205.463 101.218 197.946 101.218ZM197.946 78.1119C192.657 78.1119 188.481 82.2876 188.481 87.8553C188.481 93.4229 192.657 97.5987 197.946 97.5987C203.236 97.5987 207.412 93.4229 207.412 87.8553C207.412 82.2876 203.236 78.1119 197.946 78.1119Z" fill="black"></path><path d="M237.199 77.2767C237.756 75.8848 238.035 75.3281 239.427 75.3281C241.097 75.3281 241.097 76.72 241.375 77.5551L244.438 98.9906C244.438 99.5473 244.438 99.5473 244.438 99.5473C244.438 100.104 244.159 100.382 243.324 100.382C242.489 100.382 242.489 99.8257 242.21 99.2689L239.148 77.2767L231.91 98.9906C231.632 99.5473 231.353 100.382 230.24 100.382C228.848 100.382 228.848 99.8257 228.291 98.9906L221.053 77.2767L217.991 99.2689C217.991 99.8257 217.712 100.382 216.877 100.382C216.32 100.382 215.763 99.8257 215.763 99.5473C215.763 99.5473 215.763 99.2689 215.763 98.9906L218.826 77.5551C218.826 76.72 219.104 75.3281 220.774 75.3281C222.166 75.3281 222.445 75.8848 223.002 77.2767L229.961 98.4338L237.199 77.2767Z" fill="black"></path><path d="M230.24 101.496V101.218C228.569 101.218 228.012 100.104 227.734 98.9906L221.888 81.4525L219.382 99.2689C219.104 100.661 218.547 101.218 217.434 101.218C216.042 101.218 215.485 100.382 215.485 99.2689C215.485 98.9906 215.485 98.9906 215.485 98.4338L218.547 76.9984C218.547 76.1632 219.104 73.9362 221.609 73.9362C223.558 73.9362 224.115 75.0497 224.672 76.72L230.796 94.8148L236.921 76.72C237.478 75.0497 238.034 73.9362 239.983 73.9362C242.489 73.9362 242.767 76.1632 243.045 76.9984L245.551 98.4338C245.551 98.9906 245.551 98.9906 245.551 99.2689C245.551 100.104 244.716 101.218 243.602 101.218C242.489 101.218 241.654 100.661 241.654 99.2689L239.148 81.7309L233.302 99.2689C233.023 99.8257 232.745 101.496 230.796 101.496H230.24ZM238.591 76.72H240.262C239.983 76.1632 239.983 76.1632 239.426 76.1632C239.148 76.1632 238.87 76.1632 238.591 76.72ZM221.331 76.1632C221.053 76.1632 220.774 76.1632 220.496 76.72H222.166C221.888 76.1632 221.609 76.1632 221.331 76.1632Z" fill="black"></path><path d="M263.646 86.185C264.482 86.185 264.482 86.7417 264.482 87.0201C264.482 87.5769 264.203 87.8553 263.646 87.8553H253.346V96.4851C253.346 97.5986 253.624 97.5986 254.46 97.5986H265.038C265.874 97.5986 265.874 98.1554 265.874 98.4338C265.874 98.9906 265.595 99.2689 265.038 99.2689H253.903C251.119 99.2689 251.119 97.3203 251.119 96.2067V78.3903C251.119 77.2767 251.119 75.3281 253.903 75.3281H264.76C265.595 75.3281 265.595 75.8848 265.595 76.1632C265.595 76.72 265.317 76.9984 264.76 76.9984H254.46C253.624 76.9984 253.346 77.2767 253.346 78.1119V85.6282H263.646V86.185Z" fill="black"></path><path d="M265.039 100.661H253.903C252.233 100.661 250.006 99.8257 250.006 96.4851V78.6687C250.006 75.8848 251.398 74.4929 253.903 74.4929H264.76C266.152 74.4929 266.709 75.6065 266.709 76.4416C266.709 77.5551 265.874 78.3903 264.76 78.3903H254.46C254.46 78.3903 254.46 78.3903 254.181 78.3903C254.181 78.3903 254.181 78.3903 254.181 78.6687V85.3498H263.647C264.76 85.3498 265.595 86.185 265.595 87.2985C265.595 88.412 264.76 89.2472 263.647 89.2472H254.181V96.7635C254.181 96.7635 254.181 96.7635 254.181 97.0419C254.181 97.0419 254.181 97.0419 254.46 97.0419H265.039C266.431 97.0419 266.987 97.877 266.987 98.9906C266.987 99.8257 266.152 100.661 265.039 100.661ZM252.511 97.877C252.511 98.1554 252.511 98.1554 252.511 97.877C252.511 98.1554 252.511 98.1554 252.511 97.877ZM252.79 76.9984C252.511 76.9984 252.511 77.2767 252.511 77.5551C252.511 77.2767 252.511 76.9984 252.79 76.9984Z" fill="black"></path><path d="M268.657 112.075H152.29V116.807H268.657V112.075Z" fill="black"></path><path d="M64.0405 41.087H48.4507V45.8195H64.0405V41.087Z" fill="black"></path></svg> 