<?xml version="1.0" encoding="UTF-8"?> <svg xmlns="http://www.w3.org/2000/svg" width="573" height="380" viewBox="0 0 573 380" fill="none"><path d="M278.778 136.006C276.395 136.006 274.807 134.416 274.807 132.032V128.058C274.807 125.674 276.395 124.084 278.778 124.084C281.161 124.084 282.749 125.674 282.749 128.058V132.032C282.749 134.416 280.366 136.006 278.778 136.006Z" fill="black"></path><path d="M278.778 192.435C276.395 192.435 274.807 190.845 274.807 188.461V181.308C274.807 178.924 276.395 177.334 278.778 177.334C281.161 177.334 282.749 178.924 282.749 181.308V188.461C282.749 190.845 280.366 192.435 278.778 192.435ZM278.778 164.618C276.395 164.618 274.807 163.028 274.807 160.644V153.491C274.807 151.107 276.395 149.517 278.778 149.517C281.161 149.517 282.749 151.107 282.749 153.491V160.644C282.749 162.233 280.366 164.618 278.778 164.618Z" fill="black"></path><path d="M278.778 217.867C276.395 217.867 274.807 216.278 274.807 213.893V209.919C274.807 207.535 276.395 205.946 278.778 205.946C281.161 205.946 282.749 207.535 282.749 209.919V213.893C282.749 216.278 280.366 217.867 278.778 217.867Z" fill="black"></path><path d="M258.922 208.33L278.778 242.505L298.634 208.33H258.922Z" fill="black"></path><path d="M3.97717 345.03C3.18292 345.03 2.38867 345.03 2.38867 343.441C2.38867 341.851 3.97717 341.851 3.97717 341.851H54.809C55.6033 341.851 56.3975 341.851 56.3975 343.441C56.3975 345.03 54.809 345.03 54.809 345.03H32.5701C32.5701 352.978 30.9816 361.72 25.4219 368.078C20.6564 373.642 13.5081 376.026 12.7139 376.026C11.1254 376.026 11.1254 374.437 11.1254 373.642C11.1254 372.847 11.1254 372.847 13.5081 371.257C27.8046 365.694 28.5988 353.773 28.5988 345.03H3.97717V345.03ZM46.8665 324.366C47.6608 324.366 48.455 324.366 48.455 325.956C48.455 327.545 46.8665 327.545 46.8665 327.545H11.1254C10.3311 327.545 9.5369 327.545 9.5369 325.956C9.5369 324.366 10.3311 324.366 11.1254 324.366H46.8665Z" fill="black"></path><path d="M12.708 377.616C10.3252 377.616 8.73673 375.231 8.73673 373.642C8.73673 371.258 10.3252 370.463 12.708 369.668C24.6217 364.899 27.0044 356.157 27.0044 346.62H3.97124C1.5885 346.62 0 345.03 0 342.646C0 341.056 0.794248 338.672 3.97124 338.672H54.8031C57.1858 338.672 58.7743 340.262 58.7743 342.646C58.7743 345.03 57.1858 346.62 54.8031 346.62H34.9469C34.9469 354.567 33.3584 362.515 27.0044 368.873C21.4447 374.437 14.2965 377.616 12.708 377.616ZM29.3872 342.646C29.3872 343.441 30.1814 343.441 29.3872 342.646C30.1814 343.441 30.9757 344.235 30.9757 344.235C30.9757 345.03 30.9757 345.825 30.9757 346.62C30.9757 345.825 30.9757 345.03 30.9757 343.441C30.9757 342.646 31.7699 341.851 32.5642 341.851L29.3872 342.646ZM46.8606 329.93H11.1195C7.94248 329.93 7.14823 327.545 7.14823 325.956C7.14823 323.571 8.73673 321.982 11.1195 321.982H46.8606C50.0376 321.982 50.8319 323.571 50.8319 325.956C50.8319 328.34 50.0376 329.93 46.8606 329.93Z" fill="black"></path><path d="M96.8946 323.571C96.1003 321.187 98.4831 321.187 98.4831 321.187C99.2773 321.187 100.072 321.982 100.072 322.777L101.66 333.109L119.928 329.93C120.722 329.93 122.311 329.93 122.311 331.519C122.311 332.314 121.516 333.109 120.722 333.109L103.249 337.082L105.631 349.799L127.076 346.62C129.459 346.62 129.459 348.209 129.459 348.209C129.459 349.799 128.665 349.799 127.87 349.799L106.426 352.978L110.397 372.847C111.191 375.231 108.808 375.231 108.014 375.231C106.426 375.231 106.426 374.437 106.426 373.642L102.454 352.978L77.8326 356.952C76.2441 356.952 76.2441 355.362 76.2441 355.362C76.2441 353.773 77.0384 353.773 77.8326 353.773L102.454 349.799L100.072 337.082L81.8039 340.262C79.4211 340.262 79.4211 338.672 79.4211 338.672C79.4211 337.082 80.2154 337.082 81.0096 337.082L99.2773 333.903L96.8946 323.571Z" fill="black"></path><path d="M108.011 377.616C106.423 377.616 104.834 376.821 104.04 374.437L100.863 356.157L77.8299 360.131C76.2414 360.131 75.4472 360.131 74.6529 359.336C73.8587 358.541 73.0645 357.746 73.0645 356.157C73.0645 354.567 73.8587 352.978 76.2414 352.978L99.2746 349.004L97.6861 340.261L81.8012 342.646C80.2127 342.646 79.4184 342.646 78.6242 341.851C77.8299 341.056 77.0357 340.261 77.0357 338.672C77.0357 336.288 78.6242 335.493 80.2127 334.698L96.8919 332.314L95.3034 324.366C95.3034 322.777 95.3034 321.982 96.0976 321.187C96.8919 319.597 99.2746 319.597 99.2746 319.597C100.069 319.597 102.452 319.597 103.246 322.777L104.834 331.519L120.719 329.135C121.514 329.135 123.102 329.135 123.896 329.929C124.691 330.724 125.485 331.519 125.485 333.109C125.485 335.493 123.896 336.288 122.308 337.082L106.423 339.467L108.011 348.209L127.868 345.03C129.456 345.03 130.25 345.03 131.045 345.825C131.839 346.62 132.633 347.414 132.633 349.004C132.633 350.593 131.045 352.183 129.456 352.978L110.394 356.157L113.571 374.437C113.571 376.026 113.571 376.821 112.777 377.616C110.394 377.616 109.6 377.616 108.011 377.616ZM103.246 352.183C104.04 352.183 104.04 352.978 104.834 352.978V352.183C104.834 352.183 104.834 352.183 105.629 351.388C104.834 351.388 104.834 350.593 104.04 350.593C104.04 350.593 104.04 351.388 103.246 352.183C103.246 352.183 103.246 351.388 103.246 352.183ZM100.069 335.493C100.863 335.493 100.863 336.288 101.657 336.288V335.493C101.657 335.493 101.657 335.493 102.452 334.698C101.657 334.698 101.657 333.903 100.863 333.903C100.863 334.698 100.863 334.698 100.069 335.493Z" fill="black"></path><path d="M155.674 329.135C154.879 329.135 154.085 329.135 154.085 327.545C154.085 325.956 155.674 325.956 155.674 325.956H187.444C189.826 325.956 193.003 325.956 193.003 329.93C193.003 333.903 187.444 344.235 182.678 350.594C185.855 352.978 193.798 360.131 201.74 368.873C202.534 370.463 203.329 370.463 203.329 371.257C203.329 372.052 202.534 373.642 200.946 373.642C200.152 373.642 199.357 372.847 198.563 372.052C190.621 362.515 184.267 356.952 180.295 353.773C168.382 368.078 153.291 374.437 152.497 374.437C150.908 374.437 150.908 373.642 150.908 372.052C150.908 371.258 150.908 371.258 153.291 369.668C181.884 355.362 189.032 331.519 189.032 330.724C189.032 329.93 188.238 329.135 186.649 329.135H155.674V329.135Z" fill="black"></path><path d="M152.491 376.026C150.108 376.026 148.52 374.437 148.52 372.052C148.52 369.668 150.108 368.873 151.697 368.079C177.112 356.157 185.055 335.493 185.849 330.724H155.668C152.491 330.724 151.697 329.135 151.697 326.751C151.697 325.956 151.697 322.777 155.668 322.777H187.438C189.82 322.777 195.38 322.777 195.38 329.135C195.38 333.903 189.82 343.441 185.849 349.799C189.82 352.978 196.969 359.336 203.323 367.284C204.117 368.873 204.911 369.668 204.911 370.463C204.911 372.847 203.323 374.437 200.94 374.437C198.557 374.437 197.763 372.847 196.969 372.052C190.615 364.105 185.055 358.541 181.084 355.362C168.376 370.463 154.079 376.026 152.491 376.026ZM196.174 366.489C196.969 368.079 198.557 368.873 199.351 370.463L200.146 371.258L199.351 370.463C198.557 368.873 197.763 367.284 196.174 366.489ZM181.084 350.594C181.084 351.388 180.289 351.388 180.289 352.183C180.289 352.183 180.289 352.183 181.084 352.183H181.878C181.084 351.388 180.289 350.594 181.084 350.594ZM189.026 327.545C189.82 327.545 191.409 329.135 191.409 330.724C191.409 330.724 190.615 333.109 189.026 337.083C190.615 333.903 191.409 331.519 191.409 329.93C191.409 328.34 190.615 327.545 189.026 327.545Z" fill="black"></path><path d="M243.842 375.231C243.842 376.026 243.842 376.821 242.254 376.821C240.665 376.821 239.871 376.026 239.871 375.231V322.777C239.871 321.982 239.871 321.187 241.46 321.187C243.048 321.187 243.842 321.982 243.842 322.777V339.467C258.139 345.825 264.493 350.594 270.847 354.567C272.435 356.157 273.23 356.157 273.23 356.952C273.23 357.746 272.435 359.336 271.641 359.336C270.847 359.336 270.847 359.336 267.67 356.952C259.727 351.388 250.991 346.62 244.637 343.441V375.231H243.842Z" fill="black"></path><path d="M241.454 378.41C239.865 378.41 237.482 378.41 237.482 374.437V321.982C237.482 319.598 239.071 318.008 241.454 318.008C243.836 318.008 245.425 319.598 245.425 321.982V337.877C258.133 343.441 265.281 348.209 270.841 352.183L271.635 352.978C273.224 353.773 274.812 355.362 274.812 356.952C274.812 359.336 273.224 360.926 270.841 360.926C269.252 360.926 268.458 360.131 266.075 358.541C258.927 352.978 250.985 349.004 246.219 346.62V374.437C245.425 377.616 243.836 378.41 241.454 378.41ZM241.454 374.437V343.441C241.454 342.646 241.454 341.851 242.248 341.851H243.042H242.248C241.454 341.851 240.659 341.056 240.659 340.262V323.571L241.454 374.437ZM264.487 352.978C265.281 353.773 266.87 354.567 267.664 355.362C269.252 356.952 270.047 357.746 270.841 357.746C270.841 357.746 270.047 356.952 269.252 356.952L268.458 356.157C266.87 355.362 266.075 353.773 264.487 352.978Z" fill="black"></path><path d="M312.936 336.288C313.73 336.288 313.73 336.288 312.936 336.288C314.524 332.314 315.318 328.34 315.318 324.366C315.318 321.982 315.318 321.187 317.701 321.187C318.495 321.187 320.084 321.982 320.084 322.777C320.084 323.571 319.29 328.34 317.701 335.493C318.495 335.493 319.29 335.493 320.878 335.493C334.38 335.493 335.175 343.441 335.175 351.388C335.175 371.257 329.615 374.437 321.672 374.437C315.318 374.437 315.318 372.847 315.318 372.052C315.318 371.257 316.113 370.463 316.907 370.463H318.495C320.084 370.463 320.878 370.463 321.672 370.463C327.232 370.463 331.203 368.873 331.203 350.593C331.203 343.441 330.409 337.877 320.878 337.877C319.29 337.877 317.701 337.877 316.907 337.877C312.936 355.362 308.17 364.899 304.199 371.257C302.61 373.642 302.611 374.437 301.816 374.437C301.816 374.437 299.434 374.437 299.434 372.847C299.434 372.052 299.434 372.052 301.022 369.668C305.788 361.72 309.759 350.593 312.936 339.467C310.553 339.467 299.434 341.851 298.639 341.851C297.845 341.851 297.051 341.056 297.051 340.261C297.051 338.672 297.845 338.672 300.228 338.672L312.936 336.288ZM343.911 338.672C348.677 345.825 350.265 352.978 350.265 354.567C350.265 356.157 349.471 356.157 347.883 356.157C346.294 356.157 346.294 355.362 346.294 352.978C344.706 345.825 340.734 338.672 335.175 333.109C332.792 330.724 332.792 330.724 332.792 329.93C332.792 329.135 333.586 328.34 334.38 328.34C336.763 329.93 341.529 335.493 343.911 338.672ZM349.471 331.519C349.471 332.314 348.677 333.109 347.088 333.109C346.294 333.109 346.294 333.109 343.117 329.135C342.323 328.34 339.94 325.956 338.352 324.366C337.557 323.571 337.557 323.571 337.557 322.777C337.557 321.982 338.352 321.187 339.146 321.187C342.323 321.187 349.471 330.724 349.471 331.519ZM356.619 325.956C356.619 326.75 355.825 327.545 354.237 327.545C353.442 327.545 353.442 327.545 350.265 323.571C349.471 322.777 347.088 320.392 345.5 318.803C344.706 318.008 344.706 318.008 344.706 317.213C344.706 316.418 345.5 315.624 346.294 315.624C349.471 316.418 356.619 325.161 356.619 325.956Z" fill="black"></path><path d="M320.881 376.821C318.499 376.821 312.145 376.821 312.145 372.052C312.145 369.668 313.733 368.078 315.322 368.078C316.116 368.078 316.91 368.078 317.704 368.078C318.499 368.078 320.087 368.078 320.881 368.078C324.853 368.078 328.824 368.078 328.824 350.594C328.824 343.441 328.03 340.262 320.881 340.262C320.087 340.262 319.293 340.262 318.499 340.262C315.322 353.773 311.35 364.105 305.791 372.847C304.996 374.437 304.202 376.026 301.82 376.026C300.231 376.026 297.848 375.231 297.848 372.052C297.848 370.463 297.848 370.463 299.437 368.078C303.408 360.926 307.379 351.388 310.556 341.056C308.968 341.056 306.585 341.851 304.997 341.851C299.437 342.646 299.437 342.646 299.437 342.646C297.054 342.646 296.26 341.056 296.26 338.672C296.26 335.493 298.643 335.493 301.82 334.698L313.733 333.109C314.527 329.93 315.322 326.75 315.322 322.777C315.322 321.187 316.116 318.008 319.293 318.008C321.676 318.008 323.264 319.598 323.264 321.982C323.264 322.777 322.47 327.545 321.676 332.314C338.355 332.314 338.355 343.441 338.355 350.594C335.972 369.668 332.001 376.821 320.881 376.821ZM313.733 337.877C313.733 337.877 314.527 337.877 313.733 337.877C314.527 338.672 314.527 338.672 313.733 337.877C314.527 338.672 314.527 338.672 313.733 337.877C314.527 337.877 315.322 337.082 316.116 337.082C316.116 337.082 316.116 337.082 316.116 336.288C315.322 337.082 314.527 337.877 313.733 337.877ZM317.704 322.777C317.704 322.777 317.704 323.571 317.704 322.777V322.777ZM347.886 358.541C344.709 358.541 344.709 356.157 343.915 353.773C342.326 346.62 339.149 340.262 333.589 334.698C331.207 332.314 330.412 331.519 330.412 330.724C330.412 329.135 332.001 327.545 334.384 327.545C338.355 327.545 343.915 336.288 344.709 337.877C349.474 345.03 351.063 352.978 351.063 354.567C351.857 356.952 350.269 358.541 347.886 358.541ZM347.886 335.493C346.297 335.493 345.503 334.698 343.12 331.519L342.326 330.724C341.532 329.93 339.149 327.545 338.355 325.956C337.561 325.161 336.766 324.366 336.766 323.571C336.766 321.982 338.355 319.598 340.738 319.598C343.915 319.598 351.857 329.93 351.857 331.519C351.857 333.109 349.474 335.493 347.886 335.493ZM355.034 329.93C353.446 329.93 352.651 329.135 349.474 325.161C348.68 324.366 346.297 321.982 345.503 320.392C344.709 319.598 344.709 318.803 344.709 318.008C344.709 315.624 346.297 314.034 348.68 314.034C351.857 314.034 359.8 323.571 359.8 325.956C359.005 328.34 356.623 329.93 355.034 329.93Z" fill="black"></path><path d="M370.11 337.082C371.698 337.082 376.464 340.262 378.052 341.851C380.435 343.441 380.435 343.441 380.435 344.235C380.435 345.03 379.641 346.62 378.847 346.62C378.052 346.62 378.052 346.62 375.67 345.03C374.081 342.646 373.287 342.646 370.11 340.262C368.521 339.467 368.521 339.467 368.521 337.877C368.521 337.877 369.316 337.082 370.11 337.082ZM383.612 354.567C383.612 356.157 378.052 367.284 374.081 374.437C372.493 376.821 371.698 377.616 370.904 377.616C370.11 377.616 368.521 376.821 368.521 375.231C368.521 374.437 368.521 374.437 369.316 373.642C374.875 365.694 377.258 360.131 379.641 353.773C380.435 352.183 380.435 352.183 381.229 352.183C382.024 352.978 383.612 352.978 383.612 354.567ZM373.287 320.392C374.875 320.392 381.229 325.161 382.024 325.161C384.406 326.75 384.406 327.545 384.406 327.545C384.406 328.34 383.612 329.93 382.818 329.93C382.024 329.93 382.024 329.93 379.641 328.34C377.258 326.75 376.464 325.956 373.287 324.366C372.493 324.366 372.493 323.571 372.493 322.777C371.698 321.187 372.493 320.392 373.287 320.392ZM395.526 350.594C395.526 364.105 392.349 369.668 389.966 372.847C388.378 375.231 385.201 378.41 383.612 378.41C382.818 378.41 382.024 377.616 382.024 376.821C382.024 376.026 382.818 376.026 382.818 375.231C390.76 369.668 391.555 361.72 392.349 351.388C392.349 350.593 392.349 349.004 393.937 349.004C395.526 348.209 395.526 349.799 395.526 350.594ZM387.583 328.34C386.789 328.34 385.995 328.34 385.995 326.75C385.995 325.161 387.583 325.161 387.583 325.161H404.263V321.187C404.263 320.392 404.263 319.598 405.851 319.598C407.44 319.598 407.44 320.392 407.44 321.187V325.161H424.913C425.707 325.161 426.502 325.161 426.502 326.75C426.502 328.34 424.913 328.34 424.913 328.34H402.674C400.291 333.903 397.909 337.877 396.32 340.262C403.468 340.262 412.205 339.467 418.559 338.672C416.971 337.082 416.971 337.082 412.999 333.903C412.999 333.903 412.999 333.903 412.999 333.109C412.999 332.314 413.794 331.519 414.588 331.519C415.382 331.519 417.765 333.903 418.559 334.698C420.148 336.288 426.502 343.441 426.502 345.03C426.502 345.825 425.707 346.62 424.913 346.62C424.119 346.62 424.119 345.825 423.325 345.825C421.736 343.441 421.736 343.441 420.942 341.851C415.382 342.646 392.349 343.441 387.583 343.441C386.789 343.441 385.995 343.441 385.995 341.851C385.995 341.056 385.995 341.056 386.789 340.262C386.789 340.262 387.583 340.262 392.349 340.262C393.937 337.082 397.114 332.314 398.703 327.545H387.583V328.34ZM406.645 375.231C406.645 376.026 406.645 376.821 405.057 376.821C403.468 376.821 403.468 375.231 403.468 375.231V350.594C403.468 349.799 403.468 349.004 405.057 349.004C406.645 349.004 406.645 349.799 406.645 350.594V375.231ZM417.765 372.847C417.765 374.437 418.559 374.437 420.148 374.437C422.53 374.437 423.325 374.437 423.325 368.873C423.325 364.899 423.325 364.899 424.913 364.899C425.707 364.899 426.502 364.899 426.502 366.489C426.502 368.873 426.502 374.437 424.913 376.026C423.325 377.616 419.353 377.616 417.765 377.616C414.588 376.821 414.588 374.437 414.588 372.847V350.594C414.588 349.799 414.588 349.004 416.176 349.004C417.765 349.004 417.765 349.799 417.765 350.594V372.847V372.847Z" fill="black"></path><path d="M383.617 380C381.234 380 379.645 378.41 379.645 376.026C379.645 374.437 381.234 372.847 381.234 372.847C387.588 368.078 389.176 360.925 389.176 350.593C389.176 346.62 391.559 346.62 393.148 346.62C393.942 346.62 397.119 346.62 397.119 350.593C397.119 365.694 393.148 370.463 390.765 373.642C391.559 374.437 386.794 380 383.617 380ZM420.152 379.205C419.358 379.205 417.769 379.205 417.769 379.205C414.592 378.41 412.21 376.026 412.21 372.052V349.799C412.21 346.62 413.798 345.825 416.181 345.825C417.769 345.825 420.152 346.62 420.152 349.799V372.052C420.946 372.052 421.741 372.052 421.741 372.052C421.741 372.052 421.741 369.668 421.741 368.873C421.741 364.899 421.741 362.515 425.712 362.515C428.095 362.515 429.683 364.105 429.683 366.489C429.683 366.489 429.683 375.231 428.095 377.616C425.712 379.205 422.535 379.205 420.152 379.205ZM370.909 379.205C369.32 379.205 366.938 377.616 366.938 375.231C366.938 373.642 367.732 372.847 367.732 372.847C373.291 365.694 375.674 359.336 378.057 353.773C378.851 352.183 379.645 350.593 382.028 350.593C383.617 350.593 385.999 352.183 385.999 354.567C385.999 356.952 380.44 368.873 375.674 375.231C373.291 378.41 372.497 379.205 370.909 379.205ZM370.909 374.437C370.909 375.231 370.909 375.231 370.909 374.437C370.909 375.231 370.909 375.231 370.909 374.437ZM405.061 378.41C403.473 378.41 401.09 377.616 401.09 374.437V350.593C401.09 347.414 402.679 346.62 405.061 346.62C407.444 346.62 409.033 347.414 409.033 350.593V375.231C408.238 377.616 406.65 378.41 405.061 378.41ZM424.918 349.004C423.329 349.004 422.535 347.414 421.741 347.414C420.946 346.62 420.152 345.825 420.152 345.03C413.004 345.825 392.353 346.62 387.588 346.62C384.411 346.62 383.617 344.235 383.617 342.646C383.617 341.056 384.411 340.261 385.205 339.467C385.999 339.467 385.999 339.467 390.765 338.672C392.353 336.288 393.942 333.109 395.53 329.93H386.794C385.999 329.93 385.205 329.929 384.411 329.135C383.617 329.929 382.822 330.724 381.234 330.724C379.645 330.724 379.645 330.724 376.468 328.34C374.086 326.75 373.291 325.956 370.114 324.366C369.32 324.366 367.732 322.777 368.526 320.392C368.526 318.803 370.114 317.213 372.497 317.213C374.88 317.213 382.028 321.982 382.028 321.982C382.822 322.777 382.822 322.777 383.617 323.571C384.411 322.777 385.205 321.982 386.794 321.982H401.884V319.597C401.884 316.418 403.473 315.624 405.856 315.624C406.65 315.624 409.827 315.624 409.827 319.597V321.982H424.918C427.3 321.982 428.889 323.571 428.889 325.956C428.889 327.545 428.095 329.93 424.918 329.93H416.975C417.769 330.724 418.564 331.519 420.152 333.109C422.535 335.493 428.889 342.646 428.889 345.03C428.889 347.414 427.3 349.004 424.918 349.004ZM393.942 341.851C393.942 341.851 394.736 341.851 393.942 341.851C394.736 341.851 394.736 341.851 393.942 341.851C393.942 341.851 394.736 341.851 393.942 341.851ZM420.152 340.261C420.946 340.261 420.946 340.261 420.152 340.261C420.946 340.261 420.152 340.261 420.152 340.261ZM404.267 330.724C402.679 333.903 401.09 336.288 400.296 338.672C405.061 338.672 409.827 338.672 414.592 337.877C413.798 337.082 413.004 336.288 412.21 335.493C411.415 334.698 410.621 333.903 410.621 333.109C410.621 332.314 411.415 331.519 411.415 330.724H404.267V330.724ZM400.296 327.545C400.296 327.545 401.09 327.545 400.296 327.545C401.09 327.545 401.09 327.545 400.296 327.545ZM405.856 326.75C405.856 326.75 405.856 325.956 405.856 326.75C405.856 325.956 405.856 326.75 405.856 326.75ZM378.851 348.209C377.263 348.209 377.263 348.209 374.88 345.825C373.291 344.235 372.497 344.235 370.114 342.646H369.32C367.732 341.851 366.938 341.056 366.938 338.672C366.938 337.082 368.526 334.698 370.909 334.698C372.497 334.698 375.674 336.288 379.645 339.467C382.028 341.056 382.822 341.851 382.822 343.441C382.028 345.825 380.44 348.209 378.851 348.209Z" fill="black"></path><path d="M456.69 350.594C454.307 354.567 451.13 360.131 448.747 364.899C447.953 365.694 447.953 366.489 447.159 366.489C446.365 366.489 445.57 365.694 445.57 364.899C445.57 364.105 445.57 364.105 447.159 360.926C450.336 355.362 454.307 349.799 457.484 344.235V337.877C454.307 337.877 449.542 338.672 447.953 338.672C446.365 338.672 446.365 337.877 446.365 337.082C446.365 335.493 447.159 335.493 448.747 335.493C451.924 335.493 455.101 335.493 457.484 334.698V325.161C457.484 323.571 457.484 321.982 459.073 321.982C460.661 321.982 460.661 323.571 460.661 323.571C460.661 325.161 459.867 341.056 459.867 344.235C462.25 341.851 470.986 329.93 480.517 329.93C485.283 329.93 490.842 332.314 490.842 339.467C490.842 341.056 490.048 346.62 489.254 352.183C488.46 357.746 487.665 362.515 487.665 364.899C487.665 366.489 487.665 368.873 490.842 368.873C493.225 368.873 495.608 367.284 495.608 366.489C496.402 365.694 497.196 365.694 497.196 365.694C497.991 365.694 498.785 366.489 498.785 367.284C498.785 368.873 494.019 372.052 490.048 372.052C483.694 372.052 483.694 365.694 483.694 364.899C483.694 362.515 484.488 357.746 485.283 352.183C486.077 346.62 486.871 341.851 486.871 339.467C486.871 333.903 482.106 333.109 479.723 333.109C473.369 333.109 466.221 339.467 459.073 348.209C459.073 356.157 459.073 364.899 459.073 372.847C459.073 375.231 459.073 376.026 457.484 376.026C455.896 376.026 455.896 375.231 455.896 372.847L456.69 350.594Z" fill="black"></path><path d="M457.481 378.41C456.687 378.41 455.099 378.411 455.099 377.616C454.304 376.821 454.304 375.231 454.304 373.642V358.541C452.716 360.926 451.127 364.105 449.539 366.489C448.745 367.284 447.95 368.873 446.362 368.873C444.773 368.873 442.391 367.284 442.391 364.899C442.391 363.31 443.185 362.515 444.773 360.131C447.95 355.362 451.127 349.799 454.304 345.03L455.099 344.235V340.262C451.922 340.262 448.745 341.056 447.156 341.056C444.773 341.056 443.185 339.467 443.185 337.083C443.185 333.109 446.362 333.109 447.95 333.109C450.333 333.109 452.716 333.109 455.099 332.314V324.366C455.099 322.777 455.099 318.803 459.07 318.803C460.658 318.803 463.041 319.598 463.041 322.777C463.041 323.571 463.041 328.34 463.041 333.903C463.041 335.493 463.041 337.083 463.041 337.877C467.807 333.109 474.16 327.545 481.309 327.545C487.663 327.545 494.017 331.519 494.017 339.467C494.017 341.056 493.222 345.03 493.222 349.799V352.183C492.428 356.952 491.634 362.515 491.634 364.105C491.634 366.489 492.428 366.489 493.222 366.489C494.017 366.489 495.605 366.489 497.194 364.899C497.988 364.105 498.782 363.31 500.371 363.31C501.959 363.31 504.342 364.899 504.342 367.284C504.342 370.463 497.988 374.437 493.222 374.437C487.663 374.437 484.486 371.258 484.486 364.899C484.486 363.31 485.28 360.131 485.28 356.157L486.074 352.183C486.868 345.825 487.663 341.056 487.663 340.262C487.663 336.288 483.691 335.493 482.103 335.493C477.337 335.493 470.984 340.262 463.835 349.799C463.835 357.747 463.835 365.694 463.835 373.642C461.453 374.437 461.453 378.41 457.481 378.41ZM456.687 349.004C457.481 349.004 457.481 349.004 458.276 349.799V349.004C458.276 348.209 458.276 348.209 459.07 347.415C459.864 346.62 459.864 346.62 460.658 345.825C460.658 345.825 459.864 345.825 459.864 345.03L459.07 346.62C457.481 347.415 456.687 348.209 456.687 349.004ZM457.481 336.288C457.481 336.288 458.276 336.288 457.481 336.288C458.276 336.288 458.276 336.288 457.481 336.288C458.276 336.288 458.276 336.288 457.481 336.288C458.276 336.288 458.276 336.288 457.481 336.288Z" fill="black"></path><path d="M528.167 328.34C527.373 328.34 526.579 328.34 526.579 326.75C526.579 325.161 528.167 325.161 528.961 325.161C534.521 325.161 542.464 325.161 548.023 324.366C549.612 324.366 555.966 323.571 557.554 323.571C559.937 323.571 560.731 325.161 560.731 325.956C560.731 326.75 560.731 326.75 555.966 330.724C548.023 337.082 542.464 341.851 537.698 345.825C542.464 343.441 547.229 342.646 551.995 342.646C563.114 342.646 570.262 349.004 570.262 358.541C570.262 368.873 561.525 376.821 548.023 376.821C540.081 376.821 532.138 373.642 532.138 366.489C532.138 360.925 536.904 357.746 542.464 357.746C549.612 357.746 555.966 363.31 557.554 371.257C564.702 368.078 567.085 361.72 567.085 358.541C567.085 352.978 563.908 345.825 551.995 345.825C540.081 345.825 531.344 352.978 529.756 354.567C524.99 358.541 524.196 359.336 524.196 359.336C523.402 359.336 522.607 358.541 522.607 357.746C522.607 356.952 522.607 356.952 525.784 353.773C525.784 353.773 551.995 331.519 556.76 327.545C547.229 327.545 536.11 328.34 528.167 328.34ZM541.669 360.131C537.698 360.131 534.521 362.515 534.521 364.899C534.521 369.668 540.875 372.052 547.229 372.052C550.406 372.052 551.995 371.257 552.789 371.257C551.2 364.104 547.229 360.131 541.669 360.131Z" fill="black"></path><path d="M547.234 377.616C538.497 377.616 528.966 373.642 528.966 365.694C528.966 359.336 533.732 355.362 540.88 355.362C548.028 355.362 554.382 360.131 557.559 368.078C563.119 364.899 563.119 360.131 563.119 357.746C563.119 354.567 561.531 347.414 549.617 347.414C538.497 347.414 529.761 354.567 528.172 356.157C523.407 360.925 522.612 360.925 521.024 360.925C518.641 360.925 517.053 359.336 517.053 356.952C517.053 355.362 517.847 354.567 520.23 352.183L521.024 351.388C521.024 351.388 523.407 349.799 547.234 329.135C540.086 329.929 532.938 329.929 526.584 329.929C524.201 329.929 522.613 328.34 522.613 325.956C522.613 325.161 522.613 321.982 526.584 321.982C532.938 321.982 540.88 321.982 545.646 321.187C546.44 321.187 547.234 321.187 548.028 321.187C551.205 321.187 554.382 320.392 555.177 320.392C558.354 320.392 559.942 322.777 559.942 325.161C559.942 327.545 559.942 327.545 554.382 331.519C550.411 334.698 547.234 337.877 544.057 340.261C545.646 340.261 548.028 339.467 549.617 339.467C561.531 339.467 569.473 346.62 569.473 356.952C571.856 369.668 561.531 377.616 547.234 377.616ZM555.177 372.052V372.847H555.971C555.971 372.052 555.971 372.052 555.177 372.052C555.177 372.052 555.971 372.052 555.177 372.052ZM541.674 362.515C538.497 362.515 536.909 364.105 536.909 365.694C536.909 368.873 542.469 370.463 548.028 370.463C549.617 370.463 550.411 370.463 551.205 370.463C548.823 364.899 545.646 362.515 541.674 362.515ZM535.32 345.825C534.526 346.62 532.938 347.414 532.143 349.004C532.938 348.209 534.526 347.414 535.32 345.825C535.32 346.62 535.32 346.62 535.32 345.825C535.32 345.825 535.32 346.62 535.32 345.825ZM556.765 325.161C557.559 325.956 557.559 325.956 557.559 326.75C558.354 325.956 558.354 325.956 558.354 325.956C557.559 325.161 557.559 325.161 556.765 325.161Z" fill="black"></path><path d="M54.8031 9.6377H3.97124C0.794248 9.6377 0 12.022 0 13.6115C0 15.9958 1.5885 17.5854 3.97124 17.5854H27.0044C27.0044 27.1226 24.6217 35.0703 12.708 40.6337C10.3252 41.4284 8.73673 42.2232 8.73673 44.6075C8.73673 46.1971 10.3252 48.5814 12.708 48.5814C14.2965 48.5814 21.4447 46.1971 27.0044 39.8389C32.5642 33.4808 34.1527 25.5331 34.9469 17.5854H54.8031C57.1858 17.5854 58.7743 15.9958 58.7743 13.6115C57.9801 11.2272 57.1858 9.6377 54.8031 9.6377Z" fill="black"></path><path d="M96.9043 2.48499V3.27975L80.2251 5.66406C77.8423 5.66406 77.0481 7.2536 77.0481 9.6379C77.0481 11.2274 77.8423 12.0222 78.6366 12.817C79.4308 13.6117 80.2251 13.6117 81.8136 13.6117L98.4928 11.2274L100.081 19.9699L77.0481 23.149C74.6653 23.149 73.8711 25.5333 73.8711 26.328C73.8711 27.9176 74.6653 28.7123 75.4596 29.5071C76.2538 30.3019 77.0481 30.3019 78.6366 30.3019L101.67 26.328L104.847 44.6077C104.847 48.5816 106.435 48.5816 108.024 48.5816C109.612 48.5816 110.406 48.5816 111.201 47.7868C111.995 46.992 111.995 46.1973 111.995 44.6077L108.818 26.328L127.88 23.149C129.468 23.149 131.057 21.5594 131.057 19.1751C131.057 17.5856 130.263 16.7908 129.468 15.9961C128.674 15.2013 127.88 15.2013 126.291 15.2013L106.435 18.3804L104.847 9.6379L120.732 7.2536C123.114 7.2536 123.909 5.66406 123.909 3.27975C123.909 2.48498 123.909 2.48499 123.909 2.48499H96.9043Z" fill="black"></path><path d="M186.654 2.48499C185.065 7.2536 177.123 27.1228 152.501 39.0443C150.913 39.8391 149.324 40.6339 149.324 43.0182C149.324 45.4025 150.913 46.992 153.295 46.992C154.884 46.992 169.18 40.6339 181.094 27.1228C185.065 30.3019 190.625 35.8653 196.979 43.813C197.773 44.6077 198.568 46.1973 200.95 46.1973C203.333 46.1973 204.922 44.6077 204.922 42.2234C204.922 40.6339 204.127 39.8391 203.333 39.0443C196.979 31.0967 189.831 25.5333 185.86 21.5594C189.831 15.9961 194.596 8.04837 195.391 2.48499H186.654V2.48499Z" fill="black"></path><path d="M237.482 2.48499V46.1973C237.482 49.3763 240.659 50.1711 241.454 50.1711C243.836 50.1711 245.425 48.5816 245.425 46.1973V17.5856C250.19 19.9699 258.133 23.9437 265.281 29.5071C268.458 31.8914 269.252 32.6862 270.841 32.6862C273.224 32.6862 274.812 30.3019 274.812 28.7124C274.812 26.328 273.224 25.5333 271.635 24.7385L270.841 23.9437C265.281 19.9699 258.133 15.2013 245.425 9.6379V2.48499H237.482Z" fill="black"></path><path d="M331.195 2.48499C331.195 3.27975 331.99 4.07452 334.372 6.45883C339.138 12.0222 343.109 18.3804 344.698 25.5333C345.492 27.9176 345.492 30.3019 348.669 30.3019C351.052 30.3019 352.64 28.7123 352.64 26.328C352.64 24.7385 351.051 16.7908 346.286 9.6379C345.492 8.84313 343.903 5.66406 341.521 3.27975H331.195V2.48499Z" fill="black"></path><path d="M343.109 2.48499C345.492 5.66406 346.286 6.45883 347.875 6.45883C350.258 6.45883 351.846 4.86929 351.846 2.48499H343.109Z" fill="black"></path><path d="M312.139 2.48499C312.139 3.27975 312.139 4.07452 311.345 4.86929L299.431 6.45883C297.048 6.45883 293.871 7.2536 293.871 10.4327C293.871 12.817 295.46 14.4065 297.048 14.4065C297.048 14.4065 297.842 14.4065 303.402 13.6117C304.991 13.6117 307.373 12.817 308.962 12.817C306.579 23.149 302.608 32.6862 297.842 39.8391C296.254 42.2234 296.254 43.0182 296.254 43.813C296.254 46.1973 298.637 47.7868 300.225 47.7868C302.608 47.7868 303.402 46.1973 304.196 44.6077C310.55 35.8653 314.522 24.7385 317.699 12.0222C318.493 12.0222 319.287 12.0222 320.081 12.0222C327.23 12.0222 328.024 15.2013 328.024 22.3542C328.024 39.8391 324.053 39.8391 320.081 39.8391C319.287 39.8391 318.493 39.8391 316.904 39.8391C316.904 39.8391 315.316 39.8391 314.522 39.8391C312.933 39.8391 311.345 41.4286 311.345 43.813C311.345 48.5816 316.904 48.5816 320.081 48.5816C331.201 48.5816 335.172 41.4286 335.172 23.149C335.172 16.7908 335.172 4.86929 318.493 4.86929C318.493 4.07452 318.493 3.27975 319.287 3.27975H312.139V2.48499Z" fill="black"></path><path d="M369.328 12.817C372.505 15.2013 373.3 15.2013 374.888 16.7909C377.271 18.3804 377.271 19.1752 378.859 19.1752C381.242 19.1752 382.831 16.7909 382.831 15.2013C382.831 13.6118 382.036 12.817 379.654 11.2275C376.477 8.84317 372.505 6.45886 370.917 6.45886C368.534 6.45886 366.946 8.0484 366.946 10.4327C366.151 11.2275 367.74 12.0222 369.328 12.817Z" fill="black"></path><path d="M405.067 17.5853C403.478 17.5853 401.096 18.3801 401.096 21.5592V46.197C401.096 49.3761 402.684 50.1708 405.067 50.1708C406.655 50.1708 409.038 49.3761 409.038 46.197V21.5592C408.244 18.3801 406.655 17.5853 405.067 17.5853Z" fill="black"></path><path d="M393.949 17.5853C393.155 17.5853 389.978 17.5853 389.978 21.5592C389.978 31.8912 388.39 39.0441 382.036 43.8127C381.241 43.8127 380.447 45.4022 380.447 46.9918C380.447 49.3761 382.036 50.9656 384.419 50.9656C387.595 50.9656 391.567 45.4022 392.361 44.6075C394.744 41.4284 398.715 35.865 398.715 21.5592C397.921 17.5853 394.744 17.5853 393.949 17.5853Z" fill="black"></path><path d="M424.928 33.4809C421.751 33.4809 421.751 35.8652 420.957 39.8391C420.957 40.6338 420.957 43.0181 420.957 43.0181C420.957 43.0181 420.163 43.0181 419.368 43.0181V20.7646C419.368 17.5855 417.78 16.7908 415.397 16.7908C413.809 16.7908 411.426 17.5855 411.426 20.7646V43.0181C411.426 46.992 413.014 49.3763 416.986 50.1711C417.78 50.1711 418.574 50.1711 419.368 50.1711C421.751 50.1711 424.928 50.1711 425.722 47.7867C428.899 46.1972 428.899 37.4548 428.899 37.4548C428.899 35.0704 427.311 33.4809 424.928 33.4809Z" fill="black"></path><path d="M381.235 21.5592C378.853 21.5592 378.058 23.1487 377.264 24.7383C374.881 30.3017 372.499 36.6598 366.939 43.8127C366.145 44.6075 366.145 45.4023 366.145 46.197C366.145 48.5813 368.527 50.1709 370.116 50.1709C371.704 50.1709 373.293 48.5813 374.881 46.197C378.853 39.8389 385.206 27.1226 385.206 25.533C385.206 23.1487 382.824 21.5592 381.235 21.5592Z" fill="black"></path><path d="M411.422 2.48477C411.422 3.27954 411.422 3.27954 411.422 4.07431C411.422 5.66385 412.217 6.45861 413.011 6.45861C413.011 7.25338 413.805 8.04815 413.805 8.84292C409.04 8.84292 404.274 9.63769 399.509 9.63769C400.303 8.04815 401.891 5.66385 403.48 2.48477H395.537C393.949 4.86908 392.36 8.04815 391.566 9.63769C386.801 9.63769 386.801 9.63769 386.006 10.4325C385.212 11.2272 384.418 12.022 384.418 13.6115C384.418 14.4063 384.418 17.5854 388.389 17.5854C393.155 17.5854 413.805 16.7906 420.953 15.9958C420.953 15.9958 420.953 16.7906 421.748 17.5854C421.748 18.3801 423.336 19.1749 424.925 19.1749C426.513 19.1749 428.896 17.5854 428.896 15.2011C428.896 12.8168 423.336 6.45861 420.159 3.27954C419.365 2.48477 418.571 1.69 418.571 1.69H411.422V2.48477Z" fill="black"></path><path d="M469.398 2.48492C466.221 4.07446 463.839 6.45877 461.456 8.84307C461.456 7.25353 461.456 5.664 461.456 4.86923C461.456 4.07446 461.456 3.27969 461.456 2.48492H454.308V3.27969C451.925 3.27969 449.542 4.07446 447.159 4.07446C446.365 4.07446 442.394 4.07446 442.394 8.0483C442.394 10.4326 443.982 12.0221 446.365 12.0221C447.954 12.0221 451.131 12.0221 454.308 11.2274V15.2012L453.513 15.996C450.336 20.7646 447.159 26.328 443.982 31.0966C442.394 34.2757 441.6 34.2757 441.6 35.8652C441.6 38.2495 443.982 39.839 445.571 39.839C447.159 39.839 448.748 38.2495 448.748 37.4547C450.336 35.0704 451.925 32.6861 453.513 29.5071V44.6077C453.513 46.1972 453.513 47.7867 454.308 48.5815C455.896 48.5815 456.69 48.5815 457.485 48.5815C461.456 48.5815 461.456 45.4024 461.456 43.0181C461.456 35.0704 461.456 27.1228 461.456 19.1751C468.604 9.63784 474.958 4.86923 479.724 4.86923C481.312 4.86923 485.283 5.664 485.283 9.63784C485.283 11.2274 484.489 15.2012 483.695 21.5594L482.901 25.5332C482.106 29.5071 482.106 32.6861 482.106 34.2757C482.106 39.839 485.283 43.8129 490.843 43.8129C495.608 43.8129 501.962 40.6338 501.962 36.66C501.962 34.2757 500.374 32.6861 497.991 32.6861C497.197 32.6861 496.403 33.4809 494.814 34.2757C492.432 35.8652 491.637 35.8652 490.843 35.8652C490.049 35.8652 489.255 35.8652 489.255 33.4809C489.255 31.8914 490.049 26.328 490.843 21.5594V19.1751C491.637 14.4065 491.637 10.4326 491.637 8.84307C491.637 5.664 490.049 2.48492 488.46 0.895386H469.398V2.48492Z" fill="black"></path><path d="M556.762 2.48499H545.642C536.111 10.4327 522.609 22.3542 521.815 22.3542L521.021 23.149C518.638 25.5333 517.844 26.328 517.844 27.9176C517.844 30.3019 519.432 31.8914 521.815 31.8914C523.403 31.8914 524.198 31.0967 528.963 27.1228C530.552 25.5333 539.289 18.3804 550.408 18.3804C562.322 17.5856 563.91 24.7385 563.91 27.9176C563.91 30.3019 563.116 35.0705 558.35 38.2496C555.173 30.3019 548.819 25.5333 541.671 25.5333C534.523 25.5333 529.757 30.3019 529.757 35.8653C529.757 44.6077 538.494 47.7868 548.025 47.7868C562.322 47.7868 572.647 39.8391 572.647 27.9176C572.647 17.5856 564.704 10.4327 552.791 10.4327C551.202 10.4327 548.819 10.4327 547.231 11.2274C549.614 8.84313 552.791 5.66406 556.762 2.48499ZM541.671 32.6862C546.437 32.6862 549.614 35.8653 551.202 40.6339C550.408 40.6339 548.819 40.6339 548.025 40.6339C542.465 40.6339 536.906 39.0443 536.906 35.8653C536.111 34.2757 538.494 32.6862 541.671 32.6862Z" fill="black"></path></svg> 