<?xml version="1.0" encoding="UTF-8"?> <svg xmlns="http://www.w3.org/2000/svg" width="385" height="324" viewBox="0 0 385 324" fill="none"><path d="M3.64361 274.287C3.64361 269.935 3.64347 269.936 5.09388 269.936C7.2695 269.936 7.26963 270.661 7.26963 274.287L5.81913 300.395C5.81913 302.571 5.81918 306.196 6.54438 309.097C7.99479 314.899 14.5217 316.349 18.1477 316.349C26.125 316.349 33.377 312.723 39.1786 298.219C39.9038 296.768 39.9038 296.043 41.3542 296.043C42.0794 296.043 43.5299 296.769 43.5299 297.494C43.5299 298.944 42.0794 302.571 41.3542 304.021C38.4533 309.823 32.6517 319.25 19.598 319.25C2.19306 319.25 2.91836 305.471 2.91836 300.395L3.64361 274.287ZM26.125 280.814C26.8502 281.539 29.0258 285.165 29.0258 285.891C29.0258 286.616 28.3005 287.341 26.8501 287.341C26.1248 287.341 25.3997 286.616 23.9493 283.715C23.2241 282.989 21.0485 279.363 20.3232 277.913V277.188C20.3232 276.462 21.0486 275.738 22.499 275.738C23.2242 276.463 24.6746 279.363 26.125 280.814ZM34.1021 276.463C34.8273 277.188 37.0031 280.814 37.0031 281.539C37.0031 282.264 36.2778 282.99 34.8274 282.99C34.1022 282.99 34.1022 282.264 31.9266 279.364C31.2014 278.638 29.0258 275.012 28.3006 273.562V272.837C28.3006 272.111 29.0257 271.386 30.4761 271.386C31.2013 272.112 32.6517 274.287 34.1021 276.463Z" fill="black"></path><path d="M18.8691 320.701C13.0675 320.701 7.99085 319.251 5.09002 315.625C0.0135761 310.548 0.73896 303.296 0.73896 300.395L1.46399 274.286H3.63974H2.18924C2.18924 269.934 2.18924 267.759 5.81528 267.759C6.54048 267.759 7.99085 267.759 8.71606 268.484C9.44127 269.935 9.44131 271.385 9.44131 273.561L7.99103 299.669C7.99103 304.021 7.99085 306.197 8.71606 307.647C10.1665 312.724 17.4187 313.449 18.8691 313.449C24.6708 313.449 31.9227 311.274 37.7243 296.769C38.4495 296.044 39.1748 293.868 41.3504 293.868C43.526 293.868 44.9764 295.318 44.9764 297.494C44.9764 298.944 44.2512 300.395 42.0756 304.746C36.9992 315.625 29.022 320.701 18.8691 320.701ZM41.3504 297.494C41.3504 297.494 41.3504 297.494 41.3504 298.219C39.9 302.57 37.7244 306.197 35.5488 309.098C36.9992 306.922 38.4497 304.746 39.9001 302.57C41.3505 298.944 41.3504 297.494 41.3504 297.494ZM5.09002 273.561V274.286H2.91449H5.09002V275.012V273.561ZM27.5715 290.242C25.3959 290.242 25.3958 289.516 23.2202 285.89L21.7699 283.714C21.0447 282.264 19.5942 280.813 19.5942 280.088C19.5942 280.088 18.8691 279.362 18.8691 277.912C18.8691 277.187 19.5942 275.737 20.3194 275.737C21.0446 275.012 22.495 275.012 23.2202 275.012C24.6706 275.012 26.1211 277.187 28.2967 280.088C29.0219 281.539 31.9228 285.165 31.9228 286.615C31.1976 288.066 29.7471 290.242 27.5715 290.242ZM35.5488 285.164C34.0984 285.164 33.3731 284.439 31.1975 280.813L29.7472 278.638C29.022 277.187 27.5715 275.737 27.5715 275.012C27.5715 274.286 26.8462 274.286 26.8462 272.836C26.8462 272.11 27.5715 271.385 28.2967 270.66C29.0219 269.934 29.7471 269.934 31.1975 269.934C32.6479 269.934 34.0984 272.111 36.2741 275.012C36.9993 276.462 39.9001 280.088 39.9001 281.538C39.1749 283.714 36.9992 285.164 35.5488 285.164Z" fill="black"></path><path d="M73.9879 294.593C70.3619 298.944 68.1864 303.295 66.0108 306.196C64.5604 308.372 64.5603 309.097 63.8351 309.097C63.1098 309.097 62.3848 308.372 62.3848 307.647C62.3848 306.922 63.1098 306.196 63.1098 306.196L74.7132 289.517V284.44C66.7359 285.165 66.0107 285.165 64.5603 285.165C63.1099 285.165 63.1098 283.715 63.1098 283.715C63.1098 282.264 64.5603 282.265 65.2856 282.265C68.9116 282.265 70.3619 282.264 74.7132 281.539V272.112C74.7132 270.661 74.7133 269.936 76.1637 269.936C77.6141 269.936 77.614 270.661 77.614 272.112C77.614 275.012 77.614 285.165 77.614 288.066C80.5148 285.165 87.0417 280.089 95.7442 280.089C105.897 280.089 112.424 287.341 112.424 296.769C112.424 314.174 92.1183 317.074 91.3931 317.074C89.9427 317.074 89.9426 315.624 89.9426 315.624C89.9426 314.899 89.9426 314.898 92.8434 314.173C101.546 311.998 109.523 306.197 109.523 296.769C109.523 290.967 105.897 282.99 96.4694 282.99C93.5686 282.99 87.0418 283.714 79.0645 292.417C79.0645 298.219 79.0645 311.273 79.0645 317.074C79.0645 318.525 79.0644 319.975 77.614 319.975C76.1636 319.975 76.1637 319.25 76.1637 317.074L73.9879 294.593Z" fill="black"></path><path d="M75.4395 321.426C71.8135 321.426 71.8135 318.525 71.8135 317.074V300.395C69.6378 303.296 68.1873 305.471 66.7369 307.647C65.2865 309.823 64.5614 311.273 62.3858 311.273C60.2102 311.273 58.7598 309.823 58.7598 307.647C58.7598 306.922 59.4848 305.471 59.4848 305.471L71.0882 288.79V286.615H69.6379C65.2867 287.34 64.5613 287.34 63.1108 287.34C60.9352 287.34 59.4848 285.89 59.4848 283.714C59.4848 281.538 60.9352 280.813 63.1108 280.088H64.5614C66.737 280.088 68.1873 280.088 70.3629 279.363V271.385C70.3629 269.935 70.3629 267.033 73.989 267.033C77.615 267.033 77.615 269.934 77.615 270.659C77.615 272.11 77.615 277.912 77.615 281.538V282.264C81.2411 279.363 86.3177 276.462 93.5698 276.462C104.448 276.462 111.7 284.439 111.7 294.592C111.7 312.723 91.394 317.074 88.4932 317.074C86.3176 317.074 84.8671 315.624 84.8671 313.448C84.8671 311.272 86.3176 310.547 89.2185 309.822C96.4706 308.372 104.448 303.295 104.448 294.592C104.448 290.241 102.272 282.989 92.8445 282.989C90.6689 282.989 84.8673 282.989 76.89 290.966C76.89 296.768 76.89 309.823 76.89 314.899C76.89 316.35 76.89 317.8 76.1648 318.525C76.89 321.426 76.1647 321.426 75.4395 321.426ZM73.989 293.142C74.7142 293.142 74.7143 293.142 75.4395 293.142C75.4395 292.417 75.4395 292.417 75.4395 291.691C75.4395 290.966 75.4396 290.966 76.1648 290.241L76.89 289.516V290.241L73.989 293.142Z" fill="black"></path><path d="M146.513 286.615C150.139 285.89 154.49 285.164 158.116 285.164C168.994 285.164 174.071 292.416 174.071 299.668C174.071 314.173 159.566 316.349 155.94 317.074C153.04 317.799 149.413 317.799 147.238 317.799C146.513 317.799 145.062 317.799 145.062 316.349C145.062 314.899 146.513 314.899 147.238 314.899C151.589 314.899 171.17 314.899 171.17 300.394C171.17 296.043 168.994 288.79 158.116 288.79C152.314 288.79 143.612 290.966 139.986 292.416C139.261 292.416 135.635 293.867 134.909 293.867C134.184 293.867 133.459 293.141 133.459 292.416C133.459 290.966 134.184 290.966 135.635 290.966L146.513 286.615Z" fill="black"></path><path d="M147.236 319.975C143.61 319.975 143.61 317.8 143.61 316.349C143.61 315.624 143.61 312.723 147.236 312.723C157.388 312.723 168.992 310.547 168.992 299.669C168.992 297.493 168.267 289.516 158.114 289.516C152.312 289.516 144.335 291.692 140.709 293.143C140.709 293.143 135.632 294.593 134.907 294.593C132.732 294.593 131.281 293.142 131.281 290.967C131.281 289.516 132.732 288.066 134.907 287.34L146.51 284.439C150.862 282.989 154.488 282.989 158.839 282.989C171.167 282.989 176.969 290.966 176.969 299.669C176.969 309.822 169.717 317.075 157.388 318.525C153.762 319.25 149.411 319.975 147.236 319.975Z" fill="black"></path><path d="M216.124 282.265C216.849 285.891 217.574 288.791 217.574 289.517C225.551 286.616 237.88 282.99 238.605 282.99C240.056 282.99 240.056 284.44 240.056 285.165C240.056 286.615 240.056 286.616 234.979 287.341C219.75 290.967 202.345 296.043 202.345 306.196C202.345 311.998 209.597 314.899 221.925 314.899C227.002 314.899 232.078 314.173 234.979 314.173C235.704 314.173 239.33 313.448 240.056 313.448C240.781 313.448 241.506 314.174 241.506 314.899C241.506 316.349 240.056 317.074 238.605 317.074C237.88 317.074 231.353 317.799 223.376 317.799C214.673 317.799 198.719 317.074 198.719 306.196C198.719 299.669 203.795 294.593 213.223 290.967C212.498 288.791 211.772 285.165 211.772 282.99L209.597 272.837C209.597 272.111 209.597 272.112 209.597 271.386C209.597 270.661 210.322 269.936 211.772 269.936C213.223 269.936 213.223 270.661 213.948 272.112L216.124 282.265Z" fill="black"></path><path d="M224.104 319.975C216.851 319.975 197.996 319.975 197.996 306.196C197.996 299.669 203.073 293.867 212.5 289.516C211.775 287.34 211.05 285.165 211.05 282.989L208.874 272.836C208.874 272.11 208.874 271.385 208.874 271.385C208.874 269.21 210.325 267.759 212.5 267.759C215.401 267.759 216.126 269.935 216.126 271.385L217.577 281.538C218.302 283.714 218.302 285.89 219.027 286.615C226.279 283.714 237.157 280.813 239.333 280.813C241.508 280.813 242.959 282.989 242.959 284.439C242.959 287.34 241.509 287.34 236.432 288.79C216.126 293.142 205.248 298.944 205.248 305.471C205.248 309.822 211.05 311.998 223.378 311.998C228.455 311.998 233.531 311.273 236.432 311.273H237.157C239.333 310.548 241.508 310.547 242.234 310.547C243.684 310.547 245.86 311.997 245.86 314.173C245.86 317.799 242.959 317.8 241.508 318.525C239.333 318.525 232.081 319.975 224.104 319.975ZM240.783 314.899C240.783 314.899 239.333 314.899 236.432 315.624C237.883 315.624 238.608 315.624 239.333 315.624C240.058 314.899 240.783 314.899 240.783 314.899ZM216.126 290.241V290.966H216.851C216.851 290.966 216.851 290.966 216.126 290.241C216.851 290.966 216.126 290.966 216.126 290.241ZM212.5 271.385C212.5 271.385 212.5 272.111 212.5 271.385L213.951 276.462L213.225 272.11C212.5 272.11 212.5 272.111 212.5 271.385Z" fill="black"></path><path d="M286.468 293.868H272.69C268.338 293.868 266.888 292.417 266.888 288.066V274.287C266.888 273.561 266.888 272.836 268.338 272.836C269.789 272.836 269.789 273.561 269.789 274.287V288.066C269.789 290.242 271.239 290.967 272.69 290.967H286.468V269.935C286.468 269.21 286.468 268.485 287.919 268.485C289.369 268.485 289.369 269.21 289.369 269.935V290.967H303.148C305.324 290.967 306.049 290.242 306.049 288.066V274.287C306.049 273.561 306.049 272.836 307.499 272.836C308.95 272.836 308.95 273.561 308.95 274.287V288.066C308.95 292.417 307.499 293.868 303.148 293.868H289.369V317.8H305.324C307.499 317.8 308.225 317.076 308.225 314.9V302.571C308.225 301.845 308.224 301.12 309.675 301.12C311.125 301.12 311.125 301.845 311.125 302.571V314.9C311.125 319.251 309.675 320.701 305.324 320.701H269.063C264.712 320.701 263.262 319.251 263.262 314.9V302.571C263.262 301.845 263.262 301.12 264.712 301.12C266.163 301.12 266.162 301.845 266.162 302.571V314.9C266.162 317.076 267.613 317.8 269.063 317.8H285.018V293.868H286.468Z" fill="black"></path><path d="M306.779 322.151H270.518C265.442 322.151 262.541 319.975 262.541 314.173V301.845C262.541 298.944 263.991 298.219 266.167 298.219C268.343 298.219 269.793 299.669 269.793 301.845V314.173C269.793 314.899 269.793 315.624 271.244 315.624H285.748V295.318H273.419C268.343 295.318 266.167 293.142 266.167 287.341V273.561C266.167 270.66 267.617 269.935 269.793 269.935C271.969 269.935 273.419 271.386 273.419 273.561V287.341C273.419 288.066 273.419 288.791 274.87 288.791H286.473V269.935C286.473 267.034 287.923 266.309 290.099 266.309C292.275 266.309 293.725 267.76 293.725 269.935V288.791H305.328C306.779 288.791 306.779 288.791 306.779 287.341V273.561C306.779 270.66 308.229 269.935 310.405 269.935C312.58 269.935 314.031 271.386 314.031 273.561V287.341C314.031 292.417 311.855 295.318 306.053 295.318H293.725V315.624H308.229C308.954 315.624 309.679 315.624 309.679 314.173V301.845C309.679 298.944 311.13 298.219 313.305 298.219C315.481 298.219 316.931 299.669 316.931 301.845V314.173C314.031 319.975 311.855 322.151 306.779 322.151ZM287.923 318.525C288.648 318.525 288.648 318.525 287.923 318.525C288.648 318.525 288.648 318.525 287.923 318.525ZM287.923 292.417C288.648 293.142 288.648 292.417 288.648 292.417C288.648 292.417 288.648 291.692 287.923 292.417C287.923 291.692 287.923 292.417 287.923 292.417Z" fill="black"></path><path d="M336.518 292.417H330.716C329.991 292.417 329.266 292.418 329.266 290.967C329.266 289.517 330.716 289.517 330.716 289.517H336.518V274.287H330.716C329.991 274.287 329.266 274.287 329.266 272.837C329.266 271.386 330.716 271.387 330.716 271.387H345.945C346.671 271.387 347.396 271.386 347.396 272.837C347.396 274.287 345.945 274.287 345.945 274.287H339.418V289.517H344.495C345.22 289.517 345.945 289.517 345.945 290.967C345.945 292.418 344.495 292.417 344.495 292.417H339.418V308.373C341.594 307.648 343.77 306.922 344.495 306.922C345.945 306.197 346.671 306.197 346.671 306.197C347.396 306.197 348.121 306.923 348.121 307.648C348.121 309.098 348.121 309.098 343.77 310.548C337.968 311.998 330.716 313.449 330.716 313.449C329.991 313.449 329.266 312.724 329.266 311.999C329.266 310.549 329.991 310.548 330.716 310.548C332.167 309.823 335.067 309.823 337.243 309.098V292.417H336.518ZM354.648 301.846C351.022 301.846 350.297 300.396 350.297 296.769V274.287C350.297 270.661 351.747 269.936 354.648 269.936H375.679C379.305 269.936 380.755 271.386 380.755 274.287V296.769C380.755 300.396 379.305 301.846 375.679 301.846H370.603V315.625C370.603 317.801 372.053 317.8 373.503 317.8C377.855 317.8 378.58 317.8 378.58 317.075C378.58 316.35 378.58 315.625 379.305 311.274C379.305 309.823 379.305 309.098 380.755 309.098C381.481 309.098 382.206 309.823 382.206 310.548C382.206 311.998 381.481 317.801 380.755 319.251C380.03 320.702 379.305 320.701 372.053 320.701C369.152 320.701 366.976 319.976 366.976 315.625V301.846H360.449C359.724 307.647 357.549 314.175 348.846 318.526C345.945 319.977 343.044 320.701 342.319 320.701C341.594 320.701 340.869 319.977 340.869 318.526C340.869 317.801 341.594 317.075 342.319 317.075C350.297 314.9 356.098 311.274 357.549 301.121H354.648V301.846ZM353.197 280.089H377.129V275.738C377.129 274.287 376.404 273.562 374.954 273.562H355.373C353.923 273.562 353.197 274.287 353.197 275.738V280.089ZM377.129 282.265H353.197V288.791H377.129V282.265ZM353.197 291.692V296.769C353.197 298.22 353.923 298.945 355.373 298.945H374.954C376.404 298.945 377.129 298.22 377.129 296.769V291.692H353.197Z" fill="black"></path><path d="M342.317 323.602C340.141 323.602 338.691 322.151 338.691 319.976C338.691 319.25 338.691 317.8 341.592 317.075C348.844 314.899 353.921 311.998 355.371 304.746H354.646C350.294 304.746 348.119 302.57 348.119 298.219V292.417C348.119 293.867 346.668 294.593 344.493 294.593H340.867V306.921C342.317 306.921 343.042 306.196 343.768 306.196C345.943 305.471 345.943 305.471 346.668 305.471C348.119 305.471 349.569 306.922 349.569 309.097C349.569 311.998 348.119 311.998 343.768 313.448C338.691 314.899 330.714 316.35 329.989 316.35C328.538 316.35 327.088 314.899 327.088 312.723C327.088 310.548 329.263 309.822 329.263 309.822C330.714 309.097 332.89 309.098 334.34 308.372V294.593H330.714C327.813 294.593 327.088 293.143 327.088 290.967C327.088 288.791 327.813 287.341 330.714 287.341H334.34V275.737H330.714C327.813 275.737 327.088 274.287 327.088 272.836C327.088 271.386 327.813 269.935 330.714 269.935H345.943C347.394 269.935 348.119 270.661 348.844 271.386C349.569 269.211 351.745 268.485 354.646 268.485H375.677C380.028 268.485 382.203 270.661 382.203 275.012V297.494C382.203 301.845 380.028 304.021 375.677 304.021H372.776V315.624C372.776 316.35 373.501 316.35 373.501 316.35C374.952 316.35 376.402 316.35 377.127 316.35C377.127 315.624 377.127 314.899 377.127 313.448V311.998C377.127 310.548 377.127 307.647 380.753 307.647C382.929 307.647 384.379 309.098 384.379 311.273C384.379 311.999 384.379 318.525 382.203 320.701C380.753 322.876 379.303 322.877 372.051 322.877C369.15 322.877 365.524 322.151 365.524 316.35V304.021H362.623C361.173 309.823 358.997 316.349 350.294 320.701C347.394 322.151 343.767 323.602 342.317 323.602ZM337.966 309.822C337.966 309.822 338.691 309.822 337.966 309.822C338.691 309.822 338.691 309.822 337.966 309.822ZM368.425 301.12C368.425 301.12 369.15 301.12 368.425 301.12C369.15 301.12 369.15 301.12 368.425 301.12ZM354.646 297.494H374.226L374.951 296.769V293.143H354.646V297.494ZM337.241 290.967C337.966 290.967 337.966 290.967 337.241 290.967C337.966 290.967 337.966 290.967 337.966 290.967C337.966 290.242 337.966 290.242 337.241 290.967C337.966 290.242 337.966 290.242 337.241 290.967ZM377.852 290.242C377.852 290.242 377.852 290.967 377.852 290.242V290.242ZM341.592 287.341H345.218C347.394 287.341 348.119 288.792 348.844 289.517V275.012C348.119 275.012 347.394 275.737 346.668 275.737H342.317V287.341H341.592ZM354.646 287.341H374.951V284.44H354.646V287.341ZM377.852 281.539C377.852 280.813 377.852 280.813 377.852 281.539V281.539ZM351.745 280.814C351.745 281.539 351.745 281.539 351.745 280.814V280.814ZM354.646 277.913H374.951V275.012C374.951 275.012 374.951 275.012 374.951 274.286H355.371L354.646 275.012V277.913Z" fill="black"></path><path d="M3.64361 8.49121C3.64361 4.13994 3.64347 4.14012 5.09388 4.14012C7.2695 4.14012 7.26963 4.86515 7.26963 8.49121L5.81913 34.5995C5.81913 36.7751 5.81918 40.4008 6.54438 43.3017C7.99479 49.1033 14.5217 50.5538 18.1477 50.5538C26.125 50.5538 33.377 46.9277 39.1786 32.4235C39.9038 30.9731 39.9038 30.2475 41.3542 30.2475C42.0794 30.2475 43.5299 30.9733 43.5299 31.6985C43.5299 33.1489 42.0794 36.7751 41.3542 38.2255C38.4533 44.0272 32.6517 53.4548 19.598 53.4548C2.19306 53.4548 2.91836 39.676 2.91836 34.5995L3.64361 8.49121ZM26.125 15.0183C26.8502 15.7435 29.0258 19.3701 29.0258 20.0953C29.0258 20.8205 28.3005 21.5453 26.8501 21.5453C26.1248 21.5453 25.3997 20.8201 23.9493 17.9193C23.2241 17.1941 21.0485 13.5677 20.3232 12.1173V11.3922C20.3232 10.667 21.0486 9.94216 22.499 9.94216C23.2242 10.6674 24.6746 13.5679 26.125 15.0183ZM34.1021 10.6672C34.8273 11.3924 37.0031 15.0181 37.0031 15.7433C37.0031 16.4685 36.2778 17.1943 34.8274 17.1943C34.1022 17.1943 34.1022 16.4691 31.9266 13.5682C31.2014 12.843 29.0258 9.21659 28.3006 7.76617V7.04114C28.3006 6.31593 29.0257 5.59107 30.4761 5.59107C31.2013 6.31628 32.6517 8.49156 34.1021 10.6672Z" fill="#BCBCBC"></path><path d="M18.8691 54.9059C13.0675 54.9059 7.99085 53.4557 5.09002 49.8295C0.0135761 44.7529 0.73896 37.5006 0.73896 34.5997L1.46399 8.49035H3.63974H2.18924C2.18924 4.13892 2.18924 1.96391 5.81528 1.96391C6.54048 1.96391 7.99085 1.96373 8.71606 2.68897C9.44127 4.13945 9.44131 5.58957 9.44131 7.76529L7.99103 33.8737C7.99103 38.2252 7.99085 40.4016 8.71606 41.8521C10.1665 46.9288 17.4187 47.6535 18.8691 47.6535C24.6708 47.6535 31.9227 45.4783 37.7243 30.9735C38.4495 30.2482 39.1748 28.0724 41.3504 28.0724C43.526 28.0724 44.9764 29.5228 44.9764 31.6986C44.9764 33.149 44.2512 34.5995 42.0756 38.9509C36.9992 49.8295 29.022 54.9059 18.8691 54.9059ZM41.3504 31.6986C41.3504 31.6986 41.3504 31.6984 41.3504 32.4236C39.9 36.7751 37.7244 40.4012 35.5488 43.3022C36.9992 41.1265 38.4497 38.9506 39.9001 36.7749C41.3505 33.1487 41.3504 31.6986 41.3504 31.6986ZM5.09002 7.76529V8.49035H2.91449H5.09002V9.2163V7.76529ZM27.5715 24.4462C25.3959 24.4462 25.3958 23.7211 23.2202 20.0949L21.7699 17.9188C21.0447 16.4683 19.5942 15.0179 19.5942 14.2926C19.5942 14.2926 18.8691 13.567 18.8691 12.1166C18.8691 11.3913 19.5942 9.94136 20.3194 9.94136C21.0446 9.21612 22.495 9.2163 23.2202 9.2163C24.6706 9.2163 26.1211 11.3917 28.2967 14.2926C29.0219 15.7431 31.9228 19.3695 31.9228 20.82C31.1976 22.2704 29.7471 24.4462 27.5715 24.4462ZM35.5488 19.3689C34.0984 19.3689 33.3731 18.6439 31.1975 15.0177L29.7472 12.8425C29.022 11.392 27.5715 9.94154 27.5715 9.2163C27.5715 8.49106 26.8462 8.49071 26.8462 7.04023C26.8462 6.31499 27.5715 5.58939 28.2967 4.86416C29.0219 4.13892 29.7471 4.13909 31.1975 4.13909C32.6479 4.13909 34.0984 6.31534 36.2741 9.2163C36.9993 10.6668 39.9001 14.2923 39.9001 15.7427C39.1749 17.9185 36.9992 19.3689 35.5488 19.3689Z" fill="#BCBCBC"></path><path d="M73.9879 28.7975C70.3619 33.1487 68.1864 37.4998 66.0108 40.4007C64.5604 42.5763 64.5603 43.3017 63.8351 43.3017C63.1098 43.3017 62.3848 42.5768 62.3848 41.8516C62.3848 41.1264 63.1098 40.4007 63.1098 40.4007L74.7132 23.7213V18.6443C66.7359 19.3695 66.0107 19.3694 64.5603 19.3694C63.1099 19.3694 63.1098 17.9193 63.1098 17.9193C63.1098 16.4689 64.5603 16.4692 65.2856 16.4692C68.9116 16.4692 70.3619 16.4685 74.7132 15.7433V6.31609C74.7132 4.86566 74.7133 4.1401 76.1637 4.1401C77.6141 4.1401 77.614 4.86566 77.614 6.31609C77.614 9.21693 77.614 19.3695 77.614 22.2704C80.5148 19.3695 87.0417 14.2932 95.7442 14.2932C105.897 14.2932 112.424 21.5457 112.424 30.9735C112.424 48.3785 92.1183 51.2789 91.3931 51.2789C89.9427 51.2789 89.9426 49.8288 89.9426 49.8288C89.9426 49.1036 89.9426 49.103 92.8434 48.3778C101.546 46.2022 109.523 40.4012 109.523 30.9735C109.523 25.1718 105.897 17.1943 96.4694 17.1943C93.5686 17.1943 87.0418 17.9189 79.0645 26.6215C79.0645 32.4232 79.0645 45.4772 79.0645 51.2789C79.0645 52.7293 79.0644 54.1799 77.614 54.1799C76.1636 54.1799 76.1637 53.4545 76.1637 51.2789L73.9879 28.7975Z" fill="#BCBCBC"></path><path d="M75.4395 55.6301C71.8135 55.6301 71.8135 52.7294 71.8135 51.2789V34.5992C69.6378 37.5001 68.1873 39.6758 66.7369 41.8515C65.2865 44.0272 64.5614 45.4776 62.3858 45.4776C60.2102 45.4776 58.7598 44.0272 58.7598 41.8515C58.7598 41.1262 59.4848 39.6754 59.4848 39.6754L71.0882 22.9948V20.8196H69.6379C65.2867 21.5449 64.5613 21.5447 63.1108 21.5447C60.9352 21.5447 59.4848 20.0942 59.4848 17.9186C59.4848 15.7429 60.9352 15.0176 63.1108 14.2924H64.5614C66.737 14.2924 68.1873 14.2926 70.3629 13.5674V5.59001C70.3629 4.13955 70.3629 1.23793 73.989 1.23793C77.615 1.23793 77.615 4.13885 77.615 4.86408C77.615 6.31453 77.615 12.1164 77.615 15.7425V16.4684C81.2411 13.5675 86.3177 10.6663 93.5698 10.6663C104.448 10.6663 111.7 18.6438 111.7 28.797C111.7 46.9277 91.394 51.2789 88.4932 51.2789C86.3176 51.2789 84.8671 49.8285 84.8671 47.6528C84.8671 45.4771 86.3176 44.7519 89.2185 44.0266C96.4706 42.5762 104.448 37.4997 104.448 28.797C104.448 24.4456 102.272 17.1935 92.8445 17.1935C90.6689 17.1935 84.8673 17.1933 76.89 25.1708C76.89 30.9727 76.89 44.0272 76.89 49.1038C76.89 50.5542 76.89 52.0047 76.1648 52.7299C76.89 55.6308 76.1647 55.6301 75.4395 55.6301ZM73.989 27.3469C74.7142 27.3469 74.7143 27.3469 75.4395 27.3469C75.4395 26.6217 75.4395 26.6211 75.4395 25.8959C75.4395 25.1707 75.4396 25.171 76.1648 24.4458L76.89 23.7207V24.4458L73.989 27.3469Z" fill="#BCBCBC"></path><path d="M146.513 20.8194C150.139 20.0942 154.49 19.3684 158.116 19.3684C168.994 19.3684 174.071 26.6207 174.071 33.873C174.071 48.3776 159.566 50.5534 155.94 51.2787C153.04 52.0039 149.413 52.0037 147.238 52.0037C146.513 52.0037 145.062 52.0041 145.062 50.5536C145.062 49.1031 146.513 49.1035 147.238 49.1035C151.589 49.1035 171.17 49.1035 171.17 34.5989C171.17 30.2475 168.994 22.9945 158.116 22.9945C152.314 22.9945 143.612 25.1702 139.986 26.6207C139.261 26.6207 135.635 28.0717 134.909 28.0717C134.184 28.0717 133.459 27.3459 133.459 26.6207C133.459 25.1702 134.184 25.1706 135.635 25.1706L146.513 20.8194Z" fill="#BCBCBC"></path><path d="M147.236 54.1799C143.61 54.1799 143.61 52.0042 143.61 50.5538C143.61 49.8286 143.61 46.9277 147.236 46.9277C157.388 46.9277 168.992 44.7517 168.992 33.8734C168.992 31.6977 168.267 23.721 158.114 23.721C152.312 23.721 144.335 25.8967 140.709 27.3471C140.709 27.3471 135.632 28.7972 134.907 28.7972C132.732 28.7972 131.281 27.3468 131.281 25.1711C131.281 23.7207 132.732 22.2702 134.907 21.545L146.51 18.644C150.862 17.1935 154.488 17.1939 158.839 17.1939C171.167 17.1939 176.969 25.1708 176.969 33.8734C176.969 44.0265 169.717 51.2794 157.388 52.7298C153.762 53.455 149.411 54.1799 147.236 54.1799Z" fill="#BCBCBC"></path><path d="M216.124 16.4692C216.849 20.0952 217.574 22.9961 217.574 23.7213C225.551 20.8204 237.88 17.1942 238.605 17.1942C240.056 17.1942 240.056 18.6441 240.056 19.3693C240.056 20.8197 240.056 20.8201 234.979 21.5453C219.75 25.1713 202.345 30.2476 202.345 40.4005C202.345 46.2022 209.597 49.1036 221.925 49.1036C227.002 49.1036 232.078 48.3777 234.979 48.3777C235.704 48.3777 239.33 47.6526 240.056 47.6526C240.781 47.6526 241.506 48.3784 241.506 49.1036C241.506 50.554 240.056 51.2787 238.605 51.2787C237.88 51.2787 231.353 52.0037 223.376 52.0037C214.673 52.0037 198.719 51.2787 198.719 40.4005C198.719 33.8737 203.795 28.7974 213.223 25.1713C212.498 22.9957 211.772 19.3699 211.772 17.1942L209.597 7.04113C209.597 6.31592 209.597 6.31628 209.597 5.59107C209.597 4.86586 210.322 4.14012 211.772 4.14012C213.223 4.14012 213.223 4.86568 213.948 6.3161L216.124 16.4692Z" fill="#BCBCBC"></path><path d="M224.104 54.1799C216.851 54.1799 197.996 54.1797 197.996 40.4004C197.996 33.8734 203.073 28.0721 212.5 23.7207C211.775 21.545 211.05 19.3692 211.05 17.1935L208.874 7.04014C208.874 6.31491 208.874 5.59004 208.874 5.59004C208.874 3.41436 210.325 1.96391 212.5 1.96391C215.401 1.96391 216.126 4.13959 216.126 5.59004L217.577 15.7425C218.302 17.9182 218.302 20.0944 219.027 20.8196C226.279 17.9187 237.157 15.0175 239.333 15.0175C241.508 15.0175 242.959 17.1931 242.959 18.6436C242.959 21.5445 241.509 21.5443 236.432 22.9948C216.126 27.3461 205.248 33.1483 205.248 39.6754C205.248 44.0267 211.05 46.2026 223.378 46.2026C228.455 46.2026 233.531 45.4775 236.432 45.4775H237.157C239.333 44.7523 241.508 44.7516 242.234 44.7516C243.684 44.7516 245.86 46.202 245.86 48.3777C245.86 52.0039 242.959 52.0046 241.508 52.7298C239.333 52.7298 232.081 54.1799 224.104 54.1799ZM240.783 49.1037C240.783 49.1037 239.333 49.1035 236.432 49.8287C237.883 49.8287 238.608 49.8287 239.333 49.8287C240.058 49.1035 240.783 49.1037 240.783 49.1037ZM216.126 24.4458V25.1708H216.851C216.851 25.1708 216.851 25.171 216.126 24.4458C216.851 25.171 216.126 25.171 216.126 24.4458ZM212.5 5.59004C212.5 5.59004 212.5 6.31527 212.5 5.59004L213.951 10.6663L213.225 6.31509C212.5 6.31509 212.5 6.31527 212.5 5.59004Z" fill="#BCBCBC"></path><path d="M286.468 28.0728H272.69C268.338 28.0728 266.888 26.622 266.888 22.2706V8.49114C266.888 7.76591 266.888 7.04104 268.338 7.04104C269.789 7.04104 269.789 7.76591 269.789 8.49114V22.2706C269.789 24.4463 271.239 25.1717 272.69 25.1717H286.468V4.13996C286.468 3.41473 286.468 2.68986 287.919 2.68986C289.369 2.68986 289.369 3.41473 289.369 4.13996V25.1717H303.148C305.324 25.1717 306.049 24.4463 306.049 22.2706V8.49114C306.049 7.76591 306.049 7.04104 307.499 7.04104C308.95 7.04104 308.95 7.76591 308.95 8.49114V22.2706C308.95 26.622 307.499 28.0728 303.148 28.0728H289.369V52.0048H305.324C307.499 52.0048 308.225 51.2802 308.225 49.1046V36.7752C308.225 36.0499 308.224 35.3251 309.675 35.3251C311.125 35.3251 311.125 36.0499 311.125 36.7752V49.1046C311.125 53.4559 309.675 54.9058 305.324 54.9058H269.063C264.712 54.9058 263.262 53.4559 263.262 49.1046V36.7752C263.262 36.0499 263.262 35.3251 264.712 35.3251C266.163 35.3251 266.162 36.0499 266.162 36.7752V49.1046C266.162 51.2802 267.613 52.0048 269.063 52.0048H285.018V28.0728H286.468Z" fill="#BCBCBC"></path><path d="M306.779 56.3561H270.518C265.442 56.3561 262.541 54.1797 262.541 48.378V36.0496C262.541 33.1487 263.991 32.4235 266.167 32.4235C268.343 32.4235 269.793 33.8739 269.793 36.0496V48.378C269.793 49.1032 269.793 49.8289 271.244 49.8289H285.748V29.5224H273.419C268.343 29.5224 266.167 27.347 266.167 21.5452V7.76586C266.167 4.86499 267.617 4.13977 269.793 4.13977C271.969 4.13977 273.419 5.59021 273.419 7.76586V21.5452C273.419 22.2704 273.419 22.9953 274.87 22.9953H286.473V4.13977C286.473 1.23889 287.923 0.513672 290.099 0.513672C292.275 0.513672 293.725 1.96411 293.725 4.13977V22.9953H305.328C306.779 22.9953 306.779 22.9956 306.779 21.5452V7.76586C306.779 4.86499 308.229 4.13977 310.405 4.13977C312.58 4.13977 314.031 5.59021 314.031 7.76586V21.5452C314.031 26.6217 311.855 29.5224 306.053 29.5224H293.725V49.8289H308.229C308.954 49.8289 309.679 49.8284 309.679 48.378V36.0496C309.679 33.1487 311.13 32.4235 313.305 32.4235C315.481 32.4235 316.931 33.8739 316.931 36.0496V48.378C314.031 54.1797 311.855 56.3561 306.779 56.3561ZM287.923 52.73C288.648 52.73 288.648 52.73 287.923 52.73C288.648 52.73 288.648 52.73 287.923 52.73ZM287.923 26.6214C288.648 27.3466 288.648 26.6214 288.648 26.6214C288.648 26.6214 288.648 25.8962 287.923 26.6214C287.923 25.8962 287.923 26.6214 287.923 26.6214Z" fill="#BCBCBC"></path><path d="M336.518 26.6219H330.716C329.991 26.6219 329.266 26.6223 329.266 25.1718C329.266 23.7214 330.716 23.7217 330.716 23.7217H336.518V8.49131H330.716C329.991 8.49131 329.266 8.49166 329.266 7.04121C329.266 5.59076 330.716 5.59112 330.716 5.59112H345.945C346.671 5.59112 347.396 5.59076 347.396 7.04121C347.396 8.49166 345.945 8.49131 345.945 8.49131H339.418V23.7217H344.495C345.22 23.7217 345.945 23.7214 345.945 25.1718C345.945 26.6223 344.495 26.6219 344.495 26.6219H339.418V42.5774C341.594 41.8522 343.77 41.1264 344.495 41.1264C345.945 40.4012 346.671 40.4014 346.671 40.4014C347.396 40.4014 348.121 41.1271 348.121 41.8524C348.121 43.3028 348.121 43.3021 343.77 44.7526C337.968 46.203 330.716 47.6536 330.716 47.6536C329.991 47.6536 329.266 46.9288 329.266 46.2035C329.266 44.7531 329.991 44.7526 330.716 44.7526C332.167 44.0273 335.067 44.0277 337.243 43.3025V26.6219H336.518ZM354.648 36.0502C351.022 36.0502 350.297 34.6001 350.297 30.974V8.49131C350.297 4.86518 351.747 4.14014 354.648 4.14014H375.679C379.305 4.14014 380.755 5.59041 380.755 8.49131V30.974C380.755 34.6001 379.305 36.0502 375.679 36.0502H370.603V49.8297C370.603 52.0053 372.053 52.0048 373.503 52.0048C377.855 52.0048 378.58 52.005 378.58 51.2798C378.58 50.5545 378.58 49.8298 379.305 45.4785C379.305 44.028 379.305 43.3025 380.755 43.3025C381.481 43.3025 382.206 44.0273 382.206 44.7526C382.206 46.203 381.481 52.0053 380.755 53.4558C380.03 54.9062 379.305 54.9059 372.053 54.9059C369.152 54.9059 366.976 54.181 366.976 49.8297V36.0502H360.449C359.724 41.852 357.549 48.3794 348.846 52.7307C345.945 54.1812 343.044 54.9059 342.319 54.9059C341.594 54.9059 340.869 54.1812 340.869 52.7307C340.869 52.0055 341.594 51.2798 342.319 51.2798C350.297 49.1041 356.098 45.4783 357.549 35.3252H354.648V36.0502ZM353.197 14.2935H377.129V9.94229C377.129 8.49184 376.404 7.76626 374.954 7.76626H355.373C353.923 7.76626 353.197 8.49184 353.197 9.94229V14.2935ZM377.129 16.4695H353.197V22.9958H377.129V16.4695ZM353.197 25.8969V30.974C353.197 32.4244 353.923 33.1491 355.373 33.1491H374.954C376.404 33.1491 377.129 32.4244 377.129 30.974V25.8969H353.197Z" fill="#BCBCBC"></path><path d="M342.317 57.8063C340.141 57.8063 338.691 56.3559 338.691 54.1802C338.691 53.455 338.691 52.0044 341.592 51.2792C348.844 49.1035 353.921 46.203 355.371 38.9508H354.646C350.294 38.9508 348.119 36.775 348.119 32.4237V26.6216C348.119 28.072 346.668 28.7976 344.493 28.7976H340.867V41.1259C342.317 41.1259 343.042 40.4009 343.768 40.4009C345.943 39.6757 345.943 39.6758 346.668 39.6758C348.119 39.6758 349.569 41.1263 349.569 43.3019C349.569 46.2028 348.119 46.2026 343.768 47.6531C338.691 49.1035 330.714 50.5541 329.989 50.5541C328.538 50.5541 327.088 49.1037 327.088 46.928C327.088 44.7524 329.263 44.027 329.263 44.027C330.714 43.3018 332.89 43.3021 334.34 42.5769V28.7976H330.714C327.813 28.7976 327.088 27.3471 327.088 25.1715C327.088 22.9958 327.813 21.5454 330.714 21.5454H334.34V9.94206H330.714C327.813 9.94206 327.088 8.49145 327.088 7.04101C327.088 5.59057 327.813 4.13996 330.714 4.13996H345.943C347.394 4.13996 348.119 4.86571 348.844 5.59092C349.569 3.41527 351.745 2.68987 354.646 2.68987H375.677C380.028 2.68987 382.203 4.86571 382.203 9.21702V31.6986C382.203 36.0499 380.028 38.2258 375.677 38.2258H372.776V49.8291C372.776 50.5543 373.501 50.5541 373.501 50.5541C374.952 50.5541 376.402 50.5541 377.127 50.5541C377.127 49.8289 377.127 49.1035 377.127 47.6531V46.203C377.127 44.7526 377.127 41.8519 380.753 41.8519C382.929 41.8519 384.379 43.3023 384.379 45.478C384.379 46.2032 384.379 52.7296 382.203 54.9053C380.753 57.0809 379.303 57.0813 372.051 57.0813C369.15 57.0813 365.524 56.3559 365.524 50.5541V38.2258H362.623C361.173 44.0275 358.997 50.554 350.294 54.9053C347.394 56.3557 343.767 57.8063 342.317 57.8063ZM337.966 44.027C337.966 44.027 338.691 44.027 337.966 44.027C338.691 44.027 338.691 44.027 337.966 44.027ZM368.425 35.3247C368.425 35.3247 369.15 35.3247 368.425 35.3247C369.15 35.3247 369.15 35.3247 368.425 35.3247ZM354.646 31.6986H374.226L374.951 30.9736V27.3475H354.646V31.6986ZM337.241 25.1715C337.966 25.1715 337.966 25.1715 337.241 25.1715C337.966 25.1715 337.966 25.1715 337.966 25.1715C337.966 24.4463 337.966 24.4463 337.241 25.1715C337.966 24.4463 337.966 24.4463 337.241 25.1715ZM377.852 24.4464C377.852 24.4464 377.852 25.1717 377.852 24.4464V24.4464ZM341.592 21.5454H345.218C347.394 21.5454 348.119 22.9962 348.844 23.7214V9.21702C348.119 9.21702 347.394 9.94206 346.668 9.94206H342.317V21.5454H341.592ZM354.646 21.5454H374.951V18.6443H354.646V21.5454ZM377.852 15.7433C377.852 15.0181 377.852 15.0181 377.852 15.7433V15.7433ZM351.745 15.0182C351.745 15.7435 351.745 15.7435 351.745 15.0182V15.0182ZM354.646 12.1172H374.951V9.21702C374.951 9.21702 374.951 9.21631 374.951 8.49109H355.371L354.646 9.21702V12.1172Z" fill="#BCBCBC"></path><path d="M184.937 111.112C182.761 111.112 181.311 109.662 181.311 107.486V103.86C181.311 101.684 182.761 100.234 184.937 100.234C187.112 100.234 188.563 101.684 188.563 103.86V107.486C188.563 108.937 187.112 111.112 184.937 111.112Z" fill="black"></path><path d="M184.937 162.604C182.761 162.604 181.311 161.153 181.311 158.978V152.451C181.311 150.275 182.761 148.824 184.937 148.824C187.112 148.824 188.563 150.275 188.563 152.451V158.978C188.563 161.153 187.112 162.604 184.937 162.604ZM184.937 136.495C182.761 136.495 181.311 135.045 181.311 132.869V126.343C181.311 124.167 182.761 122.717 184.937 122.717C187.112 122.717 188.563 124.167 188.563 126.343V132.869C188.563 135.045 187.112 136.495 184.937 136.495Z" fill="black"></path><path d="M184.937 185.81C182.761 185.81 181.311 184.36 181.311 182.184V178.558C181.311 176.382 182.761 174.932 184.937 174.932C187.112 174.932 188.563 176.382 188.563 178.558V182.184C188.563 184.36 187.112 185.81 184.937 185.81Z" fill="black"></path><path d="M166.805 177.107L184.935 208.291L203.065 177.107H166.805Z" fill="black"></path></svg> 