<?xml version="1.0" encoding="UTF-8"?> <svg xmlns="http://www.w3.org/2000/svg" width="552" height="377" viewBox="0 0 552 377" fill="none"><path d="M274.378 130.471C272.104 130.471 270.588 128.953 270.588 126.678V122.885C270.588 120.609 272.104 119.092 274.378 119.092C276.652 119.092 278.168 120.609 278.168 122.885V126.678C278.168 128.953 276.652 130.471 274.378 130.471Z" fill="black"></path><path d="M274.378 185.086C272.104 185.086 270.588 183.569 270.588 181.293V174.466C270.588 172.191 272.104 170.673 274.378 170.673C276.652 170.673 278.168 172.191 278.168 174.466V181.293C278.168 182.81 276.652 185.086 274.378 185.086ZM274.378 157.778C272.104 157.778 270.588 156.261 270.588 153.985V147.158C270.588 144.883 272.104 143.366 274.378 143.366C276.652 143.366 278.168 144.883 278.168 147.158V153.985C278.168 156.261 276.652 157.778 274.378 157.778Z" fill="black"></path><path d="M274.378 208.602C272.104 208.602 270.588 207.085 270.588 204.809V201.016C270.588 198.74 272.104 197.223 274.378 197.223C276.652 197.223 278.168 198.74 278.168 201.016V204.809C278.168 207.085 276.652 208.602 274.378 208.602Z" fill="black"></path><path d="M255.428 199.499L274.377 232.116L293.326 199.499H255.428Z" fill="black"></path><path d="M3.7952 343.624C3.03724 343.624 2.2793 343.624 2.2793 342.107C2.2793 340.59 3.7952 340.59 3.7952 340.59H52.305C53.063 340.59 53.8209 340.59 53.8209 342.107C53.8209 343.624 52.305 343.624 52.305 343.624H31.84C31.84 351.21 30.324 359.554 25.0182 365.622C20.4705 370.932 13.6488 373.208 12.8909 373.208C11.3749 373.208 11.3749 371.691 11.3749 370.932C11.3749 370.174 11.3749 370.174 13.6488 368.656C27.2921 363.347 28.0502 351.968 28.0502 343.624H3.7952V343.624ZM45.4833 323.902C46.2412 323.902 46.9993 323.902 46.9993 325.419C46.9993 326.936 45.4833 326.936 45.4833 326.936H11.3749C10.6169 326.936 9.85894 326.936 9.85894 325.419C9.85894 323.902 10.6169 323.902 11.3749 323.902H45.4833Z" fill="black"></path><path d="M12.1275 374.725C9.85357 374.725 8.33764 372.449 8.33764 370.932C8.33764 368.656 9.85357 367.898 12.1275 367.139C23.4969 362.588 25.7708 354.244 25.7708 345.141H3.78982C1.51593 345.141 0 343.624 0 341.348C0 339.831 0.757963 337.556 3.78982 337.556H52.2995C54.5734 337.556 56.0894 339.073 56.0894 341.348C56.0894 343.624 54.5734 345.141 52.2995 345.141H33.3505C33.3505 352.727 31.8345 360.312 25.7708 366.38C21.223 371.69 13.6434 374.725 12.1275 374.725ZM28.0447 341.348C28.8027 342.107 28.8027 342.107 28.0447 341.348C28.8027 342.107 29.5606 342.865 29.5606 342.865C29.5606 343.624 29.5606 344.382 29.5606 345.141C29.5606 344.382 29.5606 343.624 29.5606 342.107C29.5606 341.348 30.3186 340.59 31.0765 340.59L28.0447 341.348ZM45.4778 329.211H11.3694C8.3376 329.211 7.57963 326.936 7.57963 325.419C7.57963 323.143 9.09556 321.626 11.3694 321.626H45.4778C48.5097 321.626 49.2676 323.143 49.2676 325.419C48.5097 327.694 47.7517 329.211 45.4778 329.211Z" fill="black"></path><path d="M92.4729 323.142C91.715 320.867 93.9888 320.867 93.9888 320.867C94.7468 320.867 95.5047 321.625 95.5047 322.384L97.0207 332.245L114.454 329.211C115.212 329.211 116.728 329.211 116.728 330.728C116.728 331.486 115.97 332.245 115.212 332.245L97.7787 335.279L100.053 347.416L120.518 344.382C122.791 344.382 122.792 345.899 122.792 345.899C122.792 347.416 122.033 347.416 121.275 347.416L100.81 350.45L104.6 369.414C105.358 371.69 103.084 371.69 102.326 371.69C100.81 371.69 100.81 370.931 100.81 370.173L97.0207 350.45L73.5238 354.243C72.0079 354.243 72.0078 352.726 72.0078 352.726C72.0078 351.209 72.7659 351.209 73.5238 351.209L97.0207 347.416L94.7467 335.279L77.3137 338.313C75.0398 338.313 75.0397 336.796 75.0397 336.796C75.0397 335.279 75.7977 335.279 76.5556 335.279L93.9888 332.245L92.4729 323.142Z" fill="black"></path><path d="M103.847 374.724C102.331 374.724 100.815 373.966 100.057 371.69L97.0249 354.243L75.0439 358.036C73.528 358.036 72.77 358.036 72.012 357.278C71.254 356.519 70.4961 355.76 70.4961 354.243C70.4961 352.726 71.2541 351.209 73.528 351.209L95.509 347.416L93.9931 339.072L78.0757 341.348C76.5598 341.348 75.8019 341.348 75.0439 340.589C74.286 339.831 73.528 339.072 73.528 337.555C73.528 335.28 75.0439 334.521 76.5598 333.762L92.4771 331.487L90.9611 323.901C90.9611 322.384 90.9612 321.626 91.7191 320.867C92.4771 319.35 94.751 319.35 94.751 319.35C95.5089 319.35 97.7828 319.35 98.5408 322.384L100.057 330.728L115.216 328.453C115.974 328.453 117.49 328.453 118.248 329.211C119.006 329.97 119.764 330.728 119.764 332.245C119.764 334.521 118.248 335.28 116.732 336.038L101.573 338.314L103.089 346.658L122.038 343.624C123.554 343.624 124.312 343.624 125.07 344.382C125.828 345.141 126.586 345.899 126.586 347.416C126.586 348.933 125.07 350.451 123.554 351.209L105.363 354.243L108.394 371.69C108.394 373.207 108.394 373.966 107.636 374.724C106.121 374.724 104.605 374.724 103.847 374.724ZM98.5408 350.451C99.2987 350.451 99.2988 351.209 100.057 351.209V350.451C100.057 350.451 100.057 350.451 100.815 349.692C100.057 349.692 100.057 348.933 99.2988 348.933C99.2988 348.933 99.2987 349.692 98.5408 350.451C98.5408 350.451 99.2987 349.692 98.5408 350.451ZM95.509 334.521C96.2669 334.521 96.2669 335.28 97.0249 335.28V334.521C97.0249 334.521 97.0249 334.521 97.7829 333.762C97.0249 333.762 97.0249 333.004 96.267 333.004C96.267 333.762 96.2669 333.762 95.509 334.521C96.2669 334.521 96.2669 334.521 95.509 334.521Z" fill="black"></path><path d="M149.329 328.453C148.571 328.453 147.813 328.453 147.813 326.936C147.813 325.419 149.329 325.419 149.329 325.419H179.648C181.922 325.419 184.953 325.419 184.953 329.211C184.953 333.004 179.648 342.865 175.1 348.934C178.132 351.209 185.711 358.036 193.291 366.38C194.049 367.898 194.807 367.898 194.807 368.656C194.807 369.415 194.049 370.932 192.533 370.932C191.775 370.932 191.017 370.173 190.259 369.415C182.68 360.312 176.616 355.002 172.826 351.968C161.456 365.622 147.055 371.69 146.297 371.69C144.781 371.69 144.781 370.932 144.781 369.415C144.781 368.656 144.781 368.656 147.055 367.139C174.342 353.485 181.164 330.729 181.164 329.97C181.164 329.211 180.406 328.453 178.89 328.453H149.329V328.453Z" fill="black"></path><path d="M146.292 373.207C144.018 373.207 142.502 371.69 142.502 369.414C142.502 367.139 144.018 366.38 145.534 365.622C169.789 354.243 177.368 334.521 178.126 329.97H149.324C146.292 329.97 145.534 328.453 145.534 326.177C145.534 325.418 145.534 322.384 149.324 322.384H179.642C181.916 322.384 187.222 322.384 187.222 328.453C187.222 333.004 181.916 342.107 178.126 348.175C181.916 351.209 188.738 357.278 194.801 364.863C195.559 366.38 196.317 367.139 196.317 367.897C196.317 370.173 194.801 371.69 192.528 371.69C190.254 371.69 189.496 370.173 188.738 369.414C182.674 361.829 177.368 356.519 173.578 353.485C161.451 367.897 147.808 373.207 146.292 373.207ZM187.98 364.105C188.738 365.622 190.254 366.38 191.012 367.897L191.77 368.656L191.012 367.897C190.254 366.38 188.738 364.863 187.98 364.105ZM172.82 348.934C172.82 349.692 172.063 349.692 172.063 350.451C172.063 350.451 172.063 350.451 172.82 350.451H173.578C172.821 349.692 172.82 348.934 172.82 348.934ZM180.4 326.936C181.158 326.936 182.674 328.453 182.674 329.97C182.674 329.97 181.916 332.245 180.4 336.038C181.916 333.004 182.674 330.728 182.674 329.211C182.674 327.694 181.916 326.936 180.4 326.936Z" fill="black"></path><path d="M232.704 372.449C232.704 373.208 232.704 373.966 231.188 373.966C229.672 373.966 228.914 373.208 228.914 372.449V322.385C228.914 321.626 228.914 320.868 230.43 320.868C231.946 320.868 232.704 321.626 232.704 322.385V338.314C246.347 344.383 252.411 348.934 258.475 352.727C259.991 354.244 260.749 354.244 260.749 355.002C260.749 355.761 259.991 357.278 259.233 357.278C258.475 357.278 258.475 357.278 255.443 355.002C247.863 349.693 239.525 345.141 233.462 342.107V372.449H232.704Z" fill="black"></path><path d="M230.425 375.483C228.909 375.483 226.635 375.483 226.635 371.69V321.626C226.635 319.35 228.151 317.833 230.425 317.833C232.698 317.833 234.214 319.35 234.214 321.626V336.797C246.342 342.107 253.164 346.658 258.469 350.451L259.227 351.209C260.743 351.968 262.259 353.485 262.259 355.002C262.259 357.278 260.743 358.795 258.469 358.795C256.953 358.795 256.195 358.036 253.921 356.519C247.1 351.209 239.52 347.417 234.972 345.141V371.69C234.214 374.725 232.698 375.483 230.425 375.483ZM230.425 371.69V342.107C230.425 341.348 230.425 340.59 231.182 340.59H231.941H231.182C230.425 340.59 229.667 339.831 229.667 339.073V323.143L230.425 371.69ZM252.406 351.209C253.164 351.968 254.68 352.727 255.438 353.485C256.953 355.002 257.711 355.761 258.469 355.761C258.469 355.761 257.711 355.002 256.953 355.002L256.195 354.244C255.437 353.485 253.922 351.968 252.406 351.209Z" fill="black"></path><path d="M299.398 335.28C300.913 331.487 301.671 327.694 301.671 323.901C301.671 321.626 301.671 320.867 303.945 320.867C304.703 320.867 306.219 321.626 306.219 322.384C306.219 323.143 305.461 327.694 303.945 334.521C304.703 334.521 305.461 334.521 306.977 334.521C319.863 334.521 320.621 342.107 320.621 349.692C320.621 368.656 315.315 371.69 307.735 371.69C301.671 371.69 301.671 370.173 301.671 369.414C301.671 368.656 302.429 367.897 303.187 367.897H304.703C306.219 367.897 306.977 367.897 307.735 367.897C313.041 367.897 316.831 366.38 316.831 348.934C316.831 342.107 316.073 336.797 306.977 336.797C305.461 336.797 303.945 336.797 303.187 336.797C299.398 353.485 294.85 362.587 291.06 368.656C290.302 370.173 289.544 370.932 288.786 370.932C288.786 370.932 286.512 370.932 286.512 369.414C286.512 368.656 286.512 368.656 288.028 366.38C292.576 358.795 296.366 348.175 299.398 337.555C297.124 337.555 286.512 339.831 285.754 339.831C284.996 339.831 284.238 339.072 284.238 338.314C284.238 336.797 284.996 336.797 287.27 336.797L299.398 335.28ZM328.2 337.555C332.748 344.382 334.264 351.209 334.264 352.726C334.264 354.243 333.506 354.243 331.99 354.243C330.474 354.243 330.474 353.485 330.474 351.209C328.958 344.382 325.168 337.555 319.863 332.245C317.589 329.97 317.589 329.97 317.589 329.211C317.589 328.453 318.347 327.694 319.105 327.694C321.379 329.211 325.926 334.521 328.2 337.555ZM333.506 330.728C333.506 331.487 332.748 332.245 331.232 332.245C330.474 332.245 330.474 332.245 327.442 328.453C326.684 327.694 324.41 325.418 322.894 323.901C322.137 323.143 322.136 323.143 322.136 322.384C322.136 321.626 322.895 320.867 323.652 320.867C327.442 320.867 333.506 329.97 333.506 330.728ZM341.086 325.418C341.086 326.177 340.328 326.936 338.812 326.936C338.054 326.936 338.054 326.936 335.022 323.143C334.264 322.384 331.99 320.109 330.474 318.591C329.716 317.833 329.716 317.833 329.716 317.074C329.716 316.316 330.474 315.557 331.232 315.557C334.264 316.316 341.086 324.66 341.086 325.418Z" fill="black"></path><path d="M306.224 373.966C303.95 373.966 297.886 373.966 297.886 369.415C297.886 367.139 299.402 365.622 300.918 365.622C301.676 365.622 302.434 365.622 303.192 365.622C303.95 365.622 305.466 365.622 306.224 365.622C310.013 365.622 313.803 365.622 313.803 348.934C313.803 342.107 313.045 339.073 306.224 339.073C305.466 339.073 304.708 339.073 303.95 339.073C300.918 351.968 297.128 361.829 291.822 370.173C291.064 371.69 290.306 373.207 288.032 373.207C286.516 373.207 284.242 372.449 284.242 369.415C284.242 367.898 284.243 367.898 285.758 365.622C289.548 358.795 293.338 349.692 296.37 339.831C294.854 339.831 292.58 340.59 291.064 340.59C285.758 341.348 285.758 341.348 285.758 341.348C283.485 341.348 282.727 339.831 282.727 337.555C282.727 334.521 285 334.521 288.032 333.763L299.402 332.246C300.16 329.211 300.918 326.177 300.918 322.384C300.918 320.867 301.676 317.833 304.708 317.833C306.982 317.833 308.497 319.35 308.497 321.626C308.497 322.384 307.739 326.936 306.981 331.487C322.141 331.487 322.141 342.107 322.141 348.934C320.625 367.139 316.835 373.966 306.224 373.966ZM299.402 336.797C300.16 336.797 300.16 336.797 299.402 336.797C300.16 337.555 300.16 337.555 299.402 336.797C300.16 337.555 300.16 337.555 299.402 336.797C300.16 336.797 300.918 336.038 301.676 336.038C301.676 336.038 301.676 336.038 301.676 335.28C300.918 336.038 300.16 336.797 299.402 336.797ZM303.192 322.384C303.192 322.384 303.192 323.143 303.192 322.384V322.384ZM331.994 356.519C328.962 356.519 328.962 354.244 328.204 351.968C326.689 345.141 323.657 339.073 318.351 333.763C316.077 331.487 315.319 330.729 315.319 329.97C315.319 328.453 316.835 326.936 319.109 326.936C322.899 326.936 328.205 335.28 328.962 336.797C333.51 343.624 335.026 351.209 335.026 352.727C335.784 355.002 334.268 356.519 331.994 356.519ZM331.994 334.521C330.478 334.521 329.72 333.763 327.447 330.729L326.689 329.97C325.931 329.211 323.657 326.936 322.899 325.419C322.141 324.66 321.383 323.902 321.383 323.143C321.383 321.626 322.899 319.35 325.173 319.35C328.205 319.35 335.784 329.211 335.784 330.729C335.784 332.246 333.51 334.521 331.994 334.521ZM338.816 329.211C337.3 329.211 336.542 328.453 333.51 324.66C332.752 323.902 330.478 321.626 329.72 320.109C328.962 319.35 328.962 318.592 328.962 317.833C328.962 315.558 330.478 314.04 332.752 314.04C335.784 314.04 343.364 323.143 343.364 325.419C342.606 327.694 341.09 329.211 338.816 329.211Z" fill="black"></path><path d="M353.201 336.038C354.717 336.038 359.265 339.072 360.781 340.589C363.055 342.107 363.055 342.107 363.055 342.865C363.055 343.624 362.297 345.141 361.539 345.141C360.781 345.141 360.781 345.141 358.507 343.624C356.991 342.107 356.233 342.107 353.201 339.831C351.686 339.072 351.686 339.072 351.686 337.555C351.686 336.797 352.443 336.038 353.201 336.038ZM366.087 352.726C366.087 354.243 360.781 364.863 356.991 371.69C355.475 373.966 354.717 374.724 353.959 374.724C353.201 374.724 351.686 373.966 351.686 372.449C351.686 371.69 351.685 371.69 352.443 370.931C357.749 363.346 360.023 358.036 362.297 351.968C363.055 350.451 363.055 350.451 363.813 350.451C364.571 351.209 366.087 351.209 366.087 352.726ZM356.233 320.109C357.749 320.109 363.813 324.66 364.571 324.66C366.845 326.177 366.845 326.935 366.845 326.935C366.845 327.694 366.087 329.211 365.329 329.211C364.571 329.211 364.571 329.211 362.297 327.694C360.023 326.177 359.265 325.418 356.233 323.901C355.475 323.901 355.475 323.143 355.475 322.384C354.717 320.867 355.475 320.109 356.233 320.109ZM377.456 348.933C377.456 361.829 374.424 367.139 372.151 370.173C370.635 372.449 367.603 375.483 366.087 375.483C365.329 375.483 364.571 374.724 364.571 373.966C364.571 373.207 365.329 373.207 365.329 372.449C372.909 367.139 373.667 359.553 374.424 349.692C374.424 348.933 374.424 347.416 375.94 347.416C377.456 346.658 377.456 348.175 377.456 348.933ZM369.877 327.694C369.119 327.694 368.361 327.694 368.361 326.177C368.361 324.66 369.877 324.66 369.877 324.66H385.794V320.867C385.794 320.109 385.794 319.35 387.31 319.35C388.826 319.35 388.826 320.109 388.826 320.867V324.66H405.501C406.259 324.66 407.017 324.66 407.017 326.177C407.017 327.694 405.501 327.694 405.501 327.694H384.278C382.004 333.004 379.73 336.797 378.214 339.072C385.036 339.072 393.374 338.314 399.437 337.555C397.921 336.038 397.921 336.038 394.131 333.004C393.374 332.245 393.374 332.245 393.374 331.487C393.374 330.728 394.132 329.97 394.889 329.97C395.647 329.97 397.921 332.245 398.679 333.004C400.195 334.521 406.259 341.348 406.259 342.865C406.259 343.624 405.501 344.382 404.743 344.382C403.985 344.382 403.985 343.624 403.227 343.624C401.711 341.348 401.711 341.348 400.953 339.831C395.647 340.589 373.667 341.348 369.119 341.348C368.361 341.348 367.603 341.348 367.603 339.831C367.603 339.072 367.603 339.072 368.361 338.314C368.361 338.314 369.119 338.314 373.666 338.314C375.182 335.28 378.214 330.728 379.73 326.177H369.877V327.694ZM388.068 372.449C388.068 373.207 388.068 373.966 386.552 373.966C385.036 373.966 385.036 372.449 385.036 372.449V348.933C385.036 348.175 385.036 347.416 386.552 347.416C388.068 347.416 388.068 348.175 388.068 348.933V372.449ZM398.679 370.173C398.679 371.69 399.437 371.69 400.953 371.69C403.227 371.69 403.985 371.69 403.985 366.38C403.985 362.587 403.985 362.587 405.501 362.587C406.259 362.587 407.017 362.587 407.017 364.105C407.017 366.38 407.017 371.69 405.501 373.207C403.985 374.724 400.195 374.724 398.679 374.724C395.647 373.966 395.648 371.69 395.648 370.173V348.933C395.648 348.175 395.647 347.416 397.163 347.416C398.679 347.416 398.679 348.175 398.679 348.933V370.173V370.173Z" fill="black"></path><path d="M366.849 377C364.575 377 363.059 375.483 363.059 373.207C363.059 371.69 364.575 370.173 364.575 370.173C370.639 365.622 372.155 358.795 372.155 348.934C372.155 345.141 374.429 345.141 375.945 345.141C376.703 345.141 379.734 345.141 379.734 348.934C379.734 363.346 375.945 367.897 373.671 370.932C373.671 371.69 369.881 377 366.849 377ZM400.957 376.241C400.199 376.241 398.684 376.241 398.684 376.241C395.652 375.483 393.378 373.207 393.378 369.414V348.175C393.378 345.141 394.894 344.382 397.168 344.382C398.684 344.382 400.957 345.141 400.957 348.175V369.414C401.715 369.414 402.473 369.414 402.473 369.414C402.473 369.414 402.473 367.139 402.473 366.38C402.473 362.587 402.473 360.312 406.263 360.312C408.537 360.312 410.053 361.829 410.053 364.105C410.053 364.105 410.053 372.449 408.537 374.724C406.263 376.241 403.231 376.241 400.957 376.241ZM353.964 376.241C352.448 376.241 350.174 374.724 350.174 372.449C350.174 370.931 350.932 370.173 350.932 370.173C356.237 363.346 358.511 357.278 360.785 351.968C361.543 350.451 362.301 348.934 364.575 348.934C366.091 348.934 368.365 350.451 368.365 352.726C368.365 355.002 363.059 366.38 358.511 372.449C356.237 375.483 355.48 376.241 353.964 376.241ZM353.964 371.69C353.964 372.449 353.964 372.449 353.964 371.69C353.964 372.449 353.964 372.449 353.964 371.69ZM386.556 375.483C385.04 375.483 382.766 374.724 382.766 371.69V348.934C382.766 345.899 384.282 345.141 386.556 345.141C388.83 345.141 390.346 345.899 390.346 348.934V372.449C389.588 374.724 388.072 375.483 386.556 375.483ZM405.505 347.416C403.989 347.416 403.231 345.899 402.473 345.899C401.715 345.141 400.957 344.382 400.957 343.624C394.136 344.382 374.429 345.141 369.881 345.141C366.849 345.141 366.091 342.865 366.091 341.348C366.091 339.831 366.849 339.072 367.607 338.314C368.365 338.314 368.365 338.314 372.913 337.555C374.429 335.28 375.945 332.245 377.46 329.211H369.123C368.365 329.211 367.607 329.211 366.849 328.453C366.091 329.211 365.333 329.97 363.817 329.97C362.301 329.97 362.301 329.97 359.269 327.694C356.995 326.177 356.237 325.418 353.206 323.901C352.448 323.901 350.932 322.384 351.69 320.109C351.69 318.591 353.206 317.074 355.48 317.074C357.753 317.074 364.575 321.626 364.575 321.626C365.333 322.384 365.333 322.384 366.091 323.143C366.849 322.384 367.607 321.626 369.123 321.626H383.524V319.35C383.524 316.316 385.04 315.557 387.314 315.557C388.072 315.557 391.104 315.557 391.104 319.35V321.626H405.505C407.779 321.626 409.295 323.143 409.295 325.418C409.295 326.936 408.537 329.211 405.505 329.211H397.926C398.683 329.97 399.441 330.728 400.957 332.245C403.231 334.521 409.295 341.348 409.295 343.624C409.295 345.899 407.779 347.416 405.505 347.416ZM376.703 340.589C376.703 340.589 375.945 340.589 376.703 340.589C375.945 340.589 375.945 340.589 376.703 340.589ZM401.715 339.072C401.715 339.072 400.957 339.072 401.715 339.072V339.072ZM385.798 329.97C384.282 333.004 382.766 335.28 382.008 337.555C386.556 337.555 391.104 337.555 395.652 336.797C394.894 336.038 394.136 335.28 393.378 334.521C392.62 333.762 391.862 333.004 391.862 332.245C391.862 331.487 392.62 330.728 392.62 329.97H385.798V329.97ZM387.314 326.177C388.072 326.177 387.314 325.418 387.314 326.177C387.314 325.418 387.314 326.177 387.314 326.177ZM361.543 346.658C360.027 346.658 360.027 346.658 357.753 344.382C356.238 342.865 355.48 342.865 353.206 341.348H352.448C350.932 340.589 350.174 339.831 350.174 337.555C350.174 336.038 351.69 333.762 353.964 333.762C355.48 333.762 358.511 335.28 362.301 338.314C364.575 339.831 365.333 340.589 365.333 342.107C365.333 344.382 363.817 346.658 361.543 346.658Z" fill="black"></path><path d="M435.84 348.934C433.566 352.727 430.534 358.036 428.26 362.588C427.502 363.346 427.502 364.105 426.744 364.105C425.986 364.105 425.229 363.346 425.229 362.588C425.229 361.829 425.228 361.829 426.744 358.795C429.776 353.485 433.566 348.175 436.598 342.865V336.797C433.566 336.797 429.018 337.556 427.502 337.556C425.987 337.556 425.987 336.797 425.987 336.038C425.987 334.521 426.744 334.521 428.26 334.521C431.292 334.521 434.324 334.521 436.598 333.763V324.66C436.598 323.143 436.598 321.626 438.114 321.626C439.63 321.626 439.63 323.143 439.63 323.143C439.63 324.66 438.872 339.831 438.872 342.865C441.146 340.59 449.483 329.211 458.579 329.211C463.127 329.211 468.432 331.487 468.432 338.314C468.432 339.831 467.675 345.141 466.917 350.451C466.159 355.761 465.401 360.312 465.401 362.588C465.401 364.105 465.401 366.38 468.432 366.38C470.706 366.38 472.98 364.863 472.98 364.105C473.738 363.346 474.496 363.346 474.496 363.346C475.254 363.346 476.012 364.105 476.012 364.863C476.012 366.38 471.464 369.415 467.675 369.415C461.611 369.415 461.611 363.346 461.611 362.588C461.611 360.312 462.369 355.761 463.127 350.451C463.885 345.141 464.643 340.59 464.643 338.314C464.643 333.004 460.095 332.246 457.821 332.246C451.757 332.246 444.936 338.314 438.114 346.658C438.114 354.244 438.114 362.588 438.114 370.173C438.114 372.449 438.114 373.207 436.598 373.207C435.082 373.207 435.082 372.449 435.082 370.173L435.84 348.934Z" fill="black"></path><path d="M437.351 375.483C436.593 375.483 435.077 375.483 435.077 374.724C434.319 373.966 434.319 372.449 434.319 370.932V356.519C432.803 358.795 431.287 361.829 429.771 364.105C429.013 364.863 428.255 366.38 426.739 366.38C425.223 366.38 422.949 364.863 422.949 362.588C422.949 361.07 423.707 360.312 425.223 358.036C428.255 353.485 431.287 348.175 434.319 343.624L435.077 342.865V339.072C432.045 339.072 429.013 339.831 427.497 339.831C425.223 339.831 423.707 338.314 423.707 336.038C423.707 332.245 426.739 332.245 428.255 332.245C430.529 332.245 432.803 332.245 435.077 331.487V323.901C435.077 322.384 435.077 318.592 438.867 318.592C440.382 318.592 442.656 319.35 442.656 322.384C442.656 323.143 442.656 327.694 442.656 333.004C442.656 334.521 442.656 336.038 442.656 336.797C447.204 332.245 453.268 326.936 460.09 326.936C466.153 326.936 472.217 330.728 472.217 338.314C472.217 339.831 471.459 343.624 471.459 348.175V350.451C470.701 355.002 469.943 360.312 469.943 361.829C469.943 364.105 470.701 364.105 471.459 364.105C472.217 364.105 473.733 364.105 475.249 362.588C476.007 361.829 476.765 361.07 478.281 361.07C479.797 361.07 482.071 362.588 482.071 364.863C482.071 367.897 476.007 371.69 471.459 371.69C466.153 371.69 463.121 368.656 463.121 362.588C463.121 361.07 463.879 358.036 463.879 354.243L464.637 350.451C465.395 344.382 466.153 339.831 466.153 339.072C466.153 335.28 462.363 334.521 460.847 334.521C456.3 334.521 450.236 339.072 443.414 348.175C443.414 355.761 443.414 363.346 443.414 370.932C440.382 371.69 440.382 375.483 437.351 375.483ZM435.835 347.417C435.835 347.417 436.593 347.417 435.835 347.417C436.593 347.417 436.593 347.417 437.351 348.175V347.417C437.351 346.658 437.351 346.658 438.109 345.899C438.866 345.141 438.866 345.141 439.624 344.382C439.624 344.382 438.867 344.382 438.867 343.624L438.109 345.141C436.593 345.899 435.835 346.658 435.835 347.417Z" fill="black"></path><path d="M504.038 327.695C503.28 327.695 502.522 327.695 502.522 326.178C502.522 324.661 504.038 324.661 504.796 324.661C510.102 324.661 517.682 324.661 522.987 323.902C524.503 323.902 530.567 323.144 532.083 323.144C534.357 323.144 535.115 324.661 535.115 325.419C535.115 326.178 535.115 326.178 530.567 329.971C522.987 336.039 517.682 340.59 513.134 344.383C517.682 342.107 522.229 341.349 526.777 341.349C537.389 341.349 544.21 347.417 544.21 356.52C544.21 366.381 535.873 373.966 522.987 373.966C515.408 373.966 507.828 370.932 507.828 364.105C507.828 358.795 512.376 355.761 517.682 355.761C524.503 355.761 530.567 361.071 532.083 368.657C538.905 365.622 541.179 359.554 541.179 356.52C541.179 351.21 538.147 344.383 526.777 344.383C515.408 344.383 507.07 351.21 505.554 352.727C501.006 356.52 500.248 357.278 500.248 357.278C499.49 357.278 498.732 356.52 498.732 355.761C498.732 355.003 498.732 355.003 501.764 351.969C501.764 351.969 526.777 330.729 531.325 326.936C522.229 326.936 511.618 327.695 504.038 327.695ZM516.924 358.037C513.134 358.037 510.102 360.313 510.102 362.588C510.102 367.14 516.166 369.415 522.229 369.415C525.261 369.415 526.777 368.657 527.535 368.657C526.777 361.83 522.229 358.037 516.924 358.037Z" fill="black"></path><path d="M522.234 374.725C513.897 374.725 504.801 370.932 504.801 363.347C504.801 357.278 509.349 353.485 516.171 353.485C522.992 353.485 529.056 358.037 532.088 365.622C537.394 362.588 537.394 358.037 537.394 355.761C537.394 352.727 535.878 345.9 524.508 345.9C513.897 345.9 505.559 352.727 504.043 354.244C499.495 358.795 498.737 358.795 497.221 358.795C494.948 358.795 493.432 357.278 493.432 355.002C493.432 353.485 494.19 352.727 496.463 350.451L497.221 349.693C497.221 349.693 499.495 348.176 522.234 328.453C515.413 329.212 508.591 329.212 502.527 329.212C500.253 329.212 498.737 327.695 498.737 325.419C498.737 324.66 498.737 321.626 502.527 321.626C508.591 321.626 516.171 321.626 520.718 320.868C521.476 320.868 522.234 320.868 522.992 320.868C526.024 320.868 529.056 320.109 529.814 320.109C532.846 320.109 534.362 322.385 534.362 324.66C534.362 326.936 534.362 326.936 529.056 330.729C525.266 333.763 522.234 336.797 519.202 339.073C520.718 339.073 522.992 338.314 524.508 338.314C535.878 338.314 543.457 345.141 543.457 355.002C545.731 367.139 535.878 374.725 522.234 374.725ZM529.814 369.415V370.174H530.572C530.572 369.415 530.572 369.415 529.814 369.415C530.572 369.415 530.572 369.415 529.814 369.415ZM516.929 360.312C513.897 360.312 512.381 361.829 512.381 363.347C512.381 366.381 517.686 367.898 522.992 367.898C524.508 367.898 525.266 367.898 526.024 367.898C524.508 362.588 520.718 360.312 516.929 360.312ZM510.865 344.383C510.107 345.141 508.591 345.9 507.833 347.417C508.591 346.658 510.107 345.9 510.865 344.383C510.865 345.141 510.865 345.141 510.865 344.383C510.865 344.383 510.865 345.141 510.865 344.383ZM531.33 324.66C532.088 325.419 532.088 325.419 532.088 326.178C532.846 325.419 532.846 325.419 532.846 325.419C532.846 324.66 532.846 324.66 531.33 324.66Z" fill="black"></path><path d="M125.824 28.8248L106.875 31.859L105.359 23.5149L120.518 21.2393C122.792 21.2393 123.55 19.7222 123.55 17.4465C123.55 15.9294 122.792 15.1709 122.034 14.4123C121.276 13.6538 119.76 13.6538 119.002 13.6538L103.843 15.9294L102.327 7.58535C101.569 4.55115 99.2952 4.55115 98.5372 4.55115C98.5372 4.55115 98.5373 4.55115 97.7793 4.55115V25.7906L99.2952 31.859H97.7793V39.4445L100.053 38.686L103.085 56.1326C103.843 58.4083 105.359 59.1668 106.875 59.1668C108.391 59.1668 109.149 58.4083 109.907 57.6497C110.665 56.8912 110.665 56.1326 110.665 54.6155L107.633 37.1689L125.824 34.1346C127.34 34.1346 128.856 32.6175 128.856 30.3419C128.856 28.8248 128.098 28.0662 127.34 27.3077C128.098 28.8248 127.34 28.8248 125.824 28.8248Z" fill="black"></path><path d="M181.161 34.1346C184.951 28.0662 190.257 18.9636 190.257 14.4123C190.257 8.34387 184.951 8.34387 182.677 8.34387H152.359C148.569 8.34387 148.569 11.3781 148.569 12.1366C148.569 13.6537 149.327 15.9294 152.359 15.9294H181.161C179.645 19.7221 172.066 39.4445 148.569 51.5813C147.053 52.3398 145.537 53.0984 145.537 55.3741C145.537 57.6497 147.053 59.1668 149.327 59.1668C150.843 59.1668 164.486 53.0984 175.856 40.203C179.645 43.2372 184.951 48.5471 191.015 56.1326C191.773 56.8912 192.531 58.4083 194.805 58.4083C197.079 58.4083 198.595 56.8912 198.595 54.6155C198.595 53.0984 197.837 52.3398 197.079 51.5813C192.531 43.9958 185.709 37.9274 181.161 34.1346Z" fill="black"></path><path d="M263.77 37.169C257.706 32.6177 251.643 28.8249 238.757 22.7565V7.58548C238.757 5.30983 237.241 3.79272 234.968 3.79272C232.694 3.79272 231.178 5.30983 231.178 7.58548V57.6499C231.178 60.6841 234.21 61.4426 234.968 61.4426C237.241 61.4426 238.757 59.9255 238.757 57.6499V31.1006C243.305 33.3762 250.885 37.169 257.706 42.4788C260.738 44.7545 261.496 44.7545 262.254 44.7545C264.528 44.7545 266.044 42.4788 266.044 40.9617C266.044 39.4446 265.286 37.9275 263.77 37.169Z" fill="black"></path><path d="M336.538 0C334.264 0 332.748 1.5171 332.748 3.79276C332.748 4.55131 333.506 5.30986 333.506 6.06841C335.022 7.58551 337.296 9.86117 337.296 10.6197C340.328 14.4125 340.328 15.171 342.602 15.171C344.876 15.171 346.391 13.6539 346.391 11.3783C347.149 9.10262 339.57 0 336.538 0Z" fill="black"></path><path d="M334.266 22.7562C333.509 21.2391 327.445 12.895 324.413 12.895C322.139 12.895 320.623 14.4121 320.623 16.6878C320.623 18.2049 321.381 18.9634 323.655 20.4805C328.203 25.7904 331.993 31.8588 333.508 38.6858C334.266 40.9614 334.266 43.2371 337.298 43.2371C339.572 43.2371 341.088 41.72 341.088 39.4443C340.33 37.1687 338.056 29.5831 334.266 22.7562Z" fill="black"></path><path d="M310.015 18.2051C310.773 13.6538 311.531 9.10246 311.531 8.3439C311.531 6.06825 310.015 4.55115 307.741 4.55115C304.709 4.55115 303.951 6.8268 303.951 9.10246C303.193 12.8952 303.193 15.9294 302.435 18.9636L291.065 20.4807C288.792 20.4807 285.76 21.2393 285.76 24.2735C285.76 26.5491 287.276 28.0662 288.792 28.0662C288.792 28.0662 289.55 28.0662 294.855 27.3077C296.371 27.3077 298.645 26.5491 300.161 26.5491C297.887 36.4103 294.097 45.5129 289.55 52.3399C288.034 54.6155 288.034 55.3741 288.034 56.1326C288.034 58.4083 290.307 59.9254 291.823 59.9254C294.097 59.9254 294.855 58.4083 295.613 56.8912C300.161 48.5471 304.709 38.686 307.741 25.7906C308.499 25.7906 309.257 25.7906 310.015 25.7906C316.836 25.7906 317.594 28.8248 317.594 35.6518C317.594 52.3399 313.804 52.3399 310.015 52.3399C309.257 52.3399 308.499 52.3399 306.983 52.3399C306.983 52.3399 305.467 52.3399 304.709 52.3399C303.193 52.3399 301.677 53.857 301.677 56.1326C301.677 60.6839 306.983 60.6839 310.015 60.6839C320.626 60.6839 324.416 53.857 324.416 36.4103C325.174 28.8248 325.174 18.2051 310.015 18.2051Z" fill="black"></path><path d="M331.23 15.9293C334.262 19.722 335.02 20.4806 336.535 20.4806C338.809 20.4806 340.325 18.9635 340.325 16.6878C340.325 15.1707 332.746 5.30957 329.714 5.30957C327.44 5.30957 325.924 6.82667 325.924 9.10233C325.924 9.86088 326.682 10.6194 327.44 11.378C328.198 12.8951 330.472 15.1707 331.23 15.9293Z" fill="black"></path><path d="M410.061 46.2716C407.029 46.2716 407.029 48.5473 406.271 52.34C406.271 53.0986 406.271 55.3742 406.271 55.3742C406.271 55.3742 405.513 55.3742 404.755 55.3742V34.1348C404.755 31.1006 403.24 30.342 400.966 30.342C399.45 30.342 397.176 31.1006 397.176 34.1348V55.3742C397.176 59.167 398.692 61.4426 402.482 62.2012C403.239 62.2012 403.997 62.2012 404.755 62.2012C407.029 62.2012 410.061 62.2012 410.819 59.9255C412.335 57.6499 412.335 49.3058 412.335 49.3058C413.851 47.7887 412.335 46.2716 410.061 46.2716Z" fill="black"></path><path d="M358.52 10.6199C361.552 12.137 362.31 12.8956 364.584 14.4127C367.616 16.6883 367.616 16.6883 369.132 16.6883C370.648 16.6883 371.406 15.9298 372.164 15.1712C372.922 15.1712 373.68 15.9298 374.437 15.9298H382.775C381.259 18.964 379.743 21.9982 378.227 24.2739C373.68 24.2739 373.68 24.2739 372.922 25.0324C372.164 25.791 371.406 26.5495 371.406 28.0666C371.406 28.8252 371.406 31.8594 375.195 31.8594C379.743 31.8594 399.45 31.1008 406.272 30.3423C406.272 31.1008 407.03 31.1008 407.788 32.6179C407.788 33.3765 409.304 34.135 410.82 34.135C412.336 34.135 414.61 32.6179 414.61 30.3423C414.61 28.0666 409.304 21.9982 406.272 18.964C404.756 17.4469 403.998 16.6883 403.24 15.9298H410.82C413.094 15.9298 414.61 14.4127 414.61 12.137C414.61 10.6199 413.852 8.34428 410.82 8.34428H396.418V6.82718C396.418 3.79297 393.387 3.03442 392.629 3.03442C391.113 3.03442 388.839 3.79297 388.839 6.82718V9.10284H374.437C372.922 9.10284 372.164 9.86139 371.406 10.6199C370.648 10.6199 370.648 9.86139 369.89 9.86139C369.89 9.86139 363.068 5.31008 360.794 5.31008C359.278 5.31008 357.762 6.82718 357.004 8.34428C356.246 9.10284 358.52 10.6199 358.52 10.6199ZM397.934 20.4811C398.692 21.2397 399.45 21.9982 400.208 22.7568C395.66 22.7568 391.113 23.5153 386.565 23.5153C388.081 21.2397 388.839 18.964 390.355 15.9298H397.934C397.176 16.6883 397.176 17.4469 397.176 18.2055C396.418 18.964 397.176 19.7226 397.934 20.4811Z" fill="black"></path><path d="M356.25 26.549C359.282 28.8247 360.04 28.8247 361.556 30.3418C363.83 31.8589 363.83 32.6174 365.346 32.6174C367.62 32.6174 369.136 30.3418 369.136 28.8247C369.136 27.3076 368.378 26.549 366.104 25.0319C363.072 22.7562 359.282 20.4806 357.766 20.4806C355.492 20.4806 353.977 21.9977 353.977 24.2733C353.977 25.0319 355.492 25.7904 356.25 26.549Z" fill="black"></path><path d="M390.35 31.1005C388.834 31.1005 386.561 31.859 386.561 34.8932V58.4083C386.561 61.4425 388.076 62.2011 390.35 62.2011C391.866 62.2011 394.14 61.4425 394.14 58.4083V34.8932C394.14 31.859 392.624 31.1005 390.35 31.1005Z" fill="black"></path><path d="M380.497 31.1005C379.739 31.1005 376.707 31.1005 376.707 34.8932C376.707 44.7544 375.191 51.5814 369.127 56.1327C368.369 56.1327 367.611 57.6498 367.611 59.1669C367.611 61.4425 369.127 62.9596 371.401 62.9596C374.433 62.9596 378.223 57.6498 378.981 56.8912C381.255 53.857 385.045 48.5471 385.045 34.8932C384.287 31.1005 381.255 31.1005 380.497 31.1005Z" fill="black"></path><path d="M368.378 34.8932C366.104 34.8932 365.346 36.4103 364.588 37.9274C362.314 43.2373 360.04 49.3057 354.734 56.1326C353.976 56.8912 353.977 57.6497 353.977 58.4083C353.977 60.6839 356.25 62.201 357.766 62.201C359.282 62.201 360.798 60.6839 362.314 58.4083C366.104 52.3399 372.168 40.203 372.168 38.6859C372.168 36.4103 369.894 34.8932 368.378 34.8932Z" fill="black"></path><path d="M480.546 47.03C479.788 47.03 479.03 47.7886 477.514 48.5471C475.24 50.0642 474.482 50.0642 473.724 50.0642C472.967 50.0642 472.209 50.0642 472.209 47.7886C472.209 46.2715 472.967 40.9616 473.724 36.4103V34.1346C474.482 29.5833 474.483 25.7906 474.483 24.2735C474.483 16.688 468.419 12.8952 462.355 12.8952C455.533 12.8952 448.712 18.2051 444.922 22.7564C444.922 21.2393 444.922 19.7222 444.922 18.9636C444.922 14.4123 444.922 9.86101 444.922 8.3439C444.922 6.06825 443.406 4.55115 441.132 4.55115C437.342 4.55115 437.342 7.58535 437.342 9.86101V17.4465C435.068 17.4465 432.794 18.2051 430.521 18.2051C429.763 18.2051 425.973 18.2051 425.973 21.9978C425.973 24.2735 427.489 25.7906 429.763 25.7906C431.279 25.7906 434.31 25.7906 437.342 25.032V28.8248L436.584 29.5833C433.552 34.1347 430.521 39.4445 427.489 43.9958C425.973 47.03 425.215 47.03 425.215 48.5471C425.215 50.8228 427.489 52.3399 429.005 52.3399C430.521 52.3399 432.036 50.8228 432.036 50.0642C433.552 47.7886 435.068 45.5129 436.584 42.4787V56.8912C436.584 58.4083 436.584 59.9254 437.342 60.6839C438.1 61.4425 438.858 61.4425 439.616 61.4425C443.406 61.4425 443.406 58.4083 443.406 56.1326C443.406 48.5471 443.406 40.9616 443.406 33.3761C450.228 24.2735 456.291 19.7222 460.839 19.7222C462.355 19.7222 466.145 20.4807 466.145 24.2735C466.145 25.7906 465.387 29.5833 464.629 35.6518L463.871 39.4445C463.113 43.2373 463.113 46.2715 463.113 47.7886C463.113 53.0984 466.145 56.8912 471.451 56.8912C475.998 56.8912 482.062 53.857 482.062 50.0642C483.578 48.5471 482.062 47.03 480.546 47.03Z" fill="black"></path><path d="M530.576 24.274C529.061 24.274 526.787 24.274 525.271 25.0325C528.303 22.7569 531.334 19.7226 535.124 16.6884C539.672 12.8957 540.43 12.8957 540.43 10.62C540.43 8.34438 538.914 6.06873 535.882 6.06873C535.124 6.06873 532.092 6.06873 529.061 6.82728H526.787C521.481 7.58583 512.385 7.58583 508.596 7.58583C505.564 7.58583 504.806 10.62 504.806 11.3786C504.806 13.6542 506.322 15.1713 508.596 15.1713C513.901 15.1713 521.481 14.4128 528.303 14.4128C519.965 21.2397 503.29 35.6522 503.29 35.6522L502.532 36.4108C500.258 38.6864 499.5 39.445 499.5 40.9621C499.5 43.2377 501.016 44.7548 503.29 44.7548C504.806 44.7548 505.564 43.9963 510.111 40.2035C511.627 38.6864 519.965 31.8595 530.576 31.8595C541.946 31.8595 543.462 38.6864 543.462 41.7206C543.462 43.9963 542.704 48.5476 538.156 51.5818C535.124 43.9963 529.061 39.445 522.239 39.445C515.417 39.445 510.869 43.9963 510.869 49.3061C510.869 57.6502 519.207 60.6844 528.303 60.6844C541.946 60.6844 551.799 53.0989 551.799 41.7206C550.284 31.1009 542.704 24.274 530.576 24.274ZM520.723 45.5134C525.271 45.5134 528.303 48.5476 529.819 53.0989C529.061 53.0989 527.545 53.0989 526.787 53.0989C521.481 53.0989 516.175 51.5818 516.175 48.5476C516.175 47.0305 518.449 45.5134 520.723 45.5134Z" fill="black"></path></svg> 