<?xml version="1.0" encoding="UTF-8"?> <svg xmlns="http://www.w3.org/2000/svg" width="644" height="374" viewBox="0 0 644 374" fill="none"><path d="M322.241 150.172C320.066 150.172 318.615 148.721 318.615 146.546V142.92C318.615 140.745 320.066 139.295 322.241 139.295C324.417 139.295 325.867 140.745 325.867 142.92V146.546C325.867 148.721 324.417 150.172 322.241 150.172Z" fill="black"></path><path d="M322.241 201.663C320.066 201.663 318.615 200.213 318.615 198.037V191.511C318.615 189.335 320.066 187.885 322.241 187.885C324.417 187.885 325.867 189.335 325.867 191.511V198.037C325.867 200.213 324.417 201.663 322.241 201.663ZM322.241 176.28C320.066 176.28 318.615 174.83 318.615 172.654V166.127C318.615 163.952 320.066 162.501 322.241 162.501C324.417 162.501 325.867 163.952 325.867 166.127V172.654C325.867 174.104 324.417 176.28 322.241 176.28Z" fill="black"></path><path d="M322.241 224.871C320.066 224.871 318.615 223.42 318.615 221.244V217.618C318.615 215.443 320.066 213.992 322.241 213.992C324.417 213.992 325.867 215.443 325.867 217.618V221.244C325.867 223.42 324.417 224.871 322.241 224.871Z" fill="black"></path><path d="M304.113 216.167L322.243 247.352L340.373 216.167H304.113Z" fill="black"></path><path d="M51.7402 324.951H35.0604C34.3352 324.951 33.61 324.951 33.61 323.501C33.61 322.051 35.0604 322.051 35.0604 322.051H51.7402V318.425C51.7402 317.7 51.7402 316.974 53.1906 316.974C54.641 316.974 54.641 318.425 54.641 318.425V335.104C54.641 335.829 54.641 337.28 53.1906 337.28C51.7402 337.28 51.7402 335.829 51.7402 335.829V332.929C47.3889 333.654 35.0605 335.829 34.3353 335.829C33.6101 335.829 32.8848 335.104 32.8848 334.379C32.8848 332.929 33.6101 332.929 34.3353 332.929C40.8621 332.204 45.9385 331.478 51.0149 330.028V324.951H51.7402ZM43.7629 359.036V369.189C43.7629 369.915 43.7629 370.639 42.3125 370.639C40.8621 370.639 40.8621 369.915 40.8621 369.189V345.982C40.8621 341.631 42.3125 340.181 46.6638 340.181H74.2216C78.5729 340.181 80.0232 341.631 80.0232 345.982V364.112C80.0232 369.914 77.1224 369.914 72.7711 369.914H66.2443C65.5191 369.914 64.7939 369.914 64.7939 368.463C64.7939 367.013 66.2443 367.013 66.2443 367.013C66.9695 367.013 72.0459 367.013 72.7711 367.013C74.2215 367.013 75.672 367.013 75.672 364.112V359.036H43.7629V359.036ZM75.672 348.158V345.982C75.672 343.807 74.9468 343.081 72.7711 343.081H46.6638C44.4881 343.081 43.7629 343.807 43.7629 345.982V348.158H75.672ZM43.7629 351.059V356.135H76.3972V351.059H43.7629ZM66.2443 331.478C66.2443 333.654 67.6947 333.654 69.1451 333.654C80.0232 333.654 80.7485 333.654 81.4737 333.654C82.1989 333.654 82.9241 332.929 82.9241 330.028C82.9241 329.303 82.9241 327.852 84.3745 327.852C85.0997 327.852 86.5501 328.578 86.5501 329.303C86.5501 330.753 85.8249 334.379 85.0997 335.104C84.3745 335.829 82.924 335.829 78.5728 335.829C77.1224 335.829 70.5955 335.829 69.1451 335.829C66.2443 335.829 64.0687 335.104 64.0687 330.753V318.425C64.0687 317.7 64.0687 316.974 65.5191 316.974C66.9695 316.974 66.9696 318.425 66.9696 318.425V322.776C69.8704 322.051 74.9468 321.326 80.7484 319.15C82.1989 318.425 82.924 318.425 83.6492 318.425C84.3744 318.425 85.0997 319.15 85.0997 319.875C85.0997 320.6 84.3745 321.326 80.7484 322.776C74.9468 324.952 70.5956 325.677 66.9696 325.677V331.478H66.2443Z" fill="black"></path><path d="M41.5832 372.815C40.858 372.815 37.9571 372.815 37.9571 369.189V345.981C37.9571 340.905 40.1328 338.004 45.2092 338.004H50.2856C49.5604 337.279 49.5604 336.553 49.5604 335.103V334.378C44.4839 335.103 35.0563 337.279 34.3311 337.279C32.1555 337.279 30.7051 335.829 30.7051 333.653C30.7051 332.203 31.4303 330.752 34.3311 330.027H36.5066C41.5831 329.302 45.9343 328.576 49.5604 327.851V325.676H35.0562C32.8806 325.676 31.4302 324.225 31.4302 322.05C31.4302 320.599 32.1554 318.424 35.0562 318.424H49.5604V316.973C49.5604 314.072 51.0108 313.347 53.1864 313.347C55.362 313.347 56.8124 314.072 56.8124 316.973V333.653C56.8124 335.103 56.0873 335.829 56.0873 336.554H73.4922C78.5686 336.554 81.4695 338.729 81.4695 344.531V362.662C81.4695 369.914 76.393 369.914 72.0418 369.914H66.2401C64.0645 369.914 62.6141 368.463 62.6141 366.288C62.6141 365.562 62.6141 362.662 66.2401 362.662C66.9653 362.662 68.4157 362.662 69.8662 362.662C71.3166 362.662 72.0417 362.662 72.7669 362.662C74.2173 362.662 74.2174 362.661 74.2174 361.211V357.584H45.2092V366.288C45.2092 372.089 43.7588 372.815 41.5832 372.815ZM77.1182 366.288C77.1182 367.013 76.393 367.737 75.6678 368.463C76.393 368.463 77.1182 367.738 77.1182 366.288ZM77.1182 357.584C77.1182 357.584 77.1182 358.31 77.1182 357.584V357.584ZM45.2092 354.684H74.2174V353.233H45.2092V354.684ZM45.2092 346.706H74.2174C74.2174 345.256 74.2173 345.256 72.7669 345.256H46.6596C45.2092 345.256 45.2092 345.256 45.2092 346.706ZM76.393 343.08C77.1182 343.08 77.1182 343.08 76.393 343.08C77.1182 343.08 77.1182 343.08 76.393 343.08ZM53.1864 331.477C53.1864 332.202 53.1864 332.202 53.1864 331.477V331.477ZM53.1864 323.5C53.1864 324.225 53.1864 324.225 53.1864 323.5V323.5ZM68.4158 338.004C66.2401 338.004 61.1637 338.004 61.1637 331.477V319.149C61.1637 316.248 62.6141 315.523 64.7897 315.523C66.2401 315.523 68.4158 316.248 68.4158 319.149V321.324C71.3166 320.599 74.9426 319.874 79.2939 318.424C81.4695 317.698 82.1947 316.973 82.9199 316.973C84.3703 316.973 86.5459 318.423 86.5459 320.599C86.5459 322.774 84.3703 324.225 81.4695 324.95C76.3931 326.4 72.7669 327.126 69.1409 327.851V331.477V332.202H69.8662C77.8434 332.202 80.7443 332.202 81.4695 332.202C81.4695 332.202 81.4695 331.477 81.4695 330.027C81.4695 327.126 83.6451 326.401 85.0955 326.401C87.2711 326.401 88.7216 327.851 88.7216 330.027C88.7216 330.027 88.7215 335.829 86.5459 337.279C85.0955 338.729 83.645 338.729 78.5686 338.729L68.4158 338.004ZM64.7897 324.225C65.5149 324.95 65.5149 324.95 64.7897 324.225C65.5149 324.95 65.5149 324.95 64.7897 324.225C65.5149 324.95 65.5149 324.95 64.7897 324.225Z" fill="black"></path><path d="M128.617 338.73H152.549C153.274 338.73 153.999 338.73 153.999 340.181C153.999 341.631 152.549 341.631 152.549 341.631H101.784C101.059 341.631 100.334 341.631 100.334 340.181C100.334 338.73 101.784 338.73 101.784 338.73H125.716V335.104H111.212C107.586 335.104 106.861 333.653 106.861 330.753V324.225C106.861 320.599 108.311 319.874 111.212 319.874H143.121C146.747 319.874 148.198 321.325 148.198 324.225V330.753C148.198 334.379 146.747 335.104 143.121 335.104H128.617V338.73V338.73ZM102.51 369.189C101.784 369.189 101.059 368.463 101.059 367.738C101.059 367.013 101.059 367.014 103.96 365.563C107.586 364.113 110.487 361.937 113.388 359.761C114.113 359.036 114.113 359.036 114.838 359.036C115.563 359.036 116.289 359.761 116.289 360.486C115.563 362.662 103.96 369.189 102.51 369.189ZM128.617 365.563C128.617 367.014 128.617 369.914 125.716 369.914C124.991 369.914 124.266 369.914 118.464 369.914C117.739 369.914 116.289 369.914 116.289 367.738C116.289 366.288 117.739 366.288 117.739 366.288C117.739 366.288 122.815 366.288 123.541 366.288C124.991 366.288 125.716 365.563 125.716 364.112V355.41H111.937C108.311 355.41 106.861 353.96 106.861 351.059V348.883C106.861 345.257 108.311 344.532 111.937 344.532H142.396C146.022 344.532 146.747 345.982 146.747 348.883V351.059C146.747 354.685 145.297 355.41 142.396 355.41H128.617V365.563V365.563ZM109.036 325.676H144.572V323.5C144.572 322.775 143.846 322.05 143.121 322.05H110.487C109.762 322.05 109.036 322.775 109.036 323.5V325.676V325.676ZM109.036 327.852V330.753C109.036 331.478 109.762 332.203 110.487 332.203H143.121C143.846 332.203 144.572 331.478 144.572 330.753V327.852H109.036ZM111.937 347.433C111.212 347.433 110.487 348.158 110.487 348.883V351.784C110.487 352.509 111.212 353.234 111.937 353.234H142.396C143.121 353.234 143.846 352.509 143.846 351.784V348.883C143.846 348.158 143.121 347.433 142.396 347.433H111.937ZM139.495 359.036C140.22 359.036 140.22 359.036 141.671 360.486C146.022 364.112 151.098 366.288 152.549 366.288C153.274 366.288 153.274 367.013 153.274 367.738C153.274 368.463 152.549 369.189 151.824 369.189C150.373 369.189 146.747 367.014 145.297 365.563C141.671 363.387 139.495 361.936 138.77 361.211C138.045 360.486 138.045 360.486 138.045 359.761C138.045 359.761 138.77 359.036 139.495 359.036Z" fill="black"></path><path d="M118.46 372.09C114.834 372.09 114.109 369.914 114.109 368.464C114.109 367.738 114.109 364.838 117.735 364.838C117.735 364.838 120.636 364.838 122.086 364.838H122.811H123.536V357.585H117.01C117.735 358.311 117.735 359.036 117.735 359.761C117.01 363.387 104.681 369.914 102.506 369.914C100.33 369.914 98.8795 368.464 98.8795 366.288C98.8795 364.113 100.33 363.388 102.506 362.662C106.132 361.212 108.307 359.761 111.208 357.585C106.857 357.585 105.406 355.411 105.406 351.059V348.883C105.406 345.257 106.857 343.081 110.483 342.356H101.78C98.1543 342.356 98.1543 339.455 98.1543 339.455C98.1543 338.005 98.8795 336.555 101.78 336.555H123.536H111.208C106.857 336.555 104.681 334.379 104.681 330.028V323.501C104.681 319.15 106.857 316.974 111.208 316.974H143.117C147.468 316.974 149.644 319.15 149.644 323.501V330.028C149.644 334.379 147.468 336.555 143.117 336.555H130.063H152.545C154.72 336.555 156.171 338.005 156.171 339.455C156.171 340.906 155.445 342.356 152.545 342.356H143.842C147.468 343.081 148.919 344.532 148.919 348.883V351.059C148.919 355.411 146.743 357.585 142.392 357.585H141.666L142.392 358.311C146.743 361.937 151.094 364.112 152.545 364.112C153.27 364.112 154.72 364.838 154.72 367.013C154.72 369.189 153.27 370.64 151.094 370.64C149.644 370.64 148.193 369.914 143.842 367.013H143.117C138.766 364.838 137.315 363.388 136.59 362.662C136.59 362.662 135.14 361.212 135.14 360.486C135.14 359.761 135.14 359.037 135.865 358.311H129.338V365.563C129.338 369.189 127.888 371.364 124.262 372.09C124.987 372.09 124.262 372.09 118.46 372.09ZM126.437 367.013C126.437 367.739 125.712 367.738 124.987 368.464C125.712 368.464 126.437 367.739 126.437 367.013ZM111.933 351.784H141.666V348.883H111.933V351.784ZM111.208 330.028H143.117V329.303L111.208 330.028ZM111.208 323.501H143.117H111.208Z" fill="black"></path><path d="M202.584 322.051C204.76 322.051 207.66 322.05 207.66 324.951C207.66 327.852 204.034 331.479 201.859 333.654H211.286C215.638 333.654 217.088 335.104 217.088 339.455V346.707C217.088 351.059 215.638 352.509 211.286 352.509H176.477V363.387C176.477 366.288 178.652 366.288 180.103 366.288H212.012C215.638 366.288 216.363 366.288 217.088 359.761C217.088 358.311 217.088 357.585 218.539 357.585C218.539 357.585 220.714 357.586 220.714 359.036C220.714 359.762 219.989 363.388 219.264 365.563C217.813 369.915 214.913 369.914 211.286 369.914H178.652C174.301 369.914 172.125 369.914 172.125 364.112V339.455C172.125 335.104 173.576 333.654 177.927 333.654H196.782C198.233 332.204 203.309 327.128 203.309 325.677C203.309 324.952 202.584 324.951 201.859 324.951H184.454C178.652 330.753 169.225 336.555 168.499 336.555C167.774 336.555 167.049 335.104 167.049 334.379C167.049 333.654 167.774 332.929 168.499 332.929C172.125 330.754 180.103 326.402 185.904 318.425C186.629 317.7 186.629 316.974 188.08 316.974C188.805 316.974 189.53 317.7 189.53 318.425C189.53 319.15 189.53 319.15 188.805 319.875C188.08 320.6 188.08 321.326 187.355 322.051H202.584V322.051ZM193.156 336.555H179.377C177.202 336.555 176.477 337.28 176.477 339.455V350.333H193.156V336.555ZM196.782 336.555V350.333H211.286C213.462 350.333 214.187 349.609 214.187 347.433V340.181C214.187 338.006 213.462 337.28 211.286 337.28H196.782V336.555Z" fill="black"></path><path d="M212.01 372.09H179.376C175.75 372.09 170.673 372.09 170.673 364.112V339.454C170.673 338.729 170.673 338.004 170.673 337.279C169.223 338.004 168.498 338.004 167.773 338.004C165.597 338.004 164.146 335.828 164.146 334.378C164.146 332.202 165.597 331.477 166.322 331.477C173.574 327.851 179.376 323.499 183.002 317.697C183.727 316.972 184.452 315.522 186.628 315.522C188.803 315.522 190.254 316.973 190.254 318.423C190.254 319.148 190.254 319.148 190.254 319.873H201.857C204.033 319.873 208.384 319.873 208.384 324.95C208.384 327.125 206.934 329.301 204.758 332.202H209.834C214.911 332.202 217.812 334.378 217.812 340.18V347.432C217.812 352.509 215.636 354.685 209.834 354.685H177.2V364.112C177.2 365.563 177.2 365.563 179.376 365.563H211.285C214.186 365.563 214.186 365.563 214.911 360.486C214.911 359.036 215.636 356.135 218.537 356.135C220.712 356.135 222.163 357.585 222.163 359.761C222.163 360.486 221.438 364.838 220.712 367.013C219.987 372.09 215.636 372.09 212.01 372.09ZM175.75 367.013C175.75 367.013 175.75 367.739 175.75 367.013C175.75 367.739 175.75 367.013 175.75 367.013ZM219.262 359.036C219.262 359.036 219.262 359.761 219.262 359.036V359.036ZM175.025 351.059C175.025 351.784 175.025 351.784 175.025 351.059V351.059ZM198.231 348.158H210.56C211.285 348.158 212.01 348.157 212.01 346.707V339.454C212.01 338.729 212.01 338.004 210.56 338.004H198.231V348.158ZM177.925 348.158H190.979V338.004H178.651C177.925 338.004 177.2 338.004 177.2 339.454V348.158H177.925ZM194.605 335.103C194.605 335.828 194.605 335.828 194.605 335.103C194.605 335.828 195.33 335.828 194.605 335.103ZM198.956 334.378H200.407C200.407 334.378 200.407 334.378 200.407 333.653V332.928C199.682 334.378 198.956 334.378 198.956 334.378ZM179.376 331.477H196.781C198.231 330.026 200.407 327.851 201.132 326.401H185.177C183.727 328.576 181.551 330.026 179.376 331.477ZM204.758 323.499C205.483 324.225 205.483 324.95 205.483 325.676V326.401C205.483 325.675 206.208 324.95 206.208 324.95C206.208 324.224 206.208 324.225 204.758 323.499ZM185.903 322.049C185.903 322.775 185.177 322.774 185.177 323.499H186.628C185.903 322.049 185.903 322.049 185.903 322.049Z" fill="black"></path><path d="M251.895 332.929C253.345 329.302 254.07 325.676 254.07 322.05C254.07 319.874 254.07 319.149 256.246 319.149C256.971 319.149 258.422 319.874 258.422 320.599C258.422 321.324 257.696 325.676 256.246 332.203C256.971 332.203 257.696 332.203 259.147 332.203C271.475 332.203 272.2 339.455 272.2 346.707C272.2 364.838 267.124 367.739 259.872 367.739C254.07 367.739 254.07 366.289 254.07 365.564C254.07 364.839 254.796 364.113 255.521 364.113H256.971C258.422 364.113 259.147 364.113 259.872 364.113C264.948 364.113 268.574 362.662 268.574 345.982C268.574 339.455 267.849 334.379 259.147 334.379C257.696 334.379 256.246 334.379 255.521 334.379C251.895 350.334 247.543 359.036 243.917 364.838C243.192 366.288 242.467 367.014 241.742 367.014C241.742 367.014 239.566 367.014 239.566 365.564C239.566 364.839 239.566 364.838 241.017 362.663C245.368 355.41 248.994 345.257 251.895 335.104C249.719 335.104 239.566 337.28 238.841 337.28C238.116 337.28 237.391 336.554 237.391 335.829C237.391 334.378 238.116 334.379 240.291 334.379L251.895 332.929ZM279.453 335.104C283.804 341.631 285.254 348.158 285.254 349.608C285.254 351.059 284.529 351.059 283.079 351.059C281.628 351.059 281.628 350.334 281.628 348.158C280.178 341.631 276.552 335.104 271.475 330.027C269.3 327.852 269.3 327.852 269.3 327.126C269.3 326.401 270.025 325.676 270.75 325.676C272.926 327.127 277.277 332.203 279.453 335.104ZM285.254 328.576C285.254 329.302 284.529 330.027 283.079 330.027C282.353 330.027 282.353 330.027 279.453 326.401C278.727 325.676 276.552 323.501 275.101 322.05C274.376 321.325 274.376 321.324 274.376 320.599C274.376 319.874 275.101 319.149 275.826 319.149C278.727 319.149 285.254 327.851 285.254 328.576ZM291.781 323.5C291.781 324.225 291.056 324.95 289.605 324.95C288.88 324.95 288.88 324.95 285.979 321.324C285.254 320.599 283.079 318.423 281.628 316.973C280.903 316.248 280.903 316.248 280.903 315.523C280.903 314.798 281.628 314.072 282.353 314.072C285.254 314.797 291.781 322.775 291.781 323.5Z" fill="black"></path><path d="M258.425 369.914C256.249 369.914 250.447 369.914 250.447 365.563C250.447 363.387 251.898 361.937 253.348 361.937C254.074 361.937 254.799 361.937 255.524 361.937C256.249 361.937 257.7 361.937 258.425 361.937C262.051 361.937 265.677 361.936 265.677 345.982C265.677 339.455 264.952 336.554 258.425 336.554C257.7 336.554 256.974 336.554 256.249 336.554C253.348 348.883 248.997 358.311 244.646 366.288C243.921 367.739 243.196 369.189 241.02 369.189C239.569 369.189 237.394 368.464 237.394 365.563C237.394 364.113 237.394 364.113 238.844 361.937C242.47 355.41 246.096 346.707 248.997 337.279C247.547 337.279 245.371 338.004 243.921 338.004C238.844 338.73 238.844 338.729 238.844 338.729C236.669 338.729 235.943 337.279 235.943 335.103C235.943 332.202 238.119 332.202 241.02 331.477L251.898 330.027C252.623 327.126 253.348 324.225 253.348 320.599C253.348 319.148 254.074 316.248 256.974 316.248C259.15 316.248 260.6 317.698 260.6 319.874C260.6 320.599 259.875 324.951 259.15 329.302C273.654 329.302 273.654 339.455 273.654 345.982C272.929 363.387 268.578 369.914 258.425 369.914ZM252.623 334.378C252.623 335.103 252.623 335.103 252.623 334.378C252.623 335.103 252.623 335.103 252.623 334.378C253.348 334.378 254.074 333.653 254.799 333.653C254.799 333.653 254.799 333.653 254.799 332.928C253.348 333.653 253.348 334.378 252.623 334.378ZM256.249 320.599C255.524 320.599 255.524 321.324 256.249 320.599V320.599ZM283.082 353.234C280.181 353.234 280.181 351.058 279.456 348.883C278.005 342.356 275.105 336.554 270.028 331.477C267.853 329.301 267.127 328.576 267.127 327.851C267.127 326.401 268.578 324.225 270.753 324.225C274.379 324.225 279.456 332.203 280.181 333.653C284.532 340.18 285.983 347.432 285.983 348.883C286.708 351.784 285.257 353.234 283.082 353.234ZM283.082 332.202C281.631 332.202 280.906 331.477 278.731 328.576L278.005 327.851C277.28 327.126 275.105 324.95 274.379 323.5C273.654 322.775 272.929 322.049 272.929 321.324C272.929 319.873 274.379 317.698 276.555 317.698C279.456 317.698 286.708 327.126 286.708 328.576C286.708 330.027 285.257 332.202 283.082 332.202ZM289.609 327.126C288.158 327.126 287.433 326.401 284.532 322.775C283.807 322.05 281.631 319.874 280.906 318.424C280.181 317.698 280.181 316.973 280.181 316.248C280.181 314.072 281.631 312.622 283.807 312.622C286.708 312.622 293.96 321.324 293.96 323.5C293.235 325.676 291.784 327.126 289.609 327.126Z" fill="black"></path><path d="M312.811 369.914C312.811 370.64 312.811 371.364 311.361 371.364C309.91 371.364 309.91 370.64 309.91 369.914V338.004C308.46 340.18 307.009 342.356 305.559 344.531C304.834 345.257 304.834 345.256 304.109 345.256C303.383 345.256 302.658 344.531 302.658 343.08C302.658 342.355 303.383 341.63 303.383 341.63C308.46 335.828 312.811 327.851 315.712 319.148C315.712 318.423 316.437 317.697 317.162 317.697C317.888 317.697 319.338 318.423 319.338 319.148C319.338 319.874 317.162 327.126 313.536 332.928V369.914H312.811ZM337.468 369.914C337.468 370.64 337.468 371.364 336.018 371.364C334.567 371.364 334.567 370.64 334.567 369.914V356.86H325.14C320.788 356.86 319.338 355.41 319.338 351.059V332.202C319.338 327.851 320.788 326.401 325.14 326.401H334.567V319.148C334.567 318.423 334.567 317.697 336.018 317.697C337.468 317.697 337.468 318.423 337.468 319.148V326.401H347.621C351.972 326.401 353.423 327.851 353.423 332.202V351.059C353.423 355.41 351.972 356.86 347.621 356.86H337.468V369.914ZM321.514 340.18H333.842V329.302H324.414C322.239 329.302 321.514 330.026 321.514 332.202V340.18ZM321.514 343.08V351.059C321.514 353.234 322.239 353.959 324.414 353.959H333.842V343.08H321.514ZM350.522 340.18V332.202C350.522 330.026 349.797 329.302 347.621 329.302H337.468V340.18H350.522ZM337.468 353.959H347.621C349.797 353.959 350.522 353.234 350.522 351.059V343.08H337.468V353.959V353.959Z" fill="black"></path><path d="M336.014 373.54C334.564 373.54 332.388 372.815 332.388 369.914V359.035H324.411C319.335 359.035 316.434 356.86 316.434 351.058V332.202C316.434 327.125 318.609 324.224 324.411 324.224H332.388V318.423C332.388 315.522 333.839 314.797 336.014 314.797C338.19 314.797 339.64 316.247 339.64 318.423V324.224H348.343C353.419 324.224 355.595 326.4 355.595 332.202V351.058C355.595 356.135 353.419 359.035 348.343 359.035H339.64V369.914C338.915 372.815 336.74 373.54 336.014 373.54ZM335.289 355.409C335.289 355.409 335.289 356.134 335.289 355.409C336.014 355.409 336.014 355.409 336.014 355.409C336.014 355.409 336.014 355.409 335.289 355.409ZM338.915 352.508H346.892C347.618 352.508 348.343 352.508 348.343 351.058V344.531H338.915V352.508ZM323.686 344.531V351.058C323.686 351.783 323.686 352.508 325.136 352.508H332.388V345.256H323.686V344.531ZM335.289 341.63C336.014 341.63 336.014 341.63 336.014 341.63C336.014 341.63 336.014 340.905 335.289 341.63C335.289 341.63 335.289 340.905 335.289 341.63ZM338.915 338.729H348.343V332.202C348.343 330.751 348.343 330.751 346.892 330.751H338.915V338.729ZM323.686 338.729H332.388V331.476H325.136C324.411 331.476 323.686 331.477 323.686 332.927V338.729ZM335.289 327.85C336.014 327.85 336.014 327.85 336.014 327.85C336.014 327.85 336.014 327.125 335.289 327.85C335.289 327.85 335.289 327.125 335.289 327.85ZM311.357 373.54C309.182 373.54 307.731 372.089 307.731 369.914V343.08C307.006 343.805 307.006 344.531 306.281 344.531C305.556 345.256 304.83 345.981 303.38 345.981C301.204 345.981 299.754 343.805 299.754 342.355C299.754 340.904 300.479 340.179 301.204 339.454C306.281 333.652 310.632 325.675 313.533 317.697C314.258 316.247 314.983 315.522 316.434 315.522C317.884 315.522 320.06 316.973 320.06 318.423C320.06 319.873 317.159 327.125 314.258 332.202V369.189C314.983 372.815 312.082 373.54 311.357 373.54ZM309.907 335.828C310.632 335.828 311.357 336.554 311.357 336.554V332.927C310.632 333.653 309.907 335.102 309.907 335.828C309.182 335.828 309.182 335.828 309.907 335.828Z" fill="black"></path><path d="M411.441 347.433C411.441 361.938 402.738 368.464 391.86 368.464C380.982 368.464 373.73 361.212 373.73 351.784C373.73 346.708 375.181 338.005 386.059 327.126C378.807 327.852 373.73 327.851 373.73 327.851C373.005 327.851 371.555 327.852 371.555 326.401C371.555 324.951 372.28 324.95 375.906 324.95C378.807 324.95 382.433 324.951 386.059 324.225C386.784 324.225 390.41 323.5 390.41 323.5C391.861 323.5 391.86 324.225 391.86 324.95C391.86 325.676 391.861 325.676 390.41 327.126C382.433 333.653 376.631 343.082 376.631 351.059C376.631 359.037 382.433 364.838 391.135 364.838C404.189 364.838 407.09 353.96 407.09 346.707C407.09 343.081 406.365 335.104 402.738 326.401C402.738 325.676 401.288 322.775 401.288 322.05C401.288 321.325 402.013 320.599 403.464 320.599C404.189 320.599 404.189 320.599 405.639 323.5C409.265 329.302 415.067 334.378 420.869 338.73C421.594 339.455 421.594 339.456 421.594 340.181C421.594 340.906 420.869 341.631 420.143 341.631C419.418 341.631 418.693 341.631 417.243 339.455C413.617 336.554 410.716 332.929 407.815 329.302C409.991 335.104 411.441 340.906 411.441 347.433ZM415.792 322.775C416.518 324.226 418.693 327.126 418.693 327.851C418.693 328.577 417.968 329.302 417.243 329.302C416.517 329.302 415.792 329.302 414.342 325.676C413.617 324.951 411.441 320.599 410.716 319.874V319.149C410.716 319.149 410.716 317.698 412.891 317.698C412.166 318.423 412.891 318.424 415.792 322.775ZM423.044 319.149C423.77 320.599 425.945 323.5 425.945 324.225C425.945 324.951 425.22 325.676 423.769 325.676C423.044 325.676 423.044 325.676 420.869 322.05C420.143 321.325 417.243 316.973 417.243 316.248V315.523C417.243 314.798 417.968 314.072 419.418 314.072C419.418 314.797 420.869 316.973 423.044 319.149Z" fill="black"></path><path d="M392.589 370.639C380.986 370.639 372.283 362.662 372.283 351.784C372.283 344.532 375.184 337.279 381.711 329.302C376.634 330.027 374.459 330.027 373.733 330.027C370.833 330.027 370.107 327.851 370.107 326.401C370.107 322.775 372.283 322.775 375.909 322.775C378.81 322.775 382.436 322.775 386.062 322.05C386.787 322.05 387.512 322.05 388.238 322.05C389.688 322.05 390.413 322.05 391.138 322.05C393.314 322.05 394.764 323.5 394.764 325.676C394.764 327.126 394.039 327.852 392.589 329.302C384.612 335.104 379.535 344.532 379.535 351.784C379.535 359.036 384.612 364.112 392.589 364.112C404.917 364.112 407.093 353.959 407.093 348.158C407.093 345.257 406.368 337.279 402.742 328.576V327.851C401.291 325.675 401.292 324.225 401.292 323.5C401.292 322.049 402.742 319.874 404.918 319.874C406.368 319.874 407.093 320.599 408.544 322.775C412.17 327.851 416.521 332.203 423.048 338.004C423.773 338.73 424.498 339.455 424.498 340.905C424.498 343.081 423.048 344.532 420.872 344.532C419.422 344.532 418.696 343.806 416.521 342.356C415.07 340.905 413.62 339.455 412.17 338.729C412.895 341.63 412.895 344.532 412.895 348.158C413.62 364.838 402.742 370.639 392.589 370.639ZM404.918 324.95C404.918 324.95 404.917 325.676 405.643 325.676L406.368 326.401C407.093 327.126 407.093 328.577 407.818 329.302C407.818 329.302 407.818 329.301 408.544 328.576C407.093 327.851 405.643 326.4 404.918 324.95ZM387.512 326.401C387.512 326.401 388.238 326.401 387.512 326.401C388.238 327.126 388.238 327.851 388.238 327.851C388.963 327.126 388.963 327.126 389.688 326.401C389.688 326.401 390.413 326.401 390.413 325.676C389.688 325.676 388.963 325.676 388.963 325.676C388.238 325.676 388.238 325.676 387.512 326.401ZM417.246 331.477C415.07 331.477 415.07 330.752 412.895 327.126L411.444 325.676C410.719 324.225 409.269 322.05 408.544 322.05C408.544 322.05 407.818 321.324 407.818 319.874C407.818 318.423 408.544 316.248 411.444 316.248C412.895 316.248 413.62 316.973 417.246 322.05C418.696 323.5 420.872 327.126 420.872 328.576C420.872 330.027 418.696 331.477 417.246 331.477ZM411.444 319.149C411.444 319.874 411.444 319.874 411.444 319.149C411.444 319.874 411.444 319.874 411.444 319.149ZM423.773 327.851C422.322 327.851 421.597 327.126 419.422 324.225V323.5C419.422 322.775 417.971 321.324 417.246 319.874C416.521 319.149 415.796 317.698 415.796 317.698C415.796 317.698 415.07 316.973 415.07 315.523C415.07 314.797 415.796 314.072 416.521 313.347C417.246 312.621 417.971 312.622 419.422 312.622C420.872 312.622 422.322 314.797 424.498 317.698V318.424C425.948 319.874 428.124 323.5 428.124 324.95C428.124 326.4 425.948 327.851 423.773 327.851Z" fill="black"></path><path d="M441.899 329.302C441.174 329.302 440.449 329.302 440.449 329.302C438.998 329.302 438.998 328.576 438.998 327.126C438.998 325.675 439.723 325.676 440.449 325.676C440.449 325.676 446.25 324.95 446.975 324.95L486.137 322.05H488.312C489.038 322.05 489.763 322.049 489.763 324.225C489.763 325.675 489.038 325.676 486.137 326.401C473.808 327.851 459.304 336.554 459.304 348.883C459.304 356.861 465.106 361.937 475.259 364.113C478.885 364.838 478.885 364.838 478.885 366.289C478.885 366.289 478.885 368.464 476.709 368.464C475.259 368.464 470.182 367.014 466.556 365.564C463.655 364.113 454.953 359.761 454.953 348.883C454.953 338.73 462.205 330.752 474.533 325.676L441.899 329.302Z" fill="black"></path><path d="M475.982 369.914C473.806 369.914 468.729 368.464 465.103 367.013C454.95 362.662 452.775 354.685 452.775 348.883C452.775 340.906 457.126 334.378 465.103 328.577L442.622 330.753C441.897 330.753 441.172 330.753 440.446 330.753C438.271 330.753 436.82 329.302 436.82 327.127C436.82 326.401 436.82 324.226 438.996 323.5C439.721 323.5 446.248 322.775 446.248 322.775L484.684 319.874H486.86C489.76 319.874 490.486 322.05 490.486 323.5C490.486 326.401 488.31 327.127 484.684 327.127C472.356 328.577 460.027 337.28 460.027 347.433C460.027 354.685 464.378 359.035 474.531 361.211C478.157 361.936 479.608 362.662 479.608 364.837C479.608 367.738 478.157 369.914 475.982 369.914ZM469.455 364.837C471.63 365.562 473.806 366.288 474.531 366.288C473.806 366.288 473.806 366.288 473.081 366.288C472.356 365.563 470.905 365.562 469.455 364.837ZM440.446 327.852C440.446 327.852 441.171 327.852 441.897 327.852H445.523C444.072 327.126 441.172 327.852 440.446 327.852ZM475.982 324.951C475.982 325.676 475.982 325.676 475.982 324.951C475.982 325.676 475.982 325.676 475.982 326.401C478.157 325.676 481.058 324.951 483.959 324.225L475.982 324.951ZM486.86 324.225C486.86 324.225 486.134 324.225 486.86 324.225C486.134 324.225 486.86 324.225 486.86 324.225Z" fill="black"></path><path d="M529.646 343.08H515.867C511.516 343.08 510.065 341.631 510.065 337.279V323.5C510.065 322.774 510.065 322.05 511.516 322.05C512.966 322.05 512.966 322.774 512.966 323.5V337.279C512.966 339.455 514.417 340.18 515.867 340.18H529.646V319.148C529.646 318.423 529.646 317.698 531.096 317.698C532.547 317.698 532.547 318.423 532.547 319.148V340.18H546.326C548.502 340.18 549.227 339.455 549.227 337.279V323.5C549.227 322.774 549.227 322.05 550.677 322.05C552.127 322.05 552.127 322.774 552.127 323.5V337.279C552.127 341.631 550.677 343.08 546.326 343.08H532.547V367.013H548.501C550.677 367.013 551.402 366.288 551.402 364.112V351.784C551.402 351.058 551.402 350.333 552.853 350.333C554.303 350.333 554.303 351.058 554.303 351.784V364.112C554.303 368.464 552.853 369.914 548.501 369.914H512.241C507.89 369.914 506.439 368.464 506.439 364.112V351.784C506.439 351.058 506.439 350.333 507.89 350.333C509.34 350.333 509.34 351.058 509.34 351.784V364.112C509.34 366.288 510.791 367.013 512.241 367.013H528.196V343.08H529.646Z" fill="black"></path><path d="M549.23 371.365H512.969C507.893 371.365 504.992 369.189 504.992 363.387V351.059C504.992 348.158 506.443 347.432 508.618 347.432C510.794 347.432 512.244 348.883 512.244 351.059V363.387C512.244 364.112 512.244 364.837 513.695 364.837H528.199V344.531H515.87C510.794 344.531 507.893 342.356 507.893 336.554V322.774C507.893 319.873 509.343 319.148 511.519 319.148C513.695 319.148 515.145 320.599 515.145 322.774V336.554C515.145 337.279 515.145 338.004 516.596 338.004H528.199V319.148C528.199 316.247 529.649 315.522 531.825 315.522C534 315.522 535.451 316.973 535.451 319.148V338.004H547.054C548.504 338.004 548.505 338.004 548.505 336.554V322.774C548.505 319.873 549.955 319.148 552.131 319.148C554.306 319.148 555.757 320.599 555.757 322.774V336.554C555.757 341.631 553.581 344.531 547.779 344.531H535.451V364.837H549.955C550.68 364.837 551.405 364.838 551.405 363.387V351.059C551.405 348.158 552.856 347.432 555.031 347.432C557.207 347.432 558.657 348.883 558.657 351.059V363.387C556.482 369.189 554.306 371.365 549.23 371.365ZM530.374 341.63C530.374 341.63 531.1 342.355 530.374 341.63C531.1 342.355 531.1 341.63 531.1 341.63C531.1 341.63 531.1 341.63 530.374 341.63C530.374 341.63 531.1 341.63 530.374 341.63Z" fill="black"></path><path d="M578.967 341.631H573.165C572.44 341.631 571.715 341.631 571.715 340.181C571.715 338.73 573.165 338.73 573.165 338.73H578.967V323.5H573.165C572.44 323.5 571.715 323.501 571.715 322.05C571.715 320.6 573.165 320.599 573.165 320.599H588.395C589.12 320.599 589.845 320.6 589.845 322.05C589.845 323.501 588.395 323.5 588.395 323.5H581.868V338.73H586.944C587.669 338.73 588.395 338.73 588.395 340.181C588.395 341.631 586.944 341.631 586.944 341.631H581.868V357.585C584.043 356.86 586.219 356.135 586.944 356.135C588.394 355.41 589.12 355.41 589.12 355.41C589.845 355.41 590.57 356.135 590.57 356.86C590.57 358.31 590.57 358.311 586.219 359.761C580.417 361.212 573.165 362.662 573.165 362.662C572.44 362.662 571.715 361.936 571.715 361.211C571.715 359.761 572.44 359.761 573.165 359.761C574.616 359.036 577.516 359.036 579.692 358.311V341.631H578.967ZM597.097 351.784C593.471 351.784 592.746 350.333 592.746 346.707V324.225C592.746 320.599 594.196 319.874 597.097 319.874H618.128C621.754 319.874 623.205 321.325 623.205 324.225V346.707C623.205 350.333 621.754 351.784 618.128 351.784H613.052V365.563C613.052 367.739 614.502 367.738 615.952 367.738C620.304 367.738 621.029 367.738 621.029 367.013C621.029 366.288 621.029 365.562 621.754 361.211C621.754 359.761 621.754 359.036 623.205 359.036C623.93 359.036 624.655 359.761 624.655 360.486C624.655 361.937 623.93 367.739 623.205 369.189C622.479 370.64 621.754 370.639 614.502 370.639C611.601 370.639 609.426 369.914 609.426 365.563V351.784H602.899C602.174 357.586 599.998 364.112 591.295 368.463C588.395 369.914 585.494 370.639 584.769 370.639C584.043 370.639 583.318 369.914 583.318 368.463C583.318 367.738 584.043 367.013 584.769 367.013C592.746 364.838 598.548 361.212 599.998 351.059H597.097V351.784ZM595.647 329.303H619.579V324.951C619.579 323.5 618.853 322.775 617.403 322.775H597.822C596.372 322.775 595.647 323.5 595.647 324.951V329.303ZM619.579 332.203H595.647V338.73H619.579V332.203ZM595.647 341.631V346.707C595.647 348.157 596.372 348.883 597.822 348.883H617.403C618.853 348.883 619.579 348.157 619.579 346.707V341.631H595.647Z" fill="black"></path><path d="M584.767 372.815C582.591 372.815 581.14 371.364 581.14 369.189C581.14 368.463 581.14 367.013 584.041 366.288C591.293 364.112 596.37 361.211 597.82 353.959H597.095C592.744 353.959 590.568 351.784 590.568 347.432V341.63C590.568 343.081 589.118 343.806 586.942 343.806H583.316V356.135C584.766 356.135 585.492 355.41 586.217 355.41C588.393 354.684 588.393 354.685 589.118 354.685C590.568 354.685 592.019 356.135 592.019 358.311C592.019 361.211 590.568 361.211 586.217 362.662C581.141 364.112 573.163 365.563 572.438 365.563C570.987 365.563 569.537 364.112 569.537 361.937C569.537 359.761 571.713 359.036 571.713 359.036C573.163 358.31 575.339 358.31 576.789 357.585V343.806H573.163C570.262 343.806 569.537 342.356 569.537 340.905C569.537 339.455 570.262 337.279 573.163 337.279H576.789V325.676H573.163C570.262 325.676 569.537 324.226 569.537 322.775C569.537 321.325 570.262 319.874 573.163 319.874H588.393C589.843 319.874 590.568 320.599 591.293 321.324C592.019 319.149 594.194 318.424 597.095 318.424H618.126C622.477 318.424 624.653 320.599 624.653 324.95V347.432C624.653 351.784 622.477 353.959 618.126 353.959H615.225V365.563V366.288H615.95C617.401 366.288 618.851 366.288 619.576 366.288C619.576 365.562 619.576 364.837 619.576 363.387V361.937C619.576 360.486 619.576 357.585 623.202 357.585C625.378 357.585 626.828 359.035 626.828 361.211C626.828 361.936 626.829 368.463 624.653 370.639C623.203 372.814 621.752 372.815 614.5 372.815C611.599 372.815 607.973 372.089 607.973 366.288V353.959H605.072C603.622 359.76 601.446 366.287 592.744 370.639C589.843 371.364 586.217 372.815 584.767 372.815ZM580.415 359.036C580.415 359.761 581.14 359.761 580.415 359.036C581.14 359.036 581.14 359.036 580.415 359.036C580.415 359.036 581.14 359.036 580.415 359.036ZM601.446 350.333C601.446 350.333 602.171 351.058 601.446 350.333C602.171 351.058 602.171 350.333 601.446 350.333ZM611.599 350.333C611.599 350.333 611.599 351.058 611.599 350.333C611.599 351.058 611.599 350.333 611.599 350.333ZM597.095 343.081V346.707V347.432H616.676C616.676 347.432 616.676 347.432 617.401 347.432V343.806H597.095V343.081ZM579.69 340.18C580.415 340.18 580.415 340.18 579.69 340.18C580.415 340.18 580.415 340.18 580.415 340.18C580.415 340.18 580.415 339.455 579.69 340.18C580.415 340.18 580.415 339.455 579.69 340.18ZM620.302 340.18C621.027 340.18 621.027 340.18 620.302 340.18C621.027 340.18 621.027 340.18 620.302 340.18ZM584.041 336.554H587.667C589.843 336.554 590.568 338.004 591.293 338.729V324.225C590.568 324.951 589.843 324.95 589.118 324.95H584.767V336.554H584.041ZM597.095 336.554H617.401V333.653H597.095V336.554ZM597.095 327.126H617.401V324.225C617.401 324.225 617.401 324.225 617.401 323.5H597.82C597.82 323.5 597.095 323.5 597.095 324.225V327.126Z" fill="black"></path><path d="M51.7402 24.7104H35.0604C34.3352 24.7104 33.61 24.7099 33.61 23.2594C33.61 21.809 35.0604 21.8093 35.0604 21.8093H51.7402V18.1833C51.7402 17.458 51.7402 16.7323 53.1906 16.7323C54.641 16.7323 54.641 18.1833 54.641 18.1833V34.8627C54.641 35.5879 54.641 37.0387 53.1906 37.0387C51.7402 37.0387 51.7402 35.5886 51.7402 35.5886V32.6876C47.3889 33.4128 35.0605 35.5886 34.3353 35.5886C33.6101 35.5886 32.8848 34.8629 32.8848 34.1377C32.8848 32.6872 33.6101 32.6876 34.3353 32.6876C40.8621 31.9624 45.9385 31.237 51.0149 29.7866V24.7104H51.7402ZM43.7629 58.7952V68.9484C43.7629 69.6737 43.7629 70.3985 42.3125 70.3985C40.8621 70.3985 40.8621 69.6737 40.8621 68.9484V45.741C40.8621 41.3897 42.3125 39.9398 46.6638 39.9398H74.2216C78.5729 39.9398 80.0232 41.3897 80.0232 45.741V63.8714C80.0232 69.6731 77.1224 69.6735 72.7711 69.6735H66.2443C65.5191 69.6735 64.7939 69.6738 64.7939 68.2234C64.7939 66.773 66.2443 66.7724 66.2443 66.7724C66.9695 66.7724 72.0459 66.7724 72.7711 66.7724C74.2215 66.7724 75.672 66.7723 75.672 63.8714V58.7952H43.7629V58.7952ZM75.672 47.917V45.741C75.672 43.5653 74.9468 42.8408 72.7711 42.8408H46.6638C44.4881 42.8408 43.7629 43.5653 43.7629 45.741V47.917H75.672ZM43.7629 50.818V55.8942H76.3972V50.818H43.7629ZM66.2443 31.2366C66.2443 33.4123 67.6947 33.4126 69.1451 33.4126C80.0232 33.4126 80.7485 33.4126 81.4737 33.4126C82.1989 33.4126 82.9241 32.6874 82.9241 29.7866C82.9241 29.0613 82.9241 27.6106 84.3745 27.6106C85.0997 27.6106 86.5501 28.3363 86.5501 29.0615C86.5501 30.5119 85.8249 34.1375 85.0997 34.8627C84.3745 35.5879 82.924 35.5886 78.5728 35.5886C77.1224 35.5886 70.5955 35.5886 69.1451 35.5886C66.2443 35.5886 64.0687 34.8629 64.0687 30.5116V18.1833C64.0687 17.458 64.0687 16.7323 65.5191 16.7323C66.9695 16.7323 66.9696 18.1833 66.9696 18.1833V22.5344C69.8704 21.8092 74.9468 21.084 80.7484 18.9083C82.1989 18.1831 82.924 18.1833 83.6492 18.1833C84.3744 18.1833 85.0997 18.9081 85.0997 19.6333C85.0997 20.3586 84.3745 21.084 80.7484 22.5344C74.9468 24.71 70.5956 25.4354 66.9696 25.4354V31.2366H66.2443Z" fill="black"></path><path d="M41.5832 72.5739C40.858 72.5739 37.9571 72.5739 37.9571 68.9478V45.7402C37.9571 40.6636 40.1328 37.7629 45.2092 37.7629H50.2856C49.5604 37.0377 49.5604 36.3123 49.5604 34.8618V34.1368C44.4839 34.862 35.0563 37.0378 34.3311 37.0378C32.1555 37.0378 30.7051 35.5874 30.7051 33.4117C30.7051 31.9613 31.4303 30.5108 34.3311 29.7856H36.5066C41.5831 29.0604 45.9343 28.3348 49.5604 27.6096V25.4344H35.0562C32.8806 25.4344 31.4302 23.9838 31.4302 22.5334C31.4302 21.0829 32.1554 18.9073 35.0562 18.9073H49.5604V17.4572C49.5604 14.5563 51.0108 13.8311 53.1864 13.8311C54.6368 13.8311 56.8124 14.5563 56.8124 17.4572V34.1368C56.8124 35.5872 56.0873 36.3126 56.0873 37.0378H73.4922C78.5686 37.0378 80.7442 39.2133 80.7442 45.0151V63.1457C80.7442 70.3979 75.6678 70.3979 71.3165 70.3979H66.2401C64.0645 70.3979 62.6141 68.9475 62.6141 66.7718C62.6141 65.3213 63.3393 63.1457 66.2401 63.1457C66.9653 63.1457 68.4157 63.1457 69.8662 63.1457C71.3166 63.1457 72.0417 63.1457 72.7669 63.1457C74.2173 63.1457 74.2174 63.146 74.2174 61.6956V58.0695H45.2092V66.7718C45.2092 71.8484 43.7588 72.5739 41.5832 72.5739ZM77.1182 66.0467C77.1182 66.772 76.393 67.4975 75.6678 68.2228C76.393 67.4975 77.1182 67.4972 77.1182 66.0467ZM45.2092 54.4434H74.2174V52.9924H45.2092V54.4434ZM42.3083 48.6412C42.3083 49.3664 42.3083 49.3664 42.3083 48.6412C42.3083 49.3664 42.3083 49.3664 42.3083 48.6412ZM45.2092 46.4661H74.2174C74.2174 45.0156 74.2173 45.0151 72.7669 45.0151H46.6596C45.9344 44.2899 45.2092 44.2904 45.2092 46.4661ZM53.1864 23.2584C53.1864 23.2584 53.1864 23.9836 53.1864 23.2584V23.2584ZM68.4158 37.7629C66.2401 37.7629 61.1637 37.7627 61.1637 31.2357V18.9073C61.1637 16.0064 62.6141 15.2811 64.7897 15.2811C66.2401 15.2811 68.4158 16.0064 68.4158 18.9073V21.0833C72.767 20.3581 76.393 19.6327 79.2939 18.1822C81.4695 17.457 82.1947 16.7312 82.9199 16.7312C84.3703 16.7312 86.5459 18.1817 86.5459 20.3574C86.5459 22.533 84.3703 23.9842 81.4695 24.7094C76.3931 26.1598 72.7669 26.8844 69.1409 27.6096V31.2357V31.9616H69.8662C77.8434 31.9616 80.7443 31.9616 81.4695 31.9616C81.4695 31.9616 81.4695 31.236 81.4695 29.7856C81.4695 26.8847 83.6451 26.1595 85.0955 26.1595C87.2711 26.1595 88.7216 27.6099 88.7216 29.7856C88.7216 29.7856 88.7215 35.5874 86.5459 37.0378C85.0955 38.4883 83.645 38.4879 78.5686 38.4879L68.4158 37.7629ZM64.7897 23.9835C65.5149 24.7087 65.5149 24.7087 64.7897 23.9835C65.5149 24.7087 65.5149 24.7087 64.7897 23.9835C65.5149 23.9835 65.5149 23.9835 64.7897 23.9835Z" fill="black"></path><path d="M128.617 38.4883H152.549C153.274 38.4883 153.999 38.4889 153.999 39.9393C153.999 41.3898 152.549 41.3894 152.549 41.3894H101.784C101.059 41.3894 100.334 41.3898 100.334 39.9393C100.334 38.4889 101.784 38.4883 101.784 38.4883H125.716V34.8622H111.212C107.586 34.8622 106.861 33.4119 106.861 30.5111V23.9839C106.861 20.3577 108.311 19.6327 111.212 19.6327H143.121C146.747 19.6327 148.198 21.083 148.198 23.9839V30.5111C148.198 34.1372 146.747 34.8622 143.121 34.8622H128.617V38.4883V38.4883ZM102.51 68.9483C101.784 68.9483 101.059 68.2225 101.059 67.4973C101.059 66.7721 101.059 66.7726 103.96 65.3222C107.586 63.8717 110.487 61.6957 113.388 59.52C114.113 58.7948 114.113 58.795 114.838 58.795C115.563 58.795 116.289 59.5198 116.289 60.2451C115.563 62.4207 103.96 68.9483 102.51 68.9483ZM128.617 65.3222C128.617 66.7726 128.617 69.6733 125.716 69.6733C124.991 69.6733 124.266 69.6733 118.464 69.6733C117.739 69.6733 116.289 69.673 116.289 67.4973C116.289 66.0469 117.739 66.0472 117.739 66.0472C117.739 66.0472 122.815 66.0472 123.541 66.0472C124.991 66.0472 125.716 65.3216 125.716 63.8712V55.1688H111.937C108.311 55.1688 106.861 53.7186 106.861 50.8177V48.6417C106.861 45.0155 108.311 44.2905 111.937 44.2905H142.396C146.022 44.2905 146.747 45.7408 146.747 48.6417V50.8177C146.747 54.4438 145.297 55.1688 142.396 55.1688H128.617V65.3222V65.3222ZM109.036 25.4348H144.572V23.2588C144.572 22.5336 143.846 21.8087 143.121 21.8087H110.487C109.762 21.8087 109.036 22.5336 109.036 23.2588V25.4348V25.4348ZM109.036 27.61V30.5111C109.036 31.2363 109.762 31.962 110.487 31.962H143.121C143.846 31.962 144.572 31.2363 144.572 30.5111V27.61H109.036ZM111.937 47.1916C111.212 47.1916 110.487 47.9164 110.487 48.6417V51.5427C110.487 52.268 111.212 52.9928 111.937 52.9928H142.396C143.121 52.9928 143.846 52.268 143.846 51.5427V48.6417C143.846 47.9164 143.121 47.1916 142.396 47.1916H111.937ZM139.495 58.795C140.22 58.795 140.22 58.7946 141.671 60.2451C146.022 63.8712 151.098 66.0472 152.549 66.0472C153.274 66.0472 153.274 66.7721 153.274 67.4973C153.274 68.2225 152.549 68.9483 151.824 68.9483C150.373 68.9483 146.747 66.7726 145.297 65.3222C141.671 63.1465 139.495 61.6962 138.77 60.971C138.045 60.2458 138.045 60.2452 138.045 59.52C138.045 59.52 138.77 58.795 139.495 58.795Z" fill="black"></path><path d="M118.46 71.8489C114.834 71.8489 114.109 69.6732 114.109 68.2228C114.109 67.4976 114.109 64.5968 117.735 64.5968C117.735 64.5968 120.636 64.5968 122.086 64.5968H122.811H123.536V57.3447H117.01C117.735 58.0699 117.735 58.7946 117.735 59.5198C117.01 63.1458 104.681 69.6729 102.506 69.6729C100.33 69.6729 98.8795 68.2225 98.8795 66.0469C98.8795 63.8712 100.33 63.146 102.506 62.4208C106.132 60.9704 108.307 59.5203 111.208 57.3447C106.857 57.3447 105.406 55.1689 105.406 50.8177V48.6417C105.406 45.0157 106.857 42.8399 110.483 42.1147H101.78C98.1543 42.1147 98.1543 39.2145 98.1543 39.2145C98.1543 37.7641 98.8795 36.3135 101.78 36.3135H123.536H111.208C106.857 36.3135 104.681 34.1377 104.681 29.7865V23.2595C104.681 18.9082 106.857 16.7324 111.208 16.7324H143.117C147.468 16.7324 149.644 18.9082 149.644 23.2595V29.7865C149.644 34.1377 147.468 36.3135 143.117 36.3135H130.063H152.545C156.171 36.3135 156.171 39.2145 156.171 39.2145C156.171 40.665 155.445 42.1147 152.545 42.1147H143.842C147.468 42.8399 148.919 44.2905 148.919 48.6417V50.8177C148.919 55.1689 146.743 57.3447 142.392 57.3447H141.666L142.392 58.0698C146.743 61.6958 151.094 63.1457 152.545 63.8709C153.27 63.8709 154.72 64.5963 154.72 66.7719C154.72 68.9475 153.27 70.3979 151.094 70.3979C149.644 70.3979 148.193 69.6727 143.842 66.7719H143.117C138.766 64.5963 137.315 63.146 136.59 62.4208C135.865 61.6956 135.14 60.9701 135.14 60.2448C135.14 59.5196 135.14 58.795 135.865 58.0698H129.338V65.3218C129.338 68.9479 127.888 71.1237 124.262 71.8489C124.987 71.8489 124.262 71.8489 118.46 71.8489ZM126.437 66.7719C126.437 67.4971 125.712 67.4976 124.987 68.2228C125.712 68.2228 126.437 67.4971 126.437 66.7719ZM111.933 51.5427H141.666V48.6417H111.933V51.5427ZM111.208 29.7865H143.117V29.0615L111.208 29.7865ZM111.208 23.2595H143.117H111.208Z" fill="black"></path><path d="M202.584 21.8093C204.76 21.8093 207.66 21.8095 207.66 24.7104C207.66 27.6112 204.034 31.237 201.859 33.4126H211.286C215.638 33.4126 217.088 34.8634 217.088 39.2147V46.4669C217.088 50.8181 215.638 52.268 211.286 52.268H176.477V63.1463C176.477 66.0471 178.652 66.0473 180.103 66.0473H212.012C215.638 66.0473 216.363 66.0471 217.088 59.5202C217.088 58.0698 217.088 57.3451 218.539 57.3451C218.539 57.3451 220.714 57.3447 220.714 58.7952C220.714 59.5204 219.989 63.1466 219.264 65.3223C217.813 69.6736 214.913 69.6734 211.286 69.6734H178.652C174.301 69.6734 172.125 69.673 172.125 63.8713V39.2147C172.125 34.8634 173.576 33.4126 177.927 33.4126H196.782C198.233 31.9622 203.309 26.8859 203.309 25.4354C203.309 24.7102 202.584 24.7104 201.859 24.7104H184.454C178.652 30.5121 169.225 36.3137 168.499 36.3137C167.774 36.3137 167.049 34.8629 167.049 34.1377C167.049 33.4124 167.774 32.6876 168.499 32.6876C172.125 30.5119 180.103 26.1606 185.904 18.1833C186.629 17.458 186.629 16.7323 188.08 16.7323C188.805 16.7323 189.53 17.458 189.53 18.1833C189.53 18.9085 189.53 18.9081 188.805 19.6333C188.08 20.3586 188.08 21.0841 187.355 21.8093H202.584V21.8093ZM193.156 36.3137H179.377C177.202 36.3137 176.477 37.039 176.477 39.2147V50.0929H193.156V36.3137ZM196.782 36.3137V50.0929H211.286C213.462 50.0929 214.187 49.3675 214.187 47.1919V39.9397C214.187 37.7641 213.462 37.0387 211.286 37.0387H196.782V36.3137Z" fill="black"></path><path d="M212.01 71.1228H179.376C175.75 71.1228 170.673 71.123 170.673 63.1456V38.4879C170.673 37.7627 170.673 37.038 170.673 36.3128C169.223 37.038 168.498 37.0378 167.773 37.0378C165.597 37.0378 164.146 34.8622 164.146 33.4117C164.146 31.236 165.597 30.5107 166.322 30.5107C173.574 26.8845 179.376 22.533 183.002 16.7313C183.727 16.0061 184.452 14.5562 186.628 14.5562C188.803 14.5562 190.254 16.0068 190.254 17.4572C190.254 18.1824 190.254 18.1821 190.254 18.9073H201.857C204.033 18.9073 208.384 18.9069 208.384 23.9835C208.384 26.1592 206.934 28.3348 204.758 31.2357H209.834C214.911 31.2357 217.812 33.4121 217.812 39.2138V46.466C217.812 51.5426 215.636 53.7182 209.834 53.7182H177.2V63.1456C177.2 64.596 177.2 64.5965 179.376 64.5965H211.285C214.186 64.5965 214.186 64.596 214.911 59.5195C214.911 58.069 215.636 55.1683 218.537 55.1683C220.712 55.1683 222.163 56.6188 222.163 58.7944C222.163 59.5197 221.438 63.871 220.712 66.0466C219.987 71.1232 215.636 71.1228 212.01 71.1228ZM175.025 50.8172C175.025 51.5424 175.025 51.5424 175.025 50.8172V50.8172ZM198.231 47.9161H210.56C211.285 47.9161 212.01 47.9165 212.01 46.466V39.2138C212.01 38.4886 212.01 37.7629 210.56 37.7629H198.231V47.9161ZM177.925 47.9161H190.979V37.7629H178.651C177.925 37.7629 177.2 37.7634 177.2 39.2138V47.9161H177.925ZM194.605 34.8618C194.605 34.8618 195.33 34.8618 194.605 34.8618V34.8618ZM198.956 34.1368H200.407C200.407 34.1368 200.407 34.1369 200.407 33.4117V32.6867C199.682 33.4119 198.956 34.1368 198.956 34.1368ZM179.376 31.2357H196.781C198.231 29.7853 200.407 27.6099 201.132 26.1595H185.177C183.727 27.6099 181.551 29.7853 179.376 31.2357ZM204.758 23.2584C205.483 23.9837 205.483 24.7092 205.483 25.4345V26.1595C205.483 25.4343 206.208 24.7094 206.208 24.7094C206.208 23.9842 206.208 23.2584 204.758 23.2584ZM185.903 21.0833C185.903 21.8085 185.177 21.8082 185.177 22.5334H186.628C185.903 21.8082 185.903 21.8085 185.903 21.0833Z" fill="black"></path><path d="M251.891 31.9616C253.341 28.3355 254.066 24.7094 254.066 21.0832C254.066 18.9075 254.066 18.1821 256.242 18.1821C256.967 18.1821 258.418 18.907 258.418 19.6322C258.418 20.3575 257.692 24.7086 256.242 31.2357C256.967 31.2357 257.692 31.2357 259.143 31.2357C271.471 31.2357 272.197 38.488 272.197 45.7402C272.197 63.8709 267.12 66.772 259.868 66.772C254.066 66.772 254.066 65.3221 254.066 64.5969C254.066 63.8717 254.792 63.1459 255.517 63.1459H256.967C258.418 63.1459 259.143 63.1459 259.868 63.1459C264.944 63.1459 268.571 61.6954 268.571 45.0152C268.571 38.4881 267.845 33.4117 259.143 33.4117C257.692 33.4117 256.242 33.4117 255.517 33.4117C251.891 49.3667 247.54 58.0691 243.914 63.8709C243.188 65.3214 242.463 66.047 241.738 66.047C241.738 66.047 239.562 66.0473 239.562 64.5969C239.562 63.8717 239.562 63.8715 241.013 61.6958C245.364 54.4435 248.99 44.29 251.891 34.1368C249.715 34.1368 239.562 36.3128 238.837 36.3128C238.112 36.3128 237.387 35.5871 237.387 34.8618C237.387 33.4114 238.112 33.4117 240.287 33.4117L251.891 31.9616ZM279.449 34.8618C283.8 41.3889 285.25 47.9159 285.25 49.3664C285.25 50.8168 284.525 50.8174 283.075 50.8174C281.624 50.8174 281.624 50.092 281.624 47.9163C280.174 41.3892 276.548 34.8622 271.471 29.7856C269.296 27.6099 269.296 27.6097 269.296 26.8845C269.296 26.1593 270.021 25.4344 270.746 25.4344C272.922 26.1596 277.273 31.9609 279.449 34.8618ZM285.25 28.3355C285.25 29.0607 284.525 29.7856 283.075 29.7856C282.349 29.7856 282.349 29.7856 279.449 26.1595C278.723 25.4342 276.548 23.2587 275.097 21.8083C274.372 21.083 274.372 21.0825 274.372 20.3573C274.372 19.632 275.097 18.9072 275.823 18.9072C278.723 18.9072 285.25 26.885 285.25 28.3355ZM291.777 23.2584C291.777 23.9836 291.052 24.7094 289.602 24.7094C288.876 24.7094 288.876 24.7094 285.976 21.0832C285.25 20.358 283.075 18.1816 281.624 16.7311C280.899 16.0059 280.899 16.0063 280.899 15.281C280.899 14.5558 281.624 13.8309 282.349 13.8309C285.25 13.8309 291.777 22.5331 291.777 23.2584Z" fill="black"></path><path d="M258.416 69.6735C256.24 69.6735 250.438 69.6737 250.438 65.3224C250.438 63.1467 251.889 61.6962 253.339 61.6962C253.339 61.6962 254.79 61.6962 255.515 61.6962C256.24 61.6962 257.69 61.6962 258.416 61.6962C262.042 61.6962 265.668 61.6957 265.668 45.7409C265.668 39.2139 264.942 36.3135 258.416 36.3135C257.69 36.3135 256.965 36.3135 256.24 36.3135C253.339 48.6423 249.713 58.07 244.637 66.0474C243.911 67.4978 243.186 68.9485 241.011 68.9485C239.56 68.9485 237.385 68.2232 237.385 65.3224C237.385 63.8719 237.385 63.8719 238.835 61.6962C242.461 55.1693 246.087 46.4664 248.988 37.0386C247.537 37.0386 245.362 37.7636 243.911 37.7636C238.835 38.4888 238.835 38.4886 238.11 38.4886C235.934 38.4886 235.209 37.0382 235.209 34.8625C235.209 31.9617 237.385 31.2364 240.285 31.2364L251.163 29.7863C251.889 26.8855 252.614 23.9842 252.614 20.3581C252.614 18.9077 253.339 16.007 256.24 16.007C258.416 16.007 259.866 17.4574 259.866 19.6331C259.866 20.3583 259.141 24.71 258.416 29.0613C272.92 29.0613 272.92 39.2139 272.92 45.7409C272.92 63.1462 268.568 69.6735 258.416 69.6735ZM252.614 34.1375C252.614 34.1375 252.614 34.8627 252.614 34.1375C252.614 34.8627 252.614 34.8627 252.614 34.1375C253.339 34.1375 254.064 33.4124 254.79 33.4124C254.79 33.4124 254.79 33.4126 254.79 32.6874C253.339 33.4126 253.339 34.1375 252.614 34.1375ZM256.24 20.3581C255.515 20.3581 255.515 20.3581 256.24 20.3581V20.3581ZM283.072 52.9931C280.172 52.9931 280.172 50.8176 279.446 48.6419C277.996 42.1149 275.095 36.313 270.019 31.2364C267.843 29.0608 267.118 28.3355 267.118 27.6103C267.118 26.1599 268.568 24.7101 270.744 24.7101C274.37 24.7101 279.447 32.6871 280.172 34.1375C284.523 40.6645 285.973 47.9165 285.973 49.367C286.699 51.5426 285.248 52.9931 283.072 52.9931ZM283.072 31.9624C281.622 31.9624 280.897 31.2371 278.721 28.3363L277.996 27.6103C277.271 26.8851 275.095 24.7096 274.37 23.2592C273.645 22.534 272.92 21.8093 272.92 21.084C272.92 19.6336 274.37 17.4579 276.546 17.4579C279.447 17.4579 286.699 26.8858 286.699 28.3363C286.699 29.7867 285.248 31.9624 283.072 31.9624ZM289.599 26.8853C288.149 26.8853 287.424 26.1602 284.523 22.5341C283.798 21.8089 281.622 19.6334 280.897 18.183C280.172 17.4578 280.172 16.7322 280.172 16.007C280.172 13.8313 281.622 12.3809 283.798 12.3809C286.699 12.3809 293.951 21.0835 293.951 23.2592C293.225 25.4348 291.775 26.8853 289.599 26.8853Z" fill="black"></path><path d="M312.811 69.6727C312.811 70.3979 312.811 71.1228 311.361 71.1228C309.91 71.1228 309.91 70.3979 309.91 69.6727V37.7629C308.46 39.9386 307.009 42.1144 305.559 44.2901C304.834 45.0153 304.834 45.0151 304.109 45.0151C303.383 45.0151 302.658 44.2904 302.658 42.84C302.658 42.1148 303.383 41.389 303.383 41.389C308.46 35.5873 312.811 27.6101 315.712 18.9075C315.712 18.1823 316.437 17.4574 317.162 17.4574C317.888 17.4574 319.338 18.1823 319.338 18.9075C319.338 19.6327 317.162 26.885 313.536 32.6868V69.6727H312.811ZM337.468 69.6727C337.468 70.3979 337.468 71.1228 336.018 71.1228C334.567 71.1228 334.567 70.3979 334.567 69.6727V56.6184H325.14C320.788 56.6184 319.338 55.1685 319.338 50.8172V31.9617C319.338 27.6104 320.788 26.1596 325.14 26.1596H334.567V18.9075C334.567 18.1823 334.567 17.4574 336.018 17.4574C337.468 17.4574 337.468 18.1823 337.468 18.9075V26.1596H347.621C351.972 26.1596 353.423 27.6104 353.423 31.9617V50.8172C353.423 55.1685 351.972 56.6184 347.621 56.6184H337.468V69.6727ZM321.514 39.939H333.842V29.0607H324.414C322.239 29.0607 321.514 29.7861 321.514 31.9617V39.939ZM321.514 42.84V50.8172C321.514 52.9929 322.239 53.7183 324.414 53.7183H333.842V42.84H321.514ZM350.522 39.939V31.9617C350.522 29.7861 349.797 29.0607 347.621 29.0607H337.468V39.939H350.522ZM337.468 53.7183H347.621C349.797 53.7183 350.522 52.9929 350.522 50.8172V42.84H337.468V53.7183V53.7183Z" fill="black"></path><path d="M336.014 73.299C334.564 73.299 332.388 72.5738 332.388 69.6729V58.7946H324.411C319.335 58.7946 316.434 56.6191 316.434 50.8173V31.9617C316.434 26.8851 318.609 23.9835 324.411 23.9835H332.388V18.1823C332.388 15.2814 333.839 14.5562 336.014 14.5562C338.19 14.5562 339.64 16.0066 339.64 18.1823V23.9835H348.343C353.419 23.9835 355.595 26.1599 355.595 31.9617V50.8173C355.595 55.8939 353.419 58.7946 348.343 58.7946H339.64V69.6729C338.915 72.5738 336.74 73.299 336.014 73.299ZM335.289 55.1685C335.289 55.1685 335.289 55.8937 335.289 55.1685C336.014 55.1685 336.014 55.1685 336.014 55.1685C336.014 55.1685 336.014 55.1685 335.289 55.1685ZM338.915 52.2674H346.892C347.618 52.2674 348.343 52.2677 348.343 50.8173V44.2901H338.915V52.2674ZM323.686 44.2901V50.8173C323.686 51.5425 323.686 52.2674 325.136 52.2674H332.388V45.0152H323.686V44.2901ZM335.289 41.389C336.014 41.389 336.014 41.389 336.014 41.389C336.014 41.389 336.014 40.6638 335.289 41.389C335.289 41.389 335.289 40.6638 335.289 41.389ZM338.915 37.7629H348.343V31.2357C348.343 29.7853 348.343 29.7857 346.892 29.7857H338.915V37.7629ZM323.686 37.7629H332.388V30.5107H325.136C324.411 30.5107 323.686 30.5112 323.686 31.9617V37.7629ZM335.289 27.6096C336.014 27.6096 336.014 27.6096 336.014 27.6096C336.014 26.8844 336.014 26.8844 335.289 27.6096C335.289 26.8844 335.289 26.8844 335.289 27.6096ZM311.357 72.574C309.182 72.574 307.731 71.1235 307.731 68.9479V42.1141C307.006 42.8393 307.006 43.5651 306.281 43.5651C305.556 44.2903 304.83 45.0152 303.38 45.0152C301.204 45.0152 299.754 42.8395 299.754 41.389C299.754 39.9386 300.479 39.2132 301.204 38.488C306.281 32.6862 310.632 24.7087 313.533 16.7313C314.258 15.2808 314.983 14.5562 316.434 14.5562C317.884 14.5562 320.06 16.0066 320.06 18.1823C320.06 19.6327 317.159 26.8851 314.258 31.9617V68.9479C314.983 72.574 312.082 72.574 311.357 72.574ZM309.907 35.5878C310.632 35.5878 311.357 36.3128 311.357 36.3128V32.6867C310.632 33.4119 309.907 34.1373 309.907 35.5878C309.182 35.5878 309.182 35.5878 309.907 35.5878Z" fill="black"></path><path d="M411.441 47.1908C411.441 61.6951 402.738 68.2223 391.86 68.2223C380.982 68.2223 373.73 60.9697 373.73 51.5419C373.73 46.4654 375.181 37.7626 386.059 26.8843C378.807 27.6095 373.73 27.6094 373.73 27.6094C373.005 27.6094 371.555 27.6097 371.555 26.1593C371.555 24.7088 372.28 24.7092 375.906 24.7092C378.807 24.7092 382.433 24.7085 386.059 23.9833C386.784 23.9833 390.41 23.2582 390.41 23.2582C391.861 23.2582 391.86 23.984 391.86 24.7092C391.86 25.4344 391.861 25.4339 390.41 26.8843C382.433 33.4113 376.631 42.8395 376.631 50.8169C376.631 58.7943 382.433 64.5962 391.135 64.5962C404.189 64.5962 407.09 53.7179 407.09 46.4657C407.09 42.8396 406.365 34.8619 402.738 26.1593C402.738 25.4341 401.288 22.5334 401.288 21.8082C401.288 21.0829 402.013 20.3572 403.464 20.3572C404.189 20.3572 404.189 20.3574 405.639 23.2582C409.265 29.06 415.067 34.1363 420.869 38.4876C421.594 39.2128 421.594 39.2134 421.594 39.9386C421.594 40.6638 420.869 41.3887 420.143 41.3887C419.418 41.3887 418.693 41.3892 417.243 39.2136C413.617 36.3127 410.716 32.6864 407.815 29.0603C409.991 34.1369 411.441 40.6638 411.441 47.1908ZM415.792 22.5332C416.518 23.9836 418.693 26.8841 418.693 27.6094C418.693 28.3346 417.968 29.0603 417.243 29.0603C416.517 29.0603 415.792 29.0603 414.342 25.4342C413.617 24.709 411.441 20.3574 410.716 19.6321V18.9071C410.716 18.9071 410.716 17.457 412.891 17.457C412.166 18.1822 412.891 18.1819 415.792 22.5332ZM423.044 18.9071C423.77 20.3575 425.945 23.2581 425.945 23.9833C425.945 24.7085 425.22 25.4342 423.769 25.4342C423.044 25.4342 423.044 25.4342 420.869 21.8082C420.143 21.0829 417.243 16.7313 417.243 16.0061V15.281C417.243 14.5558 417.968 13.8309 419.418 13.8309C419.418 14.5562 420.869 16.7314 423.044 18.9071Z" fill="black"></path><path d="M392.589 70.3986C380.986 70.3986 372.283 62.4213 372.283 51.543C372.283 44.2908 375.184 37.0386 381.711 29.7864C376.634 30.5116 374.459 30.5114 373.733 30.5114C371.558 30.5114 370.107 29.061 370.107 26.8853C370.107 23.2592 372.283 23.2592 375.909 23.2592C378.81 23.2592 382.436 23.2594 386.062 22.5342C386.787 22.5342 387.512 22.5342 388.238 22.5342C389.688 22.5342 390.413 22.5342 391.138 22.5342C393.314 22.5342 394.764 23.9846 394.764 26.1603C394.764 27.6107 394.039 28.336 392.589 29.7864C384.612 35.5882 379.535 45.0159 379.535 52.2681C379.535 59.5203 384.612 64.5974 392.589 64.5974C404.917 64.5974 407.093 54.4437 407.093 48.642C407.093 45.7411 406.368 37.764 402.742 29.0614V28.3363C401.291 26.1606 401.291 25.4347 401.291 23.9843C401.291 22.5338 402.742 20.3582 404.917 20.3582C406.368 20.3582 407.093 21.0836 408.544 23.2592C412.17 28.3358 416.521 33.4121 423.048 38.4887C423.773 39.2139 424.498 39.9393 424.498 41.3898C424.498 43.5654 423.048 45.0159 420.872 45.0159C419.421 45.0159 418.696 44.2912 416.521 42.8407C415.07 41.3903 413.62 39.9398 412.17 39.2146C412.895 42.1155 412.895 45.0159 412.895 48.642C413.62 63.8716 402.742 70.3986 392.589 70.3986ZM404.917 24.7102C404.917 24.7102 404.917 25.4352 405.643 25.4352C405.643 26.1605 406.368 26.1603 406.368 26.1603C407.093 26.8855 407.093 28.3361 407.818 29.0614C407.818 29.0614 407.818 29.0615 408.544 28.3363C407.093 26.8859 405.643 26.1606 404.917 24.7102ZM387.512 25.4352C387.512 26.1605 388.238 26.1605 387.512 25.4352C388.238 26.1605 388.238 26.8853 388.238 26.8853C388.963 26.1601 388.963 26.1605 389.688 25.4352C389.688 25.4352 390.413 25.4354 390.413 24.7102C389.688 24.7102 388.963 24.7102 388.963 24.7102C388.238 25.4354 388.238 25.4352 387.512 25.4352ZM417.246 31.2365C415.07 31.2365 415.07 30.5114 412.895 26.8853L411.444 24.7102C410.719 23.2598 409.269 21.8093 409.269 21.0841C409.269 21.0841 408.544 20.3585 408.544 18.9081C408.544 17.4576 409.269 15.282 412.17 15.282C413.62 15.282 414.345 16.0075 417.971 21.0841C418.696 21.8093 421.597 25.4347 421.597 27.6104C420.872 29.786 418.696 31.2365 417.246 31.2365ZM423.773 27.6104C421.597 27.6104 421.597 26.8852 419.422 23.9843V23.2592C419.422 22.534 417.971 21.0834 417.246 20.3582C416.521 19.6329 415.796 18.183 415.796 18.183C415.796 18.183 415.07 17.4575 415.07 16.007C415.07 15.2818 415.795 13.8319 416.521 13.8319C417.246 13.1067 417.971 13.106 419.422 13.106C420.872 13.106 422.322 15.2822 424.498 18.183L425.223 18.9081C426.674 21.0837 428.849 23.9848 428.849 25.4352C428.124 26.1605 425.948 27.6104 423.773 27.6104ZM418.696 15.282C418.696 16.0072 418.696 15.282 418.696 15.282V15.282Z" fill="black"></path><path d="M441.899 29.0603C441.174 29.0603 440.449 29.0603 440.449 29.0603C438.998 29.0603 438.998 28.3347 438.998 26.8843C438.998 25.4338 439.723 25.4342 440.449 25.4342C440.449 25.4342 446.25 24.7092 446.975 24.7092L486.137 21.8081H488.312C489.038 21.8081 489.763 21.8076 489.763 23.9832C489.763 25.4337 489.038 25.434 486.137 26.1592C473.808 27.6097 459.304 36.3121 459.304 48.6409C459.304 56.6183 465.106 61.6946 475.259 63.8703C478.885 64.5955 478.885 64.5959 478.885 66.0463C478.885 66.0463 478.885 68.2223 476.709 68.2223C475.259 68.2223 470.182 66.7717 466.556 65.3213C463.655 63.8708 454.953 59.5191 454.953 48.6409C454.953 38.4878 462.205 30.5107 474.533 25.4342L441.899 29.0603Z" fill="black"></path><path d="M475.982 69.6735C473.806 69.6735 468.729 68.2228 465.103 66.7724C454.95 62.421 452.775 54.4436 452.775 48.6418C452.775 40.6643 457.126 34.1378 465.103 28.336L442.622 30.5112C441.897 30.5112 441.172 30.5112 440.446 30.5112C438.271 30.5112 436.82 29.0607 436.82 26.8851C436.82 25.4346 437.545 23.9842 438.996 23.2589C439.721 23.2589 446.248 22.5339 446.248 22.5339L484.684 19.6328H486.86C489.76 19.6328 490.486 21.8085 490.486 23.2589C490.486 26.1598 488.31 26.8851 484.684 26.8851C472.356 28.3355 460.027 37.0385 460.027 47.1917C460.027 54.4439 464.378 58.7954 474.531 60.9711C478.157 61.6963 479.608 62.4216 479.608 64.5972C479.608 67.4981 478.157 69.6735 475.982 69.6735ZM469.455 64.5972C471.63 65.3225 473.806 66.0473 475.256 66.0473C474.531 66.0473 474.531 66.0473 473.806 66.0473C471.63 65.3221 470.18 64.5972 469.455 64.5972ZM440.446 27.6101C440.446 27.6101 441.171 27.6101 441.897 27.6101H445.523C444.072 26.8849 441.172 26.8849 440.446 27.6101ZM475.982 24.7099C475.982 24.7099 475.982 25.4351 475.982 24.7099C475.982 25.4351 475.982 25.4348 475.982 26.16C478.882 25.4348 481.058 24.7092 483.959 23.984L475.982 24.7099ZM486.86 23.984C486.134 23.984 486.86 23.984 486.86 23.984V23.984Z" fill="black"></path><path d="M529.646 42.8405H515.867C511.516 42.8405 510.065 41.3897 510.065 37.0383V23.2588C510.065 22.5336 510.065 21.8087 511.516 21.8087C512.966 21.8087 512.966 22.5336 512.966 23.2588V37.0383C512.966 39.214 514.417 39.9394 515.867 39.9394H529.646V18.9076C529.646 18.1824 529.646 17.4575 531.096 17.4575C532.547 17.4575 532.547 18.1824 532.547 18.9076V39.9394H546.326C548.502 39.9394 549.227 39.214 549.227 37.0383V23.2588C549.227 22.5336 549.227 21.8087 550.677 21.8087C552.127 21.8087 552.127 22.5336 552.127 23.2588V37.0383C552.127 41.3897 550.677 42.8405 546.326 42.8405H532.547V66.7724H548.501C550.677 66.7724 551.402 66.047 551.402 63.8713V51.5428C551.402 50.8176 551.402 50.0927 552.853 50.0927C554.303 50.0927 554.303 50.8176 554.303 51.5428V63.8713C554.303 68.2227 552.853 69.6735 548.501 69.6735H512.241C507.89 69.6735 506.439 68.2227 506.439 63.8713V51.5428C506.439 50.8176 506.439 50.0927 507.89 50.0927C509.34 50.0927 509.34 50.8176 509.34 51.5428V63.8713C509.34 66.047 510.791 66.7724 512.241 66.7724H528.196V42.8405H529.646Z" fill="black"></path><path d="M549.23 71.1229H512.97C507.893 71.1229 504.992 68.9475 504.992 63.1457V50.8173C504.992 47.9164 506.443 47.1912 508.618 47.1912C510.794 47.1912 512.244 48.6417 512.244 50.8173V63.1457C512.244 63.8709 512.244 64.5967 513.695 64.5967H528.199V44.2902H515.87C510.794 44.2902 508.618 42.1147 508.618 36.3129V22.5336C508.618 19.6327 510.069 18.9075 512.244 18.9075C514.42 18.9075 515.87 20.3579 515.87 22.5336V36.3129C515.87 37.0381 515.87 37.763 517.321 37.763H528.924V18.9075C528.924 16.0066 530.374 15.2814 532.55 15.2814C534.726 15.2814 536.176 16.7318 536.176 18.9075V37.763H547.779C549.23 37.763 549.23 37.7634 549.23 36.3129V22.5336C549.23 19.6327 550.68 18.9075 552.856 18.9075C555.031 18.9075 556.482 20.3579 556.482 22.5336V36.3129C556.482 41.3895 554.306 44.2902 548.505 44.2902H536.176V64.5967H550.68C551.405 64.5967 552.131 64.5961 552.131 63.1457V50.8173C552.131 47.9164 553.581 47.1912 555.757 47.1912C557.932 47.1912 559.383 48.6417 559.383 50.8173V63.1457C556.482 68.9475 554.306 71.1229 549.23 71.1229ZM530.374 41.3891C530.374 41.3891 531.1 41.3891 530.374 41.3891C531.1 42.1143 531.1 41.3891 531.1 41.3891C531.1 41.3891 531.1 40.6639 530.374 41.3891C530.374 41.3891 531.1 40.6639 530.374 41.3891Z" fill="black"></path><path d="M578.967 41.3894H573.165C572.44 41.3894 571.715 41.3898 571.715 39.9393C571.715 38.4889 573.165 38.4884 573.165 38.4884H578.967V23.2588H573.165C572.44 23.2588 571.715 23.2592 571.715 21.8087C571.715 20.3583 573.165 20.3577 573.165 20.3577H588.395C589.12 20.3577 589.845 20.3583 589.845 21.8087C589.845 23.2592 588.395 23.2588 588.395 23.2588H581.868V38.4884H586.944C587.669 38.4884 588.395 38.4889 588.395 39.9393C588.395 41.3898 586.944 41.3894 586.944 41.3894H581.868V57.3449C584.043 56.6197 586.219 55.8939 586.944 55.8939C588.394 55.1687 589.12 55.1689 589.12 55.1689C589.845 55.1689 590.57 55.8938 590.57 56.619C590.57 58.0694 590.57 58.0696 586.219 59.5201C580.417 60.9705 573.165 62.4211 573.165 62.4211C572.44 62.4211 571.715 61.6963 571.715 60.9711C571.715 59.5206 572.44 59.5201 573.165 59.5201C574.616 58.7948 577.516 58.7952 579.692 58.07V41.3894H578.967ZM597.097 51.5428C593.471 51.5428 592.746 50.0927 592.746 46.4665V23.9839C592.746 20.3577 594.196 19.6327 597.097 19.6327H618.128C621.754 19.6327 623.205 21.083 623.205 23.9839V46.4665C623.205 50.0927 621.754 51.5428 618.128 51.5428H613.052V65.3222C613.052 67.4979 614.502 67.4974 615.952 67.4974C620.304 67.4974 621.029 67.4975 621.029 66.7723C621.029 66.0471 621.029 65.3224 621.754 60.9711C621.754 59.5206 621.754 58.795 623.205 58.795C623.93 58.795 624.655 59.5199 624.655 60.2451C624.655 61.6956 623.93 67.4979 623.205 68.9483C622.479 70.3988 621.754 70.3984 614.502 70.3984C611.601 70.3984 609.426 69.6736 609.426 65.3222V51.5428H602.899C602.174 57.3446 599.998 63.872 591.295 68.2233C588.395 69.6738 585.494 70.3984 584.769 70.3984C584.043 70.3984 583.318 69.6738 583.318 68.2233C583.318 67.4981 584.043 66.7723 584.769 66.7723C592.746 64.5966 598.548 60.9709 599.998 50.8177H597.097V51.5428ZM595.647 29.061H619.579V24.7098C619.579 23.2593 618.853 22.5338 617.403 22.5338H597.822C596.372 22.5338 595.647 23.2593 595.647 24.7098V29.061ZM619.579 31.2361H595.647V37.7633H619.579V31.2361ZM595.647 40.6644V45.7406C595.647 47.1911 596.372 47.9166 597.822 47.9166H617.403C618.853 47.9166 619.579 47.1911 619.579 45.7406V40.6644H595.647Z" fill="black"></path><path d="M584.767 72.5739C582.591 72.5739 581.14 71.1235 581.14 68.9479C581.14 67.4974 581.866 66.772 584.041 66.0468C591.293 63.8712 596.37 60.9706 597.82 53.7185H597.095C592.744 53.7185 590.568 51.5426 590.568 47.1913V41.3892C590.568 42.8397 589.118 43.5652 586.942 43.5652H583.316V55.8936C584.766 55.8936 585.492 55.1685 586.217 55.1685H586.942C588.392 54.4433 589.118 54.4435 589.118 54.4435C590.568 54.4435 592.019 55.8939 592.019 58.0696C592.019 60.9705 590.568 60.9703 586.217 62.4207C581.141 63.8712 573.163 65.3218 572.438 65.3218C570.987 65.3218 569.537 63.8713 569.537 61.6957C569.537 59.52 571.713 58.7946 571.713 58.7946C573.163 58.0694 575.339 58.0698 576.789 57.3446V43.5652H573.163C570.262 43.5652 569.537 42.1148 569.537 39.9391C569.537 38.4887 570.262 37.0381 573.163 37.0381H576.789V25.4348H573.163C570.262 25.4348 569.537 23.9842 569.537 22.5337C569.537 21.0833 570.262 19.6327 573.163 19.6327H588.393C589.843 19.6327 590.568 20.3584 591.293 21.0837C592.019 19.6332 594.194 18.1826 597.095 18.1826H618.126C622.477 18.1826 624.653 20.3584 624.653 24.7098V47.1913C624.653 51.5426 622.477 53.7185 618.126 53.7185H615.225V65.3218C615.225 66.047 615.95 66.0468 615.95 66.0468C617.401 66.0468 618.851 66.0468 619.576 66.0468C619.576 65.3216 619.576 64.5962 619.576 63.1458V61.6957C619.576 60.2452 619.576 57.3446 623.202 57.3446C625.378 57.3446 626.828 58.795 626.828 60.9706C626.828 61.6959 626.829 68.2223 624.653 70.3979C623.203 72.5736 621.752 72.5739 614.5 72.5739C611.599 72.5739 607.973 71.8486 607.973 66.0468V53.7185H605.072C603.622 59.5202 601.446 66.0466 592.744 70.3979C589.843 71.1232 586.217 72.5739 584.767 72.5739ZM618.851 65.3218C618.851 66.047 618.851 66.047 618.851 65.3218C618.851 66.047 618.851 66.047 618.851 65.3218ZM580.415 58.7946C580.415 58.7946 581.14 58.7946 580.415 58.7946C581.14 58.7946 581.14 58.7946 580.415 58.7946C580.415 58.7946 581.14 58.7946 580.415 58.7946ZM601.446 50.0924C601.446 50.0924 602.171 50.0924 601.446 50.0924C602.171 50.0924 602.171 50.0924 601.446 50.0924ZM597.095 46.4663C597.095 46.4663 597.82 46.4663 597.095 46.4663H616.676L617.401 45.7404V42.1143H597.095V46.4663ZM579.69 39.9391C580.415 39.9391 580.415 39.9391 579.69 39.9391C580.415 39.9391 580.415 39.9391 580.415 39.9391C580.415 39.2139 580.415 39.2139 579.69 39.9391C580.415 39.2139 580.415 39.2139 579.69 39.9391ZM620.302 39.9391C621.027 39.9391 621.027 39.9391 620.302 39.9391C621.027 39.2139 621.027 39.2139 620.302 39.9391ZM594.194 39.2141C594.194 39.9393 594.194 39.9393 594.194 39.2141C594.194 39.9393 594.194 39.2141 594.194 39.2141ZM584.041 36.3131H587.667C589.843 36.3131 590.568 37.763 591.293 38.4882V23.9838C590.568 23.9838 589.843 24.7098 589.118 24.7098H584.767V36.3131H584.041ZM597.095 36.3131H617.401V33.412H597.095V36.3131ZM597.095 26.8849H617.401V23.9838L616.676 23.2588H597.095L596.37 23.9838V26.8849H597.095Z" fill="black"></path><path d="M643.316 0.513672H0.316406V42.5137H643.316V0.513672Z" fill="#040000"></path></svg> 