<?xml version="1.0" encoding="UTF-8"?> <svg xmlns="http://www.w3.org/2000/svg" width="602" height="374" viewBox="0 0 602 374" fill="none"><path d="M21.0331 325.942H4.35337C3.62817 325.942 2.90293 325.942 2.90293 324.492C2.90293 323.041 4.35337 323.041 4.35337 323.041H21.0331V319.415C21.0331 318.69 21.0331 317.965 22.4835 317.965C23.9339 317.965 23.9339 319.415 23.9339 319.415V336.095C23.9339 336.82 23.9339 338.271 22.4835 338.271C21.0331 338.271 21.0331 336.82 21.0331 336.82V333.92C16.6818 334.645 4.35333 336.82 3.62812 336.82C2.90292 336.82 2.17773 336.095 2.17773 335.37C2.17773 333.919 2.90292 333.92 3.62812 333.92C10.155 333.194 15.2314 332.469 20.3079 331.019V325.942H21.0331ZM13.0558 359.302V369.454C13.0558 370.179 13.0558 370.905 11.6054 370.905C10.155 370.905 10.155 370.179 10.155 369.454V346.248C10.155 341.896 11.6054 340.446 15.9567 340.446H43.5145C47.8657 340.446 49.3161 341.896 49.3161 346.248V364.378C49.3161 370.179 46.4153 370.18 42.0641 370.18H36.9876C36.2624 370.18 35.5372 370.179 35.5372 368.729C35.5372 367.278 36.9876 367.279 36.9876 367.279C37.7128 367.279 42.7892 367.279 43.5145 367.279C44.9649 367.279 46.4153 367.279 46.4153 364.378V359.302H13.0558V359.302ZM44.9649 349.149V346.973C44.9649 344.797 44.2397 344.072 42.0641 344.072H15.9567C13.781 344.072 13.0558 344.797 13.0558 346.973V349.149H44.9649ZM13.0558 351.324V356.401H45.6901V351.324H13.0558ZM35.5372 331.744C35.5372 333.919 36.9876 333.92 38.438 333.92C49.3161 333.92 50.0413 333.92 50.7665 333.92C51.4917 333.92 52.217 333.194 52.217 330.294C52.217 329.568 52.2169 328.118 53.6673 328.118C54.3926 328.118 55.843 328.842 55.843 329.568C55.843 331.018 55.1177 334.644 54.3925 335.37C53.6673 336.095 52.217 336.095 47.8657 336.095C46.4153 336.095 39.8884 336.095 38.438 336.095C35.5372 336.095 33.3616 335.37 33.3616 331.019V318.69C33.3616 317.964 33.3616 317.24 34.812 317.24C36.2624 317.24 36.2624 318.69 36.2624 318.69V323.041C39.1632 322.316 44.2397 321.591 50.0413 319.415C51.4917 318.69 52.2169 318.69 52.9422 318.69C53.6674 318.69 54.3925 319.415 54.3925 320.14C54.3925 320.866 53.6673 321.591 50.0413 323.041C44.2397 325.217 39.8884 325.942 36.2624 325.942V331.744H35.5372Z" fill="black"></path><path d="M10.8781 373.08C10.1529 373.08 7.25203 373.08 7.25203 369.454V346.248C7.25203 341.172 9.42765 338.271 14.5041 338.271H19.5806C18.8554 337.546 18.8554 336.821 18.8554 335.37V334.645C13.7789 335.37 4.35121 337.546 3.626 337.546C1.45038 337.546 0 336.096 0 333.92C0 332.47 0.725178 331.019 3.626 330.294H5.80164C10.8781 329.569 15.2293 328.843 18.8554 328.118V325.942H4.35125C2.17563 325.942 0.725195 324.492 0.725195 323.042C0.725195 321.592 1.45043 319.416 4.35125 319.416H18.8554V317.965C18.8554 315.064 20.3058 314.339 22.4814 314.339C23.9318 314.339 26.1074 315.064 26.1074 317.965V334.645C26.1074 336.096 25.3822 336.821 25.3822 337.546H42.7871C47.8636 337.546 50.0392 339.722 50.0392 345.523V363.653C50.0392 370.905 44.9628 370.905 40.6115 370.905H35.5351C33.3594 370.905 31.909 369.455 31.909 367.279C31.909 365.829 32.6342 363.653 35.5351 363.653C36.2603 363.653 37.7107 363.653 39.1611 363.653C40.6115 363.653 41.3367 363.653 42.0619 363.653C43.5123 363.653 43.5123 363.653 43.5123 362.202V358.576H14.5041V367.279C14.5041 372.356 13.0537 373.08 10.8781 373.08ZM46.4131 367.279C46.4131 368.004 45.688 368.729 44.9628 369.454C45.688 368.729 46.4131 368.004 46.4131 367.279ZM46.4131 358.576C46.4131 357.851 46.4131 357.851 46.4131 358.576V358.576ZM11.6033 357.851C11.6033 358.576 11.6033 358.576 11.6033 357.851V357.851ZM14.5041 354.95H43.5123V353.5H14.5041V354.95ZM46.4131 349.874C46.4131 350.599 46.4131 350.599 46.4131 349.874V349.874ZM11.6033 349.874C11.6033 350.599 11.6033 350.599 11.6033 349.874V349.874ZM14.5041 346.973H43.5123C43.5123 345.523 43.5123 345.523 42.0619 345.523H15.9545C14.5041 345.523 14.5041 345.523 14.5041 346.973ZM22.4814 324.492C22.4814 323.767 22.4814 324.492 22.4814 324.492V324.492ZM37.7107 338.996C35.5351 338.996 30.4586 338.996 30.4586 332.469V320.141C30.4586 317.24 31.9091 316.515 34.0847 316.515C35.5351 316.515 37.7107 317.24 37.7107 320.141V322.316C42.0619 321.591 45.688 320.866 48.5888 319.416C50.7644 318.691 51.4896 317.965 52.2148 317.965C53.6652 317.965 55.8408 319.416 55.8408 321.591C55.8408 323.767 53.6652 325.217 50.7644 325.942C45.6879 327.393 42.0619 328.118 38.4359 328.843V332.469V333.194H39.1611C47.1383 333.194 50.0392 333.194 50.7644 333.194C50.7644 333.194 50.7644 332.47 50.7644 331.019C50.7644 328.118 52.94 327.393 54.3904 327.393C56.566 327.393 58.0164 328.844 58.0164 331.019C58.0164 331.019 58.0165 336.821 55.8408 338.271C54.3904 339.722 52.94 339.721 47.8636 339.721L37.7107 338.996ZM34.0847 325.217C34.0847 325.217 34.8099 325.217 34.0847 325.217C34.8099 325.217 34.8099 325.217 34.0847 325.217C34.0847 325.217 34.8099 325.217 34.0847 325.217Z" fill="black"></path><path d="M97.9119 338.995H121.844C122.569 338.995 123.294 338.995 123.294 340.445C123.294 341.896 121.844 341.896 121.844 341.896H71.0793C70.3541 341.896 69.6289 341.896 69.6289 340.445C69.6289 338.995 71.0793 338.995 71.0793 338.995H95.0111V335.369H80.507C76.881 335.369 76.1557 333.919 76.1557 331.018V324.491C76.1557 320.865 77.6062 320.14 80.507 320.14H112.416C116.042 320.14 117.492 321.59 117.492 324.491V331.018C117.492 334.644 116.042 335.369 112.416 335.369H97.9119V338.995ZM71.8045 369.454C71.0793 369.454 70.3541 368.729 70.3541 368.004C70.3541 367.279 70.3541 367.278 73.2549 365.828C76.881 364.377 79.7817 362.202 82.6826 360.027C83.4078 359.302 83.4078 359.302 84.133 359.302C84.8582 359.302 85.5834 360.027 85.5834 360.752C84.8582 362.927 73.2549 369.454 71.8045 369.454ZM97.9119 366.554C97.9119 368.004 97.9119 370.905 95.0111 370.905C94.2859 370.905 93.5607 370.905 87.759 370.905C87.0338 370.905 85.5834 370.905 85.5834 368.729C85.5834 367.278 87.0338 367.279 87.0338 367.279C87.0338 367.279 92.1102 367.279 92.8355 367.279C94.2859 367.279 95.0111 366.553 95.0111 365.103V356.401H81.2322C77.6062 356.401 76.1557 354.95 76.1557 352.05V349.874C76.1557 346.248 77.6062 345.522 81.2322 345.522H111.691C115.317 345.522 116.042 346.973 116.042 349.874V352.05C116.042 355.676 114.592 356.401 111.691 356.401H97.9119V366.554V366.554ZM78.3313 325.941H113.866V323.766C113.866 323.041 113.141 322.315 112.416 322.315H79.7817C79.0565 322.315 78.3313 323.041 78.3313 323.766V325.941ZM78.3313 328.842V331.743C78.3313 332.468 79.0565 333.193 79.7817 333.193H112.416C113.141 333.193 113.866 332.468 113.866 331.743V328.842H78.3313ZM81.2322 348.423C80.507 348.423 79.7817 349.148 79.7817 349.874V352.775C79.7817 353.5 80.507 354.225 81.2322 354.225H111.691C112.416 354.225 113.141 353.5 113.141 352.775V349.874C113.141 349.148 112.416 348.423 111.691 348.423H81.2322ZM108.79 359.302C109.515 359.302 109.515 359.301 110.966 360.752C115.317 364.378 120.393 366.554 121.844 366.554C122.569 366.554 122.569 367.279 122.569 368.004C122.569 368.729 121.844 369.454 121.118 369.454C119.668 369.454 116.042 367.278 114.592 365.828C110.966 363.652 108.79 362.202 108.065 361.477C107.34 360.752 107.34 360.752 107.34 360.027C107.34 360.027 108.065 359.302 108.79 359.302Z" fill="black"></path><path d="M87.755 372.355C84.129 372.355 83.4037 370.18 83.4037 368.729C83.4037 368.004 83.4037 365.103 87.0298 365.103C87.0298 365.103 89.9306 365.103 91.3811 365.103H92.1063H92.8315V357.851H86.3046C87.0298 358.576 87.0298 359.302 87.0298 360.027C86.3046 363.653 73.9761 370.18 71.8004 370.18C69.6248 370.18 68.1744 368.73 68.1744 366.554C68.1744 364.378 69.6248 363.653 71.8004 362.928C75.4265 361.478 77.6021 360.027 80.503 357.851C76.1517 357.851 74.7013 355.675 74.7013 351.324V349.149C74.7013 345.523 76.1517 343.347 79.7777 342.622H71.0753C67.4492 342.622 67.4492 339.721 67.4492 339.721C67.4492 338.27 68.1744 336.82 71.0753 336.82H92.8315H80.503C76.1517 336.82 73.9761 334.645 73.9761 330.294V323.767C73.9761 319.415 76.1517 317.24 80.503 317.24H112.412C116.763 317.24 118.939 319.415 118.939 323.767V330.294C118.939 334.645 116.763 336.82 112.412 336.82H99.3583H121.84C125.466 336.82 125.466 339.721 125.466 339.721C125.466 341.171 124.741 342.622 121.84 342.622H113.137C116.763 343.347 118.214 344.798 118.214 349.149V351.324C118.214 355.675 116.038 357.851 111.687 357.851H110.962L111.687 358.576C116.038 362.202 120.389 363.653 121.84 364.378C122.565 364.378 124.015 365.103 124.015 367.279C124.015 369.455 122.565 370.905 120.389 370.905C118.939 370.905 117.488 370.18 113.137 367.279H112.412C108.061 365.103 106.61 363.653 105.885 362.928C105.16 362.203 104.435 361.477 104.435 360.752C104.435 360.027 104.435 359.301 105.16 358.576H98.6331V365.828C98.6331 369.454 97.1827 371.63 93.5566 372.355C94.2819 372.355 93.5567 372.355 87.755 372.355ZM95.7323 367.279C95.7323 368.004 95.007 368.004 94.2818 368.729C95.007 368.729 95.7323 368.73 95.7323 367.279ZM81.2282 352.775H110.962V349.874H81.2282V352.775ZM80.503 331.019H112.412V330.294L80.503 331.019ZM80.503 324.492H112.412H80.503Z" fill="black"></path><path d="M171.876 322.316C174.052 322.316 176.953 322.316 176.953 325.217C176.953 328.117 173.327 331.744 171.151 333.92H180.579C184.93 333.92 186.38 335.369 186.38 339.721V346.973C186.38 351.324 184.93 352.775 180.579 352.775H145.769V363.653C145.769 366.554 147.945 366.554 149.395 366.554H181.304C184.93 366.554 185.655 366.554 186.38 360.027C186.38 358.576 186.38 357.851 187.831 357.851C187.831 357.851 190.006 357.851 190.006 359.302C190.006 360.027 189.281 363.652 188.556 365.828C187.106 370.179 184.205 370.18 180.579 370.18H147.945C143.593 370.18 141.418 370.179 141.418 364.378V339.721C141.418 335.369 142.868 333.92 147.219 333.92H166.075C167.525 332.469 172.602 327.392 172.602 325.942C172.602 325.216 171.876 325.217 171.151 325.217H154.471C148.67 331.018 139.242 336.82 138.517 336.82C137.792 336.82 137.066 335.37 137.066 334.645C137.066 333.919 137.792 333.194 138.517 333.194C142.143 331.018 150.12 326.667 155.922 318.69C156.647 317.964 156.647 317.24 158.097 317.24C158.823 317.24 159.548 317.964 159.548 318.69C159.548 319.415 159.548 319.415 158.823 320.14C158.097 320.866 158.097 321.59 157.372 322.316H171.876V322.316ZM162.449 336.82H148.67C146.494 336.82 145.769 337.545 145.769 339.721V350.599H162.449V336.82V336.82ZM166.075 336.82V350.599H180.579C182.754 350.599 183.48 349.873 183.48 347.698V340.446C183.48 338.27 182.754 337.546 180.579 337.546H166.075V336.82Z" fill="black"></path><path d="M181.305 372.355H148.671C145.045 372.355 139.968 372.355 139.968 364.378V339.721C139.968 338.995 139.968 338.271 139.968 337.546C138.518 338.271 137.793 338.271 137.067 338.271C134.892 338.271 133.441 336.095 133.441 334.645C133.441 332.469 134.892 331.744 135.617 331.744C142.869 328.118 148.671 323.766 152.297 317.964C153.022 317.239 153.747 315.789 155.923 315.789C158.098 315.789 159.549 317.239 159.549 318.689C159.549 319.415 159.549 319.415 159.549 320.14H171.152C173.328 320.14 177.679 320.14 177.679 325.217C177.679 327.392 176.229 329.568 174.053 332.469H179.129C184.206 332.469 187.107 334.644 187.107 340.446V347.698C187.107 352.774 184.931 354.95 179.129 354.95H147.22V364.378C147.22 365.828 147.22 365.828 149.396 365.828H181.305C184.206 365.828 184.206 365.828 184.931 360.752C184.931 359.302 185.656 356.401 188.557 356.401C190.733 356.401 192.183 357.851 192.183 360.027C192.183 360.752 191.458 365.103 190.733 367.279C189.282 372.355 184.931 372.355 181.305 372.355ZM167.526 349.149H179.855C180.58 349.149 181.305 349.148 181.305 347.698V340.446C181.305 339.721 181.305 338.996 179.855 338.996H167.526V349.149ZM147.22 349.149H160.274V338.996H147.946C147.22 338.996 146.495 338.995 146.495 340.446V349.149H147.22ZM168.251 335.37H169.702C169.702 335.37 169.702 335.37 169.702 334.645V333.92C168.977 334.645 168.251 334.644 168.251 335.37ZM148.671 332.469H166.076C167.526 331.018 169.702 328.843 170.427 327.392H154.472C153.022 328.843 150.846 331.018 148.671 332.469ZM174.053 324.491C174.778 325.217 174.778 325.942 174.778 326.667V327.392C174.778 326.667 175.503 325.942 175.503 325.942C175.503 324.491 175.503 324.491 174.053 324.491ZM155.198 322.315C155.198 323.041 154.472 323.041 154.472 323.766H155.923C155.198 323.041 155.198 322.315 155.198 322.315Z" fill="black"></path><path d="M221.19 333.193C222.64 329.567 223.365 325.941 223.365 322.315C223.365 320.139 223.365 319.415 225.541 319.415C226.266 319.415 227.717 320.14 227.717 320.865C227.717 321.59 226.991 325.941 225.541 332.468C226.266 332.468 226.991 332.468 228.442 332.468C240.77 332.468 241.495 339.721 241.495 346.973C241.495 365.103 236.419 368.005 229.167 368.005C223.365 368.005 223.365 366.554 223.365 365.829C223.365 365.103 224.09 364.378 224.816 364.378H226.266C227.717 364.378 228.442 364.378 229.167 364.378C234.243 364.378 237.869 362.928 237.869 346.248C237.869 339.721 237.144 334.644 228.442 334.644C226.991 334.644 225.541 334.644 224.816 334.644C221.19 350.599 216.838 359.302 213.212 365.103C212.487 366.554 211.762 367.28 211.037 367.28C211.037 367.28 208.861 367.279 208.861 365.829C208.861 365.103 208.861 365.104 210.312 362.928C214.663 355.676 218.289 345.523 221.19 335.369C219.014 335.369 208.861 337.545 208.136 337.545C207.411 337.545 206.686 336.82 206.686 336.094C206.686 334.644 207.411 334.644 209.586 334.644L221.19 333.193ZM248.748 336.094C253.099 342.621 254.549 349.148 254.549 350.599C254.549 352.049 253.824 352.05 252.374 352.05C250.923 352.05 250.923 351.325 250.923 349.149C249.473 342.622 245.847 336.095 240.77 331.018C238.595 328.842 238.595 328.842 238.595 328.117C238.595 327.392 239.32 326.667 240.045 326.667C242.221 327.392 246.572 333.193 248.748 336.094ZM253.824 328.842C253.824 329.567 253.099 330.293 251.648 330.293C250.923 330.293 250.923 330.293 248.022 326.667C247.297 325.942 245.122 323.765 243.671 322.315C242.946 321.59 242.946 321.59 242.946 320.865C242.946 320.14 243.671 319.415 244.396 319.415C248.022 320.14 253.824 328.117 253.824 328.842ZM261.076 324.491C261.076 325.216 260.351 325.941 258.9 325.941C258.175 325.941 258.175 325.941 255.274 322.315C254.549 321.59 252.374 319.414 250.923 317.964C250.198 317.238 250.198 317.239 250.198 316.514C250.198 315.788 250.923 315.063 251.648 315.063C254.549 315.063 261.076 323.04 261.076 324.491Z" fill="black"></path><path d="M227.72 370.18C225.544 370.18 219.742 370.179 219.742 365.828C219.742 363.652 221.193 362.202 222.643 362.202C223.368 362.202 224.094 362.202 224.819 362.202C225.544 362.202 226.994 362.202 227.72 362.202C231.346 362.202 234.972 362.202 234.972 346.247C234.972 339.72 234.247 336.819 227.72 336.819C226.994 336.819 226.269 336.819 225.544 336.819C222.643 349.148 219.017 358.576 213.941 366.554C213.216 368.004 212.49 369.454 210.315 369.454C208.864 369.454 206.689 368.729 206.689 365.828C206.689 364.377 206.689 364.377 208.139 362.202C211.765 355.675 215.391 346.973 218.292 337.545C216.842 337.545 214.666 338.27 213.216 338.27C208.139 338.995 208.139 338.995 208.139 338.995C205.963 338.995 205.238 337.545 205.238 335.369C205.238 332.468 207.414 332.468 210.315 331.743L221.193 330.293C221.918 327.392 222.643 324.491 222.643 320.865C222.643 319.414 223.368 316.513 226.269 316.513C228.445 316.513 229.895 317.964 229.895 320.139C229.895 320.865 229.17 325.215 228.445 329.567C242.949 329.567 242.949 339.72 242.949 346.247C242.224 364.378 237.873 370.18 227.72 370.18ZM221.918 334.644C221.918 334.644 221.918 335.369 221.918 334.644C221.918 335.369 221.918 335.369 221.918 334.644C221.918 335.369 221.918 335.369 221.918 334.644C222.643 334.644 223.368 333.919 224.094 333.919C224.094 333.919 224.094 333.918 224.094 333.193C222.643 333.918 221.918 334.644 221.918 334.644ZM252.377 354.224C249.476 354.224 249.476 352.049 248.751 349.873C247.3 343.346 244.399 337.544 239.323 332.468C237.147 330.292 236.422 329.567 236.422 328.842C236.422 327.391 237.873 325.941 240.048 325.941C243.674 325.941 248.751 333.918 249.476 335.369C253.827 341.896 255.278 349.148 255.278 350.598C256.003 352.774 254.552 354.224 252.377 354.224ZM252.377 332.468C250.926 332.468 250.201 331.743 248.025 328.842L247.3 328.117C246.575 327.391 244.399 325.216 243.674 323.766C242.949 323.04 242.224 322.315 242.224 321.59C242.224 320.139 243.674 317.963 245.85 317.963C248.751 317.963 256.003 327.391 256.003 328.842C256.003 331.017 254.552 332.468 252.377 332.468ZM258.904 328.117C257.453 328.117 256.728 327.392 253.827 323.766C253.102 323.04 250.926 320.865 250.201 319.414C249.476 318.689 249.476 317.964 249.476 317.238C249.476 315.063 250.926 313.612 253.102 313.612C256.003 313.612 263.255 322.315 263.255 324.491C262.53 325.941 261.079 328.117 258.904 328.117Z" fill="black"></path><path d="M282.106 370.18C282.106 370.905 282.106 371.63 280.656 371.63C279.205 371.63 279.205 370.905 279.205 370.18V338.271C277.755 340.447 276.304 342.622 274.854 344.798C274.129 345.523 274.129 345.523 273.404 345.523C272.678 345.523 271.953 344.797 271.953 343.347C271.953 342.622 272.678 341.897 272.678 341.897C277.755 336.095 282.106 328.118 285.007 319.416C285.007 318.691 285.732 317.965 286.457 317.965C287.182 317.965 288.633 318.691 288.633 319.416C288.633 320.141 286.457 327.392 282.831 333.194V370.18H282.106ZM306.763 370.18C306.763 370.905 306.763 371.63 305.313 371.63C303.862 371.63 303.862 370.905 303.862 370.18V357.126H294.435C290.083 357.126 288.633 355.675 288.633 351.324V332.469C288.633 328.118 290.083 326.668 294.435 326.668H303.862V319.416C303.862 318.691 303.862 317.965 305.313 317.965C306.763 317.965 306.763 318.691 306.763 319.416V326.668H316.916C321.267 326.668 322.718 328.118 322.718 332.469V351.324C322.718 355.675 321.267 357.126 316.916 357.126H306.763V370.18ZM290.809 340.446H303.137V329.568H293.709C291.534 329.568 290.809 330.293 290.809 332.469V340.446ZM290.809 343.347V351.324C290.809 353.5 291.534 354.225 293.709 354.225H303.137V343.347H290.809ZM319.817 340.446V332.469C319.817 330.293 319.092 329.568 316.916 329.568H306.763V340.446H319.817ZM306.763 354.95H316.916C319.092 354.95 319.817 354.226 319.817 352.05V344.072H306.763V354.95Z" fill="black"></path><path d="M305.309 373.807C303.859 373.807 301.683 373.082 301.683 370.181V359.302H293.706C288.629 359.302 285.729 357.126 285.729 351.324V332.468C285.729 327.392 287.904 324.491 293.706 324.491H301.683V318.689C301.683 315.788 303.133 315.062 305.309 315.062C307.485 315.062 308.935 316.513 308.935 318.689V324.491H317.638C322.714 324.491 324.89 326.666 324.89 332.468V351.324C324.89 356.401 322.714 359.302 317.638 359.302H308.935V370.181C308.21 373.807 306.034 373.807 305.309 373.807ZM304.584 356.401C305.309 356.401 305.309 356.401 305.309 356.401C305.309 355.676 305.309 355.676 304.584 356.401C304.584 355.676 304.584 355.676 304.584 356.401ZM308.21 352.775H316.187C316.912 352.775 317.638 352.775 317.638 351.324V344.798H308.21V352.775ZM292.981 345.523V352.05C292.981 352.775 292.981 353.5 294.431 353.5H301.683V346.248H292.981V345.523ZM304.584 341.897C304.584 341.897 304.584 342.622 304.584 341.897C305.309 341.897 305.309 341.897 305.309 341.897C305.309 341.897 305.309 341.897 304.584 341.897ZM289.355 341.897C289.355 341.897 290.08 341.897 289.355 341.897C290.08 341.897 289.355 341.897 289.355 341.897ZM308.21 338.996H317.638V332.468C317.638 331.018 317.638 331.018 316.187 331.018H308.21V338.996ZM292.981 338.996H301.683V331.743H294.431C293.706 331.743 292.981 331.743 292.981 333.193V338.996ZM304.584 328.117C304.584 328.117 304.584 328.842 304.584 328.117C305.309 328.117 305.309 328.117 305.309 328.117C305.309 328.117 305.309 328.117 304.584 328.117ZM280.652 373.807C278.476 373.807 277.026 372.357 277.026 370.181V343.347C276.301 344.072 276.301 344.798 275.576 344.798C274.85 345.523 274.125 346.248 272.675 346.248C270.499 346.248 269.049 344.072 269.049 342.622C269.049 341.171 269.774 340.446 270.499 339.721C275.576 333.919 279.927 325.941 282.828 317.964C283.553 316.513 284.278 315.788 285.729 315.788C287.179 315.788 289.355 317.239 289.355 319.415C289.355 320.865 286.454 328.117 283.553 333.193V370.181C283.553 373.807 281.377 373.807 280.652 373.807ZM279.202 336.094C279.927 336.094 280.652 336.819 280.652 336.819V333.193C279.927 333.919 279.202 335.369 279.202 336.094C278.476 336.094 278.476 336.094 279.202 336.094Z" fill="black"></path><path d="M380.734 348.424C380.734 362.928 372.032 369.455 361.153 369.455C350.275 369.455 343.023 362.203 343.023 352.775C343.023 347.698 344.474 338.996 355.352 328.117C348.1 328.842 343.023 328.842 343.023 328.842C342.298 328.842 340.848 328.843 340.848 327.392C340.848 325.942 341.573 325.941 345.199 325.941C348.1 325.941 351.726 325.941 355.352 325.216C356.077 325.216 359.703 324.491 359.703 324.491C361.153 324.491 361.153 325.216 361.153 325.941C361.153 326.666 361.153 326.667 359.703 328.117C351.726 334.644 345.924 344.072 345.924 352.05C345.924 360.028 351.726 365.829 360.428 365.829C373.482 365.829 376.383 354.95 376.383 347.698C376.383 344.072 375.658 336.095 372.032 327.392C372.032 326.667 370.581 323.766 370.581 323.041C370.581 322.316 371.306 321.59 372.757 321.59C373.482 321.59 373.482 321.59 374.932 324.491C378.558 330.293 384.36 335.369 390.162 339.721C390.887 340.446 390.887 340.446 390.887 341.172C390.887 341.897 390.162 342.622 389.437 342.622C388.711 342.622 387.986 342.621 386.536 340.446C382.91 337.545 380.009 333.919 377.108 330.293C378.558 335.37 380.734 341.172 380.734 348.424ZM385.085 323.766C385.81 325.216 387.986 328.117 387.986 328.842C387.986 329.567 387.261 330.293 386.536 330.293C385.81 330.293 385.085 330.293 383.635 326.667C382.91 325.942 380.734 321.59 380.009 320.865V320.14C380.009 320.14 380.009 318.689 382.184 318.689C381.459 318.689 382.184 319.415 385.085 323.766ZM392.337 320.14C393.063 321.59 395.238 324.491 395.238 325.216C395.238 325.941 394.513 326.667 393.063 326.667C392.337 326.667 392.337 326.667 390.162 323.041C389.437 322.316 386.536 317.964 386.536 317.239V316.514C386.536 315.788 387.261 315.063 388.711 315.063C388.711 315.063 390.162 317.239 392.337 320.14Z" fill="black"></path><path d="M361.884 370.905C350.28 370.905 341.578 362.928 341.578 352.049C341.578 344.797 344.479 337.544 351.006 329.567C345.929 330.292 343.754 330.293 343.028 330.293C340.853 330.293 339.402 328.842 339.402 326.667C339.402 323.041 341.578 323.041 345.204 323.041C348.105 323.041 351.731 323.04 355.357 322.315C356.082 322.315 356.807 322.315 357.533 322.315C358.983 322.315 359.708 322.315 360.433 322.315C362.609 322.315 364.059 323.765 364.059 325.941C364.059 327.391 363.334 328.116 361.884 329.567C353.906 335.369 348.83 344.797 348.83 352.049C348.83 359.302 353.906 364.378 361.884 364.378C374.212 364.378 376.388 354.225 376.388 348.423C376.388 345.522 375.663 337.544 372.037 328.842V328.117C370.586 325.941 370.586 325.216 370.586 323.766C370.586 322.315 372.037 320.139 374.212 320.139C375.663 320.139 376.388 320.865 377.838 323.041C381.464 328.117 385.816 333.193 392.342 338.27C393.068 338.995 393.793 339.721 393.793 341.171C393.793 343.347 392.342 344.797 390.167 344.797C388.716 344.797 387.991 344.072 385.816 342.621C384.365 341.171 382.915 339.72 381.464 338.995C382.19 341.896 382.19 344.797 382.19 348.423C382.915 365.103 372.037 370.905 361.884 370.905ZM374.212 325.216C374.212 325.216 374.212 325.941 374.937 325.941C374.937 326.666 374.937 326.667 375.663 326.667C376.388 327.392 376.388 328.842 377.113 329.567C377.113 329.567 377.113 329.567 377.838 328.842C375.663 328.117 374.937 326.666 374.212 325.216ZM356.807 326.667C356.807 326.667 357.533 326.667 356.807 326.667C357.533 327.392 357.533 328.117 357.533 328.117C358.258 327.392 358.258 327.392 358.983 326.667C358.983 326.667 359.708 326.666 359.708 325.941C358.983 325.941 358.258 325.941 358.258 325.941C357.532 326.666 357.533 326.667 356.807 326.667ZM386.541 332.468C384.365 332.468 384.365 331.743 382.19 328.117L380.739 325.941C380.014 324.49 378.563 323.04 378.563 322.315C378.563 322.315 377.838 321.59 377.838 320.139C377.838 318.689 378.564 316.513 381.464 316.513C382.915 316.513 383.64 317.238 387.266 322.315C387.991 323.765 390.892 326.666 390.892 328.842C390.167 330.292 387.991 332.468 386.541 332.468ZM393.068 328.842C390.892 328.842 390.892 328.117 388.716 325.216V324.491C388.716 323.765 387.266 323.04 386.541 321.59C385.816 320.139 385.09 319.414 385.09 318.688C385.09 318.688 384.365 317.964 384.365 316.513C384.365 315.788 385.09 314.337 385.816 314.337C386.541 313.612 387.266 313.612 388.716 313.612C390.167 313.612 391.617 315.788 393.793 318.688L394.518 319.414C395.968 321.59 398.144 324.49 398.144 325.941C396.694 326.666 395.243 328.842 393.068 328.842Z" fill="black"></path><path d="M411.196 330.293C410.471 330.293 409.745 330.293 409.745 330.293C408.295 330.293 408.295 329.567 408.295 328.117C408.295 326.666 409.02 326.667 409.745 326.667C409.745 326.667 415.547 325.941 416.272 325.941L455.433 323.041H457.609C458.334 323.041 459.059 323.04 459.059 325.216C459.059 326.666 458.334 326.667 455.433 327.392C443.105 328.842 428.601 337.545 428.601 349.874C428.601 357.851 434.402 362.928 444.555 365.104C448.181 365.829 448.181 365.829 448.181 367.28C448.181 367.28 448.181 369.455 446.006 369.455C444.555 369.455 439.479 368.005 435.853 366.555C432.952 365.104 424.249 360.752 424.249 349.874C424.249 339.721 431.502 331.743 443.83 326.667L411.196 330.293Z" fill="black"></path><path d="M445.276 370.18C443.101 370.18 438.024 368.729 434.398 367.279C424.245 362.928 422.07 354.95 422.07 349.148C422.07 341.171 426.421 334.644 434.398 328.842L411.917 331.018C411.192 331.018 410.466 331.018 409.741 331.018C407.566 331.018 406.115 329.568 406.115 327.392C406.115 326.667 406.115 324.491 408.291 323.766C409.016 323.766 415.543 323.041 415.543 323.041L453.979 320.14H456.154C459.055 320.14 459.78 322.316 459.78 323.766C459.78 326.667 457.605 327.392 453.979 327.392C441.65 328.843 429.322 337.545 429.322 347.698C429.322 354.95 433.673 359.301 443.826 361.477C447.452 362.202 448.902 362.927 448.902 365.103C448.902 368.004 447.452 370.18 445.276 370.18ZM438.75 365.103C440.925 365.828 443.101 366.554 444.551 366.554C443.826 366.554 443.826 366.554 443.101 366.554C440.925 365.829 440.2 365.828 438.75 365.103ZM409.741 328.117C409.741 328.117 410.467 328.117 411.192 328.117H414.818C412.642 328.117 410.466 328.117 409.741 328.117ZM444.551 325.941C445.276 325.941 445.276 325.941 444.551 325.941C444.551 326.666 444.551 326.667 444.551 327.392C447.452 326.667 449.628 325.941 452.528 325.216L444.551 325.941ZM456.154 324.491C455.429 324.491 455.429 324.491 456.154 324.491C455.429 324.491 455.429 324.491 456.154 324.491Z" fill="black"></path><path d="M498.214 343.347H484.436C480.084 343.347 478.634 341.897 478.634 337.546V323.767C478.634 323.041 478.634 322.316 480.084 322.316C481.535 322.316 481.535 323.041 481.535 323.767V337.546C481.535 339.721 482.985 340.446 484.436 340.446H498.214V319.416C498.214 318.69 498.214 317.965 499.665 317.965C501.115 317.965 501.115 318.69 501.115 319.416V340.446H514.894C517.07 340.446 517.795 339.721 517.795 337.546V323.767C517.795 323.041 517.795 322.316 519.245 322.316C520.696 322.316 520.696 323.041 520.696 323.767V337.546C520.696 341.897 519.245 343.347 514.894 343.347H501.115V367.279H517.07C519.245 367.279 519.971 366.553 519.971 364.378V352.05C519.971 351.325 519.971 350.599 521.421 350.599C522.872 350.599 522.872 351.325 522.872 352.05V364.378C522.872 368.729 521.421 370.18 517.07 370.18H480.809C476.458 370.18 475.008 368.729 475.008 364.378V352.05C475.008 351.325 475.008 350.599 476.458 350.599C477.909 350.599 477.909 351.325 477.909 352.05V364.378C477.909 366.553 479.359 367.279 480.809 367.279H496.764V343.347H498.214Z" fill="black"></path><path d="M518.525 372.355H482.264C477.188 372.355 474.287 370.18 474.287 364.378V352.05C474.287 349.149 475.738 348.424 477.913 348.424C480.089 348.424 481.539 349.874 481.539 352.05V364.378C481.539 365.103 481.539 365.828 482.99 365.828H497.494V345.523H485.165C480.089 345.523 477.913 343.347 477.913 337.546V323.767C477.913 320.866 479.364 320.141 481.539 320.141C483.715 320.141 485.165 321.591 485.165 323.767V337.546C485.165 338.271 485.165 338.996 486.616 338.996H498.219V320.141C498.219 317.24 499.669 316.515 501.845 316.515C504.02 316.515 505.471 317.965 505.471 320.141V338.996H517.074C518.525 338.996 518.525 338.996 518.525 337.546V323.767C518.525 320.866 519.975 320.141 522.151 320.141C524.326 320.141 525.777 321.591 525.777 323.767V337.546C525.777 342.622 523.601 345.523 517.799 345.523H505.471V365.828H519.975C520.7 365.828 521.426 365.829 521.426 364.378V352.05C521.426 349.149 522.876 348.424 525.052 348.424C527.227 348.424 528.678 349.874 528.678 352.05V364.378C525.777 370.18 523.601 372.355 518.525 372.355ZM499.669 368.729C500.395 368.729 500.395 368.729 499.669 368.729C500.395 368.729 500.395 368.729 499.669 368.729ZM499.669 341.897C499.669 342.622 499.669 342.622 499.669 341.897C500.395 342.622 500.394 341.897 500.394 341.897C500.394 341.897 500.395 341.897 499.669 341.897Z" fill="black"></path><path d="M548.252 341.896H542.45C541.725 341.896 541 341.896 541 340.445C541 338.995 542.45 338.995 542.45 338.995H548.252V323.766H542.45C541.725 323.766 541 323.766 541 322.315C541 320.865 542.45 320.865 542.45 320.865H557.68C558.405 320.865 559.13 320.865 559.13 322.315C559.13 323.766 557.68 323.766 557.68 323.766H551.153V338.995H556.229C556.954 338.995 557.68 338.995 557.68 340.445C557.68 341.896 556.229 341.896 556.229 341.896H551.153V357.851C553.328 357.126 555.504 356.401 556.229 356.401C557.68 355.675 558.405 355.676 558.405 355.676C559.13 355.676 559.855 356.4 559.855 357.126C559.855 358.576 559.855 358.576 555.504 360.027C549.702 361.477 542.45 362.928 542.45 362.928C541.725 362.928 541 362.202 541 361.477C541 360.026 541.725 360.027 542.45 360.027C543.901 359.302 546.802 359.301 548.977 358.576V341.896H548.252ZM566.382 352.05C562.756 352.05 562.031 350.599 562.031 346.973V324.491C562.031 320.865 563.481 320.14 566.382 320.14H587.413C591.039 320.14 592.49 321.59 592.49 324.491V346.973C592.49 350.599 591.039 352.05 587.413 352.05H582.337V365.828C582.337 368.004 583.787 368.004 585.237 368.004C589.589 368.004 590.314 368.004 590.314 367.279C590.314 366.554 590.314 365.828 591.039 361.477C591.039 360.026 591.039 359.302 592.49 359.302C593.215 359.302 593.94 360.027 593.94 360.752C593.94 362.202 593.215 368.004 592.49 369.454C591.764 370.904 591.039 370.905 583.787 370.905C580.886 370.905 578.711 370.179 578.711 365.828V352.05H572.184C571.459 357.851 569.283 364.378 560.581 368.729C557.68 370.179 554.779 370.905 554.054 370.905C553.329 370.905 552.603 370.179 552.603 368.729C552.603 368.004 553.329 367.279 554.054 367.279C562.031 365.103 567.833 361.477 569.283 351.324H566.382V352.05ZM564.932 329.567H588.864V325.216C588.864 323.766 588.138 323.041 586.688 323.041H567.107C565.657 323.041 564.932 323.766 564.932 325.216V329.567ZM588.864 332.468H564.932V338.995H588.864V332.468ZM564.932 341.896V346.973C564.932 348.423 565.657 349.149 567.107 349.149H586.688C588.138 349.149 588.864 348.423 588.864 346.973V341.896H564.932Z" fill="black"></path><path d="M554.059 373.081C551.883 373.081 550.433 371.631 550.433 369.455C550.433 368.73 550.433 367.28 553.334 366.555C560.586 364.379 565.662 361.478 567.112 354.225H566.387C562.036 354.225 559.86 352.05 559.86 347.698V341.897C559.86 343.347 558.41 344.072 556.234 344.072H553.334V356.401C554.784 356.401 555.509 355.676 556.234 355.676H556.96C558.41 354.951 559.135 354.95 559.135 354.95C560.586 354.95 562.036 356.401 562.036 358.577C562.036 361.477 560.586 361.478 556.234 362.929C551.158 364.379 543.181 366.555 542.455 366.555C541.005 366.555 539.555 365.104 539.555 362.929C539.555 360.753 541.73 360.028 541.73 360.028C543.181 359.302 545.356 359.302 546.807 358.577V344.798H543.181C540.28 344.798 539.555 343.347 539.555 341.172C539.555 339.721 540.28 338.271 543.181 338.271H546.807V326.667H543.181C540.28 326.667 539.555 325.217 539.555 323.766C539.555 322.316 540.28 320.865 543.181 320.865H558.41C559.86 320.865 560.586 321.59 561.311 322.315C562.036 320.865 564.212 319.415 567.112 319.415H588.143C592.495 319.415 594.67 321.59 594.67 325.941V348.424C594.67 352.775 592.495 354.95 588.143 354.95H585.243V366.555V367.28H585.968C587.418 367.28 588.869 367.28 589.594 367.28C589.594 366.555 589.594 365.829 589.594 364.379V362.929C589.594 361.478 589.594 358.577 593.22 358.577C595.396 358.577 596.846 360.027 596.846 362.203C596.846 362.928 596.846 369.455 594.67 371.631C593.22 373.807 591.77 373.807 584.517 373.807C581.617 373.807 577.991 373.082 577.991 367.28V354.95H575.09C573.639 360.752 571.464 367.28 562.761 371.631C559.135 372.356 555.509 373.081 554.059 373.081ZM549.708 359.303C549.708 360.028 549.708 360.028 549.708 359.303C549.708 360.028 550.433 360.028 549.708 359.303C550.433 360.028 550.433 360.028 549.708 359.303ZM580.166 351.324C580.891 351.324 580.891 351.324 580.166 351.324C580.891 351.324 580.891 351.324 580.166 351.324ZM570.738 351.324C570.738 351.324 571.464 351.324 570.738 351.324V351.324ZM566.387 343.347V346.973V347.698H585.968C585.968 347.698 586.693 347.698 586.693 346.973V343.347H566.387ZM548.982 340.446C549.707 340.446 549.707 341.171 548.982 340.446C549.707 340.446 549.708 340.446 549.708 340.446C549.708 340.446 549.707 340.446 548.982 340.446C549.707 340.446 549.707 340.446 548.982 340.446ZM553.334 337.546H556.96C559.135 337.546 559.86 338.996 560.586 339.721V325.216C559.86 325.216 559.135 325.941 558.41 325.941H553.334V337.546ZM566.387 337.546H586.693V334.645H566.387V337.546ZM589.594 331.018C589.594 331.018 590.319 331.018 589.594 331.018C590.319 331.018 589.594 331.018 589.594 331.018ZM566.387 328.117H586.693V325.216L585.968 324.491H566.387L565.662 325.216V328.117H566.387Z" fill="black"></path><path d="M21.0331 25.7011H4.35337C3.62817 25.7011 2.90293 25.7005 2.90293 24.2501C2.90293 22.7997 4.35337 22.8 4.35337 22.8H21.0331V19.1739C21.0331 18.4487 21.0331 17.723 22.4835 17.723C23.9339 17.723 23.9339 19.1739 23.9339 19.1739V35.8534C23.9339 36.5786 23.9339 38.0294 22.4835 38.0294C21.0331 38.0294 21.0331 36.5793 21.0331 36.5793V33.6783C16.6818 34.4035 4.35333 36.5793 3.62812 36.5793C2.90292 36.5793 2.17773 35.8536 2.17773 35.1283C2.17773 33.6779 2.90292 33.6783 3.62812 33.6783C10.155 32.953 15.2314 32.2277 20.3079 30.7772V25.7011H21.0331ZM13.0558 59.0608V69.2141C13.0558 69.9393 13.0558 70.6641 11.6054 70.6641C10.155 70.6641 10.155 69.9393 10.155 69.2141V46.0066C10.155 41.6553 11.6054 40.2054 15.9567 40.2054H43.5145C47.8657 40.2054 49.3161 41.6553 49.3161 46.0066V64.137C49.3161 69.9387 46.4153 69.9391 42.0641 69.9391H36.9876C36.2624 69.9391 35.5372 69.9386 35.5372 68.4881C35.5372 67.0377 36.9876 67.0381 36.9876 67.0381C37.7128 67.0381 42.7892 67.0381 43.5145 67.0381C44.9649 67.0381 46.4153 67.0379 46.4153 64.137V59.0608H13.0558V59.0608ZM44.9649 48.1826V46.0066C44.9649 43.8309 44.2397 43.1055 42.0641 43.1055H15.9567C13.781 43.1055 13.0558 43.8309 13.0558 46.0066V48.1826H44.9649ZM13.0558 51.0836V56.1598H45.6901V51.0836H13.0558ZM35.5372 31.5023C35.5372 33.6779 36.9876 33.6783 38.438 33.6783C49.3161 33.6783 50.0413 33.6783 50.7665 33.6783C51.4917 33.6783 52.217 32.953 52.217 30.0522C52.217 29.327 52.2169 27.8762 53.6673 27.8762C54.3926 27.8762 55.843 28.6019 55.843 29.3271C55.843 30.7776 55.1177 34.4031 54.3925 35.1283C53.6673 35.8536 52.217 35.8534 47.8657 35.8534C46.4153 35.8534 39.8884 35.8534 38.438 35.8534C35.5372 35.8534 33.3616 35.1285 33.3616 30.7772V18.4489C33.3616 17.7237 33.3616 16.9979 34.812 16.9979C36.2624 16.9979 36.2624 18.4489 36.2624 18.4489V22.8C39.1632 22.0748 44.2397 21.3496 50.0413 19.1739C51.4917 18.4487 52.2169 18.4489 52.9422 18.4489C53.6674 18.4489 54.3925 19.1738 54.3925 19.899C54.3925 20.6242 53.6673 21.3496 50.0413 22.8C44.2397 24.9757 39.8884 25.7011 36.2624 25.7011V31.5023H35.5372Z" fill="black"></path><path d="M10.8781 72.8396C10.1529 72.8396 7.25203 72.8396 7.25203 69.2135V46.0062C7.25203 40.9297 9.42765 38.029 14.5041 38.029H19.5806C18.8554 37.3038 18.8554 36.5784 18.8554 35.128V34.4029C13.7789 35.1281 4.35121 37.304 3.626 37.304C1.45038 37.304 0 35.8535 0 33.6779C0 32.9527 -2.76644e-05 30.777 3.626 30.0518H5.80164C10.8781 29.3266 15.2293 28.6011 18.8554 27.8758V25.7007H4.35125C2.17563 25.7007 0.725195 24.2503 0.725195 22.0747C0.725195 20.6242 1.45043 18.4486 4.35125 18.4486H18.8554V16.9976C18.8554 14.0968 20.3058 13.3716 22.4814 13.3716C24.657 13.3716 26.1074 14.0968 26.1074 16.9976V33.6779C26.1074 35.1283 25.3822 35.8537 25.3822 36.5789H42.7871C47.8636 36.5789 50.7644 38.7544 50.7644 44.5561V62.6864C50.7644 69.9385 45.688 69.9385 41.3367 69.9385H36.2603C34.0846 69.9385 32.6342 68.4881 32.6342 66.3125C32.6342 65.5873 32.6342 62.6864 36.2603 62.6864C36.9855 62.6864 38.4359 62.6864 39.8863 62.6864C41.3367 62.6864 42.0619 62.6864 42.7871 62.6864C44.2375 62.6864 44.2376 62.6859 44.2376 61.2355V57.6094H15.2293V66.3125C14.5041 72.1142 13.0537 72.8396 10.8781 72.8396ZM46.4131 66.3125C46.4131 67.0377 45.688 67.7624 44.9628 68.4876C45.688 68.4876 46.4131 67.7629 46.4131 66.3125ZM46.4131 57.6094C46.4131 57.6094 46.4131 58.3346 46.4131 57.6094V57.6094ZM11.6033 57.6094C11.6033 58.3346 11.6033 57.6094 11.6033 57.6094V57.6094ZM14.5041 54.7092H43.5123V53.2583H14.5041V54.7092ZM46.4131 49.6322C46.4131 49.6322 46.4131 50.3574 46.4131 49.6322V49.6322ZM11.6033 49.6322C11.6033 50.3574 11.6033 49.6322 11.6033 49.6322V49.6322ZM14.5041 46.7312H43.5123C43.5123 45.2808 43.5123 45.2811 42.0619 45.2811H15.9545C14.5041 45.2811 14.5041 45.2808 14.5041 46.7312ZM45.6879 43.1051C46.4132 43.1051 46.4132 43.1051 45.6879 43.1051C46.4132 43.1051 46.4132 43.1051 45.6879 43.1051ZM22.4814 32.2269C22.4814 31.5017 22.4814 31.5017 22.4814 32.2269V32.2269ZM22.4814 24.2498C22.4814 23.5246 22.4814 23.5246 22.4814 24.2498V24.2498ZM37.7107 38.029C35.5351 38.029 30.4586 38.0288 30.4586 31.5019V19.1736C30.4586 16.2728 31.9091 15.5476 34.0847 15.5476C35.5351 15.5476 37.7107 16.2728 37.7107 19.1736V21.3487C42.0619 20.6235 45.688 19.899 48.5888 18.4486C50.7644 17.7234 51.4896 16.9976 52.2148 16.9976C53.6652 16.9976 55.8408 18.4481 55.8408 20.6237C55.8408 22.7993 53.6652 24.2496 50.7644 24.9748C45.6879 26.4252 42.0619 27.1506 38.4359 27.8758V31.5019V32.2269H39.1611C47.1383 32.2269 50.0392 32.2269 50.7644 32.2269C50.7644 32.2269 50.7644 31.5023 50.7644 30.0518C50.7644 27.151 52.94 26.4258 54.3904 26.4258C56.566 26.4258 58.0164 27.8762 58.0164 30.0518C58.0164 30.0518 58.0165 35.8535 55.8408 37.304C54.3904 38.7544 52.94 38.754 47.8636 38.754L37.7107 38.029ZM34.0847 24.9748C34.0847 24.9748 34.8099 24.9748 34.0847 24.9748C34.8099 24.9748 34.8099 24.9748 34.0847 24.9748C34.0847 24.9748 34.8099 24.9748 34.0847 24.9748Z" fill="black"></path><path d="M97.9119 38.7541H121.844C122.569 38.7541 123.294 38.7546 123.294 40.2051C123.294 41.6555 121.844 41.6552 121.844 41.6552H71.0793C70.3541 41.6552 69.6289 41.6555 69.6289 40.2051C69.6289 38.7546 71.0793 38.7541 71.0793 38.7541H95.0111V35.128H80.507C76.881 35.128 76.1557 33.6777 76.1557 30.7768V24.2496C76.1557 20.6235 77.6062 19.8984 80.507 19.8984H112.416C116.042 19.8984 117.492 21.3487 117.492 24.2496V30.7768C117.492 34.4029 116.042 35.128 112.416 35.128H97.9119V38.7541ZM71.8045 69.214C71.0793 69.214 70.3541 68.4883 70.3541 67.763C70.3541 67.0378 70.3541 67.0384 73.2549 65.5879C76.881 64.1375 79.7817 61.9614 82.6826 59.7858C83.4078 59.0605 83.4078 59.0607 84.133 59.0607C84.8582 59.0607 85.5834 59.7856 85.5834 60.5108C84.8582 62.6865 73.2549 69.214 71.8045 69.214ZM97.9119 65.5879C97.9119 67.0384 97.9119 69.9391 95.0111 69.9391C94.2859 69.9391 93.5607 69.9391 87.759 69.9391C87.0338 69.9391 85.5834 69.9387 85.5834 67.763C85.5834 66.3126 87.0338 66.313 87.0338 66.313C87.0338 66.313 92.1102 66.313 92.8355 66.313C94.2859 66.313 95.0111 65.5874 95.0111 64.1369V55.4346H81.2322C77.6062 55.4346 76.1557 53.9843 76.1557 51.0834V48.9074C76.1557 45.2813 77.6062 44.5562 81.2322 44.5562H111.691C115.317 44.5562 116.042 46.0065 116.042 48.9074V51.0834C116.042 54.7095 114.592 55.4346 111.691 55.4346H97.9119V65.5879V65.5879ZM78.3313 25.7006H113.866V23.5246C113.866 22.7993 113.141 22.0745 112.416 22.0745H79.7817C79.0565 22.0745 78.3313 22.7993 78.3313 23.5246V25.7006ZM78.3313 27.8757V30.7768C78.3313 31.502 79.0565 32.2269 79.7817 32.2269H112.416C113.141 32.2269 113.866 31.502 113.866 30.7768V27.8757H78.3313ZM81.2322 47.4573C80.507 47.4573 79.7817 48.1822 79.7817 48.9074V51.8085C79.7817 52.5337 80.507 53.2586 81.2322 53.2586H111.691C112.416 53.2586 113.141 52.5337 113.141 51.8085V48.9074C113.141 48.1822 112.416 47.4573 111.691 47.4573H81.2322ZM108.79 59.0607C109.515 59.0607 109.515 59.0604 110.966 60.5108C115.317 64.1369 120.393 66.313 121.844 66.313C122.569 66.313 122.569 67.0378 122.569 67.763C122.569 68.4883 121.844 69.214 121.118 69.214C119.668 69.214 116.042 67.0384 114.592 65.5879C110.966 63.4122 108.79 61.9611 108.065 61.2359C107.34 60.5106 107.34 60.511 107.34 59.7858C107.34 59.7858 108.065 59.0607 108.79 59.0607Z" fill="black"></path><path d="M87.755 72.1136C84.129 72.1136 83.4037 69.938 83.4037 68.4876C83.4037 67.7624 83.4037 64.8616 87.0298 64.8616C87.0298 64.8616 89.9306 64.8616 91.3811 64.8616H92.1063H92.8315V57.6095H86.3046C87.0298 58.3347 87.0298 59.0603 87.0298 59.7855C86.3046 63.4115 73.9761 69.9385 71.8004 69.9385C69.6248 69.9385 68.1744 68.4881 68.1744 66.3125C68.1744 64.1369 69.6248 63.4117 71.8004 62.6865C75.4265 61.2361 77.6021 59.7851 80.503 57.6095C76.1517 57.6095 74.7013 55.4346 74.7013 51.0833V48.9074C74.7013 45.2813 76.1517 43.1055 79.7777 42.3803H71.0753C67.4492 42.3803 67.4492 39.4793 67.4492 39.4793C67.4492 38.0289 68.1744 36.5792 71.0753 36.5792H92.8315H80.503C76.1517 36.5792 73.9761 34.4034 73.9761 30.0521V23.5251C73.9761 19.1738 76.1517 16.998 80.503 16.998H112.412C116.763 16.998 118.939 19.1738 118.939 23.5251V30.0521C118.939 34.4034 116.763 36.5792 112.412 36.5792H99.3583H121.84C124.015 36.5792 125.466 38.0289 125.466 39.4793C125.466 40.9297 124.741 42.3803 121.84 42.3803H113.137C116.763 43.1055 118.214 44.5561 118.214 48.9074V51.0833C118.214 55.4346 116.038 57.6095 111.687 57.6095H110.962L111.687 58.3354C116.038 61.2362 120.389 63.4113 121.84 64.1365C122.565 64.1365 124.015 64.8619 124.015 67.0375C124.015 69.2132 122.565 70.6636 120.389 70.6636C118.939 70.6636 117.488 69.9384 113.137 67.0375H112.412C108.061 64.8619 106.61 63.4117 105.885 62.6865C105.16 61.9613 104.435 61.2357 104.435 60.5105C104.435 59.7853 104.435 59.0606 105.16 58.3354H98.6331V65.5875C98.6331 69.2135 97.1827 71.3884 93.5566 72.1136C94.2819 72.1136 93.5567 72.1136 87.755 72.1136ZM95.7323 67.0375C95.7323 67.7627 95.007 67.7624 94.2818 68.4876C95.007 68.4876 95.7323 68.488 95.7323 67.0375ZM81.2282 52.5334H110.962V49.6324H81.2282V52.5334ZM80.503 30.7772H112.412V30.0521L80.503 30.7772ZM80.503 23.5251H112.412H80.503Z" fill="black"></path><path d="M171.876 22.075C174.052 22.075 176.953 22.0743 176.953 24.9751C176.953 27.876 173.327 31.5026 171.151 33.6782H180.579C184.93 33.6782 186.38 35.1281 186.38 39.4794V46.7316C186.38 51.0829 184.93 52.5337 180.579 52.5337H145.769V63.4119C145.769 66.3128 147.945 66.3129 149.395 66.3129H181.304C184.93 66.3129 185.655 66.3128 186.38 59.7858C186.38 58.3354 186.38 57.6098 187.831 57.6098C187.831 57.6098 190.006 57.6104 190.006 59.0608C190.006 59.786 189.281 63.4123 188.556 65.5879C187.106 69.9392 184.205 69.939 180.579 69.939H147.945C143.593 69.939 141.418 69.9387 141.418 64.1369V39.4794C141.418 35.1281 142.868 33.6782 147.219 33.6782H166.075C167.525 32.2278 172.602 27.1515 172.602 25.701C172.602 24.9758 171.876 24.9751 171.151 24.9751H154.471C148.67 30.7768 139.242 36.5793 138.517 36.5793C137.792 36.5793 137.066 35.1285 137.066 34.4033C137.066 33.6781 137.792 32.9532 138.517 32.9532C142.143 30.7776 150.12 26.4263 155.922 18.4489C156.647 17.7237 156.647 16.9979 158.097 16.9979C158.823 16.9979 159.548 17.7237 159.548 18.4489C159.548 19.1741 159.548 19.1737 158.823 19.899C158.097 20.6242 158.097 21.3498 157.372 22.075H171.876V22.075ZM162.449 36.5793H148.67C146.494 36.5793 145.769 37.3038 145.769 39.4794V50.3577H162.449V36.5793V36.5793ZM166.075 36.5793V50.3577H180.579C182.754 50.3577 183.48 49.6332 183.48 47.4575V40.2054C183.48 38.0297 182.754 37.3043 180.579 37.3043H166.075V36.5793Z" fill="black"></path><path d="M181.305 72.1137H148.671C145.045 72.1137 139.968 72.1138 139.968 64.1365V39.4792C139.968 38.754 139.968 38.0293 139.968 37.3041C138.518 38.0293 137.793 38.0292 137.067 38.0292C134.892 38.0292 133.441 35.8535 133.441 34.4031C133.441 32.2275 134.892 31.5021 135.617 31.5021C142.869 27.8761 148.671 23.5246 152.297 17.7229C153.022 16.9977 153.747 15.5479 155.923 15.5479C158.098 15.5479 159.549 16.9984 159.549 18.4489C159.549 19.1741 159.549 19.1737 159.549 19.8989H171.152C173.328 19.8989 177.679 19.8986 177.679 24.975C177.679 27.1507 176.229 29.3263 174.053 32.2271H179.129C184.206 32.2271 187.107 34.4035 187.107 40.2052V47.4573C187.107 52.5337 184.931 54.7093 179.129 54.7093H147.22V64.1365C147.22 65.587 147.22 65.5875 149.396 65.5875H181.305C184.206 65.5875 184.206 65.587 184.931 60.5105C184.931 59.0601 185.656 56.1594 188.557 56.1594C190.733 56.1594 192.183 57.6098 192.183 59.7855C192.183 60.5107 191.458 64.8619 190.733 67.0376C189.282 72.114 184.931 72.1137 181.305 72.1137ZM145.045 67.0376C145.045 67.7628 145.045 67.7628 145.045 67.0376C145.045 67.7628 145.045 67.0376 145.045 67.0376ZM144.32 51.0833C144.32 51.8085 144.32 51.8085 144.32 51.0833C144.32 51.8085 144.32 51.0833 144.32 51.0833ZM167.526 48.1823H179.855C180.58 48.1823 181.305 48.1818 181.305 46.7313V39.4792C181.305 38.754 181.305 38.0292 179.855 38.0292H167.526V48.1823ZM147.22 48.1823H160.274V38.0292H147.946C147.22 38.0292 146.495 38.0288 146.495 39.4792V48.1823H147.22ZM168.251 35.1282H169.702C169.702 35.1282 169.702 35.1283 169.702 34.4031V33.6781C168.977 34.4033 168.251 34.4029 168.251 35.1282ZM148.671 32.2271H166.076C167.526 30.7767 169.702 28.6014 170.427 27.151H154.472C153.022 28.6014 150.846 30.0515 148.671 32.2271ZM174.053 24.25C174.778 24.9752 174.778 25.7008 174.778 26.426V27.151C174.778 26.4258 175.503 25.701 175.503 25.701C175.503 24.2505 175.503 24.25 174.053 24.25ZM155.198 22.0749C155.198 22.8001 154.472 22.7998 154.472 23.525H155.923C155.198 22.7998 155.198 22.0749 155.198 22.0749Z" fill="black"></path><path d="M221.188 32.9539C222.638 29.3278 223.363 25.7017 223.363 22.0756C223.363 19.9 223.363 19.1746 225.539 19.1746C226.264 19.1746 227.715 19.8994 227.715 20.6247C227.715 21.3499 226.989 25.701 225.539 32.228C226.264 32.228 226.989 32.228 228.44 32.228C240.768 32.228 241.494 39.4801 241.494 46.7323C241.494 64.8627 236.417 67.7637 229.165 67.7637C223.363 67.7637 223.363 66.3138 223.363 65.5886C223.363 64.8634 224.089 64.1377 224.814 64.1377H226.264C227.715 64.1377 228.44 64.1377 229.165 64.1377C234.241 64.1377 237.867 62.6872 237.867 46.0072C237.867 39.4803 237.142 34.404 228.44 34.404C226.989 34.404 225.539 34.404 224.814 34.404C221.188 50.3587 216.836 59.061 213.21 64.8627C212.485 66.3131 211.76 67.0387 211.035 67.0387C211.035 67.0387 208.859 67.0391 208.859 65.5886C208.859 64.8634 208.859 64.8632 210.31 62.6876C214.661 55.4354 218.287 45.282 221.188 35.129C219.012 35.129 208.859 37.305 208.134 37.305C207.409 37.305 206.684 36.5793 206.684 35.854C206.684 34.4036 207.409 34.404 209.584 34.404L221.188 32.9539ZM248.746 35.129C253.097 41.6559 254.547 48.1829 254.547 49.6333C254.547 51.0838 253.822 51.0843 252.372 51.0843C250.921 51.0843 250.921 50.3589 250.921 48.1833C249.471 41.6563 245.845 35.1294 240.768 30.0528C238.593 27.8772 238.593 27.877 238.593 27.1518C238.593 26.4266 239.318 25.7017 240.043 25.7017C242.219 27.1521 246.57 32.2281 248.746 35.129ZM253.822 28.6019C253.822 29.3271 253.097 30.0528 251.646 30.0528C250.921 30.0528 250.921 30.0528 248.02 26.4267C247.295 25.7015 245.12 23.5261 243.669 22.0756C242.944 21.3504 242.944 21.3499 242.944 20.6247C242.944 19.8994 243.669 19.1746 244.394 19.1746C248.02 19.1746 253.822 27.8767 253.822 28.6019ZM261.074 23.5257C261.074 24.2509 260.349 24.9758 258.898 24.9758C258.173 24.9758 258.173 24.9758 255.272 21.3497C254.547 20.6245 252.372 18.449 250.921 16.9986C250.196 16.2734 250.196 16.2737 250.196 15.5485C250.196 14.8233 250.921 14.0975 251.646 14.0975C254.547 14.8228 261.074 22.8005 261.074 23.5257Z" fill="black"></path><path d="M227.71 69.9391C225.535 69.9391 219.733 69.9393 219.733 65.588C219.733 63.4123 221.184 61.9619 222.634 61.9619C222.634 61.9619 224.084 61.9619 224.81 61.9619C225.535 61.9619 226.985 61.9619 227.71 61.9619C231.337 61.9619 234.963 61.9613 234.963 46.0065C234.963 39.4795 234.237 36.5791 227.71 36.5791C226.985 36.5791 226.26 36.5791 225.535 36.5791C222.634 48.9079 218.283 58.3356 213.932 66.313C213.206 67.7635 212.481 69.2141 210.306 69.2141C208.855 69.2141 206.679 68.4889 206.679 65.588C206.679 64.1375 206.68 64.1375 208.13 61.9619C211.756 55.4349 215.382 46.7321 218.283 37.3042C216.832 37.3042 214.657 38.0292 213.206 38.0292C208.13 38.7544 208.13 38.7543 207.405 38.7543C205.229 38.7543 204.504 37.3038 204.504 35.1282C204.504 32.2273 206.68 31.5021 209.58 31.5021L220.458 30.052C221.184 27.1511 221.909 24.2498 221.909 20.6237C221.909 19.1733 222.634 16.2726 225.535 16.2726C227.711 16.2726 229.161 17.723 229.161 19.8987C229.161 20.6239 228.436 24.9756 227.71 29.3269C242.215 29.3269 242.215 39.4795 242.215 46.0065C242.215 63.4118 237.863 69.9391 227.71 69.9391ZM221.909 34.4031C221.909 35.1283 221.909 35.1283 221.909 34.4031C221.909 35.1283 221.909 35.1283 221.909 34.4031C222.634 34.4031 223.359 33.6781 224.084 33.6781C224.084 33.6781 224.084 33.6783 224.084 32.953C222.634 33.6783 221.909 34.4031 221.909 34.4031ZM224.81 20.6237C224.81 21.349 224.81 21.349 224.81 20.6237C224.81 21.349 224.81 20.6237 224.81 20.6237ZM252.368 53.2587C249.467 53.2587 249.467 51.0832 248.741 48.9075C247.291 42.3806 244.39 36.5786 239.314 31.5021C237.138 29.3264 236.413 28.6012 236.413 27.876C236.413 26.4255 237.863 24.2498 240.039 24.2498C243.665 24.2498 248.741 32.2276 249.467 33.6781C253.818 40.2051 255.268 47.4571 255.268 48.9075C255.994 51.8084 254.543 53.2587 252.368 53.2587ZM252.368 32.2271C250.917 32.2271 250.192 31.5019 248.016 28.601V27.876C247.291 27.1507 245.115 24.9752 244.39 23.5248C243.665 22.7996 242.94 22.074 242.94 21.3488C242.94 19.8983 244.39 17.7227 246.566 17.7227C249.467 17.7227 256.719 27.1506 256.719 28.601C255.994 30.7767 254.543 32.2271 252.368 32.2271ZM258.894 27.1509C257.444 27.1509 256.719 26.4259 253.818 22.7998C253.093 22.0745 250.917 19.899 250.192 18.4486C249.467 17.7234 249.467 16.9978 249.467 16.2726C249.467 14.0969 250.917 12.6465 253.093 12.6465C255.994 12.6465 263.246 21.3491 263.246 23.5248C262.52 25.7005 261.07 27.1509 258.894 27.1509Z" fill="black"></path><path d="M282.106 69.9392C282.106 70.6644 282.106 71.3892 280.656 71.3892C279.205 71.3892 279.205 70.6644 279.205 69.9392V38.0294C277.755 40.2051 276.304 42.3809 274.854 44.5566C274.129 45.2818 274.129 45.2816 273.404 45.2816C272.678 45.2816 271.953 44.556 271.953 43.1056C271.953 42.3804 272.678 41.6555 272.678 41.6555C277.755 35.8538 282.106 27.8766 285.007 19.174C285.007 18.4488 285.732 17.723 286.457 17.723C287.182 17.723 288.633 18.4488 288.633 19.174C288.633 19.8992 286.457 27.1515 282.831 32.9533V69.9392H282.106ZM306.763 69.9392C306.763 70.6644 306.763 71.3892 305.313 71.3892C303.862 71.3892 303.862 70.6644 303.862 69.9392V56.8849H294.435C290.083 56.8849 288.633 55.435 288.633 51.0837V32.2274C288.633 27.8761 290.083 26.4262 294.435 26.4262H303.862V19.174C303.862 18.4488 303.862 17.723 305.313 17.723C306.763 17.723 306.763 18.4488 306.763 19.174V26.4262H316.916C321.267 26.4262 322.718 27.8761 322.718 32.2274V51.0837C322.718 55.435 321.267 56.8849 316.916 56.8849H306.763V69.9392ZM290.809 40.2054H303.137V29.3272H293.709C291.534 29.3272 290.809 30.0517 290.809 32.2274V40.2054ZM290.809 43.1056V51.0837C290.809 53.2594 291.534 53.9839 293.709 53.9839H303.137V43.1056H290.809ZM319.817 40.2054V32.2274C319.817 30.0517 319.092 29.3272 316.916 29.3272H306.763V40.2054H319.817ZM306.763 53.9839H316.916C319.092 53.9839 319.817 53.2594 319.817 51.0837V43.1056H306.763V53.9839Z" fill="black"></path><path d="M305.309 73.5655C303.859 73.5655 301.683 72.8403 301.683 69.9394V59.0611H293.706C288.629 59.0611 285.729 56.8856 285.729 51.0838V32.2273C285.729 27.1507 287.904 24.25 293.706 24.25H301.683V18.4487C301.683 15.5479 303.133 14.8226 305.309 14.8226C307.485 14.8226 308.935 16.2731 308.935 18.4487V24.25H317.638C322.714 24.25 324.89 26.4255 324.89 32.2273V51.0838C324.89 56.1603 322.714 59.0611 317.638 59.0611H308.935V69.9394C308.21 72.8403 306.034 73.5655 305.309 73.5655ZM304.584 55.4349C304.584 56.1602 304.584 56.1602 304.584 55.4349C305.309 55.4349 305.309 55.4349 305.309 55.4349C305.309 55.4349 305.309 55.4349 304.584 55.4349ZM308.21 52.5339H316.187C316.912 52.5339 317.638 52.5342 317.638 51.0838V44.5566H308.21V52.5339ZM292.981 44.5566V51.0838C292.981 51.809 292.981 52.5339 294.431 52.5339H301.683V45.2816H292.981V44.5566ZM304.584 41.6555C305.309 41.6555 305.309 41.6555 305.309 41.6555C305.309 41.6555 305.309 41.6555 304.584 41.6555ZM289.355 41.6555C289.355 41.6555 290.08 41.6555 289.355 41.6555C290.08 41.6555 289.355 41.6555 289.355 41.6555ZM308.21 38.7545H317.638V32.2273C317.638 30.7768 317.638 30.7772 316.187 30.7772H308.21V38.7545ZM292.981 38.7545H301.683V31.5022H294.431C293.706 31.5022 292.981 31.5028 292.981 32.9532V38.7545ZM304.584 27.8761C305.309 27.8761 305.309 27.8761 305.309 27.8761C305.309 27.8761 305.309 27.1509 304.584 27.8761C304.584 27.8761 304.584 27.1509 304.584 27.8761ZM280.652 73.5655C278.476 73.5655 277.026 72.1151 277.026 69.9394V43.1056C276.301 43.8308 276.301 44.5566 275.576 44.5566C274.85 45.2818 274.125 46.0067 272.675 46.0067C270.499 46.0067 269.049 43.831 269.049 42.3806C269.049 40.9301 269.774 40.2047 270.499 39.4795C275.576 33.6777 279.927 25.7003 282.828 17.7228C283.553 16.2724 284.278 15.5477 285.729 15.5477C287.179 15.5477 289.355 16.9981 289.355 19.1738C289.355 20.6242 286.454 27.8766 283.553 32.9532V69.9394C283.553 72.8403 281.377 73.5655 280.652 73.5655ZM279.202 35.8534C279.927 35.8534 280.652 36.5793 280.652 36.5793V32.9532C279.927 33.6784 279.202 35.1282 279.202 35.8534C278.476 35.8534 278.476 35.8534 279.202 35.8534Z" fill="black"></path><path d="M380.734 47.4574C380.734 61.9617 372.032 68.488 361.153 68.488C350.275 68.488 343.023 61.2364 343.023 51.8085C343.023 46.732 344.474 38.0292 355.352 27.151C348.1 27.8762 343.023 27.876 343.023 27.876C342.298 27.876 340.848 27.8764 340.848 26.4259C340.848 24.9755 341.573 24.975 345.199 24.975C348.1 24.975 351.726 24.9751 355.352 24.2499C356.077 24.2499 359.703 23.5249 359.703 23.5249C361.153 23.5249 361.153 24.2497 361.153 24.975C361.153 25.7002 361.153 25.7005 359.703 27.151C351.726 33.6779 345.924 43.1061 345.924 51.0835C345.924 59.0609 351.726 64.8619 360.428 64.8619C373.482 64.8619 376.383 53.9836 376.383 46.7315C376.383 43.1054 375.658 35.1285 372.032 26.4259C372.032 25.7007 370.581 22.8 370.581 22.0748C370.581 21.3496 371.306 20.6238 372.757 20.6238C373.482 20.6238 373.482 20.624 374.932 23.5249C378.558 29.3266 384.36 34.403 390.162 38.7543C390.887 39.4795 390.887 39.48 390.887 40.2052C390.887 40.9304 390.162 41.6553 389.437 41.6553C388.711 41.6553 387.986 41.655 386.536 39.4793C382.91 36.5784 380.009 32.9531 377.108 29.327C378.558 35.1287 380.734 40.9304 380.734 47.4574ZM385.085 23.5249C385.81 24.9753 387.986 27.8758 387.986 28.601C387.986 29.3263 387.261 30.052 386.536 30.052C385.81 30.052 385.085 30.052 383.635 26.4259C382.91 25.7007 380.734 21.3491 380.009 20.6238V19.8988C380.009 19.8988 380.009 18.4487 382.184 18.4487C381.459 18.4487 382.184 18.4484 385.085 23.5249ZM392.337 19.8988C393.063 21.3492 395.238 24.2497 395.238 24.975C395.238 25.7002 394.513 26.4259 393.063 26.4259C392.337 26.4259 392.337 26.4259 390.162 22.7998C389.437 22.0746 386.536 17.723 386.536 16.9978V16.2727C386.536 15.5475 387.261 14.8226 388.711 14.8226C388.711 14.8226 390.162 16.9979 392.337 19.8988Z" fill="black"></path><path d="M361.884 70.6642C350.28 70.6642 341.578 62.687 341.578 51.8087C341.578 44.5564 344.479 37.3044 351.006 29.3269C345.929 30.0522 343.754 30.052 343.028 30.052C340.853 30.052 339.402 28.6015 339.402 26.4259C339.402 22.7998 341.578 22.7998 345.204 22.7998C348.105 22.7998 351.731 22.7999 355.357 22.0747C356.082 22.0747 356.807 22.0747 357.533 22.0747C358.983 22.0747 359.708 22.0747 360.433 22.0747C362.609 22.0747 364.059 23.5252 364.059 25.7008C364.059 27.1513 363.334 27.8765 361.884 29.3269C353.906 35.1287 348.83 44.5564 348.83 51.8087C348.83 59.0609 353.906 64.1371 361.884 64.1371C374.212 64.1371 376.388 53.9843 376.388 48.1825C376.388 45.2817 375.663 37.3037 372.037 28.601V27.876C370.586 25.7003 370.586 24.25 370.586 23.5248C370.586 22.0744 372.037 19.8987 374.212 19.8987C375.663 19.8987 376.388 20.6241 377.838 22.7998C381.464 27.8763 385.816 32.9527 392.342 38.0293C393.068 38.7545 393.793 39.4799 393.793 40.9303C393.793 43.106 392.342 44.5564 390.167 44.5564C388.716 44.5564 387.991 43.8309 385.816 42.3804C384.365 40.93 382.915 39.4795 381.464 38.7543C382.19 41.6552 382.19 44.5564 382.19 48.1825C382.915 64.8626 372.037 70.6642 361.884 70.6642ZM374.212 24.9749C374.212 24.9749 374.212 25.7008 374.937 25.7008L375.663 26.4259C376.388 27.1511 376.388 28.6017 377.113 29.3269C377.113 29.3269 377.113 29.3262 377.838 28.601C375.663 27.8758 374.937 26.4253 374.212 24.9749ZM356.807 26.4259C356.807 26.4259 357.533 26.4259 356.807 26.4259C357.533 27.1511 357.533 27.876 357.533 27.876C358.258 27.1507 358.258 27.1511 358.983 26.4259C358.983 26.4259 359.708 26.4261 359.708 25.7008C358.983 25.7008 358.258 25.7008 358.258 25.7008C357.532 26.4261 357.533 26.4259 356.807 26.4259ZM386.541 31.5021C384.365 31.5021 384.365 30.777 382.19 27.1509L381.464 25.7008C380.739 24.2504 379.289 22.7999 378.564 22.0747C377.838 21.3495 377.838 20.6239 377.838 19.8987C377.838 18.4483 378.564 16.2726 381.464 16.2726C382.915 16.2726 383.64 16.9982 387.266 22.0747C387.991 23.5252 390.892 26.4253 390.892 28.601C390.167 30.0515 387.991 31.5021 386.541 31.5021ZM393.068 27.876C391.617 27.876 390.892 27.1507 388.716 24.2499V23.5248C388.716 22.7996 387.266 21.3491 386.541 19.8987C385.816 19.1735 385.09 17.7227 385.09 17.7227C385.09 17.7227 384.365 16.998 384.365 15.5475C384.365 14.8223 385.09 13.3715 385.816 13.3715C386.541 12.6463 387.266 12.6465 388.716 12.6465C390.167 12.6465 391.617 14.8218 393.793 17.7227V18.4486C395.243 19.8991 397.419 23.5245 397.419 24.9749C396.694 26.4253 395.243 27.876 393.068 27.876Z" fill="black"></path><path d="M411.196 29.3268C410.471 29.3268 409.745 29.3268 409.745 29.3268C408.295 29.3268 408.295 28.6012 408.295 27.1508C408.295 25.7003 409.02 25.7007 409.745 25.7007C409.745 25.7007 415.547 24.9748 416.272 24.9748L455.433 22.0746H457.609C458.334 22.0746 459.059 22.0741 459.059 24.2497C459.059 25.7002 458.334 25.7005 455.433 26.4257C443.105 27.8762 428.601 36.5786 428.601 48.9074C428.601 56.8848 434.402 61.9611 444.555 64.1368C448.181 64.862 448.181 64.8624 448.181 66.3128C448.181 66.3128 448.181 68.4879 446.006 68.4879C444.555 68.4879 439.479 67.0382 435.853 65.5878C432.952 64.1373 424.249 59.7857 424.249 48.9074C424.249 38.7543 431.502 30.7772 443.83 25.7007L411.196 29.3268Z" fill="black"></path><path d="M445.276 69.9391C443.101 69.9391 438.024 68.4884 434.398 67.038C424.245 62.6867 422.07 54.7092 422.07 48.9074C422.07 40.9299 426.421 34.4026 434.398 28.6008L411.917 30.7768C411.192 30.7768 410.466 30.7768 409.741 30.7768C407.566 30.7768 406.115 29.3264 406.115 27.1507C406.115 25.7002 406.84 24.2498 408.291 23.5246C409.016 23.5246 415.543 22.7995 415.543 22.7995L453.979 19.8984H456.154C459.055 19.8984 459.78 22.0741 459.78 23.5246C459.78 26.4255 457.605 27.1507 453.979 27.1507C441.65 28.6011 429.322 37.3042 429.322 47.4573C429.322 54.7095 433.673 59.0602 443.826 61.2359C447.452 61.9611 448.902 62.6863 448.902 64.862C448.902 67.7629 447.452 69.9391 445.276 69.9391ZM438.75 64.862C440.925 65.5872 443.101 66.313 444.551 66.313C443.826 66.313 443.826 66.313 443.101 66.313C440.925 65.5877 439.475 65.5872 438.75 64.862ZM409.741 27.8757C409.741 27.8757 410.467 27.8757 411.192 27.8757H414.818C412.642 27.1505 410.466 27.8757 409.741 27.8757ZM444.551 24.9747C445.276 25.6999 445.276 25.6999 444.551 24.9747C444.551 25.6999 444.551 25.7004 444.551 26.4256C446.727 25.7004 449.628 24.9748 452.528 24.2496L444.551 24.9747ZM456.154 24.2496C455.429 24.2496 455.429 24.2496 456.154 24.2496C455.429 24.2496 455.429 24.2496 456.154 24.2496Z" fill="black"></path><path d="M498.214 43.1057H484.436C480.084 43.1057 478.634 41.6558 478.634 37.3045V23.5252C478.634 22.8 478.634 22.0751 480.084 22.0751C481.535 22.0751 481.535 22.8 481.535 23.5252V37.3045C481.535 39.4801 482.985 40.2055 484.436 40.2055H498.214V19.1741C498.214 18.4489 498.214 17.7231 499.665 17.7231C501.115 17.7231 501.115 18.4489 501.115 19.1741V40.2055H514.894C517.07 40.2055 517.795 39.4801 517.795 37.3045V23.5252C517.795 22.8 517.795 22.0751 519.245 22.0751C520.696 22.0751 520.696 22.8 520.696 23.5252V37.3045C520.696 41.6558 519.245 43.1057 514.894 43.1057H501.115V67.0381H517.07C519.245 67.0381 519.971 66.3127 519.971 64.1371V51.8088C519.971 51.0835 519.971 50.3578 521.421 50.3578C522.872 50.3578 522.872 51.0835 522.872 51.8088V64.1371C522.872 68.4883 521.421 69.9391 517.07 69.9391H480.809C476.458 69.9391 475.008 68.4883 475.008 64.1371V51.8088C475.008 51.0835 475.008 50.3578 476.458 50.3578C477.909 50.3578 477.909 51.0835 477.909 51.8088V64.1371C477.909 66.3127 479.359 67.0381 480.809 67.0381H496.764V43.1057H498.214Z" fill="black"></path><path d="M518.525 72.1137H482.264C477.188 72.1137 474.287 69.9382 474.287 64.1365V51.8083C474.287 48.9075 475.738 48.1823 477.913 48.1823C480.089 48.1823 481.539 49.6327 481.539 51.8083V64.1365C481.539 64.8617 481.539 65.5875 482.99 65.5875H497.494V45.2813H485.165C480.089 45.2813 477.188 43.1058 477.188 37.3042V23.525C477.188 20.6242 478.638 19.899 480.814 19.899C482.99 19.899 484.44 21.3494 484.44 23.525V37.3042C484.44 38.0294 484.44 38.7542 485.89 38.7542H497.494V19.899C497.494 16.9982 498.944 16.2729 501.12 16.2729C503.295 16.2729 504.746 17.7234 504.746 19.899V38.7542H516.349C517.799 38.7542 517.8 38.7546 517.8 37.3042V23.525C517.8 20.6242 519.25 19.899 521.426 19.899C523.601 19.899 525.052 21.3494 525.052 23.525V37.3042C525.052 42.3806 522.876 45.2813 517.074 45.2813H504.746V65.5875H519.25C519.975 65.5875 520.7 65.587 520.7 64.1365V51.8083C520.7 48.9075 522.151 48.1823 524.326 48.1823C526.502 48.1823 527.952 49.6327 527.952 51.8083V64.1365C525.777 69.213 523.601 72.1137 518.525 72.1137ZM499.669 68.4876C500.395 67.7624 500.395 67.7624 499.669 68.4876C500.395 67.7624 500.395 67.7624 499.669 68.4876ZM499.669 41.6552C499.669 41.6552 499.669 42.3805 499.669 41.6552C500.395 42.3805 500.394 41.6552 500.394 41.6552C500.394 41.6552 500.395 41.6552 499.669 41.6552Z" fill="black"></path><path d="M548.252 41.6552H542.45C541.725 41.6552 541 41.6555 541 40.2051C541 38.7546 542.45 38.7541 542.45 38.7541H548.252V23.5246H542.45C541.725 23.5246 541 23.5249 541 22.0745C541 20.624 542.45 20.6235 542.45 20.6235H557.68C558.405 20.6235 559.13 20.624 559.13 22.0745C559.13 23.5249 557.68 23.5246 557.68 23.5246H551.153V38.7541H556.229C556.954 38.7541 557.68 38.7546 557.68 40.2051C557.68 41.6555 556.229 41.6552 556.229 41.6552H551.153V57.6098C553.328 56.8846 555.504 56.1597 556.229 56.1597C557.68 55.4345 558.405 55.4346 558.405 55.4346C559.13 55.4346 559.855 56.1595 559.855 56.8847C559.855 58.3352 559.855 58.3354 555.504 59.7858C549.702 61.2363 542.45 62.6869 542.45 62.6869C541.725 62.6869 541 61.9611 541 61.2359C541 59.7855 541.725 59.7858 542.45 59.7858C543.901 59.0606 546.802 59.0609 548.977 58.3357V41.6552H548.252ZM566.382 51.8085C562.756 51.8085 562.031 50.3575 562.031 46.7314V24.2496C562.031 20.6235 563.481 19.8984 566.382 19.8984H587.413C591.039 19.8984 592.49 21.3487 592.49 24.2496V46.7314C592.49 50.3575 591.039 51.8085 587.413 51.8085H582.337V65.588C582.337 67.7636 583.787 67.7631 585.237 67.7631C589.589 67.7631 590.314 67.7633 590.314 67.0381C590.314 66.3128 590.314 65.5873 591.039 61.2359C591.039 59.7855 591.039 59.0608 592.49 59.0608C593.215 59.0608 593.94 59.7856 593.94 60.5109C593.94 61.9613 593.215 67.7636 592.49 69.2141C591.764 70.6645 591.039 70.6642 583.787 70.6642C580.886 70.6642 578.711 69.9393 578.711 65.588V51.8085H572.184C571.459 57.6103 569.283 64.1368 560.581 68.4882C557.68 69.9386 554.779 70.6642 554.054 70.6642C553.329 70.6642 552.603 69.9386 552.603 68.4882C552.603 67.7629 553.329 67.0381 554.054 67.0381C562.031 64.8624 567.833 61.2366 569.283 51.0835H566.382V51.8085ZM564.932 29.3267H588.864V24.9747C588.864 23.5242 588.138 22.7995 586.688 22.7995H567.107C565.657 22.7995 564.932 23.5242 564.932 24.9747V29.3267ZM588.864 32.2269H564.932V38.7541H588.864V32.2269ZM564.932 41.6552V46.7314C564.932 48.1819 565.657 48.9074 567.107 48.9074H586.688C588.138 48.9074 588.864 48.1819 588.864 46.7314V41.6552H564.932Z" fill="black"></path><path d="M554.059 72.8396C551.883 72.8396 550.433 71.3892 550.433 69.2136C550.433 68.4883 550.433 67.0378 553.334 66.3125C560.586 64.1369 565.662 61.2356 567.112 53.9835H566.387C562.036 53.9835 559.86 51.8086 559.86 47.4573V41.6553C559.86 43.1057 558.41 43.8313 556.234 43.8313H553.334V56.1595C554.784 56.1595 555.509 55.4344 556.234 55.4344C558.41 54.7092 558.41 54.7094 559.135 54.7094C560.586 54.7094 562.036 56.1598 562.036 58.3354C562.036 61.2363 560.586 61.2361 556.234 62.6865C551.158 64.1369 543.181 65.5875 542.455 65.5875C541.005 65.5875 539.555 64.1371 539.555 61.9615C539.555 59.7859 541.73 59.0605 541.73 59.0605C543.181 58.3353 545.356 58.3347 546.807 57.6095V43.8313H543.181C540.28 43.8313 539.555 42.3809 539.555 40.2053C539.555 38.0296 540.28 36.5792 543.181 36.5792H546.807V24.9752H543.181C540.28 24.9752 539.555 23.5255 539.555 22.0751C539.555 20.6247 540.28 19.1741 543.181 19.1741H558.41C559.86 19.1741 560.586 19.8989 561.311 20.6241C562.036 18.4485 564.212 17.7231 567.112 17.7231H588.143C592.495 17.7231 594.67 19.8989 594.67 24.2502V46.7314C594.67 51.0827 592.495 53.2585 588.143 53.2585H585.243V64.8616C585.243 65.5868 585.968 65.5875 585.968 65.5875C587.418 65.5875 588.869 65.5875 589.594 65.5875C589.594 64.8623 589.594 64.1369 589.594 62.6865V61.2356C589.594 59.7852 589.594 56.8845 593.22 56.8845C595.396 56.8845 596.846 58.3349 596.846 60.5105C596.846 61.2357 596.846 67.763 595.396 69.9386C593.945 72.1142 592.495 72.1137 585.243 72.1137C582.342 72.1137 578.716 71.3892 578.716 65.5875V53.2585H575.815C574.365 59.0601 572.189 65.5873 563.486 69.9386C559.135 71.389 555.509 72.8396 554.059 72.8396ZM549.708 59.0605C549.708 59.0605 549.708 59.7857 549.708 59.0605C549.708 59.7857 550.433 59.7857 549.708 59.0605C550.433 59.0605 550.433 59.7857 549.708 59.0605ZM570.738 51.0834C570.738 51.0834 571.464 51.0834 570.738 51.0834V51.0834ZM580.166 51.0834C580.891 51.0834 580.891 51.0834 580.166 51.0834C580.891 51.0834 580.891 51.0834 580.166 51.0834ZM566.387 43.1054V46.7314V47.4573H585.968H586.693V43.8313H566.387V43.1054ZM548.982 40.2053C549.707 40.2053 549.707 40.2053 548.982 40.2053C549.707 40.2053 549.708 40.2053 549.708 40.2053C549.708 40.2053 549.707 40.2053 548.982 40.2053C549.707 40.2053 549.707 40.2053 548.982 40.2053ZM553.334 36.5792H556.96C559.135 36.5792 559.86 38.0291 560.586 38.7543V24.2502C559.86 24.9754 559.135 24.9752 558.41 24.9752H553.334V36.5792ZM566.387 36.5792H586.693V33.6782H566.387V36.5792ZM589.594 30.7772C589.594 30.7772 590.319 30.7772 589.594 30.7772C590.319 30.7772 589.594 30.7772 589.594 30.7772ZM566.387 27.8762H586.693V24.9752C586.693 24.9752 586.693 24.2502 585.968 24.2502H566.387C566.387 24.2502 565.662 24.25 565.662 24.9752V27.8762H566.387Z" fill="black"></path><path d="M285.733 151.888C283.558 151.888 282.107 150.438 282.107 148.262V144.636C282.107 142.46 283.558 141.01 285.733 141.01C287.909 141.01 289.359 142.46 289.359 144.636V148.262C289.359 150.438 287.909 151.888 285.733 151.888Z" fill="black"></path><path d="M285.733 204.104C283.558 204.104 282.107 202.654 282.107 200.478V193.951C282.107 191.776 283.558 190.325 285.733 190.325C287.909 190.325 289.359 191.776 289.359 193.951V200.478C289.359 202.654 287.909 204.104 285.733 204.104ZM285.733 177.997C283.558 177.997 282.107 176.546 282.107 174.371V167.844C282.107 165.668 283.558 164.218 285.733 164.218C287.909 164.218 289.359 165.668 289.359 167.844V174.371C289.359 176.546 287.909 177.997 285.733 177.997Z" fill="black"></path><path d="M285.733 227.311C283.558 227.311 282.107 225.861 282.107 223.685V220.059C282.107 217.883 283.558 216.433 285.733 216.433C287.909 216.433 289.359 217.883 289.359 220.059V223.685C289.359 225.136 287.909 227.311 285.733 227.311Z" fill="black"></path><path d="M267.602 217.885L285.732 249.793L303.862 217.885H267.602Z" fill="black"></path><path d="M601.828 0H415.828V85H601.828V0Z" fill="#040000"></path></svg> 