<?xml version="1.0" encoding="UTF-8"?> <svg xmlns="http://www.w3.org/2000/svg" width="808" height="377" viewBox="0 0 808 377" fill="none"><path d="M7.25706 27.5586C6.53185 27.5586 5.80664 27.5581 5.80664 26.1076C5.80664 24.6572 7.25706 24.6575 7.25706 24.6575H53.6702C54.3954 24.6575 55.1207 24.6572 55.1207 26.1076C55.1207 27.5581 53.6702 27.5586 53.6702 27.5586H34.0897C34.0897 34.8108 32.6393 42.7875 27.5628 48.5893C23.2116 53.6658 16.6847 55.8415 15.9595 55.8415C14.5091 55.8415 14.5091 54.3915 14.5091 53.6663C14.5091 52.9411 14.5091 52.9408 16.6847 51.4903C29.7384 46.4138 30.4636 35.536 30.4636 27.5586H7.25706V27.5586ZM47.1434 9.4281C47.8686 9.4281 48.5938 9.42775 48.5938 10.8782C48.5938 12.3286 47.1434 12.3283 47.1434 12.3283H13.7839C13.0587 12.3283 12.3335 12.3286 12.3335 10.8782C12.3335 9.42775 13.0587 9.4281 13.7839 9.4281H47.1434Z" fill="black"></path><path d="M15.2303 57.2926C13.0546 57.2926 11.6042 55.117 11.6042 53.6665C11.6042 51.4909 13.0546 50.7657 15.2303 50.0405C26.1084 45.6892 28.284 37.7117 28.284 29.0092H7.25299C5.07737 29.0092 3.62695 27.5587 3.62695 25.3831C3.62695 23.9327 4.35216 21.757 7.25299 21.757H53.6662C55.8418 21.757 57.2922 23.2075 57.2922 25.3831C57.2922 27.5587 55.8418 29.0092 53.6662 29.0092H35.536C35.536 36.2613 34.0856 43.5137 28.284 49.3154C23.9327 55.1171 16.6807 57.2926 15.2303 57.2926ZM31.1848 26.1081C31.91 26.8333 32.6352 27.5591 32.6352 27.5591C32.6352 28.2843 32.6352 29.009 32.6352 29.7342C32.6352 29.009 32.6352 28.2836 32.6352 26.8332C32.6352 26.108 33.3604 25.3831 34.0856 25.3831L31.1848 26.1081ZM47.1393 14.5049H13.7798C10.879 14.5049 10.1538 12.3293 10.1538 10.8789C10.1538 8.70323 11.6042 7.25281 13.7798 7.25281H46.4141C49.315 7.25281 50.0402 8.70323 50.0402 10.8789C50.7654 13.0545 49.315 14.5049 47.1393 14.5049Z" fill="black"></path><path d="M127.636 13.7796C126.911 13.7796 126.186 13.7791 126.186 12.3286C126.186 10.8782 127.636 10.8785 127.636 10.8785H156.645C158.82 10.8785 161.721 10.8785 161.721 14.5046C161.721 18.1307 156.645 27.5583 152.293 33.3601C155.194 35.5357 162.446 42.063 169.698 50.0404C170.424 51.4908 171.149 51.4903 171.149 52.2155C171.149 52.9407 170.424 54.3915 168.973 54.3915C168.248 54.3915 167.523 53.6666 166.798 52.9414C159.545 44.2388 153.744 39.162 150.118 36.2611C139.24 49.315 125.461 55.1165 124.736 55.1165C123.285 55.1165 123.285 54.3919 123.285 52.9414C123.285 52.2162 123.285 52.2159 125.461 50.7654C151.568 37.7115 158.095 15.9549 158.095 15.2297C158.095 14.5044 157.37 13.7796 155.919 13.7796H127.636V13.7796Z" fill="black"></path><path d="M124.731 56.5676C122.556 56.5676 121.105 55.1172 121.105 52.9415C121.105 50.7659 122.556 50.0407 124.006 49.3155C147.213 38.4373 154.465 19.5814 155.19 15.2301H127.632C124.732 15.2301 124.006 13.7797 124.006 11.6041C124.006 10.8789 124.006 7.97803 127.632 7.97803H156.641C158.816 7.97803 163.893 7.97838 163.893 13.7801C163.893 18.1313 158.816 26.8336 155.19 32.6353C158.816 35.5362 165.343 41.3375 171.145 48.5896C171.87 50.04 172.595 50.7654 172.595 51.4906C172.595 53.6662 171.145 55.1166 168.969 55.1166C166.793 55.1166 166.068 53.6667 165.343 52.9415C159.541 45.6894 154.465 40.6123 150.839 37.7114C139.236 50.7652 126.182 56.5676 124.731 56.5676ZM164.618 47.1395C165.343 48.5899 166.793 49.3151 167.519 50.7656L168.244 51.4906L167.519 50.7656C166.793 49.3151 166.068 48.5899 164.618 47.1395ZM150.114 32.6353C150.114 33.3605 149.389 33.3602 149.389 34.0854C149.389 34.0854 149.389 34.0854 150.114 34.0854H150.839C150.114 33.3602 150.114 33.3605 150.114 32.6353ZM157.366 12.3291C158.091 12.3291 159.541 13.7797 159.541 15.2301C159.541 15.2301 158.816 17.4061 157.366 21.0321C158.816 18.1313 159.541 15.9555 159.541 14.5051C160.267 13.0547 159.541 12.3291 157.366 12.3291Z" fill="black"></path><path d="M198.708 55.1167C198.708 55.8419 198.708 56.5676 197.258 56.5676C195.807 56.5676 195.082 55.8419 195.082 55.1167V7.25198C195.082 6.52675 195.082 5.80188 196.532 5.80188C197.983 5.80188 198.708 6.52675 198.708 7.25198V22.4815C211.762 28.2833 217.563 32.6349 223.365 36.261C224.816 37.7114 225.541 37.7118 225.541 38.437C225.541 39.1622 224.816 40.6122 224.09 40.6122C223.365 40.6122 223.365 40.6127 220.464 38.437C213.212 33.3604 205.235 29.0086 199.433 26.1077V55.1167H198.708Z" fill="black"></path><path d="M196.528 58.7421C195.078 58.7421 192.902 58.7421 192.902 55.116V7.2525C192.902 5.07688 194.353 3.62646 196.528 3.62646C198.704 3.62646 200.154 5.07688 200.154 7.2525V21.7567C211.758 26.8331 218.285 31.1847 223.361 34.8107L224.086 35.5358C225.537 36.261 226.987 37.7114 226.987 39.1618C226.987 41.3374 225.537 42.7878 223.361 42.7878C221.911 42.7878 221.185 42.0623 219.01 40.6119C212.483 35.5354 205.231 31.9094 200.88 29.7338V55.116C200.154 57.2916 198.704 58.7421 196.528 58.7421ZM196.528 55.116V26.8327C196.528 26.1075 196.528 25.3827 197.254 25.3827H197.979H197.254C196.528 25.3827 195.803 24.6578 195.803 23.9326V8.70256L196.528 55.116ZM217.559 35.5358C218.285 36.261 219.735 36.9857 220.46 37.7109C221.911 39.1613 222.636 39.8868 223.361 39.8868C223.361 39.8868 222.636 39.1618 221.911 39.1618L221.185 38.4368C219.735 36.9864 219.01 36.261 217.559 35.5358Z" fill="black"></path><path d="M253.09 19.581C254.54 15.9549 255.266 12.3287 255.266 8.70259C255.266 6.52691 255.266 5.80239 257.441 5.80239C258.166 5.80239 259.617 6.52726 259.617 7.25249C259.617 7.97772 258.892 12.3289 257.441 18.856C258.166 18.856 258.892 18.856 260.342 18.856C272.671 18.856 273.396 26.1082 273.396 33.3605C273.396 51.4912 268.319 54.3923 261.067 54.3923C255.266 54.3923 255.266 52.9415 255.266 52.2162C255.266 51.491 255.991 50.7661 256.716 50.7661H258.167C259.617 50.7661 260.342 50.7661 261.067 50.7661C266.144 50.7661 269.77 49.3157 269.77 32.6354C269.77 26.1084 269.045 21.032 260.342 21.032C258.892 21.032 257.441 21.032 256.716 21.032C253.09 36.987 248.739 45.6894 245.113 51.4912C244.388 52.9416 243.662 53.6672 242.937 53.6672C242.937 53.6672 240.762 53.6667 240.762 52.2162C240.762 51.491 240.762 51.4917 242.212 49.316C246.563 42.0638 250.189 31.9102 253.09 21.757C250.914 21.757 240.762 23.9331 240.036 23.9331C239.311 23.9331 238.586 23.2073 238.586 22.4821C238.586 21.0316 239.311 21.032 241.487 21.032L253.09 19.581ZM280.648 22.4821C284.999 29.0091 286.45 35.5362 286.45 36.9866C286.45 38.4371 285.724 38.4376 284.274 38.4376C282.824 38.4376 282.823 37.7122 282.823 35.5365C281.373 29.0095 277.747 22.4824 272.671 17.4059C270.495 15.2302 270.495 15.23 270.495 14.5048C270.495 13.7795 271.22 13.0547 271.945 13.0547C274.121 13.7799 278.472 19.5812 280.648 22.4821ZM285.724 15.2298C285.724 15.955 284.999 16.6808 283.549 16.6808C282.823 16.6808 282.823 16.6808 279.923 13.0547C279.197 12.3294 277.022 10.153 275.571 8.70259C274.846 7.97736 274.846 7.97772 274.846 7.25249C274.846 6.52726 275.571 5.80239 276.297 5.80239C279.923 6.52762 285.724 14.5046 285.724 15.2298ZM292.976 10.8786C292.976 11.6039 292.251 12.3287 290.801 12.3287C290.076 12.3287 290.076 12.3287 287.175 8.70259C286.45 7.97736 284.274 5.80186 282.823 4.3514C282.098 3.62618 282.098 3.62653 282.098 2.9013C282.098 2.17608 282.823 1.45032 283.549 1.45032C286.45 1.45032 292.976 10.1534 292.976 10.8786Z" fill="black"></path><path d="M259.62 56.5675C257.444 56.5675 251.643 56.5668 251.643 52.2155C251.643 50.0398 253.093 48.5894 254.544 48.5894C255.269 48.5894 255.994 48.5894 256.719 48.5894C257.444 48.5894 258.895 48.5894 259.62 48.5894C263.246 48.5894 266.872 48.5898 266.872 32.6349C266.872 26.1079 266.147 23.2067 259.62 23.2067C258.895 23.2067 258.17 23.2067 257.444 23.2067C254.544 35.5354 250.918 44.964 245.841 52.9414C245.116 54.3919 244.391 55.8416 242.215 55.8416C240.765 55.8416 238.589 55.1164 238.589 52.2155C238.589 50.7651 238.589 50.7651 240.04 48.5894C243.666 42.0624 247.292 33.3605 250.192 23.9326C248.742 23.9326 246.566 24.6577 245.116 24.6577C240.04 25.3829 240.04 25.3827 240.04 25.3827C237.864 25.3827 237.139 23.9323 237.139 21.7566C237.139 18.8557 239.314 18.8557 242.215 18.1305L253.093 16.6804C253.818 13.7795 254.544 10.8783 254.544 7.2522C254.544 5.80176 255.269 2.90106 258.17 2.90106C260.345 2.90106 261.796 4.3515 261.796 6.52716C261.796 7.25238 261.07 11.6032 260.345 15.9545C274.849 15.9545 275.575 26.1079 275.575 32.6349C274.124 50.7654 269.773 56.5675 259.62 56.5675ZM253.818 21.7566C253.818 22.4818 253.818 21.7566 253.818 21.7566C254.544 21.7566 255.269 21.0316 255.994 21.0316C255.994 21.0316 255.994 21.0317 255.994 20.3065C254.544 21.0317 254.544 21.0314 253.818 21.7566ZM284.277 40.6122C281.376 40.6122 281.376 38.4367 280.651 36.261C279.201 29.734 276.3 23.9321 271.223 18.8555C269.048 16.6799 268.323 15.9547 268.323 15.2294C268.323 13.779 269.773 12.3284 271.949 12.3284C275.575 12.3284 280.651 20.3062 281.376 21.7566C285.727 28.2836 287.178 35.5356 287.178 36.9861C287.903 39.1617 286.453 40.6122 284.277 40.6122ZM284.277 18.8555C282.827 18.8555 282.101 18.1303 279.926 15.2294L279.201 14.5044C278.475 13.7792 276.3 11.6037 275.575 10.1533C274.849 9.42804 274.124 8.70247 274.124 7.97725C274.124 6.5268 275.575 4.35114 277.75 4.35114C280.651 4.35114 287.903 13.779 287.903 15.2294C287.903 17.4051 286.453 18.8555 284.277 18.8555ZM290.804 14.5044C289.353 14.5044 288.628 13.7794 285.727 10.1533C285.002 9.42804 282.827 7.25256 282.101 5.80212C281.376 5.0769 281.376 4.35132 281.376 3.6261C281.376 1.45044 282.827 0 285.002 0C287.903 0 295.155 8.70264 295.155 10.8783C294.43 12.3287 292.98 14.5044 290.804 14.5044Z" fill="black"></path><path d="M394.511 21.7565C397.412 21.7565 401.038 21.7563 401.038 26.1076C401.038 29.7337 396.687 38.4363 390.885 44.2381C382.908 51.4902 371.304 55.1163 370.579 55.1163C369.854 55.1163 369.129 54.3915 369.129 53.6663C369.129 52.2158 369.854 52.2155 372.03 51.4902C393.06 44.9633 398.137 28.2833 398.137 26.1076C398.137 24.6572 395.961 24.6575 395.236 24.6575H358.976C358.251 24.6575 357.525 24.657 357.525 23.2065C357.525 21.7561 358.251 21.7565 358.976 21.7565H394.511V21.7565ZM394.511 9.4281C395.236 9.4281 395.961 9.42775 395.961 10.8782C395.961 12.3286 394.511 12.3283 394.511 12.3283H362.602C361.877 12.3283 361.151 12.3286 361.151 10.8782C361.151 9.42775 362.602 9.4281 362.602 9.4281H394.511Z" fill="black"></path><path d="M369.854 58.0177C367.678 58.0177 366.227 56.5673 366.227 54.3916C366.227 52.216 367.678 51.4908 369.854 50.7656C390.884 44.2387 394.511 27.5591 394.511 27.5591C394.511 27.5591 393.785 27.5591 393.06 27.5591H356.8C353.174 27.5591 353.174 24.6583 353.174 23.9331C353.174 21.7574 354.624 20.307 356.8 20.307H393.785C395.961 20.307 401.763 20.3063 401.763 26.8332C401.763 30.4593 397.411 39.8876 390.884 46.4145C384.358 53.6666 372.029 58.0177 369.854 58.0177ZM396.686 23.9331C398.137 24.6583 398.862 26.108 398.862 26.8332C398.862 27.5584 398.862 28.284 398.137 29.0092C398.862 27.5588 398.862 26.8334 398.862 26.1082C398.862 24.6577 398.137 23.9331 396.686 23.9331ZM394.511 14.5049H362.601C359.701 14.5049 358.975 13.0545 358.975 10.8789C358.975 9.42845 359.701 7.25281 362.601 7.25281H394.511C397.411 7.25281 398.137 8.70323 398.137 10.8789C398.137 12.3293 397.411 14.5049 394.511 14.5049Z" fill="black"></path><path d="M429.324 13.0543C429.324 13.7795 426.423 31.1844 416.996 46.4138C415.545 48.5895 413.37 51.49 412.644 51.49C411.919 51.49 410.469 50.7651 410.469 50.0399C410.469 49.3147 410.469 49.3145 411.919 47.1389C413.37 44.238 420.622 34.8101 424.248 18.8555C424.248 18.1302 424.973 13.0536 425.698 12.3284C425.698 11.6032 426.423 11.6033 427.149 11.6033C428.599 11.6033 429.324 12.3291 429.324 13.0543ZM446.004 13.7793C457.607 33.36 459.783 48.5897 459.783 49.3149C459.783 50.7653 458.332 50.7649 457.607 50.7649C456.157 50.7649 456.157 50.0397 455.432 47.1389C452.531 35.5355 448.179 24.6573 442.378 14.5044C441.653 13.7791 441.653 13.0543 441.653 13.0543C441.653 12.3291 442.378 11.6033 443.828 11.6033C444.553 11.6033 445.279 12.3289 446.004 13.7793ZM455.432 10.1533C457.607 13.0541 458.332 15.2292 458.332 15.9544C458.332 16.6796 457.607 17.4054 456.882 17.4054C456.157 17.4054 455.432 16.6798 454.706 15.2294C453.256 13.0538 451.805 10.8781 450.355 7.97728C450.355 7.97728 449.63 7.25242 449.63 6.52721C449.63 5.802 450.355 5.07625 451.806 5.07625C452.531 5.80147 453.256 6.52721 455.432 10.1533ZM462.684 5.80217C463.409 7.2526 466.31 11.6032 466.31 12.3284C466.31 13.0536 465.584 13.7793 464.859 13.7793C464.134 13.7793 463.409 13.0543 461.958 9.42823C461.233 7.97781 461.233 7.25207 459.058 4.35122C459.058 3.62601 458.332 3.62636 458.332 2.90115C458.332 2.17594 459.058 1.4502 460.508 1.4502C460.508 2.90062 460.508 2.90133 462.684 5.80217Z" fill="black"></path><path d="M412.648 54.3922C410.472 54.3922 409.021 52.9417 409.021 50.7661C409.021 49.3156 409.022 49.3156 411.197 47.14C413.373 43.5139 419.9 34.811 422.8 19.5814C422.8 19.5814 422.8 18.8567 422.8 17.4063C423.526 15.2306 423.526 13.0545 423.526 12.3292C423.526 10.8788 424.976 10.1541 426.426 10.1541C428.602 10.1541 430.052 11.6046 430.052 13.7802C430.052 15.2306 427.152 33.3605 417.724 48.5901C416.274 52.2162 414.823 54.3922 412.648 54.3922ZM423.526 29.7346C419.9 39.8877 416.274 45.6894 414.098 47.865V48.5901C413.373 49.3153 412.648 50.7661 412.648 50.7661C413.373 50.0409 414.823 47.1402 415.548 46.415C419.174 40.6132 421.35 34.8111 423.526 29.7346ZM427.877 13.0552C427.877 13.7804 427.152 15.9559 427.152 17.4063C427.152 18.1315 427.152 18.8562 426.426 19.5814C425.701 21.7571 424.976 23.9329 424.976 26.1085C427.152 18.8564 427.877 13.7804 427.877 13.0552ZM458.336 52.9421C455.435 52.9421 454.709 50.7659 453.984 47.865C451.083 36.2616 446.732 25.3833 440.931 15.2303C440.205 13.7799 440.205 13.7797 440.205 12.3292C440.205 10.1536 442.381 8.70316 443.831 8.70316C446.007 8.70316 446.732 10.1538 447.457 11.6042C459.061 31.1851 461.962 46.4146 461.962 47.865C461.962 52.2163 459.786 52.9421 458.336 52.9421ZM451.083 27.5595C453.984 34.0865 456.16 40.613 457.61 47.14C457.61 48.5904 458.336 49.3158 458.336 50.041C458.336 48.5906 456.16 39.8882 451.083 27.5595ZM456.885 19.5814C454.709 19.5814 453.984 18.1317 453.259 16.6813C451.809 14.5056 451.083 12.3298 449.633 10.1541C449.633 10.1541 448.908 8.70334 448.908 7.97812C448.908 7.2529 449.633 6.52822 450.358 5.803C451.083 5.07778 452.534 5.07708 453.259 5.07708C454.709 5.07708 455.435 6.52804 458.336 10.1541C459.061 11.6046 461.236 15.2308 461.236 16.6813C459.786 18.1317 458.336 19.5814 456.885 19.5814ZM464.137 15.9553C461.962 15.9553 461.236 14.5052 459.061 10.8792C458.336 9.42873 458.336 9.42891 456.885 6.52804L456.16 5.803C455.435 5.07778 455.435 4.35221 455.435 3.627C455.435 2.90178 456.16 2.17621 456.885 1.45099C457.61 0.725775 459.061 0.725952 459.786 0.725952C461.236 0.725952 461.962 2.17621 464.137 5.07708C467.763 10.8788 467.763 12.33 467.763 13.0552C467.763 14.5056 466.313 15.9553 464.137 15.9553Z" fill="black"></path><path d="M533.748 9.42887C533.748 8.70366 534.474 7.97791 535.199 7.97791C535.924 7.97791 536.649 7.97844 536.649 9.42887C536.649 10.1541 536.649 10.879 536.649 10.879C534.474 18.8564 533.748 26.8341 533.748 34.8115C533.748 38.4376 533.748 44.2394 535.199 49.3159C535.199 49.3159 535.924 52.2168 535.924 52.942C535.924 53.6672 535.199 54.3921 534.474 54.3921C533.023 54.3921 533.023 53.6672 533.023 52.942C532.298 51.4916 530.848 44.9639 530.848 34.0856C530.848 26.8334 533.023 13.055 533.748 9.42887ZM550.428 34.8115C551.153 34.8115 551.879 35.5364 551.879 36.2616C551.879 36.9869 551.879 36.9865 551.153 37.7117C550.428 39.1622 548.253 40.6131 548.253 42.7888C548.253 47.1401 552.604 48.59 562.031 48.59C564.932 48.59 567.833 48.5902 570.734 47.865C571.459 47.865 574.36 47.1399 574.36 47.1399C574.36 47.1399 576.536 47.1396 576.536 48.59C576.536 49.3152 576.536 50.041 575.085 50.041C573.635 50.7662 567.833 50.766 562.757 50.766C554.779 50.766 545.352 50.0412 545.352 42.0637C546.077 39.1629 548.978 34.8115 550.428 34.8115ZM572.91 16.6811C572.91 16.6811 565.658 16.6811 564.207 16.6811C559.131 16.6811 555.505 16.6809 553.329 17.4061C552.604 17.4061 550.428 17.4061 549.703 17.4061C548.253 17.4061 548.253 15.9551 548.253 15.9551C548.253 15.2299 548.253 14.5051 549.703 14.5051C550.428 14.5051 558.405 13.78 562.757 13.78C564.207 13.78 572.184 13.7798 572.91 14.5051C573.635 14.5051 573.635 15.2299 573.635 15.9551C574.36 15.9551 573.635 16.6811 572.91 16.6811Z" fill="black"></path><path d="M535.202 56.5675C533.752 56.5675 532.301 55.8421 531.576 53.6665C531.576 52.9413 529.4 46.4138 529.4 34.0852C529.4 26.1079 531.576 12.3289 532.301 8.70281C533.026 6.52718 534.477 6.52771 535.927 6.52771C537.378 6.52771 539.553 7.97813 539.553 10.1538C539.553 10.879 539.553 11.6037 539.553 12.3289C537.378 20.3062 536.652 27.5588 536.652 35.5362C536.652 41.3379 537.378 45.6893 538.103 49.3154C538.103 49.3154 538.828 52.2162 538.828 52.9414C538.828 55.1171 536.652 56.5675 535.202 56.5675ZM563.485 53.6665C557.683 53.6665 543.905 53.6665 543.905 42.7883C543.905 38.437 547.531 32.6352 550.431 32.6352C551.882 32.6352 554.057 34.0858 554.057 35.5362C554.057 36.2614 554.057 36.9861 553.332 37.7113C552.607 39.1617 551.157 40.6128 551.157 42.0633C551.157 43.5137 551.157 45.6893 563.485 45.6893C566.386 45.6893 569.287 45.6886 571.462 44.9634H572.188C573.638 44.9634 575.088 44.9634 575.088 44.9634C577.264 44.9634 578.714 46.4138 578.714 48.5895C578.714 50.0399 577.989 51.4903 576.539 52.2155C574.363 52.9407 568.562 53.6665 563.485 53.6665ZM549.706 19.581C547.531 19.581 546.08 18.1306 546.08 15.9549C546.08 13.7793 547.531 13.0541 548.981 12.3289C550.431 12.3289 557.683 11.6038 562.035 11.6038C571.462 11.6038 572.913 12.3289 572.913 12.3289C573.638 12.3289 575.088 13.0543 575.088 15.2299C575.088 17.4055 573.638 18.856 571.462 18.856C571.462 18.856 570.737 18.856 570.012 18.856C567.836 18.856 563.485 18.856 562.76 18.856C558.409 18.856 555.508 18.8558 552.607 19.581H551.157C551.882 18.8558 549.706 19.581 549.706 19.581ZM572.913 15.2299V16.6809V15.2299ZM572.913 15.2299C572.913 15.2299 572.188 15.2299 572.913 15.2299V15.2299Z" fill="black"></path><path d="M609.169 30.4587H595.391C591.039 30.4587 589.589 29.0088 589.589 24.6575V10.878C589.589 10.1527 589.589 9.42787 591.039 9.42787C592.49 9.42787 592.49 10.1527 592.49 10.878V24.6575C592.49 26.8331 593.94 27.5585 595.391 27.5585H609.169V6.52679C609.169 5.80156 609.169 5.07581 610.62 5.07581C612.07 5.07581 612.07 5.80156 612.07 6.52679V27.5585H625.849C628.025 27.5585 628.75 26.8331 628.75 24.6575V10.878C628.75 10.1527 628.75 9.42787 630.2 9.42787C631.651 9.42787 631.651 10.1527 631.651 10.878V24.6575C631.651 29.0088 630.2 30.4587 625.849 30.4587H612.07V54.3916H628.025C630.2 54.3916 630.926 53.6662 630.926 51.4905V39.162C630.926 38.4368 630.926 37.711 632.376 37.711C633.826 37.711 633.826 38.4368 633.826 39.162V51.4905C633.826 55.8418 632.376 57.2926 628.025 57.2926H591.765C587.413 57.2926 585.963 55.8418 585.963 51.4905V39.162C585.963 38.4368 585.963 37.711 587.413 37.711C588.864 37.711 588.864 38.4368 588.864 39.162V51.4905C588.864 53.6662 590.314 54.3916 591.765 54.3916H607.719V30.4587H609.169Z" fill="black"></path><path d="M628.753 58.7421H592.493C587.416 58.7421 584.516 56.5666 584.516 50.765V38.4368C584.516 35.5359 585.966 34.8107 588.142 34.8107C590.317 34.8107 591.768 36.2611 591.768 38.4368V50.765C591.768 51.4902 591.768 52.215 593.218 52.215H607.722V31.9097H595.394C590.317 31.9097 588.142 29.7343 588.142 23.9326V10.1535C588.142 7.25262 589.592 6.52741 591.768 6.52741C593.943 6.52741 595.394 7.97783 595.394 10.1535V23.9326C595.394 24.6578 595.394 25.3827 596.844 25.3827H608.447V6.52741C608.447 3.62658 609.898 2.90137 612.073 2.90137C614.249 2.90137 615.7 4.35178 615.7 6.52741V25.3827H627.303C628.753 25.3827 628.753 25.383 628.753 23.9326V10.1535C628.753 7.25262 630.204 6.52741 632.379 6.52741C634.555 6.52741 636.005 7.97783 636.005 10.1535V23.9326C636.005 29.0091 633.83 31.9097 628.028 31.9097H615.7V52.215H630.204C630.929 52.215 631.654 52.2154 631.654 50.765V38.4368C631.654 35.5359 633.104 34.8107 635.28 34.8107C637.456 34.8107 638.906 36.2611 638.906 38.4368V50.765C636.73 56.5666 634.555 58.7421 628.753 58.7421ZM610.623 55.116C611.348 55.116 611.348 55.116 610.623 55.116V55.116ZM610.623 29.0087C611.348 29.7339 611.348 29.0087 611.348 29.0087C611.348 29.0087 611.348 28.2835 610.623 29.0087C610.623 29.0087 610.623 28.2835 610.623 29.0087Z" fill="black"></path><path d="M735.365 37.7112C735.365 44.9634 732.464 48.5901 731.739 50.0405C728.113 54.3919 721.586 58.0179 720.135 58.0179C718.685 58.0179 718.685 56.5678 718.685 56.5678C718.685 55.8425 718.685 55.8424 722.311 53.6667C725.937 52.2162 731.739 48.5899 732.464 39.8872C731.739 41.3376 729.563 44.9634 723.036 44.9634C717.235 44.9634 712.883 40.6121 712.883 34.085C712.883 27.558 717.96 22.4816 723.761 22.4816C725.212 22.4816 729.563 22.4814 732.464 26.8328V17.4053L713.609 18.1304C712.158 18.1304 705.631 18.1304 704.906 18.1304C704.181 18.1304 702.73 18.1307 702.73 16.6803C702.73 15.2298 704.181 15.2293 704.906 15.2293H713.609L733.189 14.5042V7.25198C733.189 5.80153 734.639 5.80188 734.639 5.80188C735.365 5.80188 736.09 6.52675 736.09 7.25198V14.5042H743.342C744.792 14.5042 750.594 14.5042 751.319 14.5042C752.77 14.5042 752.77 15.2291 752.77 15.9543C752.77 17.4048 751.319 17.4053 750.594 17.4053H742.617H735.365V37.7112ZM723.761 25.3827C719.41 25.3827 715.784 28.2834 715.784 33.36C715.784 39.1618 719.41 41.3373 723.761 41.3373C728.838 41.3373 731.739 36.9861 731.739 33.36C731.739 29.7338 729.563 25.3827 723.761 25.3827Z" fill="black"></path><path d="M719.407 59.468C717.231 59.468 715.781 58.0176 715.781 55.8419C715.781 53.6663 716.506 53.6664 720.857 51.4908C723.033 50.7656 726.659 48.5897 728.109 44.9636C726.659 45.6889 724.483 46.4146 722.308 46.4146C715.056 46.4146 709.979 41.3377 709.979 33.3603C709.979 26.1081 715.781 20.3069 723.033 20.3069C725.934 20.3069 728.109 21.0317 729.56 21.757V18.8559L712.155 19.5809C710.704 19.5809 704.177 19.5809 703.452 19.5809C700.551 19.5809 699.826 17.4053 699.826 15.9548C699.826 14.5044 700.551 12.3287 703.452 12.3287H712.155L729.56 11.6037V6.52752C729.56 5.07708 730.285 4.35151 730.285 4.35151C731.01 3.62629 732.46 3.62646 733.186 3.62646C735.361 3.62646 736.812 5.0769 736.812 7.25256V12.3287H744.064C746.239 12.3287 749.866 12.3287 750.591 12.3287C752.766 12.3287 754.217 13.7792 754.217 15.9548C754.217 16.6801 753.492 19.5809 749.865 19.5809H736.812V38.4374C736.812 46.4148 733.911 50.0403 733.186 51.4908C729.56 55.8421 721.582 59.468 719.407 59.468ZM723.758 26.8331C720.132 26.8331 717.956 29.009 717.956 33.3603C717.956 37.7116 720.857 39.1624 723.758 39.1624C727.384 39.1624 730.285 35.5361 730.285 32.6353C729.56 31.1848 728.109 26.8331 723.758 26.8331ZM732.461 37.7114C733.186 37.7114 733.186 37.7121 733.186 38.4374C733.186 38.4374 733.186 38.4367 733.186 37.7114V34.0853C733.186 35.5358 733.186 36.261 732.461 37.7114ZM732.461 29.0092C733.186 30.4596 733.186 31.1848 733.186 32.6353V29.0092C733.186 28.2839 733.186 28.2839 732.461 29.0092C732.461 29.0092 732.461 28.2839 732.461 29.0092ZM732.461 15.2298C733.186 15.955 733.186 15.955 732.461 15.2298C733.186 15.955 733.186 15.9548 733.186 15.9548L733.911 15.2298C733.911 15.2298 733.911 15.2298 733.186 15.2298C733.186 15.2298 733.186 15.23 733.186 14.5048C733.186 15.23 733.186 15.2298 732.461 15.2298C733.186 15.2298 733.186 15.2298 732.461 15.2298Z" fill="black"></path><path d="M769.434 13.0542C768.709 13.0542 767.983 13.0537 767.983 11.6032C767.983 10.1528 769.434 10.1531 770.159 10.1531C775.236 10.1531 782.488 10.1533 787.564 9.42808C789.014 9.42808 794.816 8.70215 796.266 8.70215C798.442 8.70215 799.167 10.1529 799.167 10.8782C799.167 11.6034 799.167 11.6032 794.816 15.2293C787.564 21.0311 782.488 25.3826 778.136 29.0087C782.488 26.8331 786.839 26.1077 791.19 26.1077C801.343 26.1077 807.87 31.9094 807.87 40.6121C807.87 50.04 799.892 57.2926 787.564 57.2926C780.312 57.2926 773.06 54.3913 773.06 47.8643C773.06 42.7878 777.411 39.8871 782.488 39.8871C789.014 39.8871 794.816 44.9633 796.266 52.2155C802.793 49.3146 804.969 43.513 804.969 40.6121C804.969 35.5355 802.068 29.0087 791.19 29.0087C780.312 29.0087 772.335 35.5355 770.884 36.986C766.533 40.6121 765.808 41.3371 765.808 41.3371C765.083 41.3371 764.357 40.6123 764.357 39.8871C764.357 39.1618 764.357 39.1618 767.258 36.2609C767.258 36.2609 791.19 15.9544 795.541 12.3283C786.839 12.3283 776.686 13.0542 769.434 13.0542ZM781.037 42.0631C777.411 42.0631 774.51 44.2386 774.51 46.4142C774.51 50.7656 780.312 52.9414 786.114 52.9414C789.014 52.9414 790.465 52.2155 791.19 52.2155C790.465 45.6885 786.839 42.0631 781.037 42.0631Z" fill="black"></path><path d="M786.843 58.0177C778.866 58.0177 770.163 54.3916 770.163 47.1393C770.163 41.3375 774.514 37.711 781.041 37.711C787.568 37.711 793.37 42.0631 796.271 49.3154C801.347 46.4145 801.347 42.0628 801.347 39.8871C801.347 36.9862 799.897 30.4588 789.019 30.4588C778.866 30.4588 770.888 36.9865 769.438 38.437C765.087 42.7883 764.362 42.7882 762.911 42.7882C760.736 42.7882 759.285 41.3377 759.285 39.162C759.285 37.7116 760.01 36.9865 762.186 34.8108L762.911 34.0849C762.911 34.0849 765.087 32.635 786.843 13.7791C780.316 14.5043 773.789 14.5041 767.988 14.5041C765.812 14.5041 764.362 13.0537 764.362 10.878C764.362 10.1528 764.362 7.25186 767.988 7.25186C773.789 7.25186 781.041 7.25203 785.393 6.52681C786.118 6.52681 786.843 6.52681 787.568 6.52681C790.469 6.52681 793.37 5.80176 794.095 5.80176C796.996 5.80176 798.446 7.97726 798.446 10.1529C798.446 12.3286 798.446 12.3281 793.37 15.9542C789.744 18.8551 786.843 21.7568 783.942 23.9324C785.393 23.9324 787.568 23.2065 789.019 23.2065C799.897 23.2065 807.149 29.7341 807.149 39.162C809.324 50.0404 799.897 58.0177 786.843 58.0177ZM794.095 52.2156V52.9415H794.82C794.82 52.9415 794.82 52.9408 794.095 52.2156C794.095 52.2156 794.82 52.9408 794.095 52.2156ZM781.041 43.5132C778.141 43.5132 776.69 44.9638 776.69 46.4143C776.69 49.3152 781.767 50.7655 786.843 50.7655C788.293 50.7655 789.019 50.7655 789.744 50.7655C788.293 46.4141 785.393 43.5132 781.041 43.5132ZM775.965 29.0087C775.24 29.7339 773.789 30.4593 773.064 31.9098C773.789 30.4593 774.515 29.7339 775.965 29.0087ZM795.545 10.1529C796.271 10.8782 796.271 10.8778 796.271 11.603C796.996 10.8778 796.996 10.878 796.996 10.878C796.271 10.1528 796.271 10.1529 795.545 10.1529Z" fill="black"></path><path d="M3.63011 343.754C2.9049 343.754 2.17969 343.754 2.17969 342.303C2.17969 340.853 3.63011 340.853 3.63011 340.853H50.0433C50.7685 340.853 51.4937 340.853 51.4937 342.303C51.4937 343.754 50.0433 343.754 50.0433 343.754H30.4627C30.4627 351.007 29.0123 358.984 23.9359 364.786C19.5846 369.863 13.0578 372.039 12.3326 372.039C10.8822 372.039 10.8822 370.588 10.8822 369.863C10.8822 369.137 10.8822 369.137 13.0578 367.686C26.1115 362.61 26.8367 351.732 26.8367 343.754H3.63011V343.754ZM42.7912 325.624C43.5164 325.624 44.2416 325.623 44.2416 327.074C44.2416 328.524 42.7912 328.525 42.7912 328.525H10.157C9.43175 328.525 8.70654 328.524 8.70654 327.074C8.70654 325.623 9.43175 325.624 10.157 325.624H42.7912Z" fill="black"></path><path d="M11.6033 373.488C9.42769 373.488 7.97727 371.312 7.97727 369.862C7.97727 367.686 9.42769 366.961 11.6033 366.236C22.4814 361.885 24.657 353.907 24.657 345.205H3.62603C1.45041 345.205 0 343.754 0 341.579C0 340.128 0.725206 337.952 3.62603 337.952H50.0392C52.2149 337.952 53.6653 339.403 53.6653 341.579C53.6653 343.754 52.2149 345.205 50.0392 345.205H31.9091C31.9091 352.457 30.4587 359.709 24.657 365.511C19.5806 371.313 13.0537 373.488 11.6033 373.488ZM26.8326 342.304C26.8326 342.304 27.5578 342.304 26.8326 342.304C27.5578 343.029 28.2831 343.755 28.2831 343.755C28.2831 344.48 28.2831 345.204 28.2831 345.93C28.2831 345.204 28.2831 344.48 28.2831 343.029C28.2831 342.304 29.0083 341.579 29.7335 341.579L26.8326 342.304ZM42.7872 330.7H10.1529C7.25206 330.7 6.52686 328.525 6.52686 327.074C6.52686 324.899 7.97727 323.448 10.1529 323.448H42.7872C45.688 323.448 46.4132 324.899 46.4132 327.074C46.4132 329.25 45.688 330.7 42.7872 330.7Z" fill="black"></path><path d="M79.0532 324.898C78.328 322.723 80.5036 322.722 80.5036 322.722C81.2288 322.722 81.9541 323.447 81.9541 324.172L83.4044 333.601L100.084 330.7C100.809 330.7 102.26 330.7 102.26 332.151C102.26 332.876 101.535 333.601 100.809 333.601L84.1297 336.502L86.3053 348.106L105.886 345.204C108.061 345.204 108.061 346.655 108.061 346.655C108.061 348.106 107.336 348.106 106.611 348.106L87.0305 351.007L90.6565 369.138C91.3817 371.313 89.2061 371.313 88.4809 371.313C87.0305 371.313 87.0305 370.588 87.0305 369.863L83.4044 351.007L60.9231 354.633C59.4727 354.633 59.4727 353.182 59.4727 353.182C59.4727 351.731 60.1979 351.732 60.9231 351.732L83.4044 348.106L81.2288 336.502L64.5491 339.403C62.3735 339.403 62.3735 337.952 62.3735 337.952C62.3735 336.502 63.0987 336.502 63.8239 336.502L80.5036 333.601L79.0532 324.898Z" fill="black"></path><path d="M89.204 374.213C87.7536 374.213 86.3032 373.488 85.578 371.312L82.6771 354.633L61.6461 358.259C60.1957 358.259 59.4705 358.259 58.7453 357.534C58.0201 356.809 57.2949 356.083 57.2949 354.633C57.2949 353.907 57.2949 351.732 60.1958 351.732L81.2267 348.106L79.7763 340.128L64.547 342.304C63.0966 342.304 62.3714 342.304 61.6461 341.578C60.9209 340.853 60.1958 340.128 60.1958 338.677C60.1958 336.502 61.6462 335.777 63.0966 335.051L78.3259 332.876L76.8755 325.624C76.8755 324.174 76.8755 323.448 77.6007 322.723C78.3259 321.273 80.5015 321.273 80.5015 321.273C81.2267 321.273 83.4024 321.272 84.1276 324.173L85.578 332.151L100.082 329.975C100.807 329.975 102.258 329.975 102.983 330.7C103.708 331.425 104.433 332.151 104.433 333.601C104.433 335.052 102.983 336.502 101.532 337.227L87.0284 339.403L88.4788 347.381L106.609 344.48C108.059 344.48 108.785 344.479 109.51 345.205C110.235 345.93 110.96 346.655 110.96 348.106C110.96 349.556 109.51 351.006 108.059 351.732L90.6544 354.633L93.5552 371.312C93.5552 372.763 93.5552 373.488 92.83 374.213C92.1048 373.488 90.6544 374.213 89.204 374.213ZM84.8528 350.282C85.578 350.282 85.578 351.007 86.3032 351.007V350.282C86.3032 350.282 86.3032 350.281 87.0284 349.556C86.3032 349.556 86.3032 348.831 85.578 348.831C85.578 349.556 85.578 349.556 84.8528 350.282ZM81.9519 335.777C82.6772 335.777 82.6771 336.502 83.4023 336.502V335.777C83.4023 335.777 83.4024 335.777 84.1276 335.051C83.4024 335.051 83.4023 334.326 82.6771 334.326C82.6771 335.052 82.6772 335.052 81.9519 335.777C81.9519 335.777 82.6772 335.777 81.9519 335.777Z" fill="black"></path><path d="M124.009 329.975C123.284 329.975 122.559 329.975 122.559 328.525C122.559 327.075 124.009 327.074 124.009 327.074H153.018C155.193 327.074 158.094 327.074 158.094 330.7C158.094 334.326 153.018 343.754 148.666 349.556C151.567 351.732 158.819 358.259 166.071 366.237C166.797 367.687 167.522 367.687 167.522 368.413C167.522 369.138 166.797 370.588 165.346 370.588C164.621 370.588 163.896 369.863 163.171 369.138C155.919 360.435 150.117 355.358 146.491 352.457C135.613 365.511 121.834 371.313 121.109 371.313C119.658 371.313 119.658 370.588 119.658 369.138C119.658 368.412 119.658 368.412 121.834 366.962C147.941 353.907 154.468 332.15 154.468 331.425C154.468 330.7 153.743 329.975 152.292 329.975H124.009V329.975Z" fill="black"></path><path d="M121.105 372.763C118.929 372.763 117.479 371.313 117.479 369.137C117.479 366.961 118.929 366.236 120.379 365.511C143.586 354.633 150.838 335.777 151.563 331.426H124.005C121.105 331.426 120.379 329.975 120.379 327.8C120.379 327.074 120.379 324.173 124.005 324.173H153.014C155.189 324.173 160.266 324.174 160.266 329.975C160.266 334.327 155.189 343.029 151.563 348.831C155.189 351.732 161.716 357.534 167.518 364.786C168.243 366.236 168.968 366.961 168.968 367.686C168.968 369.862 167.518 371.312 165.342 371.312C163.167 371.312 162.441 369.862 161.716 369.137C155.914 361.885 150.838 356.809 147.212 353.908C135.609 366.962 122.555 372.763 121.105 372.763ZM160.991 363.335C161.716 364.785 163.167 365.511 163.892 366.961L164.617 367.686L163.892 366.961C163.167 366.236 161.716 364.785 160.991 363.335ZM146.487 348.831C146.487 349.556 145.762 349.556 145.762 350.282C145.762 350.282 145.762 350.282 146.487 350.282H147.212C146.487 349.556 146.487 349.556 146.487 348.831ZM153.739 328.525C154.464 328.525 155.914 329.975 155.914 331.426C155.914 331.426 155.189 333.602 153.739 337.228C155.189 334.327 155.914 332.151 155.914 330.701C155.914 329.25 155.189 328.525 153.739 328.525Z" fill="black"></path><path d="M194.349 371.312C194.349 372.037 194.349 372.763 192.898 372.763C191.448 372.763 190.723 372.037 190.723 371.312V323.447C190.723 322.722 190.723 321.997 192.173 321.997C193.623 321.997 194.349 322.722 194.349 323.447V338.677C207.402 344.479 213.204 348.83 219.006 352.456C220.456 353.907 221.181 353.907 221.181 354.632C221.181 355.358 220.456 356.807 219.731 356.807C219.006 356.807 219.006 356.808 216.105 354.632C208.853 349.556 200.876 345.204 195.074 342.303V371.312H194.349Z" fill="black"></path><path d="M192.901 374.938C191.451 374.938 189.275 374.938 189.275 371.312V323.448C189.275 321.272 190.726 319.822 192.901 319.822C195.077 319.822 196.527 321.272 196.527 323.448V337.952C208.131 343.029 213.932 347.381 219.734 351.007L220.459 351.732C221.91 352.457 223.36 353.907 223.36 355.358C223.36 357.533 221.91 358.984 219.734 358.984C218.284 358.984 217.558 358.258 215.383 356.808C208.856 351.731 201.604 348.105 197.253 345.93V371.312C195.802 373.488 195.077 374.938 192.901 374.938ZM192.176 371.312V343.029C192.176 342.304 192.176 341.578 192.901 341.578H193.627H192.901C192.176 341.578 191.451 340.854 191.451 340.128V324.899L192.176 371.312ZM213.207 351.732C213.932 352.457 215.383 353.182 216.108 353.908C217.558 355.358 218.284 356.083 219.009 356.083C219.009 356.083 218.284 355.358 217.558 355.358L216.833 354.633C216.108 353.182 214.658 352.457 213.207 351.732Z" fill="black"></path><path d="M248.75 335.778C250.201 332.152 250.926 328.526 250.926 324.899C250.926 322.724 250.926 321.998 253.101 321.998C253.827 321.998 255.277 322.723 255.277 323.449C255.277 324.174 254.552 328.525 253.101 335.052C253.827 335.052 254.552 335.052 256.002 335.052C268.331 335.052 269.056 342.304 269.056 349.556C269.056 367.687 263.98 370.588 256.727 370.588C250.926 370.588 250.926 369.138 250.926 368.412C250.926 367.687 251.651 366.962 252.376 366.962H253.827C255.277 366.962 256.002 366.962 256.727 366.962C261.804 366.962 265.43 365.511 265.43 348.831C265.43 342.304 264.705 337.228 256.002 337.228C254.552 337.228 253.101 337.228 252.376 337.228C248.75 353.183 244.399 361.885 240.773 367.687C240.048 369.137 239.323 369.863 238.597 369.863C238.597 369.863 236.422 369.863 236.422 368.412C236.422 367.687 236.422 367.687 237.872 365.511C242.223 358.259 245.849 348.106 248.75 337.953C246.575 337.953 236.422 340.129 235.696 340.129C234.971 340.129 234.246 339.403 234.246 338.678C234.246 337.227 234.971 337.228 237.147 337.228L248.75 335.778ZM276.308 338.678C280.659 345.205 282.11 351.732 282.11 353.182C282.11 354.633 281.384 354.633 279.934 354.633C278.484 354.633 278.484 353.908 278.484 351.732C277.033 345.205 273.407 338.678 268.331 333.602C266.155 331.426 266.155 331.426 266.155 330.701C266.155 329.975 266.88 329.251 267.606 329.251C270.506 329.976 274.858 335.777 276.308 338.678ZM282.11 331.426C282.11 332.151 281.384 332.877 279.934 332.877C279.209 332.877 279.209 332.877 276.308 329.251C275.583 328.525 273.407 326.35 271.957 324.899C271.232 324.174 271.232 324.174 271.232 323.449C271.232 322.723 271.957 321.998 272.682 321.998C275.583 322.724 282.11 330.701 282.11 331.426ZM288.637 327.075C288.637 327.8 287.911 328.526 286.461 328.526C285.736 328.526 285.736 328.526 282.835 324.899C282.11 324.174 279.934 321.998 278.484 320.547C277.758 319.822 277.758 319.823 277.758 319.097C277.758 318.372 278.484 317.647 279.209 317.647C282.11 317.647 288.637 326.349 288.637 327.075Z" fill="black"></path><path d="M255.275 372.763C253.099 372.763 247.298 372.763 247.298 368.412C247.298 366.236 248.748 364.786 250.199 364.786C250.924 364.786 251.649 364.786 252.374 364.786C253.099 364.786 254.55 364.786 255.275 364.786C258.901 364.786 262.527 364.785 262.527 348.83C262.527 342.303 261.802 339.403 255.275 339.403C254.55 339.403 253.825 339.403 253.099 339.403C250.199 351.732 246.573 361.159 241.496 369.137C240.771 370.587 240.046 372.038 237.87 372.038C236.42 372.038 234.244 371.313 234.244 368.412C234.244 366.961 234.244 366.961 235.694 364.786C239.32 358.259 242.946 349.556 245.847 340.128C244.397 340.128 242.221 340.853 240.771 340.853C235.694 341.578 235.694 341.578 234.969 341.578C232.794 341.578 232.068 340.128 232.068 337.952C232.068 335.051 234.244 334.326 237.145 334.326L248.023 332.876C248.748 329.975 249.473 327.074 249.473 323.448C249.473 321.997 250.199 319.096 253.099 319.096C255.275 319.096 256.725 320.547 256.725 322.723C256.725 323.448 256 327.799 255.275 332.151C269.779 332.151 269.779 342.303 269.779 348.83C269.779 366.961 266.153 372.763 255.275 372.763ZM249.473 337.952C249.473 337.952 250.199 337.952 249.473 337.952C250.199 338.677 250.199 338.677 249.473 337.952C250.199 337.952 250.924 337.227 251.649 337.227C251.649 337.227 251.649 337.227 251.649 336.502C250.924 337.227 250.199 337.227 249.473 337.952ZM280.657 356.808C277.756 356.808 277.756 354.632 277.031 352.456C275.581 345.929 272.68 340.128 267.603 335.051C265.428 332.875 264.703 332.15 264.703 331.425C264.703 329.974 266.153 328.525 268.329 328.525C271.955 328.525 277.031 336.502 277.756 337.952C282.108 344.479 283.558 351.731 283.558 353.181C284.283 355.357 282.833 356.808 280.657 356.808ZM279.932 335.051C278.482 335.051 277.756 334.326 275.581 331.425V330.7C274.856 329.975 272.68 327.799 271.955 326.349C271.229 325.623 270.504 324.898 270.504 324.173C270.504 322.722 271.955 320.547 274.13 320.547C277.031 320.547 284.283 329.974 284.283 331.425C283.558 333.601 282.108 335.051 279.932 335.051ZM286.459 330.7C285.008 330.7 284.283 329.975 281.382 326.349C280.657 325.623 278.482 323.448 277.756 321.998C277.031 321.272 277.031 320.547 277.031 319.822C277.031 317.646 278.482 316.195 280.657 316.195C283.558 316.195 290.81 324.898 290.81 327.074C290.085 329.249 288.634 330.7 286.459 330.7Z" fill="black"></path><path d="M309.66 329.251C309.66 329.976 306.759 347.381 297.332 362.61C295.881 364.786 293.706 367.686 292.98 367.686C292.255 367.686 290.805 366.961 290.805 366.236C290.805 365.511 290.805 365.511 292.255 363.335C293.706 360.434 300.958 351.006 304.584 335.052C304.584 334.327 305.309 329.251 306.034 328.526C306.034 327.8 306.759 327.8 307.484 327.8C308.935 327.8 309.66 328.525 309.66 329.251ZM325.615 329.976C337.218 349.556 339.394 364.786 339.394 365.511C339.394 366.962 337.943 366.961 337.218 366.961C335.768 366.961 335.768 366.236 335.042 363.335C332.142 351.732 327.79 340.854 321.989 330.701C321.263 329.975 321.263 329.251 321.263 329.251C321.263 328.525 321.989 327.8 323.439 327.8C324.889 327.8 324.889 328.525 325.615 329.976ZM335.042 326.35C337.218 329.25 337.943 331.426 337.943 332.152C337.943 332.877 337.218 333.602 336.493 333.602C335.768 333.602 335.042 332.876 334.317 331.426C332.867 329.25 331.416 327.074 329.966 324.174C329.966 324.174 329.241 323.449 329.241 322.723C329.241 321.998 329.966 321.273 331.416 321.273C332.867 321.999 332.867 322.723 335.042 326.35ZM342.294 321.998C343.02 323.449 345.92 327.8 345.92 328.526C345.92 329.251 345.195 329.976 344.47 329.976C343.745 329.976 343.02 329.251 341.569 325.624C340.844 324.174 340.844 323.448 338.668 320.547C338.668 319.822 337.943 319.823 337.943 319.097C337.943 318.372 338.668 317.647 340.119 317.647C340.119 319.098 340.844 319.098 342.294 321.998Z" fill="black"></path><path d="M292.985 370.588C290.81 370.588 289.359 369.137 289.359 366.961C289.359 365.511 289.359 365.511 290.81 363.335V362.61C292.985 359.709 298.787 350.281 302.413 335.051C302.413 335.051 302.413 334.327 302.413 332.876C303.138 330.7 303.138 328.524 303.138 327.799C303.138 326.348 304.589 325.624 306.039 325.624C308.215 325.624 309.665 327.074 309.665 329.25C309.665 330.7 306.764 348.831 297.337 364.06C295.886 368.412 294.436 370.588 292.985 370.588ZM303.138 347.381C299.512 356.809 295.886 361.885 294.436 364.06L293.711 364.786C292.985 365.512 292.26 366.236 292.26 366.961C292.985 366.236 294.436 363.335 295.161 362.61C298.787 357.534 300.963 352.457 303.138 347.381ZM307.49 329.25C307.49 329.975 306.764 332.151 306.764 333.601C306.764 334.326 306.764 335.052 306.039 335.777C305.314 337.953 305.314 339.403 304.589 340.853C306.764 334.326 307.49 329.975 307.49 329.25ZM337.948 369.137C335.047 369.137 334.322 366.961 333.597 364.06C330.696 352.457 326.345 341.578 320.543 331.425C319.818 330.7 319.818 329.975 319.818 328.525C319.818 326.349 321.994 324.899 323.444 324.899C325.62 324.899 326.345 326.348 327.07 327.799C338.673 347.38 341.574 362.611 341.574 364.786C341.574 368.412 340.124 369.137 337.948 369.137ZM330.696 343.755C333.597 350.282 335.773 356.808 337.223 363.335C337.223 364.786 337.948 365.511 337.948 366.236C337.948 364.786 336.498 356.083 330.696 343.755ZM336.498 335.777C334.322 335.777 333.597 334.327 332.872 332.876C331.421 330.7 330.696 328.525 329.246 326.349C329.246 326.349 328.521 324.898 328.521 324.173C328.521 323.448 329.246 322.723 329.971 321.998C330.696 321.272 332.147 321.273 332.872 321.273C334.322 321.273 335.047 322.723 337.948 326.349C338.673 327.799 340.849 331.426 340.849 332.876C340.124 334.327 337.948 335.777 336.498 335.777ZM344.475 332.151C342.299 332.151 341.574 330.7 339.399 327.074C338.673 325.623 338.673 325.623 337.223 323.448L336.498 321.998C335.773 321.272 335.773 320.547 335.773 319.822C335.773 319.096 336.498 318.372 337.223 317.646C337.948 316.921 339.399 316.921 340.124 316.921C341.574 316.921 342.299 318.372 344.475 321.273C348.101 327.074 348.101 328.525 348.101 329.25C348.101 330.7 345.925 332.151 344.475 332.151Z" fill="black"></path><path d="M390.157 337.952C393.058 337.952 396.684 337.952 396.684 342.303C396.684 345.93 392.333 354.632 386.531 360.434C378.554 367.686 366.951 371.313 366.226 371.313C365.5 371.313 364.775 370.588 364.775 369.863C364.775 368.412 365.5 368.412 367.676 367.686C388.707 361.159 393.783 344.479 393.783 342.303C393.783 340.853 391.608 340.853 390.883 340.853H354.622C353.897 340.853 353.172 340.854 353.172 339.403C353.172 337.953 353.897 337.952 354.622 337.952H390.157V337.952ZM390.883 325.624C391.608 325.624 392.333 325.623 392.333 327.074C392.333 328.524 390.883 328.525 390.883 328.525H358.973C358.248 328.525 357.523 328.524 357.523 327.074C357.523 325.623 358.973 325.624 358.973 325.624H390.883Z" fill="black"></path><path d="M366.227 374.213C364.051 374.213 362.601 372.763 362.601 370.587C362.601 368.411 364.051 367.686 366.227 366.961C387.258 360.434 390.884 343.755 390.884 343.755C390.884 343.755 390.158 343.755 389.433 343.755H353.173C349.547 343.755 349.547 340.854 349.547 340.128C349.547 337.953 350.997 336.502 353.173 336.502H390.158C392.334 336.502 398.136 336.503 398.136 343.03C398.136 346.656 393.784 356.083 387.258 362.61C380.005 369.862 367.677 374.213 366.227 374.213ZM392.334 340.128C393.784 340.854 394.51 342.304 394.51 343.03C394.51 343.755 394.51 344.479 393.784 345.205C394.51 343.754 394.51 343.029 394.51 342.304C395.235 340.853 394.51 340.128 392.334 340.128ZM390.884 330.7H358.975C356.074 330.7 355.348 329.25 355.348 327.074C355.348 324.899 356.074 323.448 358.975 323.448H390.884C393.784 323.448 394.51 324.899 394.51 327.074C394.51 329.25 393.059 330.7 390.884 330.7Z" fill="black"></path><path d="M425.697 329.251C425.697 329.976 422.796 347.381 413.369 362.61C411.918 364.786 409.743 367.686 409.017 367.686C408.292 367.686 406.842 366.961 406.842 366.236C406.842 365.511 406.842 365.511 408.292 363.335C409.743 360.434 416.995 351.006 420.621 335.052C420.621 334.327 421.346 329.251 422.071 328.526C422.071 327.8 422.796 327.8 423.522 327.8C424.972 327.8 425.697 328.525 425.697 329.251ZM441.652 329.976C453.255 349.556 455.431 364.786 455.431 365.511C455.431 366.962 453.98 366.961 453.255 366.961C451.805 366.961 451.805 366.236 451.079 363.335C448.179 351.732 443.827 340.854 438.026 330.701C437.3 329.975 437.3 329.251 437.3 329.251C437.3 328.525 438.026 327.8 439.476 327.8C440.926 327.8 440.926 328.525 441.652 329.976ZM451.079 326.35C453.255 329.25 453.98 331.426 453.98 332.152C453.98 332.877 453.255 333.602 452.53 333.602C451.805 333.602 451.079 332.876 450.354 331.426C448.904 329.25 447.453 327.074 446.003 324.174C446.003 324.174 445.278 323.449 445.278 322.723C445.278 321.998 446.003 321.273 447.453 321.273C448.904 321.999 448.904 322.723 451.079 326.35ZM458.331 321.998C459.057 323.449 461.957 327.8 461.957 328.526C461.957 329.251 461.232 329.976 460.507 329.976C459.782 329.976 459.057 329.251 457.606 325.624C456.881 324.174 456.881 323.448 454.705 320.547C454.705 319.822 453.98 319.823 453.98 319.097C453.98 318.372 454.705 317.647 456.156 317.647C456.156 319.098 456.881 319.098 458.331 321.998Z" fill="black"></path><path d="M409.021 370.588C406.845 370.588 405.395 369.137 405.395 366.961C405.395 365.511 405.395 365.511 406.845 363.335V362.61C409.021 359.709 414.822 350.281 418.448 335.051C418.448 335.051 418.448 334.327 418.448 332.876C419.173 330.7 419.173 328.524 419.173 327.799C419.173 326.348 420.624 325.624 422.074 325.624C424.25 325.624 425.7 327.074 425.7 329.25C425.7 330.7 422.799 348.831 413.372 364.06C411.921 368.412 410.471 370.588 409.021 370.588ZM419.173 347.381C415.547 356.809 411.921 361.885 410.471 364.06L409.746 364.786C409.021 365.512 408.295 366.236 408.295 366.961C409.021 366.236 410.471 363.335 411.196 362.61C414.822 357.534 416.998 352.457 419.173 347.381ZM423.525 329.25C423.525 329.975 422.799 332.151 422.799 333.601C422.799 334.326 422.8 335.052 422.074 335.777C421.349 337.953 421.349 339.403 420.624 340.853C422.799 334.326 423.525 329.975 423.525 329.25ZM453.983 369.137C451.083 369.137 450.357 366.961 449.632 364.06C446.731 352.457 442.38 341.578 436.578 331.425C435.853 330.7 435.853 329.975 435.853 328.525C435.853 326.349 438.029 324.899 439.479 324.899C441.655 324.899 442.38 326.348 443.105 327.799C454.709 347.38 457.609 362.611 457.609 364.786C457.609 368.412 456.159 369.137 453.983 369.137ZM446.731 343.755C449.632 350.282 451.808 356.808 453.258 363.335C453.258 364.786 453.983 365.511 453.983 366.236C453.983 364.786 452.533 356.083 446.731 343.755ZM452.533 335.777C450.357 335.777 449.632 334.327 448.907 332.876C447.456 330.7 446.731 328.525 445.281 326.349C445.281 326.349 444.556 324.898 444.556 324.173C444.556 323.448 445.281 322.723 446.006 321.998C446.731 321.272 448.182 321.273 448.907 321.273C450.357 321.273 451.083 322.723 453.983 326.349C454.709 327.799 456.884 331.426 456.884 332.876C456.159 334.327 453.983 335.777 452.533 335.777ZM460.51 332.151C458.335 332.151 457.609 330.7 455.434 327.074C454.709 325.623 454.709 325.623 453.258 323.448L452.533 321.998C451.808 321.272 451.808 320.547 451.808 319.822C451.808 319.096 452.533 318.372 453.258 317.646C453.983 316.921 455.434 316.921 456.159 316.921C457.609 316.921 458.335 318.372 460.51 321.273C464.136 327.074 464.136 328.525 464.136 329.25C464.136 330.7 461.961 332.151 460.51 332.151Z" fill="black"></path><path d="M506.191 337.952C509.091 337.952 512.717 337.952 512.717 342.303C512.717 345.93 508.366 354.632 502.565 360.434C494.587 367.686 482.984 371.313 482.259 371.313C481.534 371.313 480.808 370.588 480.808 369.863C480.808 368.412 481.534 368.412 483.709 367.686C504.74 361.159 509.817 344.479 509.817 342.303C509.817 340.853 507.641 340.853 506.916 340.853H470.655C469.93 340.853 469.205 340.854 469.205 339.403C469.205 337.953 469.93 337.952 470.655 337.952H506.191V337.952ZM506.916 325.624C507.641 325.624 508.366 325.623 508.366 327.074C508.366 328.524 506.916 328.525 506.916 328.525H475.007C474.281 328.525 473.556 328.524 473.556 327.074C473.556 325.623 475.007 325.624 475.007 325.624H506.916Z" fill="black"></path><path d="M482.258 374.213C480.082 374.213 478.632 372.763 478.632 370.587C478.632 368.411 480.082 367.686 482.258 366.961C503.289 360.434 506.915 343.755 506.915 343.755C506.915 343.755 506.19 343.755 505.464 343.755H469.204C465.578 343.755 465.578 340.854 465.578 340.128C465.578 337.953 467.029 336.502 469.204 336.502H506.19C508.365 336.502 514.167 336.503 514.167 343.03C514.167 346.656 509.816 356.083 503.289 362.61C496.037 369.862 483.708 374.213 482.258 374.213ZM508.365 340.128C509.816 340.854 510.541 342.304 510.541 343.03C510.541 343.755 510.541 344.479 509.816 345.205C510.541 343.754 510.541 343.029 510.541 342.304C511.266 340.853 510.541 340.128 508.365 340.128ZM506.915 330.7H475.006C472.105 330.7 471.38 329.25 471.38 327.074C471.38 324.899 472.105 323.448 475.006 323.448H506.915C509.816 323.448 510.541 324.899 510.541 327.074C510.541 329.25 509.09 330.7 506.915 330.7Z" fill="black"></path><path d="M530.125 325.624C530.125 324.899 530.85 324.173 531.575 324.173C532.301 324.173 533.026 324.174 533.026 325.624C533.026 326.35 533.026 327.074 533.026 327.074C530.85 335.052 530.125 343.03 530.125 351.007C530.125 354.633 530.125 360.435 531.575 365.511C531.575 365.511 532.301 368.412 532.301 369.137C532.301 369.863 531.575 370.588 530.85 370.588C529.4 370.588 529.4 369.863 529.4 369.137C528.675 367.687 527.224 361.16 527.224 350.282C526.499 343.03 528.674 329.25 530.125 325.624ZM546.805 351.007C547.53 351.007 548.255 351.732 548.255 352.457C548.255 353.182 548.255 353.183 547.53 353.908C546.805 355.358 544.629 356.809 544.629 358.984C544.629 363.336 548.98 364.786 558.408 364.786C561.309 364.786 564.21 364.786 567.111 364.06C567.836 364.06 570.737 363.335 570.737 363.335C570.737 363.335 572.912 363.336 572.912 364.786C572.912 365.512 572.912 366.236 571.462 366.236C570.011 366.962 564.21 366.961 559.133 366.961C551.156 366.961 541.728 366.237 541.728 358.259C541.728 355.358 545.354 351.007 546.805 351.007ZM568.561 332.877C568.561 332.877 561.309 332.877 559.858 332.877C554.782 332.877 551.156 332.876 548.98 333.602C548.255 333.602 546.08 333.602 545.354 333.602C543.904 333.602 543.904 332.151 543.904 332.151C543.904 331.426 543.904 330.7 545.354 330.7C546.08 330.7 554.057 329.975 558.408 329.975C559.858 329.975 567.836 329.975 568.561 330.7C569.286 330.7 569.286 331.426 569.286 332.151C570.011 332.151 569.286 332.877 568.561 332.877Z" fill="black"></path><path d="M530.852 372.763C529.402 372.763 527.952 372.038 527.226 369.862C527.226 369.137 525.051 362.61 525.051 350.281C525.051 342.304 527.226 328.524 527.952 324.898C528.677 322.723 530.127 322.722 531.578 322.722C533.028 322.722 535.204 324.173 535.204 326.348C535.204 327.074 535.204 327.799 535.204 328.524C533.028 336.502 532.303 343.754 532.303 351.731C532.303 356.808 533.028 361.885 533.753 365.511C533.753 365.511 534.478 368.412 534.478 369.137C534.478 371.312 533.028 372.763 530.852 372.763ZM559.135 369.862C553.334 369.862 539.555 369.862 539.555 358.983C539.555 354.632 543.181 348.83 546.082 348.83C547.532 348.83 549.708 350.281 549.708 351.731C549.708 352.456 549.708 353.182 548.983 353.907C548.257 355.358 546.807 356.808 546.807 358.258C546.807 359.709 546.807 362.61 559.135 362.61C562.036 362.61 564.937 362.61 567.113 361.885H567.838C569.288 361.885 570.739 361.885 570.739 361.885C572.914 361.885 574.365 363.335 574.365 365.511C574.365 366.961 573.64 368.412 571.464 369.137C570.739 369.137 564.212 369.862 559.135 369.862ZM545.357 335.777C543.181 335.777 541.731 334.326 541.731 332.151C541.731 329.975 543.181 329.25 544.631 328.524C546.082 328.524 553.334 327.799 557.685 327.799C567.113 327.799 568.563 328.524 568.563 328.524C569.288 328.524 570.739 329.249 570.739 331.425C570.739 333.6 569.288 335.051 567.113 335.051C567.113 335.051 566.388 335.051 565.662 335.051C563.487 335.051 559.135 335.051 558.41 335.051C554.059 335.051 551.158 335.051 548.257 335.777H546.807C547.532 335.051 546.082 335.777 545.357 335.777ZM568.563 331.425V332.876V331.425Z" fill="black"></path><path d="M605.543 346.656H591.764C587.412 346.656 585.962 345.205 585.962 340.854V327.074C585.962 326.349 585.962 325.624 587.412 325.624C588.863 325.624 588.863 326.349 588.863 327.074V340.854C588.863 343.029 590.313 343.755 591.764 343.755H605.543V322.723C605.543 321.998 605.543 321.273 606.993 321.273C608.443 321.273 608.443 321.998 608.443 322.723V343.755H622.222C624.398 343.755 625.123 343.029 625.123 340.854V327.074C625.123 326.349 625.123 325.624 626.574 325.624C628.024 325.624 628.024 326.349 628.024 327.074V340.854C628.024 345.205 626.574 346.656 622.222 346.656H608.443V370.587H624.398C626.574 370.587 627.299 369.862 627.299 367.686V355.358C627.299 354.633 627.299 353.908 628.749 353.908C630.2 353.908 630.2 354.633 630.2 355.358V367.686C630.2 372.037 628.749 373.488 624.398 373.488H588.138C583.786 373.488 582.336 372.037 582.336 367.686V355.358C582.336 354.633 582.336 353.908 583.786 353.908C585.237 353.908 585.237 354.633 585.237 355.358V367.686C585.237 369.862 586.687 370.587 588.138 370.587H604.092V346.656H605.543Z" fill="black"></path><path d="M625.126 374.938H588.866C583.79 374.938 580.889 372.763 580.889 366.961V354.633C580.889 351.732 582.339 351.007 584.515 351.007C586.69 351.007 588.141 352.457 588.141 354.633V366.961C588.141 367.686 588.141 368.412 589.591 368.412H604.095V348.106H591.767C586.69 348.106 584.515 345.93 584.515 340.128V326.349C584.515 323.448 585.965 322.723 588.141 322.723C590.316 322.723 591.767 324.173 591.767 326.349V340.128C591.767 340.854 591.767 341.578 593.217 341.578H604.82V322.723C604.82 319.822 606.271 319.097 608.447 319.097C610.622 319.097 612.073 320.547 612.073 322.723V341.578H623.676C625.126 341.578 625.126 341.579 625.126 340.128V326.349C625.126 323.448 626.577 322.723 628.752 322.723C630.928 322.723 632.378 324.173 632.378 326.349V340.128C632.378 345.205 630.203 348.106 624.401 348.106H612.073V368.412H626.577C627.302 368.412 628.027 368.412 628.027 366.961V354.633C628.027 351.732 629.477 351.007 631.653 351.007C633.829 351.007 635.279 352.457 635.279 354.633V366.961C632.378 372.763 630.203 374.938 625.126 374.938ZM606.271 345.205C606.271 345.205 606.996 345.205 606.271 345.205C606.996 345.93 606.996 345.205 606.996 345.205C606.996 345.205 606.996 344.479 606.271 345.205C606.271 345.205 606.996 344.479 606.271 345.205Z" fill="black"></path><path d="M645.436 344.479H639.634C638.909 344.479 638.184 344.479 638.184 343.029C638.184 341.578 639.634 341.578 639.634 341.578H645.436V326.348H639.634C638.909 326.348 638.184 326.349 638.184 324.898C638.184 323.448 639.634 323.447 639.634 323.447H654.863C655.589 323.447 656.314 323.448 656.314 324.898C656.314 326.349 654.863 326.348 654.863 326.348H648.336V341.578H653.413C654.138 341.578 654.863 341.578 654.863 343.029C654.863 344.479 653.413 344.479 653.413 344.479H648.336V360.434C650.512 359.708 652.688 358.984 653.413 358.984C654.863 358.258 655.589 358.258 655.589 358.258C656.314 358.258 657.039 358.983 657.039 359.709C657.039 361.159 657.039 361.159 652.688 362.61C646.886 364.06 639.634 365.511 639.634 365.511C638.909 365.511 638.184 364.785 638.184 364.06C638.184 362.609 638.909 362.61 639.634 362.61C641.084 361.884 643.985 361.885 646.161 361.16V344.479H645.436ZM663.566 354.632C659.94 354.632 659.215 353.181 659.215 349.555V327.073C659.215 323.447 660.665 322.722 663.566 322.722H684.597C688.223 322.722 689.673 324.173 689.673 327.073V349.555C689.673 353.181 688.223 354.632 684.597 354.632H679.52V368.412C679.52 370.587 680.971 370.587 682.421 370.587C686.772 370.587 687.498 370.587 687.498 369.862C687.498 369.137 687.498 368.411 688.223 364.06C688.223 362.609 688.223 361.885 689.673 361.885C690.398 361.885 691.124 362.609 691.124 363.335C691.124 364.785 690.398 370.587 689.673 372.038C688.948 373.488 688.223 373.488 680.971 373.488C678.07 373.488 675.894 372.763 675.894 368.412V354.632H669.367C668.642 360.434 666.467 366.961 657.764 371.312C654.863 372.762 651.963 373.488 651.237 373.488C650.512 373.488 649.787 372.762 649.787 371.312C649.787 370.587 650.512 369.862 651.237 369.862C659.215 367.686 665.016 364.06 666.467 353.907H663.566V354.632ZM662.115 332.876H686.047V328.524C686.047 327.074 685.322 326.348 683.872 326.348H664.291C662.841 326.348 662.115 327.074 662.115 328.524V332.876ZM686.047 335.051H662.115V341.578H686.047V335.051ZM662.115 344.479V349.555C662.115 351.006 662.841 351.731 664.291 351.731H683.872C685.322 351.731 686.047 351.006 686.047 349.555V344.479H662.115Z" fill="black"></path><path d="M651.966 376.389C649.79 376.389 648.34 374.939 648.34 372.763C648.34 372.038 648.34 370.587 651.24 369.862C658.493 367.686 663.569 364.786 665.019 357.534H664.294C659.943 357.534 657.767 355.358 657.767 351.006V345.204C657.767 346.655 656.317 347.38 654.141 347.38H650.515V359.709C651.966 359.709 652.691 358.984 653.416 358.984C655.592 358.258 655.592 358.259 656.317 358.259C657.767 358.259 659.218 359.709 659.218 361.16C659.218 364.061 657.767 364.06 653.416 365.511C648.34 366.961 640.362 369.137 639.637 369.137C638.187 369.137 636.736 367.687 636.736 365.511C636.736 363.335 638.912 362.61 638.912 362.61C640.362 361.885 642.538 361.885 643.988 361.16V347.38H640.362C637.462 347.38 636.736 345.93 636.736 343.754C636.736 342.304 637.462 340.853 640.362 340.853H643.988V329.249H640.362C637.462 329.249 636.736 327.799 636.736 326.348C636.736 324.898 637.462 323.447 640.362 323.447H655.592C657.042 323.447 657.767 324.173 658.493 324.898C659.218 322.723 661.393 321.997 664.294 321.997H685.325C689.676 321.997 691.852 324.173 691.852 328.524V351.006C691.852 355.358 689.676 357.534 685.325 357.534H682.424V369.137C682.424 369.862 683.15 369.862 683.15 369.862C684.6 369.862 686.05 369.862 686.776 369.862C686.776 369.137 686.776 368.412 686.776 366.961V365.511C686.776 364.06 686.776 361.16 690.402 361.16C692.577 361.16 694.028 362.61 694.028 364.786C694.028 365.511 694.028 372.038 691.852 374.213C690.402 376.389 688.951 376.389 681.699 376.389C678.798 376.389 675.172 375.664 675.172 369.862V357.534H672.271C670.821 363.335 668.645 369.862 659.943 374.213C656.317 374.939 652.691 376.389 651.966 376.389ZM647.614 362.61C647.614 362.61 646.889 362.61 647.614 362.61V362.61ZM664.294 346.655V350.281L665.019 351.006H684.6L685.325 350.281V346.655H664.294ZM646.889 343.029C646.889 343.754 646.889 343.754 646.889 343.029C647.614 343.029 647.614 343.029 647.614 343.029C647.614 343.029 646.889 343.029 646.889 343.029ZM650.515 340.128H654.141C656.317 340.128 657.042 341.578 657.767 342.303V327.798C657.042 327.798 656.317 328.524 655.592 328.524H651.24V340.128H650.515ZM664.294 340.128H684.6V337.227H664.294V340.128ZM687.501 333.601C687.501 333.601 687.501 334.326 687.501 333.601V333.601ZM664.294 330.7H684.6V327.798C684.6 327.798 684.6 327.073 683.875 327.073H664.294H663.569L664.294 330.7ZM646.889 325.623C646.889 325.623 646.889 326.349 646.889 325.623C646.889 326.349 646.889 325.623 646.889 325.623Z" fill="black"></path><path d="M731.013 353.907C731.013 361.16 728.112 364.785 727.387 366.236C723.761 370.587 717.234 374.213 715.784 374.213C714.333 374.213 714.333 372.763 714.333 372.763C714.333 372.038 714.333 372.038 717.959 369.862C721.585 368.412 727.387 364.785 728.112 356.083C727.387 357.533 725.211 361.16 718.685 361.16C712.883 361.16 708.532 356.808 708.532 350.281C708.532 343.754 713.608 338.677 719.41 338.677C720.86 338.677 725.211 338.678 728.112 343.029V333.601L709.257 334.326C707.807 334.326 701.28 334.326 700.554 334.326C699.829 334.326 698.379 334.326 698.379 332.876C698.379 331.425 699.829 331.425 700.554 331.425H709.257L728.838 330.7V323.447C728.838 321.997 730.288 321.997 730.288 321.997C731.013 321.997 731.738 322.722 731.738 323.447V330.7H738.99C740.441 330.7 746.242 330.7 746.968 330.7C748.418 330.7 748.418 331.425 748.418 332.151C748.418 333.601 746.968 333.601 746.242 333.601H738.265H731.013V353.907ZM719.41 341.578C715.059 341.578 711.433 344.479 711.433 349.555C711.433 355.357 715.059 357.533 719.41 357.533C724.486 357.533 727.387 353.181 727.387 349.555C727.387 345.929 725.211 341.578 719.41 341.578Z" fill="black"></path><path d="M715.78 375.663C713.604 375.663 712.154 374.213 712.154 372.037C712.154 369.862 712.879 369.861 717.23 367.685C719.406 366.96 723.032 364.785 724.482 361.159C723.032 361.885 720.856 362.609 718.681 362.609C711.429 362.609 706.352 357.533 706.352 349.555C706.352 342.303 712.154 336.502 719.406 336.502C722.307 336.502 724.482 337.227 725.933 337.952V335.051L708.528 335.777C707.077 335.777 700.55 335.777 699.825 335.777C696.924 335.777 696.199 333.601 696.199 332.151C696.199 330.701 696.924 328.525 699.825 328.525H708.528L725.933 327.799V322.723C725.933 321.272 726.658 320.547 726.658 320.547C727.383 319.822 728.834 319.822 729.559 319.822C731.734 319.822 733.185 321.272 733.185 323.448V328.525H740.437C742.612 328.525 746.239 328.525 746.964 328.525C749.139 328.525 750.59 329.975 750.59 332.151C750.59 332.876 749.865 335.777 746.239 335.777H733.185V354.632C733.185 362.61 730.284 366.235 729.559 367.685C725.207 372.037 717.955 375.663 715.78 375.663ZM719.406 343.029C715.78 343.029 713.604 345.204 713.604 349.555C713.604 353.907 716.505 355.357 719.406 355.357C723.032 355.357 725.933 351.731 725.933 348.83C725.933 347.38 724.482 343.029 719.406 343.029ZM728.108 353.907C728.108 353.907 728.834 353.907 728.108 353.907C728.834 353.907 728.834 353.907 728.834 354.632C728.834 354.632 728.834 354.632 728.834 353.907V350.281C729.559 351.732 728.834 352.457 728.108 353.907ZM728.108 345.204C728.834 346.655 728.834 347.38 728.834 348.83V345.204C728.834 344.479 728.834 344.479 728.108 345.204ZM728.834 332.151C729.559 332.876 729.559 332.876 729.559 332.876L730.284 332.151C730.284 332.151 730.284 332.151 729.559 332.151C729.559 332.151 729.559 332.15 729.559 331.425C729.559 331.425 728.834 331.426 728.834 332.151C728.834 331.426 728.834 331.426 728.834 332.151Z" fill="black"></path><path d="M765.086 329.25C764.361 329.25 763.636 329.25 763.636 327.8C763.636 326.349 765.086 326.349 765.811 326.349C770.888 326.349 778.14 326.35 783.217 325.624C784.667 325.624 790.469 324.899 791.919 324.899C794.095 324.899 794.82 326.349 794.82 327.075C794.82 327.8 794.82 327.8 790.469 331.426C783.217 337.227 778.14 341.579 773.789 345.205C778.14 343.029 782.491 342.304 786.843 342.304C796.995 342.304 803.522 348.105 803.522 356.808C803.522 366.236 795.545 373.488 783.217 373.488C775.964 373.488 768.712 370.587 768.712 364.06C768.712 358.984 773.064 356.083 778.14 356.083C784.667 356.083 790.469 361.16 791.919 368.412C798.446 365.511 800.621 359.709 800.621 356.808C800.621 351.731 797.721 345.205 786.843 345.205C775.964 345.205 767.987 351.731 766.537 353.182C762.185 356.808 761.46 357.534 761.46 357.534C760.735 357.534 760.01 356.808 760.01 356.083C760.01 355.358 760.01 355.358 762.911 352.457C762.911 352.457 786.842 332.152 791.194 328.525C782.491 328.525 772.338 329.25 765.086 329.25ZM777.415 358.259C773.789 358.259 770.888 360.434 770.888 362.61C770.888 366.961 776.69 369.137 782.491 369.137C785.392 369.137 786.842 368.412 787.568 368.412C786.842 361.885 782.491 358.259 777.415 358.259Z" fill="black"></path><path d="M782.495 374.213C774.518 374.213 765.816 370.587 765.816 363.335C765.816 357.533 770.167 353.907 776.694 353.907C783.221 353.907 789.022 358.259 791.923 365.511C797 362.61 797 358.258 797 356.083C797 353.182 795.549 346.655 784.671 346.655C774.518 346.655 766.541 353.182 765.09 354.632C760.739 358.984 760.014 358.984 758.564 358.984C756.388 358.984 754.938 357.533 754.938 355.357C754.938 353.907 755.663 353.182 757.838 351.006L758.564 350.281C758.564 350.281 760.739 348.83 782.495 329.975C775.969 330.7 768.716 330.7 763.64 330.7C761.464 330.7 760.014 329.249 760.014 327.073C760.014 326.348 760.014 324.173 763.64 323.447C769.442 323.447 776.694 323.447 781.045 322.722H783.221C786.122 322.722 789.022 321.997 789.748 321.997C792.648 321.997 794.099 324.173 794.099 326.348C794.099 328.524 794.099 328.524 789.022 332.151C785.396 335.051 782.495 337.227 779.595 340.128C781.045 340.128 783.221 339.403 784.671 339.403C795.549 339.403 802.801 345.93 802.801 355.357C804.977 366.236 795.549 374.213 782.495 374.213ZM789.748 368.412V369.137H790.473C790.473 369.137 790.473 369.137 789.748 368.412C790.473 368.412 790.473 369.137 789.748 368.412ZM777.419 359.709C774.518 359.709 773.068 361.159 773.068 362.61C773.068 365.511 778.144 366.961 783.221 366.961C783.946 366.961 785.396 366.961 786.121 366.961C784.671 362.61 781.045 359.709 777.419 359.709ZM771.617 345.204C770.892 345.929 769.442 346.655 768.717 348.105C769.442 346.655 770.892 345.929 771.617 345.204C771.617 345.204 771.617 345.929 771.617 345.204ZM791.198 326.348C791.923 327.074 791.923 327.073 791.923 327.798C792.648 327.073 792.648 327.073 792.648 327.073C792.648 326.348 791.923 326.348 791.198 326.348Z" fill="black"></path><path d="M409.741 140.693C407.566 140.693 406.115 139.242 406.115 137.067V133.441C406.115 131.266 407.566 129.815 409.741 129.815C411.917 129.815 413.367 131.266 413.367 133.441V137.067C413.367 138.517 411.917 140.693 409.741 140.693Z" fill="black"></path><path d="M409.741 192.183C407.566 192.183 406.115 190.732 406.115 188.557V182.029C406.115 179.854 407.566 178.403 409.741 178.403C411.917 178.403 413.367 179.854 413.367 182.029V188.557C413.367 190.732 411.917 192.183 409.741 192.183ZM409.741 166.075C407.566 166.075 406.115 164.624 406.115 162.449V155.922C406.115 153.746 407.566 152.295 409.741 152.295C411.917 152.295 413.367 153.746 413.367 155.922V162.449C413.367 164.624 411.917 166.075 409.741 166.075Z" fill="black"></path><path d="M409.741 215.39C407.566 215.39 406.115 213.939 406.115 211.764V208.138C406.115 205.962 407.566 204.511 409.741 204.511C411.917 204.511 413.367 205.962 413.367 208.138V211.764C413.367 213.939 411.917 215.39 409.741 215.39Z" fill="black"></path><path d="M391.609 206.688L409.74 237.873L427.87 206.688H391.609Z" fill="black"></path></svg> 