<?xml version="1.0" encoding="UTF-8"?> <svg xmlns="http://www.w3.org/2000/svg" width="459" height="322" viewBox="0 0 459 322" fill="none"><path d="M40.7551 19.2164C43.6559 19.2164 47.282 19.2171 47.282 23.5684C47.282 27.1945 42.9307 35.8971 37.129 41.6989C29.1517 48.951 17.5485 52.5771 16.8233 52.5771C16.0981 52.5771 15.3728 51.8514 15.3728 51.1262C15.3728 49.6757 16.0981 49.6763 18.2737 48.951C39.3047 42.4241 44.3811 25.744 44.3811 23.5684C44.3811 22.1179 42.2055 22.1174 41.4803 22.1174H5.21992C4.49472 22.1174 3.76953 22.1178 3.76953 20.6673C3.76953 19.2169 4.49472 19.2164 5.21992 19.2164H40.7551V19.2164ZM41.4803 6.16294C42.2055 6.16294 42.9307 6.16258 42.9307 7.61302C42.9307 9.06346 41.4803 9.06399 41.4803 9.06399H9.57122C8.84601 9.06399 8.12071 9.06346 8.12071 7.61302C8.12071 6.16258 9.57122 6.16294 9.57122 6.16294H41.4803Z" fill="black"></path><path d="M16.8243 54.7517C14.6487 54.7517 13.1983 53.3013 13.1983 51.1256C13.1983 48.95 14.6487 48.2248 16.8243 47.4996C37.8553 40.9727 41.4813 24.2931 41.4813 24.2931C41.4813 24.2931 40.7561 24.2931 40.0309 24.2931H3.77056C0.144531 24.2931 0.144531 21.3923 0.144531 20.6671C0.144531 18.4915 1.59494 17.041 3.77056 17.041H40.756C42.9316 17.041 48.7333 17.0412 48.7333 23.5681C48.7333 27.1942 44.3821 36.6216 37.8552 43.1485C30.6032 51.1258 18.2747 54.7517 16.8243 54.7517ZM43.6569 21.3921C45.1073 22.1173 45.8326 23.5679 45.8326 24.2931C45.8326 25.0184 45.8325 25.743 45.1073 26.4682C45.8325 25.0178 45.8326 24.2933 45.8326 23.5681C45.8326 22.1177 45.1073 21.3921 43.6569 21.3921ZM41.4813 11.964H9.57224C6.67141 11.964 5.9462 10.5136 5.9462 8.33796C5.9462 6.16232 6.67141 4.7119 9.57224 4.7119H41.4813C44.3821 4.7119 45.1073 6.16232 45.1073 8.33796C45.1073 10.5136 44.3821 11.964 41.4813 11.964Z" fill="black"></path><path d="M84.9932 34.4456C89.3444 36.6213 90.0696 37.3465 90.0696 38.0717C90.0696 39.5222 89.3444 40.2469 88.6192 40.2469C87.894 40.2469 87.1688 40.2471 86.4436 39.5218C82.0923 37.3461 77.0159 35.1701 73.3898 33.7196C72.6646 33.7196 71.9395 32.9948 71.9395 32.2695C71.9395 31.5443 72.6647 30.8194 74.1151 30.8194C74.8403 29.369 79.9167 31.5446 84.9932 34.4456ZM116.902 42.4229C116.902 43.1481 111.826 51.8504 103.123 59.1027C88.6192 70.7063 74.8403 73.6073 74.1151 73.6073C72.6647 73.6073 71.9395 72.8826 71.9395 71.4321C71.9395 69.9816 71.9395 69.9813 76.2907 69.2561C88.6192 66.3551 102.398 57.6524 111.826 43.873C114.001 40.9721 114.001 40.9719 114.727 40.9719C116.177 40.9719 116.902 41.6977 116.902 42.4229Z" fill="#999899"></path><path d="M74.113 75.7834C71.9374 75.7834 70.487 74.333 70.487 72.1574C70.487 69.2566 71.9374 69.2567 76.2886 67.8063C90.0675 64.1803 102.396 55.4776 111.098 43.1491C113.274 40.2482 113.999 38.798 115.45 38.798C117.625 38.798 119.076 40.2484 119.076 42.424C119.076 44.5997 112.549 53.3022 104.571 60.5542C90.0674 72.8828 75.5634 75.7834 74.113 75.7834ZM73.3877 72.1574C73.3877 72.1574 87.1667 69.9818 101.671 57.6532C108.198 51.8516 112.549 46.0499 114.724 43.1491C114.724 43.8743 113.999 43.8739 113.999 44.5991C105.297 56.9277 91.5178 67.0813 77.0137 70.7073C75.5633 71.4325 74.1129 72.1574 73.3877 72.1574ZM88.617 41.699C87.8918 41.699 87.1667 40.9733 85.7163 40.248C81.3651 38.0724 76.2886 35.8973 72.6626 34.4469C71.9374 34.4469 69.7617 33.7215 69.7617 31.5459C69.7617 30.0955 71.2121 27.9199 73.3877 27.9199C74.8381 27.9199 81.3651 30.0951 85.7163 32.996C90.0675 35.1716 91.5178 35.8973 91.5178 38.073C92.243 40.2486 90.0674 41.699 88.617 41.699ZM79.9146 33.721C82.0902 34.4462 84.991 35.8966 87.1667 37.347C87.8919 37.347 88.617 38.073 88.617 38.073C87.8918 37.3477 85.7162 35.897 84.2658 35.897C82.8154 35.1718 81.365 34.4462 79.9146 33.721Z" fill="#999899"></path><path d="M171.29 14.8651C173.466 14.8651 176.367 15.5901 176.367 19.2161C176.367 21.3917 174.191 32.2705 167.664 41.6982C157.511 56.2024 142.282 60.5534 141.557 60.5534C140.106 60.5534 140.106 59.8277 140.106 59.1025C140.106 57.6521 140.832 57.6526 142.282 56.9274C146.633 55.477 156.786 51.1252 164.763 40.9723C157.511 35.1707 150.259 31.545 145.908 28.6442C143.732 30.8198 139.381 35.8962 137.931 35.8962C137.206 35.8962 136.48 35.1714 136.48 34.4462C136.48 33.721 137.206 32.9952 137.931 32.9952C143.007 28.644 145.908 25.0178 149.534 19.2161C151.71 15.5901 151.71 15.5901 156.786 15.5901H171.29V14.8651ZM153.885 17.7661C152.435 17.7661 151.71 18.4911 151.71 18.4911C149.534 22.1171 148.084 23.5675 147.359 25.7432C156.061 30.0944 161.137 33.7202 166.214 37.3463C170.565 30.0942 172.741 21.3917 172.741 19.2161C172.741 17.7657 171.29 17.7661 170.565 17.7661H153.885V17.7661ZM178.542 12.69C179.993 14.1404 182.894 18.4916 182.894 19.942C182.894 20.6672 182.168 21.3921 180.718 21.3921C179.993 21.3921 179.993 21.3921 177.817 17.7661C177.092 16.3156 174.916 13.4145 174.191 11.9641V11.239C174.191 11.239 174.191 9.78897 176.367 9.78897C176.367 9.78897 177.092 9.78915 178.542 12.69ZM185.794 9.06394C187.245 10.5144 190.146 14.8656 190.146 16.316C190.146 17.0412 189.42 17.7661 188.695 17.7661C187.97 17.7661 187.245 17.0405 186.52 15.5901C185.069 13.4145 183.619 11.2396 182.168 9.06394C182.168 8.33873 181.443 8.3382 181.443 7.613C181.443 6.88779 182.168 6.16294 183.619 6.16294C183.619 6.16294 183.619 6.16311 185.794 9.06394Z" fill="black"></path><path d="M140.831 62.0037C138.656 62.0037 137.205 59.8281 137.205 58.3776C137.205 56.202 139.381 55.4768 140.106 54.7516C144.457 53.3012 153.16 49.6749 160.412 40.9724C154.61 36.6212 148.809 33.721 144.457 30.8202C142.282 32.9958 137.931 37.3464 135.755 37.3464C134.305 37.3464 132.129 35.8959 132.129 33.7203C132.129 32.2699 133.579 30.8202 133.579 30.8202C138.656 26.4689 141.557 22.8427 145.183 17.041C147.358 13.415 148.083 12.6899 153.885 12.6899H169.84C170.565 12.6899 171.29 12.6899 171.29 12.6899C171.29 12.6899 170.565 11.9644 170.565 10.5139C170.565 9.06351 171.29 7.61292 174.191 7.61292C175.641 7.61292 176.366 8.33813 178.542 11.239C182.893 17.7659 182.893 18.4909 182.893 19.2161C182.893 21.3917 181.443 22.8422 179.267 22.8422C177.817 22.8422 177.092 22.1175 175.641 20.6671C174.916 25.0183 172.74 34.4461 166.214 42.4234C158.236 57.6528 142.282 62.0037 140.831 62.0037ZM145.908 56.9276C144.457 57.6528 143.007 58.3776 142.282 58.3776C142.282 58.3776 141.557 58.3775 141.557 59.1027C141.557 58.3775 143.007 58.378 145.908 56.9276ZM164.763 39.5223L165.488 40.2474C165.488 40.2474 165.488 40.2472 165.488 40.9724L166.214 40.2474C166.214 40.2474 166.214 40.2474 165.488 40.2474C165.488 39.5222 165.488 39.5223 164.763 39.5223ZM149.534 25.7432C156.786 29.3692 161.137 32.2704 165.488 35.1713C169.114 29.3696 170.565 22.1177 171.29 19.942H170.565H153.885C153.16 19.942 153.16 19.942 153.16 19.942C151.709 22.8429 150.259 24.2928 149.534 25.7432ZM137.205 33.7203C136.48 34.4455 136.48 34.4462 136.48 34.4462C136.48 34.4462 137.205 34.4455 137.205 33.7203ZM145.183 25.7432L144.457 26.4682H145.183C145.183 27.1934 145.183 27.1936 145.183 25.7432C145.183 26.4684 145.183 26.4684 145.183 25.7432ZM172.74 17.041C173.466 17.7662 174.191 18.4916 174.191 19.942V20.6671C174.191 19.9418 174.191 19.2161 174.191 19.2161C174.191 18.4909 174.191 17.7662 172.74 17.041ZM187.97 19.2161C185.794 19.2161 185.069 17.7664 184.344 16.316C182.893 14.1403 181.443 11.9645 179.992 9.7889C179.267 9.06369 179.267 8.33813 179.267 7.61292C179.267 6.88771 179.992 6.16303 180.718 5.43782C181.443 4.71261 182.893 4.7119 183.619 4.7119C185.069 4.7119 185.794 5.43711 187.97 8.33795C192.321 14.1396 192.321 15.5908 192.321 16.316C191.596 17.7664 190.145 19.2161 187.97 19.2161Z" fill="black"></path><path d="M209.729 45.3248C215.531 32.2706 219.882 22.1168 224.233 7.61211C224.958 4.71118 225.684 3.98595 226.409 3.98595C227.134 3.98595 228.585 4.71171 228.585 5.43694C228.585 6.88741 222.058 25.7428 213.355 44.5988L242.363 40.9727C238.012 32.9951 235.111 29.3695 234.386 27.919C233.661 27.1938 233.661 26.4682 233.661 25.743C233.661 25.0177 234.386 24.2928 235.111 24.2928C235.837 24.2928 236.562 25.0177 237.287 25.743C245.989 37.3467 251.066 48.9508 251.066 49.676C251.066 51.1265 249.616 51.1261 248.89 51.1261C248.165 51.1261 247.44 50.4014 246.715 48.951C245.989 46.7753 244.539 44.5992 243.814 43.1487L203.927 48.951H203.202C202.477 48.951 201.752 48.2252 201.752 47.5C201.752 46.0495 202.477 46.0498 203.202 46.0498L209.729 45.3248Z" fill="black"></path><path d="M248.888 54.0266C246.713 54.0266 245.987 52.5761 245.262 50.4004C244.537 48.95 243.812 47.4999 243.087 45.3242L203.925 51.1255H203.2C201.025 51.1255 199.574 49.675 199.574 47.4994C199.574 46.0489 200.299 44.5985 203.2 43.8732L208.277 43.1482C213.353 30.8193 217.704 20.6662 222.056 6.88688C223.506 3.98597 223.506 2.5357 225.682 2.5357C227.857 2.5357 229.308 3.98615 229.308 6.16183C229.308 8.33751 222.056 26.468 215.529 43.1482L238.735 40.2471C236.56 35.8957 234.384 32.9947 232.209 30.0938C231.483 29.3685 230.758 27.9188 230.758 27.1936C230.758 25.0179 232.934 23.5674 234.384 23.5674C236.56 23.5674 237.285 24.2921 238.01 25.7426C245.987 36.621 251.789 48.9498 251.789 51.1255C253.239 52.5759 251.064 54.0266 248.888 54.0266ZM211.903 44.5983C211.903 44.5983 211.903 45.3242 211.177 45.3242L210.452 46.0493H212.628C212.628 46.0493 211.903 46.0494 211.903 45.3242C212.628 45.3242 211.903 45.3235 211.903 44.5983ZM245.987 43.1482C246.713 43.8734 246.713 44.599 247.438 45.3242C246.713 44.599 246.713 43.8734 245.987 43.1482ZM244.537 41.6981C245.262 41.6981 245.987 41.6979 245.987 42.4231C245.262 41.6979 245.262 40.9723 244.537 40.2471C244.537 40.9723 244.537 40.9729 244.537 41.6981ZM227.132 6.88688C227.132 7.6121 227.132 7.61175 226.407 8.33697C225.682 10.5127 224.956 13.4136 224.231 15.5892C225.682 11.2379 226.407 8.33733 227.132 6.88688Z" fill="black"></path><path d="M275.731 21.392C275.731 20.6668 276.456 19.9419 277.181 19.9419C277.907 19.9419 278.632 19.9416 278.632 21.392C278.632 22.1172 278.632 22.8421 278.632 22.8421C276.456 30.8195 275.731 38.7973 275.731 46.7747C275.731 50.4008 275.731 56.2026 277.181 61.2791C277.181 61.2791 277.907 64.18 277.907 64.9052C277.907 65.6304 277.181 66.3553 276.456 66.3553C275.006 66.3553 275.006 65.6304 275.006 64.9052C274.281 63.4548 272.83 56.928 272.83 46.0497C272.83 38.0722 274.281 25.0181 275.731 21.392ZM292.411 46.7747C293.136 46.7747 293.861 47.4996 293.861 48.2248C293.861 48.95 293.861 48.9505 293.136 49.6758C292.411 51.1262 290.235 52.5763 290.235 54.7519C290.235 59.1033 294.586 60.554 304.014 60.554C306.915 60.554 309.816 60.5542 312.717 59.829C313.442 59.829 316.343 59.1031 316.343 59.1031C316.343 59.1031 318.518 59.1036 318.518 60.554C318.518 61.2793 318.518 62.0041 317.068 62.0041C315.617 62.7294 309.816 62.7292 304.739 62.7292C296.762 62.7292 287.334 62.0043 287.334 54.0269C287.334 50.4008 290.96 46.7747 292.411 46.7747ZM314.167 28.6442C314.167 28.6442 306.915 28.6442 305.465 28.6442C300.388 28.6442 296.762 28.644 294.586 29.3692C293.861 29.3692 291.686 29.3692 290.96 29.3692C289.51 29.3692 289.51 27.9192 289.51 27.9192C289.51 27.1939 289.51 26.4682 290.96 26.4682C291.686 26.4682 299.663 25.7431 304.014 25.7431C305.465 25.7431 313.442 25.743 314.167 26.4682C314.892 26.4682 314.892 27.1939 314.892 27.9192C315.617 27.9192 315.618 28.6442 314.167 28.6442Z" fill="black"></path><path d="M276.452 68.5306C275.002 68.5306 273.551 67.8052 272.826 65.6296C272.826 64.9043 270.65 58.3778 270.65 46.0492C270.65 38.0719 272.826 24.2928 273.551 20.6668C274.276 18.4911 275.727 18.4908 277.177 18.4908C278.628 18.4908 280.803 19.9412 280.803 22.1169C280.803 22.8421 280.803 23.5676 280.803 24.2928C278.628 32.2702 277.902 39.5219 277.902 47.4993C277.902 52.5757 278.628 57.6524 279.353 61.2785C279.353 61.2785 280.078 64.1793 280.078 64.9045C280.078 67.0802 278.628 68.5306 276.452 68.5306ZM305.46 65.6296C299.659 65.6296 285.88 65.6296 285.88 54.7514C285.88 50.4001 289.506 44.5982 292.407 44.5982C293.857 44.5982 296.033 46.0488 296.033 47.4993C296.033 48.2245 296.033 48.95 295.307 49.6753C294.582 51.1257 293.132 52.5759 293.132 54.0263C293.132 55.4768 293.132 58.3774 305.46 58.3774C308.361 58.3774 311.262 58.3776 313.437 57.6524H314.163C315.613 57.6524 317.064 57.6524 317.064 57.6524C319.239 57.6524 320.69 59.1028 320.69 61.2785C320.69 62.7289 319.964 64.1793 317.789 64.9045C316.338 64.9045 310.537 65.6296 305.46 65.6296ZM291.681 30.8199C289.506 30.8199 288.055 29.3695 288.055 27.1939C288.055 25.0182 289.506 24.293 290.956 23.5678C292.406 23.5678 299.659 22.8419 304.01 22.8419C313.437 22.8419 314.888 23.5678 314.888 23.5678C315.613 23.5678 317.064 24.2923 317.064 26.4679C317.064 28.6436 315.613 30.094 313.437 30.094C313.437 30.094 312.712 30.094 311.987 30.094C309.811 30.094 305.46 30.094 304.735 30.094C300.384 30.094 297.483 30.0947 294.582 30.8199H293.132C293.132 30.8199 291.681 30.8199 291.681 30.8199ZM314.163 27.1939V28.6439V27.1939Z" fill="black"></path><path d="M360.572 27.1939H346.068C341.717 27.1939 340.267 25.7432 340.267 21.3919V7.6126C340.267 6.88738 340.267 6.16252 341.717 6.16252C343.167 6.16252 343.167 6.88738 343.167 7.6126V21.3919C343.167 23.5675 344.618 24.2929 346.068 24.2929H359.847V3.26148C359.847 2.53627 359.847 1.81141 361.298 1.81141C362.748 1.81141 362.748 2.53627 362.748 3.26148V24.2929H376.527C378.702 24.2929 379.428 23.5675 379.428 21.3919V7.6126C379.428 6.88738 379.427 6.16252 380.878 6.16252C382.328 6.16252 382.328 6.88738 382.328 7.6126V21.3919C382.328 25.7432 380.878 27.1939 376.527 27.1939H362.748V51.1255H378.702C380.878 51.1255 381.603 50.4001 381.603 48.2245V35.8962C381.603 35.1709 381.603 34.4461 383.054 34.4461C384.504 34.4461 384.504 35.1709 384.504 35.8962V48.2245C384.504 52.5758 383.053 54.0265 378.702 54.0265H342.442C338.091 54.0265 336.641 52.5758 336.641 48.2245V35.8962C336.641 35.1709 336.641 34.4461 338.091 34.4461C339.541 34.4461 339.541 35.1709 339.541 35.8962V48.2245C339.541 50.4001 340.992 51.1255 342.442 51.1255H358.397V27.1939H360.572Z" fill="black"></path><path d="M380.157 56.2028H343.897C338.821 56.2028 335.92 54.0264 335.92 48.2246V35.8963C335.92 32.9954 337.37 32.2702 339.546 32.2702C341.722 32.2702 343.172 33.7206 343.172 35.8963V48.2246C343.172 48.9499 343.172 49.6756 344.622 49.6756H359.126V29.3691H346.073C340.996 29.3691 338.821 27.1936 338.821 21.3919V7.61254C338.821 4.71167 340.271 3.98645 342.447 3.98645C344.622 3.98645 346.073 5.43689 346.073 7.61254V21.3919C346.073 22.1171 346.073 22.842 347.523 22.842H359.126V3.98645C359.126 1.08557 360.577 0.360352 362.752 0.360352C364.928 0.360352 366.378 1.81079 366.378 3.98645V22.842H377.982C379.432 22.842 379.432 22.8423 379.432 21.3919V7.61254C379.432 4.71167 380.883 3.98645 383.058 3.98645C385.234 3.98645 386.684 5.43689 386.684 7.61254V21.3919C386.684 26.4684 384.509 29.3691 378.707 29.3691H366.378V49.6756H380.883C381.608 49.6756 382.333 49.6751 382.333 48.2246V35.8963C382.333 32.9954 383.783 32.2702 385.959 32.2702C388.135 32.2702 389.585 33.7206 389.585 35.8963V48.2246C388.135 54.0264 385.234 56.2028 380.157 56.2028ZM361.302 25.743C362.027 26.4682 362.027 26.4682 361.302 25.743C362.027 26.4682 362.027 25.743 362.027 25.743C362.027 25.743 362.027 25.743 361.302 25.743C362.027 25.743 362.027 25.743 361.302 25.743Z" fill="black"></path><path d="M409.887 32.9951H404.085C403.36 32.9951 402.635 32.9955 402.635 31.5451C402.635 30.0946 404.085 30.0941 404.085 30.0941H409.887V14.8648H404.085C403.36 14.8648 402.635 14.8652 402.635 13.4147C402.635 11.9643 404.085 11.9638 404.085 11.9638H419.315C420.04 11.9638 420.765 11.9643 420.765 13.4147C420.765 14.8652 419.315 14.8648 419.315 14.8648H412.788V30.0941H417.864C418.589 30.0941 419.315 30.0946 419.315 31.5451C419.315 32.9955 417.864 32.9951 417.864 32.9951H412.788V48.9503C414.963 48.2251 417.139 47.4994 417.864 47.4994C419.315 46.7742 420.04 46.7744 420.04 46.7744C420.765 46.7744 421.49 47.4992 421.49 48.2244C421.49 49.6748 421.49 49.675 417.139 51.1255C411.337 52.5759 404.085 54.0265 404.085 54.0265C403.36 54.0265 402.635 53.3016 402.635 52.5764C402.635 51.126 403.36 51.1255 404.085 51.1255C405.536 50.4002 408.436 50.4006 410.612 49.6754V32.9951H409.887ZM428.017 43.1483C424.391 43.1483 423.666 41.6982 423.666 38.0721V15.5898C423.666 11.9638 425.116 11.2387 428.017 11.2387H449.048C452.674 11.2387 454.125 12.689 454.125 15.5898V38.0721C454.125 41.6982 452.674 43.1483 449.048 43.1483H443.972V56.9275C443.972 59.1031 445.422 59.1026 446.872 59.1026C451.224 59.1026 451.949 59.1028 451.949 58.3776C451.949 57.6524 451.949 56.9277 452.674 52.5764C452.674 51.126 452.674 50.4004 454.125 50.4004C454.85 50.4004 455.575 51.1253 455.575 51.8505C455.575 53.3009 454.85 59.1031 454.125 60.5536C453.399 62.004 452.674 62.0036 445.422 62.0036C442.521 62.0036 440.346 61.2788 440.346 56.9275V43.1483H433.819C433.094 48.95 430.918 55.4773 422.215 59.8285C419.315 61.279 416.414 62.0036 415.689 62.0036C414.963 62.0036 414.238 61.279 414.238 59.8285C414.238 59.1033 414.963 58.3776 415.689 58.3776C423.666 56.2019 429.468 52.5762 430.918 42.4232H428.017V43.1483ZM426.567 20.6669H450.498V16.3158C450.498 14.8653 449.773 14.1398 448.323 14.1398H428.742C427.292 14.1398 426.567 14.8653 426.567 16.3158V20.6669ZM450.498 23.5679H426.567V30.0941H450.498V23.5679ZM426.567 32.9951V38.0721C426.567 39.5226 427.292 40.2473 428.742 40.2473H448.323C449.773 40.2473 450.498 39.5226 450.498 38.0721V32.9951H426.567Z" fill="black"></path><path d="M416.417 64.1799C414.241 64.1799 412.791 62.7294 412.791 60.5537C412.791 59.8285 412.791 58.3779 415.692 57.6526C422.944 55.477 428.02 52.5764 429.47 45.3241H428.745C424.394 45.3241 422.218 43.1482 422.218 38.7969V32.9947C422.218 34.4451 420.768 35.1707 418.592 35.1707H414.966V47.4993C416.417 47.4993 417.142 46.7742 417.867 46.7742C420.043 46.049 420.043 46.0492 420.768 46.0492C422.218 46.0492 423.669 47.4998 423.669 48.9503C423.669 51.8512 422.218 51.851 417.867 53.3015C412.791 54.7519 404.813 56.9276 404.088 56.9276C402.638 56.9276 401.188 55.4771 401.188 53.3015C401.188 51.1258 403.363 50.4004 403.363 50.4004C404.813 49.6751 406.989 49.6755 408.44 48.9503V35.1707H404.814C401.913 35.1707 401.188 33.7203 401.188 31.5446C401.188 30.0941 401.913 28.6435 404.814 28.6435H408.44V17.04H404.814C401.913 17.04 401.188 15.5894 401.188 14.1389C401.188 12.6884 401.913 11.2378 404.814 11.2378H420.043C421.493 11.2378 422.218 11.9636 422.944 12.6888C423.669 10.5131 425.844 9.7877 428.745 9.7877H449.776C454.127 9.7877 456.303 11.9636 456.303 16.3149V38.7969C456.303 43.1482 454.127 45.3241 449.776 45.3241H446.875V56.9276C446.875 57.6528 447.601 57.6526 447.601 57.6526C449.051 57.6526 450.501 57.6526 451.227 57.6526C451.227 56.9274 451.227 56.202 451.227 54.7516V53.3015C451.227 51.851 451.227 48.9503 454.853 48.9503C457.028 48.9503 458.479 50.4007 458.479 52.5764C458.479 53.3016 458.479 59.8282 456.303 62.0038C454.853 64.1795 453.402 64.1799 446.15 64.1799C443.249 64.1799 439.623 63.4545 439.623 57.6526V45.3241H436.723C435.272 51.1259 433.096 57.6525 424.394 62.0038C420.768 63.4543 417.142 64.1799 416.417 64.1799ZM450.501 57.6526C449.776 57.6526 449.776 57.6526 450.501 57.6526C449.776 57.6526 449.776 57.6526 450.501 57.6526ZM412.066 50.4004C412.066 50.4004 411.34 51.1256 412.066 50.4004C412.066 51.1256 412.066 51.1256 412.066 50.4004C412.066 51.1256 412.066 51.1256 412.066 50.4004ZM428.745 34.4457V38.0718L429.47 38.7969H449.051L449.776 38.0718V34.4457H428.745ZM411.34 31.5446C411.34 31.5446 411.34 32.2698 411.34 31.5446C412.066 31.5446 412.066 31.5446 412.066 31.5446C412.066 31.5446 412.066 31.5446 411.34 31.5446ZM414.966 28.6435H418.592C420.768 28.6435 421.493 30.0943 422.218 30.8195V16.3149C421.493 16.3149 420.768 17.04 420.043 17.04H415.692V28.6435H414.966ZM428.745 28.6435H449.051V25.7424H428.745V28.6435ZM428.745 19.2152H449.051V16.3149C449.051 16.3149 449.051 15.589 448.326 15.589H428.745H428.02L428.745 19.2152Z" fill="black"></path><path d="M40.7551 283.921C43.6559 283.921 47.282 283.922 47.282 288.273C47.282 291.899 42.9307 300.602 37.129 306.404C29.1517 313.656 17.5485 317.282 16.8233 317.282C16.0981 317.282 15.3728 316.556 15.3728 315.831C15.3728 314.38 16.0981 314.381 18.2737 313.656C39.3047 307.129 44.3811 290.449 44.3811 288.273C44.3811 286.823 42.2055 286.822 41.4803 286.822H5.21992C4.49472 286.822 3.76953 286.822 3.76953 285.372C3.76953 283.922 4.49472 283.921 5.21992 283.921H40.7551V283.921ZM41.4803 270.868C42.2055 270.868 42.9307 270.867 42.9307 272.318C42.9307 273.768 41.4803 273.769 41.4803 273.769H9.57122C8.84601 273.769 8.12071 273.768 8.12071 272.318C8.12071 270.867 9.57122 270.868 9.57122 270.868H41.4803Z" fill="black"></path><path d="M16.8243 319.456C14.6487 319.456 13.1983 318.006 13.1983 315.83C13.1983 313.655 14.6487 312.93 16.8243 312.204C37.8553 305.678 41.4813 288.998 41.4813 288.998C41.4813 288.998 40.7561 288.998 40.0309 288.998H3.77056C0.144531 288.998 0.144531 286.097 0.144531 285.372C0.144531 283.197 1.59494 281.746 3.77056 281.746H40.756C42.9316 281.746 48.7333 281.746 48.7333 288.273C48.7333 291.899 44.3821 301.326 37.8552 307.853C30.6032 315.831 18.2747 319.456 16.8243 319.456ZM43.6569 285.372C45.1073 286.097 45.8326 287.548 45.8326 288.273C45.8326 288.998 45.8325 289.723 45.1073 290.448C45.8325 288.998 45.8326 288.273 45.8326 287.547C45.8326 286.097 45.1073 286.097 43.6569 285.372ZM41.4813 275.944H9.57224C6.67141 275.944 5.9462 274.494 5.9462 272.318C5.9462 270.143 6.67141 268.692 9.57224 268.692H41.4813C44.3821 268.692 45.1073 270.143 45.1073 272.318C45.1073 274.494 44.3821 275.944 41.4813 275.944Z" fill="black"></path><path d="M84.9932 276.669C89.3444 278.845 90.0696 279.57 90.0696 280.295C90.0696 281.746 89.3444 282.471 88.6192 282.471C87.894 282.471 87.1688 282.471 86.4436 281.746C82.0923 279.571 77.0159 277.395 73.3898 275.944C72.6646 275.944 71.9395 275.219 71.9395 274.494C71.9395 273.769 72.6647 273.043 74.1151 273.043C74.8403 272.318 79.9167 274.494 84.9932 276.669ZM116.902 285.372C116.902 286.097 111.826 294.799 103.123 302.051C88.6192 313.654 74.8403 316.555 74.1151 316.555C72.6647 316.555 71.9395 315.83 71.9395 314.38C71.9395 312.93 71.9395 312.929 76.2907 312.204C88.6192 309.303 102.398 300.601 111.826 286.822C114.001 283.921 114.001 283.921 114.727 283.921C116.177 283.921 116.902 284.647 116.902 285.372Z" fill="black"></path><path d="M74.113 318.732C71.9374 318.732 70.487 317.282 70.487 315.106C70.487 312.205 71.9374 312.205 76.2886 310.755C90.0675 307.129 102.396 297.701 111.098 286.097C113.274 283.196 113.999 281.746 115.45 281.746C117.625 281.746 119.076 283.196 119.076 285.372C119.076 287.548 112.549 296.25 104.571 303.503C90.0674 315.106 75.5634 318.732 74.113 318.732ZM73.3877 315.106C73.3877 315.106 87.1667 312.93 101.671 300.602C108.198 294.8 112.549 288.998 114.724 286.097C114.724 286.822 113.999 287.547 113.274 287.547C104.571 299.876 90.7927 310.03 76.2886 313.656C75.5634 314.381 74.1129 314.381 73.3877 315.106ZM88.617 284.647C87.8918 284.647 87.1667 283.921 85.7163 283.196C82.8155 281.02 78.4642 279.57 72.6626 277.395C71.9374 277.395 69.7617 276.669 69.7617 274.494C69.7617 273.043 71.2121 270.868 73.3877 270.868C74.8381 270.868 81.3651 273.043 85.7163 275.219C90.0675 277.394 91.5178 278.119 91.5178 280.295C92.243 283.196 90.0674 284.647 88.617 284.647ZM79.9146 276.669C82.8154 278.119 84.991 279.57 87.1667 280.295C87.8919 280.295 88.617 281.021 88.617 281.021C87.8918 280.296 85.7162 278.845 84.2658 278.845C82.8154 277.394 81.365 276.669 79.9146 276.669Z" fill="black"></path><path d="M171.29 272.318C173.466 272.318 176.367 273.043 176.367 276.669C176.367 278.845 174.191 289.724 167.664 299.151C157.511 313.656 142.282 318.007 141.557 318.007C140.106 318.007 140.106 317.281 140.106 316.556C140.106 315.106 140.832 315.106 142.282 314.381C146.633 312.93 156.786 308.579 164.763 298.426C157.511 292.624 150.259 288.998 145.908 286.097C143.732 288.273 139.381 293.349 137.931 293.349C137.206 293.349 136.48 292.624 136.48 291.899C136.48 291.174 137.206 290.448 137.931 290.448C143.007 286.097 145.908 282.471 149.534 276.669C151.71 273.043 151.71 273.043 156.786 273.043H171.29V272.318ZM153.885 275.219C152.435 275.219 151.71 275.944 151.71 275.944C149.534 279.57 148.084 281.02 147.359 283.196C156.061 287.547 161.137 291.173 166.214 294.799C170.565 287.547 172.741 278.845 172.741 276.669C172.741 275.219 171.29 275.219 170.565 275.219H153.885V275.219ZM178.542 270.143C179.993 271.593 182.894 275.944 182.894 277.395C182.894 278.12 182.168 278.845 180.718 278.845C179.993 278.845 179.993 278.845 177.817 275.219C177.092 273.768 174.916 270.867 174.191 269.417V268.692C174.191 268.692 174.191 267.242 176.367 267.242C176.367 267.242 177.092 267.242 178.542 270.143ZM185.794 266.517C187.245 267.967 190.146 272.318 190.146 273.769C190.146 274.494 189.42 275.219 188.695 275.219C187.97 275.219 187.245 274.493 186.52 273.043C185.069 270.867 183.619 268.692 182.168 266.517C182.168 265.791 181.443 265.791 181.443 265.066C181.443 264.34 182.168 263.616 183.619 263.616C183.619 263.616 183.619 263.616 185.794 266.517Z" fill="black"></path><path d="M140.831 319.456C138.656 319.456 137.205 317.281 137.205 315.83C137.205 313.655 139.381 312.929 140.106 312.204C144.457 310.754 153.16 307.127 160.412 298.425C154.61 294.073 148.809 291.173 144.457 288.272C142.282 290.448 137.931 294.799 135.755 294.799C134.305 294.799 132.129 293.348 132.129 291.173C132.129 289.722 132.854 288.998 133.579 288.272C138.656 283.921 141.557 280.295 145.183 274.493C147.358 270.867 148.083 270.142 153.885 270.142H169.84C170.565 270.142 171.29 270.142 171.29 270.142C171.29 270.142 170.565 269.416 170.565 267.966C170.565 266.515 171.29 264.34 174.191 264.34C175.641 264.34 176.366 265.065 178.542 267.966C182.893 274.493 182.893 275.218 182.893 275.943C182.893 278.119 181.443 279.569 179.267 279.569C177.817 279.569 177.092 278.844 175.641 277.394C174.916 281.745 172.74 291.173 166.214 299.151C158.236 315.106 142.282 319.456 140.831 319.456ZM145.908 314.38C144.457 315.105 143.007 315.83 142.282 315.83H141.557C141.557 315.83 143.007 315.105 145.908 314.38ZM164.763 296.975L165.488 297.7C165.488 297.7 165.488 297.7 165.488 298.425L166.214 297.7C166.214 297.7 166.214 297.7 165.488 297.7C165.488 296.974 165.488 296.975 164.763 296.975ZM149.534 283.195C156.786 286.821 161.137 289.723 165.488 292.624C169.114 286.822 170.565 279.57 171.29 277.394H170.565H153.885C153.16 277.394 153.16 277.394 153.16 277.394C151.709 280.295 150.259 281.745 149.534 283.195ZM137.205 291.173C136.48 291.898 136.48 291.898 136.48 291.898L137.205 291.173ZM145.183 283.195L144.457 283.92H145.183C145.183 283.92 145.183 283.921 145.183 283.195C145.183 283.921 145.183 283.921 145.183 283.195ZM172.74 274.493C173.466 275.218 174.191 275.944 174.191 277.394V278.119C174.191 277.394 174.191 276.668 174.191 276.668C174.191 275.943 174.191 275.218 172.74 274.493ZM187.97 276.668C185.794 276.668 185.069 275.218 184.344 273.768C182.893 271.592 181.443 269.416 179.992 267.241C179.267 266.516 179.267 265.79 179.267 265.065C179.267 264.34 179.992 263.615 180.718 262.89C181.443 262.164 182.893 262.164 183.619 262.164C185.069 262.164 185.794 262.889 187.97 265.79C191.596 270.866 192.321 273.043 192.321 273.768C191.596 275.218 190.145 276.668 187.97 276.668Z" fill="black"></path><path d="M209.729 310.03C215.531 296.976 219.882 286.823 224.233 272.318C224.958 269.417 225.684 268.692 226.409 268.692C227.134 268.692 228.585 269.418 228.585 270.143C228.585 271.594 222.058 290.449 213.355 309.304L242.363 305.678C238.012 297.701 235.111 294.075 234.386 292.625C233.661 291.9 233.661 291.174 233.661 290.449C233.661 289.724 234.386 288.999 235.111 288.999C235.837 288.999 236.562 289.724 237.287 290.449C245.989 302.052 251.066 313.656 251.066 314.381C251.066 315.832 249.616 315.832 248.89 315.832C248.165 315.832 247.44 315.107 246.715 313.656C245.989 311.481 244.539 309.305 243.814 307.854L203.927 313.656H203.202C202.477 313.656 201.752 312.931 201.752 312.205C201.752 310.755 202.477 310.755 203.202 310.755L209.729 310.03Z" fill="black"></path><path d="M248.888 318.732C246.713 318.732 245.987 317.282 245.262 315.106C244.537 313.655 243.812 312.205 243.087 310.03L203.925 315.831H203.2C201.025 315.831 199.574 314.381 199.574 312.205C199.574 310.754 200.299 309.304 203.2 308.579L208.277 307.854C213.353 294.8 217.704 285.372 222.056 271.592C223.506 268.691 223.506 267.241 225.682 267.241C227.857 267.241 229.308 268.692 229.308 270.867C229.308 273.043 222.056 291.173 215.529 307.854L238.735 304.953C236.56 300.601 233.659 296.975 232.209 294.799C231.483 294.074 230.758 292.624 230.758 291.899C230.758 289.723 232.934 288.273 234.384 288.273C236.56 288.273 237.285 288.998 238.01 290.448C245.987 301.326 251.789 313.655 251.789 315.831C253.239 317.281 251.064 318.732 248.888 318.732ZM211.903 309.304C211.903 309.304 211.903 310.029 211.903 309.304L211.177 310.755C211.177 310.755 211.178 311.48 210.452 311.48H212.628C212.628 311.48 211.903 311.48 211.903 310.755C212.628 310.03 211.903 310.029 211.903 309.304ZM245.987 307.854C245.987 308.579 246.713 309.304 246.713 309.304C246.713 309.304 246.713 308.579 245.987 307.854ZM244.537 306.404C245.262 306.404 245.987 306.403 245.987 307.129C245.262 306.403 245.262 305.678 244.537 304.953C244.537 305.678 244.537 305.678 244.537 306.404ZM227.132 271.592C227.132 272.318 227.132 272.317 226.407 273.042C225.682 275.218 224.956 278.119 224.231 280.295C225.682 275.943 226.407 273.043 227.132 271.592Z" fill="black"></path><path d="M275.731 271.593C275.731 270.867 276.456 270.143 277.181 270.143C277.907 270.143 278.632 270.142 278.632 271.593C278.632 272.318 278.632 273.043 278.632 273.043C276.456 281.02 275.731 288.998 275.731 296.975C275.731 300.601 275.731 306.403 277.181 311.48C277.181 311.48 277.907 314.381 277.907 315.106C277.907 315.831 277.181 316.556 276.456 316.556C275.006 316.556 275.006 315.831 275.006 315.106C274.281 313.655 272.83 307.129 272.83 296.25C272.83 288.273 274.281 275.219 275.731 271.593ZM292.411 296.25C293.136 296.25 293.861 296.975 293.861 297.7C293.861 298.426 293.861 298.426 293.136 299.151C292.411 300.602 290.235 302.052 290.235 304.227C290.235 308.579 294.586 310.03 304.014 310.03C306.915 310.03 309.816 310.029 312.717 309.304C313.442 309.304 316.343 308.579 316.343 308.579C316.343 308.579 318.518 308.579 318.518 310.03C318.518 310.755 318.518 311.48 317.068 311.48C315.617 312.205 309.816 312.205 304.739 312.205C296.762 312.205 287.334 311.48 287.334 303.502C287.334 300.602 290.96 296.25 292.411 296.25ZM314.167 278.845C314.167 278.845 306.915 278.845 305.465 278.845C300.388 278.845 296.762 278.845 294.586 279.57C293.861 279.57 291.686 279.57 290.96 279.57C289.51 279.57 289.51 278.12 289.51 278.12C289.51 277.395 289.51 276.669 290.96 276.669C291.686 276.669 299.663 275.944 304.014 275.944C305.465 275.944 313.442 275.944 314.167 276.669C314.892 276.669 314.892 277.395 314.892 278.12C315.617 278.12 315.618 278.845 314.167 278.845Z" fill="black"></path><path d="M276.452 318.732C275.002 318.732 273.551 318.007 272.826 315.831C272.826 315.106 270.65 308.579 270.65 296.251C270.65 288.273 272.826 274.494 273.551 270.868C274.276 268.693 275.727 268.692 277.177 268.692C278.628 268.692 280.803 270.143 280.803 272.318C280.803 273.044 280.803 273.769 280.803 274.494C278.628 282.472 277.902 289.723 277.902 297.701C277.902 303.502 278.628 307.854 279.353 311.48C279.353 311.48 280.078 314.381 280.078 315.106C280.078 317.282 278.628 318.732 276.452 318.732ZM305.46 315.106C300.384 315.106 285.88 315.106 285.88 304.228C285.88 299.877 289.506 294.075 292.407 294.075C293.857 294.075 296.033 295.525 296.033 296.976C296.033 297.701 296.033 298.427 295.307 299.152C294.582 300.602 293.132 302.052 293.132 303.503C293.132 305.678 294.582 307.129 305.46 307.129C308.361 307.129 311.262 307.129 313.437 306.404H314.163C315.613 306.404 317.064 306.404 317.064 306.404C319.239 306.404 320.69 307.854 320.69 310.03C320.69 311.48 319.964 312.931 318.514 313.656C316.338 315.106 310.537 315.106 305.46 315.106ZM291.681 281.021C289.506 281.021 288.055 279.571 288.055 277.395C288.055 275.22 289.506 274.495 290.956 273.769C292.406 273.769 299.659 273.043 304.01 273.043C313.437 273.043 314.888 273.769 314.888 273.769C315.613 273.769 317.064 274.494 317.064 276.669C317.064 278.845 315.613 280.296 313.437 280.296C313.437 280.296 312.712 280.296 311.987 280.296C309.811 280.296 305.46 280.296 304.735 280.296C300.384 280.296 296.758 280.296 294.582 281.021H293.132C293.132 281.021 291.681 281.021 291.681 281.021ZM314.163 277.395V278.845V277.395ZM314.163 277.395C314.163 276.67 314.163 276.67 314.163 277.395V277.395Z" fill="black"></path><path d="M360.572 291.899H346.068C341.717 291.899 340.267 290.448 340.267 286.097V272.317C340.267 271.592 340.267 270.867 341.717 270.867C343.167 270.867 343.167 271.592 343.167 272.317V286.097C343.167 288.273 344.618 288.998 346.068 288.998H359.847V267.966C359.847 267.241 359.847 266.516 361.298 266.516C362.748 266.516 362.748 267.241 362.748 267.966V288.998H376.527C378.702 288.998 379.428 288.273 379.428 286.097V272.317C379.428 271.592 379.427 270.867 380.878 270.867C382.328 270.867 382.328 271.592 382.328 272.317V286.097C382.328 290.448 380.878 291.899 376.527 291.899H362.748V315.831H378.702C380.878 315.831 381.603 315.106 381.603 312.93V300.601C381.603 299.876 381.603 299.151 383.054 299.151C384.504 299.151 384.504 299.876 384.504 300.601V312.93C384.504 317.281 383.053 318.732 378.702 318.732H342.442C338.091 318.732 336.641 317.281 336.641 312.93V300.601C336.641 299.876 336.641 299.151 338.091 299.151C339.541 299.151 339.541 299.876 339.541 300.601V312.93C339.541 315.106 340.992 315.831 342.442 315.831H358.397V291.899H360.572Z" fill="black"></path><path d="M380.157 320.907H343.897C338.821 320.907 335.92 318.731 335.92 312.929V300.601C335.92 297.7 337.37 296.975 339.546 296.975C341.722 296.975 343.172 298.426 343.172 300.601V312.929C343.172 313.655 343.172 314.38 344.622 314.38H359.126V294.074H346.073C340.996 294.074 338.821 291.899 338.821 286.097V272.318C338.821 269.417 340.271 268.692 342.447 268.692C344.622 268.692 346.073 270.142 346.073 272.318V286.097C346.073 286.822 346.073 287.547 347.523 287.547H359.126V268.692C359.126 265.791 360.577 265.066 362.752 265.066C364.928 265.066 366.378 266.516 366.378 268.692V287.547H377.982C379.432 287.547 379.432 287.548 379.432 286.097V272.318C379.432 269.417 380.883 268.692 383.058 268.692C385.234 268.692 386.684 270.142 386.684 272.318V286.097C386.684 291.174 384.509 294.074 378.707 294.074H366.378V314.38H380.883C381.608 314.38 382.333 314.38 382.333 312.929V300.601C382.333 297.7 383.783 296.975 385.959 296.975C388.135 296.975 389.585 298.426 389.585 300.601V312.929C388.135 318.006 385.234 320.907 380.157 320.907ZM362.027 317.281C362.027 316.556 362.027 316.556 362.027 317.281C362.027 316.556 362.027 316.556 362.027 317.281ZM361.302 290.448C362.027 290.448 362.027 291.173 361.302 290.448C362.027 291.173 362.027 290.448 362.027 290.448C362.027 290.448 362.027 290.448 361.302 290.448C362.027 290.448 362.027 290.448 361.302 290.448Z" fill="black"></path><path d="M409.887 290.448H404.085C403.36 290.448 402.635 290.449 402.635 288.998C402.635 287.548 404.085 287.547 404.085 287.547H409.887V272.318H404.085C403.36 272.318 402.635 272.319 402.635 270.868C402.635 269.418 404.085 269.417 404.085 269.417H419.315C420.04 269.417 420.765 269.418 420.765 270.868C420.765 272.319 419.315 272.318 419.315 272.318H412.788V287.547H417.864C418.589 287.547 419.315 287.548 419.315 288.998C419.315 290.449 417.864 290.448 417.864 290.448H412.788V306.403C414.963 305.678 417.139 304.952 417.864 304.952C419.315 304.227 420.04 304.227 420.04 304.227C420.765 304.227 421.49 304.952 421.49 305.677C421.49 307.128 421.49 307.128 417.139 308.578C411.337 310.029 404.085 311.479 404.085 311.479C403.36 311.479 402.635 310.754 402.635 310.029C402.635 308.579 403.36 308.578 404.085 308.578C405.536 307.853 408.436 307.853 410.612 307.128V290.448H409.887ZM428.017 300.601C424.391 300.601 423.666 299.151 423.666 295.525V273.043C423.666 269.417 425.116 268.692 428.017 268.692H449.048C452.674 268.692 454.125 270.142 454.125 273.043V295.525C454.125 299.151 452.674 300.601 449.048 300.601H443.972V314.38C443.972 316.556 445.422 316.555 446.872 316.555C451.224 316.555 451.949 316.555 451.949 315.83C451.949 315.105 451.949 314.38 452.674 310.029C452.674 308.579 452.674 307.853 454.125 307.853C454.85 307.853 455.575 308.578 455.575 309.303C455.575 310.754 454.85 316.556 454.125 318.006C453.399 319.457 452.674 319.456 445.422 319.456C442.521 319.456 440.346 318.731 440.346 314.38V300.601H433.819C433.094 306.403 430.918 312.93 422.215 317.281C419.315 318.732 416.414 319.456 415.689 319.456C414.963 319.456 414.238 318.732 414.238 317.281C414.238 316.556 414.963 315.83 415.689 315.83C423.666 313.655 429.468 310.029 430.918 299.876H428.017V300.601ZM426.567 278.12H450.498V273.769C450.498 272.319 449.773 271.593 448.323 271.593H428.742C427.292 271.593 426.567 272.319 426.567 273.769V278.12ZM450.498 281.021H426.567V287.547H450.498V281.021ZM426.567 290.448V295.525C426.567 296.976 427.292 297.7 428.742 297.7H448.323C449.773 297.7 450.498 296.976 450.498 295.525V290.448H426.567Z" fill="black"></path><path d="M416.417 321.633C414.241 321.633 412.791 320.183 412.791 318.007C412.791 317.282 412.791 315.831 415.692 315.106C422.944 312.93 428.02 310.03 429.47 302.778H428.745C424.394 302.778 422.218 300.602 422.218 296.25V290.448C422.218 291.899 420.768 292.624 418.592 292.624H414.966V304.953C416.417 304.953 417.142 304.228 417.867 304.228H418.592C420.043 303.502 420.768 303.503 420.768 303.503C422.218 303.503 423.669 304.953 423.669 307.129C423.669 310.03 422.218 310.03 417.867 311.48C412.791 312.93 404.813 314.381 404.088 314.381C402.638 314.381 401.188 312.931 401.188 310.755C401.188 308.579 403.363 307.854 403.363 307.854C404.813 307.129 406.989 307.129 408.44 306.404V292.624H404.814C401.913 292.624 401.188 291.174 401.188 289.723C401.188 288.273 401.913 286.097 404.814 286.097H408.44V274.494H404.814C401.913 274.494 401.188 273.043 401.188 271.592C401.188 270.142 401.913 268.691 404.814 268.691H420.043C421.493 268.691 422.218 269.417 422.944 270.142C423.669 267.967 425.844 267.241 428.745 267.241H449.776C454.127 267.241 456.303 269.417 456.303 273.768V296.25C456.303 300.602 454.127 302.778 449.776 302.778H446.875V314.381V315.106H447.601C449.051 315.106 450.501 315.106 451.227 315.106C451.227 314.381 451.227 313.656 451.227 312.205V310.755C451.227 309.304 451.227 306.404 454.853 306.404C457.028 306.404 458.479 307.854 458.479 310.03C458.479 310.755 458.479 317.282 456.303 319.457C454.853 321.633 453.402 321.633 446.15 321.633C443.249 321.633 439.623 320.908 439.623 315.106V302.778H436.723C435.272 308.579 433.096 315.106 424.394 319.457C420.768 320.183 417.142 321.633 416.417 321.633ZM412.066 307.854C412.066 307.854 411.34 308.579 412.066 307.854C412.066 308.579 412.066 308.579 412.066 307.854ZM428.745 295.525C428.745 295.525 428.745 296.251 428.745 295.525H448.326C448.326 295.525 449.051 295.525 449.051 294.799V291.173H428.745V295.525ZM411.34 288.998C412.066 288.998 412.066 288.998 412.066 288.998C412.066 288.998 412.066 288.273 411.34 288.998C411.34 288.998 411.34 288.273 411.34 288.998ZM414.966 285.372H418.592C420.768 285.372 421.493 286.822 422.218 287.547V273.043C421.493 273.043 420.768 273.768 420.043 273.768H415.692V285.372H414.966ZM428.745 285.372H449.051V282.471H428.745V285.372ZM428.745 276.669H449.051V273.768V273.043H429.47C429.47 273.043 428.745 273.043 428.745 273.768V276.669Z" fill="black"></path><path d="M224.226 122.198C222.05 122.198 220.6 120.747 220.6 118.572V114.945C220.6 112.77 222.05 111.319 224.226 111.319C226.401 111.319 227.852 112.77 227.852 114.945V118.572C227.852 120.022 225.676 122.198 224.226 122.198Z" fill="black"></path><path d="M224.226 173.688C222.05 173.688 220.6 172.237 220.6 170.062V163.535C220.6 161.359 222.05 159.909 224.226 159.909C226.401 159.909 227.852 161.359 227.852 163.535V170.062C227.852 172.237 225.676 173.688 224.226 173.688ZM224.226 147.58C222.05 147.58 220.6 146.13 220.6 143.954V137.427C220.6 135.252 222.05 133.801 224.226 133.801C226.401 133.801 227.852 135.252 227.852 137.427V143.954C227.852 146.13 225.676 147.58 224.226 147.58Z" fill="black"></path><path d="M224.226 196.894C222.05 196.894 220.6 195.444 220.6 193.268V189.643C220.6 187.468 222.05 186.017 224.226 186.017C226.401 186.017 227.852 187.468 227.852 189.643V193.268C227.852 195.444 225.676 196.894 224.226 196.894Z" fill="black"></path><path d="M206.094 188.193L224.224 219.377L242.354 188.193H206.094Z" fill="black"></path></svg> 