<?xml version="1.0" encoding="UTF-8"?> <svg xmlns="http://www.w3.org/2000/svg" width="389" height="352" viewBox="0 0 389 352" fill="none"><path d="M227.659 136.341C225.484 136.341 224.033 134.891 224.033 132.716V129.09C224.033 126.915 225.484 125.465 227.659 125.465C229.835 125.465 231.285 126.915 231.285 129.09V132.716C231.285 134.166 229.835 136.341 227.659 136.341Z" fill="black"></path><path d="M227.659 187.832C225.484 187.832 224.033 186.382 224.033 184.206V177.679C224.033 175.503 225.484 174.053 227.659 174.053C229.835 174.053 231.285 175.503 231.285 177.679V184.206C231.285 186.382 229.835 187.832 227.659 187.832ZM227.659 161.724C225.484 161.724 224.033 160.274 224.033 158.098V151.571C224.033 149.395 225.484 147.945 227.659 147.945C229.835 147.945 231.285 149.395 231.285 151.571V158.098C231.285 160.274 229.835 161.724 227.659 161.724Z" fill="black"></path><path d="M227.659 211.039C225.484 211.039 224.033 209.589 224.033 207.413V203.787C224.033 201.611 225.484 200.161 227.659 200.161C229.835 200.161 231.285 201.611 231.285 203.787V207.413C231.285 209.589 229.835 211.039 227.659 211.039Z" fill="black"></path><path d="M209.527 202.337L227.657 233.52L245.788 202.337H209.527Z" fill="black"></path><path d="M82.6208 347.381C82.6208 348.831 81.1704 349.556 80.4452 349.556C78.9948 349.556 78.2695 348.831 78.2695 347.381V308.944C78.2695 306.768 78.2696 303.143 83.346 303.143H89.8728C93.4989 303.143 96.3997 303.142 99.3005 304.593C104.377 307.493 105.102 313.295 105.102 316.196C105.102 320.547 103.652 324.898 98.5753 327.799C95.6745 329.25 92.7737 329.25 89.1476 329.25H81.8956V347.381H82.6208ZM89.1476 325.624C93.4989 325.624 101.476 325.624 101.476 316.196C101.476 306.043 93.4989 306.043 89.1476 306.043H84.7964C83.346 306.043 82.6208 306.768 82.6208 308.219V325.624H89.1476Z" fill="black"></path><path d="M80.4483 351.007C78.2727 351.007 76.8223 349.557 76.8223 347.381V308.944C76.8223 303.868 78.9979 301.692 84.0743 301.692H90.6012C94.2272 301.692 97.128 301.693 100.754 303.868C107.281 307.494 108.006 314.021 108.006 316.922C108.006 322.723 105.105 327.8 100.754 329.976C97.128 331.426 94.2272 332.152 90.6012 332.152H84.7995V348.831C84.0743 349.556 81.8987 351.007 80.4483 351.007ZM82.6239 304.593C80.4483 304.593 80.4483 306.044 80.4483 308.219V346.656V328.526C80.4483 327.8 81.1735 327.075 81.8987 327.075C81.1735 327.075 80.4483 326.35 80.4483 325.625V308.219C80.4483 306.769 81.1735 305.319 82.6239 304.593ZM84.0743 324.174H89.1507C94.9524 324.174 100.029 323.449 100.029 316.197C100.029 308.944 94.9524 308.219 89.1507 308.219H84.7995H84.0743C84.0743 308.219 84.0743 308.219 84.0743 308.944V324.174V324.174ZM101.479 309.669C102.204 311.12 102.93 313.296 102.93 316.197C102.93 318.372 102.204 320.548 101.479 321.999C102.204 320.548 102.93 318.372 102.93 316.197C103.655 314.746 102.93 311.845 101.479 309.669Z" fill="black"></path><path d="M149.339 345.93C150.064 346.656 150.064 347.381 150.064 347.381C150.064 348.107 148.614 348.832 147.889 348.832C147.163 348.832 146.438 348.107 146.438 347.381L131.209 327.075H126.132V346.656C126.132 348.107 124.682 348.832 123.957 348.832C122.506 348.832 121.781 348.107 121.781 346.656V308.219C121.781 306.043 121.781 302.417 126.858 302.417H134.835C144.263 302.417 148.614 308.219 148.614 314.746C148.614 319.823 145.713 327.075 134.835 327.075L149.339 345.93ZM134.11 324.174C137.011 324.174 145.713 324.174 145.713 315.471C145.713 306.768 137.736 306.769 134.11 306.769H129.033C127.583 306.769 126.858 307.493 126.858 308.944V324.174H134.11V324.174Z" fill="black"></path><path d="M148.616 351.007C147.166 351.007 145.716 349.556 145.716 348.831L130.486 329.251H128.311V347.381C128.311 349.557 126.135 351.007 124.685 351.007C122.509 351.007 121.059 349.557 121.059 347.381V308.944C121.059 303.868 123.234 301.692 128.311 301.692H136.288C147.891 301.692 151.517 308.945 151.517 315.471C151.517 321.273 148.616 327.8 139.914 329.251L151.517 345.205L150.067 346.656L151.517 345.93C152.242 346.655 152.968 347.381 152.968 348.831C152.243 349.556 150.067 351.007 148.616 351.007ZM126.86 304.593C124.685 304.593 124.685 306.044 124.685 308.219V346.656V327.075C124.685 326.349 125.41 325.625 126.135 325.625C125.41 325.625 124.685 324.899 124.685 324.174V308.944C124.685 306.769 125.41 305.319 126.86 304.593ZM148.616 346.656L150.067 345.93L148.616 346.656ZM132.662 326.35L134.112 328.526V327.8L134.838 327.075H134.112H132.662V326.35ZM128.311 322.724H134.112C139.189 322.724 143.54 321.998 143.54 315.471C143.54 309.67 139.914 308.219 134.112 308.219H129.036H128.311C128.311 308.219 128.311 308.219 128.311 308.944V322.724ZM142.09 306.043C144.99 307.494 147.166 310.395 147.166 314.746C147.166 317.647 146.441 319.823 145.716 321.274C147.166 319.098 147.891 316.197 147.891 314.746C147.166 311.12 145.716 308.219 142.09 306.043Z" fill="black"></path><path d="M188.505 301.692C201.559 301.692 211.711 311.846 211.711 325.624C211.711 339.403 201.559 349.556 188.505 349.556C175.451 349.556 165.298 339.403 165.298 325.624C164.573 311.846 174.726 301.692 188.505 301.692ZM188.505 345.93C200.108 345.93 208.085 337.228 208.085 325.624C208.085 314.021 199.383 305.318 188.505 305.318C177.627 305.318 168.924 314.021 168.924 325.624C168.199 337.228 176.902 345.93 188.505 345.93Z" fill="black"></path><path d="M188.507 351.007C174.003 351.007 163.125 340.129 163.125 325.624C163.125 311.12 174.003 300.241 188.507 300.241C203.011 300.241 213.889 311.12 213.889 325.624C213.889 340.129 203.011 351.007 188.507 351.007ZM197.935 306.042C205.187 309.669 209.538 316.921 209.538 325.624C209.538 334.327 204.462 341.579 197.935 345.205C205.187 341.579 210.263 334.327 210.263 325.624C210.263 316.921 205.187 308.943 197.935 306.042ZM178.354 306.042C171.102 309.669 166.026 316.921 166.026 325.624C166.026 335.052 171.102 342.304 178.354 345.205C171.102 341.579 166.751 334.327 166.751 325.624C166.751 316.921 171.827 309.669 178.354 306.042ZM188.507 307.493C178.354 307.493 170.377 315.471 170.377 325.624C170.377 335.777 178.354 343.755 188.507 343.755C198.66 343.755 206.637 335.777 206.637 325.624C205.912 315.471 198.66 307.493 188.507 307.493Z" fill="black"></path><path d="M253.049 323.448C254.499 323.448 254.499 324.174 254.499 324.899C254.499 325.625 253.774 326.35 253.049 326.35H233.468V346.656C233.468 348.107 232.018 348.832 231.293 348.832C229.842 348.832 229.117 348.107 229.117 346.656V308.219C229.117 306.043 229.117 302.417 234.194 302.417H255.225C256.675 302.417 256.675 303.868 256.675 303.868C256.675 304.593 255.95 305.318 255.225 305.318H235.644C234.194 305.318 233.468 306.043 233.468 307.494V321.998H253.049V323.448Z" fill="black"></path><path d="M231.296 351.007C229.12 351.007 227.67 349.557 227.67 347.381V308.944C227.67 303.868 229.846 301.692 234.922 301.692H255.228C257.403 301.692 258.854 303.868 258.854 305.318C258.854 307.494 257.403 308.944 255.228 308.944H235.647H234.922C234.922 308.944 234.922 308.944 234.922 309.669V322.724H253.052C255.228 322.724 256.678 324.174 256.678 326.35C256.678 328.525 255.228 329.976 253.052 329.976H234.922V348.831C234.922 349.556 233.472 351.007 231.296 351.007ZM234.197 304.593C232.021 304.593 232.021 306.044 232.021 308.219V346.656V326.35C232.021 325.624 232.746 324.9 233.472 324.9C232.746 324.9 232.021 324.174 232.021 323.449V308.944C231.296 306.769 232.021 305.319 234.197 304.593Z" fill="black"></path><path d="M275.531 303.868C275.531 302.418 276.982 301.692 277.707 301.692C279.157 301.692 279.882 302.418 279.882 303.868V347.381C279.882 348.831 278.432 349.556 277.707 349.556C276.256 349.556 275.531 348.831 275.531 347.381V303.868Z" fill="black"></path><path d="M276.978 351.007C274.802 351.007 273.352 349.557 273.352 347.381V303.867C273.352 301.692 275.527 300.241 276.978 300.241C279.153 300.241 280.604 301.692 280.604 303.867V347.381C281.329 349.557 279.153 351.007 276.978 351.007ZM276.978 303.867V347.381V303.867Z" fill="black"></path><path d="M304.543 348.106C299.467 348.106 299.467 344.479 299.467 342.304V303.868C299.467 302.418 300.917 301.692 301.642 301.692C303.093 301.692 303.818 302.418 303.818 303.868V342.304C303.818 344.479 304.543 344.48 305.994 344.48H319.773C321.223 344.48 321.223 345.204 321.223 345.93C321.223 346.655 320.498 347.381 319.773 347.381H304.543V348.106Z" fill="black"></path><path d="M319.768 350.282H304.539C300.188 350.282 297.287 347.381 297.287 343.03V304.592C297.287 302.417 299.463 300.966 300.913 300.966C303.089 300.966 304.539 302.417 304.539 304.592V343.03C304.539 343.03 304.539 343.029 304.539 343.755C304.539 343.755 304.539 343.755 305.264 343.755H319.043C321.219 343.755 322.669 345.205 322.669 347.381C323.394 348.831 321.944 350.282 319.768 350.282ZM301.638 303.867V342.304C301.638 344.479 302.363 345.93 303.814 345.93C302.363 345.205 301.638 344.479 301.638 342.304V303.867Z" fill="black"></path><path d="M361.101 323.448C362.552 323.448 362.552 324.899 362.552 324.899C362.552 325.625 361.826 326.349 361.101 326.349H341.521V342.304C341.521 344.479 342.246 344.48 343.696 344.48H364.002C365.452 344.48 365.452 345.204 365.452 345.93C365.452 346.655 364.727 347.381 364.002 347.381H342.971C337.895 347.381 337.895 343.754 337.895 341.579V307.494C337.895 305.319 337.895 301.692 342.971 301.692H363.277C364.727 301.692 364.727 303.143 364.727 303.143C364.727 303.868 364.002 304.593 363.277 304.593H343.696C342.246 304.593 341.521 305.319 341.521 306.769V321.273H361.101V323.448Z" fill="black"></path><path d="M363.998 350.282H342.967C338.616 350.282 335.715 347.381 335.715 343.03V308.944C335.715 303.868 337.89 301.692 342.967 301.692H363.273C365.448 301.692 366.899 303.868 366.899 305.318C366.899 307.494 365.448 308.944 363.273 308.944H343.692H342.967C342.967 308.944 342.967 308.944 342.967 309.669V321.999H361.097C363.273 321.999 364.723 323.449 364.723 325.625C364.723 327.8 363.273 329.251 361.097 329.251H342.967V343.755C342.967 343.755 342.967 343.755 342.967 344.48C342.967 344.48 342.967 344.48 343.692 344.48H363.998C366.174 344.48 367.624 345.93 367.624 348.106C367.624 348.831 366.174 350.282 363.998 350.282ZM341.517 304.593C339.341 304.593 339.341 306.044 339.341 308.219V342.304C339.341 344.479 340.066 345.93 341.517 345.93C340.066 345.205 339.341 344.479 339.341 342.304V326.35C339.341 325.624 340.066 324.9 340.791 324.9C340.066 324.9 339.341 324.174 339.341 323.449V308.944C339.341 306.769 340.066 305.319 341.517 304.593Z" fill="black"></path><path d="M170.372 60.9194C171.098 61.6446 171.098 62.3695 171.098 62.3695C171.098 63.0947 169.647 63.8204 168.922 63.8204C168.197 63.8204 167.471 63.0947 167.471 62.3695L152.242 42.0639H147.166V61.6444C147.166 63.0949 145.715 63.8204 144.99 63.8204C143.54 63.8204 142.814 63.0949 142.814 61.6444V23.2075C142.814 21.0318 142.814 17.4062 147.891 17.4062H155.868C165.296 17.4062 169.647 23.2076 169.647 29.7346C169.647 34.8111 166.746 42.0639 155.868 42.0639L170.372 60.9194ZM154.418 39.1628C157.319 39.1628 166.021 39.1623 166.021 30.4596C166.021 21.757 158.044 21.7574 154.418 21.7574H149.341C147.891 21.7574 147.166 22.4829 147.166 23.9334V39.1628H154.418V39.1628Z" fill="black"></path><path d="M168.925 65.9949C167.475 65.9949 166.024 64.545 166.024 63.8198L150.795 44.2386H148.619V62.3688C148.619 64.5445 146.444 65.9949 144.993 65.9949C142.818 65.9949 141.367 64.5445 141.367 62.3688V23.9332C141.367 18.8567 143.543 16.6811 148.619 16.6811H156.597C168.2 16.6811 171.826 23.9325 171.826 30.4594C171.826 36.2611 168.925 42.7881 160.223 44.2386L172.551 59.4678L171.101 60.9188L172.551 60.1937C173.276 60.9189 174.002 61.6434 174.002 63.0939C173.276 64.5443 171.101 65.9949 168.925 65.9949ZM147.169 19.5812C144.993 19.5812 144.993 21.0316 144.993 23.2073V61.6438V42.0635C144.993 41.3382 145.718 40.6125 146.444 40.6125C145.718 40.6125 144.993 39.8876 144.993 39.1624V23.9332C144.993 21.7575 145.718 20.3064 147.169 19.5812ZM168.925 61.6438L170.375 60.9188L168.925 61.6438ZM152.971 41.3375L154.421 43.5135V42.7885L155.146 42.0635H154.421H152.971V41.3375ZM148.619 37.7115H154.421C159.497 37.7115 163.849 36.9863 163.849 30.4594C163.849 24.6577 160.223 23.2073 154.421 23.2073H149.344H148.619C148.619 23.2073 148.619 23.208 148.619 23.9332V37.7115ZM163.123 21.7572C165.299 23.2076 167.475 26.1081 167.475 30.4594C167.475 33.3602 166.749 35.536 166.024 36.9864C167.475 34.8108 168.2 31.9098 168.2 30.4594C168.2 26.1081 166.749 23.2076 163.123 21.7572Z" fill="black"></path><path d="M208.82 16.6811C221.874 16.6811 232.027 26.8335 232.027 40.6124C232.027 54.3914 221.874 64.5447 208.82 64.5447C195.766 64.5447 185.613 54.3914 185.613 40.6124C185.613 26.8335 195.766 16.6811 208.82 16.6811ZM208.82 60.9186C220.423 60.9186 228.4 52.2158 228.4 40.6124C228.4 29.0091 219.698 20.3071 208.82 20.3071C197.942 20.3071 189.239 29.0091 189.239 40.6124C189.239 52.2158 197.942 60.9186 208.82 60.9186Z" fill="black"></path><path d="M208.816 65.9949C194.312 65.9949 183.434 55.1167 183.434 40.6124C183.434 26.1082 194.312 15.23 208.816 15.23C223.32 15.23 234.198 26.1082 234.198 40.6124C234.198 55.1167 223.32 65.9949 208.816 65.9949ZM218.244 21.032C225.496 24.6581 230.572 31.9099 230.572 40.6124C230.572 49.315 225.496 57.2929 218.244 60.1937C225.496 56.5676 230.572 49.315 230.572 40.6124C230.572 31.1847 225.496 23.9329 218.244 21.032ZM199.388 21.032C192.136 24.6581 187.06 31.9099 187.06 40.6124C187.06 50.0402 192.136 57.2929 199.388 60.1937C192.136 56.5676 187.06 49.315 187.06 40.6124C187.06 31.9099 192.136 24.6581 199.388 21.032ZM208.816 22.4821C198.663 22.4821 190.686 30.4595 190.686 40.6124C190.686 50.7654 198.663 58.7428 208.816 58.7428C218.969 58.7428 226.946 50.7654 226.946 40.6124C226.946 30.4595 218.969 22.4821 208.816 22.4821Z" fill="black"></path><path d="M273.356 38.4378C274.806 38.4378 274.806 39.1626 274.806 39.8879C274.806 40.6131 274.081 41.3379 273.356 41.3379H253.775V61.6444C253.775 63.0949 252.325 63.8204 251.599 63.8204C250.149 63.8204 249.424 63.0949 249.424 61.6444V23.2075C249.424 21.0318 249.424 17.4062 254.5 17.4062H274.806C276.256 17.4062 276.257 18.8563 276.257 18.8563C276.257 19.5815 275.531 20.3073 274.806 20.3073H255.226C253.775 20.3073 253.05 21.032 253.05 22.4824V36.9868H273.356V38.4378Z" fill="black"></path><path d="M252.327 65.9949C250.152 65.9949 248.701 64.5445 248.701 62.3688V23.9332C248.701 18.8567 250.877 16.6811 255.953 16.6811H276.259C278.435 16.6811 279.885 18.8567 279.885 20.3071C279.885 22.4828 278.435 23.9332 276.259 23.9332H256.678H255.953C255.953 23.9332 255.953 23.933 255.953 24.6582V37.7115H274.083C276.259 37.7115 277.709 39.1619 277.709 41.3375C277.709 43.5132 276.259 44.9636 274.083 44.9636H255.953V63.8198C255.953 64.545 253.778 65.9949 252.327 65.9949ZM254.503 19.5812C252.327 19.5812 252.327 21.0316 252.327 23.2073V61.6438V41.3375C252.327 40.6123 253.052 39.8875 253.778 39.8875C253.052 39.8875 252.327 39.1626 252.327 38.4374V23.9332C252.327 21.7575 253.052 20.3064 254.503 19.5812Z" fill="black"></path><path d="M295.828 18.8562C295.828 17.4058 297.279 16.6811 298.004 16.6811C299.454 16.6811 300.179 17.4058 300.179 18.8562V62.3687C300.179 63.8191 298.729 64.5447 298.004 64.5447C296.553 64.5447 295.828 63.8191 295.828 62.3687V18.8562Z" fill="black"></path><path d="M298.009 65.9949C295.833 65.9949 294.383 64.5445 294.383 62.3688V18.856C294.383 15.9552 296.558 15.23 298.009 15.23C300.184 15.23 301.635 16.6804 301.635 18.856V62.3688C301.635 64.5445 299.459 65.9949 298.009 65.9949ZM298.009 18.856V62.3688V18.856Z" fill="black"></path><path d="M325.573 63.0945C320.496 63.0945 320.496 59.4689 320.496 57.2932V18.8562C320.496 17.4058 321.947 16.6811 322.672 16.6811C324.122 16.6811 324.847 17.4058 324.847 18.8562V57.2932C324.847 59.4689 325.573 59.4684 327.023 59.4684H340.802C342.252 59.4684 342.252 60.1941 342.252 60.9193C342.252 61.6445 341.527 62.3694 340.802 62.3694H325.573V63.0945Z" fill="black"></path><path d="M340.8 65.2698H325.57C321.219 65.2698 318.318 62.3689 318.318 58.0177V19.5811C318.318 17.4055 320.494 15.9551 321.944 15.9551C324.12 15.9551 325.57 17.4055 325.57 19.5811V58.0177C325.57 58.0177 325.57 58.0175 325.57 58.7427C325.57 58.7427 325.57 58.7427 326.296 58.7427H340.075C342.25 58.7427 343.701 60.1931 343.701 62.3687C343.701 63.8192 342.25 65.2698 340.8 65.2698ZM321.944 18.8561V57.2926C321.944 59.4683 321.944 60.9187 324.12 60.9187C322.67 60.1935 321.944 59.4683 321.944 57.2926V18.8561Z" fill="black"></path><path d="M381.412 37.7117C382.862 37.7117 382.862 39.1626 382.862 39.1626C382.862 39.8879 382.137 40.6127 381.412 40.6127H361.831V56.5681C361.831 58.7437 362.556 58.7432 364.007 58.7432H384.313C385.763 58.7432 385.763 59.4689 385.763 60.1941C385.763 60.9194 385.038 61.6442 384.313 61.6442H363.282C358.205 61.6442 358.205 58.0178 358.205 55.8421V21.7572C358.205 19.5816 358.205 15.9551 363.282 15.9551H383.587C385.038 15.9551 385.038 17.4061 385.038 17.4061C385.038 18.1313 384.313 18.8562 383.587 18.8562H364.007C362.556 18.8562 361.831 19.5818 361.831 21.0322V35.5366H381.412V37.7117Z" fill="black"></path><path d="M384.308 65.2698H363.277C358.926 65.2698 356.025 62.369 356.025 58.0177V23.9332C356.025 18.8567 358.201 16.6811 363.277 16.6811H383.583C385.759 16.6811 387.209 18.8567 387.209 20.3071C387.209 22.4828 385.759 23.9332 383.583 23.9332H364.003H363.277C363.277 23.9332 363.277 23.933 363.277 24.6582V36.9864H381.408C383.583 36.9864 385.034 38.4369 385.034 40.6125C385.034 42.7881 383.583 44.2385 381.408 44.2385H364.003V58.7427C364.003 58.7427 364.003 58.7426 364.003 59.4678C364.003 59.4678 364.003 59.4678 364.728 59.4678H385.034C387.209 59.4678 388.66 60.9182 388.66 63.0938C387.934 63.819 386.484 65.2698 384.308 65.2698ZM362.552 19.5812C360.377 19.5812 360.377 21.0316 360.377 23.2073V57.2927C360.377 59.4683 360.377 60.9187 362.552 60.9187C361.102 60.1935 360.377 59.4683 360.377 57.2927V41.3375C360.377 40.6123 361.102 39.8875 361.827 39.8875C361.102 39.8875 360.377 39.1626 360.377 38.4374V23.9332C360.377 21.7576 361.102 20.3064 362.552 19.5812Z" fill="black"></path><path d="M68.1168 61.6444C68.1168 63.0948 66.6665 63.8204 65.9413 63.8204C64.4909 63.8204 63.7656 63.0948 63.7656 61.6444V23.2074C63.7656 21.0318 63.7657 17.4062 68.8421 17.4062H64.4908C68.1169 17.4062 71.0177 17.4058 73.9185 18.8563C78.995 21.7572 79.7202 27.5587 79.7202 30.4596C79.7202 34.8109 78.2698 39.1629 73.1933 42.0638C70.2925 43.5143 67.3917 43.5139 63.7656 43.5139H66.6665V61.6444H68.1168ZM64.4908 39.8878C68.8421 39.8878 76.8194 39.8875 76.8194 30.4596C76.8194 20.3065 68.8421 20.3073 64.4908 20.3073H70.2925C68.8421 20.3073 68.1168 21.0319 68.1168 22.4824V39.8878H64.4908Z" fill="black"></path><path d="M65.9463 65.2698C63.7707 65.2698 62.3203 63.8193 62.3203 61.6437V23.2071C62.3203 21.0315 63.0455 19.5814 63.7707 18.131V17.406C63.7707 16.6808 64.4959 15.23 65.9463 15.23H70.2976C71.0228 15.23 71.0228 15.23 71.0228 15.23C72.4732 15.23 74.6488 15.9557 76.0992 16.6809C82.6261 20.307 83.3513 26.8334 83.3513 29.7342C83.3513 35.5359 80.4504 40.6127 76.0992 42.7884C74.6488 43.5136 72.4732 44.2384 71.0228 44.2384V60.9187C69.5723 63.8195 68.122 65.2698 65.9463 65.2698ZM65.9463 44.9635V61.6437V44.9635ZM65.9463 22.4821V38.4373V22.4821ZM69.5724 22.4821V37.7114C72.4732 36.9862 74.6488 34.8105 74.6488 30.4592C75.374 25.3828 73.1984 23.2073 69.5724 22.4821ZM76.8244 23.2071C77.5496 24.6576 78.2748 26.8334 78.2748 29.7342C78.2748 31.9098 77.5496 34.0858 76.8244 35.5363C77.5496 34.0858 78.2748 31.9098 78.2748 29.7342C79 28.2838 78.2748 26.108 76.8244 23.2071Z" fill="black"></path><path d="M36.2058 52.9419C24.6025 52.9419 5.02198 50.7661 1.39595 35.5364C-3.68049 15.2301 31.1294 6.52738 32.5798 6.52738C34.7554 5.80216 36.2059 7.25278 36.9311 9.42846C37.6563 11.6041 36.2058 13.0544 34.0302 13.7796C34.0302 13.7796 5.02199 21.0313 7.92281 34.0854C10.8236 46.4142 32.5798 46.4149 39.1067 45.6897C41.2823 44.9645 42.7327 47.1401 42.7327 49.3158C42.7327 51.4915 41.2823 52.9419 39.1067 52.9419C38.3815 52.9419 37.6562 52.9419 36.2058 52.9419Z" fill="#999899"></path><path d="M27.5018 63.8204L25.3262 60.9193L38.3799 48.59L25.3262 36.2615L27.5018 34.0855L43.4563 48.59L27.5018 63.8204Z" fill="#999899"></path><path d="M86.9776 54.3913C84.802 54.3913 83.3516 52.9409 83.3516 50.7653C83.3516 48.5897 84.802 47.1393 86.9776 47.1393C95.6801 47.1393 118.887 44.9636 121.062 32.6351C123.238 21.0319 102.932 16.6804 97.1304 15.23C94.9548 14.5048 94.2297 13.0546 94.2297 10.879C94.2297 8.70336 96.4053 7.97797 98.5809 7.97797C119.612 12.3292 131.215 21.7567 128.314 34.0852C123.963 53.6658 89.1532 54.3913 86.9776 54.3913Z" fill="#999899"></path><path d="M112.366 0L113.816 3.62611L97.8616 12.3284L108.014 26.8329L105.114 29.0089L92.7852 10.8783L112.366 0Z" fill="#999899"></path></svg> 