<?xml version="1.0" encoding="UTF-8"?> <svg xmlns="http://www.w3.org/2000/svg" width="308" height="359" viewBox="0 0 308 359" fill="none"><path d="M161.716 137.792C159.54 137.792 158.09 136.341 158.09 134.165V130.539C158.09 128.364 159.54 126.913 161.716 126.913C163.892 126.913 165.342 128.364 165.342 130.539V134.165C165.342 135.616 163.892 137.792 161.716 137.792Z" fill="black"></path><path d="M161.716 189.282C159.54 189.282 158.09 187.831 158.09 185.656V179.128C158.09 176.953 159.54 175.502 161.716 175.502C163.892 175.502 165.342 176.953 165.342 179.128V185.656C165.342 187.831 163.892 189.282 161.716 189.282ZM161.716 163.174C159.54 163.174 158.09 161.724 158.09 159.548V153.021C158.09 150.845 159.54 149.395 161.716 149.395C163.892 149.395 165.342 150.845 165.342 153.021V159.548C165.342 161.724 163.892 163.174 161.716 163.174Z" fill="black"></path><path d="M161.716 212.488C159.54 212.488 158.09 211.038 158.09 208.862V205.237C158.09 203.061 159.54 201.611 161.716 201.611C163.892 201.611 165.342 203.061 165.342 205.237V208.862C165.342 211.038 163.892 212.488 161.716 212.488Z" fill="black"></path><path d="M143.584 203.786L161.714 234.97L179.844 203.786H143.584Z" fill="black"></path><path d="M11.6073 34.0852L6.53098 47.8646C6.53098 48.5898 5.80564 49.3147 4.35522 49.3147C3.63002 49.3147 2.17969 48.5898 2.17969 47.8646C2.17969 47.1394 2.17969 47.1388 2.17969 46.4136L18.8594 4.35137C19.5846 3.62615 20.3098 2.17535 21.7602 2.17535C23.9358 2.17535 24.6612 3.62615 24.6612 4.35137L41.3409 46.4136C41.3409 47.1388 42.0662 47.1394 42.0662 47.8646C42.0662 48.5898 40.6156 49.3147 39.8904 49.3147C38.44 49.3147 38.4401 48.5898 38.4401 47.8646L33.3636 34.0852H11.6073ZM31.9133 31.1842L22.4854 6.5265L13.0578 31.1842H31.9133Z" fill="black"></path><path d="M39.8867 51.49C37.711 51.49 36.9858 49.3142 36.2606 48.589L31.1843 36.2607H12.3287L7.25212 48.589C6.52691 49.3142 5.8017 51.49 3.62606 51.49C1.45042 51.49 0 50.0396 0 47.8639C0 47.1387 0 46.413 0 46.413V45.6879L16.68 3.62607C18.1304 0.725214 19.5807 0 21.7564 0C23.932 0 25.3825 1.45043 26.833 3.62607L43.5127 45.6879C43.5127 46.4132 44.238 47.1387 44.238 47.8639C44.238 50.0396 42.0623 51.49 39.8867 51.49ZM32.6346 32.6346C34.085 32.6346 34.8103 33.3595 34.8103 34.0847L39.8867 47.8639V48.589V47.8639L25.3824 10.8782L33.3598 31.1837C33.3598 31.1837 33.3598 31.1842 32.6346 32.6346C32.6346 32.6346 33.3598 31.9094 32.6346 32.6346ZM19.5808 9.42725L4.35132 47.1389C4.35132 47.8641 4.35132 47.8639 4.35132 47.8639C4.35132 47.8639 4.35132 47.8641 4.35132 47.1389L9.4279 33.3597C9.4279 32.6345 10.153 31.9087 10.8782 31.9087H11.6034C11.6034 31.9087 10.8782 31.9089 10.8782 31.1837C10.8782 30.4585 10.153 29.7336 10.8782 29.7336L19.5808 9.42725ZM15.2295 29.0086H29.0085L22.4816 11.6032L15.2295 29.0086ZM22.4816 4.35111C21.7564 4.35111 21.7566 4.35075 21.0313 5.80118V6.52622C21.7566 5.801 23.2069 5.801 23.9321 6.52622V5.80118C23.2069 4.35075 23.2068 4.35111 22.4816 4.35111Z" fill="black"></path><path d="M81.9565 23.2059C83.4069 23.2059 83.4068 24.656 83.4068 24.656C83.4068 25.3812 82.6817 26.107 81.9565 26.107H62.376V42.0614C62.376 44.2371 63.1013 44.2374 64.5517 44.2374H84.8573C86.3077 44.2374 86.3078 44.9623 86.3078 45.6875C86.3078 46.4127 85.5825 47.1385 84.8573 47.1385H63.8265C58.7501 47.1385 58.75 43.5121 58.75 41.3364V7.2515C58.75 5.07585 58.7501 1.4494 63.8265 1.4494H84.1321C85.5825 1.4494 85.5825 2.89948 85.5825 2.89948C85.5825 3.6247 84.8573 4.35045 84.1321 4.35045H64.5517C63.1013 4.35045 62.376 5.07514 62.376 6.52557V21.0299H81.9565V23.2059Z" fill="black"></path><path d="M84.8532 50.7649H63.8223C59.4711 50.7649 56.5703 47.8641 56.5703 43.5128V9.42745C56.5703 4.35098 58.7459 2.17535 63.8223 2.17535H84.128C86.3036 2.17535 87.754 3.62577 87.754 5.8014C87.754 7.97703 86.3036 9.42745 84.128 9.42745H64.5476H63.8223C63.8223 9.42745 63.8223 9.42727 63.8223 10.1525V22.4816H81.9524C84.128 22.4816 85.5785 23.932 85.5785 26.1076C85.5785 28.2832 84.128 29.7337 81.9524 29.7337H63.8223V44.2378C63.8223 44.2378 63.8223 44.2377 63.8223 44.9629C63.8223 44.9629 63.8224 44.9629 64.5476 44.9629H84.8532C87.0288 44.9629 88.4792 46.4133 88.4792 48.5889C88.4792 48.5889 87.0288 50.7649 84.8532 50.7649ZM62.3719 5.07637C60.1962 5.07637 60.1963 6.52679 60.1963 8.70241V42.7869C60.1963 44.9625 60.1962 46.4129 62.3719 46.4129C60.9214 45.6877 60.1963 44.9625 60.1963 42.7869V26.8326C60.1963 26.1074 60.9214 25.3826 61.6466 25.3826C60.9214 25.3826 60.1963 24.6568 60.1963 23.9316V9.42745C60.1963 7.25182 60.9214 5.80158 62.3719 5.07637Z" fill="black"></path><path d="M131.986 22.4813V3.6254C131.986 2.17493 133.436 1.44934 134.161 1.44934C135.612 1.44934 136.337 2.17493 136.337 3.6254V47.1395C136.337 48.5899 134.886 49.3146 134.161 49.3146C132.711 49.3146 131.986 48.5899 131.986 47.1395V25.3824H106.603V47.1395C106.603 48.5899 105.153 49.3146 104.428 49.3146C102.977 49.3146 102.252 48.5899 102.252 47.1395V3.6254C102.252 2.17493 103.703 1.44934 104.428 1.44934C105.878 1.44934 106.603 2.17493 106.603 3.6254V22.4813H131.986Z" fill="black"></path><path d="M134.166 51.49C131.99 51.49 130.54 50.0395 130.54 47.8639V28.2823H108.783V47.8639C108.783 50.0395 106.608 51.49 105.157 51.49C102.982 51.49 101.531 50.0395 101.531 47.8639V4.35037C101.531 2.17469 103.707 0.724243 105.157 0.724243C107.333 0.724243 108.783 2.17469 108.783 4.35037V21.03H130.54V4.35037C130.54 2.17469 132.715 0.724243 134.166 0.724243C136.341 0.724243 137.792 2.17469 137.792 4.35037V47.8639C137.792 50.0395 135.616 51.49 134.166 51.49ZM132.715 24.6561C133.441 24.6561 134.166 25.3819 134.166 26.1071V47.8639V4.35037V23.206C134.166 23.206 133.441 23.9309 132.715 24.6561ZM105.157 4.35037V47.8639V26.1071C105.157 25.3819 105.883 24.6561 106.608 24.6561C105.883 24.6561 105.157 23.9313 105.157 23.206V4.35037Z" fill="black"></path><path d="M174.051 31.9088C174.051 39.1612 174.052 49.3146 162.448 49.3146C159.547 49.3146 157.372 48.5892 153.745 46.4135C153.02 45.6883 152.295 45.6888 152.295 44.2383C152.295 43.5131 153.02 42.7873 153.745 42.7873C154.471 42.7873 154.471 42.7881 155.196 43.5133C157.372 44.9638 159.547 45.6885 161.723 45.6885C167.525 45.6885 169.7 42.7873 169.7 35.535V3.6254C169.7 2.17493 171.151 1.44934 171.876 1.44934C173.326 1.44934 174.051 2.17493 174.051 3.6254V31.9088Z" fill="black"></path><path d="M162.453 51.49C158.827 51.49 155.926 50.7646 153.025 48.5889C152.3 47.8637 150.85 47.1385 150.85 44.9628C150.85 42.7871 152.3 41.3367 154.476 41.3367C155.201 41.3367 155.926 42.0617 156.651 42.0617C158.827 43.5122 160.277 44.2377 162.453 44.2377C166.079 44.2377 168.98 42.7875 168.98 36.2604V4.35037C168.98 2.17469 171.155 0.724243 172.606 0.724243C174.781 0.724243 176.232 2.17469 176.232 4.35037V31.9084C176.232 39.1606 176.232 51.49 162.453 51.49ZM170.43 44.9628C170.43 45.688 169.705 45.6877 168.98 46.4129C169.705 45.6877 169.705 44.9628 170.43 44.9628ZM172.606 4.35037V36.2604C172.606 36.2604 172.606 36.9853 172.606 37.7105C172.606 36.2601 172.606 34.0848 172.606 32.6343V4.35037Z" fill="black"></path><path d="M200.16 48.5887C195.084 48.5887 195.084 44.9623 195.084 42.7867V4.35133C195.084 2.90091 196.534 2.17535 197.259 2.17535C198.71 2.17535 199.435 2.90091 199.435 4.35133V42.7867C199.435 44.9623 200.16 44.9627 201.611 44.9627H215.39C216.84 44.9627 216.84 45.6875 216.84 46.4127C216.84 47.1379 216.115 47.8637 215.39 47.8637H200.16V48.5887Z" fill="black"></path><path d="M214.661 50.7649H199.432C195.081 50.7649 192.18 47.864 192.18 43.5127V5.07552C192.18 2.89985 194.355 1.4494 195.806 1.4494C197.981 1.4494 199.432 2.89985 199.432 5.07552V43.5127C199.432 43.5127 199.432 43.5125 199.432 44.2377C199.432 44.2377 199.432 44.2377 200.157 44.2377H213.936C216.111 44.2377 217.562 45.6882 217.562 47.8639C218.287 48.5891 216.837 50.7649 214.661 50.7649ZM196.531 4.35047V42.7868C196.531 44.9624 197.256 46.4129 198.707 46.4129C197.256 45.6877 196.531 44.9624 196.531 42.7868V4.35047Z" fill="black"></path><path d="M236.416 47.8647C236.416 49.3151 234.965 50.0398 234.24 50.0398C232.79 50.0398 232.064 49.3151 232.064 47.8647V9.42769C232.064 7.25203 232.065 3.62646 237.141 3.62646H243.668C247.294 3.62646 250.195 3.62611 253.096 5.07655C258.172 7.97743 258.897 13.779 258.897 16.6799C258.897 21.0312 257.447 25.3823 252.37 28.2832C249.47 29.7337 246.569 29.7342 242.943 29.7342H235.69V47.8647H236.416ZM243.668 26.1081C248.019 26.1081 255.996 26.1077 255.996 16.6799C255.996 6.52681 248.019 6.52664 243.668 6.52664H239.317C237.866 6.52664 237.141 7.25221 237.141 8.70265V26.1081H243.668Z" fill="black"></path><path d="M234.97 51.49C232.794 51.49 231.344 50.0396 231.344 47.864V9.42746C231.344 4.35099 233.519 2.17535 238.596 2.17535H245.123C248.749 2.17535 251.65 2.17571 255.276 4.35134C261.803 7.97739 262.528 14.5038 262.528 17.4046C262.528 23.2063 259.627 28.2831 255.276 30.4587C251.65 31.9092 248.749 32.6347 245.123 32.6347H239.321V49.314C238.596 50.0392 236.42 51.49 234.97 51.49ZM237.145 5.07637C234.97 5.07637 234.97 6.52679 234.97 8.70243V47.1389V29.0087C234.97 28.2835 235.695 27.5577 236.42 27.5577C235.695 27.5577 234.97 26.8329 234.97 26.1077V8.70243C234.97 7.252 235.695 5.80158 237.145 5.07637ZM238.596 23.9317H243.672C249.474 23.9317 254.551 23.2066 254.551 15.9545C254.551 8.70243 249.474 7.97739 243.672 7.97739H239.321H238.596C238.596 7.97739 238.596 7.97721 238.596 8.70243V23.9317V23.9317ZM256.001 9.42746C256.726 10.8779 257.451 13.0537 257.451 15.9545C257.451 18.1302 256.726 20.3061 256.001 21.7566C256.726 20.3061 257.451 18.1302 257.451 15.9545C257.451 14.5041 257.452 12.3283 256.001 9.42746Z" fill="black"></path><path d="M300.961 3.62633C301.686 2.90111 302.411 2.17535 302.411 2.17535C303.136 2.17535 303.862 2.90093 303.862 4.35137C303.862 5.07659 303.862 5.07624 303.136 5.80146L283.556 23.932L304.587 45.6886C306.037 47.1391 306.037 47.1394 306.037 47.8647C306.037 48.5899 305.312 50.0398 303.862 50.0398C303.136 50.0398 302.411 49.3149 302.411 48.5897L279.929 24.657V47.8647C279.929 49.3151 278.479 50.0398 277.754 50.0398C276.303 50.0398 275.578 49.3151 275.578 47.8647V4.35137C275.578 2.90093 277.029 2.17535 277.754 2.17535C279.204 2.17535 279.929 2.90093 279.929 4.35137V23.207L300.961 3.62633Z" fill="black"></path><path d="M304.591 51.49C303.141 51.49 302.415 50.7642 301.69 50.039L282.11 29.0082V47.8639C282.11 50.0395 279.934 51.49 278.483 51.49C276.308 51.49 274.857 50.0395 274.857 47.8639V4.35037C274.857 2.17469 277.033 0.724243 278.483 0.724243C280.659 0.724243 282.11 2.17469 282.11 4.35037V18.8549L299.515 2.17434C300.24 1.44911 300.965 0.724243 302.415 0.724243C303.866 0.724243 306.041 2.17469 306.041 4.35037C306.041 5.80082 305.316 6.52622 304.591 7.25145L286.461 23.9311L306.041 44.2377C307.492 45.6882 307.492 46.4136 307.492 47.1388C308.217 50.0397 306.767 51.49 304.591 51.49ZM278.483 4.35037V47.8639V24.6561V23.9311V23.206V4.35037ZM282.11 23.9311C282.835 23.9311 282.835 23.9311 282.11 23.9311C282.835 23.2059 282.835 23.2059 282.11 23.9311Z" fill="black"></path><path d="M21.7495 354.631C21.7495 356.082 20.2992 356.807 19.574 356.807C18.1236 356.807 17.3984 356.082 17.3984 354.631V316.195C17.3984 314.019 17.3983 310.393 22.4748 310.393H29.0016C32.6277 310.393 35.5287 310.393 38.4295 311.844C43.506 314.745 44.2311 320.546 44.2311 323.447C44.2311 327.799 42.7807 332.15 37.7043 335.051C34.8034 336.501 31.9027 336.501 28.2766 336.501H21.0245V354.631H21.7495ZM28.2766 332.875C32.6279 332.875 40.6051 332.875 40.6051 323.447C40.6051 313.294 32.6279 313.294 28.2766 313.294H23.9253C22.4749 313.294 21.7495 314.02 21.7495 315.47V332.875H28.2766Z" fill="black"></path><path d="M19.5772 358.257C17.4016 358.257 15.9512 356.807 15.9512 354.631V316.196C15.9512 311.119 18.1268 308.944 23.2032 308.944H29.7301C33.3561 308.944 36.2569 308.943 39.8829 311.119C46.4098 314.745 47.135 321.272 47.135 324.173C47.135 329.974 44.2341 335.051 39.8829 337.227C36.2569 338.677 33.3561 339.402 29.7301 339.402H23.9285V356.082C23.2033 356.807 21.7528 358.257 19.5772 358.257ZM21.7527 311.845C19.5771 311.845 19.5772 313.295 19.5772 315.471V353.906V335.776C19.5772 335.051 20.3025 334.326 21.0277 334.326C20.3025 334.326 19.5772 333.6 19.5772 332.875V315.471C19.5772 313.295 20.3023 312.57 21.7527 311.845ZM23.2032 330.7H28.2798C34.0814 330.7 39.1579 329.975 39.1579 322.723C39.1579 315.471 34.0814 314.745 28.2798 314.745H23.9285H23.2032C23.2032 314.745 23.2032 314.745 23.2032 315.471V330.7V330.7ZM41.3334 316.196C42.0586 317.646 42.7839 319.822 42.7839 322.723C42.7839 324.898 42.0586 327.073 41.3334 328.524C42.0586 327.073 42.7839 324.898 42.7839 322.723C42.7839 321.272 42.7838 318.371 41.3334 316.196Z" fill="black"></path><path d="M89.1928 352.457C89.9181 353.182 89.9181 353.907 89.9181 353.907C89.9181 354.632 88.4676 355.358 87.7423 355.358C87.0171 355.358 86.2921 354.632 86.2921 353.907L71.0626 333.601H65.9861V353.182C65.9861 354.632 64.5357 355.358 63.8105 355.358C62.3601 355.358 61.6348 354.632 61.6348 353.182V314.745C61.6348 312.569 61.6349 308.944 66.7113 308.944H74.6887C84.1164 308.944 88.4676 314.745 88.4676 321.272C88.4676 326.348 85.5668 333.601 74.6887 333.601L89.1928 352.457ZM73.2382 331.425C76.139 331.425 84.8415 331.426 84.8415 322.723C84.8415 314.02 76.8642 314.02 73.2382 314.02H68.1618C66.7114 314.02 65.9861 314.745 65.9861 316.196V331.425H73.2382V331.425Z" fill="black"></path><path d="M87.7451 358.257C86.2947 358.257 84.8444 356.807 84.8444 356.082L69.6151 336.501H67.4395V354.631C67.4395 356.807 65.2639 358.257 63.8135 358.257C61.6379 358.257 60.1875 356.807 60.1875 354.631V316.196C60.1875 311.119 62.3631 308.944 67.4395 308.944H75.4168C87.0201 308.944 90.6459 316.196 90.6459 322.723C90.6459 328.524 87.7453 335.051 79.0428 336.501L90.6459 352.456L89.1956 353.906L90.6459 353.181C91.3711 353.906 92.0964 354.632 92.0964 356.082C91.3712 356.807 89.9208 358.257 87.7451 358.257ZM65.989 311.845C63.8134 311.845 63.8135 313.295 63.8135 315.471V353.906V334.326C63.8135 333.601 64.5386 332.875 65.2638 332.875C64.5386 332.875 63.8135 332.15 63.8135 331.425V316.196C63.8135 313.295 64.5386 312.57 65.989 311.845ZM87.7451 353.906L89.1956 353.181L87.7451 353.906ZM71.7908 332.875C71.7908 332.875 71.7908 333.6 71.7908 332.875L73.2411 335.051V334.326L73.9663 333.601H73.2411H71.7908V332.875ZM67.4395 329.249H73.2411C78.3175 329.249 82.6689 328.524 82.6689 321.997C82.6689 316.195 79.0427 314.745 73.2411 314.745H68.1648H67.4395C67.4395 314.745 67.4395 314.745 67.4395 315.471V329.249ZM81.9436 313.295C84.8444 314.745 87.0199 317.646 87.0199 321.997C87.0199 324.898 86.2948 327.073 85.5696 328.524C87.02 326.348 87.7451 323.447 87.7451 321.997C87.0199 317.646 84.8444 314.745 81.9436 313.295Z" fill="black"></path><path d="M127.635 308.943C140.689 308.943 150.842 319.096 150.842 332.875C150.842 346.654 140.689 356.807 127.635 356.807C114.582 356.807 104.429 346.654 104.429 332.875C103.704 319.096 114.582 308.943 127.635 308.943ZM127.635 352.456C139.239 352.456 147.216 343.753 147.216 332.15C147.216 320.546 138.513 311.844 127.635 311.844C116.757 311.844 108.055 320.546 108.055 332.15C108.055 343.753 116.032 352.456 127.635 352.456Z" fill="black"></path><path d="M127.636 358.257C113.132 358.257 102.254 347.379 102.254 332.875C102.254 318.371 113.132 307.492 127.636 307.492C142.14 307.492 153.018 318.371 153.018 332.875C153.018 347.379 142.14 358.257 127.636 358.257ZM137.064 312.569C144.316 316.196 148.667 323.447 148.667 332.15C148.667 340.852 143.591 348.105 137.064 351.731C144.316 348.105 149.392 340.852 149.392 332.15C149.392 323.447 144.316 316.196 137.064 312.569ZM118.209 312.569C110.956 316.196 105.88 323.447 105.88 332.15C105.88 341.578 110.956 348.83 118.209 351.731C110.956 348.105 106.605 340.852 106.605 332.15C106.605 323.447 110.956 316.196 118.209 312.569ZM127.636 314.02C117.483 314.02 109.506 321.997 109.506 332.15C109.506 342.303 117.483 350.28 127.636 350.28C137.789 350.28 145.766 342.303 145.766 332.15C145.766 321.997 137.789 314.02 127.636 314.02Z" fill="black"></path><path d="M192.176 329.975C193.626 329.975 193.626 330.7 193.626 331.425C193.626 332.15 192.901 332.875 192.176 332.875H172.595V353.182C172.595 354.632 171.145 355.358 170.42 355.358C168.969 355.358 168.244 354.632 168.244 353.182V314.745C168.244 312.569 168.244 308.944 173.321 308.944H193.626C195.077 308.944 195.077 310.394 195.077 310.394C195.077 311.119 194.352 311.845 193.626 311.845H174.046C172.595 311.845 171.87 312.569 171.87 314.02V328.524H192.176V329.975Z" fill="black"></path><path d="M170.425 358.257C168.249 358.257 166.799 356.807 166.799 354.631V316.196C166.799 311.119 168.974 308.944 174.051 308.944H194.357C196.533 308.944 197.983 311.119 197.983 312.57C197.983 314.745 196.533 316.196 194.357 316.196H174.776H174.051C174.051 316.196 174.051 316.195 174.051 316.921V329.975H192.181C194.357 329.975 195.807 331.425 195.807 333.601C195.807 335.777 194.357 337.227 192.181 337.227H174.051V356.082C174.051 356.807 172.601 358.257 170.425 358.257ZM173.326 311.845C171.15 311.845 171.15 313.295 171.15 315.471V353.906V333.601C171.15 332.876 171.875 332.15 172.601 332.15C171.875 332.15 171.15 331.425 171.15 330.7V316.196C170.425 313.295 171.875 312.57 173.326 311.845Z" fill="black"></path><path d="M214.65 311.119C214.65 309.668 216.101 308.943 216.826 308.943C218.276 308.943 219.002 309.668 219.002 311.119V354.631C219.002 356.082 217.551 356.807 216.826 356.807C215.376 356.807 214.65 356.082 214.65 354.631V311.119Z" fill="black"></path><path d="M216.829 358.257C214.654 358.257 213.203 356.807 213.203 354.631V311.118C213.203 308.943 215.379 307.492 216.829 307.492C219.005 307.492 220.455 308.943 220.455 311.118V354.631C220.455 356.807 218.28 358.257 216.829 358.257ZM216.104 311.118V354.631V311.118Z" fill="black"></path><path d="M244.395 355.358C239.318 355.358 239.318 351.731 239.318 349.556V311.119C239.318 309.668 240.769 308.943 241.494 308.943C242.944 308.943 243.67 309.668 243.67 311.119V349.556C243.67 351.731 244.395 351.732 245.845 351.732H259.624C261.075 351.732 261.074 352.456 261.074 353.182C261.074 353.907 260.349 354.632 259.624 354.632H244.395V355.358Z" fill="black"></path><path d="M258.895 356.807H244.391C240.039 356.807 237.139 353.906 237.139 349.555V311.118C237.139 308.943 239.314 307.492 240.765 307.492C242.94 307.492 244.391 308.943 244.391 311.118V349.555C244.391 349.555 244.391 349.555 244.391 350.28C244.391 350.28 244.391 350.28 245.116 350.28H258.895C261.07 350.28 262.521 351.73 262.521 353.906C262.521 355.357 261.07 356.807 258.895 356.807ZM240.765 311.118V349.555C240.765 351.731 241.49 353.181 242.94 353.181C241.49 352.456 240.765 351.731 240.765 349.555V311.118Z" fill="black"></path><path d="M300.228 329.975C301.678 329.975 301.678 331.425 301.678 331.425C301.678 332.15 300.953 332.875 300.228 332.875H280.647V348.83C280.647 351.005 281.373 351.005 282.823 351.005H303.129C304.579 351.005 304.579 351.731 304.579 352.456C304.579 353.181 303.854 353.906 303.129 353.906H282.098C277.022 353.906 277.021 350.28 277.021 348.105V314.019C277.021 311.844 277.022 308.218 282.098 308.218H302.404C303.854 308.218 303.854 309.668 303.854 309.668C303.854 310.394 303.129 311.118 302.404 311.118H282.823C281.373 311.118 280.647 311.844 280.647 313.294V327.799H300.228V329.975Z" fill="black"></path><path d="M303.127 356.807H282.096C277.745 356.807 274.844 353.906 274.844 349.555V315.47C274.844 310.394 277.019 308.218 282.096 308.218H302.401C304.577 308.218 306.027 310.394 306.027 311.844C306.027 314.02 304.577 315.47 302.401 315.47H282.821H282.096C282.096 315.47 282.096 315.47 282.096 316.196V328.524H300.226C302.401 328.524 303.852 329.974 303.852 332.15C303.852 334.325 302.401 335.776 300.226 335.776H282.096V350.28C282.096 350.28 282.096 350.28 282.096 351.005C282.096 351.005 282.096 351.005 282.821 351.005H303.127C305.302 351.005 306.753 352.455 306.753 354.631C306.753 355.356 305.302 356.807 303.127 356.807ZM281.371 311.844C279.195 311.844 279.195 313.295 279.195 315.47V349.555C279.195 351.731 279.92 353.181 281.371 353.181C279.92 352.456 279.195 351.731 279.195 349.555V333.601C279.195 332.876 279.92 332.15 280.645 332.15C279.92 332.15 279.195 331.425 279.195 330.7V316.196C278.47 313.295 279.92 312.57 281.371 311.844Z" fill="black"></path></svg> 