<?xml version="1.0" encoding="utf-8"?>
<!-- Generator: Adobe Illustrator 26.3.1, SVG Export Plug-In . SVG Version: 6.00 Build 0)  -->
<svg version="1.1" id="レイヤー_1" xmlns="http://www.w3.org/2000/svg" xmlns:xlink="http://www.w3.org/1999/xlink" x="0px"
	 y="0px" viewBox="0 0 100 100" style="enable-background:new 0 0 100 100;" xml:space="preserve">
<style type="text/css">
	.st0{display:none;}
	.st1{display:inline;fill:#EDD72F;}
	.st2{display:inline;fill:#040000;}
	.st3{fill:#2D53A4;}
	.st4{fill:#3361AD;}
	.st5{fill:#EBEBEB;}
	.st6{fill:#040000;}
	.st7{fill:#FFFFFF;}
</style>
<g class="st0">
	<path class="st1" d="M5.3,5h89.5v90H5.3V5z"/>
	<path class="st2" d="M28.8,80.2l6.8-4.2c1.3,2.4,2.5,4.3,5.4,4.3c2.8,0,4.5-1.1,4.5-5.3V46.3H54v28.9c0,8.8-5.1,12.7-12.6,12.7
		C34.7,87.9,30.8,84.4,28.8,80.2"/>
	<path class="st2" d="M58.5,79.3l6.8-4c1.8,3,4.1,5.1,8.3,5.1c3.5,0,5.7-1.8,5.7-4.2c0-2.9-2.3-3.9-6.1-5.6l-2.1-0.9
		C65.1,67.2,61,63.9,61,57c0-6.3,4.8-11.2,12.3-11.2c5.3,0,9.2,1.9,12,6.8l-6.5,4.2c-1.4-2.6-3-3.6-5.4-3.6c-2.5,0-4,1.6-4,3.6
		c0,2.5,1.6,3.6,5.2,5.1l2.1,0.9c7.1,3.1,11.2,6.2,11.2,13.3c0,7.6-5.9,11.8-13.9,11.8C66,87.9,61,84.2,58.5,79.3"/>
</g>
<g>
	<path class="st3" d="M50,95l-25.6-7.1l-5.7-64h62.7l-5.7,64L50,95L50,95z"/>
	<path class="st4" d="M70.8,83.8l4.9-54.7H50v60.4L70.8,83.8L70.8,83.8z"/>
	<path class="st5" d="M31.7,52.9l0.7,7.9H50v-7.9H31.7L31.7,52.9z"/>
	<path class="st5" d="M30.3,37l0.7,7.9h19V37H30.3L30.3,37z"/>
	<path class="st5" d="M50,73.2L50,73.2l-8.8-2.4l-0.6-6.3h-7.9L33.9,77L50,81.4l0,0V73.2L50,73.2z"/>
	<path class="st6" d="M33.4,6.5h9.5v4h-5.5v4h5.5v4h-9.5V6.5L33.4,6.5z"/>
	<path class="st6" d="M44.8,6.5h9.5v3.5h-5.5v0.7h5.5v8h-9.5V15h5.5v-0.7h-5.5V6.5L44.8,6.5z"/>
	<path class="st6" d="M56.2,6.5h9.5v3.5h-5.5v0.7h5.5v8h-9.5V15h5.5v-0.7h-5.5V6.5L56.2,6.5z"/>
	<path class="st7" d="M68.2,52.9L69.6,37H50v7.9H61l-0.7,8H50v7.9h9.7l-0.9,10.2L50,73.2v8.2L66.1,77l0.1-1.3L68,55L68.2,52.9
		L68.2,52.9z"/>
</g>
</svg>
