<?xml version="1.0" encoding="utf-8"?>
<!-- Generator: Adobe Illustrator 26.3.1, SVG Export Plug-In . SVG Version: 6.00 Build 0)  -->
<svg version="1.1" id="レイヤー_1" xmlns="http://www.w3.org/2000/svg" xmlns:xlink="http://www.w3.org/1999/xlink" x="0px"
	 y="0px" viewBox="0 0 100 100" style="enable-background:new 0 0 100 100;" xml:space="preserve">
<style type="text/css">
	.st0{fill:#212222;}
</style>
<g>
	<path class="st0" d="M5.6,57.3v-10h12.5v-0.6H5.6v-9.1h13.3V37H5v20.9h14v-0.6H5.6L5.6,57.3z M30.3,42.8l-5.2,6.8L20,42.8h-0.8
		l5.5,7.3l-6,7.8h0.7l5.7-7.4l5.7,7.4h0.7l-6-7.8l5.5-7.3H30.3L30.3,42.8z M33.3,63v-9.4h0.1c0.4,1.4,1,2.5,2.1,3.3
		c1,0.8,2.4,1.2,4,1.2c1,0,2-0.2,2.8-0.6c0.8-0.4,1.5-1,2-1.7c0.5-0.7,0.9-1.6,1.2-2.5c0.3-1,0.4-2,0.4-3c0-1.1-0.1-2.2-0.4-3.1
		c-0.3-1-0.7-1.8-1.3-2.5c-0.6-0.7-1.2-1.3-2-1.6c-0.8-0.4-1.7-0.6-2.7-0.6c-0.8,0-1.5,0.1-2.1,0.3c-0.7,0.2-1.2,0.5-1.7,1
		c-0.5,0.4-0.9,0.9-1.3,1.5c-0.4,0.6-0.7,1.2-0.8,1.8h-0.1v-4.2h-0.6V63H33.3L33.3,63z M39.4,57.6c-1.8,0-3.3-0.6-4.4-1.9
		s-1.7-3.1-1.7-5.4c0-1,0.1-1.9,0.4-2.8c0.3-0.9,0.7-1.7,1.2-2.3c0.5-0.7,1.2-1.2,1.9-1.6c0.8-0.4,1.6-0.6,2.6-0.6
		c1,0,1.8,0.2,2.6,0.6s1.3,0.9,1.8,1.6c0.5,0.7,0.8,1.4,1.1,2.3s0.4,1.8,0.4,2.8c0,0.9-0.1,1.8-0.3,2.6c-0.2,0.9-0.6,1.7-1,2.3
		S42.8,56.5,42,57C41.3,57.4,40.4,57.6,39.4,57.6L39.4,57.6L39.4,57.6z M49,57.9v-8.5c0-0.8,0.1-1.6,0.4-2.4
		c0.2-0.8,0.6-1.5,1.1-2.1s1.1-1.1,1.9-1.4c0.8-0.3,1.6-0.5,2.7-0.4v-0.6c-0.9,0-1.7,0.1-2.4,0.3c-0.7,0.2-1.3,0.5-1.7,0.9
		c-0.5,0.4-0.9,0.8-1.2,1.3c-0.3,0.5-0.5,1-0.6,1.6H49v-3.7h-0.6v15.1H49L49,57.9z M55.7,50.5h12.6c0-1-0.1-2-0.3-3
		c-0.2-1-0.6-1.8-1.2-2.5c-0.5-0.7-1.2-1.3-2.1-1.8s-1.9-0.7-3-0.7c-0.8,0-1.7,0.2-2.5,0.5c-0.8,0.4-1.5,0.9-2.1,1.5
		c-0.6,0.7-1.1,1.5-1.5,2.5s-0.6,2.1-0.6,3.3c0,1.1,0.1,2.2,0.4,3.1c0.3,1,0.6,1.8,1.2,2.5c0.5,0.7,1.2,1.3,2,1.7
		c0.8,0.4,1.8,0.6,3,0.6c1.7,0,3.2-0.5,4.3-1.5c1.2-1,1.9-2.3,2.1-4.1h-0.6c-0.3,1.7-0.9,2.9-1.9,3.7c-1,0.8-2.4,1.2-3.9,1.2
		c-1.1,0-2-0.2-2.7-0.6c-0.7-0.4-1.3-0.9-1.8-1.5c-0.5-0.6-0.8-1.4-1-2.3S55.7,51.5,55.7,50.5L55.7,50.5L55.7,50.5z M67.7,49.9h-12
		c0.1-1.1,0.3-2,0.6-2.8c0.3-0.8,0.8-1.6,1.3-2.2s1.2-1,1.9-1.4c0.7-0.3,1.5-0.5,2.3-0.5c1,0,1.8,0.2,2.6,0.5
		c0.7,0.4,1.4,0.9,1.9,1.5s0.9,1.4,1.1,2.2C67.6,48.1,67.7,49,67.7,49.9L67.7,49.9L67.7,49.9z M80.5,47.3h0.6c0-1.7-0.5-2.9-1.5-3.7
		s-2.3-1.1-4-1.1c-0.9,0-1.7,0.1-2.4,0.4s-1.2,0.5-1.6,0.9c-0.4,0.4-0.7,0.8-0.9,1.2c-0.2,0.4-0.3,0.9-0.3,1.3c0,0.8,0.1,1.5,0.4,2
		s0.8,0.9,1.4,1.1c0.4,0.2,0.9,0.4,1.5,0.5c0.5,0.2,1.2,0.3,1.9,0.5c0.6,0.2,1.3,0.3,1.9,0.5c0.6,0.2,1.2,0.4,1.7,0.6
		c0.5,0.3,0.9,0.6,1.2,1s0.5,0.9,0.5,1.6c0,0.6-0.2,1.2-0.5,1.6s-0.7,0.8-1.2,1.1c-0.5,0.3-1,0.5-1.6,0.6c-0.6,0.1-1.1,0.2-1.7,0.2
		c-1.8,0-3.1-0.4-4.1-1.2s-1.4-2-1.4-3.7h-0.6c0,1.9,0.5,3.3,1.5,4.2s2.5,1.3,4.6,1.3c0.6,0,1.3-0.1,1.9-0.2
		c0.7-0.1,1.2-0.4,1.8-0.7c0.5-0.3,0.9-0.8,1.3-1.3c0.3-0.5,0.5-1.2,0.5-1.9c0-0.7-0.1-1.3-0.4-1.8c-0.3-0.4-0.7-0.8-1.1-1.1
		c-0.5-0.3-1-0.5-1.6-0.7c-0.6-0.2-1.2-0.3-1.7-0.5c-0.8-0.2-1.5-0.4-2.2-0.6c-0.6-0.2-1.2-0.3-1.7-0.6c-0.5-0.2-0.9-0.5-1.2-0.9
		c-0.3-0.4-0.5-1-0.5-1.7c0-0.1,0-0.4,0.1-0.7c0.1-0.4,0.3-0.7,0.6-1.1c0.3-0.4,0.7-0.7,1.3-1c0.6-0.3,1.4-0.4,2.5-0.4
		c0.7,0,1.4,0.1,2,0.2c0.6,0.2,1.1,0.4,1.5,0.7c0.4,0.3,0.8,0.8,1,1.3C80.4,45.9,80.5,46.5,80.5,47.3L80.5,47.3L80.5,47.3z M94,47.3
		h0.6c0-1.7-0.5-2.9-1.5-3.7c-1-0.8-2.3-1.1-4-1.1c-0.9,0-1.7,0.1-2.4,0.4c-0.6,0.2-1.2,0.5-1.6,0.9c-0.4,0.4-0.7,0.8-0.9,1.2
		c-0.2,0.4-0.3,0.9-0.3,1.3c0,0.8,0.1,1.5,0.4,2c0.3,0.5,0.8,0.9,1.4,1.1c0.4,0.2,0.9,0.4,1.5,0.5c0.5,0.2,1.2,0.3,1.9,0.5
		c0.6,0.2,1.3,0.3,1.9,0.5c0.6,0.2,1.2,0.4,1.7,0.6c0.5,0.3,0.9,0.6,1.2,1c0.3,0.4,0.5,0.9,0.5,1.6c0,0.6-0.2,1.2-0.5,1.6
		c-0.3,0.4-0.7,0.8-1.2,1.1c-0.5,0.3-1,0.5-1.6,0.6c-0.6,0.1-1.1,0.2-1.7,0.2c-1.8,0-3.1-0.4-4.1-1.2c-0.9-0.8-1.4-2-1.4-3.7h-0.6
		c0,1.9,0.5,3.3,1.5,4.2s2.5,1.3,4.6,1.3c0.6,0,1.3-0.1,1.9-0.2c0.7-0.1,1.2-0.4,1.8-0.7s0.9-0.8,1.3-1.3c0.3-0.5,0.5-1.2,0.5-1.9
		c0-0.7-0.1-1.3-0.4-1.8c-0.3-0.4-0.7-0.8-1.1-1.1s-1-0.5-1.6-0.7c-0.6-0.2-1.2-0.3-1.7-0.5c-0.8-0.2-1.5-0.4-2.2-0.6
		c-0.6-0.2-1.2-0.3-1.7-0.6c-0.5-0.2-0.9-0.5-1.2-0.9c-0.3-0.4-0.5-1-0.5-1.7c0-0.1,0-0.4,0.1-0.7s0.3-0.7,0.6-1.1
		c0.3-0.4,0.7-0.7,1.3-1c0.6-0.3,1.4-0.4,2.5-0.4c0.7,0,1.4,0.1,2,0.2c0.6,0.2,1.1,0.4,1.5,0.7c0.4,0.3,0.8,0.8,1,1.3
		C93.9,45.9,94,46.5,94,47.3L94,47.3L94,47.3z"/>
</g>
</svg>
