<?xml version="1.0" encoding="utf-8"?>
<!-- Generator: Adobe Illustrator 26.3.1, SVG Export Plug-In . SVG Version: 6.00 Build 0)  -->
<svg version="1.1" id="レイヤー_1" xmlns="http://www.w3.org/2000/svg" xmlns:xlink="http://www.w3.org/1999/xlink" x="0px"
	 y="0px" viewBox="0 0 100 100" style="enable-background:new 0 0 100 100;" xml:space="preserve">
<style type="text/css">
	.st0{fill:#040000;}
</style>
<g>
	<path class="st0" d="M95,51.2c0-24.9-20.1-45-45-45S5,26.3,5,51.2c0,19.7,12.7,36.5,30.4,42.6c1.1-0.8,2.3-1.7,2.3-3.4
		c0-2.5-0.1-8.8-0.1-8.8s-2,0.3-4.7,0.3c-7,0-9.2-4.5-10.3-7c-1.4-3.2-3.2-4.8-5.1-6c-1.2-0.7-1.4-1.6-0.1-1.9c6.2-1.2,7.8,7,12,8.3
		c3,0.9,6.8,0.5,8.7-0.7c0.2-2.5,2.1-4.7,3.6-5.8c-10.6-1-16.8-4.7-20.1-10.5l-0.3-0.7l-0.8-1.9l-0.2-0.7c-1-3-1.5-6.4-1.5-10.2
		c0-6.8,2.1-9.3,5-12.9c-2.2-7.7,0.8-13,0.8-13s4.6-0.9,13.2,5.2c4.7-2,17.2-2.2,23.1-0.4c3.6-2.4,10.3-5.8,12.9-4.8
		c0.7,1.2,2.3,4.5,0.9,12c0.9,1.6,5.6,5.1,5.6,14.9c-0.1,3.6-0.5,6.7-1.2,9.3l-0.4,1.3c0,0-0.2,0.6-0.5,1.2L78,58.4
		c-3.1,6.8-9.6,9.4-19.9,10.5c3.4,2.1,4.3,4.8,4.3,11.9c0,7.2-0.1,8.1-0.1,9.8c0,1.5,1.2,2.5,2.2,3.3C82.2,87.8,95,71,95,51.2z"/>
</g>
</svg>
