<?xml version="1.0" encoding="utf-8"?>
<!-- Generator: Adobe Illustrator 26.3.1, SVG Export Plug-In . SVG Version: 6.00 Build 0)  -->
<svg version="1.1" id="レイヤー_1" xmlns="http://www.w3.org/2000/svg" xmlns:xlink="http://www.w3.org/1999/xlink" x="0px"
	 y="0px" viewBox="0 0 100 100" style="enable-background:new 0 0 100 100;" xml:space="preserve">
<style type="text/css">
	.st0{display:none;}
	.st1{display:inline;fill:#EDD72F;}
	.st2{display:inline;fill:#040000;}
	.st3{fill:#F1CFA1;}
	.st4{fill:#6EC6D2;}
	.st5{fill:#040000;}
	.st6{fill:#FFFFFF;}
	.st7{fill:#221F20;}
</style>
<g class="st0">
	<path class="st1" d="M5.3,5h89.5v90H5.3V5z"/>
	<path class="st2" d="M28.8,80.2l6.8-4.2c1.3,2.4,2.5,4.3,5.4,4.3c2.8,0,4.5-1.1,4.5-5.3V46.3H54v28.9c0,8.8-5.1,12.7-12.6,12.7
		C34.7,87.9,30.8,84.4,28.8,80.2"/>
	<path class="st2" d="M58.5,79.3l6.8-4c1.8,3,4.1,5.1,8.3,5.1c3.5,0,5.7-1.8,5.7-4.2c0-2.9-2.3-3.9-6.1-5.6l-2.1-0.9
		C65.1,67.2,61,63.9,61,57c0-6.3,4.8-11.2,12.3-11.2c5.3,0,9.2,1.9,12,6.8l-6.5,4.2c-1.4-2.6-3-3.6-5.4-3.6c-2.5,0-4,1.6-4,3.6
		c0,2.5,1.6,3.6,5.2,5.1l2.1,0.9c7.1,3.1,11.2,6.2,11.2,13.3c0,7.6-5.9,11.8-13.9,11.8C66,87.9,61,84.2,58.5,79.3"/>
</g>
<g>
	<path class="st3" d="M18.8,53.6c0.1,2.6,2.7,1.4,3.9,0.6c1.1-0.8,1.4-0.1,1.5-1.6c0.1-1,0.2-2,0.1-3c-1.7-0.2-3.5,0.3-4.9,1.3
		C18.7,51.3,17.4,53,18.8,53.6"/>
	<path class="st3" d="M70.2,85.3c2,1.2,5.6,4.9,2.6,6.7c-2.9,2.6-4.5-2.9-7-3.6C66.9,86.9,68.3,85.5,70.2,85.3L70.2,85.3L70.2,85.3z
		"/>
	<path class="st3" d="M34.8,89.4c-2.3,0.4-3.6,2.5-5.6,3.5c-1.8,1.1-2.5-0.4-2.7-0.7c-0.3-0.1-0.3,0.1-0.7-0.3
		c-1.7-2.7,1.8-4.6,3.6-6C31.9,85.5,33.5,87.7,34.8,89.4L34.8,89.4L34.8,89.4z"/>
	<path class="st3" d="M81.2,53.3c-0.1,2.6-2.7,1.4-3.9,0.6c-1.1-0.8-1.4-0.1-1.5-1.6c-0.1-1-0.2-2-0.1-3c1.7-0.2,3.5,0.3,4.9,1.3
		C81.2,51,82.5,52.7,81.2,53.3"/>
	<path class="st4" d="M74.3,21.9c8.9-3.2,2-15.4-5.8-10C63.4,7.5,56.4,6.7,49,6.7c-7.2,0.6-14.1,1.9-18.9,6.1c-7.8-5-14.9,7-5.8,10
		c-2.6,9.9,0.4,20-0.1,30.1c-0.4,9.1-2.8,21.2,2.3,29.3c4.3,7,13.5,9.4,21.1,9.7c9.7,0.4,21.4-2,26.1-11.4
		c4.5-8.9,3.3-20.1,2.7-29.7C75.8,41.1,76.8,31.2,74.3,21.9L74.3,21.9z"/>
	<path class="st5" d="M81.8,51.8c-0.3-0.5-0.7-1.1-1.2-1.5C79.5,49.5,78,49,76.5,49c-0.1-1.6-0.1-3.3-0.1-5.4v-2
		c0-6.2-0.1-8.9-0.5-12.2c-0.3-2.7-0.7-5.1-1.3-7.4c2-0.8,3.4-2.1,3.9-3.7c0.5-1.5,0.3-3.3-0.6-4.8C77,12,75.6,10.9,74,10.4
		c-1.8-0.5-3.7-0.1-5.5,1.1c-1.6-1.4-3.5-2.4-5.6-3.2C59.2,6.9,54.9,6.4,49,6.4v0.3l0-0.3c-6.3,0.5-10.9,1.5-14.8,3.4
		c-1.6,0.8-2.9,1.7-4.1,2.7c-1.9-1.2-3.8-1.4-5.6-0.9c-1.7,0.5-3.1,1.7-3.9,3.2c-0.9,1.5-1.1,3.3-0.5,4.8c0.6,1.5,1.9,2.7,3.9,3.4
		c-0.6,2.5-1,5.2-1,8.2c-0.1,2.9,0.1,5.2,0.5,10.4c0.3,3.9,0.5,5.7,0.5,7.8c-1.7-0.1-3.4,0.4-4.7,1.3c-0.5,0.3-1,0.9-1.2,1.5
		c-0.3,0.7-0.2,1.3,0.5,1.7c0.1,1.2,0.8,1.8,1.8,1.7c0.8-0.1,1.7-0.5,2.4-1c0.2-0.1,0.4-0.2,0.5-0.3c0.1,0,0.1-0.1,0.2-0.1
		c0,0,0.2-0.1,0.2-0.1c0.1,0,0.2-0.1,0.2-0.1c-0.1,1.2-0.2,2.4-0.4,5.2c-0.3,3.2-0.4,4.9-0.4,6.8c-0.2,7.2,0.6,12.4,3.2,16.5
		c0.8,1.3,1.8,2.5,2.9,3.5c-0.2,0.2-1.2,0.9-1.5,1.1c-1.1,0.8-1.8,1.5-2.2,2.2c-0.6,1-0.6,2,0.1,3l0,0l0,0c0.3,0.3,0.4,0.4,0.6,0.4
		h0h0.1l0,0c0,0.1,0.1,0.1,0.1,0.1c0.1,0.1,0.2,0.2,0.2,0.3c0.6,0.7,1.5,0.9,2.7,0.2c0.6-0.3,1.1-0.7,2-1.5c0,0,0,0,0.1-0.1
		c1.5-1.3,2.3-1.8,3.4-2l0.4-0.1c0.2,0.1,0.3,0.1,0.5,0.2c3.6,1.4,7.7,2.2,11.9,2.4c5.4,0.2,10.6-0.5,15-2.1
		c1.2-0.4,2.3-0.9,3.3-1.5c0.7,0.3,1.2,0.8,2.3,2c0.1,0.1,0.1,0.1,0.1,0.1c0.1,0.1,0.1,0.1,0.1,0.1c0.1,0.1,0.1,0.1,0.2,0.2
		c0.8,1,1.4,1.5,2,1.7c0.8,0.4,1.6,0.2,2.5-0.6c1.5-0.9,1.6-2.3,0.6-3.9c-0.7-1.1-1.9-2.3-3-3.1c1.3-1.3,2.4-2.8,3.3-4.5
		c2.4-4.8,3.3-10.4,3.3-17.6c0-2.6-0.1-4.8-0.4-9v-0.1c0.1,0.1,0.3,0.1,0.4,0.2c0.8,0.5,1.7,1,2.4,1c1,0.1,1.7-0.5,1.8-1.7l0,0
		C82,53.1,82.2,52.5,81.8,51.8L81.8,51.8z M73.9,11c1.5,0.4,2.8,1.5,3.6,2.9s1,3,0.6,4.4c-0.5,1.5-1.7,2.7-3.6,3.4
		c-0.4-1.4-0.8-2.7-1.3-4c0.7-0.6,1.1-1.4,0.5-2.5c-0.6-1.1-1.6-1.2-2.6-0.9c-0.7-0.9-1.4-1.6-2.1-2.3C70.6,10.8,72.3,10.5,73.9,11
		L73.9,11z M20.5,19.4c-0.5-1.4-0.4-3,0.5-4.4c0.8-1.4,2.1-2.5,3.7-3c1.6-0.5,3.3-0.3,5,0.8c-1,0.9-1.9,1.9-2.6,3
		c-1.3-0.7-2.6-0.8-3.4,0.6c-0.8,1.5,0.1,2.4,1.4,3.1c-0.2,0.4-0.4,0.9-0.5,1.3c-0.2,0.6-0.4,1.1-0.5,1.7
		C22.3,21.8,21.1,20.8,20.5,19.4L20.5,19.4z M23.6,53.5c0,0-0.2,0.1-0.2,0.1c-0.1,0-0.2,0.1-0.2,0.1c-0.2,0.1-0.4,0.2-0.6,0.4
		c-0.7,0.5-1.6,0.9-2.2,0.9c-0.8,0.1-1.2-0.3-1.3-1.2c0.5-0.2,0.8-0.3,1-0.6l-0.4-0.3c-0.2,0.2-0.3,0.3-0.8,0.4l0,0c0,0,0,0-0.1,0
		c-0.4-0.2-0.5-0.6-0.3-1.1c0.2-0.5,0.7-1,1-1.3c1.2-0.9,2.8-1.3,4.4-1.2c0,0.6,0,1.3,0,1.9c0,0.1,0,0.1,0,0.2c0,0.4,0,0.5-0.1,0.7
		l0,0C23.9,53.3,23.8,53.4,23.6,53.5L23.6,53.5z M31.1,91.2C31.1,91.3,31.1,91.3,31.1,91.2c-1,0.9-1.4,1.2-2,1.5
		c-1,0.6-1.6,0.5-2.1-0.1c-0.1-0.1-0.1-0.2-0.2-0.3c0,0-0.1-0.1-0.1-0.1c0,0,0,0,0,0c0.1-0.5,0.2-0.8,0.7-1.5c0,0,0,0,0-0.1
		c0.3-0.4,0.4-0.6,0.5-0.9l-0.5-0.2c-0.1,0.2-0.2,0.4-0.5,0.8c0,0,0,0,0,0.1c-0.5,0.7-0.7,1.1-0.8,1.5h0c0,0,0,0,0,0h-0.1
		c-0.1,0-0.1-0.1-0.2-0.2c-1-1.6-0.2-2.9,2-4.5c0.3-0.2,1.2-0.9,1.5-1.1c0.1,0,0.1,0,0.2-0.1c1.4,1.2,2.9,2.2,4.7,3l0,0
		c0,0,0,0.1,0.1,0.1C33.3,89.5,32.5,90,31.1,91.2L31.1,91.2z M73.1,88.5c0.8,1.3,0.8,2.4-0.2,3.1c-0.1-0.2-0.1-0.3-0.2-0.6
		c0,0,0,0,0-0.1c-0.4-1-0.6-1.4-1-1.8l-0.4,0.4c0.4,0.4,0.6,0.7,0.9,1.6c0,0,0,0,0,0.1c0.1,0.3,0.2,0.5,0.3,0.7
		c-0.7,0.6-1.2,0.7-1.8,0.4c-0.5-0.2-1-0.7-1.8-1.6c-0.1-0.1-0.1-0.1-0.2-0.2c0,0-0.1-0.1-0.1-0.1c-0.1-0.1-0.1-0.1-0.1-0.1
		c-0.9-1.1-1.5-1.7-2.1-2c1.4-0.8,2.7-1.7,3.8-2.8C71.3,86.3,72.5,87.4,73.1,88.5L73.1,88.5z M73.5,80.4c-2.2,4.3-6,7.4-11.1,9.2
		c-4.4,1.6-9.5,2.2-14.8,2c-9.2-0.3-17.1-3.5-20.9-9.6c-2.5-4-3.3-9.2-3.1-16.2c0.1-1.9,0.2-3.7,0.4-6.8c0.3-3.6,0.4-4.6,0.4-6.2
		c0.1-1.2,0.1-2.3,0-3.6c-0.1-2.2-0.2-4-0.5-7.9c-0.5-5.2-0.6-7.5-0.5-10.3c0.1-3.8,0.6-7.1,1.6-10.2c1.7-5.1,4.8-8.5,9.3-10.7
		c3.8-1.9,8.4-2.8,14.6-3.3c5.8,0,10.1,0.5,13.8,1.9c4.4,1.6,7.7,4.5,9.9,8.9c1.5,3.6,2.3,7.4,2.8,11.8c0.4,3.4,0.4,6.1,0.5,12.2v2
		c0,3,0.1,5.2,0.2,7.3c0.1,0.8,0.1,1.2,0.2,3.2c0.3,4.3,0.4,6.5,0.4,9C76.7,70.2,75.8,75.7,73.5,80.4L73.5,80.4z M81.1,53L81.1,53
		C81.1,53,81.1,53,81.1,53c-0.5-0.2-0.7-0.3-0.8-0.5l-0.4,0.3c0.2,0.3,0.5,0.4,1,0.6c-0.1,0.9-0.5,1.2-1.3,1.2
		c-0.7-0.1-1.5-0.5-2.2-0.9c-0.2-0.2-0.4-0.3-0.6-0.4c0,0-0.1,0-0.1,0c-0.1-1.4-0.1-1.7-0.2-2.5c0-0.5-0.1-0.9-0.1-1.4
		c1.4,0,2.8,0.5,3.8,1.2c0.4,0.3,0.8,0.8,1,1.3C81.6,52.4,81.6,52.8,81.1,53L81.1,53z"/>
	<g transform="translate(108.934905, 96.951015)">
		<path class="st6" d="M-56.2-64.4c0,1.3,0.3,2.7,0.1,4c-0.4,0.7-1,0.7-1.6,1c-0.8-0.1-1.5-0.7-1.8-1.4c-0.2-1.5,0.1-3,0.1-4.5
			c0-0.1,1,0,1.8,0.3C-56.8-64.8-56.2-64.5-56.2-64.4L-56.2-64.4z"/>
		<path class="st6" d="M-63.2-64.3c-0.7,2.7,0.9,7,3.6,3.4c-0.2-1.5,0-3,0.1-4.4C-59.5-65.5-63.2-64.5-63.2-64.3L-63.2-64.3z"/>
		<path class="st5" d="M-55.9-63.3c-0.1-0.8-0.1-1.1-0.1-1.4v-0.2l-0.2-0.1l-3.2-1v-0.2l-0.3,0.1h0v0l-3.6,0.9l-0.1,0l-0.1,0.1
			c-0.6,1.3-0.4,3.3,0.3,4.6c0.8,1.4,2.1,1.4,3.4-0.2c0.4,0.7,1.1,1.2,1.9,1.4h0.1l0.1,0c0.1-0.1,0.2-0.1,0.4-0.2c0,0,0,0,0.1,0
			c0.7-0.3,1-0.5,1.3-0.9l0,0v-0.1c0.1-0.5,0.1-0.9,0.1-1.5C-55.8-62.2-55.8-62.6-55.9-63.3L-55.9-63.3z M-59.9-64.2
			c0,0.5-0.1,0.6-0.1,0.9c-0.1,0.9-0.1,1.6,0,2.3c-1.2,1.5-2.1,1.5-2.7,0.4c-0.6-1.1-0.7-2.8-0.3-4l3.2-0.8
			C-59.8-65.1-59.8-64.8-59.9-64.2L-59.9-64.2z M-56.4-60.5c-0.2,0.3-0.4,0.5-1,0.7c0,0,0,0-0.1,0c-0.2,0.1-0.3,0.1-0.3,0.1
			c-0.7-0.1-1.3-0.6-1.5-1.2c-0.1-0.7-0.1-1.4,0-2.3c0-0.3,0-0.4,0.1-0.9c0.1-0.6,0.1-0.9,0.1-1.3l2.7,0.8c0,0.3,0,0.6,0.1,1.3
			c0.1,0.7,0.1,1,0.1,1.4C-56.3-61.3-56.3-60.9-56.4-60.5L-56.4-60.5z"/>
	</g>
	<g transform="translate(48.475508, 21.975564)">
		<path class="st6" d="M-17.8-0.4c2.3,9,16.6,6.7,16.1-2.3C-2.4-13.5-20-11.4-17.8-0.4"/>
		<path class="st5" d="M-1.5-2.7c-0.2-2.6-1.3-4.6-3.2-5.9c-1.7-1.2-4-1.6-6.2-1.3c-2.2,0.3-4.3,1.3-5.6,2.9
			C-18-5.3-18.6-3-18.1-0.4l0.2-0.1l-0.2,0.1C-15.7,8.8-0.9,6.6-1.5-2.7L-1.5-2.7z M-17.6-0.4c-0.5-2.5,0.1-4.7,1.5-6.3
			c1.3-1.5,3.2-2.5,5.3-2.7S-6.6-9.3-5-8.2C-3.2-7-2.1-5.1-2-2.6C-1.4,6.1-15.4,8.2-17.6-0.4L-17.6-0.4z"/>
		<ellipse class="st5" cx="-13.9" cy="-1.8" rx="2.4" ry="2.6"/>
		<ellipse class="st6" cx="-12.8" cy="-1.2" rx="0.6" ry="0.7"/>
	</g>
	<g transform="translate(129.617789, 18.097523)">
		<path class="st6" d="M-78.9,1.8c1.8,10.3,18.6,7.6,16.2-2.8C-64.9-10.3-79.5-7.7-78.9,1.8"/>
		<path class="st5" d="M-62.5-1c-2.2-9.6-17.2-7-16.6,2.9v0c0.8,4.9,5.2,7.3,9.9,6.5c2.2-0.4,4.1-1.4,5.4-3
			C-62.4,3.7-61.9,1.5-62.5-1L-62.5-1z M-64.2,5.1c-1.2,1.5-3,2.5-5.1,2.8c-4.5,0.8-8.6-1.6-9.4-6.1C-79.2-7.4-65-9.9-62.9-0.9
			C-62.4,1.5-62.8,3.5-64.2,5.1L-64.2,5.1z"/>
		<ellipse class="st5" cx="-74.7" cy="1.4" rx="2.4" ry="2.6"/>
		<ellipse class="st6" cx="-73.6" cy="2" rx="0.6" ry="0.7"/>
	</g>
	<g transform="translate(99.536375, 70.451072)">
		<path class="st3" d="M-53.3-43.3c-2,0.2-3.6,2.5-2.6,4.4c1.4,2.5,4.4-0.2,6.3,0c2.2,0.1,4,2.3,5.7,0.4c1.9-2.1-0.8-4.2-3-5.1
			L-53.3-43.3L-53.3-43.3z"/>
		<path class="st7" d="M-43.7-41.6c-0.7-0.9-1.9-1.6-3.1-2.2l-0.1,0h-0.1l-6.4,0.3c-2.2,0.2-3.8,2.8-2.8,4.7c0.4,0.8,1,1.1,1.8,1.2
			c0.6,0,1.2-0.1,2.1-0.4c0.1,0,0.2-0.1,0.3-0.1c1.3-0.4,1.8-0.6,2.3-0.5h0c0.6,0,1.1,0.2,2.1,0.6c1.1,0.4,1.4,0.6,1.9,0.6
			c0.7,0.1,1.4-0.2,1.9-0.8C-42.8-39.4-42.8-40.5-43.7-41.6L-43.7-41.6z M-44.1-38.6c-0.5,0.5-1,0.7-1.5,0.7c-0.5,0-0.8-0.2-1.8-0.6
			c-1-0.4-1.6-0.6-2.2-0.6c-0.6-0.1-1.2,0.1-2.5,0.5c-0.1,0.1-0.2,0.1-0.3,0.1c-1.8,0.6-2.7,0.6-3.3-0.5c-0.9-1.6,0.5-3.8,2.4-4
			l6.3-0.3c1.2,0.5,2.3,1.2,2.9,2C-43.3-40.4-43.3-39.5-44.1-38.6L-44.1-38.6z"/>
		<g transform="translate(11.953307, 0.000000)">
			<path class="st5" d="M-58.4-44.3c-0.8-2.9-7.3-2.4-7.1,1C-65.2-40.8-57.6-41.5-58.4-44.3L-58.4-44.3z"/>
		</g>
	</g>
</g>
</svg>
