<?xml version="1.0" encoding="utf-8"?>
<!-- Generator: Adobe Illustrator 26.3.1, SVG Export Plug-In . SVG Version: 6.00 Build 0)  -->
<svg version="1.1" id="レイヤー_1" xmlns="http://www.w3.org/2000/svg" xmlns:xlink="http://www.w3.org/1999/xlink" x="0px"
	 y="0px" viewBox="0 0 100 100" style="enable-background:new 0 0 100 100;" xml:space="preserve">
<style type="text/css">
	.st0{display:none;}
	.st1{display:inline;fill:#EDD72F;}
	.st2{display:inline;fill:#040000;}
	.st3{fill:#D84D28;}
	.st4{fill:#E5642C;}
	.st5{fill:#EBEBEB;}
	.st6{fill:#040000;}
	.st7{fill:#FFFFFF;}
</style>
<g class="st0">
	<path class="st1" d="M5.3,5h89.5v90H5.3V5z"/>
	<path class="st2" d="M28.8,80.2l6.8-4.2c1.3,2.4,2.5,4.3,5.4,4.3c2.8,0,4.5-1.1,4.5-5.3V46.3H54v28.9c0,8.8-5.1,12.7-12.6,12.7
		C34.7,87.9,30.8,84.4,28.8,80.2"/>
	<path class="st2" d="M58.5,79.3l6.8-4c1.8,3,4.1,5.1,8.3,5.1c3.5,0,5.7-1.8,5.7-4.2c0-2.9-2.3-3.9-6.1-5.6l-2.1-0.9
		C65.1,67.2,61,63.9,61,57c0-6.3,4.8-11.2,12.3-11.2c5.3,0,9.2,1.9,12,6.8l-6.5,4.2c-1.4-2.6-3-3.6-5.4-3.6c-2.5,0-4,1.6-4,3.6
		c0,2.5,1.6,3.6,5.2,5.1l2.1,0.9c7.1,3.1,11.2,6.2,11.2,13.3c0,7.6-5.9,11.8-13.9,11.8C66,87.9,61,84.2,58.5,79.3"/>
</g>
<g>
	<polygon class="st3" points="24.1,87.2 18.3,22.6 81.7,22.6 75.9,87.2 50,94.4 	"/>
	<polygon class="st4" points="50,88.9 71,83.1 75.9,27.9 50,27.9 	"/>
	<polygon class="st5" points="50,51.8 39.5,51.8 38.8,43.7 50,43.7 50,35.8 50,35.8 30.1,35.8 30.3,37.9 32.3,59.8 50,59.8 	"/>
	<polygon class="st5" points="50,72.4 50,72.4 41.1,70.1 40.6,63.7 36.3,63.7 32.6,63.7 33.7,76.2 50,80.7 50,80.7 	"/>
	<path class="st6" d="M24.2,5h4v4h3.7V5h4v12.1h-4v-4h-3.7v4h-4L24.2,5L24.2,5z"/>
	<path class="st6" d="M41.3,9h-3.5V5h11.1v4h-3.5v8.1h-4L41.3,9L41.3,9z"/>
	<path class="st6" d="M50.6,5h4.2l2.6,4.2L60,5h4.2v12.1h-4v-6l-2.8,4.3h-0.1l-2.8-4.3v6h-3.9V5z"/>
	<path class="st6" d="M66.2,5h4v8.1h5.7v4h-9.7V5z"/>
	<polygon class="st7" points="50,51.8 50,59.8 59.7,59.8 58.8,70.1 50,72.4 50,80.7 66.2,76.2 66.3,74.8 68.2,54 68.4,51.8 
		66.3,51.8 	"/>
	<polygon class="st7" points="50,35.8 50,40.7 50,43.7 50,43.7 69.1,43.7 69.1,43.7 69.1,43.7 69.3,41.9 69.6,37.9 69.8,35.8 	"/>
</g>
</svg>
