<?xml version="1.0" encoding="utf-8"?>
<!-- Generator: Adobe Illustrator 26.3.1, SVG Export Plug-In . SVG Version: 6.00 Build 0)  -->
<svg version="1.1" id="レイヤー_1" xmlns="http://www.w3.org/2000/svg" xmlns:xlink="http://www.w3.org/1999/xlink" x="0px"
	 y="0px" viewBox="0 0 100 100" style="enable-background:new 0 0 100 100;" xml:space="preserve">
<style type="text/css">
	.st0{fill:#310304;}
	.st1{fill:#F3961A;}
</style>
<g id="Layer_2_1_">
	<g id="Surfaces">
		<g id="Drawing_Surface">
			<g id="Outline_no_shadow">
				<path class="st0" d="M21.1,6.4h57.8c8.8,0,15.8,7.1,15.8,15.8v55.5c0,8.8-7.1,15.8-15.8,15.8H21.1c-8.8,0-15.8-7.1-15.8-15.8
					V22.2C5.3,13.5,12.4,6.4,21.1,6.4z"/>
			</g>
		</g>
	</g>
	<g id="Outlined_Mnemonics_Logos">
		<g id="Ai">
			<path class="st1" d="M48.6,58.7H34.8l-2.8,8.8c-0.1,0.3-0.4,0.6-0.7,0.5h-7c-0.4,0-0.5-0.2-0.4-0.7l12-34.6
				c0.1-0.4,0.2-0.8,0.4-1.2c0.1-0.8,0.2-1.6,0.2-2.4c0-0.2,0.1-0.4,0.3-0.4c0,0,0.1,0,0.1,0h9.5c0.3,0,0.4,0.1,0.5,0.3l13.6,38.4
				c0.1,0.4,0,0.6-0.4,0.6h-7.8c-0.3,0-0.5-0.1-0.6-0.4L48.6,58.7z M36.9,51.2h9.5c-0.2-0.8-0.5-1.7-0.9-2.7c-0.3-1-0.7-2.1-1-3.2
				c-0.4-1.2-0.7-2.3-1.1-3.4c-0.4-1.2-0.7-2.2-1-3.3c-0.3-1-0.6-2-0.8-2.9h-0.1c-0.3,1.6-0.7,3.2-1.3,4.8c-0.6,1.8-1.1,3.7-1.7,5.5
				C38,47.8,37.5,49.6,36.9,51.2L36.9,51.2z"/>
			<path class="st1" d="M68.6,35.1c-1.2,0-2.4-0.4-3.3-1.3c-0.9-0.9-1.3-2.2-1.3-3.4c0-1.3,0.4-2.5,1.3-3.3s2.1-1.3,3.3-1.3
				c1.5,0,2.6,0.4,3.4,1.3c0.8,0.9,1.3,2.1,1.2,3.3c0,1.3-0.4,2.5-1.3,3.4C71.1,34.7,69.8,35.2,68.6,35.1z M64.4,67.4V38.7
				c0-0.4,0.1-0.5,0.5-0.5h7.4c0.3,0,0.5,0.2,0.5,0.5v28.7c0,0.4-0.1,0.6-0.5,0.6h-7.3C64.6,68,64.4,67.8,64.4,67.4z"/>
		</g>
	</g>
</g>
</svg>
