<?xml version="1.0" encoding="utf-8"?>
<!-- Generator: Adobe Illustrator 26.3.1, SVG Export Plug-In . SVG Version: 6.00 Build 0)  -->
<svg version="1.1" id="レイヤー_1" xmlns="http://www.w3.org/2000/svg" xmlns:xlink="http://www.w3.org/1999/xlink" x="0px"
	 y="0px" viewBox="0 0 100 100" style="enable-background:new 0 0 100 100;" xml:space="preserve">
<style type="text/css">
	.st0{fill:#EDD72F;}
	.st1{fill:#040000;}
</style>
<g>
	<path class="st0" d="M5.3,5h89.5v90H5.3V5z"/>
	<path class="st1" d="M28.8,80.2l6.8-4.2c1.3,2.4,2.5,4.3,5.4,4.3c2.8,0,4.5-1.1,4.5-5.3V46.3H54v28.9c0,8.8-5.1,12.7-12.6,12.7
		C34.7,87.9,30.8,84.4,28.8,80.2"/>
	<path class="st1" d="M58.5,79.3l6.8-4c1.8,3,4.1,5.1,8.3,5.1c3.5,0,5.7-1.8,5.7-4.2c0-2.9-2.3-3.9-6.1-5.6l-2.1-0.9
		C65.1,67.2,61,63.9,61,57c0-6.3,4.8-11.2,12.3-11.2c5.3,0,9.2,1.9,12,6.8l-6.5,4.2c-1.4-2.6-3-3.6-5.4-3.6c-2.5,0-4,1.6-4,3.6
		c0,2.5,1.6,3.6,5.2,5.1l2.1,0.9c7.1,3.1,11.2,6.2,11.2,13.3c0,7.6-5.9,11.8-13.9,11.8C66,87.9,61,84.2,58.5,79.3"/>
</g>
</svg>
