<?xml version="1.0" encoding="utf-8"?>
<!-- Generator: Adobe Illustrator 26.3.1, SVG Export Plug-In . SVG Version: 6.00 Build 0)  -->
<svg version="1.1" id="レイヤー_1" xmlns="http://www.w3.org/2000/svg" xmlns:xlink="http://www.w3.org/1999/xlink" x="0px"
	 y="0px" viewBox="0 0 100 100" style="enable-background:new 0 0 100 100;" xml:space="preserve">
<style type="text/css">
	.st0{display:none;}
	.st1{display:inline;fill:#EDD72F;}
	.st2{display:inline;fill:#040000;}
	.st3{fill:#E8372A;}
</style>
<g class="st0">
	<path class="st1" d="M5.3,5h89.5v90H5.3V5z"/>
	<path class="st2" d="M28.8,80.2l6.8-4.2c1.3,2.4,2.5,4.3,5.4,4.3c2.8,0,4.5-1.1,4.5-5.3V46.3H54v28.9c0,8.8-5.1,12.7-12.6,12.7
		C34.7,87.9,30.8,84.4,28.8,80.2"/>
	<path class="st2" d="M58.5,79.3l6.8-4c1.8,3,4.1,5.1,8.3,5.1c3.5,0,5.7-1.8,5.7-4.2c0-2.9-2.3-3.9-6.1-5.6l-2.1-0.9
		C65.1,67.2,61,63.9,61,57c0-6.3,4.8-11.2,12.3-11.2c5.3,0,9.2,1.9,12,6.8l-6.5,4.2c-1.4-2.6-3-3.6-5.4-3.6c-2.5,0-4,1.6-4,3.6
		c0,2.5,1.6,3.6,5.2,5.1l2.1,0.9c7.1,3.1,11.2,6.2,11.2,13.3c0,7.6-5.9,11.8-13.9,11.8C66,87.9,61,84.2,58.5,79.3"/>
</g>
<g>
	<path class="st3" d="M93.5,25.7c0,0.1,0,0.2,0,0.4v19.2c0,0.5-0.3,1-0.7,1.2l-16.1,9.3v18.4c0,0.5-0.3,1-0.7,1.2L42.3,94.9
		c-0.1,0-0.2,0.1-0.2,0.1c0,0-0.1,0-0.1,0c-0.2,0.1-0.5,0.1-0.7,0c0,0-0.1,0-0.1,0c-0.1,0-0.2-0.1-0.2-0.1L7.2,75.5
		c-0.4-0.3-0.7-0.7-0.7-1.2V16.5c0-0.1,0-0.2,0-0.4c0,0,0-0.1,0-0.1c0-0.1,0.1-0.1,0.1-0.2c0,0,0.1-0.1,0.1-0.1
		c0-0.1,0.1-0.1,0.1-0.2c0,0,0.1-0.1,0.1-0.1c0.1,0,0.1-0.1,0.2-0.1h0L24,5.6c0.4-0.2,1-0.2,1.4,0l16.8,9.7h0c0.1,0,0.1,0.1,0.2,0.1
		c0,0,0.1,0.1,0.1,0.1c0,0.1,0.1,0.1,0.1,0.2c0,0,0.1,0.1,0.1,0.1c0,0.1,0.1,0.1,0.1,0.2c0,0,0,0.1,0,0.1c0,0.1,0,0.2,0,0.4v36
		l14-8.1V26.1c0-0.1,0-0.2,0-0.4c0,0,0-0.1,0-0.1c0-0.1,0.1-0.1,0.1-0.2c0,0,0.1-0.1,0.1-0.1c0-0.1,0.1-0.1,0.1-0.2
		c0,0,0.1-0.1,0.1-0.1c0.1,0,0.1-0.1,0.2-0.1h0l16.8-9.7c0.4-0.3,1-0.3,1.4,0l16.8,9.7c0.1,0,0.1,0.1,0.2,0.1c0,0,0.1,0.1,0.1,0.1
		c0,0.1,0.1,0.1,0.1,0.2c0,0,0.1,0.1,0.1,0.1c0,0.1,0.1,0.1,0.1,0.2C93.4,25.6,93.5,25.7,93.5,25.7z M90.7,44.5v-16l-5.9,3.4
		l-8.1,4.7v16L90.7,44.5L90.7,44.5z M73.9,73.4v-16l-8,4.6L43,75v16.2L73.9,73.4z M9.3,19v54.5l30.9,17.8V75.1L24,65.9l0,0l0,0
		c-0.1,0-0.1-0.1-0.2-0.1c0,0-0.1-0.1-0.1-0.1l0,0c0,0-0.1-0.1-0.1-0.1c0,0-0.1-0.1-0.1-0.1l0,0c0-0.1-0.1-0.1-0.1-0.2
		c0-0.1-0.1-0.1-0.1-0.2v0c0-0.1,0-0.1,0-0.2c0-0.1,0-0.1,0-0.2v0V27l-8.1-4.7L9.3,19L9.3,19z M24.7,8.4l-14,8.1l14,8.1l14-8.1
		L24.7,8.4L24.7,8.4z M32,58.9l8.1-4.7V19l-5.9,3.4L26.1,27v35.2L32,58.9z M75.3,18l-14,8.1l14,8.1l14-8.1L75.3,18z M73.9,36.6
		l-8.1-4.7l-5.9-3.4v16l8.1,4.7l5.9,3.4V36.6z M41.6,72.6l20.6-11.8L72.5,55l-14-8.1l-16.1,9.3l-14.7,8.5L41.6,72.6z"/>
</g>
</svg>
