<?xml version="1.0" encoding="utf-8"?>
<!-- Generator: Adobe Illustrator 26.3.1, SVG Export Plug-In . SVG Version: 6.00 Build 0)  -->
<svg version="1.1" id="レイヤー_1" xmlns="http://www.w3.org/2000/svg" xmlns:xlink="http://www.w3.org/1999/xlink" x="0px"
	 y="0px" viewBox="0 0 100 100" style="enable-background:new 0 0 100 100;" xml:space="preserve">
<style type="text/css">
	.st0{fill:#040000;}
</style>
<g>
	<path class="st0" d="M91.6,12.9c-1.3,0.6-2.5,0.9-5.1,1.1c-7.1,0.7-10,2.8-15,11.3c-6.1,10.3-8.4,12-22.2,16.5
		c-11.8,3.9-13.3,4.5-16,6.6c-2.2,1.7-3.3,2.9-5.3,5.6c-2.4,3.2-2.9,3.5-5.1,3.5c-1,0-2.9-0.2-4.2-0.5c-3.9-0.7-6.3-0.6-7.7,0.3
		c-0.6,0.4-1.1,0.9-1.1,1c0,0.2,3.5,2.9,4.6,3.5c0.4,0.2,0.3,0.4-0.2,1.2c-1.7,2.2-2.2,3.2-2.2,3.9s0.1,0.7,1.5,0.7
		c0.8,0,2.3-0.2,3.2-0.4c2.2-0.6,8.2-3.4,11.3-5.5c7.1-4.5,9.4-5,19.7-3.7c2.8,0.3,6.1,0.6,7.4,0.6c2.2,0,2.2,0,3.1-1.1
		c0.5-0.6,1.1-1.6,1.3-2.2c0.7-2,1.4-3.5,1.6-3.5c0.6,0-0.8,6.3-1.9,8.5c-1,1.9-3.2,5.2-4.1,6.2l-0.8,0.9h1.2c1.6,0,5.1-1.3,7.1-2.6
		c3.3-2.2,6-5.6,7.8-9.9c0.5-1.1,1-2.1,1.1-2.1c0.1,0,0.1,0.9,0,2.1l-0.2,2.1l1-0.6c2-1.1,4.4-4,6-6.8c2.2-4.2,3-6.7,5.8-19.1
		c1.1-4.7,1.6-5.4,6.8-9.3c2.6-1.9,3.7-3.7,3.9-6.2C95.2,11.9,94.5,11.5,91.6,12.9L91.6,12.9z M6.6,79.2L5,85.4h1.2
		c1.3,0,1.2,0.3,2.5-5.3c0.4-1.6,0.8-3,0.9-3.2c0.1-0.2,1.1,1.7,2.1,4l1.9,4.3h2.4l1.9-4.3c1-2.4,1.9-4.3,2-4.3c0.1,0,0.7,2,1.2,4.3
		l1,4.3l1.2,0.1c0.7,0.1,1.2,0.1,1.2,0c0-0.1-0.7-2.9-1.6-6.3L21.3,73l-1.1,0.1c-1.1,0.1-1.1,0.1-3.2,4.7c-1.1,2.5-2.1,4.7-2.2,4.7
		c-0.1,0.1-1.1-2-2.3-4.7L10.4,73H8.2L6.6,79.2z M66.8,79.2v6.2h3.9c4.9,0,5.5-0.1,7.1-1.6c3.6-3.1,2.3-9.3-2.2-10.5
		c-0.6-0.2-2.9-0.3-4.9-0.3h-3.8V79.2z M75.5,74.6c1.8,0.9,2.6,2.3,2.6,4.6c0,2.2-0.7,3.6-2.5,4.6c-1.1,0.6-1.6,0.7-4.2,0.6l-3-0.1
		l-0.1-4.8c0-2.6,0-5,0.1-5.2c0.1-0.3,1-0.4,2.9-0.4C73.6,73.9,74.3,74.1,75.5,74.6L75.5,74.6z M82.3,79.2v6.2h4.5
		c5,0,6.3-0.3,6.9-1.7c0.7-1.7,0-4-1.4-4.4c-0.8-0.2-1.1-0.7-0.4-0.7c0.8,0,1.6-1.2,1.6-2.5c0-0.9-0.2-1.4-0.9-2.1
		c-0.8-0.9-0.9-0.9-5.7-1L82.3,73V79.2z M91,74.3c0.9,0.5,1.3,1.8,0.9,2.8c-0.5,1.1-0.9,1.3-4.7,1.5l-3.4,0.2v-4.8h3.3
		C88.9,73.9,90.7,74.1,91,74.3z M91.3,80c1.6,0.8,1.5,3.6-0.2,4.2c-0.5,0.2-2.3,0.3-4.1,0.3h-3.2v-5h3.3
		C89.4,79.5,90.7,79.6,91.3,80z M27.7,76.7c-1.7,0.8-2.3,2-2.3,4.1c0,2,0.9,3.5,2.5,4.3c1.5,0.7,3.6,0.7,4.9-0.1
		c0.8-0.5,1-0.5,1-0.2c0,0.3,0.3,0.5,1.2,0.5h1.2v-9h-1.2c-0.9,0-1.2,0.1-1.2,0.5c0,0.6,0.1,0.6-1.4-0.2C30.9,76,29.3,76,27.7,76.7
		L27.7,76.7z M33.2,78.7c0.6,0.6,0.7,1.1,0.8,2.1c0.1,2.5-2,3.9-4.3,2.9c-1.3-0.5-1.8-1.4-1.8-2.9C27.8,78.1,31.1,76.8,33.2,78.7z
		 M43.2,76.7c-0.6,0.3-1,0.7-1,0.9c0,0.2-0.1,0.3-0.3,0.3c-0.2,0-0.3-0.3-0.3-0.8c0-0.7-0.1-0.8-1.1-0.8h-1.1v9h2.2v-2.3
		c0-3.8,0.9-5.2,3.4-5.2c1.1,0,1.2-0.1,1.4-0.8c0.1-0.4,0.1-0.8,0-0.9C45.9,75.9,44.2,76.2,43.2,76.7z M54.7,76.6
		c-1.6,0.7-2.4,2.2-2.4,4.3c0,1.9,0.5,2.9,2.1,4.1c1.1,0.9,4.5,0.9,5.4,0.1c0.7-0.7,1-0.7,1-0.1c0,0.3,0.3,0.5,1.2,0.5h1.2v-9h-1.2
		c-1.1,0-1.2,0.1-1.2,0.6c0,0.6,0,0.6-0.9,0C58.8,76.1,56.2,75.9,54.7,76.6z M58.9,78c0.2,0,0.8,0.3,1.2,0.8
		c0.6,0.6,0.8,1.1,0.8,2.1c0,1.7-0.6,2.6-2,3c-2.2,0.7-4.5-1.3-4.1-3.5c0.3-1.6,2-2.8,3.2-2.5C58.2,77.9,58.6,78,58.9,78z
		 M47.8,80.4c0,4.7,0.2,5.3,2.1,5.3c0.7,0,1.2-0.1,1.3-0.2c0.3-0.3-0.2-1.7-0.6-1.7c-0.3,0-0.4-0.7-0.4-3.7v-3.7h-2.5V80.4z"/>
</g>
</svg>
