<?xml version="1.0" encoding="utf-8"?>
<!-- Generator: Adobe Illustrator 26.3.1, SVG Export Plug-In . SVG Version: 6.00 Build 0)  -->
<svg version="1.1" id="レイヤー_1" xmlns="http://www.w3.org/2000/svg" xmlns:xlink="http://www.w3.org/1999/xlink" x="0px"
	 y="0px" viewBox="0 0 100 100" style="enable-background:new 0 0 100 100;" xml:space="preserve">
<style type="text/css">
	.st0{fill-rule:evenodd;clip-rule:evenodd;fill:#006694;}
	.st1{fill-rule:evenodd;clip-rule:evenodd;fill:#E69500;}
</style>
<g>
	<path class="st0" d="M5,62.9h3V51.1l4.6,10.3c0.5,1.2,1.3,1.7,2.7,1.7c1.5,0,2.2-0.5,2.7-1.7l4.6-10.3v11.8h3V51.1
		c0-1.1-0.5-1.7-1.4-2c-2.3-0.7-3.8-0.1-4.5,1.4l-4.5,10.1l-4.4-10.1c-0.7-1.5-2.2-2.1-4.5-1.4C5.5,49.4,5,50,5,51.1V62.9L5,62.9z"
		/>
	<path class="st0" d="M28.1,53.3h3v6.5c0,0.4,0.1,1.2,1.7,1.2c0.8,0,6.4,0,6.5,0v-7.7h3c0,0,0,10.5,0,10.6c0,2.6-3.2,3.2-4.7,3.2
		h-9.4v-2c0,0,9.4,0,9.4,0c1.9-0.2,1.7-1.2,1.7-1.5v-0.8H33c-2.9,0-4.8-1.3-4.9-2.8C28.1,59.9,28.2,53.4,28.1,53.3L28.1,53.3z"/>
	<path class="st0" d="M92.3,45.8c-1.8,0-3.2,0.1-4.4,0.6C87.6,46.6,87,46.6,87,47c0.2,0.2,0.2,0.5,0.4,0.7c0.3,0.5,0.8,1.1,1.2,1.4
		c0.5,0.4,1,0.7,1.5,1.1c0.9,0.5,1.9,0.9,2.8,1.4c0.5,0.3,1,0.7,1.5,1.1c0.3,0.2,0.4,0.5,0.7,0.6c0,0,0,0,0-0.1
		c-0.2-0.2-0.2-0.5-0.4-0.7c-0.2-0.2-0.5-0.4-0.7-0.7c-0.7-0.9-1.5-1.7-2.4-2.3c-0.7-0.5-2.3-1.2-2.6-2c0,0,0,0,0,0
		c0.5,0,1.1-0.2,1.6-0.4c0.8-0.2,1.5-0.2,2.3-0.4c0.4-0.1,0.7-0.2,1.1-0.3c0-0.1,0-0.1,0-0.2c-0.4-0.4-0.7-1-1.1-1.3
		c-1.2-1-2.4-2-3.8-2.8c-0.7-0.5-1.6-0.8-2.4-1.1c-0.3-0.1-0.7-0.2-0.9-0.4c-0.4-0.5-0.6-1.2-0.9-1.8c-0.7-1.3-1.3-2.7-1.9-4
		c-0.4-0.9-0.7-1.8-1.2-2.6c-2.4-3.9-4.9-6.2-8.8-8.5c-0.8-0.5-1.9-0.7-2.9-0.9c-0.6,0-1.1-0.1-1.7-0.1c-0.4-0.2-0.7-0.6-1.1-0.8
		c-1.3-0.8-4.7-2.6-5.6-0.3c-0.6,1.5,0.9,2.9,1.4,3.7c0.4,0.5,0.9,1.1,1.2,1.7c0.2,0.4,0.2,0.8,0.4,1.2c0.4,1,0.7,2.1,1.2,3.1
		c0.3,0.5,0.5,1,0.8,1.4c0.2,0.3,0.5,0.4,0.6,0.8c-0.3,0.5-0.3,1.1-0.5,1.7c-0.8,2.6-0.5,5.8,0.7,7.7c0.4,0.6,1.2,1.8,2.4,1.3
		c1-0.4,0.8-1.7,1.1-2.9c0.1-0.3,0-0.5,0.2-0.6c0,0,0,0,0,0c0.3,0.6,0.6,1.3,0.9,1.9c0.7,1.1,1.9,2.3,3,3.1c0.5,0.4,1,1.1,1.7,1.4
		c0,0,0,0,0-0.1c0,0,0,0,0,0c-0.1-0.2-0.3-0.3-0.5-0.5c-0.4-0.4-0.9-0.9-1.2-1.4c-1-1.3-1.8-2.7-2.6-4.2c-0.4-0.7-0.7-1.5-1-2.2
		c-0.1-0.3-0.1-0.7-0.4-0.8c-0.3,0.5-0.8,0.9-1.1,1.6c-0.4,1-0.5,2.2-0.6,3.5c-0.1,0,0,0-0.1,0c-0.7-0.2-1-0.9-1.3-1.6
		c-0.7-1.6-0.8-4.2-0.2-6.1c0.2-0.5,0.8-2,0.6-2.4c-0.1-0.4-0.6-0.7-0.8-1c-0.3-0.4-0.6-1-0.8-1.5c-0.5-1.3-0.8-2.7-1.4-4
		c-0.3-0.6-0.8-1.2-1.1-1.8c-0.4-0.6-0.9-1.1-1.3-1.8c-0.1-0.3-0.3-0.7-0.1-0.9c0-0.2,0.1-0.3,0.3-0.3c0.3-0.3,1.1,0.1,1.4,0.2
		c0.8,0.3,1.6,0.7,2.3,1.1c0.3,0.2,0.7,0.7,1.1,0.8c0.2,0,0.3,0,0.5,0c0.7,0.2,1.6,0,2.2,0.3c1.2,0.4,2.3,1,3.3,1.6
		c3,1.9,5.5,4.6,7.1,7.8c0.3,0.5,0.4,1,0.6,1.6c0.5,1.1,1.1,2.3,1.6,3.4c0.5,1.1,0.9,2.2,1.6,3.1c0.3,0.5,1.7,0.7,2.3,1
		c0.5,0.2,1.2,0.4,1.6,0.6c0.8,0.5,1.6,1,2.3,1.6C91.1,44.8,92.3,45.4,92.3,45.8L92.3,45.8z"/>
	<path class="st0" d="M69,26c-0.4,0-0.7,0-0.9,0.1c0,0,0,0,0,0c0,0,0,0,0,0c0.2,0.4,0.5,0.6,0.7,0.9c0.2,0.4,0.3,0.7,0.5,1.1
		c0,0,0,0,0,0c0.3-0.2,0.5-0.6,0.5-1.1c-0.1-0.2-0.2-0.3-0.3-0.5C69.5,26.3,69.2,26.2,69,26L69,26z"/>
	<path class="st1" d="M44.6,62.9h8.6c1,0,2-0.2,2.7-0.6c1.3-0.6,1.9-1.4,1.9-2.4v-2.2c0-0.8-0.7-1.6-2.1-2.2
		c-0.7-0.3-1.6-0.4-2.5-0.4h-3.6c-1.2,0-1.8-0.4-1.9-1.2c0-0.1,0-0.2,0-0.3v-1.3c0-0.1,0-0.2,0-0.3c0.2-0.6,0.5-0.8,1.5-0.9
		c0.1,0,0.2,0,0.3,0H58v-2h-8.4c-1.2,0-1.9,0.1-2.4,0.3c-1.8,0.5-2.5,1.4-2.5,2.9v1.7c0,1.3,1.5,2.5,4.1,2.8c0.3,0,0.6,0,0.9,0h3.1
		c0.1,0,0.2,0,0.3,0c0.9,0.1,1.3,0.3,1.6,0.6c0.2,0.2,0.2,0.3,0.2,0.5v1.7c0,0.2-0.1,0.5-0.4,0.7s-0.7,0.4-1.3,0.4
		c-0.1,0-0.2,0-0.3,0h-8.2V62.9L44.6,62.9z"/>
	<path class="st1" d="M76.5,59.5c0,2,1.5,3.2,4.6,3.4c0.3,0,0.6,0,0.9,0h7.8v-2h-7.8c-1.7,0-2.4-0.4-2.4-1.5V49.1h-3V59.5L76.5,59.5
		z"/>
	<path class="st1" d="M59.8,59.5v-7.1c0-1.8,1.3-2.9,3.8-3.2c0.3,0,0.5,0,0.8,0H70c0.3,0,0.5,0,0.8,0c2.5,0.3,3.7,1.4,3.7,3.2v7.1
		c0,1.5-0.5,2.2-1.8,2.8l2.9,2.7h-3.5L70,62.8l-2.4,0.1h-3.2c-0.5,0-1.1-0.1-1.7-0.2C60.7,62.2,59.8,61.2,59.8,59.5L59.8,59.5z
		 M63,59.4c0,0.1,0,0.2,0.1,0.3c0.2,0.8,0.9,1.3,2.1,1.3h2.7l-2.5-2.2h3.5l2.2,2c0.4-0.2,0.7-0.5,0.8-1c0-0.1,0-0.2,0-0.3v-6.8
		c0-0.1,0-0.2,0-0.3c-0.2-0.8-0.9-1.2-2.1-1.2h-4.5c-1.3,0-2.2,0.6-2.2,1.5V59.4L63,59.4z"/>
	<path class="st1" d="M91.1,62.9h0.4v-1.7h0.6v-0.3h-1.6v0.3h0.6V62.9L91.1,62.9z M94.4,62.9h0.4v-2h-0.6l-0.5,1.4l-0.5-1.4h-0.6v2
		h0.4v-1.5h0l0.6,1.5h0.3l0.6-1.5l0,0V62.9L94.4,62.9z"/>
</g>
</svg>
