<?xml version="1.0" encoding="utf-8"?>
<!-- Generator: Adobe Illustrator 26.3.1, SVG Export Plug-In . SVG Version: 6.00 Build 0)  -->
<svg version="1.1" id="レイヤー_1" xmlns="http://www.w3.org/2000/svg" xmlns:xlink="http://www.w3.org/1999/xlink" x="0px"
	 y="0px" viewBox="0 0 100 100" style="enable-background:new 0 0 100 100;" xml:space="preserve">
<style type="text/css">
	.st0{fill:#040000;}
</style>
<g>
	<path class="st0" d="M26.2,37.3h16.7v1.3H27.7v10H42V50H27.7v11h15.4v1.3H26.2V37.3z M44.4,37.3h1.8l7.9,11l8.1-11l11-14l-18,26.1
		l9.3,12.9h-1.8l-8.4-11.7l-8.5,11.7h-1.8l9.3-12.9L44.4,37.3z M65.1,38.6v-1.3h19.1v1.3h-8.8v23.7h-1.5V38.6H65.1z M5.2,37.3h1.9
		l26.5,39.6L22.7,62.3L6.8,39.2L6.8,62.3H5.2V37.3z M84,60.6c-0.3,0-0.5-0.2-0.5-0.6s0.2-0.6,0.5-0.6c0.3,0,0.5,0.2,0.5,0.6
		S84.3,60.6,84,60.6z M85.5,59.1h0.8c0,0.4,0.3,0.7,0.8,0.7c0.5,0,0.8-0.3,0.8-0.9v-3.8h0.8v3.8c0,1.1-0.6,1.7-1.7,1.7
		C86.2,60.6,85.5,60,85.5,59.1z M89.9,59.1h0.8c0.1,0.5,0.6,0.8,1.3,0.8c0.7,0,1.2-0.3,1.2-0.8c0-0.4-0.3-0.7-1-0.8l-0.7-0.2
		c-1-0.2-1.4-0.7-1.4-1.5c0-1,0.8-1.6,2-1.6c1.1,0,1.9,0.6,1.9,1.5h-0.8c-0.1-0.5-0.5-0.8-1.1-0.8c-0.7,0-1.1,0.3-1.1,0.8
		c0,0.4,0.3,0.6,1,0.8l0.6,0.1c1.1,0.3,1.6,0.7,1.6,1.5c0,1-0.8,1.7-2.1,1.7C90.8,60.6,90,60,89.9,59.1z"/>
</g>
</svg>
