<?xml version="1.0" encoding="utf-8"?>
<!-- Generator: Adobe Illustrator 26.3.1, SVG Export Plug-In . SVG Version: 6.00 Build 0)  -->
<svg version="1.1" id="レイヤー_1" xmlns="http://www.w3.org/2000/svg" xmlns:xlink="http://www.w3.org/1999/xlink" x="0px"
	 y="0px" viewBox="0 0 100 100" style="enable-background:new 0 0 100 100;" xml:space="preserve">
<style type="text/css">
	.st0{fill:#529843;}
</style>
<g>
	<path class="st0" d="M50,94.8c-1.2,0-2.4-0.3-3.5-0.9l-11-6.5c-1.7-0.9-0.8-1.2-0.3-1.4c2.2-0.7,2.6-0.9,5-2.2
		c0.2-0.2,0.6-0.1,0.8,0.1l8.4,5c0.3,0.2,0.7,0.2,1,0l32.9-19.1c0.3-0.2,0.5-0.5,0.5-0.9v-38c0-0.4-0.2-0.7-0.5-0.9L50.4,11
		c-0.3-0.2-0.7-0.2-1,0L16.5,30c-0.3,0.2-0.5,0.6-0.5,0.9v38c0,0.3,0.2,0.7,0.5,0.9l9,5.2c4.9,2.5,7.9-0.4,7.9-3.3V34.2
		c0-0.5,0.4-1,1-1h4.2c0.5,0,1,0.4,1,1v37.5c0,6.5-3.5,10.3-9.7,10.3c-1.9,0-3.4,0-7.6-2.1l-8.7-5c-2.1-1.2-3.5-3.5-3.5-6V31
		c0-2.5,1.3-4.8,3.5-6L46.5,5.9c2.1-1.2,4.9-1.2,6.9,0l32.9,19.1c2.1,1.2,3.5,3.5,3.5,6v38c0,2.5-1.3,4.8-3.5,6L53.5,94.1
		C52.4,94.6,51.2,94.8,50,94.8L50,94.8z M60.2,68.7c-14.4,0-17.4-6.6-17.4-12.2c0-0.5,0.4-1,1-1H48c0.5,0,0.9,0.3,0.9,0.8
		c0.7,4.4,2.6,6.5,11.3,6.5c6.9,0,9.9-1.6,9.9-5.3c0-2.1-0.8-3.7-11.6-4.8c-9-0.9-14.6-2.9-14.6-10.1c0-6.7,5.6-10.6,15-10.6
		c10.6,0,15.8,3.6,16.4,11.6c0,0.2-0.1,0.5-0.2,0.7c-0.2,0.2-0.4,0.3-0.7,0.3h-4.3c-0.4,0-0.8-0.3-0.9-0.7c-1-4.5-3.5-6-10.3-6
		c-7.6,0-8.5,2.6-8.5,4.6c0,2.4,1.1,3.1,11.3,4.5c10.2,1.3,14.9,3.2,14.9,10.3C76.6,64.5,70.6,68.7,60.2,68.7L60.2,68.7z"/>
</g>
</svg>
