<?xml version="1.0" encoding="utf-8"?>
<!-- Generator: Adobe Illustrator 26.3.1, SVG Export Plug-In . SVG Version: 6.00 Build 0)  -->
<svg version="1.1" id="レイヤー_1" xmlns="http://www.w3.org/2000/svg" xmlns:xlink="http://www.w3.org/1999/xlink" x="0px"
	 y="0px" viewBox="0 0 100 100" style="enable-background:new 0 0 100 100;" xml:space="preserve">
<style type="text/css">
	.st0{fill:#041E34;}
	.st1{fill:#479CD7;}
</style>
<g id="Layer_2_1_">
	<g id="Surfaces">
		<g id="Photo_Surface">
			<g id="Outline_no_shadow">
				<path class="st0" d="M20.9,6.1h58.1c8.8,0,15.9,7.1,15.9,15.9v55.9c0,8.8-7.1,15.9-15.9,15.9H20.9C12.1,93.9,5,86.8,5,77.9V22.1
					C5,13.2,12.1,6.1,20.9,6.1z"/>
			</g>
		</g>
	</g>
	<g id="Outlined_Mnemonics_Logos">
		<g id="Ps">
			<path class="st1" d="M25.2,67.7V29.1c0-0.3,0.1-0.4,0.4-0.4c0.6,0,1.2,0,2.1,0c0.9,0,1.8,0,2.9-0.1c1,0,2.1,0,3.3-0.1
				c1.2,0,2.3,0,3.4,0c3.1,0,5.6,0.4,7.7,1.2c1.9,0.6,3.6,1.7,5,3.1c1.2,1.2,2.1,2.7,2.7,4.3c0.6,1.6,0.9,3.2,0.9,4.9
				c0,3.2-0.8,5.9-2.2,8s-3.6,3.7-6,4.6c-2.5,0.9-5.4,1.3-8.4,1.3c-0.9,0-1.5,0-1.9,0s-0.9,0-1.6,0v12c0,0.3-0.2,0.5-0.4,0.5
				c0,0-0.1,0-0.2,0h-7.1C25.4,68.2,25.2,68,25.2,67.7z M33.4,35.9v12.6c0.5,0,1,0.1,1.5,0.1h2c1.5,0,2.9-0.2,4.3-0.7
				c1.2-0.3,2.2-1,3.1-2c0.8-0.9,1.2-2.2,1.2-3.9c0-1.2-0.3-2.3-0.9-3.3c-0.6-1-1.5-1.7-2.6-2.1c-1.4-0.6-2.9-0.8-4.4-0.8
				c-1,0-1.8,0-2.6,0C34.2,35.8,33.7,35.9,33.4,35.9L33.4,35.9z"/>
			<path class="st1" d="M77,46.2c-1.1-0.6-2.3-1-3.6-1.3c-1.4-0.3-2.8-0.5-4.2-0.5c-0.8,0-1.5,0.1-2.2,0.3c-0.5,0.1-0.9,0.4-1.2,0.8
				c-0.2,0.3-0.3,0.7-0.3,1s0.2,0.7,0.4,1c0.3,0.4,0.8,0.8,1.3,1c0.9,0.5,1.8,0.9,2.7,1.2c2,0.7,4,1.6,5.8,2.7
				c1.2,0.8,2.2,1.8,3,3.1c0.6,1.2,0.9,2.5,0.9,3.9c0,1.8-0.5,3.5-1.5,5c-1,1.5-2.5,2.7-4.2,3.3c-1.8,0.8-4.1,1.2-6.8,1.2
				c-1.7,0-3.4-0.1-5.1-0.5c-1.3-0.2-2.6-0.6-3.8-1.2c-0.3-0.1-0.4-0.4-0.4-0.7V60c0-0.1,0-0.3,0.2-0.3c0.1-0.1,0.2,0,0.3,0
				c1.5,0.9,3,1.5,4.6,1.8c1.4,0.4,2.9,0.6,4.4,0.6c1.4,0,2.4-0.2,3.1-0.5c0.6-0.3,1-0.9,1-1.6c0-0.5-0.3-1-0.9-1.5
				c-0.6-0.5-1.8-1-3.7-1.8c-1.9-0.7-3.7-1.6-5.3-2.7c-1.2-0.8-2.1-1.9-2.9-3.2c-0.6-1.2-0.9-2.5-0.9-3.8c0-1.6,0.4-3.2,1.3-4.5
				c0.9-1.5,2.3-2.7,3.9-3.4c1.8-0.9,4-1.3,6.6-1.3c1.5,0,3.1,0.1,4.7,0.3c1.1,0.1,2.2,0.4,3.2,0.9c0.2,0,0.3,0.2,0.4,0.3
				c0,0.2,0.1,0.3,0.1,0.4v6.1c0,0.2-0.1,0.3-0.2,0.4C77.3,46.3,77.1,46.3,77,46.2z"/>
		</g>
	</g>
</g>
</svg>
