<?xml version="1.0" encoding="utf-8"?>
<!-- Generator: Adobe Illustrator 26.3.1, SVG Export Plug-In . SVG Version: 6.00 Build 0)  -->
<svg version="1.1" id="レイヤー_1" xmlns="http://www.w3.org/2000/svg" xmlns:xlink="http://www.w3.org/1999/xlink" x="0px"
	 y="0px" viewBox="0 0 100 100" style="enable-background:new 0 0 100 100;" xml:space="preserve">
<style type="text/css">
	.st0{display:none;}
	.st1{display:inline;fill:#EDD72F;}
	.st2{display:inline;fill:#040000;}
	.st3{fill:url(#SVGID_1_);}
	.st4{fill:#5E7CAD;}
	.st5{fill:#FFFFFF;}
	.st6{fill:#040204;}
</style>
<g class="st0">
	<path class="st1" d="M5.3,5h89.5v90H5.3V5z"/>
	<path class="st2" d="M28.8,80.2l6.8-4.2c1.3,2.4,2.5,4.3,5.4,4.3c2.8,0,4.5-1.1,4.5-5.3V46.3H54v28.9c0,8.8-5.1,12.7-12.6,12.7
		C34.7,87.9,30.8,84.4,28.8,80.2"/>
	<path class="st2" d="M58.5,79.3l6.8-4c1.8,3,4.1,5.1,8.3,5.1c3.5,0,5.7-1.8,5.7-4.2c0-2.9-2.3-3.9-6.1-5.6l-2.1-0.9
		C65.1,67.2,61,63.9,61,57c0-6.3,4.8-11.2,12.3-11.2c5.3,0,9.2,1.9,12,6.8l-6.5,4.2c-1.4-2.6-3-3.6-5.4-3.6c-2.5,0-4,1.6-4,3.6
		c0,2.5,1.6,3.6,5.2,5.1l2.1,0.9c7.1,3.1,11.2,6.2,11.2,13.3c0,7.6-5.9,11.8-13.9,11.8C66,87.9,61,84.2,58.5,79.3"/>
</g>
<g>
	
		<radialGradient id="SVGID_1_" cx="-95.3963" cy="200.0301" r="121.8542" gradientTransform="matrix(0.463 0 0 -0.463 77.0014 129.6812)" gradientUnits="userSpaceOnUse">
		<stop  offset="0" style="stop-color:#FFFFFF"/>
		<stop  offset="0.5" style="stop-color:#4B6891"/>
		<stop  offset="1" style="stop-color:#221F20"/>
	</radialGradient>
	<ellipse class="st3" cx="50" cy="51.7" rx="43" ry="22.6"/>
	<ellipse class="st4" cx="50" cy="51.7" rx="41.3" ry="20.9"/>
	<g>
		<path class="st5" d="M58.4,58.5l2-10.5c0.5-2.4,0.1-4.2-1.1-5.3c-1.2-1.1-3.2-1.6-6.1-1.6h-3.6l1-5.2c0-0.2,0-0.4-0.1-0.6
			c-0.1-0.2-0.3-0.2-0.5-0.2H45c-0.3,0-0.6,0.2-0.7,0.5l-2.2,11.2c-0.2-1.3-0.7-2.3-1.5-3.2C39.3,41.9,37,41,34,41h-9.4
			c-0.3,0-0.6,0.2-0.7,0.5l-4.4,22.7c0,0.2,0,0.4,0.1,0.6s0.3,0.2,0.5,0.2H25c0.3,0,0.6-0.2,0.7-0.5l1.1-5.5h3.7
			c1.9,0,3.6-0.2,4.8-0.6c1.3-0.4,2.5-1.1,3.5-2.1c0.8-0.8,1.5-1.6,2.1-2.6L40,58.3c0,0.2,0,0.4,0.1,0.6s0.3,0.2,0.5,0.2h4.9
			c0.3,0,0.6-0.2,0.7-0.5l2.4-12.4h3.4c1.4,0,1.8,0.3,2,0.4c0.1,0.1,0.3,0.5,0.1,1.7l-1.9,10c0,0.2,0,0.4,0.1,0.6s0.3,0.2,0.5,0.2h5
			C58,59,58.3,58.8,58.4,58.5z M35.7,49.8c-0.3,1.6-0.9,2.7-1.7,3.4c-0.8,0.6-2.2,1-4,1h-2.2l1.6-8.1h2.8c2.1,0,2.9,0.4,3.3,0.8
			C35.8,47.3,35.9,48.4,35.7,49.8z"/>
		<path class="st5" d="M79.3,43.5c-1.4-1.6-3.7-2.5-6.7-2.5h-9.5c-0.3,0-0.6,0.2-0.7,0.5L58,64.2c0,0.2,0,0.4,0.1,0.6
			c0.1,0.2,0.3,0.2,0.5,0.2h4.9c0.3,0,0.6-0.2,0.7-0.5l1.1-5.5H69c1.9,0,3.6-0.2,4.8-0.6c1.3-0.4,2.5-1.1,3.5-2.1
			c0.9-0.8,1.6-1.7,2.1-2.7c0.5-1,0.9-2,1.2-3.2C81.2,47.5,80.7,45.2,79.3,43.5z M74.2,49.8c-0.3,1.6-0.9,2.7-1.7,3.4
			c-0.8,0.6-2.2,1-4,1h-2.2l1.6-8.1h2.8c2.1,0,2.9,0.4,3.3,0.8C74.4,47.3,74.5,48.4,74.2,49.8z"/>
	</g>
	<g>
		<path class="st6" d="M32.1,45.3c1.9,0,3.1,0.3,3.8,1c0.6,0.7,0.8,1.9,0.4,3.6c-0.3,1.7-1,3-2,3.8c-1,0.7-2.5,1.1-4.4,1.1h-3
			l1.8-9.5H32.1z M20.1,64.4h4.9l1.2-6h4.2c1.9,0,3.4-0.2,4.6-0.6c1.2-0.4,2.3-1,3.3-2c0.8-0.8,1.5-1.6,2-2.5c0.5-0.9,0.9-1.9,1.1-3
			c0.5-2.7,0.1-4.8-1.2-6.3c-1.3-1.5-3.4-2.2-6.2-2.2h-9.5L20.1,64.4z"/>
		<path class="st6" d="M45.1,35.7H50l-1.2,6h4.4c2.8,0,4.6,0.5,5.7,1.4c1,1,1.3,2.5,0.9,4.7l-2,10.5h-5l1.9-10
			c0.2-1.1,0.1-1.9-0.2-2.3c-0.4-0.4-1.2-0.6-2.5-0.6h-3.9l-2.5,13h-4.9L45.1,35.7z"/>
		<path class="st6" d="M70.6,45.3c1.9,0,3.1,0.3,3.8,1s0.8,1.9,0.4,3.6c-0.3,1.7-1,3-2,3.8c-1,0.7-2.5,1.1-4.4,1.1h-3l1.8-9.5H70.6z
			 M58.6,64.4h4.9l1.2-6H69c1.9,0,3.4-0.2,4.6-0.6c1.2-0.4,2.3-1,3.3-2c0.8-0.8,1.5-1.6,2-2.5c0.5-0.9,0.9-1.9,1.1-3
			c0.5-2.7,0.1-4.8-1.2-6.3c-1.3-1.5-3.4-2.2-6.2-2.2H63L58.6,64.4z"/>
	</g>
</g>
</svg>
