<?xml version="1.0" encoding="utf-8"?>
<!-- Generator: Adobe Illustrator 26.3.1, SVG Export Plug-In . SVG Version: 6.00 Build 0)  -->
<svg version="1.1" id="レイヤー_1" xmlns="http://www.w3.org/2000/svg" xmlns:xlink="http://www.w3.org/1999/xlink" x="0px"
	 y="0px" viewBox="0 0 100 100" style="enable-background:new 0 0 100 100;" xml:space="preserve">
<style type="text/css">
	.st0{fill:#040000;}
	.st1{fill:#33648B;}
	.st2{fill:#FFFFFF;}
</style>
<path class="st0" d="M91.2,59.5c-0.5-1.6-1.9-2.6-3.6-2.9c-0.8-0.1-1.8-0.1-2.9,0.2c-1.9,0.4-3.4,0.6-4.4,0.6c4-6.7,7.2-14.3,9-21.5
	c3-11.6,1.4-16.9-0.5-19.3C83.9,10.3,76.7,6.9,68,6.8c-4.6-0.1-8.7,0.9-10.9,1.5c-2-0.3-4.1-0.5-6.3-0.6c-4.2-0.1-7.9,0.8-11.1,2.7
	c-1.8-0.6-4.6-1.4-7.8-2c-7.6-1.3-13.8-0.3-18.3,2.9c-5.4,3.8-8,10.5-7.5,19.9c0.1,3,1.8,12,4.4,20.5c1.5,4.9,3.1,9,4.8,12.1
	c2.3,4.5,4.9,7.1,7.7,8c1.6,0.5,4.5,0.9,7.5-1.6c0.4,0.5,0.9,0.9,1.6,1.4c0.9,0.5,1.9,1,3,1.2c3.8,0.9,7.3,0.7,10.4-0.6
	c0,0.5,0,1.1,0,1.5c0,0.7,0,1.4,0.1,2.1c0.2,4.5,0.5,7.9,1.4,10.4c0,0.1,0.1,0.3,0.2,0.6c0.4,1.4,1.2,3.7,3.1,5.5
	c2,1.9,4.4,2.4,6.6,2.4c1.1,0,2.2-0.1,3.1-0.3c3.3-0.7,7-1.8,9.7-5.6c2.5-3.6,3.8-9.1,4-17.7c0-0.2,0.1-0.5,0.1-0.7l0.1-0.5l0.6,0.1
	l0.2,0c3.3,0.2,7.4-0.6,9.9-1.7C86.3,67.4,92.7,64,91.2,59.5"/>
<path class="st1" d="M85.5,60.4c-9.9,2.1-10.6-1.3-10.6-1.3c10.5-15.6,14.9-35.3,11.1-40.2c-10.3-13.2-28.2-7-28.5-6.8l-0.1,0
	c-2-0.4-4.2-0.7-6.6-0.7c-4.5-0.1-7.9,1.2-10.5,3.1c0,0-31.9-13.1-30.4,16.5c0.3,6.3,9,47.8,19.5,35.2c3.8-4.6,7.5-8.4,7.5-8.4
	c1.8,1.2,4,1.8,6.3,1.6l0.2-0.2c-0.1,0.6,0,1.1,0.1,1.8c-2.7,3-1.9,3.5-7.3,4.6c-5.4,1.1-2.2,3.1-0.2,3.6c2.5,0.6,8.4,1.5,12.3-4
	L48,66c1.1,0.8,1.8,5.5,1.7,9.7c-0.1,4.2-0.2,7.1,0.6,9.3c0.8,2.3,1.7,7.3,8.7,5.8c5.9-1.3,8.9-4.5,9.4-10c0.3-3.9,1-3.3,1-6.8
	l0.5-1.6c0.6-5.3,0.1-7,3.7-6.2l0.9,0.1c2.7,0.1,6.2-0.4,8.2-1.4C87.2,62.9,89.8,59.5,85.5,60.4L85.5,60.4"/>
<path class="st2" d="M42.1,33.9c-0.9-0.1-1.7,0-2.1,0.3c-0.2,0.2-0.3,0.4-0.3,0.5c-0.1,0.4,0.2,0.8,0.4,1c0.4,0.6,1.1,1,1.8,1.1
	c0.1,0,0.2,0,0.3,0c1.1,0,2.1-0.8,2.2-1.5C44.3,34.6,43.2,34.1,42.1,33.9 M71.8,33.9c-0.1-0.6-1.2-0.8-2.2-0.6c-1,0.1-2,0.6-1.9,1.2
	c0.1,0.5,0.9,1.3,1.9,1.3c0.1,0,0.2,0,0.3,0c0.7-0.1,1.2-0.5,1.4-0.8C71.6,34.6,71.8,34.2,71.8,33.9"/>
<path class="st2" d="M88.8,60.1c-0.4-1.1-1.6-1.5-3.6-1.1c-6,1.2-8.2,0.4-8.9-0.1c4.7-7.1,8.5-15.7,10.6-23.8
	c1-3.8,1.5-7.3,1.6-10.2c0-3.2-0.5-5.5-1.6-6.9c-4.5-5.7-11.1-8.8-19-8.9c-5.5-0.1-10.1,1.3-11,1.7c-1.9-0.5-3.9-0.8-6.2-0.8
	C46.6,10,43,11,40.1,13c-1.3-0.5-4.6-1.6-8.6-2.3c-7-1.1-12.5-0.3-16.5,2.5c-4.7,3.3-6.9,9.3-6.5,17.8c0.1,2.8,1.8,11.6,4.3,20
	c3.4,11,7,17.3,10.9,18.5c0.5,0.2,1,0.3,1.5,0.3c1.4,0,3.1-0.6,4.9-2.8c2.2-2.6,4.4-5.2,6.8-7.7c1.5,0.8,3.2,1.3,4.9,1.3
	c0,0,0,0.1,0,0.1c-0.3,0.3-0.6,0.7-0.9,1.1c-1.2,1.5-1.4,1.8-5.2,2.6c-1.1,0.2-3.9,0.8-4,2.8c0,2.2,3.4,3.1,3.8,3.2
	c1.4,0.3,2.7,0.5,3.9,0.5c3,0,5.7-1,7.9-2.9c-0.1,7.8,0.3,15.5,1.2,17.9c0.8,1.9,2.6,6.6,8.6,6.6c0.9,0,1.8-0.1,2.9-0.3
	c6.2-1.3,8.9-4.1,9.9-10.1c0.6-3.2,1.5-10.9,2-15c0.9,0.3,2.2,0.4,3.5,0.4c2.8,0,5.9-0.6,7.9-1.5C85.5,64.9,89.5,62.4,88.8,60.1
	L88.8,60.1z M74,32.2c0,1.2-0.2,2.3-0.4,3.5c-0.2,1.2-0.4,2.5-0.4,4.1c0,1.5,0.1,3.1,0.3,4.6c0.4,3.1,0.8,6.3-0.7,9.4
	c-0.2-0.4-0.5-0.9-0.7-1.3c-0.2-0.4-0.6-1.2-1.1-2.1c-2.1-3.8-7.1-12.8-4.6-16.5C67.2,32.8,69.2,31.6,74,32.2L74,32.2z M68.1,11.6
	c7.1,0.2,12.8,2.8,16.8,7.9c3.1,3.9-0.3,21.7-10.1,37.1c-0.1-0.1-0.2-0.2-0.3-0.4l-0.1-0.2c2.5-4.2,2-8.3,1.6-11.9
	c-0.2-1.5-0.4-2.9-0.3-4.2c0-1.4,0.2-2.6,0.4-3.8c0.2-1.4,0.4-2.9,0.4-4.7c0-0.2,0.1-0.4,0-0.7c-0.2-1.7-2.1-6.7-6-11.3
	c-2.1-2.5-5.3-5.3-9.6-7.2C62.8,11.9,65.3,11.5,68.1,11.6L68.1,11.6z M28.2,65.4c-2,2.4-3.3,1.9-3.8,1.8c-2.9-1-6.3-7.1-9.3-16.9
	c-2.6-8.5-4.1-17-4.2-19.4c-0.4-7.5,1.5-12.8,5.4-15.6c6.5-4.6,17.1-1.8,21.4-0.5c-0.1,0.1-0.1,0.1-0.2,0.2c-7,7.1-6.9,19.2-6.8,20
	c0,0.3,0,0.7,0.1,1.2c0.1,2,0.3,5.8-0.3,10.1c-0.6,4,0.7,7.9,3.4,10.7c0.3,0.3,0.6,0.6,0.9,0.8C33.7,59.2,31,62.1,28.2,65.4
	L28.2,65.4z M35.8,55.4c-2.2-2.3-3.2-5.4-2.7-8.7c0.6-4.5,0.4-8.5,0.3-10.6c0-0.3,0-0.6,0-0.8c1-0.9,5.8-3.5,9.2-2.7
	c1.5,0.4,2.5,1.4,2.9,3.2c2,9.4,0.3,13.3-1.1,16.5c-0.3,0.6-0.6,1.3-0.8,1.9l-0.2,0.5c-0.5,1.2-0.9,2.4-1.2,3.5
	C39.7,58.2,37.5,57.2,35.8,55.4L35.8,55.4z M36.1,68c-0.7-0.2-1.3-0.5-1.6-0.7c0.3-0.1,0.8-0.3,1.8-0.5c4.5-0.9,5.1-1.6,6.6-3.5
	c0.3-0.4,0.7-0.9,1.3-1.5l0,0c0.8-0.9,1.2-0.7,1.8-0.5c0.5,0.2,1.1,0.9,1.3,1.7c0.1,0.4,0.2,1-0.2,1.5C44,68.9,39.4,68.9,36.1,68z
	 M59.4,89.8c-5.5,1.2-7.4-1.6-8.7-4.8c-0.8-2.1-1.2-11.3-0.9-21.5c0-0.1,0-0.3-0.1-0.4c0-0.2-0.1-0.5-0.2-0.7
	c-0.4-1.5-1.5-2.7-2.7-3.2c-0.5-0.2-1.4-0.6-2.5-0.3c0.2-1,0.6-2,1.1-3.2l0.2-0.5c0.2-0.6,0.5-1.1,0.7-1.7c1.5-3.3,3.5-7.8,1.3-18
	c-0.8-3.8-3.6-5.7-7.8-5.2c-2.5,0.3-4.8,1.3-5.9,1.8c-0.2,0.1-0.5,0.2-0.7,0.4c0.3-3.8,1.5-11,6-15.6c2.8-2.9,6.6-4.3,11.2-4.2
	c9.1,0.1,14.9,4.8,18.2,8.7c2.8,3.3,4.4,6.7,5,8.5c-4.6-0.5-7.7,0.4-9.3,2.7c-3.4,4.9,1.9,14.5,4.5,19.1c0.5,0.8,0.9,1.6,1,1.9
	c0.8,2,1.9,3.4,2.7,4.4c0.2,0.3,0.5,0.6,0.7,0.9c-1.4,0.4-3.9,1.3-3.7,6c-0.2,2.3-1.5,13.2-2.2,17.1C66.6,86.7,64.7,88.6,59.4,89.8
	L59.4,89.8z M82.2,63.7c-1.4,0.7-3.8,1.2-6.1,1.3c-2.5,0.1-3.8-0.3-4.1-0.5c-0.1-2.9,0.9-3.2,2.1-3.5c0.2-0.1,0.4-0.1,0.5-0.2
	c0.1,0.1,0.2,0.2,0.3,0.3c2,1.3,5.6,1.5,10.7,0.4l0.1,0C85,62.1,83.9,62.9,82.2,63.7L82.2,63.7z"/>
</svg>
