<?xml version="1.0" encoding="utf-8"?>
<!-- Generator: Adobe Illustrator 26.3.1, SVG Export Plug-In . SVG Version: 6.00 Build 0)  -->
<svg version="1.1" id="レイヤー_1" xmlns="http://www.w3.org/2000/svg" xmlns:xlink="http://www.w3.org/1999/xlink" x="0px"
	 y="0px" viewBox="0 0 100 100" style="enable-background:new 0 0 100 100;" xml:space="preserve">
<style type="text/css">
	.st0{fill:url(#SVGID_1_);}
	.st1{fill:url(#SVGID_00000151505450772857041780000012565983886026891189_);}
</style>
<g>
	
		<linearGradient id="SVGID_1_" gradientUnits="userSpaceOnUse" x1="1.0684" y1="100.9317" x2="1.3001" y2="100.7017" gradientTransform="matrix(189.3834 0 0 -189.8058 -188.2389 19171.4551)">
		<stop  offset="0" style="stop-color:#3978AE"/>
		<stop  offset="1" style="stop-color:#36668E"/>
	</linearGradient>
	<path class="st0" d="M49.8,6c-22.6,0-21.2,9.7-21.2,9.7l0,10.1h21.6v3H20.1c0,0-14.5-1.6-14.5,21c0,22.6,12.6,21.8,12.6,21.8h7.5
		V61.2c0,0-0.4-12.5,12.4-12.5h21.4c0,0,12,0.2,12-11.5V17.7C71.6,17.7,73.5,6,49.8,6L49.8,6L49.8,6z M37.9,12.8
		c2.1,0,3.9,1.7,3.9,3.9s-1.7,3.9-3.9,3.9c-2.1,0-3.9-1.7-3.9-3.9S35.8,12.8,37.9,12.8L37.9,12.8L37.9,12.8z"/>
	
		<linearGradient id="SVGID_00000115485500444150849930000007936633285610758814_" gradientUnits="userSpaceOnUse" x1="0.8624" y1="101.1237" x2="1.1113" y2="100.8879" gradientTransform="matrix(189.3834 0 0 -189.8058 -122.2384 19235.7051)">
		<stop  offset="0" style="stop-color:#F6D957"/>
		<stop  offset="1" style="stop-color:#F5BE39"/>
	</linearGradient>
	<path style="fill:url(#SVGID_00000115485500444150849930000007936633285610758814_);" d="M50.5,93.9c22.6,0,21.2-9.7,21.2-9.7
		l0-10.1H50.1v-3h30.2c0,0,14.5,1.6,14.5-21c0-22.6-12.6-21.8-12.6-21.8h-7.5v10.5c0,0,0.4,12.5-12.4,12.5H40.7c0,0-12-0.2-12,11.5
		v19.4C28.7,82.2,26.8,93.9,50.5,93.9L50.5,93.9L50.5,93.9z M62.4,87.1c-2.1,0-3.9-1.7-3.9-3.9c0-2.1,1.7-3.9,3.9-3.9
		c2.1,0,3.9,1.7,3.9,3.9C66.3,85.4,64.5,87.1,62.4,87.1L62.4,87.1L62.4,87.1z"/>
</g>
</svg>
