<?xml version="1.0" encoding="utf-8"?>
<!-- Generator: Adobe Illustrator 26.3.1, SVG Export Plug-In . SVG Version: 6.00 Build 0)  -->
<svg version="1.1" id="レイヤー_1" xmlns="http://www.w3.org/2000/svg" xmlns:xlink="http://www.w3.org/1999/xlink" x="0px"
	 y="0px" viewBox="0 0 100 100" style="enable-background:new 0 0 100 100;" xml:space="preserve">
<style type="text/css">
	.st0{fill:#040000;}
	.st1{fill:#C41820;}
</style>
<g>
	<path class="st0" d="M32.4,58c4.5,0,8.2-3.7,8.2-8.2s-3.7-8.2-8.2-8.2s-8.2,3.7-8.2,8.2S27.9,58,32.4,58z M13.2,74.3
		c4.5,0,8.2-3.7,8.2-8.2S17.7,58,13.2,58S5,61.7,5,66.2S8.7,74.3,13.2,74.3z M86.8,74.3c4.5,0,8.2-3.7,8.2-8.2S91.3,58,86.8,58
		c-4.5,0-8.2,3.7-8.2,8.2S82.3,74.3,86.8,74.3z"/>
	<path class="st1" d="M60,50.2c-0.3-2.7-0.4-5-2.5-6.6c-2.6-2-5.6-0.7-9.3-2c-3.6-0.9-6.3-4.1-6.3-7.9c0-4.5,3.7-8.2,8.3-8.2
		c3.4,0,6.3,2,7.6,4.9c2,3.7,0.7,7.5,3.2,9.5c2.9,2.3,6.9,0.6,11.3,2.8c1.4,0.7,2.6,1.7,3.5,3c0.8,1.3,1.3,2.8,1.3,4.4
		c0,3.8-2.7,7.1-6.3,7.9c-3.7,1.3-6.7,0-9.3,2c-3,2.3-1.4,6.1-3.8,10.1c-1.4,2.6-4.2,4.4-7.4,4.4c-4.6,0-8.3-3.7-8.3-8.2
		c0-3.3,2-6.1,4.8-7.4c4.4-2.1,8.4-0.5,11.3-2.8C59.6,54.9,60,52.8,60,50.2z"/>
</g>
</svg>
