<?xml version="1.0" encoding="utf-8"?>
<!-- Generator: Adobe Illustrator 26.3.1, SVG Export Plug-In . SVG Version: 6.00 Build 0)  -->
<svg version="1.1" id="レイヤー_1" xmlns="http://www.w3.org/2000/svg" xmlns:xlink="http://www.w3.org/1999/xlink" x="0px"
	 y="0px" viewBox="0 0 100 100" style="enable-background:new 0 0 100 100;" xml:space="preserve">
<style type="text/css">
	.st0{fill:#55B7D1;}
	.st1{fill:#FFFFFF;}
</style>
<path class="st0" d="M79.1,35.9c-0.9-0.3-1.9-0.6-2.9-0.9c0.2-0.7,0.3-1.3,0.4-2c2.2-10.6,0.8-19.2-4.1-22
	c-4.7-2.7-12.4,0.1-20.1,6.9c-0.7,0.6-1.5,1.3-2.2,2.1c-0.5-0.5-1-0.9-1.5-1.4c-8.1-7.2-16.3-10.3-21.2-7.4
	c-4.7,2.7-6.1,10.8-4.1,20.9c0.2,1,0.4,2,0.7,3c-1.2,0.3-2.3,0.7-3.3,1c-9.5,3.3-15.6,8.5-15.6,13.9c0,5.6,6.5,11.2,16.5,14.6
	c0.8,0.3,1.6,0.5,2.4,0.8c-0.3,1.1-0.5,2.2-0.7,3.2c-1.9,9.9-0.4,17.8,4.3,20.5c4.8,2.8,12.9-0.1,20.8-7c0.6-0.5,1.3-1.1,1.9-1.7
	c0.8,0.8,1.6,1.5,2.4,2.2c7.6,6.6,15.2,9.2,19.9,6.5c4.8-2.8,6.4-11.3,4.4-21.5c-0.2-0.8-0.3-1.6-0.5-2.4c0.6-0.2,1.1-0.3,1.7-0.5
	c10.3-3.4,17-8.9,17-14.6C95.1,44.5,88.8,39.3,79.1,35.9L79.1,35.9L79.1,35.9z"/>
<path class="st1" d="M76.8,60.9c-0.5,0.2-1,0.3-1.5,0.5c-1.1-3.6-2.7-7.4-4.6-11.4c1.8-3.9,3.3-7.7,4.4-11.2
	c0.9,0.3,1.8,0.5,2.7,0.8c8.3,2.9,13.4,7.1,13.4,10.4C91.2,53.4,85.8,57.9,76.8,60.9L76.8,60.9L76.8,60.9z M73.1,68.2
	c0.9,4.5,1,8.7,0.4,11.9C73,83,72,84.9,70.6,85.7c-2.8,1.6-8.9-0.5-15.4-6.1c-0.7-0.6-1.5-1.3-2.3-2.1c2.5-2.8,5.1-6,7.5-9.6
	c4.4-0.4,8.5-1,12.2-1.9C72.8,66.8,73,67.5,73.1,68.2L73.1,68.2L73.1,68.2z M35.8,85.4c-2.8,1-5,1-6.3,0.2c-2.8-1.6-4-8-2.4-16.4
	c0.2-1,0.4-2,0.7-3c3.7,0.8,7.8,1.4,12.1,1.8c2.5,3.5,5.1,6.7,7.7,9.5c-0.6,0.6-1.1,1.1-1.7,1.6C42.3,82.1,38.9,84.3,35.8,85.4
	L35.8,85.4L35.8,85.4z M22.8,60.9c-4.4-1.5-8-3.4-10.5-5.6c-2.2-1.9-3.4-3.8-3.4-5.3c0-3.3,4.9-7.5,13-10.3c1-0.3,2-0.7,3.1-1
	c1.1,3.7,2.6,7.5,4.4,11.4c-1.8,3.9-3.3,7.8-4.4,11.5C24.2,61.3,23.5,61.1,22.8,60.9L22.8,60.9L22.8,60.9z M27.1,31.2
	c-1.7-8.6-0.6-15.2,2.3-16.8c3-1.7,9.7,0.7,16.7,7c0.4,0.4,0.9,0.8,1.4,1.2c-2.6,2.8-5.2,6-7.7,9.5c-4.2,0.4-8.3,1-12,1.9
	C27.5,33.1,27.3,32.1,27.1,31.2L27.1,31.2L27.1,31.2z M66,40.8c-0.9-1.5-1.8-3-2.7-4.5c2.9,0.4,5.6,0.8,8.2,1.4
	c-0.8,2.5-1.7,5.1-2.9,7.7C67.7,43.9,66.9,42.4,66,40.8L66,40.8L66,40.8z M50.1,25.4c1.8,1.9,3.5,4.1,5.3,6.4
	c-1.8-0.1-3.5-0.1-5.3-0.1c-1.8,0-3.5,0-5.3,0.1C46.5,29.5,48.3,27.3,50.1,25.4L50.1,25.4L50.1,25.4z M34.2,40.8
	c-0.9,1.5-1.7,3.1-2.5,4.7c-1.1-2.7-2.1-5.3-2.9-7.8c2.6-0.6,5.3-1,8.2-1.4C36,37.8,35.1,39.3,34.2,40.8L34.2,40.8L34.2,40.8z
	 M37,63.8c-2.9-0.3-5.7-0.8-8.3-1.3c0.8-2.6,1.8-5.2,2.9-7.9c0.8,1.6,1.7,3.1,2.6,4.7h0C35.1,60.8,36.1,62.3,37,63.8L37,63.8
	L37,63.8z M50.2,74.7c-1.8-2-3.6-4.1-5.4-6.5c1.7,0.1,3.5,0.1,5.3,0.1c1.8,0,3.6,0,5.4-0.1C53.8,70.6,52,72.8,50.2,74.7L50.2,74.7
	L50.2,74.7z M68.6,54.4c1.2,2.7,2.2,5.4,3,7.9c-2.6,0.6-5.4,1.1-8.4,1.4c0.9-1.5,1.9-3,2.8-4.6C66.9,57.6,67.8,56,68.6,54.4
	L68.6,54.4L68.6,54.4z M62.6,57.2c-1.4,2.4-2.9,4.8-4.3,7c-2.7,0.2-5.4,0.3-8.2,0.3c-2.8,0-5.5-0.1-8.1-0.3c-1.5-2.2-3-4.6-4.4-7h0
	c-1.4-2.4-2.7-4.8-3.8-7.3c1.2-2.4,2.4-4.9,3.8-7.3l0,0c1.4-2.4,2.9-4.7,4.4-6.9c2.7-0.2,5.4-0.3,8.2-0.3h0c2.8,0,5.5,0.1,8.2,0.3
	c1.5,2.2,2.9,4.5,4.3,6.9c1.4,2.4,2.7,4.9,3.9,7.2C65.3,52.4,64,54.8,62.6,57.2L62.6,57.2L62.6,57.2z M70.6,14.3
	c3,1.7,4.2,8.7,2.3,17.9c-0.1,0.6-0.3,1.2-0.4,1.8c-3.7-0.9-7.8-1.5-12-1.9c-2.5-3.5-5-6.7-7.6-9.5c0.7-0.7,1.4-1.3,2.1-1.9
	C61.5,15,67.7,12.7,70.6,14.3L70.6,14.3L70.6,14.3z"/>
<path class="st0" d="M50.1,41.9c4.4,0,8,3.6,8,8c0,4.4-3.6,8-8,8s-8-3.6-8-8C42,45.5,45.6,41.9,50.1,41.9"/>
</svg>
