<?xml version="1.0" encoding="utf-8"?>
<!-- Generator: Adobe Illustrator 26.3.1, SVG Export Plug-In . SVG Version: 6.00 Build 0)  -->
<svg version="1.1" id="レイヤー_1" xmlns="http://www.w3.org/2000/svg" xmlns:xlink="http://www.w3.org/1999/xlink" x="0px"
	 y="0px" viewBox="0 0 100 100" style="enable-background:new 0 0 100 100;" xml:space="preserve">
<style type="text/css">
	.st0{fill:#040000;}
</style>
<g>
	<path class="st0" d="M94.4,49.4l-3.8-2.3c0-0.4-0.1-0.7-0.1-1.1l3.3-3c0.3-0.3,0.5-0.8,0.4-1.2c-0.1-0.4-0.4-0.8-0.8-1l-4.2-1.6
		c-0.1-0.4-0.2-0.7-0.3-1.1l2.6-3.6c0.3-0.4,0.3-0.8,0.1-1.3c-0.2-0.4-0.5-0.7-1-0.8l-4.4-0.7c-0.2-0.3-0.3-0.7-0.5-1l1.8-4
		c0.2-0.4,0.1-0.9-0.1-1.3c-0.3-0.4-0.7-0.6-1.1-0.6l-4.4,0.2c-0.2-0.3-0.5-0.6-0.7-0.9l1-4.3c0.1-0.4,0-0.9-0.3-1.2
		c-0.3-0.3-0.8-0.5-1.2-0.3l-4.3,1c-0.3-0.2-0.6-0.5-0.9-0.7l0.2-4.4c0-0.5-0.2-0.9-0.6-1.1c-0.4-0.3-0.9-0.3-1.3-0.1l-4,1.8
		c-0.3-0.2-0.7-0.4-1-0.5L68,9.9c-0.1-0.4-0.4-0.8-0.8-1c-0.4-0.2-0.9-0.1-1.3,0.1l-3.6,2.6c-0.4-0.1-0.7-0.2-1.1-0.3l-1.6-4.2
		c-0.2-0.4-0.5-0.7-1-0.8c-0.4-0.1-0.9,0.1-1.2,0.4l-3,3.3c-0.4,0-0.7-0.1-1.1-0.1l-2.3-3.8c-0.2-0.4-0.7-0.6-1.1-0.6
		s-0.9,0.2-1.1,0.6l-2.3,3.8c-0.4,0-0.7,0.1-1.1,0.1l-3-3.3c-0.3-0.3-0.8-0.5-1.2-0.4c-0.4,0.1-0.8,0.4-1,0.8l-1.6,4.2
		c-0.4,0.1-0.7,0.2-1.1,0.3L34,9c-0.4-0.3-0.8-0.3-1.3-0.1c-0.4,0.2-0.7,0.5-0.8,1l-0.7,4.4c-0.3,0.2-0.7,0.3-1,0.5l-4-1.8
		c-0.4-0.2-0.9-0.1-1.3,0.1c-0.4,0.2-0.6,0.7-0.6,1.1l0.2,4.4c-0.3,0.2-0.6,0.5-0.9,0.7l-4.3-1c-0.4-0.1-0.9,0-1.2,0.3
		c-0.3,0.3-0.5,0.8-0.3,1.2l1,4.3c-0.2,0.3-0.5,0.6-0.7,0.9l-4.4-0.2c-0.4,0-0.9,0.2-1.1,0.6c-0.3,0.4-0.3,0.9-0.1,1.3l1.8,4
		c-0.2,0.3-0.4,0.7-0.5,1l-4.4,0.7c-0.4,0.1-0.8,0.4-1,0.8c-0.2,0.4-0.1,0.9,0.1,1.3l2.6,3.6c-0.1,0.4-0.2,0.7-0.3,1.1l-4.2,1.6
		c-0.4,0.2-0.7,0.5-0.8,1c-0.1,0.4,0.1,0.9,0.4,1.2l3.3,3c0,0.4-0.1,0.7-0.1,1.1l-3.8,2.3c-0.4,0.2-0.6,0.7-0.6,1.1
		c0,0.5,0.2,0.9,0.6,1.1L9.3,54c0,0.4,0.1,0.7,0.1,1.1l-3.3,3c-0.3,0.3-0.5,0.8-0.4,1.2c0.1,0.4,0.4,0.8,0.8,1l4.2,1.6
		c0.1,0.4,0.2,0.7,0.3,1.1l-2.6,3.6c-0.3,0.4-0.3,0.8-0.1,1.3c0.2,0.4,0.5,0.7,1,0.8l4.4,0.7c0.2,0.3,0.3,0.7,0.5,1l-1.8,4
		c-0.2,0.4-0.1,0.9,0.1,1.3c0.3,0.4,0.7,0.6,1.1,0.6l4.4-0.2c0.2,0.3,0.5,0.6,0.7,0.9l-1,4.3c-0.1,0.4,0,0.9,0.3,1.2
		c0.3,0.3,0.8,0.4,1.2,0.3l4.3-1c0.3,0.2,0.6,0.5,0.9,0.7l-0.2,4.4c0,0.5,0.2,0.9,0.6,1.1c0.4,0.3,0.9,0.3,1.3,0.1l4-1.8
		c0.3,0.2,0.7,0.4,1,0.5l0.7,4.4c0.1,0.4,0.4,0.8,0.8,1c0.4,0.2,0.9,0.1,1.3-0.1l3.6-2.6c0.4,0.1,0.7,0.2,1.1,0.3l1.6,4.2
		c0.2,0.4,0.5,0.7,1,0.8c0.4,0.1,0.9-0.1,1.2-0.4l3-3.3c0.4,0,0.7,0.1,1.1,0.1l2.3,3.8c0.2,0.4,0.7,0.6,1.1,0.6s0.9-0.2,1.1-0.6
		l2.3-3.8c0.4,0,0.7-0.1,1.1-0.1l3,3.3c0.3,0.3,0.8,0.5,1.2,0.4c0.4-0.1,0.8-0.4,1-0.8l1.6-4.2c0.4-0.1,0.7-0.2,1.1-0.3l3.6,2.6
		c0.4,0.3,0.8,0.3,1.3,0.1c0.4-0.2,0.7-0.5,0.8-1l0.7-4.4c0.3-0.2,0.7-0.3,1-0.5l4,1.8c0.4,0.2,0.9,0.1,1.3-0.1
		c0.4-0.3,0.6-0.7,0.6-1.1l-0.2-4.4c0.3-0.2,0.6-0.5,0.9-0.7l4.3,1c0.4,0.1,0.9,0,1.2-0.3c0.3-0.3,0.5-0.8,0.3-1.2l-1-4.3
		c0.2-0.3,0.5-0.6,0.7-0.9l4.4,0.2c0.4,0,0.9-0.2,1.1-0.6c0.3-0.4,0.3-0.9,0.1-1.3l-1.8-4c0.2-0.3,0.4-0.7,0.5-1l4.4-0.7
		c0.4-0.1,0.8-0.4,1-0.8c0.2-0.4,0.1-0.9-0.1-1.3l-2.6-3.6c0.1-0.4,0.2-0.7,0.3-1.1l4.2-1.6c0.4-0.2,0.7-0.5,0.8-1
		c0.1-0.4-0.1-0.9-0.4-1.2l-3.3-3c0-0.4,0.1-0.7,0.1-1.1l3.8-2.3c0.4-0.2,0.6-0.7,0.6-1.1C95,50.1,94.8,49.7,94.4,49.4L94.4,49.4z
		 M69.1,80.8c-1.4-0.3-2.4-1.7-2.1-3.2c0.3-1.4,1.7-2.4,3.2-2.1c1.4,0.3,2.4,1.7,2.1,3.2S70.5,81.1,69.1,80.8L69.1,80.8z M67.8,72.1
		c-1.3-0.3-2.6,0.6-2.9,1.9l-1.3,6.3c-4.1,1.9-8.7,2.9-13.6,2.9c-5,0-9.7-1.1-13.9-3.1l-1.3-6.3c-0.3-1.3-1.6-2.2-2.9-1.9l-5.5,1.2
		c-1-1.1-2-2.2-2.9-3.4h26.9c0.3,0,0.5-0.1,0.5-0.3v-9.5c0-0.3-0.2-0.3-0.5-0.3h-7.9v-6H51c0.8,0,4.2,0.2,5.2,4.5
		c0.3,1.3,1.1,5.6,1.6,7c0.5,1.6,2.6,4.7,4.8,4.7H76c0.2,0,0.3,0,0.5,0c-0.9,1.3-2,2.5-3.1,3.6L67.8,72.1L67.8,72.1z M30.5,80.7
		c-1.4,0.3-2.9-0.6-3.2-2.1c-0.3-1.4,0.6-2.9,2.1-3.2c1.4-0.3,2.9,0.6,3.2,2.1C32.9,78.9,32,80.4,30.5,80.7L30.5,80.7z M20.3,39.3
		c0.6,1.4,0,2.9-1.4,3.5c-1.4,0.6-2.9,0-3.5-1.4c-0.6-1.4,0-2.9,1.4-3.5C18.1,37.3,19.7,37.9,20.3,39.3L20.3,39.3z M17.2,46.7
		l5.8-2.6c1.2-0.5,1.8-2,1.2-3.2L23,38.2h4.7v21h-9.4c-0.8-2.9-1.3-5.9-1.3-9C17,49,17.1,47.9,17.2,46.7L17.2,46.7z M42.5,44.7v-6.2
		h11.1c0.6,0,4.1,0.7,4.1,3.3c0,2.2-2.7,2.9-4.9,2.9L42.5,44.7L42.5,44.7z M82.9,50.2c0,0.8,0,1.6-0.1,2.4h-3.4
		c-0.3,0-0.5,0.2-0.5,0.6v1.6c0,3.7-2.1,4.4-3.9,4.7c-1.7,0.2-3.6-0.7-3.9-1.8c-1-5.7-2.7-6.9-5.4-9c3.3-2.1,6.8-5.2,6.8-9.4
		c0-4.5-3.1-7.3-5.2-8.7c-2.9-1.9-6.2-2.3-7.1-2.3h-35c4.7-5.3,11.2-9,18.4-10.4l4.1,4.3c0.9,1,2.5,1,3.4,0.1l4.6-4.4
		c9.7,1.8,17.8,7.8,22.6,16.1L75.4,41c-0.5,1.2,0,2.7,1.2,3.2l6.1,2.7C82.8,48,82.9,49.1,82.9,50.2L82.9,50.2z M48,14.2
		c1.1-1,2.8-1,3.8,0.1c1,1.1,1,2.8-0.1,3.8c-1.1,1-2.8,1-3.8-0.1C46.8,16.9,46.9,15.2,48,14.2L48,14.2z M79.3,39.4
		c0.6-1.4,2.2-2,3.5-1.4c1.4,0.6,2,2.2,1.4,3.5c-0.6,1.4-2.2,2-3.5,1.4C79.3,42.3,78.7,40.7,79.3,39.4L79.3,39.4z"/>
</g>
</svg>
