<?xml version="1.0" encoding="utf-8"?>
<!-- Generator: Adobe Illustrator 26.3.1, SVG Export Plug-In . SVG Version: 6.00 Build 0)  -->
<svg version="1.1" id="レイヤー_1" xmlns="http://www.w3.org/2000/svg" xmlns:xlink="http://www.w3.org/1999/xlink" x="0px"
	 y="0px" viewBox="0 0 100 100" style="enable-background:new 0 0 100 100;" xml:space="preserve">
<style type="text/css">
	.st0{fill:#F4AE19;}
	.st1{fill:#E16A0E;}
	.st2{fill:#F3A818;}
	.st3{fill:#F3CB3A;}
	.st4{fill:#F9EAB6;}
</style>
<g>
	<polygon class="st0" points="50,12.3 24.6,15 5,41.3 50,93.8 95,41.3 75.4,15 	"/>
	<polygon class="st1" points="5,41.3 50,93.8 23.2,41.3 	"/>
	<polygon class="st1" points="76.8,41.3 50,93.8 95,41.3 	"/>
	<polygon class="st2" points="23.2,41.3 50,93.8 76.8,41.3 	"/>
	<polygon class="st3" points="24.6,15 23.2,41.3 50,12.3 	"/>
	<polygon class="st3" points="76.8,41.3 75.4,15 50,12.3 	"/>
	<polygon class="st2" points="76.8,41.3 95,41.3 75.4,15 	"/>
	<polygon class="st2" points="5,41.3 23.2,41.3 24.6,15 	"/>
	<polygon class="st4" points="50,12.3 23.2,41.3 76.8,41.3 	"/>
</g>
</svg>
