<?xml version="1.0" encoding="utf-8"?>
<!-- Generator: Adobe Illustrator 26.3.1, SVG Export Plug-In . SVG Version: 6.00 Build 0)  -->
<svg version="1.1" id="レイヤー_1" xmlns="http://www.w3.org/2000/svg" xmlns:xlink="http://www.w3.org/1999/xlink" x="0px"
	 y="0px" viewBox="0 0 100 100" style="enable-background:new 0 0 100 100;" xml:space="preserve">
<style type="text/css">
	.st0{display:none;}
	.st1{display:inline;fill:#EDD72F;}
	.st2{display:inline;fill:#040000;}
	.st3{fill:#1073BB;}
	.st4{fill:#FFFFFF;}
</style>
<g class="st0">
	<path class="st1" d="M5.3,5h89.5v90H5.3V5z"/>
	<path class="st2" d="M28.8,80.2l6.8-4.2c1.3,2.4,2.5,4.3,5.4,4.3c2.8,0,4.5-1.1,4.5-5.3V46.3H54v28.9c0,8.8-5.1,12.7-12.6,12.7
		C34.7,87.9,30.8,84.4,28.8,80.2"/>
	<path class="st2" d="M58.5,79.3l6.8-4c1.8,3,4.1,5.1,8.3,5.1c3.5,0,5.7-1.8,5.7-4.2c0-2.9-2.3-3.9-6.1-5.6l-2.1-0.9
		C65.1,67.2,61,63.9,61,57c0-6.3,4.8-11.2,12.3-11.2c5.3,0,9.2,1.9,12,6.8l-6.5,4.2c-1.4-2.6-3-3.6-5.4-3.6c-2.5,0-4,1.6-4,3.6
		c0,2.5,1.6,3.6,5.2,5.1l2.1,0.9c7.1,3.1,11.2,6.2,11.2,13.3c0,7.6-5.9,11.8-13.9,11.8C66,87.9,61,84.2,58.5,79.3"/>
</g>
<g>
	<polygon class="st3" points="5.5,50 5.5,94.5 50,94.5 94.5,94.5 94.5,50 94.5,5.5 50,5.5 5.5,5.5 	"/>
	<path class="st4" d="M25.2,50.3l0,3.6H31h5.8v16.4v16.4h4.1h4.1V70.4V53.9h5.8h5.8v-3.6c0-2,0-3.6-0.1-3.7c0-0.1-7.1-0.1-15.6-0.1
		l-15.5,0L25.2,50.3z"/>
	<path class="st4" d="M77.3,46.6c2.3,0.6,4,1.6,5.6,3.2c0.8,0.9,2,2.5,2.1,2.9c0,0.1-3.8,2.7-6.2,4.2c-0.1,0.1-0.4-0.3-0.8-0.9
		c-1.1-1.7-2.3-2.4-4.2-2.5c-2.7-0.2-4.4,1.2-4.4,3.6c0,0.7,0.1,1.1,0.4,1.7c0.6,1.2,1.7,2,5.2,3.5c6.4,2.7,9.1,4.5,10.8,7.1
		c1.9,2.9,2.3,7.4,1,10.8c-1.4,3.7-4.9,6.2-9.8,7c-1.5,0.3-5.1,0.2-6.8-0.1c-3.6-0.6-7-2.4-9.1-4.7c-0.8-0.9-2.4-3.3-2.3-3.4
		c0-0.1,0.4-0.3,0.8-0.5c0.4-0.2,1.9-1.1,3.3-1.9l2.6-1.5l0.5,0.8c0.7,1.1,2.4,2.7,3.4,3.2c2.8,1.5,6.7,1.3,8.7-0.4
		c0.8-0.7,1.2-1.5,1.2-2.7c0-1-0.1-1.5-0.7-2.3c-0.7-1-2.1-1.8-6.1-3.6c-4.6-2-6.6-3.2-8.4-5.2c-1-1.1-2-2.9-2.4-4.4
		c-0.3-1.3-0.4-4.4-0.2-5.7c0.9-4.4,4.3-7.5,9.1-8.4C72.1,46.1,75.8,46.2,77.3,46.6z"/>
</g>
</svg>
