<?xml version="1.0" standalone="no"?>
<!DOCTYPE svg PUBLIC "-//W3C//DTD SVG 20010904//EN"
 "http://www.w3.org/TR/2001/REC-SVG-20010904/DTD/svg10.dtd">
<svg version="1.0" xmlns="http://www.w3.org/2000/svg"
 width="1024.000000pt" height="1024.000000pt" viewBox="0 0 1024.000000 1024.000000"
 preserveAspectRatio="xMidYMid meet">

<g transform="translate(0.000000,1024.000000) scale(0.100000,-0.100000)"
fill="#000000" stroke="none">
<path d="M5092 8150 c-47 -101 -99 -262 -116 -360 -8 -47 -18 -181 -22 -297
l-7 -212 183 2 183 2 -6 205 c-6 208 -29 366 -72 490 -26 74 -98 240 -104 240
-4 0 -21 -32 -39 -70z"/>
<path d="M4150 7970 c-18 -107 -7 -396 19 -525 20 -98 83 -308 99 -332 6 -10
29 -5 95 22 48 19 126 46 174 60 48 14 88 27 90 28 7 7 -84 252 -124 335 -66
135 -167 281 -311 451 l-30 35 -12 -74z"/>
<path d="M6020 7946 c-133 -155 -226 -300 -292 -456 -33 -77 -88 -239 -88
-259 0 -4 51 -22 113 -41 61 -18 140 -46 174 -61 l62 -27 19 51 c60 159 98
335 111 504 9 116 -3 351 -18 366 -4 4 -41 -30 -81 -77z"/>
<path d="M3270 7542 c0 -41 50 -214 89 -308 23 -55 65 -139 93 -189 53 -94
194 -312 207 -320 5 -2 32 16 61 41 29 24 99 77 156 116 l103 71 -62 81 c-145
191 -315 342 -510 452 -147 84 -137 80 -137 56z"/>
<path d="M6951 7539 c-52 -21 -221 -126 -297 -185 -44 -34 -119 -103 -165
-152 -80 -85 -206 -248 -198 -257 2 -2 38 -26 79 -53 41 -27 110 -77 153 -111
43 -35 79 -62 81 -60 2 2 37 54 78 114 153 225 229 380 278 567 40 153 40 157
-9 137z"/>
<path d="M4940 7029 c-243 -25 -535 -115 -750 -231 -379 -205 -708 -567 -879
-968 -153 -360 -196 -815 -116 -1216 74 -367 278 -744 551 -1018 304 -305 732
-515 1158 -567 153 -18 442 -6 591 25 484 102 907 361 1184 724 216 284 351
605 413 977 20 123 16 495 -6 620 -122 676 -566 1237 -1190 1505 -299 128
-638 181 -956 149z m-982 -712 c27 -12 26 -19 -8 -111 -61 -167 -87 -459 -60
-686 76 -648 526 -1206 1145 -1419 204 -71 305 -86 570 -86 201 1 243 4 334
23 218 48 385 114 536 213 76 49 264 226 296 278 l15 24 55 -38 c29 -21 58
-42 62 -45 20 -17 -185 -253 -308 -355 -180 -149 -385 -254 -649 -331 -159
-46 -271 -64 -451 -71 -493 -19 -951 153 -1301 490 -286 275 -453 573 -540
962 -21 97 -30 416 -15 539 28 221 95 434 186 589 l46 78 32 -21 c18 -12 42
-26 55 -33z m1162 -42 c247 -54 479 -171 665 -337 231 -206 370 -433 445 -728
59 -232 42 -554 -41 -770 l-28 -75 -116 3 c-63 2 -115 5 -115 7 0 3 11 43 25
89 50 174 57 409 16 593 -86 395 -377 735 -755 882 -158 62 -242 76 -446 75
-148 0 -190 -4 -270 -23 -101 -25 -205 -63 -255 -93 -16 -10 -33 -18 -37 -18
-3 0 -30 37 -59 82 l-52 82 44 38 c96 84 314 173 495 203 114 18 378 13 484
-10z"/>
<path d="M2580 6883 c0 -4 23 -48 51 -98 108 -195 246 -351 459 -516 l124 -96
74 111 c41 61 89 129 107 151 l32 39 -51 44 c-183 156 -424 280 -664 343 -121
31 -132 33 -132 22z"/>
<path d="M7544 6855 c-253 -63 -468 -176 -673 -352 l-34 -29 54 -70 c30 -38
78 -107 108 -152 30 -46 57 -79 60 -74 3 4 62 53 131 107 171 136 274 241 351
360 72 110 143 234 138 240 -2 2 -63 -12 -135 -30z"/>
<path d="M2160 6049 c0 -6 60 -70 133 -142 141 -141 222 -198 376 -262 115
-48 290 -107 300 -101 4 3 11 24 15 47 4 23 23 91 43 153 21 61 38 115 38 119
0 14 -215 103 -329 136 -60 17 -161 38 -223 46 -135 18 -353 20 -353 4z"/>
<path d="M7775 6049 c-157 -20 -364 -80 -516 -150 l-67 -31 34 -93 c18 -51 40
-121 49 -156 9 -35 19 -67 21 -70 5 -9 259 82 349 124 155 74 282 171 386 294
38 45 69 84 69 87 0 9 -246 5 -325 -5z"/>
<path d="M2435 5224 c-113 -17 -280 -66 -364 -106 -75 -36 -76 -32 48 -97 185
-95 339 -131 601 -138 l185 -5 1 181 0 181 -190 -1 c-108 -1 -230 -7 -281 -15z"/>
<path d="M7353 5204 c4 -22 7 -104 7 -184 l0 -145 177 7 c251 9 406 44 583
134 136 68 135 64 43 106 -183 84 -306 108 -592 115 l-224 6 6 -39z"/>
<path d="M2920 4547 c-222 -66 -378 -130 -478 -199 -82 -55 -189 -146 -236
-201 l-46 -52 27 -6 c47 -11 317 -10 399 2 143 20 431 106 469 140 6 6 2 27
-9 57 -10 26 -31 96 -46 157 -15 60 -31 110 -36 111 -5 1 -25 -3 -44 -9z"/>
<path d="M7275 4488 c-10 -40 -31 -115 -47 -166 -16 -52 -28 -95 -26 -97 2 -1
40 -16 85 -33 122 -47 247 -81 353 -97 98 -15 341 -19 420 -7 l45 7 -65 69
c-148 155 -329 262 -589 346 -85 27 -156 50 -157 50 -1 0 -10 -33 -19 -72z"/>
<path d="M3116 3856 c-228 -164 -393 -346 -505 -556 -28 -53 -30 -61 -15 -57
11 3 57 15 104 26 223 51 420 137 616 267 l114 75 -48 59 c-26 32 -74 102
-106 154 -33 53 -62 96 -65 96 -3 0 -46 -29 -95 -64z"/>
<path d="M7011 3862 c-19 -31 -66 -101 -104 -154 -37 -54 -66 -102 -63 -107 3
-5 57 -43 118 -84 136 -92 311 -177 433 -211 105 -30 285 -66 285 -57 0 4 -21
42 -47 86 -109 187 -255 346 -456 497 -65 48 -121 88 -125 88 -4 0 -22 -26
-41 -58z"/>
<path d="M6540 3303 c-36 -30 -107 -84 -157 -120 -51 -36 -93 -69 -93 -73 0
-3 17 -26 37 -51 100 -121 246 -254 370 -337 66 -44 270 -152 289 -152 26 0
-38 221 -105 360 -43 92 -122 217 -217 346 l-59 81 -65 -54z"/>
<path d="M3579 3247 c-161 -215 -263 -420 -303 -614 -14 -63 -14 -64 8 -57 41
12 232 116 315 172 87 58 244 201 330 301 l50 58 -77 53 c-42 29 -114 84 -159
122 -45 37 -83 68 -85 68 -2 0 -37 -46 -79 -103z"/>
<path d="M4266 2943 c-42 -107 -87 -258 -102 -339 -20 -107 -26 -434 -11 -508
l8 -39 35 34 c41 40 184 227 239 313 52 82 130 247 164 349 l29 84 -92 27
c-75 23 -137 46 -252 93 -6 2 -15 -4 -18 -14z"/>
<path d="M5947 2944 c-37 -20 -264 -94 -289 -94 -25 0 -23 -15 17 -127 49
-135 116 -266 200 -390 83 -122 217 -284 227 -275 4 4 11 66 17 138 13 160 1
315 -35 464 -31 128 -86 292 -99 296 -6 2 -23 -4 -38 -12z"/>
<path d="M4955 2608 c3 -95 13 -220 22 -278 17 -118 74 -303 123 -400 l32 -64
28 54 c90 178 138 397 147 668 l6 192 -182 0 -182 0 6 -172z"/>
</g>
</svg>
