<?xml version="1.0" encoding="UTF-8"?>
<svg id="_レイヤー_1" data-name="レイヤー_1" xmlns="http://www.w3.org/2000/svg" version="1.1" viewBox="0 0 300 300">
  <!-- Generator: Adobe Illustrator 30.0.0, SVG Export Plug-In . SVG Version: 2.1.1 Build 123)  -->
  <defs>
    <style>
      .st0, .st1 {
        fill: #ffffff;
      }

      .st1 {
        stroke: #ffffff;
        stroke-miterlimit: 10;
        stroke-width: 4px;
      }
    </style>
  </defs>
  <path class="st0" d="M197.3,117.6l-1.1-2.3c-10.8-22.8-30.3-36.6-52.2-36.9-.2,0-.5,0-.7,0-22.4,0-42.8,13.9-54.7,37.3l-7-3.6c13.4-26.4,36.8-41.9,62.5-41.6,24.1.3,45.7,14.9,58,39.1l23.9-.6.2,7.9-28.9.7Z"/>
  <path class="st0" d="M108.9,279.9c-7.8,0-13.6-1.1-17.2-4.6-5-4.8-4.8-12.2-4.4-23.4,0-1.4,0-2.8.1-4.3.3-6.5,0-29.9-.2-48.8-.1-11.2-.3-20.9-.3-26.1s0-3.5,0-5q0-8.5-3.7-11.3c-5.3-4-7.8-4-10.8-3.9-3,0-6.8,0-11.9-3.4-5.7-3.9-5.6-9.6-5.5-17.6,0-1.3,0-2.8,0-4.3,0-3.5-.1-18.4-.2-34.6-.1-19-.3-40.6-.3-46.9-.6-6.6,1.8-12.9,6.6-17.2,5.2-4.7,12.5-6.5,20.1-5.1,9.6,0,136,.5,149.6,1.3,4.5.2,8.2,2,10.8,5.1,3.8,4.5,4.3,10.9,4.3,14.6h0s-.1,1.7-.1,1.7c0,.5,0,.9-.1,1.1-.5,5.3-.1,35.4.3,70.3.7,60.3,1.7,135.3-.6,153.4l-.2.8c-2.7,8-13.7,8-25.5,7.9h-101.7c-3.3.2-6.4.4-9.1.4ZM73.1,144.7c3.5,0,8,.3,14.9,5.5,7,5.2,6.9,7.9,6.8,17.7,0,1.4,0,3,0,4.9,0,5.1.1,14.8.3,26,.2,20,.5,42.6.2,49.2,0,1.4,0,2.9-.1,4.2-.3,9.1-.4,15.2,2,17.5,2.4,2.3,8.7,2.9,20.5,2.1h.3s101.9,0,101.9,0c5.8,0,16.4,0,17.9-2.3,2.1-18.6,1.2-95.5.5-151.8-.4-32.5-.7-59-.4-68.5h-.2c0,0,.4-2.9.4-2.9,0,0,.9-7.5-2.3-11.4-1.2-1.4-2.9-2.2-5.2-2.3-13.3-.7-143.9-1.2-149.5-1.2h-.8c-5.3-1.1-10.3,0-13.7,3.1-3,2.7-4.4,6.5-4,10.8v.4c0,6,.2,27.8.3,47,.1,16.3.2,31.2.2,34.7s0,3.1,0,4.4c-.1,7.6,0,9.7,2,11,3.1,2.1,4.9,2.1,7.5,2.1.2,0,.5,0,.7,0Z"/>
  <path class="st0" d="M226.1,92.5h-15.7s-1.2-1.8-1.2-1.8c-14.9-23.1-41.4-37.4-69-37.4s-.2,0-.3,0c-26.2.1-49.3,12.9-63.4,35.1l-6.7-4.2c15.6-24.5,41.1-38.7,70-38.8.1,0,.2,0,.4,0,29.6,0,57.9,15,74.4,39.2h11.4v7.9Z"/>
  <path class="st0" d="M144.3,152.9c-.2,0-.5,0-.7,0-23.1-.3-45.1-14.8-61.8-40.7l6.6-4.3c15.3,23.7,34.9,36.8,55.3,37.1.2,0,.4,0,.6,0,19.2,0,37.3-11.5,52.1-33.2l6.5,4.4c-16.2,23.7-37,36.7-58.7,36.7Z"/>
  <path class="st0" d="M122,124.8c-4.6,0-9.1-1.1-13-3.4-7.1-4.2-11-11.3-10.9-20.1-.1-8.8,3.8-15.9,10.9-20.1,7.8-4.5,18.2-4.5,26,0,7.1,4.2,11,11.3,10.9,20.1.1,8.7-3.7,15.8-10.9,20-3.9,2.3-8.4,3.4-13,3.4ZM122,85.7c-3.2,0-6.4.8-9,2.3-3.2,1.9-7.1,5.7-7,13.2h0c-.1,7.6,3.7,11.4,7,13.3,5.3,3.1,12.7,3.1,18.1,0,3.2-1.9,7.1-5.7,7-13.2.1-7.6-3.7-11.4-7-13.3-2.7-1.6-5.8-2.3-9-2.3Z"/>
  <rect class="st0" x="113.1" y="140.1" width="7.9" height="110.5" transform="translate(-2.3 1.4) rotate(-.7)"/>
  <path class="st1" d="M117.7,145.6"/>
  <path class="st0" d="M186.1,197.4c-8.2,0-17.7-.6-28.6-1.3-14.3-.4-25.8-9.4-33-26-5.2-12-6.3-23.7-6.4-24.2l7.8-.7c0,.4,4.4,42.2,31.9,43,32.3,2.2,47.8,2.1,54.9-4.7,4.6-4.4,6.5-12.5,6.4-28.2h-29.2c-4.1.5-7.2,2.7-8.5,6-1.2,2.9-.8,6.2,1.1,8.6,2.8,3.6,8.2,5,15.3,4l1.1,7.8c-13.5,1.9-19.9-3.6-22.6-7-3.6-4.6-4.4-10.9-2.1-16.4,2.5-5.9,8.1-10,15-10.9h.5s37.2,0,37.2,0v3.8c.5,17.8-.8,30.4-8.7,37.9-6.5,6.2-17,8.2-32.1,8.2Z"/>
  <polygon class="st0" points="219 252.4 131.9 251.9 163.8 219.7 169.4 225.3 150.7 244.1 211.2 244.5 211.3 202.2 219.1 202.2 219 252.4"/>
</svg>