<?xml version="1.0" encoding="UTF-8"?>
<svg id="Layer_1" xmlns="http://www.w3.org/2000/svg" version="1.1" viewBox="0 0 450 450">
  <!-- Generator: Adobe Illustrator 30.0.0, SVG Export Plug-In . SVG Version: 2.1.1 Build 123)  -->
  <defs>
    <style>
      .st0 {
        fill: #fff;
      }

      .st1 {
        fill: #3ace01;
      }
    </style>
  </defs>
  <path class="st1" d="M114.2,37.1h223.1c42.5,0,77.3,34.8,77.3,77.3v223.1c0,42.5-34.8,77.3-77.3,77.3H114.2c-42.5,0-77.3-34.8-77.3-77.3V114.4c0-42.5,34.8-77.3,77.3-77.3h0Z"/>
  <path class="st0" d="M225.5,99.7c76.5,0,138.6,49.7,138.6,111s-7.6,41.4-20.7,58.4c-.6,1-1.5,2-2.6,3.2h0c-4.5,5.4-9.5,10.5-15.1,15.1-38.3,35.4-101.4,77.6-109.7,71.1-7.2-5.7,11.9-33.3-10.2-37.9-1.5-.2-3.1-.4-4.6-.6h0c-64.9-9.2-114.2-54.6-114.2-109.3s62-111,138.6-111h0Z"/>
  <path class="st1" d="M145.1,246.1h28c4,0,7.2-3.3,7.2-7.2v-.6c0-4-3.3-7.2-7.2-7.2h-20.1v-45.8c0-4-3.3-7.2-7.2-7.2h-.6c-4,0-7.2,3.3-7.2,7.2v53.6c0,4,3.3,7.2,7.2,7.2h0ZM318.2,212.5v-.6c0-4-3.3-7.2-7.2-7.2h-20.1v-11.4h20.1c4,0,7.2-3.3,7.2-7.2v-.6c0-4-3.3-7.2-7.2-7.2h-28c-4,0-7.2,3.3-7.2,7.2v53.6c0,4,3.3,7.2,7.2,7.2h28c4,0,7.2-3.3,7.2-7.2v-.6c0-4-3.3-7.2-7.2-7.2h-20.1v-11.4h20.1c4,0,7.2-3.3,7.2-7.2h0v-.2ZM264.6,243.9h0c1.3-1.3,2.1-3.1,2.1-5.1v-53.6c0-4-3.3-7.2-7.2-7.2h-.6c-4,0-7.2,3.3-7.2,7.2v31.5l-26.1-35c-1.2-2.2-3.6-3.7-6.3-3.7h-.6c-4,0-7.2,3.3-7.2,7.2v53.6c0,4,3.3,7.2,7.2,7.2h.6c4,0,7.2-3.3,7.2-7.2v-32.1l26.3,35.9c.2.3.3.5.5.7h0c.7,1,1.7,1.7,2.8,2.1.8.3,1.8.5,2.7.5h.6c1.2,0,2.4-.3,3.4-.8.7-.3,1.3-.8,1.8-1.3h0ZM193.4,246.1h.6c4,0,7.2-3.3,7.2-7.2v-53.6c0-4-3.3-7.2-7.2-7.2h-.6c-4,0-7.2,3.3-7.2,7.2v53.6c0,4,3.3,7.2,7.2,7.2Z"/>
</svg>