<?xml version="1.0" encoding="utf-8"?>
<!-- Generator: Adobe Illustrator 26.4.1, SVG Export Plug-In . SVG Version: 6.00 Build 0)  -->
<svg version="1.1" id="レイヤー_1" xmlns="http://www.w3.org/2000/svg" xmlns:xlink="http://www.w3.org/1999/xlink" x="0px"
	 y="0px" viewBox="0 0 1251.2 278.2" style="enable-background:new 0 0 1251.2 278.2;" xml:space="preserve">
<style type="text/css">
	.st0{fill:#0E0410;}
	.st1{fill:#0E0410;stroke:#E3011C;stroke-width:4;stroke-miterlimit:10;}
</style>
<g>
	<g>
		<path class="st0" d="M183.1,115l-0.8-1.6c-7.7-16.3-21.6-26.1-37.2-26.3c-0.2,0-0.3,0-0.5,0c-16,0-30.5,9.9-39,26.6l-5-2.5
			c9.6-18.8,26.3-29.9,44.6-29.7c17.2,0.2,32.6,10.6,41.4,27.9l17-0.4l0.1,5.6L183.1,115z"/>
		<path class="st0" d="M120.1,230.8c-5.6,0-9.7-0.8-12.3-3.3c-3.5-3.4-3.4-8.7-3.2-16.7c0-1,0.1-2,0.1-3c0.2-4.6,0-21.4-0.2-34.8
			c-0.1-8-0.2-14.9-0.2-18.6c0-1.3,0-2.5,0-3.5c0.1-6,0.1-6-2.6-8.1c-3.8-2.8-5.6-2.8-7.7-2.8c-2.1,0-4.8,0-8.5-2.4
			c-4.1-2.7-4-6.9-3.9-12.6c0-0.9,0-2,0-3.1c0-2.5-0.1-13.1-0.2-24.7c-0.1-13.6-0.2-29-0.2-33.5c-0.4-4.7,1.3-9.2,4.7-12.3
			c3.7-3.3,8.9-4.6,14.3-3.6c6.9,0,97,0.4,106.7,0.9c3.2,0.2,5.9,1.4,7.7,3.7c2.7,3.2,3.1,7.8,3,10.4l0.1,0l-0.1,1.1
			c0,0.4-0.1,0.7-0.1,0.8c-0.3,3.8-0.1,25.3,0.2,50.1c0.5,43,1.2,96.5-0.4,109.4l-0.1,0.5c-1.9,5.7-9.8,5.7-18.2,5.7l-72.5,0
			C124.2,230.7,122,230.8,120.1,230.8z M94.5,134.3c2.5,0,5.7,0.2,10.6,3.9c5,3.7,4.9,5.6,4.9,12.6c0,1,0,2.2,0,3.5
			c0,3.7,0.1,10.5,0.2,18.5c0.2,14.2,0.4,30.4,0.2,35.1c0,1-0.1,2-0.1,3c-0.2,6.5-0.3,10.8,1.4,12.5c1.7,1.6,6.2,2.1,14.6,1.5l0.2,0
			l72.7,0c4.1,0,11.7,0,12.7-1.7c1.5-13.2,0.8-68.1,0.3-108.3c-0.3-23.2-0.5-42.1-0.3-48.8l-0.1-0.1l0.3-2c0-0.1,0.7-5.4-1.7-8.1
			c-0.9-1-2.1-1.6-3.7-1.7c-9.5-0.5-102.6-0.9-106.6-0.9l-0.6-0.1c-3.8-0.8-7.3,0.1-9.7,2.2c-2.1,1.9-3.2,4.7-2.9,7.7l0,0.3
			c0,4.3,0.1,19.8,0.2,33.5c0.1,11.6,0.2,22.2,0.2,24.7c0,1.1,0,2.2,0,3.2c-0.1,5.4,0.1,6.9,1.5,7.8c2.2,1.5,3.5,1.5,5.3,1.5
			C94.1,134.3,94.3,134.3,94.5,134.3z"/>
		<path class="st0" d="M203.6,97.1l-11.2,0l-0.8-1.3c-10.7-16.5-29.5-26.7-49.2-26.7c-0.1,0-0.2,0-0.2,0
			C123.5,69.2,107,78.3,97,94.2l-4.7-3c11.1-17.5,29.3-27.6,49.9-27.7c0.1,0,0.2,0,0.3,0c21.1,0,41.3,10.7,53.1,28l8.1,0V97.1z"/>
		<path class="st0" d="M145.3,140.1c-0.2,0-0.3,0-0.5,0c-16.5-0.2-32.1-10.5-44.1-29l4.7-3.1c10.9,16.9,24.9,26.3,39.4,26.5
			c0.1,0,0.3,0,0.4,0c13.7,0,26.6-8.2,37.2-23.7l4.6,3.2C175.6,130.9,160.8,140.1,145.3,140.1z"/>
		<path class="st0" d="M129.4,120.1c-3.2,0-6.5-0.8-9.3-2.4c-5.1-3-7.8-8-7.8-14.3c-0.1-6.3,2.7-11.3,7.8-14.3
			c5.5-3.2,13-3.2,18.5,0c5.1,3,7.9,8.1,7.8,14.3c0.1,6.2-2.7,11.3-7.8,14.3C135.9,119.3,132.7,120.1,129.4,120.1z M129.4,92.3
			c-2.3,0-4.5,0.6-6.4,1.7c-2.3,1.4-5.1,4.1-5,9.4v0.1c-0.1,5.3,2.7,8.1,5,9.4c3.8,2.2,9.1,2.2,12.9,0c2.3-1.4,5.1-4.1,5-9.4
			c0.1-5.4-2.7-8.1-5-9.5C133.9,92.8,131.7,92.3,129.4,92.3z"/>
		
			<rect x="123" y="131.1" transform="matrix(0.9999 -1.192848e-02 1.192848e-02 0.9999 -2.0244 1.5134)" class="st0" width="5.6" height="78.8"/>
		<path class="st1" d="M126.3,134.9"/>
		<path class="st0" d="M175.1,171.9c-5.8,0-12.6-0.4-20.4-0.9c-10.2-0.3-18.4-6.7-23.5-18.5c-3.7-8.5-4.5-16.9-4.6-17.2l5.6-0.5
			c0,0.3,3.1,30.1,22.8,30.7c23,1.6,34.1,1.5,39.1-3.3c3.3-3.2,4.6-8.9,4.6-20.1l-20.8-0.1c-2.9,0.4-5.1,2-6.1,4.3
			c-0.9,2.1-0.6,4.4,0.8,6.1c2,2.5,5.8,3.6,10.9,2.9l0.8,5.6c-9.6,1.3-14.2-2.5-16.1-5c-2.6-3.3-3.1-7.8-1.5-11.7
			c1.8-4.2,5.8-7.1,10.7-7.8l0.4,0l26.5,0.1l0.1,2.7c0.3,12.7-0.6,21.7-6.2,27C193.3,170.5,185.8,171.9,175.1,171.9z"/>
		<polygon class="st0" points="198.6,211.1 136.5,210.8 159.2,187.8 163.2,191.8 149.9,205.2 193,205.5 193,175.3 198.7,175.4 		"/>
	</g>
	<g>
		<path class="st0" d="M266.1,211.5V66.8h61.8v19.5h-41.1v42.5h35.8v19.5h-35.8v42.5h41.1v20.7H266.1z"/>
		<path class="st0" d="M357.6,211.5V66.8h19.9l31.3,87.2h0.4V66.8h20.7v144.7h-19.5l-31.7-87h-0.4v87H357.6z"/>
		<path class="st0" d="M479.3,211.5V86.3h-24V66.8H524v19.5h-24v125.2H479.3z"/>
		<path class="st0" d="M550.3,211.5V66.8h61.8v19.5H571v42.5h35.8v19.5H571v42.5h41.1v20.7H550.3z"/>
		<path class="st0" d="M642.5,211.5V66.8h33.3c24.4,0,36.6,14.2,36.6,42.5c0,8.5-1.3,15.8-4,21.7c-2.6,6-7.3,10.8-13.9,14.4
			l22.4,66.1h-22l-19.3-61.8h-12.4v61.8H642.5z M663.3,86.3v45.1h11.8c3.7,0,6.6-0.5,8.7-1.5c2.2-1,3.9-2.5,5.1-4.4
			c1.1-1.9,1.8-4.2,2.2-7c0.4-2.8,0.6-6,0.6-9.7s-0.2-6.9-0.6-9.7c-0.4-2.8-1.2-5.2-2.4-7.2c-2.6-3.8-7.5-5.7-14.6-5.7H663.3z"/>
		<path class="st0" d="M813.3,108.4h-20.7v-4.7c0-4.7-1.1-8.8-3.4-12.3c-2.2-3.4-6-5.2-11.3-5.2c-2.8,0-5.2,0.5-6.9,1.6
			c-1.8,1.1-3.2,2.4-4.3,4.1c-1.1,1.8-1.8,3.8-2.2,6c-0.4,2.2-0.6,4.6-0.6,7c0,2.8,0.1,5.2,0.3,7.1c0.2,1.9,0.7,3.6,1.5,5.1
			c0.8,1.5,2,2.8,3.6,3.9c1.6,1.1,3.7,2.2,6.4,3.3l15.9,6.3c4.6,1.8,8.3,3.8,11.2,6.2c2.8,2.4,5.1,5.1,6.7,8.2
			c1.5,3.3,2.5,6.9,3,11.1s0.8,8.8,0.8,14.1c0,6.1-0.6,11.8-1.8,17c-1.2,5.2-3.2,9.7-5.9,13.3c-2.8,3.8-6.6,6.8-11.2,8.9
			c-4.6,2.2-10.2,3.3-16.9,3.3c-5,0-9.7-0.9-14-2.6c-4.3-1.8-8.1-4.2-11.2-7.3c-3.1-3.1-5.6-6.7-7.4-10.9c-1.8-4.1-2.7-8.6-2.7-13.5
			v-7.7h20.7v6.5c0,3.8,1.1,7.2,3.4,10.3c2.2,3,6,4.6,11.3,4.6c3.5,0,6.3-0.5,8.2-1.5c2-1,3.5-2.5,4.6-4.4c1.1-1.9,1.7-4.2,1.9-6.8
			c0.2-2.6,0.3-5.6,0.3-8.8c0-3.8-0.1-6.9-0.4-9.4c-0.3-2.4-0.8-4.4-1.6-5.9c-0.9-1.5-2.2-2.7-3.8-3.7c-1.6-0.9-3.6-2-6.2-3.1
			l-14.8-6.1c-8.9-3.7-14.9-8.5-18-14.5c-3-6-4.6-13.6-4.6-22.7c0-5.4,0.7-10.6,2.2-15.5s3.7-9.1,6.7-12.6c2.8-3.5,6.5-6.3,10.9-8.4
			c4.4-2.1,9.7-3.2,15.8-3.2c5.2,0,9.9,0.9,14.1,2.8c4.3,1.9,8,4.4,11.1,7.5c6.2,6.5,9.3,14,9.3,22.4V108.4z"/>
		<path class="st0" d="M846.4,211.5V66.8h20.7v144.7H846.4z"/>
		<path class="st0" d="M903.1,100.9c0-5.8,1-11,3.1-15.4c2-4.5,4.7-8.2,8.1-11.2c3.3-2.8,6.9-5,11.1-6.5c4.1-1.5,8.3-2.2,12.5-2.2
			c4.2,0,8.4,0.8,12.5,2.2c4.1,1.5,7.9,3.7,11.3,6.5c3.3,3,5.9,6.7,7.9,11.2c2,4.5,3,9.6,3,15.4v7.3h-20.7v-7.3
			c0-5-1.4-8.7-4.2-11.1c-2.8-2.4-6.1-3.6-9.9-3.6c-3.8,0-7.1,1.2-9.9,3.6c-2.8,2.4-4.2,6.1-4.2,11.1v76.4c0,5,1.4,8.7,4.2,11.1
			c2.8,2.4,6.1,3.6,9.9,3.6c3.8,0,7.1-1.2,9.9-3.6c2.8-2.4,4.2-6.1,4.2-11.1v-27.2h-16.5v-18.3h37.2v45.5c0,6.1-1,11.3-3,15.6
			c-2,4.3-4.7,7.9-7.9,10.8c-3.4,3-7.1,5.2-11.3,6.7c-4.1,1.5-8.3,2.2-12.5,2.2c-4.2,0-8.4-0.8-12.5-2.2c-4.1-1.5-7.8-3.7-11.1-6.7
			c-3.4-2.8-6.1-6.4-8.1-10.8s-3.1-9.6-3.1-15.6V100.9z"/>
		<path class="st0" d="M1008,211.5V66.8h20.7v62h25.6v-62h20.7v144.7h-20.7V147h-25.6v64.4H1008z"/>
		<path class="st0" d="M1125.3,211.5V86.3h-24V66.8h68.7v19.5h-24v125.2H1125.3z"/>
	</g>
</g>
</svg>
