<?xml version="1.0" encoding="UTF-8"?> <svg xmlns="http://www.w3.org/2000/svg" width="219" height="274" viewBox="0 0 219 274" fill="none"><path d="M206.296 40H12.7063C5.68493 40 0.000976562 34.3333 0.000976562 27.3333V12.6667C0.000976562 5.66667 5.68493 0 12.7063 0H206.296C213.317 0 219.001 5.66667 219.001 12.6667V27C219.001 34.3333 213.317 40 206.296 40ZM12.7063 6.66667C9.36279 6.66667 6.688 9.33333 6.688 12.6667V27C6.688 30.3333 9.36279 33 12.7063 33H206.296C209.639 33 212.314 30.3333 212.314 27V12.6667C212.314 9.33333 209.639 6.66667 206.296 6.66667H12.7063V6.66667Z" fill="black"></path><path d="M191.919 13.3967C191.919 13.0618 192.253 13.0618 192.253 13.0618C192.588 13.0618 192.588 13.0618 192.588 13.3967V18.4204H197.603C197.937 18.4204 197.937 18.7553 197.937 18.7553C197.937 19.0902 197.937 19.0902 197.603 19.0902H192.922V24.114C192.922 24.4489 192.588 24.4489 192.588 24.4489C192.253 24.4489 192.253 24.4489 192.253 24.114V19.7601H187.238C186.904 19.7601 186.904 19.4252 186.904 19.4252C186.904 19.0903 186.904 19.0902 187.238 19.0902H192.253V13.3967H191.919Z" fill="black"></path><path d="M192.253 26.7933C190.916 26.7933 190.247 25.7886 190.247 24.7838V21.4347H186.904C185.566 21.4347 184.897 20.4299 184.897 19.4252C184.897 18.0855 185.9 17.4157 186.904 17.4157H190.247V13.3967C190.247 12.057 191.25 11.3872 192.253 11.3872C193.256 11.3872 194.259 12.392 194.259 13.3967V16.7459H197.603C198.94 16.7459 199.609 17.7506 199.609 18.7554C199.609 20.095 198.606 20.7648 197.603 20.7648H194.259V24.114C194.594 26.1235 193.591 26.7933 192.253 26.7933Z" fill="black"></path><path d="M191.919 160.009C191.919 159.675 192.253 159.675 192.253 159.675C192.588 159.675 192.588 159.675 192.588 160.009V165.033H197.603C197.937 165.033 197.937 165.368 197.937 165.368C197.937 165.703 197.937 165.703 197.603 165.703H192.922V170.727C192.922 171.062 192.588 171.062 192.588 171.062C192.253 171.062 192.253 171.062 192.253 170.727V166.373H187.238C186.904 166.373 186.904 166.038 186.904 166.038C186.904 165.703 186.904 165.703 187.238 165.703H192.253V160.009H191.919Z" fill="black"></path><path d="M192.253 173.406C190.916 173.406 190.247 172.401 190.247 171.397V168.047H186.904C185.566 168.047 184.897 167.043 184.897 166.038C184.897 164.698 185.9 164.028 186.904 164.028H190.247V160.009C190.247 158.67 191.25 158 192.253 158C193.256 158 194.259 159.005 194.259 160.009V163.359H197.603C198.94 163.359 199.609 164.363 199.609 165.368C199.609 166.708 198.606 167.378 197.603 167.378H194.259V170.727C194.594 172.736 193.591 173.406 192.253 173.406Z" fill="black"></path><path d="M206.296 138H12.7063C5.68493 138 0.000976562 132.292 0.000976562 125.24V59.7601C0.000976562 52.7085 5.68493 47 12.7063 47H206.296C213.317 47 219.001 52.7085 219.001 59.7601V125.24C219.001 132.292 213.317 138 206.296 138ZM12.7063 53.3801C9.36279 53.3801 6.688 56.0664 6.688 59.4244V124.904C6.688 128.262 9.36279 130.948 12.7063 130.948H206.296C209.639 130.948 212.314 128.262 212.314 124.904V59.7601C212.314 56.4022 209.639 53.7159 206.296 53.7159H12.7063V53.3801Z" fill="black"></path><path d="M197.937 65.6434C198.272 65.6434 198.272 65.9783 198.272 65.9783C198.272 66.3133 198.272 66.3133 197.937 66.3133H186.904C186.569 66.3133 186.569 65.9783 186.569 65.9783C186.569 65.6434 186.569 65.6434 186.904 65.6434H197.937Z" fill="black"></path><path d="M197.937 68.3227H186.904C185.566 68.3227 184.897 67.3179 184.897 66.3132C184.897 64.9735 185.9 64.3037 186.904 64.3037H197.937C199.275 64.3037 199.943 65.3085 199.943 66.3132C199.943 67.3179 199.275 68.3227 197.937 68.3227Z" fill="black"></path><path d="M216.001 79H3.00098V86H216.001V79Z" fill="black"></path><path d="M206.296 274H12.7063C5.68493 274 0.000976562 268.289 0.000976562 261.234V157.766C0.000976562 150.711 5.68493 145 12.7063 145H206.296C213.317 145 219.001 150.711 219.001 157.766V260.898C219.001 268.289 213.317 274 206.296 274ZM12.7063 151.719C9.36279 151.719 6.688 154.406 6.688 157.766V260.898C6.688 264.258 9.36279 266.945 12.7063 266.945H206.296C209.639 266.945 212.314 264.258 212.314 260.898V157.766C212.314 154.406 209.639 151.719 206.296 151.719H12.7063V151.719Z" fill="black"></path><path d="M216.001 178H3.00098V184H216.001V178Z" fill="black"></path><path d="M105.656 72.3419C104.318 72.6768 103.315 73.6816 102.647 74.6863C102.312 75.3561 101.978 75.6911 101.644 76.3609C101.309 77.0307 101.309 77.7006 101.309 78.3704V97.1257C100.641 96.4558 99.9719 95.4511 98.3002 94.1114C97.6315 93.4416 96.9628 92.7718 96.2941 92.4369C95.6254 92.1019 94.9566 91.767 93.9536 91.767C93.2849 91.767 92.6162 91.767 92.2818 92.1019C91.2788 92.4369 90.2758 93.4416 89.6071 94.4464C88.9384 95.4511 88.604 96.4558 88.604 97.7955C88.604 99.1352 88.9384 100.14 89.6071 101.145C89.6071 101.145 89.9414 101.48 90.2758 102.149C91.2788 103.489 93.2849 106.503 94.9567 109.183C96.6284 111.862 98.3002 114.541 99.6376 116.216C98.9689 117.221 98.3002 118.56 98.3002 119.9V120.57C98.3002 122.244 98.9689 123.584 99.9719 124.589C100.975 125.594 102.312 126.263 103.984 126.263H120.367C122.039 126.263 123.377 125.594 124.38 124.589C125.383 123.584 126.051 122.244 126.051 120.57V119.565C126.051 118.225 125.717 116.886 124.714 116.216L129.395 103.824C129.729 102.819 130.064 101.814 130.064 100.81C130.064 96.7908 127.723 93.4416 124.045 91.767L114.683 87.748V78.0355C114.683 76.3609 114.015 74.6863 112.677 73.3467C111.34 72.007 109.668 71.3372 107.996 71.3372C107.328 71.6721 106.325 72.007 105.656 72.3419ZM110.337 76.026C111.006 76.6958 111.34 77.3656 111.34 78.3704V88.4179C111.34 89.4226 112.009 90.7623 113.012 91.0972L122.708 95.1162C124.045 95.786 124.714 96.4558 125.383 97.4606C126.051 98.4653 126.386 99.805 126.386 100.81C126.386 101.48 126.386 102.149 126.051 102.819L122.039 115.211H111.34C111.006 115.211 110.337 115.546 110.337 116.216C110.337 116.551 110.671 117.221 111.34 117.221H121.705V117.221L122.039 117.556C122.373 117.89 122.708 117.89 122.708 118.225C123.042 118.56 123.042 118.895 123.042 119.23V120.57C123.042 121.24 122.708 121.909 122.373 122.244C122.039 122.579 121.37 122.914 120.702 122.914H104.318C103.65 122.914 102.981 122.579 102.647 122.244C102.312 121.909 101.978 121.24 101.978 120.57V119.565C101.978 118.895 101.978 118.56 102.312 118.225C102.647 117.89 102.981 117.556 103.315 117.556L103.984 117.221V116.216V115.881C103.984 115.881 101.309 111.862 98.6345 107.843C97.2971 105.833 95.9597 103.824 94.9567 102.149C94.288 101.48 93.9536 100.475 93.6193 100.14C93.2849 99.805 93.2849 99.4701 93.2849 99.4701C93.2849 99.1352 92.9506 99.1352 92.9506 99.1352C92.9506 98.8003 92.6162 98.8003 92.6162 98.4653C92.6162 98.1304 92.6162 98.1304 92.6162 97.7955C92.6162 97.4606 92.6162 97.1257 92.6162 96.7908C92.6162 96.4558 92.9505 95.786 93.2849 95.786L93.6193 95.4511C93.9536 95.4511 93.9536 95.4511 94.288 95.4511C94.6223 95.4511 94.6223 95.4511 94.9567 95.786C95.291 95.786 95.6254 96.1209 95.9597 96.4558C97.6315 98.1304 98.6345 99.1352 99.3032 99.805C99.9719 100.475 100.306 100.475 100.306 100.81C100.975 101.145 101.644 101.48 102.312 101.48C102.647 101.48 102.981 101.48 103.315 101.145C104.318 100.81 104.987 99.805 104.987 98.4653V78.3704C104.987 78.0355 104.987 77.7006 105.322 77.3656C105.656 76.6958 105.99 76.3609 106.659 76.026C107.328 75.6911 107.662 75.3561 108.331 75.3561C108.999 75.0212 109.668 75.3562 110.337 76.026Z" fill="#4C4B4C"></path><path d="M111.34 79.0402H104.987V87.748H111.34V79.0402Z" fill="#EFEBE1"></path><path d="M28.0875 162.354C29.0906 162.354 29.7593 163.024 29.7593 164.028L29.7593 220.629C29.7593 221.634 29.0906 222.304 28.0875 222.304C27.0845 222.304 26.4158 221.634 26.4158 220.629L26.4158 164.028C26.4158 163.024 27.0845 162.354 28.0875 162.354Z" fill="black"></path><path d="M28.0876 160.679C29.7594 160.679 31.4311 162.019 31.4311 164.028L31.4312 220.629C31.4312 222.304 30.0937 223.978 28.0876 223.978C26.0815 223.978 24.7441 222.639 24.7441 220.629L24.7441 164.028C24.7441 162.019 26.4159 160.679 28.0876 160.679Z" fill="black"></path><path d="M40.4575 174.076L38.1171 176.085L28.0865 165.033L17.7217 176.085L15.7155 174.076L28.0865 160.679L40.4575 174.076Z" fill="black"></path><path d="M28.0874 158L42.7988 174.076L38.1179 178.43L28.0874 167.378L17.7225 178.43L13.0416 174.076L28.0874 158Z" fill="black"></path><path d="M27.7518 116.624C26.7488 116.624 26.0801 115.955 26.0801 114.95L26.0801 58.3491C26.0801 57.3444 26.7488 56.6746 27.7518 56.6746C28.7549 56.6746 29.4236 57.3444 29.4236 58.3491L29.4236 114.95C29.4236 115.955 28.7549 116.624 27.7518 116.624Z" fill="black"></path><path d="M27.7517 118.299C26.08 118.299 24.4082 116.959 24.4082 114.95L24.4082 58.3492C24.4082 56.6746 25.7456 55 27.7517 55C29.7579 55 31.0953 56.3397 31.0953 58.3492L31.0953 114.95C31.0953 116.959 29.4235 118.299 27.7517 118.299Z" fill="black"></path><path d="M15.3818 104.902L17.7223 102.893L27.7528 113.945L38.1177 102.893L40.1238 104.902L27.7528 118.299L15.3818 104.902Z" fill="black"></path><path d="M27.752 120.978L13.0405 104.902L17.7215 100.548L27.752 111.601L38.1169 100.548L42.7978 104.902L27.752 120.978Z" fill="black"></path></svg> 