<?xml version="1.0" encoding="UTF-8"?> <svg xmlns="http://www.w3.org/2000/svg" width="367" height="298" viewBox="0 0 367 298" fill="none"><path d="M333.446 242.253H32.8048C14.8858 242.253 0.152344 227.521 0.152344 209.605V32.8285C0.152344 14.912 14.8858 0.180542 32.8048 0.180542H333.844C351.763 0.180542 366.497 14.912 366.497 32.8285V209.605C366.497 227.521 351.763 242.253 333.446 242.253ZM32.8048 13.7176C22.4516 13.7176 13.6912 22.0786 13.6912 32.8285V209.605C13.6912 219.957 22.0534 228.716 32.8048 228.716H333.844C344.198 228.716 352.958 220.355 352.958 209.605V32.8285C352.958 22.4767 344.596 13.7176 333.844 13.7176H32.8048Z" fill="black"></path><path d="M167.394 159.439C169.385 161.43 174.164 164.615 180.137 164.615C181.729 164.615 182.924 164.615 184.517 164.217C189.693 163.022 196.065 157.05 200.445 148.291C205.621 138.736 208.409 126.791 208.409 116.041C208.409 104.495 204.825 94.5415 198.056 87.773C191.286 80.6064 182.128 77.023 171.376 77.023C168.987 77.023 166.2 77.4212 163.412 77.8193C151.864 79.8101 143.502 84.986 138.326 93.7452C134.344 100.514 132.353 109.273 132.353 120.023C132.353 131.171 135.14 141.124 140.317 148.689C144.299 154.263 149.475 157.847 155.05 159.041C153.855 156.652 153.457 154.661 153.457 152.273C153.457 144.708 155.05 137.939 157.837 131.569C153.059 129.18 149.077 125.995 146.29 122.81C142.706 118.43 140.715 113.652 140.715 108.477C140.715 103.699 142.706 98.921 146.29 94.9395C149.873 90.9581 154.652 88.171 160.625 86.1803C164.607 84.9859 168.191 84.1896 172.173 84.1896C176.951 84.1896 181.729 84.9859 186.11 86.9766C190.49 88.9674 193.675 91.3563 196.065 94.5415C197.657 96.9304 198.852 99.3191 198.852 102.106C198.852 104.893 198.056 107.282 196.065 109.671C194.472 111.662 192.083 113.653 188.897 115.245C179.738 120.023 173.367 125.199 168.987 131.171C164.607 137.541 162.616 144.708 162.616 153.069C162.616 153.865 163.014 155.06 163.81 156.254C164.607 156.652 165.801 158.245 167.394 159.439Z" fill="#C3B68F"></path><path d="M171.776 67.4676C184.917 67.4676 196.465 72.2452 204.827 81.0044C208.411 84.9859 211.596 89.3656 213.587 94.5415C218.366 88.1711 223.144 83.3933 228.321 79.81C232.701 77.023 237.081 75.4303 241.859 74.2359C240.267 64.6804 235.488 54.7269 227.524 43.5788C225.135 40.3936 223.144 38.4027 220.755 37.2083C219.162 36.412 217.171 36.0139 215.18 36.0139C212.791 36.0139 210.402 36.4121 207.614 36.8103C204.827 37.2084 201.641 38.0046 197.659 38.0046C191.288 38.4028 182.129 39.9954 174.563 43.9768C173.369 44.375 172.572 45.1713 171.776 45.9676C169.785 47.162 168.59 48.3565 167.396 49.551C163.414 53.5325 161.025 59.1065 160.228 65.4768C160.228 66.2731 159.83 67.4675 159.83 67.8656C160.228 67.8656 161.025 67.8657 161.423 67.4676C165.405 67.8657 168.192 67.4676 171.776 67.4676Z" fill="#C3B68F"></path><path d="M188.898 102.902C189.694 102.106 189.694 101.309 189.694 100.911C189.694 100.115 189.296 99.7169 188.898 98.5225C188.101 97.3281 186.907 96.5318 185.314 95.3374C181.73 92.9486 176.952 91.754 172.173 91.754C168.988 91.754 166.2 92.1523 163.413 93.3467C159.033 94.9393 155.449 96.9299 153.06 99.7169C151.069 102.106 149.874 104.893 149.874 107.282C149.874 110.069 151.069 112.856 153.458 115.643C155.847 118.43 159.033 120.818 163.015 122.809C168.191 116.041 175.359 110.069 185.314 105.291C187.305 104.893 188.5 103.698 188.898 102.902Z" fill="#C3B68F"></path><path d="M225.931 165.809C220.755 161.828 213.587 158.245 206.419 156.652C200.845 165.411 194.075 170.985 186.908 172.976C184.917 173.374 182.527 173.772 180.536 173.772C175.36 173.772 170.183 172.18 165.405 169.393C164.608 168.995 163.812 168.198 163.414 167.8C156.644 173.374 147.088 176.161 135.142 176.161C129.169 176.161 122.399 175.365 115.63 173.772C113.241 175.763 112.046 177.754 112.046 179.744C112.046 181.337 113.24 183.328 115.231 185.319C117.621 187.309 120.806 189.698 125.187 191.689C133.549 195.67 143.106 198.059 147.486 198.856C150.671 199.254 153.857 200.846 156.644 202.439L158.635 203.235C161.423 204.828 165.007 206.022 167.396 206.022C168.192 206.022 168.989 206.022 169.785 205.624C172.174 204.827 174.962 204.429 178.545 204.031L180.536 203.633C184.518 203.235 188.899 202.837 193.677 201.642C207.216 199.253 218.365 194.476 227.524 186.911C230.311 184.522 232.302 182.133 232.701 179.744C232.701 179.346 232.701 178.55 232.701 178.152C232.701 176.958 232.701 176.161 232.302 174.967C231.904 171.782 229.515 168.596 225.931 165.809Z" fill="#C3B68F"></path><path d="M278.094 88.9676C276.103 85.7825 272.917 84.1901 268.139 83.3938C262.962 82.5975 258.582 82.1992 254.6 82.1992C253.007 82.1992 251.414 82.1993 250.22 82.5974C248.229 82.5974 246.636 82.9956 244.645 83.3938C240.663 84.1901 237.079 85.7825 233.495 87.7733C227.522 91.3565 222.346 97.3286 217.169 106.088C217.567 109.273 217.965 112.458 217.965 115.643C217.965 126.791 215.576 138.337 210.798 148.291C218.762 150.282 225.929 153.865 231.902 158.643C236.283 162.226 239.867 166.606 241.459 170.985C244.645 170.189 247.432 168.596 250.22 167.004C256.989 163.022 263.36 156.652 269.732 147.495C278.492 135.55 281.678 116.041 282.076 103.301V102.106C281.279 96.5323 280.483 92.1528 278.094 88.9676Z" fill="#C3B68F"></path><path d="M107.267 71.4494C116.824 71.4494 126.779 74.6345 136.734 81.0048C140.716 77.0233 145.494 73.8383 151.069 71.4494C151.069 70.255 151.069 69.4586 151.467 67.866L151.865 65.0789C152.662 58.3104 155.051 52.3384 158.635 47.5606C154.653 45.968 151.069 44.3754 148.282 43.5791C143.503 41.9865 138.725 40.3938 133.946 39.1994C131.557 38.4031 129.168 38.0051 127.575 37.6069L124.788 36.8106C123.991 36.4124 123.195 36.4123 122.399 36.4123C120.408 36.4123 118.815 37.2087 117.222 38.005C115.231 39.1994 113.24 41.1902 111.249 43.9772C107.267 49.5512 102.887 58.3105 98.5066 70.6531C98.5066 71.0512 98.1084 71.4493 98.1084 71.8475C100.896 71.4493 104.081 71.4494 107.267 71.4494Z" fill="#C3B68F"></path><path d="M121.602 165.809C125.982 166.605 130.761 167.003 135.141 167.003C139.919 167.003 144.3 166.605 147.883 165.411C142.309 163.022 137.53 159.04 133.548 153.068C127.973 145.105 124.788 134.754 123.991 123.606C123.991 122.411 123.991 120.819 123.991 119.624V118.43C123.991 106.485 126.381 96.5318 131.159 88.569C131.159 88.569 131.159 88.1707 131.557 88.1707C123.195 82.9948 115.231 80.6061 107.267 80.6061C103.683 80.6061 99.7012 81.0041 95.321 82.1985C93.33 82.5967 91.7372 82.995 89.7462 83.3931C85.366 84.5876 81.7822 85.3838 77.402 85.7819C74.2164 86.18 72.6236 86.9764 71.8272 88.569C70.6326 90.1615 70.2344 92.5503 70.2344 95.7355C70.2344 100.911 71.429 107.282 73.0218 113.254C73.8182 116.439 74.2164 119.226 74.6146 122.013C75.411 125.596 77.0038 133.161 80.5876 140.328C84.1714 147.494 88.9498 152.67 94.9228 156.253C100.099 159.439 107.267 162.226 114.435 164.216C116.824 164.614 119.213 165.411 121.602 165.809Z" fill="#C3B68F"></path><path d="M296.412 291.623C295.217 291.623 294.022 290.429 294.022 289.234V192.485C294.022 191.291 295.217 190.096 296.412 190.096C297.606 190.096 298.801 191.291 298.801 192.485V289.234C298.801 290.827 297.606 291.623 296.412 291.623Z" fill="black"></path><path d="M296.411 294.012C294.022 294.012 292.031 292.021 292.031 289.632V192.883C292.031 190.494 294.022 188.504 296.411 188.504C298.801 188.504 300.792 190.494 300.792 192.883V289.632C301.19 292.021 299.199 294.012 296.411 294.012ZM296.411 289.234V291.623V289.234Z" fill="black"></path><path d="M278.096 274.503L281.281 271.716L296.413 287.642L311.545 271.716L314.73 274.503L296.413 294.41L278.096 274.503Z" fill="black"></path><path d="M296.413 297.595L274.91 274.503L281.68 268.132L296.413 284.456L311.545 268.132L317.916 274.503L296.413 297.595Z" fill="black"></path></svg> 