<?xml version="1.0" encoding="UTF-8"?> <svg xmlns="http://www.w3.org/2000/svg" width="367" height="243" viewBox="0 0 367 243" fill="none"><path d="M353.044 228.987L353.044 13.989L184.605 13.989L184.605 228.987L353.044 228.987Z" fill="#C3B68F"></path><path d="M334.084 242.861H33.044C15.125 242.861 0.391602 228.129 0.391602 210.213V33.4364C0.391602 15.5199 15.125 0.788452 33.044 0.788452H334.084C352.003 0.788452 366.736 15.5199 366.736 33.4364V210.213C366.736 228.129 352.003 242.861 334.084 242.861ZM33.044 13.9274C22.6908 13.9274 13.9304 22.2884 13.9304 33.0383V209.815C13.9304 220.166 22.2926 228.926 33.044 228.926H334.084C344.437 228.926 353.197 220.565 353.197 209.815V33.0383C353.197 22.6866 344.835 13.9274 334.084 13.9274H33.044Z" fill="black"></path><path d="M268.777 171.99C267.582 171.99 266.388 170.796 266.388 169.601V72.8522C266.388 71.6578 267.582 70.4632 268.777 70.4632C269.971 70.4632 271.166 71.6578 271.166 72.8522V169.601C271.166 171.194 269.971 171.99 268.777 171.99Z" fill="black"></path><path d="M268.777 174.379C266.387 174.379 264.396 172.388 264.396 170V73.2504C264.396 70.8615 266.387 68.8709 268.777 68.8709C271.166 68.8709 273.157 70.8615 273.157 73.2504V170C273.555 172.388 271.564 174.379 268.777 174.379ZM268.777 170V172.389V170Z" fill="black"></path><path d="M250.461 154.87L253.647 152.083L268.778 168.009L283.91 152.083L287.095 154.87L268.778 174.777L250.461 154.87Z" fill="black"></path><path d="M268.778 177.962L247.275 154.87L254.045 148.898L268.778 164.823L283.91 148.898L290.281 154.87L268.778 177.962Z" fill="black"></path></svg> 