<?xml version="1.0" encoding="UTF-8"?> <svg xmlns="http://www.w3.org/2000/svg" width="523" height="324" viewBox="0 0 523 324" fill="none"><path d="M320.346 316.676L320.346 87.7427L125.626 87.7427L125.626 316.676H320.346Z" fill="#C3B68F"></path><path d="M190.322 242.47H33.4308C15.5117 242.47 0.77832 227.739 0.77832 209.822V32.6479C0.77832 14.7314 15.5117 0 33.4308 0H190.322C208.241 0 222.974 14.7314 222.974 32.6479V209.424C222.974 227.739 208.241 242.47 190.322 242.47ZM33.4308 13.537C23.0775 13.537 14.3171 21.898 14.3171 32.6479V209.424C14.3171 219.776 22.6793 228.535 33.4308 228.535H190.322C200.675 228.535 209.435 220.174 209.435 209.424V32.6479C209.435 22.2962 201.073 13.537 190.322 13.537H33.4308Z" fill="black"></path><path d="M301.421 323.293H144.53C126.611 323.293 111.878 308.562 111.878 290.645V113.869C111.878 95.9524 126.611 81.2211 144.53 81.2211H301.421C319.34 81.2211 334.074 95.9524 334.074 113.869V290.645C334.074 308.562 319.34 323.293 301.421 323.293ZM144.53 94.3599C134.177 94.3599 125.417 102.721 125.417 113.471V290.247C125.417 300.599 133.779 309.358 144.53 309.358H301.421C311.775 309.358 320.535 300.997 320.535 290.247V113.471C320.535 103.119 312.173 94.3599 301.421 94.3599H144.53V94.3599Z" fill="black"></path><path d="M423.666 137.359C422.471 137.359 421.276 136.164 421.276 134.97V38.2207C421.276 37.0262 422.471 35.8318 423.666 35.8318C424.86 35.8318 426.055 37.0262 426.055 38.2207V134.97C426.055 136.164 424.86 137.359 423.666 137.359Z" fill="black"></path><path d="M423.665 139.748C421.276 139.748 419.285 137.757 419.285 135.368V38.6194C419.285 36.2306 421.276 34.2398 423.665 34.2398C426.055 34.2398 428.045 36.2306 428.045 38.6194V135.368C428.045 137.359 426.055 139.748 423.665 139.748ZM423.665 134.97V137.359V134.97Z" fill="black"></path><path d="M405.349 120.239L408.534 117.054L423.666 133.378L438.797 117.054L441.983 120.239L423.666 139.748L405.349 120.239Z" fill="black"></path><path d="M423.667 143.331L402.164 120.239L408.934 113.869L423.667 129.794L438.4 113.869L445.17 120.239L423.667 143.331Z" fill="black"></path><path d="M285.093 197.878C285.093 199.47 285.093 200.665 287.482 200.665H288.677C289.075 200.665 289.473 201.063 289.473 201.461C289.473 202.257 289.075 202.257 287.482 202.257C283.898 202.257 283.898 200.267 283.898 198.276V189.915H281.509C280.713 189.915 280.713 189.517 280.713 189.118C280.713 188.72 281.111 188.322 281.509 188.322H283.898V184.739C283.898 184.341 284.297 183.943 284.695 183.943C285.093 183.943 285.491 184.341 285.491 184.739V188.322H289.473C289.871 188.322 290.27 188.72 290.27 189.118C290.27 189.517 289.871 189.915 289.473 189.915H285.491V197.878H285.093Z" fill="black"></path><path d="M287.482 202.655C282.703 202.655 282.703 199.072 282.703 197.479V190.313H281.509C280.314 190.313 279.916 189.517 279.916 188.72C279.916 187.526 280.712 187.128 281.509 187.128H282.703V184.739C282.703 183.544 283.5 182.748 284.694 182.748C285.889 182.748 286.685 183.544 286.685 184.739V187.128H289.473C290.667 187.128 291.066 187.924 291.066 188.72C291.066 189.915 290.269 190.313 289.473 190.313H286.685V197.479C286.685 199.072 286.685 199.072 287.88 199.072H288.676C289.871 199.072 290.667 199.868 290.667 200.665C290.667 202.655 288.676 202.655 287.482 202.655Z" fill="black"></path><path d="M296.64 195.091C296.64 196.285 297.038 200.267 301.817 200.267C302.613 200.267 303.808 200.267 304.604 199.868C305.002 199.868 305.002 199.868 305.4 199.868C305.799 199.868 306.197 200.267 306.197 200.665C306.197 201.063 305.799 201.063 305.799 201.461C305.4 201.859 303.808 202.257 302.215 202.257C296.64 202.257 295.445 197.878 295.445 195.489C295.445 191.507 297.835 188.322 301.418 188.322C305.799 188.322 306.993 192.304 306.993 194.294C306.993 195.489 306.197 195.489 305.002 195.489H296.64V195.091ZM305.002 193.896C305.4 193.896 305.4 193.896 305.4 193.498C305.4 192.702 304.604 188.72 301.02 188.72C298.233 188.72 296.64 190.711 296.64 193.498H305.002V193.896Z" fill="black"></path><path d="M302.214 202.655C296.241 202.655 294.25 198.276 294.25 194.692C294.25 189.915 297.037 186.331 301.418 186.331C306.196 186.331 308.187 190.711 308.187 193.498C308.187 195.887 306.196 195.887 305.001 195.887H297.834C298.232 197.479 299.028 199.072 301.816 199.072C302.612 199.072 303.409 199.072 304.205 198.674C304.603 198.674 305.001 198.276 305.4 198.276C306.196 198.276 306.992 199.072 306.992 199.868C306.992 200.665 306.594 201.063 305.798 201.461C305.4 202.257 303.807 202.655 302.214 202.655ZM305.001 192.702V193.896V192.702ZM298.232 192.702H304.603C304.205 191.507 303.409 189.915 301.418 189.915C299.825 189.915 298.63 191.109 298.232 192.702Z" fill="black"></path><path d="M316.948 194.295L312.966 188.72L312.568 188.322C312.568 187.924 312.966 187.526 313.364 187.526C313.762 187.526 313.763 187.526 314.161 187.924L317.744 193.1L321.328 187.924C321.726 187.526 321.727 187.526 322.125 187.526C322.523 187.526 322.921 187.924 322.921 188.322C322.921 188.322 322.921 188.72 322.523 188.72L318.541 194.295L322.523 200.267C322.921 200.665 322.921 200.665 322.921 201.063C322.921 201.461 322.523 201.859 322.125 201.859C321.727 201.859 321.726 201.461 321.328 201.461L317.346 195.887L313.364 201.461C312.966 201.859 312.966 201.859 312.568 201.859C312.17 201.859 311.771 201.859 311.771 201.063C311.771 200.665 311.772 200.665 312.17 200.267L316.948 194.295Z" fill="black"></path><path d="M322.523 202.655C321.726 202.655 321.328 201.859 320.93 201.461L318.143 197.081L315.355 201.461C314.957 201.859 314.559 202.655 313.762 202.655C312.966 202.655 311.771 201.859 311.771 201.063C311.771 200.665 311.772 200.266 312.17 199.868L315.753 194.294L312.17 189.516C311.772 189.118 311.771 188.72 311.771 188.322C311.771 187.526 312.568 186.331 313.762 186.331C314.559 186.331 314.957 186.729 315.355 187.127L318.143 191.109L320.93 187.127C321.328 186.729 321.726 186.331 322.523 186.331C323.319 186.331 324.514 187.128 324.514 188.322C324.514 188.72 324.116 189.118 324.116 189.516L320.532 194.294L324.116 199.868C324.514 200.266 324.514 200.665 324.514 201.063C324.514 202.257 323.319 202.655 322.523 202.655Z" fill="black"></path><path d="M332.877 197.878C332.877 199.47 332.877 200.665 335.267 200.665H336.461C336.859 200.665 337.258 201.063 337.258 201.461C337.258 202.257 336.859 202.257 335.267 202.257C331.683 202.257 331.683 200.267 331.683 198.276V189.915H329.294C328.497 189.915 328.497 189.517 328.497 189.118C328.497 188.72 328.895 188.322 329.294 188.322H331.683V184.739C331.683 184.341 332.081 183.943 332.479 183.943C332.877 183.943 333.276 184.341 333.276 184.739V188.322H337.258C337.656 188.322 338.054 188.72 338.054 189.118C338.054 189.517 337.656 189.915 337.258 189.915H333.276V197.878H332.877Z" fill="black"></path><path d="M334.868 202.656C330.09 202.656 330.09 199.072 330.09 197.48V190.313H328.895C327.701 190.313 327.303 189.517 327.303 188.72C327.303 187.526 328.099 187.128 328.895 187.128H330.09V184.739C330.09 183.544 330.887 182.748 332.081 182.748C333.276 182.748 334.072 183.544 334.072 184.739V187.128H336.859C338.054 187.128 338.452 187.924 338.452 188.72C338.452 189.915 337.656 190.313 336.859 190.313H334.072V197.48C334.072 199.072 334.072 199.072 335.267 199.072H336.063C337.258 199.072 338.054 199.869 338.054 200.665C338.054 202.656 336.063 202.656 334.868 202.656Z" fill="black"></path><path d="M346.815 197.878C346.815 199.47 346.815 200.665 349.204 200.665H350.398C350.797 200.665 351.195 201.063 351.195 201.461C351.195 202.257 350.797 202.257 349.204 202.257C345.62 202.257 345.62 200.267 345.62 198.276V189.915H343.231C342.435 189.915 342.435 189.517 342.435 189.118C342.435 188.72 342.833 188.322 343.231 188.322H345.62V184.739C345.62 184.341 346.018 183.943 346.417 183.943C346.815 183.943 347.213 184.341 347.213 184.739V188.322H351.195C351.593 188.322 351.991 188.72 351.991 189.118C351.991 189.517 351.593 189.915 351.195 189.915H347.213V197.878H346.815Z" fill="black"></path><path d="M348.806 202.656C344.028 202.656 344.028 199.072 344.028 197.48V190.313H342.833C341.638 190.313 341.24 189.517 341.24 188.72C341.24 187.526 342.037 187.128 342.833 187.128H344.028V184.739C344.028 183.544 344.824 182.748 346.019 182.748C347.213 182.748 348.01 183.544 348.01 184.739V187.128H350.797C351.992 187.128 352.39 187.924 352.39 188.72C352.39 189.915 351.594 190.313 350.797 190.313H348.01V197.48C348.01 199.072 348.01 199.072 349.204 199.072H350.001C351.195 199.072 351.992 199.869 351.992 200.665C351.992 202.656 350.001 202.656 348.806 202.656Z" fill="black"></path><path d="M357.963 195.091C357.963 196.285 358.361 200.267 363.14 200.267C363.936 200.267 365.131 200.267 365.927 199.868C366.326 199.868 366.325 199.868 366.724 199.868C367.122 199.868 367.52 200.267 367.52 200.665C367.52 201.063 367.122 201.063 367.122 201.461C366.724 201.859 365.131 202.257 363.538 202.257C357.963 202.257 356.769 197.878 356.769 195.489C356.769 191.507 359.158 188.322 362.742 188.322C367.122 188.322 368.316 192.304 368.316 194.294C368.316 195.489 367.52 195.489 366.325 195.489H357.963V195.091ZM366.325 193.896C366.724 193.896 366.724 193.896 366.724 193.498C366.724 192.702 365.927 188.72 362.343 188.72C359.556 188.72 357.963 190.711 357.963 193.498H366.325V193.896Z" fill="black"></path><path d="M363.538 202.655C357.565 202.655 355.574 198.276 355.574 194.692C355.574 189.915 358.362 186.331 362.742 186.331C367.52 186.331 369.511 190.711 369.511 193.498C369.511 195.887 367.52 195.887 366.326 195.887H359.158C359.556 197.479 360.353 199.072 363.14 199.072C363.936 199.072 364.733 199.072 365.529 198.674C365.928 198.674 366.326 198.276 366.724 198.276C367.52 198.276 368.317 199.072 368.317 199.868C368.317 200.665 367.919 201.063 367.122 201.461C366.724 202.257 365.131 202.655 363.538 202.655ZM366.326 192.702V193.896V192.702C366.326 192.702 366.724 192.702 366.326 192.702ZM359.556 192.702H365.928C365.529 191.507 364.733 189.915 362.742 189.915C361.149 189.915 359.954 191.109 359.556 192.702Z" fill="black"></path><path d="M378.67 194.295L374.688 188.72L374.289 188.322C374.289 187.924 374.688 187.526 375.086 187.526C375.484 187.526 375.484 187.526 375.882 187.924L379.466 193.1L383.05 187.924C383.448 187.526 383.448 187.526 383.846 187.526C384.245 187.526 384.643 187.924 384.643 188.322C384.643 188.322 384.643 188.72 384.244 188.72L380.262 194.295L384.244 200.267C384.643 200.665 384.643 200.665 384.643 201.063C384.643 201.461 384.245 201.859 383.846 201.859C383.448 201.859 383.448 201.461 383.05 201.461L379.068 195.887L375.086 201.461C374.688 201.859 374.688 201.859 374.289 201.859C373.891 201.859 373.493 201.859 373.493 201.063C373.493 200.665 373.493 200.665 373.891 200.267L378.67 194.295Z" fill="black"></path><path d="M383.847 202.655C383.051 202.655 382.652 201.859 382.254 201.461L379.467 197.081L376.679 201.461C376.281 201.859 375.883 202.655 375.087 202.655C374.29 202.655 373.096 201.859 373.096 201.063C373.096 200.665 373.096 200.266 373.494 199.868L377.078 194.294L373.494 189.516C373.096 189.118 373.096 188.72 373.096 188.322C373.096 187.526 373.892 186.331 375.087 186.331C375.883 186.331 376.281 187.127 376.679 187.526L379.467 191.507L382.254 187.526C382.652 187.127 383.051 186.729 383.847 186.729C384.644 186.729 385.838 187.526 385.838 188.72C385.838 189.118 385.44 189.516 385.44 189.915L381.856 194.692L385.44 200.266C385.838 200.665 385.838 201.063 385.838 201.461C385.838 202.257 384.644 202.655 383.847 202.655Z" fill="black"></path><path d="M394.198 197.878C394.198 199.47 394.198 200.665 396.588 200.665H397.782C398.181 200.665 398.579 201.063 398.579 201.461C398.579 202.257 398.18 202.257 396.588 202.257C393.004 202.257 393.004 200.267 393.004 198.276V189.915H390.615C389.818 189.915 389.818 189.517 389.818 189.118C389.818 188.72 390.216 188.322 390.615 188.322H393.004V184.739C393.004 184.341 393.402 183.943 393.8 183.943C394.199 183.943 394.597 184.341 394.597 184.739V188.322H398.579C398.977 188.322 399.375 188.72 399.375 189.118C399.375 189.517 398.977 189.915 398.579 189.915H394.597V197.878H394.198Z" fill="black"></path><path d="M396.19 202.656C391.411 202.656 391.411 199.072 391.411 197.48V190.313H390.217C389.022 190.313 388.624 189.517 388.624 188.72C388.624 187.526 389.42 187.128 390.217 187.128H391.411V184.739C391.411 183.544 392.208 182.748 393.402 182.748C394.597 182.748 395.393 183.544 395.393 184.739V187.128H398.181C399.375 187.128 399.774 187.924 399.774 188.72C399.774 189.915 398.977 190.313 398.181 190.313H395.393V197.48C395.393 199.072 395.393 199.072 396.588 199.072H397.384C398.579 199.072 399.375 199.869 399.375 200.665C399.375 202.656 397.384 202.656 396.19 202.656Z" fill="black"></path><path d="M408.136 197.878C408.136 199.47 408.136 200.665 410.525 200.665H411.72C412.118 200.665 412.516 201.063 412.516 201.461C412.516 202.257 412.118 202.257 410.525 202.257C406.941 202.257 406.941 200.267 406.941 198.276V189.915H404.552C403.756 189.915 403.756 189.517 403.756 189.118C403.756 188.72 404.154 188.322 404.552 188.322H406.941V184.739C406.941 184.341 407.34 183.943 407.738 183.943C408.136 183.943 408.534 184.341 408.534 184.739V188.322H412.516C412.914 188.322 413.313 188.72 413.313 189.118C413.313 189.517 412.914 189.915 412.516 189.915H408.534V197.878H408.136Z" fill="black"></path><path d="M410.127 202.656C405.349 202.656 405.349 199.072 405.349 197.48V190.313H404.154C402.96 190.313 402.562 189.517 402.562 188.72C402.562 187.526 403.358 187.128 404.154 187.128H405.349V184.739C405.349 183.544 406.145 182.748 407.34 182.748C408.535 182.748 409.331 183.544 409.331 184.739V187.128H412.118C413.313 187.128 413.711 187.924 413.711 188.72C413.711 189.915 412.915 190.313 412.118 190.313H408.933V197.48C408.933 199.072 408.933 199.072 410.127 199.072H410.924C412.118 199.072 412.915 199.869 412.915 200.665C413.313 202.656 411.322 202.656 410.127 202.656Z" fill="black"></path><path d="M419.287 195.091C419.287 196.285 419.686 200.267 424.464 200.267C425.26 200.267 426.455 200.267 427.251 199.868C427.65 199.868 427.65 199.868 428.048 199.868C428.446 199.868 428.844 200.267 428.844 200.665C428.844 201.063 428.446 201.063 428.446 201.461C428.048 201.859 426.455 202.257 424.862 202.257C419.287 202.257 418.093 197.878 418.093 195.489C418.093 191.507 420.482 188.322 424.066 188.322C428.446 188.322 429.641 192.304 429.641 194.294C429.641 195.489 428.844 195.489 427.65 195.489H419.287V195.091ZM427.65 193.896C428.048 193.896 428.048 193.896 428.048 193.498C428.048 192.702 427.251 188.72 423.668 188.72C420.88 188.72 419.287 190.711 419.287 193.498H427.65V193.896Z" fill="black"></path><path d="M424.862 202.655C418.889 202.655 416.898 198.276 416.898 194.692C416.898 189.915 419.686 186.331 424.066 186.331C428.844 186.331 430.835 190.711 430.835 193.498C430.835 195.887 428.844 195.887 427.65 195.887H420.88C421.279 197.479 422.075 199.072 424.862 199.072C425.659 199.072 426.455 199.072 427.252 198.674C427.65 198.674 428.048 198.276 428.446 198.276C429.243 198.276 430.039 199.072 430.039 199.868C430.039 200.665 429.641 201.063 428.844 201.461C428.048 202.257 426.455 202.655 424.862 202.655ZM427.65 192.702V193.896V192.702C428.048 192.702 428.048 192.702 427.65 192.702ZM420.88 192.702H427.252C426.853 191.507 426.057 189.915 424.066 189.915C422.473 189.915 421.279 191.109 420.88 192.702Z" fill="black"></path><path d="M439.991 194.295L436.009 188.72L435.611 188.322C435.611 187.924 436.009 187.526 436.407 187.526C436.805 187.526 436.805 187.526 437.204 187.924L440.787 193.1L444.371 187.924C444.769 187.526 444.769 187.526 445.168 187.526C445.566 187.526 445.964 187.924 445.964 188.322C445.964 188.322 445.964 188.72 445.566 188.72L441.584 194.295L445.566 200.267C445.964 200.665 445.964 200.665 445.964 201.063C445.964 201.461 445.566 201.859 445.168 201.859C444.769 201.859 444.769 201.461 444.371 201.461L440.389 195.887L436.407 201.461C436.009 201.859 436.009 201.859 435.611 201.859C435.213 201.859 434.814 201.859 434.814 201.063C434.814 200.665 434.814 200.665 435.213 200.267L439.991 194.295Z" fill="black"></path><path d="M445.168 202.655C444.372 202.655 443.974 201.859 443.576 201.461L440.788 197.081L438.001 201.461C437.603 201.859 437.204 202.655 436.408 202.655C435.612 202.655 434.417 201.859 434.417 201.063C434.417 200.665 434.417 200.266 434.815 199.868L438.399 194.294L434.815 189.516C434.417 189.118 434.417 188.72 434.417 188.322C434.417 187.526 435.213 186.331 436.408 186.331C437.204 186.331 437.603 187.127 438.001 187.526L440.788 191.507L443.576 187.526C443.974 187.127 444.372 186.729 445.168 186.729C445.965 186.729 447.159 187.526 447.159 188.72C447.159 189.118 446.761 189.516 446.761 189.915L443.177 194.692L446.761 200.266C447.159 200.665 447.159 201.063 447.159 201.461C447.159 202.257 445.965 202.655 445.168 202.655Z" fill="black"></path><path d="M455.523 197.878C455.523 199.47 455.523 200.665 457.912 200.665H459.107C459.505 200.665 459.903 201.063 459.903 201.461C459.903 202.257 459.505 202.257 457.912 202.257C454.328 202.257 454.328 200.267 454.328 198.276V189.915H451.939C451.143 189.915 451.143 189.517 451.143 189.118C451.143 188.72 451.541 188.322 451.939 188.322H454.328V184.739C454.328 184.341 454.726 183.943 455.125 183.943C455.523 183.943 455.921 184.341 455.921 184.739V188.322H459.903C460.301 188.322 460.699 188.72 460.699 189.118C460.699 189.517 460.301 189.915 459.903 189.915H455.921V197.878H455.523Z" fill="black"></path><path d="M457.514 202.656C452.736 202.656 452.736 199.072 452.736 197.48V190.313H451.541C450.347 190.313 449.948 189.517 449.948 188.72C449.948 187.526 450.745 187.128 451.541 187.128H452.736V184.739C452.736 183.544 453.532 182.748 454.727 182.748C455.921 182.748 456.718 183.544 456.718 184.739V187.128H459.505C460.7 187.128 461.098 187.924 461.098 188.72C461.098 189.915 460.302 190.313 459.505 190.313H456.718V197.48C456.718 199.072 456.718 199.072 457.912 199.072H458.709C459.903 199.072 460.7 199.869 460.7 200.665C460.7 202.656 458.709 202.656 457.514 202.656Z" fill="black"></path><path d="M469.46 197.878C469.46 199.47 469.46 200.665 471.849 200.665H473.044C473.442 200.665 473.84 201.063 473.84 201.461C473.84 202.257 473.442 202.257 471.849 202.257C468.266 202.257 468.266 200.267 468.266 198.276V189.915H465.876C465.08 189.915 465.08 189.517 465.08 189.118C465.08 188.72 465.478 188.322 465.876 188.322H468.266V184.739C468.266 184.341 468.664 183.943 469.062 183.943C469.46 183.943 469.858 184.341 469.858 184.739V188.322H473.84C474.238 188.322 474.637 188.72 474.637 189.118C474.637 189.517 474.238 189.915 473.84 189.915H469.858V197.878H469.46Z" fill="black"></path><path d="M471.452 202.656C466.673 202.656 466.673 199.072 466.673 197.48V190.313H465.479C464.284 190.313 463.886 189.517 463.886 188.72C463.886 187.526 464.682 187.128 465.479 187.128H466.673V184.739C466.673 183.544 467.47 182.748 468.664 182.748C469.859 182.748 470.655 183.544 470.655 184.739V187.128H473.443C474.637 187.128 475.035 187.924 475.035 188.72C475.035 189.915 474.239 190.313 473.443 190.313H470.655V197.48C470.655 199.072 470.655 199.072 471.85 199.072H472.646C473.841 199.072 474.637 199.869 474.637 200.665C474.637 202.656 472.646 202.656 471.452 202.656Z" fill="black"></path><path d="M480.609 195.091C480.609 196.285 481.007 200.267 485.785 200.267C486.582 200.267 487.776 200.267 488.573 199.868C488.971 199.868 488.971 199.868 489.369 199.868C489.767 199.868 490.165 200.267 490.165 200.665C490.165 201.063 489.767 201.063 489.767 201.461C489.369 201.859 487.776 202.257 486.183 202.257C480.609 202.257 479.414 197.878 479.414 195.489C479.414 191.507 481.803 188.322 485.387 188.322C489.767 188.322 490.962 192.304 490.962 194.294C490.962 195.489 490.165 195.489 488.971 195.489H480.609V195.091ZM489.369 193.896C489.767 193.896 489.767 193.896 489.767 193.498C489.767 192.702 488.971 188.72 485.387 188.72C482.6 188.72 481.007 190.711 481.007 193.498H489.369V193.896Z" fill="black"></path><path d="M486.184 202.655C480.211 202.655 478.22 198.276 478.22 194.692C478.22 189.915 481.007 186.331 485.387 186.331C490.166 186.331 492.157 190.711 492.157 193.498C492.157 195.887 490.166 195.887 488.971 195.887H481.804C482.202 197.878 483.396 199.072 485.786 199.072C486.582 199.072 487.378 199.072 488.175 198.674C488.573 198.674 488.971 198.276 489.37 198.276C490.166 198.276 490.962 199.072 490.962 199.868C490.962 200.665 490.564 201.063 489.768 201.461C489.369 202.257 487.777 202.655 486.184 202.655ZM489.37 192.702V193.896V192.702ZM482.202 192.702H488.573C488.175 191.507 487.379 189.915 485.387 189.915C483.795 189.915 482.6 191.109 482.202 192.702Z" fill="black"></path><path d="M501.315 194.295L497.333 188.72L496.935 188.322C496.935 187.924 497.333 187.526 497.731 187.526C498.13 187.526 498.13 187.526 498.528 187.924L502.112 193.1L505.695 187.924C506.094 187.526 506.094 187.526 506.492 187.526C506.89 187.526 507.288 187.924 507.288 188.322C507.288 188.322 507.288 188.72 506.89 188.72L502.908 194.295L506.89 200.267C507.288 200.665 507.288 200.665 507.288 201.063C507.288 201.461 506.89 201.859 506.492 201.859C506.094 201.859 506.094 201.461 505.695 201.461L501.713 195.887L497.731 201.461C497.333 201.859 497.333 201.859 496.935 201.859C496.537 201.859 496.139 201.859 496.139 201.063C496.139 200.665 496.139 200.665 496.537 200.267L501.315 194.295Z" fill="black"></path><path d="M506.493 202.655C505.696 202.655 505.298 201.859 504.9 201.461L502.112 197.081L499.325 201.461C498.927 201.859 498.529 202.655 497.732 202.655C496.936 202.655 495.741 201.859 495.741 201.063C495.741 200.665 495.741 200.266 496.139 199.868L499.723 194.294L496.139 189.516C495.741 189.118 495.741 188.72 495.741 188.322C495.741 187.526 496.538 186.331 497.732 186.331C498.529 186.331 498.927 187.127 499.325 187.526L502.112 191.507L504.9 187.526C505.298 187.127 505.696 186.729 506.493 186.729C507.289 186.729 508.484 187.526 508.484 188.72C508.484 189.118 508.085 189.516 508.085 189.915L504.502 194.692L508.085 200.266C508.484 200.665 508.484 201.063 508.484 201.461C508.484 202.257 507.289 202.655 506.493 202.655Z" fill="black"></path><path d="M516.844 197.878C516.844 199.47 516.844 200.665 519.233 200.665H520.428C520.826 200.665 521.224 201.063 521.224 201.461C521.224 202.257 520.826 202.257 519.233 202.257C515.65 202.257 515.649 200.267 515.649 198.276V189.915H513.26C512.464 189.915 512.464 189.517 512.464 189.118C512.464 188.72 512.862 188.322 513.26 188.322H515.649V184.739C515.649 184.341 516.048 183.943 516.446 183.943C516.844 183.943 517.242 184.341 517.242 184.739V188.322H521.224C521.623 188.322 522.021 188.72 522.021 189.118C522.021 189.517 521.623 189.915 521.224 189.915H517.242V197.878H516.844Z" fill="black"></path><path d="M518.835 202.656C514.057 202.656 514.057 199.072 514.057 197.48V190.313H512.862C511.668 190.313 511.27 189.517 511.27 188.72C511.27 187.526 512.066 187.128 512.862 187.128H514.057V184.739C514.057 183.544 514.853 182.748 516.048 182.748C517.242 182.748 518.039 183.544 518.039 184.739V187.128H520.826C522.021 187.128 522.419 187.924 522.419 188.72C522.419 189.915 521.623 190.313 520.826 190.313H518.039V197.48C518.039 199.072 518.039 199.072 519.233 199.072H520.03C521.224 199.072 522.021 199.869 522.021 200.665C522.021 202.656 520.03 202.656 518.835 202.656Z" fill="black"></path><path d="M285.093 237.692C285.093 239.284 285.093 240.479 287.482 240.479H288.677C289.075 240.479 289.473 240.877 289.473 241.275C289.473 242.072 289.075 242.071 287.482 242.071C283.898 242.071 283.898 240.081 283.898 238.09V229.729H281.509C280.713 229.729 280.713 229.331 280.713 228.933C280.713 228.535 281.111 228.136 281.509 228.136H283.898V224.553C283.898 224.155 284.297 223.757 284.695 223.757C285.093 223.757 285.491 224.155 285.491 224.553V228.136H289.473C289.871 228.136 290.27 228.535 290.27 228.933C290.27 229.331 289.871 229.729 289.473 229.729H285.491V237.692H285.093Z" fill="black"></path><path d="M287.482 242.868C282.703 242.868 282.703 239.284 282.703 237.692V230.525H281.509C280.314 230.525 279.916 229.729 279.916 228.933C279.916 227.738 280.712 227.34 281.509 227.34H282.703V224.951C282.703 223.757 283.5 222.961 284.694 222.961C285.889 222.961 286.685 223.757 286.685 224.951V227.34H289.473C290.667 227.34 291.066 228.136 291.066 228.933C291.066 230.127 290.269 230.525 289.473 230.525H286.685V237.692C286.685 239.284 286.685 239.285 287.88 239.285H288.676C289.871 239.285 290.667 240.081 290.667 240.877C290.667 242.868 288.676 242.868 287.482 242.868Z" fill="black"></path><path d="M296.64 234.905C296.64 236.099 297.038 240.081 301.817 240.081C302.613 240.081 303.808 240.081 304.604 239.683C305.002 239.683 305.002 239.683 305.4 239.683C305.799 239.683 306.197 240.081 306.197 240.479C306.197 240.877 305.799 240.877 305.799 241.275C305.4 241.673 303.808 242.071 302.215 242.071C296.64 242.071 295.445 237.692 295.445 235.303C295.445 231.322 297.835 228.136 301.418 228.136C305.799 228.136 306.993 232.118 306.993 234.108C306.993 235.303 306.197 235.303 305.002 235.303H296.64V234.905ZM305.002 233.71C305.4 233.71 305.4 233.711 305.4 233.312C305.4 232.516 304.604 228.535 301.02 228.535C298.233 228.535 296.64 230.525 296.64 233.312H305.002V233.71Z" fill="black"></path><path d="M302.214 242.868C296.241 242.868 294.25 238.488 294.25 234.905C294.25 230.127 297.037 226.544 301.418 226.544C306.196 226.544 308.187 230.924 308.187 233.711C308.187 236.1 306.196 236.099 305.001 236.099H297.834C298.232 237.692 299.028 239.285 301.816 239.285C302.612 239.285 303.409 239.285 304.205 238.887C304.603 238.887 305.001 238.488 305.4 238.488C306.196 238.488 306.992 239.285 306.992 240.081C306.992 240.877 306.594 241.275 305.798 241.674C305.4 242.47 303.807 242.868 302.214 242.868ZM305.001 232.516V233.711V232.516ZM298.232 232.516H304.603C304.205 231.322 303.409 229.729 301.418 229.729C299.825 230.127 298.63 230.924 298.232 232.516Z" fill="black"></path><path d="M316.948 234.507L312.966 228.933L312.568 228.535C312.568 228.137 312.966 227.739 313.364 227.739C313.762 227.739 313.763 227.738 314.161 228.137L317.744 233.313L321.328 228.137C321.726 227.738 321.727 227.739 322.125 227.739C322.523 227.739 322.921 228.137 322.921 228.535C322.921 228.535 322.921 228.933 322.523 228.933L318.541 234.507L322.523 240.479C322.921 240.877 322.921 240.877 322.921 241.276C322.921 241.674 322.523 242.072 322.125 242.072C321.727 242.072 321.726 241.674 321.328 241.674L317.346 236.099L313.364 241.674C312.966 242.072 312.966 242.072 312.568 242.072C312.17 242.072 311.771 242.072 311.771 241.276C311.771 240.877 311.772 240.877 312.17 240.479L316.948 234.507Z" fill="black"></path><path d="M322.523 242.868C321.726 242.868 321.328 242.072 320.93 241.674L318.143 237.294L315.355 241.674C314.957 242.072 314.559 242.868 313.762 242.868C312.966 242.868 311.771 242.072 311.771 241.276C311.771 240.877 311.772 240.479 312.17 240.081L315.753 234.507L312.17 229.729C311.772 229.331 311.771 228.933 311.771 228.535C311.771 227.738 312.568 226.544 313.762 226.544C314.559 226.544 314.957 226.942 315.355 227.34L318.143 231.322L320.93 227.34C321.328 226.942 321.726 226.544 322.523 226.544C323.319 226.544 324.514 227.34 324.514 228.535C324.514 228.933 324.116 229.331 324.116 229.729L320.532 234.507L324.116 240.081C324.514 240.479 324.514 240.877 324.514 241.276C324.514 242.072 323.319 242.868 322.523 242.868Z" fill="black"></path><path d="M332.877 237.692C332.877 239.284 332.877 240.479 335.267 240.479H336.461C336.859 240.479 337.258 240.877 337.258 241.275C337.258 242.072 336.859 242.071 335.267 242.071C331.683 242.071 331.683 240.081 331.683 238.09V229.729H329.294C328.497 229.729 328.497 229.331 328.497 228.933C328.497 228.535 328.895 228.136 329.294 228.136H331.683V224.553C331.683 224.155 332.081 223.757 332.479 223.757C332.877 223.757 333.276 224.155 333.276 224.553V228.136H337.258C337.656 228.136 338.054 228.535 338.054 228.933C338.054 229.331 337.656 229.729 337.258 229.729H333.276V237.692H332.877Z" fill="black"></path><path d="M334.868 242.868C330.09 242.868 330.09 239.284 330.09 237.692V230.525H328.895C327.701 230.525 327.303 229.729 327.303 228.933C327.303 227.738 328.099 227.34 328.895 227.34H330.09V224.951C330.09 223.757 330.887 222.961 332.081 222.961C333.276 222.961 334.072 223.757 334.072 224.951V227.34H336.859C338.054 227.34 338.452 228.136 338.452 228.933C338.452 230.127 337.656 230.525 336.859 230.525H334.072V237.692C334.072 239.284 334.072 239.285 335.267 239.285H336.063C337.258 239.285 338.054 240.081 338.054 240.877C338.054 242.868 336.063 242.868 334.868 242.868Z" fill="black"></path><path d="M346.815 237.692C346.815 239.284 346.815 240.479 349.204 240.479H350.398C350.797 240.479 351.195 240.877 351.195 241.275C351.195 242.072 350.797 242.071 349.204 242.071C345.62 242.071 345.62 240.081 345.62 238.09V229.729H343.231C342.435 229.729 342.435 229.331 342.435 228.933C342.435 228.535 342.833 228.136 343.231 228.136H345.62V224.553C345.62 224.155 346.018 223.757 346.417 223.757C346.815 223.757 347.213 224.155 347.213 224.553V228.136H351.195C351.593 228.136 351.991 228.535 351.991 228.933C351.991 229.331 351.593 229.729 351.195 229.729H347.213V237.692H346.815Z" fill="black"></path><path d="M348.806 242.868C344.028 242.868 344.028 239.284 344.028 237.692V230.525H342.833C341.638 230.525 341.24 229.729 341.24 228.933C341.24 227.738 342.037 227.34 342.833 227.34H344.028V224.951C344.028 223.757 344.824 222.961 346.019 222.961C347.213 222.961 348.01 223.757 348.01 224.951V227.34H350.797C351.992 227.34 352.39 228.136 352.39 228.933C352.39 230.127 351.594 230.525 350.797 230.525H348.01V237.692C348.01 239.284 348.01 239.285 349.204 239.285H350.001C351.195 239.285 351.992 240.081 351.992 240.877C351.992 242.868 350.001 242.868 348.806 242.868Z" fill="black"></path><path d="M357.963 234.905C357.963 236.099 358.361 240.081 363.14 240.081C363.936 240.081 365.131 240.081 365.927 239.683C366.326 239.683 366.325 239.683 366.724 239.683C367.122 239.683 367.52 240.081 367.52 240.479C367.52 240.877 367.122 240.877 367.122 241.275C366.724 241.673 365.131 242.071 363.538 242.071C357.963 242.071 356.769 237.692 356.769 235.303C356.769 231.322 359.158 228.136 362.742 228.136C367.122 228.136 368.316 232.118 368.316 234.108C368.316 235.303 367.52 235.303 366.325 235.303H357.963V234.905ZM366.325 233.71C366.724 233.71 366.724 233.711 366.724 233.312C366.724 232.516 365.927 228.535 362.343 228.535C359.556 228.535 357.963 230.525 357.963 233.312H366.325V233.71Z" fill="black"></path><path d="M363.538 242.868C357.565 242.868 355.574 238.488 355.574 234.905C355.574 230.127 358.362 226.544 362.742 226.544C367.52 226.544 369.511 230.924 369.511 233.711C369.511 236.1 367.52 236.099 366.326 236.099H359.158C359.556 237.692 360.353 239.285 363.14 239.285C363.936 239.285 364.733 239.285 365.529 238.887C365.928 238.887 366.326 238.488 366.724 238.488C367.52 238.488 368.317 239.285 368.317 240.081C368.317 240.877 367.919 241.275 367.122 241.674C366.724 242.47 365.131 242.868 363.538 242.868ZM366.326 232.516V233.711V232.516C366.326 232.516 366.724 232.516 366.326 232.516ZM359.556 232.516H365.928C365.529 231.322 364.733 229.729 362.742 229.729C361.149 230.127 359.954 230.924 359.556 232.516Z" fill="black"></path><path d="M378.67 234.507L374.688 228.933L374.289 228.535C374.289 228.137 374.688 227.739 375.086 227.739C375.484 227.739 375.484 227.738 375.882 228.137L379.466 233.313L383.05 228.137C383.448 227.738 383.448 227.739 383.846 227.739C384.245 227.739 384.643 228.137 384.643 228.535C384.643 228.535 384.643 228.933 384.244 228.933L380.262 234.507L384.244 240.479C384.643 240.877 384.643 240.877 384.643 241.276C384.643 241.674 384.245 242.072 383.846 242.072C383.448 242.072 383.448 241.674 383.05 241.674L379.068 236.099L375.086 241.674C374.688 242.072 374.688 242.072 374.289 242.072C373.891 242.072 373.493 242.072 373.493 241.276C373.493 240.877 373.493 240.877 373.891 240.479L378.67 234.507Z" fill="black"></path><path d="M383.847 242.868C383.051 242.868 382.652 242.072 382.254 241.674L379.467 237.294L376.679 241.674C376.281 242.072 375.883 242.868 375.087 242.868C374.29 242.868 373.096 242.072 373.096 241.276C373.096 240.877 373.096 240.479 373.494 240.081L377.078 234.507L373.494 229.729C373.096 229.331 373.096 228.933 373.096 228.535C373.096 227.738 373.892 226.544 375.087 226.544C375.883 226.544 376.281 227.34 376.679 227.738L379.467 231.72L382.254 227.738C382.652 227.34 383.051 226.942 383.847 226.942C384.644 226.942 385.838 227.738 385.838 228.933C385.838 229.331 385.44 229.729 385.44 230.127L381.856 234.905L385.44 240.479C385.838 240.877 385.838 241.275 385.838 241.674C385.838 242.072 384.644 242.868 383.847 242.868Z" fill="black"></path><path d="M394.198 237.692C394.198 239.284 394.198 240.479 396.588 240.479H397.782C398.181 240.479 398.579 240.877 398.579 241.275C398.579 242.072 398.18 242.071 396.588 242.071C393.004 242.071 393.004 240.081 393.004 238.09V229.729H390.615C389.818 229.729 389.818 229.331 389.818 228.933C389.818 228.535 390.216 228.136 390.615 228.136H393.004V224.553C393.004 224.155 393.402 223.757 393.8 223.757C394.199 223.757 394.597 224.155 394.597 224.553V228.136H398.579C398.977 228.136 399.375 228.535 399.375 228.933C399.375 229.331 398.977 229.729 398.579 229.729H394.597V237.692H394.198Z" fill="black"></path><path d="M396.19 242.868C391.411 242.868 391.411 239.284 391.411 237.692V230.525H390.217C389.022 230.525 388.624 229.729 388.624 228.933C388.624 227.738 389.42 227.34 390.217 227.34H391.411V224.951C391.411 223.757 392.208 222.961 393.402 222.961C394.597 222.961 395.393 223.757 395.393 224.951V227.34H398.181C399.375 227.34 399.774 228.136 399.774 228.933C399.774 230.127 398.977 230.525 398.181 230.525H395.393V237.692C395.393 239.284 395.393 239.285 396.588 239.285H397.384C398.579 239.285 399.375 240.081 399.375 240.877C399.375 242.868 397.384 242.868 396.19 242.868Z" fill="black"></path><path d="M408.136 237.692C408.136 239.284 408.136 240.479 410.525 240.479H411.72C412.118 240.479 412.516 240.877 412.516 241.275C412.516 242.072 412.118 242.071 410.525 242.071C406.941 242.071 406.941 240.081 406.941 238.09V229.729H404.552C403.756 229.729 403.756 229.331 403.756 228.933C403.756 228.535 404.154 228.136 404.552 228.136H406.941V224.553C406.941 224.155 407.34 223.757 407.738 223.757C408.136 223.757 408.534 224.155 408.534 224.553V228.136H412.516C412.914 228.136 413.313 228.535 413.313 228.933C413.313 229.331 412.914 229.729 412.516 229.729H408.534V237.692H408.136Z" fill="black"></path><path d="M410.127 242.868C405.349 242.868 405.349 239.284 405.349 237.692V230.525H404.154C402.96 230.525 402.562 229.729 402.562 228.933C402.562 227.738 403.358 227.34 404.154 227.34H405.349V224.951C405.349 223.757 406.145 222.961 407.34 222.961C408.535 222.961 409.331 223.757 409.331 224.951V227.34H412.118C413.313 227.34 413.711 228.136 413.711 228.933C413.711 230.127 412.915 230.525 412.118 230.525H408.933V237.692C408.933 239.284 408.933 239.285 410.127 239.285H410.924C412.118 239.285 412.915 240.081 412.915 240.877C413.313 242.868 411.322 242.868 410.127 242.868Z" fill="black"></path><path d="M419.287 234.905C419.287 236.099 419.686 240.081 424.464 240.081C425.26 240.081 426.455 240.081 427.251 239.683C427.65 239.683 427.65 239.683 428.048 239.683C428.446 239.683 428.844 240.081 428.844 240.479C428.844 240.877 428.446 240.877 428.446 241.275C428.048 241.673 426.455 242.071 424.862 242.071C419.287 242.071 418.093 237.692 418.093 235.303C418.093 231.322 420.482 228.136 424.066 228.136C428.446 228.136 429.641 232.118 429.641 234.108C429.641 235.303 428.844 235.303 427.65 235.303H419.287V234.905ZM427.65 233.71C428.048 233.71 428.048 233.711 428.048 233.312C428.048 232.516 427.251 228.535 423.668 228.535C420.88 228.535 419.287 230.525 419.287 233.312H427.65V233.71Z" fill="black"></path><path d="M424.862 242.868C418.889 242.868 416.898 238.488 416.898 234.905C416.898 230.127 419.686 226.544 424.066 226.544C428.844 226.544 430.835 230.924 430.835 233.711C430.835 236.1 428.844 236.099 427.65 236.099H420.88C421.279 237.692 422.075 239.285 424.862 239.285C425.659 239.285 426.455 239.285 427.252 238.887C427.65 238.887 428.048 238.488 428.446 238.488C429.243 238.488 430.039 239.285 430.039 240.081C430.039 240.877 429.641 241.275 428.844 241.674C428.048 242.47 426.455 242.868 424.862 242.868ZM427.65 232.516V233.711V232.516C428.048 232.516 428.048 232.516 427.65 232.516ZM420.88 232.516H427.252C426.853 231.322 426.057 229.729 424.066 229.729C422.473 230.127 421.279 230.924 420.88 232.516Z" fill="black"></path><path d="M439.991 234.507L436.009 228.933L435.611 228.535C435.611 228.137 436.009 227.739 436.407 227.739C436.805 227.739 436.805 227.738 437.204 228.137L440.787 233.313L444.371 228.137C444.769 227.738 444.769 227.739 445.168 227.739C445.566 227.739 445.964 228.137 445.964 228.535C445.964 228.535 445.964 228.933 445.566 228.933L441.584 234.507L445.566 240.479C445.964 240.877 445.964 240.877 445.964 241.276C445.964 241.674 445.566 242.072 445.168 242.072C444.769 242.072 444.769 241.674 444.371 241.674L440.389 236.099L436.407 241.674C436.009 242.072 436.009 242.072 435.611 242.072C435.213 242.072 434.814 242.072 434.814 241.276C434.814 240.877 434.814 240.877 435.213 240.479L439.991 234.507Z" fill="black"></path><path d="M445.168 242.868C444.372 242.868 443.974 242.072 443.576 241.674L440.788 237.294L438.001 241.674C437.603 242.072 437.204 242.868 436.408 242.868C435.612 242.868 434.417 242.072 434.417 241.276C434.417 240.877 434.417 240.479 434.815 240.081L438.399 234.507L434.815 229.729C434.417 229.331 434.417 228.933 434.417 228.535C434.417 227.738 435.213 226.544 436.408 226.544C437.204 226.544 437.603 227.34 438.001 227.738L440.788 231.72L443.576 227.738C443.974 227.34 444.372 226.942 445.168 226.942C445.965 226.942 447.159 227.738 447.159 228.933C447.159 229.331 446.761 229.729 446.761 230.127L443.177 234.905L446.761 240.479C447.159 240.877 447.159 241.275 447.159 241.674C447.159 242.072 445.965 242.868 445.168 242.868Z" fill="black"></path><path d="M455.523 237.692C455.523 239.284 455.523 240.479 457.912 240.479H459.107C459.505 240.479 459.903 240.877 459.903 241.275C459.903 242.072 459.505 242.071 457.912 242.071C454.328 242.071 454.328 240.081 454.328 238.09V229.729H451.939C451.143 229.729 451.143 229.331 451.143 228.933C451.143 228.535 451.541 228.136 451.939 228.136H454.328V224.553C454.328 224.155 454.726 223.757 455.125 223.757C455.523 223.757 455.921 224.155 455.921 224.553V228.136H459.903C460.301 228.136 460.699 228.535 460.699 228.933C460.699 229.331 460.301 229.729 459.903 229.729H455.921V237.692H455.523Z" fill="black"></path><path d="M457.514 242.868C452.736 242.868 452.736 239.284 452.736 237.692V230.525H451.541C450.347 230.525 449.948 229.729 449.948 228.933C449.948 227.738 450.745 227.34 451.541 227.34H452.736V224.951C452.736 223.757 453.532 222.961 454.727 222.961C455.921 222.961 456.718 223.757 456.718 224.951V227.34H459.505C460.7 227.34 461.098 228.136 461.098 228.933C461.098 230.127 460.302 230.525 459.505 230.525H456.718V237.692C456.718 239.284 456.718 239.285 457.912 239.285H458.709C459.903 239.285 460.7 240.081 460.7 240.877C460.7 242.868 458.709 242.868 457.514 242.868Z" fill="black"></path><path d="M285.093 277.506C285.093 279.099 285.093 280.293 287.482 280.293H288.677C289.075 280.293 289.473 280.692 289.473 281.09C289.473 281.886 289.075 281.886 287.482 281.886C283.898 281.886 283.898 279.895 283.898 277.904V269.543H281.509C280.713 269.543 280.713 269.145 280.713 268.747C280.713 268.349 281.111 267.951 281.509 267.951H283.898V264.368C283.898 263.969 284.297 263.571 284.695 263.571C285.093 263.571 285.491 263.969 285.491 264.368V267.951H289.473C289.871 267.951 290.27 268.349 290.27 268.747C290.27 269.145 289.871 269.543 289.473 269.543H285.491V277.506H285.093Z" fill="black"></path><path d="M287.482 282.682C282.703 282.682 282.703 279.099 282.703 277.506V270.34H281.509C280.314 270.34 279.916 269.543 279.916 268.747C279.916 267.553 280.712 267.155 281.509 267.155H282.703V264.766C282.703 263.571 283.5 262.775 284.694 262.775C285.889 262.775 286.685 263.571 286.685 264.766V267.155H289.473C290.667 267.155 291.066 267.951 291.066 268.747C291.066 269.941 290.269 270.34 289.473 270.34H286.685V277.506C286.685 279.099 286.685 279.099 287.88 279.099H288.676C289.871 279.099 290.667 279.895 290.667 280.691C290.667 282.682 288.676 282.682 287.482 282.682Z" fill="black"></path><path d="M296.64 275.118C296.64 276.312 297.038 280.294 301.817 280.294C302.613 280.294 303.808 280.294 304.604 279.895C305.002 279.895 305.002 279.895 305.4 279.895C305.799 279.895 306.197 280.294 306.197 280.692C306.197 281.09 305.799 281.09 305.799 281.488C305.4 281.886 303.808 282.284 302.215 282.284C296.64 282.284 295.445 277.905 295.445 275.516C295.445 271.535 297.835 268.349 301.418 268.349C305.799 268.349 306.993 272.331 306.993 274.322C306.993 275.516 306.197 275.516 305.002 275.516H296.64V275.118ZM305.002 273.923C305.4 273.923 305.4 273.923 305.4 273.525C305.4 272.729 304.604 268.747 301.02 268.747C298.233 268.747 296.64 270.738 296.64 273.525H305.002V273.923Z" fill="black"></path><path d="M302.214 282.682C296.241 282.682 294.25 278.303 294.25 274.72C294.25 269.942 297.037 266.359 301.418 266.359C306.196 266.359 308.187 270.738 308.187 273.525C308.187 275.914 306.196 275.914 305.001 275.914H297.834C298.232 277.507 299.028 279.099 301.816 279.099C302.612 279.099 303.409 279.099 304.205 278.701C304.603 278.701 305.001 278.303 305.4 278.303C306.196 278.303 306.992 279.099 306.992 279.895C306.992 280.692 306.594 281.09 305.798 281.488C305.4 282.284 303.807 282.682 302.214 282.682ZM305.001 272.729V273.923V272.729ZM298.232 272.729H304.603C304.205 271.534 303.409 269.942 301.418 269.942C299.825 269.942 298.63 271.136 298.232 272.729Z" fill="black"></path><path d="M316.948 274.322L312.966 268.748L312.568 268.35C312.568 267.952 312.966 267.553 313.364 267.553C313.762 267.553 313.763 267.553 314.161 267.951L317.744 273.127L321.328 267.951C321.726 267.553 321.727 267.553 322.125 267.553C322.523 267.553 322.921 267.952 322.921 268.35C322.921 268.35 322.921 268.748 322.523 268.748L318.541 274.322L322.523 280.294C322.921 280.692 322.921 280.692 322.921 281.09C322.921 281.488 322.523 281.886 322.125 281.886C321.727 281.886 321.726 281.488 321.328 281.488L317.346 275.914L313.364 281.488C312.966 281.887 312.966 281.886 312.568 281.886C312.17 281.886 311.771 281.887 311.771 281.09C311.771 280.692 311.772 280.692 312.17 280.294L316.948 274.322Z" fill="black"></path><path d="M322.523 282.682C321.726 282.682 321.328 281.886 320.93 281.488L318.143 277.109L315.355 281.488C314.957 281.886 314.559 282.682 313.762 282.682C312.966 282.682 311.771 281.886 311.771 281.09C311.771 280.692 311.772 280.294 312.17 279.895L315.753 274.322L312.17 269.544C311.772 269.146 311.771 268.748 311.771 268.349C311.771 267.553 312.568 266.359 313.762 266.359C314.559 266.359 314.957 266.757 315.355 267.155L318.143 271.136L320.93 267.155C321.328 266.757 321.726 266.359 322.523 266.359C323.319 266.359 324.514 267.155 324.514 268.349C324.514 268.748 324.116 269.146 324.116 269.544L320.532 274.322L324.116 279.895C324.514 280.294 324.514 280.692 324.514 281.09C324.514 282.284 323.319 282.682 322.523 282.682Z" fill="black"></path><path d="M332.877 277.506C332.877 279.099 332.877 280.293 335.267 280.293H336.461C336.859 280.293 337.258 280.692 337.258 281.09C337.258 281.886 336.859 281.886 335.267 281.886C331.683 281.886 331.683 279.895 331.683 277.904V269.543H329.294C328.497 269.543 328.497 269.145 328.497 268.747C328.497 268.349 328.895 267.951 329.294 267.951H331.683V264.368C331.683 263.969 332.081 263.571 332.479 263.571C332.877 263.571 333.276 263.969 333.276 264.368V267.951H337.258C337.656 267.951 338.054 268.349 338.054 268.747C338.054 269.145 337.656 269.543 337.258 269.543H333.276V277.506H332.877Z" fill="black"></path><path d="M334.868 282.682C330.09 282.682 330.09 279.099 330.09 277.506V270.34H328.895C327.701 270.34 327.303 269.543 327.303 268.747C327.303 267.553 328.099 267.155 328.895 267.155H330.09V264.766C330.09 263.571 330.887 262.775 332.081 262.775C333.276 262.775 334.072 263.571 334.072 264.766V267.155H336.859C338.054 267.155 338.452 267.951 338.452 268.747C338.452 269.941 337.656 270.34 336.859 270.34H334.072V277.506C334.072 279.099 334.072 279.099 335.267 279.099H336.063C337.258 279.099 338.054 279.895 338.054 280.691C338.054 282.682 336.063 282.682 334.868 282.682Z" fill="black"></path><path d="M346.815 277.506C346.815 279.099 346.815 280.293 349.204 280.293H350.398C350.797 280.293 351.195 280.692 351.195 281.09C351.195 281.886 350.797 281.886 349.204 281.886C345.62 281.886 345.62 279.895 345.62 277.904V269.543H343.231C342.435 269.543 342.435 269.145 342.435 268.747C342.435 268.349 342.833 267.951 343.231 267.951H345.62V264.368C345.62 263.969 346.018 263.571 346.417 263.571C346.815 263.571 347.213 263.969 347.213 264.368V267.951H351.195C351.593 267.951 351.991 268.349 351.991 268.747C351.991 269.145 351.593 269.543 351.195 269.543H347.213V277.506H346.815Z" fill="black"></path><path d="M348.806 282.682C344.028 282.682 344.028 279.099 344.028 277.506V270.34H342.833C341.638 270.34 341.24 269.543 341.24 268.747C341.24 267.553 342.037 267.155 342.833 267.155H344.028V264.766C344.028 263.571 344.824 262.775 346.019 262.775C347.213 262.775 348.01 263.571 348.01 264.766V267.155H350.797C351.992 267.155 352.39 267.951 352.39 268.747C352.39 269.941 351.594 270.34 350.797 270.34H348.01V277.506C348.01 279.099 348.01 279.099 349.204 279.099H350.001C351.195 279.099 351.992 279.895 351.992 280.691C351.992 282.682 350.001 282.682 348.806 282.682Z" fill="black"></path><path d="M357.963 275.118C357.963 276.312 358.361 280.294 363.14 280.294C363.936 280.294 365.131 280.294 365.927 279.895C366.326 279.895 366.325 279.895 366.724 279.895C367.122 279.895 367.52 280.294 367.52 280.692C367.52 281.09 367.122 281.09 367.122 281.488C366.724 281.886 365.131 282.284 363.538 282.284C357.963 282.284 356.769 277.905 356.769 275.516C356.769 271.535 359.158 268.349 362.742 268.349C367.122 268.349 368.316 272.331 368.316 274.322C368.316 275.516 367.52 275.516 366.325 275.516H357.963V275.118ZM366.325 273.923C366.724 273.923 366.724 273.923 366.724 273.525C366.724 272.729 365.927 268.747 362.343 268.747C359.556 268.747 357.963 270.738 357.963 273.525H366.325V273.923Z" fill="black"></path><path d="M363.538 282.682C357.565 282.682 355.574 278.303 355.574 274.72C355.574 269.942 358.362 266.359 362.742 266.359C367.52 266.359 369.511 270.738 369.511 273.525C369.511 275.914 367.52 275.914 366.326 275.914H359.158C359.556 277.507 360.353 279.099 363.14 279.099C363.936 279.099 364.733 279.099 365.529 278.701C365.928 278.701 366.326 278.303 366.724 278.303C367.52 278.303 368.317 279.099 368.317 279.895C368.317 280.692 367.919 281.09 367.122 281.488C366.724 282.284 365.131 282.682 363.538 282.682ZM366.326 272.729V273.923V272.729C366.326 272.729 366.724 272.729 366.326 272.729ZM359.556 272.729H365.928C365.529 271.534 364.733 269.942 362.742 269.942C361.149 269.942 359.954 271.136 359.556 272.729Z" fill="black"></path><path d="M378.67 274.322L374.688 268.748L374.289 268.35C374.289 267.952 374.688 267.553 375.086 267.553C375.484 267.553 375.484 267.553 375.882 267.951L379.466 273.127L383.05 267.951C383.448 267.553 383.448 267.553 383.846 267.553C384.245 267.553 384.643 267.952 384.643 268.35C384.643 268.35 384.643 268.748 384.244 268.748L380.262 274.322L384.244 280.294C384.643 280.692 384.643 280.692 384.643 281.09C384.643 281.488 384.245 281.886 383.846 281.886C383.448 281.886 383.448 281.488 383.05 281.488L379.068 275.914L375.086 281.488C374.688 281.887 374.688 281.886 374.289 281.886C373.891 281.886 373.493 281.887 373.493 281.09C373.493 280.692 373.493 280.692 373.891 280.294L378.67 274.322Z" fill="black"></path><path d="M383.847 282.682C383.051 282.682 382.652 281.886 382.254 281.488L379.467 277.109L376.679 281.488C376.281 281.886 375.883 282.682 375.087 282.682C374.29 282.682 373.096 281.886 373.096 281.09C373.096 280.692 373.096 280.294 373.494 279.895L377.078 274.322L373.494 269.544C373.096 269.146 373.096 268.748 373.096 268.349C373.096 267.553 373.892 266.359 375.087 266.359C375.883 266.359 376.281 267.155 376.679 267.553L379.467 271.535L382.254 267.553C382.652 267.155 383.051 266.757 383.847 266.757C384.644 266.757 385.838 267.553 385.838 268.747C385.838 269.146 385.44 269.544 385.44 269.942L381.856 274.72L385.44 280.294C385.838 280.692 385.838 281.09 385.838 281.488C385.838 282.284 384.644 282.682 383.847 282.682Z" fill="black"></path><path d="M394.198 277.506C394.198 279.099 394.198 280.293 396.588 280.293H397.782C398.181 280.293 398.579 280.692 398.579 281.09C398.579 281.886 398.18 281.886 396.588 281.886C393.004 281.886 393.004 279.895 393.004 277.904V269.543H390.615C389.818 269.543 389.818 269.145 389.818 268.747C389.818 268.349 390.216 267.951 390.615 267.951H393.004V264.368C393.004 263.969 393.402 263.571 393.8 263.571C394.199 263.571 394.597 263.969 394.597 264.368V267.951H398.579C398.977 267.951 399.375 268.349 399.375 268.747C399.375 269.145 398.977 269.543 398.579 269.543H394.597V277.506H394.198Z" fill="black"></path><path d="M396.19 282.682C391.411 282.682 391.411 279.099 391.411 277.506V270.34H390.217C389.022 270.34 388.624 269.543 388.624 268.747C388.624 267.553 389.42 267.155 390.217 267.155H391.411V264.766C391.411 263.571 392.208 262.775 393.402 262.775C394.597 262.775 395.393 263.571 395.393 264.766V267.155H398.181C399.375 267.155 399.774 267.951 399.774 268.747C399.774 269.941 398.977 270.34 398.181 270.34H395.393V277.506C395.393 279.099 395.393 279.099 396.588 279.099H397.384C398.579 279.099 399.375 279.895 399.375 280.691C399.375 282.682 397.384 282.682 396.19 282.682Z" fill="black"></path></svg> 