<?xml version="1.0" encoding="UTF-8"?> <svg xmlns="http://www.w3.org/2000/svg" width="367" height="348" viewBox="0 0 367 348" fill="none"><path d="M352.959 333.745V186.829L13.6921 186.829V333.745L352.959 333.745Z" fill="#C3B68F"></path><path d="M333.692 347.368H32.6524C14.7334 347.368 0 332.636 0 314.72V32.8329C0 14.9164 14.7334 0.185059 32.6524 0.185059H333.692C351.611 0.185059 366.345 14.9164 366.345 32.8329V314.72C366.743 332.636 352.009 347.368 333.692 347.368ZM32.6524 13.722C22.2992 13.722 13.5388 22.083 13.5388 32.8329V314.72C13.5388 325.071 21.901 333.831 32.6524 333.831H333.692C344.045 333.831 352.806 325.469 352.806 314.72V32.8329C352.806 22.4811 344.444 13.722 333.692 13.722H32.6524Z" fill="black"></path><path d="M184.368 241.461C183.173 241.461 181.979 240.266 181.979 239.072V142.322C181.979 141.128 183.173 139.934 184.368 139.934C185.562 139.934 186.757 141.128 186.757 142.322V239.072C186.757 240.266 185.562 241.461 184.368 241.461Z" fill="black"></path><path d="M184.367 243.451C181.978 243.451 179.987 241.461 179.987 239.072V142.322C179.987 139.934 181.978 137.943 184.367 137.943C186.757 137.943 188.748 139.934 188.748 142.322V239.072C188.748 241.461 186.757 243.451 184.367 243.451ZM184.367 239.072V241.461V239.072Z" fill="black"></path><path d="M166.052 224.34L169.237 221.155L184.369 237.479L199.501 221.155L202.686 224.34L184.369 243.849L166.052 224.34Z" fill="black"></path><path d="M184.369 247.433L162.866 223.942L169.636 217.97L184.369 233.896L199.102 217.97L205.872 223.942L184.369 247.433Z" fill="black"></path><path d="M352.808 187.313H13.9393C9.95733 187.313 7.16992 184.128 7.16992 180.544C7.16992 176.961 10.3555 173.776 13.9393 173.776H353.206C357.188 173.776 359.976 176.961 359.976 180.544C359.976 184.128 356.79 187.313 352.808 187.313Z" fill="black"></path></svg> 