<?xml version="1.0" encoding="UTF-8"?> <svg xmlns="http://www.w3.org/2000/svg" width="367" height="348" viewBox="0 0 367 348" fill="none"><path d="M353.046 333.532L353.046 116.543L13.7787 116.543L13.7787 333.532L353.046 333.532Z" fill="#C3B68F"></path><path d="M352.963 117.399H13.6962C9.71421 117.399 6.92676 114.213 6.92676 110.63C6.92676 106.649 10.1124 103.862 13.6962 103.862H352.963C356.945 103.862 359.732 107.047 359.732 110.63C360.131 114.213 356.945 117.399 352.963 117.399Z" fill="black"></path><path d="M334.245 347.527H33.2052C15.2862 347.527 0.552734 332.795 0.552734 314.879V32.9923C0.552734 15.0758 15.2862 0.344604 33.2052 0.344604H334.245C352.164 0.344604 366.897 15.0758 366.897 32.9923V314.879C366.897 332.795 352.164 347.527 334.245 347.527ZM33.2052 13.8814C22.852 13.8814 14.0917 22.2424 14.0917 32.9923V314.879C14.0917 325.231 22.4538 333.99 33.2052 333.99H334.245C344.598 333.99 353.359 325.629 353.359 314.879V32.9923C353.359 22.6405 344.996 13.8814 334.245 13.8814H33.2052Z" fill="black"></path><path d="M184.922 57.6774C186.117 57.6774 187.312 58.872 187.312 60.0664V156.816C187.312 158.01 186.117 159.204 184.922 159.204C183.728 159.204 182.533 158.01 182.533 156.816V60.0664C182.533 58.4738 183.728 57.6774 184.922 57.6774Z" fill="black"></path><path d="M184.922 161.195C182.533 161.195 180.542 159.205 180.542 156.816V60.0665C180.542 57.6776 182.533 55.6867 184.922 55.6867C187.311 55.6867 189.302 57.6776 189.302 60.0665V156.816C189.302 159.205 187.311 161.195 184.922 161.195ZM184.922 57.6774V60.0665V57.6774Z" fill="black"></path><path d="M203.239 74.7976L200.053 77.983L184.922 61.6589L169.79 77.983L166.604 74.7976L184.922 54.8904L203.239 74.7976Z" fill="black"></path><path d="M199.655 81.1681L184.922 64.844L169.79 81.1681L163.419 74.7976L184.922 51.7053L206.425 74.7976L199.655 81.1681Z" fill="black"></path></svg> 