<?xml version="1.0" encoding="UTF-8"?> <svg xmlns="http://www.w3.org/2000/svg" width="441" height="261" viewBox="0 0 441 261" fill="none"><path d="M280.299 84.3125C278.642 84.3125 276.572 84.3125 274.915 84.3125C234.746 83.0701 204.93 70.2323 176.356 57.3945C148.61 45.3849 122.935 34.2036 90.6344 35.446C27.2748 37.9307 4.08443 82.6561 4.08443 83.0702L0.357422 81.4136C0.771536 80.9995 24.376 33.7895 90.6344 31.3048C123.764 30.0624 150.267 41.6579 178.013 53.6675C206.586 66.0912 235.574 78.9289 275.33 80.1713C352.769 82.656 438.077 32.133 438.905 31.3048L440.975 35.032C439.733 35.4461 357.738 84.3125 280.299 84.3125Z" fill="#727171"></path><path d="M280.299 109.16C278.642 109.16 276.572 109.16 274.915 109.16C234.746 107.918 204.93 95.0797 176.356 82.2419C148.61 70.2323 122.935 58.6369 90.6344 60.2934C27.2748 62.7782 4.08443 107.503 4.08443 107.918L0.357422 106.261C0.771536 105.847 24.376 58.6369 90.6344 56.1522C123.764 54.9098 150.267 66.5054 178.013 78.5149C206.586 90.9386 235.574 103.776 275.33 105.019C352.769 107.503 438.077 56.9804 438.905 56.1522L440.975 59.8794C439.733 60.2935 357.738 109.16 280.299 109.16Z" fill="#727171"></path><path d="M280.299 59.8794C278.642 59.8794 276.572 59.8794 274.915 59.8794C234.746 58.637 204.93 45.7993 176.356 32.9615C148.61 20.952 122.935 9.35645 90.6344 10.5988C27.2748 13.0835 4.08443 57.8087 4.08443 58.2228L0.357422 56.5662C0.771536 56.1521 24.376 8.94233 90.6344 6.4576C123.764 5.21523 150.267 16.8107 178.013 28.8203C206.586 41.2439 235.574 54.0815 275.33 55.3239C276.986 55.3239 279.056 55.3239 280.713 55.3239C356.91 55.3239 438.077 6.87172 438.905 6.4576L440.975 10.1848C439.733 11.013 357.738 59.8794 280.299 59.8794Z" fill="#727171"></path><path d="M346.561 78.1008C315.916 78.1008 290.655 66.9196 263.738 55.3242C235.164 42.9006 206.176 30.063 166.421 28.8206C88.9817 26.3359 3.67419 76.8586 2.84596 77.6868L0.775391 73.9596C1.60362 73.5455 87.7394 22.1947 166.421 24.6794C206.59 25.9217 236.407 38.7595 264.98 51.5972C292.726 63.6067 318.401 74.788 350.702 73.5456C414.061 71.0609 437.252 26.3358 437.252 25.9217L440.979 27.578C440.565 27.9921 416.96 75.2021 350.702 77.6868C349.874 78.1009 348.217 78.1008 346.561 78.1008Z" fill="#727171"></path><path d="M346.561 53.668C315.916 53.668 290.655 42.4867 263.738 30.8912C235.164 18.4675 206.176 5.62963 166.421 4.38726C88.9817 1.90253 3.67419 52.4254 2.84596 53.2537L0.775391 49.5267C1.60362 49.1126 87.7394 -2.2387 166.421 0.246034C206.59 1.4884 236.407 14.3262 264.98 27.164C292.726 39.1736 318.401 50.3548 350.702 49.1125C414.061 46.6277 437.252 1.90247 437.252 1.48835L440.979 3.14494C440.565 3.55907 416.96 50.769 350.702 53.2537C349.874 53.6678 348.217 53.668 346.561 53.668Z" fill="#727171"></path><path d="M346.561 102.948C315.916 102.948 290.655 91.767 263.738 80.1716C235.164 67.748 206.176 54.9104 166.421 53.668C88.9817 51.1833 3.67419 101.706 2.84596 102.534L0.775391 98.807C1.60362 98.3929 87.7394 47.0421 166.421 49.5268C206.59 50.7692 236.407 63.6069 264.98 76.4447C292.726 88.4542 318.815 100.049 350.702 98.807C414.061 96.3223 437.252 51.5972 437.252 51.1831L440.979 52.8397C440.565 53.2538 416.96 100.464 350.702 102.948C349.874 102.948 348.217 102.948 346.561 102.948Z" fill="#727171"></path><path d="M280.299 235.881C278.642 235.881 276.572 235.881 274.915 235.881C234.746 234.639 204.93 221.801 176.356 208.963C148.61 196.954 122.935 185.772 90.6344 186.601C27.2748 189.085 4.08443 233.81 4.08443 234.225L0.357422 232.568C0.771536 232.154 24.376 184.944 90.6344 182.459C123.764 181.217 150.267 192.812 178.013 204.822C206.586 217.246 235.574 230.083 275.33 231.326C352.769 233.81 438.077 183.288 438.905 182.459L440.975 186.187C439.733 187.015 357.738 235.881 280.299 235.881Z" fill="#727171"></path><path d="M280.299 260.314C278.642 260.314 276.572 260.314 274.915 260.314C234.746 259.072 204.93 246.234 176.356 233.396C148.61 221.387 122.935 210.206 90.6344 211.448C27.2748 213.933 4.08443 258.658 4.08443 259.072L0.357422 257.416C0.771536 257.001 24.376 209.791 90.6344 207.307C123.764 206.064 150.267 217.66 178.013 229.669C206.586 242.093 235.574 254.931 275.33 256.173C352.769 258.658 438.077 208.135 438.905 207.307L440.975 211.034C439.733 211.448 357.738 260.314 280.299 260.314Z" fill="#727171"></path><path d="M280.299 211.448C278.642 211.448 276.572 211.448 274.915 211.448C234.746 210.206 204.93 197.368 176.356 184.53C148.61 172.521 122.935 161.34 90.6344 162.582C27.2748 165.067 4.08443 209.792 4.08443 210.206L0.357422 208.549C0.771536 208.135 24.376 160.925 90.6344 158.441C123.764 157.198 150.267 168.794 178.013 180.803C206.586 193.227 235.574 206.065 275.33 207.307C352.769 209.792 438.077 159.269 438.905 158.441L440.975 162.168C439.733 162.582 357.738 211.448 280.299 211.448Z" fill="#727171"></path><path d="M346.561 229.67C315.916 229.67 290.655 218.489 263.738 206.893C235.164 194.469 206.176 181.631 166.421 180.389C88.9817 177.904 3.67419 228.427 2.84596 229.256L0.775391 225.529C1.60362 225.115 87.7394 173.763 166.421 176.248C206.59 177.49 236.407 190.328 264.98 203.166C292.726 215.175 318.401 226.771 350.702 225.529C414.476 223.044 437.252 178.318 437.252 177.904L440.979 179.561C440.565 179.975 416.96 227.185 350.702 229.67C349.874 229.67 348.217 229.67 346.561 229.67Z" fill="#727171"></path><path d="M346.561 205.236C315.916 205.236 290.655 194.055 263.738 182.46C235.164 170.036 206.176 157.198 166.421 155.956C88.9817 153.471 3.67419 203.994 2.84596 204.822L0.775391 201.095C1.60362 200.681 87.7394 149.33 166.421 151.815C206.59 153.057 236.407 165.895 264.98 178.732C292.726 190.742 318.815 201.923 350.702 201.095C414.061 198.61 437.252 153.885 437.252 153.471L440.979 155.128C440.565 155.542 416.96 202.752 350.702 205.236C349.874 205.236 348.217 205.236 346.561 205.236Z" fill="#727171"></path><path d="M346.561 254.103C315.916 254.103 290.655 242.922 263.738 231.326C235.164 218.903 206.176 206.065 166.421 204.823C88.9817 202.338 3.67419 252.861 2.84596 253.689L0.775391 249.962C1.60362 249.547 87.7394 198.197 166.421 200.681C206.59 201.924 236.407 214.761 264.98 227.599C292.726 239.609 318.401 251.204 350.702 249.548C414.061 247.063 437.252 202.338 437.252 201.924L440.979 203.58C440.565 203.994 416.96 251.204 350.702 253.689C349.874 254.103 348.217 254.103 346.561 254.103Z" fill="#727171"></path></svg> 