<?xml version="1.0" encoding="UTF-8"?> <svg xmlns="http://www.w3.org/2000/svg" width="466" height="125" viewBox="0 0 466 125" fill="none"><path d="M4.42828 45.7783C6.71539 45.7783 8.56946 44.1097 8.56946 42.0514C8.56946 39.9931 6.71539 38.3247 4.42828 38.3247C2.14118 38.3247 0.287109 39.9931 0.287109 42.0514C0.287109 44.1097 2.14118 45.7783 4.42828 45.7783Z" fill="black"></path><path d="M15.1939 45.7783C17.481 45.7783 19.3351 44.1097 19.3351 42.0514C19.3351 39.9931 17.481 38.3247 15.1939 38.3247C12.9068 38.3247 11.0527 39.9931 11.0527 42.0514C11.0527 44.1097 12.9068 45.7783 15.1939 45.7783Z" fill="black"></path><path d="M25.9595 45.7783C28.2466 45.7783 30.1007 44.1097 30.1007 42.0514C30.1007 39.9931 28.2466 38.3247 25.9595 38.3247C23.6724 38.3247 21.8184 39.9931 21.8184 42.0514C21.8184 44.1097 23.6724 45.7783 25.9595 45.7783Z" fill="black"></path><path d="M37.145 45.7783C39.4321 45.7783 41.2861 44.1097 41.2861 42.0514C41.2861 39.9931 39.4321 38.3247 37.145 38.3247C34.8579 38.3247 33.0039 39.9931 33.0039 42.0514C33.0039 44.1097 34.8579 45.7783 37.145 45.7783Z" fill="black"></path><path d="M47.9106 37.4961C50.1977 37.4961 52.0518 35.8273 52.0518 33.7689C52.0518 31.7105 50.1977 30.042 47.9106 30.042C45.6236 30.042 43.7695 31.7105 43.7695 33.7689C43.7695 35.8273 45.6236 37.4961 47.9106 37.4961Z" fill="black"></path><path d="M58.6763 37.4961C60.9634 37.4961 62.8174 35.8273 62.8174 33.7689C62.8174 31.7105 60.9634 30.042 58.6763 30.042C56.3892 30.042 54.5352 31.7105 54.5352 33.7689C54.5352 35.8273 56.3892 37.4961 58.6763 37.4961Z" fill="black"></path><path d="M80.2076 45.7783C82.4947 45.7783 84.3488 44.1097 84.3488 42.0514C84.3488 39.9931 82.4947 38.3247 80.2076 38.3247C77.9205 38.3247 76.0664 39.9931 76.0664 42.0514C76.0664 44.1097 77.9205 45.7783 80.2076 45.7783Z" fill="black"></path><path d="M90.979 45.7783C93.2661 45.7783 95.1202 44.1097 95.1202 42.0514C95.1202 39.9931 93.2661 38.3247 90.979 38.3247C88.6919 38.3247 86.8379 39.9931 86.8379 42.0514C86.8379 44.1097 88.6919 45.7783 90.979 45.7783Z" fill="black"></path><path d="M48.7368 8.92163C51.0239 8.92163 52.8779 7.25311 52.8779 5.19471C52.8779 3.1363 51.0239 1.46753 48.7368 1.46753C46.4497 1.46753 44.5957 3.1363 44.5957 5.19471C44.5957 7.25311 46.4497 8.92163 48.7368 8.92163Z" fill="black"></path><path d="M48.7368 18.4465C51.0239 18.4465 52.8779 16.778 52.8779 14.7196C52.8779 12.6612 51.0239 10.9924 48.7368 10.9924C46.4497 10.9924 44.5957 12.6612 44.5957 14.7196C44.5957 16.778 46.4497 18.4465 48.7368 18.4465Z" fill="black"></path><path d="M48.7368 27.9714C51.0239 27.9714 52.8779 26.3026 52.8779 24.2441C52.8779 22.1857 51.0239 20.5168 48.7368 20.5168C46.4497 20.5168 44.5957 22.1857 44.5957 24.2441C44.5957 26.3026 46.4497 27.9714 48.7368 27.9714Z" fill="black"></path><path d="M69.442 45.7783C71.7291 45.7783 73.5831 44.1097 73.5831 42.0514C73.5831 39.9931 71.7291 38.3247 69.442 38.3247C67.1548 38.3247 65.3008 39.9931 65.3008 42.0514C65.3008 44.1097 67.1548 45.7783 69.442 45.7783Z" fill="black"></path><path d="M48.7368 46.6069C51.0239 46.6069 52.8779 44.9381 52.8779 42.8796C52.8779 40.8212 51.0239 39.1523 48.7368 39.1523C46.4497 39.1523 44.5957 40.8212 44.5957 42.8796C44.5957 44.9381 46.4497 46.6069 48.7368 46.6069Z" fill="black"></path><path d="M48.7368 56.1313C51.0239 56.1313 52.8779 54.4627 52.8779 52.4044C52.8779 50.3461 51.0239 48.6777 48.7368 48.6777C46.4497 48.6777 44.5957 50.3461 44.5957 52.4044C44.5957 54.4627 46.4497 56.1313 48.7368 56.1313Z" fill="black"></path><path d="M48.7368 65.6563C51.0239 65.6563 52.8779 63.9875 52.8779 61.9291C52.8779 59.8707 51.0239 58.2021 48.7368 58.2021C46.4497 58.2021 44.5957 59.8707 44.5957 61.9291C44.5957 63.9875 46.4497 65.6563 48.7368 65.6563Z" fill="black"></path><path d="M48.7368 75.1812C51.0239 75.1812 52.8779 73.5126 52.8779 71.4542C52.8779 69.3958 51.0239 67.7271 48.7368 67.7271C46.4497 67.7271 44.5957 69.3958 44.5957 71.4542C44.5957 73.5126 46.4497 75.1812 48.7368 75.1812Z" fill="black"></path><path d="M48.7368 84.7061C51.0239 84.7061 52.8779 83.0375 52.8779 80.9791C52.8779 78.9207 51.0239 77.252 48.7368 77.252C46.4497 77.252 44.5957 78.9207 44.5957 80.9791C44.5957 83.0375 46.4497 84.7061 48.7368 84.7061Z" fill="black"></path><path d="M48.7368 93.8169C51.0239 93.8169 52.8779 92.1484 52.8779 90.09C52.8779 88.0316 51.0239 86.3628 48.7368 86.3628C46.4497 86.3628 44.5957 88.0316 44.5957 90.09C44.5957 92.1484 46.4497 93.8169 48.7368 93.8169Z" fill="black"></path><path d="M48.7368 103.341C51.0239 103.341 52.8779 101.673 52.8779 99.6144C52.8779 97.556 51.0239 95.8872 48.7368 95.8872C46.4497 95.8872 44.5957 97.556 44.5957 99.6144C44.5957 101.673 46.4497 103.341 48.7368 103.341Z" fill="black"></path><path d="M48.7368 112.866C51.0239 112.866 52.8779 111.197 52.8779 109.139C52.8779 107.081 51.0239 105.412 48.7368 105.412C46.4497 105.412 44.5957 107.081 44.5957 109.139C44.5957 111.197 46.4497 112.866 48.7368 112.866Z" fill="black"></path><path d="M48.7368 122.391C51.0239 122.391 52.8779 120.722 52.8779 118.664C52.8779 116.606 51.0239 114.937 48.7368 114.937C46.4497 114.937 44.5957 116.606 44.5957 118.664C44.5957 120.722 46.4497 122.391 48.7368 122.391Z" fill="black"></path><path d="M58.6763 37.4961C60.9634 37.4961 62.8174 35.8273 62.8174 33.7689C62.8174 31.7105 60.9634 30.042 58.6763 30.042C56.3892 30.042 54.5352 31.7105 54.5352 33.7689C54.5352 35.8273 56.3892 37.4961 58.6763 37.4961Z" fill="black"></path><path d="M4.42828 55.3032C6.71539 55.3032 8.56946 53.6345 8.56946 51.576C8.56946 49.5176 6.71539 47.8491 4.42828 47.8491C2.14118 47.8491 0.287109 49.5176 0.287109 51.576C0.287109 53.6345 2.14118 55.3032 4.42828 55.3032Z" fill="black"></path><path d="M15.1939 55.3032C17.481 55.3032 19.3351 53.6345 19.3351 51.576C19.3351 49.5176 17.481 47.8491 15.1939 47.8491C12.9068 47.8491 11.0527 49.5176 11.0527 51.576C11.0527 53.6345 12.9068 55.3032 15.1939 55.3032Z" fill="black"></path><path d="M25.9595 55.3032C28.2466 55.3032 30.1007 53.6345 30.1007 51.576C30.1007 49.5176 28.2466 47.8491 25.9595 47.8491C23.6724 47.8491 21.8184 49.5176 21.8184 51.576C21.8184 53.6345 23.6724 55.3032 25.9595 55.3032Z" fill="black"></path><path d="M37.145 55.3032C39.4321 55.3032 41.2861 53.6345 41.2861 51.576C41.2861 49.5176 39.4321 47.8491 37.145 47.8491C34.8579 47.8491 33.0039 49.5176 33.0039 51.576C33.0039 53.6345 34.8579 55.3032 37.145 55.3032Z" fill="black"></path><path d="M58.6763 47.0205C60.9634 47.0205 62.8174 45.3517 62.8174 43.2933C62.8174 41.2349 60.9634 39.5664 58.6763 39.5664C56.3892 39.5664 54.5352 41.2349 54.5352 43.2933C54.5352 45.3517 56.3892 47.0205 58.6763 47.0205Z" fill="black"></path><path d="M80.2076 55.3032C82.4947 55.3032 84.3488 53.6345 84.3488 51.576C84.3488 49.5176 82.4947 47.8491 80.2076 47.8491C77.9205 47.8491 76.0664 49.5176 76.0664 51.576C76.0664 53.6345 77.9205 55.3032 80.2076 55.3032Z" fill="black"></path><path d="M90.979 55.3032C93.2661 55.3032 95.1202 53.6345 95.1202 51.576C95.1202 49.5176 93.2661 47.8491 90.979 47.8491C88.6919 47.8491 86.8379 49.5176 86.8379 51.576C86.8379 53.6345 88.6919 55.3032 90.979 55.3032Z" fill="black"></path><path d="M100.501 45.7783C102.788 45.7783 104.642 44.1097 104.642 42.0514C104.642 39.9931 102.788 38.3247 100.501 38.3247C98.2134 38.3247 96.3594 39.9931 96.3594 42.0514C96.3594 44.1097 98.2134 45.7783 100.501 45.7783Z" fill="black"></path><path d="M100.501 55.3032C102.788 55.3032 104.642 53.6345 104.642 51.576C104.642 49.5176 102.788 47.8491 100.501 47.8491C98.2134 47.8491 96.3594 49.5176 96.3594 51.576C96.3594 53.6345 98.2134 55.3032 100.501 55.3032Z" fill="black"></path><path d="M69.442 54.8892C71.7291 54.8892 73.5831 53.2204 73.5831 51.1621C73.5831 49.1038 71.7291 47.4351 69.442 47.4351C67.1548 47.4351 65.3008 49.1038 65.3008 51.1621C65.3008 53.2204 67.1548 54.8892 69.442 54.8892Z" fill="black"></path><path d="M58.6763 47.0205C60.9634 47.0205 62.8174 45.3517 62.8174 43.2933C62.8174 41.2349 60.9634 39.5664 58.6763 39.5664C56.3892 39.5664 54.5352 41.2349 54.5352 43.2933C54.5352 45.3517 56.3892 47.0205 58.6763 47.0205Z" fill="black"></path><path d="M59.5025 8.92163C61.7896 8.92163 63.6436 7.25311 63.6436 5.19471C63.6436 3.1363 61.7896 1.46753 59.5025 1.46753C57.2154 1.46753 55.3613 3.1363 55.3613 5.19471C55.3613 7.25311 57.2154 8.92163 59.5025 8.92163Z" fill="black"></path><path d="M59.5025 18.4465C61.7896 18.4465 63.6436 16.778 63.6436 14.7196C63.6436 12.6612 61.7896 10.9924 59.5025 10.9924C57.2154 10.9924 55.3613 12.6612 55.3613 14.7196C55.3613 16.778 57.2154 18.4465 59.5025 18.4465Z" fill="black"></path><path d="M59.5025 27.9714C61.7896 27.9714 63.6436 26.3026 63.6436 24.2441C63.6436 22.1857 61.7896 20.5168 59.5025 20.5168C57.2154 20.5168 55.3613 22.1857 55.3613 24.2441C55.3613 26.3026 57.2154 27.9714 59.5025 27.9714Z" fill="black"></path><path d="M59.5025 56.1313C61.7896 56.1313 63.6436 54.4627 63.6436 52.4044C63.6436 50.3461 61.7896 48.6777 59.5025 48.6777C57.2154 48.6777 55.3613 50.3461 55.3613 52.4044C55.3613 54.4627 57.2154 56.1313 59.5025 56.1313Z" fill="black"></path><path d="M59.5025 65.6563C61.7896 65.6563 63.6436 63.9875 63.6436 61.9291C63.6436 59.8707 61.7896 58.2021 59.5025 58.2021C57.2154 58.2021 55.3613 59.8707 55.3613 61.9291C55.3613 63.9875 57.2154 65.6563 59.5025 65.6563Z" fill="black"></path><path d="M59.5025 75.1812C61.7896 75.1812 63.6436 73.5126 63.6436 71.4542C63.6436 69.3958 61.7896 67.7271 59.5025 67.7271C57.2154 67.7271 55.3613 69.3958 55.3613 71.4542C55.3613 73.5126 57.2154 75.1812 59.5025 75.1812Z" fill="black"></path><path d="M59.5025 84.7061C61.7896 84.7061 63.6436 83.0375 63.6436 80.9791C63.6436 78.9207 61.7896 77.252 59.5025 77.252C57.2154 77.252 55.3613 78.9207 55.3613 80.9791C55.3613 83.0375 57.2154 84.7061 59.5025 84.7061Z" fill="black"></path><path d="M59.5025 93.8169C61.7896 93.8169 63.6436 92.1484 63.6436 90.09C63.6436 88.0316 61.7896 86.3628 59.5025 86.3628C57.2154 86.3628 55.3613 88.0316 55.3613 90.09C55.3613 92.1484 57.2154 93.8169 59.5025 93.8169Z" fill="black"></path><path d="M59.5025 103.341C61.7896 103.341 63.6436 101.673 63.6436 99.6144C63.6436 97.556 61.7896 95.8872 59.5025 95.8872C57.2154 95.8872 55.3613 97.556 55.3613 99.6144C55.3613 101.673 57.2154 103.341 59.5025 103.341Z" fill="black"></path><path d="M59.5025 112.866C61.7896 112.866 63.6436 111.197 63.6436 109.139C63.6436 107.081 61.7896 105.412 59.5025 105.412C57.2154 105.412 55.3613 107.081 55.3613 109.139C55.3613 111.197 57.2154 112.866 59.5025 112.866Z" fill="black"></path><path d="M59.5025 122.391C61.7896 122.391 63.6436 120.722 63.6436 118.664C63.6436 116.606 61.7896 114.937 59.5025 114.937C57.2154 114.937 55.3613 116.606 55.3613 118.664C55.3613 120.722 57.2154 122.391 59.5025 122.391Z" fill="black"></path><path d="M365.534 10.1641C367.821 10.1641 369.675 8.4956 369.675 6.43726C369.675 4.37892 367.821 2.71021 365.534 2.71021C363.247 2.71021 361.393 4.37892 361.393 6.43726C361.393 8.4956 363.247 10.1641 365.534 10.1641Z" fill="black"></path><path d="M376.299 10.1641C378.586 10.1641 380.44 8.4956 380.44 6.43726C380.44 4.37892 378.586 2.71021 376.299 2.71021C374.012 2.71021 372.158 4.37892 372.158 6.43726C372.158 8.4956 374.012 10.1641 376.299 10.1641Z" fill="black"></path><path d="M387.071 10.1641C389.358 10.1641 391.212 8.4956 391.212 6.43726C391.212 4.37892 389.358 2.71021 387.071 2.71021C384.784 2.71021 382.93 4.37892 382.93 6.43726C382.93 8.4956 384.784 10.1641 387.071 10.1641Z" fill="black"></path><path d="M397.836 10.1641C400.124 10.1641 401.978 8.4956 401.978 6.43726C401.978 4.37892 400.124 2.71021 397.836 2.71021C395.549 2.71021 393.695 4.37892 393.695 6.43726C393.695 8.4956 395.549 10.1641 397.836 10.1641Z" fill="black"></path><path d="M408.604 39.1528C410.891 39.1528 412.745 37.4843 412.745 35.4259C412.745 33.3675 410.891 31.6987 408.604 31.6987C406.317 31.6987 404.463 33.3675 404.463 35.4259C404.463 37.4843 406.317 39.1528 408.604 39.1528Z" fill="black"></path><path d="M419.37 39.1528C421.657 39.1528 423.511 37.4843 423.511 35.4259C423.511 33.3675 421.657 31.6987 419.37 31.6987C417.083 31.6987 415.229 33.3675 415.229 35.4259C415.229 37.4843 417.083 39.1528 419.37 39.1528Z" fill="black"></path><path d="M441.319 10.1641C443.606 10.1641 445.46 8.4956 445.46 6.43726C445.46 4.37892 443.606 2.71021 441.319 2.71021C439.032 2.71021 437.178 4.37892 437.178 6.43726C437.178 8.4956 439.032 10.1641 441.319 10.1641Z" fill="black"></path><path d="M452.085 10.1641C454.372 10.1641 456.226 8.4956 456.226 6.43726C456.226 4.37892 454.372 2.71021 452.085 2.71021C449.797 2.71021 447.943 4.37892 447.943 6.43726C447.943 8.4956 449.797 10.1641 452.085 10.1641Z" fill="black"></path><path d="M409.848 10.5781C412.135 10.5781 413.989 8.90936 413.989 6.85095C413.989 4.79254 412.135 3.12402 409.848 3.12402C407.561 3.12402 405.707 4.79254 405.707 6.85095C405.707 8.90936 407.561 10.5781 409.848 10.5781Z" fill="black"></path><path d="M409.848 20.1028C412.135 20.1028 413.989 18.434 413.989 16.3756C413.989 14.3172 412.135 12.6487 409.848 12.6487C407.561 12.6487 405.707 14.3172 405.707 16.3756C405.707 18.434 407.561 20.1028 409.848 20.1028Z" fill="black"></path><path d="M409.848 29.6279C412.135 29.6279 413.989 27.9594 413.989 25.9009C413.989 23.8424 412.135 22.1736 409.848 22.1736C407.561 22.1736 405.707 23.8424 405.707 25.9009C405.707 27.9594 407.561 29.6279 409.848 29.6279Z" fill="black"></path><path d="M430.553 10.1641C432.84 10.1641 434.694 8.4956 434.694 6.43726C434.694 4.37892 432.84 2.71021 430.553 2.71021C428.266 2.71021 426.412 4.37892 426.412 6.43726C426.412 8.4956 428.266 10.1641 430.553 10.1641Z" fill="black"></path><path d="M409.848 48.2632C412.135 48.2632 413.989 46.5947 413.989 44.5363C413.989 42.4779 412.135 40.8091 409.848 40.8091C407.561 40.8091 405.707 42.4779 405.707 44.5363C405.707 46.5947 407.561 48.2632 409.848 48.2632Z" fill="black"></path><path d="M409.848 57.7881C412.135 57.7881 413.989 56.1196 413.989 54.0612C413.989 52.0028 412.135 50.334 409.848 50.334C407.561 50.334 405.707 52.0028 405.707 54.0612C405.707 56.1196 407.561 57.7881 409.848 57.7881Z" fill="black"></path><path d="M409.848 67.313C412.135 67.313 413.989 65.6443 413.989 63.5859C413.989 61.5276 412.135 59.8589 409.848 59.8589C407.561 59.8589 405.707 61.5276 405.707 63.5859C405.707 65.6443 407.561 67.313 409.848 67.313Z" fill="black"></path><path d="M409.848 76.8379C412.135 76.8379 413.989 75.169 413.989 73.1105C413.989 71.0519 412.135 69.3833 409.848 69.3833C407.561 69.3833 405.707 71.0519 405.707 73.1105C405.707 75.169 407.561 76.8379 409.848 76.8379Z" fill="black"></path><path d="M409.848 85.9482C412.135 85.9482 413.989 84.2795 413.989 82.2212C413.989 80.1629 412.135 78.4941 409.848 78.4941C407.561 78.4941 405.707 80.1629 405.707 82.2212C405.707 84.2795 407.561 85.9482 409.848 85.9482Z" fill="black"></path><path d="M409.848 95.4731C412.135 95.4731 413.989 93.8044 413.989 91.746C413.989 89.6876 412.135 88.019 409.848 88.019C407.561 88.019 405.707 89.6876 405.707 91.746C405.707 93.8044 407.561 95.4731 409.848 95.4731Z" fill="black"></path><path d="M409.848 104.998C412.135 104.998 413.989 103.329 413.989 101.271C413.989 99.2125 412.135 97.5439 409.848 97.5439C407.561 97.5439 405.707 99.2125 405.707 101.271C405.707 103.329 407.561 104.998 409.848 104.998Z" fill="black"></path><path d="M409.848 114.522C412.135 114.522 413.989 112.854 413.989 110.796C413.989 108.738 412.135 107.069 409.848 107.069C407.561 107.069 405.707 108.738 405.707 110.796C405.707 112.854 407.561 114.522 409.848 114.522Z" fill="black"></path><path d="M409.848 124.047C412.135 124.047 413.989 122.379 413.989 120.32C413.989 118.262 412.135 116.593 409.848 116.593C407.561 116.593 405.707 118.262 405.707 120.32C405.707 122.379 407.561 124.047 409.848 124.047Z" fill="black"></path><path d="M419.37 39.1528C421.657 39.1528 423.511 37.4843 423.511 35.4259C423.511 33.3675 421.657 31.6987 419.37 31.6987C417.083 31.6987 415.229 33.3675 415.229 35.4259C415.229 37.4843 417.083 39.1528 419.37 39.1528Z" fill="black"></path><path d="M365.534 19.689C367.821 19.689 369.675 18.0201 369.675 15.9617C369.675 13.9032 367.821 12.2344 365.534 12.2344C363.247 12.2344 361.393 13.9032 361.393 15.9617C361.393 18.0201 363.247 19.689 365.534 19.689Z" fill="black"></path><path d="M376.299 19.689C378.586 19.689 380.44 18.0201 380.44 15.9617C380.44 13.9032 378.586 12.2344 376.299 12.2344C374.012 12.2344 372.158 13.9032 372.158 15.9617C372.158 18.0201 374.012 19.689 376.299 19.689Z" fill="black"></path><path d="M387.071 19.689C389.358 19.689 391.212 18.0201 391.212 15.9617C391.212 13.9032 389.358 12.2344 387.071 12.2344C384.784 12.2344 382.93 13.9032 382.93 15.9617C382.93 18.0201 384.784 19.689 387.071 19.689Z" fill="black"></path><path d="M397.836 19.689C400.124 19.689 401.978 18.0201 401.978 15.9617C401.978 13.9032 400.124 12.2344 397.836 12.2344C395.549 12.2344 393.695 13.9032 393.695 15.9617C393.695 18.0201 395.549 19.689 397.836 19.689Z" fill="black"></path><path d="M419.37 48.6777C421.657 48.6777 423.511 47.0089 423.511 44.9504C423.511 42.892 421.657 41.2231 419.37 41.2231C417.083 41.2231 415.229 42.892 415.229 44.9504C415.229 47.0089 417.083 48.6777 419.37 48.6777Z" fill="black"></path><path d="M441.319 19.689C443.606 19.689 445.46 18.0201 445.46 15.9617C445.46 13.9032 443.606 12.2344 441.319 12.2344C439.032 12.2344 437.178 13.9032 437.178 15.9617C437.178 18.0201 439.032 19.689 441.319 19.689Z" fill="black"></path><path d="M452.085 19.689C454.372 19.689 456.226 18.0201 456.226 15.9617C456.226 13.9032 454.372 12.2344 452.085 12.2344C449.797 12.2344 447.943 13.9032 447.943 15.9617C447.943 18.0201 449.797 19.689 452.085 19.689Z" fill="black"></path><path d="M461.612 10.1641C463.899 10.1641 465.753 8.4956 465.753 6.43726C465.753 4.37892 463.899 2.71021 461.612 2.71021C459.325 2.71021 457.471 4.37892 457.471 6.43726C457.471 8.4956 459.325 10.1641 461.612 10.1641Z" fill="black"></path><path d="M461.612 19.689C463.899 19.689 465.753 18.0201 465.753 15.9617C465.753 13.9032 463.899 12.2344 461.612 12.2344C459.325 12.2344 457.471 13.9032 457.471 15.9617C457.471 18.0201 459.325 19.689 461.612 19.689Z" fill="black"></path><path d="M430.553 19.689C432.84 19.689 434.694 18.0201 434.694 15.9617C434.694 13.9032 432.84 12.2344 430.553 12.2344C428.266 12.2344 426.412 13.9032 426.412 15.9617C426.412 18.0201 428.266 19.689 430.553 19.689Z" fill="black"></path><path d="M419.37 48.6777C421.657 48.6777 423.511 47.0089 423.511 44.9504C423.511 42.892 421.657 41.2231 419.37 41.2231C417.083 41.2231 415.229 42.892 415.229 44.9504C415.229 47.0089 417.083 48.6777 419.37 48.6777Z" fill="black"></path><path d="M420.614 10.5781C422.901 10.5781 424.755 8.90936 424.755 6.85095C424.755 4.79254 422.901 3.12402 420.614 3.12402C418.327 3.12402 416.473 4.79254 416.473 6.85095C416.473 8.90936 418.327 10.5781 420.614 10.5781Z" fill="black"></path><path d="M420.614 20.1028C422.901 20.1028 424.755 18.434 424.755 16.3756C424.755 14.3172 422.901 12.6487 420.614 12.6487C418.327 12.6487 416.473 14.3172 416.473 16.3756C416.473 18.434 418.327 20.1028 420.614 20.1028Z" fill="black"></path><path d="M420.614 29.6279C422.901 29.6279 424.755 27.9594 424.755 25.9009C424.755 23.8424 422.901 22.1736 420.614 22.1736C418.327 22.1736 416.473 23.8424 416.473 25.9009C416.473 27.9594 418.327 29.6279 420.614 29.6279Z" fill="black"></path><path d="M420.614 57.7881C422.901 57.7881 424.755 56.1196 424.755 54.0612C424.755 52.0028 422.901 50.334 420.614 50.334C418.327 50.334 416.473 52.0028 416.473 54.0612C416.473 56.1196 418.327 57.7881 420.614 57.7881Z" fill="black"></path><path d="M420.614 67.313C422.901 67.313 424.755 65.6443 424.755 63.5859C424.755 61.5276 422.901 59.8589 420.614 59.8589C418.327 59.8589 416.473 61.5276 416.473 63.5859C416.473 65.6443 418.327 67.313 420.614 67.313Z" fill="black"></path><path d="M420.614 76.8379C422.901 76.8379 424.755 75.169 424.755 73.1105C424.755 71.0519 422.901 69.3833 420.614 69.3833C418.327 69.3833 416.473 71.0519 416.473 73.1105C416.473 75.169 418.327 76.8379 420.614 76.8379Z" fill="black"></path><path d="M420.614 85.9482C422.901 85.9482 424.755 84.2795 424.755 82.2212C424.755 80.1629 422.901 78.4941 420.614 78.4941C418.327 78.4941 416.473 80.1629 416.473 82.2212C416.473 84.2795 418.327 85.9482 420.614 85.9482Z" fill="black"></path><path d="M420.614 95.4731C422.901 95.4731 424.755 93.8044 424.755 91.746C424.755 89.6876 422.901 88.019 420.614 88.019C418.327 88.019 416.473 89.6876 416.473 91.746C416.473 93.8044 418.327 95.4731 420.614 95.4731Z" fill="black"></path><path d="M420.614 104.998C422.901 104.998 424.755 103.329 424.755 101.271C424.755 99.2125 422.901 97.5439 420.614 97.5439C418.327 97.5439 416.473 99.2125 416.473 101.271C416.473 103.329 418.327 104.998 420.614 104.998Z" fill="black"></path><path d="M420.614 114.522C422.901 114.522 424.755 112.854 424.755 110.796C424.755 108.738 422.901 107.069 420.614 107.069C418.327 107.069 416.473 108.738 416.473 110.796C416.473 112.854 418.327 114.522 420.614 114.522Z" fill="black"></path><path d="M420.614 124.047C422.901 124.047 424.755 122.379 424.755 120.32C424.755 118.262 422.901 116.593 420.614 116.593C418.327 116.593 416.473 118.262 416.473 120.32C416.473 122.379 418.327 124.047 420.614 124.047Z" fill="black"></path><path d="M270.702 43.7075C273.217 43.7075 275.257 41.8535 275.257 39.5664C275.257 37.2793 273.217 35.4253 270.702 35.4253C268.186 35.4253 266.146 37.2793 266.146 39.5664C266.146 41.8535 268.186 43.7075 270.702 43.7075Z" fill="black"></path><path d="M281.055 38.7383C283.571 38.7383 285.611 36.8842 285.611 34.5972C285.611 32.3101 283.571 30.4561 281.055 30.4561C278.539 30.4561 276.5 32.3101 276.5 34.5972C276.5 36.8842 278.539 38.7383 281.055 38.7383Z" fill="black"></path><path d="M253.725 16.3757C256.241 16.3757 258.28 14.5216 258.28 12.2345C258.28 9.94736 256.241 8.09326 253.725 8.09326C251.209 8.09326 249.17 9.94736 249.17 12.2345C249.17 14.5216 251.209 16.3757 253.725 16.3757Z" fill="black"></path><path d="M259.936 25.4868C262.452 25.4868 264.491 23.6327 264.491 21.3456C264.491 19.0584 262.452 17.2043 259.936 17.2043C257.42 17.2043 255.381 19.0584 255.381 21.3456C255.381 23.6327 257.42 25.4868 259.936 25.4868Z" fill="black"></path><path d="M265.735 34.1831C268.251 34.1831 270.29 32.329 270.29 30.0419C270.29 27.7547 268.251 25.9006 265.735 25.9006C263.219 25.9006 261.18 27.7547 261.18 30.0419C261.18 32.329 263.219 34.1831 265.735 34.1831Z" fill="black"></path><path d="M277.745 51.9902C280.26 51.9902 282.3 50.1361 282.3 47.8489C282.3 45.5617 280.26 43.7075 277.745 43.7075C275.229 43.7075 273.189 45.5617 273.189 47.8489C273.189 50.1361 275.229 51.9902 277.745 51.9902Z" fill="black"></path><path d="M283.538 61.1011C286.054 61.1011 288.093 59.2469 288.093 56.9597C288.093 54.6725 286.054 52.8184 283.538 52.8184C281.022 52.8184 278.982 54.6725 278.982 56.9597C278.982 59.2469 281.022 61.1011 283.538 61.1011Z" fill="black"></path><path d="M289.336 70.2114C291.852 70.2114 293.892 68.3574 293.892 66.0703C293.892 63.7832 291.852 61.9292 289.336 61.9292C286.821 61.9292 284.781 63.7832 284.781 66.0703C284.781 68.3574 286.821 70.2114 289.336 70.2114Z" fill="black"></path><path d="M295.135 78.9082C297.651 78.9082 299.691 77.0542 299.691 74.7671C299.691 72.48 297.651 70.626 295.135 70.626C292.62 70.626 290.58 72.48 290.58 74.7671C290.58 77.0542 292.62 78.9082 295.135 78.9082Z" fill="black"></path><path d="M301.348 88.019C303.864 88.019 305.903 86.165 305.903 83.8779C305.903 81.5909 303.864 79.7368 301.348 79.7368C298.832 79.7368 296.793 81.5909 296.793 83.8779C296.793 86.165 298.832 88.019 301.348 88.019Z" fill="black"></path><path d="M307.147 97.1294C309.663 97.1294 311.702 95.2754 311.702 92.9883C311.702 90.7012 309.663 88.8472 307.147 88.8472C304.631 88.8472 302.592 90.7012 302.592 92.9883C302.592 95.2754 304.631 97.1294 307.147 97.1294Z" fill="black"></path><path d="M312.946 105.826C315.462 105.826 317.501 103.972 317.501 101.685C317.501 99.398 315.462 97.5439 312.946 97.5439C310.43 97.5439 308.391 99.398 308.391 101.685C308.391 103.972 310.43 105.826 312.946 105.826Z" fill="black"></path><path d="M319.157 114.937C321.673 114.937 323.712 113.083 323.712 110.796C323.712 108.509 321.673 106.655 319.157 106.655C316.641 106.655 314.602 108.509 314.602 110.796C314.602 113.083 316.641 114.937 319.157 114.937Z" fill="black"></path><path d="M324.95 123.634C327.466 123.634 329.505 121.78 329.505 119.492C329.505 117.205 327.466 115.351 324.95 115.351C322.434 115.351 320.395 117.205 320.395 119.492C320.395 121.78 322.434 123.634 324.95 123.634Z" fill="black"></path><path d="M281.055 38.7383C283.571 38.7383 285.611 36.8842 285.611 34.5972C285.611 32.3101 283.571 30.4561 281.055 30.4561C278.539 30.4561 276.5 32.3101 276.5 34.5972C276.5 36.8842 278.539 38.7383 281.055 38.7383Z" fill="black"></path><path d="M286.854 47.4351C289.37 47.4351 291.409 45.5809 291.409 43.2937C291.409 41.0065 289.37 39.1523 286.854 39.1523C284.338 39.1523 282.299 41.0065 282.299 43.2937C282.299 45.5809 284.338 47.4351 286.854 47.4351Z" fill="black"></path><path d="M286.854 47.4351C289.37 47.4351 291.409 45.5809 291.409 43.2937C291.409 41.0065 289.37 39.1523 286.854 39.1523C284.338 39.1523 282.299 41.0065 282.299 43.2937C282.299 45.5809 284.338 47.4351 286.854 47.4351Z" fill="black"></path><path d="M264.077 10.9924C266.593 10.9924 268.632 9.13839 268.632 6.85132C268.632 4.56424 266.593 2.71021 264.077 2.71021C261.561 2.71021 259.521 4.56424 259.521 6.85132C259.521 9.13839 261.561 10.9924 264.077 10.9924Z" fill="black"></path><path d="M269.876 20.103C272.391 20.103 274.431 18.2489 274.431 15.9618C274.431 13.6747 272.391 11.8206 269.876 11.8206C267.36 11.8206 265.32 13.6747 265.32 15.9618C265.32 18.2489 267.36 20.103 269.876 20.103Z" fill="black"></path><path d="M276.088 29.2134C278.604 29.2134 280.644 27.3593 280.644 25.0723C280.644 22.7852 278.604 20.9312 276.088 20.9312C273.573 20.9312 271.533 22.7852 271.533 25.0723C271.533 27.3593 273.573 29.2134 276.088 29.2134Z" fill="black"></path><path d="M293.891 56.1313C296.407 56.1313 298.446 54.2773 298.446 51.9902C298.446 49.7032 296.407 47.8491 293.891 47.8491C291.375 47.8491 289.336 49.7032 289.336 51.9902C289.336 54.2773 291.375 56.1313 293.891 56.1313Z" fill="black"></path><path d="M299.69 64.8281C302.206 64.8281 304.245 62.9741 304.245 60.687C304.245 58.3999 302.206 56.5459 299.69 56.5459C297.174 56.5459 295.135 58.3999 295.135 60.687C295.135 62.9741 297.174 64.8281 299.69 64.8281Z" fill="black"></path><path d="M305.489 73.939C308.005 73.939 310.044 72.0848 310.044 69.7976C310.044 67.5104 308.005 65.6562 305.489 65.6562C302.973 65.6562 300.934 67.5104 300.934 69.7976C300.934 72.0848 302.973 73.939 305.489 73.939Z" fill="black"></path><path d="M311.7 82.6353C314.216 82.6353 316.255 80.7811 316.255 78.4939C316.255 76.2067 314.216 74.3525 311.7 74.3525C309.184 74.3525 307.145 76.2067 307.145 78.4939C307.145 80.7811 309.184 82.6353 311.7 82.6353Z" fill="black"></path><path d="M317.499 91.7461C320.014 91.7461 322.054 89.8921 322.054 87.605C322.054 85.3179 320.014 83.4639 317.499 83.4639C314.983 83.4639 312.943 85.3179 312.943 87.605C312.943 89.8921 314.983 91.7461 317.499 91.7461Z" fill="black"></path><path d="M323.297 100.857C325.813 100.857 327.853 99.0028 327.853 96.7156C327.853 94.4284 325.813 92.5742 323.297 92.5742C320.782 92.5742 318.742 94.4284 318.742 96.7156C318.742 99.0028 320.782 100.857 323.297 100.857Z" fill="black"></path><path d="M329.09 109.553C331.606 109.553 333.646 107.699 333.646 105.412C333.646 103.125 331.606 101.271 329.09 101.271C326.575 101.271 324.535 103.125 324.535 105.412C324.535 107.699 326.575 109.553 329.09 109.553Z" fill="black"></path><path d="M335.303 118.664C337.819 118.664 339.859 116.81 339.859 114.523C339.859 112.235 337.819 110.381 335.303 110.381C332.788 110.381 330.748 112.235 330.748 114.523C330.748 116.81 332.788 118.664 335.303 118.664Z" fill="black"></path><path d="M318.325 43.7075C320.84 43.7075 322.88 41.8535 322.88 39.5664C322.88 37.2793 320.84 35.4253 318.325 35.4253C315.809 35.4253 313.77 37.2793 313.77 39.5664C313.77 41.8535 315.809 43.7075 318.325 43.7075Z" fill="black"></path><path d="M307.971 38.7383C310.487 38.7383 312.526 36.8842 312.526 34.5972C312.526 32.3101 310.487 30.4561 307.971 30.4561C305.455 30.4561 303.416 32.3101 303.416 34.5972C303.416 36.8842 305.455 38.7383 307.971 38.7383Z" fill="black"></path><path d="M335.303 16.3757C337.819 16.3757 339.859 14.5216 339.859 12.2345C339.859 9.94736 337.819 8.09326 335.303 8.09326C332.788 8.09326 330.748 9.94736 330.748 12.2345C330.748 14.5216 332.788 16.3757 335.303 16.3757Z" fill="black"></path><path d="M329.09 25.4868C331.606 25.4868 333.646 23.6327 333.646 21.3456C333.646 19.0584 331.606 17.2043 329.09 17.2043C326.575 17.2043 324.535 19.0584 324.535 21.3456C324.535 23.6327 326.575 25.4868 329.09 25.4868Z" fill="black"></path><path d="M323.297 34.1831C325.813 34.1831 327.853 32.329 327.853 30.0419C327.853 27.7547 325.813 25.9006 323.297 25.9006C320.782 25.9006 318.742 27.7547 318.742 30.0419C318.742 32.329 320.782 34.1831 323.297 34.1831Z" fill="black"></path><path d="M311.7 51.9902C314.216 51.9902 316.255 50.1361 316.255 47.8489C316.255 45.5617 314.216 43.7075 311.7 43.7075C309.184 43.7075 307.145 45.5617 307.145 47.8489C307.145 50.1361 309.184 51.9902 311.7 51.9902Z" fill="black"></path><path d="M305.489 61.1011C308.005 61.1011 310.044 59.2469 310.044 56.9597C310.044 54.6725 308.005 52.8184 305.489 52.8184C302.973 52.8184 300.934 54.6725 300.934 56.9597C300.934 59.2469 302.973 61.1011 305.489 61.1011Z" fill="black"></path><path d="M299.69 70.2114C302.206 70.2114 304.245 68.3574 304.245 66.0703C304.245 63.7832 302.206 61.9292 299.69 61.9292C297.174 61.9292 295.135 63.7832 295.135 66.0703C295.135 68.3574 297.174 70.2114 299.69 70.2114Z" fill="black"></path><path d="M293.891 78.9082C296.407 78.9082 298.446 77.0542 298.446 74.7671C298.446 72.48 296.407 70.626 293.891 70.626C291.375 70.626 289.336 72.48 289.336 74.7671C289.336 77.0542 291.375 78.9082 293.891 78.9082Z" fill="black"></path><path d="M287.68 88.019C290.196 88.019 292.236 86.165 292.236 83.8779C292.236 81.5909 290.196 79.7368 287.68 79.7368C285.164 79.7368 283.125 81.5909 283.125 83.8779C283.125 86.165 285.164 88.019 287.68 88.019Z" fill="black"></path><path d="M281.887 97.1294C284.403 97.1294 286.443 95.2754 286.443 92.9883C286.443 90.7012 284.403 88.8472 281.887 88.8472C279.371 88.8472 277.332 90.7012 277.332 92.9883C277.332 95.2754 279.371 97.1294 281.887 97.1294Z" fill="black"></path><path d="M276.088 105.826C278.604 105.826 280.644 103.972 280.644 101.685C280.644 99.398 278.604 97.5439 276.088 97.5439C273.573 97.5439 271.533 99.398 271.533 101.685C271.533 103.972 273.573 105.826 276.088 105.826Z" fill="black"></path><path d="M269.876 114.937C272.391 114.937 274.431 113.083 274.431 110.796C274.431 108.509 272.391 106.655 269.876 106.655C267.36 106.655 265.32 108.509 265.32 110.796C265.32 113.083 267.36 114.937 269.876 114.937Z" fill="black"></path><path d="M264.077 123.634C266.593 123.634 268.632 121.78 268.632 119.492C268.632 117.205 266.593 115.351 264.077 115.351C261.561 115.351 259.521 117.205 259.521 119.492C259.521 121.78 261.561 123.634 264.077 123.634Z" fill="black"></path><path d="M307.971 38.7383C310.487 38.7383 312.526 36.8842 312.526 34.5972C312.526 32.3101 310.487 30.4561 307.971 30.4561C305.455 30.4561 303.416 32.3101 303.416 34.5972C303.416 36.8842 305.455 38.7383 307.971 38.7383Z" fill="black"></path><path d="M302.172 47.4351C304.688 47.4351 306.728 45.5809 306.728 43.2937C306.728 41.0065 304.688 39.1523 302.172 39.1523C299.657 39.1523 297.617 41.0065 297.617 43.2937C297.617 45.5809 299.657 47.4351 302.172 47.4351Z" fill="black"></path><path d="M302.172 47.4351C304.688 47.4351 306.728 45.5809 306.728 43.2937C306.728 41.0065 304.688 39.1523 302.172 39.1523C299.657 39.1523 297.617 41.0065 297.617 43.2937C297.617 45.5809 299.657 47.4351 302.172 47.4351Z" fill="black"></path><path d="M324.95 10.9924C327.466 10.9924 329.505 9.13839 329.505 6.85132C329.505 4.56424 327.466 2.71021 324.95 2.71021C322.434 2.71021 320.395 4.56424 320.395 6.85132C320.395 9.13839 322.434 10.9924 324.95 10.9924Z" fill="black"></path><path d="M319.157 20.103C321.673 20.103 323.712 18.2489 323.712 15.9618C323.712 13.6747 321.673 11.8206 319.157 11.8206C316.641 11.8206 314.602 13.6747 314.602 15.9618C314.602 18.2489 316.641 20.103 319.157 20.103Z" fill="black"></path><path d="M312.946 29.2134C315.462 29.2134 317.501 27.3593 317.501 25.0723C317.501 22.7852 315.462 20.9312 312.946 20.9312C310.43 20.9312 308.391 22.7852 308.391 25.0723C308.391 27.3593 310.43 29.2134 312.946 29.2134Z" fill="black"></path><path d="M295.135 56.1313C297.651 56.1313 299.691 54.2773 299.691 51.9902C299.691 49.7032 297.651 47.8491 295.135 47.8491C292.62 47.8491 290.58 49.7032 290.58 51.9902C290.58 54.2773 292.62 56.1313 295.135 56.1313Z" fill="black"></path><path d="M289.336 64.8281C291.852 64.8281 293.892 62.9741 293.892 60.687C293.892 58.3999 291.852 56.5459 289.336 56.5459C286.821 56.5459 284.781 58.3999 284.781 60.687C284.781 62.9741 286.821 64.8281 289.336 64.8281Z" fill="black"></path><path d="M283.538 73.939C286.054 73.939 288.093 72.0848 288.093 69.7976C288.093 67.5104 286.054 65.6562 283.538 65.6562C281.022 65.6562 278.982 67.5104 278.982 69.7976C278.982 72.0848 281.022 73.939 283.538 73.939Z" fill="black"></path><path d="M277.745 82.6353C280.26 82.6353 282.3 80.7811 282.3 78.4939C282.3 76.2067 280.26 74.3525 277.745 74.3525C275.229 74.3525 273.189 76.2067 273.189 78.4939C273.189 80.7811 275.229 82.6353 277.745 82.6353Z" fill="black"></path><path d="M271.534 91.7461C274.05 91.7461 276.089 89.8921 276.089 87.605C276.089 85.3179 274.05 83.4639 271.534 83.4639C269.018 83.4639 266.979 85.3179 266.979 87.605C266.979 89.8921 269.018 91.7461 271.534 91.7461Z" fill="black"></path><path d="M265.735 100.857C268.251 100.857 270.29 99.0028 270.29 96.7156C270.29 94.4284 268.251 92.5742 265.735 92.5742C263.219 92.5742 261.18 94.4284 261.18 96.7156C261.18 99.0028 263.219 100.857 265.735 100.857Z" fill="black"></path><path d="M259.936 109.553C262.452 109.553 264.491 107.699 264.491 105.412C264.491 103.125 262.452 101.271 259.936 101.271C257.42 101.271 255.381 103.125 255.381 105.412C255.381 107.699 257.42 109.553 259.936 109.553Z" fill="black"></path><path d="M253.725 118.664C256.241 118.664 258.28 116.81 258.28 114.523C258.28 112.235 256.241 110.381 253.725 110.381C251.209 110.381 249.17 112.235 249.17 114.523C249.17 116.81 251.209 118.664 253.725 118.664Z" fill="black"></path><path d="M141.913 37.4961C144.2 37.4961 146.054 35.8273 146.054 33.7689C146.054 31.7105 144.2 30.042 141.913 30.042C139.626 30.042 137.771 31.7105 137.771 33.7689C137.771 35.8273 139.626 37.4961 141.913 37.4961Z" fill="black"></path><path d="M152.678 37.4961C154.965 37.4961 156.819 35.8273 156.819 33.7689C156.819 31.7105 154.965 30.042 152.678 30.042C150.391 30.042 148.537 31.7105 148.537 33.7689C148.537 35.8273 150.391 37.4961 152.678 37.4961Z" fill="black"></path><path d="M142.745 8.92163C145.032 8.92163 146.886 7.25311 146.886 5.19471C146.886 3.1363 145.032 1.46753 142.745 1.46753C140.458 1.46753 138.604 3.1363 138.604 5.19471C138.604 7.25311 140.458 8.92163 142.745 8.92163Z" fill="black"></path><path d="M142.745 18.4465C145.032 18.4465 146.886 16.778 146.886 14.7196C146.886 12.6612 145.032 10.9924 142.745 10.9924C140.458 10.9924 138.604 12.6612 138.604 14.7196C138.604 16.778 140.458 18.4465 142.745 18.4465Z" fill="black"></path><path d="M142.745 27.9714C145.032 27.9714 146.886 26.3026 146.886 24.2441C146.886 22.1857 145.032 20.5168 142.745 20.5168C140.458 20.5168 138.604 22.1857 138.604 24.2441C138.604 26.3026 140.458 27.9714 142.745 27.9714Z" fill="black"></path><path d="M142.745 46.6069C145.032 46.6069 146.886 44.9381 146.886 42.8796C146.886 40.8212 145.032 39.1523 142.745 39.1523C140.458 39.1523 138.604 40.8212 138.604 42.8796C138.604 44.9381 140.458 46.6069 142.745 46.6069Z" fill="black"></path><path d="M142.745 56.1313C145.032 56.1313 146.886 54.4627 146.886 52.4044C146.886 50.3461 145.032 48.6777 142.745 48.6777C140.458 48.6777 138.604 50.3461 138.604 52.4044C138.604 54.4627 140.458 56.1313 142.745 56.1313Z" fill="black"></path><path d="M142.745 65.6563C145.032 65.6563 146.886 63.9875 146.886 61.9291C146.886 59.8707 145.032 58.2021 142.745 58.2021C140.458 58.2021 138.604 59.8707 138.604 61.9291C138.604 63.9875 140.458 65.6563 142.745 65.6563Z" fill="black"></path><path d="M142.745 75.1812C145.032 75.1812 146.886 73.5126 146.886 71.4542C146.886 69.3958 145.032 67.7271 142.745 67.7271C140.458 67.7271 138.604 69.3958 138.604 71.4542C138.604 73.5126 140.458 75.1812 142.745 75.1812Z" fill="black"></path><path d="M142.745 84.7061C145.032 84.7061 146.886 83.0375 146.886 80.9791C146.886 78.9207 145.032 77.252 142.745 77.252C140.458 77.252 138.604 78.9207 138.604 80.9791C138.604 83.0375 140.458 84.7061 142.745 84.7061Z" fill="black"></path><path d="M142.745 93.8169C145.032 93.8169 146.886 92.1484 146.886 90.09C146.886 88.0316 145.032 86.3628 142.745 86.3628C140.458 86.3628 138.604 88.0316 138.604 90.09C138.604 92.1484 140.458 93.8169 142.745 93.8169Z" fill="black"></path><path d="M142.745 103.341C145.032 103.341 146.886 101.673 146.886 99.6144C146.886 97.556 145.032 95.8872 142.745 95.8872C140.458 95.8872 138.604 97.556 138.604 99.6144C138.604 101.673 140.458 103.341 142.745 103.341Z" fill="black"></path><path d="M142.745 112.866C145.032 112.866 146.886 111.197 146.886 109.139C146.886 107.081 145.032 105.412 142.745 105.412C140.458 105.412 138.604 107.081 138.604 109.139C138.604 111.197 140.458 112.866 142.745 112.866Z" fill="black"></path><path d="M142.745 122.391C145.032 122.391 146.886 120.722 146.886 118.664C146.886 116.606 145.032 114.937 142.745 114.937C140.458 114.937 138.604 116.606 138.604 118.664C138.604 120.722 140.458 122.391 142.745 122.391Z" fill="black"></path><path d="M152.678 37.4961C154.965 37.4961 156.819 35.8273 156.819 33.7689C156.819 31.7105 154.965 30.042 152.678 30.042C150.391 30.042 148.537 31.7105 148.537 33.7689C148.537 35.8273 150.391 37.4961 152.678 37.4961Z" fill="black"></path><path d="M152.678 47.0205C154.965 47.0205 156.819 45.3517 156.819 43.2933C156.819 41.2349 154.965 39.5664 152.678 39.5664C150.391 39.5664 148.537 41.2349 148.537 43.2933C148.537 45.3517 150.391 47.0205 152.678 47.0205Z" fill="black"></path><path d="M152.678 47.0205C154.965 47.0205 156.819 45.3517 156.819 43.2933C156.819 41.2349 154.965 39.5664 152.678 39.5664C150.391 39.5664 148.537 41.2349 148.537 43.2933C148.537 45.3517 150.391 47.0205 152.678 47.0205Z" fill="black"></path><path d="M153.51 8.92163C155.797 8.92163 157.651 7.25311 157.651 5.19471C157.651 3.1363 155.797 1.46753 153.51 1.46753C151.223 1.46753 149.369 3.1363 149.369 5.19471C149.369 7.25311 151.223 8.92163 153.51 8.92163Z" fill="black"></path><path d="M153.51 18.4465C155.797 18.4465 157.651 16.778 157.651 14.7196C157.651 12.6612 155.797 10.9924 153.51 10.9924C151.223 10.9924 149.369 12.6612 149.369 14.7196C149.369 16.778 151.223 18.4465 153.51 18.4465Z" fill="black"></path><path d="M153.51 27.9714C155.797 27.9714 157.651 26.3026 157.651 24.2441C157.651 22.1857 155.797 20.5168 153.51 20.5168C151.223 20.5168 149.369 22.1857 149.369 24.2441C149.369 26.3026 151.223 27.9714 153.51 27.9714Z" fill="black"></path><path d="M174.215 7.6792C176.503 7.6792 178.357 6.01037 178.357 3.9519C178.357 1.89343 176.503 0.224854 174.215 0.224854C171.928 0.224854 170.074 1.89343 170.074 3.9519C170.074 6.01037 171.928 7.6792 174.215 7.6792Z" fill="black"></path><path d="M174.215 17.2041C176.503 17.2041 178.357 15.5356 178.357 13.4772C178.357 11.4188 176.503 9.75 174.215 9.75C171.928 9.75 170.074 11.4188 170.074 13.4772C170.074 15.5356 171.928 17.2041 174.215 17.2041Z" fill="black"></path><path d="M206.932 8.50757C209.219 8.50757 211.073 6.8388 211.073 4.78039C211.073 2.72198 209.219 1.05347 206.932 1.05347C204.645 1.05347 202.791 2.72198 202.791 4.78039C202.791 6.8388 204.645 8.50757 206.932 8.50757Z" fill="black"></path><path d="M196.161 8.50757C198.448 8.50757 200.302 6.8388 200.302 4.78039C200.302 2.72198 198.448 1.05347 196.161 1.05347C193.874 1.05347 192.02 2.72198 192.02 4.78039C192.02 6.8388 193.874 8.50757 196.161 8.50757Z" fill="black"></path><path d="M184.981 8.50757C187.268 8.50757 189.122 6.8388 189.122 4.78039C189.122 2.72198 187.268 1.05347 184.981 1.05347C182.694 1.05347 180.84 2.72198 180.84 4.78039C180.84 6.8388 182.694 8.50757 184.981 8.50757Z" fill="black"></path><path d="M163.45 8.50757C165.737 8.50757 167.591 6.8388 167.591 4.78039C167.591 2.72198 165.737 1.05347 163.45 1.05347C161.163 1.05347 159.309 2.72198 159.309 4.78039C159.309 6.8388 161.163 8.50757 163.45 8.50757Z" fill="black"></path><path d="M174.215 17.2041C176.503 17.2041 178.357 15.5356 178.357 13.4772C178.357 11.4188 176.503 9.75 174.215 9.75C171.928 9.75 170.074 11.4188 170.074 13.4772C170.074 15.5356 171.928 17.2041 174.215 17.2041Z" fill="black"></path><path d="M163.45 17.2041C165.737 17.2041 167.591 15.5356 167.591 13.4772C167.591 11.4188 165.737 9.75 163.45 9.75C161.163 9.75 159.309 11.4188 159.309 13.4772C159.309 15.5356 161.163 17.2041 163.45 17.2041Z" fill="black"></path><path d="M163.45 17.2041C165.737 17.2041 167.591 15.5356 167.591 13.4772C167.591 11.4188 165.737 9.75 163.45 9.75C161.163 9.75 159.309 11.4188 159.309 13.4772C159.309 15.5356 161.163 17.2041 163.45 17.2041Z" fill="black"></path><path d="M206.932 18.0322C209.219 18.0322 211.073 16.3634 211.073 14.3049C211.073 12.2465 209.219 10.5779 206.932 10.5779C204.645 10.5779 202.791 12.2465 202.791 14.3049C202.791 16.3634 204.645 18.0322 206.932 18.0322Z" fill="black"></path><path d="M196.161 18.0322C198.448 18.0322 200.302 16.3634 200.302 14.3049C200.302 12.2465 198.448 10.5779 196.161 10.5779C193.874 10.5779 192.02 12.2465 192.02 14.3049C192.02 16.3634 193.874 18.0322 196.161 18.0322Z" fill="black"></path><path d="M184.981 18.0322C187.268 18.0322 189.122 16.3634 189.122 14.3049C189.122 12.2465 187.268 10.5779 184.981 10.5779C182.694 10.5779 180.84 12.2465 180.84 14.3049C180.84 16.3634 182.694 18.0322 184.981 18.0322Z" fill="black"></path><path d="M174.215 54.061C176.503 54.061 178.357 52.3923 178.357 50.3339C178.357 48.2755 176.503 46.6069 174.215 46.6069C171.928 46.6069 170.074 48.2755 170.074 50.3339C170.074 52.3923 171.928 54.061 174.215 54.061Z" fill="black"></path><path d="M174.215 63.5859C176.503 63.5859 178.357 61.9171 178.357 59.8585C178.357 57.8 176.503 56.1313 174.215 56.1313C171.928 56.1313 170.074 57.8 170.074 59.8585C170.074 61.9171 171.928 63.5859 174.215 63.5859Z" fill="black"></path><path d="M206.932 54.8892C209.219 54.8892 211.073 53.2204 211.073 51.1621C211.073 49.1038 209.219 47.4351 206.932 47.4351C204.645 47.4351 202.791 49.1038 202.791 51.1621C202.791 53.2204 204.645 54.8892 206.932 54.8892Z" fill="black"></path><path d="M196.161 54.8892C198.448 54.8892 200.302 53.2204 200.302 51.1621C200.302 49.1038 198.448 47.4351 196.161 47.4351C193.874 47.4351 192.02 49.1038 192.02 51.1621C192.02 53.2204 193.874 54.8892 196.161 54.8892Z" fill="black"></path><path d="M184.981 54.8892C187.268 54.8892 189.122 53.2204 189.122 51.1621C189.122 49.1038 187.268 47.4351 184.981 47.4351C182.694 47.4351 180.84 49.1038 180.84 51.1621C180.84 53.2204 182.694 54.8892 184.981 54.8892Z" fill="black"></path><path d="M163.45 54.8892C165.737 54.8892 167.591 53.2204 167.591 51.1621C167.591 49.1038 165.737 47.4351 163.45 47.4351C161.163 47.4351 159.309 49.1038 159.309 51.1621C159.309 53.2204 161.163 54.8892 163.45 54.8892Z" fill="black"></path><path d="M174.215 63.5859C176.503 63.5859 178.357 61.9171 178.357 59.8585C178.357 57.8 176.503 56.1313 174.215 56.1313C171.928 56.1313 170.074 57.8 170.074 59.8585C170.074 61.9171 171.928 63.5859 174.215 63.5859Z" fill="black"></path><path d="M163.45 63.5859C165.737 63.5859 167.591 61.9171 167.591 59.8585C167.591 57.8 165.737 56.1313 163.45 56.1313C161.163 56.1313 159.309 57.8 159.309 59.8585C159.309 61.9171 161.163 63.5859 163.45 63.5859Z" fill="black"></path><path d="M163.45 63.5859C165.737 63.5859 167.591 61.9171 167.591 59.8585C167.591 57.8 165.737 56.1313 163.45 56.1313C161.163 56.1313 159.309 57.8 159.309 59.8585C159.309 61.9171 161.163 63.5859 163.45 63.5859Z" fill="black"></path><path d="M206.932 64.4141C209.219 64.4141 211.073 62.7453 211.073 60.6869C211.073 58.6285 209.219 56.96 206.932 56.96C204.645 56.96 202.791 58.6285 202.791 60.6869C202.791 62.7453 204.645 64.4141 206.932 64.4141Z" fill="black"></path><path d="M196.161 64.4141C198.448 64.4141 200.302 62.7453 200.302 60.6869C200.302 58.6285 198.448 56.96 196.161 56.96C193.874 56.96 192.02 58.6285 192.02 60.6869C192.02 62.7453 193.874 64.4141 196.161 64.4141Z" fill="black"></path><path d="M184.981 64.4141C187.268 64.4141 189.122 62.7453 189.122 60.6869C189.122 58.6285 187.268 56.96 184.981 56.96C182.694 56.96 180.84 58.6285 180.84 60.6869C180.84 62.7453 182.694 64.4141 184.981 64.4141Z" fill="black"></path><path d="M174.215 111.624C176.503 111.624 178.357 109.955 178.357 107.897C178.357 105.838 176.503 104.169 174.215 104.169C171.928 104.169 170.074 105.838 170.074 107.897C170.074 109.955 171.928 111.624 174.215 111.624Z" fill="black"></path><path d="M174.215 120.734C176.503 120.734 178.357 119.066 178.357 117.008C178.357 114.949 176.503 113.281 174.215 113.281C171.928 113.281 170.074 114.949 170.074 117.008C170.074 119.066 171.928 120.734 174.215 120.734Z" fill="black"></path><path d="M206.932 112.038C209.219 112.038 211.073 110.369 211.073 108.311C211.073 106.253 209.219 104.584 206.932 104.584C204.645 104.584 202.791 106.253 202.791 108.311C202.791 110.369 204.645 112.038 206.932 112.038Z" fill="black"></path><path d="M196.161 112.038C198.448 112.038 200.302 110.369 200.302 108.311C200.302 106.253 198.448 104.584 196.161 104.584C193.874 104.584 192.02 106.253 192.02 108.311C192.02 110.369 193.874 112.038 196.161 112.038Z" fill="black"></path><path d="M184.981 112.038C187.268 112.038 189.122 110.369 189.122 108.311C189.122 106.253 187.268 104.584 184.981 104.584C182.694 104.584 180.84 106.253 180.84 108.311C180.84 110.369 182.694 112.038 184.981 112.038Z" fill="black"></path><path d="M163.45 112.038C165.737 112.038 167.591 110.369 167.591 108.311C167.591 106.253 165.737 104.584 163.45 104.584C161.163 104.584 159.309 106.253 159.309 108.311C159.309 110.369 161.163 112.038 163.45 112.038Z" fill="black"></path><path d="M174.215 120.734C176.503 120.734 178.357 119.066 178.357 117.008C178.357 114.949 176.503 113.281 174.215 113.281C171.928 113.281 170.074 114.949 170.074 117.008C170.074 119.066 171.928 120.734 174.215 120.734Z" fill="black"></path><path d="M163.45 120.734C165.737 120.734 167.591 119.066 167.591 117.008C167.591 114.949 165.737 113.281 163.45 113.281C161.163 113.281 159.309 114.949 159.309 117.008C159.309 119.066 161.163 120.734 163.45 120.734Z" fill="black"></path><path d="M163.45 120.734C165.737 120.734 167.591 119.066 167.591 117.008C167.591 114.949 165.737 113.281 163.45 113.281C161.163 113.281 159.309 114.949 159.309 117.008C159.309 119.066 161.163 120.734 163.45 120.734Z" fill="black"></path><path d="M206.932 121.563C209.219 121.563 211.073 119.894 211.073 117.836C211.073 115.777 209.219 114.109 206.932 114.109C204.645 114.109 202.791 115.777 202.791 117.836C202.791 119.894 204.645 121.563 206.932 121.563Z" fill="black"></path><path d="M196.161 121.563C198.448 121.563 200.302 119.894 200.302 117.836C200.302 115.777 198.448 114.109 196.161 114.109C193.874 114.109 192.02 115.777 192.02 117.836C192.02 119.894 193.874 121.563 196.161 121.563Z" fill="black"></path><path d="M184.981 121.563C187.268 121.563 189.122 119.894 189.122 117.836C189.122 115.777 187.268 114.109 184.981 114.109C182.694 114.109 180.84 115.777 180.84 117.836C180.84 119.894 182.694 121.563 184.981 121.563Z" fill="black"></path><path d="M153.51 56.1313C155.797 56.1313 157.651 54.4627 157.651 52.4044C157.651 50.3461 155.797 48.6777 153.51 48.6777C151.223 48.6777 149.369 50.3461 149.369 52.4044C149.369 54.4627 151.223 56.1313 153.51 56.1313Z" fill="black"></path><path d="M153.51 65.6563C155.797 65.6563 157.651 63.9875 157.651 61.9291C157.651 59.8707 155.797 58.2021 153.51 58.2021C151.223 58.2021 149.369 59.8707 149.369 61.9291C149.369 63.9875 151.223 65.6563 153.51 65.6563Z" fill="black"></path><path d="M153.51 75.1812C155.797 75.1812 157.651 73.5126 157.651 71.4542C157.651 69.3958 155.797 67.7271 153.51 67.7271C151.223 67.7271 149.369 69.3958 149.369 71.4542C149.369 73.5126 151.223 75.1812 153.51 75.1812Z" fill="black"></path><path d="M153.51 84.7061C155.797 84.7061 157.651 83.0375 157.651 80.9791C157.651 78.9207 155.797 77.252 153.51 77.252C151.223 77.252 149.369 78.9207 149.369 80.9791C149.369 83.0375 151.223 84.7061 153.51 84.7061Z" fill="black"></path><path d="M153.51 93.8169C155.797 93.8169 157.651 92.1484 157.651 90.09C157.651 88.0316 155.797 86.3628 153.51 86.3628C151.223 86.3628 149.369 88.0316 149.369 90.09C149.369 92.1484 151.223 93.8169 153.51 93.8169Z" fill="black"></path><path d="M153.51 103.341C155.797 103.341 157.651 101.673 157.651 99.6144C157.651 97.556 155.797 95.8872 153.51 95.8872C151.223 95.8872 149.369 97.556 149.369 99.6144C149.369 101.673 151.223 103.341 153.51 103.341Z" fill="black"></path><path d="M153.51 112.866C155.797 112.866 157.651 111.197 157.651 109.139C157.651 107.081 155.797 105.412 153.51 105.412C151.223 105.412 149.369 107.081 149.369 109.139C149.369 111.197 151.223 112.866 153.51 112.866Z" fill="black"></path><path d="M153.51 122.391C155.797 122.391 157.651 120.722 157.651 118.664C157.651 116.606 155.797 114.937 153.51 114.937C151.223 114.937 149.369 116.606 149.369 118.664C149.369 120.722 151.223 122.391 153.51 122.391Z" fill="black"></path></svg> 