<?xml version="1.0" encoding="UTF-8"?> <svg xmlns="http://www.w3.org/2000/svg" width="317" height="362" viewBox="0 0 317 362" fill="none"><path d="M21.1259 162.172L4.56117 168.798L0.00585938 148.091L16.5705 141.88L21.1259 162.172Z" fill="black"></path><path d="M68.7451 161.344L61.291 160.101L62.9475 141.052L70.4015 141.88L68.7451 161.344Z" fill="black"></path><path d="M179.314 292.62L174.344 294.691L171.031 281.439L175.587 278.954L179.314 292.62Z" fill="black"></path><path d="M123.826 128.628L114.715 132.355L111.816 119.931L120.927 116.618L123.826 128.628Z" fill="black"></path><path d="M43.072 109.992L35.2038 113.305L29.4062 93.0133L37.2744 89.7003L43.072 109.992Z" fill="black"></path><path d="M166.477 64.8529L150.326 57.3987L149.912 50.7727L166.063 58.2269L166.477 64.8529Z" fill="black"></path><path d="M185.526 119.517L180.971 112.477L192.98 100.467L197.949 107.507L185.526 119.517Z" fill="black"></path><path d="M244.745 333.618L236.463 322.437L248.058 309.185L256.34 320.78L244.745 333.618Z" fill="black"></path><path d="M262.552 170.454L255.098 166.313L262.552 146.849L270.006 150.991L262.552 170.454Z" fill="black"></path><path d="M142.046 168.383L134.592 163.828L141.632 144.364L149.5 148.505L142.046 168.383Z" fill="black"></path><path d="M207.474 188.675L199.605 184.534L207.059 165.07L214.514 169.212L207.474 188.675Z" fill="black"></path><path d="M233.979 211.866L227.768 208.553L230.666 199.443L236.878 202.342L233.979 211.866Z" fill="black"></path><path d="M42.6597 233.401L31.8927 237.128L30.6504 228.431L41.4173 224.29L42.6597 233.401Z" fill="black"></path><path d="M250.958 78.9329L244.332 81.4177L242.262 72.3069L248.888 69.8223L250.958 78.9329Z" fill="black"></path><path d="M105.6 226.361L91.1061 232.158L86.1367 211.452L100.631 205.655L105.6 226.361Z" fill="black"></path><path d="M127.14 204.826L119.686 203.584L121.342 184.534L128.796 185.777L127.14 204.826Z" fill="black"></path><path d="M49.6969 312.084L41.8288 315.811L36.0312 295.519L43.8994 292.206L49.6969 312.084Z" fill="black"></path><path d="M88.6249 295.519L80.7567 298.832L74.5449 278.54L82.4131 275.227L88.6249 295.519Z" fill="black"></path><path d="M130.862 252.45L123.408 251.208L125.479 232.158L132.933 233.401L130.862 252.45Z" fill="black"></path><path d="M87.7957 92.5991L81.584 89.2861L87.7957 73.5494L93.5933 76.8624L87.7957 92.5991Z" fill="black"></path><path d="M315.56 261.975L304.379 257.006L305.621 249.137L316.802 254.521L315.56 261.975Z" fill="black"></path><path d="M291.952 95.4978L284.912 91.7707L292.366 71.8928L299.406 76.0341L291.952 95.4978Z" fill="black"></path><path d="M269.178 233.815L263.381 230.502L269.178 214.765L274.976 218.078L269.178 233.815Z" fill="black"></path><path d="M259.243 122.83L252.203 119.103L258.415 102.124L265.455 105.851L259.243 122.83Z" fill="black"></path><path d="M306.032 138.152L301.477 135.668L306.032 123.658L310.587 126.143L306.032 138.152Z" fill="black"></path><path d="M109.742 361.364L108.5 357.223C108.5 357.223 109.328 357.223 110.571 356.809L111.813 360.95C110.571 361.364 109.742 361.364 109.742 361.364Z" fill="black"></path><path d="M131.276 353.082L129.619 349.355C130.861 348.941 132.104 348.112 133.346 347.698L135.003 351.425C133.76 351.839 132.518 352.668 131.276 353.082ZM153.224 341.072L151.153 337.759C152.395 336.931 153.638 336.103 154.466 335.689L156.951 339.002C155.708 339.83 154.466 340.244 153.224 341.072ZM173.515 325.75L170.617 322.851C171.445 322.023 172.687 321.194 173.515 319.952L176.414 322.851C175.586 324.093 174.344 324.921 173.515 325.75ZM189.666 306.7L186.353 304.629C187.181 303.387 187.595 302.559 188.423 301.317L192.15 303.387C191.322 304.215 190.494 305.458 189.666 306.7ZM200.019 283.095L195.877 282.267C196.292 281.025 196.292 279.782 196.706 278.126L200.847 278.954C200.433 280.61 200.433 281.853 200.019 283.095ZM197.948 258.248C197.948 257.005 197.948 255.349 197.948 254.107L202.089 253.692C202.089 254.935 202.089 256.591 202.089 257.834L197.948 258.248ZM195.049 233.815C194.635 232.572 194.221 231.33 194.221 229.673L198.362 228.431C198.776 229.673 199.19 231.33 199.605 232.572L195.049 233.815ZM186.767 211.038C186.353 209.795 185.525 208.553 184.696 207.311L188.423 205.24C189.252 206.483 189.666 207.725 190.494 208.967L186.767 211.038ZM173.515 190.746C172.687 189.504 171.859 188.675 170.617 187.847L173.515 184.948C174.344 185.776 175.172 187.019 176.414 188.261L173.515 190.746ZM158.193 170.868C157.779 169.626 156.951 168.383 156.123 167.141L159.85 165.07C160.678 166.313 161.092 167.555 161.92 168.797L158.193 170.868ZM147.426 148.091C147.012 146.849 146.598 145.607 145.77 144.364L149.497 143.122C149.911 144.364 150.325 145.607 150.739 146.849L147.426 148.091ZM139.972 123.658C139.558 122.416 139.558 120.759 139.144 119.517L143.285 118.689C143.699 119.931 143.699 121.173 144.113 122.83L139.972 123.658ZM136.659 98.8109C136.659 97.5685 136.659 96.3261 136.659 95.4978V94.6697H140.8V95.4978C140.8 96.7402 140.8 97.5685 140.8 98.8109H136.659ZM143.285 74.3776L139.144 73.5494C139.558 72.3071 139.972 70.6506 140.386 69.4082L144.527 70.6505C143.699 71.8929 143.699 73.1352 143.285 74.3776ZM151.981 52.015L148.254 49.9444C149.083 48.7021 149.497 47.4597 150.325 46.2173L154.052 48.288C153.224 49.5303 152.81 50.7727 151.981 52.015ZM165.647 31.7231L162.334 28.8242C163.162 27.5818 164.405 26.7536 165.233 25.5112L168.132 28.4101C167.718 29.6525 166.889 30.8948 165.647 31.7231ZM183.868 15.5723L181.383 12.2593C182.626 11.431 183.868 10.6029 185.111 9.77466L187.181 13.5017C186.353 14.33 185.111 15.1582 183.868 15.5723Z" fill="black"></path><path d="M205.815 5.21948L204.572 1.07821C205.815 0.664088 206.643 0.664062 206.643 0.664062L207.471 4.80533C207.471 4.80533 207.057 4.80536 205.815 5.21948Z" fill="black"></path></svg> 