<?xml version="1.0" encoding="UTF-8"?> <svg xmlns="http://www.w3.org/2000/svg" width="527" height="108" viewBox="0 0 527 108" fill="none"><path opacity="0.5" d="M1.20703 104.271V40.9105C1.20703 40.9105 23.9833 -17.8949 121.3 6.95239C218.203 31.7997 179.69 68.2425 293.986 65.7578C375.981 64.1013 363.557 39.668 437.684 16.4771C505.598 -5.0572 526.304 30.9714 526.304 30.9714C526.304 69.8989 526.304 107.998 526.304 107.998L1.20703 104.271Z" fill="#727171"></path><path opacity="0.5" d="M0.794577 54.9905C0.794577 54.9905 -2.51832 12.7499 130.412 2.81092C263.343 -7.12802 250.091 51.6775 370.185 54.9905C490.278 58.3035 525.892 1.5686 525.892 1.5686V106.756H0.794577V54.9905Z" fill="#727171"></path><path opacity="0.5" d="M526.304 54.9905C526.304 54.9905 529.617 12.7499 396.686 2.81092C263.756 -7.12802 277.007 51.6775 156.914 54.9905C36.8208 58.3035 1.20703 1.5686 1.20703 1.5686V106.756H526.304V54.9905Z" fill="#727171"></path></svg> 