<?xml version="1.0" encoding="UTF-8"?> <svg xmlns="http://www.w3.org/2000/svg" width="237" height="189" viewBox="0 0 237 189" fill="none"><path d="M150.659 176.466C150.244 176.466 150.244 176.466 149.83 176.466L38.0194 155.759C36.363 155.345 35.1206 154.103 34.7065 152.446L10.2737 16.6144C9.85963 14.958 10.6878 13.7156 11.9302 12.4732C13.1725 11.645 14.829 11.2309 16.0713 12.0591L109.247 55.542C111.318 56.3702 112.146 58.8549 111.318 60.9255C110.489 62.9961 108.005 63.8243 105.934 62.9961L20.2125 22.8263L42.5747 147.891L151.487 168.183C153.557 168.597 155.214 170.668 154.8 173.153C154.386 174.809 152.729 176.466 150.659 176.466Z" fill="black"></path><path d="M34.711 157.002C33.8828 157.002 33.0546 156.588 32.2264 156.174C30.5699 154.931 30.1558 152.033 31.3981 150.376L102.626 58.8552C103.868 57.1987 106.767 56.7846 108.423 58.0269C110.08 59.2693 110.494 62.1682 109.252 63.8247L38.024 155.346C37.1957 156.588 35.9534 157.002 34.711 157.002Z" fill="black"></path><path d="M151.074 176.88C149.417 176.88 147.761 176.052 147.347 174.395L104.693 62.5821C103.865 60.5115 105.107 58.0268 107.178 57.1985C109.248 56.3703 111.733 57.6127 112.561 59.6833L155.215 171.496C156.043 173.567 154.801 176.052 152.73 176.88C151.902 176.88 151.488 176.88 151.074 176.88Z" fill="black"></path><path d="M107.594 63.4104C105.524 63.4104 103.453 61.7539 103.453 59.2692C103.453 56.7845 105.11 55.128 107.594 55.128L221.062 52.2291C223.132 52.2291 225.203 53.8856 225.203 56.3703C225.203 58.8551 223.546 60.5116 221.062 60.5116L107.594 63.4104Z" fill="black"></path><path d="M16.4884 32.7654C25.408 32.7654 32.6388 25.5344 32.6388 16.6146C32.6388 7.69478 25.408 0.463867 16.4884 0.463867C7.56871 0.463867 0.337891 7.69478 0.337891 16.6146C0.337891 25.5344 7.56871 32.7654 16.4884 32.7654Z" fill="black"></path><path d="M38.8516 167.769C47.7713 167.769 55.0021 160.538 55.0021 151.618C55.0021 142.699 47.7713 135.468 38.8516 135.468C29.932 135.468 22.7012 142.699 22.7012 151.618C22.7012 160.538 29.932 167.769 38.8516 167.769Z" fill="black"></path><path d="M150.662 188.475C159.582 188.475 166.813 181.244 166.813 172.325C166.813 163.405 159.582 156.174 150.662 156.174C141.743 156.174 134.512 163.405 134.512 172.325C134.512 181.244 141.743 188.475 150.662 188.475Z" fill="black"></path><path d="M220.231 72.521C229.15 72.521 236.381 65.2901 236.381 56.3703C236.381 47.4505 229.15 40.2195 220.231 40.2195C211.311 40.2195 204.08 47.4505 204.08 56.3703C204.08 65.2901 211.311 72.521 220.231 72.521Z" fill="black"></path><path d="M159.36 170.254C158.531 170.254 158.117 170.254 157.289 169.84C155.218 168.597 154.39 166.113 155.633 164.042L216.507 54.2996C217.75 52.229 220.234 51.4007 222.305 52.643C224.376 53.8854 225.204 56.3702 223.961 58.4408L163.087 168.183C162.258 169.426 161.016 170.254 159.36 170.254Z" fill="black"></path></svg> 