<?xml version="1.0" encoding="UTF-8"?> <svg xmlns="http://www.w3.org/2000/svg" width="382" height="244" viewBox="0 0 382 244" fill="none"><path d="M61.4578 177.763C64.6597 177.763 67.2554 175.168 67.2554 171.966C67.2554 168.764 64.6597 166.168 61.4578 166.168C58.2558 166.168 55.6602 168.764 55.6602 171.966C55.6602 175.168 58.2558 177.763 61.4578 177.763Z" fill="#EDBA18"></path><path d="M149.251 104.878C153.368 104.878 156.705 101.541 156.705 97.4238C156.705 93.307 153.368 89.9696 149.251 89.9696C145.134 89.9696 141.797 93.307 141.797 97.4238C141.797 101.541 145.134 104.878 149.251 104.878Z" fill="#EDBA18"></path><path d="M50.6904 94.5249C54.8072 94.5249 58.1445 91.1876 58.1445 87.0707C58.1445 82.9539 54.8072 79.6165 50.6904 79.6165C46.5736 79.6165 43.2363 82.9539 43.2363 87.0707C43.2363 91.1876 46.5736 94.5249 50.6904 94.5249Z" fill="#EDBA18"></path><path d="M341.815 20.3972C345.017 20.3972 347.613 17.8015 347.613 14.5996C347.613 11.3976 345.017 8.80176 341.815 8.80176C338.613 8.80176 336.018 11.3976 336.018 14.5996C336.018 17.8015 338.613 20.3972 341.815 20.3972Z" fill="#EDBA18"></path><path d="M240.356 15.8417C244.473 15.8417 247.81 12.5044 247.81 8.38758C247.81 4.27076 244.473 0.93335 240.356 0.93335C236.24 0.93335 232.902 4.27076 232.902 8.38758C232.902 12.5044 236.24 15.8417 240.356 15.8417Z" fill="#EDBA18"></path><path d="M183.206 33.6487C187.323 33.6487 190.66 30.3113 190.66 26.1945C190.66 22.0776 187.323 18.7402 183.206 18.7402C179.089 18.7402 175.752 22.0776 175.752 26.1945C175.752 30.3113 179.089 33.6487 183.206 33.6487Z" fill="#EDBA18"></path><path d="M139.725 243.608C142.927 243.608 145.523 241.013 145.523 237.811C145.523 234.609 142.927 232.013 139.725 232.013C136.523 232.013 133.928 234.609 133.928 237.811C133.928 241.013 136.523 243.608 139.725 243.608Z" fill="#EDBA18"></path><path d="M155.046 142.563C158.248 142.563 160.843 139.967 160.843 136.765C160.843 133.564 158.248 130.968 155.046 130.968C151.844 130.968 149.248 133.564 149.248 136.765C149.248 139.967 151.844 142.563 155.046 142.563Z" fill="#EDBA18"></path><path d="M252.782 87.8986C255.984 87.8986 258.58 85.3029 258.58 82.101C258.58 78.899 255.984 76.3033 252.782 76.3033C249.58 76.3033 246.984 78.899 246.984 82.101C246.984 85.3029 249.58 87.8986 252.782 87.8986Z" fill="#EDBA18"></path><path d="M2.24239 191.843C1.41417 191.015 0.585938 190.187 0.585938 190.187L3.48474 187.288C3.48474 187.288 3.89886 187.702 4.72709 188.53L2.24239 191.843Z" fill="black"></path><path d="M88.794 232.427L88.3799 228.286C89.6222 228.286 91.2787 228.286 92.521 227.872L92.9351 232.013C91.6928 232.427 90.4505 232.427 88.794 232.427ZM67.6742 230.771C66.4318 230.357 64.7754 229.943 63.533 229.943L64.7754 225.801C66.0177 226.216 67.26 226.63 68.9165 226.63L67.6742 230.771ZM114.055 226.63L112.399 222.902C113.641 222.488 114.883 221.66 116.126 221.246L118.196 224.973C116.54 225.387 115.297 225.801 114.055 226.63ZM43.2414 222.074C41.9991 221.246 40.7567 220.832 39.5144 220.004L41.5849 216.277C42.8273 217.105 44.0696 217.519 45.312 218.347L43.2414 222.074ZM136.003 212.964L133.518 209.651C134.761 208.822 135.589 207.994 136.831 207.166L139.316 210.479C138.074 211.307 136.831 212.135 136.003 212.964ZM21.7074 208.822C20.4651 207.994 19.2228 207.166 18.3945 206.338L20.8792 203.025C22.1216 203.853 22.9498 204.681 24.1921 205.509L21.7074 208.822ZM155.052 195.985L152.154 193.086C152.982 192.257 154.224 191.015 155.052 190.187L157.951 193.086C157.123 193.914 155.881 195.156 155.052 195.985ZM171.203 176.521L167.89 174.036C168.718 172.794 169.546 171.551 170.375 170.723L173.687 173.208C172.859 174.036 172.031 175.278 171.203 176.521ZM184.454 154.572L180.727 152.916C181.556 151.674 181.97 150.431 182.384 149.189L186.111 150.845C185.697 152.088 184.869 153.33 184.454 154.572ZM193.979 130.967L189.838 129.725C190.252 128.483 190.666 126.826 191.08 125.584L195.221 126.826C194.807 128.069 194.393 129.311 193.979 130.967ZM202.675 107.777L198.948 105.706C199.777 104.464 200.191 103.221 201.019 101.979L204.746 104.049C203.918 105.292 203.09 106.534 202.675 107.777ZM215.099 85.8281L211.786 83.7575C212.614 82.5151 213.442 81.2728 214.271 80.0304L217.584 82.101C216.755 83.3434 215.927 84.5857 215.099 85.8281ZM229.593 65.122L226.28 62.6372C227.108 61.3949 227.936 60.5667 228.765 59.3243L232.078 61.8091C231.249 63.0514 230.421 64.2937 229.593 65.122ZM245.743 46.0723L242.845 43.1736C243.673 42.3453 244.915 41.1029 245.743 40.2747L248.642 43.1736C247.814 44.0018 246.572 45.2441 245.743 46.0723ZM264.379 29.5075L261.894 26.1945C263.136 25.3663 264.379 24.538 265.207 23.7098L267.691 27.0228C266.449 27.8511 265.207 28.6792 264.379 29.5075ZM360.867 18.7404C359.625 17.9122 358.383 17.498 357.14 16.6698L358.797 12.9426C360.039 13.7708 361.281 14.185 362.524 15.0132L360.867 18.7404ZM285.498 16.6698L283.842 12.9426C285.084 12.5285 286.327 11.7002 287.983 11.2861L289.64 15.0132C287.983 15.8414 286.741 16.2557 285.498 16.6698ZM337.677 10.458C336.434 10.0438 335.192 10.0438 333.536 10.0438L333.95 5.90259C335.606 5.90259 336.849 6.31663 338.091 6.73076L337.677 10.458ZM309.103 10.458L308.275 6.31674C309.517 5.90261 311.173 5.90259 312.416 5.90259L312.83 10.0438C312.002 10.0438 310.759 10.0438 309.103 10.458Z" fill="black"></path><path d="M377.846 32.8207C377.846 32.8207 377.432 32.4066 376.604 31.1642L379.916 28.2653C380.745 29.5076 381.159 29.9217 381.159 29.9217L377.846 32.8207Z" fill="black"></path></svg> 