<?xml version="1.0" encoding="UTF-8"?> <svg xmlns="http://www.w3.org/2000/svg" width="475" height="304" viewBox="0 0 475 304" fill="none"><path d="M267.406 86.8037C266.164 86.8037 265.336 85.5614 265.336 84.7331C265.336 84.7331 265.336 83.9049 265.75 82.2484C266.164 81.006 266.992 80.5919 268.235 80.5919C269.477 81.006 269.891 81.8343 269.891 83.0766C269.477 83.9049 269.477 84.7331 269.477 84.7331C269.477 85.9755 268.649 86.8037 267.406 86.8037Z" fill="black"></path><path d="M273.621 73.9657C273.207 73.9657 272.793 73.9657 272.379 73.5515C271.551 72.7233 271.551 71.4809 272.379 70.6527C273.207 69.4103 274.45 68.5821 275.692 67.7538C276.52 66.9256 277.762 67.3397 278.591 68.168C279.419 68.9962 279.005 70.2386 278.177 71.0668C277.348 71.8951 276.106 72.7233 275.278 73.5515C274.864 73.9657 274.035 73.9657 273.621 73.9657Z" fill="black"></path><path d="M362.239 91.359C361.411 91.359 360.583 90.9448 360.168 90.1166C359.754 88.8742 359.34 87.6319 358.512 86.3895C358.098 85.5613 358.512 84.3189 359.34 83.4906C360.168 83.0765 361.411 83.4906 362.239 84.3189C363.067 85.5613 363.481 86.8036 363.895 88.046C364.31 89.2883 363.895 90.1166 362.653 90.5307C362.653 91.359 362.653 91.359 362.239 91.359ZM353.128 77.6929C352.714 77.6929 351.886 77.6929 351.886 77.2788C351.058 76.4506 349.816 75.6223 348.987 74.7941C348.159 73.9658 347.745 72.7235 348.573 71.8952C349.401 71.067 350.644 70.6529 351.472 71.4811C352.714 72.3093 353.543 73.5517 354.785 74.38C355.613 75.2082 355.613 76.4506 354.785 77.2788C354.371 77.2788 353.957 77.6929 353.128 77.6929ZM339.877 68.5822C339.463 68.5822 339.463 68.5822 339.049 68.5822C337.806 68.1681 336.564 67.754 335.322 67.3399C334.079 66.9258 333.665 65.6834 334.079 64.8551C334.493 63.6128 335.736 63.1987 336.564 63.6128C337.806 64.0269 339.463 64.441 340.705 65.2693C341.947 65.6834 342.362 66.9258 341.947 68.1681C341.119 68.1681 340.291 68.5822 339.877 68.5822ZM287.284 65.2693C286.456 65.2693 285.628 64.8551 285.214 64.0269C284.8 62.7845 285.628 61.9563 286.456 61.5422C287.698 61.128 288.941 60.7139 290.597 60.2998C291.84 59.8857 292.668 60.7139 293.082 61.9563C293.496 63.1987 292.668 64.0269 291.425 64.441C290.183 64.8551 288.941 65.2693 287.698 65.6834C287.698 65.2693 287.698 65.2693 287.284 65.2693ZM324.14 64.441C323.726 64.441 323.726 64.441 324.14 64.441C323.312 64.441 322.484 64.0269 322.07 64.0269L319.999 63.6128C318.757 63.6128 317.929 62.3704 318.343 61.128C318.343 59.8857 319.585 59.0574 320.828 59.4716L322.898 59.8857C323.726 59.8857 324.14 59.8857 324.969 60.2998C326.211 60.2998 327.039 61.5422 326.625 62.7845C325.797 63.6128 324.969 64.441 324.14 64.441ZM303.435 62.7845C302.192 62.7845 301.364 61.9563 301.364 60.7139C301.364 59.4716 302.192 58.6433 303.435 58.6433C304.263 58.6433 305.505 58.6433 306.334 58.6433H307.576C308.818 58.6433 309.646 59.4716 309.646 60.7139C309.646 61.9563 308.818 62.7845 307.576 62.7845H306.334C305.505 62.7845 304.677 62.7845 303.435 62.7845Z" fill="black"></path><path d="M365.549 105.439C364.307 105.439 363.479 104.611 363.479 103.368C363.479 102.54 363.479 102.126 363.479 101.298C363.479 100.055 364.307 99.2271 365.135 98.813C366.377 98.813 367.206 99.6412 367.62 100.469C367.62 101.298 367.62 101.712 367.62 102.54C367.62 104.197 366.792 105.439 365.549 105.439Z" fill="black"></path><path d="M351.475 98.3989L363.484 122.832L378.806 100.055L351.475 98.3989Z" fill="black"></path><path d="M216.054 129.044C216.054 135.67 210.671 140.639 204.459 140.639H12.3101C5.68423 140.639 0.714844 135.256 0.714844 129.044V12.2616C0.714844 5.6356 6.09834 0.666138 12.3101 0.666138H204.459C211.085 0.666138 216.054 6.04972 216.054 12.2616V129.044V129.044Z" fill="url(#paint0_linear)"></path><path d="M259.537 175.011C259.537 168.385 264.921 163.416 271.132 163.416H463.281C469.907 163.416 474.877 168.8 474.877 175.011V291.794C474.877 298.42 469.493 303.389 463.281 303.389H271.132C264.506 303.389 259.537 298.006 259.537 291.794V175.011V175.011Z" fill="url(#paint1_linear)"></path><defs><linearGradient id="paint0_linear" x1="0.636162" y1="70.6346" x2="216.142" y2="70.6346" gradientUnits="userSpaceOnUse"><stop stop-color="#727171"></stop><stop offset="1"></stop></linearGradient><linearGradient id="paint1_linear" x1="475.177" y1="233.567" x2="259.672" y2="233.567" gradientUnits="userSpaceOnUse"><stop stop-color="#727171"></stop><stop offset="1"></stop></linearGradient></defs></svg> 