<?xml version="1.0" encoding="UTF-8"?> <svg xmlns="http://www.w3.org/2000/svg" width="322" height="228" viewBox="0 0 322 228" fill="none"><path d="M6.31708 90.3223C9.51899 90.3223 12.1146 87.7266 12.1146 84.5246C12.1146 81.3226 9.51899 78.7269 6.31708 78.7269C3.11517 78.7269 0.519531 81.3226 0.519531 84.5246C0.519531 87.7266 3.11517 90.3223 6.31708 90.3223Z" fill="#EDBA18"></path><path d="M94.9365 117.24C99.0532 117.24 102.391 113.903 102.391 109.786C102.391 105.669 99.0532 102.332 94.9365 102.332C90.8197 102.332 87.4824 105.669 87.4824 109.786C87.4824 113.903 90.8197 117.24 94.9365 117.24Z" fill="#EDBA18"></path><path d="M34.4776 32.7595C38.5944 32.7595 41.9316 29.4222 41.9316 25.3054C41.9316 21.1886 38.5944 17.8512 34.4776 17.8512C30.3608 17.8512 27.0234 21.1886 27.0234 25.3054C27.0234 29.4222 30.3608 32.7595 34.4776 32.7595Z" fill="#EDBA18"></path><path d="M309.866 104.817C313.068 104.817 315.664 102.221 315.664 99.019C315.664 95.817 313.068 93.2213 309.866 93.2213C306.664 93.2213 304.068 95.817 304.068 99.019C304.068 102.221 306.664 104.817 309.866 104.817Z" fill="#EDBA18"></path><path d="M130.138 43.9408C134.255 43.9408 137.592 40.6034 137.592 36.4865C137.592 32.3697 134.255 29.0323 130.138 29.0323C126.021 29.0323 122.684 32.3697 122.684 36.4865C122.684 40.6034 126.021 43.9408 130.138 43.9408Z" fill="#EDBA18"></path><path d="M200.124 80.7977C204.241 80.7977 207.578 77.4603 207.578 73.3434C207.578 69.2266 204.241 65.8893 200.124 65.8893C196.007 65.8893 192.67 69.2266 192.67 73.3434C192.67 77.4603 196.007 80.7977 200.124 80.7977Z" fill="#EDBA18"></path><path d="M253.958 36.0723C258.075 36.0723 261.412 32.735 261.412 28.6182C261.412 24.5013 258.075 21.1641 253.958 21.1641C249.841 21.1641 246.504 24.5013 246.504 28.6182C246.504 32.735 249.841 36.0723 253.958 36.0723Z" fill="#EDBA18"></path><path d="M40.2722 204.62C43.4742 204.62 46.0698 202.024 46.0698 198.822C46.0698 195.62 43.4742 193.025 40.2722 193.025C37.0703 193.025 34.4746 195.62 34.4746 198.822C34.4746 202.024 37.0703 204.62 40.2722 204.62Z" fill="#EDBA18"></path><path d="M261.411 204.62C264.613 204.62 267.208 202.024 267.208 198.822C267.208 195.62 264.613 193.025 261.411 193.025C258.209 193.025 255.613 195.62 255.613 198.822C255.613 202.024 258.209 204.62 261.411 204.62Z" fill="#EDBA18"></path><path d="M169.891 227.397C173.093 227.397 175.689 224.801 175.689 221.599C175.689 218.397 173.093 215.801 169.891 215.801C166.689 215.801 164.094 218.397 164.094 221.599C164.094 224.801 166.689 227.397 169.891 227.397Z" fill="#EDBA18"></path><path d="M164.092 12.0532C167.294 12.0532 169.89 9.45751 169.89 6.25549C169.89 3.05348 167.294 0.457764 164.092 0.457764C160.891 0.457764 158.295 3.05348 158.295 6.25549C158.295 9.45751 160.891 12.0532 164.092 12.0532Z" fill="#EDBA18"></path><path d="M316.077 142.916C319.279 142.916 321.875 140.321 321.875 137.119C321.875 133.917 319.279 131.321 316.077 131.321C312.875 131.321 310.279 133.917 310.279 137.119C310.279 140.321 312.875 142.916 316.077 142.916Z" fill="#EDBA18"></path><path d="M164.092 143.33C167.294 143.33 169.89 140.734 169.89 137.532C169.89 134.331 167.294 131.735 164.092 131.735C160.891 131.735 158.295 134.331 158.295 137.532C158.295 140.734 160.891 143.33 164.092 143.33Z" fill="#EDBA18"></path></svg> 