<?xml version="1.0" encoding="UTF-8"?> <svg xmlns="http://www.w3.org/2000/svg" width="401" height="193" viewBox="0 0 401 193" fill="none"><path d="M210.882 64.2651C209.824 64.2651 209.118 63.2066 209.118 62.501C209.118 62.501 209.118 61.7952 209.471 60.3839C209.824 59.3254 210.529 58.9727 211.588 58.9727C212.647 59.3255 213 60.0311 213 61.0896C212.647 61.7952 212.647 62.501 212.647 62.501C212.647 63.5595 211.941 64.2651 210.882 64.2651Z" fill="black"></path><path d="M216.177 53.3267C215.824 53.3267 215.471 53.3267 215.118 52.9739C214.412 52.2683 214.412 51.2097 215.118 50.5041C215.824 49.4456 216.883 48.7399 217.941 48.0343C218.647 47.3286 219.706 47.6816 220.412 48.3872C221.118 49.0929 220.765 50.1512 220.059 50.8568C219.353 51.5625 218.294 52.2683 217.588 52.9739C217.235 52.9739 216.53 53.3267 216.177 53.3267Z" fill="black"></path><path d="M291.706 67.7942C291 67.7942 290.294 67.4412 289.941 66.7355C289.588 65.6769 289.235 64.6185 288.53 63.56C288.177 62.8543 288.53 61.7957 289.235 61.09C289.941 60.7372 291 61.0901 291.706 61.7958C292.412 62.8543 292.765 63.9127 293.118 64.9712C293.471 66.0298 293.118 66.7356 292.059 67.0885C292.059 67.7941 292.059 67.7942 291.706 67.7942ZM283.941 56.5031C283.588 56.5031 282.882 56.5029 282.882 56.1501C282.177 55.4444 281.118 54.7388 280.412 54.0331C279.706 53.3274 279.353 52.2688 280.059 51.5631C280.765 50.8574 281.824 50.5047 282.53 51.2104C283.588 51.916 284.294 52.9746 285.353 53.6803C286.059 54.386 286.059 55.4444 285.353 56.1501C285 56.1501 284.647 56.5031 283.941 56.5031ZM272.294 48.7404C271.941 48.7404 271.941 48.7404 271.588 48.7404C270.53 48.3875 269.471 48.0347 268.412 47.6819C267.353 47.329 267 46.2704 267.353 45.5647C267.706 44.5061 268.765 44.1533 269.471 44.5062C270.53 44.859 271.941 45.212 273 45.9176C274.059 46.2705 274.412 47.3291 274.059 48.3876C273.706 48.3876 273 48.7404 272.294 48.7404ZM227.824 45.9176C227.118 45.9176 226.412 45.5648 226.059 44.8592C225.706 43.8006 226.412 43.0948 227.118 42.7419C228.177 42.3891 229.235 42.0363 230.647 41.6834C231.706 41.3306 232.412 42.0364 232.765 43.0949C233.118 44.1535 232.412 44.8591 231.353 45.2119C230.294 45.5648 229.235 45.9176 228.177 46.2704C228.177 45.9176 228.177 45.9176 227.824 45.9176ZM259.235 44.8592C258.882 44.8592 258.882 44.8592 259.235 44.8592C258.53 44.8592 257.824 44.5062 257.471 44.5062L255.706 44.1534C254.647 44.1534 253.941 43.0947 254.294 42.0362C254.294 40.9777 255.353 40.2721 256.412 40.6249L258.177 40.9777C258.882 40.9777 259.235 40.9778 259.941 41.3307C261 41.3307 261.706 42.3891 261.353 43.4477C260.647 44.5062 259.941 44.8592 259.235 44.8592ZM241.588 43.8004C240.53 43.8004 239.824 43.0947 239.824 42.0362C239.824 40.9777 240.53 40.272 241.588 40.272C242.294 40.272 243.353 40.272 244.059 40.272H245.118C246.177 40.272 246.882 40.9777 246.882 42.0362C246.882 43.0947 246.177 43.8004 245.118 43.8004H244.059C243.353 43.8004 242.294 43.8004 241.588 43.8004Z" fill="black"></path><path d="M294.177 79.7905C293.118 79.7905 292.412 79.0848 292.412 78.0263C292.412 77.3206 292.412 76.9677 292.412 76.262C292.412 75.2035 293.118 74.4979 293.824 74.145C294.883 74.145 295.589 74.8506 295.941 75.5563C295.941 76.262 295.941 76.6148 295.941 77.3205C296.294 79.0848 295.589 79.7905 294.177 79.7905C294.53 79.7905 294.53 79.7905 294.177 79.7905Z" fill="black"></path><path d="M282.53 74.145L292.765 94.9626L305.824 75.5563L282.53 74.145Z" fill="black"></path><path d="M162.53 82.6133C162.53 88.2589 157.941 92.4932 152.647 92.4932H10.4119C4.76484 92.4932 0.529541 87.906 0.529541 82.6133V36.038C0.529541 30.3925 5.11779 26.1582 10.4119 26.1582H152.647C158.294 26.1582 162.53 30.7454 162.53 36.038V82.6133Z" fill="#999899"></path><path d="M179.823 64.2654C179.823 69.9109 175.235 74.145 169.941 74.145H27.7056C22.0585 74.145 17.8232 69.5581 17.8232 64.2654V13.4556C17.8232 7.81003 22.4115 3.57593 27.7056 3.57593H169.941C175.588 3.57593 179.823 8.16288 179.823 13.4556V64.2654Z" fill="#EFEBE1"></path><path d="M169.588 78.0261H27.3528C19.9411 78.0261 13.941 72.0278 13.941 64.6181V13.4556C13.941 6.04592 19.9411 0.0476074 27.3528 0.0476074H169.588C177 0.0476074 183 6.04592 183 13.4556V64.2653C183.353 71.6751 177 78.0261 169.588 78.0261ZM27.3528 6.75152C23.8234 6.75152 20.9999 9.57445 20.9999 13.1029V63.9123C20.9999 67.4408 23.8234 70.2635 27.3528 70.2635H169.588C173.118 70.2635 175.941 67.4408 175.941 63.9123V13.4556C175.941 9.92721 173.118 7.10449 169.588 7.10449H27.3528V6.75152Z" fill="black"></path><path d="M397.235 178.94C397.235 184.586 392.647 188.82 387.353 188.82H245.117C239.47 188.82 235.235 184.233 235.235 178.94V128.13C235.235 122.485 239.823 118.251 245.117 118.251H387.353C393 118.251 397.235 122.838 397.235 128.13V178.94Z" fill="#EFEBE1"></path><path d="M387.353 192.701H245.117C237.706 192.701 231.706 186.703 231.706 179.293V128.483C231.706 121.074 237.706 115.075 245.117 115.075H387.353C394.764 115.075 400.764 121.074 400.764 128.483V179.293C400.764 186.35 394.764 192.701 387.353 192.701ZM244.764 121.426C241.235 121.426 238.411 124.249 238.411 127.778V178.587C238.411 182.116 241.235 184.938 244.764 184.938H387C390.529 184.938 393.353 182.116 393.353 178.587V127.778C393.353 124.249 390.529 121.426 387 121.426H244.764Z" fill="black"></path></svg> 