<?xml version="1.0" encoding="UTF-8"?> <svg xmlns="http://www.w3.org/2000/svg" width="401" height="241" viewBox="0 0 401 241" fill="none"><path d="M208.249 89.1748C207.074 89.1748 206.291 88.0002 206.291 87.2171C206.291 87.2171 206.291 86.434 206.682 84.8679C207.074 83.6933 207.857 83.3018 209.032 83.3018C210.206 83.6933 210.598 84.4764 210.598 85.651C210.206 86.4341 210.206 87.2171 210.206 87.2171C210.206 88.3917 209.423 89.1748 208.249 89.1748Z" fill="black"></path><path d="M214.122 77.0374C213.73 77.0374 213.339 77.0374 212.947 76.6459C212.164 75.8628 212.164 74.6881 212.947 73.905C213.73 72.7304 214.905 71.9472 216.08 71.1641C216.863 70.3811 218.037 70.7726 218.821 71.5557C219.604 72.3388 219.212 73.5135 218.429 74.2966C217.646 75.0797 216.471 75.8628 215.688 76.6459C215.297 77.0374 214.513 77.0374 214.122 77.0374Z" fill="black"></path><path d="M297.914 93.4825C297.131 93.4825 296.347 93.091 295.956 92.308C295.564 91.1333 295.173 89.9586 294.39 88.784C293.998 88.0009 294.39 86.8264 295.173 86.0433C295.956 85.6517 297.131 86.0432 297.914 86.8263C298.697 88.0009 299.088 89.1756 299.48 90.3503C299.871 91.5249 299.48 92.3079 298.305 92.6994C298.305 93.4825 297.914 93.4825 297.914 93.4825ZM289.3 80.5617C288.908 80.5617 288.125 80.5617 288.125 80.1702C287.342 79.3871 286.167 78.604 285.384 77.8209C284.601 77.0378 284.209 75.8631 284.992 75.08C285.776 74.297 286.95 73.9055 287.733 74.6886C288.908 75.4717 289.691 76.6462 290.866 77.4293C291.649 78.2124 291.649 79.3871 290.866 80.1702C290.474 80.5617 290.083 80.5617 289.3 80.5617ZM276.378 72.3393C275.987 72.3393 275.987 72.3393 275.595 72.3393C274.421 71.9478 273.246 71.5562 272.071 71.1646C270.897 70.7731 270.505 69.5986 270.897 68.8155C271.288 67.6408 272.463 67.2492 273.246 67.6408C274.421 68.0323 275.987 68.4238 277.161 69.2069C278.336 69.5985 278.728 70.7731 278.336 71.9478C277.945 71.9478 277.161 72.3393 276.378 72.3393ZM227.043 69.2069C226.26 69.2069 225.477 68.8154 225.085 68.0323C224.694 66.8577 225.477 66.0746 226.26 65.6831C227.435 65.2915 228.609 64.9 230.175 64.5085C231.35 64.1169 232.133 64.9 232.525 66.0746C232.916 67.2493 232.133 68.0324 230.958 68.4239C229.784 68.8154 228.609 69.2069 227.435 69.5985C227.435 69.2069 227.435 69.2069 227.043 69.2069ZM261.499 68.0323C260.716 68.0323 259.933 67.6408 259.542 67.6408L257.584 67.2492C256.409 67.2492 255.626 66.0747 256.018 64.9001C256.018 63.7254 257.192 62.9423 258.367 63.3338L260.325 63.7254C261.108 63.7254 261.499 63.7254 262.283 64.1169C263.457 64.1169 264.24 65.2916 263.849 66.4662C263.457 67.2493 262.674 68.0323 261.499 68.0323ZM242.313 66.4662C241.139 66.4662 240.356 65.6831 240.356 64.5085C240.356 63.3339 241.139 62.5508 242.313 62.5508C243.097 62.5508 244.271 62.5508 245.054 62.5508H246.229C247.404 62.5508 248.187 63.3339 248.187 64.5085C248.187 65.6831 247.404 66.4662 246.229 66.4662H245.054C243.88 66.4662 243.097 66.4662 242.313 66.4662Z" fill="black"></path><path d="M300.654 106.795C299.48 106.795 298.697 106.012 298.697 104.838C298.697 104.055 298.697 103.663 298.697 102.88C298.697 101.705 299.48 100.922 300.263 100.531C301.437 100.531 302.221 101.314 302.612 102.097C302.612 102.88 302.612 103.272 302.612 104.055C302.612 105.621 301.829 106.795 300.654 106.795Z" fill="black"></path><path d="M287.733 100.139L299.088 123.24L313.184 102.097L287.733 100.139Z" fill="black"></path><path d="M396.976 225.432C396.976 231.697 391.886 236.395 386.012 236.395H228.218C221.953 236.395 217.254 231.305 217.254 225.432V169.05C217.254 162.785 222.344 158.087 228.218 158.087H386.012C392.277 158.087 396.976 163.177 396.976 169.05V225.432V225.432Z" fill="black"></path><path d="M386.012 240.702H228.218C219.995 240.702 213.339 234.046 213.339 225.823V169.442C213.339 161.219 219.995 154.563 228.218 154.563H386.012C394.235 154.563 400.891 161.219 400.891 169.442V225.823C400.891 234.046 394.235 240.702 386.012 240.702ZM228.218 162.002C224.302 162.002 221.17 165.135 221.17 169.05V225.432C221.17 229.347 224.302 232.48 228.218 232.48H386.012C389.928 232.48 393.06 229.347 393.06 225.432V169.05C393.06 165.135 389.928 162.002 386.012 162.002H228.218Z" fill="black"></path><path d="M1.90189 8.51811H159.697C160.48 8.51811 161.263 8.51813 162.046 8.90967V0.687341C161.263 0.687341 160.48 0.295898 159.697 0.295898H1.90189C1.51034 0.295898 0.727244 0.295898 0.335693 0.295898V8.12666C0.727244 8.5182 1.11879 8.51811 1.90189 8.51811Z" fill="black"></path><path d="M159.697 79.3875H1.90189C1.51034 79.3875 0.727244 79.3875 0.335693 79.3875V87.2183C0.727244 87.2183 1.51034 87.2183 1.90189 87.2183H159.697C160.48 87.2183 161.263 87.2182 162.046 86.8267V78.6045C161.263 79.3876 160.48 79.3875 159.697 79.3875Z" fill="black"></path><path d="M95.8737 6.16895H65.7244V80.5618H95.8737V6.16895Z" fill="#040000"></path><path d="M21.871 43.7574C21.871 42.5829 22.6541 41.7998 23.8287 41.7998H63.7669C64.9415 41.7998 65.7246 42.5829 65.7246 43.7574C65.7246 44.932 64.9415 45.7151 63.7669 45.7151H23.8287C23.0456 45.7151 21.871 44.932 21.871 43.7574Z" fill="black"></path><path d="M63.7669 47.6726H23.8287C21.4794 47.6726 19.9132 46.1064 19.9132 43.7572C19.9132 41.408 21.4794 39.8418 23.8287 39.8418H63.7669C66.1162 39.8418 67.6824 41.408 67.6824 43.7572C67.6824 46.1064 66.1162 47.6726 63.7669 47.6726ZM21.871 43.7572H23.8287H21.871Z" fill="black"></path><path d="M36.7499 28.0957L39.0992 31.2281L25.3949 43.7575L39.0992 56.6785L36.7499 59.8108L19.9132 43.7575L36.7499 28.0957Z" fill="black"></path><path d="M36.7497 62.5509L16.7806 43.7569L36.7497 25.3545L42.2314 31.2276L28.1356 43.7569L42.2314 56.6778L36.7497 62.5509Z" fill="black"></path><path d="M138.944 43.7574C138.944 44.932 138.161 45.7151 136.987 45.7151H97.0485C95.8738 45.7151 95.0907 44.932 95.0907 43.7574C95.0907 42.5829 95.8738 41.7998 97.0485 41.7998H136.987C137.77 41.7998 138.944 42.9744 138.944 43.7574Z" fill="black"></path><path d="M136.987 47.6726H97.0484C94.6991 47.6726 93.1329 46.1064 93.1329 43.7572C93.1329 41.408 94.6991 39.8418 97.0484 39.8418H136.987C139.336 39.8418 140.902 41.408 140.902 43.7572C140.902 46.1064 138.944 47.6726 136.987 47.6726ZM136.987 43.7572H138.944H136.987Z" fill="black"></path><path d="M124.066 59.8108L121.716 56.6785L135.421 43.7575L121.716 31.2281L124.066 28.0957L140.902 43.7575L124.066 59.8108Z" fill="black"></path><path d="M124.065 62.5509L118.584 56.6778L132.68 43.7569L118.584 31.2276L124.065 25.3545L144.035 43.7569L124.065 62.5509Z" fill="black"></path></svg> 