<?xml version="1.0" encoding="UTF-8"?> <svg xmlns="http://www.w3.org/2000/svg" width="284" height="132" viewBox="0 0 284 132" fill="none"><path d="M29.2942 130.933L0.353027 106.234L10.9413 11.3189L42.353 2.4978L94.9412 9.90756L29.2942 130.933Z" fill="#C3B68F"></path><path d="M118.941 65.3043C118.941 66.3629 118.235 67.0686 117.177 67.0686H42.3531C41.2943 67.0686 40.5884 66.3629 40.5884 65.3043C40.5884 64.2458 41.2943 63.54 42.3531 63.54H117.177C118.235 63.54 118.941 64.2458 118.941 65.3043Z" fill="black"></path><path d="M117.177 68.833H42.353C40.2354 68.833 38.8236 67.4216 38.8236 65.3046C38.8236 63.1875 40.2354 61.7761 42.353 61.7761H117.177C119.294 61.7761 120.706 63.1875 120.706 65.3046C120.706 67.4216 119.294 68.833 117.177 68.833ZM117.177 65.3046H118.941H117.177Z" fill="black"></path><path d="M105.883 79.4182L103.412 76.9483L116.118 65.3044L103.412 53.6605L105.883 51.1907L121.059 65.3044L105.883 79.4182Z" fill="black"></path><path d="M105.883 81.888L100.942 76.5953L113.294 65.3043L100.942 53.6604L105.883 48.3677L123.53 65.3043L105.883 81.888Z" fill="black"></path><path d="M258 131.286H25.7648C11.6472 131.286 0.353027 119.995 0.353027 105.881V25.7854C0.353027 11.6717 11.6472 0.380615 25.7648 0.380615H258C272.118 0.380615 283.412 11.6717 283.412 25.7854V105.881C283.412 119.995 272.118 131.286 258 131.286ZM25.7648 11.3188C17.6472 11.3188 10.9413 18.0229 10.9413 26.1383V106.234C10.9413 114.349 17.6472 121.053 25.7648 121.053H258C266.118 121.053 272.824 114.349 272.824 106.234V26.1383C272.824 18.0229 266.118 11.3188 258 11.3188H25.7648Z" fill="black"></path></svg> 