<?xml version="1.0" encoding="UTF-8"?> <svg xmlns="http://www.w3.org/2000/svg" width="465" height="255" viewBox="0 0 465 255" fill="none"><path d="M416.956 254.152H273.256C247.023 254.152 225.487 232.618 225.487 206.384C225.487 180.151 247.023 158.616 273.256 158.616H416.956C443.189 158.616 464.725 180.151 464.725 206.384C464.725 232.618 443.189 254.152 416.956 254.152Z" fill="url(#paint0_linear)"></path><path d="M256.419 112.805C255.245 112.805 254.462 111.631 254.462 110.847C254.462 110.847 254.462 110.065 254.853 108.498C255.245 107.324 256.028 106.932 257.203 106.932C258.377 107.324 258.769 108.107 258.769 109.281C258.377 110.065 258.377 110.847 258.377 110.847C258.377 112.022 257.203 112.805 256.419 112.805Z" fill="black"></path><path d="M262.293 101.06C261.901 101.06 261.51 101.06 261.118 100.668C260.335 99.8853 260.335 98.7106 261.118 97.9275C261.901 96.7528 263.076 95.9697 264.251 95.1866C265.034 94.4035 266.208 94.7952 266.991 95.5783C267.775 96.3614 267.383 97.5361 266.6 98.3192C265.817 99.1023 264.642 99.8853 263.859 100.668C263.076 100.668 262.684 101.06 262.293 101.06Z" fill="black"></path><path d="M346.085 117.113C345.302 117.113 344.519 116.722 344.127 115.939C343.735 114.764 343.344 113.589 342.561 112.415C342.169 111.632 342.561 110.457 343.344 109.674C344.127 109.282 345.302 109.674 346.085 110.457C346.868 111.632 347.259 112.806 347.651 113.981C348.042 115.156 347.651 115.939 346.476 116.33C346.476 117.113 346.085 117.113 346.085 117.113ZM337.471 104.192C337.079 104.192 336.296 104.192 336.296 103.801C335.513 103.018 334.338 102.235 333.555 101.451C332.772 100.668 332.38 99.4937 333.163 98.7106C333.947 97.9275 335.121 97.5361 335.904 98.3192C337.079 99.1023 337.862 100.277 339.037 101.06C339.82 101.843 339.82 103.018 339.037 103.801C338.645 104.192 337.862 104.192 337.471 104.192ZM324.549 95.9698C324.158 95.9698 324.158 95.9698 323.766 95.9698C322.592 95.5782 321.417 95.1867 320.242 94.7952C319.068 94.4036 318.676 93.2291 319.068 92.446C319.459 91.2714 320.634 90.8796 321.417 91.2712C322.592 91.6627 324.158 92.0544 325.332 92.8375C326.507 93.229 326.899 94.4037 326.507 95.5783C326.116 95.5783 325.333 95.9698 324.549 95.9698ZM275.214 92.8375C274.431 92.8375 273.648 92.446 273.256 91.6629C272.865 90.4882 273.648 89.705 274.431 89.3135C275.606 88.9219 276.78 88.5304 278.346 88.1389C279.521 87.7473 280.304 88.5305 280.696 89.7052C281.087 90.8798 280.304 91.6628 279.13 92.0543C277.955 92.4459 276.78 92.8374 275.606 93.2289C275.606 92.8374 275.214 92.8375 275.214 92.8375ZM309.67 91.6629C308.887 91.6629 308.104 91.2712 307.713 91.2712L305.755 90.8797C304.58 90.8797 303.797 89.7052 304.189 88.5306C304.189 87.3559 305.363 86.5727 306.538 86.9643L308.496 87.3557C309.279 87.3557 309.67 87.3559 310.454 87.7474C311.628 87.7474 312.411 88.922 312.02 90.0966C311.628 90.8797 310.454 91.6629 309.67 91.6629ZM290.484 90.0966C289.31 90.0966 288.527 89.3135 288.527 88.1389C288.527 86.9642 289.31 86.1812 290.484 86.1812C291.268 86.1812 292.442 86.1812 293.225 86.1812H294.4C295.575 86.1812 296.358 86.9642 296.358 88.1389C296.358 89.3135 295.575 90.0966 294.4 90.0966H293.225C292.051 90.0966 291.268 90.0966 290.484 90.0966Z" fill="black"></path><path d="M348.825 130.426C347.651 130.426 346.867 129.642 346.867 128.468C346.867 127.685 346.867 127.293 346.867 126.51C346.867 125.336 347.651 124.553 348.434 124.161C349.608 124.161 350.391 124.944 350.783 125.727C350.783 126.51 350.783 126.902 350.783 127.685C350.783 129.643 350 130.426 348.825 130.426Z" fill="black"></path><path d="M335.904 123.77L347.259 146.87L361.355 125.727L335.904 123.77Z" fill="black"></path><path d="M196.121 103.409H52.422C23.8388 103.409 0.737305 80.3082 0.737305 51.7256C0.737305 23.143 23.8388 0.0419922 52.422 0.0419922H196.121C224.704 0.0419922 247.806 23.143 247.806 51.7256C247.806 80.3082 224.704 103.409 196.121 103.409ZM52.422 8.26452C28.1459 8.26452 8.56831 27.8414 8.56831 52.117C8.56831 76.3926 28.1459 95.9698 52.422 95.9698H196.121C220.397 95.9698 239.975 76.3926 239.975 52.117C239.975 27.8414 220.397 8.26452 196.121 8.26452H52.422Z" fill="black"></path><defs><linearGradient id="paint0_linear" x1="225.629" y1="206.454" x2="464.67" y2="206.454" gradientUnits="userSpaceOnUse"><stop offset="0.0979363" stop-color="#868687"></stop><stop offset="0.9937"></stop></linearGradient></defs></svg> 