<?xml version="1.0" encoding="UTF-8"?> <svg xmlns="http://www.w3.org/2000/svg" width="434" height="210" viewBox="0 0 434 210" fill="none"><path d="M226.469 71.5342C225.294 71.5342 224.511 70.3596 224.511 69.5765C224.511 69.5765 224.511 68.7934 224.902 67.2273C225.294 66.0526 226.077 65.6611 227.252 65.6611C228.426 66.0527 228.818 66.8356 228.818 68.0103C228.426 68.7933 228.426 69.5765 228.426 69.5765C228.426 70.7511 227.643 71.5342 226.469 71.5342Z" fill="black"></path><path d="M232.342 59.3965C231.951 59.3965 231.559 59.3965 231.167 59.0049C230.384 58.2219 230.384 57.0472 231.167 56.2642C231.951 55.0896 233.125 54.3066 234.3 53.5235C235.083 52.7404 236.258 53.132 237.041 53.9151C237.824 54.6981 237.432 55.8727 236.649 56.6557C235.866 57.4388 234.691 58.2219 233.908 59.0049C233.517 59.3965 233.125 59.3965 232.342 59.3965Z" fill="black"></path><path d="M316.134 75.8419C315.351 75.8419 314.568 75.4504 314.176 74.6673C313.784 73.4927 313.393 72.3181 312.61 71.1435C312.218 70.3604 312.61 69.1857 313.393 68.4027C314.176 68.0111 315.351 68.4027 316.134 69.1858C316.917 70.3604 317.308 71.535 317.7 72.7096C318.091 73.8843 317.7 74.6674 316.525 75.0589C316.525 75.842 316.525 75.8419 316.134 75.8419ZM307.911 62.9211C307.52 62.9211 306.737 62.9211 306.737 62.5295C305.953 61.7464 304.779 60.9633 303.996 60.1803C303.213 59.3972 302.821 58.2226 303.604 57.4395C304.387 56.6565 305.562 56.2649 306.345 57.048C307.52 57.8311 308.303 59.0057 309.477 59.7888C310.26 60.5719 310.26 61.7464 309.477 62.5295C308.694 62.5295 308.303 62.9211 307.911 62.9211ZM294.99 54.3071C294.598 54.3071 294.598 54.3071 294.207 54.3071C293.032 53.9156 291.858 53.5241 290.683 53.1326C289.508 52.741 289.117 51.5664 289.508 50.7833C289.9 49.6087 291.074 49.2172 291.858 49.6087C293.032 50.0002 294.598 50.3918 295.773 51.1748C296.948 51.5664 297.339 52.7411 296.948 53.9157C296.165 53.9157 295.773 54.3071 294.99 54.3071ZM245.263 51.1748C244.48 51.1748 243.697 50.7834 243.305 50.0003C242.914 48.8256 243.697 48.0425 244.48 47.651C245.655 47.2595 246.829 46.8678 248.395 46.4763C249.57 46.0848 250.353 46.8679 250.745 48.0426C251.136 49.2172 250.353 50.0002 249.179 50.3917C248.004 50.7833 246.829 51.1749 245.655 51.5664C246.046 51.1749 245.655 51.1748 245.263 51.1748ZM280.111 50.0003C279.72 50.0003 279.72 50.0003 280.111 50.0003C279.328 50.0003 278.545 49.6087 278.153 49.6087L276.196 49.2171C275.021 49.2171 274.238 48.0425 274.629 46.8679C274.629 45.6932 275.804 44.9102 276.979 45.3017L278.936 45.6933C279.72 45.6933 280.111 45.6933 280.894 46.0849C282.069 46.0849 282.852 47.2594 282.46 48.434C281.677 49.6086 280.894 50.0003 280.111 50.0003ZM260.534 48.8256C259.359 48.8256 258.576 48.0425 258.576 46.8679C258.576 45.6932 259.359 44.9102 260.534 44.9102C261.317 44.9102 262.491 44.9102 263.274 44.9102H264.449C265.624 44.9102 266.407 45.6932 266.407 46.8679C266.407 48.0425 265.624 48.8256 264.449 48.8256H263.274C262.491 48.8256 261.708 48.8256 260.534 48.8256C260.534 48.8256 260.925 48.8256 260.534 48.8256Z" fill="black"></path><path d="M319.266 89.1549C318.091 89.1549 317.308 88.3718 317.308 87.1972C317.308 86.4141 317.308 86.0225 317.308 85.2394C317.308 84.0648 318.091 83.2817 318.874 82.8901C320.049 82.8901 320.832 83.6732 321.224 84.4563C321.224 85.2394 321.224 85.6309 321.224 86.414C321.224 87.9802 320.441 89.1549 319.266 89.1549Z" fill="black"></path><path d="M305.953 82.4985L317.308 105.599L331.796 84.0647L305.953 82.4985Z" fill="black"></path><path d="M433.207 198.787C433.207 205.051 428.117 209.75 422.244 209.75H264.449C258.184 209.75 253.486 204.66 253.486 198.787V142.405C253.486 136.14 258.576 131.441 264.449 131.441H422.244C428.509 131.441 433.207 136.531 433.207 142.405V198.787Z" fill="#040000"></path><path d="M184.181 82.8903C184.573 82.8903 184.573 82.4987 184.573 82.4987C184.573 82.4987 184.573 82.1072 184.181 82.4987V82.8903Z" fill="#EFEBE1"></path><path d="M5.24274 4.19043C4.8512 4.19043 4.8512 4.58197 4.8512 4.58197C4.8512 4.58197 4.8512 4.97349 5.24274 4.58197C5.24274 4.58197 5.63429 4.19043 5.24274 4.19043Z" fill="#EFEBE1"></path><path d="M68.6738 0.274902H15.8145C11.899 0.274902 8.37501 1.84106 5.63416 4.19031H68.6738V0.274902Z" fill="black"></path><path d="M4.85118 5.36426C2.50187 8.10505 0.935669 11.629 0.935669 15.5444V37.8623H4.85118V5.36426Z" fill="black"></path><path d="M184.964 81.7156C187.314 78.9748 188.88 75.451 188.88 71.5356V51.1753H184.964V81.7156Z" fill="black"></path><path d="M111.745 86.806H173.61C177.525 86.806 181.049 85.2399 183.79 82.8906H111.745V86.806Z" fill="black"></path><path d="M8.76676 37.4716V15.1536C8.76676 11.2382 11.8992 8.10586 15.8147 8.10586H68.674V4.19043H5.63436C5.24281 4.58197 4.85127 4.97347 4.45972 5.36501V37.4716H8.76676Z" fill="black"></path><path d="M181.049 51.1753V71.5355C181.049 75.4509 177.917 78.5832 174.001 78.5832H111.745V82.4987H183.398C183.79 82.1071 184.181 81.7156 184.573 81.3241V51.1753H181.049Z" fill="black"></path><path d="M4.8512 82.1069C4.8512 82.4984 5.24274 82.4984 5.24274 82.4984C5.63429 82.4984 5.63429 82.4984 5.24274 82.1069C5.24274 82.1069 4.8512 82.1069 4.8512 82.1069Z" fill="#EFEBE1"></path></svg> 