<?xml version="1.0" encoding="UTF-8"?> <svg xmlns="http://www.w3.org/2000/svg" width="304" height="141" viewBox="0 0 304 141" fill="none"><path d="M283.176 130.47C284.235 135.763 280.706 140.35 275.059 140.35L25.5294 137.88C19.8823 137.88 14.9411 133.293 13.8823 128L5.76467 75.0734C5.05879 69.7808 8.5882 65.1938 14.2353 65.1938H260.588C266.235 65.1938 271.529 69.7808 272.588 75.0734L283.176 130.47Z" fill="#727171"></path><path d="M259.176 70.4866H12.1176C7.52941 70.4866 3.64706 68.7223 1.88236 65.1939C0.117653 62.0183 0.470598 57.7841 2.94119 53.9028L30.4706 11.2086C34.3529 5.21025 43.1765 0.270508 50.2353 0.270508H291.647C296.235 0.270508 299.765 2.03473 301.882 5.56318C303.647 8.73878 303.647 12.9729 301.529 16.8541L278.235 58.8426C275.059 65.5467 266.588 70.4866 259.176 70.4866ZM11.7647 59.9012H259.176C262.706 59.9012 267.647 57.0784 269.412 53.9028L292.706 11.9143C293.059 11.5615 293.059 11.2086 293.059 11.2086C292.706 11.2086 292.706 11.2086 292 11.2086H50.5882C46.7059 11.2086 41.7647 14.0314 39.6471 17.207L11.7647 59.9012Z" fill="black"></path><path d="M126.823 107.535C125.765 107.535 124.706 107.182 124 106.124C122.235 104.007 84.4705 49.6687 110.588 25.3225C134.588 2.74041 171.647 36.9664 182.235 47.9046C183.647 49.316 183.647 51.433 182.235 52.8444C180.823 54.2558 178.706 54.2558 177.294 52.8444C167.765 42.9647 134.588 12.2673 115.529 30.2624C93.9999 50.7273 129.647 101.537 130 101.89C131.059 103.654 130.706 105.771 129.294 106.83C128.235 107.535 127.529 107.535 126.823 107.535Z" fill="#040000"></path><path d="M161.059 52.4914V48.963L178.706 49.6687L177.647 32.0266H181.176L182.235 53.1971L161.059 52.4914Z" fill="#040000"></path></svg> 