<?xml version="1.0" encoding="UTF-8"?> <svg xmlns="http://www.w3.org/2000/svg" width="443" height="224" viewBox="0 0 443 224" fill="none"><path d="M191.954 96.2388H48.2546C22.0207 96.2388 0.485352 74.704 0.485352 48.4707C0.485352 22.2374 22.0207 0.702637 48.2546 0.702637H191.954C218.187 0.702637 239.723 22.2374 239.723 48.4707C239.723 74.704 218.187 96.2388 191.954 96.2388Z" fill="url(#paint0_linear)"></path><path d="M267.914 82.5342C267.914 82.5342 267.523 82.5342 267.914 82.5342C266.74 82.5342 265.957 81.3596 265.957 80.5765C265.957 80.5765 265.956 79.7934 266.348 78.2273C266.74 77.0526 267.523 76.6611 268.697 76.6611C269.872 77.0527 270.263 77.8356 270.263 79.0103C269.872 79.7933 269.872 80.5765 269.872 80.5765C269.48 81.7511 268.697 82.5342 267.914 82.5342Z" fill="black"></path><path d="M273.396 70.3965C273.004 70.3965 272.613 70.3965 272.221 70.0049C271.438 69.2219 271.438 68.0472 272.221 67.2642C273.004 66.0896 274.179 65.3066 275.354 64.5235C276.137 63.7404 277.311 64.132 278.094 64.9151C278.878 65.6981 278.486 66.8727 277.703 67.6557C276.92 68.4388 275.745 69.2219 274.962 70.0049C274.571 70.3965 274.179 70.3965 273.396 70.3965Z" fill="black"></path><path d="M357.188 86.8419C356.405 86.8419 355.621 86.4504 355.23 85.6673C354.838 84.4927 354.447 83.3181 353.664 82.1435C353.272 81.3604 353.664 80.1857 354.447 79.4027C355.23 79.0111 356.405 79.4027 357.188 80.1858C357.971 81.3604 358.362 82.535 358.754 83.7096C359.145 84.8843 358.754 85.6674 357.579 86.0589C357.971 86.842 357.579 86.8419 357.188 86.8419ZM348.965 73.9211C348.573 73.9211 347.79 73.9211 347.79 73.5295C347.007 72.7464 345.833 71.9633 345.05 71.1803C344.266 70.3972 343.875 69.2226 344.658 68.4395C345.441 67.6565 346.616 67.2649 347.399 68.048C348.574 68.8311 349.357 70.0057 350.531 70.7888C351.314 71.5719 351.314 72.7464 350.531 73.5295C349.748 73.5295 349.357 73.9211 348.965 73.9211ZM336.044 65.3071C335.652 65.3071 335.652 65.3071 335.261 65.3071C334.086 64.9156 332.912 64.5241 331.737 64.1326C330.562 63.741 330.171 62.5664 330.562 61.7833C330.954 60.6087 332.128 60.2172 332.911 60.6087C334.086 61.0002 335.652 61.3918 336.827 62.1748C338.002 62.5664 338.393 63.7411 338.002 64.9157C337.61 64.9157 336.827 65.3071 336.044 65.3071ZM286.709 62.1748C285.926 62.1748 285.142 61.7834 284.751 61.0003C284.359 59.8256 285.142 59.0425 285.925 58.651C287.1 58.2595 288.275 57.8678 289.841 57.4763C291.016 57.0848 291.799 57.8679 292.19 59.0426C292.582 60.2172 291.799 61.0002 290.624 61.3917C289.449 61.7833 288.275 62.1749 287.1 62.5664C287.1 62.1749 286.709 62.1748 286.709 62.1748ZM321.165 61.0003C321.165 61.0003 320.773 61.0003 321.165 61.0003C320.382 61.0003 319.599 60.6087 319.207 60.6087L317.249 60.2171C316.075 60.2171 315.292 59.0425 315.683 57.8679C315.683 56.6932 316.858 55.9102 318.033 56.3017L319.99 56.6933C320.773 56.6933 321.165 56.6933 321.948 57.0849C323.123 57.0849 323.906 58.2594 323.514 59.434C322.731 60.6086 321.948 61.0003 321.165 61.0003ZM301.979 59.8256C300.804 59.8256 300.021 59.0425 300.021 57.8679C300.021 56.6932 300.804 55.9102 301.979 55.9102C302.762 55.9102 303.937 55.9102 304.72 55.9102H305.895C307.069 55.9102 307.852 56.6932 307.852 57.8679C307.852 59.0425 307.069 59.8256 305.895 59.8256H304.72C303.545 59.8256 302.762 59.8256 301.979 59.8256Z" fill="black"></path><path d="M360.32 100.155C359.145 100.155 358.362 99.3718 358.362 98.1972C358.362 97.4141 358.362 97.0225 358.362 96.2394C358.362 95.0648 359.145 94.2817 359.928 93.8901C361.103 93.8901 361.886 94.6732 362.278 95.4563C362.278 96.2394 362.278 96.6309 362.278 97.414C362.278 98.9802 361.494 100.155 360.32 100.155Z" fill="black"></path><path d="M347.007 93.4985L358.362 116.599L372.85 95.0647L347.007 93.4985Z" fill="black"></path><path d="M409.656 223.49H320.774C302.762 223.49 288.275 209.003 288.275 190.992C288.275 172.982 302.762 158.495 320.774 158.495H409.656C427.667 158.495 442.154 172.982 442.154 190.992C441.763 209.003 427.275 223.49 409.656 223.49Z" fill="url(#paint1_linear)"></path><defs><linearGradient id="paint0_linear" x1="0.562879" y1="48.4597" x2="239.604" y2="48.4597" gradientUnits="userSpaceOnUse"><stop offset="0.0979363" stop-color="#868687"></stop><stop offset="0.9937"></stop></linearGradient><linearGradient id="paint1_linear" x1="288.172" y1="190.981" x2="441.923" y2="190.981" gradientUnits="userSpaceOnUse"><stop offset="0.0979363" stop-color="#868687"></stop><stop offset="0.9937"></stop></linearGradient></defs></svg> 