<?xml version="1.0" encoding="UTF-8"?> <svg xmlns="http://www.w3.org/2000/svg" width="284" height="131" viewBox="0 0 284 131" fill="none"><path d="M214.605 126.434L276.017 126.434V6.11437L214.605 6.11437V126.434Z" fill="#C3B68F"></path><path d="M162.529 61.8724C162.529 60.8138 163.235 60.1082 164.294 60.1082H239.117C240.176 60.1082 240.882 60.8138 240.882 61.8724C240.882 62.9309 240.176 63.6366 239.117 63.6366H164.294C163.235 63.6366 162.529 62.9309 162.529 61.8724Z" fill="black"></path><path d="M239.118 65.4008H164.294C162.176 65.4008 160.765 63.9894 160.765 61.8723C160.765 59.7553 162.176 58.3439 164.294 58.3439H239.118C241.235 58.3439 242.647 59.7553 242.647 61.8723C242.647 63.9894 240.882 65.4008 239.118 65.4008ZM162.529 61.8723H164.294H162.529Z" fill="black"></path><path d="M175.941 47.7585L178.059 50.2285L165.706 61.8723L178.059 73.5162L175.941 75.9861L160.765 61.8723L175.941 47.7585Z" fill="black"></path><path d="M175.941 78.4561L157.941 61.8724L175.941 45.2887L180.529 50.2285L168.176 61.8724L180.529 73.5163L175.941 78.4561Z" fill="black"></path><path d="M258.529 130.677H26.2942C12.1766 130.677 0.882446 119.386 0.882446 105.272V25.5294C0.882446 11.4157 12.1766 0.124634 26.2942 0.124634H258.529C272.647 0.124634 283.941 11.4157 283.941 25.5294V105.625C283.588 119.386 272.294 130.677 258.529 130.677ZM26.2942 10.71C18.1766 10.71 11.4707 17.414 11.4707 25.5294V105.625C11.4707 113.741 18.1766 120.445 26.2942 120.445H258.529C266.647 120.445 273.353 113.741 273.353 105.625V25.5294C273.353 17.414 266.647 10.71 258.529 10.71H26.2942V10.71Z" fill="black"></path></svg> 