<?xml version="1.0" encoding="UTF-8"?> <svg xmlns="http://www.w3.org/2000/svg" width="302" height="135" viewBox="0 0 302 135" fill="none"><path d="M280.353 34.9042C276.47 38.7855 269.059 42.314 263.412 42.314H16.3527C10.7057 42.314 9.64679 39.1384 13.5291 35.61L37.5292 13.3808C41.4116 9.49948 49.5292 6.67676 54.8233 6.67676H296.235C301.882 6.67676 303.294 9.85237 299.411 14.0865L280.353 34.9042Z" fill="#727171"></path><path d="M272.235 134.054H39.9996C25.882 134.054 14.5879 122.762 14.5879 108.649L0.823242 58.8977C0.823242 44.784 12.1173 33.4929 26.2349 33.4929H258.47C272.588 33.4929 283.882 44.784 283.882 58.8977L297.647 108.649C297.647 122.762 286.353 134.054 272.235 134.054ZM26.2349 44.4311C18.1173 44.4311 11.4115 51.1351 11.4115 59.2505L25.1762 109.002C25.1762 117.117 31.882 123.821 39.9996 123.821H272.235C280.353 123.821 287.058 117.117 287.058 109.002L273.294 59.2505C273.294 51.1351 266.588 44.4311 258.47 44.4311H26.2349Z" fill="black"></path><path d="M130 81.8327C129.294 81.8327 128.588 81.4798 127.883 81.127C115.53 71.953 77.059 39.4914 96.1178 13.028C116.941 -15.9052 175.529 14.7922 178 15.8507C179.765 16.9093 180.471 19.0263 179.412 20.7905C178.353 22.5548 176.235 23.2604 174.471 22.2019C173.765 21.849 118.706 -6.73134 101.412 17.2621C85.8825 38.7856 120.471 67.366 131.765 75.4814C133.177 76.54 133.53 79.0099 132.471 80.4212C132.118 81.4798 131.059 81.8327 130 81.8327Z" fill="#040000"></path><path d="M112 82.1855L111.647 79.01L128.941 77.2457L126.118 60.3092L129.647 59.6035L132.823 80.7742L112 82.1855Z" fill="#040000"></path></svg> 