<?xml version="1.0" encoding="UTF-8"?> <svg xmlns="http://www.w3.org/2000/svg" width="457" height="197" viewBox="0 0 457 197" fill="none"><path d="M222.061 88.0081C220.886 88.0081 220.103 86.8334 220.103 86.0503C220.103 86.0503 220.103 85.2673 220.494 83.7011C220.886 82.5264 221.669 82.1348 222.844 82.1348C224.018 82.5263 224.41 83.3093 224.41 84.484C224.018 85.2671 224.018 86.0503 224.018 86.0503C224.018 87.225 223.235 88.0081 222.061 88.0081Z" fill="black"></path><path d="M227.934 75.8704C227.543 75.8704 227.151 75.8702 226.759 75.4787C225.976 74.6956 225.976 73.5209 226.759 72.7378C227.543 71.5632 228.717 70.7803 229.892 69.9972C230.675 69.2141 231.85 69.6056 232.633 70.3886C233.416 71.1717 233.024 72.3464 232.241 73.1295C231.458 73.9126 230.283 74.6956 229.5 75.4787C228.717 75.8702 228.326 75.8704 227.934 75.8704Z" fill="black"></path><path d="M311.726 92.3154C310.943 92.3154 310.16 91.9239 309.768 91.1409C309.376 89.9662 308.985 88.7917 308.202 87.6171C307.81 86.834 308.202 85.6594 308.985 84.8763C309.768 84.4847 310.943 84.8763 311.726 85.6594C312.509 86.834 312.9 88.0085 313.292 89.1831C313.683 90.3578 313.292 91.141 312.117 91.5325C312.117 92.3156 311.726 92.3154 311.726 92.3154ZM303.112 79.3946C302.72 79.3946 301.937 79.3947 301.937 79.0032C301.154 78.2201 299.979 77.4368 299.196 76.6538C298.413 75.8707 298.021 74.6963 298.805 73.9132C299.588 73.1301 300.762 72.7384 301.545 73.5215C302.72 74.3046 303.503 75.4792 304.678 76.2623C305.461 77.0454 305.461 78.2201 304.678 79.0032C304.286 79.3947 303.503 79.3946 303.112 79.3946ZM290.19 71.1723C289.799 71.1723 289.799 71.1723 289.407 71.1723C288.233 70.7808 287.058 70.3893 285.883 69.9978C284.709 69.6062 284.317 68.4314 284.709 67.6484C285.1 66.4737 286.275 66.0822 287.058 66.4738C288.233 66.8653 289.799 67.257 290.974 68.04C292.148 68.4316 292.54 69.606 292.148 70.7806C291.757 70.7806 290.974 71.1723 290.19 71.1723ZM240.855 68.04C240.072 68.04 239.289 67.6483 238.897 66.8652C238.506 65.6906 239.289 64.9076 240.072 64.5161C241.247 64.1245 242.421 63.733 243.988 63.3415C245.162 62.95 245.945 63.7329 246.337 64.9075C246.728 66.0821 245.945 66.8654 244.771 67.2569C243.596 67.6485 242.421 68.0399 241.247 68.4315C241.247 68.0399 240.855 68.04 240.855 68.04ZM275.312 66.8652C274.528 66.8652 273.745 66.4738 273.354 66.4738L271.396 66.0823C270.221 66.0823 269.438 64.9076 269.83 63.7329C269.83 62.5583 271.004 61.7754 272.179 62.1669L274.137 62.5584C274.92 62.5584 275.312 62.5583 276.095 62.9498C277.269 62.9498 278.052 64.1246 277.661 65.2992C277.269 66.0823 276.486 66.8652 275.312 66.8652ZM256.126 65.2992C254.951 65.2992 254.168 64.5161 254.168 63.3415C254.168 62.1669 254.951 61.3838 256.126 61.3838C256.909 61.3838 258.083 61.3838 258.866 61.3838H260.041C261.216 61.3838 261.999 62.1669 261.999 63.3415C261.999 64.5161 261.216 65.2992 260.041 65.2992H258.866C257.692 65.2992 256.909 65.2992 256.126 65.2992Z" fill="black"></path><path d="M314.467 105.628C313.292 105.628 312.509 104.845 312.509 103.671C312.509 102.888 312.509 102.496 312.509 101.713C312.509 100.539 313.292 99.7558 314.075 99.3643C315.25 99.3643 316.033 100.147 316.424 100.93C316.424 101.713 316.424 102.105 316.424 102.888C316.424 104.845 315.641 105.628 314.467 105.628Z" fill="black"></path><path d="M301.545 98.9727L312.901 122.073L326.996 100.93L301.545 98.9727Z" fill="black"></path><path d="M212.272 41.0232H6.70773C3.57533 41.0232 0.834473 38.2824 0.834473 35.15C0.834473 32.0177 3.57533 29.2769 6.70773 29.2769H212.272C215.404 29.2769 218.145 32.0177 218.145 35.15C218.145 38.2824 215.404 41.0232 212.272 41.0232Z" fill="black"></path><path d="M450.335 196.856H244.771C241.638 196.856 238.897 194.116 238.897 190.983C238.897 187.851 241.638 185.11 244.771 185.11H450.335C453.467 185.11 456.208 187.851 456.208 190.983C456.208 194.116 453.858 196.856 450.335 196.856Z" fill="#C0B38D"></path><path d="M115.95 41.0232H6.70773C3.57533 41.0232 0.834473 38.2824 0.834473 35.15C0.834473 32.0177 3.57533 29.2769 6.70773 29.2769H115.95C119.083 29.2769 121.824 32.0177 121.824 35.15C121.824 38.2824 119.083 41.0232 115.95 41.0232Z" fill="#C0B38D"></path><path d="M186.038 18.3142L183.688 15.1819L190.736 8.52566L183.688 4.21856L186.038 0.694824L197.001 8.13398L186.038 18.3142Z" fill="black"></path><path d="M431.349 171.619L429 168.487L436.048 161.831L429 157.524L431.349 154L442.313 161.439L431.349 171.619Z" fill="black"></path></svg> 