<?xml version="1.0" encoding="UTF-8"?> <svg xmlns="http://www.w3.org/2000/svg" width="284" height="132" viewBox="0 0 284 132" fill="none"><path d="M174.588 0.90564H113.177V131.458H174.588V0.90564Z" fill="#C3B68F"></path><path d="M207.764 65.1233C207.764 66.1818 207.059 66.8875 206 66.8875H159.411C158.353 66.8875 157.647 66.1818 157.647 65.1233C157.647 64.0648 158.353 63.3591 159.411 63.3591H206C207.059 63.3591 207.764 64.4176 207.764 65.1233Z" fill="black"></path><path d="M206 68.6519H159.411C157.294 68.6519 155.882 67.2405 155.882 65.1234C155.882 63.0064 157.294 61.595 159.411 61.595H206C208.117 61.595 209.529 63.0064 209.529 65.1234C209.529 67.2405 207.764 68.6519 206 68.6519ZM206 65.1234H207.764H206Z" fill="black"></path><path d="M194.353 79.5898L192.235 76.7671L204.588 65.1233L192.235 53.8322L194.353 51.0095L209.529 65.1233L194.353 79.5898Z" fill="black"></path><path d="M194.353 82.0598L189.765 76.7672L202.118 65.1234L189.765 53.8323L194.353 48.5397L212.353 65.1234L194.353 82.0598Z" fill="black"></path><path d="M79.6472 65.1233C79.6472 64.0648 80.3531 63.3591 81.4119 63.3591H128C129.059 63.3591 129.765 64.0648 129.765 65.1233C129.765 66.1818 129.059 66.8875 128 66.8875H81.4119C80.706 66.8875 79.6472 66.1818 79.6472 65.1233Z" fill="black"></path><path d="M128 68.6519H81.4119C79.2942 68.6519 77.8824 67.2405 77.8824 65.1234C77.8824 63.0064 79.2942 61.595 81.4119 61.595H128C130.118 61.595 131.529 63.0064 131.529 65.1234C131.529 67.2405 130.118 68.6519 128 68.6519ZM79.6472 65.1234H81.4119H79.6472Z" fill="black"></path><path d="M93.0589 51.0095L95.5295 53.8322L82.8236 65.1233L95.5295 76.7671L93.0589 79.5898L77.8824 65.1233L93.0589 51.0095Z" fill="black"></path><path d="M93.0588 82.0598L75.0588 65.1234L93.0588 48.5397L98 53.8323L85.6471 65.1234L98 76.7672L93.0588 82.0598Z" fill="black"></path><path d="M258.588 131.458H26.3529C12.2353 131.458 0.941162 120.167 0.941162 106.053V25.9575C0.941162 11.8437 12.2353 0.552734 26.3529 0.552734H258.588C272.706 0.552734 284 11.8437 284 25.9575V106.053C284 120.167 272.706 131.458 258.588 131.458ZM26.3529 11.4909C18.2353 11.4909 11.5294 18.195 11.5294 26.3104V106.406C11.5294 114.521 18.2353 121.225 26.3529 121.225H258.588C266.706 121.225 273.412 114.521 273.412 106.406V26.3104C273.412 18.195 266.706 11.4909 258.588 11.4909H26.3529Z" fill="black"></path></svg> 