<?xml version="1.0" encoding="UTF-8"?> <svg xmlns="http://www.w3.org/2000/svg" width="327" height="239" viewBox="0 0 327 239" fill="none"><path d="M166.059 64.689C166.059 70.3345 161.47 74.5688 156.176 74.5688H13.9409C8.29385 74.5688 4.05859 69.9817 4.05859 64.689V13.8798C4.05859 8.2343 8.64679 4 13.9409 4H156.176C161.823 4 166.059 8.58715 166.059 13.8798V64.689Z" fill="black"></path><path d="M156.176 78.0981H13.941C6.52926 78.0981 0.529297 72.0995 0.529297 64.6896V13.8793C0.529297 6.46936 6.52926 0.470703 13.941 0.470703H156.176C163.588 0.470703 169.588 6.46936 169.588 13.8793V64.6896C169.588 72.0995 163.588 78.0981 156.176 78.0981ZM13.941 7.17455C10.4116 7.17455 7.58812 9.99754 7.58812 13.5261V64.3373C7.58812 67.8658 10.4116 70.6879 13.941 70.6879H156.176C159.706 70.6879 162.529 67.8658 162.529 64.3373V13.5261C162.529 9.99754 159.706 7.17455 156.176 7.17455H13.941Z" fill="black"></path><path d="M144.53 38.9302C144.53 39.9887 143.824 40.6943 142.765 40.6943H89.1177C88.0589 40.6943 87.353 39.9887 87.353 38.9302C87.353 37.8717 88.0589 37.166 89.1177 37.166H142.765C143.824 37.166 144.53 38.2245 144.53 38.9302Z" fill="white"></path><path d="M142.765 42.4585H89.1178C87.0001 42.4585 85.5884 41.0473 85.5884 38.9304C85.5884 36.8136 87.0001 35.4023 89.1178 35.4023H142.765C144.883 35.4023 146.294 36.8136 146.294 38.9304C146.294 41.0473 144.883 42.4585 142.765 42.4585ZM142.765 38.9304H144.53H142.765Z" fill="white"></path><path d="M131.471 53.0435L129 50.5738L141.353 38.9299L129 27.287L131.471 24.8164L146.647 38.9299L131.471 53.0435Z" fill="white"></path><path d="M131.471 55.5151L126.53 50.5749L138.883 38.931L126.53 27.6403L131.471 22.3477L149.118 38.931L131.471 55.5151Z" fill="white"></path><path d="M220.059 91.5059C220.059 91.5059 219.706 91.5059 220.059 91.5059C219 91.5059 218.294 90.4473 218.294 89.7415C218.294 89.7415 218.294 89.0355 218.647 87.624C219 86.5654 219.706 86.2129 220.765 86.2129C221.823 86.5658 222.176 87.271 222.176 88.3296C221.823 89.0353 221.823 89.7415 221.823 89.7415C221.47 90.8001 220.765 91.5059 220.059 91.5059Z" fill="black"></path><path d="M225 80.9204C224.647 80.9204 224.294 80.9201 223.941 80.5672C223.235 79.8614 223.235 78.8029 223.941 78.0971C224.647 77.0385 225.706 76.3328 226.764 75.6271C227.47 74.9213 228.529 75.2737 229.235 75.9794C229.941 76.6852 229.588 77.7446 228.882 78.4504C228.176 79.1561 227.118 79.8614 226.412 80.5672C226.059 80.5672 225.706 80.9204 225 80.9204Z" fill="black"></path><path d="M300.529 95.3857C299.823 95.3857 299.118 95.0336 298.765 94.3279C298.412 93.2693 298.059 92.2102 297.353 91.1517C297 90.446 297.353 89.3876 298.059 88.6819C298.765 88.329 299.823 88.6817 300.529 89.3874C301.235 90.446 301.588 91.5051 301.941 92.5636C302.294 93.6222 301.941 94.3274 300.882 94.6802C301.235 95.3859 300.882 95.3857 300.529 95.3857ZM293.118 83.7423C292.765 83.7423 292.059 83.742 292.059 83.3891C291.353 82.6834 290.294 81.9773 289.588 81.2716C288.882 80.5659 288.529 79.5076 289.235 78.8018C289.941 78.0961 291 77.7438 291.706 78.4495C292.765 79.1552 293.47 80.2136 294.529 80.9193C295.235 81.625 295.235 82.6834 294.529 83.3891C293.823 83.742 293.47 83.7423 293.118 83.7423ZM281.47 76.3321C281.117 76.3321 281.118 76.3321 280.765 76.3321C279.706 75.9792 278.647 75.6262 277.588 75.2733C276.529 74.9205 276.176 73.8624 276.529 73.1567C276.882 72.0982 277.941 71.7451 278.647 72.098C279.706 72.4508 281.117 72.8034 282.176 73.5091C283.235 73.8619 283.588 74.9203 283.235 75.9789C282.882 75.9789 282.176 76.3321 281.47 76.3321ZM237 73.5091C236.294 73.5091 235.588 73.156 235.235 72.4503C234.882 71.3918 235.588 70.6866 236.294 70.3337C237.353 69.9809 238.412 69.6279 239.823 69.275C240.882 68.9222 241.588 69.6275 241.941 70.6861C242.294 71.7446 241.588 72.4507 240.529 72.8035C239.471 73.1564 238.412 73.5094 237.353 73.8623C237.353 73.5094 237 73.5091 237 73.5091ZM268.059 72.4503C268.059 72.4503 267.706 72.4503 268.059 72.4503C267.353 72.4503 266.647 72.098 266.294 72.098L264.529 71.7448C263.47 71.7448 262.765 70.6868 263.118 69.6282C263.118 68.5696 264.176 67.8634 265.235 68.2163L267 68.5695C267.706 68.5695 268.059 68.569 268.765 68.9218C269.823 68.9218 270.529 69.9807 270.176 71.0393C269.47 71.745 268.765 72.4503 268.059 72.4503ZM250.765 71.0393C249.706 71.0393 249 70.3336 249 69.275C249 68.2164 249.706 67.5107 250.765 67.5107C251.47 67.5107 252.529 67.5107 253.235 67.5107H254.294C255.353 67.5107 256.059 68.2164 256.059 69.275C256.059 70.3336 255.353 71.0393 254.294 71.0393H253.235C252.176 71.0393 251.47 71.0393 250.765 71.0393Z" fill="black"></path><path d="M303.353 107.383C302.294 107.383 301.588 106.678 301.588 105.619C301.588 104.914 301.588 104.561 301.588 103.855C301.588 102.797 302.294 102.091 303 101.738C304.059 101.738 304.765 102.444 305.118 103.15C305.118 103.856 305.118 104.208 305.118 104.914C305.118 106.678 304.412 107.383 303.353 107.383Z" fill="black"></path><path d="M291.353 101.385L301.588 122.202L314.647 103.149L291.353 101.385Z" fill="black"></path><path d="M313.235 238.288H171C163.588 238.288 157.588 232.29 157.588 224.881V174.07C157.588 166.661 163.588 160.662 171 160.662H313.235C320.647 160.662 326.647 166.661 326.647 174.07V224.881C326.647 231.938 320.647 238.288 313.235 238.288ZM170.647 167.367C167.117 167.367 164.294 170.19 164.294 173.718V224.527C164.294 228.056 167.117 230.879 170.647 230.879H312.882C316.412 230.879 319.235 228.056 319.235 224.527V173.718C319.235 170.19 316.412 167.367 312.882 167.367H170.647Z" fill="black"></path><path d="M307.235 201.24C307.235 202.298 306.529 203.004 305.47 203.004H283.941C282.882 203.004 282.176 202.298 282.176 201.24C282.176 200.181 282.882 199.476 283.941 199.476H305.47C306.529 199.476 307.235 200.181 307.235 201.24Z" fill="black"></path><path d="M305.47 204.769H283.941C281.823 204.769 280.412 203.357 280.412 201.24C280.412 199.122 281.823 197.711 283.941 197.711H305.47C307.588 197.711 309 199.122 309 201.24C309 203.357 307.235 204.769 305.47 204.769ZM305.47 201.24H307.235H305.47Z" fill="black"></path><path d="M293.823 215.354L291.706 212.884L304.059 201.24L291.706 189.598L293.823 187.127L309 201.24L293.823 215.354Z" fill="black"></path><path d="M293.824 217.824L289.235 212.883L301.588 201.24L289.235 189.597L293.824 184.656L311.824 201.24L293.824 217.824Z" fill="black"></path></svg> 