<?xml version="1.0" encoding="UTF-8"?> <svg xmlns="http://www.w3.org/2000/svg" width="388" height="193" viewBox="0 0 388 193" fill="none"><path d="M197.882 64.2651C196.823 64.2651 196.118 63.2066 196.118 62.501C196.118 62.501 196.118 61.7952 196.471 60.3839C196.823 59.3254 197.529 58.9727 198.588 58.9727C199.647 59.3255 200 60.0311 200 61.0896C199.647 61.7952 199.647 62.501 199.647 62.501C199.647 63.5595 198.941 64.2651 197.882 64.2651Z" fill="black"></path><path d="M203.176 53.3267C202.824 53.3267 202.471 53.3267 202.118 52.9739C201.412 52.2683 201.412 51.2097 202.118 50.5041C202.824 49.4456 203.882 48.7399 204.941 48.0343C205.647 47.3286 206.706 47.6816 207.412 48.3872C208.118 49.0929 207.765 50.1512 207.059 50.8568C206.353 51.5625 205.294 52.2683 204.588 52.9739C204.235 52.9739 203.529 53.3267 203.176 53.3267Z" fill="black"></path><path d="M278.706 67.7942C278 67.7942 277.294 67.4412 276.941 66.7355C276.588 65.6769 276.235 64.6185 275.529 63.56C275.176 62.8543 275.529 61.7957 276.235 61.09C276.941 60.7372 278 61.0901 278.706 61.7958C279.412 62.8543 279.765 63.9127 280.118 64.9712C280.471 66.0298 280.118 66.7356 279.059 67.0885C279.059 67.7941 279.059 67.7942 278.706 67.7942ZM270.941 56.5031C270.588 56.5031 269.882 56.5029 269.882 56.1501C269.176 55.4444 268.118 54.7388 267.412 54.0331C266.706 53.3274 266.353 52.2688 267.059 51.5631C267.765 50.8574 268.824 50.5047 269.529 51.2104C270.588 51.916 271.294 52.9746 272.353 53.6803C273.059 54.386 273.059 55.4444 272.353 56.1501C272 56.1501 271.647 56.5031 270.941 56.5031ZM259.294 48.7404C258.941 48.7404 258.941 48.7404 258.588 48.7404C257.529 48.3875 256.471 48.0347 255.412 47.6819C254.353 47.329 254 46.2704 254.353 45.5647C254.706 44.5061 255.765 44.1533 256.471 44.5062C257.529 44.859 258.941 45.212 260 45.9176C261.059 46.2705 261.412 47.3291 261.059 48.3876C260.706 48.3876 260 48.7404 259.294 48.7404ZM214.824 45.9176C214.118 45.9176 213.412 45.5648 213.059 44.8592C212.706 43.8006 213.412 43.0948 214.118 42.7419C215.176 42.3891 216.235 42.0363 217.647 41.6834C218.706 41.3306 219.412 42.0364 219.765 43.0949C220.118 44.1535 219.412 44.8591 218.353 45.2119C217.294 45.5648 216.235 45.9176 215.176 46.2704C215.176 45.9176 215.176 45.9176 214.824 45.9176ZM245.882 44.8592C245.176 44.8592 244.471 44.5062 244.118 44.5062L242.353 44.1534C241.294 44.1534 240.588 43.0947 240.941 42.0362C240.941 40.9777 242 40.2721 243.059 40.6249L244.824 40.9777C245.529 40.9777 245.882 40.9778 246.588 41.3307C247.647 41.3307 248.353 42.3891 248 43.4477C247.647 44.5062 246.941 44.8592 245.882 44.8592ZM228.588 43.8004C227.529 43.8004 226.824 43.0947 226.824 42.0362C226.824 40.9777 227.529 40.272 228.588 40.272C229.294 40.272 230.353 40.272 231.059 40.272H232.118C233.176 40.272 233.882 40.9777 233.882 42.0362C233.882 43.0947 233.176 43.8004 232.118 43.8004H231.059C230.353 43.8004 229.294 43.8004 228.588 43.8004Z" fill="black"></path><path d="M281.176 79.7905C280.118 79.7905 279.412 79.0848 279.412 78.0263C279.412 77.3206 279.412 76.9677 279.412 76.262C279.412 75.2035 280.118 74.4979 280.823 74.145C281.882 74.145 282.588 74.8506 282.941 75.5563C282.941 76.262 282.941 76.6148 282.941 77.3205C283.294 79.0848 282.235 79.7905 281.176 79.7905C281.176 79.7905 281.529 79.7905 281.176 79.7905Z" fill="black"></path><path d="M269.529 74.145L279.765 94.9626L292.824 75.5563L269.529 74.145Z" fill="black"></path><path d="M181.294 82.6133C181.294 88.2589 176.706 92.4932 171.412 92.4932H28.8236C23.1766 92.4932 18.9413 87.906 18.9413 82.6133V36.038C18.9413 30.3925 23.5295 26.1582 28.8236 26.1582H171.059C176.706 26.1582 180.941 30.7454 180.941 36.038V82.6133H181.294Z" fill="#999899"></path><path d="M166.471 64.2654C166.471 69.9109 161.882 74.145 156.588 74.145H14.3531C8.706 74.145 4.4707 69.5581 4.4707 64.2654V13.4556C4.4707 7.81003 9.05894 3.57593 14.3531 3.57593H156.588C162.235 3.57593 166.471 8.16288 166.471 13.4556V64.2654V64.2654Z" fill="#EFEBE1"></path><path d="M156.588 78.0261H14.353C6.94128 78.0261 0.941284 72.0278 0.941284 64.6181V13.4556C0.941284 6.04592 6.94128 0.0476074 14.353 0.0476074H156.588C164 0.0476074 170 6.04592 170 13.4556V64.2653C170 71.6751 164 78.0261 156.588 78.0261ZM14.353 6.75152C10.8236 6.75152 8.00011 9.57445 8.00011 13.1029V63.9123C8.00011 67.4408 10.8236 70.2635 14.353 70.2635H156.588C160.118 70.2635 162.941 67.4408 162.941 63.9123V13.4556C162.941 9.92721 160.118 7.10449 156.588 7.10449H14.353V6.75152Z" fill="black"></path><path d="M384.235 178.94C384.235 184.586 379.647 188.82 374.353 188.82H231.765C226.118 188.82 221.882 184.233 221.882 178.94V128.13C221.882 122.485 226.471 118.251 231.765 118.251H374C379.647 118.251 383.882 122.838 383.882 128.13V178.94H384.235Z" fill="#EFEBE1"></path><path d="M374.353 192.701H231.765C224.353 192.701 218.353 186.703 218.353 179.293V128.483C218.353 121.074 224.353 115.075 231.765 115.075H374C381.412 115.075 387.412 121.074 387.412 128.483V179.293C387.765 186.35 381.765 192.701 374.353 192.701ZM231.765 121.426C228.235 121.426 225.412 124.249 225.412 127.778V178.587C225.412 182.116 228.235 184.938 231.765 184.938H374C377.529 184.938 380.353 182.116 380.353 178.587V127.778C380.353 124.249 377.529 121.426 374 121.426H231.765Z" fill="black"></path></svg> 