<?xml version="1.0" encoding="UTF-8"?> <svg xmlns="http://www.w3.org/2000/svg" width="284" height="132" viewBox="0 0 284 132" fill="none"><path d="M274 65V9L8 9V65L274 65Z" fill="#C3B68F"></path><path d="M142.47 102.802C141.411 102.802 140.706 102.097 140.706 101.038V26.2352C140.706 25.1766 141.411 24.4709 142.47 24.4709C143.529 24.4709 144.235 25.1766 144.235 26.2352V101.038C144.235 101.744 143.176 102.802 142.47 102.802Z" fill="black"></path><path d="M142.47 104.567C140.353 104.567 138.941 103.155 138.941 101.038V26.2351C138.941 24.118 140.353 22.7067 142.47 22.7067C144.588 22.7067 146 24.118 146 26.2351V101.038C146 102.802 144.235 104.567 142.47 104.567ZM142.47 101.038V102.802V101.038Z" fill="black"></path><path d="M128.353 89.3944L130.823 86.9244L142.47 99.6269L154.117 86.9244L156.588 89.3944L142.47 104.567L128.353 89.3944Z" fill="black"></path><path d="M142.471 107.389L125.882 89.3943L130.824 84.4545L142.471 96.804L153.765 84.4545L159.059 89.3943L142.471 107.389Z" fill="black"></path><path d="M26.3527 0.124634H258.588C272.706 0.124634 284 11.4157 284 25.5294V105.625C284 119.739 272.706 131.03 258.588 131.03H26.3527C12.2351 131.03 0.940918 119.739 0.940918 105.625V25.5294C0.940918 11.4157 12.2351 0.124634 26.3527 0.124634ZM258.588 120.092C266.706 120.092 273.412 113.388 273.412 105.272V25.5294C273.412 17.414 266.706 10.71 258.588 10.71H26.3527C18.2351 10.71 11.5292 17.414 11.5292 25.5294V105.625C11.5292 113.741 18.2351 120.445 26.3527 120.445H258.588V120.092Z" fill="black"></path></svg> 