<?xml version="1.0" encoding="UTF-8"?> <svg xmlns="http://www.w3.org/2000/svg" width="388" height="193" viewBox="0 0 388 193" fill="none"><path d="M197.706 64.4135C196.647 64.4135 195.941 63.3549 195.941 62.6493C195.941 62.6493 195.941 61.9434 196.294 60.5321C196.647 59.4736 197.353 59.1208 198.412 59.1208C199.471 59.4737 199.824 60.1793 199.824 61.2378C199.471 61.9435 199.471 62.6493 199.471 62.6493C199.471 63.7078 198.412 64.4135 197.706 64.4135Z" fill="black"></path><path d="M203 53.475C202.647 53.475 202.294 53.4751 201.942 53.1222C201.236 52.4166 201.236 51.358 201.942 50.6523C202.647 49.5938 203.706 48.8881 204.765 48.1825C205.471 47.4768 206.53 47.8298 207.236 48.5354C207.941 49.2411 207.589 50.2994 206.883 51.0051C206.177 51.7108 205.118 52.4166 204.412 53.1222C203.706 53.1222 203.353 53.475 203 53.475Z" fill="black"></path><path d="M278.53 68.2947C277.824 68.2947 277.118 67.9419 276.765 67.2362C276.412 66.1777 276.059 65.119 275.353 64.0605C275 63.3548 275.353 62.2962 276.059 61.5906C276.765 61.2377 277.824 61.5906 278.53 62.2963C279.236 63.3548 279.589 64.4134 279.941 65.472C280.294 66.5305 279.942 67.2361 278.883 67.5889C278.883 67.9418 278.53 68.2947 278.53 68.2947ZM270.765 56.6509C270.412 56.6509 269.706 56.6507 269.706 56.2979C269 55.5922 267.941 54.8866 267.236 54.1809C266.53 53.4752 266.177 52.4167 266.883 51.711C267.589 51.0053 268.647 50.6525 269.353 51.3582C270.412 52.0639 271.118 53.1225 272.177 53.8282C272.883 54.5339 272.883 55.5922 272.177 56.2979C271.824 56.2979 271.118 56.6509 270.765 56.6509ZM259.118 48.8883C258.765 48.8883 258.765 48.8883 258.412 48.8883C257.353 48.5354 256.294 48.1826 255.236 47.8298C254.177 47.4769 253.824 46.4183 254.177 45.7126C254.53 44.654 255.589 44.3012 256.295 44.6541C257.353 45.0069 258.765 45.3599 259.824 46.0656C260.883 46.4184 261.236 47.477 260.883 48.5355C260.53 48.5355 259.824 48.8883 259.118 48.8883ZM214.647 46.0656C213.942 46.0656 213.236 45.7128 212.883 45.0071C212.53 43.9485 213.236 43.2427 213.942 42.8899C215 42.537 216.059 42.1842 217.471 41.8314C218.53 41.4785 219.236 42.1843 219.589 43.2428C219.941 44.3014 219.236 45.007 218.177 45.3598C217.118 45.7127 216.059 46.0655 215 46.4183C215 46.0655 214.647 46.0656 214.647 46.0656ZM245.706 45.0071C245.706 45.0071 245.353 45.0071 245.706 45.0071C245 45.0071 244.295 44.6541 243.942 44.6541L242.177 44.3013C241.118 44.3013 240.412 43.2427 240.765 42.1841C240.765 41.1256 241.824 40.4201 242.883 40.7729L244.647 41.1257C245.353 41.1257 245.706 41.1258 246.412 41.4786C247.471 41.4786 248.177 42.5371 247.824 43.5956C247.471 44.6541 246.412 45.0071 245.706 45.0071ZM228.412 43.9484C227.353 43.9484 226.647 43.2427 226.647 42.1841C226.647 41.1256 227.353 40.4199 228.412 40.4199C229.118 40.4199 230.177 40.4199 230.883 40.4199H231.941C233 40.4199 233.706 41.1256 233.706 42.1841C233.706 43.2427 233 43.9484 231.941 43.9484H230.883C229.824 43.9484 229.118 43.9484 228.412 43.9484Z" fill="black"></path><path d="M281.001 80.2915C279.942 80.2915 279.236 79.5858 279.236 78.5273C279.236 77.8217 279.236 77.4688 279.236 76.7631C279.236 75.7046 279.942 74.9988 280.648 74.646C281.706 74.646 282.412 75.3518 282.765 76.0574C282.765 76.7631 282.765 77.1159 282.765 77.8216C282.765 79.233 282.059 79.9387 281.001 80.2915Z" fill="black"></path><path d="M269.354 74.293L279.236 95.1108L292.295 75.7042L269.354 74.293Z" fill="black"></path><path d="M166.294 82.0558C166.294 87.7013 161.706 91.9354 156.412 91.9354H14.1768C8.52979 91.9354 4.29443 87.3485 4.29443 82.0558V35.4802C4.29443 29.8347 8.88273 25.6006 14.1768 25.6006H156.412C162.059 25.6006 166.294 30.1875 166.294 35.4802V82.0558Z" fill="#999899"></path><path d="M166.294 64.4134C166.294 70.0589 161.706 74.293 156.412 74.293H14.1768C8.52979 74.293 4.29443 69.706 4.29443 64.4134V13.6037C4.29443 7.95821 8.88273 3.72412 14.1768 3.72412H156.412C162.059 3.72412 166.294 8.31105 166.294 13.6037V64.4134Z" fill="#EFEBE1"></path><path d="M156.412 78.1742H14.1767C6.76496 78.1742 0.764893 72.1759 0.764893 64.7662V13.6038C0.764893 6.1941 6.76496 0.195801 14.1767 0.195801H156.412C163.824 0.195801 169.824 6.1941 169.824 13.6038V64.4134C169.824 72.176 163.824 78.1742 156.412 78.1742ZM13.8238 7.25268C10.2943 7.25268 7.47086 10.0754 7.47086 13.6038V64.4134C7.47086 67.9419 10.2943 70.7646 13.8238 70.7646H156.059C159.588 70.7646 162.412 67.9419 162.412 64.4134V13.6038C162.412 10.0754 159.588 7.25268 156.059 7.25268H13.8238Z" fill="black"></path><path d="M384.059 179.088C384.059 184.734 379.471 188.968 374.177 188.968H231.941C226.294 188.968 222.059 184.381 222.059 179.088V128.279C222.059 122.633 226.647 118.399 231.941 118.399H374.177C379.824 118.399 384.059 122.986 384.059 128.279V179.088Z" fill="#EFEBE1"></path><path d="M373.823 192.849H231.588C224.176 192.849 218.176 186.851 218.176 179.441V128.631C218.176 121.221 224.176 115.223 231.588 115.223H373.823C381.235 115.223 387.235 121.221 387.235 128.631V179.441C387.588 186.498 381.235 192.849 373.823 192.849ZM231.588 121.927C228.059 121.927 225.235 124.75 225.235 128.278V179.088C225.235 182.617 228.059 185.439 231.588 185.439H373.823C377.353 185.439 380.176 182.617 380.176 179.088V128.278C380.176 124.75 377.353 121.927 373.823 121.927H231.588Z" fill="black"></path></svg> 