<?xml version="1.0" encoding="UTF-8"?> <svg xmlns="http://www.w3.org/2000/svg" width="208" height="208" viewBox="0 0 208 208" fill="none"><path d="M104.118 161.646C70.5881 161.646 43.4116 134.476 43.4116 100.956C43.4116 67.436 70.5881 40.2671 104.118 40.2671C137.647 40.2671 164.823 67.436 164.823 100.956C164.823 134.476 137.294 161.646 104.118 161.646ZM104.118 47.6768C74.4705 47.6768 50.4704 71.6702 50.4704 101.309C50.4704 130.948 74.4705 154.941 104.118 154.941C133.765 154.941 157.765 130.948 157.765 101.309C157.765 71.6702 133.412 47.6768 104.118 47.6768Z" fill="#040000"></path><path d="M104.118 188.462C57.1768 188.462 19.4121 150.355 19.4121 103.779C19.4121 57.2036 57.5298 19.0964 104.118 19.0964C150.706 19.0964 188.824 57.2036 188.824 103.779C188.824 150.355 150.706 188.462 104.118 188.462ZM104.118 22.6249C59.2945 22.6249 22.9415 58.9679 22.9415 103.779C22.9415 148.59 59.2945 184.933 104.118 184.933C148.942 184.933 185.294 148.59 185.294 103.779C185.294 58.9679 148.942 22.6249 104.118 22.6249Z" fill="#CCCCCC"></path><path d="M104.117 207.516C46.941 207.516 0.352783 160.94 0.352783 103.779C0.352783 46.6184 46.941 0.0429688 104.117 0.0429688C161.294 0.0429688 207.882 46.6184 207.882 103.779C207.882 160.94 161.294 207.516 104.117 207.516ZM104.117 3.57141C49.0586 3.57141 3.88219 48.3826 3.88219 103.779C3.88219 159.176 48.7057 203.987 104.117 203.987C159.529 203.987 204.353 159.176 204.353 103.779C204.353 48.3826 159.176 3.57141 104.117 3.57141Z" fill="#CCCCCC"></path><path d="M104.117 182.111C60.7056 182.111 25.7644 146.826 25.7644 103.779C25.7644 60.7323 61.0586 25.4478 104.117 25.4478C147.176 25.4478 182.47 60.7323 182.47 103.779C182.47 146.826 147.176 182.111 104.117 182.111ZM104.117 28.9762C62.8233 28.9762 29.2938 62.4965 29.2938 103.779C29.2938 145.062 62.8233 178.582 104.117 178.582C145.412 178.582 178.941 145.062 178.941 103.779C178.941 62.4965 145.412 28.9762 104.117 28.9762Z" fill="#999899"></path><path d="M95.6469 84.02C94.2351 83.3143 93.1763 83.6671 93.1763 85.4313V116.834C93.1763 118.598 94.2351 119.304 95.6469 118.246L122.47 103.779C123.882 103.073 123.882 101.662 122.47 100.604L95.6469 84.02Z" fill="#040000"></path></svg> 