<?xml version="1.0" encoding="UTF-8"?> <svg xmlns="http://www.w3.org/2000/svg" width="270" height="195" viewBox="0 0 270 195" fill="none"><path d="M41.2941 16.8206C41.2941 17.8792 40.5882 18.585 39.5293 18.585H3.88226C2.82344 18.585 2.11755 17.8792 2.11755 16.8206C2.11755 15.7619 2.82344 15.0562 3.88226 15.0562H39.8823C40.5882 15.0562 41.2941 15.7619 41.2941 16.8206Z" fill="black"></path><path d="M39.5293 20.3486H3.8822C1.76455 20.3486 0.352783 18.9372 0.352783 16.8201C0.352783 14.7029 1.76455 13.2915 3.8822 13.2915H39.8822C41.9999 13.2915 43.4116 14.7029 43.4116 16.8201C43.4116 18.9372 41.6469 20.3486 39.5293 20.3486ZM39.5293 16.8201H41.294H39.5293Z" fill="black"></path><path d="M28.235 30.9346L25.7644 28.4644L38.4703 16.8206L25.7644 5.17632L28.235 2.70654L43.4115 16.8206L28.235 30.9346Z" fill="black"></path><path d="M28.2351 33.4033L23.2939 28.4635L35.6469 16.82L23.2939 5.52892L28.2351 0.236328L45.8822 16.82L28.2351 33.4033Z" fill="black"></path><path d="M265.412 178.07C265.412 179.128 264.706 179.834 263.647 179.834H103.412C102.353 179.834 101.647 179.128 101.647 178.07C101.647 177.011 102.353 176.305 103.412 176.305H263.647C264.706 176.305 265.412 177.364 265.412 178.07Z" fill="black"></path><path d="M263.647 181.598H103.412C101.294 181.598 99.8824 180.186 99.8824 178.069C99.8824 175.952 101.294 174.541 103.412 174.541H263.647C265.765 174.541 267.177 175.952 267.177 178.069C267.177 180.186 265.412 181.598 263.647 181.598ZM263.647 178.069H265.412H263.647Z" fill="black"></path><path d="M252 192.183L249.882 189.713L262.235 178.07L249.882 166.426L252 163.956L267.529 178.07L252 192.183Z" fill="black"></path><path d="M252 194.653L247.412 189.714L259.765 178.07L247.412 166.779L252 161.486L270 178.07L252 194.653Z" fill="black"></path><path d="M125.647 61.9839C125.294 61.9839 125.294 61.9839 125.647 61.9839C124.588 61.9839 123.882 60.9254 123.882 60.2197C123.882 60.2197 123.882 59.5141 124.235 58.1028C124.588 57.0443 125.294 56.6914 126.353 56.6914C127.412 57.0442 127.765 57.7498 127.765 58.8083C127.412 59.514 127.412 60.2197 127.412 60.2197C127.059 61.2782 126.353 61.9839 125.647 61.9839Z" fill="black"></path><path d="M130.588 51.0459C130.235 51.0459 129.882 51.046 129.529 50.6931C128.823 49.9875 128.823 48.9287 129.529 48.223C130.235 47.1645 131.294 46.459 132.353 45.7533C133.059 45.0477 134.117 45.4004 134.823 46.1061C135.529 46.8118 135.176 47.8705 134.47 48.5762C133.764 49.2819 132.706 49.9875 132 50.6931C131.647 50.6931 131.294 51.0459 130.588 51.0459Z" fill="black"></path><path d="M206.118 65.8647C205.412 65.8647 204.706 65.5122 204.353 64.8065C204 63.7479 203.647 62.6893 202.941 61.6308C202.588 60.9251 202.941 59.8667 203.647 59.161C204.353 58.8082 205.412 59.1608 206.118 59.8665C206.823 60.9251 207.176 61.9837 207.529 63.0422C207.882 64.1008 207.529 64.8064 206.471 65.1592C206.823 65.8649 206.471 65.8647 206.118 65.8647ZM198.706 54.2211C198.353 54.2211 197.647 54.2212 197.647 53.8683C196.941 53.1626 195.882 52.4566 195.176 51.7509C194.471 51.0452 194.118 49.9868 194.823 49.2811C195.529 48.5755 196.588 48.2227 197.294 48.9284C198.353 49.6341 199.059 50.6924 200.118 51.3981C200.823 52.1038 200.823 53.1626 200.118 53.8683C199.412 53.8683 199.059 54.2211 198.706 54.2211ZM187.059 46.4582C186.706 46.4582 186.706 46.4582 186.353 46.4582C185.294 46.1054 184.235 45.7528 183.176 45.3999C182.118 45.0471 181.765 43.9886 182.118 43.2829C182.471 42.2244 183.529 41.8714 184.235 42.2242C185.294 42.5771 186.706 42.93 187.765 43.6357C188.823 43.9885 189.176 45.0469 188.823 46.1054C188.118 46.1054 187.765 46.4582 187.059 46.4582ZM142.588 43.6357C141.882 43.6357 141.176 43.2827 140.823 42.577C140.471 41.5184 141.176 40.8128 141.882 40.46C142.941 40.1071 144 39.7541 145.412 39.4013C146.471 39.0484 147.176 39.7542 147.529 40.8127C147.882 41.8713 147.176 42.5769 146.118 42.9297C145.059 43.2826 144 43.6356 142.941 43.9884C142.941 43.6356 142.588 43.6357 142.588 43.6357ZM173.647 42.577C173.294 42.577 173.294 42.577 173.647 42.577C172.941 42.577 172.235 42.2242 171.882 42.2242L170.118 41.8715C169.059 41.8715 168.353 40.813 168.706 39.7545C168.706 38.6959 169.765 37.9901 170.823 38.343L172.588 38.6958C173.294 38.6958 173.647 38.6957 174.353 39.0485C175.412 39.0485 176.118 40.107 175.765 41.1655C175.059 42.224 174.353 42.577 173.647 42.577ZM156 41.5187C154.941 41.5187 154.235 40.813 154.235 39.7545C154.235 38.6959 154.941 37.9902 156 37.9902C156.706 37.9902 157.765 37.9902 158.471 37.9902H159.529C160.588 37.9902 161.294 38.6959 161.294 39.7545C161.294 40.813 160.588 41.5187 159.529 41.5187H158.471C157.765 41.5187 157.059 41.5187 156 41.5187C156.353 41.5187 156.353 41.5187 156 41.5187Z" fill="black"></path><path d="M208.941 77.8618C207.882 77.8618 207.176 77.1561 207.176 76.0976C207.176 75.3919 207.176 75.039 207.176 74.3333C207.176 73.2748 207.882 72.5692 208.588 72.2163C209.647 72.2163 210.353 72.9221 210.706 73.6278C210.706 74.3335 210.706 74.6863 210.706 75.392C210.706 76.8034 210 77.509 208.941 77.8618Z" fill="black"></path><path d="M196.941 71.8623L207.176 92.6812L220.235 73.2738L196.941 71.8623Z" fill="black"></path></svg> 