<?xml version="1.0" encoding="UTF-8"?> <svg xmlns="http://www.w3.org/2000/svg" width="430" height="215" viewBox="0 0 430 215" fill="none"><path d="M183.914 20.0584C183.914 26.3231 178.823 31.0215 172.95 31.0215H12.4145C6.14973 31.0215 1.45117 25.9315 1.45117 20.0584V15.3599C1.45117 9.09523 6.54128 4.39673 12.4145 4.39673H172.95C179.215 4.39673 183.914 9.48677 183.914 15.3599V20.0584Z" fill="#040000"></path><path d="M219.153 71.7408C217.979 71.7408 217.196 70.5662 217.196 69.7831C217.196 69.7831 217.195 69 217.587 67.4338C217.979 66.2592 218.762 65.8677 219.936 65.8677C221.111 66.2592 221.502 67.0423 221.502 68.2169C221.111 69 221.111 69.7831 221.111 69.7831C221.111 70.9577 220.328 71.7408 219.153 71.7408Z" fill="black"></path><path d="M225.027 59.6032C224.635 59.6032 224.244 59.6032 223.852 59.2116C223.069 58.4286 223.069 57.2539 223.852 56.4709C224.635 55.2962 225.81 54.5132 226.984 53.7301C227.768 52.947 228.942 53.3385 229.725 54.1216C230.508 54.9047 230.117 56.0793 229.334 56.8624C228.551 57.6455 227.376 58.4286 226.593 59.2116C226.201 59.6032 225.418 59.6032 225.027 59.6032Z" fill="black"></path><path d="M308.818 76.0485C308.035 76.0485 307.252 75.6569 306.86 74.8738C306.469 73.6992 306.077 72.5246 305.294 71.35C304.903 70.5669 305.294 69.3923 306.077 68.6092C306.86 68.2176 308.035 68.6092 308.818 69.3923C309.601 70.5669 309.993 71.7415 310.384 72.9161C310.776 74.0908 310.384 74.8738 309.21 75.2654C309.21 76.0485 309.21 76.0485 308.818 76.0485ZM300.204 63.1276C299.813 63.1276 299.029 63.1276 299.029 62.7361C298.246 61.953 297.072 61.1699 296.289 60.3868C295.505 59.6037 295.114 58.4291 295.897 57.646C296.68 56.8629 297.855 56.4714 298.638 57.2545C299.813 58.0376 300.596 59.2122 301.77 59.9953C302.553 60.7784 302.553 61.953 301.77 62.7361C301.379 62.7361 300.987 63.1276 300.204 63.1276ZM287.283 54.5137C286.891 54.5137 286.891 54.5137 286.5 54.5137C285.325 54.1222 284.151 53.7306 282.976 53.3391C281.801 52.9475 281.41 51.7729 281.801 50.9898C282.193 49.8152 283.367 49.4237 284.151 49.8152C285.325 50.2067 286.891 50.5983 288.066 51.3814C289.241 51.7729 289.632 52.9475 289.241 54.1222C288.849 54.1222 288.066 54.5137 287.283 54.5137ZM237.948 51.3814C237.165 51.3814 236.381 50.9898 235.99 50.2067C235.598 49.0321 236.381 48.249 237.164 47.8575C238.339 47.4659 239.514 47.0744 241.08 46.6829C242.255 46.2913 243.038 47.0744 243.429 48.249C243.821 49.4237 243.038 50.2067 241.863 50.5983C240.688 50.9898 239.514 51.3814 238.339 51.7729C238.339 51.3814 238.339 51.3814 237.948 51.3814ZM272.404 50.5983C271.621 50.5983 270.838 50.2067 270.446 50.2067L268.489 49.8152C267.314 49.8152 266.531 48.6406 266.922 47.4659C266.922 46.2913 268.097 45.5082 269.272 45.8998L271.229 46.2913C272.013 46.2913 272.404 46.2913 273.187 46.6829C274.362 46.6829 275.145 47.8575 274.753 49.0321C274.362 49.8152 273.579 50.5983 272.404 50.5983ZM253.218 49.0321C252.043 49.0321 251.26 48.249 251.26 47.0744C251.26 45.8998 252.043 45.1167 253.218 45.1167C254.001 45.1167 255.176 45.1167 255.959 45.1167H257.134C258.308 45.1167 259.091 45.8998 259.091 47.0744C259.091 48.249 258.308 49.0321 257.134 49.0321H255.959C255.176 49.0321 254.001 49.0321 253.218 49.0321Z" fill="black"></path><path d="M311.559 89.3613C310.384 89.3613 309.601 88.5783 309.601 87.4036C309.601 86.6206 309.601 86.229 309.601 85.4459C309.601 84.2713 310.385 83.4882 311.168 83.0967C312.342 83.0967 313.125 83.8798 313.517 84.6628C313.517 85.4459 313.517 85.8375 313.517 86.6206C313.908 88.1867 312.734 89.3613 311.559 89.3613C311.559 89.3613 311.951 89.3613 311.559 89.3613Z" fill="black"></path><path d="M298.638 82.7051L309.993 105.806L324.48 84.2712L298.638 82.7051Z" fill="black"></path><path d="M425.892 198.993C425.892 205.258 420.802 209.956 414.929 209.956H257.134C250.869 209.956 246.17 204.866 246.17 198.993V142.611C246.17 136.346 251.261 131.648 257.134 131.648H414.929C421.193 131.648 425.892 136.738 425.892 142.611V198.993Z" fill="black"></path><path d="M414.929 214.263H257.134C248.911 214.263 242.255 207.607 242.255 199.384V142.611C242.255 134.389 248.911 127.732 257.134 127.732H414.929C423.151 127.732 429.807 134.389 429.807 142.611V198.993C429.807 207.607 423.151 214.263 414.929 214.263ZM256.742 135.563C252.827 135.563 249.694 138.696 249.694 142.611V198.993C249.694 202.908 252.827 206.041 256.742 206.041H414.537C418.453 206.041 421.585 202.908 421.585 198.993V142.611C421.585 138.696 418.453 135.563 414.537 135.563H256.742V135.563Z" fill="black"></path><path d="M8.10789 15.3598C8.10789 11.4444 11.2404 8.31203 15.1559 8.31203H173.342C177.258 8.31203 180.39 11.4444 180.39 15.3598V59.9955H188.221V15.3598C188.221 7.1374 181.565 0.481201 173.342 0.481201H15.5474C7.32489 0.481201 0.668457 7.1374 0.668457 15.3598V59.9955H8.49946V15.3598H8.10789Z" fill="black"></path><path d="M94.2485 72.9173C93.0739 72.9173 92.2908 72.1343 92.2908 70.9596V31.0224C92.2908 29.8478 93.0739 29.0647 94.2485 29.0647C95.4232 29.0647 96.2063 29.8478 96.2063 31.0224V70.9596C96.2063 71.7427 95.4232 72.9173 94.2485 72.9173Z" fill="black"></path><path d="M94.2485 74.875C91.8992 74.875 90.333 73.3088 90.333 70.9596V31.0223C90.333 28.6731 91.8992 27.1069 94.2485 27.1069C96.5979 27.1069 98.1641 28.6731 98.1641 31.0223V70.9596C98.1641 72.9173 96.5979 74.875 94.2485 74.875ZM94.2485 70.9596V72.9173V70.9596Z" fill="black"></path><path d="M78.5864 58.0391L81.3273 55.2983L94.2485 69.3938L107.17 55.2983L109.911 58.0391L94.2485 74.8754L78.5864 58.0391Z" fill="black"></path><path d="M94.2485 78.0073L75.8457 58.0387L81.719 52.5571L94.2485 66.6526L107.17 52.5571L113.043 58.0387L94.2485 78.0073Z" fill="black"></path></svg> 