<?xml version="1.0" encoding="UTF-8"?> <svg xmlns="http://www.w3.org/2000/svg" width="284" height="132" viewBox="0 0 284 132" fill="none"><path d="M183.506 96.8024V35.4075L99.8591 35.4075L99.8591 96.8024L183.506 96.8024Z" fill="#C3B68F"></path><path d="M192.353 27.9026C193.059 28.6083 193.059 29.6667 192.353 30.3724L166.941 55.7774C166.235 56.4831 165.177 56.4831 164.471 55.7774C163.765 55.0717 163.765 54.0131 164.471 53.3074L189.882 27.9026C190.588 27.1969 191.647 27.1969 192.353 27.9026Z" fill="black"></path><path d="M165.529 57.8943C164.471 57.8943 163.765 57.5414 163.059 56.8357C161.647 55.4244 161.647 53.3073 163.059 51.8959L188.471 26.4912C189.882 25.0798 192 25.0798 193.412 26.4912C194.824 27.9025 194.824 30.0196 193.412 31.431L168 56.8357C167.294 57.5414 166.588 57.8943 165.529 57.8943ZM192.353 27.9025L190.941 29.3139L192.353 27.9025Z" fill="black"></path><path d="M193.059 47.309L189.529 46.9562L190.235 30.0197L172.941 30.7253V27.1968L193.765 26.4912L193.059 47.309Z" fill="black"></path><path d="M194.471 49.0732L187.765 48.7204L188.118 31.7839L171.176 32.4895V25.4327L195.529 24.7271L194.471 49.0732Z" fill="black"></path><path d="M90.706 107.998C90.0002 107.293 90.0002 106.234 90.706 105.528L116.118 80.1237C116.824 79.4181 117.882 79.4181 118.588 80.1237C119.294 80.8294 119.294 81.888 118.588 82.5937L93.1766 107.998C92.4708 108.704 91.4119 108.704 90.706 107.998Z" fill="black"></path><path d="M91.7648 110.115C90.7059 110.115 90.0001 109.763 89.2942 109.057C87.8824 107.646 87.8824 105.529 89.2942 104.117L114.706 78.7123C116.118 77.301 118.235 77.301 119.647 78.7123C121.059 80.1237 121.059 82.2408 119.647 83.6521L94.2354 109.057C93.8824 109.763 92.8236 110.115 91.7648 110.115ZM91.7648 106.587L90.353 107.998L91.7648 106.587Z" fill="black"></path><path d="M90.0002 88.5918H93.5296L92.8237 105.881L109.765 105.176L110.118 108.704L89.2943 109.41L90.0002 88.5918Z" fill="black"></path><path d="M87.5295 111.174L88.2354 86.8276H95.2943L94.5884 103.764L111.53 103.411L111.882 110.115L87.5295 111.174Z" fill="black"></path><path d="M194.471 105.528C194.118 106.234 192.706 106.587 192 106.234L161.647 87.1804C160.941 86.8276 160.588 85.4163 160.941 84.7106C161.294 84.0049 162.706 83.652 163.412 84.0049L193.765 103.058C194.824 103.411 194.824 104.823 194.471 105.528Z" fill="black"></path><path d="M193.059 107.998C192.353 107.998 191.647 107.998 191.294 107.292L160.941 88.2388C159.176 87.1803 158.824 85.0632 159.882 83.2989C160.941 81.5347 163.059 81.1819 164.824 82.2405L195.176 101.294C195.882 101.647 196.588 102.705 196.588 103.411C196.941 104.47 196.588 105.175 196.235 106.234C195.176 107.645 194.118 107.998 193.059 107.998ZM162.706 85.416L194.471 105.528L193.059 104.469L162.706 85.416Z" fill="black"></path><path d="M175.765 110.468L175.059 106.94L191.647 103.764L187.412 87.1802L190.941 86.4746L196.235 106.587L175.765 110.468Z" fill="black"></path><path d="M174.353 112.585L172.941 105.528L189.529 102.352L185.294 86.1216L192 84.3574L198.353 107.998L174.353 112.585Z" fill="black"></path><path d="M86.8234 31.078C87.1763 30.3723 88.5881 30.0195 89.294 30.3723L119.647 49.4259C120.353 49.7788 120.706 51.1901 120.353 51.8958C120 52.6015 118.588 52.9544 117.882 52.6015L87.5293 33.548C86.4705 32.8423 86.4704 31.7837 86.8234 31.078Z" fill="black"></path><path d="M118.588 54.7187C117.882 54.7187 117.176 54.7186 116.824 54.013L86.4706 34.9595C84.7059 33.901 84.3529 31.7839 85.4118 30.0197C86.4706 28.2555 88.5882 27.9026 90.3529 28.9611L120.706 48.0146C122.471 49.0731 122.824 51.1903 121.765 52.9545C121.059 54.013 120 54.7187 118.588 54.7187ZM88.2353 32.1367L118.588 51.1903L88.2353 32.1367Z" fill="black"></path><path d="M105.529 26.1382L106.235 29.6666L89.647 32.8422L93.8822 49.0731L90.3528 50.1316L85.0587 30.0195L105.529 26.1382Z" fill="black"></path><path d="M89.2941 52.2487L82.9412 28.6082L106.941 24.0212L108.353 31.0781L91.7647 33.9008L96 50.4845L89.2941 52.2487Z" fill="black"></path><path d="M257.647 131.286H25.4118C11.2941 131.286 0 119.995 0 105.881V25.7854C0 11.6717 11.2941 0.380615 25.4118 0.380615H257.647C271.765 0.380615 283.059 11.6717 283.059 25.7854V105.881C283.059 119.995 271.765 131.286 257.647 131.286ZM25.4118 11.3188C17.2941 11.3188 10.5882 18.0229 10.5882 26.1383V106.234C10.5882 114.349 17.2941 121.053 25.4118 121.053H257.647C265.765 121.053 272.471 114.349 272.471 106.234V26.1383C272.471 18.0229 265.765 11.3188 257.647 11.3188H25.4118Z" fill="black"></path></svg> 