<?xml version="1.0" encoding="UTF-8"?> <svg xmlns="http://www.w3.org/2000/svg" width="402" height="212" viewBox="0 0 402 212" fill="none"><path d="M212.303 68.7633C211.128 68.7633 210.345 67.5887 210.345 66.8056C210.345 66.8056 210.345 66.0225 210.737 64.4564C211.128 63.2817 211.911 62.8901 213.086 62.8901C214.261 63.2817 214.652 64.0648 214.652 65.2394C214.261 66.0225 214.261 66.8056 214.261 66.8056C214.261 67.9802 213.478 68.7633 212.303 68.7633Z" fill="black"></path><path d="M218.176 56.6256C217.785 56.6256 217.393 56.6256 217.002 56.234C216.219 55.451 216.219 54.2764 217.002 53.4933C217.785 52.3187 218.96 51.5356 220.134 50.7525C220.917 49.9695 222.092 50.361 222.875 51.144C223.658 51.9271 223.267 53.1018 222.483 53.8849C221.7 54.6679 220.526 55.451 219.743 56.234C219.351 56.6256 218.568 56.6256 218.176 56.6256Z" fill="black"></path><path d="M301.968 73.0709C301.185 73.0709 300.402 72.6794 300.01 71.8963C299.619 70.7217 299.227 69.5471 298.444 68.3724C298.053 67.5894 298.444 66.4147 299.227 65.6317C300.01 65.2401 301.185 65.6316 301.968 66.4147C302.751 67.5894 303.143 68.764 303.534 69.9386C303.926 71.1132 303.534 71.8963 302.36 72.2879C302.36 73.0709 302.36 73.0709 301.968 73.0709ZM293.354 60.15C292.963 60.15 292.179 60.1501 292.179 59.7585C291.396 58.9754 290.222 58.1923 289.439 57.4093C288.656 56.6262 288.264 55.4516 289.047 54.6685C289.83 53.8854 291.005 53.4938 291.788 54.2769C292.963 55.06 293.746 56.2346 294.92 57.0177C295.703 57.8008 295.703 58.9754 294.92 59.7585C294.529 60.1501 294.137 60.15 293.354 60.15ZM280.824 51.9277C280.433 51.9277 280.433 51.9277 280.041 51.9277C278.867 51.5362 277.692 51.1446 276.517 50.7531C275.343 50.3615 274.951 49.1869 275.343 48.4038C275.734 47.2292 276.909 46.8376 277.692 47.2292C278.867 47.6207 280.433 48.0123 281.608 48.7954C282.782 49.1869 283.174 50.3615 282.782 51.5361C281.999 51.1446 281.216 51.9277 280.824 51.9277ZM231.098 48.7954C230.314 48.7954 229.531 48.4038 229.14 47.6207C228.748 46.4461 229.531 45.663 230.314 45.2714C231.489 44.8799 232.664 44.4884 234.23 44.0969C235.405 43.7053 236.188 44.4884 236.579 45.663C236.971 46.8376 236.188 47.6207 235.013 48.0123C233.838 48.4038 232.664 48.7953 231.489 49.1869C231.489 48.4038 231.489 48.7954 231.098 48.7954ZM265.946 47.6207C265.554 47.6207 265.554 47.6207 265.946 47.6207C265.162 47.6207 264.379 47.2292 263.988 47.2292L262.03 46.8376C260.855 46.8376 260.072 45.663 260.464 44.4884C260.464 43.3137 261.638 42.5307 262.813 42.9222L264.771 43.3137C265.554 43.3137 265.945 43.3138 266.729 43.7053C267.903 43.7053 268.686 44.88 268.295 46.0546C267.512 46.8377 266.729 47.6207 265.946 47.6207ZM246.368 46.0546C245.193 46.0546 244.41 45.2715 244.41 44.0969C244.41 42.9222 245.193 42.1392 246.368 42.1392C247.151 42.1392 248.326 42.1392 249.109 42.1392H250.284C251.458 42.1392 252.241 42.9222 252.241 44.0969C252.241 45.2715 251.458 46.0546 250.284 46.0546H249.109C248.326 46.0546 247.543 46.0546 246.368 46.0546Z" fill="black"></path><path d="M304.709 86.3838C303.534 86.3838 302.751 85.6007 302.751 84.4261C302.751 83.643 302.751 83.2514 302.751 82.4684C302.751 81.2937 303.534 80.5107 304.317 80.1191C305.492 80.1191 306.275 80.9022 306.666 81.6853C306.666 82.4684 306.666 82.8599 306.666 83.643C307.058 85.2092 306.275 86.3838 304.709 86.3838C305.1 86.3838 305.1 86.3838 304.709 86.3838Z" fill="black"></path><path d="M291.788 79.7275L303.143 102.829L317.63 81.6852L291.788 79.7275Z" fill="black"></path><path d="M397.506 196.406C397.506 202.67 392.416 207.369 386.543 207.369H228.748C222.483 207.369 217.785 202.279 217.785 196.406V140.024C217.785 133.759 222.875 129.061 228.748 129.061H386.543C392.808 129.061 397.506 134.151 397.506 140.024V196.406Z" fill="black"></path><path d="M386.543 211.284H228.748C220.526 211.284 213.869 204.628 213.869 196.406V140.024C213.869 131.801 220.526 125.145 228.748 125.145H386.543C394.765 125.145 401.422 131.801 401.422 140.024V196.406C401.422 204.628 394.765 211.284 386.543 211.284ZM228.357 132.584C224.441 132.584 221.309 135.717 221.309 139.632V196.406C221.309 200.321 224.441 203.453 228.357 203.453H386.151C390.067 203.453 393.199 200.321 393.199 196.406V140.024C393.199 136.108 390.067 132.976 386.151 132.976H228.357V132.584Z" fill="black"></path><path d="M160.227 0.635742H2.43168C2.04013 0.635742 1.64863 0.635742 1.25708 0.635742V8.46657C1.64863 8.46657 2.04013 8.46657 2.43168 8.46657H160.227C164.142 8.46657 167.274 11.5989 167.274 15.5143V71.8963C167.274 75.8117 164.142 78.944 160.227 78.944H2.43168C2.04013 78.944 1.64863 78.944 1.25708 78.944V86.7748C1.64863 86.7748 2.04013 86.7748 2.43168 86.7748H160.227C168.449 86.7748 175.105 80.1186 175.105 71.8963V15.5143C175.105 7.6835 168.449 0.635742 160.227 0.635742Z" fill="black"></path><path d="M168.057 6.1167H137.908V80.5096H168.057V6.1167Z" fill="#040000"></path><path d="M94.4465 44.0974C94.4465 42.9227 95.2296 42.1396 96.4043 42.1396H136.342C137.517 42.1396 138.3 42.9227 138.3 44.0974C138.3 45.272 137.517 46.0551 136.342 46.0551H96.4043C95.2296 46.0551 94.4465 45.272 94.4465 44.0974Z" fill="black"></path><path d="M136.342 48.0126H96.4043C94.055 48.0126 92.4888 46.4464 92.4888 44.0971C92.4888 41.7478 94.055 40.1816 96.4043 40.1816H136.342C138.692 40.1816 140.258 41.7478 140.258 44.0971C140.258 46.4464 138.3 48.0126 136.342 48.0126ZM94.4465 44.0971H96.4043H94.4465Z" fill="black"></path><path d="M109.325 28.4351L111.675 31.1758L97.9706 44.0967L111.675 57.0176L109.325 59.7584L92.4888 44.0967L109.325 28.4351Z" fill="black"></path><path d="M109.325 62.4988L89.356 44.0963L109.325 25.6938L114.415 31.1755L100.711 44.0963L114.415 57.0172L109.325 62.4988Z" fill="black"></path></svg> 