<?xml version="1.0" encoding="UTF-8"?> <svg xmlns="http://www.w3.org/2000/svg" width="284" height="132" viewBox="0 0 284 132" fill="none"><path d="M141.588 126.88C185.056 126.88 220.294 99.5501 220.294 65.8375C220.294 32.1248 185.056 4.79541 141.588 4.79541C98.1203 4.79541 62.8826 32.1248 62.8826 65.8375C62.8826 99.5501 98.1203 126.88 141.588 126.88Z" fill="#999899"></path><path d="M141.588 128.644C97.1179 128.644 61.1179 100.416 61.1179 65.8375C61.1179 31.2588 97.1179 3.03125 141.588 3.03125C186.059 3.03125 222.059 31.2588 222.059 65.8375C222.059 100.416 185.706 128.644 141.588 128.644ZM141.588 6.5597C99.2355 6.5597 64.6473 33.023 64.6473 65.8375C64.6473 98.6521 99.2355 125.115 141.588 125.115C183.941 125.115 218.53 98.6521 218.53 65.8375C218.53 33.023 183.941 6.5597 141.588 6.5597Z" fill="#999899"></path><path d="M257.706 131.82H25.4706C11.3529 131.82 0.0588379 120.529 0.0588379 106.415V26.3194C0.0588379 12.2056 11.3529 0.914551 25.4706 0.914551H257.706C271.824 0.914551 283.118 12.2056 283.118 26.3194V106.415C283.118 120.529 271.471 131.82 257.706 131.82ZM25.4706 11.8527C17.3529 11.8527 10.6471 18.5567 10.6471 26.6721V106.768C10.6471 114.883 17.3529 121.587 25.4706 121.587H257.706C265.824 121.587 272.529 114.883 272.529 106.768V26.6721C272.529 18.5567 265.824 11.8527 257.706 11.8527H25.4706Z" fill="black"></path><path d="M48.4119 105.356C48.059 104.298 48.4119 103.592 49.4707 102.886L82.2942 88.4197C83.3531 88.0668 84.0589 88.4197 84.7648 89.4783C85.4707 90.5368 84.7648 91.2424 83.706 91.9481L50.8825 106.415C49.8236 106.768 49.1178 106.415 48.4119 105.356Z" fill="black"></path><path d="M50.1764 108.179C49.8234 108.179 49.4705 108.179 48.7646 107.826C48.0587 107.473 47.3528 106.768 46.647 106.062C45.9411 104.298 46.647 102.181 48.4117 101.475L81.2352 87.0083C81.9411 86.6554 83 86.6554 84.0588 87.0083C84.7647 87.3611 85.4705 88.0668 86.1764 88.7725C86.5293 89.4782 86.5293 90.5368 86.1764 91.5954C85.8235 92.301 85.1176 93.0067 84.4117 93.7123L51.5881 108.179C51.2352 108.179 50.5293 108.179 50.1764 108.179ZM50.1764 104.651L82.9999 90.1839L50.1764 104.651Z" fill="black"></path><path d="M55.1177 87.0083L58.2942 88.4197L51.2353 103.945L67.4706 109.943L66.4118 113.119L46.6471 106.062L55.1177 87.0083Z" fill="black"></path><path d="M67.4708 115.236L44.5295 107.121L54.059 84.8914L60.4119 87.7142L53.7061 103.239L69.5884 108.532L67.4708 115.236Z" fill="black"></path><path d="M47.0001 27.7304C47.353 27.0247 48.7648 26.6718 49.4706 27.0246L79.8235 46.0781C80.5294 46.431 80.8824 47.8424 80.5295 48.5481C80.1765 49.2538 78.7647 49.6066 78.0588 49.2538L47.7059 30.2002C46.6471 29.4945 46.2942 28.4361 47.0001 27.7304Z" fill="black"></path><path d="M78.7648 51.3708C78.0589 51.3708 77.353 51.0181 77.0001 50.6652L46.6471 31.6117C44.8824 30.5531 44.5294 28.436 45.5883 26.6718C45.9412 25.9661 47 25.2604 47.7059 25.2604C48.7648 24.9076 49.4706 25.2604 50.5295 25.6133L80.8824 44.6668C81.5883 45.0197 82.2942 46.0782 82.2942 46.7839C82.6471 47.8425 82.2942 48.5481 81.9412 49.6066C81.5883 50.3123 80.5294 51.0181 79.8235 51.0181C79.1177 51.3709 79.1177 51.3708 78.7648 51.3708ZM47.0001 27.7304L48.4118 28.7888L47.0001 27.7304Z" fill="black"></path><path d="M65.7059 22.7905L66.4119 26.319L49.4706 29.4946L53.7059 45.7254L50.5295 46.7839L45.2354 26.6717L65.7059 22.7905Z" fill="black"></path><path d="M49.1177 48.901L43.1177 25.2603L67.1177 20.6733L68.1765 27.7303L51.5882 30.9058L56.1765 47.1368L49.1177 48.901Z" fill="black"></path><path d="M235.118 28.436C235.471 29.4946 235.118 30.2003 234.059 30.906L201.235 45.3726C200.176 45.7254 199.471 45.3725 198.765 44.314C198.412 43.2555 198.765 42.5498 199.823 41.8441L232.647 27.3775C233.706 27.0247 234.765 27.7303 235.118 28.436Z" fill="black"></path><path d="M200.529 47.137C200.176 47.137 199.823 47.1369 199.117 46.7841C198.412 46.4313 197.706 45.7256 197 45.0199C196.647 44.3142 196.647 43.2557 197 42.1972C197.353 41.4915 198.059 40.7858 198.765 40.0801L231.588 25.6134C233.353 24.9078 235.47 25.6134 236.176 27.3777C236.882 29.1419 236.176 31.2589 234.412 31.9646L201.588 46.4312C201.588 46.7841 201.235 47.137 200.529 47.137ZM235.117 28.4362L200.529 43.6085L235.117 28.4362Z" fill="black"></path><path d="M228.764 46.7839L225.588 45.3726L232.294 29.8474L216.411 24.2018L217.47 20.6733L236.882 27.7303L228.764 46.7839Z" fill="black"></path><path d="M229.47 48.9012L223.117 46.4313L229.823 30.9062L213.941 25.2607L216.412 18.5566L239.353 26.672L229.47 48.9012Z" fill="black"></path><path d="M234.765 108.179C234.412 108.885 233 109.237 232.294 108.885L201.941 89.8312C201.235 89.4783 200.882 88.0669 201.235 87.3612C201.588 86.6555 203 86.3027 203.706 86.6555L234.059 105.709C235.118 106.415 235.471 107.473 234.765 108.179Z" fill="black"></path><path d="M233.353 110.649C232.647 110.649 231.941 110.649 231.588 109.943L201.235 90.8897C199.471 89.8312 199.118 87.7141 200.177 85.9499C201.235 84.1857 203.353 83.8328 205.118 84.8913L235.471 103.945C236.177 104.298 236.882 105.356 236.882 106.062C237.235 107.12 236.882 107.826 236.53 108.885C235.471 110.296 234.412 110.649 233.353 110.649ZM203 88.067L234.765 108.179L233.353 107.12L203 88.067Z" fill="black"></path><path d="M216.059 113.119L215.353 109.591L232.294 106.415L227.706 90.184L231.235 89.1255L236.53 109.238L216.059 113.119Z" fill="black"></path><path d="M214.647 115.236L213.235 108.179L229.823 105.003L225.588 88.7725L232.294 87.0083L238.647 110.649L214.647 115.236Z" fill="black"></path></svg> 