<?xml version="1.0" encoding="UTF-8"?> <svg xmlns="http://www.w3.org/2000/svg" width="298" height="208" viewBox="0 0 298 208" fill="none"><path d="M130.118 189.262C83.1764 189.262 45.4117 151.155 45.4117 104.579C45.4117 58.0039 83.5294 19.8967 130.118 19.8967C176.706 19.8967 214.823 58.0039 214.823 104.579C214.823 151.155 176.706 189.262 130.118 189.262ZM130.118 23.0724C85.2941 23.0724 48.9412 59.4154 48.9412 104.227C48.9412 149.038 85.2941 185.381 130.118 185.381C174.941 185.381 211.294 149.038 211.294 104.227C211.294 59.7682 174.941 23.0724 130.118 23.0724Z" fill="#CCCCCC"></path><path d="M130.118 207.963C72.9411 207.963 26.3529 161.387 26.3529 104.226C26.3529 47.0656 72.9411 0.48999 130.118 0.48999C187.294 0.48999 233.882 47.0656 233.882 104.226C233.882 161.74 187.294 207.963 130.118 207.963ZM130.118 4.3712C75.0588 4.3712 29.8823 49.1826 29.8823 104.579C29.8823 159.976 74.7058 204.787 130.118 204.787C185.529 204.787 230.353 159.976 230.353 104.579C230.353 49.1826 185.176 4.3712 130.118 4.3712Z" fill="#CCCCCC"></path><path d="M130.118 158.917C100.118 158.917 75.4117 134.571 75.4117 104.226C75.4117 73.8819 100.118 49.8884 130.118 49.8884C160.118 49.8884 184.824 74.2346 184.824 104.579C184.824 134.924 160.118 158.917 130.118 158.917ZM130.118 53.4169C101.882 53.4169 78.9412 76.3517 78.9412 104.579C78.9412 132.807 101.882 155.389 130.118 155.389C158.353 155.389 181.294 132.454 181.294 104.226C181.294 75.9989 158 53.4169 130.118 53.4169Z" fill="#999899"></path><path d="M3.0591 110.93C3.0591 111.283 3.0591 111.636 2.35322 111.636C1.64733 111.636 1.64734 110.93 1.64734 110.93V97.8751C1.64734 97.5223 1.64733 97.1696 2.35322 97.1696C3.0591 97.1696 3.41204 97.5223 3.41204 97.8751V110.93H3.0591ZM16.4709 97.5224C16.4709 97.1695 16.4709 96.8167 17.1767 96.8167C17.8826 96.8167 18.2356 97.1695 18.2356 97.5224V105.638C18.2356 109.872 17.8826 114.106 13.6473 117.635C11.5297 119.399 8.35321 120.457 7.64733 120.457C7.29439 120.457 6.94145 120.104 6.94145 119.399C6.94145 118.693 7.29439 118.693 8.00028 118.693C16.4709 115.87 16.4709 109.872 16.4709 105.638V97.5224Z" fill="black"></path><path d="M7.6472 121.163C6.58838 121.163 5.8825 120.457 5.8825 119.399C5.8825 118.34 6.58838 117.987 7.29427 117.635C15.4119 114.812 15.4119 109.166 15.4119 105.285V97.5225C15.4119 95.7583 16.8237 95.7583 17.1766 95.7583C18.2354 95.7583 18.9413 96.464 18.9413 97.5225V105.638C18.9413 110.225 18.5884 114.812 14.0001 118.34C11.5296 120.104 8.35308 121.163 7.6472 121.163ZM16.8237 109.872C16.4707 111.636 15.7648 113.4 14.706 115.165C16.1178 113.4 16.4707 111.636 16.8237 109.872ZM2.35308 112.695C1.6472 112.695 0.588379 112.342 0.588379 110.93V97.8753C0.588379 96.1111 2.00014 96.1111 2.35308 96.1111C3.41191 96.1111 4.11779 96.8167 4.11779 97.8753V110.93C4.11779 111.989 3.41191 112.695 2.35308 112.695Z" fill="black"></path><path d="M38.7061 100.698C40.8237 101.757 41.1767 102.109 41.1767 102.462C41.1767 103.168 40.8237 103.521 40.4708 103.521C40.1179 103.521 39.7649 103.521 39.412 103.168C37.2943 102.109 34.8237 101.051 33.059 100.345C32.7061 100.345 32.3531 99.9923 32.3531 99.6394C32.3531 99.2866 32.7061 98.9339 33.412 98.9339C33.7649 98.5811 36.2355 99.2868 38.7061 100.698ZM54.2355 104.579C54.2355 104.932 51.7649 109.166 47.5296 112.695C40.4708 118.34 33.7649 119.751 33.412 119.751C32.7061 119.751 32.3531 119.399 32.3531 118.693C32.3531 117.987 32.3532 117.987 34.4708 117.634C40.4708 116.223 47.1767 111.989 51.7649 105.285C52.8237 103.874 52.8237 103.874 53.1767 103.874C53.8826 103.874 54.2355 104.226 54.2355 104.579Z" fill="black"></path><path d="M33.0589 120.81C32.0001 120.81 31.2942 120.104 31.2942 119.046C31.2942 117.634 32.0001 117.635 34.1177 116.929C40.8236 115.165 46.8236 110.93 51.0589 104.932C52.1177 103.521 52.4707 102.815 53.1765 102.815C54.2354 102.815 54.9413 103.521 54.9413 104.579C54.9413 105.638 51.7648 109.872 47.8824 113.4C41.1765 119.399 34.1177 120.81 33.0589 120.81ZM33.0589 119.046C33.0589 119.046 39.7648 117.987 46.8236 111.989C50.0001 109.166 52.1177 106.343 53.1765 104.932C53.1765 105.285 52.8236 105.285 52.8236 105.638C48.5883 111.636 41.8824 116.576 34.8236 118.34C34.1177 118.693 33.4118 119.046 33.0589 119.046ZM40.4707 104.227C40.1177 104.227 39.7648 103.874 39.0589 103.521C36.9413 102.462 34.4707 101.404 32.706 100.698C32.353 100.698 31.2942 100.345 31.2942 99.2867C31.2942 98.581 32.0001 97.5225 33.0589 97.5225C33.7648 97.5225 36.9413 98.581 39.0589 99.9924C41.1765 101.051 41.8824 101.404 41.8824 102.462C42.2354 103.521 41.1765 104.227 40.4707 104.227ZM36.2354 100.345C37.2942 100.698 38.706 101.404 39.7648 102.109C40.1177 102.109 40.4707 102.462 40.4707 102.462C40.1177 102.11 39.0589 101.404 38.353 101.404C37.6471 101.051 36.9412 100.698 36.2354 100.345Z" fill="black"></path><path d="M82.8238 98.228C83.5297 98.228 85.2944 98.2279 85.2944 100.345C85.2944 100.698 84.2356 109.166 77.5297 115.517C73.6474 119.046 69.4121 120.81 68.7062 120.81C68.3532 120.81 68.0003 120.457 68.0003 120.104C68.0003 119.752 68.0003 119.399 69.4121 119.046C72.9415 117.634 78.5885 113.753 81.4121 107.402C82.8238 104.579 83.1768 101.756 83.1768 101.051C83.1768 100.345 82.4709 100.345 82.118 100.345H72.2356C71.5297 100.345 71.5297 100.345 70.8238 101.403C68.7062 104.932 66.2356 107.402 65.1768 108.108C64.8238 108.108 64.8238 108.46 64.4709 108.46C64.118 108.46 63.765 108.108 63.765 107.755C63.765 107.402 63.765 107.402 65.1768 105.991C67.6474 103.874 68.3533 102.462 69.765 99.9922C70.4709 98.9337 71.1768 98.9338 72.9415 98.9338H82.8238V98.228Z" fill="black"></path><path d="M69.059 121.516C68.0002 121.516 67.2943 120.81 67.2943 119.752C67.2943 118.693 68.0002 118.34 69.412 117.635C73.2943 115.87 78.2355 112.342 80.7061 106.344C81.7649 103.521 82.4708 101.051 82.4708 100.698H82.1179H72.2355H71.8826C71.8826 100.698 71.5296 101.051 71.5296 101.404C69.412 104.932 66.9414 107.402 65.5296 108.461C65.1767 108.813 64.8237 109.166 64.1179 109.166C63.412 109.166 62.3531 108.461 62.3531 107.402C62.3531 106.696 62.7061 106.344 64.1179 105.285C66.5884 103.168 67.2943 101.757 68.7061 99.2867C69.7649 97.5225 70.8237 97.5225 72.5884 97.5225H82.1179C84.9414 97.5225 85.6473 98.9338 85.6473 100.345C85.6473 101.404 84.2355 109.872 77.8826 115.87C74.7061 119.399 70.1179 121.516 69.059 121.516ZM83.8826 99.2867C84.2355 99.6395 84.5884 99.9925 84.5884 100.698C84.5884 100.345 84.5884 100.345 84.5884 100.345C84.5884 99.6395 84.2355 99.2867 83.8826 99.2867Z" fill="black"></path><path d="M105.765 113.4C104.353 116.576 103.294 118.693 101.177 118.693C98.7061 118.693 95.8826 114.459 95.8826 109.519C95.8826 102.815 100.824 97.5225 108.236 97.5225C115.294 97.5225 119.883 102.462 119.883 108.461C119.883 117.282 111.412 120.104 110.706 120.104C110 120.104 110 119.752 110 119.399C110 119.046 110 118.693 111.059 118.693C114.941 117.282 118.118 113.753 118.118 108.813C118.118 105.638 116.706 102.815 114.588 101.051C112.471 99.6395 110.706 99.2867 109.294 99.2867C108.588 103.874 107.53 108.813 105.765 113.4ZM97.6473 109.519C97.6473 113.4 99.7649 116.929 101.177 116.929C102.588 116.929 104 113.753 104.706 111.283C106.118 107.402 107.177 102.815 107.53 98.5809C101.883 99.2866 97.6473 103.874 97.6473 109.519Z" fill="black"></path><path d="M110.706 121.163C109.647 121.163 108.941 120.104 108.941 119.399C108.941 118.34 109.647 117.987 110.706 117.634C113.883 116.576 117.412 113.4 117.412 108.46C117.412 105.638 116.353 103.168 114.236 101.403C112.824 100.345 111.412 99.9921 110.353 99.6393C109.647 105.285 108.588 109.872 106.824 113.753C105.765 116.576 104 119.399 101.53 119.399C98.3532 119.399 95.5297 114.812 95.5297 109.166C95.5297 101.756 101.177 96.1108 108.941 96.1108C116.353 96.1108 121.294 101.051 121.294 108.108C120.941 117.634 112.471 121.163 110.706 121.163ZM106.471 99.9922C101.883 100.698 98.3532 104.932 98.3532 109.519C98.3532 113.4 100.118 116.223 101.177 116.223C101.177 116.223 102.236 116.223 104 111.283C105.059 107.755 106.118 103.874 106.471 99.9922ZM108.236 98.228C108.236 98.228 108.236 98.5809 108.236 98.228C108.588 98.228 108.588 98.228 108.588 98.228H108.236Z" fill="black"></path><path d="M129.412 106.696C129.059 106.696 128.706 106.696 128.706 105.991C128.706 105.285 129.412 105.285 129.412 105.285H152C152.353 105.285 152.706 105.285 152.706 105.991C152.706 106.696 152 106.696 152 106.696H142.471C142.471 110.225 141.765 114.106 139.294 116.929C137.177 119.399 134 120.457 133.647 120.457C132.941 120.457 132.941 119.751 132.941 119.399C132.941 119.046 132.941 119.046 134 118.34C140.353 115.87 140.706 110.577 140.706 106.696H129.412V106.696ZM148.471 97.875C148.824 97.875 149.177 97.875 149.177 98.5807C149.177 99.2864 148.471 99.2865 148.471 99.2865H132.589C132.236 99.2865 131.883 99.2864 131.883 98.5807C131.883 97.875 132.236 97.875 132.589 97.875H148.471Z" fill="black"></path><path d="M133.294 121.163C132.235 121.163 131.53 120.104 131.53 119.399C131.53 118.34 132.235 117.987 133.294 117.634C138.588 115.517 139.647 111.636 139.647 107.402H129.412C128.353 107.402 127.647 106.696 127.647 105.638C127.647 104.932 128 103.873 129.412 103.873H152C153.059 103.873 153.765 104.579 153.765 105.638C153.765 106.696 153.059 107.402 152 107.402H143.177C143.177 110.93 142.471 114.459 139.647 117.281C137.177 120.104 134 121.163 133.294 121.163ZM140.706 105.99C141.059 105.99 141.059 105.99 140.706 105.99C141.059 106.343 141.412 106.696 141.412 106.696C141.412 107.049 141.412 107.402 141.412 107.755C141.412 107.402 141.412 107.049 141.412 106.343C141.412 105.99 141.765 105.638 142.118 105.638L140.706 105.99ZM148.471 100.345H132.588C131.177 100.345 130.824 99.2863 130.824 98.5806C130.824 97.5221 131.53 96.8164 132.588 96.8164H148.471C149.882 96.8164 150.235 97.5221 150.235 98.5806C150.235 99.2863 149.882 100.345 148.471 100.345Z" fill="black"></path><path d="M170.706 97.5224C170.353 96.4638 171.412 96.4639 171.412 96.4639C171.765 96.4639 172.118 96.8168 172.118 97.1696L172.824 101.757L180.941 100.345C181.294 100.345 182 100.345 182 101.051C182 101.404 181.647 101.757 181.294 101.757L173.177 103.168L174.236 108.813L183.765 107.402C184.824 107.402 184.824 108.108 184.824 108.108C184.824 108.813 184.471 108.813 184.118 108.813L174.589 110.225L176.353 119.046C177.059 120.457 176 120.457 176 120.457C175.294 120.457 175.294 120.104 175.294 119.751L173.53 110.578L162.589 112.342C161.883 112.342 161.883 111.636 161.883 111.636C161.883 110.93 162.236 110.93 162.589 110.93L173.53 109.166L172.471 103.521L164.353 104.932C163.294 104.932 163.294 104.226 163.294 104.226C163.294 103.521 163.647 103.521 164 103.521L172.118 102.109L170.706 97.5224Z" fill="black"></path><path d="M176 121.516C175.294 121.516 174.588 121.163 174.236 120.105L172.824 111.989L162.588 113.753C161.883 113.753 161.53 113.753 161.177 113.401C160.824 113.048 160.471 112.695 160.471 111.989C160.471 111.283 161.177 110.578 161.883 110.578L172.118 108.814L171.412 104.932L164 105.991C163.294 105.991 162.941 105.991 162.588 105.638C162.236 105.285 161.883 104.932 161.883 104.227C161.883 103.168 162.588 102.815 163.294 102.462L170.706 101.404L170 97.8753C170 97.1696 170 96.8169 170.353 96.464C170.706 95.7583 171.765 95.7583 171.765 95.7583C172.118 95.7583 173.177 95.7584 173.53 97.1698L174.236 101.051L181.294 99.9925C181.647 99.9925 182.353 99.9924 182.706 100.345C183.059 100.698 183.412 101.051 183.412 101.757C183.412 102.462 182.706 103.168 182 103.521L174.941 104.579L175.647 108.461L184.471 107.049C185.177 107.049 185.53 107.049 185.883 107.402C186.236 107.755 186.588 108.108 186.588 108.814C186.588 109.519 185.883 110.225 185.177 110.578L176.706 111.989L178.118 120.105C178.118 120.81 178.118 121.163 177.765 121.516C177.059 121.163 176.353 121.516 176 121.516ZM173.53 109.872C173.883 109.872 173.883 110.225 174.236 110.225V109.872C174.236 109.872 174.236 109.872 174.588 109.519C174.236 109.519 174.236 109.166 173.883 109.166C173.883 109.519 173.883 109.519 173.53 109.872C173.53 109.872 173.883 109.872 173.53 109.872ZM172.118 102.815C172.471 102.815 172.471 103.168 172.824 103.168V102.815C172.824 102.815 172.824 102.815 173.177 102.462C172.824 102.462 172.824 102.109 172.471 102.109C172.471 102.109 172.471 102.462 172.118 102.815C172.118 102.815 172.471 102.462 172.118 102.815Z" fill="black"></path><path d="M197.177 99.992C196.824 99.992 196.471 99.992 196.471 99.2863C196.471 98.5806 197.177 98.5806 197.177 98.5806H211.295C212.353 98.5806 213.765 98.5806 213.765 100.345C213.765 102.109 211.295 106.696 209.177 109.519C210.589 110.577 214.118 113.753 217.647 117.634C218 118.34 218.353 118.34 218.353 118.693C218.353 119.046 218 119.751 217.294 119.751C216.942 119.751 216.589 119.398 216.236 119.046C212.706 114.811 209.883 112.342 208.118 110.93C202.824 117.281 196.118 120.104 195.765 120.104C195.059 120.104 195.059 119.751 195.059 119.046C195.059 118.693 195.059 118.693 196.118 117.987C208.824 111.636 212 101.051 212 100.698C212 100.345 211.647 99.992 210.942 99.992H197.177V99.992Z" fill="black"></path><path d="M195.765 120.81C194.706 120.81 194 120.104 194 119.046C194 117.987 194.706 117.634 195.412 117.281C206.706 111.989 210.236 102.815 210.589 100.698H197.177C195.765 100.698 195.412 99.9922 195.412 98.9337C195.412 98.5808 195.412 97.1694 197.177 97.1694H211.294C212.353 97.1694 214.824 97.1694 214.824 99.9922C214.824 102.109 212.353 106.343 210.589 109.166C212.353 110.577 215.53 113.4 218.353 116.929C218.706 117.634 219.059 117.987 219.059 118.34C219.059 119.399 218.353 120.104 217.294 120.104C216.236 120.104 215.883 119.399 215.53 119.046C212.706 115.517 210.236 113.047 208.471 111.636C202.824 117.987 196.118 120.81 195.765 120.81ZM215.177 116.223C215.53 116.929 216.236 117.282 216.589 117.987L216.941 118.34L216.589 117.987C216.236 117.282 215.53 116.929 215.177 116.223ZM208.118 109.166C208.118 109.519 207.765 109.519 207.765 109.872C207.765 109.872 207.765 109.872 208.118 109.872H208.471C208.118 109.519 208.118 109.519 208.118 109.166ZM211.647 99.2864C212 99.2864 212.706 99.9922 212.706 100.698C212.706 100.698 212.353 101.756 211.647 103.521C212.353 102.109 212.706 101.051 212.706 100.345C212.706 99.2864 212.353 99.2864 211.647 99.2864Z" fill="black"></path><path d="M236 120.104C236 120.457 236 120.81 235.295 120.81C234.589 120.81 234.236 120.457 234.236 120.104V96.8166C234.236 96.4637 234.236 96.1108 234.942 96.1108C235.647 96.1108 236 96.4637 236 96.8166V104.226C242.353 107.049 245.177 109.166 248 110.93C248.706 111.636 249.059 111.636 249.059 111.989C249.059 112.342 248.706 113.048 248.353 113.048C248 113.048 248 113.047 246.589 111.989C243.059 109.519 239.177 107.402 236.353 105.991V120.104H236Z" fill="black"></path><path d="M234.941 121.869C234.236 121.869 233.177 121.869 233.177 120.105V96.8165C233.177 95.7579 233.883 95.0522 234.941 95.0522C236 95.0522 236.706 95.7579 236.706 96.8165V103.873C242.353 106.343 245.53 108.46 248 110.225L248.353 110.578C249.059 110.93 249.765 111.636 249.765 112.342C249.765 113.4 249.059 114.106 248 114.106C247.294 114.106 246.941 113.753 245.883 113.048C242.706 110.578 239.177 108.813 237.059 107.755V120.105C236.706 121.163 236 121.869 234.941 121.869ZM234.941 120.105V106.343C234.941 105.991 234.941 105.638 235.294 105.638H235.647H235.294C234.941 105.638 234.589 105.285 234.589 104.932V97.5222L234.941 120.105ZM245.177 110.578C245.53 110.93 246.236 111.283 246.588 111.636C247.294 112.342 247.647 112.695 248 112.695C248 112.695 247.647 112.342 247.294 112.342L246.941 111.989C246.588 111.283 245.883 110.93 245.177 110.578Z" fill="black"></path><path d="M281.176 124.691C280.471 124.691 279.412 124.339 278.706 123.633C277.294 122.222 277.294 120.104 278.353 118.693L288.941 107.049L278.706 97.1698C277.294 95.7584 277.294 93.6413 278.706 92.2299C280.118 90.8185 282.235 90.8185 283.647 92.2299L296.706 104.227C298.118 105.638 298.118 107.755 297.059 109.166L284 123.28C282.941 124.338 282.235 124.691 281.176 124.691Z" fill="#4C4B4C"></path></svg> 