<?xml version="1.0" encoding="UTF-8"?> <svg xmlns="http://www.w3.org/2000/svg" width="250" height="267" viewBox="0 0 250 267" fill="none"><path d="M226 31.9169C226 30.8582 227.058 30.1523 227.764 30.1523C227.764 30.1523 228.47 30.1527 229.882 30.5056C230.941 30.8585 231.294 31.5647 231.294 32.6234C230.941 33.6821 230.235 34.0347 229.176 34.0347C228.47 33.6818 227.764 33.6814 227.764 33.6814C226.705 33.6814 226 32.9756 226 31.9169Z" fill="black"></path><path d="M236.941 37.2102C236.941 36.8573 236.941 36.5052 237.294 36.1523C238 35.4466 239.059 35.4466 239.765 36.1523C240.824 36.858 241.53 37.9159 242.235 38.9744C242.941 39.6801 242.588 40.7393 241.882 41.445C241.177 42.1507 240.118 41.7975 239.412 41.0918C238.706 40.3861 238 39.3278 237.294 38.6221C236.941 38.2692 236.941 37.563 236.941 37.2102Z" fill="black"></path><path d="M222.118 112.72C222.118 112.014 222.471 111.308 223.176 110.956C224.235 110.603 225.294 110.249 226.353 109.544C227.059 109.191 228.118 109.544 228.824 110.25C229.176 110.956 228.824 112.014 228.118 112.72C227.059 113.426 226 113.778 224.941 114.131C223.882 114.484 223.177 114.131 222.824 113.072C222.118 113.072 222.118 112.72 222.118 112.72ZM233.765 104.957C233.765 104.605 233.765 103.899 234.118 103.899C234.824 103.193 235.529 102.135 236.235 101.429C236.941 100.723 238 100.37 238.706 101.076C239.412 101.781 239.765 102.84 239.059 103.545C238.353 104.604 237.294 105.31 236.588 106.368C235.882 107.074 234.824 107.074 234.118 106.368C233.765 106.016 233.765 105.663 233.765 104.957ZM241.176 93.3133C241.176 92.9604 241.176 92.9606 241.176 92.6077C241.529 91.5492 241.882 90.4901 242.235 89.4316C242.588 88.373 243.647 88.02 244.353 88.3729C245.412 88.7257 245.765 89.7846 245.412 90.4903C245.059 91.5488 244.706 92.9602 244 94.0188C243.647 95.0773 242.588 95.4303 241.529 95.0775C241.882 94.7246 241.176 94.0189 241.176 93.3133ZM244 48.8542C244 48.1485 244.353 47.4428 245.059 47.0899C246.118 46.7371 246.824 47.443 247.177 48.1486C247.529 49.2072 247.882 50.2657 248.235 51.6771C248.588 52.7357 247.882 53.4417 246.824 53.7945C245.765 54.1474 245.059 53.4412 244.706 52.3826C244.353 51.3241 244 50.2659 243.647 49.2074C244.353 49.2074 244 49.207 244 48.8542ZM245.059 79.9049C245.059 79.1992 245.412 78.4935 245.412 78.1407L245.765 76.3764C245.765 75.3179 246.824 74.6125 247.882 74.9654C248.941 74.9654 249.647 76.0234 249.294 77.0819L248.941 78.8462C248.941 79.5519 248.941 79.9047 248.588 80.6104C248.588 81.669 247.529 82.3752 246.471 82.0223C245.765 81.6695 245.059 80.9634 245.059 79.9049ZM246.471 62.6157C246.471 61.5572 247.176 60.8515 248.235 60.8515C249.294 60.8515 250 61.5572 250 62.6157C250 63.3214 250 64.3798 250 65.0855V66.1442C250 67.2027 249.294 67.9084 248.235 67.9084C247.176 67.9084 246.471 67.2027 246.471 66.1442V65.0855C246.471 64.0269 246.471 63.3214 246.471 62.6157Z" fill="black"></path><path d="M210.117 115.188C210.117 114.129 210.823 113.424 211.882 113.424C212.588 113.424 212.941 113.424 213.647 113.424C214.705 113.424 215.411 114.129 215.764 114.835C215.764 115.893 215.058 116.599 214.352 116.952C213.647 116.952 213.294 116.952 212.588 116.952C211.176 116.952 210.117 116.246 210.117 115.188C210.117 115.188 210.117 115.541 210.117 115.188Z" fill="black"></path><path d="M216.118 103.545L195.294 113.778L214.353 126.833L216.118 103.545Z" fill="black"></path><path d="M226 139.887C226 138.829 227.058 138.123 227.764 138.123C227.764 138.123 228.47 138.123 229.882 138.476C230.941 138.829 231.294 139.534 231.294 140.593C230.941 141.652 230.235 142.005 229.176 142.005C228.47 141.652 227.764 141.652 227.764 141.652C226.705 141.652 226 140.946 226 139.887Z" fill="black"></path><path d="M236.941 145.18C236.941 144.827 236.941 144.474 237.294 144.121C238 143.415 239.059 143.415 239.765 144.121C240.824 144.827 241.53 145.886 242.235 146.944C242.941 147.65 242.588 148.708 241.882 149.414C241.177 150.12 240.118 149.767 239.412 149.062C238.706 148.356 238 147.297 237.294 146.591C236.941 146.238 236.941 145.533 236.941 145.18Z" fill="black"></path><path d="M222.118 220.688C222.118 219.983 222.471 219.277 223.176 218.924C224.235 218.571 225.294 218.219 226.353 217.513C227.059 217.16 228.118 217.513 228.824 218.219C229.176 218.924 228.824 219.983 228.118 220.688C227.059 221.394 226 221.747 224.941 222.1C223.882 222.453 223.177 222.1 222.824 221.041C222.118 221.041 222.118 220.688 222.118 220.688ZM233.765 212.926C233.765 212.573 233.765 211.867 234.118 211.867C234.824 211.162 235.529 210.103 236.235 209.398C236.941 208.692 238 208.34 238.706 209.045C239.412 209.751 239.765 210.809 239.059 211.515C238.353 212.573 237.294 213.279 236.588 214.338C235.882 215.044 234.824 215.044 234.118 214.338C233.765 213.985 233.765 213.632 233.765 212.926ZM241.176 201.282C241.176 200.929 241.176 200.929 241.176 200.577C241.529 199.518 241.882 198.46 242.235 197.401C242.588 196.343 243.647 195.99 244.353 196.343C245.412 196.696 245.765 197.754 245.412 198.46C245.059 199.519 244.706 200.93 244 201.988C243.647 203.047 242.588 203.399 241.529 203.046C241.882 202.693 241.176 201.988 241.176 201.282ZM244 156.825C244 156.119 244.353 155.413 245.059 155.061C246.118 154.708 246.824 155.414 247.177 156.119C247.529 157.178 247.882 158.236 248.235 159.648C248.588 160.706 247.882 161.411 246.824 161.764C245.765 162.117 245.059 161.412 244.706 160.353C244.353 159.295 244 158.236 243.647 157.177C244.353 157.177 244 157.178 244 156.825ZM245.059 187.875C245.059 187.169 245.412 186.464 245.412 186.111L245.765 184.346C245.765 183.288 246.824 182.582 247.882 182.935C248.941 182.935 249.647 183.993 249.294 185.052L248.941 186.816C248.941 187.522 248.941 187.875 248.588 188.58C248.588 189.639 247.529 190.344 246.471 189.991C245.765 189.639 245.059 188.933 245.059 187.875ZM246.471 170.585C246.471 169.527 247.176 168.821 248.235 168.821C249.294 168.821 250 169.527 250 170.585C250 171.291 250 172.349 250 173.055V174.114C250 175.172 249.294 175.878 248.235 175.878C247.176 175.878 246.471 175.172 246.471 174.114V173.055C246.471 171.996 246.471 171.291 246.471 170.585Z" fill="black"></path><path d="M210.117 223.159C210.117 222.1 210.823 221.395 211.882 221.395C212.588 221.395 212.941 221.395 213.647 221.395C214.705 221.395 215.411 222.1 215.764 222.806C215.764 223.864 215.058 224.57 214.352 224.923C213.647 224.923 213.294 224.923 212.588 224.923C211.176 224.923 210.117 224.218 210.117 223.159Z" fill="black"></path><path d="M216.118 211.515L195.294 221.747L214.353 234.45L216.118 211.515Z" fill="black"></path><path d="M156.117 78.4927H13.8822C6.47042 78.4927 0.470459 72.4942 0.470459 65.0845V14.2745C0.470459 6.86483 6.47042 0.867188 13.8822 0.867188H156.117C163.529 0.867188 169.529 6.86483 169.529 14.2745V65.0845C169.882 72.4942 163.529 78.4927 156.117 78.4927ZM13.8822 7.57086C10.3528 7.57086 7.52928 10.3938 7.52928 13.9222V64.7313C7.52928 68.2597 10.3528 71.0826 13.8822 71.0826H156.117C159.647 71.0826 162.47 68.2597 162.47 64.7313V13.9222C162.47 10.3938 159.647 7.57086 156.117 7.57086H13.8822Z" fill="black"></path><path d="M156.117 266.91H13.8822C6.47042 266.91 0.470459 260.912 0.470459 253.502V202.693C0.470459 195.284 6.47042 189.285 13.8822 189.285H156.117C163.529 189.285 169.529 195.284 169.529 202.693V253.502C169.882 260.912 163.529 266.91 156.117 266.91ZM13.8822 195.989C10.3528 195.989 7.52928 198.812 7.52928 202.34V253.15C7.52928 256.678 10.3528 259.5 13.8822 259.5H156.117C159.647 259.5 162.47 256.678 162.47 253.15V202.34C162.47 198.812 159.647 195.989 156.117 195.989H13.8822Z" fill="black"></path><path d="M127.882 147.65C126.47 147.65 125.411 146.944 124.705 145.886L115.529 129.302C114.47 127.538 115.176 125.421 116.941 124.363C118.706 123.304 120.823 124.009 121.882 125.774L129.647 139.534L142 132.831C143.764 131.772 145.882 132.477 146.941 134.242C148 136.006 147.294 138.123 145.529 139.182L130 147.65C128.941 147.297 128.588 147.65 127.882 147.65Z" fill="#4C4B4C"></path><path d="M133.176 244.682C132.47 244.682 131.412 244.329 130.706 243.623C129.294 242.212 129.294 240.095 130.353 238.684L140.941 227.04L130.706 217.16C129.294 215.749 129.294 213.632 130.706 212.221C132.118 210.809 134.235 210.809 135.647 212.221L148.706 224.217C150.118 225.628 150.118 227.746 149.059 229.157L136 243.271C134.941 244.329 133.882 244.682 133.176 244.682Z" fill="#4C4B4C"></path><path d="M133.176 55.2046C132.47 55.2046 131.412 54.8516 130.706 54.1459C129.294 52.7346 129.294 50.6179 130.353 49.2066L140.941 37.5629L130.706 27.6834C129.294 26.272 129.294 24.1554 130.706 22.744C132.118 21.3327 134.235 21.3327 135.647 22.744L148.706 34.7401C150.118 36.1514 150.118 38.2689 149.059 39.6802L136 53.7936C134.941 54.8521 133.882 55.2046 133.176 55.2046Z" fill="#4C4B4C"></path><path d="M156.117 172.349H13.8822C6.47042 172.349 0.470459 166.35 0.470459 158.94V108.131C0.470459 100.721 6.47042 94.7227 13.8822 94.7227H156.117C163.529 94.7227 169.529 100.721 169.529 108.131V158.94C169.882 166.35 163.529 172.349 156.117 172.349ZM13.8822 101.427C10.3528 101.427 7.52928 104.249 7.52928 107.778V158.588C7.52928 162.116 10.3528 164.939 13.8822 164.939H156.117C159.647 164.939 162.47 162.116 162.47 158.588V107.778C162.47 104.249 159.647 101.427 156.117 101.427H13.8822Z" fill="black"></path></svg> 