<?xml version="1.0" encoding="UTF-8"?> <svg xmlns="http://www.w3.org/2000/svg" width="419" height="228" viewBox="0 0 419 228" fill="none"><path d="M320.529 226.134H48.0586C24.0586 226.134 4.29395 206.728 4.29395 182.382C4.29395 158.388 23.7057 138.629 48.0586 138.629H320.529C344.529 138.629 364.294 158.035 364.294 182.382C363.941 206.728 344.529 226.134 320.529 226.134Z" fill="#999899"></path><path d="M320.529 227.898H48.0587C22.9999 227.898 2.5293 207.433 2.5293 182.381C2.5293 157.329 22.9999 136.864 48.0587 136.864H320.529C345.588 136.864 366.059 157.329 366.059 182.381C366.059 207.433 345.588 227.898 320.529 227.898ZM48.0587 140.393C24.7646 140.393 6.05871 159.093 6.05871 182.381C6.05871 205.669 24.7646 224.37 48.0587 224.37H320.529C343.823 224.37 362.529 205.669 362.529 182.381C362.529 159.093 343.823 140.393 320.529 140.393H48.0587Z" fill="#999899"></path><path d="M391.471 58.8854C391.471 57.8268 392.177 57.1211 393.235 57.1211C393.235 57.1211 393.941 57.121 395.353 57.4739C396.412 57.4739 397.118 58.5324 396.765 59.5909C396.765 60.6495 395.706 61.3553 394.647 61.0025C393.941 61.0025 393.235 61.0025 393.235 61.0025C392.177 60.2967 391.471 59.5911 391.471 58.8854Z" fill="black"></path><path d="M402.765 63.1199C402.765 62.7671 402.765 62.4146 403.118 62.0618C403.824 61.3563 404.882 61.0031 405.588 61.7087C406.647 62.4142 407.353 63.4728 408.412 64.1784C409.118 64.8839 409.118 65.9421 408.412 66.6476C407.706 67.3531 406.647 67.3531 405.941 66.6476C405.235 65.9421 404.529 65.2366 403.47 64.531C403.118 64.1783 402.765 63.4726 402.765 63.1199Z" fill="black"></path><path d="M393.941 139.687C393.941 138.982 394.294 138.276 395 137.923C396.059 137.57 397.118 136.865 397.824 136.159C398.53 135.806 399.588 135.806 400.294 136.864C400.647 137.57 400.647 138.628 399.588 139.334C398.53 140.04 397.471 140.746 396.412 141.098C395.706 141.451 394.647 141.099 393.941 140.393C394.294 140.04 393.941 139.687 393.941 139.687ZM404.883 131.219C404.883 130.866 404.883 130.16 405.235 129.807C405.941 129.102 406.647 128.043 407.353 126.984C408.059 126.279 409.118 125.926 409.824 126.632C410.53 127.337 410.883 128.396 410.177 129.102C409.471 130.16 408.765 131.219 408.059 131.924C407.353 132.63 406.294 132.63 405.588 132.277C405.235 131.924 404.883 131.572 404.883 131.219ZM411.588 118.869C411.588 118.516 411.588 118.516 411.588 118.163C411.941 117.105 412.294 116.046 412.647 114.988C413 113.929 413.706 113.576 414.765 113.576C415.824 113.929 416.177 114.635 416.177 115.693C415.824 116.752 415.471 118.163 415.118 119.222C414.765 120.28 413.706 120.633 413 120.281C412.294 120.281 411.588 119.575 411.588 118.869ZM410.883 74.4103C410.883 73.7046 411.236 72.9989 411.941 72.646C413 72.2932 413.706 72.6458 414.412 73.7043C414.765 74.7629 415.471 75.8214 415.824 77.2328C416.177 78.2914 415.471 78.997 414.765 79.3498C413.706 79.7027 413 78.9972 412.647 78.2915C412.294 77.233 411.941 76.1743 411.588 75.1158C410.883 74.763 410.883 74.4103 410.883 74.4103ZM414.412 105.108C414.412 104.402 414.412 103.697 414.412 102.991V101.227C414.412 100.168 415.118 99.4625 416.177 99.4625C417.235 99.4625 417.941 100.521 417.941 101.227V102.991C417.941 103.697 417.941 104.049 417.941 104.755C417.941 105.814 416.883 106.519 416.177 106.519C415.118 106.872 414.412 106.167 414.412 105.108ZM414.412 87.8183C414.412 86.7597 415.118 86.054 415.824 86.054C416.883 86.054 417.588 86.7598 417.941 87.4655C417.941 88.1712 417.941 88.8767 418.294 89.9353V90.994C418.294 92.0525 417.588 92.7582 416.53 92.7582C415.471 92.7582 414.765 92.0525 414.765 90.994V89.9353C414.412 89.2296 414.412 88.524 414.412 87.8183Z" fill="black"></path><path d="M382.294 143.215C382.294 142.156 383 141.451 383.706 141.451C384.412 141.451 384.765 141.45 385.471 141.098C386.529 140.745 387.235 141.451 387.588 142.509C387.941 143.567 387.235 144.273 386.176 144.626C385.471 144.626 385.118 144.979 384.412 144.979C383.353 144.979 382.647 144.273 382.294 143.215Z" fill="black"></path><path d="M387.235 130.865L367.471 142.862L387.588 154.154L387.235 130.865Z" fill="black"></path><path d="M67.4709 178.5H71.7061C72.059 178.5 72.412 178.5 72.412 179.206C72.412 179.911 71.7061 179.911 71.7061 179.911H67.4709V180.264C68.5297 182.028 69.5885 184.145 71.3532 186.262C71.7062 186.615 71.7061 186.615 71.7061 186.968C71.7061 187.321 71.3532 187.674 71.0003 187.674C70.6473 187.674 70.6473 187.321 70.2944 186.968C69.2355 185.557 68.5297 184.145 67.4709 182.734V196.495C67.4709 196.848 67.4708 197.201 66.7649 197.201C66.0591 197.201 66.0591 196.848 66.0591 196.495V183.087C64.6474 186.262 62.8826 188.732 62.1768 189.791C61.4709 190.85 61.1179 190.85 60.765 190.85C60.0591 190.85 60.0591 190.144 60.0591 189.791C60.0591 189.438 60.0591 189.438 60.412 189.085C63.5885 185.557 64.6473 182.734 65.7062 179.911H60.765C60.4121 179.911 60.0591 179.911 60.0591 179.206C60.0591 178.5 60.765 178.5 60.765 178.5H65.7062V173.913C64.2944 174.266 62.1767 174.266 61.1179 174.266C60.412 174.266 60.412 173.913 60.412 173.56C60.412 172.854 60.7649 172.854 61.1179 172.854C63.9414 172.854 66.0591 172.501 68.8826 171.796C69.2356 171.796 70.6473 171.09 71.0003 171.09C71.3532 171.09 71.7061 171.443 71.7061 171.796C71.7061 172.149 71.7062 172.501 71.0003 172.501C70.2944 172.854 69.2356 173.207 67.4709 173.56V178.5V178.5ZM83.7062 192.614C82.6474 189.085 81.5884 187.321 80.5296 184.498C80.5296 184.145 80.1768 184.146 80.1768 183.793C80.1768 183.44 80.5297 183.087 81.2355 183.087C81.5885 183.087 81.9414 183.087 82.6473 184.851C84.7649 189.438 86.5297 195.437 86.5297 196.142C86.5297 196.848 85.8238 196.848 85.4709 196.848C85.1179 196.848 84.765 196.495 84.765 196.495C84.765 196.142 84.059 194.025 84.059 193.672C80.8826 194.025 77.7062 194.378 74.8827 195.084C74.5297 195.084 70.6473 195.436 70.6473 195.436C69.9414 195.436 69.9414 194.731 69.9414 194.731C69.9414 194.025 70.2944 194.025 72.0591 193.672C73.4708 189.438 73.8238 187.674 74.8827 182.734C75.9415 177.088 76.2944 174.971 76.6474 171.796C76.6474 171.443 77.0002 171.09 77.3532 171.09C77.3532 171.09 78.0591 171.09 78.0591 171.796C78.0591 172.854 75.5884 186.615 73.4708 193.672C77.0002 193.319 80.8826 192.614 83.7062 192.614Z" fill="black"></path><path d="M66.7646 198.259C66.4117 198.259 64.9999 198.259 64.9999 196.495V186.968C63.9411 188.732 63.2352 189.791 62.8822 190.144C62.1764 191.202 61.8235 191.555 60.7647 191.555C59.7059 191.555 59 190.497 59 189.791C59 189.085 59.3529 188.732 59.7058 188.379C62.5293 185.557 63.5881 182.734 64.6469 180.617H61.1176C59.7058 180.617 59.3529 179.911 59.3529 179.205C59.3529 178.5 59.7058 177.441 61.1176 177.441H64.9999V174.618C63.9411 174.618 62.1764 174.971 61.1176 174.971C60.0587 174.971 59.3529 174.266 59.3529 173.207C59.3529 172.501 59.7059 171.796 60.7647 171.796C63.5882 171.796 65.3528 171.443 68.5293 170.737C68.5293 170.737 68.8823 170.737 69.2352 170.384C70.294 170.031 70.647 170.031 70.647 170.031C71.3528 170.031 72.0587 170.737 72.0587 171.796C72.0587 172.501 71.7058 172.854 70.9999 173.207C70.294 173.56 69.2352 173.913 67.8235 173.913V177.088H70.9999C72.4117 177.088 72.7646 177.794 72.7646 178.853C72.7646 179.558 72.4117 180.617 70.9999 180.617H68.1763C68.8822 182.028 70.294 183.793 71.7057 185.557C72.0587 185.91 72.0587 186.262 72.0587 186.615C72.0587 187.674 71.3528 188.379 70.294 188.379C69.5881 188.379 69.2352 187.674 68.8823 187.321C68.5293 186.968 68.1764 186.263 67.8235 185.557V196.142C68.5294 197.554 67.4705 198.259 66.7646 198.259ZM66.0588 182.028C66.4117 182.028 66.4117 182.028 66.7646 182.381C66.7646 182.028 67.1176 182.028 67.4705 181.675C67.1176 181.322 67.1175 180.97 66.7646 180.264C66.7646 180.264 66.7646 180.264 66.7646 179.911C66.4117 180.969 66.4117 181.323 66.0588 182.028ZM66.4116 179.205C66.7646 179.205 66.7646 179.205 66.4116 179.205C66.7646 179.205 66.7646 179.558 66.4116 179.205C66.7646 179.558 66.7646 179.205 67.1176 179.205C67.1176 178.853 66.7646 178.853 66.4116 179.205C66.7646 179.205 66.7646 178.853 66.4116 179.205ZM85.4705 197.907C85.1175 197.907 84.4116 197.906 84.0586 196.848C84.0586 196.495 83.7058 195.789 83.7058 195.084V194.731C80.8822 195.084 78.0586 195.436 75.2351 195.789L70.9999 196.142C69.9411 196.142 69.2352 195.084 69.2352 194.378C69.2352 192.967 69.941 192.967 71.7057 192.614C72.7646 188.732 73.4705 186.968 74.1764 182.381C75.2352 177.088 75.5881 174.971 75.9411 171.796V171.443C75.9411 170.032 76.9999 169.679 77.7057 169.679C78.7646 169.679 79.4704 170.384 79.4704 171.443C79.4704 172.854 77.3528 184.851 75.2351 192.261C77.7057 191.908 80.5292 191.555 82.6469 191.555H82.9998C81.941 188.379 81.2352 186.968 80.1764 184.498C80.1764 184.145 79.8234 183.792 79.8234 183.439C79.8234 182.734 80.5293 182.028 81.5881 182.028C82.6469 182.028 82.9999 182.734 83.7058 184.145C85.8234 188.38 87.588 194.731 87.588 195.789C87.2351 197.2 86.1763 197.907 85.4705 197.907ZM72.7646 194.025C72.7646 194.378 72.4117 194.378 72.4117 194.731C72.7646 194.731 72.7646 194.731 73.1176 194.731C73.1176 194.378 72.7646 194.378 72.7646 194.025ZM84.4116 192.967C84.4116 192.614 84.4116 192.967 84.4116 192.967V192.967Z" fill="black"></path><path d="M96.7647 193.319C96.0588 195.083 96.0589 195.083 95.353 195.083C95 195.083 94.647 194.731 94.647 194.378C94.647 194.025 95 192.967 95.353 192.614C98.5294 185.91 99.9412 180.264 100.294 178.147C98.8824 178.147 97.8236 178.147 96.0589 178.147C95.0001 178.147 94.2942 178.147 94.2942 177.441C94.2942 176.736 95 176.736 95 176.736C98.5294 176.736 98.8824 176.736 100.294 176.736C100.294 176.03 101 172.854 101 172.501C101 172.149 101.353 171.796 101.706 171.796C102.059 171.796 102.765 171.796 102.765 172.501C102.765 173.207 102.059 176.736 101.706 176.736C103.824 176.383 105.588 176.383 107.706 175.677C108.412 175.677 108.412 175.324 108.765 175.324C109.471 175.324 109.471 175.677 109.471 176.03C109.471 176.736 108.765 176.736 108.412 176.736C105.941 177.441 103.824 177.441 101.353 177.794C101 182.028 99.2353 187.674 96.7647 193.319ZM105.235 187.321C105.588 187.321 105.941 187.674 105.941 188.027C105.941 188.379 105.941 188.732 105.235 189.085C104.882 189.438 104.176 190.497 104.176 191.202C104.176 192.614 105.235 192.967 105.588 192.967C107.353 193.672 109.824 193.672 110.882 193.672C111.941 193.672 113.353 193.672 115.118 193.319C115.471 193.319 116.176 193.319 116.176 193.319C116.529 193.319 116.882 193.672 116.882 194.025C116.882 194.378 116.529 194.731 116.176 194.731C115.471 194.731 113 195.083 110.882 195.083C107 195.083 102.059 194.731 102.059 191.202C103.118 189.438 104.882 187.321 105.235 187.321ZM107.353 180.264C108.412 180.264 110.529 179.911 112.294 179.911C114.412 179.911 116.176 179.911 116.529 180.264C116.882 180.264 117.235 180.617 117.235 180.97C117.235 180.97 117.235 181.675 116.529 181.675C116.529 181.675 115.824 181.675 115.471 181.675C114.765 181.675 113.353 181.675 111.941 181.675C109.824 181.675 109.471 181.676 107.706 182.028C107.353 182.028 107 182.028 106.647 182.028C105.941 182.028 105.941 181.323 105.941 181.323C105.941 180.264 106.647 180.264 107.353 180.264Z" fill="black"></path><path d="M111.588 196.496C109.117 196.496 102.059 196.496 102.059 191.556C102.059 189.439 104.176 186.616 105.235 186.616C106.294 186.616 107 187.321 107 188.027C107 188.733 106.647 189.086 106.294 189.791C105.941 190.144 105.588 190.85 105.588 191.203C105.588 191.556 105.941 191.908 106.294 192.261C107.706 192.967 110.176 192.967 111.235 192.967C112.294 192.967 114.059 192.967 115.47 192.614H115.823C116.176 192.614 116.529 192.614 116.529 192.614C117.588 192.614 118.294 193.32 118.294 194.379C118.294 195.084 117.941 195.79 116.882 196.143C116.529 196.143 113.706 196.496 111.588 196.496ZM95.3528 195.79C94.294 195.79 93.5881 195.084 93.5881 194.025C93.5881 193.673 93.5881 193.32 94.294 192.261V191.908C96.7646 186.263 98.1763 181.323 98.8822 178.853C97.8234 178.853 97.1175 178.853 95.7057 178.853C94.6469 178.853 93.2351 178.853 93.2351 177.089C93.2351 176.383 93.588 175.325 94.9998 175.325C97.8233 175.325 98.5293 175.325 99.5881 175.325C99.5881 174.972 99.588 174.619 99.941 174.266C100.294 173.207 100.294 172.149 100.294 171.796C100.647 170.738 101 170.385 102.059 170.385C103.117 170.385 103.823 171.09 103.823 172.149C103.823 172.502 103.47 174.266 103.118 175.677C104.529 175.677 105.941 175.325 107.706 174.972H108.059C108.412 174.972 108.764 174.972 108.764 174.972C109.823 174.972 110.529 175.678 110.529 176.736C110.529 177.795 109.47 178.148 109.117 178.5C106.647 179.206 104.882 179.206 102.412 179.559C101.706 182.734 99.941 188.38 97.4704 194.379C97.1175 195.437 96.7645 195.79 95.3528 195.79ZM101 177.442C101 177.795 101 177.795 101 177.442C101.353 177.442 101.706 177.089 102.059 177.089C102.059 177.089 102.059 177.089 102.059 176.736C101.353 177.089 101.353 177.442 101 177.442ZM106.647 182.734C105.588 182.734 105.235 182.029 105.235 181.323C105.235 179.912 106.647 179.559 107.353 179.559C108.412 179.559 110.529 179.206 112.647 179.206C114.412 179.206 116.529 179.206 116.882 179.559C117.941 179.912 117.941 180.617 117.941 180.97C117.941 182.029 117.235 182.734 116.176 182.734C115.823 182.734 115.117 182.734 115.117 182.734C114.412 182.734 113.353 182.734 111.941 182.734C109.823 182.734 109.47 182.734 107.706 183.087C107 182.734 107 182.734 106.647 182.734Z" fill="black"></path><path d="M132.059 185.91C135.588 183.793 139.118 182.735 141.941 182.735C146.882 182.735 149.353 185.557 149.353 188.733C149.353 189.791 149 192.967 145.471 194.379C143 195.437 140.529 195.79 138.059 195.79C137 195.79 134.882 195.79 132.765 195.437C132.059 195.437 131.353 195.437 131.353 194.731C131.353 194.378 131.706 194.025 132.059 194.025C132.412 194.025 132.412 194.025 132.765 194.025C134.882 194.378 136.294 194.379 137.706 194.379C139.118 194.379 147.588 194.378 147.588 188.733C147.588 186.263 145.471 184.499 141.588 184.499C139.471 184.499 135.941 185.205 131.706 187.674C131 188.38 130.647 188.38 130.647 188.38C130.294 188.38 129.588 188.027 129.588 187.674C129.588 187.322 129.588 187.322 130.294 186.263C131.706 182.735 132.412 179.912 133.118 178.501C131.706 178.501 129.588 178.501 128.176 178.501C127.471 178.501 127.118 178.5 127.118 177.795C127.118 177.442 127.118 177.089 127.824 177.089C128.177 177.089 132.059 177.089 132.765 177.089H133.824C134.176 175.325 134.529 174.972 134.882 173.208C134.882 172.502 135.235 172.149 135.588 172.149C135.588 172.149 136.647 172.149 136.647 172.855C136.647 173.561 135.588 177.089 135.588 177.089C140.176 177.089 143.353 176.383 144.765 176.031C145.471 176.031 147.941 175.325 148.294 175.325C149 175.325 149 176.031 149 176.031C149 176.736 148.647 176.736 146.529 177.089C145.471 177.089 140.529 178.148 135.235 178.148C133.471 182.382 132.765 183.793 132.059 185.91Z" fill="black"></path><path d="M138.059 196.849C136.647 196.849 134.882 196.849 132.765 196.496C132.059 196.496 130.647 196.144 130.647 194.732C130.647 194.026 131.353 192.968 132.412 192.968C132.765 192.968 132.765 192.968 133.47 192.968C135.588 193.321 137 193.321 138.412 193.321C141.588 193.321 147.235 192.615 147.235 188.733C147.235 186.616 145.118 185.205 142.294 185.205C140.529 185.205 137 185.558 133.118 188.381C132.059 189.086 132.059 189.087 131.353 189.087C130.647 189.087 129.588 188.381 129.588 187.322C129.588 186.97 129.588 186.969 129.941 185.911V185.558C131 183.088 131.706 180.618 132.059 179.207C130.647 179.207 129.235 179.207 128.176 179.207C127.471 179.207 126.059 179.207 126.059 177.442C126.059 176.384 126.765 175.678 127.824 175.678C127.824 175.678 128.529 175.678 129.235 175.678C130.647 175.678 132.412 175.678 132.765 175.678H133.118C133.471 174.267 133.471 173.914 133.823 172.503C133.823 171.797 134.176 170.738 135.588 170.738C136.294 170.738 137.353 171.091 137.353 172.503C137.353 172.855 137 173.914 136.647 176.031C140.529 175.678 143.353 175.325 144.412 175.325H144.765C147.941 174.62 147.941 174.62 147.941 174.62C149 174.62 149.706 175.325 149.706 176.384C149.706 177.795 148.647 178.148 146.529 178.501C142.647 179.207 139.118 179.559 135.941 179.559C135.235 182.029 134.529 183.441 134.176 184.499C137 183.088 139.823 182.382 142.294 182.382C147.941 182.382 150.765 185.911 150.765 189.087C150.765 190.498 150.412 193.673 146.176 195.79C143.706 196.496 141.235 196.849 138.059 196.849ZM131.353 186.616C131 187.322 131 187.322 131 187.675C131 187.675 131.353 187.322 131.706 187.322C131.706 186.97 131.706 186.969 131.353 186.616ZM133.823 177.442C133.823 177.795 133.823 177.795 133.823 177.442C134.176 177.442 134.529 177.09 134.882 177.09C134.882 177.09 134.882 177.09 134.882 176.737C134.529 177.09 134.176 177.442 133.823 177.442Z" fill="black"></path><path d="M162.412 173.559C162.412 173.207 162.764 172.854 163.117 172.854C163.47 172.854 163.823 172.854 163.823 173.559C163.823 173.912 163.823 174.265 163.823 174.265C162.764 178.146 162.412 182.028 162.412 185.91C162.412 187.674 162.412 190.497 163.117 192.967C163.117 192.967 163.47 194.378 163.47 194.731C163.47 195.084 163.117 195.437 162.764 195.437C162.059 195.437 162.059 195.084 162.059 194.731C161.706 194.025 161 190.85 161 185.557C161 181.675 161.706 175.324 162.412 173.559ZM170.529 185.557C170.882 185.557 171.235 185.909 171.235 186.262C171.235 186.615 171.235 186.615 170.882 186.968C170.529 187.674 169.47 188.38 169.47 189.438C169.47 191.555 171.588 192.261 176.176 192.261C177.588 192.261 179 192.261 180.412 191.908C180.765 191.908 182.176 191.555 182.176 191.555C182.176 191.555 183.235 191.555 183.235 192.261C183.235 192.614 183.235 192.967 182.529 192.967C181.823 193.32 179 193.319 176.529 193.319C172.647 193.319 168.059 192.967 168.059 189.085C168.059 187.674 169.823 185.557 170.529 185.557ZM181.117 177.088C181.117 177.088 177.588 177.088 176.882 177.088C174.412 177.088 172.647 177.088 171.588 177.441C171.235 177.441 170.176 177.441 169.823 177.441C169.117 177.441 169.117 176.735 169.117 176.735C169.117 176.382 169.117 176.029 169.823 176.029C170.176 176.029 174.059 175.677 176.176 175.677C176.882 175.677 180.764 175.676 181.117 176.029C181.47 176.029 181.47 176.382 181.47 176.735C182.176 176.735 181.823 177.088 181.117 177.088Z" fill="black"></path><path d="M162.765 196.495C162.059 196.495 161.353 196.142 161 195.084C161 194.731 159.941 191.555 159.941 185.557C159.941 181.676 161 174.971 161.353 173.207C161.706 172.149 162.412 172.148 163.117 172.148C163.823 172.148 164.882 172.854 164.882 173.913C164.882 174.266 164.882 174.619 164.882 174.971C163.823 178.853 163.47 182.381 163.47 186.262C163.47 188.732 163.823 191.202 164.176 192.967C164.176 192.967 164.529 194.378 164.529 194.731C164.529 195.789 163.823 196.495 162.765 196.495ZM176.882 194.731C174.059 194.731 167.353 194.731 167.353 189.438C167.353 187.321 169.117 184.498 170.529 184.498C171.235 184.498 172.294 185.204 172.294 185.91C172.294 186.262 172.294 186.615 171.941 186.968C171.588 187.674 170.882 188.38 170.882 189.085C170.882 189.791 170.882 190.85 176.882 190.85C178.294 190.85 179.706 190.849 180.765 190.496H181.117C181.823 190.496 182.529 190.496 182.529 190.496C183.588 190.496 184.294 191.202 184.294 192.261C184.294 192.966 183.941 193.672 183.235 194.025C182.176 194.731 179.353 194.731 176.882 194.731ZM170.176 178.147C169.117 178.147 168.412 177.441 168.412 176.382C168.412 175.324 169.117 174.971 169.823 174.618C170.529 174.618 174.059 174.265 176.176 174.265C180.764 174.265 181.47 174.618 181.47 174.618C181.823 174.618 182.529 174.971 182.529 176.03C182.529 177.088 181.823 177.794 180.765 177.794C180.765 177.794 180.412 177.794 180.059 177.794C179 177.794 176.882 177.794 176.529 177.794C174.412 177.794 173 177.794 171.588 178.147H170.882C170.882 178.147 170.176 178.147 170.176 178.147ZM181.117 176.382V177.088V176.382ZM181.117 176.382C181.117 176.03 181.117 176.03 181.117 176.382V176.382Z" fill="black"></path><path d="M199.823 176.031C201.588 175.678 204.411 174.973 206.882 174.973C213.588 174.973 216.411 179.207 216.411 183.794C216.411 191.909 208.647 193.321 206.882 193.673C203.706 194.379 200.529 194.379 200.529 194.379C200.176 194.379 199.47 194.379 199.47 193.321C199.47 192.615 200.176 192.615 200.529 192.615C201.941 192.615 203 192.615 204.411 192.615C206.176 192.262 215 191.557 215 183.794C215 181.324 213.588 176.737 207.235 176.737C204.764 176.737 201.588 177.443 196.647 178.854C196.294 178.854 193.823 179.559 193.47 179.559C192.764 179.559 192.764 178.854 192.764 178.501C192.764 177.795 193.47 177.795 193.823 177.442L199.823 176.031Z" fill="black"></path><path d="M200.176 195.084C198.412 195.084 198.059 194.025 198.059 193.32C198.059 192.967 198.059 191.556 200.176 191.556C201.235 191.556 202.647 191.556 203.706 191.556C207.941 191.203 213.235 189.439 213.235 183.793C213.235 182.382 212.882 177.795 206.176 177.795C203.706 177.795 200.529 178.5 195.941 179.912C195.941 179.912 193.117 180.97 192.764 180.97C191.706 180.97 191 180.265 191 179.206C191 177.795 192.412 177.442 192.764 177.442L199.47 175.678C201.941 174.972 204.411 174.619 206.529 174.619C213.588 174.619 217.117 179.559 217.117 184.146C217.117 189.791 213.588 193.673 206.882 195.084C203.706 195.084 200.529 195.084 200.176 195.084ZM200.882 193.32C200.529 193.32 199.823 193.32 199.823 193.32H200.176C200.176 193.32 200.529 193.32 200.882 193.32ZM215 186.616C214.294 188.38 213.235 190.144 211.117 191.203C212.882 190.144 214.294 188.733 215 186.616ZM195.235 178.148L193.117 178.501C193.117 178.501 192.764 178.501 192.764 178.853C193.117 178.853 194.529 178.148 195.235 178.148Z" fill="black"></path><path d="M228.764 174.618C228.764 175.323 228.412 176.029 228.412 176.735C228.059 179.205 228.059 180.969 228.059 182.028C228.059 189.084 230.176 193.318 232.294 193.318C233.706 193.318 235.47 190.143 236.176 187.673C236.529 186.614 236.529 186.262 237.235 186.262C237.588 186.262 237.941 186.614 237.941 186.967C237.941 187.32 235.47 195.083 231.941 195.083C229.47 195.083 226.294 190.849 226.294 182.028C226.294 178.499 226.647 175.323 227 174.618C227 174.265 227.353 173.912 227.706 173.912C228.059 173.912 228.764 173.912 228.764 174.618ZM247.117 180.263C248.176 183.086 249.235 186.262 249.235 189.437C249.235 190.143 249.235 190.849 248.176 190.849C247.47 190.849 247.47 190.143 247.47 189.437C247.47 188.026 247.117 182.733 243.941 178.146C243.235 177.087 242.882 176.735 242.882 176.735C242.882 176.382 243.235 176.029 243.588 176.029C245 175.676 246.764 179.205 247.117 180.263Z" fill="black"></path><path d="M231.941 196.142C228.764 196.142 225.235 191.202 225.235 182.028C225.235 178.5 225.588 175.324 225.941 174.618C226.294 173.207 227.353 173.207 227.706 173.207C228.764 173.207 229.47 173.913 229.47 174.971C229.47 175.324 229.47 176.03 229.117 176.735C229.117 177.088 229.117 177.088 229.117 177.441C228.764 179.205 228.764 180.969 228.764 182.734C228.764 189.79 230.882 192.966 231.941 192.966C232.294 192.966 233.706 191.907 235.117 188.026C235.47 186.968 235.823 186.262 236.882 186.262C237.941 186.262 238.647 186.968 238.647 187.673C239 187.673 236.529 196.142 231.941 196.142ZM230.882 193.671C231.588 194.377 232.294 194.377 233 194.024C232.647 194.024 232.294 194.024 232.294 194.024C231.588 194.024 231.235 194.024 230.882 193.671ZM228.058 174.618C227.706 174.618 227.706 174.618 228.058 174.618C228.058 174.971 228.058 175.324 227.706 176.029C227.706 176.029 227.706 176.03 227.706 175.677C227.706 175.324 227.706 174.971 228.058 174.618ZM248.176 191.555C246.764 191.555 246.411 190.143 246.411 189.438C246.058 185.203 245 181.322 243.235 178.5L242.882 177.794C242.529 177.088 242.176 176.735 242.176 176.382C242.176 175.324 242.882 174.618 243.941 174.618C245.706 174.618 247.823 178.852 248.176 179.911C249.588 182.733 250.294 186.262 250.294 189.438C249.941 191.202 248.882 191.555 248.176 191.555ZM247.823 184.85C248.176 185.909 248.176 186.615 248.176 187.673C248.176 186.968 247.823 185.909 247.823 184.85Z" fill="black"></path><path d="M259.118 176.735C258.765 176.735 258.412 176.735 258.412 176.735C257.706 176.735 257.706 176.382 257.706 175.677C257.706 174.971 258.059 174.971 258.412 174.971C258.412 174.971 261.235 174.618 261.588 174.618L280.647 173.207H281.706C282.059 173.207 282.412 173.207 282.412 174.265C282.412 174.971 282.059 174.971 280.647 175.324C274.647 176.03 267.588 180.264 267.588 186.262C267.588 190.143 270.412 192.613 275.353 193.672C277.118 194.024 277.118 194.025 277.118 194.73C277.118 194.73 277.118 195.789 276.059 195.789C275.353 195.789 272.882 195.083 271.118 194.378C269.706 193.672 265.471 191.555 265.471 186.262C265.471 181.322 269 177.441 275 174.971L259.118 176.735Z" fill="black"></path><path d="M275.706 196.495C274.647 196.495 272.176 195.789 270.412 195.084C265.47 192.967 264.412 189.085 264.412 186.262C264.412 182.381 266.529 179.205 270.412 176.382L259.47 177.441C259.118 177.441 258.765 177.441 258.412 177.441C257.353 177.441 256.647 176.735 256.647 175.677C256.647 175.324 256.647 174.266 257.706 173.913C258.059 173.913 261.235 173.56 261.235 173.56L279.941 172.148H281C282.412 172.148 282.765 173.207 282.765 173.913C282.765 175.324 281.706 175.677 279.941 175.677C273.941 176.383 267.941 180.617 267.941 185.557C267.941 189.085 270.059 191.202 275 192.261C276.765 192.614 277.471 192.966 277.471 194.025C277.823 195.436 277.118 196.495 275.706 196.495ZM272.882 194.025C273.941 194.378 275 194.731 275.706 194.731C275.353 194.731 275.353 194.731 275 194.731C273.941 194.378 273.235 194.378 272.882 194.025ZM258.412 176.03C258.412 176.03 258.765 176.03 259.118 176.03H260.882C260.176 175.677 259.118 176.03 258.412 176.03ZM275.706 174.618C275.706 174.971 276.059 174.971 275.706 174.618C275.706 174.971 275.706 174.971 275.706 175.324C277.118 174.971 278.176 174.618 279.588 174.265L275.706 174.618Z" fill="black"></path><path d="M313.117 200.023C312.411 200.023 311.353 199.67 310.647 198.965C309.235 197.553 309.235 195.436 310.294 194.025L320.882 182.381L310.647 172.501C309.235 171.09 309.235 168.973 310.647 167.561C312.059 166.15 314.176 166.15 315.588 167.561L328.647 179.558C330.058 180.97 330.058 183.087 329 184.498L315.941 198.612C314.882 199.671 313.823 200.023 313.117 200.023Z" fill="#4C4B4C"></path><path d="M320.529 94.876H48.0587C21.9411 94.876 0.764648 73.7051 0.764648 47.5945C0.764648 21.4839 21.9411 0.313477 48.0587 0.313477H320.529C346.647 0.313477 367.823 21.4839 367.823 47.5945C367.823 73.7051 346.294 94.876 320.529 94.876ZM48.0587 7.3704C25.8234 7.3704 7.82347 25.3652 7.82347 47.5945C7.82347 69.8238 25.8234 87.8191 48.0587 87.8191H320.529C342.764 87.8191 360.765 69.8238 360.765 47.5945C360.765 25.3652 342.764 7.3704 320.529 7.3704H48.0587Z" fill="#040000"></path><path d="M82.2942 52.8872L79.8237 59.5914C79.8237 59.9443 79.4707 60.2974 78.7648 60.2974C78.4119 60.2974 77.7061 59.9443 77.7061 59.5914C77.7061 59.2386 77.7061 59.2387 77.7061 58.8859L85.8236 38.4206C86.1765 38.0677 86.5296 37.3623 87.2354 37.3623C88.2943 37.3623 88.6472 38.0677 88.6472 38.4206L96.7647 58.8859C96.7647 59.2387 97.1177 59.2386 97.1177 59.5914C97.1177 59.9443 96.4118 60.2974 96.0589 60.2974C95.353 60.2974 95.353 59.9443 95.353 59.5914L92.8824 52.8872H82.2942ZM92.1766 51.123L87.5883 39.1265L83.0001 51.123H92.1766Z" fill="black"></path><path d="M96.0588 61.3564C95 61.3564 94.6471 60.2978 94.2941 59.9449L91.8235 53.9464H82.6469L80.1764 59.9449C80.1764 60.2978 79.4705 61.3564 78.4117 61.3564C77.3529 61.3564 76.647 60.6507 76.647 59.5921C76.647 59.2393 76.647 58.8866 76.647 58.8866V58.5338L84.7646 38.0675C85.4705 36.6561 86.1764 36.3032 87.2353 36.3032C88.2941 36.3032 88.9999 36.6561 89.7058 38.0675L97.8235 58.5338C97.8235 58.8867 98.1764 59.2393 98.1764 59.5921C98.1764 60.6507 97.1176 61.3564 96.0588 61.3564ZM92.5294 52.1821C93.2353 52.1821 93.5882 52.5348 93.5882 52.8876L96.0588 59.5921V59.9449V59.5921L89.3528 42.3017L92.8823 51.4765C93.2352 51.1237 92.8823 51.4764 92.5294 52.1821C92.5294 51.8292 92.8823 51.8292 92.5294 52.1821ZM86.1764 40.8906L78.7645 59.2394C78.7645 59.5922 78.7645 59.5921 78.7645 59.5921C78.7645 59.5921 78.7646 59.5922 79.1175 59.2394L81.5881 52.5349C81.5881 52.182 81.941 51.8293 82.294 51.8293H82.6469C82.6469 51.8293 82.294 51.8294 82.294 51.4765C82.294 51.1237 81.941 50.7705 82.294 50.7705L86.1764 40.8906ZM84.0587 50.4178H90.7647L87.5881 41.949L84.0587 50.4178ZM87.5881 38.0675C87.2352 38.0675 87.2352 38.0674 86.8823 38.7731V39.1263C86.8823 38.7734 87.2352 38.4204 87.5881 38.0675C87.9411 38.4204 88.294 38.4202 88.294 38.7731V38.4203C87.9411 38.4203 87.9411 38.0675 87.5881 38.0675Z" fill="black"></path><path d="M107.706 59.9434C105.236 59.9434 105.236 58.1794 105.236 57.1209V40.5373C105.236 39.4788 105.236 37.7148 107.706 37.7148H111.942C114.059 37.7148 119.353 37.7148 119.353 43.0074C119.353 46.5358 117.236 47.5943 115.824 48.3C117.236 48.6528 120.059 49.7112 120.059 53.9453C120.059 59.9435 114.059 59.9434 112.295 59.9434H107.706ZM111.942 47.594C113.354 47.594 117.236 47.5942 117.236 43.3602C117.236 39.4789 114.059 39.479 111.589 39.479H108.059C107.354 39.479 107.001 39.8316 107.001 40.5373V47.594H111.942ZM107.001 57.1209C107.001 58.1794 107.354 58.1792 108.059 58.1792H111.589C113.706 58.1792 117.942 58.1793 117.942 53.9453C117.942 49.3584 113.706 49.3582 111.942 49.3582H107.001V57.1209V57.1209Z" fill="black"></path><path d="M111.941 60.6504H107.706C105.588 60.6504 104.177 59.239 104.177 57.1219V40.5378C104.177 38.0678 105.235 37.0093 107.706 37.0093H111.941C114.059 37.0093 120.059 37.0094 120.059 43.3607C120.059 46.1835 119 47.595 117.588 48.3007C119 49.0064 120.765 50.7705 120.765 53.9462C120.765 58.5332 117.941 60.6504 111.941 60.6504ZM107 38.7735C105.941 38.7735 105.941 39.4792 105.941 40.5378V57.1219C105.941 58.1805 106.294 58.8861 107 58.8861C106.294 58.5333 105.941 58.1805 105.941 57.1219V49.359C105.941 49.0061 106.294 48.6535 106.294 48.6535C105.941 48.6535 105.941 48.3008 105.941 47.9479V40.891C105.941 39.4796 106.294 39.1264 107 38.7735ZM118.294 51.4764C118.647 52.1821 118.647 52.8876 118.647 53.9462C118.647 55.7104 118.294 56.769 117.588 57.4747C118.294 56.769 119 55.7104 119 53.9462C119 52.8876 118.647 52.1821 118.294 51.4764ZM107.706 57.4747C108.059 57.4747 108.059 57.4747 107.706 57.4747H111.588C114.412 57.4747 116.882 57.1218 116.882 53.9462C116.882 50.4177 114.412 50.0649 111.588 50.0649H107.353L107.706 57.4747C107.706 57.1218 107.706 57.1218 107.706 57.4747ZM113.353 48.3007C114.059 48.3007 114.412 48.3006 114.765 48.6535C114.765 48.6535 114.765 48.6535 114.765 48.3007V47.9479C114.412 48.3008 114.059 48.3007 113.353 48.3007ZM107.706 46.5364H111.588C114.765 46.5364 116.177 45.4778 116.177 43.3607C116.177 40.5379 114.412 40.185 111.235 40.185H107.706H107.353C107.353 40.185 107.353 40.1849 107.353 40.5378V46.5364H107.706ZM116.53 39.4795C117.588 40.1852 118.294 41.2436 118.294 43.3607C118.294 43.7136 118.294 44.0665 118.294 44.7722C118.294 44.4194 118.647 43.7136 118.647 43.3607C118.294 41.2436 117.588 40.1852 116.53 39.4795Z" fill="black"></path><path d="M138.764 37.3633C145.117 37.3633 150.058 42.3029 150.058 49.0071C150.058 55.7113 145.117 60.6514 138.764 60.6514C132.411 60.6514 127.47 55.7113 127.47 49.0071C127.47 42.3029 132.411 37.3633 138.764 37.3633ZM138.764 58.5343C144.411 58.5343 148.294 54.3 148.294 48.6543C148.294 43.0087 144.058 38.7743 138.764 38.7743C133.47 38.7743 129.235 43.0087 129.235 48.6543C129.235 54.3 133.47 58.5343 138.764 58.5343Z" fill="black"></path><path d="M138.764 61.3564C131.705 61.3564 126.411 56.0638 126.411 49.0068C126.411 41.9499 131.705 36.6572 138.764 36.6572C145.823 36.6572 151.117 41.9499 151.117 49.0068C151.117 56.0638 145.823 61.3564 138.764 61.3564ZM143.352 39.1274C146.882 40.8916 149 44.4199 149 48.6541C149 52.8882 146.529 56.4165 143.352 58.1807C146.882 56.4165 149.352 52.8882 149.352 48.6541C149.352 44.4199 147.235 40.8916 143.352 39.1274ZM134.176 39.1274C130.646 40.8916 128.176 44.4199 128.176 48.6541C128.176 52.8882 130.646 56.7694 134.176 58.1807C130.646 56.4165 128.529 52.8882 128.529 48.6541C128.529 44.4199 130.646 40.8916 134.176 39.1274ZM138.764 39.8329C133.823 39.8329 129.941 43.7142 129.941 48.6541C129.941 53.5939 133.823 57.4752 138.764 57.4752C143.705 57.4752 147.588 53.5939 147.588 48.6541C147.588 43.7142 143.705 39.8329 138.764 39.8329Z" fill="black"></path><path d="M158.882 38.4215C158.882 37.7159 159.588 37.3633 159.941 37.3633C160.647 37.3633 161 37.7159 161 38.4215V50.4182C161 53.9466 161.352 58.8864 168.411 58.8864C175.47 58.8864 175.823 53.9466 175.823 50.4182V38.4215C175.823 37.7159 176.529 37.3633 176.882 37.3633C177.588 37.3633 177.941 37.7159 177.941 38.4215V50.4182C177.941 53.5937 177.588 60.2979 168.764 60.2979C159.941 60.2979 159.588 53.5937 159.588 50.4182V38.4215H158.882Z" fill="black"></path><path d="M168.058 61.3564C158.176 61.3564 158.176 53.5939 158.176 50.4183V38.4215C158.176 37.3629 159.235 36.6572 159.941 36.6572C161 36.6572 161.705 37.3629 161.705 38.4215V50.4183C161.705 54.2996 162.058 57.828 168.058 57.828C174.059 57.828 174.411 54.2996 174.411 50.4183V38.4215C174.411 37.3629 175.47 36.6572 176.176 36.6572C177.235 36.6572 177.941 37.3629 177.941 38.4215V50.4183C178.294 53.2411 178.294 61.3564 168.058 61.3564ZM159.941 38.4215V50.4183C159.941 53.5939 160.294 56.7694 163.117 58.1807C159.941 56.0637 159.941 52.1826 159.941 50.0655V38.4215ZM176.529 38.4215V50.4183C176.529 52.5354 176.529 56.0637 173.706 58.1807C176.529 56.0637 176.529 52.5354 176.529 50.4183V38.4215Z" fill="black"></path><path d="M194.883 59.2386C194.883 59.9443 194.177 60.2974 193.824 60.2974C193.118 60.2974 192.765 59.9443 192.765 59.2386V39.1263H185.706C185 39.1263 185 38.7732 185 38.4204C185 38.0675 185.353 37.7148 185.706 37.7148H201.588C202.294 37.7148 202.294 38.4204 202.294 38.4204C202.294 38.7732 201.941 39.1263 201.588 39.1263H194.53V59.2386H194.883Z" fill="black"></path><path d="M193.823 61.3564C192.764 61.3564 192.059 60.6507 192.059 59.5922V40.5378H185.706C184.647 40.5378 183.941 39.4793 183.941 38.7736C183.941 37.715 184.647 37.0093 185.706 37.0093H201.588C202.647 37.0093 203.353 38.0678 203.353 38.7736C203.353 39.8321 202.647 40.5378 201.588 40.5378H195.235V59.5922C195.588 60.6507 194.882 61.3564 193.823 61.3564ZM193.47 38.7736C193.823 38.7736 194.176 39.1267 194.176 39.4795V59.5922V39.4795C194.176 39.1267 194.529 38.7736 194.882 38.7736H193.47Z" fill="black"></path><path d="M224.529 38.4215C224.529 37.7159 225.235 37.3633 225.588 37.3633C226.293 37.3633 226.646 37.7159 226.646 38.4215V50.4182C226.646 53.9466 226.999 58.8864 234.058 58.8864C241.117 58.8864 241.47 53.9466 241.47 50.4182V38.4215C241.47 37.7159 242.176 37.3633 242.529 37.3633C243.235 37.3633 243.588 37.7159 243.588 38.4215V50.4182C243.588 53.5937 243.235 60.2979 234.411 60.2979C225.588 60.2979 225.235 53.5937 225.235 50.4182V38.4215H224.529Z" fill="black"></path><path d="M233.706 61.3564C223.823 61.3564 223.823 53.5939 223.823 50.4183V38.4215C223.823 37.3629 224.882 36.6572 225.588 36.6572C226.647 36.6572 227.353 37.3629 227.353 38.4215V50.4183C227.353 54.2996 227.706 57.828 233.706 57.828C239.706 57.828 240.059 54.2996 240.059 50.4183V38.4215C240.059 37.3629 241.117 36.6572 241.823 36.6572C242.882 36.6572 243.588 37.3629 243.588 38.4215V50.4183C243.588 53.2411 243.588 61.3564 233.706 61.3564ZM225.235 38.4215V50.4183C225.235 53.5939 225.588 56.7694 228.412 58.1807C225.235 56.0637 225.235 52.1826 225.235 50.0655V38.4215ZM241.823 38.4215V50.4183C241.823 52.5354 241.823 56.0637 239 58.1807C241.823 56.0637 241.823 52.5354 241.823 50.4183V38.4215Z" fill="black"></path><path d="M252.764 57.8272C254.176 58.5329 255.587 58.8859 256.999 58.8859C259.47 58.8859 262.646 57.8272 262.646 54.2987C262.646 51.1231 260.176 50.4173 257.705 49.3588C255.235 48.3002 251.705 47.2418 251.705 43.3605C251.705 40.1849 254.176 37.3623 258.058 37.3623C259.47 37.3623 260.882 37.7149 262.293 38.4206C262.646 38.4206 262.999 38.7737 262.999 39.1265C262.999 39.4794 262.646 39.8321 262.293 39.8321C262.293 39.8321 261.94 39.8321 261.235 39.4793C260.529 39.1265 259.47 38.7733 258.058 38.7733C254.882 38.7733 253.47 40.8907 253.47 43.0078C253.47 45.8305 255.588 46.536 258.411 47.5945C261.235 48.6531 264.411 49.7118 264.411 53.9459C264.411 58.1801 260.882 60.2974 256.999 60.2974C254.176 60.2974 252.411 59.5915 252.058 59.2386C251.705 58.8858 251.352 58.8856 251.352 58.1799C251.352 57.8271 251.705 57.4744 252.058 57.4744C251.705 57.4744 252.058 57.4743 252.764 57.8272Z" fill="black"></path><path d="M256.647 61.3564C253.823 61.3564 252.058 60.651 251.353 60.2981C251 59.9453 249.941 59.5924 249.941 58.5339C249.941 57.4753 250.647 56.7696 251.705 56.7696C252.058 56.7696 252.411 56.7695 252.764 57.1223H253.117C254.176 57.8281 255.588 57.8279 256.647 57.8279C257.705 57.8279 261.588 57.475 261.588 54.2993C261.588 51.8293 260.176 51.1237 257.352 50.418C254.529 49.3594 250.647 48.3008 250.647 43.7136C250.647 40.1851 253.117 37.0093 258.058 37.0093C259.47 37.0093 260.882 37.3623 262.647 38.068C263.352 38.4209 263.705 39.1266 263.705 39.8323C263.705 40.8909 263 41.5966 261.941 41.5966C261.588 41.5966 261.235 41.5967 260.529 41.2438C260.176 40.891 259.117 40.5378 257.705 40.5378C255.235 40.5378 253.823 42.3021 253.823 44.0664C253.823 46.1835 255.235 46.8893 258.058 47.595C260.882 48.6535 264.764 50.065 264.764 54.6521C265.117 58.1807 261.588 61.3564 256.647 61.3564ZM261.588 50.0652C262.647 50.7709 263.353 52.1823 263.353 53.9465C263.353 55.358 262.647 56.7694 261.941 57.4751C263 56.7694 263.353 55.358 263.353 53.9465C263.353 52.1823 262.647 51.1238 261.588 50.0652ZM254.176 39.4795C253.117 40.5381 252.411 41.9494 252.411 43.3609C252.411 45.1251 253.117 46.1837 254.529 46.8894C253.47 46.1837 252.411 45.1252 252.411 43.0081C252.764 41.9495 253.117 40.5381 254.176 39.4795ZM261.941 39.1268C261.941 39.1268 262.294 39.1268 261.941 39.1268L262.294 38.4208L261.941 39.1268Z" fill="black"></path><path d="M313.117 65.2363C312.411 65.2363 311.353 64.8837 310.647 64.1781C309.235 62.7667 309.235 60.6495 310.294 59.2382L320.882 47.5941L310.647 37.7147C309.235 36.3034 309.235 34.1862 310.647 32.7748C312.059 31.3635 314.176 31.3635 315.588 32.7748L328.647 44.7716C330.058 46.183 330.058 48.3002 329 49.7115L315.941 63.8253C314.882 64.8838 313.823 65.2363 313.117 65.2363Z" fill="#4C4B4C"></path></svg> 