<?xml version="1.0" encoding="UTF-8"?> <svg xmlns="http://www.w3.org/2000/svg" width="402" height="201" viewBox="0 0 402 201" fill="none"><path d="M402 189.681C402 196.149 396.449 201 390.044 201H217.956C211.124 201 206 195.744 206 189.681V136.319C206 129.851 211.551 125 217.956 125H390.044C396.876 125 402 130.256 402 136.319V189.681Z" fill="#999899"></path><path d="M197.941 64.2651C197.589 64.2651 197.589 64.2651 197.941 64.2651C196.883 64.2651 196.177 63.2066 196.177 62.501C196.177 62.501 196.177 61.7952 196.53 60.3839C196.883 59.3254 197.588 58.9727 198.647 58.9727C199.706 59.3255 200.059 60.0311 200.059 61.0896C199.706 61.7952 199.706 62.501 199.706 62.501C199.353 63.5595 198.647 64.2651 197.941 64.2651Z" fill="black"></path><path d="M202.883 53.3267C202.53 53.3267 202.177 53.3267 201.824 52.9739C201.118 52.2683 201.118 51.2097 201.824 50.5041C202.53 49.4456 203.589 48.7399 204.647 48.0343C205.353 47.3286 206.412 47.6816 207.118 48.3872C207.824 49.0929 207.471 50.1512 206.765 50.8568C206.059 51.5625 205 52.2683 204.294 52.9739C203.941 52.9739 203.589 53.3267 202.883 53.3267Z" fill="black"></path><path d="M278.412 67.7942C277.706 67.7942 277 67.4412 276.647 66.7355C276.294 65.6769 275.941 64.6185 275.235 63.56C274.883 62.8543 275.236 61.7957 275.941 61.09C276.647 60.7372 277.706 61.0901 278.412 61.7958C279.118 62.8543 279.471 63.9127 279.824 64.9712C280.177 66.0298 279.824 66.7356 278.765 67.0885C279.118 67.7941 278.765 67.7942 278.412 67.7942ZM271 56.5031C270.647 56.5031 269.941 56.5029 269.941 56.1501C269.235 55.4444 268.177 54.7388 267.471 54.0331C266.765 53.3274 266.412 52.2688 267.118 51.5631C267.824 50.8574 268.883 50.5047 269.588 51.2104C270.647 51.916 271.353 52.9746 272.412 53.6803C273.118 54.386 273.118 55.4444 272.412 56.1501C271.706 56.1501 271.353 56.5031 271 56.5031ZM259.353 48.7404C259 48.7404 259 48.7404 258.647 48.7404C257.588 48.3875 256.53 48.0347 255.471 47.6819C254.412 47.329 254.059 46.2704 254.412 45.5647C254.765 44.5061 255.824 44.1533 256.53 44.5062C257.588 44.859 259 45.212 260.059 45.9176C261.118 46.2705 261.471 47.3291 261.118 48.3876C260.412 48.3876 260.059 48.7404 259.353 48.7404ZM214.529 45.9176C213.824 45.9176 213.118 45.5648 212.765 44.8592C212.412 43.8006 213.118 43.0948 213.824 42.7419C214.882 42.3891 215.941 42.0363 217.353 41.6834C218.412 41.3306 219.118 42.0364 219.471 43.0949C219.824 44.1535 219.118 44.8591 218.059 45.2119C217 45.5648 215.941 45.9176 214.882 46.2704C215.235 45.9176 214.882 45.9176 214.529 45.9176ZM245.941 44.8592C245.588 44.8592 245.588 44.8592 245.941 44.8592C245.235 44.8592 244.53 44.5062 244.177 44.5062L242.412 44.1534C241.353 44.1534 240.647 43.0947 241 42.0362C241 40.9777 242.059 40.2721 243.118 40.6249L244.882 40.9777C245.588 40.9777 245.941 40.9778 246.647 41.3307C247.706 41.3307 248.412 42.3891 248.059 43.4477C247.353 44.5062 246.647 44.8592 245.941 44.8592ZM228.294 43.8004C227.235 43.8004 226.53 43.0947 226.53 42.0362C226.53 40.9777 227.235 40.272 228.294 40.272C229 40.272 230.059 40.272 230.765 40.272H231.824C232.883 40.272 233.588 40.9777 233.588 42.0362C233.588 43.0947 232.883 43.8004 231.824 43.8004H230.765C230.059 43.8004 229.353 43.8004 228.294 43.8004C228.294 43.8004 228.647 43.8004 228.294 43.8004Z" fill="black"></path><path d="M281.236 79.7905C280.177 79.7905 279.471 79.0848 279.471 78.0263C279.471 77.3206 279.471 76.9677 279.471 76.262C279.471 75.2035 280.177 74.4979 280.883 74.145C281.942 74.145 282.648 74.8506 283.001 75.5563C283.001 76.262 283.001 76.6148 283.001 77.3205C283.001 79.0848 282.295 79.7905 281.236 79.7905Z" fill="black"></path><path d="M269.235 74.145L279.471 94.9626L292.529 75.5563L269.235 74.145Z" fill="black"></path><path d="M166.529 64.2654C166.529 69.9109 161.941 74.145 156.647 74.145H14.0588C8.41176 74.145 4.17651 69.5581 4.17651 64.2654V13.4556C4.17651 7.81003 8.7647 3.57593 14.0588 3.57593H156.294C161.941 3.57593 166.176 8.16288 166.176 13.4556V64.2654H166.529Z" fill="#EFEBE1"></path><path d="M156.294 78.0261H14.0587C6.64693 78.0261 0.646973 72.0278 0.646973 64.6181V13.4556C0.646973 6.04592 6.64693 0.0476074 14.0587 0.0476074H156.294C163.706 0.0476074 169.706 6.04592 169.706 13.4556V64.2653C170.059 71.6751 164.059 78.0261 156.294 78.0261ZM14.0587 6.75152C10.5293 6.75152 7.7058 9.57445 7.7058 13.1029V63.9123C7.7058 67.4408 10.5293 70.2635 14.0587 70.2635H156.294C159.823 70.2635 162.647 67.4408 162.647 63.9123V13.4556C162.647 9.92721 159.823 7.10449 156.294 7.10449H14.0587V6.75152Z" fill="black"></path><path d="M383.941 178.94C383.941 184.586 379.353 188.82 374.059 188.82H231.823C226.176 188.82 221.941 184.233 221.941 178.94V128.13C221.941 122.485 226.529 118.251 231.823 118.251H374.059C379.706 118.251 383.941 122.838 383.941 128.13V178.94Z" fill="#EFEBE1"></path><path d="M374.059 192.701H231.823C224.412 192.701 218.412 186.703 218.412 179.293V128.483C218.412 121.074 224.412 115.075 231.823 115.075H374.059C381.47 115.075 387.47 121.074 387.47 128.483V179.293C387.47 186.35 381.47 192.701 374.059 192.701ZM231.823 121.426C228.294 121.426 225.47 124.249 225.47 127.778V178.587C225.47 182.116 228.294 184.938 231.823 184.938H374.059C377.588 184.938 380.412 182.116 380.412 178.587V127.778C380.412 124.249 377.588 121.426 374.059 121.426H231.823Z" fill="black"></path></svg> 