<?xml version="1.0" encoding="UTF-8"?> <svg xmlns="http://www.w3.org/2000/svg" width="398" height="226" viewBox="0 0 398 226" fill="none"><path d="M106.941 55.7856C106.235 55.7856 105.176 55.4335 104.47 54.7278C103.059 53.3164 103.059 51.1988 104.118 49.7875L114.706 38.1434L104.47 28.2645C103.059 26.8531 103.059 24.7355 104.47 23.3242C105.882 21.9128 108 21.9128 109.412 23.3242L122.47 35.3214C123.882 36.7328 123.882 38.8495 122.823 40.2608L109.765 54.3746C109.059 55.4331 108 55.7856 106.941 55.7856Z" fill="#4C4B4C"></path><path d="M193.059 88.9536C192 88.9536 191.294 87.8953 191.294 87.1898C191.294 87.1898 191.294 86.4839 191.647 85.0728C192 84.0145 192.706 83.6621 193.765 83.6621C194.824 84.0149 195.177 84.7199 195.177 85.7782C194.824 86.4837 194.824 87.1898 194.824 87.1898C194.824 88.2481 194.118 88.9536 193.059 88.9536Z" fill="black"></path><path d="M198.353 78.0156C198 78.0156 197.647 78.0161 197.294 77.6633C196.588 76.9577 196.588 75.8986 197.294 75.1929C198 74.1345 199.059 73.429 200.118 72.7234C200.824 72.0178 201.883 72.3709 202.588 73.0765C203.294 73.7822 202.941 74.8405 202.235 75.5461C201.53 76.2517 200.471 76.9577 199.765 77.6633C199.412 77.6633 198.706 78.0156 198.353 78.0156Z" fill="black"></path><path d="M273.883 92.835C273.177 92.835 272.471 92.4828 272.118 91.7771C271.765 90.7185 271.412 89.6595 270.706 88.6009C270.353 87.8952 270.706 86.8368 271.412 86.1311C272.118 85.7783 273.177 86.1309 273.883 86.8366C274.588 87.8952 274.941 88.9543 275.294 90.0128C275.647 91.0714 275.294 91.7766 274.236 92.1294C274.236 92.4823 274.235 92.835 273.883 92.835ZM266.118 81.1915C265.765 81.1915 265.059 81.1912 265.059 80.8383C264.353 80.1326 263.294 79.4266 262.588 78.7209C261.883 78.0152 261.53 76.9568 262.235 76.2511C262.941 75.5454 264 75.193 264.706 75.8987C265.765 76.6044 266.471 77.6628 267.53 78.3685C268.235 79.0742 268.235 80.1326 267.53 80.8383C267.177 80.8383 266.824 81.1915 266.118 81.1915ZM254.471 73.4281C254.118 73.4281 254.118 73.4281 253.765 73.4281C252.706 73.0752 251.647 72.7231 250.588 72.3702C249.53 72.0174 249.177 70.9585 249.53 70.2527C249.883 69.1942 250.941 68.8412 251.647 69.194C252.706 69.5469 254.118 69.9002 255.177 70.6059C256.235 70.9588 256.588 72.0172 256.235 73.0757C255.883 73.0757 255.177 73.4281 254.471 73.4281ZM210 70.6059C209.294 70.6059 208.588 70.2529 208.235 69.5472C207.883 68.4887 208.588 67.7826 209.294 67.4298C210.353 67.0769 211.412 66.7239 212.824 66.371C213.883 66.0182 214.588 66.7244 214.941 67.783C215.294 68.8415 214.588 69.5467 213.53 69.8996C212.471 70.2524 211.412 70.6054 210.353 70.9583C210.353 70.6054 210.353 70.6059 210 70.6059ZM241.059 69.5472C240.353 69.5472 239.647 69.194 239.294 69.194L237.53 68.8417C236.471 68.8417 235.765 67.7828 236.118 66.7242C236.118 65.6657 237.177 64.9603 238.235 65.3132L240 65.6655C240.706 65.6655 241.059 65.6658 241.765 66.0187C242.824 66.0187 243.53 67.0767 243.177 68.1353C242.824 69.1938 242.118 69.5472 241.059 69.5472ZM223.765 68.4885C222.706 68.4885 222 67.7828 222 66.7242C222 65.6657 222.706 64.96 223.765 64.96C224.471 64.96 225.53 64.96 226.235 64.96H227.294C228.353 64.96 229.059 65.6657 229.059 66.7242C229.059 67.7828 228.353 68.4885 227.294 68.4885H226.235C225.177 68.4885 224.471 68.4885 223.765 68.4885Z" fill="black"></path><path d="M276.353 104.832C275.294 104.832 274.588 104.126 274.588 103.068C274.588 102.362 274.588 102.009 274.588 101.303C274.588 100.245 275.294 99.5384 276 99.1855C277.059 99.1855 277.765 99.8918 278.118 100.598C278.118 101.303 278.118 101.656 278.118 102.362C278.471 103.774 277.412 104.479 276.353 104.832C276.353 104.832 276.706 104.832 276.353 104.832Z" fill="black"></path><path d="M264.706 98.834L274.941 119.652L288 100.245L264.706 98.834Z" fill="black"></path><path d="M156.353 78.3691H13.7645C6.35278 78.3691 0.352783 72.3706 0.352783 64.9608V14.1515C0.352783 6.74171 6.35278 0.743164 13.7645 0.743164H156C163.412 0.743164 169.412 6.74171 169.412 14.1515V64.9608C169.765 72.0178 163.765 78.3691 156.353 78.3691ZM13.7645 7.44688C10.2351 7.44688 7.41161 10.2698 7.41161 13.7983V64.6077C7.41161 68.1361 10.2351 70.959 13.7645 70.959H156C159.529 70.959 162.353 68.1361 162.353 64.6077V13.7983C162.353 10.2698 159.529 7.44688 156 7.44688H13.7645Z" fill="black"></path><path d="M361.059 202.923C360.353 202.923 359.294 202.57 358.588 201.865C357.176 200.453 357.176 198.336 358.235 196.924L368.823 185.281L358.588 175.401C357.176 173.99 357.176 171.872 358.588 170.461C360 169.049 362.118 169.049 363.529 170.461L376.588 182.458C378 183.87 378 185.986 376.941 187.398L363.882 201.511C362.823 202.57 361.765 202.923 361.059 202.923Z" fill="#4C4B4C"></path><path d="M384 225.151H241.765C234.353 225.151 228.353 219.153 228.353 211.744V160.934C228.353 153.524 234.353 147.525 241.765 147.525H384C391.412 147.525 397.412 153.524 397.412 160.934V211.744C397.765 219.153 391.765 225.151 384 225.151ZM241.765 154.23C238.235 154.23 235.412 157.053 235.412 160.581V211.39C235.412 214.919 238.235 217.742 241.765 217.742H384C387.529 217.742 390.353 214.919 390.353 211.39V160.581C390.353 157.053 387.529 154.23 384 154.23H241.765Z" fill="black"></path></svg> 