<?xml version="1.0" encoding="UTF-8"?> <svg xmlns="http://www.w3.org/2000/svg" width="402" height="205" viewBox="0 0 402 205" fill="none"><path d="M401.353 189.633C401.353 196.101 395.802 200.952 389.397 200.952H217.309C210.477 200.952 205.353 195.697 205.353 189.633V136.271C205.353 129.803 210.904 124.952 217.309 124.952H389.397C396.229 124.952 401.353 130.208 401.353 136.271V189.633Z" fill="#999899"></path><path d="M197.295 64.2173C196.942 64.2173 196.942 64.2173 197.295 64.2173C196.236 64.2173 195.53 63.1588 195.53 62.4531C195.53 62.4531 195.53 61.7473 195.883 60.336C196.236 59.2775 196.942 58.9248 198 58.9248C199.059 59.2776 199.412 59.9832 199.412 61.0417C199.059 61.7474 199.059 62.4531 199.059 62.4531C198.706 63.5116 198 64.2173 197.295 64.2173Z" fill="black"></path><path d="M202.236 53.2791C201.883 53.2791 201.53 53.2791 201.177 52.9263C200.471 52.2207 200.471 51.1621 201.177 50.4565C201.883 49.398 202.941 48.6923 204 47.9866C204.706 47.281 205.765 47.634 206.471 48.3396C207.177 49.0453 206.824 50.1036 206.118 50.8092C205.412 51.5149 204.353 52.2207 203.647 52.9263C203.294 52.9263 202.941 53.2791 202.236 53.2791Z" fill="black"></path><path d="M277.765 67.7466C277.059 67.7466 276.353 67.3936 276 66.6879C275.647 65.6293 275.294 64.5709 274.589 63.5124C274.236 62.8067 274.589 61.7481 275.294 61.0424C276 60.6896 277.059 61.0425 277.765 61.7481C278.471 62.8067 278.824 63.8651 279.177 64.9236C279.53 65.9822 279.177 66.688 278.118 67.0408C278.471 67.7465 278.118 67.7466 277.765 67.7466ZM270.353 56.4554C270 56.4554 269.294 56.4553 269.294 56.1025C268.589 55.3968 267.53 54.6912 266.824 53.9855C266.118 53.2798 265.765 52.2212 266.471 51.5155C267.177 50.8098 268.236 50.457 268.941 51.1627C270 51.8684 270.706 52.927 271.765 53.6327C272.471 54.3384 272.471 55.3968 271.765 56.1025C271.059 56.1025 270.706 56.4554 270.353 56.4554ZM258.706 48.6928C258.353 48.6928 258.353 48.6928 258 48.6928C256.941 48.3399 255.883 47.9871 254.824 47.6343C253.765 47.2814 253.412 46.2228 253.765 45.5171C254.118 44.4585 255.177 44.1057 255.883 44.4586C256.941 44.8114 258.353 45.1643 259.412 45.87C260.471 46.2229 260.824 47.2815 260.471 48.34C259.765 48.34 259.412 48.6928 258.706 48.6928ZM213.883 45.87C213.177 45.87 212.471 45.5172 212.118 44.8115C211.765 43.753 212.471 43.0472 213.177 42.6943C214.236 42.3415 215.294 41.9887 216.706 41.6358C217.765 41.283 218.471 41.9888 218.824 43.0473C219.177 44.1059 218.471 44.8115 217.412 45.1643C216.353 45.5172 215.294 45.87 214.235 46.2228C214.588 45.87 214.235 45.87 213.883 45.87ZM245.294 44.8115C244.941 44.8115 244.941 44.8115 245.294 44.8115C244.589 44.8115 243.883 44.4586 243.53 44.4586L241.765 44.1058C240.706 44.1058 240 43.0471 240.353 41.9886C240.353 40.9301 241.412 40.2245 242.471 40.5773L244.236 40.9301C244.941 40.9301 245.294 40.9302 246 41.2831C247.059 41.2831 247.765 42.3415 247.412 43.4001C246.706 44.4586 246 44.8115 245.294 44.8115ZM227.647 43.7528C226.588 43.7528 225.883 43.0471 225.883 41.9886C225.883 40.9301 226.588 40.2244 227.647 40.2244C228.353 40.2244 229.412 40.2244 230.118 40.2244H231.177C232.236 40.2244 232.941 40.9301 232.941 41.9886C232.941 43.0471 232.236 43.7528 231.177 43.7528H230.118C229.412 43.7528 228.706 43.7528 227.647 43.7528C227.647 43.7528 228 43.7528 227.647 43.7528Z" fill="black"></path><path d="M280.589 79.7432C279.53 79.7432 278.824 79.0375 278.824 77.9789C278.824 77.2732 278.824 76.9204 278.824 76.2147C278.824 75.1561 279.53 74.4505 280.236 74.0977C281.295 74.0977 282.001 74.8032 282.354 75.5089C282.354 76.2146 282.354 76.5675 282.354 77.2732C282.354 79.0374 281.648 79.7432 280.589 79.7432Z" fill="black"></path><path d="M268.589 74.0977L278.824 94.9153L291.883 75.5089L268.589 74.0977Z" fill="black"></path><path d="M165.882 64.2178C165.882 69.8633 161.294 74.0974 156 74.0974H13.4118C7.76479 74.0974 3.52954 69.5105 3.52954 64.2178V13.4079C3.52954 7.76242 8.11773 3.52832 13.4118 3.52832H155.647C161.294 3.52832 165.529 8.11527 165.529 13.4079V64.2178H165.882Z" fill="#EFEBE1"></path><path d="M155.647 77.9785H13.4117C5.99996 77.9785 0 71.9802 0 64.5705V13.408C0 5.99831 5.99996 0 13.4117 0H155.647C163.059 0 169.059 5.99831 169.059 13.408V64.2177C169.412 71.6274 163.412 77.9785 155.647 77.9785ZM13.4117 6.70391C9.88232 6.70391 7.05883 9.52684 7.05883 13.0553V63.8647C7.05883 67.3932 9.88232 70.2159 13.4117 70.2159H155.647C159.176 70.2159 162 67.3932 162 63.8647V13.408C162 9.8796 159.176 7.05689 155.647 7.05689H13.4117V6.70391Z" fill="black"></path><path d="M383.294 178.893C383.294 184.538 378.706 188.772 373.412 188.772H231.176C225.529 188.772 221.294 184.185 221.294 178.893V128.083C221.294 122.437 225.882 118.203 231.176 118.203H373.412C379.059 118.203 383.294 122.79 383.294 128.083V178.893Z" fill="#EFEBE1"></path><path d="M373.412 192.653H231.176C223.765 192.653 217.765 186.655 217.765 179.245V128.435C217.765 121.026 223.765 115.027 231.176 115.027H373.412C380.823 115.027 386.823 121.026 386.823 128.435V179.245C386.823 186.302 380.823 192.653 373.412 192.653ZM231.176 121.378C227.647 121.378 224.823 124.201 224.823 127.73V178.539C224.823 182.068 227.647 184.89 231.176 184.89H373.412C376.941 184.89 379.765 182.068 379.765 178.539V127.73C379.765 124.201 376.941 121.378 373.412 121.378H231.176Z" fill="black"></path><path d="M302.795 159.09C303.969 159.09 304.752 159.873 304.752 161.048L304.752 200.985C304.752 202.16 303.969 202.943 302.795 202.943C301.62 202.943 300.837 202.16 300.837 200.985L300.837 161.048C300.837 160.265 301.62 159.09 302.795 159.09Z" fill="black"></path><path d="M302.795 157.132C305.144 157.132 306.71 158.699 306.71 161.048L306.71 200.985C306.71 203.334 305.144 204.9 302.795 204.9C300.445 204.9 298.879 203.334 298.879 200.985L298.879 161.048C298.879 159.09 300.445 157.132 302.795 157.132ZM302.795 161.048L302.795 159.09L302.795 161.048Z" fill="black"></path><path d="M318.457 173.968L315.716 176.709L302.795 162.613L289.873 176.709L287.132 173.968L302.795 157.132L318.457 173.968Z" fill="black"></path><path d="M302.794 154L321.197 173.969L315.324 179.45L302.794 165.355L289.873 179.45L284 173.969L302.794 154Z" fill="black"></path></svg> 