<?xml version="1.0" encoding="UTF-8"?> <svg xmlns="http://www.w3.org/2000/svg" width="435" height="192" viewBox="0 0 435 192" fill="none"><path d="M223.894 48.7633C222.719 48.7633 221.936 47.5887 221.936 46.8056C221.936 46.8056 221.936 46.0225 222.328 44.4564C222.719 43.2817 223.502 42.8901 224.677 42.8901C225.852 43.2817 226.243 44.0648 226.243 45.2394C225.852 46.0225 225.852 46.8056 225.852 46.8056C225.852 47.9802 225.068 48.7633 223.894 48.7633Z" fill="black"></path><path d="M229.767 36.6256C229.376 36.6256 228.984 36.6256 228.593 36.234C227.809 35.451 227.809 34.2764 228.593 33.4933C229.376 32.3187 230.55 31.5356 231.725 30.7525C232.508 29.9695 233.683 30.361 234.466 31.144C235.249 31.9271 234.857 33.1018 234.074 33.8849C233.291 34.6679 232.117 35.451 231.333 36.234C230.942 36.6256 230.159 36.6256 229.767 36.6256Z" fill="black"></path><path d="M313.559 53.0709C312.776 53.0709 311.993 52.6794 311.601 51.8963C311.21 50.7217 310.818 49.5471 310.035 48.3724C309.643 47.5894 310.035 46.4147 310.818 45.6317C311.601 45.2401 312.776 45.6316 313.559 46.4147C314.342 47.5894 314.734 48.764 315.125 49.9386C315.517 51.1132 315.125 51.8963 313.951 52.2879C313.951 53.0709 313.951 53.0709 313.559 53.0709ZM304.945 40.15C304.553 40.15 303.77 40.1501 303.77 39.7585C302.987 38.9754 301.812 38.1923 301.029 37.4093C300.246 36.6262 299.855 35.4516 300.638 34.6685C301.421 33.8854 302.596 33.4938 303.379 34.2769C304.553 35.06 305.336 36.2346 306.511 37.0177C307.294 37.8008 307.294 38.9754 306.511 39.7585C306.12 40.1501 305.728 40.15 304.945 40.15ZM292.415 31.9277C292.024 31.9277 292.024 31.9277 291.632 31.9277C290.458 31.5362 289.283 31.1446 288.108 30.7531C286.934 30.3615 286.542 29.1869 286.934 28.4038C287.325 27.2292 288.5 26.8376 289.283 27.2292C290.458 27.6207 292.024 28.0123 293.198 28.7954C294.373 29.1869 294.765 30.3615 294.373 31.5361C293.59 31.1446 292.807 31.9277 292.415 31.9277ZM242.688 28.7954C241.905 28.7954 241.122 28.4038 240.731 27.6207C240.339 26.4461 241.122 25.663 241.905 25.2714C243.08 24.8799 244.255 24.4884 245.821 24.0969C246.995 23.7053 247.779 24.4884 248.17 25.663C248.562 26.8376 247.779 27.6207 246.604 28.0123C245.429 28.4038 244.255 28.7953 243.08 29.1869C243.08 28.4038 243.08 28.7954 242.688 28.7954ZM277.536 27.6207C277.145 27.6207 277.145 27.6207 277.536 27.6207C276.753 27.6207 275.97 27.2292 275.579 27.2292L273.621 26.8376C272.446 26.8376 271.663 25.663 272.055 24.4884C272.055 23.3137 273.229 22.5307 274.404 22.9222L276.362 23.3137C277.145 23.3137 277.536 23.3138 278.319 23.7053C279.494 23.7053 280.277 24.88 279.886 26.0546C279.103 26.8377 278.319 27.6207 277.536 27.6207ZM257.959 26.0546C256.784 26.0546 256.001 25.2715 256.001 24.0969C256.001 22.9222 256.784 22.1392 257.959 22.1392C258.742 22.1392 259.917 22.1392 260.7 22.1392H261.874C263.049 22.1392 263.832 22.9222 263.832 24.0969C263.832 25.2715 263.049 26.0546 261.874 26.0546H260.7C259.917 26.0546 259.133 26.0546 257.959 26.0546Z" fill="black"></path><path d="M316.3 66.3838C315.125 66.3838 314.342 65.6007 314.342 64.4261C314.342 63.643 314.342 63.2514 314.342 62.4684C314.342 61.2937 315.125 60.5107 315.908 60.1191C317.083 60.1191 317.866 60.9022 318.257 61.6853C318.257 62.4684 318.257 62.8599 318.257 63.643C318.649 65.2092 317.866 66.3838 316.3 66.3838C316.691 66.3838 316.691 66.3838 316.3 66.3838Z" fill="black"></path><path d="M303.379 59.7275L314.734 82.8286L329.221 61.6852L303.379 59.7275Z" fill="black"></path><path d="M430.632 176.406C430.632 182.67 425.542 187.369 419.669 187.369H261.482C255.218 187.369 250.519 182.279 250.519 176.406V120.024C250.519 113.759 255.609 109.061 261.482 109.061H419.277C425.542 109.061 430.241 114.151 430.241 120.024V176.406H430.632Z" fill="black"></path><path d="M419.669 191.284H261.482C253.26 191.284 246.604 184.628 246.604 176.406V120.024C246.604 111.801 253.26 105.145 261.482 105.145H419.277C427.5 105.145 434.156 111.801 434.156 120.024V176.406C434.548 184.628 427.891 191.284 419.669 191.284ZM261.482 112.584C257.567 112.584 254.435 115.717 254.435 119.632V176.406C254.435 180.321 257.567 183.453 261.482 183.453H419.277C423.193 183.453 426.325 180.321 426.325 176.406V120.024C426.325 116.108 423.193 112.976 419.277 112.976H261.482V112.584Z" fill="black"></path><path d="M5.40857 48.7637C5.40857 53.8537 6.19167 59.7268 6.97477 62.0761C7.75787 64.4253 17.5466 66.383 23.8114 66.383H165.161C171.426 66.383 178.082 65.5999 180.04 64.4253C181.998 63.2507 183.564 53.8537 183.564 48.7637C183.564 43.6736 178.474 39.3667 172.601 39.3667H16.372C10.4987 39.3667 5.40857 43.6736 5.40857 48.7637Z" fill="#040000"></path><path d="M5.40857 66.3839C5.80012 66.3839 5.80012 66.3839 5.40857 66.3839C5.40857 66.3839 5.40857 65.9925 5.40857 66.3839Z" fill="#040000"></path><path d="M180.823 39.3672H188.263V58.9442C188.654 57.7696 188.654 56.595 188.654 55.4204V10.7847H180.823V39.3672Z" fill="black"></path><path d="M15.9807 70.2992H173.776C177.691 70.2992 181.215 68.733 183.956 66.3838H5.80042C8.54127 68.733 12.0652 70.2992 15.9807 70.2992Z" fill="black"></path><path d="M8.54109 39.3672V10.7847H0.710083V55.4204C0.710083 59.7273 2.66783 63.6427 5.40869 66.3835V39.3672H8.54109Z" fill="black"></path><path d="M180.823 39.3667V55.0283C180.823 58.9437 177.691 62.0761 173.775 62.0761H15.9804C12.0649 62.0761 8.93252 58.9437 8.93252 55.0283V39.3667H5.40857V65.9915L5.80012 66.383H183.956C186.305 64.4253 187.871 61.6845 188.654 58.9437V39.3667H180.823Z" fill="black"></path><path d="M97.031 5.30176C98.2056 5.30176 98.9887 6.08484 98.9887 7.25946V47.1967C98.9887 48.3713 98.2056 49.1544 97.031 49.1544C95.8563 49.1544 95.0732 48.3713 95.0732 47.1967V7.25946C95.0732 6.08484 95.8563 5.30176 97.031 5.30176Z" fill="black"></path><path d="M97.031 51.1122C94.6817 51.1122 93.1155 49.5461 93.1155 47.1968V7.25965C93.1155 4.9104 94.6817 3.34424 97.031 3.34424C99.3803 3.34424 100.946 4.9104 100.946 7.25965V47.1968C100.946 49.1545 98.9887 51.1122 97.031 51.1122ZM97.031 5.30194V7.25965V5.30194Z" fill="black"></path><path d="M112.693 20.1815L109.952 22.5307L97.031 8.82674L84.1099 22.5307L81.369 20.1815L97.031 2.95361L112.693 20.1815Z" fill="black"></path><path d="M109.952 25.2711L97.0312 11.5671L84.11 25.2711L78.6283 20.1811L97.0312 0.212402L115.434 20.1811L109.952 25.2711Z" fill="black"></path></svg> 