<?xml version="1.0" encoding="UTF-8"?> <svg xmlns="http://www.w3.org/2000/svg" width="438" height="215" viewBox="0 0 438 215" fill="none"><path d="M226.469 71.7698C225.294 71.7698 224.511 70.5951 224.511 69.812C224.511 69.812 224.511 69.029 224.902 67.4628C225.294 66.2881 226.077 65.8965 227.252 65.8965C228.426 66.288 228.818 67.071 228.818 68.2457C228.426 69.0288 228.426 69.812 228.426 69.812C228.426 70.9867 227.643 71.7698 226.469 71.7698Z" fill="black"></path><path d="M232.342 60.0237C231.951 60.0237 231.559 60.0238 231.167 59.6322C230.384 58.8491 230.384 57.6745 231.167 56.8914C231.951 55.7167 233.125 54.9336 234.3 54.1505C235.083 53.3674 236.258 53.7589 237.041 54.542C237.824 55.3251 237.432 56.4997 236.649 57.2828C235.866 58.0659 234.691 58.8491 233.908 59.6322C233.517 59.6322 233.125 60.0237 232.342 60.0237Z" fill="black"></path><path d="M316.134 76.0767C315.351 76.0767 314.568 75.6852 314.176 74.9021C313.784 73.7275 313.393 72.553 312.61 71.3784C312.218 70.5953 312.61 69.4206 313.393 68.6375C314.176 68.246 315.351 68.6376 316.134 69.4206C316.917 70.5953 317.308 71.7698 317.7 72.9444C318.091 74.119 317.7 74.9022 316.525 75.2938C316.525 76.0769 316.525 76.0767 316.134 76.0767ZM307.911 63.1558C307.52 63.1558 306.737 63.1559 306.737 62.7644C305.953 61.9813 304.779 61.1981 303.996 60.415C303.213 59.6319 302.821 58.4575 303.604 57.6744C304.387 56.8913 305.562 56.4996 306.345 57.2827C307.52 58.0658 308.303 59.2405 309.477 60.0236C310.26 60.8066 310.26 61.9813 309.477 62.7644C308.694 63.1559 308.303 63.1558 307.911 63.1558ZM294.99 54.9336C294.598 54.9336 294.598 54.9336 294.207 54.9336C293.032 54.542 291.858 54.1505 290.683 53.759C289.508 53.3674 289.117 52.1927 289.508 51.4096C289.9 50.235 291.074 49.8435 291.858 50.235C293.032 50.6266 294.598 51.0182 295.773 51.8013C296.948 52.1928 297.339 53.3672 296.948 54.5419C296.165 54.5419 295.773 54.9336 294.99 54.9336ZM245.263 51.8013C244.48 51.8013 243.697 51.4095 243.305 50.6265C242.914 49.4518 243.697 48.6688 244.48 48.2773C245.655 47.8858 246.829 47.4943 248.395 47.1027C249.57 46.7112 250.353 47.4941 250.745 48.6688C251.136 49.8434 250.353 50.6266 249.179 51.0181C248.004 51.4097 246.829 51.8012 245.655 52.1927C246.046 51.8012 245.655 51.8013 245.263 51.8013ZM280.111 50.6265C279.72 50.6265 279.72 50.6265 280.111 50.6265C279.328 50.6265 278.545 50.235 278.153 50.235L276.196 49.8436C275.021 49.8436 274.238 48.6688 274.629 47.4942C274.629 46.3195 275.804 45.5366 276.979 45.9282L278.936 46.3196C279.72 46.3196 280.111 46.3195 280.894 46.711C282.069 46.711 282.852 47.8858 282.46 49.0604C281.677 49.8435 280.894 50.6265 280.111 50.6265ZM260.534 49.0604C259.359 49.0604 258.576 48.2774 258.576 47.1027C258.576 45.9281 259.359 45.145 260.534 45.145C261.317 45.145 262.491 45.145 263.274 45.145H264.449C265.624 45.145 266.407 45.9281 266.407 47.1027C266.407 48.2774 265.624 49.0604 264.449 49.0604H263.274C262.491 49.0604 261.708 49.0604 260.534 49.0604C260.534 49.0604 260.925 49.0604 260.534 49.0604Z" fill="black"></path><path d="M319.266 89.3896C318.091 89.3896 317.308 88.6066 317.308 87.4321C317.308 86.649 317.308 86.2575 317.308 85.4745C317.308 84.2999 318.091 83.517 318.874 83.1255C320.049 83.1255 320.832 83.9084 321.224 84.6914C321.224 85.4744 321.224 85.866 321.224 86.649C321.224 88.6066 320.441 89.3896 319.266 89.3896Z" fill="black"></path><path d="M305.953 82.7334L317.308 105.834L331.796 84.6911L305.953 82.7334Z" fill="black"></path><path d="M422.244 214.29H264.449C256.227 214.29 249.57 207.634 249.57 199.411V143.029C249.57 134.807 256.227 128.151 264.449 128.151H422.244C430.466 128.151 437.123 134.807 437.123 143.029V199.411C437.123 207.634 430.466 214.29 422.244 214.29ZM264.449 135.59C260.534 135.59 257.401 138.722 257.401 142.638V199.02C257.401 202.935 260.534 206.068 264.449 206.068H422.244C426.159 206.068 429.292 202.935 429.292 199.02V142.638C429.292 138.722 426.159 135.59 422.244 135.59H264.449Z" fill="#040000"></path><path d="M184.181 82.7324C183.79 83.124 184.181 83.124 184.181 82.7324C184.573 83.124 184.965 82.7324 184.965 82.7324H184.181Z" fill="#EFEBE1"></path><path d="M5.24281 4.81567C5.63436 4.81567 5.63436 4.42401 5.24281 4.81567C4.85126 4.42401 4.45972 4.81567 4.45972 4.81567C4.45972 4.81567 5.24281 5.20734 5.24281 4.81567Z" fill="#EFEBE1"></path><path d="M111.745 87.0396H173.61C177.525 87.0396 181.049 85.4733 183.79 83.124H111.745V87.0396Z" fill="black"></path><path d="M68.6738 0.508301H15.8145C11.899 0.508301 8.37501 2.07451 5.63416 4.42383H68.6738V0.508301Z" fill="black"></path><path d="M4.85118 5.59766C2.50187 8.33844 0.935669 11.8624 0.935669 15.7779V38.0957H4.85118V5.59766Z" fill="black"></path><path d="M184.964 82.3408C187.314 79.6 188.88 76.076 188.88 72.1606V51.8008H184.964V82.3408Z" fill="black"></path><path d="M8.76676 37.7048V15.3869C8.76676 11.4715 11.8992 8.33924 15.8147 8.33924H68.674V4.42383H5.63436C5.24281 4.81537 4.85127 5.20686 4.45972 5.5984V37.7048H8.76676Z" fill="black"></path><path d="M184.573 51.8004V72.1604C184.573 76.0758 181.049 79.2084 177.134 79.2084H111.745V83.1238H187.314C187.705 82.7322 188.097 82.3405 188.489 81.949V51.4087H184.573V51.8004Z" fill="black"></path></svg> 