<?xml version="1.0" encoding="UTF-8"?> <svg xmlns="http://www.w3.org/2000/svg" width="284" height="132" viewBox="0 0 284 132" fill="none"><path d="M10.7465 67.1701L10.7465 128.565L283.923 128.565V67.1701L10.7465 67.1701Z" fill="#C3B68F"></path><path d="M142.177 28.7804C143.235 28.7804 143.941 29.4861 143.941 30.5446V105.348C143.941 106.406 143.235 107.112 142.177 107.112C141.118 107.112 140.412 106.406 140.412 105.348V30.5446C140.412 29.8389 141.471 28.7804 142.177 28.7804Z" fill="black"></path><path d="M142.177 108.876C140.059 108.876 138.647 107.465 138.647 105.348V30.5446C138.647 28.4275 140.059 27.0161 142.177 27.0161C144.294 27.0161 145.706 28.4275 145.706 30.5446V105.348C145.706 107.465 144.294 108.876 142.177 108.876ZM142.177 28.7803V30.5446V28.7803Z" fill="black"></path><path d="M156.294 42.1885L153.824 44.6584L142.176 31.9559L130.529 44.6584L128.059 42.1885L142.176 27.0161L156.294 42.1885Z" fill="black"></path><path d="M153.824 47.1282L142.177 34.7787L130.882 47.1282L125.588 42.1884L142.177 24.1934L158.765 42.1884L153.824 47.1282Z" fill="black"></path><path d="M258.294 131.458H26.0589C11.9412 131.458 0.647095 120.167 0.647095 106.053V25.9575C0.647095 11.8437 11.9412 0.552734 26.0589 0.552734H258.294C272.412 0.552734 283.706 11.8437 283.706 25.9575V106.053C283.706 120.167 272.412 131.458 258.294 131.458ZM26.0589 11.4909C17.9412 11.4909 11.2353 18.195 11.2353 26.3104V106.406C11.2353 114.521 17.9412 121.225 26.0589 121.225H258.294C266.412 121.225 273.118 114.521 273.118 106.406V26.3104C273.118 18.195 266.412 11.4909 258.294 11.4909H26.0589Z" fill="black"></path></svg> 