<?xml version="1.0" encoding="UTF-8"?> <svg xmlns="http://www.w3.org/2000/svg" width="434" height="208" viewBox="0 0 434 208" fill="none"><path d="M222.791 64.7633C221.617 64.7633 220.833 63.5887 220.833 62.8056C220.833 62.8056 220.834 62.0225 221.225 60.4564C221.617 59.2817 222.4 58.8901 223.574 58.8901C224.749 59.2817 225.141 60.0648 225.141 61.2394C224.749 62.0225 224.749 62.8056 224.749 62.8056C224.749 63.9802 223.966 64.7633 222.791 64.7633Z" fill="black"></path><path d="M228.665 52.6256C228.273 52.6256 227.881 52.6256 227.49 52.234C226.707 51.451 226.707 50.2764 227.49 49.4933C228.273 48.3187 229.448 47.5356 230.622 46.7525C231.405 45.9695 232.58 46.361 233.363 47.144C234.146 47.9271 233.755 49.1018 232.972 49.8849C232.189 50.6679 231.014 51.451 230.231 52.234C229.839 52.6256 229.056 52.6256 228.665 52.6256Z" fill="black"></path><path d="M312.456 69.0709C311.673 69.0709 310.89 68.6794 310.499 67.8963C310.107 66.7217 309.716 65.5471 308.932 64.3724C308.541 63.5894 308.932 62.4147 309.716 61.6317C310.499 61.2401 311.673 61.6316 312.456 62.4147C313.24 63.5894 313.631 64.764 314.023 65.9386C314.414 67.1132 314.023 67.8963 312.848 68.2879C312.848 69.0709 312.848 69.0709 312.456 69.0709ZM303.842 56.15C303.451 56.15 302.668 56.1501 302.668 55.7585C301.885 54.9754 300.71 54.1923 299.927 53.4093C299.144 52.6262 298.752 51.4516 299.535 50.6685C300.318 49.8854 301.493 49.4938 302.276 50.2769C303.451 51.06 304.234 52.2346 305.409 53.0177C306.192 53.8008 306.192 54.9754 305.409 55.7585C305.017 56.1501 304.625 56.15 303.842 56.15ZM290.921 47.9277C290.53 47.9277 290.53 47.9277 290.138 47.9277C288.963 47.5362 287.789 47.1446 286.614 46.7531C285.439 46.3615 285.048 45.1869 285.439 44.4038C285.831 43.2292 287.006 42.8376 287.789 43.2292C288.963 43.6207 290.53 44.0123 291.704 44.7954C292.879 45.1869 293.27 46.3615 292.879 47.5361C292.487 47.1446 291.704 47.9277 290.921 47.9277ZM241.586 44.7954C240.803 44.7954 240.02 44.4038 239.628 43.6207C239.237 42.4461 240.02 41.663 240.803 41.2714C241.977 40.8799 243.152 40.4884 244.718 40.0969C245.893 39.7053 246.676 40.4884 247.068 41.663C247.459 42.8376 246.676 43.6207 245.501 44.0123C244.327 44.4038 243.152 44.7953 241.977 45.1869C241.977 44.4038 241.977 44.7954 241.586 44.7954ZM276.042 43.6207C275.259 43.6207 274.476 43.2292 274.085 43.2292L272.127 42.8376C270.952 42.8376 270.169 41.663 270.561 40.4884C270.561 39.3137 271.735 38.5307 272.91 38.9222L274.868 39.3137C275.651 39.3137 276.042 39.3138 276.825 39.7053C278 39.7053 278.783 40.88 278.392 42.0546C278 42.8377 277.217 43.6207 276.042 43.6207ZM256.856 42.0546C255.682 42.0546 254.899 41.2715 254.899 40.0969C254.899 38.9222 255.682 38.1392 256.856 38.1392C257.639 38.1392 258.814 38.1392 259.597 38.1392H260.772C261.946 38.1392 262.73 38.9222 262.73 40.0969C262.73 41.2715 261.946 42.0546 260.772 42.0546H259.597C258.814 42.0546 257.639 42.0546 256.856 42.0546Z" fill="black"></path><path d="M315.197 82.3838C314.022 82.3838 313.239 81.6007 313.239 80.4261C313.239 79.643 313.239 79.2514 313.239 78.4684C313.239 77.2937 314.022 76.5107 314.805 76.1191C315.98 76.1191 316.763 76.9022 317.155 77.6853C317.155 78.4684 317.155 78.8599 317.155 79.643C317.546 81.2092 316.372 82.3838 315.197 82.3838C315.589 82.3838 315.589 82.3838 315.197 82.3838Z" fill="black"></path><path d="M302.276 75.7275L313.631 98.8286L328.118 77.6852L302.276 75.7275Z" fill="black"></path><path d="M429.53 192.406C429.53 198.67 424.44 203.369 418.567 203.369H260.772C254.507 203.369 249.808 198.279 249.808 192.406V136.024C249.808 129.759 254.898 125.061 260.772 125.061H418.567C424.831 125.061 429.53 130.151 429.53 136.024V192.406Z" fill="black"></path><path d="M418.567 207.284H260.772C252.549 207.284 245.893 200.628 245.893 192.406V136.024C245.893 127.801 252.549 121.145 260.772 121.145H418.567C426.789 121.145 433.445 127.801 433.445 136.024V192.406C433.445 200.628 426.789 207.284 418.567 207.284ZM260.38 128.584C256.465 128.584 253.332 131.717 253.332 135.632V192.406C253.332 196.321 256.465 199.453 260.38 199.453H418.175C422.09 199.453 425.223 196.321 425.223 192.406V136.024C425.223 132.108 422.09 128.976 418.175 128.976H260.38V128.584Z" fill="black"></path><path d="M172.673 78.4675H14.8778C10.9623 78.4675 7.82991 75.3352 7.82991 71.4198V15.0378C7.82991 11.1224 10.9623 7.99001 14.8778 7.99001H172.673C173.064 7.99001 173.456 7.99001 173.847 7.99001V0.15918C173.456 0.15918 173.064 0.15918 172.673 0.15918H14.8778C6.65521 0.15918 -0.00109863 6.8154 -0.00109863 15.0378V71.4198C-0.00109863 79.6422 6.65521 86.2983 14.8778 86.2983H172.673C173.064 86.2983 173.456 86.2983 173.847 86.2983V78.4675C173.456 78.4675 173.064 78.4675 172.673 78.4675Z" fill="black"></path><path d="M37.1964 6.42383H7.047V80.8167H37.1964V6.42383Z" fill="#040000"></path><path d="M81.0498 44.7946C81.0498 45.9692 80.2667 46.7523 79.0921 46.7523H39.1539C37.9793 46.7523 37.1962 45.9692 37.1962 44.7946C37.1962 43.62 37.9793 42.8369 39.1539 42.8369H79.0921C80.2667 42.8369 81.0498 43.62 81.0498 44.7946Z" fill="black"></path><path d="M79.0921 48.7098H39.1539C36.8046 48.7098 35.2384 47.1436 35.2384 44.7943C35.2384 42.4451 36.8046 40.8789 39.1539 40.8789H79.0921C81.4414 40.8789 83.0076 42.4451 83.0076 44.7943C83.0076 47.1436 81.4414 48.7098 79.0921 48.7098ZM79.0921 44.7943H81.0498H79.0921Z" fill="black"></path><path d="M66.5623 60.457L63.8214 57.3247L77.9172 44.7954L63.8214 31.8745L66.5623 28.7422L83.3989 44.7954L66.5623 60.457Z" fill="black"></path><path d="M66.5624 63.1974L61.0807 57.3243L74.785 44.795L61.0807 31.8741L66.5624 26.001L86.14 44.795L66.5624 63.1974Z" fill="black"></path></svg> 