<?xml version="1.0" encoding="UTF-8"?> <svg xmlns="http://www.w3.org/2000/svg" width="222" height="273" viewBox="0 0 222 273" fill="none"><path d="M65.6093 138.962H9.02495C6.70862 138.962 4.72314 136.976 4.72314 134.66V50.9339C4.72314 48.6174 6.70862 46.6318 9.02495 46.6318H65.6093C67.9257 46.6318 69.9111 48.6174 69.9111 50.9339V134.66C69.9111 136.976 68.2566 138.962 65.6093 138.962ZM11.3412 132.343H63.2931V53.2505H11.3412V132.343Z" fill="black"></path><path d="M211.538 138.962H154.954C152.637 138.962 150.652 136.976 150.652 134.66V50.9339C150.652 48.6174 152.637 46.6318 154.954 46.6318H211.538C213.854 46.6318 215.84 48.6174 215.84 50.9339V134.66C215.84 136.976 213.854 138.962 211.538 138.962ZM157.27 132.343H209.222V53.2505H157.27V132.343Z" fill="black"></path><path d="M211.538 222.357H154.954C152.637 222.357 150.652 220.371 150.652 218.055V151.537C150.652 149.221 152.637 147.235 154.954 147.235H211.538C213.854 147.235 215.84 149.221 215.84 151.537V218.055C215.84 220.371 213.854 222.357 211.538 222.357ZM157.27 215.738H209.222V153.854H157.27V215.738Z" fill="black"></path><path d="M65.6093 199.853H9.02495C6.70862 199.853 4.72314 197.868 4.72314 195.551V151.537C4.72314 149.221 6.70862 147.235 9.02495 147.235H65.6093C67.9257 147.235 69.9111 149.221 69.9111 151.537V195.551C69.9111 198.199 68.2566 199.853 65.6093 199.853ZM11.3412 193.235H63.2931V153.854H11.3412V193.235Z" fill="black"></path><path d="M211.538 272.328H154.954C152.637 272.328 150.652 270.343 150.652 268.026V234.933C150.652 232.617 152.637 230.631 154.954 230.631H211.538C213.854 230.631 215.84 232.617 215.84 234.933V268.026C215.84 270.343 213.854 272.328 211.538 272.328ZM157.27 265.71H209.222V237.581H157.27V265.71Z" fill="black"></path><path d="M138.408 99.2501H81.8238C79.5075 99.2501 77.522 97.2644 77.522 94.9478V50.9339C77.522 48.6174 79.5075 46.6318 81.8238 46.6318H138.408C140.724 46.6318 142.71 48.6174 142.71 50.9339V94.9478C142.71 97.5953 140.724 99.2501 138.408 99.2501ZM84.14 92.6315H136.092V53.2505H84.14V92.6315Z" fill="black"></path><path d="M138.408 156.833H81.8238C79.5075 156.833 77.522 154.847 77.522 152.531V113.15C77.522 110.833 79.5075 108.848 81.8238 108.848H138.408C140.724 108.848 142.71 110.833 142.71 113.15V152.531C142.71 154.847 140.724 156.833 138.408 156.833ZM84.14 150.214H136.092V115.466H84.14V150.214Z" fill="black"></path><path d="M65.6093 272.328H9.02495C6.70862 272.328 4.72314 270.342 4.72314 268.026V212.76C4.72314 210.443 6.70862 208.458 9.02495 208.458H65.6093C67.9257 208.458 69.9111 210.443 69.9111 212.76V268.026C69.9111 270.342 68.2566 272.328 65.6093 272.328ZM11.3412 265.709H63.2931V215.076H11.3412V265.709Z" fill="black"></path><path d="M138.408 272.328H81.8238C79.5075 272.328 77.522 270.343 77.522 268.026V169.408C77.522 167.092 79.5075 165.106 81.8238 165.106H138.408C140.724 165.106 142.71 167.092 142.71 169.408V268.026C142.71 270.343 140.724 272.328 138.408 272.328ZM84.14 265.71H136.092V171.725H84.14V265.71Z" fill="black"></path><path d="M180.102 20.488C175.139 20.488 172.492 16.8478 172.492 12.8765C172.492 8.90522 175.47 4.93408 180.102 4.93408C183.411 4.93408 185.397 6.91959 185.397 7.91241C185.397 8.57429 184.735 9.23624 184.073 9.23624C183.742 9.23624 183.411 9.2362 183.081 8.57433C182.419 7.58151 181.095 7.25049 179.771 7.25049C176.462 7.25049 174.477 10.229 174.477 12.8765C174.477 14.5312 175.47 18.1716 179.771 18.1716C181.426 18.1716 182.75 17.5098 183.742 16.5169C184.073 16.186 184.404 15.855 184.735 15.855C185.397 15.855 186.059 16.5168 186.059 17.1787C186.059 18.1715 183.742 20.488 180.102 20.488Z" fill="black"></path><path d="M197.641 20.1571C197.31 20.1571 196.648 19.8261 196.648 19.4952C196.317 18.8333 195.986 17.1786 195.325 15.5239C195.325 15.5239 195.325 15.193 194.994 15.193C194.663 15.193 194.001 15.193 193.008 15.193C191.685 15.193 190.361 15.193 190.03 15.193C190.03 15.193 189.699 15.193 189.699 15.5239C189.037 17.1786 188.706 18.5024 188.376 19.4952C188.045 20.1571 187.714 20.1571 187.383 20.1571C186.721 20.1571 186.39 19.8262 186.39 19.1643C186.39 18.8334 186.39 18.5024 190.692 6.25771C191.023 5.2649 191.685 4.93408 192.346 4.93408C193.008 4.93408 194.001 5.2649 194.332 6.25771C195.656 9.89802 198.303 16.8477 198.965 18.5024C198.965 18.8334 198.965 18.8334 198.965 19.1643C198.965 19.8262 198.303 20.1571 197.641 20.1571ZM194.332 12.8764C193.67 10.8908 193.008 9.23626 192.677 8.24345C192.677 7.91252 192.346 7.58154 192.346 7.58154C192.346 7.58154 192.016 7.91252 192.016 8.24345C191.685 8.90533 190.361 12.8764 190.361 12.8764C190.692 12.8764 191.354 12.8764 192.346 12.8764C193.339 13.2074 194.001 13.2074 194.332 12.8764C194.332 13.2074 194.332 13.2074 194.332 12.8764C194.332 13.2074 194.332 13.2074 194.332 12.8764Z" fill="black"></path><path d="M203.927 19.1645C203.927 17.5098 203.927 14.8622 203.927 12.2147C203.927 10.56 203.927 8.90547 203.927 7.58172C203.927 7.25079 203.927 7.25067 202.604 7.25067C201.942 7.25067 200.949 7.25067 199.957 7.25067C199.295 7.25067 198.964 6.58884 198.964 6.2579C198.964 5.59603 199.295 5.26514 199.957 5.26514C201.28 5.26514 203.266 5.26514 205.251 5.26514C206.906 5.26514 208.56 5.26514 209.884 5.26514C210.545 5.26514 210.876 5.92697 210.876 6.2579C210.876 6.91977 210.545 7.25067 209.884 7.25067C209.222 7.25067 208.56 7.25067 208.229 7.25067C206.244 7.25067 206.244 7.25079 206.244 7.58172C206.244 8.90547 206.244 10.891 206.244 12.8766C206.244 15.1932 206.244 17.8407 206.244 19.1645C206.244 19.8263 205.582 20.1572 204.92 20.1572C204.589 20.1572 203.927 19.8263 203.927 19.1645Z" fill="black"></path><path d="M212.862 20.1572C212.2 20.1572 211.869 19.4952 211.869 18.8334C211.869 18.5024 212.2 17.8407 212.531 17.5097C213.855 15.8551 216.171 13.5386 217.825 11.553C218.487 10.5602 218.818 9.5672 218.818 8.90533C218.818 7.5816 217.825 6.91981 216.833 6.91981C215.84 6.91981 215.178 7.25074 214.516 8.57448C214.185 8.90541 213.855 9.23639 213.524 9.23639C212.862 9.23639 212.2 8.9055 212.2 8.24363C212.2 7.58176 213.855 5.26514 216.833 5.26514C219.149 5.26514 221.465 6.58891 221.465 9.23639C221.465 10.2292 221.134 11.553 219.811 13.2076C218.156 15.1932 216.502 16.8478 214.847 18.5025C216.502 18.5025 218.818 18.1717 220.473 18.1717C221.134 18.1717 221.796 18.8335 221.796 19.1644C221.796 19.8263 221.465 20.488 220.473 20.488H212.862V20.1572Z" fill="black"></path><path d="M101.017 20.488C96.0534 20.488 93.4062 16.8478 93.4062 12.8765C93.4062 8.90522 96.3844 4.93408 101.017 4.93408C104.326 4.93408 106.312 6.91959 106.312 7.91241C106.312 8.57429 105.65 9.23624 104.988 9.23624C104.657 9.23624 104.326 9.2362 103.995 8.57433C103.333 7.58151 102.01 7.25049 100.686 7.25049C97.377 7.25049 95.3916 10.229 95.3916 12.8765C95.3916 14.5312 96.3843 18.1716 100.686 18.1716C102.341 18.1716 103.664 17.5098 104.657 16.5169C104.988 16.186 105.319 15.855 105.65 15.855C106.311 15.855 106.973 16.5168 106.973 17.1787C106.973 18.1715 104.657 20.488 101.017 20.488Z" fill="black"></path><path d="M118.555 20.1571C118.224 20.1571 117.563 19.8261 117.563 19.4952C117.232 18.8333 116.901 17.1786 116.239 15.5239C116.239 15.5239 116.239 15.193 115.908 15.193C115.577 15.193 114.915 15.193 113.923 15.193C112.599 15.193 111.276 15.193 110.945 15.193C110.945 15.193 110.614 15.193 110.614 15.5239C109.952 17.1786 109.621 18.5024 109.29 19.4952C108.959 20.1571 108.628 20.1571 108.297 20.1571C107.636 20.1571 107.305 19.8262 107.305 19.1643C107.305 18.8334 107.305 18.5024 111.606 6.25771C111.937 5.2649 112.599 4.93408 113.261 4.93408C113.923 4.93408 114.915 5.2649 115.246 6.25771C116.57 9.89802 119.217 16.8477 119.879 18.5024C119.879 18.8334 119.879 18.8334 119.879 19.1643C119.879 19.8262 119.217 20.1571 118.555 20.1571ZM115.246 12.8764C114.585 10.8908 113.923 9.23626 113.592 8.24345C113.592 7.91252 113.261 7.58154 113.261 7.58154C113.261 7.58154 112.93 7.91252 112.93 8.24345C112.599 8.90533 111.276 12.8764 111.276 12.8764C111.606 12.8764 112.268 12.8764 113.261 12.8764C114.254 13.2074 114.915 13.2074 115.246 12.8764C115.246 13.2074 115.246 13.2074 115.246 12.8764C115.246 13.2074 115.246 13.2074 115.246 12.8764Z" fill="black"></path><path d="M124.842 19.1645C124.842 17.5098 124.842 14.8622 124.842 12.2147C124.842 10.56 124.842 8.90547 124.842 7.58172C124.842 7.25079 124.842 7.25067 123.518 7.25067C122.857 7.25067 121.864 7.25067 120.871 7.25067C120.209 7.25067 119.878 6.58884 119.878 6.2579C119.878 5.59603 120.209 5.26514 120.871 5.26514C122.195 5.26514 124.18 5.26514 126.166 5.26514C127.82 5.26514 129.475 5.26514 130.798 5.26514C131.46 5.26514 131.791 5.92697 131.791 6.2579C131.791 6.91977 131.46 7.25067 130.798 7.25067C130.137 7.25067 129.475 7.25067 129.144 7.25067C127.158 7.25067 127.158 7.25079 127.158 7.58172C127.158 8.90547 127.158 10.891 127.158 12.8766C127.158 15.1932 127.158 17.8407 127.158 19.1645C127.158 19.8263 126.497 20.1572 125.835 20.1572C125.504 20.1572 124.842 19.8263 124.842 19.1645Z" fill="black"></path><path d="M137.747 20.4879C137.085 20.4879 136.423 20.157 136.423 19.4951C136.423 17.5095 136.423 13.5383 136.423 10.8908C136.423 8.24333 136.423 7.91231 135.762 7.91231C135.762 7.91231 135.762 7.91231 135.431 7.91231C134.769 7.91231 134.438 7.25047 134.438 6.91954C134.438 6.25766 134.769 5.92664 135.431 5.5957C135.762 5.5957 136.093 5.5957 136.423 5.5957C137.747 5.5957 138.74 6.2577 138.74 7.58145C138.74 7.91239 138.74 8.24329 138.74 8.57423C138.74 10.2289 138.74 12.8765 138.74 15.8549C138.74 17.1787 138.74 18.5023 138.74 19.4951C139.071 19.8261 138.409 20.4879 137.747 20.4879Z" fill="black"></path><path d="M34.5046 20.1571C34.1737 20.1571 33.512 19.8261 33.512 19.4952C33.1811 18.8333 32.8502 17.1786 32.1884 15.5239C32.1884 15.5239 32.1884 15.193 31.8575 15.193C31.5265 15.193 30.8647 15.193 29.872 15.193C28.5484 15.193 27.2248 15.193 26.8939 15.193C26.8939 15.193 26.563 15.193 26.563 15.5239C25.9011 17.1786 25.5703 18.5024 25.2394 19.4952C24.9085 20.1571 24.5775 20.1571 24.2466 20.1571C23.5848 20.1571 23.2539 19.8262 23.2539 19.1643C23.2539 18.8334 23.2539 18.5024 27.5556 6.25771C27.8865 5.2649 28.5483 4.93408 29.2102 4.93408C29.872 4.93408 30.8647 5.2649 31.1956 6.25771C32.5192 9.89802 35.1664 16.8477 35.8282 18.5024C35.8282 18.8334 35.8282 18.8334 35.8282 19.1643C35.8282 19.8262 35.1665 20.1571 34.5046 20.1571ZM31.1956 12.8764C30.5338 10.8908 29.872 9.23626 29.5411 8.24345C29.5411 7.91252 29.2102 7.58154 29.2102 7.58154C29.2102 7.58154 28.8793 7.91252 28.8793 8.24345C28.5484 8.90533 27.2248 12.8764 27.2248 12.8764C27.5557 12.8764 28.2174 12.8764 29.2102 12.8764C30.2029 13.2074 30.8647 13.2074 31.1956 12.8764C31.1956 13.2074 31.1956 13.2074 31.1956 12.8764C31.1956 13.2074 31.1956 13.2074 31.1956 12.8764Z" fill="black"></path><path d="M37.8133 6.25768C37.8133 5.59582 38.4752 4.93408 38.8061 4.93408C39.4679 4.93408 39.7988 5.26489 39.7988 6.25768C39.7988 7.5814 39.7988 11.8835 39.7988 14.5309C39.7988 15.5237 39.7988 16.5165 39.7988 16.8475C39.7988 17.8403 40.4606 17.8402 43.1078 17.8402C44.1005 17.8402 45.4241 17.8402 46.0859 17.8402C46.7477 17.8402 47.0786 18.502 47.0786 18.833C47.0786 19.4948 46.7476 19.8259 45.7549 19.8259C45.424 19.8259 44.4314 19.8259 43.1078 19.8259C42.1151 19.8259 40.7915 19.8259 40.4606 19.8259C38.4752 19.8259 37.4824 19.1639 37.4824 17.1783C37.4824 16.8474 37.4824 16.1855 37.4824 15.5237C37.4824 12.8762 37.4824 8.57431 37.4824 6.58873C37.8133 6.58873 37.8133 6.58861 37.8133 6.25768Z" fill="black"></path><path d="M49.7259 6.25768C49.7259 5.59582 50.3877 4.93408 50.7186 4.93408C51.3804 4.93408 51.7114 5.26489 51.7114 6.25768C51.7114 7.5814 51.7114 11.8835 51.7114 14.5309C51.7114 15.5237 51.7114 16.5165 51.7114 16.8475C51.7114 17.8403 52.3732 17.8402 55.0204 17.8402C56.0131 17.8402 57.3367 17.8402 57.9985 17.8402C58.6603 17.8402 58.9912 18.502 58.9912 18.833C58.9912 19.4948 58.6603 19.8259 57.6676 19.8259C57.3367 19.8259 56.344 19.8259 55.0204 19.8259C54.0277 19.8259 52.704 19.8259 52.3731 19.8259C50.3877 19.8259 49.395 19.1639 49.395 17.1783C49.395 16.8474 49.395 16.1855 49.395 15.5237C49.395 12.8762 49.395 8.57431 49.395 6.58873C49.7259 6.58873 49.7259 6.58861 49.7259 6.25768Z" fill="black"></path><path d="M18.9525 21.8114H0.421875V3.2793H18.9525V21.8114ZM3.73091 18.5021H15.6435V6.58862H3.73091V18.5021Z" fill="black"></path><path d="M86.7875 21.8114H68.2568V3.2793H86.7875V21.8114ZM71.5659 18.5021H83.4784V6.58862H71.5659V18.5021Z" fill="black"></path><path d="M72.5592 89.9844C41.7852 89.9844 33.5126 60.5314 33.5126 60.2005C33.1817 58.5458 34.1744 56.5604 35.8289 56.2294C37.4834 55.8985 39.4689 56.8911 39.7998 58.5458C40.1307 59.5386 46.7487 83.3657 72.5592 83.3657C94.068 83.3657 112.599 70.4594 119.878 64.8336C121.202 63.8408 123.518 63.8408 124.511 65.4955C125.504 66.8192 125.504 69.1356 123.849 70.1284C116.238 76.0852 95.7225 89.9844 72.5592 89.9844Z" fill="black"></path><path d="M101.679 61.855L101.348 65.8262L120.209 68.1428L116.9 87.0062L120.54 87.6681L124.842 64.5026L101.679 61.855Z" fill="black"></path><path d="M77.8535 16.1863C77.5226 16.1863 76.8608 15.8553 76.5299 15.5244L72.8899 11.5533C72.2281 10.8915 72.2281 9.89865 72.8899 9.23678C73.5517 8.57492 74.5445 8.57492 75.2063 9.23678L77.5226 11.8842L84.8025 1.62538C85.4643 0.963516 86.457 0.632462 87.1188 1.29433C87.7806 1.95619 88.1115 2.94903 87.4497 3.61089L78.8462 15.5244C78.8462 16.1862 78.5153 16.1863 77.8535 16.1863Z" fill="black"></path><path d="M168.851 21.8114H150.321V3.2793H168.851V21.8114ZM153.63 18.5021H165.542V6.58862H153.63V18.5021Z" fill="black"></path><path d="M159.917 16.1863C159.586 16.1863 158.924 15.8553 158.593 15.5244L154.953 11.5533C154.292 10.8915 154.292 9.89865 154.953 9.23678C155.615 8.57492 156.608 8.57492 157.27 9.23678L159.586 11.8842L166.866 1.62538C167.528 0.963516 168.52 0.632462 169.182 1.29433C169.844 1.95619 170.175 2.94903 169.513 3.61089L160.91 15.5244C160.91 16.1862 160.579 16.1863 159.917 16.1863Z" fill="black"></path></svg> 