<?xml version="1.0" encoding="UTF-8"?> <svg xmlns="http://www.w3.org/2000/svg" width="346" height="245" viewBox="0 0 346 245" fill="none"><path d="M62.6845 0.728516H280.419C293.655 0.728516 304.244 11.3184 304.244 24.5557V152.627C304.244 165.864 293.655 176.454 280.419 176.454H62.6845C49.4483 176.454 38.8594 165.864 38.8594 152.627V24.5557C39.1903 11.3184 49.7792 0.728516 62.6845 0.728516ZM280.75 166.195C288.361 166.195 294.648 159.907 294.648 152.296V24.2249C294.648 16.6134 288.361 10.3256 280.75 10.3256H63.0153C55.4046 10.3256 49.1174 16.6134 49.1174 24.2249V152.296C49.1174 159.907 55.4046 166.195 63.0153 166.195H280.75Z" fill="black"></path><path d="M183.796 83.4613C183.134 82.4685 182.141 81.8066 180.818 81.8066C179.494 81.8066 178.501 82.4685 177.84 83.4613L166.589 100.67L160.302 93.7204C159.64 93.0585 158.647 92.3966 157.324 92.3966C156.331 92.3966 155.338 93.0584 154.676 94.0512L144.087 109.936H201.003L183.796 83.4613Z" fill="#4C4B4C"></path><path d="M159.971 87.1013C163.942 87.1013 167.251 83.7919 167.251 79.8207C167.251 75.8494 163.942 72.54 159.971 72.54C156 72.54 152.691 75.8494 152.691 79.8207C153.022 83.7919 156 87.1013 159.971 87.1013Z" fill="#4C4B4C"></path><path d="M87.1713 213.848C86.8404 213.517 86.5095 213.187 85.8477 213.187C85.5168 213.187 84.8549 213.517 84.524 213.848L80.5532 220.467L78.2369 217.82C77.906 217.489 77.5751 217.158 77.2442 217.489C76.9133 217.489 76.2515 217.82 76.2515 218.15L71.9497 224.438H94.4511L87.1713 213.848Z" fill="#4C4B4C"></path><path d="M77.9058 215.173C79.5603 215.173 80.884 213.849 80.884 212.194C80.884 210.539 79.5603 209.215 77.9058 209.215C76.2513 209.215 74.9277 210.539 74.9277 212.194C74.9277 213.849 76.2513 215.173 77.9058 215.173Z" fill="#4C4B4C"></path><path d="M114.305 243.302H49.448C45.4772 243.302 42.499 239.992 42.499 236.352V198.295C42.499 194.324 45.8081 191.345 49.448 191.345H114.305C118.276 191.345 121.254 194.654 121.254 198.295V236.352C121.585 240.323 118.276 243.302 114.305 243.302ZM49.448 193.993C47.1317 193.993 45.4771 195.978 45.4771 197.964V236.021C45.4771 238.338 47.4626 239.992 49.448 239.992H114.305C116.621 239.992 118.276 238.007 118.276 236.021V197.964C118.276 195.647 116.29 193.993 114.305 193.993H49.448Z" fill="black"></path><path d="M114.305 244.956H49.4482C44.4847 244.956 40.8447 240.985 40.8447 236.352V198.295C40.8447 193.331 44.8156 189.69 49.4482 189.69H114.305C119.269 189.69 122.909 193.662 122.909 198.295V236.352C123.24 240.985 119.269 244.956 114.305 244.956ZM49.4482 195.647C48.1246 195.647 47.1319 196.64 47.1319 197.964V236.021C47.1319 237.345 48.1246 238.338 49.4482 238.338H114.305C115.629 238.338 116.622 237.345 116.622 236.021V197.964C116.622 196.64 115.629 195.647 114.305 195.647H49.4482Z" fill="black"></path><path d="M178.5 213.848C178.169 213.517 177.838 213.187 177.176 213.187C176.846 213.187 176.184 213.517 175.853 213.848L171.22 220.798L168.904 218.15C168.573 217.82 168.242 217.489 167.911 217.82C167.58 217.82 166.918 218.151 166.918 218.482L162.617 224.769H185.118L178.5 213.848Z" fill="#4C4B4C"></path><path d="M169.235 215.173C170.89 215.173 172.213 213.849 172.213 212.194C172.213 210.539 170.89 209.215 169.235 209.215C167.58 209.215 166.257 210.539 166.257 212.194C166.257 213.849 167.58 215.173 169.235 215.173Z" fill="#4C4B4C"></path><path d="M205.635 243.302H140.778C136.807 243.302 133.829 239.992 133.829 236.352V198.295C133.829 194.324 137.138 191.345 140.778 191.345H205.635C209.606 191.345 212.584 194.654 212.584 198.295V236.352C212.915 240.323 209.606 243.302 205.635 243.302ZM140.778 193.993C138.461 193.993 136.807 195.978 136.807 197.964V236.021C136.807 238.338 138.792 239.992 140.778 239.992H205.635C207.951 239.992 209.606 238.007 209.606 236.021V197.964C209.606 195.647 207.62 193.993 205.635 193.993H140.778Z" fill="black"></path><path d="M205.635 244.956H140.778C135.814 244.956 132.174 240.985 132.174 236.352V198.295C132.174 193.331 136.145 189.69 140.778 189.69H205.635C210.598 189.69 214.238 193.662 214.238 198.295V236.352C214.569 240.985 210.598 244.956 205.635 244.956ZM140.778 195.647C139.454 195.647 138.461 196.64 138.461 197.964V236.021C138.461 237.345 139.454 238.338 140.778 238.338H205.635C206.958 238.338 207.951 237.345 207.951 236.021V197.964C207.951 196.64 206.958 195.647 205.635 195.647H140.778Z" fill="black"></path><path d="M270.161 213.848C269.83 213.517 269.499 213.187 268.838 213.187C268.507 213.187 267.845 213.517 267.514 213.848L262.881 220.798L260.565 218.15C260.234 217.82 259.903 217.489 259.572 217.82C259.241 217.82 258.58 218.151 258.58 218.482L254.278 224.769H276.779L270.161 213.848Z" fill="#4C4B4C"></path><path d="M260.896 215.173C262.551 215.173 263.874 213.849 263.874 212.194C263.874 210.539 262.551 209.215 260.896 209.215C259.242 209.215 257.918 210.539 257.918 212.194C257.918 213.849 259.242 215.173 260.896 215.173Z" fill="#4C4B4C"></path><path d="M297.294 243.302H232.437C228.466 243.302 225.488 239.992 225.488 236.352V198.295C225.488 194.324 228.797 191.345 232.437 191.345H297.294C301.265 191.345 304.243 194.654 304.243 198.295V236.352C304.243 240.323 301.265 243.302 297.294 243.302ZM232.437 193.993C230.121 193.993 228.466 195.978 228.466 197.964V236.021C228.466 238.338 230.452 239.992 232.437 239.992H297.294C299.611 239.992 301.265 238.007 301.265 236.021V197.964C301.265 195.647 299.28 193.993 297.294 193.993H232.437Z" fill="black"></path><path d="M297.295 244.956H232.437C227.474 244.956 223.834 240.985 223.834 236.352V198.295C223.834 193.331 227.805 189.69 232.437 189.69H297.295C302.258 189.69 305.898 193.662 305.898 198.295V236.352C305.898 240.985 302.258 244.956 297.295 244.956ZM232.437 195.647C231.114 195.647 230.121 196.64 230.121 197.964V236.021C230.121 237.345 231.114 238.338 232.437 238.338H297.295C298.618 238.338 299.611 237.345 299.611 236.021V197.964C299.611 196.64 298.618 195.647 297.295 195.647H232.437Z" fill="black"></path><path d="M15.6959 230.725C15.0341 230.725 14.0414 230.394 13.3796 229.733L1.13619 218.481C-0.187425 217.157 -0.187446 215.172 0.805262 213.848L13.0487 200.611C14.3723 199.287 16.3577 199.287 17.6813 200.28C19.0049 201.604 19.0049 203.589 18.0122 204.913L8.08516 215.834L17.6813 225.1C19.0049 226.423 19.0049 228.409 17.6813 229.733C17.3504 230.394 16.6886 230.725 15.6959 230.725Z" fill="#4C4B4C"></path><path d="M77.5753 106.957C76.9135 106.957 75.9208 106.626 75.259 105.965L63.0156 94.7127C61.6919 93.389 61.692 91.4033 62.6847 90.0796L74.9281 76.8423C76.2517 75.5185 78.2371 75.5186 79.5607 76.5114C80.8843 77.8352 80.8843 79.8208 79.8916 81.1446L69.9645 92.0653L79.5607 101.331C80.8843 102.655 80.8843 104.641 79.5607 105.965C79.5607 106.626 78.568 106.957 77.5753 106.957Z" fill="#4C4B4C"></path><path d="M330.054 230.727C329.393 230.727 328.4 230.396 327.738 229.734C326.415 228.41 326.415 226.425 327.407 225.101L337.334 214.18L327.738 204.914C326.415 203.59 326.415 201.605 327.738 200.281C329.062 198.957 331.047 198.957 332.371 200.281L344.614 211.532C345.938 212.856 345.938 214.842 344.945 216.166L332.702 229.403C331.709 230.396 330.716 230.727 330.054 230.727Z" fill="#4C4B4C"></path><path d="M262.881 106.957C262.219 106.957 261.226 106.626 260.564 105.964C259.241 104.641 259.241 102.655 260.234 101.331L270.161 90.4105L260.564 81.1445C259.241 79.8207 259.241 77.8351 260.564 76.5113C261.888 75.1876 263.873 75.1876 265.197 76.5113L277.44 87.7631C278.764 89.0868 278.764 91.0723 277.771 92.396L265.528 105.633C264.866 106.626 263.873 106.957 262.881 106.957Z" fill="#4C4B4C"></path></svg> 