<?xml version="1.0" encoding="UTF-8"?> <svg xmlns="http://www.w3.org/2000/svg" width="268" height="245" viewBox="0 0 268 245" fill="none"><path d="M24.711 0.728516H242.446C255.682 0.728516 266.271 11.3184 266.271 24.5557V152.627C266.271 165.864 255.682 176.454 242.446 176.454H24.711C11.4749 176.454 0.885986 165.864 0.885986 152.627V24.5557C0.885986 11.3184 11.8058 0.728516 24.711 0.728516ZM242.446 166.195C250.056 166.195 256.343 159.907 256.343 152.296V24.2249C256.343 16.6134 250.056 10.3256 242.446 10.3256H24.711C17.1003 10.3256 10.8131 16.6134 10.8131 24.2249V152.296C10.8131 159.907 17.1003 166.195 24.711 166.195H242.446Z" fill="black"></path><path d="M142.513 80.4828C141.852 79.49 140.859 78.8281 139.535 78.8281C138.212 78.8281 137.219 79.49 136.557 80.4828L125.306 97.6912L119.019 90.7416C118.357 90.0797 117.365 89.418 116.041 89.418C115.048 89.418 114.056 90.0798 113.394 91.0726L102.805 106.957H159.72L142.513 80.4828Z" fill="#4C4B4C"></path><path d="M118.689 84.1223C122.659 84.1223 125.968 80.813 125.968 76.8418C125.968 72.8707 122.659 69.5615 118.689 69.5615C114.718 69.5615 111.409 72.8707 111.409 76.8418C111.74 80.813 114.718 84.1223 118.689 84.1223Z" fill="#4C4B4C"></path><path d="M49.1988 213.848C48.8679 213.517 48.537 213.187 47.8752 213.187C47.5443 213.187 46.8825 213.517 46.5516 213.848L41.9189 220.798L39.6026 218.15C39.2717 217.82 38.9408 217.489 38.6099 217.82C38.279 217.82 37.6172 218.151 37.6172 218.482L33.3154 224.769H55.8169L49.1988 213.848Z" fill="#4C4B4C"></path><path d="M39.9337 215.173C41.5882 215.173 42.9118 213.849 42.9118 212.194C42.9118 210.539 41.5882 209.215 39.9337 209.215C38.2792 209.215 36.9556 210.539 36.9556 212.194C36.9556 213.849 38.2792 215.173 39.9337 215.173Z" fill="#4C4B4C"></path><path d="M76.3322 243.302H11.4751C7.50426 243.302 4.52612 239.992 4.52612 236.352V198.295C4.52612 194.324 7.83516 191.345 11.4751 191.345H76.3322C80.303 191.345 83.2811 194.654 83.2811 198.295V236.352C83.2811 240.323 80.303 243.302 76.3322 243.302ZM11.4751 193.993C9.15877 193.993 7.50425 195.978 7.50425 197.964V236.021C7.50425 238.338 9.48968 239.992 11.4751 239.992H76.3322C78.6485 239.992 80.303 238.007 80.303 236.021V197.964C80.303 195.647 78.3176 193.993 76.3322 193.993H11.4751Z" fill="black"></path><path d="M76.3322 244.956H11.4751C6.51152 244.956 2.87158 240.985 2.87158 236.352V198.295C2.87158 193.331 6.84243 189.69 11.4751 189.69H76.3322C81.2957 189.69 84.9356 193.662 84.9356 198.295V236.352C84.9356 240.985 81.2957 244.956 76.3322 244.956ZM11.4751 195.647C10.1515 195.647 9.15875 196.64 9.15875 197.964V236.021C9.15875 237.345 10.1515 238.338 11.4751 238.338H76.3322C77.6558 238.338 78.6485 237.345 78.6485 236.021V197.964C78.6485 196.64 77.6558 195.647 76.3322 195.647H11.4751Z" fill="black"></path><path d="M140.527 213.848C140.196 213.517 139.865 213.187 139.203 213.187C138.872 213.187 138.211 213.517 137.88 213.848L133.247 220.798L130.931 218.15C130.6 217.82 130.269 217.489 129.938 217.82C129.607 217.82 128.945 218.151 128.945 218.482L124.644 224.769H147.145L140.527 213.848Z" fill="#4C4B4C"></path><path d="M131.262 215.173C132.916 215.173 134.24 213.849 134.24 212.194C134.24 210.539 132.916 209.215 131.262 209.215C129.607 209.215 128.284 210.539 128.284 212.194C128.284 213.849 129.607 215.173 131.262 215.173Z" fill="#4C4B4C"></path><path d="M167.662 243.302H102.474C98.5028 243.302 95.5247 239.992 95.5247 236.352V198.295C95.5247 194.324 98.8337 191.345 102.474 191.345H167.331C171.302 191.345 174.28 194.654 174.28 198.295V236.352C174.611 240.323 171.632 243.302 167.662 243.302ZM102.474 193.993C100.157 193.993 98.5028 195.978 98.5028 197.964V236.021C98.5028 238.338 100.488 239.992 102.474 239.992H167.331C169.647 239.992 171.302 238.007 171.302 236.021V197.964C171.302 195.647 169.316 193.993 167.331 193.993H102.474Z" fill="black"></path><path d="M167.662 244.956H102.474C97.5101 244.956 93.8701 240.985 93.8701 236.352V198.295C93.8701 193.331 97.841 189.69 102.474 189.69H167.331C172.294 189.69 175.934 193.662 175.934 198.295V236.352C176.265 240.985 172.294 244.956 167.662 244.956ZM102.474 195.647C101.15 195.647 100.157 196.64 100.157 197.964V236.021C100.157 237.345 101.15 238.338 102.474 238.338H167.331C168.654 238.338 169.647 237.345 169.647 236.021V197.964C169.647 196.64 168.654 195.647 167.331 195.647H102.474Z" fill="black"></path><path d="M232.188 213.848C231.857 213.517 231.526 213.187 230.864 213.187C230.534 213.187 229.872 213.517 229.541 213.848L224.908 220.798L222.592 218.15C222.261 217.82 221.93 217.489 221.599 217.82C221.268 217.82 220.606 218.151 220.606 218.482L216.305 224.769H238.806L232.188 213.848Z" fill="#4C4B4C"></path><path d="M222.923 215.173C224.577 215.173 225.901 213.849 225.901 212.194C225.901 210.539 224.577 209.215 222.923 209.215C221.268 209.215 219.945 210.539 219.945 212.194C219.945 213.849 221.268 215.173 222.923 215.173Z" fill="#4C4B4C"></path><path d="M259.322 243.302H194.134C190.163 243.302 187.185 239.992 187.185 236.352V198.295C187.185 194.324 190.494 191.345 194.134 191.345H258.991C262.962 191.345 265.94 194.654 265.94 198.295V236.352C266.271 240.323 263.293 243.302 259.322 243.302ZM194.134 193.993C191.818 193.993 190.163 195.978 190.163 197.964V236.021C190.163 238.338 192.149 239.992 194.134 239.992H258.991C261.307 239.992 262.962 238.007 262.962 236.021V197.964C262.962 195.647 260.977 193.993 258.991 193.993H194.134Z" fill="black"></path><path d="M259.322 244.956H194.134C189.171 244.956 185.531 240.985 185.531 236.352V198.295C185.531 193.331 189.502 189.69 194.134 189.69H258.991C263.955 189.69 267.595 193.662 267.595 198.295V236.352C267.926 240.985 263.955 244.956 259.322 244.956ZM194.134 195.647C192.811 195.647 191.818 196.64 191.818 197.964V236.021C191.818 237.345 192.811 238.338 194.134 238.338H258.991C260.315 238.338 261.308 237.345 261.308 236.021V197.964C261.308 196.64 260.315 195.647 258.991 195.647H194.134Z" fill="black"></path></svg> 