<?xml version="1.0" encoding="UTF-8"?> <svg xmlns="http://www.w3.org/2000/svg" width="280" height="215" viewBox="0 0 280 215" fill="none"><path d="M235.229 29.4822C234.898 29.1513 234.236 28.8203 233.905 28.8203C233.243 28.8203 232.912 29.1513 232.582 29.4822L227.287 37.7555L224.309 34.4462C223.978 34.1153 223.316 33.7843 222.985 33.7843C222.324 33.7843 221.993 34.1153 221.662 34.4462L216.698 42.0576H243.832L235.229 29.4822Z" fill="#4C4B4C"></path><path d="M223.979 31.468C225.964 31.468 227.288 29.8134 227.288 28.1588C227.288 26.1733 225.633 24.8496 223.979 24.8496C221.993 24.8496 220.669 26.5042 220.669 28.1588C220.669 29.8134 221.993 31.468 223.979 31.468Z" fill="#4C4B4C"></path><path d="M269.312 65.2239H190.888C186.255 65.2239 182.284 61.2528 182.284 56.6197V10.6198C182.284 5.98675 186.255 2.01562 190.888 2.01562H269.312C273.944 2.01562 277.915 5.98675 277.915 10.6198V56.6197C277.584 61.5837 273.944 65.2239 269.312 65.2239ZM190.888 5.98687C188.24 5.98687 185.924 8.30341 185.924 10.9509V56.9505C185.924 59.598 188.24 61.9145 190.888 61.9145H269.312C271.959 61.9145 274.275 59.598 274.275 56.9505V10.9509C274.275 8.30341 271.959 5.98687 269.312 5.98687H190.888Z" fill="black"></path><path d="M269.312 66.8787H190.888C185.263 66.8787 180.63 62.2457 180.63 56.6198V10.6202C180.63 4.9943 185.263 0.361328 190.888 0.361328H269.312C274.937 0.361328 279.57 4.9943 279.57 10.6202V56.6198C279.239 62.5766 274.937 66.8787 269.312 66.8787ZM190.888 4.0015C187.248 4.0015 183.939 6.98002 183.939 10.9512V56.9507C183.939 60.5909 186.917 63.9004 190.888 63.9004H269.312C272.952 63.9004 276.261 60.9219 276.261 56.9507V10.9512C276.261 7.31095 273.283 4.0015 269.312 4.0015H190.888ZM269.312 63.5693H190.888C187.248 63.5693 184.27 60.5909 184.27 56.9507V10.9512C184.27 7.31095 187.248 4.33256 190.888 4.33256H269.312C272.952 4.33256 275.93 7.31095 275.93 10.9512V56.9507C275.93 60.5909 272.952 63.5693 269.312 63.5693ZM190.888 7.64188C188.902 7.64188 187.579 8.96561 187.579 10.9512V56.9507C187.579 58.9363 188.902 60.26 190.888 60.26H269.312C271.297 60.26 272.621 58.9363 272.621 56.9507V10.9512C272.621 8.96561 271.297 7.64188 269.312 7.64188H190.888Z" fill="black"></path><path d="M56.5404 108.576C56.2095 108.245 55.5477 107.914 55.2168 107.914C54.555 107.914 54.2241 108.245 53.8932 108.576L48.5987 116.849L45.6206 113.54C45.2897 113.209 44.6279 112.878 44.297 112.878C43.6352 112.878 43.3042 113.209 42.9733 113.54L38.0098 121.151H65.1439L56.5404 108.576Z" fill="#4C4B4C"></path><path d="M45.2905 110.23C47.2759 110.23 48.5995 108.576 48.5995 106.921C48.5995 104.936 46.945 103.612 45.2905 103.612C43.3051 103.612 41.9814 105.266 41.9814 106.921C41.9814 108.907 43.3051 110.23 45.2905 110.23Z" fill="#4C4B4C"></path><path d="M89.2999 144.316H10.876C6.24332 144.316 2.27246 140.345 2.27246 135.712V89.7126C2.27246 85.0795 6.24332 81.1084 10.876 81.1084H89.2999C93.9326 81.1084 97.9034 85.0795 97.9034 89.7126V135.712C97.5725 140.345 93.9326 144.316 89.2999 144.316ZM10.876 84.7486C8.22874 84.7486 5.91242 87.0651 5.91242 89.7126V135.712C5.91242 138.36 8.22874 140.676 10.876 140.676H89.2999C91.9472 140.676 94.2635 138.36 94.2635 135.712V89.7126C94.2635 87.0651 91.9472 84.7486 89.2999 84.7486H10.876Z" fill="black"></path><path d="M89.3003 145.971H10.8762C5.25084 145.971 0.618164 141.338 0.618164 135.712V89.7124C0.618164 84.0866 5.25084 79.4536 10.8762 79.4536H89.3003C94.9257 79.4536 99.5583 84.0866 99.5583 89.7124V135.712C99.2274 141.338 94.9257 145.971 89.3003 145.971ZM10.8762 82.7629C7.23626 82.7629 3.9272 85.7412 3.9272 89.7124V135.712C3.9272 139.352 6.90535 142.662 10.8762 142.662H89.3003C92.9403 142.662 96.2493 139.683 96.2493 135.712V89.7124C96.2493 86.0722 93.2712 82.7629 89.3003 82.7629H10.8762ZM89.3003 142.331H10.8762C7.23626 142.331 4.25812 139.352 4.25812 135.712V89.7124C4.25812 86.0722 7.23626 83.0938 10.8762 83.0938H89.3003C92.9403 83.0938 95.9184 86.0722 95.9184 89.7124V135.712C95.9184 139.352 92.9403 142.331 89.3003 142.331ZM10.8762 86.4031C8.89078 86.4031 7.56716 87.7268 7.56716 89.7124V135.712C7.56716 137.698 8.89078 139.021 10.8762 139.021H89.3003C91.2857 139.021 92.6094 137.698 92.6094 135.712V89.7124C92.6094 87.7268 91.2857 86.4031 89.3003 86.4031H10.8762Z" fill="black"></path><path d="M235.229 102.619C234.898 102.288 234.236 101.957 233.905 101.957C233.243 101.957 232.912 102.288 232.582 102.619L227.287 110.892L224.309 107.583C223.978 107.252 223.316 106.921 222.985 106.921C222.324 106.921 221.993 107.252 221.662 107.583L216.698 115.194H243.832L235.229 102.619Z" fill="#4C4B4C"></path><path d="M223.979 104.274C225.964 104.274 227.288 102.619 227.288 100.965C227.288 98.979 225.633 97.6553 223.979 97.6553C221.993 97.6553 220.669 99.3099 220.669 100.965C220.669 102.95 221.993 104.274 223.979 104.274Z" fill="#4C4B4C"></path><path d="M269.312 138.36H190.888C186.255 138.36 182.284 134.389 182.284 129.756V83.7562C182.284 79.1232 186.255 75.1519 190.888 75.1519H269.312C273.944 75.1519 277.915 79.1232 277.915 83.7562V129.756C277.584 134.72 273.944 138.36 269.312 138.36ZM190.888 78.7922C188.24 78.7922 185.924 81.1088 185.924 83.7562V129.756C185.924 132.403 188.24 134.72 190.888 134.72H269.312C271.959 134.72 274.275 132.403 274.275 129.756V83.7562C274.275 81.1088 271.959 78.7922 269.312 78.7922H190.888Z" fill="black"></path><path d="M269.312 140.015H190.888C185.263 140.015 180.63 135.381 180.63 129.756V83.7561C180.63 78.1302 185.263 73.4971 190.888 73.4971H269.312C274.937 73.4971 279.57 78.1302 279.57 83.7561V129.756C279.239 135.381 274.937 140.015 269.312 140.015ZM190.888 77.1375C187.248 77.1375 183.939 80.1158 183.939 84.087V130.087C183.939 133.727 186.917 137.036 190.888 137.036H269.312C272.952 137.036 276.261 134.058 276.261 130.087V84.087C276.261 80.4467 273.283 77.1375 269.312 77.1375H190.888ZM269.312 136.374H190.888C187.248 136.374 184.27 133.396 184.27 129.756V83.7561C184.27 80.1158 187.248 77.1375 190.888 77.1375H269.312C272.952 77.1375 275.93 80.1158 275.93 83.7561V129.756C275.93 133.396 272.952 136.374 269.312 136.374ZM190.888 80.4468C188.902 80.4468 187.579 81.7705 187.579 83.7561V129.756C187.579 131.741 188.902 133.065 190.888 133.065H269.312C271.297 133.065 272.621 131.741 272.621 129.756V83.7561C272.621 81.7705 271.297 80.4468 269.312 80.4468H190.888Z" fill="black"></path><path d="M235.229 177.079C234.898 176.748 234.236 176.417 233.905 176.417C233.243 176.417 232.912 176.748 232.582 177.079L227.287 185.352L224.309 182.043C223.978 181.712 223.316 181.381 222.985 181.381C222.324 181.381 221.993 181.712 221.662 182.043L216.698 189.654H243.832L235.229 177.079Z" fill="#4C4B4C"></path><path d="M223.979 178.733C225.964 178.733 227.288 177.079 227.288 175.424C227.288 173.438 225.633 172.115 223.979 172.115C221.993 172.115 220.669 173.769 220.669 175.424C220.669 177.079 221.993 178.733 223.979 178.733Z" fill="#4C4B4C"></path><path d="M269.312 212.82H190.888C186.255 212.82 182.284 208.848 182.284 204.215V158.216C182.284 153.583 186.255 149.611 190.888 149.611H269.312C273.944 149.611 277.915 153.583 277.915 158.216V204.215C277.584 208.848 273.944 212.82 269.312 212.82ZM190.888 153.252C188.24 153.252 185.924 155.568 185.924 158.216V204.215C185.924 206.863 188.24 209.179 190.888 209.179H269.312C271.959 209.179 274.275 206.863 274.275 204.215V158.216C274.275 155.568 271.959 153.252 269.312 153.252H190.888Z" fill="black"></path><path d="M269.312 214.475H190.888C185.263 214.475 180.63 209.841 180.63 204.216V158.216C180.63 152.59 185.263 147.957 190.888 147.957H269.312C274.937 147.957 279.57 152.59 279.57 158.216V204.216C279.239 209.841 274.937 214.475 269.312 214.475ZM190.888 151.266C187.248 151.266 183.939 154.245 183.939 158.216V204.216C183.939 207.856 186.917 211.165 190.888 211.165H269.312C272.952 211.165 276.261 208.187 276.261 204.216V158.216C276.261 154.576 273.283 151.266 269.312 151.266H190.888ZM269.312 210.834H190.888C187.248 210.834 184.27 207.856 184.27 204.216V158.216C184.27 154.576 187.248 151.597 190.888 151.597H269.312C272.952 151.597 275.93 154.576 275.93 158.216V204.216C275.93 207.856 272.952 210.834 269.312 210.834ZM190.888 154.907C188.902 154.907 187.579 156.23 187.579 158.216V204.216C187.579 206.201 188.902 207.525 190.888 207.525H269.312C271.297 207.525 272.621 206.201 272.621 204.216V158.216C272.621 156.23 271.297 154.907 269.312 154.907H190.888Z" fill="black"></path><path d="M116.766 68.5332C115.773 68.5332 115.112 68.2023 114.45 67.5404C113.126 66.2167 113.126 64.2313 114.45 62.9075L156.805 22.2028C158.129 20.879 160.114 20.879 161.438 22.2028C162.762 23.5265 162.762 25.5122 161.438 26.8359L119.082 67.5404C118.421 68.5332 117.759 68.5332 116.766 68.5332Z" fill="#4C4B4C"></path><path d="M159.121 181.05C158.46 181.05 157.467 180.719 157.136 180.388L117.758 146.964C116.435 145.64 116.104 143.655 117.428 142.331C118.751 141.007 120.737 140.676 122.06 142L161.438 175.424C162.761 176.748 163.092 178.734 161.769 180.057C161.107 180.719 160.114 181.05 159.121 181.05Z" fill="#4C4B4C"></path></svg> 