<?xml version="1.0" encoding="UTF-8"?> <svg xmlns="http://www.w3.org/2000/svg" width="212" height="227" viewBox="0 0 212 227" fill="none"><path d="M61.6628 92.9619H5.07836C2.76204 92.9619 0.776611 90.9762 0.776611 88.6596V4.93391C0.776611 2.61739 2.76204 0.631836 5.07836 0.631836H61.6628C63.9792 0.631836 65.9646 2.61739 65.9646 4.93391V88.6596C65.9646 90.9762 63.9792 92.9619 61.6628 92.9619ZM7.39468 86.3433H59.3465V7.25047H7.39468V86.3433Z" fill="black"></path><path d="M207.592 92.9619H151.007C148.691 92.9619 146.705 90.9762 146.705 88.6596V4.93391C146.705 2.61739 148.691 0.631836 151.007 0.631836H207.592C209.908 0.631836 211.893 2.61739 211.893 4.93391V88.6596C211.893 90.9762 209.908 92.9619 207.592 92.9619ZM153.323 86.3433H205.275V7.25047H153.323V86.3433Z" fill="black"></path><path d="M207.592 176.357H151.007C148.691 176.357 146.705 174.371 146.705 172.055V105.537C146.705 103.221 148.691 101.235 151.007 101.235H207.592C209.908 101.235 211.893 103.221 211.893 105.537V172.055C211.893 174.371 209.908 176.357 207.592 176.357ZM153.323 169.738H205.275V107.854H153.323V169.738Z" fill="black"></path><path d="M61.6628 153.853H5.07836C2.76204 153.853 0.776611 151.868 0.776611 149.551V105.537C0.776611 103.221 2.76204 101.235 5.07836 101.235H61.6628C63.9792 101.235 65.9646 103.221 65.9646 105.537V149.551C65.9646 152.199 63.9792 153.853 61.6628 153.853ZM7.39468 147.235H59.3465V107.854H7.39468V147.235Z" fill="black"></path><path d="M207.592 226.328H151.007C148.691 226.328 146.705 224.343 146.705 222.026V188.933C146.705 186.617 148.691 184.631 151.007 184.631H207.592C209.908 184.631 211.893 186.617 211.893 188.933V222.026C211.893 224.343 209.908 226.328 207.592 226.328ZM153.323 219.71H205.275V191.581H153.323V219.71Z" fill="black"></path><path d="M134.462 53.2501H77.8772C75.5609 53.2501 73.5754 51.2644 73.5754 48.9478V4.93391C73.5754 2.61739 75.5609 0.631836 77.8772 0.631836H134.462C136.778 0.631836 138.763 2.61739 138.763 4.93391V48.9478C138.763 51.5953 136.778 53.2501 134.462 53.2501ZM80.1935 46.6315H132.145V7.25048H80.1935V46.6315Z" fill="black"></path><path d="M134.462 110.833H77.8772C75.5609 110.833 73.5754 108.847 73.5754 106.531V67.1497C73.5754 64.8332 75.5609 62.8477 77.8772 62.8477H134.462C136.778 62.8477 138.763 64.8332 138.763 67.1497V106.531C138.763 108.847 136.778 110.833 134.462 110.833ZM80.1935 104.214H132.145V69.4663H80.1935V104.214Z" fill="black"></path><path d="M61.6628 226.328H5.07836C2.76204 226.328 0.776611 224.342 0.776611 222.026V166.76C0.776611 164.443 2.76204 162.458 5.07836 162.458H61.6628C63.9792 162.458 65.9646 164.443 65.9646 166.76V222.026C65.9646 224.342 63.9792 226.328 61.6628 226.328ZM7.39468 219.709H59.3465V169.076H7.39468V219.709Z" fill="black"></path><path d="M134.462 226.328H77.8772C75.5609 226.328 73.5754 224.343 73.5754 222.026V123.408C73.5754 121.092 75.5609 119.106 77.8772 119.106H134.462C136.778 119.106 138.763 121.092 138.763 123.408V222.026C138.763 224.343 136.778 226.328 134.462 226.328ZM80.1935 219.71H132.145V125.725H80.1935V219.71Z" fill="black"></path></svg> 