<?xml version="1.0" encoding="UTF-8"?> <svg xmlns="http://www.w3.org/2000/svg" width="237" height="224" viewBox="0 0 237 224" fill="none"><path d="M232.745 40.7261H3.46436V178.851H232.745V40.7261Z" fill="#C3B68F"></path><path d="M106.496 85.7195C106.496 85.9614 106.254 85.9613 106.254 85.9613C106.012 85.9613 106.012 85.9614 106.012 85.7195V78.2205H103.11C102.868 78.2205 102.868 77.9787 102.868 77.9787C102.868 77.7368 102.868 77.7367 103.11 77.7367H109.156C109.398 77.7367 109.398 77.9787 109.398 77.9787C109.398 78.2206 109.398 78.2205 109.156 78.2205H106.496V85.7195Z" fill="black"></path><path d="M106.254 86.2031C105.77 86.2031 105.528 85.9613 105.528 85.4775V78.2205H103.11C102.626 78.2205 102.384 77.9786 102.384 77.4948C102.384 77.011 102.626 76.7692 103.11 76.7692H109.156C109.64 76.7692 109.882 77.011 109.882 77.4948C109.882 77.7367 109.64 78.2205 109.156 78.2205H106.738V85.4775C106.98 86.2032 106.496 86.2031 106.254 86.2031ZM103.11 77.9787H106.012V85.7194V77.9787H108.914H103.11Z" fill="black"></path><path d="M116.654 77.4948C119.073 77.4948 121.008 79.4299 121.008 81.8489C121.008 84.2679 119.073 86.2031 116.654 86.2031C114.236 86.2031 112.301 84.5098 112.301 81.8489C112.301 79.188 114.236 77.4948 116.654 77.4948ZM116.654 85.4775C118.589 85.4775 120.282 83.7841 120.282 81.8489C120.282 79.9137 118.831 78.2204 116.654 78.2204C114.719 78.2204 113.026 79.9137 113.026 81.8489C113.026 83.7841 114.719 85.4775 116.654 85.4775Z" fill="black"></path><path d="M116.654 86.2031C113.993 86.2031 112.059 84.268 112.059 81.6071C112.059 78.9462 113.993 77.011 116.654 77.011C119.314 77.011 121.249 78.9462 121.249 81.6071C121.249 84.268 119.314 86.2031 116.654 86.2031ZM116.654 77.7367C114.235 77.7367 112.542 79.43 112.542 81.849C112.542 84.268 114.235 85.9613 116.654 85.9613C118.831 85.9613 120.765 84.268 120.765 81.849C120.765 79.43 119.072 77.7367 116.654 77.7367ZM116.654 85.7194C114.477 85.7194 112.784 84.0261 112.784 81.849C112.784 79.6719 114.477 77.9786 116.654 77.9786C118.831 77.9786 120.524 79.6719 120.524 81.849C120.524 84.0261 118.831 85.7194 116.654 85.7194ZM116.654 78.2205C114.719 78.2205 113.268 79.6719 113.268 81.6071C113.268 83.5423 114.719 84.9936 116.654 84.9936C118.589 84.9936 120.04 83.5423 120.04 81.6071C120.04 79.6719 118.589 78.2205 116.654 78.2205Z" fill="black"></path><path d="M125.119 85.7195C125.119 85.9614 124.877 85.9613 124.877 85.9613C124.635 85.9613 124.635 85.9614 124.635 85.7195V78.7043C124.635 78.4624 124.635 77.7367 125.602 77.7367H126.812C127.537 77.7367 128.021 77.7368 128.505 77.9787C129.472 78.4625 129.714 79.6719 129.714 80.1557C129.714 80.8814 129.472 81.849 128.505 82.3328C128.021 82.5747 127.537 82.5747 126.812 82.5747H125.36V85.7195H125.119ZM126.328 81.6072C127.053 81.6072 128.505 81.6071 128.505 79.9138C128.505 78.2206 127.053 78.2205 126.328 78.2205H125.602C125.36 78.2205 125.119 78.2206 125.119 78.7043V81.849H126.328V81.6072Z" fill="black"></path><path d="M124.877 86.2031C124.393 86.2031 124.151 85.9613 124.151 85.4775V78.7044C124.151 77.7368 124.635 77.2531 125.361 77.2531H126.57C127.296 77.2531 127.779 77.2529 128.505 77.7367C129.714 78.4624 129.714 79.6719 129.714 80.1557C129.714 81.3652 129.23 82.0909 128.505 82.5747C128.021 82.8166 127.296 82.8167 126.57 82.8167H125.603V85.9613C125.361 86.2032 125.119 86.2031 124.877 86.2031ZM125.361 77.9787C124.877 77.9787 124.635 78.2206 124.635 78.7044V85.7194V82.091H126.328C127.054 82.091 127.537 82.0909 127.779 81.849C128.505 81.6071 128.747 80.8814 128.747 79.9139C128.747 79.4301 128.505 78.4624 127.779 78.2206C127.296 77.9787 126.812 77.9787 126.328 77.9787H125.361V77.9787ZM126.328 82.091H124.877V78.7044C124.877 77.9787 125.361 77.9787 125.603 77.9787H126.328C127.054 77.9787 128.989 77.9786 128.989 80.1557C128.989 82.0909 127.296 82.091 126.328 82.091ZM125.361 81.3652H126.328C127.296 81.3652 128.263 81.3652 128.263 79.9139C128.263 78.4625 127.296 78.4625 126.328 78.4625H125.603V81.3652H125.361Z" fill="black"></path><path d="M96.8214 111.361L95.854 113.78C95.854 114.022 95.854 114.022 95.6121 114.022C95.3703 114.022 95.1284 114.022 95.1284 113.78V113.538L98.2726 105.797C98.2726 105.555 98.5144 105.313 98.7563 105.313C99.24 105.313 99.24 105.555 99.24 105.797L102.142 113.538V113.78C102.142 114.022 101.9 114.022 101.659 114.022C101.417 114.022 101.417 113.78 101.417 113.78L100.449 111.361H96.8214ZM100.449 110.877L98.7563 106.523L97.0633 110.877H100.449Z" fill="black"></path><path d="M101.901 114.505C101.417 114.505 101.417 114.264 101.175 114.022L100.208 111.603H96.5797L95.6123 113.78C95.6123 114.022 95.3704 114.264 94.8867 114.264C94.6449 114.264 94.1611 114.022 94.1611 113.538V113.296L97.3053 105.555C97.5471 105.071 97.789 104.829 98.0308 104.829C98.5145 104.829 98.7564 105.071 98.7564 105.555L101.659 113.296C101.659 113.538 101.659 113.538 101.659 113.78C102.626 114.264 102.384 114.505 101.901 114.505ZM96.5797 111.119H100.933L101.901 113.78L98.7564 106.039C98.7564 106.039 98.7564 105.797 98.5146 105.797L100.449 111.119H96.5797L98.5146 105.797C98.5146 105.797 98.5146 105.797 98.2727 106.039L95.1285 113.78V114.022L96.5797 111.119ZM97.5471 110.635H100.208L98.9983 107.248L97.5471 110.635Z" fill="black"></path><path d="M106.496 114.022C105.529 114.022 105.529 113.296 105.529 113.054V106.765C105.529 106.523 105.529 105.797 106.496 105.797H107.947C108.673 105.797 110.608 105.797 110.608 107.732C110.608 108.942 109.882 109.426 109.399 109.667C109.882 109.909 110.85 110.151 110.85 111.845C110.85 114.022 108.673 114.022 107.947 114.022H106.496V114.022ZM108.189 109.426C108.673 109.426 110.124 109.426 110.124 107.974C110.124 106.523 108.915 106.523 107.947 106.523H106.738C106.496 106.523 106.254 106.523 106.254 107.007V109.667H108.189V109.426ZM106.254 113.054C106.254 113.296 106.496 113.538 106.738 113.538H108.189C108.915 113.538 110.608 113.538 110.608 111.845C110.608 110.151 108.915 110.151 108.431 110.151H106.496V113.054H106.254Z" fill="black"></path><path d="M108.189 114.505H106.496C105.77 114.505 105.287 114.022 105.287 113.054V106.765C105.287 105.797 105.77 105.313 106.496 105.313H107.947C108.673 105.313 111.091 105.313 111.091 107.732C111.091 108.7 110.608 109.184 110.124 109.667C110.608 109.909 111.333 110.635 111.333 111.845C111.333 113.538 110.366 114.505 108.189 114.505ZM106.496 106.039C106.012 106.039 105.77 106.281 105.77 106.765V113.054C105.77 113.538 105.77 113.78 106.496 113.78H108.189C109.398 113.78 110.849 113.538 110.849 111.845C110.849 111.119 110.608 110.635 110.366 110.393C110.608 110.635 110.849 111.119 110.849 111.845C110.849 113.78 108.915 113.78 108.189 113.78H106.738C106.496 113.78 106.012 113.78 106.012 113.054V106.765C106.012 106.281 106.254 106.039 106.496 106.039H107.947C108.915 106.039 110.366 106.039 110.366 107.732C110.366 107.974 110.366 108.458 110.124 108.7C110.366 108.458 110.366 108.216 110.366 107.732C110.366 106.281 109.156 106.039 107.947 106.039H106.496ZM106.496 113.054C106.496 113.054 106.738 113.054 106.496 113.054H107.947C108.915 113.054 110.124 113.054 110.124 111.845C110.124 110.635 109.156 110.393 108.189 110.393H106.496V113.054ZM108.189 109.667C108.431 109.667 108.673 109.667 108.915 109.667L109.156 109.426C108.673 109.668 108.431 109.667 108.189 109.667ZM106.496 109.184H107.947C108.673 109.184 109.64 108.942 109.64 107.974C109.64 107.006 108.915 106.765 107.705 106.765H106.496V109.184V109.184Z" fill="black"></path><path d="M118.347 105.555C120.765 105.555 122.7 107.49 122.7 109.909C122.7 112.328 120.765 114.264 118.347 114.264C115.928 114.264 113.993 112.57 113.993 109.909C113.993 107.248 115.928 105.555 118.347 105.555ZM118.347 113.538C120.281 113.538 121.974 111.845 121.974 109.909C121.974 107.974 120.523 106.281 118.347 106.281C116.412 106.281 114.719 107.974 114.719 109.909C114.719 112.087 116.412 113.538 118.347 113.538Z" fill="black"></path><path d="M118.347 114.505C115.686 114.505 113.751 112.57 113.751 109.909C113.751 107.249 115.686 105.313 118.347 105.313C121.007 105.313 122.942 107.249 122.942 109.909C122.942 112.57 121.007 114.505 118.347 114.505ZM118.347 106.039C115.928 106.039 114.235 107.732 114.235 110.151C114.235 112.57 115.928 114.264 118.347 114.264C120.523 114.264 122.458 112.57 122.458 110.151C122.458 107.732 120.765 106.039 118.347 106.039ZM118.347 114.022C116.17 114.022 114.477 112.328 114.477 110.151C114.477 107.974 116.17 106.281 118.347 106.281C120.523 106.281 122.216 107.974 122.216 110.151C122.216 112.328 120.523 114.022 118.347 114.022ZM118.347 106.523C116.412 106.523 114.961 107.974 114.961 109.909C114.961 111.845 116.412 113.296 118.347 113.296C120.282 113.296 121.733 111.845 121.733 109.909C121.733 107.974 120.282 106.523 118.347 106.523Z" fill="black"></path><path d="M126.086 106.039C126.086 105.797 126.328 105.797 126.328 105.797C126.57 105.797 126.57 105.797 126.57 106.039V110.635C126.57 111.845 126.57 113.78 129.23 113.78C131.891 113.78 131.891 111.845 131.891 110.635V106.039C131.891 105.797 132.133 105.797 132.133 105.797C132.375 105.797 132.375 105.797 132.375 106.039V110.635C132.375 111.845 132.375 114.505 128.989 114.505C125.603 114.505 125.603 112.087 125.603 110.635V106.039H126.086Z" fill="black"></path><path d="M129.714 114.505C126.086 114.505 126.086 111.603 126.086 110.393V105.797C126.086 105.313 126.328 105.071 126.812 105.071C127.296 105.071 127.538 105.313 127.538 105.797V110.393C127.538 111.845 127.779 113.296 129.956 113.296C132.133 113.296 132.375 111.845 132.375 110.393V105.797C132.375 105.313 132.617 105.071 133.1 105.071C133.584 105.071 133.826 105.313 133.826 105.797V110.393C133.342 111.603 133.342 114.505 129.714 114.505ZM126.57 106.039V110.635C126.57 112.328 127.054 114.022 129.714 114.022C132.375 114.022 132.858 112.328 132.858 110.635V106.039V110.635C132.858 111.845 132.858 114.022 129.714 114.022C126.57 114.022 126.57 111.603 126.57 110.635V106.039Z" fill="black"></path><path d="M139.872 114.022C139.872 114.264 139.63 114.264 139.63 114.264C139.388 114.264 139.388 114.264 139.388 114.022V106.523H136.728C136.486 106.523 136.486 106.281 136.486 106.281C136.486 106.039 136.486 106.039 136.728 106.039H142.774C143.016 106.039 143.016 106.281 143.016 106.281C143.016 106.523 143.016 106.523 142.774 106.523H140.114V114.022H139.872Z" fill="black"></path><path d="M139.63 114.505C139.146 114.505 138.904 114.264 138.904 113.78V106.523H136.486C136.002 106.523 135.76 106.281 135.76 105.797C135.76 105.313 136.002 105.071 136.486 105.071H142.532C143.016 105.071 143.258 105.313 143.258 105.797C143.258 106.039 143.016 106.523 142.532 106.523H140.114V113.78C140.114 114.264 139.872 114.505 139.63 114.505ZM136.486 106.039H139.388V113.78V106.039H142.29H136.486Z" fill="black"></path><path d="M91.9843 141.598C92.468 141.84 92.9517 141.84 93.4354 141.84C94.4028 141.84 95.6121 141.356 95.6121 140.147C95.6121 138.937 94.6447 138.695 93.9191 138.212C92.9517 137.97 91.7425 137.486 91.7425 136.035C91.7425 134.825 92.7099 133.857 94.161 133.857C94.6447 133.857 95.1284 134.099 95.6121 134.099C95.6121 134.099 95.854 134.099 95.854 134.341C95.854 134.583 95.6121 134.583 95.6121 134.583H95.3703C95.1284 134.583 94.6447 134.341 94.161 134.341C92.9517 134.341 92.468 135.067 92.468 136.035C92.468 137.002 93.4354 137.486 94.161 137.728C95.1284 137.97 96.3376 138.454 96.3376 140.147C96.3376 141.598 95.1284 142.566 93.4354 142.566C92.468 142.566 91.7425 142.324 91.5006 142.082C91.2588 142.082 91.2588 141.84 91.2588 141.84C91.2588 141.598 91.5006 141.598 91.5006 141.598C91.7425 141.356 91.7425 141.356 91.9843 141.598Z" fill="black"></path><path d="M93.6773 142.808C92.7099 142.808 91.9843 142.566 91.7425 142.324C91.5006 142.082 91.2588 141.84 91.2588 141.598C91.2588 141.356 91.5006 140.873 91.9843 140.873C91.9843 140.873 92.2262 140.873 92.4681 141.114C92.9518 141.356 93.4355 141.356 93.9192 141.356C94.161 141.356 95.854 141.356 95.854 139.905C95.854 138.937 95.3703 138.695 94.161 138.454C93.1936 138.212 91.7425 137.728 91.7425 136.035C91.7425 134.825 92.7099 133.374 94.4029 133.374C94.8866 133.374 95.6122 133.615 96.0959 133.857C96.0959 133.857 96.5796 134.099 96.5796 134.341C96.5796 134.583 96.3377 135.067 95.854 135.067C95.6122 135.067 95.6122 135.067 95.3703 134.825C95.1285 134.825 94.8866 134.583 94.4029 134.583C93.4354 134.583 92.9518 135.309 92.9518 135.793C92.9518 136.518 93.4354 136.76 94.4029 137.244C95.3703 137.728 96.8214 138.212 96.8214 139.905C96.8214 141.84 95.3703 142.808 93.6773 142.808ZM91.7425 141.598C91.7425 141.598 91.7425 141.84 91.7425 141.598C92.2262 141.84 92.7099 142.082 93.6773 142.082C94.8866 142.082 96.0959 141.598 96.0959 140.147C96.0959 138.937 95.1285 138.454 94.161 137.97C93.1936 137.728 92.2262 137.244 92.2262 136.035C92.2262 135.067 92.9518 134.099 94.161 134.099C94.6447 134.099 95.1285 134.341 95.3703 134.341C95.6122 134.341 95.6121 134.341 95.6121 134.341C95.1284 134.099 94.6447 134.099 94.161 134.099C92.7099 134.099 91.9843 135.067 91.9843 136.035C91.9843 137.244 92.9517 137.486 93.9192 137.97C94.8866 138.212 95.854 138.695 95.854 140.147C95.854 141.598 94.6447 142.082 93.4355 142.082C92.9518 142.082 92.2262 141.84 91.7425 141.598V141.598C91.7425 141.598 91.7425 141.84 91.7425 141.598Z" fill="black"></path><path d="M104.319 137.728C104.561 137.728 104.561 137.97 104.561 137.97C104.561 138.212 104.561 138.212 104.319 138.212H100.691V141.114C100.691 141.356 100.933 141.598 101.175 141.598H104.803C105.045 141.598 105.045 141.84 105.045 141.84C105.045 142.082 105.045 142.082 104.803 142.082H100.933C99.9658 142.082 99.9658 141.356 99.9658 141.114V134.825C99.9658 134.583 99.9658 133.857 100.933 133.857H104.561C104.803 133.857 104.803 134.099 104.803 134.099C104.803 134.341 104.803 134.341 104.561 134.341H100.933C100.691 134.341 100.45 134.341 100.45 134.825V137.486H104.319V137.728Z" fill="black"></path><path d="M104.803 142.566H100.933C100.207 142.566 99.7236 142.082 99.7236 141.114V134.825C99.7236 133.857 100.207 133.374 100.933 133.374H104.561C105.044 133.374 105.286 133.616 105.286 134.099C105.286 134.341 105.044 134.825 104.561 134.825H100.933V137.244H104.319C104.803 137.244 104.803 137.486 104.803 137.97C104.803 138.453 104.561 138.695 104.319 138.695H100.933V141.356H104.561C105.044 141.356 105.286 141.598 105.286 142.082C105.286 142.324 105.044 142.566 104.803 142.566ZM100.933 134.341C100.449 134.341 100.207 134.583 100.207 135.067V141.356C100.207 141.84 100.207 142.082 100.933 142.082H104.803H101.175C100.933 142.082 100.449 142.082 100.449 141.356V138.212H104.319H100.449V135.309C100.449 134.583 100.691 134.341 100.933 134.341H104.561H100.933Z" fill="black"></path><path d="M113.268 141.84C113.268 142.082 113.51 142.082 113.51 142.082C113.51 142.324 113.268 142.324 113.268 142.324C113.026 142.324 113.026 142.324 113.026 142.082L110.123 138.454H109.156V142.082C109.156 142.324 108.914 142.324 108.914 142.324C108.672 142.324 108.672 142.324 108.672 142.082V135.067C108.672 134.825 108.672 134.099 109.64 134.099H111.091C112.784 134.099 113.51 135.067 113.51 136.276C113.51 137.244 113.026 138.454 111.091 138.454L113.268 141.84ZM110.365 137.97C110.849 137.97 112.542 137.97 112.542 136.276C112.542 134.583 111.091 134.583 110.365 134.583H109.398C109.156 134.583 108.914 134.583 108.914 135.067V137.97H110.365Z" fill="black"></path><path d="M113.026 142.808C112.784 142.808 112.542 142.566 112.542 142.566L109.882 138.937H109.398V142.324C109.398 142.808 109.156 143.05 108.672 143.05C108.189 143.05 107.947 142.808 107.947 142.324V135.309C107.947 134.341 108.43 133.857 109.156 133.857H110.607C112.542 133.857 113.268 135.067 113.268 136.518C113.268 137.728 112.784 138.695 111.091 138.937L113.268 141.84L113.026 142.082L113.268 141.84C113.268 142.082 113.51 142.082 113.51 142.324C113.751 142.566 113.51 142.808 113.026 142.808ZM108.672 138.212H110.123L113.026 142.082L113.268 141.84L113.026 142.082L110.123 138.212H110.607C112.542 138.212 112.784 136.76 112.784 136.276C112.784 135.067 112.058 134.341 110.607 134.341H109.156C108.672 134.341 108.43 134.583 108.43 135.067V142.082L108.672 138.212ZM110.365 138.212H108.672V135.067C108.672 134.583 108.914 134.341 109.398 134.341H110.365C110.849 134.341 112.784 134.341 112.784 136.276C112.784 137.486 112.058 138.212 110.365 138.212ZM109.398 137.728H110.607C111.575 137.728 112.542 137.486 112.542 136.276C112.542 135.067 111.575 135.067 110.607 135.067H109.64V137.728H109.398Z" fill="black"></path><path d="M122.701 134.099C122.701 134.099 122.701 133.857 122.942 133.857C123.184 133.857 123.426 134.099 123.426 134.099V134.341L120.282 142.082C120.282 142.324 120.04 142.566 119.798 142.566C119.556 142.566 119.315 142.324 119.315 142.082L116.17 134.341V134.099C116.17 133.858 116.412 133.857 116.654 133.857C116.896 133.857 116.896 133.858 116.896 134.099L120.04 141.84L122.701 134.099Z" fill="black"></path><path d="M119.798 142.808C119.314 142.808 119.072 142.324 119.072 142.324L115.928 134.583C115.928 134.583 115.928 134.341 115.928 134.099C115.928 133.616 116.17 133.374 116.654 133.374C117.138 133.374 117.138 133.615 117.138 133.857L119.798 140.873L122.458 133.857L122.7 134.099L122.458 133.857C122.458 133.857 122.7 133.374 122.942 133.374C123.184 133.374 123.668 133.616 123.668 134.099C123.668 134.341 123.668 134.341 123.668 134.583L120.524 142.082C120.524 142.324 120.282 142.808 119.798 142.808ZM122.7 134.099H122.942L119.798 142.082C119.798 142.082 119.798 142.082 120.04 141.84L123.184 134.099C123.184 134.099 123.184 134.099 123.184 133.857L122.7 134.099ZM116.412 134.099C116.412 134.341 116.412 134.341 116.412 134.099L119.556 141.84C119.556 141.84 119.556 142.082 119.798 142.082L116.412 134.099Z" fill="black"></path><path d="M126.812 134.341C126.812 134.099 127.053 134.099 127.053 134.099C127.295 134.099 127.295 134.341 127.295 134.341V142.324C127.295 142.566 127.053 142.566 127.053 142.566C126.812 142.566 126.812 142.324 126.812 142.324V134.341Z" fill="black"></path><path d="M127.054 142.808C126.57 142.808 126.328 142.566 126.328 142.082V134.341C126.328 133.857 126.57 133.616 127.054 133.616C127.537 133.616 127.779 133.857 127.779 134.341V142.324C127.779 142.566 127.537 142.808 127.054 142.808ZM127.054 134.099V142.082V134.099Z" fill="black"></path><path d="M131.165 138.212C131.165 135.793 132.858 133.857 135.518 133.857C136.486 133.857 137.211 134.099 137.695 134.341C137.937 134.341 137.937 134.583 137.937 134.583C137.937 134.825 137.695 134.825 137.695 134.825C137.695 134.825 137.453 134.825 137.453 134.583C136.728 134.099 136.002 134.099 135.76 134.099C133.584 134.099 132.132 135.793 132.132 137.728C132.132 139.421 133.342 141.356 136.002 141.356C136.728 141.356 137.211 141.114 137.695 141.114C137.695 141.114 137.937 140.873 138.179 140.873C138.179 140.873 138.421 140.872 138.421 141.114C138.421 141.356 138.179 141.356 138.179 141.356C137.453 141.84 136.486 141.84 135.76 141.84C132.616 142.566 131.165 140.631 131.165 138.212Z" fill="black"></path><path d="M135.519 142.808C132.616 142.808 130.682 140.872 130.682 138.212C130.682 135.551 132.617 133.616 135.277 133.616C136.244 133.616 136.97 133.857 137.695 134.341C137.937 134.583 137.937 134.825 137.937 134.825C137.937 135.067 137.695 135.551 137.212 135.551C136.97 135.551 136.97 135.551 136.728 135.309C136.002 134.825 135.277 134.825 135.035 134.825C133.1 134.825 131.649 136.276 131.649 138.212C131.649 139.905 132.616 141.598 135.035 141.598C135.761 141.598 136.244 141.356 136.728 141.356C136.97 141.115 137.212 141.114 137.212 141.114C137.454 141.114 137.695 141.356 137.695 141.84C137.695 142.082 137.695 142.324 137.212 142.324C136.97 142.808 136.002 142.808 135.519 142.808ZM135.519 134.099C133.1 134.099 131.407 135.793 131.407 138.212C131.407 140.147 132.616 142.324 135.519 142.324C136.002 142.324 136.97 142.324 137.695 141.84H137.454C137.454 141.84 137.454 141.84 137.212 141.84C136.728 142.082 136.244 142.082 135.277 142.082C132.375 142.082 131.165 139.905 131.165 138.212C131.407 135.793 133.1 134.099 135.519 134.099C136.002 134.099 136.728 134.099 137.454 134.583H137.695C136.97 134.341 136.244 134.099 135.519 134.099Z" fill="black"></path><path d="M145.677 137.728C145.919 137.728 145.919 137.97 145.919 137.97C145.919 138.212 145.919 138.212 145.677 138.212H142.049V141.114C142.049 141.356 142.291 141.598 142.533 141.598H146.16C146.402 141.598 146.402 141.84 146.402 141.84C146.402 142.082 146.402 142.082 146.16 142.082H142.291C141.323 142.082 141.323 141.356 141.323 141.114V134.825C141.323 134.583 141.323 133.857 142.291 133.857H145.919C146.16 133.857 146.16 134.099 146.16 134.099C146.16 134.341 146.16 134.341 145.919 134.341H142.291C142.049 134.341 141.807 134.341 141.807 134.825V137.486H145.677V137.728Z" fill="black"></path><path d="M146.161 142.566H142.291C141.565 142.566 141.082 142.082 141.082 141.114V134.825C141.082 133.857 141.565 133.374 142.291 133.374H145.919C146.402 133.374 146.644 133.616 146.644 134.099C146.644 134.341 146.402 134.825 145.919 134.825H142.291V137.244H145.677C146.161 137.244 146.161 137.486 146.161 137.97C146.161 138.453 145.919 138.695 145.677 138.695H142.291V141.356H145.919C146.402 141.356 146.644 141.598 146.644 142.082C146.886 142.324 146.644 142.566 146.161 142.566ZM142.291 134.341C141.807 134.341 141.565 134.583 141.565 135.067V141.356C141.565 141.84 141.565 142.082 142.291 142.082H146.161H142.533C142.291 142.082 141.807 142.082 141.807 141.356V138.212H145.677H141.807V135.309C141.807 134.583 142.049 134.341 142.291 134.341H145.919H142.291Z" fill="black"></path><path d="M119.072 199.17C118.589 199.17 118.105 198.687 118.105 198.203V162.643C118.105 162.16 118.589 161.676 119.072 161.676C119.556 161.676 120.04 162.16 120.04 162.643V198.203C120.04 198.687 119.556 199.17 119.072 199.17Z" fill="black"></path><path d="M119.072 200.38C117.863 200.38 116.896 199.412 116.896 198.203V162.644C116.896 161.434 117.863 160.466 119.072 160.466C120.282 160.466 121.249 161.434 121.249 162.644V198.203C121.249 199.17 120.282 200.38 119.072 200.38Z" fill="black"></path><path d="M111.091 191.671L112.542 190.462L119.072 197.235L125.36 190.462L126.812 191.671L119.072 200.138L111.091 191.671Z" fill="black"></path><path d="M119.072 201.831L109.398 191.671L112.542 188.769L119.072 195.542L125.36 188.769L128.505 191.671L119.072 201.831Z" fill="black"></path><path d="M227.666 223.36H9.9943C4.9153 223.36 0.803711 219.248 0.803711 214.168V9.76307C0.803711 4.68318 4.9153 0.570923 9.9943 0.570923H227.666C232.745 0.570923 236.857 4.68318 236.857 9.76307V214.168C236.857 219.248 232.745 223.36 227.666 223.36ZM9.75243 5.40891C7.33386 5.40891 5.39903 7.34408 5.39903 9.76307V214.168C5.39903 216.587 7.33386 218.522 9.75243 218.522H227.424C229.843 218.522 231.778 216.587 231.778 214.168V9.76307C231.778 7.34408 229.843 5.40891 227.424 5.40891H9.75243Z" fill="black"></path><path d="M234.438 38.307H3.46436V43.1451H234.438V38.307Z" fill="black"></path><path d="M48.6919 14.601H21.1201V29.115H48.6919V14.601Z" fill="black"></path><path d="M219.927 16.5361H203.238C202.755 16.5361 202.271 16.0524 202.271 15.5686V15.3266C202.271 14.8428 202.755 14.3591 203.238 14.3591H219.927C220.41 14.3591 220.894 14.8428 220.894 15.3266V15.5686C220.894 16.2943 220.41 16.5361 219.927 16.5361Z" fill="#040000"></path><path d="M219.927 22.8257H203.238C202.755 22.8257 202.271 22.3418 202.271 21.858V21.6161C202.271 21.1323 202.755 20.6484 203.238 20.6484H219.927C220.41 20.6484 220.894 21.1323 220.894 21.6161V21.858C220.894 22.5837 220.41 22.8257 219.927 22.8257Z" fill="#040000"></path><path d="M219.927 29.115H203.238C202.755 29.115 202.271 28.6311 202.271 28.1473V27.9054C202.271 27.4216 202.755 26.9377 203.238 26.9377H219.927C220.41 26.9377 220.894 27.4216 220.894 27.9054V28.1473C220.894 28.873 220.41 29.115 219.927 29.115Z" fill="#040000"></path></svg> 