<?xml version="1.0" encoding="UTF-8"?> <svg xmlns="http://www.w3.org/2000/svg" width="286" height="224" viewBox="0 0 286 224" fill="none"><path d="M250.732 140.935C250.248 140.935 249.765 140.451 249.765 139.967V28.6934C249.765 28.2096 250.248 27.7258 250.732 27.7258C251.216 27.7258 251.699 28.2096 251.699 28.6934V139.967C251.699 140.451 251.458 140.935 250.732 140.935Z" fill="black"></path><path d="M250.732 142.144C249.523 142.144 248.555 141.177 248.555 139.967V28.6934C248.555 27.4839 249.523 26.5164 250.732 26.5164C251.941 26.5164 252.909 27.4839 252.909 28.6934V139.967C252.909 141.177 251.941 142.144 250.732 142.144Z" fill="black"></path><path d="M242.992 133.678L244.443 132.227L250.732 139.242L257.262 132.227L258.713 133.678L250.732 142.144L242.992 133.678Z" fill="black"></path><path d="M250.732 143.838L241.299 133.436L244.443 130.533L250.732 137.548L257.262 130.533L260.406 133.436L250.732 143.838Z" fill="black"></path><path d="M260.648 223.664H42.9763C37.8973 223.664 33.7856 219.552 33.7856 214.472V10.0672C33.7856 4.9873 37.8973 0.875 42.9763 0.875H260.648C265.727 0.875 269.838 4.9873 269.838 10.0672V214.472C269.838 219.552 265.727 223.664 260.648 223.664ZM42.7344 5.71299C40.3158 5.71299 38.381 7.64819 38.381 10.0672V214.472C38.381 216.891 40.3158 218.826 42.7344 218.826H260.406C262.825 218.826 264.759 216.891 264.759 214.472V10.0672C264.759 7.64819 262.825 5.71299 260.406 5.71299H42.7344Z" fill="black"></path><path d="M97.6361 106.827C97.6361 107.069 97.3942 107.069 97.3942 107.069C97.1523 107.069 97.1523 107.069 97.1523 106.827V99.3281H94.4919C94.25 99.3281 94.25 99.0863 94.25 99.0863C94.25 98.8444 94.25 98.8444 94.4919 98.8444H100.538C100.78 98.8444 100.78 99.0863 100.78 99.0863C100.78 99.3282 100.78 99.3281 100.538 99.3281H97.8779V106.827H97.6361Z" fill="black"></path><path d="M97.3942 107.311C96.9104 107.311 96.6685 107.069 96.6685 106.585V99.3281H94.25C93.7662 99.3281 93.5244 99.0862 93.5244 98.6024C93.5244 98.1186 93.7662 97.8767 94.25 97.8767H100.296C100.78 97.8767 101.022 98.1186 101.022 98.6024C101.022 98.8443 100.78 99.3281 100.296 99.3281H97.8778V106.585C98.1197 107.069 97.636 107.311 97.3942 107.311ZM94.25 98.8443H97.1523V106.585V98.8443H100.055H94.25Z" fill="black"></path><path d="M107.794 98.3605C110.213 98.3605 112.148 100.296 112.148 102.715C112.148 105.134 110.213 107.069 107.794 107.069C105.376 107.069 103.441 105.376 103.441 102.715C103.441 100.054 105.376 98.3605 107.794 98.3605ZM107.794 106.343C109.729 106.343 111.422 104.65 111.422 102.715C111.422 100.779 109.971 99.0862 107.794 99.0862C105.859 99.0862 104.166 100.779 104.166 102.715C104.166 104.892 105.859 106.343 107.794 106.343Z" fill="black"></path><path d="M107.794 107.311C105.134 107.311 103.199 105.376 103.199 102.715C103.199 100.054 105.134 98.1187 107.794 98.1187C110.454 98.1187 112.389 100.054 112.389 102.715C112.389 105.376 110.454 107.311 107.794 107.311ZM107.794 98.8444C105.375 98.8444 103.682 100.538 103.682 102.957C103.682 105.376 105.375 107.069 107.794 107.069C109.971 107.069 111.906 105.376 111.906 102.957C111.906 100.538 110.213 98.8444 107.794 98.8444ZM107.794 106.827C105.617 106.827 103.924 105.134 103.924 102.957C103.924 100.78 105.617 99.0863 107.794 99.0863C109.971 99.0863 111.664 100.78 111.664 102.957C111.664 105.134 109.971 106.827 107.794 106.827ZM107.794 99.3281C105.859 99.3281 104.408 100.78 104.408 102.715C104.408 104.65 105.859 106.101 107.794 106.101C109.729 106.101 111.18 104.65 111.18 102.715C111.18 100.78 109.729 99.3281 107.794 99.3281Z" fill="black"></path><path d="M116.259 106.827C116.259 107.069 116.017 107.069 116.017 107.069C115.775 107.069 115.775 107.069 115.775 106.827V99.5701C115.775 99.3282 115.775 98.6025 116.743 98.6025H117.952C118.678 98.6025 119.161 98.6025 119.645 98.8444C120.613 99.3282 120.854 100.538 120.854 101.022C120.854 101.747 120.613 102.715 119.645 103.199C119.161 103.441 118.678 103.441 117.952 103.441H116.501V106.827H116.259ZM117.468 102.715C118.194 102.715 119.645 102.715 119.645 101.022C119.645 99.3282 118.194 99.3282 117.468 99.3282H116.743C116.501 99.3282 116.259 99.3282 116.259 99.812V102.957H117.468V102.715Z" fill="black"></path><path d="M116.017 107.311C115.533 107.311 115.292 107.069 115.292 106.585V99.5701C115.292 98.6025 115.775 98.1187 116.501 98.1187H117.71C118.436 98.1187 118.919 98.1187 119.645 98.6025C120.854 99.3282 120.854 100.538 120.854 101.021C120.854 102.231 120.37 102.957 119.645 103.44C119.161 103.682 118.436 103.682 117.71 103.682H116.743V106.827C116.501 107.069 116.259 107.311 116.017 107.311ZM116.501 98.8444C116.017 98.8444 115.775 99.0863 115.775 99.5701V106.585V102.957H117.468C118.194 102.957 118.678 102.957 118.919 102.715C119.645 102.473 119.887 101.747 119.887 100.78C119.887 100.296 119.645 99.3282 118.919 99.0863C118.436 98.8444 117.952 98.8444 117.468 98.8444H116.501V98.8444ZM117.468 103.199H116.017V99.5701C116.017 98.8444 116.501 98.8444 116.743 98.8444H117.468C118.194 98.8444 120.129 98.8444 120.129 101.021C120.129 103.199 118.436 103.199 117.468 103.199ZM116.501 102.473H117.468C118.436 102.473 119.403 102.473 119.403 101.021C119.403 99.5701 118.436 99.5701 117.468 99.5701H116.743V102.473H116.501Z" fill="black"></path><path d="M130.287 104.408L129.319 106.827C129.319 107.069 129.319 107.069 129.077 107.069C128.836 107.069 128.594 107.069 128.594 106.827V106.585L131.738 98.8444C131.738 98.6025 131.98 98.3606 132.222 98.3606C132.705 98.3606 132.705 98.6025 132.705 98.8444L135.608 106.585V106.827C135.608 107.069 135.366 107.069 135.124 107.069C134.882 107.069 134.882 106.827 134.882 106.827L133.915 104.408H130.287ZM134.156 103.682L132.463 99.3282L130.77 103.682H134.156Z" fill="black"></path><path d="M135.608 107.311C135.124 107.311 135.124 107.069 134.882 106.827L133.915 104.408H130.287L129.803 106.827C129.803 107.069 129.561 107.311 129.078 107.311C128.836 107.311 128.352 107.069 128.352 106.585V106.343L131.496 98.6024C131.738 98.1186 131.98 97.8767 132.222 97.8767C132.705 97.8767 132.947 98.1186 132.947 98.6024L135.85 106.343C135.85 106.585 135.85 106.585 135.85 106.827C136.333 107.069 136.091 107.311 135.608 107.311ZM130.287 103.924H134.64L135.608 106.585L132.464 98.8443C132.464 98.8443 132.464 98.6024 132.222 98.6024L134.157 103.924H130.287L132.222 98.6024C132.222 98.6024 132.222 98.6024 131.98 98.8443L128.836 106.585V106.827L130.287 103.924ZM131.012 103.44H133.673L132.464 100.054L131.012 103.44Z" fill="black"></path><path d="M140.203 106.827C139.235 106.827 139.235 106.101 139.235 105.86V99.5701C139.235 99.3282 139.235 98.6025 140.203 98.6025H141.654C142.38 98.6025 144.314 98.6025 144.314 100.538C144.314 101.747 143.589 102.231 143.105 102.473C143.589 102.715 144.556 102.957 144.556 104.65C144.556 106.827 142.38 106.827 141.654 106.827H140.203V106.827ZM141.654 102.231C142.138 102.231 143.589 102.231 143.589 100.78C143.589 99.3282 142.38 99.3282 141.412 99.3282H140.203C139.961 99.3282 139.719 99.3282 139.719 99.812V102.473H141.654V102.231ZM139.961 105.86C139.961 106.101 140.203 106.343 140.445 106.343H141.896C142.621 106.343 144.314 106.343 144.314 104.65C144.314 102.957 142.621 102.957 142.138 102.957H140.203V105.86H139.961Z" fill="black"></path><path d="M141.654 107.311H139.961C139.236 107.311 138.752 106.827 138.752 105.859V99.5701C138.752 98.6025 139.236 98.1187 139.961 98.1187H141.412C142.138 98.1187 144.557 98.1187 144.557 100.538C144.557 101.505 144.073 101.989 143.589 102.473C144.073 102.715 144.798 103.44 144.798 104.65C145.04 106.343 143.831 107.311 141.654 107.311ZM140.203 98.8444C139.719 98.8444 139.477 99.0863 139.477 99.5701V105.859C139.477 106.343 139.477 106.585 140.203 106.585H141.896C143.105 106.585 144.557 106.343 144.557 104.65C144.557 103.924 144.315 103.44 144.073 103.199C144.315 103.44 144.557 103.924 144.557 104.65C144.557 106.585 142.622 106.585 141.896 106.585H140.445C140.203 106.585 139.719 106.585 139.719 105.859V99.5701C139.478 99.0863 139.961 98.8444 140.203 98.8444H141.654C142.622 98.8444 144.073 98.8443 144.073 100.538C144.073 100.78 144.073 101.263 143.831 101.505C144.073 101.263 144.073 101.021 144.073 100.538C144.073 99.0862 142.863 98.8444 141.654 98.8444H140.203ZM140.203 106.101H141.654C142.622 106.101 143.831 106.101 143.831 104.892C143.831 103.682 142.864 103.44 141.896 103.44H140.203V106.101C140.203 105.859 140.203 105.859 140.203 106.101ZM141.654 102.715C141.896 102.715 142.138 102.715 142.38 102.715L142.622 102.473C142.38 102.473 142.138 102.715 141.654 102.715ZM140.203 101.989H141.654C142.38 101.989 143.347 101.747 143.347 100.78C143.347 99.812 142.622 99.5701 141.412 99.5701H140.203V101.989Z" fill="black"></path><path d="M152.055 98.3605C154.473 98.3605 156.408 100.296 156.408 102.715C156.408 105.134 154.473 107.069 152.055 107.069C149.636 107.069 147.701 105.376 147.701 102.715C147.701 100.054 149.636 98.3605 152.055 98.3605ZM152.055 106.343C153.99 106.343 155.683 104.65 155.683 102.715C155.683 100.779 154.231 99.0862 152.055 99.0862C150.12 99.0862 148.427 100.779 148.427 102.715C148.427 104.892 150.12 106.343 152.055 106.343Z" fill="black"></path><path d="M152.054 107.311C149.394 107.311 147.459 105.376 147.459 102.715C147.459 100.054 149.394 98.1187 152.054 98.1187C154.715 98.1187 156.65 100.054 156.65 102.715C156.65 105.376 154.715 107.311 152.054 107.311ZM152.054 98.8444C149.636 98.8444 147.943 100.538 147.943 102.957C147.943 105.376 149.636 107.069 152.054 107.069C154.231 107.069 156.166 105.376 156.166 102.957C156.166 100.538 154.473 98.8444 152.054 98.8444ZM152.054 106.827C149.878 106.827 148.185 105.134 148.185 102.957C148.185 100.78 149.878 99.0863 152.054 99.0863C154.231 99.0863 155.924 100.78 155.924 102.957C155.924 105.134 154.231 106.827 152.054 106.827ZM152.054 99.3281C150.119 99.3281 148.668 100.78 148.668 102.715C148.668 104.65 150.119 106.101 152.054 106.101C153.989 106.101 155.44 104.65 155.44 102.715C155.44 100.78 153.989 99.3281 152.054 99.3281Z" fill="black"></path><path d="M159.793 98.8443C159.793 98.6024 160.035 98.6024 160.035 98.6024C160.277 98.6024 160.277 98.6024 160.277 98.8443V103.44C160.277 104.65 160.277 106.585 162.937 106.585C165.598 106.585 165.598 104.65 165.598 103.44V98.8443C165.598 98.6024 165.84 98.6024 165.84 98.6024C166.082 98.6024 166.082 98.6024 166.082 98.8443V103.44C166.082 104.65 166.082 107.311 162.696 107.311C159.31 107.311 159.31 104.892 159.31 103.44V98.8443H159.793Z" fill="black"></path><path d="M163.179 107.311C159.551 107.311 159.551 104.408 159.551 103.198V98.6024C159.551 98.1186 159.793 97.8767 160.277 97.8767C160.761 97.8767 161.002 98.1186 161.002 98.6024V103.198C161.002 104.65 161.244 106.101 163.421 106.101C165.598 106.101 165.84 104.65 165.84 103.198V98.6024C165.84 98.1186 166.082 97.8767 166.565 97.8767C167.049 97.8767 167.291 98.1186 167.291 98.6024V103.198C167.049 104.408 167.049 107.311 163.179 107.311ZM160.035 98.8443V103.44C160.035 105.134 160.519 106.827 163.179 106.827C165.84 106.827 166.323 105.134 166.323 103.44V98.8443V103.44C166.323 104.65 166.323 106.827 163.179 106.827C160.035 106.827 160.035 104.408 160.035 103.44V98.8443Z" fill="black"></path><path d="M173.58 106.827C173.58 107.069 173.338 107.069 173.338 107.069C173.096 107.069 173.096 107.069 173.096 106.827V99.3281H170.436C170.194 99.3281 170.194 99.0863 170.194 99.0863C170.194 98.8444 170.194 98.8444 170.436 98.8444H176.482C176.724 98.8444 176.724 99.0863 176.724 99.0863C176.724 99.3282 176.724 99.3281 176.482 99.3281H173.822V106.827H173.58Z" fill="black"></path><path d="M173.096 107.311C172.612 107.311 172.37 107.069 172.37 106.585V99.3281H169.952C169.468 99.3281 169.226 99.0862 169.226 98.6024C169.226 98.1186 169.468 97.8767 169.952 97.8767H175.998C176.482 97.8767 176.724 98.1186 176.724 98.6024C176.724 98.8443 176.482 99.3281 175.998 99.3281H173.58V106.585C173.821 107.069 173.58 107.311 173.096 107.311ZM170.194 98.8443H173.096V106.585V98.8443H175.998H170.194Z" fill="black"></path><path d="M185.188 106.101C185.672 106.343 186.156 106.343 186.64 106.343C187.607 106.343 188.816 105.859 188.816 104.65C188.816 103.44 187.849 103.198 187.123 102.957C186.156 102.715 184.947 102.231 184.947 100.779C184.947 99.57 185.914 98.6024 187.365 98.6024C187.849 98.6024 188.333 98.8443 188.816 98.8443C188.816 98.8443 189.058 98.8443 189.058 99.0862C189.058 99.3281 188.816 99.3281 188.816 99.3281H188.574C188.333 99.3281 187.849 99.0862 187.365 99.0862C186.156 99.0862 185.672 99.8119 185.672 100.779C185.672 101.747 186.64 102.231 187.365 102.473C188.333 102.957 189.542 103.198 189.542 104.892C189.542 106.343 188.333 107.311 186.64 107.311C185.672 107.311 184.947 107.069 184.705 106.827C184.463 106.827 184.463 106.585 184.463 106.585C184.463 106.343 184.705 106.343 184.705 106.343C184.947 105.859 184.947 106.101 185.188 106.101Z" fill="black"></path><path d="M186.882 107.311C185.914 107.311 185.188 107.069 184.947 106.827C184.705 106.827 184.463 106.585 184.463 106.101C184.463 105.859 184.705 105.376 185.188 105.376C185.188 105.376 185.43 105.376 185.672 105.617C186.156 105.859 186.64 105.859 187.123 105.859C187.607 105.859 189.058 105.859 189.058 104.408C189.058 103.44 188.333 103.198 187.365 102.957C186.398 102.715 184.947 101.989 184.947 100.538C184.947 99.3281 185.914 97.8767 187.607 97.8767C188.091 97.8767 188.816 98.1186 189.3 98.3605C189.542 98.6024 189.784 98.6024 189.784 98.8443C189.784 99.0862 189.542 99.57 189.058 99.57C188.816 99.57 188.816 99.57 188.575 99.3281C188.333 99.3281 188.091 99.0862 187.607 99.0862C186.64 99.0862 186.156 99.8119 186.156 100.296C186.156 101.021 186.64 101.263 187.849 101.747C188.816 102.231 190.268 102.715 190.268 104.408C190.026 106.343 188.575 107.311 186.882 107.311ZM184.947 106.343C185.43 106.585 185.914 106.827 186.882 106.827C188.091 106.827 189.3 106.343 189.3 104.892C189.3 103.44 188.333 103.198 187.365 102.715C186.398 102.473 185.43 101.989 185.43 100.779C185.43 99.8119 186.156 98.8443 187.365 98.8443C187.849 98.8443 188.333 99.0862 188.575 99.0862H188.816C188.333 98.8443 187.849 98.8443 187.365 98.8443C186.156 98.8443 185.188 99.57 185.188 100.779C185.188 101.989 186.156 102.473 187.123 102.715C188.091 102.957 189.058 103.44 189.058 104.892C189.058 106.343 187.849 106.827 186.64 106.827C186.156 106.827 185.43 106.585 184.947 106.343V106.343Z" fill="black"></path><path d="M197.524 102.231C197.766 102.231 197.766 102.473 197.766 102.473C197.766 102.715 197.766 102.715 197.524 102.715H193.896V105.618C193.896 105.86 194.138 106.101 194.38 106.101H198.008C198.249 106.101 198.249 106.343 198.249 106.343C198.249 106.585 198.249 106.585 198.008 106.585H194.138C193.17 106.585 193.17 105.86 193.17 105.618V99.5701C193.17 99.3282 193.17 98.6025 194.138 98.6025H197.766C198.008 98.6025 198.008 98.8444 198.008 98.8444C198.008 99.0863 198.008 99.0863 197.766 99.0863H194.138C193.896 99.0863 193.654 99.0863 193.654 99.5701V102.231H197.524V102.231Z" fill="black"></path><path d="M198.007 107.311H194.138C193.412 107.311 192.928 106.827 192.928 105.859V99.5701C192.928 98.6025 193.412 98.1187 194.138 98.1187H197.765C198.249 98.1187 198.491 98.3606 198.491 98.8444C198.491 99.0863 198.249 99.5701 197.765 99.5701H194.138V101.989H197.524C198.007 101.989 198.007 102.231 198.007 102.715C198.007 103.199 197.765 103.44 197.524 103.44H194.138V106.101H197.765C198.249 106.101 198.491 106.343 198.491 106.827C198.491 107.069 198.249 107.311 198.007 107.311ZM194.138 98.8444C193.654 98.8444 193.412 99.0863 193.412 99.5701V105.859C193.412 106.343 193.412 106.585 194.138 106.585H198.007H194.379C194.138 106.585 193.654 106.585 193.654 105.859V102.715H197.524H193.654V99.5701C193.654 99.0863 193.896 98.8444 194.138 98.8444H197.765H194.138Z" fill="black"></path><path d="M206.472 106.343C206.472 106.585 206.714 106.585 206.714 106.585C206.714 106.827 206.472 106.827 206.472 106.827C206.23 106.827 206.23 106.827 206.23 106.585L203.328 102.957H202.36V106.585C202.36 106.827 202.118 106.827 202.118 106.827C201.876 106.827 201.876 106.827 201.876 106.585V99.5701C201.876 99.3282 201.877 98.6025 202.844 98.6025H204.295C205.988 98.6025 206.714 99.5701 206.714 100.78C206.714 101.747 206.23 102.957 204.295 102.957L206.472 106.343ZM203.569 102.473C204.053 102.473 205.746 102.473 205.746 100.78C205.746 99.0863 204.295 99.0863 203.569 99.0863H202.602C202.36 99.0863 202.118 99.0863 202.118 99.5701V102.473H203.569Z" fill="black"></path><path d="M206.23 107.311C205.988 107.311 205.746 107.069 205.746 107.069L203.086 103.44H202.602V106.827C202.602 107.311 202.36 107.553 201.876 107.553C201.393 107.553 201.151 107.311 201.151 106.827V99.5701C201.151 98.6025 201.635 98.1187 202.36 98.1187H203.811C205.746 98.1187 206.472 99.3282 206.472 100.78C206.472 101.989 205.988 102.957 204.295 103.199L206.472 106.101L206.23 106.343L206.472 106.101C206.472 106.343 206.714 106.343 206.714 106.585C206.955 107.069 206.714 107.311 206.23 107.311ZM201.876 102.715H203.328L206.23 106.585C206.23 106.585 206.23 106.585 206.23 106.343L206.472 106.101L206.23 106.343L203.328 102.473H203.811C205.746 102.473 205.988 101.021 205.988 100.538C205.988 99.3281 205.262 98.6025 203.811 98.6025H202.36C201.876 98.6025 201.635 98.8443 201.635 99.3281V106.343V102.715H201.876ZM203.569 102.715H201.876V99.5701C201.876 98.8444 202.36 98.8444 202.602 98.8444H203.569C204.053 98.8444 205.988 98.8444 205.988 100.78C205.988 102.231 205.262 102.715 203.569 102.715ZM202.602 102.231H203.811C204.779 102.231 205.746 101.989 205.746 100.78C205.746 99.5701 204.779 99.5701 203.811 99.5701H202.844V102.231H202.602Z" fill="black"></path><path d="M215.905 98.6023C215.905 98.6023 215.905 98.3604 216.147 98.3604C216.388 98.3604 216.63 98.6023 216.63 98.6023V98.8441L213.486 106.585C213.486 106.827 213.244 107.069 213.002 107.069C212.761 107.069 212.519 106.827 212.519 106.585L209.375 98.8441V98.6023C209.375 98.3604 209.616 98.3604 209.858 98.3604C210.1 98.3604 210.1 98.3604 210.1 98.6023L213.244 106.343L215.905 98.6023Z" fill="black"></path><path d="M213.002 107.311C212.518 107.311 212.277 106.827 212.277 106.827L209.132 99.0862C209.132 99.0862 209.132 98.8443 209.132 98.6024C209.132 98.1186 209.374 97.8767 209.858 97.8767C210.342 97.8767 210.342 98.1186 210.342 98.3605L213.002 105.376L215.662 98.3605H215.904L215.662 98.1186C215.662 98.1186 215.904 97.6348 216.146 97.6348C216.388 97.6348 216.872 97.8767 216.872 98.3605C216.872 98.6024 216.872 98.6024 216.872 98.8443L213.728 106.585C213.728 106.827 213.486 107.311 213.002 107.311ZM215.904 98.6024H216.146L213.002 106.585C213.002 106.585 213.002 106.585 213.244 106.343L216.388 98.6024C216.388 98.6024 216.388 98.6024 216.388 98.3605L215.904 98.6024ZM209.616 98.8443C209.616 98.8443 209.374 98.8443 209.616 98.8443C209.374 98.8443 209.616 98.8443 209.616 98.8443L212.76 106.585C212.76 106.585 212.76 106.827 213.002 106.827L209.616 98.8443Z" fill="black"></path><path d="M220.016 98.8444C220.016 98.6025 220.257 98.3606 220.257 98.3606C220.499 98.3606 220.499 98.6025 220.499 98.8444V106.827C220.499 107.069 220.257 107.311 220.257 107.311C220.016 107.311 220.016 107.069 220.016 106.827V98.8444Z" fill="black"></path><path d="M220.258 107.311C219.774 107.311 219.532 107.069 219.532 106.585V98.6024C219.532 98.1186 219.774 97.8767 220.258 97.8767C220.741 97.8767 220.983 98.1186 220.983 98.6024V106.585C220.983 107.069 220.741 107.311 220.258 107.311ZM220.258 98.8443V106.827V98.8443Z" fill="black"></path><path d="M224.369 102.715C224.369 100.296 226.062 98.3605 228.723 98.3605C229.69 98.3605 230.416 98.6024 230.899 98.8443C231.141 98.8443 231.141 99.0862 231.141 99.0862C231.141 99.3281 230.899 99.3281 230.899 99.3281C230.899 99.3281 230.657 99.3281 230.657 99.0862C229.932 98.6024 229.206 98.6024 228.964 98.6024C226.788 98.6024 225.337 100.296 225.337 102.231C225.337 103.924 226.546 105.859 229.206 105.859C229.932 105.859 230.416 105.617 230.899 105.617C230.899 105.617 231.141 105.376 231.383 105.376C231.383 105.376 231.625 105.376 231.625 105.617C231.625 105.859 231.383 105.859 231.383 105.859C230.657 106.343 229.69 106.343 228.964 106.343C225.82 107.069 224.369 105.134 224.369 102.715Z" fill="black"></path><path d="M228.723 107.311C225.821 107.311 223.886 105.376 223.886 102.715C223.886 100.054 225.821 98.1187 228.481 98.1187C229.448 98.1187 230.174 98.3606 230.9 98.6025C231.141 98.8444 231.383 98.8444 231.383 99.0863C231.383 99.3282 231.141 99.812 230.658 99.812C230.416 99.812 230.416 99.812 230.174 99.5701C229.448 99.3282 228.965 99.0863 228.481 99.0863C226.546 99.0863 225.095 100.538 225.095 102.473C225.095 104.166 226.062 105.859 228.481 105.859C229.207 105.859 229.69 105.618 230.174 105.618C230.658 105.376 230.658 105.376 230.658 105.376C230.9 105.376 231.141 105.618 231.141 106.101C231.141 106.343 231.141 106.585 230.658 106.585C230.174 107.311 229.207 107.311 228.723 107.311ZM228.723 98.8444C226.304 98.8444 224.611 100.538 224.611 102.957C224.611 104.892 225.821 107.069 228.723 107.069C229.207 107.069 230.174 107.069 230.9 106.585H230.658C230.174 106.827 229.69 107.069 228.723 107.069C225.821 107.069 224.611 104.892 224.611 103.199C224.611 100.538 226.304 98.8444 228.723 98.8444C229.207 98.8444 229.932 98.8443 230.658 99.3281C230.174 98.8443 229.448 98.8444 228.723 98.8444Z" fill="black"></path><path d="M238.881 102.231C239.123 102.231 239.123 102.473 239.123 102.473C239.123 102.715 239.123 102.715 238.881 102.715H235.253V105.618C235.253 105.86 235.495 106.101 235.737 106.101H239.365C239.606 106.101 239.606 106.343 239.606 106.343C239.606 106.585 239.606 106.585 239.365 106.585H235.495C234.527 106.585 234.527 105.86 234.527 105.618V99.5701C234.527 99.3282 234.527 98.6025 235.495 98.6025H239.123C239.365 98.6025 239.365 98.8444 239.365 98.8444C239.365 99.0863 239.365 99.0863 239.123 99.0863H235.495C235.253 99.0863 235.011 99.0863 235.011 99.5701V102.231H238.881V102.231Z" fill="black"></path><path d="M239.365 107.311H235.495C234.769 107.311 234.286 106.827 234.286 105.859V99.5701C234.286 98.6025 234.769 98.1187 235.495 98.1187H239.123C239.606 98.1187 239.848 98.3606 239.848 98.8444C239.848 99.0863 239.606 99.5701 239.123 99.5701H235.495V101.989H238.881C239.365 101.989 239.365 102.231 239.365 102.715C239.365 103.199 239.123 103.44 238.881 103.44H235.495V106.101H239.123C239.606 106.101 239.848 106.343 239.848 106.827C240.09 107.069 239.606 107.311 239.365 107.311ZM235.495 98.8444C235.011 98.8444 234.769 99.0863 234.769 99.5701V105.859C234.769 106.343 234.769 106.585 235.495 106.585H239.365H235.737C235.495 106.585 235.011 106.585 235.011 105.859V102.715H238.881H235.011V99.5701C235.011 99.0863 235.253 98.8444 235.495 98.8444H239.123H235.495Z" fill="black"></path><path d="M79.4966 94.7319H51.9248V109.246H79.4966V94.7319Z" fill="black"></path><path d="M267.42 117.954H36.4458V122.792H267.42V117.954Z" fill="black"></path><path d="M3.31112 81.6693H2.10185C1.37629 81.6693 0.892578 81.1855 0.892578 80.4599C0.892578 79.7342 1.37629 79.2504 2.10185 79.2504H3.31112C4.03668 79.2504 4.52039 79.7342 4.52039 80.4599C4.52039 81.1855 4.03668 81.6693 3.31112 81.6693Z" fill="black"></path><path d="M275.884 81.6693H273.466C272.74 81.6693 272.256 81.1855 272.256 80.4599C272.256 79.7342 272.74 79.2504 273.466 79.2504H275.884C276.61 79.2504 277.094 79.7342 277.094 80.4599C277.094 81.1855 276.368 81.6693 275.884 81.6693ZM265.968 81.6693H263.55C262.824 81.6693 262.34 81.1855 262.34 80.4599C262.34 79.7342 262.824 79.2504 263.55 79.2504H265.968C266.694 79.2504 267.177 79.7342 267.177 80.4599C267.177 81.1855 266.694 81.6693 265.968 81.6693ZM256.294 81.6693H253.875C253.15 81.6693 252.666 81.1855 252.666 80.4599C252.666 79.7342 253.15 79.2504 253.875 79.2504H256.294C257.019 79.2504 257.503 79.7342 257.503 80.4599C257.503 81.1855 257.019 81.6693 256.294 81.6693ZM246.62 81.6693H244.201C243.475 81.6693 242.992 81.1855 242.992 80.4599C242.992 79.7342 243.475 79.2504 244.201 79.2504H246.62C247.345 79.2504 247.829 79.7342 247.829 80.4599C247.829 81.1855 247.345 81.6693 246.62 81.6693ZM236.945 81.6693H234.527C233.801 81.6693 233.317 81.1855 233.317 80.4599C233.317 79.7342 233.801 79.2504 234.527 79.2504H236.945C237.671 79.2504 238.155 79.7342 238.155 80.4599C238.155 81.1855 237.429 81.6693 236.945 81.6693ZM227.029 81.6693H224.611C223.885 81.6693 223.401 81.1855 223.401 80.4599C223.401 79.7342 223.885 79.2504 224.611 79.2504H227.029C227.755 79.2504 228.238 79.7342 228.238 80.4599C228.238 81.1855 227.755 81.6693 227.029 81.6693ZM217.355 81.6693H214.936C214.211 81.6693 213.727 81.1855 213.727 80.4599C213.727 79.7342 214.211 79.2504 214.936 79.2504H217.355C218.08 79.2504 218.564 79.7342 218.564 80.4599C218.564 81.1855 218.08 81.6693 217.355 81.6693ZM207.681 81.6693H205.262C204.536 81.6693 204.053 81.1855 204.053 80.4599C204.053 79.7342 204.536 79.2504 205.262 79.2504H207.681C208.406 79.2504 208.89 79.7342 208.89 80.4599C208.89 81.1855 208.406 81.6693 207.681 81.6693ZM198.006 81.6693H195.588C194.862 81.6693 194.378 81.1855 194.378 80.4599C194.378 79.7342 194.862 79.2504 195.588 79.2504H198.006C198.732 79.2504 199.216 79.7342 199.216 80.4599C199.216 81.1855 198.49 81.6693 198.006 81.6693ZM188.09 81.6693H185.672C184.946 81.6693 184.462 81.1855 184.462 80.4599C184.462 79.7342 184.946 79.2504 185.672 79.2504H188.09C188.816 79.2504 189.299 79.7342 189.299 80.4599C189.299 81.1855 188.816 81.6693 188.09 81.6693ZM178.416 81.6693H175.997C175.272 81.6693 174.788 81.1855 174.788 80.4599C174.788 79.7342 175.272 79.2504 175.997 79.2504H178.416C179.141 79.2504 179.625 79.7342 179.625 80.4599C179.625 81.1855 179.141 81.6693 178.416 81.6693ZM168.742 81.6693H166.323C165.597 81.6693 165.114 81.1855 165.114 80.4599C165.114 79.7342 165.597 79.2504 166.323 79.2504H168.742C169.467 79.2504 169.951 79.7342 169.951 80.4599C169.951 81.1855 169.467 81.6693 168.742 81.6693ZM159.067 81.6693H156.649C155.923 81.6693 155.439 81.1855 155.439 80.4599C155.439 79.7342 155.923 79.2504 156.649 79.2504H159.067C159.793 79.2504 160.276 79.7342 160.276 80.4599C160.276 81.1855 159.551 81.6693 159.067 81.6693ZM149.151 81.6693H146.732C146.007 81.6693 145.523 81.1855 145.523 80.4599C145.523 79.7342 146.007 79.2504 146.732 79.2504H149.151C149.877 79.2504 150.36 79.7342 150.36 80.4599C150.36 81.1855 149.877 81.6693 149.151 81.6693ZM139.477 81.6693H137.058C136.333 81.6693 135.849 81.1855 135.849 80.4599C135.849 79.7342 136.333 79.2504 137.058 79.2504H139.477C140.202 79.2504 140.686 79.7342 140.686 80.4599C140.686 81.1855 140.202 81.6693 139.477 81.6693ZM129.802 81.6693H127.384C126.658 81.6693 126.175 81.1855 126.175 80.4599C126.175 79.7342 126.658 79.2504 127.384 79.2504H129.802C130.528 79.2504 131.012 79.7342 131.012 80.4599C131.012 81.1855 130.528 81.6693 129.802 81.6693ZM120.128 81.6693H117.71C116.984 81.6693 116.5 81.1855 116.5 80.4599C116.5 79.7342 116.984 79.2504 117.71 79.2504H120.128C120.854 79.2504 121.337 79.7342 121.337 80.4599C121.337 81.1855 120.612 81.6693 120.128 81.6693ZM110.212 81.6693H107.793C107.068 81.6693 106.584 81.1855 106.584 80.4599C106.584 79.7342 107.068 79.2504 107.793 79.2504H110.212C110.938 79.2504 111.421 79.7342 111.421 80.4599C111.421 81.1855 110.938 81.6693 110.212 81.6693ZM100.538 81.6693H98.1191C97.3935 81.6693 96.9098 81.1855 96.9098 80.4599C96.9098 79.7342 97.3935 79.2504 98.1191 79.2504H100.538C101.263 79.2504 101.747 79.7342 101.747 80.4599C101.747 81.1855 101.263 81.6693 100.538 81.6693ZM90.8634 81.6693H88.4448C87.7192 81.6693 87.2355 81.1855 87.2355 80.4599C87.2355 79.7342 87.7192 79.2504 88.4448 79.2504H90.8634C91.5889 79.2504 92.0726 79.7342 92.0726 80.4599C92.0726 81.1855 91.5889 81.6693 90.8634 81.6693ZM81.1891 81.6693H78.7705C78.0449 81.6693 77.5612 81.1855 77.5612 80.4599C77.5612 79.7342 78.0449 79.2504 78.7705 79.2504H81.1891C81.9146 79.2504 82.3983 79.7342 82.3983 80.4599C82.3983 81.1855 81.6728 81.6693 81.1891 81.6693ZM71.2729 81.6693H68.8543C68.1287 81.6693 67.645 81.1855 67.645 80.4599C67.645 79.7342 68.1287 79.2504 68.8543 79.2504H71.2729C71.9985 79.2504 72.4822 79.7342 72.4822 80.4599C72.4822 81.1855 71.9985 81.6693 71.2729 81.6693ZM61.5986 81.6693H59.18C58.4544 81.6693 57.9707 81.1855 57.9707 80.4599C57.9707 79.7342 58.4544 79.2504 59.18 79.2504H61.5986C62.3242 79.2504 62.8079 79.7342 62.8079 80.4599C62.8079 81.1855 62.3242 81.6693 61.5986 81.6693ZM51.9243 81.6693H49.5057C48.7801 81.6693 48.2964 81.1855 48.2964 80.4599C48.2964 79.7342 48.7801 79.2504 49.5057 79.2504H51.9243C52.6499 79.2504 53.1336 79.7342 53.1336 80.4599C53.1336 81.1855 52.6499 81.6693 51.9243 81.6693ZM42.25 81.6693H39.8314C39.1058 81.6693 38.6221 81.1855 38.6221 80.4599C38.6221 79.7342 39.1058 79.2504 39.8314 79.2504H42.25C42.9756 79.2504 43.4593 79.7342 43.4593 80.4599C43.4593 81.1855 42.9756 81.6693 42.25 81.6693ZM32.3339 81.6693H29.9153C29.1897 81.6693 28.706 81.1855 28.706 80.4599C28.706 79.7342 29.1897 79.2504 29.9153 79.2504H32.3339C33.0595 79.2504 33.5432 79.7342 33.5432 80.4599C33.5432 81.1855 33.0595 81.6693 32.3339 81.6693ZM22.6596 81.6693H20.241C19.5154 81.6693 19.0317 81.1855 19.0317 80.4599C19.0317 79.7342 19.5154 79.2504 20.241 79.2504H22.6596C23.3852 79.2504 23.8689 79.7342 23.8689 80.4599C23.8689 81.1855 23.3852 81.6693 22.6596 81.6693ZM12.9853 81.6693H10.5667C9.84114 81.6693 9.35742 81.1855 9.35742 80.4599C9.35742 79.7342 9.84114 79.2504 10.5667 79.2504H12.9853C13.7109 79.2504 14.1946 79.7342 14.1946 80.4599C14.1946 81.1855 13.7109 81.6693 12.9853 81.6693Z" fill="black"></path><path d="M284.349 81.6693H283.14C282.414 81.6693 281.931 81.1855 281.931 80.4599C281.931 79.7342 282.414 79.2504 283.14 79.2504H284.349C285.075 79.2504 285.559 79.7342 285.559 80.4599C285.559 81.1855 285.075 81.6693 284.349 81.6693Z" fill="black"></path></svg> 