<?xml version="1.0" encoding="UTF-8"?> <svg xmlns="http://www.w3.org/2000/svg" width="236" height="223" viewBox="0 0 236 223" fill="none"><path d="M231.329 163.103C231.329 159.243 230.122 153.452 228.675 150.074C228.675 150.074 201.408 85.1706 116.232 85.1706C39.2587 85.1706 8.61437 141.871 8.61437 141.871C6.92531 145.248 5.47754 151.039 5.47754 154.658V211.6C5.47754 215.46 8.61437 218.355 12.2338 218.355H224.573C228.433 218.355 231.329 215.219 231.329 211.6V163.103V163.103Z" fill="#C3B68F"></path><path d="M107.062 126.911C107.062 127.153 106.82 127.153 106.82 127.153C106.579 127.153 106.579 127.153 106.579 126.911V119.432H103.925C103.684 119.432 103.684 119.191 103.684 119.191C103.684 118.949 103.684 118.949 103.925 118.949H109.957C110.199 118.949 110.199 119.191 110.199 119.191C110.199 119.432 110.199 119.432 109.957 119.432H107.303V126.911H107.062Z" fill="black"></path><path d="M106.579 127.394C106.097 127.394 105.856 127.153 105.856 126.67V119.432H103.443C102.96 119.432 102.719 119.191 102.719 118.708C102.719 118.226 102.96 117.984 103.443 117.984H109.475C109.958 117.984 110.199 118.226 110.199 118.708C110.199 118.949 109.958 119.432 109.475 119.432H107.062V126.67C107.303 127.153 107.062 127.394 106.579 127.394ZM103.684 118.949H106.579V126.67V118.949H109.475H103.684Z" fill="black"></path><path d="M117.197 118.468C119.61 118.468 121.541 120.157 121.541 122.811C121.541 125.223 119.61 127.154 117.197 127.154C114.784 127.154 112.854 125.465 112.854 122.811C112.854 120.398 114.784 118.468 117.197 118.468ZM117.197 126.43C119.128 126.43 120.817 124.741 120.817 122.811C120.817 120.88 119.369 119.192 117.197 119.192C115.267 119.192 113.578 120.88 113.578 122.811C113.578 124.741 115.026 126.43 117.197 126.43Z" fill="black"></path><path d="M117.196 127.394C114.542 127.394 112.612 125.464 112.612 122.81C112.612 120.156 114.542 118.226 117.196 118.226C119.851 118.226 121.781 120.156 121.781 122.81C121.781 125.464 119.609 127.394 117.196 127.394ZM117.196 118.949C114.783 118.949 113.094 120.638 113.094 123.051C113.094 125.223 114.783 127.153 117.196 127.153C119.609 127.153 121.298 125.464 121.298 123.051C121.057 120.638 119.368 118.949 117.196 118.949ZM117.196 126.911C115.025 126.911 113.336 125.223 113.336 123.051C113.336 120.88 115.025 119.191 117.196 119.191C119.368 119.191 121.057 120.88 121.057 123.051C121.057 125.223 119.368 126.911 117.196 126.911ZM117.196 119.432C115.266 119.432 113.818 120.88 113.818 122.81C113.818 124.74 115.266 126.188 117.196 126.188C119.127 126.188 120.575 124.74 120.575 122.81C120.333 120.88 118.885 119.432 117.196 119.432Z" fill="black"></path><path d="M125.642 126.911C125.642 127.153 125.4 127.153 125.4 127.153C125.159 127.153 125.159 127.153 125.159 126.911V119.914C125.159 119.673 125.159 118.949 126.124 118.949H127.331C128.055 118.949 128.537 118.949 129.02 119.191C129.985 119.673 130.226 120.88 130.226 121.362C130.226 122.086 129.985 123.051 129.02 123.534C128.537 123.775 128.055 123.775 127.331 123.775H125.642V126.911ZM126.848 122.81C127.572 122.81 129.02 122.81 129.02 121.121C129.02 119.432 127.572 119.432 126.848 119.432H126.124C125.883 119.432 125.642 119.432 125.642 119.914V123.051H126.848V122.81Z" fill="black"></path><path d="M125.159 127.394C124.677 127.394 124.436 127.153 124.436 126.67V119.673C124.436 118.708 124.918 118.226 125.642 118.226H126.848C127.572 118.226 128.055 118.226 128.779 118.708C129.985 119.432 129.985 120.638 129.985 121.121C129.985 122.327 129.503 123.051 128.779 123.534C128.296 123.775 127.572 123.775 126.848 123.775H125.883V126.911C125.883 127.153 125.401 127.394 125.159 127.394ZM125.883 118.949C125.401 118.949 125.159 119.191 125.159 119.673V126.67V123.051H126.848C127.331 123.051 127.814 123.051 128.296 122.81C129.02 122.569 129.261 121.845 129.261 120.88C129.261 120.397 129.02 119.432 128.296 119.191C127.814 118.949 127.331 118.949 126.848 118.949H125.883V118.949ZM126.848 123.292H125.401V119.914C125.401 119.432 125.642 119.191 126.125 119.191H126.848C127.572 119.191 129.503 119.191 129.503 121.362C129.261 123.292 127.572 123.292 126.848 123.292ZM125.883 122.569H126.848C127.814 122.569 128.779 122.569 128.779 121.121C128.779 119.673 127.814 119.673 126.848 119.673H126.125V122.569H125.883Z" fill="black"></path><path d="M97.1685 152.487L96.2034 154.9C96.2034 155.141 96.2034 155.141 95.9621 155.141C95.7208 155.141 95.4795 155.141 95.4795 154.9V154.658L98.6163 146.937C98.6163 146.696 98.8576 146.455 99.0989 146.455C99.5815 146.455 99.5815 146.696 99.5815 146.937L102.477 154.658V154.9C102.477 155.141 102.236 155.141 101.994 155.141C101.753 155.141 101.753 154.9 101.753 154.9L100.788 152.487H97.1685ZM100.788 152.004L99.0989 147.661L97.4099 152.004H100.788Z" fill="black"></path><path d="M102.477 155.623C101.995 155.623 101.995 155.382 101.753 155.141L100.788 152.728H97.1688L96.2036 154.9C96.2036 155.141 95.9623 155.382 95.4798 155.382C95.2385 155.382 94.7559 155.141 94.7559 154.658V154.417L97.8927 146.696C98.134 146.214 98.3753 145.972 98.6166 145.972C99.0992 145.972 99.3405 146.214 99.3405 146.696L102.236 154.417C102.236 154.658 102.236 154.658 102.236 154.9C103.201 155.382 102.719 155.623 102.477 155.623ZM96.9275 152.246H101.271L102.236 154.9L99.0992 147.179C99.0992 147.179 99.0992 146.937 98.8579 146.937L100.788 152.246H96.9275L98.8579 146.937C98.8579 146.937 98.8579 146.937 98.6166 147.179L95.4798 154.9V155.141L96.9275 152.246ZM97.8927 151.522H100.547L99.3405 148.144L97.8927 151.522Z" fill="black"></path><path d="M106.821 155.141C105.855 155.141 105.855 154.417 105.855 154.176V147.902C105.855 147.661 105.855 146.937 106.821 146.937H108.268C108.992 146.937 110.923 146.937 110.923 148.868C110.923 150.074 110.199 150.557 109.716 150.798C110.199 151.039 111.164 151.28 111.164 152.969C111.164 155.141 108.992 155.141 108.268 155.141H106.821ZM108.51 150.557C108.992 150.557 110.44 150.557 110.44 149.109C110.44 147.661 109.234 147.661 108.268 147.661H107.062C106.821 147.661 106.579 147.661 106.579 148.144V150.798H108.51V150.557ZM106.579 154.176C106.579 154.417 106.821 154.658 107.062 154.658H108.51C109.234 154.658 110.923 154.658 110.923 152.969C110.923 151.28 109.234 151.28 108.751 151.28H106.821V154.176H106.579Z" fill="black"></path><path d="M108.509 155.382H106.82C106.096 155.382 105.614 154.9 105.614 153.934V147.661C105.614 146.696 106.096 146.214 106.82 146.214H108.268C108.992 146.214 111.405 146.214 111.405 148.626C111.405 149.591 110.922 150.074 110.44 150.557C110.922 150.798 111.646 151.522 111.646 152.728C111.887 154.658 110.681 155.382 108.509 155.382ZM106.82 147.179C106.338 147.179 106.096 147.42 106.096 147.903V154.176C106.096 154.658 106.096 154.9 106.82 154.9H108.509C109.716 154.9 111.164 154.658 111.164 152.969C111.164 152.246 110.922 151.763 110.681 151.522C110.922 151.763 111.164 152.246 111.164 152.969C111.164 154.9 109.233 154.9 108.509 154.9H107.062C106.82 154.9 106.338 154.9 106.338 154.176V147.903C106.338 147.42 106.579 147.179 106.82 147.179H108.268C109.233 147.179 110.681 147.179 110.681 148.868C110.681 149.109 110.681 149.591 110.44 149.833C110.681 149.591 110.681 149.35 110.681 148.626C110.681 147.179 109.475 146.937 108.268 146.937H106.82V147.179ZM107.062 154.176H108.509C109.474 154.176 110.681 154.176 110.681 152.969C110.681 151.763 109.716 151.522 108.751 151.522H107.062V154.176ZM108.509 150.798C108.751 150.798 108.992 150.798 108.992 150.798L109.233 150.557C109.233 150.798 108.992 150.798 108.509 150.798ZM107.062 150.315H108.509C109.233 150.315 110.198 150.074 110.198 149.109C110.198 148.144 109.475 147.903 108.268 147.903H107.062V150.315V150.315Z" fill="black"></path><path d="M118.886 146.697C121.299 146.697 123.23 148.386 123.23 151.04C123.23 153.453 121.299 155.383 118.886 155.383C116.473 155.383 114.543 153.694 114.543 151.04C114.543 148.386 116.473 146.697 118.886 146.697ZM118.886 154.659C120.817 154.659 122.506 152.97 122.506 151.04C122.506 149.11 121.058 147.421 118.886 147.421C116.956 147.421 115.267 149.11 115.267 151.04C115.267 152.97 116.715 154.659 118.886 154.659Z" fill="black"></path><path d="M118.885 155.623C116.231 155.623 114.301 153.693 114.301 151.039C114.301 148.385 116.231 146.455 118.885 146.455C121.54 146.455 123.47 148.385 123.47 151.039C123.47 153.693 121.54 155.623 118.885 155.623ZM118.885 146.937C116.472 146.937 114.783 148.626 114.783 151.039C114.783 153.211 116.472 155.141 118.885 155.141C121.298 155.141 122.987 153.452 122.987 151.039C122.746 148.626 121.057 146.937 118.885 146.937ZM118.885 154.9C116.714 154.9 115.025 153.211 115.025 151.039C115.025 148.868 116.714 147.179 118.885 147.179C121.057 147.179 122.746 148.868 122.746 151.039C122.746 153.211 121.057 154.9 118.885 154.9ZM118.885 147.661C116.955 147.661 115.507 149.109 115.507 151.039C115.507 152.969 116.955 154.417 118.885 154.417C120.816 154.417 122.264 152.969 122.264 151.039C122.022 149.109 120.574 147.661 118.885 147.661Z" fill="black"></path><path d="M126.607 147.179C126.607 146.937 126.848 146.937 126.848 146.937C127.089 146.937 127.089 146.937 127.089 147.179V151.763C127.089 152.969 127.089 154.9 129.743 154.9C132.398 154.9 132.398 152.969 132.398 151.763V147.179C132.398 146.937 132.639 146.937 132.639 146.937C132.88 146.937 132.88 146.937 132.88 147.179V151.763C132.88 152.969 132.88 155.623 129.502 155.623C126.124 155.623 126.124 153.211 126.124 151.763V147.179H126.607Z" fill="black"></path><path d="M129.986 155.623C126.366 155.623 126.366 152.728 126.366 151.522V147.179C126.366 146.696 126.608 146.455 127.09 146.455C127.573 146.455 127.814 146.696 127.814 147.179V151.763C127.814 153.211 128.055 154.658 130.227 154.658C132.398 154.658 132.64 153.211 132.64 151.763V147.179C132.64 146.696 132.881 146.455 133.364 146.455C133.846 146.455 134.088 146.696 134.088 147.179V151.763C133.846 152.728 133.846 155.623 129.986 155.623ZM126.849 146.937V151.522C126.849 153.211 127.331 154.9 129.986 154.9C132.64 154.9 133.122 153.211 133.122 151.522V147.179V151.763C133.122 152.969 133.122 155.141 129.986 155.141C126.849 155.141 126.849 152.728 126.849 151.763V146.937Z" fill="black"></path><path d="M140.119 154.9C140.119 155.141 139.878 155.141 139.878 155.141C139.636 155.141 139.636 155.141 139.636 154.9V147.42H136.982C136.741 147.42 136.741 147.179 136.741 147.179C136.741 146.937 136.741 146.937 136.982 146.937H143.014C143.256 146.937 143.256 147.179 143.256 147.179C143.256 147.42 143.256 147.42 143.014 147.42H140.119V154.9Z" fill="black"></path><path d="M139.878 155.623C139.395 155.623 139.154 155.382 139.154 154.9V147.661H136.741C136.258 147.661 136.017 147.42 136.017 146.937C136.017 146.455 136.258 146.214 136.741 146.214H142.773C143.256 146.214 143.497 146.455 143.497 146.937C143.497 147.179 143.256 147.661 142.773 147.661H140.36V154.9C140.602 155.382 140.119 155.623 139.878 155.623ZM136.982 147.179H139.878V154.9V147.179H142.773H136.982Z" fill="black"></path><path d="M92.5842 182.405C93.0668 182.646 93.5494 182.646 94.032 182.646C94.9972 182.646 96.2037 182.164 96.2037 180.957C96.2037 179.751 95.2385 179.51 94.5146 179.269C93.5494 179.027 92.3429 178.545 92.3429 177.097C92.3429 175.891 93.3081 174.926 94.7559 174.926C95.2385 174.926 95.7211 175.167 96.2037 175.167C96.2037 175.167 96.445 175.167 96.445 175.408C96.445 175.649 96.2037 175.649 96.2037 175.649H95.9624C95.7211 175.649 95.2385 175.408 94.7559 175.408C93.5494 175.408 93.0668 176.132 93.0668 177.097C93.0668 178.062 94.032 178.545 94.7559 178.786C95.7211 179.027 96.9276 179.51 96.9276 181.199C96.9276 182.646 95.7211 183.611 94.032 183.611C93.0668 183.611 92.343 183.37 92.1017 183.129C91.8604 183.129 91.8604 182.888 91.8604 182.888C91.8604 182.646 92.1017 182.646 92.1017 182.646C92.1017 182.405 92.343 182.405 92.5842 182.405Z" fill="black"></path><path d="M94.0321 183.853C93.0669 183.853 92.3431 183.611 92.1018 183.37C91.8605 183.37 91.6191 183.129 91.6191 182.646C91.6191 182.405 91.8604 181.923 92.343 181.923C92.343 181.923 92.5843 181.923 92.8256 182.164C93.3082 182.405 93.7908 182.405 94.2734 182.405C94.756 182.405 96.2038 182.405 96.2038 180.957C96.2038 179.992 95.7212 179.751 94.5147 179.51C93.5495 179.268 92.1018 178.786 92.1018 177.097C92.1018 175.891 93.0669 174.443 94.756 174.443C95.2386 174.443 95.9624 174.684 96.445 174.926C96.445 174.926 96.9276 175.167 96.9276 175.408C96.9276 175.649 96.6863 176.132 96.2038 176.132C95.9625 176.132 95.9625 176.132 95.7212 175.891C95.4799 175.891 95.2386 175.649 94.756 175.649C93.7908 175.649 93.3082 176.373 93.3082 176.856C93.3082 177.58 93.7908 177.821 94.756 178.303C95.7211 178.786 97.1689 179.268 97.1689 180.957C97.1689 182.646 95.9624 183.853 94.0321 183.853ZM92.1018 182.646C92.5843 182.888 93.0669 183.129 94.0321 183.129C95.2386 183.129 96.445 182.646 96.445 181.199C96.445 179.751 95.4799 179.51 94.5147 179.027C93.5495 178.786 92.5843 178.303 92.5843 177.097C92.5843 176.132 93.3082 175.167 94.5147 175.167C94.9973 175.167 95.4799 175.408 95.7212 175.408C95.9625 175.408 95.9624 175.408 95.9624 175.408C95.4799 175.167 94.9973 175.167 94.5147 175.167C93.0669 175.167 92.343 176.132 92.343 177.097C92.343 178.303 93.3082 178.786 94.2734 179.027C95.2386 179.268 96.2038 179.751 96.2038 181.199C96.2038 182.646 94.9973 183.129 93.7908 183.129C93.3082 183.129 92.5843 182.888 92.1018 182.646V182.646Z" fill="black"></path><path d="M104.649 178.786C104.89 178.786 104.89 179.027 104.89 179.027C104.89 179.268 104.89 179.268 104.649 179.268H101.03V182.164C101.03 182.405 101.271 182.646 101.512 182.646H105.132C105.373 182.646 105.373 182.888 105.373 182.888C105.373 183.129 105.373 183.129 105.132 183.129H101.271C100.306 183.129 100.306 182.405 100.306 182.164V176.132C100.306 175.891 100.306 175.167 101.271 175.167H104.89C105.132 175.167 105.132 175.408 105.132 175.408C105.132 175.649 105.132 175.649 104.89 175.649H101.512C101.271 175.649 101.03 175.649 101.03 176.132V178.786H104.649V178.786Z" fill="black"></path><path d="M105.132 183.611H101.271C100.547 183.611 100.064 183.129 100.064 182.164V176.132C100.064 175.167 100.547 174.684 101.271 174.684H104.89C105.373 174.684 105.614 174.926 105.614 175.408C105.614 175.649 105.373 176.132 104.89 176.132H101.512V178.545H104.89C105.373 178.545 105.373 178.786 105.373 179.269C105.373 179.751 105.132 179.992 104.89 179.992H101.512V182.646H105.132C105.614 182.646 105.856 182.888 105.856 183.37C105.856 183.37 105.614 183.611 105.132 183.611ZM101.271 175.408C100.788 175.408 100.547 175.649 100.547 176.132V182.405C100.547 182.888 100.547 183.129 101.271 183.129H105.132H101.512C101.271 183.129 100.788 183.129 100.788 182.405V179.269H104.649H100.788V176.132C100.788 175.649 101.03 175.408 101.271 175.408H104.89H101.271Z" fill="black"></path><path d="M113.818 182.888C113.818 183.129 114.059 183.129 114.059 183.129C114.059 183.37 113.818 183.37 113.818 183.37C113.577 183.37 113.577 183.37 113.577 183.129L110.681 179.51H109.716V183.129C109.716 183.37 109.475 183.37 109.475 183.37C109.233 183.37 109.233 183.37 109.233 183.129V176.132C109.233 175.891 109.233 175.167 110.199 175.167H111.646C113.335 175.167 114.059 176.132 114.059 177.338C114.059 178.303 113.577 179.51 111.646 179.51L113.818 182.888ZM110.922 179.027C111.405 179.027 113.094 179.027 113.094 177.338C113.094 175.649 111.646 175.649 110.922 175.649H109.957C109.716 175.649 109.475 175.649 109.475 176.132V179.027H110.922Z" fill="black"></path><path d="M113.577 183.853C113.336 183.853 113.094 183.611 113.094 183.611L110.44 179.992H109.958V183.37C109.958 183.853 109.716 184.094 109.234 184.094C108.751 184.094 108.51 183.853 108.51 183.37V176.132C108.51 175.167 108.992 174.684 109.716 174.684H111.164C113.094 174.684 113.818 175.891 113.818 177.338C113.818 178.545 113.336 179.51 111.647 179.751L113.818 182.646L113.577 182.888L113.818 182.646C113.818 182.888 114.06 182.888 114.06 183.129C114.301 183.611 113.818 183.853 113.577 183.853ZM109.234 179.269H110.681L113.577 183.129L113.818 182.888L113.577 183.129L110.681 179.269H111.164C113.094 179.269 113.336 177.821 113.336 177.338C113.336 176.132 112.612 175.408 111.164 175.408H109.716C109.234 175.408 108.992 175.649 108.992 176.132V183.129L109.234 179.269ZM110.923 179.269H109.234V176.132C109.234 175.649 109.475 175.408 109.958 175.408H110.923C111.405 175.408 113.336 175.408 113.336 177.338C113.336 178.545 112.37 179.269 110.923 179.269ZM109.716 178.545H110.923C111.888 178.545 112.853 178.303 112.853 177.097C112.853 175.891 111.888 175.891 110.923 175.891H109.958V178.545H109.716Z" fill="black"></path><path d="M122.988 175.167C122.988 175.167 122.988 174.926 123.229 174.926C123.47 174.926 123.711 175.167 123.711 175.167V175.408L120.575 183.129C120.575 183.37 120.333 183.611 120.092 183.611C119.851 183.611 119.609 183.37 119.609 183.129L116.473 175.408V175.167C116.473 174.926 116.714 174.926 116.955 174.926C117.197 174.926 117.197 174.926 117.197 175.167L120.333 182.888L122.988 175.167Z" fill="black"></path><path d="M120.092 183.853C119.61 183.853 119.368 183.37 119.368 183.37L116.231 175.649C116.231 175.649 116.231 175.408 116.231 175.167C116.231 174.684 116.473 174.443 116.955 174.443C117.438 174.443 117.438 174.684 117.438 174.926L120.092 181.923L122.746 174.926H122.988L122.746 174.684C122.746 174.684 122.988 174.202 123.229 174.202C123.47 174.202 123.953 174.443 123.953 174.926C123.953 175.167 123.953 175.167 123.953 175.408L120.816 182.888C120.816 183.37 120.575 183.853 120.092 183.853ZM122.988 175.167H123.229L120.092 183.129C120.092 183.129 120.092 183.129 120.333 182.888L123.47 175.167C123.47 175.167 123.47 175.167 123.47 174.926L122.988 175.167ZM116.714 175.167L119.851 182.888C119.851 182.888 119.851 183.129 120.092 183.129L116.714 175.167Z" fill="black"></path><path d="M127.089 175.167C127.089 174.926 127.331 174.926 127.331 174.926C127.572 174.926 127.572 175.167 127.572 175.167V183.129C127.572 183.37 127.331 183.37 127.331 183.37C127.089 183.37 127.089 183.129 127.089 183.129V175.167Z" fill="black"></path><path d="M127.572 183.853C127.089 183.853 126.848 183.611 126.848 183.129V175.167C126.848 174.684 127.089 174.443 127.572 174.443C128.055 174.443 128.296 174.684 128.296 175.167V183.129C128.055 183.611 127.813 183.853 127.572 183.853ZM127.572 175.167V183.129V175.167Z" fill="black"></path><path d="M131.433 179.269C131.433 176.856 133.122 174.926 135.776 174.926C136.741 174.926 137.465 175.167 137.948 175.408C138.189 175.408 138.189 175.649 138.189 175.649C138.189 175.891 137.948 175.891 137.948 175.891C137.948 175.891 137.706 175.891 137.706 175.649C136.982 175.167 136.259 175.167 136.017 175.167C133.846 175.167 132.398 176.856 132.398 178.786C132.398 180.475 133.604 182.405 136.259 182.405C136.982 182.405 137.465 182.164 137.948 182.164C137.948 182.164 138.189 181.923 138.43 181.923C138.43 181.923 138.672 181.923 138.672 182.164C138.672 182.405 138.43 182.405 138.43 182.405C137.706 182.888 136.741 182.888 136.017 182.888C133.122 183.611 131.433 181.44 131.433 179.269Z" fill="black"></path><path d="M135.776 183.853C132.88 183.853 130.95 181.923 130.95 179.269C130.95 176.614 132.88 174.684 135.534 174.684C136.499 174.684 137.223 174.926 137.947 175.167C138.188 175.408 138.188 175.649 138.188 175.649C138.188 175.891 137.947 176.373 137.465 176.373C137.223 176.373 137.223 176.373 136.982 176.132C136.499 175.891 135.776 175.649 135.293 175.649C133.363 175.649 131.915 177.097 131.915 179.027C131.915 180.716 132.88 182.405 135.293 182.405C136.017 182.405 136.499 182.164 136.982 182.164C137.223 181.923 137.465 181.923 137.465 181.923C137.706 181.923 137.947 182.164 137.947 182.646C137.947 182.888 137.947 183.129 137.465 183.129C137.465 183.612 136.499 183.853 135.776 183.853ZM135.776 175.167C133.363 175.167 131.674 176.856 131.674 179.269C131.674 181.199 132.88 183.37 135.776 183.37C136.258 183.37 137.223 183.37 137.947 182.888H137.706C137.223 183.129 136.741 183.129 135.776 183.129C132.88 183.129 131.674 180.957 131.674 179.269C131.915 176.856 133.604 175.167 135.776 175.167C136.258 175.167 136.982 175.167 137.706 175.649C137.223 175.408 136.741 175.167 135.776 175.167Z" fill="black"></path><path d="M145.91 178.786C146.151 178.786 146.151 179.027 146.151 179.027C146.151 179.268 146.151 179.268 145.91 179.268H142.291V182.164C142.291 182.405 142.532 182.646 142.773 182.646H146.393C146.634 182.646 146.634 182.888 146.634 182.888C146.634 183.129 146.634 183.129 146.393 183.129H142.532C141.567 183.129 141.567 182.405 141.567 182.164V176.132C141.567 175.891 141.567 175.167 142.532 175.167H146.151C146.393 175.167 146.393 175.408 146.393 175.408C146.393 175.649 146.393 175.649 146.151 175.649H142.532C142.291 175.649 142.049 175.649 142.049 176.132V178.786H145.91V178.786Z" fill="black"></path><path d="M146.393 183.611H142.532C141.808 183.611 141.326 183.129 141.326 182.164V176.132C141.326 175.167 141.808 174.684 142.532 174.684H146.152C146.634 174.684 146.875 174.926 146.875 175.408C146.875 175.649 146.634 176.132 146.152 176.132H142.532V178.545H145.91C146.393 178.545 146.393 178.786 146.393 179.269C146.393 179.751 146.152 179.992 145.91 179.992H142.532V182.646H146.152C146.634 182.646 146.875 182.888 146.875 183.37C147.117 183.37 146.875 183.611 146.393 183.611ZM142.532 175.408C142.05 175.408 141.808 175.649 141.808 176.132V182.405C141.808 182.888 141.808 183.129 142.532 183.129H146.393H142.773C142.532 183.129 142.05 183.129 142.05 182.405V179.269H145.91H142.05V176.132C142.05 175.649 142.291 175.408 142.532 175.408H146.152H142.532Z" fill="black"></path><path d="M226.744 222.216H9.57979C4.51261 222.216 0.410645 218.114 0.410645 213.047V9.16851C0.410645 4.1017 4.51261 0 9.57979 0H226.744C231.812 0 235.914 4.1017 235.914 9.16851V213.047C236.155 218.114 231.812 222.216 226.744 222.216ZM9.57979 4.82553C7.16685 4.82553 5.23653 6.75574 5.23653 9.16851V213.047C5.23653 215.46 7.16685 217.39 9.57979 217.39H226.744C229.157 217.39 231.088 215.46 231.088 213.047V9.16851C231.088 6.75574 229.157 4.82553 226.744 4.82553H9.57979V4.82553Z" fill="black"></path><path d="M116.232 62.7319C116.714 62.7319 117.197 63.2145 117.197 63.697V99.1647C117.197 99.6472 116.714 100.13 116.232 100.13C115.749 100.13 115.267 99.6472 115.267 99.1647V63.697C115.267 63.2145 115.749 62.7319 116.232 62.7319Z" fill="black"></path><path d="M116.232 101.336C115.025 101.336 114.06 100.371 114.06 99.1647V63.697C114.06 62.4906 115.025 61.5255 116.232 61.5255C117.438 61.5255 118.403 62.4906 118.403 63.697V99.1647C118.403 100.371 117.438 101.336 116.232 101.336Z" fill="black"></path><path d="M124.194 70.2115L122.747 71.4178L116.232 64.4208L109.717 71.4178L108.269 70.2115L116.232 61.7668L124.194 70.2115Z" fill="black"></path><path d="M122.505 73.1068L116.231 66.351L109.716 73.1068L106.58 70.2115L116.231 59.8366L125.883 70.2115L122.505 73.1068Z" fill="black"></path></svg> 