<?xml version="1.0" encoding="UTF-8"?> <svg xmlns="http://www.w3.org/2000/svg" width="237" height="224" viewBox="0 0 237 224" fill="none"><path d="M217.671 140.63C217.187 140.63 216.704 140.146 216.704 139.662V28.3881C216.704 27.9043 217.187 27.4204 217.671 27.4204C218.155 27.4204 218.639 27.9043 218.639 28.3881V139.662C218.639 140.146 218.155 140.63 217.671 140.63Z" fill="black"></path><path d="M217.671 141.839C216.462 141.839 215.494 140.871 215.494 139.662V28.3881C215.494 27.1786 216.462 26.2109 217.671 26.2109C218.88 26.2109 219.848 27.1786 219.848 28.3881V139.662C219.848 140.871 218.88 141.839 217.671 141.839Z" fill="black"></path><path d="M209.689 133.131L211.141 131.921L217.671 138.936L223.959 131.921L225.41 133.131L217.671 141.597L209.689 133.131Z" fill="black"></path><path d="M217.671 143.532L207.997 133.131L211.141 130.228L217.671 137.001L223.959 130.228L227.103 133.131L217.671 143.532Z" fill="black"></path><path d="M227.345 223.359H9.6735C4.5945 223.359 0.48291 219.247 0.48291 214.167V9.76189C0.48291 4.68199 4.5945 0.56958 9.6735 0.56958H227.345C232.424 0.56958 236.536 4.68199 236.536 9.76189V214.167C236.536 219.247 232.424 223.359 227.345 223.359ZM9.6735 5.40757C7.25493 5.40757 5.32006 7.34289 5.32006 9.76189V214.167C5.32006 216.586 7.25493 218.521 9.6735 218.521H227.345C229.764 218.521 231.699 216.586 231.699 214.167V9.76189C231.699 7.34289 229.764 5.40757 227.345 5.40757H9.6735Z" fill="black"></path><path d="M64.575 27.1786C64.575 27.4205 64.3331 27.4204 64.3331 27.4204C64.0912 27.4204 64.0913 27.4205 64.0913 27.1786V19.68H61.4308C61.1889 19.68 61.189 19.4381 61.189 19.4381C61.189 19.1962 61.1889 19.1963 61.4308 19.1963H67.4772C67.7191 19.1963 67.7191 19.4381 67.7191 19.4381C67.7191 19.68 67.7191 19.68 67.4772 19.68H64.575V27.1786Z" fill="black"></path><path d="M64.0914 27.9045C63.6077 27.9045 63.3658 27.6625 63.3658 27.1787V19.9218H60.9473C60.4635 19.9218 60.2217 19.6801 60.2217 19.1963C60.2217 18.7125 60.4635 18.4705 60.9473 18.4705H66.9937C67.4774 18.4705 67.7193 18.7125 67.7193 19.1963C67.7193 19.4382 67.4774 19.9218 66.9937 19.9218H64.5751V27.1787C64.817 27.6625 64.3333 27.9045 64.0914 27.9045ZM61.1891 19.4381H64.0914V27.1787V19.4381H66.9937H61.1891Z" fill="black"></path><path d="M74.4912 18.9541C76.9098 18.9541 78.8446 20.6475 78.8446 23.3083C78.8446 25.7273 76.9098 27.6626 74.4912 27.6626C72.0726 27.6626 70.1377 25.9692 70.1377 23.3083C70.3796 20.6475 72.0726 18.9541 74.4912 18.9541ZM74.4912 26.9368C76.426 26.9368 78.1191 25.2435 78.1191 23.3083C78.1191 21.3732 76.6679 19.6799 74.4912 19.6799C72.5563 19.6799 70.8633 21.3732 70.8633 23.3083C70.8633 25.2435 72.5563 26.9368 74.4912 26.9368Z" fill="black"></path><path d="M74.4913 27.9045C71.8309 27.9045 69.896 25.9693 69.896 23.3083C69.896 20.6474 71.8309 18.7122 74.4913 18.7122C77.1518 18.7122 79.0866 20.6474 79.0866 23.3083C79.0866 25.7274 77.1518 27.9045 74.4913 27.9045ZM74.4913 19.1961C72.0727 19.1961 70.3797 20.8893 70.3797 23.3083C70.3797 25.4855 72.0727 27.4206 74.4913 27.4206C76.9099 27.4206 78.6029 25.7274 78.6029 23.3083C78.6029 20.8893 76.9099 19.1961 74.4913 19.1961ZM74.4913 27.1787C72.3146 27.1787 70.6216 25.4855 70.6216 23.3083C70.6216 21.1312 72.3146 19.438 74.4913 19.438C76.668 19.438 78.361 21.1312 78.361 23.3083C78.361 25.4855 76.9099 27.1787 74.4913 27.1787ZM74.4913 19.9217C72.5565 19.9217 71.1053 21.3731 71.1053 23.3083C71.1053 25.2436 72.5565 26.695 74.4913 26.695C76.4262 26.695 77.8773 25.2436 77.8773 23.3083C77.8773 21.3731 76.4262 19.9217 74.4913 19.9217Z" fill="black"></path><path d="M82.9559 27.1786C82.9559 27.4205 82.714 27.4204 82.714 27.4204C82.4722 27.4204 82.4722 27.4205 82.4722 27.1786V20.1636C82.4722 19.9217 82.4722 19.1963 83.4396 19.1963H84.6489C85.3745 19.1963 85.8582 19.1962 86.342 19.4381C87.3094 19.9219 87.5513 21.1314 87.5513 21.6152C87.5513 22.3409 87.3094 23.3082 86.342 23.792C85.8582 24.0339 85.3745 24.0341 84.6489 24.0341H83.1978V27.1786H82.9559ZM84.4071 23.3083C85.1326 23.3083 86.5838 23.3085 86.5838 21.6152C86.5838 19.922 85.1326 19.9218 84.4071 19.9218H83.6815C83.4396 19.9218 83.1978 19.922 83.1978 20.4058V23.5502H84.4071V23.3083Z" fill="black"></path><path d="M82.7143 27.9045C82.2306 27.9045 81.9888 27.6625 81.9888 27.1787V20.1635C81.9888 19.1959 82.4725 18.7122 83.198 18.7122H84.4073C85.1329 18.7122 85.6166 18.7123 86.3422 19.1961C87.5515 19.9218 87.5515 21.1314 87.5515 21.6152C87.5515 22.8247 87.0677 23.5504 86.3422 24.0342C85.8585 24.2761 85.1329 24.276 84.4073 24.276H83.4399V27.4206C83.4399 27.6625 82.9562 27.9045 82.7143 27.9045ZM83.198 19.438C82.7143 19.438 82.4725 19.6797 82.4725 20.1635V27.1787V23.5502H84.1655C84.6492 23.5502 85.1329 23.5503 85.6166 23.3083C86.3422 23.0664 86.584 22.3406 86.584 21.373C86.584 20.8892 86.3422 19.9217 85.6166 19.6798C85.1329 19.4379 84.6492 19.438 84.1655 19.438H83.198V19.438ZM84.4073 23.5502H82.9562V20.1635C82.9562 19.6797 83.198 19.438 83.6818 19.438H84.4073C85.1329 19.438 87.0677 19.438 87.0677 21.6152C86.8259 23.5504 85.1329 23.5502 84.4073 23.5502ZM83.4399 22.8247H84.4073C85.3747 22.8247 86.3422 22.8244 86.3422 21.373C86.3422 19.9216 85.3747 19.9217 84.4073 19.9217H83.6818V22.8247H83.4399Z" fill="black"></path><path d="M97.2262 24.7596L96.2588 27.1786C96.2588 27.4205 96.2588 27.4204 96.0169 27.4204C95.7751 27.4204 95.5332 27.4205 95.5332 27.1786V26.9367L98.6774 19.1961C98.6774 18.9542 98.9192 18.7122 99.1611 18.7122C99.6448 18.7122 99.6448 18.9542 99.6448 19.1961L102.547 26.9367V27.1786C102.547 27.4205 102.305 27.4204 102.063 27.4204C101.821 27.4204 101.821 27.1786 101.821 27.1786L100.854 24.7596H97.2262ZM100.854 24.0341L99.1611 19.6798L97.4681 24.0341H100.854Z" fill="#EDBA18"></path><path d="M102.305 28.1462C101.822 28.1462 101.58 27.9042 101.338 27.4204L100.612 25.2436H97.4681L96.7425 27.4204C96.5006 27.9042 96.2588 28.1462 95.775 28.1462C95.2913 28.1462 94.8076 27.9043 94.8076 27.1786C94.8076 26.9367 94.8076 26.9368 94.8076 26.6949L97.9518 18.9539C98.1936 18.2282 98.6773 18.2284 98.9192 18.2284V17.9866V18.2284C99.1611 18.2284 99.6448 18.4701 99.8867 18.9539L102.789 26.6949C102.789 26.9368 102.789 26.9367 102.789 27.1786C103.273 27.6624 102.789 28.1462 102.305 28.1462ZM98.1936 23.5501H99.8867L98.9192 21.3729L98.1936 23.5501Z" fill="#EDBA18"></path><path d="M106.9 27.4204C105.933 27.4204 105.933 26.695 105.933 26.4531V20.1636C105.933 19.9217 105.933 19.1963 106.9 19.1963H108.351C109.077 19.1963 111.012 19.1961 111.012 21.1313C111.012 22.3407 110.286 22.8246 109.802 23.0665C110.286 23.3084 111.253 23.5504 111.253 25.2436C111.253 27.4206 109.077 27.4204 108.351 27.4204H106.9ZM108.593 22.8247C109.077 22.8247 110.528 22.8244 110.528 21.3731C110.528 19.9217 109.319 19.9218 108.351 19.9218H107.142C106.9 19.9218 106.658 19.922 106.658 20.4058V23.0665H108.593V22.8247ZM106.658 26.2109C106.658 26.4528 106.9 26.6949 107.142 26.6949H108.593C109.319 26.6949 111.012 26.6947 111.012 25.0015C111.012 23.3082 109.319 23.3083 108.835 23.3083H106.9V26.2109H106.658Z" fill="#EDBA18"></path><path d="M108.593 27.9045H106.9C106.417 27.9045 105.449 27.6625 105.449 26.2111V19.9217C105.449 18.4703 106.417 18.2285 106.9 18.2285H108.352C110.528 18.2285 111.737 19.1961 111.737 20.8894C111.737 21.857 111.496 22.3409 111.012 22.8247C111.496 23.3085 111.979 23.7921 111.979 25.0016C111.979 26.453 111.496 27.9045 108.593 27.9045ZM106.659 26.2111H107.384H106.659ZM107.142 26.2111H108.352C109.803 26.2111 110.045 25.9694 110.045 25.2437C110.045 24.518 109.561 24.0342 108.352 24.0342H107.142V26.2111ZM107.142 22.0989H108.352C109.561 22.0989 109.803 21.615 109.803 21.1312C109.803 20.4055 109.561 20.1635 108.352 20.1635H107.142V22.0989Z" fill="#EDBA18"></path><path d="M118.751 18.9541C121.169 18.9541 123.104 20.6475 123.104 23.3083C123.104 25.7273 121.169 27.6626 118.751 27.6626C116.332 27.6626 114.397 25.9692 114.397 23.3083C114.639 20.6475 116.332 18.9541 118.751 18.9541ZM118.751 26.9368C120.686 26.9368 122.379 25.2435 122.379 23.3083C122.379 21.3732 120.928 19.6799 118.751 19.6799C116.816 19.6799 115.123 21.3732 115.123 23.3083C115.123 25.2435 116.816 26.9368 118.751 26.9368Z" fill="#EDBA18"></path><path d="M118.751 28.1462C115.849 28.1462 113.914 25.9692 113.914 23.3083C113.914 20.4056 116.091 18.4705 118.751 18.4705C121.653 18.4705 123.588 20.6475 123.588 23.3083C123.83 25.9692 121.653 28.1462 118.751 28.1462ZM118.751 20.1636C117.058 20.1636 115.849 21.6151 115.849 23.3083C115.849 25.0016 117.058 26.4531 118.751 26.4531C120.444 26.4531 121.654 25.2435 121.654 23.3083C121.895 21.3732 120.444 20.1636 118.751 20.1636Z" fill="#EDBA18"></path><path d="M126.491 19.1962C126.491 18.9543 126.732 18.9541 126.732 18.9541C126.974 18.9541 126.974 18.9543 126.974 19.1962V23.792C126.974 25.0015 126.974 26.9368 129.635 26.9368C132.295 26.9368 132.295 25.0015 132.295 23.792V19.1962C132.295 18.9543 132.537 18.9541 132.537 18.9541C132.779 18.9541 132.779 18.9543 132.779 19.1962V23.792C132.779 25.0015 132.779 27.6626 129.393 27.6626C126.007 27.6626 126.007 25.2434 126.007 23.792V19.1962H126.491Z" fill="#EDBA18"></path><path d="M130.118 28.1462C126.007 28.1462 126.007 24.7596 126.007 23.792V19.1962C126.007 18.4705 126.491 18.2285 126.974 18.2285C127.458 18.2285 127.942 18.7124 127.942 19.1962V23.792C127.942 25.2434 128.184 26.4531 130.118 26.4531C132.053 26.4531 132.295 25.2434 132.295 23.792V19.1962C132.295 18.4705 132.779 18.2285 133.263 18.2285C133.746 18.2285 134.23 18.7124 134.23 19.1962V23.792C133.988 24.7596 133.988 28.1462 130.118 28.1462Z" fill="#EDBA18"></path><path d="M140.277 27.1786C140.277 27.4205 140.035 27.4204 140.035 27.4204C139.793 27.4204 139.793 27.4205 139.793 27.1786V19.68H137.132C136.891 19.68 136.891 19.4381 136.891 19.4381C136.891 19.1962 136.891 19.1963 137.132 19.1963H143.179C143.421 19.1963 143.421 19.4381 143.421 19.4381C143.421 19.68 143.421 19.68 143.179 19.68H140.518V27.1786H140.277Z" fill="#EDBA18"></path><path d="M140.035 28.1462C139.551 28.1462 139.068 27.6624 139.068 27.1786V20.4057H136.891C136.407 20.4057 135.923 19.9219 135.923 19.4381C135.923 18.9543 136.407 18.4705 136.891 18.4705H142.937C143.421 18.4705 143.905 18.9543 143.905 19.4381C143.905 19.9219 143.421 20.4057 142.937 20.4057H140.761V27.1786C141.002 27.9043 140.519 28.1462 140.035 28.1462Z" fill="#EDBA18"></path><path d="M151.886 26.4531C152.369 26.695 152.853 26.695 153.337 26.695C154.304 26.695 155.514 26.211 155.514 25.0015C155.514 23.792 154.546 23.5502 153.821 23.3083C152.853 23.0665 151.644 22.5826 151.644 21.1312C151.644 19.9217 152.611 18.9541 154.062 18.9541C154.546 18.9541 155.03 19.1962 155.514 19.1962C155.514 19.1962 155.755 19.1962 155.755 19.4381C155.755 19.68 155.514 19.6799 155.514 19.6799H155.272C155.03 19.6799 154.546 19.4381 154.062 19.4381C152.853 19.4381 152.369 20.1636 152.369 21.1312C152.369 22.0988 153.337 22.5828 154.062 22.8247C155.03 23.0666 156.239 23.5504 156.239 25.2436C156.239 26.695 155.03 27.6626 153.337 27.6626C152.369 27.6626 151.644 27.4205 151.402 27.1786C151.16 27.1786 151.16 26.9368 151.16 26.9368C151.16 26.6949 151.402 26.695 151.402 26.695C151.644 26.4531 151.886 26.4531 151.886 26.4531Z" fill="black"></path><path d="M153.579 27.9045C152.611 27.9045 151.886 27.6625 151.644 27.4206C151.402 27.4206 151.16 27.1788 151.16 26.6951C151.16 26.4532 151.402 25.9692 151.886 25.9692C151.886 25.9692 152.128 25.9692 152.369 26.2111C152.853 26.453 153.337 26.4532 153.821 26.4532C154.304 26.4532 155.755 26.453 155.755 25.0016C155.755 24.034 155.272 23.7922 154.062 23.5503C153.095 23.3084 151.644 22.8246 151.644 21.1313C151.644 19.9218 152.611 18.4705 154.304 18.4705C154.788 18.4705 155.514 18.7122 155.997 18.9541C155.997 18.9541 156.481 19.1962 156.481 19.4381C156.481 19.68 156.239 20.1636 155.755 20.1636C155.514 20.1636 155.514 20.1637 155.272 19.9218C155.03 19.9218 154.788 19.6799 154.304 19.6799C153.337 19.6799 152.853 20.4056 152.853 20.8894C152.853 21.6151 153.337 21.857 154.304 22.3408C155.272 22.8246 156.723 23.3083 156.723 25.0016C156.723 26.6949 155.514 27.9045 153.579 27.9045ZM151.644 26.6951C152.128 26.9369 152.611 27.1787 153.579 27.1787C154.788 27.1787 155.997 26.6951 155.997 25.2437C155.997 23.7923 155.03 23.5504 154.062 23.0666C153.095 22.8247 152.128 22.3408 152.128 21.1313C152.128 20.1637 152.853 19.1963 154.062 19.1963C154.546 19.1963 155.03 19.4381 155.272 19.4381C155.514 19.4381 155.514 19.4381 155.514 19.4381C155.03 19.1962 154.546 19.1963 154.062 19.1963C152.611 19.1963 151.886 20.1637 151.886 21.1313C151.886 22.3408 152.853 22.8247 153.821 23.0666C154.788 23.3085 155.755 23.7923 155.755 25.2437C155.755 26.6951 154.546 27.1787 153.337 27.1787C152.853 27.1787 152.128 26.9369 151.644 26.6951V26.6951Z" fill="black"></path><path d="M164.221 22.8247C164.462 22.8247 164.462 23.0666 164.462 23.0666C164.462 23.3085 164.462 23.3084 164.221 23.3084H160.593V26.2111C160.593 26.453 160.835 26.695 161.076 26.695H164.704C164.946 26.695 164.946 26.9369 164.946 26.9369C164.946 27.1788 164.946 27.1787 164.704 27.1787H160.835C159.867 27.1787 159.867 26.453 159.867 26.2111V19.9218C159.867 19.6799 159.867 18.9541 160.835 18.9541H164.462C164.704 18.9541 164.704 19.1962 164.704 19.1962C164.704 19.4381 164.704 19.4381 164.462 19.4381H160.835C160.593 19.4381 160.351 19.438 160.351 19.9218V22.5826H164.221V22.8247Z" fill="black"></path><path d="M164.704 27.6626H160.835C160.109 27.6626 159.625 27.1786 159.625 26.211V19.9218C159.625 18.9542 160.109 18.4705 160.835 18.4705H164.463C164.946 18.4705 165.188 18.7125 165.188 19.1963C165.188 19.4382 164.946 19.9218 164.463 19.9218H160.835V22.3407H164.221C164.704 22.3407 164.704 22.5827 164.704 23.0665C164.704 23.5503 164.463 23.792 164.221 23.792H160.835V26.4531H164.463C164.946 26.4531 165.188 26.6948 165.188 27.1786C165.43 27.4205 164.946 27.6626 164.704 27.6626ZM160.835 19.4381C160.351 19.4381 160.109 19.6798 160.109 20.1636V26.4531C160.109 26.9369 160.109 27.1786 160.835 27.1786H164.704H161.077C160.835 27.1786 160.351 27.1788 160.351 26.4531V23.3084H164.221H160.351V20.4057C160.351 19.6801 160.593 19.4381 160.835 19.4381H164.463H160.835Z" fill="black"></path><path d="M173.17 26.9367C173.17 27.1786 173.411 27.1786 173.411 27.1786C173.411 27.4205 173.17 27.4204 173.17 27.4204C172.928 27.4204 172.928 27.4205 172.928 27.1786L170.025 23.5502H169.058V27.1786C169.058 27.4205 168.816 27.4204 168.816 27.4204C168.574 27.4204 168.574 27.4205 168.574 27.1786V20.1636C168.574 19.9217 168.574 19.1963 169.542 19.1963H170.993C172.686 19.1963 173.411 20.1636 173.411 21.3731C173.411 22.3407 172.928 23.5502 170.993 23.5502L173.17 26.9367ZM170.267 23.0665C170.751 23.0665 172.444 23.0663 172.444 21.3731C172.444 19.6798 170.993 19.68 170.267 19.68H169.3C169.058 19.68 168.816 19.6798 168.816 20.1636V23.0665H170.267Z" fill="black"></path><path d="M173.169 27.9044C172.927 27.9044 172.686 27.6626 172.686 27.6626L170.025 24.0341H169.541V27.4204C169.541 27.9042 169.3 28.1462 168.816 28.1462C168.332 28.1462 168.09 27.9042 168.09 27.4204V20.4057C168.09 19.4381 168.574 18.9541 169.3 18.9541H170.751C172.686 18.9541 173.411 20.1638 173.411 21.6152C173.411 22.8247 172.928 23.7922 171.235 24.0341L173.411 26.9368L173.169 27.1786L173.411 26.9368C173.411 27.1787 173.653 27.1785 173.653 27.4204C173.653 27.6623 173.411 27.9044 173.169 27.9044ZM168.574 23.3083H170.025L172.927 27.1786L173.169 26.9368L172.927 27.1786L170.025 23.3083H170.509C172.444 23.3083 172.686 21.8568 172.686 21.3731C172.686 20.1636 171.96 19.4381 170.509 19.4381H169.058C168.574 19.4381 168.332 19.6798 168.332 20.1636V27.1786L168.574 23.3083ZM170.267 23.3083H168.574V20.1636C168.574 19.6798 168.816 19.4381 169.3 19.4381H170.267C170.751 19.4381 172.686 19.4379 172.686 21.3731C172.686 22.5825 171.96 23.3083 170.267 23.3083ZM169.3 22.5825H170.509C171.476 22.5825 172.444 22.3407 172.444 21.1312C172.444 19.9217 171.476 19.9217 170.509 19.9217H169.541V22.5825H169.3Z" fill="black"></path><path d="M182.601 19.1962C182.601 19.1962 182.601 18.9541 182.843 18.9541C183.085 18.9541 183.327 19.1962 183.327 19.1962V19.4381L180.183 27.1786C180.183 27.4205 179.941 27.6626 179.699 27.6626C179.457 27.6626 179.215 27.4205 179.215 27.1786L176.071 19.4381V19.1962C176.071 18.9543 176.313 18.9541 176.555 18.9541C176.797 18.9541 176.797 18.9543 176.797 19.1962L179.941 26.9368L182.601 19.1962Z" fill="black"></path><path d="M179.699 27.9045C179.216 27.9045 178.974 27.4206 178.974 27.4206L175.83 19.6799C175.83 19.6799 175.83 19.4381 175.83 19.1962C175.83 18.7124 176.071 18.4704 176.555 18.4704C177.039 18.4704 177.039 18.7121 177.039 18.954L179.699 25.9692L182.36 18.954H182.602L182.36 18.7122C182.36 18.7122 182.602 18.2285 182.843 18.2285C183.085 18.2285 183.569 18.4702 183.569 18.954C183.569 19.1959 183.569 19.1961 183.569 19.438L180.425 26.9369C180.425 27.4207 180.183 27.9045 179.699 27.9045ZM182.602 19.1962H182.843L179.699 27.1787C179.699 27.1787 179.699 27.1788 179.941 26.9369L183.085 19.1962C183.085 19.1962 183.085 19.1959 183.085 18.954L182.602 19.1962ZM176.313 19.1962L179.457 26.9369C179.457 26.9369 179.457 27.1787 179.699 27.1787L176.313 19.1962Z" fill="black"></path><path d="M186.713 19.1962C186.713 18.9543 186.955 18.9541 186.955 18.9541C187.197 18.9541 187.197 19.1962 187.197 19.1962V27.1786C187.197 27.4205 186.955 27.4204 186.955 27.4204C186.713 27.4204 186.713 27.1786 186.713 27.1786V19.1962Z" fill="black"></path><path d="M186.955 27.9045C186.471 27.9045 186.229 27.6625 186.229 27.1787V19.1963C186.229 18.7125 186.471 18.4705 186.955 18.4705C187.439 18.4705 187.681 18.7125 187.681 19.1963V27.1787C187.681 27.6625 187.439 27.9045 186.955 27.9045ZM186.955 19.1963V27.1787V19.1963Z" fill="black"></path><path d="M191.066 23.3084C191.066 20.8894 192.759 18.9541 195.42 18.9541C196.387 18.9541 197.113 19.1962 197.597 19.4381C197.838 19.4381 197.838 19.6799 197.838 19.6799C197.838 19.9218 197.597 19.9217 197.597 19.9217C197.597 19.9217 197.355 19.9218 197.355 19.6799C196.629 19.1961 195.904 19.1962 195.662 19.1962C193.485 19.1962 192.034 20.8895 192.034 22.8247C192.034 24.518 193.243 26.4531 195.904 26.4531C196.629 26.4531 197.113 26.211 197.597 26.211C197.597 26.211 197.838 25.9692 198.08 25.9692C198.08 25.9692 198.322 25.9691 198.322 26.211C198.322 26.4529 198.08 26.4531 198.08 26.4531C197.355 26.9369 196.387 26.9368 195.662 26.9368C192.759 27.4206 191.066 25.4854 191.066 23.3084Z" fill="black"></path><path d="M195.42 27.9045C192.517 27.9045 190.583 25.9693 190.583 23.3083C190.583 20.6474 192.517 18.7122 195.178 18.7122C196.145 18.7122 196.871 18.9542 197.596 19.1961C197.838 19.438 197.838 19.6798 197.838 19.6798C197.838 19.9217 197.596 20.4056 197.113 20.4056C196.871 20.4056 196.871 20.4054 196.629 20.1635C195.903 19.9216 195.42 19.6798 194.936 19.6798C193.001 19.6798 191.55 21.1313 191.55 23.0665C191.55 24.7598 192.517 26.4532 194.936 26.4532C195.662 26.4532 196.145 26.2111 196.629 26.2111C196.871 25.9692 197.113 25.9692 197.113 25.9692C197.354 25.9692 197.596 26.2112 197.596 26.695C197.596 26.9369 197.596 27.1787 197.113 27.1787C196.871 27.6625 195.903 27.9045 195.42 27.9045ZM195.42 19.1961C193.001 19.1961 191.308 20.8893 191.308 23.3083C191.308 25.2436 192.517 27.4206 195.42 27.4206C195.903 27.4206 196.871 27.4207 197.596 26.9369H197.355C196.871 27.1788 196.387 27.1787 195.42 27.1787C192.517 27.1787 191.308 25.0017 191.308 23.3083C191.55 20.8893 193.243 19.1961 195.42 19.1961C195.903 19.1961 196.629 19.196 197.355 19.6798C196.871 19.4379 196.145 19.1961 195.42 19.1961Z" fill="black"></path><path d="M205.579 22.8247C205.82 22.8247 205.82 23.0666 205.82 23.0666C205.82 23.3085 205.82 23.3084 205.579 23.3084H201.951V26.2111C201.951 26.453 202.193 26.695 202.434 26.695H206.062C206.304 26.695 206.304 26.9369 206.304 26.9369C206.304 27.1788 206.304 27.1787 206.062 27.1787H202.193C201.225 27.1787 201.225 26.453 201.225 26.2111V19.9218C201.225 19.6799 201.225 18.9541 202.193 18.9541H205.82C206.062 18.9541 206.062 19.1962 206.062 19.1962C206.062 19.4381 206.062 19.4381 205.82 19.4381H202.434C202.193 19.4381 201.951 19.438 201.951 19.9218V22.5826H205.579V22.8247Z" fill="black"></path><path d="M206.062 27.6626H202.192C201.467 27.6626 200.983 27.1786 200.983 26.211V19.9218C200.983 18.9542 201.467 18.4705 202.192 18.4705H205.82C206.304 18.4705 206.546 18.7125 206.546 19.1963C206.546 19.4382 206.304 19.9218 205.82 19.9218H202.434V22.3407H205.82C206.304 22.3407 206.304 22.5827 206.304 23.0665C206.304 23.5503 206.062 23.792 205.82 23.792H202.434V26.4531H206.062C206.546 26.4531 206.787 26.6948 206.787 27.1786C206.787 27.4205 206.546 27.6626 206.062 27.6626ZM202.192 19.4381C201.708 19.4381 201.467 19.6798 201.467 20.1636V26.4531C201.467 26.9369 201.467 27.1786 202.192 27.1786H206.062H202.434C202.192 27.1786 201.709 27.1788 201.709 26.4531V23.3084H205.578H201.709V20.4057C201.709 19.6801 201.95 19.4381 202.192 19.4381H205.82H202.192Z" fill="black"></path><path d="M95.5332 69.7529L94.3239 72.8977C94.3239 73.1396 94.0821 73.3813 93.8402 73.3813C93.5983 73.3813 93.3564 73.1396 93.3564 72.8977V72.6558L97.2262 63.2217C97.2262 62.9798 97.4681 62.738 97.9518 62.738C98.4355 62.738 98.6774 62.9798 98.6774 63.2217L102.547 72.6558V72.8977C102.547 73.1396 102.305 73.3813 102.063 73.3813C101.822 73.3813 101.822 73.1396 101.58 72.8977L100.37 69.7529H95.5332ZM100.129 68.7855L97.9518 63.2217L95.775 68.7855H100.129Z" fill="black"></path><path d="M102.063 73.8652C101.337 73.8652 101.096 73.3813 101.096 73.1394L100.128 70.4787H96.0165L95.0491 73.1394C95.0491 73.3813 94.8072 73.8652 94.0817 73.8652C93.598 73.8652 93.1143 73.3814 93.1143 72.8976C93.1143 72.6557 93.1143 72.6558 93.1143 72.4139L96.9839 62.7381C97.2258 62.0125 97.9514 61.7705 98.1932 61.7705C98.6769 61.7705 99.1607 62.0125 99.4025 62.7381L103.272 72.1718C103.272 72.4137 103.514 72.4139 103.514 72.6558C103.272 73.3814 102.789 73.8652 102.063 73.8652ZM96.7421 68.3015H99.4025L98.1932 64.915L96.7421 68.3015Z" fill="black"></path><path d="M106.416 72.8978C105.207 72.8978 105.207 71.9302 105.207 71.6883V63.9475C105.207 63.4637 105.207 62.738 106.416 62.738H108.351C109.319 62.738 111.737 62.738 111.737 65.1571C111.737 66.8504 110.77 67.3342 110.044 67.5761C110.77 67.818 111.979 68.3017 111.979 70.2369C111.979 73.1398 109.077 73.1396 108.351 73.1396H106.416V72.8978ZM108.351 67.0921C109.077 67.0921 110.77 67.0923 110.77 65.1571C110.77 63.2218 109.319 63.2217 108.109 63.2217H106.416C105.933 63.2217 105.933 63.2216 105.933 63.7054V67.0921H108.351V67.0921ZM106.174 71.6883C106.174 72.1721 106.416 72.172 106.658 72.172H108.351C109.319 72.172 111.253 72.1722 111.253 70.2369C111.253 68.0598 109.319 68.0598 108.351 68.0598H105.933V71.6883H106.174Z" fill="black"></path><path d="M108.351 73.6235H106.417C105.691 73.6235 104.724 73.3815 104.724 71.6882V63.9475C104.724 62.2542 105.691 62.0122 106.417 62.0122H108.351C111.012 62.0122 112.463 62.9799 112.463 65.157C112.463 66.3665 111.979 67.0922 111.496 67.576C112.221 68.0598 112.947 68.7855 112.947 70.2369C112.705 71.6883 111.979 73.6235 108.351 73.6235ZM106.658 71.4464H108.351C109.803 71.4464 110.77 71.2045 110.77 69.995C110.77 68.7855 110.044 68.3016 108.593 68.3016H106.9V71.4464H106.658ZM106.658 66.6084H108.351C109.803 66.6084 110.286 66.1246 110.286 65.157C110.286 64.1894 109.803 63.9475 108.11 63.9475H106.658V66.6084Z" fill="black"></path><path d="M119.961 62.2542C123.105 62.2542 125.281 64.4314 125.281 67.5761C125.281 70.7207 122.863 72.8977 119.961 72.8977C117.058 72.8977 114.64 70.7207 114.64 67.5761C114.64 64.4314 117.058 62.2542 119.961 62.2542ZM119.961 72.414C122.621 72.414 124.556 70.4788 124.556 67.8179C124.556 65.157 122.621 63.2218 119.961 63.2218C117.3 63.2218 115.365 65.157 115.365 67.8179C115.607 70.2369 117.542 72.414 119.961 72.414Z" fill="black"></path><path d="M119.96 73.8652C116.574 73.8652 113.914 71.2044 113.914 67.8179C113.914 64.4313 116.574 61.7705 119.96 61.7705C123.346 61.7705 126.007 64.4313 126.007 67.8179C126.007 71.2044 123.346 73.8652 119.96 73.8652ZM119.96 63.7055C117.784 63.7055 116.091 65.3989 116.091 67.8179C116.091 69.9949 117.784 71.93 119.96 71.93C122.137 71.93 123.83 70.2368 123.83 67.8179C123.83 65.3989 122.137 63.7055 119.96 63.7055Z" fill="black"></path><path d="M128.425 62.7381C128.425 62.4962 128.667 62.2542 128.909 62.2542C129.151 62.2542 129.393 62.4962 129.393 62.7381V68.3016C129.393 69.9949 129.393 72.1719 132.779 72.1719C136.165 72.1719 136.165 69.753 136.165 68.3016V62.7381C136.165 62.4962 136.407 62.2542 136.648 62.2542C136.89 62.2542 137.132 62.4962 137.132 62.7381V68.3016C137.132 69.753 137.132 72.8977 132.779 72.8977C128.667 72.8977 128.425 69.753 128.425 68.3016V62.7381V62.7381Z" fill="black"></path><path d="M132.779 73.8652C127.941 73.8652 127.941 69.9947 127.941 68.5433V62.9799C127.941 62.2542 128.425 62.0122 128.909 62.0122C129.393 62.0122 129.876 62.4961 129.876 62.9799V68.5433C129.876 70.4785 130.118 71.9299 132.779 71.9299C135.439 71.9299 135.681 70.2366 135.681 68.5433V62.9799C135.681 62.2542 136.165 62.0122 136.648 62.0122C137.374 62.0122 137.616 62.4961 137.616 62.9799V68.5433C137.616 69.7528 137.616 73.8652 132.779 73.8652ZM128.667 62.738H128.909H128.183H128.667Z" fill="black"></path><path d="M144.147 72.656C144.147 72.8979 143.905 73.1396 143.663 73.1396C143.421 73.1396 143.179 72.8979 143.179 72.656V63.2218H139.793C139.551 63.2218 139.31 62.98 139.31 62.7381C139.31 62.4962 139.551 62.2542 139.793 62.2542H147.291C147.533 62.2542 147.775 62.4962 147.775 62.7381C147.775 62.98 147.533 63.2218 147.291 63.2218H143.905V72.656H144.147Z" fill="black"></path><path d="M143.663 73.8652C142.937 73.8652 142.695 73.3814 142.695 72.8976V64.1894H140.035C139.551 64.1894 139.067 63.7056 139.067 63.2218C139.067 62.738 139.551 62.2542 140.035 62.2542H147.532C148.016 62.2542 148.5 62.738 148.5 63.2218C148.5 63.7056 148.016 64.1894 147.532 64.1894H144.872V72.8976C144.63 73.3814 144.146 73.8652 143.663 73.8652ZM143.421 72.6558H144.146H143.421Z" fill="black"></path><path d="M89.2449 169.899C89.9705 170.141 90.4542 170.383 91.1798 170.383C92.3891 170.383 93.8403 169.9 93.8403 168.206C93.8403 166.755 92.6309 166.271 91.6635 166.029C90.4542 165.545 88.7612 165.062 88.7612 163.126C88.7612 161.675 89.9705 160.223 91.9054 160.223C92.631 160.223 93.1147 160.465 93.8403 160.707C93.8403 160.707 94.0821 160.949 94.0821 161.191C94.0821 161.433 93.8402 161.675 93.5984 161.675C93.5984 161.675 93.3565 161.675 93.1147 161.433C92.8728 161.433 92.3891 161.191 91.6635 161.191C90.2124 161.191 89.4868 162.159 89.4868 163.126C89.4868 164.336 90.4542 164.819 91.6635 165.303C92.8728 165.787 94.5658 166.271 94.5658 168.206C94.5658 170.141 92.8728 171.109 90.9379 171.109C89.7286 171.109 88.7612 170.625 88.5194 170.625C88.2775 170.625 88.0356 170.383 88.0356 170.141C88.0356 169.899 88.2775 169.658 88.5194 169.658C89.0031 169.658 89.0031 169.657 89.2449 169.899Z" fill="black"></path><path d="M91.1794 171.593C89.7283 171.593 89.0027 171.109 88.519 171.109C88.2771 171.109 87.7935 170.625 87.7935 170.141C87.7935 169.657 88.2772 169.174 88.7609 169.174C89.0027 169.174 89.0027 169.174 89.4864 169.416C89.9702 169.658 90.4539 169.899 91.1794 169.899C91.6631 169.899 93.3561 169.899 93.3561 168.448C93.3561 167.48 92.6306 167.239 91.4213 166.755C90.212 166.271 88.2772 165.545 88.2772 163.368C88.2772 161.433 89.7283 159.982 91.905 159.982C92.6306 159.982 93.3561 160.223 94.0817 160.465C94.5654 160.707 94.8073 160.949 94.8073 161.433C94.8073 161.917 94.3236 162.401 93.8399 162.401C93.598 162.401 93.3561 162.401 93.1143 162.159C92.8724 162.159 92.3887 161.917 91.905 161.917C90.9376 161.917 90.4538 162.643 90.4538 163.368C90.4538 164.094 90.9376 164.336 92.3887 164.82C93.598 165.303 95.5328 166.029 95.5328 168.448C95.291 170.141 93.8398 171.593 91.1794 171.593Z" fill="black"></path><path d="M103.272 165.061C103.514 165.061 103.755 165.303 103.755 165.545C103.755 165.787 103.514 166.029 103.272 166.029H98.6764V169.658C98.6764 170.141 98.9183 170.141 99.1601 170.141H103.755C103.997 170.141 104.239 170.383 104.239 170.625C104.239 170.867 103.997 171.109 103.755 171.109H98.9183C97.709 171.109 97.709 170.141 97.709 169.899V162.159C97.709 161.675 97.709 160.949 98.9183 160.949H103.514C103.755 160.949 103.997 161.191 103.997 161.433C103.997 161.675 103.755 161.917 103.514 161.917H99.1601C98.6764 161.917 98.6764 161.917 98.6764 162.401V165.787H103.272V165.061Z" fill="black"></path><path d="M103.756 171.351H98.9186C98.193 171.351 97.2256 171.109 97.2256 169.416V161.675C97.2256 159.981 98.193 159.74 98.9186 159.74H103.514C104.239 159.74 104.481 160.223 104.481 160.707C104.481 161.191 103.998 161.675 103.514 161.675H99.1605V164.336H103.03C103.756 164.336 103.998 164.819 103.998 165.303C103.998 165.787 103.514 166.271 103.03 166.271H99.1605V169.174H103.756C104.481 169.174 104.723 169.657 104.723 170.141C104.723 171.109 104.481 171.351 103.756 171.351Z" fill="black"></path><path d="M113.189 170.383C113.189 170.625 113.431 170.625 113.431 170.867C113.431 171.109 113.189 171.351 112.947 171.351C112.705 171.351 112.705 171.109 112.463 171.109L108.835 166.513H107.626V171.109C107.626 171.351 107.384 171.593 107.142 171.593C106.901 171.593 106.659 171.351 106.659 171.109V162.159C106.659 161.675 106.659 160.949 107.868 160.949H109.803C111.98 160.949 112.947 162.159 112.947 163.852C112.947 165.061 112.221 166.755 109.803 166.755L113.189 170.383ZM109.561 165.303C110.287 165.303 112.221 165.303 112.221 163.368C112.221 161.433 110.287 161.433 109.561 161.433H108.352C107.868 161.433 107.868 161.433 107.868 161.917V165.545H109.561V165.303Z" fill="black"></path><path d="M112.947 171.593C112.463 171.593 112.221 171.351 111.979 171.109L108.593 166.755H108.351V170.625C108.351 171.351 107.868 171.593 107.384 171.593C106.658 171.593 106.417 171.109 106.417 170.625V161.675C106.417 159.981 107.384 159.74 108.109 159.74H110.044C112.221 159.74 113.672 161.191 113.672 163.126C113.672 164.336 112.947 166.029 111.012 166.513L113.672 169.899L113.189 170.383L113.672 170.141C113.914 170.383 113.914 170.625 113.914 170.867C113.914 171.351 113.43 171.593 112.947 171.593ZM112.705 170.625C112.947 170.383 112.947 170.383 112.705 170.625V170.625ZM108.351 164.819H109.561C111.012 164.819 111.495 164.336 111.495 163.368C111.495 162.159 110.77 161.917 109.561 161.917H108.351V164.819Z" fill="black"></path><path d="M123.588 160.465C123.588 160.465 123.588 160.223 124.072 160.223C124.314 160.223 124.556 160.465 124.556 160.707V160.949L120.686 170.383C120.686 170.625 120.444 170.867 119.96 170.867C119.477 170.867 119.235 170.625 119.235 170.383L115.365 160.949V160.707C115.365 160.465 115.607 160.223 115.849 160.223C116.091 160.223 116.091 160.465 116.333 160.465L120.202 169.899L123.588 160.465Z" fill="black"></path><path d="M119.719 171.835C118.751 171.835 118.509 171.109 118.509 170.867L114.64 161.191C114.64 160.949 114.398 160.949 114.398 160.707C114.398 159.981 114.882 159.74 115.365 159.74C115.849 159.74 116.091 159.981 116.333 160.465L119.477 168.69L122.621 160.465L123.105 160.707L122.621 160.465C122.863 159.981 123.105 159.74 123.588 159.74C124.072 159.74 124.556 160.223 124.556 160.707C124.556 160.949 124.556 161.191 124.314 161.191L120.444 170.625C120.928 171.109 120.686 171.593 119.719 171.835ZM123.588 160.465L124.072 160.707L123.588 160.465Z" fill="black"></path><path d="M127.216 160.707C127.216 160.465 127.458 160.223 127.7 160.223C127.941 160.223 128.183 160.465 128.183 160.707V170.625C128.183 171.109 127.941 171.109 127.7 171.109C127.458 171.109 127.216 170.867 127.216 170.625V160.707Z" fill="black"></path><path d="M127.7 171.593C126.974 171.593 126.732 171.109 126.732 170.625V160.707C126.732 159.981 127.216 159.74 127.7 159.74C128.425 159.74 128.667 160.223 128.667 160.707V170.625C128.909 171.351 128.184 171.593 127.7 171.593ZM127.7 160.707H127.942H127.216H127.7Z" fill="black"></path><path d="M131.328 165.787C131.328 162.884 133.505 160.465 136.891 160.465C138.1 160.465 139.068 160.707 139.793 161.191C140.035 161.433 140.035 161.433 140.035 161.675C140.035 161.917 139.793 162.159 139.551 162.159C139.309 162.159 139.309 162.159 139.068 161.917C138.1 161.433 137.133 161.433 136.891 161.433C134.23 161.433 132.296 163.368 132.296 166.029C132.296 168.206 133.747 170.625 137.133 170.625C138.1 170.625 138.826 170.383 139.309 170.141L139.793 169.899C140.035 169.899 140.277 170.141 140.277 170.383C140.277 170.625 140.035 170.625 140.035 170.867C139.068 171.351 137.858 171.593 137.133 171.593C133.505 171.109 131.328 168.69 131.328 165.787Z" fill="black"></path><path d="M136.891 171.593C133.263 171.593 130.844 169.174 130.844 165.545C130.844 162.159 133.505 159.498 136.891 159.498C138.1 159.498 139.067 159.74 140.035 160.223C140.519 160.465 140.518 160.949 140.518 161.191C140.518 161.675 140.035 162.159 139.551 162.159C139.309 162.159 139.067 162.159 138.826 161.917C138.1 161.433 137.133 161.433 136.891 161.433C134.472 161.433 132.779 163.126 132.779 165.545C132.779 167.48 133.988 169.657 136.891 169.657C137.858 169.657 138.342 169.416 138.826 169.174C139.309 168.932 139.309 168.932 139.551 168.932C140.035 168.932 140.518 169.416 140.518 169.899C140.518 170.141 140.519 170.625 139.793 170.867C138.826 171.593 137.616 171.593 136.891 171.593Z" fill="black"></path><path d="M148.258 165.061C148.5 165.061 148.742 165.303 148.742 165.545C148.742 165.787 148.5 166.029 148.258 166.029H143.663V169.658C143.663 170.141 143.905 170.141 144.146 170.141H148.742C148.984 170.141 149.225 170.383 149.225 170.625C149.225 170.867 148.984 171.109 148.742 171.109H143.905C142.695 171.109 142.695 170.141 142.695 169.899V162.159C142.695 161.675 142.695 160.949 143.905 160.949H148.5C148.742 160.949 148.984 161.191 148.984 161.433C148.984 161.675 148.742 161.917 148.5 161.917H144.146C143.663 161.917 143.663 161.917 143.663 162.401V165.787H148.258V165.061Z" fill="black"></path><path d="M148.983 171.351H144.146C143.421 171.351 142.453 171.109 142.453 169.416V161.675C142.453 159.981 143.421 159.74 144.146 159.74H148.741C149.467 159.74 149.709 160.223 149.709 160.707C149.709 161.191 149.225 161.675 148.741 161.675H144.388V164.336H148.258C148.983 164.336 149.225 164.819 149.225 165.303C149.225 165.787 148.741 166.271 148.258 166.271H144.388V169.174H148.983C149.709 169.174 149.951 169.657 149.951 170.141C149.951 171.109 149.467 171.351 148.983 171.351Z" fill="black"></path><path d="M46.1938 15.0835H18.6221V29.5977H46.1938V15.0835Z" fill="black"></path><path d="M234.118 38.3059H3.14355V43.1438H234.118V38.3059Z" fill="black"></path><path d="M200.015 91.5239H36.2778V93.9429H200.015V91.5239Z" fill="black"></path><path d="M200.015 104.345H36.2778V106.764H200.015V104.345Z" fill="black"></path><path d="M200.015 117.165H36.2778V119.584H200.015V117.165Z" fill="black"></path><path d="M200.015 129.744H36.2778V132.163H200.015V129.744Z" fill="black"></path><path d="M118.751 12.9065C118.026 12.9065 117.542 12.4227 117.542 11.697V4.92408C117.542 4.19839 118.026 3.7146 118.751 3.7146C119.477 3.7146 119.961 4.19839 119.961 4.92408V11.697C119.961 12.1808 119.477 12.9065 118.751 12.9065Z" fill="#040000"></path></svg> 