<?xml version="1.0" encoding="UTF-8"?> <svg xmlns="http://www.w3.org/2000/svg" width="237" height="223" viewBox="0 0 237 223" fill="none"><path d="M227.35 222.789H9.67789C4.59888 222.789 0.487305 218.677 0.487305 213.597V9.19218C0.487305 4.11229 4.59888 0 9.67789 0H227.35C232.429 0 236.54 4.11229 236.54 9.19218V213.597C236.54 218.677 232.429 222.789 227.35 222.789ZM9.67789 4.83799C7.25931 4.83799 5.32446 6.77319 5.32446 9.19218V213.597C5.32446 216.016 7.25931 217.951 9.67789 217.951H227.35C229.768 217.951 231.703 216.016 231.703 213.597V9.19218C231.703 6.77319 229.768 4.83799 227.35 4.83799H9.67789V4.83799Z" fill="black"></path><path d="M64.5795 26.6089C64.5795 26.8508 64.3377 26.8508 64.3377 26.8508C64.0958 26.8508 64.0958 26.8508 64.0958 26.6089V19.11H61.4354C60.9517 19.11 60.9517 19.11 60.9517 18.8681C60.9517 18.6262 60.9517 18.6262 61.1935 18.6262H67.24C67.4818 18.6262 67.4818 18.8681 67.4818 18.8681C67.4818 19.11 67.4818 19.11 67.24 19.11H64.5795V26.6089V26.6089Z" fill="black"></path><path d="M64.0958 27.3346C63.6121 27.3346 63.3702 27.0927 63.3702 26.6089V19.3519H60.9516C60.4679 19.3519 60.2261 19.11 60.2261 18.6262C60.2261 18.1424 60.4679 17.9005 60.9516 17.9005H66.9981C67.4818 17.9005 67.7237 18.1424 67.7237 18.6262C67.7237 18.8681 67.4818 19.3519 66.9981 19.3519H64.5795V26.6089C64.8214 27.0927 64.5795 27.3346 64.0958 27.3346ZM61.1935 18.8681H64.0958V26.6089V18.8681H66.9981H61.1935Z" fill="black"></path><path d="M74.7377 18.3843C77.1563 18.3843 79.0911 20.0776 79.0911 22.7385C79.0911 25.1575 77.1563 27.0927 74.7377 27.0927C72.3191 27.0927 70.3843 25.3994 70.3843 22.7385C70.3843 20.3195 72.3191 18.3843 74.7377 18.3843ZM74.7377 26.367C76.6725 26.367 78.3655 24.6737 78.3655 22.7385C78.3655 20.8033 76.9144 19.11 74.7377 19.11C72.8028 19.11 71.1098 20.8033 71.1098 22.7385C71.1098 24.6737 72.561 26.367 74.7377 26.367Z" fill="black"></path><path d="M74.7376 27.3346C72.0772 27.3346 70.1423 25.3994 70.1423 22.7385C70.1423 20.0777 72.0772 18.1425 74.7376 18.1425C77.3981 18.1425 79.3329 20.0777 79.3329 22.7385C79.3329 25.3994 77.1562 27.3346 74.7376 27.3346ZM74.7376 18.6263C72.319 18.6263 70.626 20.3196 70.626 22.7385C70.626 24.9156 72.319 26.8508 74.7376 26.8508C77.1562 26.8508 78.8492 25.1575 78.8492 22.7385C78.6074 20.3196 76.9143 18.6263 74.7376 18.6263ZM74.7376 26.6089C72.5609 26.6089 70.8679 24.9156 70.8679 22.7385C70.8679 20.5615 72.5609 18.8682 74.7376 18.8682C76.9143 18.8682 78.6074 20.5615 78.6074 22.7385C78.6074 24.9156 76.9143 26.6089 74.7376 26.6089ZM74.7376 19.352C72.8028 19.352 71.3516 20.8034 71.3516 22.7385C71.3516 24.6737 72.8028 26.1251 74.7376 26.1251C76.6725 26.1251 78.1236 24.6737 78.1236 22.7385C77.8818 20.8034 76.4306 19.352 74.7376 19.352Z" fill="black"></path><path d="M83.2025 26.6089C83.2025 26.8508 82.9606 26.8508 82.9606 26.8508C82.7187 26.8508 82.7188 26.8508 82.7188 26.6089V19.5938C82.7188 19.3519 82.7188 18.6262 83.6862 18.6262H84.8955C85.6211 18.6262 86.1048 18.6262 86.5885 18.8681C87.5559 19.3519 87.7978 20.5614 87.7978 21.0452C87.7978 21.7709 87.5559 22.7385 86.5885 23.2223C86.1048 23.4642 85.6211 23.4642 84.8955 23.4642H83.4443V26.6089H83.2025ZM84.4118 22.7385C85.1373 22.7385 86.5885 22.7385 86.5885 21.0452C86.5885 19.3519 85.1373 19.3519 84.4118 19.3519H83.6862C83.4443 19.3519 83.2025 19.3519 83.2025 19.8357V22.9804H84.4118V22.7385Z" fill="black"></path><path d="M82.7187 27.3346C82.235 27.3346 81.9932 27.0927 81.9932 26.6089V19.5939C81.9932 18.6263 82.4769 18.1425 83.2025 18.1425H84.4117C85.1373 18.1425 85.621 18.1425 86.3466 18.6263C87.5559 19.352 87.5559 20.5615 87.5559 21.0453C87.5559 22.2547 87.0722 22.9804 86.3466 23.4642C85.8629 23.7061 85.1373 23.7061 84.4117 23.7061H83.4443V26.6089C83.4443 27.0927 82.9606 27.3346 82.7187 27.3346ZM83.4443 18.8682C82.7188 18.8682 82.7187 19.1101 82.7187 19.5939V26.6089V22.9804H84.4117C84.8955 22.9804 85.3792 22.9804 85.8629 22.7385C86.5885 22.4966 86.8303 21.771 86.8303 20.8034C86.8303 20.3196 86.5885 19.352 85.8629 19.1101C85.3792 18.8682 84.8955 18.8682 84.4117 18.8682H83.4443ZM84.4117 22.9804H82.7187V19.5939C82.7187 19.1101 82.9606 18.8682 83.4443 18.8682H84.1699C84.8955 18.8682 86.8303 18.8682 86.8303 21.0453C86.8303 22.9804 85.1373 22.9804 84.4117 22.9804ZM83.4443 22.4966H84.4117C85.3792 22.4966 86.3466 22.4966 86.3466 21.0453C86.3466 19.5939 85.3792 19.5939 84.4117 19.5939H83.6862V22.4966H83.4443Z" fill="black"></path><path d="M97.2303 24.1899L96.2629 26.6089C96.2629 26.8508 96.2629 26.8508 96.0211 26.8508C95.7792 26.8508 95.5374 26.8508 95.5374 26.6089V26.367L98.6815 18.6263C98.6815 18.3844 98.9234 18.1425 99.1652 18.1425C99.6489 18.3844 99.6489 18.6263 99.6489 18.8682L102.551 26.6089V26.8508C102.551 27.0927 102.309 27.0927 102.067 27.0927C101.826 27.0927 101.826 26.8508 101.826 26.8508L100.858 24.4318H97.2303V24.1899ZM100.858 23.7061L99.1652 19.352L97.4722 23.7061H100.858Z" fill="black"></path><path d="M102.551 27.3347C102.067 27.3347 102.067 27.0928 101.826 26.8509L100.858 24.4319H97.2303L96.2629 26.609C96.2629 26.8509 96.0211 27.0928 95.5373 27.0928C95.2955 27.0928 94.8118 26.8509 94.8118 26.3671V26.1252L97.9559 18.3844C98.1978 17.9006 98.4396 17.6587 98.6815 17.6587C99.1652 17.6587 99.4071 17.9006 99.4071 18.3844L102.309 26.1252C102.309 26.3671 102.309 26.3671 102.309 26.609C103.035 27.0928 102.793 27.3347 102.551 27.3347ZM96.9885 23.9481H101.342L102.309 26.609L99.1652 18.8682C99.1652 18.8682 99.1652 18.6263 98.9233 18.6263L100.858 23.9481H96.9885L98.9233 18.6263C98.9233 18.6263 98.9233 18.6263 98.6815 18.8682L95.7792 26.609V26.8509L96.9885 23.9481ZM97.9559 23.4643H100.616L99.4071 20.0777L97.9559 23.4643Z" fill="black"></path><path d="M106.905 26.8508C105.937 26.8508 105.937 26.1251 105.937 25.8832V19.5938C105.937 19.3519 105.937 18.6262 106.905 18.6262H108.356C109.081 18.6262 111.016 18.6262 111.016 20.5614C111.016 21.7709 110.291 22.2547 109.807 22.4966C110.291 22.7385 111.258 22.9804 111.258 24.6737C111.258 26.8508 109.081 26.8508 108.356 26.8508H106.905V26.8508ZM108.598 22.2547C109.081 22.2547 110.533 22.2547 110.533 20.8033C110.533 19.3519 109.323 19.3519 108.356 19.3519H107.147C106.905 19.3519 106.663 19.3519 106.663 19.8357V22.4966H108.598V22.2547ZM106.663 25.8832C106.663 26.1251 106.905 26.367 107.147 26.367H108.598C109.323 26.367 111.016 26.367 111.016 24.6737C111.016 22.9804 109.323 22.9804 108.84 22.9804H106.905V25.8832H106.663Z" fill="black"></path><path d="M108.598 27.0927H106.905C106.179 27.0927 105.695 26.6089 105.695 25.6413V19.5939C105.695 18.6263 106.179 18.1425 106.905 18.1425H108.356C109.081 18.1425 111.5 18.1425 111.5 20.5615C111.5 21.529 111.016 22.0128 110.532 22.4966C111.016 22.7385 111.742 23.4642 111.742 24.6737C111.742 26.367 110.774 27.0927 108.598 27.0927ZM106.905 18.8682C106.421 18.8682 106.179 19.1101 106.179 19.5939V25.8832C106.179 26.367 106.179 26.6089 106.905 26.6089H108.598C109.807 26.6089 111.258 26.367 111.258 24.6737C111.258 23.948 111.016 23.4642 110.774 23.2223C111.016 23.4642 111.258 23.948 111.258 24.6737C111.258 26.6089 109.323 26.6089 108.598 26.6089H107.146C106.905 26.6089 106.421 26.6089 106.421 25.8832V19.5939C106.421 19.1101 106.663 18.8682 106.905 18.8682H108.356C109.323 18.8682 110.774 18.8682 110.774 20.5615C110.774 20.8034 110.774 21.2871 110.532 21.529C110.774 21.2871 110.774 21.0452 110.774 20.3196C110.774 18.8682 109.565 18.6263 108.356 18.6263H106.905V18.8682ZM106.905 25.8832C106.905 25.8832 107.146 25.8832 106.905 25.8832H108.356C109.323 25.8832 110.532 25.8832 110.532 24.6737C110.532 23.4642 109.565 23.2223 108.598 23.2223H106.905V25.8832ZM108.598 22.4966C108.839 22.4966 109.081 22.4966 109.081 22.4966H109.323C109.323 22.4966 108.839 22.4966 108.598 22.4966ZM106.905 22.0128H108.356C109.081 22.0128 110.049 21.7709 110.049 20.8034C110.049 19.8358 109.323 19.5939 108.114 19.5939H106.905V22.0128Z" fill="black"></path><path d="M118.756 18.3843C121.174 18.3843 123.109 20.0776 123.109 22.7385C123.109 25.1575 121.174 27.0927 118.756 27.0927C116.337 27.0927 114.402 25.3994 114.402 22.7385C114.644 20.3195 116.337 18.3843 118.756 18.3843ZM118.756 26.367C120.691 26.367 122.384 24.6737 122.384 22.7385C122.384 20.8033 120.932 19.11 118.756 19.11C116.821 19.11 115.128 20.8033 115.128 22.7385C115.128 24.6737 116.821 26.367 118.756 26.367Z" fill="black"></path><path d="M118.756 27.3346C116.095 27.3346 114.16 25.3994 114.16 22.7385C114.16 20.0777 116.095 18.1425 118.756 18.1425C121.416 18.1425 123.351 20.0777 123.351 22.7385C123.593 25.3994 121.416 27.3346 118.756 27.3346ZM118.756 18.6263C116.337 18.6263 114.644 20.3196 114.644 22.7385C114.644 24.9156 116.337 26.8508 118.756 26.8508C121.174 26.8508 122.867 25.1575 122.867 22.7385C122.867 20.3196 121.174 18.6263 118.756 18.6263ZM118.756 26.6089C116.579 26.6089 114.886 24.9156 114.886 22.7385C114.886 20.5615 116.579 18.8682 118.756 18.8682C120.932 18.8682 122.625 20.5615 122.625 22.7385C122.625 24.9156 121.174 26.6089 118.756 26.6089ZM118.756 19.352C116.821 19.352 115.37 20.8034 115.37 22.7385C115.37 24.6737 116.821 26.1251 118.756 26.1251C120.691 26.1251 122.142 24.6737 122.142 22.7385C122.142 20.8034 120.691 19.352 118.756 19.352Z" fill="black"></path><path d="M126.737 18.8681C126.737 18.6262 126.979 18.6262 126.979 18.6262C127.221 18.6262 127.221 18.6262 127.221 18.8681V23.4642C127.221 24.6737 127.221 26.6089 129.881 26.6089C132.541 26.6089 132.541 24.6737 132.541 23.4642V18.8681C132.541 18.6262 132.783 18.6262 132.783 18.6262C133.025 18.6262 133.025 18.6262 133.025 18.8681V23.4642C133.025 24.6737 133.025 27.3346 129.639 27.3346C126.253 27.3346 126.253 24.9156 126.253 23.4642V18.8681H126.737Z" fill="black"></path><path d="M130.123 27.3346C126.495 27.3346 126.495 24.4318 126.495 23.2223V18.8682C126.495 18.3844 126.737 18.1425 127.221 18.1425C127.704 18.1425 127.946 18.3844 127.946 18.8682V23.4642C127.946 24.9156 128.188 26.367 130.365 26.367C132.542 26.367 132.783 24.9156 132.783 23.4642V18.8682C132.783 18.3844 133.025 18.1425 133.509 18.1425C133.993 18.1425 134.235 18.3844 134.235 18.8682V23.4642C133.751 24.4318 133.751 27.3346 130.123 27.3346ZM126.979 18.6263V23.2223C126.979 24.9156 127.463 26.6089 130.123 26.6089C132.783 26.6089 133.267 24.9156 133.267 23.2223V18.8682V23.4642C133.267 24.6737 133.267 26.8508 130.123 26.8508C126.979 26.8508 126.979 24.4318 126.979 23.4642V18.6263Z" fill="black"></path><path d="M140.281 26.6089C140.281 26.8508 140.039 26.8508 140.039 26.8508C139.797 26.8508 139.797 26.8508 139.797 26.6089V19.11H137.137C136.895 19.11 136.895 18.8681 136.895 18.8681C136.895 18.6262 136.895 18.6262 137.137 18.6262H143.183C143.425 18.6262 143.425 18.8681 143.425 18.8681C143.425 19.11 143.425 19.11 143.183 19.11H140.523V26.6089H140.281Z" fill="black"></path><path d="M140.039 27.3346C139.555 27.3346 139.313 27.0927 139.313 26.6089V19.3519H136.895C136.411 19.3519 136.169 19.11 136.169 18.6262C136.169 18.1424 136.411 17.9005 136.895 17.9005H142.941C143.425 17.9005 143.667 18.1424 143.667 18.6262C143.667 18.8681 143.425 19.3519 142.941 19.3519H140.523V26.6089C140.523 27.0927 140.281 27.3346 140.039 27.3346ZM136.895 18.8681H139.797V26.6089V18.8681H142.699H136.895Z" fill="black"></path><path d="M152.132 26.1251C152.616 26.367 153.1 26.367 153.583 26.367C154.551 26.367 155.76 25.8832 155.76 24.6737C155.76 23.4642 154.792 23.2223 154.067 22.9804C153.099 22.7385 151.89 22.2547 151.89 20.8033C151.89 19.5938 152.858 18.6262 154.309 18.6262C154.792 18.6262 155.276 18.8681 155.76 18.8681C155.76 18.8681 156.002 18.8681 156.002 19.11C156.002 19.3519 155.76 19.3519 155.76 19.3519H155.518C155.276 19.3519 154.792 19.11 154.309 19.11C153.099 19.11 152.616 19.8357 152.616 20.8033C152.616 21.7709 153.583 22.2547 154.309 22.4966C155.276 22.7385 156.486 23.2223 156.486 24.9156C156.486 26.367 155.276 27.3346 153.583 27.3346C152.616 27.3346 151.89 27.0927 151.648 26.8508C151.406 26.8508 151.406 26.6089 151.406 26.6089C151.406 26.367 151.648 26.367 151.648 26.367C151.648 25.8832 151.89 25.8832 152.132 26.1251Z" fill="black"></path><path d="M153.583 27.3346C152.616 27.3346 151.89 27.0927 151.648 26.8508C151.406 26.8508 151.165 26.6089 151.165 26.1251C151.165 25.8832 151.406 25.3994 151.89 25.3994C151.89 25.3994 152.132 25.3994 152.374 25.6413C152.858 25.8832 153.341 25.8832 153.825 25.8832C154.309 25.8832 155.76 25.8832 155.76 24.4318C155.76 23.4642 155.276 23.2223 154.067 22.9804C153.099 22.7385 151.648 22.2547 151.648 20.5614C151.648 19.3519 152.616 17.9005 154.309 17.9005C154.792 17.9005 155.518 18.1424 156.002 18.3843C156.002 18.3843 156.485 18.6262 156.485 18.8681C156.485 19.11 156.244 19.5938 155.76 19.5938C155.518 19.5938 155.518 19.5938 155.276 19.3519C155.034 19.3519 154.792 19.11 154.309 19.11C153.341 19.11 152.858 19.8357 152.858 20.3195C152.858 21.0452 153.341 21.2871 154.309 21.7709C155.276 22.2547 156.727 22.7385 156.727 24.4318C156.727 26.367 155.518 27.3346 153.583 27.3346ZM151.648 26.1251C151.648 26.367 151.648 26.367 151.648 26.1251C152.132 26.367 152.616 26.6089 153.583 26.6089C154.792 26.6089 156.002 26.1251 156.002 24.6737C156.002 23.2223 155.034 22.9804 154.067 22.4966C153.099 22.2547 152.132 21.7709 152.132 20.5614C152.132 19.5938 152.858 18.6262 154.067 18.6262C154.551 18.6262 155.034 18.8681 155.276 18.8681C155.518 18.8681 155.518 18.8681 155.518 18.8681C155.034 18.6262 154.551 18.6262 154.067 18.6262C152.616 18.6262 151.89 19.5938 151.89 20.5614C151.89 21.7709 152.858 22.2547 153.825 22.4966C154.792 22.7385 155.76 23.2223 155.76 24.6737C155.76 26.1251 154.551 26.6089 153.341 26.6089C152.858 26.6089 152.132 26.367 151.648 26.1251V26.1251C151.648 26.367 151.648 26.367 151.648 26.1251Z" fill="black"></path><path d="M164.225 22.2547C164.467 22.2547 164.467 22.4966 164.467 22.4966C164.467 22.7385 164.467 22.7385 164.225 22.7385H160.597V25.6413C160.597 25.8832 160.839 26.1251 161.081 26.1251H164.709C164.951 26.1251 164.951 26.367 164.951 26.367C164.951 26.6089 164.951 26.6089 164.709 26.6089H160.839C159.872 26.6089 159.872 25.8832 159.872 25.6413V19.5938C159.872 19.3519 159.872 18.6262 160.839 18.6262H164.467C164.709 18.6262 164.709 18.8681 164.709 18.8681C164.709 19.11 164.709 19.11 164.467 19.11H160.839C160.597 19.11 160.355 19.11 160.355 19.5938V22.2547H164.225V22.2547Z" fill="black"></path><path d="M164.709 27.0927H160.839C160.113 27.0927 159.63 26.6089 159.63 25.6413V19.5939C159.63 18.6263 160.113 18.1425 160.839 18.1425H164.467C164.951 18.1425 165.192 18.3844 165.192 18.8682C165.192 19.1101 164.951 19.5939 164.467 19.5939H160.839V22.0128H164.225C164.709 22.0128 164.709 22.2547 164.709 22.7385C164.709 23.2223 164.467 23.4642 164.225 23.4642H160.839V26.1251H164.467C164.951 26.1251 165.192 26.367 165.192 26.8508C165.434 26.8508 165.192 27.0927 164.709 27.0927ZM160.839 18.8682C160.355 18.8682 160.113 19.1101 160.113 19.5939V25.8832C160.113 26.367 160.113 26.6089 160.839 26.6089H164.709H161.081C160.839 26.6089 160.355 26.6089 160.355 25.8832V22.4966H164.225H160.355V19.5939C160.355 19.1101 160.597 18.8682 160.839 18.8682H164.467H160.839Z" fill="black"></path><path d="M173.415 26.367C173.415 26.6089 173.657 26.6089 173.657 26.6089C173.657 26.8508 173.415 26.8508 173.415 26.8508C173.173 26.8508 173.173 26.8508 173.173 26.6089L170.271 22.9804H169.304V26.6089C169.304 26.8508 169.062 26.8508 169.062 26.8508C168.82 26.8508 168.82 26.8508 168.82 26.6089V19.5938C168.82 19.3519 168.82 18.6262 169.787 18.6262H171.238C172.931 18.6262 173.657 19.5938 173.657 20.8033C173.657 21.7709 173.173 22.9804 171.238 22.9804L173.415 26.367ZM170.513 22.4966C170.997 22.4966 172.69 22.4966 172.69 20.8033C172.69 19.11 171.238 19.11 170.513 19.11H169.545C169.304 19.11 169.062 19.11 169.062 19.5938V22.4966H170.513Z" fill="black"></path><path d="M173.173 27.3346C172.932 27.3346 172.69 27.0927 172.69 27.0927L169.787 23.4642H169.304V26.6089C169.304 27.0927 169.062 27.3346 168.578 27.3346C168.094 27.3346 167.853 27.0927 167.853 26.6089V19.5939C167.853 18.6263 168.336 18.1425 169.062 18.1425H170.513C172.448 18.1425 173.173 19.352 173.173 20.8034C173.173 22.0128 172.69 22.9804 170.997 23.2223L173.173 26.1251L172.932 26.367L173.173 26.1251C173.173 26.367 173.415 26.367 173.415 26.6089C173.657 27.0927 173.415 27.3346 173.173 27.3346ZM168.82 22.7385H170.271L173.173 26.6089L173.415 26.367L173.173 26.6089L170.271 22.7385H170.755C172.69 22.7385 172.932 21.2872 172.932 20.8034C172.932 19.5939 172.206 18.8682 170.755 18.8682H169.304C168.82 18.8682 168.578 19.1101 168.578 19.5939V26.6089L168.82 22.7385ZM170.513 22.7385H168.82V19.5939C168.82 19.1101 169.062 18.8682 169.546 18.8682H170.513C170.997 18.8682 172.932 18.8682 172.932 20.8034C172.932 22.0128 171.964 22.7385 170.513 22.7385ZM169.304 22.2547H170.513C171.48 22.2547 172.448 22.0128 172.448 20.8034C172.448 19.5939 171.48 19.5939 170.513 19.5939H169.546V22.2547H169.304Z" fill="black"></path><path d="M182.606 18.6264C182.606 18.6264 182.606 18.3845 182.848 18.3845C183.09 18.3845 183.332 18.6264 183.332 18.6264V18.8683L180.188 26.6091C180.188 26.851 179.946 27.0929 179.704 27.0929C179.462 27.0929 179.22 26.851 179.22 26.6091L176.076 18.8683V18.6264C176.076 18.3845 176.318 18.3845 176.56 18.3845C176.802 18.3845 176.802 18.3845 176.802 18.6264L179.946 26.3672L182.606 18.6264Z" fill="black"></path><path d="M179.704 27.3347C179.22 27.3347 178.978 26.8509 178.978 26.8509L175.834 19.1101C175.834 19.1101 175.834 18.8682 175.834 18.6263C175.834 18.1425 176.076 17.9006 176.56 17.9006C177.043 17.9006 177.043 18.1425 177.043 18.3844L179.704 25.3995L182.364 18.3844H182.606L182.364 18.1425C182.364 18.1425 182.606 17.6587 182.848 17.6587C183.09 17.6587 183.573 17.9006 183.573 18.3844C183.573 18.6263 183.573 18.6263 183.573 18.8682L180.429 26.3671C180.429 26.8509 180.187 27.3347 179.704 27.3347ZM182.606 18.6263H182.848L179.704 26.609C179.704 26.609 179.704 26.609 179.946 26.3671L183.09 18.6263C183.09 18.6263 183.09 18.6263 183.09 18.3844L182.606 18.6263ZM176.318 18.6263C176.318 18.6263 176.318 18.8682 176.318 18.6263C176.318 18.8682 176.318 18.8682 176.318 18.6263L179.462 26.609C179.462 26.609 179.462 26.8509 179.704 26.8509L176.318 18.6263C176.318 18.6263 176.318 18.8682 176.318 18.6263Z" fill="black"></path><path d="M186.718 18.8681C186.718 18.6262 186.959 18.6262 186.959 18.6262C187.201 18.6262 187.201 18.8681 187.201 18.8681V26.6089C187.201 26.8508 186.959 26.8508 186.959 26.8508C186.718 26.8508 186.718 26.6089 186.718 26.6089V18.8681Z" fill="black"></path><path d="M187.201 27.3346C186.717 27.3346 186.476 27.0927 186.476 26.6089V18.8682C186.476 18.3844 186.717 18.1425 187.201 18.1425C187.685 18.1425 187.927 18.3844 187.927 18.8682V26.6089C187.685 27.0927 187.443 27.3346 187.201 27.3346ZM187.201 18.6263V26.6089V18.6263Z" fill="black"></path><path d="M191.071 22.7385C191.071 20.3195 192.764 18.3843 195.424 18.3843C196.392 18.3843 197.117 18.6262 197.601 18.8681C197.843 18.8681 197.843 19.11 197.843 19.11C197.843 19.3519 197.601 19.3519 197.601 19.3519C197.601 19.3519 197.359 19.3519 197.359 19.11C196.634 18.6262 195.908 18.6262 195.666 18.6262C193.489 18.6262 192.038 20.3195 192.038 22.2547C192.038 23.948 193.248 25.8832 195.908 25.8832C196.634 25.8832 197.117 25.6413 197.601 25.6413C197.601 25.6413 197.843 25.3994 198.085 25.3994C198.085 25.3994 198.327 25.3994 198.327 25.6413C198.327 25.8832 198.085 25.8832 198.085 25.8832C197.359 26.367 196.392 26.367 195.666 26.367C192.764 27.0927 191.071 25.1575 191.071 22.7385Z" fill="black"></path><path d="M195.424 27.3346C192.522 27.3346 190.587 25.3994 190.587 22.7385C190.587 20.0777 192.522 18.1425 195.182 18.1425C196.15 18.1425 196.875 18.3844 197.601 18.6263C197.843 18.8682 197.843 19.1101 197.843 19.1101C197.843 19.352 197.601 19.8358 197.117 19.8358C196.875 19.8358 196.875 19.8358 196.634 19.5939C196.634 19.352 195.908 19.352 195.424 19.352C193.489 19.352 192.038 20.8034 192.038 22.7385C192.038 24.4318 193.006 26.1251 195.424 26.1251C196.15 26.1251 196.634 25.8832 197.117 25.8832C197.359 25.6413 197.601 25.6413 197.601 25.6413C197.843 25.6413 198.085 25.8832 198.085 26.367C198.085 26.6089 198.085 26.8508 197.601 26.8508C197.117 27.3346 196.15 27.3346 195.424 27.3346ZM195.424 18.6263C193.006 18.6263 191.313 20.3196 191.313 22.7385C191.313 24.6737 192.522 26.8508 195.424 26.8508C195.908 26.8508 196.875 26.8508 197.601 26.367H197.359C196.875 26.6089 196.392 26.6089 195.424 26.6089C192.522 26.6089 191.313 24.4318 191.313 22.7385C191.555 20.3196 193.248 18.8682 195.424 18.6263C195.908 18.6263 196.634 18.6263 197.359 19.1101C196.875 18.8682 196.15 18.6263 195.424 18.6263Z" fill="black"></path><path d="M205.582 22.2547C205.824 22.2547 205.824 22.4966 205.824 22.4966C205.824 22.7385 205.824 22.7385 205.582 22.7385H201.955V25.6413C201.955 25.8832 202.196 26.1251 202.438 26.1251H206.066C206.308 26.1251 206.308 26.367 206.308 26.367C206.308 26.6089 206.308 26.6089 206.066 26.6089H202.196C201.229 26.6089 201.229 25.8832 201.229 25.6413V19.5938C201.229 19.3519 201.229 18.6262 202.196 18.6262H205.824C206.066 18.6262 206.066 18.8681 206.066 18.8681C206.066 19.11 206.066 19.11 205.824 19.11H202.196C201.955 19.11 201.713 19.11 201.713 19.5938V22.2547H205.582V22.2547Z" fill="black"></path><path d="M206.066 27.0927H202.196C201.471 27.0927 200.987 26.6089 200.987 25.6413V19.5939C200.987 18.6263 201.471 18.1425 202.196 18.1425H205.824C206.308 18.1425 206.55 18.3844 206.55 18.8682C206.55 19.1101 206.308 19.5939 205.824 19.5939H202.196V22.0128H205.582C206.066 22.0128 206.066 22.2547 206.066 22.7385C206.066 23.2223 205.824 23.4642 205.582 23.4642H202.196V26.1251H205.824C206.308 26.1251 206.55 26.367 206.55 26.8508C206.792 26.8508 206.55 27.0927 206.066 27.0927ZM202.196 18.8682C201.713 18.8682 201.471 19.1101 201.471 19.5939V25.8832C201.471 26.367 201.471 26.6089 202.196 26.6089H206.066H202.438C202.196 26.6089 201.713 26.6089 201.713 25.8832V22.4966H205.582H201.713V19.5939C201.713 19.1101 201.954 18.8682 202.196 18.8682H205.824H202.196Z" fill="black"></path><path d="M46.1985 14.7559H18.6267V29.2698H46.1985V14.7559Z" fill="black"></path><path d="M234.363 37.9781H3.3894V42.8161H234.363V37.9781Z" fill="black"></path><path d="M153.825 102.807H89.0073V37.9781H153.825V102.807V102.807ZM93.8445 97.9692H148.988V42.8161H93.8445V97.9692Z" fill="black"></path><path d="M151.406 57.3301H91.4258V62.1681H151.406V57.3301Z" fill="black"></path><path d="M151.406 76.9241H91.4258V81.7621H151.406V76.9241Z" fill="black"></path><path d="M213.806 141.995H148.988V76.9241H213.806V141.995ZM153.825 137.157H208.968V81.7621H153.825V137.157Z" fill="black"></path><path d="M211.387 96.5179H151.406V101.356H211.387V96.5179Z" fill="black"></path><path d="M211.387 116.112H151.406V120.95H211.387V116.112Z" fill="black"></path></svg> 