<?xml version="1.0" encoding="UTF-8"?> <svg xmlns="http://www.w3.org/2000/svg" width="296" height="223" viewBox="0 0 296 223" fill="none"><path d="M217.913 84.8963C217.429 84.8963 216.945 84.4125 216.945 83.9287V31.1946C216.945 30.7108 217.429 30.2271 217.913 30.2271C218.396 30.2271 218.88 30.7108 218.88 31.1946V83.9287C218.88 84.4125 218.396 84.8963 217.913 84.8963Z" fill="black"></path><path d="M217.913 86.1058C216.703 86.1058 215.736 85.1382 215.736 83.9287V31.1947C215.736 29.9852 216.703 29.0176 217.913 29.0176C219.122 29.0176 220.089 29.9852 220.089 31.1947V83.9287C220.089 85.1382 219.122 86.1058 217.913 86.1058Z" fill="black"></path><path d="M209.931 77.6393L211.382 76.188L217.912 83.2031L224.443 76.188L225.894 77.6393L217.912 86.1058L209.931 77.6393Z" fill="black"></path><path d="M217.913 87.7991L208.238 77.3975L211.624 74.4946L217.913 81.5097L224.201 74.4946L227.587 77.3975L217.913 87.7991Z" fill="black"></path><path d="M227.829 110.054H10.1569C5.07789 110.054 0.966309 105.942 0.966309 100.862V9.42367C0.966309 4.34378 5.07789 0.231445 10.1569 0.231445H227.829C232.908 0.231445 237.019 4.34378 237.019 9.42367V100.862C237.019 105.7 232.908 110.054 227.829 110.054ZM10.1569 4.8276C7.73833 4.8276 5.80346 6.76276 5.80346 9.18176V100.62C5.80346 103.039 7.73833 104.974 10.1569 104.974H227.829C230.247 104.974 232.182 103.039 232.182 100.62V9.18176C232.182 6.76276 230.247 4.8276 227.829 4.8276H10.1569Z" fill="black"></path><path d="M63.1238 33.1298C63.1238 33.3717 62.882 33.3717 62.882 33.3717C62.6401 33.3717 62.6401 33.3717 62.6401 33.1298V25.6309H59.9797C59.7378 25.6309 59.7378 25.389 59.7378 25.389C59.7378 25.1471 59.7378 25.1471 59.9797 25.1471H66.0261C66.268 25.1471 66.2679 25.389 66.2679 25.389C66.2679 25.6309 66.268 25.6309 66.0261 25.6309H63.3657V33.1298H63.1238Z" fill="black"></path><path d="M62.882 33.8556C62.3982 33.8556 62.1564 33.6136 62.1564 33.1299V25.8729H59.7378C59.4959 25.8729 59.0122 25.631 59.0122 25.1472C59.0122 24.6635 59.2541 24.4215 59.7378 24.4215H65.7842C66.268 24.4215 66.5098 24.6635 66.5098 25.1472C66.5098 25.3891 66.268 25.8729 65.7842 25.8729H63.3657V33.1299C63.6075 33.6136 63.1238 33.8556 62.882 33.8556ZM59.9797 25.3892H62.882V33.1299V25.3892H65.7842H59.9797Z" fill="black"></path><path d="M73.2821 24.9053C75.7007 24.9053 77.6355 26.5985 77.6355 29.2594C77.6355 31.6784 75.7007 33.6136 73.2821 33.6136C70.8636 33.6136 68.9287 31.9203 68.9287 29.2594C69.1706 26.8404 70.8636 24.9053 73.2821 24.9053ZM73.2821 32.8879C75.217 32.8879 76.91 31.1946 76.91 29.2594C76.91 27.3242 75.4588 25.6309 73.2821 25.6309C71.3473 25.6309 69.6543 27.3242 69.6543 29.2594C69.6543 31.4365 71.3473 32.8879 73.2821 32.8879Z" fill="black"></path><path d="M73.2818 33.8557C70.6214 33.8557 68.6865 31.9205 68.6865 29.2595C68.6865 26.5986 70.6214 24.6635 73.2818 24.6635C75.9423 24.6635 77.8771 26.5986 77.8771 29.2595C77.8771 31.9205 75.9423 33.8557 73.2818 33.8557ZM73.2818 25.1473C70.8633 25.1473 69.1702 26.8405 69.1702 29.2595C69.1702 31.4366 70.8633 33.3719 73.2818 33.3719C75.7004 33.3719 77.3934 31.6786 77.3934 29.2595C77.3934 26.8405 75.7004 25.1473 73.2818 25.1473ZM73.2818 33.13C71.1051 33.13 69.4121 31.4366 69.4121 29.2595C69.4121 27.0824 71.1051 25.1473 73.2818 25.1473C75.4586 25.1473 77.1516 26.8405 77.1516 29.2595C77.1516 31.4366 75.4586 33.13 73.2818 33.13ZM73.2818 25.873C71.347 25.873 69.8958 27.3243 69.8958 29.2595C69.8958 31.1947 71.347 32.6462 73.2818 32.6462C75.2167 32.6462 76.6678 31.1947 76.6678 29.2595C76.6678 27.3243 75.2167 25.873 73.2818 25.873Z" fill="black"></path><path d="M81.7464 33.1299C81.7464 33.3718 81.5046 33.3718 81.5046 33.3718C81.2627 33.3718 81.2627 33.3718 81.2627 33.1299V26.1148C81.2627 25.8729 81.2627 25.1472 82.2301 25.1472H83.4394C84.165 25.1472 84.6487 25.1472 85.1324 25.3891C86.0998 25.8729 86.3417 27.0824 86.3417 27.5662C86.3417 28.2919 86.0998 29.2595 85.1324 29.7433C84.6487 29.9852 84.165 29.9852 83.4394 29.9852H81.9883V33.1299H81.7464ZM82.9557 29.2595C83.6813 29.2595 85.1324 29.2595 85.1324 27.5662C85.1324 25.8729 83.6813 25.8729 82.9557 25.8729H82.2301C81.9883 25.8729 81.7464 25.8729 81.7464 26.3567V29.5014H82.9557V29.2595Z" fill="black"></path><path d="M81.5049 33.8557C81.0212 33.8557 80.7793 33.6138 80.7793 33.13V26.1149C80.7793 25.1473 81.263 24.6635 81.9886 24.6635H83.1979C83.9235 24.6635 84.4072 24.6635 85.1328 24.9054C86.342 25.6311 86.342 26.8406 86.342 27.3244C86.342 28.5339 85.8583 29.2596 85.1328 29.7434C84.649 29.9853 83.9235 29.9853 83.1979 29.9853H82.2305V33.13C82.2305 33.6138 81.7467 33.8557 81.5049 33.8557ZM81.9886 25.3892C81.5049 25.3892 81.263 25.6311 81.263 26.1149V33.13V29.5015H82.956C83.4398 29.5015 83.9235 29.5014 84.4072 29.2595C85.1327 29.0176 85.3746 28.292 85.3746 27.3244C85.3746 26.8406 85.1327 25.8729 84.4072 25.631C83.9235 25.3891 83.4398 25.3892 82.956 25.3892H81.9886V25.3892ZM82.956 29.5015H81.5049V26.1149C81.5049 25.6311 81.7467 25.3892 82.2305 25.3892H82.956C83.6816 25.3892 85.6165 25.3892 85.6165 27.5663C85.6165 29.5015 83.9235 29.5015 82.956 29.5015ZM82.2305 29.0177H83.1979C84.1653 29.0177 85.1328 29.0177 85.1328 27.5663C85.1328 26.1149 84.1653 26.1149 83.1979 26.1149H82.4723V29.0177H82.2305Z" fill="black"></path><path d="M96.0162 30.7109L95.0488 33.1299C95.0488 33.3718 95.0488 33.3718 94.8069 33.3718C94.5651 33.3718 94.3232 33.3718 94.3232 33.1299V32.888L97.4674 25.1473C97.4674 24.9054 97.7092 24.6635 97.9511 24.6635C98.4348 24.6635 98.4348 24.9054 98.4348 25.1473L101.337 32.888V33.1299C101.337 33.3718 101.095 33.3718 100.853 33.3718C100.612 33.3718 100.612 33.1299 100.612 33.1299L99.6441 30.7109H96.0162ZM99.6441 30.2272L97.9511 25.8729L96.2581 30.2272H99.6441Z" fill="black"></path><path d="M101.095 33.8557C100.612 33.8557 100.612 33.6138 100.37 33.3719L99.4022 31.1948H96.0162L95.0488 33.3719C95.0488 33.6138 94.807 33.8557 94.3232 33.8557C94.0814 33.8557 93.5977 33.6138 93.5977 33.13V32.8881L96.7418 25.1473C96.9837 24.6635 97.2256 24.6635 97.4674 24.6635C97.9511 24.6635 98.193 24.9054 98.193 25.1473L101.095 32.8881C101.095 33.13 101.095 33.13 101.095 33.3719C101.821 33.6138 101.579 33.8557 101.095 33.8557ZM95.7744 30.469H100.128L101.095 33.13L97.9511 25.3892C97.9511 25.3892 97.9511 25.1473 97.7092 25.1473L99.6441 30.469H95.7744L97.7092 25.1473C97.7092 25.1473 97.7093 25.1473 97.4674 25.3892L94.3232 33.13V33.3719L95.7744 30.469ZM96.5 29.9853H99.1604L97.9511 26.5987L96.5 29.9853Z" fill="black"></path><path d="M105.691 33.3717C104.724 33.3717 104.724 32.646 104.724 32.4041V26.1147C104.724 25.8728 104.724 25.1471 105.691 25.1471H107.142C107.868 25.1471 109.803 25.1471 109.803 27.0823C109.803 28.2918 109.077 28.7756 108.593 29.0175C109.077 29.2594 110.044 29.5013 110.044 31.1946C110.044 33.3717 107.868 33.3717 107.142 33.3717H105.691ZM107.142 28.7756C107.626 28.7756 109.077 28.7756 109.077 27.3242C109.077 25.8728 107.868 25.8728 106.9 25.8728H105.691C105.449 25.8728 105.207 25.8728 105.207 26.3566V29.0175H107.142V28.7756ZM105.449 32.4041C105.449 32.646 105.691 32.8879 105.933 32.8879H107.384C108.11 32.8879 109.803 32.8879 109.803 31.1946C109.803 29.5013 108.11 29.5013 107.626 29.5013H105.691V32.4041H105.449Z" fill="black"></path><path d="M107.384 33.6136H105.691C104.965 33.6136 104.481 33.1298 104.481 32.1622V25.8729C104.481 24.9053 104.965 24.4215 105.691 24.4215H107.142C107.867 24.4215 110.286 24.4215 110.286 26.8405C110.286 27.8081 109.802 28.2919 109.319 28.7757C109.802 29.0176 110.528 29.7433 110.528 30.9528C110.528 32.8879 109.56 33.6136 107.384 33.6136ZM105.691 25.3892C105.207 25.3892 104.965 25.631 104.965 26.1148V32.4042C104.965 32.888 104.965 33.1298 105.691 33.1298H107.384C108.593 33.1298 110.044 32.888 110.044 31.1947C110.044 30.469 109.802 29.9852 109.56 29.7433C109.802 29.9852 110.044 30.469 110.044 31.1947C110.044 33.1299 108.109 33.1298 107.384 33.1298H105.933C105.691 33.1298 105.207 33.1299 105.207 32.4042V26.1148C105.207 25.631 105.207 25.3892 105.691 25.3892H107.142C108.109 25.3892 109.56 25.3891 109.56 27.0824C109.56 27.3243 109.56 27.8081 109.319 28.05C109.56 27.8081 109.56 27.5662 109.56 26.8405C109.56 25.3891 108.351 25.1472 107.142 25.1472H105.691V25.3892ZM105.691 32.4042H107.142C108.109 32.4042 109.319 32.4042 109.319 31.1947C109.319 29.9852 108.351 29.7433 107.384 29.7433H105.691V32.4042ZM107.384 29.0176C107.626 29.0176 107.626 29.0176 107.867 29.0176L108.109 28.7757C107.867 29.0176 107.626 29.0176 107.384 29.0176ZM105.691 28.5338H107.142C107.867 28.5338 108.835 28.2919 108.835 27.3243C108.835 26.3567 108.109 26.1148 106.9 26.1148H105.691V28.5338V28.5338Z" fill="black"></path><path d="M117.542 24.9053C119.961 24.9053 121.895 26.5985 121.895 29.2594C121.895 31.6784 119.961 33.6136 117.542 33.6136C115.123 33.6136 113.188 31.9203 113.188 29.2594C113.188 26.8404 115.123 24.9053 117.542 24.9053ZM117.542 32.8879C119.477 32.8879 121.17 31.1946 121.17 29.2594C121.17 27.3242 119.719 25.6309 117.542 25.6309C115.607 25.6309 113.914 27.3242 113.914 29.2594C113.914 31.4365 115.607 32.8879 117.542 32.8879Z" fill="black"></path><path d="M117.542 33.8557C114.881 33.8557 112.946 31.9205 112.946 29.2595C112.946 26.5986 114.881 24.6635 117.542 24.6635C120.202 24.6635 122.137 26.5986 122.137 29.2595C122.137 31.9205 120.202 33.8557 117.542 33.8557ZM117.542 25.1473C115.123 25.1473 113.43 26.8405 113.43 29.2595C113.43 31.4366 115.123 33.3719 117.542 33.3719C119.96 33.3719 121.653 31.6786 121.653 29.2595C121.653 26.8405 119.96 25.1473 117.542 25.1473ZM117.542 33.13C115.365 33.13 113.672 31.4366 113.672 29.2595C113.672 27.0824 115.365 25.1473 117.542 25.1473C119.718 25.1473 121.411 26.8405 121.411 29.2595C121.411 31.4366 119.718 33.13 117.542 33.13ZM117.542 25.873C115.607 25.873 114.156 27.3243 114.156 29.2595C114.156 31.1947 115.607 32.6462 117.542 32.6462C119.476 32.6462 120.928 31.1947 120.928 29.2595C120.928 27.3243 119.476 25.873 117.542 25.873Z" fill="black"></path><path d="M125.281 25.389C125.281 25.1471 125.523 25.1471 125.523 25.1471C125.765 25.1471 125.765 25.1471 125.765 25.389V29.9851C125.765 31.1947 125.765 33.1298 128.425 33.1298C131.086 33.1298 131.086 31.1947 131.086 29.9851V25.389C131.086 25.1471 131.328 25.1471 131.328 25.1471C131.569 25.1471 131.569 25.1471 131.569 25.389V29.9851C131.569 31.1947 131.569 33.8556 128.183 33.8556C124.797 33.8556 124.797 31.4366 124.797 29.9851V25.389H125.281Z" fill="black"></path><path d="M128.909 33.8556C125.281 33.8556 125.281 30.9528 125.281 29.7433V25.1472C125.281 24.6635 125.523 24.4215 126.007 24.4215C126.491 24.4215 126.732 24.6635 126.732 25.1472V29.7433C126.732 31.1947 126.974 32.6461 129.151 32.6461C131.328 32.6461 131.57 31.1947 131.57 29.7433V25.1472C131.57 24.6635 131.811 24.4215 132.295 24.4215C132.779 24.4215 133.021 24.6635 133.021 25.1472V29.7433C132.537 30.9528 132.537 33.8556 128.909 33.8556ZM125.765 25.1472V29.7433C125.765 31.4366 126.249 33.1299 128.909 33.1299C131.57 33.1299 132.053 31.4366 132.053 29.7433V25.1472V29.7433C132.053 30.9528 132.053 33.1299 128.909 33.1299C125.765 33.1299 125.765 30.7109 125.765 29.7433V25.1472Z" fill="black"></path><path d="M139.067 33.1298C139.067 33.3717 138.825 33.3717 138.825 33.3717C138.583 33.3717 138.584 33.3717 138.584 33.1298V25.6309H135.923C135.681 25.6309 135.681 25.389 135.681 25.389C135.681 25.1471 135.681 25.1471 135.923 25.1471H141.97C142.211 25.1471 142.211 25.389 142.211 25.389C142.211 25.6309 142.211 25.6309 141.97 25.6309H139.309V33.1298H139.067Z" fill="black"></path><path d="M138.825 33.8556C138.342 33.8556 138.1 33.6136 138.1 33.1299V25.8729H135.681C135.439 25.8729 134.956 25.631 134.956 25.1472C134.956 24.6635 135.197 24.4215 135.681 24.4215H141.728C142.211 24.4215 142.453 24.6635 142.453 25.1472C142.453 25.3891 142.211 25.8729 141.728 25.8729H139.309V33.1299C139.309 33.6136 139.067 33.8556 138.825 33.8556ZM135.681 25.3892H138.583V33.1299V25.3892H141.486H135.681Z" fill="black"></path><path d="M150.676 32.646C151.16 32.8879 151.644 32.8879 152.127 32.8879C153.095 32.8879 154.304 32.4041 154.304 31.1946C154.304 29.9851 153.337 29.7432 152.611 29.2594C151.644 29.0175 150.434 28.5337 150.434 27.0823C150.434 25.8728 151.402 24.9053 152.853 24.9053C153.337 24.9053 153.82 25.1472 154.304 25.1472C154.304 25.1472 154.546 25.1472 154.546 25.3891C154.546 25.631 154.304 25.6309 154.304 25.6309H154.062C153.82 25.6309 153.337 25.3891 152.853 25.3891C151.644 25.3891 151.16 26.1147 151.16 27.0823C151.16 28.0499 152.127 28.5337 152.853 28.7756C153.82 29.0175 155.03 29.5013 155.03 31.1946C155.03 32.646 153.82 33.6136 152.127 33.6136C151.16 33.6136 150.434 33.3717 150.193 33.1298C149.951 33.1298 149.951 32.8879 149.951 32.8879C149.951 32.646 150.193 32.646 150.193 32.646C150.434 32.4041 150.434 32.4041 150.676 32.646Z" fill="black"></path><path d="M152.369 33.8556C151.402 33.8556 150.676 33.6137 150.434 33.3718C150.193 33.3718 149.951 33.1299 149.951 32.6461C149.951 32.4042 150.193 31.9204 150.676 31.9204C150.676 31.9204 150.918 31.9204 151.16 32.1623C151.644 32.4042 152.127 32.4042 152.611 32.4042C152.853 32.4042 154.546 32.4042 154.546 30.9528C154.546 29.9852 154.062 29.7433 152.853 29.5014C151.886 29.2595 150.434 28.7757 150.434 27.0824C150.434 25.8729 151.402 24.4215 153.095 24.4215C153.579 24.4215 154.304 24.6634 154.788 24.9053C154.788 24.9053 155.272 25.1473 155.272 25.3892C155.272 25.6311 155.03 26.1148 154.546 26.1148C154.304 26.1148 154.304 26.1148 154.062 25.8729C153.82 25.8729 153.579 25.631 153.095 25.631C152.127 25.631 151.644 26.3567 151.644 26.8405C151.644 27.5662 152.127 27.8081 153.095 28.2919C154.062 28.7757 155.513 29.2595 155.513 30.9528C155.513 32.888 154.062 33.8556 152.369 33.8556ZM150.434 32.6461C150.434 32.888 150.434 32.888 150.434 32.6461C150.918 32.888 151.402 33.1299 152.369 33.1299C153.579 33.1299 154.788 32.6461 154.788 31.1947C154.788 29.9852 153.82 29.5014 152.853 29.0176C151.886 28.7757 150.918 28.2919 150.918 27.0824C150.918 26.1148 151.644 25.1472 152.853 25.1472C153.337 25.1472 153.82 25.3892 154.062 25.3892C154.304 25.3892 154.304 25.3892 154.304 25.3892C153.82 25.1473 153.337 25.1472 152.853 25.1472C151.402 25.1472 150.676 26.1148 150.676 27.0824C150.676 28.2919 151.644 28.5338 152.611 29.0176C153.579 29.2595 154.546 29.7433 154.546 31.1947C154.546 32.6461 153.337 33.1299 152.127 33.1299C151.644 33.1299 150.918 32.888 150.434 32.6461V32.6461C150.434 32.888 150.434 32.888 150.434 32.6461Z" fill="black"></path><path d="M163.012 28.7756C163.254 28.7756 163.254 29.0176 163.254 29.0176C163.254 29.2595 163.254 29.2594 163.012 29.2594H159.384V32.1622C159.384 32.4041 159.626 32.646 159.867 32.646H163.495C163.737 32.646 163.737 32.8878 163.737 32.8878C163.737 33.1297 163.737 33.1298 163.495 33.1298H159.626C158.658 33.1298 158.658 32.4041 158.658 32.1622V25.8728C158.658 25.631 158.658 24.9053 159.626 24.9053H163.254C163.495 24.9053 163.495 25.1472 163.495 25.1472C163.495 25.3891 163.495 25.3891 163.254 25.3891H159.626C159.384 25.3891 159.142 25.3891 159.142 25.8728V28.5337H163.012V28.7756Z" fill="black"></path><path d="M163.495 33.6136H159.625C158.9 33.6136 158.416 33.1298 158.416 32.1622V25.8729C158.416 24.9053 158.9 24.4215 159.625 24.4215H163.253C163.737 24.4215 163.979 24.6635 163.979 25.1472C163.979 25.3891 163.737 25.8729 163.253 25.8729H159.625V28.2919H163.011C163.495 28.2919 163.495 28.5338 163.495 29.0176C163.495 29.5014 163.253 29.7433 163.011 29.7433H159.625V32.4042H163.253C163.737 32.4042 163.979 32.646 163.979 33.1298C163.979 33.3717 163.737 33.6136 163.495 33.6136ZM159.625 25.3892C159.142 25.3892 158.9 25.631 158.9 26.1148V32.4042C158.9 32.888 158.9 33.1298 159.625 33.1298H163.495H159.867C159.625 33.1298 159.142 33.1299 159.142 32.4042V29.2595H163.011H159.142V26.3567C159.142 25.631 159.383 25.3892 159.625 25.3892H163.253H159.625Z" fill="black"></path><path d="M171.96 32.8878C171.96 33.1297 172.201 33.1297 172.201 33.1297C172.201 33.3716 171.96 33.3716 171.96 33.3716C171.718 33.3716 171.718 33.3716 171.718 33.1297L168.815 29.5012H167.848V33.1297C167.848 33.3716 167.606 33.3716 167.606 33.3716C167.364 33.3716 167.364 33.3716 167.364 33.1297V26.1146C167.364 25.8727 167.364 25.147 168.332 25.147H169.783C171.476 25.147 172.201 26.1146 172.201 27.3241C172.201 28.2917 171.718 29.5012 169.783 29.5012L171.96 32.8878ZM169.057 29.0174C169.541 29.0174 171.234 29.0174 171.234 27.3241C171.234 25.6308 169.783 25.6307 169.057 25.6307H168.09C167.848 25.6307 167.606 25.6308 167.606 26.1146V29.0174H169.057Z" fill="black"></path><path d="M171.718 33.8556C171.476 33.8556 171.234 33.6137 171.234 33.6137L168.574 29.9852H168.09V33.3717C168.09 33.8555 167.848 34.0974 167.364 34.0974C166.881 34.0974 166.639 33.8555 166.639 33.3717V26.3567C166.639 25.3891 167.122 24.9053 167.848 24.9053H169.299C171.234 24.9053 171.96 26.1148 171.96 27.5662C171.96 28.7757 171.476 29.7433 169.783 29.9852L171.96 32.8879L171.718 33.1298L171.96 32.8879C171.96 33.1298 172.201 33.1298 172.201 33.3717C172.443 33.6136 172.201 33.8556 171.718 33.8556ZM167.364 29.2594H168.815L171.718 33.1298L171.96 32.8879L171.718 33.1298L168.815 29.2594H169.299C171.234 29.2594 171.476 27.8081 171.476 27.3243C171.476 26.1148 170.75 25.3891 169.299 25.3891H167.848C167.364 25.3891 167.122 25.631 167.122 26.1148V33.1298L167.364 29.2594ZM169.057 29.2594H167.364V26.1148C167.364 25.631 167.606 25.3891 168.09 25.3891H169.057C169.541 25.3891 171.476 25.3891 171.476 27.3243C171.476 28.5338 170.75 29.2594 169.057 29.2594ZM168.09 28.7757H169.299C170.266 28.7757 171.234 28.5338 171.234 27.3243C171.234 26.1148 170.266 26.1148 169.299 26.1148H168.332V28.7757H168.09Z" fill="black"></path><path d="M181.392 25.1472C181.392 25.1472 181.392 24.9053 181.634 24.9053C181.876 24.9053 182.118 25.1472 182.118 25.1472V25.3891L178.974 33.1298C178.974 33.3717 178.732 33.6136 178.49 33.6136C178.248 33.6136 178.006 33.3717 178.006 33.1298L174.862 25.3891V25.1472C174.862 24.9053 175.104 24.9053 175.346 24.9053C175.588 24.9053 175.588 24.9053 175.588 25.1472L178.732 32.8879L181.392 25.1472Z" fill="black"></path><path d="M178.49 33.8556C178.006 33.8556 177.764 33.3718 177.764 33.3718L174.62 25.631C174.62 25.631 174.62 25.3891 174.62 25.1472C174.62 24.6635 174.862 24.4215 175.346 24.4215C175.829 24.4215 175.829 24.6634 175.829 24.9053L178.49 31.9204L181.15 24.9053L181.392 25.1472L181.15 24.9053C181.15 24.9053 181.392 24.4215 181.634 24.4215C181.876 24.4215 182.36 24.6635 182.36 25.1472C182.36 25.3891 182.36 25.3891 182.36 25.631L179.215 33.1299C179.215 33.3718 178.974 33.8556 178.49 33.8556ZM181.392 25.1472H181.634L178.49 33.1299C178.49 33.1299 178.49 33.1298 178.732 32.8879L181.876 25.1472C181.876 25.1472 181.876 25.1472 181.876 24.9053L181.392 25.1472ZM175.104 25.1472C175.104 25.1472 175.104 25.3891 175.104 25.1472C175.104 25.3891 175.104 25.3891 175.104 25.1472L178.248 32.8879C178.248 32.8879 178.248 33.1299 178.49 33.1299L175.104 25.1472C175.104 25.1472 175.104 25.3891 175.104 25.1472Z" fill="black"></path><path d="M185.504 25.389C185.504 25.1471 185.746 25.1471 185.746 25.1471C185.988 25.1471 185.988 25.389 185.988 25.389V33.3717C185.988 33.6136 185.746 33.6136 185.746 33.6136C185.504 33.6136 185.504 33.3717 185.504 33.3717V25.389Z" fill="black"></path><path d="M185.746 33.8556C185.262 33.8556 185.02 33.6136 185.02 33.1299V25.1472C185.02 24.6635 185.262 24.4215 185.746 24.4215C186.229 24.4215 186.471 24.6635 186.471 25.1472V33.1299C186.471 33.6136 186.229 33.8556 185.746 33.8556ZM185.746 25.1472V33.1299V25.1472Z" fill="black"></path><path d="M189.856 29.2594C189.856 26.8404 191.549 24.9053 194.21 24.9053C195.177 24.9053 195.903 25.1472 196.387 25.3891C196.628 25.3891 196.629 25.6309 196.629 25.6309C196.629 25.8728 196.387 25.8729 196.387 25.8729C196.387 25.8729 196.145 25.8728 196.145 25.6309C195.419 25.1471 194.694 25.1472 194.452 25.1472C192.275 25.1472 190.824 26.8405 190.824 28.7757C190.824 30.4689 192.033 32.4041 194.694 32.4041C195.419 32.4041 195.903 32.1622 196.387 32.1622C196.387 32.1622 196.629 31.9203 196.87 31.9203C196.87 31.9203 197.112 31.9203 197.112 32.1622C197.112 32.4041 196.87 32.4041 196.87 32.4041C196.145 32.8879 195.177 32.8879 194.452 32.8879C191.308 33.6136 189.856 31.6784 189.856 29.2594Z" fill="black"></path><path d="M194.21 33.8557C191.308 33.8557 189.373 31.9205 189.373 29.2595C189.373 26.5986 191.308 24.6635 193.968 24.6635C194.936 24.6635 195.661 24.9054 196.387 25.3892C196.629 25.6311 196.629 25.873 196.629 25.873C196.629 26.1149 196.387 26.5987 195.903 26.5987C195.661 26.5987 195.661 26.5987 195.419 26.3568C194.694 25.873 193.968 25.873 193.726 25.873C191.792 25.873 190.34 27.3243 190.34 29.2595C190.34 30.9528 191.308 32.6462 193.726 32.6462C194.452 32.6462 194.936 32.4043 195.419 32.4043C195.661 32.1624 195.903 32.1624 195.903 32.1624C196.145 32.1624 196.387 32.4043 196.387 32.8881C196.387 33.13 196.387 33.3719 195.903 33.3719C195.661 33.8557 194.694 33.8557 194.21 33.8557ZM194.21 25.1473C191.792 25.1473 190.099 26.8405 190.099 29.2595C190.099 31.1947 191.308 33.3719 194.21 33.3719C194.694 33.3719 195.661 33.3719 196.387 32.8881H196.145C196.145 32.8881 196.145 32.8881 195.903 32.8881C195.419 33.13 194.936 33.13 193.968 33.13C191.066 33.13 189.857 30.9528 189.857 29.2595C190.099 26.8405 191.792 25.3892 194.21 25.1473C194.694 25.1473 195.419 25.1472 196.145 25.631H196.387C195.661 25.3891 194.936 25.1473 194.21 25.1473Z" fill="black"></path><path d="M204.369 28.7756C204.611 28.7756 204.611 29.0176 204.611 29.0176C204.611 29.2595 204.611 29.2594 204.369 29.2594H200.741V32.1622C200.741 32.4041 200.983 32.646 201.225 32.646H204.853C205.095 32.646 205.095 32.8878 205.095 32.8878C205.095 33.1297 205.095 33.1298 204.853 33.1298H200.983C200.016 33.1298 200.016 32.4041 200.016 32.1622V25.8728C200.016 25.631 200.016 24.9053 200.983 24.9053H204.611C204.853 24.9053 204.853 25.1472 204.853 25.1472C204.853 25.3891 204.853 25.3891 204.611 25.3891H200.983C200.741 25.3891 200.499 25.3891 200.499 25.8728V28.5337H204.369V28.7756Z" fill="black"></path><path d="M204.853 33.6136H200.983C200.257 33.6136 199.773 33.1298 199.773 32.1622V25.8729C199.773 24.9053 200.257 24.4215 200.983 24.4215H204.611C205.094 24.4215 205.336 24.6635 205.336 25.1472C205.336 25.3891 205.094 25.8729 204.611 25.8729H200.983V28.2919H204.369C204.852 28.2919 204.853 28.5338 204.853 29.0176C204.853 29.5014 204.611 29.7433 204.369 29.7433H200.983V32.4042H204.611C205.094 32.4042 205.336 32.646 205.336 33.1298C205.578 33.3717 205.336 33.6136 204.853 33.6136ZM200.983 25.3892C200.499 25.3892 200.257 25.631 200.257 26.1148V32.4042C200.257 32.888 200.257 33.1298 200.983 33.1298H204.853H201.225C200.983 33.1298 200.499 33.1299 200.499 32.4042V29.2595H204.369H200.499V26.3567C200.499 25.631 200.741 25.3892 200.983 25.3892H204.611H200.983Z" fill="black"></path><path d="M46.6777 13.2942H19.106V44.0153H46.6777V13.2942Z" fill="black"></path><path d="M234.601 53.6914H3.62695V58.5294H234.601V53.6914Z" fill="black"></path><path d="M286.359 222.537H68.6867C63.6077 222.537 59.4961 218.425 59.4961 213.345V141.017C59.4961 135.937 63.6077 131.825 68.6867 131.825H286.359C291.438 131.825 295.549 135.937 295.549 141.017V213.345C295.549 218.425 291.438 222.537 286.359 222.537ZM68.6867 136.663C66.2681 136.663 64.3332 138.598 64.3332 141.017V213.345C64.3332 215.764 66.2681 217.699 68.6867 217.699H286.359C288.777 217.699 290.712 215.764 290.712 213.345V141.017C290.712 138.598 288.777 136.663 286.359 136.663H68.6867Z" fill="black"></path><path d="M123.589 158.434C123.589 158.676 123.347 158.676 123.347 158.676C123.105 158.676 123.105 158.676 123.105 158.434V150.935H120.203C119.961 150.935 119.961 150.693 119.961 150.693C119.961 150.451 119.961 150.451 120.203 150.451H126.249C126.491 150.451 126.491 150.693 126.491 150.693C126.491 150.935 126.491 150.935 126.249 150.935H123.589V158.434Z" fill="black"></path><path d="M123.105 159.16C122.621 159.16 122.379 158.918 122.379 158.434V151.177H119.961C119.477 151.177 119.235 150.935 119.235 150.451C119.235 149.967 119.477 149.725 119.961 149.725H126.007C126.491 149.725 126.733 149.967 126.733 150.451C126.733 150.693 126.491 151.177 126.007 151.177H123.589V158.434C123.831 158.918 123.347 159.16 123.105 159.16ZM120.203 150.693H123.105V158.434V150.693H126.007H120.203Z" fill="black"></path><path d="M133.505 150.209C135.923 150.209 137.858 151.903 137.858 154.563C137.858 156.982 135.923 158.918 133.505 158.918C131.086 158.918 129.151 157.224 129.151 154.563C129.393 152.144 131.086 150.209 133.505 150.209ZM133.505 158.192C135.44 158.192 137.133 156.499 137.133 154.563C137.133 152.628 135.682 150.935 133.505 150.935C131.57 150.935 129.877 152.628 129.877 154.563C129.877 156.499 131.57 158.192 133.505 158.192Z" fill="black"></path><path d="M133.505 159.16C130.845 159.16 128.91 157.224 128.91 154.563C128.91 151.903 130.845 149.967 133.505 149.967C136.165 149.967 138.1 151.903 138.1 154.563C138.1 157.224 136.165 159.16 133.505 159.16ZM133.505 150.451C131.086 150.451 129.393 152.144 129.393 154.563C129.393 156.741 131.086 158.676 133.505 158.676C135.924 158.676 137.617 156.982 137.617 154.563C137.617 152.144 135.924 150.451 133.505 150.451ZM133.505 158.676C131.328 158.676 129.635 156.982 129.635 154.805C129.635 152.628 131.328 150.935 133.505 150.935C135.682 150.935 137.375 152.628 137.375 154.805C137.375 156.982 135.924 158.676 133.505 158.676ZM133.505 151.177C131.57 151.177 130.119 152.628 130.119 154.563C130.119 156.499 131.57 157.95 133.505 157.95C135.44 157.95 136.891 156.499 136.891 154.563C136.891 152.628 135.44 151.177 133.505 151.177Z" fill="black"></path><path d="M141.97 158.434C141.97 158.676 141.728 158.676 141.728 158.676C141.486 158.676 141.486 158.676 141.486 158.434V151.419C141.486 151.177 141.486 150.451 142.454 150.451H143.663C144.389 150.451 144.872 150.451 145.356 150.693C146.323 151.177 146.565 152.386 146.565 152.87C146.565 153.596 146.323 154.563 145.356 155.047C144.872 155.289 144.389 155.289 143.663 155.289H141.97V158.434ZM143.421 154.564C144.147 154.564 145.598 154.563 145.598 152.87C145.598 151.177 144.147 151.177 143.421 151.177H142.696C142.454 151.177 142.212 151.177 142.212 151.661V154.805H143.421V154.564Z" fill="black"></path><path d="M141.728 159.16C141.244 159.16 141.002 158.918 141.002 158.434V151.419C141.002 150.451 141.486 149.967 142.212 149.967H143.421C144.147 149.967 144.63 149.967 145.356 150.451C146.565 151.177 146.565 152.386 146.565 152.87C146.565 154.08 146.081 154.805 145.356 155.289C144.872 155.531 144.147 155.531 143.421 155.531H142.454V158.676C142.454 158.918 141.97 159.16 141.728 159.16ZM142.212 150.693C141.728 150.693 141.486 150.935 141.486 151.419V158.434V154.805H143.179C143.663 154.805 144.147 154.805 144.63 154.563C145.356 154.322 145.598 153.596 145.598 152.628C145.598 152.144 145.356 151.177 144.63 150.935C144.147 150.693 143.663 150.693 143.179 150.693H142.212V150.693ZM143.421 154.805H141.97V151.419C141.97 150.935 142.212 150.693 142.695 150.693H143.421C144.147 150.693 146.081 150.693 146.081 152.87C145.84 154.805 144.147 154.805 143.421 154.805ZM142.454 154.322H143.421C144.388 154.322 145.356 154.322 145.356 152.87C145.356 151.419 144.388 151.419 143.421 151.419H142.695V154.322H142.454Z" fill="black"></path><path d="M156.239 156.015L155.272 158.434C155.272 158.676 155.272 158.676 155.03 158.676C154.788 158.676 154.546 158.676 154.546 158.434V158.192L157.691 150.451C157.691 150.209 157.932 149.967 158.174 149.967C158.658 149.967 158.658 150.209 158.658 150.451L161.56 158.192V158.434C161.56 158.676 161.318 158.676 161.077 158.676C160.835 158.676 160.835 158.434 160.835 158.434L159.867 156.015H156.239ZM159.867 155.531L158.174 151.177L156.481 155.531H159.867Z" fill="black"></path><path d="M161.319 159.16C160.835 159.16 160.835 158.918 160.593 158.676L159.626 156.257H155.998L155.03 158.434C155.03 158.676 154.788 158.918 154.305 158.918C154.063 158.918 153.579 158.676 153.579 158.192V157.95L156.723 150.209C156.965 149.725 157.207 149.484 157.449 149.484C157.933 149.484 158.174 149.725 158.174 150.209L161.077 157.95C161.077 158.192 161.077 158.192 161.077 158.434C162.044 158.918 161.802 159.16 161.319 159.16ZM155.998 155.773H160.351L161.319 158.434L158.174 150.693C158.174 150.693 158.174 150.451 157.933 150.451L159.867 155.773H155.998L157.933 150.451C157.933 150.451 157.933 150.451 157.691 150.693L154.547 158.434V158.676L155.998 155.773ZM156.723 155.289H159.384L158.174 151.903L156.723 155.289Z" fill="black"></path><path d="M165.914 158.676C164.947 158.676 164.947 157.95 164.947 157.708V151.419C164.947 151.177 164.947 150.451 165.914 150.451H167.365C168.091 150.451 170.026 150.451 170.026 152.386C170.026 153.596 169.3 154.08 168.817 154.321C169.3 154.563 170.268 154.805 170.268 156.499C170.268 158.676 168.091 158.676 167.365 158.676H165.914ZM167.607 154.08C168.091 154.08 169.542 154.08 169.542 152.628C169.542 151.177 168.333 151.177 167.365 151.177H166.156C165.914 151.177 165.672 151.177 165.672 151.661V154.321H167.607V154.08ZM165.672 157.708C165.672 157.95 165.914 158.192 166.156 158.192H167.607C168.333 158.192 170.026 158.192 170.026 156.499C170.026 154.805 168.333 154.805 167.849 154.805H165.914V157.708H165.672Z" fill="black"></path><path d="M167.607 158.918H165.914C165.188 158.918 164.705 158.434 164.705 157.466V151.177C164.705 150.209 165.188 149.725 165.914 149.725H167.365C168.091 149.725 170.509 149.725 170.509 152.144C170.509 153.112 170.026 153.596 169.542 154.08C170.026 154.322 170.751 155.047 170.751 156.257C170.751 158.192 169.784 158.918 167.607 158.918ZM165.914 150.693C165.43 150.693 165.188 150.935 165.188 151.419V157.708C165.188 158.192 165.188 158.434 165.914 158.434H167.607C168.816 158.434 170.267 158.192 170.267 156.499C170.267 155.773 170.026 155.289 169.784 155.047C170.026 155.289 170.267 155.773 170.267 156.499C170.267 158.434 168.333 158.434 167.607 158.434H166.156C165.914 158.434 165.43 158.434 165.43 157.708V151.419C165.43 150.935 165.672 150.693 165.914 150.693H167.365C168.333 150.693 169.784 150.693 169.784 152.386C169.784 152.628 169.784 153.112 169.542 153.354C169.784 153.112 169.784 152.87 169.784 152.144C169.784 150.693 168.574 150.451 167.365 150.451H165.914V150.693ZM165.914 157.708H167.365C168.333 157.708 169.542 157.708 169.542 156.499C169.542 155.289 168.574 155.047 167.607 155.047H165.914V157.708ZM167.607 154.322C167.849 154.322 168.091 154.322 168.091 154.322L168.332 154.08C168.091 154.322 167.849 154.322 167.607 154.322ZM165.914 153.838H167.365C168.091 153.838 169.058 153.596 169.058 152.628C169.058 151.661 168.332 151.419 167.123 151.419H166.156V153.838H165.914Z" fill="black"></path><path d="M177.765 150.209C180.184 150.209 182.119 151.903 182.119 154.563C182.119 156.982 180.184 158.918 177.765 158.918C175.346 158.918 173.412 157.224 173.412 154.563C173.653 152.144 175.346 150.209 177.765 150.209ZM177.765 158.192C179.7 158.192 181.393 156.499 181.393 154.563C181.393 152.628 179.942 150.935 177.765 150.935C175.83 150.935 174.137 152.628 174.137 154.563C174.137 156.499 175.83 158.192 177.765 158.192Z" fill="black"></path><path d="M177.765 159.16C175.104 159.16 173.169 157.224 173.169 154.563C173.169 151.903 175.104 149.967 177.765 149.967C180.425 149.967 182.36 151.903 182.36 154.563C182.36 157.224 180.425 159.16 177.765 159.16ZM177.765 150.451C175.346 150.451 173.653 152.144 173.653 154.563C173.653 156.741 175.346 158.676 177.765 158.676C180.183 158.676 181.876 156.982 181.876 154.563C181.876 152.144 180.183 150.451 177.765 150.451ZM177.765 158.676C175.588 158.676 173.895 156.982 173.895 154.805C173.895 152.628 175.588 150.935 177.765 150.935C179.941 150.935 181.634 152.628 181.634 154.805C181.634 156.982 179.941 158.676 177.765 158.676ZM177.765 151.177C175.83 151.177 174.379 152.628 174.379 154.563C174.379 156.499 175.83 157.95 177.765 157.95C179.7 157.95 181.151 156.499 181.151 154.563C181.151 152.628 179.7 151.177 177.765 151.177Z" fill="black"></path><path d="M185.504 150.693C185.504 150.451 185.746 150.451 185.746 150.451C185.988 150.451 185.988 150.451 185.988 150.693V155.289C185.988 156.499 185.988 158.434 188.648 158.434C191.309 158.434 191.309 156.499 191.309 155.289V150.693C191.309 150.451 191.551 150.451 191.551 150.451C191.793 150.451 191.793 150.451 191.793 150.693V155.289C191.793 156.499 191.793 159.16 188.407 159.16C185.021 159.16 185.021 156.741 185.021 155.289V150.693H185.504Z" fill="black"></path><path d="M189.132 159.16C185.504 159.16 185.504 156.257 185.504 155.047V150.693C185.504 150.209 185.746 149.967 186.229 149.967C186.713 149.967 186.955 150.209 186.955 150.693V155.289C186.955 156.741 187.197 158.192 189.374 158.192C191.55 158.192 191.792 156.741 191.792 155.289V150.693C191.792 150.209 192.034 149.967 192.518 149.967C193.001 149.967 193.243 150.209 193.243 150.693V155.289C192.76 156.257 192.76 159.16 189.132 159.16ZM185.988 150.451V155.047C185.988 156.741 186.471 158.434 189.132 158.434C191.792 158.434 192.276 156.741 192.276 155.047V150.693V155.289C192.276 156.499 192.276 158.676 189.132 158.676C185.988 158.676 185.988 156.257 185.988 155.289V150.451Z" fill="black"></path><path d="M199.29 158.434C199.29 158.676 199.049 158.676 199.049 158.676C198.807 158.676 198.807 158.676 198.807 158.434V150.935H196.146C195.904 150.935 195.904 150.693 195.904 150.693C195.904 150.451 195.904 150.451 196.146 150.451H202.193C202.434 150.451 202.435 150.693 202.435 150.693C202.435 150.935 202.434 150.935 202.193 150.935H199.532V158.434H199.29Z" fill="black"></path><path d="M199.048 159.16C198.565 159.16 198.323 158.918 198.323 158.434V151.177H195.904C195.421 151.177 195.179 150.935 195.179 150.451C195.179 149.967 195.421 149.725 195.904 149.725H201.951C202.434 149.725 202.676 149.967 202.676 150.451C202.676 150.693 202.434 151.177 201.951 151.177H199.532V158.434C199.532 158.918 199.29 159.16 199.048 159.16ZM195.904 150.693H198.807V158.434V150.693H201.709H195.904Z" fill="black"></path><path d="M210.899 157.95C211.383 158.192 211.867 158.192 212.351 158.192C213.318 158.192 214.527 157.708 214.527 156.499C214.527 155.289 213.56 155.047 212.834 154.805C211.867 154.563 210.658 154.08 210.658 152.628C210.658 151.419 211.625 150.451 213.076 150.451C213.56 150.451 214.044 150.693 214.527 150.693C214.527 150.693 214.769 150.693 214.769 150.935C214.769 151.177 214.527 151.177 214.527 151.177H214.285C214.044 151.177 213.56 150.935 213.076 150.935C211.867 150.935 211.383 151.661 211.383 152.628C211.383 153.596 212.351 154.08 213.076 154.322C214.044 154.563 215.253 155.047 215.253 156.741C215.253 158.192 214.044 159.16 212.351 159.16C211.383 159.16 210.657 158.918 210.416 158.676C210.174 158.676 210.174 158.434 210.174 158.434C210.174 158.192 210.416 158.192 210.416 158.192C210.657 157.708 210.899 157.708 210.899 157.95Z" fill="black"></path><path d="M212.592 159.16C211.625 159.16 210.899 158.918 210.657 158.676C210.416 158.676 210.174 158.434 210.174 157.95C210.174 157.708 210.416 157.224 210.899 157.224C210.899 157.224 211.141 157.224 211.383 157.466C211.867 157.708 212.35 157.708 212.834 157.708C213.318 157.708 214.769 157.708 214.769 156.257C214.769 155.289 214.285 155.047 213.076 154.805C212.109 154.563 210.657 154.08 210.657 152.386C210.657 151.177 211.625 149.725 213.318 149.725C213.802 149.725 214.527 149.967 215.011 150.209C215.011 150.209 215.495 150.451 215.495 150.693C215.495 150.935 215.253 151.419 214.769 151.419C214.527 151.419 214.527 151.419 214.285 151.177C214.043 151.177 213.802 150.935 213.318 150.935C212.351 150.935 211.867 151.661 211.867 152.144C211.867 152.87 212.351 153.112 213.318 153.596C214.285 154.08 215.737 154.563 215.737 156.257C215.737 158.192 214.527 159.16 212.592 159.16ZM210.657 157.95C210.657 158.192 210.657 158.192 210.657 157.95C211.141 158.192 211.625 158.434 212.592 158.434C213.802 158.434 215.011 157.95 215.011 156.499C215.011 155.047 214.043 154.805 213.076 154.322C212.109 154.08 211.141 153.596 211.141 152.386C211.141 151.419 211.867 150.451 213.076 150.451C213.56 150.451 214.043 150.693 214.285 150.693C214.527 150.693 214.527 150.693 214.527 150.693C214.044 150.451 213.56 150.451 213.076 150.451C211.625 150.451 210.899 151.419 210.899 152.386C210.899 153.596 211.867 154.08 212.834 154.322C213.802 154.563 214.769 155.047 214.769 156.499C214.769 157.95 213.56 158.434 212.351 158.434C211.867 158.434 211.141 158.192 210.657 157.95V157.95C210.657 158.192 210.657 158.192 210.657 157.95Z" fill="black"></path><path d="M223.234 154.08C223.476 154.08 223.476 154.321 223.476 154.321C223.476 154.563 223.476 154.563 223.234 154.563H219.606V157.466C219.606 157.708 219.848 157.95 220.09 157.95H223.718C223.96 157.95 223.96 158.192 223.96 158.192C223.96 158.434 223.96 158.434 223.718 158.434H219.848C218.881 158.434 218.881 157.708 218.881 157.466V151.177C218.881 150.935 218.881 150.209 219.848 150.209H223.476C223.718 150.209 223.718 150.451 223.718 150.451C223.718 150.693 223.718 150.693 223.476 150.693H219.848C219.606 150.693 219.365 150.693 219.365 151.177V153.838H223.234V154.08Z" fill="black"></path><path d="M223.718 158.918H219.848C219.122 158.918 218.639 158.434 218.639 157.466V151.177C218.639 150.209 219.122 149.725 219.848 149.725H223.476C223.96 149.725 224.201 149.967 224.201 150.451C224.201 150.693 223.96 151.177 223.476 151.177H219.848V153.596H223.234C223.718 153.596 223.718 153.838 223.718 154.322C223.718 154.805 223.476 155.047 223.234 155.047H219.848V157.708H223.476C223.96 157.708 224.201 157.95 224.201 158.434C224.443 158.676 223.959 158.918 223.718 158.918ZM219.848 150.693C219.364 150.693 219.122 150.935 219.122 151.419V157.708C219.122 158.192 219.122 158.434 219.848 158.434H223.718H220.09C219.848 158.434 219.364 158.434 219.364 157.708V154.563H223.234H219.364V151.661C219.364 150.935 219.606 150.693 219.848 150.693H223.476H219.848Z" fill="black"></path><path d="M232.183 158.192C232.183 158.434 232.425 158.434 232.425 158.434C232.425 158.676 232.183 158.676 232.183 158.676C231.941 158.676 231.941 158.676 231.941 158.434L229.039 154.805H228.071V158.434C228.071 158.676 227.829 158.676 227.829 158.676C227.587 158.676 227.587 158.676 227.587 158.434V151.419C227.587 151.177 227.587 150.451 228.555 150.451H230.006C231.699 150.451 232.425 151.419 232.425 152.628C232.425 153.596 231.941 154.805 230.006 154.805L232.183 158.192ZM229.28 154.322C229.764 154.322 231.457 154.322 231.457 152.628C231.457 150.935 230.006 150.935 229.28 150.935H228.313C228.071 150.935 227.829 150.935 227.829 151.419V154.322H229.28Z" fill="black"></path><path d="M232.183 159.16C231.941 159.16 231.699 158.918 231.699 158.918L229.039 155.289H228.555V158.676C228.555 159.16 228.313 159.401 227.83 159.401C227.346 159.401 227.104 159.16 227.104 158.676V151.661C227.104 150.693 227.588 150.209 228.313 150.209H229.764C231.699 150.209 232.425 151.419 232.425 152.87C232.425 154.08 231.941 155.047 230.248 155.289L232.425 158.192L232.183 158.434L232.425 158.192C232.425 158.434 232.667 158.434 232.667 158.676C232.667 158.918 232.425 159.16 232.183 159.16ZM227.588 154.563H229.039L231.941 158.434L232.183 158.192L231.941 158.434L229.039 154.563H229.523C231.457 154.563 231.699 153.112 231.699 152.628C231.699 151.419 230.974 150.693 229.523 150.693H228.071C227.588 150.693 227.346 150.935 227.346 151.419V158.434L227.588 154.563ZM229.281 154.563H227.588V151.419C227.588 150.935 227.83 150.693 228.313 150.693H229.281C229.764 150.693 231.699 150.693 231.699 152.628C231.699 154.08 230.974 154.563 229.281 154.563ZM228.313 154.08H229.523C230.49 154.08 231.457 153.838 231.457 152.628C231.457 151.419 230.49 151.419 229.523 151.419H228.555V154.08H228.313Z" fill="black"></path><path d="M241.616 150.451C241.616 150.451 241.616 150.209 241.857 150.209C242.099 150.209 242.341 150.451 242.341 150.451V150.693L239.197 158.434C239.197 158.676 238.955 158.918 238.713 158.918C238.471 158.918 238.23 158.676 238.23 158.434L235.085 150.693V150.451C235.085 150.209 235.327 150.209 235.569 150.209C235.811 150.209 235.811 150.209 235.811 150.451L238.955 158.192L241.616 150.451Z" fill="black"></path><path d="M238.713 159.16C238.229 159.16 237.987 158.676 237.987 158.676L234.843 150.935C234.843 150.935 234.843 150.693 234.843 150.451C234.843 149.967 235.085 149.725 235.569 149.725C236.053 149.725 236.053 149.967 236.053 150.209L238.713 157.224L241.373 150.209H241.615L241.373 149.967C241.373 149.967 241.615 149.484 241.857 149.484C242.099 149.484 242.583 149.725 242.583 150.209C242.583 150.451 242.583 150.451 242.583 150.693L239.439 158.192C239.439 158.676 239.197 159.16 238.713 159.16ZM241.615 150.451H241.857L238.713 158.434C238.713 158.434 238.713 158.434 238.955 158.192L242.099 150.451C242.099 150.451 242.099 150.451 242.099 150.209L241.615 150.451ZM235.327 150.693L238.471 158.434C238.471 158.434 238.471 158.676 238.713 158.676L235.327 150.693Z" fill="black"></path><path d="M245.727 150.693C245.727 150.451 245.968 150.451 245.968 150.451C246.21 150.451 246.21 150.693 246.21 150.693V158.676C246.21 158.918 245.968 158.918 245.968 158.918C245.727 158.918 245.727 158.676 245.727 158.676V150.693Z" fill="black"></path><path d="M245.969 159.16C245.485 159.16 245.243 158.918 245.243 158.434V150.693C245.243 150.209 245.485 149.967 245.969 149.967C246.452 149.967 246.694 150.209 246.694 150.693V158.676C246.694 158.918 246.452 159.16 245.969 159.16ZM245.969 150.451V158.434V150.451Z" fill="black"></path><path d="M250.08 154.563C250.08 152.144 251.773 150.209 254.433 150.209C255.401 150.209 256.126 150.451 256.61 150.693C256.852 150.693 256.852 150.935 256.852 150.935C256.852 151.177 256.61 151.177 256.61 151.177C256.61 151.177 256.368 151.177 256.368 150.935C255.643 150.451 254.917 150.451 254.675 150.451C252.499 150.451 251.047 152.144 251.047 154.08C251.047 155.773 252.257 157.708 254.917 157.708C255.643 157.708 256.126 157.466 256.61 157.466C256.61 157.466 256.852 157.224 257.094 157.224C257.094 157.224 257.336 157.224 257.336 157.466C257.336 157.708 257.094 157.708 257.094 157.708C256.368 158.192 255.401 158.192 254.675 158.192C251.773 158.918 250.08 156.982 250.08 154.563Z" fill="black"></path><path d="M254.433 159.16C251.531 159.16 249.596 157.224 249.596 154.563C249.596 151.903 251.531 149.967 254.191 149.967C255.159 149.967 255.884 150.209 256.61 150.451C256.852 150.693 256.852 150.935 256.852 150.935C256.852 151.177 256.61 151.661 256.126 151.661C255.885 151.661 255.884 151.661 255.643 151.419C254.917 151.177 254.433 150.935 253.95 150.935C252.015 150.935 250.564 152.386 250.564 154.322C250.564 156.015 251.531 157.708 253.95 157.708C254.675 157.708 255.159 157.466 255.643 157.466C255.884 157.224 256.126 157.224 256.126 157.224C256.368 157.224 256.61 157.466 256.61 157.95C256.61 158.192 256.61 158.434 256.126 158.434C255.885 159.16 254.917 159.16 254.433 159.16ZM254.433 150.451C252.015 150.451 250.322 152.144 250.322 154.563C250.322 156.499 251.531 158.676 254.433 158.676C254.917 158.676 255.884 158.676 256.61 158.192H256.368C255.884 158.434 255.401 158.434 254.433 158.434C251.531 158.434 250.322 156.257 250.322 154.563C250.564 152.144 252.257 150.693 254.433 150.451C254.917 150.451 255.643 150.451 256.368 150.935C255.884 150.693 255.159 150.451 254.433 150.451Z" fill="black"></path><path d="M264.592 154.08C264.834 154.08 264.834 154.321 264.834 154.321C264.834 154.563 264.834 154.563 264.592 154.563H260.964V157.466C260.964 157.708 261.206 157.95 261.448 157.95H265.076C265.317 157.95 265.317 158.192 265.317 158.192C265.317 158.434 265.317 158.434 265.076 158.434H261.206C260.238 158.434 260.238 157.708 260.238 157.466V151.177C260.238 150.935 260.238 150.209 261.206 150.209H264.834C265.075 150.209 265.076 150.451 265.076 150.451C265.076 150.693 265.075 150.693 264.834 150.693H261.206C260.964 150.693 260.722 150.693 260.722 151.177V153.838H264.592V154.08Z" fill="black"></path><path d="M265.075 158.918H261.205C260.48 158.918 259.996 158.434 259.996 157.466V151.177C259.996 150.209 260.48 149.725 261.205 149.725H264.833C265.317 149.725 265.559 149.967 265.559 150.451C265.559 150.693 265.317 151.177 264.833 151.177H261.205V153.596H264.591C265.075 153.596 265.075 153.838 265.075 154.322C265.075 154.805 264.833 155.047 264.591 155.047H261.205V157.708H264.833C265.317 157.708 265.559 157.95 265.559 158.434C265.801 158.676 265.559 158.918 265.075 158.918ZM261.205 150.693C260.722 150.693 260.48 150.935 260.48 151.419V157.708C260.48 158.192 260.48 158.434 261.205 158.434H265.075H261.447C261.205 158.434 260.722 158.434 260.722 157.708V154.563H264.591H260.722V151.661C260.722 150.935 260.964 150.693 261.205 150.693H264.833H261.205Z" fill="black"></path><path d="M105.207 146.581H77.6353V161.095H105.207V146.581Z" fill="black"></path><path d="M293.131 169.803H62.1567V174.641H293.131V169.803Z" fill="black"></path><path d="M257.336 52.2399C257.336 52.2399 257.094 52.2399 257.336 52.2399C257.094 51.5142 257.335 50.7886 257.819 50.5467C257.819 50.5467 258.303 50.3048 259.028 50.0629C259.754 49.821 260.238 50.3048 260.48 50.7886C260.722 51.5143 260.238 51.998 259.754 52.2399C259.27 52.4818 258.787 52.4818 258.787 52.4818C258.303 52.9656 257.577 52.7237 257.336 52.2399Z" fill="black"></path><path d="M265.559 51.5143C265.317 51.2724 265.317 51.0305 265.317 50.5467C265.559 49.821 266.042 49.5791 266.768 49.5791C267.494 49.821 268.461 50.0629 269.187 50.3048C269.912 50.5467 270.154 51.2724 269.912 51.7562C269.67 52.4819 268.945 52.7238 268.461 52.4819C267.735 52.24 267.01 51.9981 266.284 51.7562C265.801 51.9981 265.559 51.7562 265.559 51.5143Z" fill="black"></path><path d="M282.972 101.346C282.731 100.862 282.731 100.378 282.972 99.8943C283.456 99.4105 283.94 98.6848 284.182 97.9591C284.424 97.4753 285.391 97.2334 285.875 97.4753C286.359 97.7172 286.6 98.6848 286.359 99.1686C285.875 99.8943 285.391 100.62 284.907 101.346C284.424 101.829 283.698 102.071 283.214 101.588C283.214 101.588 283.214 101.346 282.972 101.346ZM287.326 92.6373C287.084 92.3954 287.084 92.1535 287.084 91.6697C287.326 90.944 287.326 90.2183 287.568 89.4926C287.568 88.7669 288.293 88.2831 289.019 88.525C289.744 88.525 290.228 89.2507 289.986 89.9764C289.986 90.944 289.745 91.6697 289.503 92.3954C289.261 93.1211 288.777 93.363 288.052 93.363C287.81 93.1211 287.326 92.8792 287.326 92.6373ZM287.81 83.2032C287.81 82.9613 287.568 82.9613 287.568 82.7194C287.568 81.9937 287.326 81.268 287.084 80.5423C286.842 79.8166 287.326 79.3328 288.052 79.0909C288.777 78.849 289.261 79.3328 289.503 80.0585C289.745 80.7842 289.745 81.7518 289.986 82.4775C289.986 83.2032 289.503 83.687 289.019 83.9289C288.293 83.9289 288.051 83.687 287.81 83.2032ZM273.782 55.8685C273.54 55.3847 273.54 54.901 274.024 54.4172C274.507 53.9334 275.233 53.9333 275.717 54.1752C276.2 54.659 276.926 55.3847 277.41 55.8685C277.893 56.3523 277.893 57.078 277.41 57.5618C276.926 58.0456 276.2 58.0456 275.717 57.5618C275.233 57.078 274.507 56.3523 274.024 55.8685C274.024 56.1104 274.024 56.1104 273.782 55.8685ZM285.391 74.011C285.149 74.011 285.149 73.7691 285.391 74.011C285.149 73.5272 285.149 73.0434 284.907 72.8015L284.424 71.592C284.182 70.8663 284.424 70.3825 285.149 69.8987C285.875 69.6568 286.358 69.8987 286.842 70.6244L287.326 71.8339C287.568 72.3177 287.568 72.5596 287.81 73.0434C288.051 73.7691 287.81 74.2529 287.084 74.4948C286.117 74.7367 285.633 74.4948 285.391 74.011ZM280.07 63.1255C279.828 62.6417 279.828 61.916 280.554 61.4322C281.038 61.1903 281.763 61.1903 282.247 61.916C282.489 62.3998 282.731 62.8836 283.214 63.3674L283.698 64.0931C283.94 64.5769 283.94 65.3026 283.214 65.7864C282.731 66.0283 282.005 66.0283 281.521 65.3026L281.038 64.5769C280.554 64.0931 280.312 63.6093 280.07 63.1255C280.07 63.1255 280.07 63.3674 280.07 63.1255Z" fill="black"></path><path d="M276.926 106.909C276.684 106.425 276.684 105.7 277.168 105.216C277.41 104.974 277.893 104.732 278.135 104.49C278.619 104.006 279.345 104.248 279.828 104.732C280.312 105.216 280.07 105.942 279.586 106.426C279.345 106.667 278.861 106.909 278.619 107.151C278.135 107.635 277.41 107.635 276.926 106.909Z" fill="black"></path><path d="M276.442 97.959L267.494 111.263L283.456 112.231L276.442 97.959Z" fill="black"></path></svg> 