<?xml version="1.0" encoding="UTF-8"?> <svg xmlns="http://www.w3.org/2000/svg" width="237" height="223" viewBox="0 0 237 223" fill="none"><path d="M2.54956 215.076C2.54956 218.937 5.68638 221.832 9.3058 221.832H57.5646C61.4253 221.832 67.2164 220.384 70.5945 218.937C70.5945 218.937 135.744 187.088 135.744 111.81C135.744 39.1856 79.0398 9.02601 79.0398 9.02601C75.6617 7.33707 69.8706 5.8894 66.2512 5.8894H9.54709C5.68638 5.8894 2.79086 9.02601 2.79086 12.6452V215.076H2.54956Z" fill="#C3B68F"></path><path d="M51.0506 89.1298C51.0506 89.3711 50.8093 89.3711 50.8093 89.3711C50.568 89.3711 50.568 89.3711 50.568 89.1298V81.6502H47.6724C47.4312 81.6502 47.4312 81.409 47.4312 81.409C47.4312 81.1677 47.4312 81.1677 47.6724 81.1677H53.7048C53.9461 81.1677 53.9461 81.409 53.9461 81.409C53.9461 81.6503 53.9461 81.6502 53.7048 81.6502H51.0506V89.1298Z" fill="black"></path><path d="M50.8089 89.6123C50.3264 89.6123 50.0851 89.3711 50.0851 88.8885V81.6502H47.6721C47.1895 81.6502 46.9482 81.4089 46.9482 80.9264C46.9482 80.4438 47.1895 80.2026 47.6721 80.2026H53.7045C54.1871 80.2026 54.4284 80.4438 54.4284 80.9264C54.4284 81.1677 54.1871 81.6502 53.7045 81.6502H51.2915V88.8885C51.2915 89.3711 51.0502 89.6123 50.8089 89.6123ZM47.6721 81.1677H50.5677V88.8885V81.1677H53.4632H47.6721Z" fill="black"></path><path d="M61.1853 80.6859C63.5983 80.6859 65.5286 82.3749 65.5286 85.0289C65.5286 87.4417 63.5983 89.3719 61.1853 89.3719C58.7724 89.3719 56.842 87.683 56.842 85.0289C56.842 82.6162 58.7724 80.6859 61.1853 80.6859ZM61.1853 88.6481C63.1157 88.6481 64.8047 86.9591 64.8047 85.0289C64.8047 83.0987 63.357 81.4098 61.1853 81.4098C59.255 81.4098 57.5659 83.0987 57.5659 85.0289C57.5659 86.9591 59.0137 88.6481 61.1853 88.6481Z" fill="black"></path><path d="M61.1844 89.6123C58.5302 89.6123 56.5999 87.6821 56.5999 85.0281C56.5999 82.374 58.5302 80.4438 61.1844 80.4438C63.8387 80.4438 65.769 82.374 65.769 85.0281C65.769 87.6821 63.8387 89.6123 61.1844 89.6123ZM61.1844 81.1676C58.7715 81.1676 57.0824 82.8566 57.0824 85.2693C57.0824 87.4408 58.7715 89.371 61.1844 89.371C63.5974 89.371 65.2864 87.6821 65.2864 85.2693C65.0451 82.8566 63.3561 81.1676 61.1844 81.1676ZM61.1844 89.1297C59.0128 89.1297 57.3237 87.4408 57.3237 85.2693C57.3237 83.0978 59.0128 81.4089 61.1844 81.4089C63.3561 81.4089 65.0451 83.0978 65.0451 85.2693C65.0451 87.4408 63.3561 89.1297 61.1844 89.1297ZM61.1844 81.6502C59.2541 81.6502 57.8063 83.0979 57.8063 85.0281C57.8063 86.9583 59.2541 88.4059 61.1844 88.4059C63.1148 88.4059 64.5626 86.9583 64.5626 85.0281C64.5626 83.0979 63.1148 81.6502 61.1844 81.6502Z" fill="black"></path><path d="M69.6293 89.1297C69.6293 89.371 69.388 89.371 69.388 89.371C69.1467 89.371 69.1467 89.371 69.1467 89.1297V82.1327C69.1467 81.8914 69.1467 81.1676 70.1119 81.1676H71.3184C72.0423 81.1676 72.5249 81.1676 73.0074 81.4089C73.9726 81.8914 74.2139 83.0978 74.2139 83.5804C74.2139 84.3042 73.9726 85.2693 73.0074 85.7518C72.5249 85.9931 72.0423 85.9931 71.3184 85.9931H69.8706V89.1297H69.6293ZM70.8358 85.028C71.5597 85.028 73.0074 85.028 73.0074 83.3391C73.0074 81.6501 71.5597 81.6501 70.8358 81.6501H70.1119C69.8706 81.6501 69.6293 81.6501 69.6293 82.1327V85.2693H70.8358V85.028Z" fill="black"></path><path d="M69.147 89.6123C68.6644 89.6123 68.4231 89.371 68.4231 88.8884V81.8915C68.4231 80.9264 68.9057 80.4438 69.6296 80.4438H70.836C71.5599 80.4438 72.0425 80.4438 72.7664 80.9264C73.9729 81.6502 73.9729 82.8566 73.9729 83.3391C73.9729 84.5455 73.4903 85.2693 72.7664 85.7519C72.2838 85.9931 71.5599 85.9931 70.836 85.9931H69.8709V89.1297C69.8709 89.371 69.6296 89.6123 69.147 89.6123ZM69.8709 81.1676C69.3883 81.1676 69.147 81.4089 69.147 81.8915V88.8884V85.2693H70.836C71.3186 85.2693 71.8012 85.2693 72.2838 85.0281C73.0077 84.7868 73.249 84.063 73.249 83.0979C73.249 82.6153 73.0077 81.6502 72.2838 81.4089C71.8012 81.1677 71.3186 81.1676 70.836 81.1676H69.8709V81.1676ZM70.836 85.5106H69.3883V82.1327C69.3883 81.6502 69.6296 81.4089 70.1122 81.4089H70.836C71.5599 81.4089 73.4903 81.4089 73.4903 83.5804C73.4903 85.5106 71.5599 85.5106 70.836 85.5106ZM69.8709 84.7868H70.836C71.8012 84.7868 72.7664 84.7868 72.7664 83.3391C72.7664 81.8915 71.8012 81.8915 70.836 81.8915H70.1122V84.7868H69.8709Z" fill="black"></path><path d="M41.1563 114.705L40.1912 117.118C40.1912 117.359 40.1912 117.359 39.9499 117.359C39.7086 117.359 39.4673 117.359 39.4673 117.118V116.877L42.6041 109.156C42.6041 108.914 42.8454 108.673 43.0867 108.673C43.5693 108.673 43.5693 108.914 43.5693 109.156L46.4648 116.877V117.118C46.4648 117.359 46.2235 117.359 45.9822 117.359C45.7409 117.359 45.7409 117.118 45.7409 117.118L44.7758 114.705H41.1563ZM45.017 114.223L43.328 109.88L41.6389 114.223H45.017Z" fill="black"></path><path d="M46.4651 117.842C45.9825 117.842 45.9825 117.6 45.7412 117.359L44.776 114.946H41.1566L40.1914 117.118C40.1914 117.359 39.9501 117.6 39.4675 117.6C39.2262 117.6 38.7437 117.359 38.7437 116.877V116.635L41.8805 108.914C42.1218 108.432 42.3631 108.191 42.6044 108.191C43.0869 108.191 43.3282 108.432 43.3282 108.914L46.2238 116.635C46.2238 116.877 46.2238 116.877 46.2238 117.118C47.1889 117.6 46.7064 117.842 46.4651 117.842ZM40.9153 114.464H45.2586L46.2238 117.118L43.0869 109.397C43.0869 109.397 43.0869 109.156 42.8457 109.156L44.776 114.464H40.9153L42.8457 109.156C42.8457 109.156 42.8457 109.156 42.6044 109.397L39.4675 117.118V117.359L40.9153 114.464ZM41.8805 113.981H44.5347L43.3282 110.603L41.8805 113.981Z" fill="black"></path><path d="M51.0499 117.359C50.0847 117.359 50.0847 116.635 50.0847 116.394V110.121C50.0847 109.88 50.0847 109.156 51.0499 109.156H52.4977C53.2215 109.156 55.1519 109.156 55.1519 111.086C55.1519 112.292 54.428 112.775 53.9454 113.016C54.428 113.257 55.3932 113.499 55.3932 115.188C55.3932 117.359 53.2215 117.359 52.4977 117.359H51.0499V117.359ZM52.4977 112.775C52.9802 112.775 54.428 112.775 54.428 111.327C54.428 109.88 53.2215 109.88 52.2564 109.88H51.0499C50.8086 109.88 50.5673 109.88 50.5673 110.362V113.016H52.4977V112.775ZM50.8086 116.394C50.8086 116.635 51.0499 116.877 51.2912 116.877H52.4977C53.2215 116.877 54.9106 116.877 54.9106 115.188C54.9106 113.499 53.2215 113.499 52.739 113.499H50.8086V116.394Z" fill="black"></path><path d="M52.4973 117.6H50.8083C50.0844 117.6 49.6018 117.118 49.6018 116.153V110.121C49.6018 109.156 50.0844 108.673 50.8083 108.673H52.4973C53.2212 108.673 55.6342 108.673 55.6342 111.086C55.6342 112.051 55.1516 112.534 54.669 113.016C55.1516 113.257 55.8755 113.981 55.8755 115.188C55.8755 116.877 54.669 117.6 52.4973 117.6ZM51.0496 109.397C50.567 109.397 50.3257 109.638 50.3257 110.121V116.394C50.3257 116.877 50.3257 117.118 51.0496 117.118H52.4973C53.7038 117.118 55.1516 116.877 55.1516 115.188C55.1516 114.464 54.9103 113.981 54.669 113.74C54.9103 113.981 55.1516 114.464 55.1516 115.188C55.1516 117.118 53.2212 117.118 52.4973 117.118H51.0496C50.8083 117.118 50.3257 117.118 50.3257 116.394V110.121C50.3257 109.638 50.567 109.397 51.0496 109.397H52.4973C53.4625 109.397 54.9103 109.397 54.9103 111.086C54.9103 111.327 54.9103 111.81 54.669 112.051C54.9103 111.81 54.9103 111.568 54.9103 110.845C54.9103 109.397 53.7038 109.156 52.4973 109.156H51.0496V109.397ZM51.0496 116.394H52.4973C53.4625 116.394 54.669 116.394 54.669 115.188C54.669 113.981 53.7038 113.74 52.7386 113.74H51.0496V116.394ZM52.7386 113.016C52.9799 113.016 53.2212 113.016 53.2212 113.016L53.4625 112.775C53.2212 113.016 52.9799 113.016 52.7386 113.016ZM51.0496 112.534H52.4973C53.2212 112.534 54.1864 112.292 54.1864 111.327C54.1864 110.362 53.4625 110.121 52.256 110.121H51.0496V112.534Z" fill="black"></path><path d="M62.8741 108.915C65.287 108.915 67.2173 110.604 67.2173 113.258C67.2173 115.671 65.287 117.601 62.8741 117.601C60.4611 117.601 58.5308 115.912 58.5308 113.258C58.5308 110.846 60.4611 108.915 62.8741 108.915ZM62.8741 116.877C64.8044 116.877 66.4935 115.189 66.4935 113.258C66.4935 111.328 65.0457 109.639 62.8741 109.639C60.9437 109.639 59.2546 111.328 59.2546 113.258C59.2546 115.189 60.9437 116.877 62.8741 116.877Z" fill="black"></path><path d="M62.8732 117.842C60.2189 117.842 58.2886 115.911 58.2886 113.257C58.2886 110.603 60.2189 108.673 62.8732 108.673C65.5274 108.673 67.4577 110.603 67.4577 113.257C67.4577 115.911 65.5274 117.842 62.8732 117.842ZM62.8732 109.156C60.4602 109.156 58.7712 110.845 58.7712 113.257C58.7712 115.429 60.4602 117.359 62.8732 117.359C65.2861 117.359 66.9752 115.67 66.9752 113.257C66.9752 110.845 65.2861 109.156 62.8732 109.156ZM62.8732 117.118C60.7015 117.118 59.0125 115.429 59.0125 113.257C59.0125 111.086 60.7015 109.397 62.8732 109.397C65.0448 109.397 66.7339 111.086 66.7339 113.257C66.7339 115.429 65.0448 117.118 62.8732 117.118ZM62.8732 109.88C60.9428 109.88 59.495 111.327 59.495 113.257C59.495 115.188 60.9428 116.635 62.8732 116.635C64.8035 116.635 66.2513 115.188 66.2513 113.257C66.2513 111.327 64.8035 109.88 62.8732 109.88Z" fill="black"></path><path d="M70.5944 109.397C70.5944 109.156 70.8357 109.156 70.8357 109.156C71.077 109.156 71.077 109.156 71.077 109.397V113.981C71.077 115.188 71.077 117.118 73.7312 117.118C76.3855 117.118 76.3855 115.188 76.3855 113.981V109.397C76.3855 109.156 76.6268 109.156 76.6268 109.156C76.8681 109.156 76.868 109.156 76.868 109.397V113.981C76.868 115.188 76.8681 117.842 73.4899 117.842C70.1118 117.842 70.1118 115.429 70.1118 113.981V109.397H70.5944Z" fill="black"></path><path d="M73.9734 117.842C70.354 117.842 70.354 114.946 70.354 113.74V109.156C70.354 108.673 70.5953 108.432 71.0779 108.432C71.5605 108.432 71.8018 108.673 71.8018 109.156V113.74C71.8018 115.188 72.0431 116.635 74.2147 116.635C76.3864 116.635 76.6276 115.188 76.6276 113.74V109.156C76.6276 108.673 76.8689 108.432 77.3515 108.432C77.8341 108.432 78.0754 108.673 78.0754 109.156V113.74C77.8341 114.946 77.8341 117.842 73.9734 117.842ZM70.8366 109.156V113.74C70.8366 115.429 71.3192 117.118 73.9734 117.118C76.6276 117.118 77.1102 115.429 77.1102 113.74V109.156V113.74C77.1102 114.946 77.1102 117.118 73.9734 117.118C70.8366 117.118 70.8366 114.705 70.8366 113.74V109.156Z" fill="black"></path><path d="M84.3483 117.118C84.3483 117.359 84.107 117.359 84.107 117.359C83.8657 117.359 83.8658 117.359 83.8658 117.118V109.638H81.2115C80.9702 109.638 80.9702 109.397 80.9702 109.397C80.9702 109.156 80.9702 109.156 81.2115 109.156H87.2439C87.4852 109.156 87.4852 109.397 87.4852 109.397C87.4852 109.638 87.4852 109.638 87.2439 109.638H84.5896V117.118H84.3483Z" fill="black"></path><path d="M83.8658 117.842C83.3832 117.842 83.1419 117.6 83.1419 117.118V109.88H80.729C80.2464 109.88 80.0051 109.638 80.0051 109.156C80.0051 108.673 80.2464 108.432 80.729 108.432H86.7614C87.2439 108.432 87.4852 108.673 87.4852 109.156C87.4852 109.397 87.2439 109.88 86.7614 109.88H84.3484V117.118C84.5897 117.6 84.3484 117.842 83.8658 117.842ZM80.9703 109.397H83.8658V117.118V109.397H86.7614H80.9703Z" fill="black"></path><path d="M36.5725 144.865C37.0551 145.106 37.5377 145.106 38.0203 145.106C38.9855 145.106 40.1919 144.623 40.1919 143.417C40.1919 142.211 39.2268 141.969 38.5029 141.728C37.5377 141.487 36.3312 141.004 36.3312 139.557C36.3312 138.35 37.2964 137.385 38.7442 137.385C39.2267 137.385 39.7093 137.626 40.1919 137.626C40.1919 137.626 40.4332 137.626 40.4332 137.868C40.4332 138.109 40.1919 138.109 40.1919 138.109H39.9506C39.7093 138.109 39.2267 137.868 38.7442 137.868C37.5377 137.868 37.0551 138.591 37.0551 139.557C37.0551 140.522 38.0203 141.004 38.7442 141.246C39.7093 141.487 40.9158 141.969 40.9158 143.658C40.9158 145.106 39.7093 146.071 38.0203 146.071C37.0551 146.071 36.3312 145.83 36.0899 145.589C35.8486 145.589 35.8486 145.347 35.8486 145.347C35.8486 145.106 36.0899 145.106 36.0899 145.106C36.3312 144.623 36.3312 144.623 36.5725 144.865Z" fill="black"></path><path d="M38.0201 146.071C37.0549 146.071 36.3311 145.83 36.0898 145.589C35.8485 145.589 35.6072 145.347 35.6072 144.865C35.6072 144.623 35.8485 144.141 36.3311 144.141C36.3311 144.141 36.5724 144.141 36.8136 144.382C37.2962 144.623 37.7788 144.623 38.2614 144.623C38.744 144.623 40.1918 144.623 40.1918 143.176C40.1918 142.211 39.7092 141.969 38.5027 141.728C37.5375 141.487 36.0898 141.004 36.0898 139.315C36.0898 138.109 37.0549 136.661 38.744 136.661C39.2266 136.661 39.9505 136.903 40.4331 137.144C40.4331 137.144 40.9157 137.385 40.9157 137.626C40.9157 137.868 40.6744 138.35 40.1918 138.35C39.9505 138.35 39.9505 138.35 39.7092 138.109C39.4679 138.109 39.2266 137.868 38.744 137.868C37.7788 137.868 37.2962 138.592 37.2962 139.074C37.2962 139.798 37.7788 140.039 38.744 140.522C39.7092 141.004 41.1569 141.487 41.1569 143.176C41.1569 144.865 39.9505 146.071 38.0201 146.071ZM36.0898 144.865C36.3311 144.865 36.3311 144.865 36.0898 144.865C36.5724 145.106 37.0549 145.347 38.0201 145.347C39.2266 145.347 40.4331 144.865 40.4331 143.417C40.4331 141.969 39.4679 141.728 38.5027 141.246C37.5375 141.004 36.5724 140.522 36.5724 139.315C36.5724 138.35 37.2962 137.385 38.5027 137.385C38.9853 137.385 39.4679 137.626 39.7092 137.626C39.9505 137.626 39.9505 137.626 39.9505 137.626C39.4679 137.385 38.9853 137.385 38.5027 137.385C37.0549 137.385 36.3311 138.35 36.3311 139.315C36.3311 140.522 37.2962 141.004 38.2614 141.246C39.2266 141.487 40.1918 141.969 40.1918 143.417C40.1918 144.865 38.9853 145.347 37.7788 145.347C37.2962 145.347 36.5724 145.106 36.0898 144.865V144.865C36.3311 144.865 36.3311 144.865 36.0898 144.865Z" fill="black"></path><path d="M48.637 141.004C48.8783 141.004 48.8783 141.246 48.8783 141.246C48.8783 141.487 48.8783 141.487 48.637 141.487H45.0176V144.382C45.0176 144.624 45.2589 144.865 45.5002 144.865H49.1196C49.3609 144.865 49.3609 145.106 49.3609 145.106C49.3609 145.347 49.3609 145.347 49.1196 145.347H45.2589C44.2937 145.347 44.2937 144.624 44.2937 144.382V138.109C44.2937 137.868 44.2937 137.144 45.2589 137.144H48.8783C49.1196 137.144 49.1196 137.385 49.1196 137.385C49.1196 137.626 49.1196 137.626 48.8783 137.626H45.2589C45.0176 137.626 44.7763 137.626 44.7763 138.109V140.763H48.637V141.004Z" fill="black"></path><path d="M49.3609 145.83H45.5002C44.7763 145.83 44.2937 145.347 44.2937 144.382V138.109C44.2937 137.144 44.7763 136.661 45.5002 136.661H49.1196C49.6022 136.661 49.8435 136.903 49.8435 137.385C49.8435 137.626 49.6022 138.109 49.1196 138.109H45.5002V140.522H48.8783C49.3609 140.522 49.3609 140.763 49.3609 141.246C49.3609 141.728 49.1196 141.969 48.8783 141.969H45.5002V144.623H49.1196C49.6022 144.623 49.8435 144.865 49.8435 145.347C49.8435 145.589 49.6022 145.83 49.3609 145.83ZM45.5002 137.626C45.0176 137.626 44.7763 137.868 44.7763 138.35V144.623C44.7763 145.106 44.7763 145.347 45.5002 145.347H49.3609H45.7415C45.5002 145.347 45.0176 145.347 45.0176 144.623V141.487H48.8783H45.0176V138.592C44.7763 137.868 45.0176 137.626 45.5002 137.626H49.1196H45.5002Z" fill="black"></path><path d="M57.8058 145.106C57.8058 145.347 58.0471 145.347 58.0471 145.347C58.0471 145.588 57.8058 145.588 57.8058 145.588C57.5645 145.588 57.5645 145.588 57.5645 145.347L54.669 141.728H53.7038V145.347C53.7038 145.588 53.4625 145.588 53.4625 145.588C53.2212 145.588 53.2212 145.588 53.2212 145.347V138.35C53.2212 138.109 53.2212 137.385 54.1864 137.385H55.6341C57.3232 137.385 58.0471 138.35 58.0471 139.556C58.0471 140.522 57.5645 141.728 55.6341 141.728L57.8058 145.106ZM54.9103 141.245C55.3928 141.245 57.0819 141.245 57.0819 139.556C57.0819 137.868 55.6341 137.868 54.9103 137.868H53.9451C53.7038 137.868 53.4625 137.868 53.4625 138.35V141.245H54.9103Z" fill="black"></path><path d="M57.5647 146.071C57.3234 146.071 57.0821 145.83 57.0821 145.83L54.4279 142.211H53.9453V145.589C53.9453 146.071 53.704 146.312 53.2214 146.312C52.7389 146.312 52.4976 146.071 52.4976 145.589V138.591C52.4976 137.626 52.9801 137.144 53.704 137.144H55.1518C57.0821 137.144 57.806 138.35 57.806 139.798C57.806 141.004 57.3234 141.969 55.6344 142.211L57.806 145.106L57.5647 145.347L57.806 145.106C57.806 145.347 58.0473 145.347 58.0473 145.589C58.2886 145.83 57.806 146.071 57.5647 146.071ZM53.2214 141.487H54.6692L57.5647 145.347L57.806 145.106L57.5647 145.347L54.6692 141.487H55.1518C57.0821 141.487 57.3234 140.039 57.3234 139.557C57.3234 138.35 56.5996 137.626 55.1518 137.626H53.704C53.2214 137.626 52.9801 137.868 52.9801 138.35V145.347L53.2214 141.487ZM54.9105 141.487H53.2214V138.35C53.2214 137.868 53.4627 137.626 53.9453 137.626H54.9105C55.3931 137.626 57.3234 137.626 57.3234 139.557C57.3234 140.763 56.5996 141.487 54.9105 141.487ZM53.704 140.763H54.9105C55.8757 140.763 56.8409 140.522 56.8409 139.315C56.8409 138.109 55.8757 138.109 54.9105 138.109H53.9453V140.763H53.704Z" fill="black"></path><path d="M67.2171 137.385C67.2171 137.385 67.2171 137.144 67.4584 137.144C67.6997 137.144 67.941 137.385 67.941 137.385V137.626L64.8041 145.347C64.8041 145.589 64.5629 145.83 64.3216 145.83C64.0803 145.83 63.839 145.589 63.839 145.347L60.7021 137.626V137.385C60.7021 137.144 60.9434 137.144 61.1847 137.144C61.426 137.144 61.426 137.144 61.426 137.385L64.5629 145.106L67.2171 137.385Z" fill="black"></path><path d="M64.0799 146.071C63.5974 146.071 63.3561 145.589 63.3561 145.589L60.2192 137.868C60.2192 137.868 60.2192 137.626 60.2192 137.385C60.2192 136.903 60.4605 136.661 60.9431 136.661C61.4257 136.661 61.4257 136.903 61.4257 137.144L64.0799 144.141L66.7342 137.144H66.9755L66.7342 136.903C66.7342 136.903 66.9755 136.42 67.2168 136.42C67.4581 136.42 67.9406 136.661 67.9406 137.144C67.9406 137.385 67.9406 137.385 67.9406 137.626L64.8038 145.106C64.8038 145.589 64.8038 146.071 64.0799 146.071ZM67.2168 137.385H67.4581L64.3212 145.347C64.3212 145.347 64.3212 145.347 64.5625 145.106L67.6994 137.385C67.6994 137.385 67.6994 137.385 67.6994 137.144L67.2168 137.385ZM60.7018 137.385C60.7018 137.385 60.7018 137.626 60.7018 137.385L63.8387 145.106C63.8387 145.106 63.8386 145.347 64.0799 145.347L60.7018 137.385Z" fill="black"></path><path d="M71.0776 137.385C71.0776 137.144 71.3189 137.144 71.3189 137.144C71.5602 137.144 71.5602 137.385 71.5602 137.385V145.347C71.5602 145.589 71.3189 145.589 71.3189 145.589C71.0776 145.589 71.0776 145.347 71.0776 145.347V137.385Z" fill="black"></path><path d="M71.5601 146.071C71.0775 146.071 70.8362 145.83 70.8362 145.347V137.385C70.8362 136.903 71.0775 136.661 71.5601 136.661C72.0427 136.661 72.284 136.903 72.284 137.385V145.347C72.284 145.83 71.8014 146.071 71.5601 146.071ZM71.5601 137.385V145.347V137.385Z" fill="black"></path><path d="M75.6621 141.487C75.6621 139.074 77.3512 137.144 80.0054 137.144C80.9706 137.144 81.6945 137.385 82.1771 137.626C82.4184 137.626 82.4184 137.868 82.4184 137.868C82.4184 138.109 82.1771 138.109 82.1771 138.109C82.1771 138.109 81.9358 138.109 81.9358 137.868C81.2119 137.385 80.488 137.385 80.2467 137.385C78.0751 137.385 76.6273 139.074 76.6273 141.004C76.6273 142.693 77.8338 144.623 80.488 144.623C81.2119 144.623 81.6945 144.382 82.1771 144.382C82.1771 144.382 82.4184 144.141 82.6597 144.141C82.6597 144.141 82.9009 144.141 82.9009 144.382C82.9009 144.623 82.6597 144.623 82.6597 144.623C81.9358 145.106 80.9706 145.106 80.2467 145.106C77.1099 145.83 75.6621 143.658 75.6621 141.487Z" fill="black"></path><path d="M80.0051 146.071C77.1096 146.071 75.1792 144.141 75.1792 141.487C75.1792 138.833 77.1095 136.903 79.7638 136.903C80.729 136.903 81.4528 137.144 82.1767 137.385C82.418 137.626 82.418 137.868 82.418 137.868C82.418 138.109 82.1767 138.592 81.6941 138.592C81.4528 138.592 81.4528 138.592 81.2116 138.35C80.729 138.109 80.0051 137.868 79.5225 137.868C77.5921 137.868 76.1444 139.315 76.1444 141.246C76.1444 142.934 77.1096 144.623 79.5225 144.623C80.2464 144.623 80.729 144.382 81.2116 144.382C81.4528 144.141 81.6941 144.141 81.6941 144.141C81.9354 144.141 82.1767 144.382 82.1767 144.865C82.1767 145.106 82.1767 145.347 81.6941 145.347C81.4528 146.071 80.4877 146.071 80.0051 146.071ZM80.0051 137.385C77.5921 137.385 75.9031 139.074 75.9031 141.487C75.9031 143.417 77.1096 145.589 80.0051 145.589C80.4877 145.589 81.4528 145.589 82.1767 145.106H81.9354C81.4528 145.347 80.9703 145.347 80.0051 145.347C77.1096 145.347 75.9031 143.176 75.9031 141.487C75.9031 139.074 77.5921 137.385 80.0051 137.385C80.4877 137.385 81.2115 137.385 81.9354 137.868C81.4528 137.626 80.729 137.385 80.0051 137.385Z" fill="black"></path><path d="M90.1399 141.004C90.3812 141.004 90.3812 141.246 90.3812 141.246C90.3812 141.487 90.3812 141.487 90.1399 141.487H86.5205V144.382C86.5205 144.624 86.7618 144.865 87.0031 144.865H90.6225C90.8638 144.865 90.8638 145.106 90.8638 145.106C90.8638 145.347 90.8638 145.347 90.6225 145.347H86.7618C85.7966 145.347 85.7966 144.624 85.7966 144.382V138.109C85.7966 137.868 85.7966 137.144 86.7618 137.144H90.3812C90.6225 137.144 90.6225 137.385 90.6225 137.385C90.6225 137.626 90.6225 137.626 90.3812 137.626H86.7618C86.5205 137.626 86.2792 137.626 86.2792 138.109V140.763H90.1399V141.004Z" fill="black"></path><path d="M90.6223 145.83H86.7616C86.0378 145.83 85.5552 145.347 85.5552 144.382V138.109C85.5552 137.144 86.0378 136.661 86.7616 136.661H90.3811C90.8636 136.661 91.1049 136.903 91.1049 137.385C91.1049 137.626 90.8636 138.109 90.3811 138.109H86.7616V140.522H90.1398C90.6223 140.522 90.6223 140.763 90.6223 141.246C90.6223 141.728 90.381 141.969 90.1398 141.969H86.7616V144.623H90.3811C90.8636 144.623 91.1049 144.865 91.1049 145.347C91.1049 145.589 90.8636 145.83 90.6223 145.83ZM86.7616 137.626C86.2791 137.626 86.0378 137.868 86.0378 138.35V144.623C86.0378 145.106 86.0378 145.347 86.7616 145.347H90.6223H87.0029C86.7616 145.347 86.2791 145.347 86.2791 144.623V141.487H90.1398H86.2791V138.592C86.0378 137.868 86.2791 137.626 86.7616 137.626H90.3811H86.7616Z" fill="black"></path><path d="M227.195 222.556H10.03C4.96284 222.556 0.86084 218.454 0.86084 213.387V9.50857C0.86084 4.44177 4.96284 0.340057 10.03 0.340057H227.195C232.262 0.340057 236.364 4.44177 236.364 9.50857V213.387C236.364 218.454 232.262 222.556 227.195 222.556ZM9.78872 5.16559C7.37578 5.16559 5.44543 7.09581 5.44543 9.50857V213.387C5.44543 215.8 7.37578 217.73 9.78872 217.73H226.953C229.366 217.73 231.297 215.8 231.297 213.387V9.50857C231.297 7.09581 229.366 5.16559 226.953 5.16559H9.78872Z" fill="black"></path><path d="M156.254 114.946C156.254 115.429 155.772 115.911 155.289 115.911H120.06C119.578 115.911 119.095 115.429 119.095 114.946C119.095 114.464 119.578 113.981 120.06 113.981H155.53C156.013 113.981 156.254 114.464 156.254 114.946Z" fill="black"></path><path d="M155.289 117.118H120.06C118.854 117.118 117.888 116.153 117.888 114.946C117.888 113.74 118.854 112.775 120.06 112.775H155.53C156.737 112.775 157.702 113.74 157.702 114.946C157.702 116.153 156.495 117.118 155.289 117.118Z" fill="black"></path><path d="M149.016 122.909L147.81 121.461L154.566 114.946L147.81 108.432L149.016 107.226L157.461 114.946L149.016 122.909Z" fill="black"></path><path d="M149.016 124.598L146.12 121.461L152.876 114.946L146.12 108.673L149.016 105.295L159.15 114.946L149.016 124.598Z" fill="black"></path></svg> 