<?xml version="1.0" encoding="UTF-8"?> <svg xmlns="http://www.w3.org/2000/svg" width="237" height="224" viewBox="0 0 237 224" fill="none"><path d="M227.796 222.789H10.1246C5.04563 222.789 0.934082 218.677 0.934082 213.597V9.19218C0.934082 4.11229 5.04563 0 10.1246 0H227.796C232.875 0 236.987 4.11229 236.987 9.19218V213.597C236.987 218.677 232.875 222.789 227.796 222.789ZM10.1246 4.83799C7.70606 4.83799 5.77123 6.77319 5.77123 9.19218V213.597C5.77123 216.016 7.70606 217.951 10.1246 217.951H227.796C230.215 217.951 232.15 216.016 232.15 213.597V9.19218C232.15 6.77319 230.215 4.83799 227.796 4.83799H10.1246V4.83799Z" fill="black"></path><path d="M20.5247 59.7493C20.5247 59.9912 20.2828 59.9912 20.2828 59.9912C20.041 59.9912 20.041 59.9912 20.041 59.7493V52.2504H17.3805C17.1386 52.2504 17.1387 52.0085 17.1387 52.0085C17.1387 51.7666 17.1386 51.7666 17.3805 51.7666H23.427C23.6688 51.7666 23.6688 52.0085 23.6688 52.0085C23.6688 52.2504 23.6688 52.2504 23.427 52.2504H20.7665V59.7493H20.5247Z" fill="black"></path><path d="M20.2828 60.233C19.7991 60.233 19.5572 59.9911 19.5572 59.5073V52.2503H17.1387C16.655 52.2503 16.4131 52.0084 16.4131 51.5246C16.4131 51.0408 16.655 50.799 17.1387 50.799H23.1851C23.6688 50.799 23.9107 51.0408 23.9107 51.5246C23.9107 51.7665 23.6688 52.2503 23.1851 52.2503H20.7665V59.5073C20.7665 59.9911 20.5247 60.233 20.2828 60.233ZM17.1387 51.7665H20.0409V59.5073V51.7665H22.9432H17.1387Z" fill="black"></path><path d="M30.683 51.2826C33.1016 51.2826 35.0365 52.9759 35.0365 55.6368C35.0365 58.0558 33.1016 59.991 30.683 59.991C28.2644 59.991 26.3296 58.2977 26.3296 55.6368C26.3296 53.2178 28.2644 51.2826 30.683 51.2826ZM30.683 59.5072C32.6179 59.5072 34.3109 57.8139 34.3109 55.8787C34.3109 53.9435 32.8597 52.2502 30.683 52.2502C28.7481 52.2502 27.0551 53.9435 27.0551 55.8787C27.0551 57.8139 28.7481 59.5072 30.683 59.5072Z" fill="black"></path><path d="M30.6827 60.2329C28.0223 60.2329 26.0874 58.2978 26.0874 55.6369C26.0874 52.976 28.0223 51.0408 30.6827 51.0408C33.3431 51.0408 35.278 52.976 35.278 55.6369C35.278 58.2978 33.3431 60.2329 30.6827 60.2329ZM30.6827 51.7665C28.2641 51.7665 26.5711 53.4598 26.5711 55.8788C26.5711 58.0559 28.2641 59.991 30.6827 59.991C33.1013 59.991 34.7943 58.2978 34.7943 55.8788C34.7943 53.4598 33.1013 51.7665 30.6827 51.7665ZM30.6827 59.7492C28.506 59.7492 26.813 58.0559 26.813 55.8788C26.813 53.7017 28.506 52.0084 30.6827 52.0084C32.8594 52.0084 34.5524 53.7017 34.5524 55.8788C34.5524 58.0559 32.8594 59.7492 30.6827 59.7492ZM30.6827 52.2503C28.7478 52.2503 27.2967 53.7017 27.2967 55.6369C27.2967 57.5721 28.7478 59.0235 30.6827 59.0235C32.6176 59.0235 34.0687 57.5721 34.0687 55.6369C34.0687 53.7017 32.6176 52.2503 30.6827 52.2503Z" fill="black"></path><path d="M39.1473 59.7493C39.1473 59.9912 38.9054 59.9912 38.9054 59.9912C38.6636 59.9912 38.6636 59.9912 38.6636 59.7493V52.7342C38.6636 52.4923 38.6636 51.7666 39.631 51.7666H40.8403C41.5659 51.7666 42.0496 51.7666 42.5333 52.0085C43.5008 52.4923 43.7426 53.7018 43.7426 54.1856C43.7426 54.9113 43.5008 55.8789 42.5333 56.3627C42.0496 56.6046 41.5659 56.6046 40.8403 56.6046H39.3892V59.7493H39.1473ZM40.3566 55.637C41.0822 55.637 42.5333 55.637 42.5333 53.9437C42.5333 52.2504 41.0822 52.2504 40.3566 52.2504H39.631C39.3892 52.2504 39.1473 52.2504 39.1473 52.7342V55.637H40.3566Z" fill="black"></path><path d="M38.9058 60.2329C38.422 60.2329 38.1802 59.9911 38.1802 59.5073V52.4922C38.1802 51.5246 38.6639 51.0408 39.3895 51.0408H40.5987C41.3243 51.0408 41.808 51.0408 42.5336 51.5246C43.7429 52.2503 43.7429 53.4598 43.7429 53.9436C43.7429 55.1531 43.2592 55.8788 42.5336 56.3626C42.0499 56.6045 41.3243 56.6045 40.5987 56.6045H39.3895V59.7492C39.3895 59.9911 39.1476 60.2329 38.9058 60.2329ZM39.3895 51.7665C38.9057 51.7665 38.6639 52.0084 38.6639 52.4922V59.5073V55.8788H40.3569C40.8406 55.8788 41.3243 55.8788 41.808 55.6369C42.5336 55.395 42.7754 54.6693 42.7754 53.7017C42.7754 53.2179 42.5336 52.2503 41.808 52.0084C41.3243 51.7665 40.8406 51.7665 40.3569 51.7665H39.3895V51.7665ZM40.3569 56.1207H38.9058V52.7341C38.9058 52.2503 39.1476 52.0084 39.6313 52.0084H40.3569C41.0824 52.0084 43.0173 52.0084 43.0173 54.1855C43.0173 56.1207 41.0824 56.1207 40.3569 56.1207ZM39.3895 55.395H40.3569C41.3243 55.395 42.2917 55.395 42.2917 53.9436C42.2917 52.4922 41.3243 52.4922 40.3569 52.4922H39.6313V55.395H39.3895Z" fill="black"></path><path d="M18.5895 85.3905L17.6221 87.8095C17.6221 88.0514 17.6221 88.0514 17.3802 88.0514C17.1383 88.0514 16.8965 88.0514 16.8965 87.8095V87.5676L20.0407 79.8268C20.0407 79.5849 20.2825 79.343 20.5244 79.343C21.0081 79.343 21.0081 79.5849 21.0081 79.8268L23.9104 87.5676V87.8095C23.9104 88.0514 23.6685 88.0514 23.4267 88.0514C23.1848 88.0514 23.1848 87.8095 23.1848 87.8095L22.2174 85.3905H18.5895ZM22.2174 84.9067L20.5244 80.5525L18.8314 84.9067H22.2174Z" fill="black"></path><path d="M23.9103 88.5352C23.4266 88.5352 23.4266 88.2933 23.1848 88.0514L22.2173 85.6324H18.5895L17.6221 87.8095C17.6221 88.0514 17.3802 88.2933 16.8965 88.2933C16.6546 88.2933 16.1709 88.0514 16.1709 87.5676V87.3257L19.315 79.585C19.5569 79.1012 19.7988 78.8593 20.0406 78.8593C20.5243 78.8593 20.7662 79.1012 20.7662 79.585L23.6685 87.3257C23.6685 87.5676 23.6685 87.5676 23.6685 87.8095C24.6359 88.2933 24.1522 88.5352 23.9103 88.5352ZM18.3476 85.1486H22.7011L23.6685 87.8095L20.5243 80.0688C20.5243 80.0688 20.5243 79.8269 20.2825 79.8269L22.2173 85.1486H18.3476L20.2825 79.8269C20.2825 79.8269 20.2825 79.8269 20.0406 80.0688L16.8965 87.8095V88.0514L18.3476 85.1486ZM19.315 84.6648H21.9755L20.7662 81.2782L19.315 84.6648Z" fill="black"></path><path d="M28.2643 88.0515C27.2969 88.0515 27.2969 87.3258 27.2969 87.0839V80.7945C27.2969 80.5526 27.2969 79.8269 28.2643 79.8269H29.7155C30.441 79.8269 32.3759 79.8269 32.3759 81.7621C32.3759 82.9716 31.6503 83.4554 31.1666 83.6973C31.6503 83.9392 32.6177 84.1811 32.6177 85.8744C32.6177 88.0515 30.441 88.0515 29.7155 88.0515H28.2643V88.0515ZM29.9573 83.4554C30.441 83.4554 31.8922 83.4554 31.8922 82.004C31.8922 80.5526 30.6829 80.5526 29.7155 80.5526H28.5062C28.2643 80.5526 28.0225 80.5526 28.0225 81.0364V83.6973H29.9573V83.4554ZM28.0225 87.0839C28.0225 87.3258 28.2643 87.5677 28.5062 87.5677H29.9573C30.6829 87.5677 32.3759 87.5677 32.3759 85.8744C32.3759 84.1811 30.6829 84.1811 30.1992 84.1811H28.2643V87.0839H28.0225Z" fill="black"></path><path d="M29.957 88.2933H28.264C27.5384 88.2933 27.0547 87.8095 27.0547 86.8419V80.5525C27.0547 79.5849 27.5384 79.1011 28.264 79.1011H29.7151C30.4407 79.1011 32.8593 79.1011 32.8593 81.5201C32.8593 82.4877 32.3756 82.9715 31.8918 83.4553C32.3756 83.6972 33.1011 84.4229 33.1011 85.6324C33.343 87.5676 32.1337 88.2933 29.957 88.2933ZM28.264 80.0687C27.7803 80.0687 27.5384 80.3106 27.5384 80.7944V87.0838C27.5384 87.5676 27.5384 87.8095 28.264 87.8095H29.957C31.1663 87.8095 32.6174 87.5676 32.6174 85.8743C32.6174 85.1486 32.3756 84.6648 32.1337 84.4229C32.3756 84.6648 32.6174 85.1486 32.6174 85.8743C32.6174 87.8095 30.6826 87.8095 29.957 87.8095H28.5058C28.264 87.8095 27.7803 87.8095 27.7803 87.0838V80.7944C27.7803 80.3106 28.0221 80.0687 28.264 80.0687H29.7151C30.6826 80.0687 32.1337 80.0687 32.1337 81.762C32.1337 82.0039 32.1337 82.4877 31.8918 82.7296C32.1337 82.4877 32.1337 82.2458 32.1337 81.5201C32.1337 80.0687 30.9244 79.8268 29.7151 79.8268H28.264V80.0687ZM28.5058 87.0838H29.957C30.9244 87.0838 32.1337 87.0838 32.1337 85.8743C32.1337 84.6648 31.1663 84.4229 30.1988 84.4229H28.5058V87.0838ZM29.957 83.6972C30.1989 83.6972 30.4407 83.6972 30.4407 83.6972L30.6826 83.4553C30.6826 83.6972 30.4407 83.6972 29.957 83.6972ZM28.5058 83.2134H29.957C30.6826 83.2134 31.65 82.9715 31.65 82.0039C31.65 81.0363 30.9244 80.7944 29.7151 80.7944H28.5058V83.2134V83.2134Z" fill="black"></path><path d="M40.3573 79.585C42.7759 79.585 44.7108 81.2783 44.7108 83.9392C44.7108 86.3581 42.7759 88.2933 40.3573 88.2933C37.9387 88.2933 36.0039 86.6 36.0039 83.9392C36.0039 81.5202 37.9387 79.585 40.3573 79.585ZM40.3573 87.5676C42.2922 87.5676 43.9852 85.8743 43.9852 83.9392C43.9852 82.004 42.534 80.3107 40.3573 80.3107C38.4225 80.3107 36.7294 82.004 36.7294 83.9392C36.7294 85.8743 38.1806 87.5676 40.3573 87.5676Z" fill="black"></path><path d="M40.357 88.5353C37.6966 88.5353 35.7617 86.6001 35.7617 83.9392C35.7617 81.2783 37.6966 79.3431 40.357 79.3431C43.0174 79.3431 44.9523 81.2783 44.9523 83.9392C44.9523 86.6001 43.0174 88.5353 40.357 88.5353ZM40.357 79.8269C37.9384 79.8269 36.2454 81.5202 36.2454 83.9392C36.2454 86.1163 37.9384 88.0515 40.357 88.0515C42.7756 88.0515 44.4686 86.3582 44.4686 83.9392C44.2268 81.5202 42.5337 79.8269 40.357 79.8269ZM40.357 88.0515C38.1803 88.0515 36.4873 86.3582 36.4873 84.1811C36.4873 82.004 38.1803 80.3107 40.357 80.3107C42.5337 80.3107 44.2267 82.004 44.2267 84.1811C44.2267 86.3582 42.5337 88.0515 40.357 88.0515ZM40.357 80.5526C38.4221 80.5526 36.971 82.004 36.971 83.9392C36.971 85.8744 38.4221 87.3258 40.357 87.3258C42.2919 87.3258 43.743 85.8744 43.743 83.9392C43.5012 82.004 42.05 80.5526 40.357 80.5526Z" fill="black"></path><path d="M48.096 80.0688C48.096 79.8269 48.3379 79.8269 48.3379 79.8269C48.5797 79.8269 48.5798 79.8269 48.5798 80.0688V84.6649C48.5798 85.8744 48.5797 87.8096 51.2402 87.8096C53.9006 87.8096 53.9006 85.8744 53.9006 84.6649V80.0688C53.9006 79.8269 54.1425 79.8269 54.1425 79.8269C54.3843 79.8269 54.3843 79.8269 54.3843 80.0688V84.6649C54.3843 85.8744 54.3843 88.5353 50.9983 88.5353C47.6123 88.5353 47.6123 86.1163 47.6123 84.6649V80.0688H48.096Z" fill="black"></path><path d="M51.4824 88.5352C47.8545 88.5352 47.8545 85.6324 47.8545 84.4229V79.8268C47.8545 79.343 48.0964 79.1011 48.5801 79.1011C49.0638 79.1011 49.3057 79.343 49.3057 79.8268V84.4229C49.3057 85.8743 49.5475 87.3257 51.7242 87.3257C53.901 87.3257 54.1428 85.8743 54.1428 84.4229V79.8268C54.1428 79.343 54.3847 79.1011 54.8684 79.1011C55.3521 79.1011 55.594 79.343 55.594 79.8268V84.4229C55.3521 85.6324 55.3521 88.5352 51.4824 88.5352ZM48.3382 79.8268V84.4229C48.3382 86.1162 48.8219 87.8095 51.4824 87.8095C54.6265 87.8095 54.6265 85.3905 54.6265 84.4229V79.8268V84.4229C54.6265 85.6324 54.6265 87.8095 51.4824 87.8095C48.3382 87.8095 48.3382 85.3905 48.3382 84.4229V79.8268Z" fill="black"></path><path d="M61.6404 87.8096C61.6404 88.0515 61.3986 88.0515 61.3986 88.0515C61.1567 88.0515 61.1567 88.0515 61.1567 87.8096V80.3107H58.4962C58.2544 80.3107 58.2544 80.0688 58.2544 80.0688C58.2544 79.8269 58.2544 79.8269 58.4962 79.8269H64.5427C64.7845 79.8269 64.7845 80.0688 64.7845 80.0688C64.7845 80.3107 64.7845 80.3107 64.5427 80.3107H61.8823V87.8096H61.6404Z" fill="black"></path><path d="M61.3986 88.5352C60.9148 88.5352 60.673 88.2933 60.673 87.8095V80.5525H58.2544C57.7707 80.5525 57.5288 80.3106 57.5288 79.8268C57.5288 79.343 57.7707 79.1011 58.2544 79.1011H64.3008C64.7846 79.1011 65.0264 79.343 65.0264 79.8268C65.0264 80.0687 64.7846 80.5525 64.3008 80.5525H61.8823V87.8095C62.1241 88.2933 61.6404 88.5352 61.3986 88.5352ZM58.4962 80.0687H61.3986V87.8095V80.0687H64.3008H58.4962Z" fill="black"></path><path d="M17.6221 115.628C18.1058 115.87 18.5895 115.87 19.0732 115.87C20.0407 115.87 21.2499 115.386 21.2499 114.177C21.2499 112.967 20.2825 112.725 19.5569 112.483C18.5895 112.241 17.3802 111.758 17.3802 110.306C17.3802 109.097 18.3476 108.129 19.7988 108.129C20.2825 108.129 20.7662 108.371 21.2499 108.371C21.2499 108.371 21.4918 108.371 21.4918 108.613C21.4918 108.855 21.2499 108.855 21.2499 108.855H21.0081C20.7662 108.855 20.2825 108.613 19.7988 108.613C18.5895 108.613 18.1058 109.339 18.1058 110.306C18.1058 111.274 19.0732 111.758 19.7988 112C20.7662 112.241 21.9755 112.725 21.9755 114.419C21.9755 115.87 20.7662 116.838 19.0732 116.838C18.1058 116.838 17.3802 116.596 17.1384 116.354C16.8965 116.354 16.8965 116.112 16.8965 116.112C16.8965 115.87 17.1384 115.87 17.1384 115.87C17.3802 115.386 17.3802 115.386 17.6221 115.628Z" fill="black"></path><path d="M19.3151 116.838C18.3476 116.838 17.6221 116.596 17.3802 116.354C17.1383 116.354 16.8965 116.112 16.8965 115.628C16.8965 115.386 17.1383 114.902 17.6221 114.902C17.6221 114.902 17.8639 114.902 18.1058 115.144C18.5895 115.386 19.0732 115.386 19.5569 115.386C20.0407 115.386 21.4918 115.386 21.4918 113.935C21.4918 112.967 21.0081 112.725 19.7988 112.483C18.8313 112.241 17.3802 111.758 17.3802 110.064C17.3802 108.855 18.3476 107.403 20.0406 107.403C20.5244 107.403 21.2499 107.645 21.7336 107.887C21.7336 107.887 22.2174 108.129 22.2174 108.371C22.2174 108.613 21.9755 109.097 21.4918 109.097C21.25 109.097 21.2499 109.097 21.0081 108.855C20.7662 108.855 20.5244 108.613 20.0406 108.613C19.0732 108.613 18.5895 109.339 18.5895 109.822C18.5895 110.548 19.0732 110.79 20.0406 111.274C21.0081 111.758 22.4592 112.241 22.4592 113.935C22.2174 115.628 21.0081 116.838 19.3151 116.838ZM17.3802 115.628C17.8639 115.87 18.3476 116.112 19.3151 116.112C20.5244 116.112 21.7336 115.628 21.7336 114.177C21.7336 112.725 20.7662 112.483 19.7988 112C18.8313 111.758 17.8639 111.274 17.8639 110.064C17.8639 109.097 18.5895 108.129 19.7988 108.129C20.2825 108.129 20.7662 108.371 21.0081 108.371C21.2499 108.371 21.2499 108.371 21.2499 108.371C20.7662 108.129 20.2825 108.129 19.7988 108.129C18.3476 108.129 17.6221 109.097 17.6221 110.064C17.6221 111.274 18.5895 111.758 19.5569 112C20.5244 112.241 21.4918 112.725 21.4918 114.177C21.4918 115.628 20.2825 116.112 19.0732 116.112C18.5895 116.112 17.8639 115.87 17.3802 115.628V115.628Z" fill="black"></path><path d="M29.957 111.758C30.1988 111.758 30.1988 112 30.1988 112C30.1988 112.241 30.1988 112.241 29.957 112.241H26.3291V115.144C26.3291 115.386 26.5709 115.628 26.8128 115.628H30.4407C30.6825 115.628 30.6825 115.87 30.6825 115.87C30.6825 116.112 30.6825 116.112 30.4407 116.112H26.5709C25.6035 116.112 25.6035 115.386 25.6035 115.144V108.855C25.6035 108.613 25.6035 107.887 26.5709 107.887H30.1988C30.4406 107.887 30.4407 108.129 30.4407 108.129C30.4407 108.371 30.4406 108.371 30.1988 108.371H26.5709C26.3291 108.371 26.0872 108.371 26.0872 108.855V111.516H29.957V111.758Z" fill="black"></path><path d="M30.4404 116.596H26.5706C25.845 116.596 25.3613 116.112 25.3613 115.144V108.855C25.3613 107.887 25.845 107.403 26.5706 107.403H30.1985C30.6822 107.403 30.9241 107.645 30.9241 108.129C30.9241 108.371 30.6822 108.855 30.1985 108.855H26.5706V111.274H29.9567C30.4404 111.274 30.4404 111.516 30.4404 112C30.4404 112.483 30.1985 112.725 29.9567 112.725H26.5706V115.386H30.1985C30.6822 115.386 30.9241 115.628 30.9241 116.112C30.9241 116.354 30.6822 116.596 30.4404 116.596ZM26.5706 108.371C26.0869 108.371 25.845 108.613 25.845 109.097V115.386C25.845 115.87 25.845 116.112 26.5706 116.112H30.4404H26.8125C26.5706 116.112 26.0869 116.112 26.0869 115.386V112.241H29.9567H26.0869V109.339C25.8451 108.613 26.0869 108.371 26.5706 108.371H30.1985H26.5706Z" fill="black"></path><path d="M38.9055 115.87C38.9055 116.112 39.1473 116.112 39.1473 116.112C39.1473 116.354 38.9055 116.354 38.9055 116.354C38.6636 116.354 38.6636 116.354 38.6636 116.112L35.7614 112.483H34.5521V116.112C34.5521 116.354 34.3102 116.354 34.3102 116.354C34.0683 116.354 34.0684 116.354 34.0684 116.112V109.097C34.0684 108.855 34.0683 108.129 35.0358 108.129H36.4869C38.1799 108.129 38.9055 109.097 38.9055 110.306C38.9055 111.274 38.4218 112.483 36.4869 112.483L38.9055 115.87ZM36.0032 112C36.4869 112 38.1799 112 38.1799 110.306C38.1799 108.613 36.7288 108.613 36.0032 108.613H35.0358C34.7939 108.613 34.5521 108.613 34.5521 109.097V112H36.0032Z" fill="black"></path><path d="M38.6634 116.838C38.4216 116.838 38.1797 116.596 38.1797 116.596L35.5193 112.967H35.0356V116.112C35.0356 116.596 34.7937 116.838 34.31 116.838C33.8263 116.838 33.5845 116.596 33.5845 116.112V109.097C33.5845 108.129 34.0682 107.645 34.7938 107.645H36.2449C38.1797 107.645 38.9053 108.855 38.9053 110.306C38.9053 111.516 38.4216 112.483 36.7286 112.725L38.9053 115.628L38.6634 115.87L38.9053 115.628C38.9053 115.87 39.1472 115.87 39.1472 116.112C39.389 116.596 39.1472 116.838 38.6634 116.838ZM34.31 112.241H35.7612L38.6634 116.112L38.9053 115.87L38.6634 116.112L35.7612 112.241H36.2449C38.1797 112.241 38.4216 110.79 38.4216 110.306C38.4216 109.097 37.696 108.371 36.2449 108.371H34.7938C34.31 108.371 34.0682 108.613 34.0682 109.097V116.112L34.31 112.241ZM36.003 112.241H34.31V109.097C34.31 108.613 34.5519 108.371 35.0356 108.371H36.003C36.4868 108.371 38.4216 108.371 38.4216 110.306C38.4216 111.516 37.696 112.241 36.003 112.241ZM35.0356 111.516H36.2449C37.2123 111.516 38.1797 111.274 38.1797 110.064C38.1797 108.855 37.2123 108.855 36.2449 108.855H35.2775V111.516H35.0356Z" fill="black"></path><path d="M48.3377 108.129C48.3377 108.129 48.3378 107.887 48.5796 107.887C48.8215 107.887 49.0633 108.129 49.0633 108.129V108.371L45.9192 116.112C45.9192 116.354 45.6773 116.596 45.4355 116.596C45.1936 116.596 44.9518 116.354 44.9518 116.112L41.8076 108.371V108.129C41.8076 107.887 42.0495 107.887 42.2913 107.887C42.5332 107.887 42.5332 107.887 42.5332 108.129L45.6773 115.87L48.3377 108.129Z" fill="black"></path><path d="M45.1934 116.838C44.7097 116.838 44.4679 116.354 44.4679 116.354L41.3237 108.613C41.3237 108.613 41.3237 108.371 41.3237 108.129C41.3237 107.645 41.5656 107.404 42.0493 107.404C42.533 107.404 42.533 107.645 42.533 107.887L45.1934 114.902L47.8539 107.887H48.0958L47.8539 107.645C47.8539 107.645 48.0957 107.162 48.3376 107.162C48.5794 107.162 49.0632 107.404 49.0632 107.887C49.0632 108.129 49.0632 108.129 49.0632 108.371L45.919 115.87C46.1609 116.354 45.919 116.838 45.1934 116.838ZM48.3376 108.129H48.5795L45.4353 116.112C45.4353 116.112 45.4353 116.112 45.6772 115.87L48.8213 108.129C48.8213 108.129 48.8213 108.129 48.8213 107.887L48.3376 108.129ZM41.8074 108.129C41.8074 108.129 41.8074 108.371 41.8074 108.129L44.9516 115.87C44.9516 115.87 44.9516 116.112 45.1934 116.112L41.8074 108.129C42.0493 108.129 42.0493 108.129 41.8074 108.129Z" fill="black"></path><path d="M52.4492 108.129C52.4492 107.887 52.6911 107.887 52.6911 107.887C52.933 107.887 52.933 108.129 52.933 108.129V116.112C52.933 116.354 52.6911 116.354 52.6911 116.354C52.4492 116.354 52.4492 116.112 52.4492 116.112V108.129Z" fill="black"></path><path d="M52.6914 116.838C52.2077 116.838 51.9658 116.596 51.9658 116.112V108.129C51.9658 107.645 52.2077 107.403 52.6914 107.403C53.1751 107.403 53.417 107.645 53.417 108.129V116.112C53.417 116.596 52.9333 116.838 52.6914 116.838ZM52.6914 108.129V116.112V108.129Z" fill="black"></path><path d="M56.8027 112.241C56.8027 109.822 58.4957 107.887 61.1562 107.887C62.1236 107.887 62.8492 108.129 63.3329 108.371C63.5747 108.371 63.5748 108.613 63.5748 108.613C63.5748 108.855 63.3329 108.855 63.3329 108.855C63.3329 108.855 63.0911 108.855 63.0911 108.613C62.3655 108.129 61.6399 108.129 61.3981 108.129C59.2213 108.129 57.7702 109.822 57.7702 111.758C57.7702 113.451 58.9795 115.386 61.6399 115.386C62.3655 115.386 62.8492 115.144 63.3329 115.144C63.3329 115.144 63.5748 114.902 63.8166 114.902C63.8166 114.902 64.0585 114.902 64.0585 115.144C64.0585 115.386 63.8166 115.386 63.8166 115.386C63.0911 115.87 62.1236 115.87 61.3981 115.87C58.2539 116.596 56.8027 114.419 56.8027 112.241Z" fill="black"></path><path d="M61.1565 116.838C58.2542 116.838 56.3193 114.902 56.3193 112.241C56.3193 109.581 58.2542 107.645 60.9146 107.645C61.8821 107.645 62.6076 107.887 63.3332 108.129C63.5751 108.371 63.5751 108.613 63.5751 108.613C63.5751 108.855 63.3332 109.339 62.8495 109.339C62.6076 109.339 62.6076 109.339 62.3658 109.097C61.8821 108.855 61.1565 108.613 60.6728 108.613C58.7379 108.613 57.2868 110.064 57.2868 112C57.2868 113.693 58.2542 115.386 60.6728 115.386C61.3984 115.386 61.8821 115.144 62.3658 115.144C62.6076 114.902 62.8495 114.902 62.8495 114.902C63.0914 114.902 63.3332 115.144 63.3332 115.628C63.3332 115.87 63.3332 116.112 62.8495 116.112C62.6076 116.838 61.6402 116.838 61.1565 116.838ZM61.1565 108.129C58.7379 108.129 57.0449 109.822 57.0449 112.241C57.0449 114.177 58.2542 116.354 61.1565 116.354C61.6402 116.354 62.6076 116.354 63.3332 115.87H63.0914C62.6076 116.112 62.1239 116.112 61.1565 116.112C58.2542 116.112 57.0449 113.935 57.0449 112.241C57.0449 109.822 58.7379 108.129 61.1565 108.129C61.6402 108.129 62.3658 108.129 63.0914 108.613C62.6076 108.371 61.8821 108.129 61.1565 108.129Z" fill="black"></path><path d="M71.3144 111.758C71.5563 111.758 71.5563 112 71.5563 112C71.5563 112.241 71.5563 112.241 71.3144 112.241H67.6865V115.144C67.6865 115.386 67.9284 115.628 68.1702 115.628H71.7982C72.04 115.628 72.04 115.87 72.04 115.87C72.04 116.112 72.04 116.112 71.7982 116.112H67.9284C66.961 116.112 66.9609 115.386 66.9609 115.144V108.855C66.9609 108.613 66.961 107.887 67.9284 107.887H71.5563C71.7982 107.887 71.7982 108.129 71.7982 108.129C71.7982 108.371 71.7982 108.371 71.5563 108.371H67.9284C67.6865 108.371 67.4447 108.371 67.4447 108.855V111.516H71.3144V111.758Z" fill="black"></path><path d="M71.7977 116.596H67.928C67.2025 116.596 66.7188 116.112 66.7188 115.144V108.855C66.7188 107.887 67.2025 107.403 67.928 107.403H71.5559C72.0396 107.403 72.2815 107.645 72.2815 108.129C72.2815 108.371 72.0396 108.855 71.5559 108.855H67.928V111.274H71.314C71.7978 111.274 71.7977 111.516 71.7977 112C71.7977 112.483 71.5559 112.725 71.314 112.725H67.928V115.386H71.5559C72.0396 115.386 72.2815 115.628 72.2815 116.112C72.2815 116.354 72.0396 116.596 71.7977 116.596ZM67.928 108.371C67.4443 108.371 67.2025 108.613 67.2025 109.097V115.386C67.2025 115.87 67.2025 116.112 67.928 116.112H71.7977H68.1699C67.928 116.112 67.4443 116.112 67.4443 115.386V112.241H71.314H67.4443V109.339C67.4443 108.613 67.6862 108.371 67.928 108.371H71.5559H67.928Z" fill="black"></path><path d="M46.645 14.7559H19.0732V29.2698H46.645V14.7559Z" fill="black"></path><path d="M85.342 3.14478H80.5049V223.031H85.342V3.14478Z" fill="black"></path><path d="M143.872 93.3732H83.8911V98.2112H143.872V93.3732Z" fill="black"></path><path d="M143.872 112.967H83.8911V117.805H143.872V112.967Z" fill="black"></path><path d="M206.271 177.796H141.453V112.967H206.271V177.796ZM146.29 172.958H201.434V117.805H146.29V172.958Z" fill="black"></path><path d="M145.807 137.157H80.9888V72.328H145.807V137.157ZM85.8259 132.319H140.969V77.166H85.8259V132.319Z" fill="black"></path><path d="M203.852 132.319H143.872V137.157H203.852V132.319Z" fill="black"></path><path d="M203.852 151.913H143.872V156.751H203.852V151.913Z" fill="black"></path></svg> 