<?xml version="1.0" encoding="UTF-8"?> <svg xmlns="http://www.w3.org/2000/svg" width="237" height="223" viewBox="0 0 237 223" fill="none"><path d="M144.778 2.43066H2.80811V220.382H144.778V2.43066Z" fill="#C3B68F"></path><path d="M61.8213 85.1603C61.8213 85.4022 61.5795 85.4021 61.5795 85.4021C61.3376 85.4021 61.3376 85.4022 61.3376 85.1603V77.6614H58.6772C58.4353 77.6614 58.4353 77.4196 58.4353 77.4196C58.4353 77.1777 58.4353 77.1777 58.6772 77.1777H64.7236C64.9655 77.1777 64.9655 77.4196 64.9655 77.4196C64.9655 77.6615 64.9655 77.6614 64.7236 77.6614H62.0632V85.1603H61.8213Z" fill="black"></path><path d="M61.5794 85.886C61.0957 85.886 60.8539 85.6441 60.8539 85.1603V77.9034H58.4353C58.1934 77.9034 57.7097 77.6615 57.7097 77.1777C57.7097 76.6939 57.9516 76.4519 58.4353 76.4519H64.4817C64.9654 76.4519 65.2073 76.6939 65.2073 77.1777C65.2073 77.4196 64.9654 77.9034 64.4817 77.9034H62.0631V85.1603C62.0631 85.6441 61.8213 85.886 61.5794 85.886ZM58.4353 77.4196H61.3376V85.1603V77.4196H64.2398H58.4353Z" fill="black"></path><path d="M71.9794 76.9357C74.398 76.9357 76.3328 78.6289 76.3328 81.2898C76.3328 83.7088 74.398 85.6442 71.9794 85.6442C69.5608 85.6442 67.626 83.9507 67.626 81.2898C67.626 78.6289 69.5608 76.9357 71.9794 76.9357ZM71.9794 84.9183C73.9143 84.9183 75.6073 83.225 75.6073 81.2898C75.6073 79.3546 74.1561 77.6613 71.9794 77.6613C70.0446 77.6613 68.3516 79.3546 68.3516 81.2898C68.3516 83.225 69.8027 84.9183 71.9794 84.9183Z" fill="black"></path><path d="M71.9793 85.886C69.3189 85.886 67.384 83.9507 67.384 81.2898C67.384 78.629 69.3189 76.6938 71.9793 76.6938C74.6398 76.6938 76.5746 78.629 76.5746 81.2898C76.5746 83.9507 74.6398 85.886 71.9793 85.886ZM71.9793 77.1777C69.5608 77.1777 67.8677 78.8709 67.8677 81.2898C67.8677 83.4669 69.5608 85.4022 71.9793 85.4022C74.3979 85.4022 76.0909 83.7088 76.0909 81.2898C75.849 78.8709 74.1561 77.1777 71.9793 77.1777ZM71.9793 85.1603C69.8026 85.1603 68.1096 83.4669 68.1096 81.2898C68.1096 79.1128 69.8026 77.1777 71.9793 77.1777C74.1561 77.1777 75.8491 78.8709 75.8491 81.2898C75.8491 83.4669 74.1561 85.1603 71.9793 85.1603ZM71.9793 77.9033C70.0445 77.9033 68.5933 79.3546 68.5933 81.2898C68.5933 83.225 70.0445 84.6765 71.9793 84.6765C73.9142 84.6765 75.3653 83.225 75.3653 81.2898C75.3653 79.3546 73.6723 77.9033 71.9793 77.9033Z" fill="black"></path><path d="M80.4447 85.1603C80.4447 85.4022 80.2028 85.4021 80.2028 85.4021C79.9609 85.4021 79.9609 85.4022 79.9609 85.1603V78.1452C79.9609 77.9033 79.9609 77.1777 80.9284 77.1777H82.1377C82.8632 77.1777 83.3469 77.1777 83.8307 77.4196C84.7981 77.9034 85.0399 79.1129 85.0399 79.5967C85.0399 80.3224 84.7981 81.2899 83.8307 81.7737C83.3469 82.0156 82.8632 82.0156 82.1377 82.0156H80.6865V85.1603H80.4447ZM81.654 81.2898C82.3795 81.2898 83.8307 81.29 83.8307 79.5967C83.8307 77.9034 82.3795 77.9034 81.654 77.9034H80.9284C80.6865 77.9034 80.4447 77.9034 80.4447 78.3872V81.5318H81.654V81.2898Z" fill="black"></path><path d="M79.9609 85.886C79.4772 85.886 79.2354 85.6441 79.2354 85.1603V78.1452C79.2354 77.1776 79.7191 76.6938 80.4446 76.6938H81.6539C82.3795 76.6938 82.8632 76.6938 83.5888 76.9357C84.798 77.6614 84.798 78.8709 84.798 79.3547C84.798 80.5642 84.3143 81.2899 83.5888 81.7737C83.1051 82.0156 82.3795 82.0157 81.6539 82.0157H80.6865V85.1603C80.6865 85.6441 80.4446 85.886 79.9609 85.886ZM80.6865 77.4195C80.2028 77.4195 79.9609 77.6614 79.9609 78.1452V85.1603V81.5318H81.6539C82.1376 81.5318 82.6213 81.5317 83.1051 81.2898C83.8306 81.0479 84.0725 80.3223 84.0725 79.3547C84.0725 78.8709 83.8306 77.9033 83.1051 77.6614C82.6213 77.4195 82.1376 77.4195 81.6539 77.4195H80.6865V77.4195ZM81.6539 81.5318H80.2028V78.1452C80.2028 77.6614 80.4446 77.4195 80.9283 77.4195H81.6539C82.3795 77.4195 84.3143 77.4196 84.3143 79.5967C84.3143 81.5319 82.3795 81.5318 81.6539 81.5318ZM80.6865 80.8062H81.6539C82.6213 80.8062 83.5888 80.8061 83.5888 79.3547C83.5888 77.9033 82.6213 77.9033 81.6539 77.9033H80.9283V80.8062H80.6865Z" fill="black"></path><path d="M51.9054 111.044L50.938 113.463C50.938 113.705 50.938 113.704 50.6961 113.704C50.4543 113.704 50.2124 113.705 50.2124 113.463V113.221L53.3565 105.48C53.3565 105.238 53.5984 104.996 53.8403 104.996C54.324 104.996 54.324 105.238 54.324 105.48L57.2263 113.221V113.463C57.2263 113.705 56.9844 113.704 56.7426 113.704C56.5007 113.704 56.5007 113.463 56.5007 113.463L55.5333 111.044H51.9054ZM55.7751 110.318L54.0821 105.964L52.3891 110.318H55.7751Z" fill="black"></path><path d="M57.2263 113.946C56.7426 113.946 56.7426 113.705 56.5007 113.463L55.5333 111.286H51.9054L50.938 113.463C50.938 113.705 50.6961 113.946 50.2124 113.946C49.9705 113.946 49.4868 113.705 49.4868 113.221V112.979L52.631 105.238C52.8728 104.754 53.1147 104.754 53.3565 104.754C53.8403 104.754 54.0821 104.996 54.0821 105.238L56.9844 112.979C56.9844 113.221 56.9844 113.221 56.9844 113.463C57.9518 113.705 57.4681 113.946 57.2263 113.946ZM51.6635 110.802H56.017L56.9844 113.463L53.8403 105.722C53.8403 105.722 53.8403 105.48 53.5984 105.48L55.5333 110.802H51.6635L53.5984 105.48C53.5984 105.48 53.5984 105.48 53.3565 105.722L50.2124 113.463V113.705L51.6635 110.802ZM52.631 110.076H55.2914L54.0821 106.689L52.631 110.076Z" fill="black"></path><path d="M61.8214 113.704C60.854 113.704 60.854 112.979 60.854 112.737V106.448C60.854 106.206 60.854 105.48 61.8214 105.48H63.2726C63.9981 105.48 65.933 105.48 65.933 107.415C65.933 108.625 65.2075 109.108 64.7237 109.35C65.2075 109.592 66.1749 109.834 66.1749 111.527C66.1749 113.704 63.9981 113.704 63.2726 113.704H61.8214V113.704ZM63.2726 108.866C63.7563 108.866 65.2074 108.867 65.2074 107.415C65.2074 105.964 63.9982 105.964 63.0307 105.964H61.8214C61.5796 105.964 61.3377 105.964 61.3377 106.448V109.108H63.2726V108.866ZM61.5796 112.495C61.5796 112.737 61.8214 112.979 62.0633 112.979H63.5144C64.24 112.979 65.933 112.979 65.933 111.285C65.933 109.592 64.24 109.592 63.7563 109.592H61.8214V112.495H61.5796Z" fill="black"></path><path d="M63.2726 113.946H61.5796C60.8541 113.946 60.3704 113.463 60.3704 112.495V106.448C60.3704 105.48 60.8541 104.996 61.5796 104.996H63.0308C63.7564 104.996 66.1749 104.996 66.1749 107.415C66.1749 108.383 65.6912 108.867 65.2075 109.35C65.6912 109.592 66.4168 110.318 66.4168 111.527C66.6587 112.979 65.4494 113.946 63.2726 113.946ZM61.8215 105.722C61.3378 105.722 61.0959 105.964 61.0959 106.448V112.737C61.0959 113.221 61.0959 113.463 61.8215 113.463H63.5145C64.7238 113.463 66.1749 113.221 66.1749 111.527C66.1749 110.802 65.9331 110.318 65.6912 110.076C65.9331 110.318 66.1749 110.802 66.1749 111.527C66.1749 113.463 64.2401 113.463 63.5145 113.463H62.0634C61.8215 113.463 61.3378 113.463 61.3378 112.737V106.448C61.0959 105.964 61.3378 105.722 61.8215 105.722H63.2726C64.2401 105.722 65.6912 105.722 65.6912 107.415C65.6912 107.657 65.6912 108.141 65.4494 108.383C65.6912 108.141 65.6912 107.899 65.6912 107.173C65.6912 105.722 64.4819 105.48 63.2726 105.48H61.8215V105.722ZM61.8215 112.737H63.2726C64.2401 112.737 65.4494 112.737 65.4494 111.527C65.4494 110.318 64.4819 110.076 63.5145 110.076H61.8215V112.737C61.8215 112.737 61.8215 112.495 61.8215 112.737ZM63.5145 109.35C63.7564 109.35 63.7564 109.35 63.9982 109.35L64.2401 109.108C63.9982 109.108 63.7564 109.35 63.5145 109.35ZM61.8215 108.625H63.2726C63.9982 108.625 64.9657 108.383 64.9657 107.415C64.9657 106.448 64.2401 106.206 63.0308 106.206H61.8215V108.625V108.625Z" fill="black"></path><path d="M73.6723 105.238C76.0909 105.238 78.0257 106.931 78.0257 109.592C78.0257 112.011 76.0909 113.946 73.6723 113.946C71.2537 113.946 69.3188 112.253 69.3188 109.592C69.3188 106.931 71.2537 105.238 73.6723 105.238ZM73.6723 113.221C75.6072 113.221 77.3002 111.527 77.3002 109.592C77.3002 107.657 75.849 105.964 73.6723 105.964C71.7374 105.964 70.0444 107.657 70.0444 109.592C70.0444 111.527 71.7374 113.221 73.6723 113.221Z" fill="black"></path><path d="M73.6722 113.946C71.0118 113.946 69.0769 112.011 69.0769 109.35C69.0769 106.689 71.0118 104.754 73.6722 104.754C76.3326 104.754 78.2675 106.689 78.2675 109.35C78.2675 112.011 76.3326 113.946 73.6722 113.946ZM73.6722 105.48C71.2536 105.48 69.5606 107.173 69.5606 109.592C69.5606 111.769 71.2536 113.705 73.6722 113.705C76.0908 113.705 77.7838 112.011 77.7838 109.592C77.7838 107.173 76.0908 105.48 73.6722 105.48ZM73.6722 113.463C71.4955 113.463 69.8025 111.769 69.8025 109.592C69.8025 107.415 71.4955 105.48 73.6722 105.48C75.8489 105.48 77.5419 107.173 77.5419 109.592C77.5419 111.769 75.8489 113.463 73.6722 113.463ZM73.6722 105.964C71.7373 105.964 70.2862 107.415 70.2862 109.35C70.2862 111.286 71.7373 112.737 73.6722 112.737C75.6071 112.737 77.0582 111.286 77.0582 109.35C77.0582 107.657 75.6071 105.964 73.6722 105.964Z" fill="black"></path><path d="M81.4119 105.48C81.4119 105.238 81.6538 105.238 81.6538 105.238C81.8957 105.238 81.8957 105.238 81.8957 105.48V110.076C81.8957 111.286 81.8957 113.221 84.5561 113.221C87.2165 113.221 87.2165 111.286 87.2165 110.076V105.48C87.2165 105.238 87.4584 105.238 87.4584 105.238C87.7002 105.238 87.7003 105.238 87.7003 105.48V110.076C87.7003 111.286 87.7003 113.946 84.3142 113.946C80.9282 113.946 80.9282 111.527 80.9282 110.076V105.48H81.4119Z" fill="black"></path><path d="M84.798 113.946C81.1702 113.946 81.1702 111.044 81.1702 109.834V105.238C81.1702 104.754 81.412 104.512 81.8957 104.512C82.3795 104.512 82.6213 104.754 82.6213 105.238V109.834C82.6213 111.286 82.8632 112.737 85.0399 112.737C87.2166 112.737 87.4584 111.286 87.4584 109.834V105.238C87.4584 104.754 87.7003 104.512 88.184 104.512C88.6677 104.512 88.9096 104.754 88.9096 105.238V109.834C88.6677 111.044 88.6677 113.946 84.798 113.946ZM81.6539 105.48V110.076C81.6539 111.769 82.1376 113.463 84.798 113.463C87.4585 113.463 87.9422 111.769 87.9422 110.076V105.48V110.076C87.9422 111.286 87.9422 113.463 84.798 113.463C81.6539 113.463 81.6539 111.044 81.6539 110.076V105.48Z" fill="black"></path><path d="M95.1977 113.463C95.1977 113.705 94.9558 113.704 94.9558 113.704C94.714 113.704 94.714 113.705 94.714 113.463V105.964H91.8117C91.5698 105.964 91.5698 105.722 91.5698 105.722C91.5698 105.48 91.5698 105.48 91.8117 105.48H97.8581C98.1 105.48 98.1 105.722 98.1 105.722C98.1 105.964 98.1 105.964 97.8581 105.964H95.1977V113.463Z" fill="black"></path><path d="M94.714 113.946C94.2302 113.946 93.9884 113.705 93.9884 113.221V105.964H91.5698C91.328 105.964 90.8442 105.722 90.8442 105.238C90.8442 104.754 91.0861 104.512 91.5698 104.512H97.6163C98.1 104.512 98.3418 104.754 98.3418 105.238C98.3418 105.48 98.1 105.964 97.6163 105.964H95.1977V113.221C95.4395 113.946 95.1977 113.946 94.714 113.946ZM91.8117 105.722H94.714V113.463V105.722H97.6163H91.8117Z" fill="black"></path><path d="M47.31 141.039C47.7938 141.281 48.2775 141.281 48.7612 141.281C49.7286 141.281 50.9379 140.797 50.9379 139.588C50.9379 138.378 49.9705 138.136 49.2449 137.894C48.2775 137.653 47.0682 137.169 47.0682 135.717C47.0682 134.508 48.0356 133.54 49.4868 133.54C49.9705 133.54 50.4542 133.782 50.9379 133.782C50.9379 133.782 51.1798 133.782 51.1798 134.024C51.1798 134.266 50.9379 134.266 50.9379 134.266H50.696C50.4542 134.266 49.9705 134.024 49.4868 134.024C48.2775 134.024 47.7938 134.75 47.7938 135.717C47.7938 136.685 48.7612 137.169 49.4868 137.411C50.4542 137.894 51.6635 138.136 51.6635 139.83C51.6635 141.281 50.4542 142.249 48.7612 142.249C47.7938 142.249 47.0682 142.007 46.8263 141.765C46.5845 141.765 46.5845 141.523 46.5845 141.523C46.5845 141.281 46.8263 141.281 46.8263 141.281C47.0682 140.797 47.0682 141.039 47.31 141.039Z" fill="black"></path><path d="M48.7611 142.249C47.7937 142.249 47.0681 142.007 46.8262 141.765C46.5844 141.765 46.3425 141.523 46.3425 141.039C46.3425 140.797 46.5844 140.313 47.0681 140.313C47.0681 140.313 47.31 140.313 47.5518 140.555C48.0355 140.797 48.5192 140.797 49.003 140.797C49.4867 140.797 50.9378 140.797 50.9378 139.346C50.9378 138.378 50.2123 138.136 49.2448 137.894C48.2774 137.652 46.8262 136.927 46.8262 135.475C46.8262 134.266 47.7937 132.815 49.4867 132.815C49.9704 132.815 50.696 133.056 51.1797 133.298C51.4215 133.54 51.6634 133.54 51.6634 133.782C51.6634 134.024 51.4215 134.508 50.9378 134.508C50.696 134.508 50.696 134.508 50.4541 134.266C50.2123 134.266 49.9704 134.024 49.4867 134.024C48.5192 134.024 48.0355 134.75 48.0355 135.234C48.0355 135.959 48.5192 136.201 49.7285 136.685C50.696 137.169 52.1471 137.652 52.1471 139.346C51.9053 141.281 50.696 142.249 48.7611 142.249ZM46.8262 141.281C46.8262 141.281 47.0681 141.281 46.8262 141.281C47.31 141.523 47.7937 141.765 48.7611 141.765C49.9704 141.765 51.1797 141.281 51.1797 139.83C51.1797 138.378 50.2123 138.136 49.2448 137.653C48.2774 137.411 47.31 136.927 47.31 135.717C47.31 134.75 48.0355 133.782 49.2448 133.782C49.7285 133.782 50.2123 134.024 50.4541 134.024H50.696C50.2123 133.782 49.7285 133.782 49.2448 133.782C48.0355 133.782 47.0681 134.508 47.0681 135.717C47.0681 136.927 48.0355 137.411 49.003 137.653C49.9704 137.894 50.9378 138.378 50.9378 139.83C50.9378 141.281 49.7285 141.765 48.5192 141.765C48.0355 141.765 47.31 141.523 46.8262 141.281V141.281C47.0681 141.281 47.0681 141.281 46.8262 141.281Z" fill="black"></path><path d="M59.403 137.169C59.6449 137.169 59.6449 137.411 59.6449 137.411C59.6449 137.652 59.6449 137.653 59.403 137.653H55.7751V140.555C55.7751 140.797 56.017 141.039 56.2589 141.039H59.8867C60.1286 141.039 60.1286 141.281 60.1286 141.281C60.1286 141.523 60.1286 141.523 59.8867 141.523H56.017C55.0496 141.523 55.0496 140.797 55.0496 140.555V134.266C55.0496 134.024 55.0496 133.298 56.017 133.298H59.6449C59.8867 133.298 59.8867 133.54 59.8867 133.54C59.8867 133.782 59.8867 133.782 59.6449 133.782H56.017C55.7751 133.782 55.5333 133.782 55.5333 134.266V136.927H59.403V137.169Z" fill="black"></path><path d="M59.8866 142.249H56.0169C55.2913 142.249 54.8076 141.765 54.8076 140.797V134.508C54.8076 133.54 55.2913 133.057 56.0169 133.057H59.6448C60.1285 133.057 60.3703 133.298 60.3703 133.782C60.3703 134.024 60.1285 134.508 59.6448 134.508H56.0169V136.927H59.4029C59.8866 136.927 59.8866 137.169 59.8866 137.653C59.8866 138.136 59.6448 138.378 59.4029 138.378H56.0169V141.039H59.6448C60.1285 141.039 60.3703 141.281 60.3703 141.765C60.6122 141.765 60.3703 142.249 59.8866 142.249ZM56.0169 133.782C55.5332 133.782 55.2913 134.024 55.2913 134.508V140.797C55.2913 141.281 55.2913 141.523 56.0169 141.523H59.8866H56.2588C56.0169 141.523 55.5332 141.523 55.5332 140.797V137.653H59.4029H55.5332V134.75C55.5332 134.024 56.0169 133.782 56.0169 133.782H59.6448H56.0169Z" fill="black"></path><path d="M68.5933 141.281C68.5933 141.523 68.8352 141.523 68.8352 141.523C68.8352 141.765 68.5933 141.765 68.5933 141.765C68.3515 141.765 68.3515 141.765 68.3515 141.523L65.4492 137.894H64.4818V141.523C64.4818 141.765 64.2399 141.765 64.2399 141.765C63.998 141.765 63.998 141.765 63.998 141.523V134.508C63.998 134.266 63.9981 133.54 64.9655 133.54H66.4166C68.1096 133.54 68.8352 134.508 68.8352 135.717C68.8352 136.685 68.3515 137.894 66.4166 137.894L68.5933 141.281ZM65.691 137.411C66.1748 137.411 67.8678 137.411 67.8678 135.717C67.8678 134.024 66.4166 134.024 65.691 134.024H64.7236C64.4818 134.024 64.2399 134.024 64.2399 134.508V137.411H65.691Z" fill="black"></path><path d="M68.3515 142.249C68.1096 142.249 67.8677 142.007 67.8677 142.007L65.2073 138.378H64.7236V141.765C64.7236 142.249 64.4818 142.491 63.998 142.491C63.5143 142.491 63.2725 142.249 63.2725 141.765V134.75C63.2725 133.782 63.7562 133.298 64.4817 133.298H65.9329C67.8678 133.298 68.5933 134.508 68.5933 135.959C68.5933 137.169 68.1096 138.136 66.4166 138.378L68.5933 141.281L68.3515 141.523L68.5933 141.281C68.5933 141.523 68.8352 141.523 68.8352 141.765C69.077 142.007 68.5933 142.249 68.3515 142.249ZM63.998 137.653H65.4492L68.3515 141.523C68.3515 141.523 68.3515 141.523 68.3515 141.281L68.5933 141.039L68.3515 141.281L65.4492 137.411H65.9329C67.8678 137.411 68.1096 135.959 68.1096 135.475C68.1096 134.266 67.384 133.54 65.9329 133.54H64.4817C63.998 133.54 63.7562 133.782 63.7562 134.266V141.281V137.653H63.998ZM65.691 137.653H63.998V134.508C63.998 133.782 64.4818 133.782 64.7236 133.782H65.691C66.1747 133.782 68.1096 133.782 68.1096 135.717C68.1096 137.169 67.384 137.653 65.691 137.653ZM64.4817 137.169H65.691C66.6585 137.169 67.6259 136.927 67.6259 135.717C67.6259 134.508 66.6585 134.508 65.691 134.508H64.7236V137.169H64.4817Z" fill="black"></path><path d="M78.0258 133.54C78.0258 133.54 78.0258 133.298 78.2676 133.298C78.5095 133.298 78.7513 133.54 78.7513 133.54V133.782L75.6072 141.523C75.6072 141.765 75.3653 142.007 75.1235 142.007C74.8816 142.007 74.6398 141.765 74.6398 141.523L71.4956 133.782V133.54C71.4956 133.298 71.7375 133.298 71.9793 133.298C72.2212 133.298 72.2212 133.298 72.2212 133.54L75.3653 141.281L78.0258 133.54Z" fill="black"></path><path d="M74.8817 142.249C74.398 142.249 74.1561 141.765 74.1561 141.765L71.012 134.024C71.012 134.024 71.012 133.782 71.012 133.54C71.012 133.056 71.2538 132.815 71.7375 132.815C72.2212 132.815 72.2213 133.056 72.2213 133.298L74.8817 140.313L77.5421 133.298H77.784L77.5421 133.056C77.5421 133.056 77.784 132.573 78.0258 132.573C78.2677 132.573 78.7514 132.814 78.7514 133.298C78.7514 133.54 78.7514 133.54 78.7514 133.782L75.6073 141.523C75.6073 141.765 75.6073 142.249 74.8817 142.249ZM78.0258 133.54H78.2677L75.1235 141.523C75.1235 141.523 75.1235 141.523 75.3654 141.281L78.5095 133.54C78.5095 133.54 78.5095 133.54 78.5095 133.298L78.0258 133.54ZM71.4957 133.782L74.6398 141.523C74.6398 141.523 74.6398 141.765 74.8817 141.765L71.4957 133.782Z" fill="black"></path><path d="M81.8958 133.782C81.8958 133.54 82.1376 133.298 82.1376 133.298C82.3795 133.298 82.3795 133.54 82.3795 133.782V141.765C82.3795 142.007 82.1376 142.249 82.1376 142.249C81.8957 142.249 81.8958 142.007 81.8958 141.765V133.782Z" fill="black"></path><path d="M82.3794 142.249C81.8957 142.249 81.6538 142.007 81.6538 141.523V133.54C81.6538 133.056 81.8957 132.815 82.3794 132.815C82.8631 132.815 83.1049 133.056 83.1049 133.54V141.523C83.1049 142.007 82.6212 142.249 82.3794 142.249ZM82.3794 133.782V141.765V133.782Z" fill="black"></path><path d="M86.249 137.653C86.249 135.234 87.942 133.298 90.6025 133.298C91.5699 133.298 92.2955 133.54 92.7792 133.782C93.0211 133.782 93.0211 134.024 93.0211 134.024C93.0211 134.266 92.7792 134.266 92.7792 134.266C92.7792 134.266 92.5373 134.266 92.5373 134.024C91.8118 133.54 91.0862 133.54 90.8443 133.54C88.6676 133.54 87.2165 135.234 87.2165 137.169C87.2165 138.862 88.4257 140.797 91.0862 140.797C91.8118 140.797 92.2955 140.555 92.7792 140.555C92.7792 140.555 93.021 140.313 93.2629 140.313C93.2629 140.313 93.5048 140.313 93.5048 140.555C93.5048 140.797 93.2629 140.797 93.2629 140.797C92.5373 141.281 91.5699 141.281 90.8443 141.281C87.942 142.007 86.249 140.072 86.249 137.653Z" fill="black"></path><path d="M90.8442 142.249C87.9419 142.249 86.0071 140.313 86.0071 137.653C86.0071 134.992 87.9419 133.057 90.6024 133.057C91.5698 133.057 92.2954 133.298 93.021 133.54C93.2628 133.782 93.5047 133.782 93.5047 134.024C93.5047 134.266 93.2628 134.75 92.7791 134.75C92.5372 134.75 92.5372 134.75 92.2954 134.508C91.8117 134.266 91.0861 134.024 90.6024 134.024C88.6675 134.024 87.2164 135.475 87.2164 137.411C87.2164 139.104 88.1838 140.797 90.6024 140.797C91.328 140.797 91.8117 140.555 92.2954 140.555C92.7791 140.313 92.7791 140.313 92.7791 140.313C93.021 140.313 93.2628 140.555 93.2628 141.039C93.2628 141.281 93.2628 141.523 92.7791 141.523C92.2954 142.249 91.328 142.249 90.8442 142.249ZM90.8442 133.782C88.4257 133.782 86.7327 135.475 86.7327 137.894C86.7327 139.83 87.9419 142.007 90.8442 142.007C91.328 142.007 92.2954 142.007 93.021 141.523H92.7791C92.2954 141.765 91.8117 142.007 90.8442 142.007C87.9419 142.007 86.7327 139.83 86.7327 138.136C86.7327 135.475 88.4257 133.782 90.8442 133.782C91.328 133.782 92.0535 133.782 92.7791 134.266C92.2954 133.782 91.5698 133.782 90.8442 133.782Z" fill="black"></path><path d="M101.002 137.169C101.244 137.169 101.244 137.411 101.244 137.411C101.244 137.652 101.244 137.653 101.002 137.653H97.3745V140.555C97.3745 140.797 97.6164 141.039 97.8582 141.039H101.486C101.728 141.039 101.728 141.281 101.728 141.281C101.728 141.523 101.728 141.523 101.486 141.523H97.6164C96.6489 141.523 96.6489 140.797 96.6489 140.555V134.266C96.6489 134.024 96.6489 133.298 97.6164 133.298H101.244C101.486 133.298 101.486 133.54 101.486 133.54C101.486 133.782 101.486 133.782 101.244 133.782H97.6164C97.3745 133.782 97.1326 133.782 97.1326 134.266V136.927H101.002V137.169Z" fill="black"></path><path d="M101.486 142.249H97.6163C96.8907 142.249 96.407 141.765 96.407 140.797V134.508C96.407 133.54 96.8907 133.057 97.6163 133.057H101.244C101.728 133.057 101.97 133.298 101.97 133.782C101.97 134.024 101.728 134.508 101.244 134.508H97.6163V136.927H101.002C101.486 136.927 101.486 137.169 101.486 137.653C101.486 138.136 101.244 138.378 101.002 138.378H97.6163V141.039H101.486C101.97 141.039 102.212 141.281 102.212 141.765C101.97 141.765 101.728 142.249 101.486 142.249ZM97.6163 133.782C97.1326 133.782 96.8907 134.024 96.8907 134.508V140.797C96.8907 141.281 96.8907 141.523 97.6163 141.523H101.486H97.8581C97.6163 141.523 97.1325 141.523 97.1325 140.797V137.653H101.002H97.1325V134.75C96.8907 134.024 97.3744 133.782 97.6163 133.782H101.244H97.6163Z" fill="black"></path><path d="M166.304 113.704C166.304 114.188 165.82 114.672 165.336 114.672H130.025C129.541 114.672 129.058 114.188 129.058 113.704C129.058 113.221 129.541 112.737 130.025 112.737H165.578C166.062 112.737 166.304 113.221 166.304 113.704Z" fill="black"></path><path d="M165.336 115.882H130.025C128.816 115.882 127.848 114.914 127.848 113.705C127.848 112.495 128.816 111.527 130.025 111.527H165.578C166.787 111.527 167.755 112.495 167.755 113.705C167.755 114.914 166.546 115.882 165.336 115.882Z" fill="black"></path><path d="M159.048 121.687L157.597 120.236L164.611 113.704L157.597 107.173L159.048 105.964L167.513 113.704L159.048 121.687Z" fill="black"></path><path d="M159.048 123.38L155.904 120.236L162.918 113.705L155.904 107.415L159.048 104.27L169.206 113.705L159.048 123.38Z" fill="black"></path><path d="M227.01 222.801H9.33854C4.25953 222.801 0.147949 218.689 0.147949 213.609V9.20387C0.147949 4.12398 4.25953 0.0117188 9.33854 0.0117188H227.01C232.089 0.0117188 236.201 4.12398 236.201 9.20387V213.609C236.201 218.689 232.089 222.801 227.01 222.801ZM9.09668 4.84971C6.6781 4.84971 4.74325 6.78487 4.74325 9.20387V213.609C4.74325 216.028 6.6781 217.963 9.09668 217.963H226.768C229.187 217.963 231.122 216.028 231.122 213.609V9.20387C231.122 6.78487 229.187 4.84971 226.768 4.84971H9.09668Z" fill="black"></path><path d="M24.8172 15.7352L14.4173 25.4111C14.1754 25.653 13.6917 25.653 13.4499 25.4111L13.208 25.1693C12.9661 24.9274 12.9661 24.4435 13.208 24.2016L23.6079 14.5257C23.8497 14.2838 24.3335 14.2838 24.5753 14.5257L24.8172 14.7675C25.059 15.2513 25.059 15.4933 24.8172 15.7352Z" fill="#040000"></path><path d="M23.6079 25.4111L13.208 15.7352C12.9661 15.4933 12.9661 15.0094 13.208 14.7675L13.4499 14.5257C13.6917 14.2838 14.1754 14.2838 14.4173 14.5257L24.8172 24.2016C25.059 24.4435 25.059 24.9274 24.8172 25.1693L24.5753 25.4111C24.3335 25.653 24.0916 25.653 23.6079 25.4111Z" fill="#040000"></path></svg> 