<?xml version="1.0" encoding="UTF-8"?> <svg xmlns="http://www.w3.org/2000/svg" width="237" height="223" viewBox="0 0 237 223" fill="none"><path d="M233.578 2.43066H2.3623V220.382H233.578V2.43066Z" fill="#C3B68F"></path><path d="M105.877 85.1603C105.877 85.4022 105.635 85.4021 105.635 85.4021C105.393 85.4021 105.393 85.4022 105.393 85.1603V77.6614H102.733C102.491 77.6614 102.491 77.4196 102.491 77.4196C102.491 77.1777 102.491 77.1777 102.733 77.1777H108.779C109.021 77.1777 109.021 77.4196 109.021 77.4196C109.021 77.6615 109.021 77.6614 108.779 77.6614H106.119V85.1603H105.877Z" fill="black"></path><path d="M105.393 85.886C104.909 85.886 104.668 85.6441 104.668 85.1603V77.9034H102.249C102.007 77.9034 101.523 77.6615 101.523 77.1777C101.523 76.6939 101.765 76.4519 102.249 76.4519H108.295C108.779 76.4519 109.021 76.6939 109.021 77.1777C109.021 77.4196 108.779 77.9034 108.295 77.9034H105.877V85.1603C106.119 85.6441 105.877 85.886 105.393 85.886ZM102.491 77.4196H105.393V85.1603V77.4196H108.295H102.491Z" fill="black"></path><path d="M116.035 76.9357C118.454 76.9357 120.388 78.6289 120.388 81.2898C120.388 83.7088 118.454 85.6442 116.035 85.6442C113.616 85.6442 111.682 83.9507 111.682 81.2898C111.682 78.6289 113.616 76.9357 116.035 76.9357ZM116.035 84.9183C117.97 84.9183 119.663 83.225 119.663 81.2898C119.663 79.3546 118.212 77.6613 116.035 77.6613C114.1 77.6613 112.407 79.3546 112.407 81.2898C112.407 83.225 113.858 84.9183 116.035 84.9183Z" fill="black"></path><path d="M116.035 85.886C113.374 85.886 111.439 83.9507 111.439 81.2898C111.439 78.629 113.374 76.6938 116.035 76.6938C118.695 76.6938 120.63 78.629 120.63 81.2898C120.63 83.9507 118.453 85.886 116.035 85.886ZM116.035 77.1777C113.616 77.1777 111.923 78.8709 111.923 81.2898C111.923 83.4669 113.616 85.4022 116.035 85.4022C118.453 85.4022 120.146 83.7088 120.146 81.2898C119.904 78.8709 118.211 77.1777 116.035 77.1777ZM116.035 85.1603C113.858 85.1603 112.165 83.4669 112.165 81.2898C112.165 79.1128 113.858 77.1777 116.035 77.1777C118.211 77.1777 119.904 78.8709 119.904 81.2898C119.904 83.4669 118.211 85.1603 116.035 85.1603ZM116.035 77.9033C114.1 77.9033 112.649 79.3546 112.649 81.2898C112.649 83.225 114.1 84.6765 116.035 84.6765C117.97 84.6765 119.421 83.225 119.421 81.2898C119.179 79.3546 117.728 77.9033 116.035 77.9033Z" fill="black"></path><path d="M124.5 85.1603C124.5 85.4022 124.258 85.4021 124.258 85.4021C124.016 85.4021 124.016 85.4022 124.016 85.1603V78.1452C124.016 77.9033 124.016 77.1777 124.984 77.1777H126.193C126.918 77.1777 127.402 77.1777 127.886 77.4196C128.853 77.9034 129.095 79.1129 129.095 79.5967C129.095 80.3224 128.853 81.2899 127.886 81.7737C127.402 82.0156 126.918 82.0156 126.193 82.0156H124.5V85.1603ZM125.709 81.2898C126.435 81.2898 127.886 81.29 127.886 79.5967C127.886 77.9034 126.435 77.9034 125.709 77.9034H124.984C124.742 77.9034 124.5 77.9034 124.5 78.3872V81.5318H125.709V81.2898Z" fill="black"></path><path d="M124.016 85.886C123.532 85.886 123.291 85.6441 123.291 85.1603V78.1452C123.291 77.1776 123.774 76.6938 124.5 76.6938H125.709C126.435 76.6938 126.918 76.6938 127.644 76.9357C128.853 77.6614 128.853 78.8709 128.853 79.3547C128.853 80.5642 128.369 81.2899 127.644 81.7737C127.16 82.0156 126.435 82.0157 125.709 82.0157H124.742V85.1603C124.742 85.6441 124.258 85.886 124.016 85.886ZM124.742 77.4195C124.258 77.4195 124.016 77.6614 124.016 78.1452V85.1603V81.5318H125.709C126.193 81.5318 126.677 81.5317 127.16 81.2898C127.886 81.0479 128.128 80.3223 128.128 79.3547C128.128 78.8709 127.886 77.9033 127.16 77.6614C126.677 77.4195 126.193 77.4195 125.709 77.4195H124.742V77.4195ZM125.709 81.5318H124.258V78.1452C124.258 77.6614 124.5 77.4195 124.984 77.4195H125.709C126.435 77.4195 128.37 77.4196 128.37 79.5967C128.128 81.5319 126.435 81.5318 125.709 81.5318ZM124.742 80.8062H125.709C126.677 80.8062 127.644 80.8061 127.644 79.3547C127.644 77.9033 126.677 77.9033 125.709 77.9033H124.984V80.8062H124.742Z" fill="black"></path><path d="M95.9606 111.044L94.9931 113.463C94.9931 113.705 94.9932 113.704 94.7513 113.704C94.5095 113.704 94.2676 113.705 94.2676 113.463V113.221L97.4117 105.48C97.4117 105.238 97.6536 104.996 97.8955 104.996C98.3792 104.996 98.3792 105.238 98.3792 105.48L101.281 113.221V113.463C101.281 113.705 101.04 113.704 100.798 113.704C100.556 113.704 100.556 113.463 100.556 113.463L99.5885 111.044H95.9606ZM99.5885 110.318L97.8955 105.964L96.2024 110.318H99.5885Z" fill="black"></path><path d="M101.281 113.946C100.798 113.946 100.798 113.705 100.556 113.463L99.5884 111.286H95.9606L94.9931 113.463C94.9931 113.705 94.7513 113.946 94.2675 113.946C94.0257 113.946 93.542 113.705 93.542 113.221V112.979L96.6861 105.238C96.928 104.754 97.1698 104.754 97.4117 104.754C97.8954 104.754 98.1373 104.996 98.1373 105.238L101.04 112.979C101.04 113.221 101.04 113.221 101.04 113.463C102.007 113.705 101.523 113.946 101.281 113.946ZM95.7187 110.802H100.072L101.04 113.463L97.8954 105.722C97.8954 105.722 97.8954 105.48 97.6535 105.48L99.5884 110.802H95.7187L97.6535 105.48C97.6535 105.48 97.6535 105.48 97.4117 105.722L94.2675 113.463V113.705L95.7187 110.802ZM96.6861 110.076H99.3466L98.1373 106.689L96.6861 110.076Z" fill="black"></path><path d="M105.635 113.704C104.668 113.704 104.667 112.979 104.667 112.737V106.448C104.667 106.206 104.668 105.48 105.635 105.48H107.086C107.812 105.48 109.746 105.48 109.746 107.415C109.746 108.625 109.021 109.108 108.537 109.35C109.021 109.592 109.988 109.834 109.988 111.527C109.988 113.704 107.812 113.704 107.086 113.704H105.635V113.704ZM107.328 108.866C107.812 108.866 109.263 108.867 109.263 107.415C109.263 105.964 108.053 105.964 107.086 105.964H105.877C105.635 105.964 105.393 105.964 105.393 106.448V109.108H107.328V108.866ZM105.393 112.495C105.393 112.737 105.635 112.979 105.877 112.979H107.328C108.053 112.979 109.746 112.979 109.746 111.285C109.746 109.592 108.053 109.592 107.57 109.592H105.635V112.495H105.393Z" fill="black"></path><path d="M107.328 113.946H105.635C104.909 113.946 104.426 113.463 104.426 112.495V106.448C104.426 105.48 104.909 104.996 105.635 104.996H107.086C107.812 104.996 110.23 104.996 110.23 107.415C110.23 108.383 109.747 108.867 109.263 109.35C109.747 109.592 110.472 110.318 110.472 111.527C110.714 112.979 109.505 113.946 107.328 113.946ZM105.635 105.722C105.151 105.722 104.909 105.964 104.909 106.448V112.737C104.909 113.221 104.909 113.463 105.635 113.463H107.328C108.537 113.463 109.988 113.221 109.988 111.527C109.988 110.802 109.747 110.318 109.505 110.076C109.747 110.318 109.988 110.802 109.988 111.527C109.988 113.463 108.054 113.463 107.328 113.463H105.877C105.635 113.463 105.151 113.463 105.151 112.737V106.448C105.151 105.964 105.393 105.722 105.635 105.722H107.086C108.054 105.722 109.505 105.722 109.505 107.415C109.505 107.657 109.505 108.141 109.263 108.383C109.505 108.141 109.505 107.899 109.505 107.173C109.505 105.722 108.295 105.48 107.086 105.48H105.635V105.722ZM105.877 112.737H107.328C108.295 112.737 109.505 112.737 109.505 111.527C109.505 110.318 108.537 110.076 107.57 110.076H105.877V112.737C105.877 112.737 105.877 112.495 105.877 112.737ZM107.57 109.35C107.812 109.35 107.812 109.35 108.054 109.35L108.295 109.108C108.054 109.108 107.812 109.35 107.57 109.35ZM105.877 108.625H107.328C108.054 108.625 109.021 108.383 109.021 107.415C109.021 106.448 108.295 106.206 107.086 106.206H105.877V108.625Z" fill="black"></path><path d="M117.728 105.238C120.147 105.238 122.081 106.931 122.081 109.592C122.081 112.011 120.147 113.946 117.728 113.946C115.309 113.946 113.375 112.253 113.375 109.592C113.375 106.931 115.309 105.238 117.728 105.238ZM117.728 113.221C119.663 113.221 121.356 111.527 121.356 109.592C121.356 107.657 119.905 105.964 117.728 105.964C115.793 105.964 114.1 107.657 114.1 109.592C114.1 111.527 115.551 113.221 117.728 113.221Z" fill="black"></path><path d="M117.728 113.946C115.067 113.946 113.132 112.011 113.132 109.35C113.132 106.689 115.067 104.754 117.728 104.754C120.388 104.754 122.323 106.689 122.323 109.35C122.323 112.011 120.388 113.946 117.728 113.946ZM117.728 105.48C115.309 105.48 113.616 107.173 113.616 109.592C113.616 111.769 115.309 113.705 117.728 113.705C120.146 113.705 121.839 112.011 121.839 109.592C121.597 107.173 119.904 105.48 117.728 105.48ZM117.728 113.463C115.551 113.463 113.858 111.769 113.858 109.592C113.858 107.415 115.551 105.48 117.728 105.48C119.904 105.48 121.597 107.173 121.597 109.592C121.597 111.769 119.904 113.463 117.728 113.463ZM117.728 105.964C115.793 105.964 114.342 107.415 114.342 109.35C114.342 111.286 115.793 112.737 117.728 112.737C119.663 112.737 121.114 111.286 121.114 109.35C120.872 107.657 119.421 105.964 117.728 105.964Z" fill="black"></path><path d="M125.467 105.48C125.467 105.238 125.709 105.238 125.709 105.238C125.951 105.238 125.951 105.238 125.951 105.48V110.076C125.951 111.286 125.951 113.221 128.611 113.221C131.272 113.221 131.272 111.286 131.272 110.076V105.48C131.272 105.238 131.514 105.238 131.514 105.238C131.755 105.238 131.755 105.238 131.755 105.48V110.076C131.755 111.286 131.755 113.946 128.369 113.946C124.983 113.946 124.983 111.527 124.983 110.076V105.48H125.467Z" fill="black"></path><path d="M128.853 113.946C125.225 113.946 125.225 111.044 125.225 109.834V105.238C125.225 104.754 125.467 104.512 125.951 104.512C126.434 104.512 126.676 104.754 126.676 105.238V109.834C126.676 111.286 126.918 112.737 129.095 112.737C131.272 112.737 131.513 111.286 131.513 109.834V105.238C131.513 104.754 131.755 104.512 132.239 104.512C132.723 104.512 132.965 104.754 132.965 105.238V109.834C132.723 111.044 132.723 113.946 128.853 113.946ZM125.709 105.48V110.076C125.709 111.769 126.193 113.463 128.853 113.463C131.513 113.463 131.997 111.769 131.997 110.076V105.48V110.076C131.997 111.286 131.997 113.463 128.853 113.463C125.709 113.463 125.709 111.044 125.709 110.076V105.48Z" fill="black"></path><path d="M139.011 113.463C139.011 113.705 138.769 113.704 138.769 113.704C138.527 113.704 138.527 113.705 138.527 113.463V105.964H135.867C135.625 105.964 135.625 105.722 135.625 105.722C135.625 105.48 135.625 105.48 135.867 105.48H141.913C142.155 105.48 142.155 105.722 142.155 105.722C142.155 105.964 142.155 105.964 141.913 105.964H139.011V113.463Z" fill="black"></path><path d="M138.769 113.946C138.285 113.946 138.044 113.705 138.044 113.221V105.964H135.625C135.383 105.964 134.899 105.722 134.899 105.238C134.899 104.754 135.141 104.512 135.625 104.512H141.671C142.155 104.512 142.397 104.754 142.397 105.238C142.397 105.48 142.155 105.964 141.671 105.964H139.253V113.221C139.495 113.946 139.011 113.946 138.769 113.946ZM135.867 105.722H138.769V113.463V105.722H141.671H135.867Z" fill="black"></path><path d="M91.3657 141.039C91.8494 141.281 92.3331 141.281 92.8168 141.281C93.7843 141.281 94.9936 140.797 94.9936 139.588C94.9936 138.378 94.0262 138.136 93.3006 137.894C92.3332 137.653 91.1239 137.169 91.1239 135.717C91.1239 134.508 92.0913 133.54 93.5425 133.54C94.0262 133.54 94.5098 133.782 94.9936 133.782C94.9936 133.782 95.2354 133.782 95.2354 134.024C95.2354 134.266 94.9936 134.266 94.9936 134.266H94.7518C94.5099 134.266 94.0262 134.024 93.5425 134.024C92.3332 134.024 91.8494 134.75 91.8494 135.717C91.8494 136.685 92.8169 137.169 93.5425 137.411C94.5099 137.894 95.7192 138.136 95.7192 139.83C95.7192 141.281 94.5099 142.249 92.8168 142.249C91.8494 142.249 91.1239 142.007 90.882 141.765C90.6402 141.765 90.6401 141.523 90.6401 141.523C90.6401 141.281 90.882 141.281 90.882 141.281C90.882 140.797 91.1238 141.039 91.3657 141.039Z" fill="black"></path><path d="M92.8165 142.249C91.8491 142.249 91.1236 142.007 90.8817 141.765C90.6398 141.765 90.3979 141.523 90.3979 141.039C90.3979 140.797 90.6399 140.313 91.1236 140.313C91.1236 140.313 91.3654 140.313 91.6072 140.555C92.091 140.797 92.5747 140.797 93.0584 140.797C93.5421 140.797 94.9932 140.797 94.9932 139.346C94.9932 138.378 94.2677 138.136 93.3003 137.894C92.3328 137.652 90.8817 136.927 90.8817 135.475C90.8817 134.266 91.8491 132.815 93.5421 132.815C94.0259 132.815 94.7514 133.056 95.2351 133.298C95.477 133.54 95.7188 133.54 95.7188 133.782C95.7188 134.024 95.4769 134.508 94.9932 134.508C94.7514 134.508 94.7514 134.508 94.5096 134.266C94.2677 134.266 94.0259 134.024 93.5421 134.024C92.5747 134.024 92.091 134.75 92.091 135.234C92.091 135.959 92.5747 136.201 93.7839 136.685C94.7514 137.169 96.2025 137.652 96.2025 139.346C95.9607 141.281 94.7514 142.249 92.8165 142.249ZM90.8817 141.281C91.3654 141.523 91.8491 141.765 92.8165 141.765C94.0258 141.765 95.2351 141.281 95.2351 139.83C95.2351 138.378 94.2677 138.136 93.3003 137.653C92.3328 137.411 91.3654 136.927 91.3654 135.717C91.3654 134.75 92.091 133.782 93.3003 133.782C93.784 133.782 94.2677 134.024 94.5096 134.024H94.7514C94.2677 133.782 93.784 133.782 93.3003 133.782C92.091 133.782 91.1236 134.508 91.1236 135.717C91.1236 136.927 92.091 137.411 93.0584 137.653C94.0258 137.894 94.9932 138.378 94.9932 139.83C94.9932 141.281 93.7839 141.765 92.5747 141.765C92.0909 141.765 91.3654 141.523 90.8817 141.281V141.281Z" fill="black"></path><path d="M103.458 137.169C103.7 137.169 103.7 137.411 103.7 137.411C103.7 137.652 103.7 137.653 103.458 137.653H99.8305V140.555C99.8305 140.797 100.072 141.039 100.314 141.039H103.942C104.184 141.039 104.184 141.281 104.184 141.281C104.184 141.523 104.184 141.523 103.942 141.523H100.072C99.105 141.523 99.105 140.797 99.105 140.555V134.266C99.105 134.024 99.105 133.298 100.072 133.298H103.7C103.942 133.298 103.942 133.54 103.942 133.54C103.942 133.782 103.942 133.782 103.7 133.782H100.314C100.072 133.782 99.8305 133.782 99.8305 134.266V136.927H103.458V137.169Z" fill="black"></path><path d="M103.942 142.249H100.072C99.3465 142.249 98.8628 141.765 98.8628 140.797V134.508C98.8628 133.54 99.3465 133.057 100.072 133.057H103.7C104.184 133.057 104.426 133.298 104.426 133.782C104.426 134.024 104.184 134.508 103.7 134.508H100.314V136.927H103.7C104.184 136.927 104.184 137.169 104.184 137.653C104.184 138.136 103.942 138.378 103.7 138.378H100.314V141.039H103.942C104.426 141.039 104.667 141.281 104.667 141.765C104.667 141.765 104.426 142.249 103.942 142.249ZM100.072 133.782C99.5884 133.782 99.3465 134.024 99.3465 134.508V140.797C99.3465 141.281 99.3465 141.523 100.072 141.523H103.942H100.314C100.072 141.523 99.5884 141.523 99.5884 140.797V137.653H103.458H99.5884V134.75C99.5884 134.024 100.072 133.782 100.072 133.782H103.7H100.072Z" fill="black"></path><path d="M112.649 141.281C112.649 141.523 112.891 141.523 112.891 141.523C112.891 141.765 112.649 141.765 112.649 141.765C112.407 141.765 112.407 141.765 112.407 141.523L109.505 137.894H108.537V141.523C108.537 141.765 108.296 141.765 108.296 141.765C108.054 141.765 108.054 141.765 108.054 141.523V134.508C108.054 134.266 108.054 133.54 109.021 133.54H110.472C112.165 133.54 112.891 134.508 112.891 135.717C112.891 136.685 112.407 137.894 110.472 137.894L112.649 141.281ZM109.747 137.411C110.23 137.411 111.923 137.411 111.923 135.717C111.923 134.024 110.472 134.024 109.747 134.024H108.779C108.537 134.024 108.296 134.024 108.296 134.508V137.411H109.747Z" fill="black"></path><path d="M112.407 142.249C112.165 142.249 111.923 142.007 111.923 142.007L109.263 138.378H108.779V141.765C108.779 142.249 108.537 142.491 108.054 142.491C107.57 142.491 107.328 142.249 107.328 141.765V134.75C107.328 133.782 107.812 133.298 108.537 133.298H109.989C111.924 133.298 112.649 134.508 112.649 135.959C112.649 137.169 112.165 138.136 110.472 138.378L112.649 141.281L112.407 141.523L112.649 141.281C112.649 141.523 112.891 141.523 112.891 141.765C113.133 142.007 112.649 142.249 112.407 142.249ZM108.054 137.653H109.505L112.407 141.523C112.407 141.523 112.407 141.523 112.407 141.281L112.649 141.039L112.407 141.281L109.505 137.411H109.989C111.924 137.411 112.165 135.959 112.165 135.475C112.165 134.266 111.44 133.54 109.989 133.54H108.537C108.054 133.54 107.812 133.782 107.812 134.266V141.281V137.653H108.054ZM109.747 137.653H108.054V134.508C108.054 133.782 108.537 133.782 108.779 133.782H109.747C110.23 133.782 112.165 133.782 112.165 135.717C112.165 137.169 111.198 137.653 109.747 137.653ZM108.537 137.169H109.747C110.714 137.169 111.682 136.927 111.682 135.717C111.682 134.508 110.714 134.508 109.747 134.508H108.779V137.169H108.537Z" fill="black"></path><path d="M121.84 133.54C121.84 133.54 121.84 133.298 122.082 133.298C122.323 133.298 122.565 133.54 122.565 133.54V133.782L119.421 141.523C119.421 141.765 119.179 142.007 118.937 142.007C118.696 142.007 118.454 141.765 118.454 141.523L115.31 133.782V133.54C115.31 133.298 115.551 133.298 115.793 133.298C116.035 133.298 116.035 133.298 116.035 133.54L119.179 141.281L121.84 133.54Z" fill="black"></path><path d="M118.937 142.249C118.453 142.249 118.212 141.765 118.212 141.765L115.067 134.024C115.067 134.024 115.067 133.782 115.067 133.54C115.067 133.056 115.309 132.815 115.793 132.815C116.277 132.815 116.277 133.056 116.277 133.298L118.937 140.313L121.598 133.298H121.839L121.598 133.056C121.598 133.056 121.839 132.573 122.081 132.573C122.323 132.573 122.807 132.814 122.807 133.298C122.807 133.54 122.807 133.54 122.807 133.782L119.663 141.523C119.663 141.765 119.421 142.249 118.937 142.249ZM121.839 133.54H122.081L118.937 141.523C118.937 141.523 118.937 141.523 119.179 141.281L122.323 133.54C122.323 133.54 122.323 133.54 122.323 133.298L121.839 133.54ZM115.551 133.782L118.695 141.523C118.695 141.523 118.695 141.765 118.937 141.765L115.551 133.782Z" fill="black"></path><path d="M125.952 133.782C125.952 133.54 126.194 133.298 126.194 133.298C126.435 133.298 126.435 133.54 126.435 133.782V141.765C126.435 142.007 126.194 142.249 126.194 142.249C125.952 142.249 125.952 142.007 125.952 141.765V133.782Z" fill="black"></path><path d="M126.435 142.249C125.951 142.249 125.709 142.007 125.709 141.523V133.54C125.709 133.056 125.951 132.815 126.435 132.815C126.919 132.815 127.161 133.056 127.161 133.54V141.523C126.919 142.007 126.677 142.249 126.435 142.249ZM126.435 133.782V141.765V133.782Z" fill="black"></path><path d="M130.305 137.653C130.305 135.234 131.998 133.298 134.658 133.298C135.626 133.298 136.351 133.54 136.835 133.782C137.077 133.782 137.077 134.024 137.077 134.024C137.077 134.266 136.835 134.266 136.835 134.266C136.835 134.266 136.593 134.266 136.593 134.024C135.867 133.54 135.142 133.54 134.9 133.54C132.723 133.54 131.272 135.234 131.272 137.169C131.272 138.862 132.481 140.797 135.142 140.797C135.867 140.797 136.351 140.555 136.835 140.555C136.835 140.555 137.077 140.313 137.319 140.313C137.319 140.313 137.56 140.313 137.56 140.555C137.56 140.797 137.319 140.797 137.319 140.797C136.593 141.281 135.626 141.281 134.9 141.281C131.998 142.007 130.305 140.072 130.305 137.653Z" fill="black"></path><path d="M134.9 142.249C131.997 142.249 130.062 140.313 130.062 137.653C130.062 134.992 131.997 133.057 134.658 133.057C135.625 133.057 136.351 133.298 137.077 133.54C137.318 133.782 137.56 133.782 137.56 134.024C137.56 134.266 137.318 134.75 136.835 134.75C136.593 134.75 136.593 134.75 136.351 134.508C135.867 134.266 135.142 134.024 134.658 134.024C132.723 134.024 131.272 135.475 131.272 137.411C131.272 139.104 132.239 140.797 134.658 140.797C135.383 140.797 135.867 140.555 136.351 140.555C136.835 140.313 136.835 140.313 136.835 140.313C137.076 140.313 137.318 140.555 137.318 141.039C137.318 141.281 137.318 141.523 136.835 141.523C136.351 142.249 135.383 142.249 134.9 142.249ZM134.658 133.782C132.239 133.782 130.546 135.475 130.546 137.894C130.546 139.83 131.756 142.007 134.658 142.007C135.142 142.007 136.109 142.007 136.835 141.523H136.593C136.109 141.765 135.625 142.007 134.658 142.007C131.756 142.007 130.546 139.83 130.546 138.136C130.788 135.475 132.481 133.782 134.658 133.782C135.142 133.782 135.867 133.782 136.593 134.266C136.109 133.782 135.625 133.782 134.658 133.782Z" fill="black"></path><path d="M144.816 137.169C145.058 137.169 145.058 137.411 145.058 137.411C145.058 137.652 145.058 137.653 144.816 137.653H141.188V140.555C141.188 140.797 141.43 141.039 141.672 141.039H145.3C145.541 141.039 145.542 141.281 145.542 141.281C145.542 141.523 145.541 141.523 145.3 141.523H141.43C140.462 141.523 140.462 140.797 140.462 140.555V134.266C140.462 134.024 140.462 133.298 141.43 133.298H145.058C145.3 133.298 145.3 133.54 145.3 133.54C145.3 133.782 145.3 133.782 145.058 133.782H141.43C141.188 133.782 140.946 133.782 140.946 134.266V136.927H144.816V137.169Z" fill="black"></path><path d="M145.3 142.249H141.43C140.704 142.249 140.221 141.765 140.221 140.797V134.508C140.221 133.54 140.704 133.057 141.43 133.057H145.058C145.542 133.057 145.783 133.298 145.783 133.782C145.783 134.024 145.542 134.508 145.058 134.508H141.43V136.927H144.816C145.3 136.927 145.3 137.169 145.3 137.653C145.3 138.136 145.058 138.378 144.816 138.378H141.43V141.039H145.058C145.542 141.039 145.783 141.281 145.783 141.765C146.025 141.765 145.783 142.249 145.3 142.249ZM141.43 133.782C140.946 133.782 140.704 134.024 140.704 134.508V140.797C140.704 141.281 140.704 141.523 141.43 141.523H145.3H141.672C141.43 141.523 140.946 141.523 140.946 140.797V137.653H144.816H140.946V134.75C140.946 134.024 141.43 133.782 141.43 133.782H145.058H141.43Z" fill="black"></path><path d="M227.048 222.801H9.3761C4.2971 222.801 0.185547 218.689 0.185547 213.609V9.20387C0.185547 4.12398 4.2971 0.0117188 9.3761 0.0117188H227.048C232.127 0.0117188 236.239 4.12398 236.239 9.20387V213.609C236.239 218.689 232.127 222.801 227.048 222.801ZM9.3761 4.84971C6.95753 4.84971 5.0227 6.78487 5.0227 9.20387V213.609C5.0227 216.028 6.95753 217.963 9.3761 217.963H227.048C229.466 217.963 231.401 216.028 231.401 213.609V9.20387C231.401 6.78487 229.466 4.84971 227.048 4.84971H9.3761Z" fill="black"></path><path d="M219.066 15.7352L208.667 25.4111C208.425 25.653 207.941 25.653 207.699 25.4111L207.457 25.1693C207.215 24.9274 207.215 24.4435 207.457 24.2016L217.857 14.5257C218.099 14.2838 218.583 14.2838 218.825 14.5257L219.066 14.7675C219.55 15.2513 219.55 15.4933 219.066 15.7352Z" fill="#040000"></path><path d="M218.099 25.4111L207.699 15.7352C207.457 15.4933 207.457 15.0094 207.699 14.7675L207.941 14.5257C208.183 14.2838 208.666 14.2838 208.908 14.5257L219.308 24.2016C219.55 24.4435 219.55 24.9274 219.308 25.1693L219.066 25.4111C218.824 25.653 218.341 25.653 218.099 25.4111Z" fill="#040000"></path></svg> 