<?xml version="1.0" encoding="UTF-8"?> <svg xmlns="http://www.w3.org/2000/svg" width="236" height="223" viewBox="0 0 236 223" fill="none"><path d="M231.16 113.4C231.16 109.54 228.264 105.438 224.886 103.99C224.886 103.99 170.354 81.3102 124.749 117.019C78.4209 153.452 83.0055 214.977 83.0055 214.977C83.2468 218.838 86.6249 221.733 90.2443 221.733H224.163C228.023 221.733 230.919 218.597 230.919 214.977V113.4H231.16Z" fill="#C3B68F"></path><path d="M164.562 131.254C164.562 131.496 164.321 131.496 164.321 131.496C164.08 131.496 164.08 131.496 164.08 131.254V123.775H161.425C161.184 123.775 161.184 123.534 161.184 123.534C161.184 123.292 161.184 123.292 161.425 123.292H167.458C167.699 123.292 167.699 123.534 167.699 123.534C167.699 123.775 167.699 123.775 167.458 123.775H164.804V131.254H164.562Z" fill="black"></path><path d="M164.08 131.978C163.597 131.978 163.356 131.737 163.356 131.254V124.016H160.943C160.461 124.016 160.219 123.775 160.219 123.292C160.219 122.81 160.461 122.569 160.943 122.569H166.975C167.458 122.569 167.699 122.81 167.699 123.292C167.699 123.534 167.458 124.016 166.975 124.016H164.563V131.254C164.804 131.737 164.563 131.978 164.08 131.978ZM161.184 123.534H164.08V131.254V123.534H166.975H161.184Z" fill="black"></path><path d="M174.698 123.052C177.111 123.052 179.041 124.741 179.041 127.395C179.041 129.808 177.111 131.738 174.698 131.738C172.285 131.738 170.354 130.049 170.354 127.395C170.354 124.741 172.285 123.052 174.698 123.052ZM174.698 131.014C176.628 131.014 178.317 129.325 178.317 127.395C178.317 125.465 176.869 123.776 174.698 123.776C172.767 123.776 171.078 125.465 171.078 127.395C171.078 129.325 172.526 131.014 174.698 131.014Z" fill="black"></path><path d="M174.697 131.978C172.043 131.978 170.112 130.048 170.112 127.394C170.112 124.74 172.043 122.81 174.697 122.81C177.351 122.81 179.281 124.74 179.281 127.394C179.281 130.048 177.11 131.978 174.697 131.978ZM174.697 123.292C172.284 123.292 170.595 124.981 170.595 127.394C170.595 129.566 172.284 131.496 174.697 131.496C177.11 131.496 178.799 129.807 178.799 127.394C178.558 124.981 176.869 123.292 174.697 123.292ZM174.697 131.254C172.525 131.254 170.836 129.566 170.836 127.394C170.836 125.223 172.525 123.534 174.697 123.534C176.869 123.534 178.558 125.223 178.558 127.394C178.558 129.566 176.869 131.254 174.697 131.254ZM174.697 124.016C172.767 124.016 171.319 125.464 171.319 127.394C171.319 129.324 172.767 130.772 174.697 130.772C176.627 130.772 178.075 129.324 178.075 127.394C177.834 125.464 176.386 124.016 174.697 124.016Z" fill="black"></path><path d="M183.142 131.254C183.142 131.496 182.901 131.496 182.901 131.496C182.66 131.496 182.66 131.496 182.66 131.254V124.257C182.66 124.016 182.66 123.292 183.625 123.292H184.831C185.555 123.292 186.038 123.292 186.52 123.534C187.486 124.016 187.727 125.223 187.727 125.705C187.727 126.429 187.486 127.394 186.52 127.877C186.038 128.118 185.555 128.118 184.831 128.118H183.384V131.254H183.142ZM184.349 127.394C185.073 127.394 186.52 127.394 186.52 125.705C186.52 124.016 185.073 124.016 184.349 124.016H183.625C183.384 124.016 183.142 124.016 183.142 124.499V127.635H184.349V127.394Z" fill="black"></path><path d="M182.66 131.978C182.177 131.978 181.936 131.737 181.936 131.254V124.257C181.936 123.292 182.419 122.81 183.143 122.81H184.349C185.073 122.81 185.555 122.81 186.279 123.292C187.486 124.016 187.486 125.223 187.486 125.705C187.486 126.911 187.003 127.635 186.279 128.118C185.797 128.359 185.073 128.359 184.349 128.359H183.384V131.496C183.384 131.737 182.901 131.978 182.66 131.978ZM183.384 123.534C182.901 123.534 182.66 123.775 182.66 124.257V131.254V127.635H184.349C184.832 127.635 185.314 127.635 185.797 127.394C186.521 127.153 186.762 126.429 186.762 125.464C186.762 124.981 186.521 124.016 185.797 123.775C185.314 123.534 184.832 123.534 184.349 123.534H183.384V123.534ZM184.349 127.635H182.901V124.257C182.901 123.775 183.142 123.534 183.625 123.534H184.349C185.073 123.534 187.003 123.534 187.003 125.705C186.762 127.635 185.073 127.635 184.349 127.635ZM183.384 126.911H184.349C185.314 126.911 186.279 126.911 186.279 125.464C186.279 124.016 185.314 124.016 184.349 124.016H183.625V126.911H183.384Z" fill="black"></path><path d="M154.669 157.071L153.704 159.484C153.704 159.725 153.704 159.725 153.463 159.725C153.221 159.725 152.98 159.725 152.98 159.484V159.243L156.117 151.522C156.117 151.28 156.358 151.039 156.599 151.039C157.082 151.039 157.082 151.28 157.082 151.522L159.978 159.243V159.484C159.978 159.725 159.736 159.725 159.495 159.725C159.254 159.725 159.254 159.484 159.254 159.484L158.288 157.071H154.669ZM158.288 156.347L156.599 152.004L154.91 156.347H158.288Z" fill="black"></path><path d="M159.978 159.966C159.495 159.966 159.495 159.725 159.254 159.484L158.289 157.071H154.669L153.704 159.243C153.704 159.484 153.463 159.725 152.98 159.725C152.739 159.725 152.256 159.484 152.256 159.001V158.76L155.393 151.039C155.635 150.557 155.876 150.315 156.117 150.315C156.6 150.315 156.841 150.557 156.841 151.039L159.737 158.76C159.737 159.001 159.737 159.001 159.737 159.243C160.702 159.725 160.219 159.966 159.978 159.966ZM154.428 156.83H158.771L159.737 159.484L156.6 151.763C156.6 151.763 156.6 151.522 156.358 151.522L158.289 156.83H154.428L156.358 151.522C156.358 151.522 156.358 151.522 156.117 151.763L152.98 159.484V159.725L154.428 156.83ZM155.393 156.106H158.048L156.841 152.728L155.393 156.106Z" fill="black"></path><path d="M164.321 159.725C163.355 159.725 163.355 159.001 163.355 158.76V152.487C163.355 152.246 163.355 151.522 164.321 151.522H165.768C166.492 151.522 168.423 151.522 168.423 153.452C168.423 154.658 167.699 155.141 167.216 155.382C167.699 155.623 168.664 155.865 168.664 157.554C168.664 159.725 166.492 159.725 165.768 159.725H164.321V159.725ZM166.01 154.9C166.492 154.9 167.94 154.9 167.94 153.452C167.94 152.004 166.734 152.004 165.768 152.004H164.562C164.321 152.004 164.079 152.004 164.079 152.487V155.141H166.01V154.9ZM164.079 158.519C164.079 158.76 164.321 159.001 164.562 159.001H166.01C166.734 159.001 168.423 159.001 168.423 157.312C168.423 155.623 166.734 155.623 166.251 155.623H164.321V158.519H164.079Z" fill="black"></path><path d="M166.01 159.966H164.321C163.597 159.966 163.114 159.484 163.114 158.519V152.487C163.114 151.522 163.597 151.039 164.321 151.039H165.768C166.492 151.039 168.905 151.039 168.905 153.452C168.905 154.417 168.423 154.9 167.94 155.382C168.423 155.623 169.146 156.347 169.146 157.554C169.388 159.001 168.181 159.966 166.01 159.966ZM164.321 151.763C163.838 151.763 163.597 152.004 163.597 152.487V158.76C163.597 159.243 163.597 159.484 164.321 159.484H166.01C167.216 159.484 168.664 159.243 168.664 157.554C168.664 156.83 168.423 156.347 168.181 156.106C168.423 156.347 168.664 156.83 168.664 157.554C168.664 159.484 166.734 159.484 166.01 159.484H164.562C164.321 159.484 163.838 159.484 163.838 158.76V152.487C163.838 152.004 164.079 151.763 164.321 151.763H165.768C166.734 151.763 168.181 151.763 168.181 153.452C168.181 153.693 168.181 154.176 167.94 154.417C168.181 154.176 168.181 153.934 168.181 153.211C168.181 151.763 166.975 151.522 165.768 151.522H164.321V151.763ZM164.562 158.76H166.01C166.975 158.76 168.181 158.76 168.181 157.554C168.181 156.347 167.216 156.106 166.251 156.106H164.562V158.76C164.562 158.76 164.562 158.519 164.562 158.76ZM166.01 155.382C166.251 155.382 166.492 155.382 166.492 155.382L166.734 155.141C166.734 155.382 166.492 155.382 166.01 155.382ZM164.562 154.658H166.01C166.734 154.658 167.699 154.417 167.699 153.452C167.699 152.487 166.975 152.245 165.768 152.245H164.562V154.658Z" fill="black"></path><path d="M176.386 151.28C178.799 151.28 180.729 152.969 180.729 155.623C180.729 158.036 178.799 159.966 176.386 159.966C173.973 159.966 172.042 158.277 172.042 155.623C172.042 152.969 173.973 151.28 176.386 151.28ZM176.386 159.243C178.316 159.243 180.005 157.554 180.005 155.623C180.005 153.693 178.557 152.004 176.386 152.004C174.455 152.004 172.766 153.693 172.766 155.623C172.766 157.554 174.214 159.243 176.386 159.243Z" fill="black"></path><path d="M176.386 159.966C173.732 159.966 171.801 158.036 171.801 155.382C171.801 152.728 173.732 150.798 176.386 150.798C179.04 150.798 180.97 152.728 180.97 155.382C180.97 158.036 179.04 159.966 176.386 159.966ZM176.386 151.522C173.973 151.522 172.284 153.211 172.284 155.623C172.284 157.795 173.973 159.725 176.386 159.725C178.799 159.725 180.488 158.036 180.488 155.623C180.247 153.211 178.557 151.522 176.386 151.522ZM176.386 159.484C174.214 159.484 172.525 157.795 172.525 155.623C172.525 153.452 174.214 151.763 176.386 151.763C178.557 151.763 180.247 153.452 180.247 155.623C180.247 157.795 178.557 159.484 176.386 159.484ZM176.386 152.004C174.455 152.004 173.008 153.452 173.008 155.382C173.008 157.312 174.455 158.76 176.386 158.76C178.316 158.76 179.764 157.312 179.764 155.382C179.523 153.693 178.075 152.004 176.386 152.004Z" fill="black"></path><path d="M184.107 151.522C184.107 151.28 184.348 151.28 184.348 151.28C184.59 151.28 184.59 151.28 184.59 151.522V156.106C184.59 157.312 184.59 159.243 187.244 159.243C189.898 159.243 189.898 157.312 189.898 156.106V151.522C189.898 151.28 190.139 151.28 190.139 151.28C190.381 151.28 190.381 151.28 190.381 151.522V156.106C190.381 157.312 190.381 159.966 187.003 159.966C183.625 159.966 183.625 157.554 183.625 156.106V151.522H184.107Z" fill="black"></path><path d="M187.486 159.966C183.867 159.966 183.867 157.071 183.867 155.865V151.28C183.867 150.798 184.108 150.557 184.591 150.557C185.073 150.557 185.314 150.798 185.314 151.28V155.865C185.314 157.312 185.556 158.76 187.727 158.76C189.899 158.76 190.14 157.312 190.14 155.865V151.28C190.14 150.798 190.382 150.557 190.864 150.557C191.347 150.557 191.588 150.798 191.588 151.28V155.865C191.347 157.071 191.347 159.966 187.486 159.966ZM184.349 151.522V156.106C184.349 157.795 184.832 159.484 187.486 159.484C190.14 159.484 190.623 157.795 190.623 156.106V151.522V156.106C190.623 157.312 190.623 159.484 187.486 159.484C184.349 159.484 184.349 157.071 184.349 156.106V151.522Z" fill="black"></path><path d="M197.619 159.484C197.619 159.725 197.378 159.725 197.378 159.725C197.137 159.725 197.137 159.725 197.137 159.484V152.004H194.482C194.241 152.004 194.241 151.763 194.241 151.763C194.241 151.522 194.241 151.522 194.482 151.522H200.515C200.756 151.522 200.756 151.763 200.756 151.763C200.756 152.004 200.756 152.004 200.515 152.004H197.861V159.484H197.619Z" fill="black"></path><path d="M197.378 159.966C196.896 159.966 196.654 159.725 196.654 159.243V152.004H194.242C193.759 152.004 193.518 151.763 193.518 151.28C193.518 150.798 193.759 150.557 194.242 150.557H200.274C200.756 150.557 200.998 150.798 200.998 151.28C200.998 151.522 200.756 152.004 200.274 152.004H197.861V159.243C198.102 159.966 197.62 159.966 197.378 159.966ZM194.483 151.763H197.378V159.484V151.763H200.274H194.483Z" fill="black"></path><path d="M150.085 186.989C150.567 187.231 151.05 187.231 151.532 187.231C152.498 187.231 153.704 186.748 153.704 185.542C153.704 184.335 152.739 184.094 152.015 183.853C151.05 183.611 149.843 183.129 149.843 181.681C149.843 180.475 150.809 179.51 152.256 179.51C152.739 179.51 153.221 179.751 153.704 179.751C153.704 179.751 153.945 179.751 153.945 179.992C153.945 180.234 153.704 180.234 153.704 180.234H153.463C153.221 180.234 152.739 179.992 152.256 179.992C151.05 179.992 150.567 180.716 150.567 181.681C150.567 182.646 151.532 183.129 152.256 183.37C153.221 183.611 154.428 184.094 154.428 185.783C154.428 187.231 153.221 188.196 151.532 188.196C150.567 188.196 149.843 187.954 149.602 187.713C149.361 187.713 149.361 187.472 149.361 187.472C149.361 187.231 149.602 187.231 149.602 187.231C149.602 186.748 149.843 186.989 150.085 186.989Z" fill="black"></path><path d="M151.533 188.196C150.567 188.196 149.844 187.954 149.602 187.713C149.361 187.713 149.12 187.472 149.12 186.989C149.12 186.748 149.361 186.265 149.843 186.265C149.843 186.265 150.085 186.266 150.326 186.507C150.809 186.748 151.291 186.748 151.774 186.748C152.256 186.748 153.704 186.748 153.704 185.3C153.704 184.335 153.222 184.094 152.015 183.853C151.05 183.611 149.602 183.129 149.602 181.44C149.602 180.234 150.567 178.786 152.256 178.786C152.739 178.786 153.463 179.027 153.946 179.269C153.946 179.269 154.428 179.51 154.428 179.751C154.428 179.992 154.187 180.475 153.704 180.475C153.463 180.475 153.463 180.475 153.222 180.234C152.98 180.234 152.739 179.992 152.256 179.992C151.291 179.992 150.809 180.716 150.809 181.199C150.809 181.923 151.291 182.164 152.256 182.646C153.222 183.129 154.669 183.611 154.669 185.3C154.669 187.231 153.463 188.196 151.533 188.196ZM149.602 187.231C150.085 187.472 150.567 187.713 151.533 187.713C152.739 187.713 153.946 187.231 153.946 185.783C153.946 184.335 152.98 184.094 152.015 183.611C151.05 183.37 150.085 182.888 150.085 181.681C150.085 180.716 150.809 179.751 152.015 179.751C152.498 179.751 152.98 179.992 153.222 179.992C153.463 179.992 153.463 179.992 153.463 179.992C152.98 179.751 152.498 179.751 152.015 179.751C150.567 179.751 149.843 180.716 149.843 181.681C149.843 182.888 150.809 183.37 151.774 183.611C152.739 183.853 153.704 184.335 153.704 185.783C153.704 187.231 152.498 187.713 151.291 187.713C150.809 187.713 150.085 187.472 149.602 187.231V187.231Z" fill="black"></path><path d="M162.15 183.13C162.392 183.13 162.392 183.371 162.392 183.371C162.392 183.612 162.392 183.612 162.15 183.612H158.531V186.508C158.531 186.749 158.772 186.99 159.014 186.99H162.633C162.874 186.99 162.874 187.231 162.874 187.231C162.874 187.473 162.874 187.473 162.633 187.473H158.772C157.807 187.473 157.807 186.749 157.807 186.508V180.234C157.807 179.993 157.807 179.269 158.772 179.269H162.392C162.633 179.269 162.633 179.511 162.633 179.511C162.633 179.752 162.633 179.752 162.392 179.752H158.772C158.531 179.752 158.29 179.752 158.29 180.234V182.888H162.15V183.13Z" fill="black"></path><path d="M162.632 188.196H158.771C158.048 188.196 157.565 187.713 157.565 186.748V180.475C157.565 179.51 158.048 179.027 158.771 179.027H162.391C162.873 179.027 163.115 179.269 163.115 179.751C163.115 179.992 162.873 180.475 162.391 180.475H158.771V182.888H162.15C162.632 182.888 162.632 183.129 162.632 183.612C162.632 184.094 162.391 184.335 162.15 184.335H158.771V186.989H162.391C162.873 186.989 163.115 187.231 163.115 187.713C163.356 187.713 163.115 188.196 162.632 188.196ZM158.771 179.751C158.289 179.751 158.048 179.992 158.048 180.475V186.748C158.048 187.231 158.048 187.472 158.771 187.472H162.632H159.013C158.771 187.472 158.289 187.472 158.289 186.748V183.612H162.15H158.289V180.716C158.289 179.992 158.53 179.751 158.771 179.751H162.391H158.771Z" fill="black"></path><path d="M171.319 187.231C171.319 187.472 171.56 187.472 171.56 187.472C171.56 187.713 171.319 187.713 171.319 187.713C171.077 187.713 171.077 187.713 171.077 187.472L168.182 183.853H167.217V187.472C167.217 187.713 166.975 187.713 166.975 187.713C166.734 187.713 166.734 187.713 166.734 187.472V180.475C166.734 180.234 166.734 179.51 167.699 179.51H169.147C170.836 179.51 171.56 180.475 171.56 181.681C171.56 182.646 171.077 183.853 169.147 183.853L171.319 187.231ZM168.423 183.37C168.906 183.37 170.595 183.37 170.595 181.681C170.595 179.992 169.147 179.992 168.423 179.992H167.458C167.217 179.992 166.975 179.992 166.975 180.475V183.37H168.423Z" fill="black"></path><path d="M171.078 188.196C170.836 188.196 170.595 187.954 170.595 187.954L167.941 184.335H167.217V187.713C167.217 188.196 166.976 188.437 166.493 188.437C166.01 188.437 165.769 188.196 165.769 187.713V180.716C165.769 179.751 166.252 179.269 166.976 179.269H168.423C170.354 179.269 171.078 180.475 171.078 181.923C171.078 183.129 170.595 184.094 168.906 184.335L171.078 187.231L170.836 187.472L171.078 187.231C171.078 187.472 171.319 187.472 171.319 187.713C171.801 187.954 171.319 188.196 171.078 188.196ZM166.734 183.611H168.182L171.078 187.472L171.319 187.231L171.078 187.472L168.182 183.611H168.665C170.595 183.611 170.836 182.164 170.836 181.681C170.836 180.475 170.112 179.751 168.665 179.751H167.217C166.734 179.751 166.493 179.992 166.493 180.475V187.472L166.734 183.611ZM168.423 183.611H166.734V180.475C166.734 179.992 166.976 179.751 167.458 179.751H168.423C168.906 179.751 170.836 179.751 170.836 181.681C170.836 183.129 169.871 183.611 168.423 183.611ZM167.217 183.129H168.423C169.388 183.129 170.354 182.888 170.354 181.681C170.354 180.475 169.388 180.475 168.423 180.475H167.458V183.129H167.217Z" fill="black"></path><path d="M180.488 179.51C180.488 179.51 180.488 179.269 180.729 179.269C180.971 179.269 181.212 179.51 181.212 179.51V179.751L178.075 187.472C178.075 187.713 177.834 187.954 177.593 187.954C177.351 187.954 177.11 187.713 177.11 187.472L173.973 179.751V179.51C173.973 179.269 174.214 179.269 174.456 179.269C174.697 179.269 174.697 179.269 174.697 179.51L177.834 187.231L180.488 179.51Z" fill="black"></path><path d="M177.593 188.196C177.11 188.196 176.869 187.713 176.869 187.713L173.732 179.992C173.732 179.992 173.732 179.751 173.732 179.51C173.732 179.027 173.973 178.786 174.456 178.786C174.938 178.786 174.938 179.027 174.938 179.269L177.593 186.266L180.247 179.269H180.488L180.247 179.027C180.247 179.027 180.488 178.545 180.729 178.545C180.971 178.545 181.453 178.786 181.453 179.269C181.453 179.51 181.453 179.51 181.453 179.751L178.317 187.231C178.317 187.713 178.075 188.196 177.593 188.196ZM180.488 179.51H180.729L177.593 187.472C177.593 187.472 177.593 187.472 177.834 187.231L180.971 179.51C180.971 179.51 180.971 179.51 180.971 179.269L180.488 179.51ZM174.214 179.751L177.351 187.472C177.351 187.472 177.351 187.713 177.593 187.713L174.214 179.751Z" fill="black"></path><path d="M184.59 179.751C184.59 179.51 184.831 179.51 184.831 179.51C185.072 179.51 185.072 179.751 185.072 179.751V187.713C185.072 187.954 184.831 187.954 184.831 187.954C184.59 187.954 184.59 187.713 184.59 187.713V179.751Z" fill="black"></path><path d="M185.072 188.196C184.59 188.196 184.349 187.954 184.349 187.472V179.51C184.349 179.027 184.59 178.786 185.072 178.786C185.555 178.786 185.796 179.027 185.796 179.51V187.472C185.555 187.954 185.314 188.196 185.072 188.196ZM185.072 179.751V187.713V179.751Z" fill="black"></path><path d="M188.934 183.612C188.934 181.2 190.623 179.269 193.277 179.269C194.243 179.269 194.966 179.511 195.449 179.752C195.69 179.752 195.69 179.993 195.69 179.993C195.69 180.234 195.449 180.234 195.449 180.234C195.449 180.234 195.208 180.234 195.208 179.993C194.484 179.511 193.76 179.511 193.519 179.511C191.347 179.511 189.899 181.2 189.899 183.13C189.899 184.819 191.106 186.749 193.76 186.749C194.484 186.749 194.966 186.508 195.449 186.508C195.449 186.508 195.69 186.266 195.932 186.266C195.932 186.266 196.173 186.266 196.173 186.508C196.173 186.749 195.932 186.749 195.932 186.749C195.208 187.232 194.243 187.232 193.519 187.232C190.623 187.955 188.934 186.025 188.934 183.612Z" fill="black"></path><path d="M193.518 188.196C190.622 188.196 188.692 186.266 188.692 183.612C188.692 180.957 190.622 179.027 193.276 179.027C194.242 179.027 194.965 179.269 195.689 179.51C195.931 179.751 195.931 179.992 195.931 179.992C195.931 180.234 195.689 180.716 195.207 180.716C194.966 180.716 194.965 180.716 194.724 180.475C194.242 180.234 193.518 179.992 193.035 179.992C191.105 179.992 189.657 181.44 189.657 183.37C189.657 185.059 190.622 186.748 193.035 186.748C193.759 186.748 194.242 186.507 194.724 186.507C194.965 186.266 195.207 186.266 195.207 186.266C195.448 186.266 195.689 186.507 195.689 186.989C195.689 187.231 195.689 187.472 195.207 187.472C194.966 188.196 194 188.196 193.518 188.196ZM193.276 179.751C190.864 179.751 189.175 181.44 189.175 183.853C189.175 185.783 190.381 187.955 193.276 187.955C193.759 187.955 194.724 187.955 195.448 187.472H195.207C194.724 187.713 194.242 187.713 193.276 187.713C190.381 187.713 189.175 185.542 189.175 183.853C189.416 181.44 191.105 179.751 193.276 179.751C193.759 179.751 194.483 179.751 195.207 180.234C194.724 179.751 194.242 179.751 193.276 179.751Z" fill="black"></path><path d="M203.412 183.13C203.653 183.13 203.653 183.371 203.653 183.371C203.653 183.612 203.653 183.612 203.412 183.612H199.793V186.508C199.793 186.749 200.034 186.99 200.275 186.99H203.895C204.136 186.99 204.136 187.231 204.136 187.231C204.136 187.473 204.136 187.473 203.895 187.473H200.034C199.069 187.473 199.069 186.749 199.069 186.508V180.234C199.069 179.993 199.069 179.269 200.034 179.269H203.653C203.895 179.269 203.895 179.511 203.895 179.511C203.895 179.752 203.895 179.752 203.653 179.752H200.034C199.793 179.752 199.551 179.752 199.551 180.234V182.888H203.412V183.13Z" fill="black"></path><path d="M203.894 188.196H200.033C199.309 188.196 198.827 187.713 198.827 186.748V180.475C198.827 179.51 199.309 179.027 200.033 179.027H203.652C204.135 179.027 204.376 179.269 204.376 179.751C204.376 179.992 204.135 180.475 203.652 180.475H200.033V182.888H203.411C203.894 182.888 203.894 183.129 203.894 183.612C203.894 184.094 203.652 184.335 203.411 184.335H200.033V186.989H203.652C204.135 186.989 204.376 187.231 204.376 187.713C204.618 187.713 204.376 188.196 203.894 188.196ZM200.033 179.751C199.551 179.751 199.309 179.992 199.309 180.475V186.748C199.309 187.231 199.309 187.472 200.033 187.472H203.894H200.274C200.033 187.472 199.551 187.472 199.551 186.748V183.612H203.411H199.551V180.716C199.551 179.992 199.792 179.751 200.033 179.751H203.652H200.033Z" fill="black"></path><path d="M226.334 222.216H9.16915C4.10197 222.216 0 218.114 0 213.047V9.16852C0 4.10171 4.10197 0 9.16915 0H226.334C231.401 0 235.503 4.10171 235.503 9.16852V212.806C235.744 217.873 231.401 222.216 226.334 222.216ZM9.16915 4.58424C6.75621 4.58424 4.82588 6.51446 4.82588 8.92723V212.806C4.82588 215.219 6.75621 217.149 9.16915 217.149H226.334C228.747 217.149 230.677 215.219 230.677 212.806V8.92723C230.677 6.51446 228.747 4.58424 226.334 4.58424H9.16915Z" fill="black"></path><path d="M108.824 95.7869C109.306 95.5456 109.789 95.5456 110.272 95.7869L133.195 122.81C133.436 123.292 133.436 123.775 133.195 124.258C132.712 124.499 132.229 124.499 131.747 124.258L108.824 97.2346C108.341 96.752 108.341 96.0282 108.824 95.7869Z" fill="black"></path><path d="M132.229 125.705C131.505 125.705 131.023 125.464 130.54 124.981L107.617 97.9583C106.893 96.9932 106.893 95.5456 107.858 94.8218C108.824 94.0979 110.271 94.0979 110.995 95.063L133.918 122.086C134.401 122.569 134.401 123.051 134.401 123.775C134.401 124.257 134.159 124.981 133.677 125.223C133.194 125.464 132.712 125.705 132.229 125.705Z" fill="black"></path><path d="M119.441 96.2694L119.199 98.1996L109.789 96.9932L109.306 106.403H107.376L108.1 94.8217L119.441 96.2694Z" fill="black"></path><path d="M110.513 107.851L106.169 107.609L106.893 93.3741L120.888 95.3043L120.406 99.406L110.995 98.4409L110.513 107.851Z" fill="black"></path></svg> 