<?xml version="1.0" encoding="UTF-8"?> <svg xmlns="http://www.w3.org/2000/svg" width="238" height="224" viewBox="0 0 238 224" fill="none"><path d="M94.5511 172.078H22.2357C19.8171 172.078 17.6404 170.142 17.6404 167.482V56.2077C17.6404 53.7887 19.5752 51.6116 22.2357 51.6116H94.3092C96.7278 51.6116 98.9045 53.5468 98.9045 56.2077V167.482C98.9045 170.142 96.9696 172.078 94.5511 172.078ZM22.7194 167.24H94.0673V56.6916H22.7194V167.24Z" fill="black"></path><path d="M227.815 223.36H10.143C5.06397 223.36 0.952393 219.248 0.952393 214.168V9.76307C0.952393 4.68318 5.06397 0.570923 10.143 0.570923H227.815C232.894 0.570923 237.005 4.68318 237.005 9.76307V214.168C237.005 219.248 232.894 223.36 227.815 223.36ZM9.90112 5.40891C7.48255 5.40891 5.54769 7.34408 5.54769 9.76307V214.168C5.54769 216.587 7.48255 218.522 9.90112 218.522H227.573C229.991 218.522 231.926 216.587 231.926 214.168V9.76307C231.926 7.34408 229.991 5.40891 227.573 5.40891H9.90112Z" fill="black"></path><path d="M46.4212 85.7195C46.4212 85.9614 46.1793 85.9613 46.1793 85.9613C45.9374 85.9613 45.9374 85.9614 45.9374 85.7195V78.2205H43.277C43.0352 78.2205 43.0352 77.9787 43.0352 77.9787C43.0352 77.7368 43.0352 77.7367 43.277 77.7367H49.3235C49.5653 77.7367 49.5653 77.9787 49.5653 77.9787C49.5653 78.2206 49.5653 78.2205 49.3235 78.2205H46.663V85.7195H46.4212Z" fill="black"></path><path d="M45.9376 86.2031C45.4539 86.2031 45.212 85.9613 45.212 85.4775V78.2205H42.7934C42.3097 78.2205 42.0679 77.9786 42.0679 77.4948C42.0679 77.011 42.3097 76.7692 42.7934 76.7692H48.8399C49.3236 76.7692 49.5655 77.011 49.5655 77.4948C49.5655 77.7367 49.3236 78.2205 48.8399 78.2205H46.4213V85.4775C46.6632 86.2032 46.4213 86.2031 45.9376 86.2031ZM43.0353 77.9787H45.9376V85.7194V77.9787H48.8399H43.0353Z" fill="black"></path><path d="M56.5793 77.4948C58.9979 77.4948 60.9327 79.4299 60.9327 81.8489C60.9327 84.2679 58.9979 86.2031 56.5793 86.2031C54.1607 86.2031 52.2258 84.5098 52.2258 81.8489C52.2258 79.188 54.1607 77.4948 56.5793 77.4948ZM56.5793 85.4775C58.5141 85.4775 60.2071 83.7841 60.2071 81.8489C60.2071 79.9137 58.756 78.2204 56.5793 78.2204C54.6444 78.2204 52.9514 79.9137 52.9514 81.8489C52.9514 83.7841 54.4026 85.4775 56.5793 85.4775Z" fill="black"></path><path d="M56.5792 86.2031C53.9187 86.2031 51.9839 84.268 51.9839 81.6071C51.9839 78.9462 53.9187 77.011 56.5792 77.011C59.2396 77.011 61.1745 78.9462 61.1745 81.6071C61.1745 84.268 59.2396 86.2031 56.5792 86.2031ZM56.5792 77.7367C54.1606 77.7367 52.4676 79.43 52.4676 81.849C52.4676 84.268 54.1606 85.9613 56.5792 85.9613C58.7559 85.9613 60.6907 84.268 60.6907 81.849C60.6907 79.43 58.7559 77.7367 56.5792 77.7367ZM56.5792 85.7194C54.4025 85.7194 52.7095 84.0261 52.7095 81.849C52.7095 79.6719 54.4025 77.9786 56.5792 77.9786C58.7559 77.9786 60.4489 79.6719 60.4489 81.849C60.4489 84.0261 58.7559 85.7194 56.5792 85.7194ZM56.5792 78.2205C54.6443 78.2205 53.1932 79.6719 53.1932 81.6071C53.1932 83.5423 54.6443 84.9936 56.5792 84.9936C58.514 84.9936 59.9652 83.5423 59.9652 81.6071C59.9652 79.6719 58.2722 78.2205 56.5792 78.2205Z" fill="black"></path><path d="M65.0445 85.7195C65.0445 85.9614 64.8026 85.9613 64.8026 85.9613C64.5608 85.9613 64.5608 85.9614 64.5608 85.7195V78.7043C64.5608 78.4624 64.5608 77.7367 65.5282 77.7367H66.7375C67.4631 77.7367 67.9468 77.7368 68.4305 77.9787C69.3979 78.4625 69.6398 79.6719 69.6398 80.1557C69.6398 80.8814 69.3979 81.849 68.4305 82.3328C67.9468 82.5747 67.4631 82.5747 66.7375 82.5747H65.0445V85.7195ZM66.2538 81.6072C66.9794 81.6072 68.4305 81.6071 68.4305 79.9138C68.4305 78.2206 66.9794 78.2205 66.2538 78.2205H65.5282C65.2863 78.2205 65.0445 78.2206 65.0445 78.7043V81.849H66.2538V81.6072Z" fill="black"></path><path d="M64.5608 86.2031C64.0771 86.2031 63.8352 85.9613 63.8352 85.4775V78.7044C63.8352 77.7368 64.3189 77.2531 65.0445 77.2531H66.2538C66.9794 77.2531 67.4631 77.2529 68.1886 77.7367C69.3979 78.4624 69.3979 79.6719 69.3979 80.1557C69.3979 81.3652 68.9142 82.0909 68.1886 82.5747C67.7049 82.8166 66.9794 82.8167 66.2538 82.8167H65.2863V85.9613C65.2863 86.2032 65.0445 86.2031 64.5608 86.2031ZM65.2863 77.9787C64.8026 77.9787 64.5608 78.2206 64.5608 78.7044V85.7194V82.091H66.2538C66.9794 82.091 67.4631 82.0909 67.7049 81.849C68.4305 81.6071 68.6724 80.8814 68.6724 79.9139C68.6724 79.4301 68.4305 78.4624 67.7049 78.2206C67.2212 77.9787 66.7375 77.9787 66.2538 77.9787H65.2863V77.9787ZM66.2538 82.091H64.8026V78.7044C64.8026 77.9787 65.2863 77.9787 65.5282 77.9787H66.2538C66.9794 77.9787 68.9142 77.9786 68.9142 80.1557C68.9142 82.0909 66.9794 82.091 66.2538 82.091ZM65.2863 81.3652H66.2538C67.2212 81.3652 68.1886 81.3652 68.1886 79.9139C68.1886 78.4625 67.2212 78.4625 66.2538 78.4625H65.5282V81.3652H65.2863Z" fill="black"></path><path d="M36.5053 111.361L35.5378 113.78C35.5378 114.022 35.5378 114.022 35.296 114.022C35.0541 114.022 34.8123 114.022 34.8123 113.78V113.538L37.9564 105.797C37.9564 105.555 38.1983 105.313 38.4401 105.313C38.9238 105.313 38.9238 105.555 38.9238 105.797L41.8261 113.538V113.78C41.8261 114.022 41.5843 114.022 41.3424 114.022C41.1006 114.022 41.1005 113.78 41.1005 113.78L40.1331 111.361H36.5053ZM40.375 110.877L38.682 106.523L36.989 110.877H40.375Z" fill="black"></path><path d="M41.8261 114.505C41.3424 114.505 41.3424 114.264 41.1005 114.022L40.1331 111.603H36.5052L35.5378 113.78C35.5378 114.022 35.296 114.264 34.8122 114.264C34.5704 114.264 34.0867 114.022 34.0867 113.538V113.296L37.2308 105.555C37.4727 105.071 37.7145 104.829 37.9564 104.829C38.4401 104.829 38.682 105.071 38.682 105.555L41.5843 113.296C41.5843 113.538 41.5843 113.538 41.5843 113.78C42.5517 114.264 42.068 114.505 41.8261 114.505ZM36.2634 111.119H40.6168L41.5843 113.78L38.4401 106.039C38.4401 106.039 38.4401 105.797 38.1983 105.797L40.1331 111.119H36.2634L38.1983 105.797C38.1983 105.797 38.1982 105.797 37.9564 106.039L34.8122 113.78V114.022L36.2634 111.119ZM37.2308 110.635H39.8912L38.682 107.248L37.2308 110.635Z" fill="black"></path><path d="M46.1796 114.022C45.2122 114.022 45.2122 113.296 45.2122 113.054V106.765C45.2122 106.523 45.2122 105.797 46.1796 105.797H47.6307C48.3563 105.797 50.2912 105.797 50.2912 107.732C50.2912 108.942 49.5656 109.426 49.0819 109.667C49.5656 109.909 50.533 110.151 50.533 111.845C50.533 114.022 48.3563 114.022 47.6307 114.022H46.1796V114.022ZM47.8726 109.426C48.3563 109.426 49.8074 109.426 49.8074 107.974C49.8074 106.523 48.5982 106.523 47.6307 106.523H46.4214C46.1796 106.523 45.9377 106.523 45.9377 107.007V109.667H47.8726V109.426ZM45.9377 113.054C45.9377 113.296 46.1796 113.538 46.4214 113.538H47.8726C48.5982 113.538 50.2912 113.538 50.2912 111.845C50.2912 110.151 48.5982 110.151 48.1144 110.151H46.1796V113.054H45.9377Z" fill="black"></path><path d="M47.8725 114.505H46.1795C45.4539 114.505 44.9702 114.022 44.9702 113.054V106.765C44.9702 105.797 45.4539 105.313 46.1795 105.313H47.6306C48.3562 105.313 50.7748 105.313 50.7748 107.732C50.7748 108.7 50.2911 109.184 49.8074 109.667C50.2911 109.909 51.0167 110.635 51.0167 111.845C51.2585 113.538 50.0492 114.505 47.8725 114.505ZM46.1795 106.039C45.6958 106.039 45.4539 106.281 45.4539 106.765V113.054C45.4539 113.538 45.4539 113.78 46.1795 113.78H47.8725C49.0818 113.78 50.5329 113.538 50.5329 111.845C50.5329 111.119 50.2911 110.635 50.0492 110.393C50.2911 110.635 50.5329 111.119 50.5329 111.845C50.5329 113.78 48.5981 113.78 47.8725 113.78H46.4214C46.1795 113.78 45.6958 113.78 45.6958 113.054V106.765C45.6958 106.281 46.1795 106.039 46.1795 106.039H47.6306C48.5981 106.039 50.0492 106.039 50.0492 107.732C50.0492 107.974 50.0492 108.458 49.8074 108.7C50.0492 108.458 50.0492 108.216 50.0492 107.732C50.0492 106.281 48.8399 106.039 47.6306 106.039H46.1795ZM46.4214 113.054H47.8725C48.8399 113.054 50.0492 113.054 50.0492 111.845C50.0492 110.635 49.0818 110.393 48.1144 110.393H46.4214V113.054ZM47.8725 109.667C48.1144 109.667 48.3562 109.667 48.5981 109.667L48.8399 109.426C48.5981 109.668 48.3562 109.667 47.8725 109.667ZM46.4214 109.184H47.8725C48.5981 109.184 49.5655 108.942 49.5655 107.974C49.5655 107.006 48.8399 106.765 47.6306 106.765H46.4214V109.184V109.184Z" fill="black"></path><path d="M58.2721 105.555C60.6907 105.555 62.6256 107.49 62.6256 109.909C62.6256 112.328 60.6907 114.264 58.2721 114.264C55.8535 114.264 53.9187 112.57 53.9187 109.909C53.9187 107.248 55.8535 105.555 58.2721 105.555ZM58.2721 113.538C60.207 113.538 61.9 111.845 61.9 109.909C61.9 107.974 60.4488 106.281 58.2721 106.281C56.3373 106.281 54.6443 107.974 54.6443 109.909C54.6443 112.087 56.0954 113.538 58.2721 113.538Z" fill="black"></path><path d="M58.272 114.505C55.6116 114.505 53.6768 112.57 53.6768 109.909C53.6768 107.249 55.6116 105.313 58.272 105.313C60.9325 105.313 62.8673 107.249 62.8673 109.909C62.8673 112.57 60.9325 114.505 58.272 114.505ZM58.272 106.039C55.8535 106.039 54.1605 107.732 54.1605 110.151C54.1605 112.57 55.8535 114.264 58.272 114.264C60.4488 114.264 62.3836 112.57 62.3836 110.151C62.3836 107.732 60.4488 106.039 58.272 106.039ZM58.272 114.022C56.0953 114.022 54.4023 112.328 54.4023 110.151C54.4023 107.974 56.0953 106.281 58.272 106.281C60.4488 106.281 62.1418 107.974 62.1418 110.151C62.1418 112.328 60.4488 114.022 58.272 114.022ZM58.272 106.523C56.3372 106.523 54.886 107.974 54.886 109.909C54.886 111.845 56.3372 113.296 58.272 113.296C60.2069 113.296 61.6581 111.845 61.6581 109.909C61.6581 107.974 60.2069 106.523 58.272 106.523Z" fill="black"></path><path d="M66.0118 106.039C66.0118 105.797 66.2537 105.797 66.2537 105.797C66.4955 105.797 66.4955 105.797 66.4955 106.039V110.635C66.4955 111.845 66.4955 113.78 69.1559 113.78C71.8164 113.78 71.8164 111.845 71.8164 110.635V106.039C71.8164 105.797 72.0582 105.797 72.0582 105.797C72.3001 105.797 72.3001 105.797 72.3001 106.039V110.635C72.3001 111.845 72.3001 114.505 68.9141 114.505C65.5281 114.505 65.5281 112.087 65.5281 110.635V106.039H66.0118Z" fill="black"></path><path d="M69.3979 114.505C65.77 114.505 65.77 111.603 65.77 110.393V105.797C65.77 105.313 66.0119 105.071 66.4956 105.071C66.9793 105.071 67.2212 105.313 67.2212 105.797V110.393C67.2212 111.845 67.463 113.296 69.6397 113.296C71.8164 113.296 72.0583 111.845 72.0583 110.393V105.797C72.0583 105.313 72.3002 105.071 72.7839 105.071C73.2676 105.071 73.5094 105.313 73.5094 105.797V110.393C73.2676 111.603 73.2676 114.505 69.3979 114.505ZM66.2537 106.039V110.635C66.2537 112.328 66.7374 114.022 69.3979 114.022C72.0583 114.022 72.542 112.328 72.542 110.635V106.039V110.635C72.542 111.845 72.542 114.022 69.3979 114.022C66.2537 114.022 66.2537 111.603 66.2537 110.635V106.039Z" fill="black"></path><path d="M79.7974 114.022C79.7974 114.264 79.5555 114.264 79.5555 114.264C79.3137 114.264 79.3137 114.264 79.3137 114.022V106.523H76.6532C76.4114 106.523 76.4114 106.281 76.4114 106.281C76.4114 106.039 76.4114 106.039 76.6532 106.039H82.6997C82.9415 106.039 82.9415 106.281 82.9415 106.281C82.9415 106.523 82.9415 106.523 82.6997 106.523H80.0392V114.022H79.7974Z" fill="black"></path><path d="M79.3138 114.505C78.8301 114.505 78.5882 114.264 78.5882 113.78V106.523H76.1697C75.6859 106.523 75.4441 106.281 75.4441 105.797C75.4441 105.313 75.6859 105.071 76.1697 105.071H82.2161C82.6998 105.071 82.9417 105.313 82.9417 105.797C82.9417 106.039 82.6998 106.523 82.2161 106.523H79.7975V113.78C80.0394 114.264 79.7975 114.505 79.3138 114.505ZM76.4115 106.039H79.3138V113.78V106.039H82.2161H76.4115Z" fill="black"></path><path d="M31.9099 141.598C32.3936 141.84 32.8773 141.84 33.361 141.84C34.3285 141.84 35.5378 141.356 35.5378 140.147C35.5378 138.937 34.5703 138.695 33.8448 138.212C32.8773 137.97 31.668 137.486 31.668 136.035C31.668 134.825 32.6355 133.857 34.0866 133.857C34.5703 133.857 35.054 134.099 35.5378 134.099C35.5378 134.099 35.7796 134.099 35.7796 134.341C35.7796 134.583 35.5378 134.583 35.5378 134.583H35.2959C35.054 134.583 34.5703 134.341 34.0866 134.341C32.8773 134.341 32.3936 135.067 32.3936 136.035C32.3936 137.002 33.361 137.486 34.0866 137.728C35.054 137.97 36.2633 138.454 36.2633 140.147C36.2633 141.598 35.054 142.566 33.361 142.566C32.3936 142.566 31.668 142.324 31.4262 142.082C31.1843 142.082 31.1843 141.84 31.1843 141.84C31.1843 141.598 31.4262 141.598 31.4262 141.598C31.668 141.356 31.668 141.356 31.9099 141.598Z" fill="black"></path><path d="M33.361 142.808C32.3935 142.808 31.6679 142.566 31.4261 142.324C31.1842 142.082 30.9424 141.84 30.9424 141.598C30.9424 141.356 31.1842 140.873 31.668 140.873C31.668 140.873 31.9098 140.873 32.1517 141.114C32.6354 141.356 33.1191 141.356 33.6028 141.356C33.8447 141.356 35.5377 141.356 35.5377 139.905C35.5377 138.937 35.054 138.695 33.8447 138.454C32.8772 138.212 31.4261 137.728 31.4261 136.035C31.4261 134.825 32.3935 133.374 34.0865 133.374C34.5702 133.374 35.2958 133.615 35.7795 133.857C35.7795 133.857 36.2632 134.099 36.2632 134.341C36.2632 134.583 36.0214 135.067 35.5377 135.067C35.2958 135.067 35.2958 135.067 35.054 134.825C34.8121 134.825 34.5702 134.583 34.0865 134.583C33.1191 134.583 32.6354 135.309 32.6354 135.793C32.6354 136.518 33.1191 136.76 34.0865 137.244C35.054 137.728 36.5051 138.212 36.5051 139.905C36.5051 141.84 35.2958 142.808 33.361 142.808ZM31.4261 141.598C31.4261 141.598 31.4261 141.84 31.4261 141.598C31.9098 141.84 32.3935 142.082 33.361 142.082C34.5702 142.082 35.7795 141.598 35.7795 140.147C35.7795 138.937 34.8121 138.454 33.8447 137.97C32.8772 137.728 31.9098 137.244 31.9098 136.035C31.9098 135.067 32.6354 134.099 33.8447 134.099C34.3284 134.099 34.8121 134.341 35.054 134.341C35.2958 134.341 35.2958 134.341 35.2958 134.341C34.8121 134.099 34.3284 134.099 33.8447 134.099C32.3935 134.099 31.668 135.067 31.668 136.035C31.668 137.244 32.6354 137.486 33.6028 137.97C34.5702 138.212 35.5377 138.695 35.5377 140.147C35.5377 141.598 34.3284 142.082 33.1191 142.082C32.6354 142.082 31.9098 141.84 31.4261 141.598V141.598C31.4261 141.598 31.6679 141.84 31.4261 141.598Z" fill="black"></path><path d="M44.0029 137.728C44.2447 137.728 44.2447 137.97 44.2447 137.97C44.2447 138.212 44.2447 138.212 44.0029 138.212H40.375V141.114C40.375 141.356 40.6168 141.598 40.8587 141.598H44.4866C44.7284 141.598 44.7284 141.84 44.7284 141.84C44.7284 142.082 44.7284 142.082 44.4866 142.082H40.6168C39.6494 142.082 39.6494 141.356 39.6494 141.114V134.825C39.6494 134.583 39.6494 133.857 40.6168 133.857H44.2447C44.4866 133.857 44.4866 134.099 44.4866 134.099C44.4866 134.341 44.4866 134.341 44.2447 134.341H40.8587C40.6168 134.341 40.375 134.341 40.375 134.825V137.486H44.0029V137.728Z" fill="black"></path><path d="M44.4865 142.566H40.6168C39.8912 142.566 39.4075 142.082 39.4075 141.114V134.825C39.4075 133.857 39.8912 133.374 40.6168 133.374H44.2446C44.7284 133.374 44.9702 133.616 44.9702 134.099C44.9702 134.341 44.7284 134.825 44.2446 134.825H40.8586V137.244H44.2446C44.7284 137.244 44.7283 137.486 44.7283 137.97C44.7283 138.453 44.4865 138.695 44.2446 138.695H40.8586V141.356H44.4865C44.9702 141.356 45.2121 141.598 45.2121 142.082C45.2121 142.324 44.9702 142.566 44.4865 142.566ZM40.6168 134.341C40.133 134.341 39.8912 134.583 39.8912 135.067V141.356C39.8912 141.84 39.8912 142.082 40.6168 142.082H44.4865H40.8586C40.6168 142.082 40.133 142.082 40.133 141.356V138.212H44.0028H40.133V135.309C40.133 134.583 40.3749 134.341 40.6168 134.341H44.2446H40.6168Z" fill="black"></path><path d="M53.1932 141.84C53.1932 142.082 53.435 142.082 53.435 142.082C53.435 142.324 53.1932 142.324 53.1932 142.324C52.9513 142.324 52.9513 142.324 52.9513 142.082L50.049 138.454H49.0816V142.082C49.0816 142.324 48.8398 142.324 48.8398 142.324C48.5979 142.324 48.5979 142.324 48.5979 142.082V135.067C48.5979 134.825 48.5979 134.099 49.5653 134.099H50.5328C52.2258 134.099 52.9513 135.067 52.9513 136.276C52.9513 137.244 52.4676 138.454 50.5328 138.454L53.1932 141.84ZM50.2909 137.97C50.7746 137.97 52.4676 137.97 52.4676 136.276C52.4676 134.583 51.0165 134.583 50.2909 134.583H49.3235C49.0816 134.583 48.8398 134.583 48.8398 135.067V137.97H50.2909Z" fill="black"></path><path d="M52.9513 142.808C52.7095 142.808 52.4676 142.566 52.4676 142.566L49.8072 138.937H49.3235V142.324C49.3235 142.808 49.0816 143.05 48.5979 143.05C48.1142 143.05 47.8723 142.808 47.8723 142.324V135.309C47.8723 134.341 48.356 133.857 49.0816 133.857H50.5327C52.4676 133.857 53.1932 135.067 53.1932 136.518C53.1932 137.728 52.7095 138.695 51.0165 138.937L53.1932 141.84L52.9513 142.082L53.1932 141.84C53.1932 142.082 53.435 142.082 53.435 142.324C53.6769 142.566 53.1932 142.808 52.9513 142.808ZM48.5979 138.212H50.049L52.9513 142.082L53.1932 141.84L52.9513 142.082L50.049 138.212H50.5327C52.4676 138.212 52.7095 136.76 52.7095 136.276C52.7095 135.067 51.9839 134.341 50.5327 134.341H49.0816C48.5979 134.341 48.356 134.583 48.356 135.067V142.082L48.5979 138.212ZM50.2909 138.212H48.5979V135.067C48.5979 134.583 48.8397 134.341 49.3235 134.341H50.2909C50.7746 134.341 52.7095 134.341 52.7095 136.276C52.7095 137.486 51.742 138.212 50.2909 138.212ZM49.0816 137.728H50.2909C51.2583 137.728 52.2257 137.486 52.2257 136.276C52.2257 135.067 51.2583 135.067 50.2909 135.067H49.3235V137.728H49.0816Z" fill="black"></path><path d="M62.6256 134.099C62.6256 134.099 62.6256 133.857 62.8675 133.857C63.1093 133.857 63.3512 134.099 63.3512 134.099V134.341L60.207 142.082C60.207 142.324 59.9652 142.566 59.7233 142.566C59.4815 142.566 59.2396 142.324 59.2396 142.082L56.0955 134.341V134.099C56.0955 133.858 56.3373 133.857 56.5792 133.857C56.821 133.857 56.821 133.858 56.821 134.099L59.9652 141.84L62.6256 134.099Z" fill="black"></path><path d="M59.4815 142.808C58.9978 142.808 58.756 142.324 58.756 142.324L55.6118 134.583C55.6118 134.583 55.6118 134.341 55.6118 134.099C55.6118 133.616 55.8537 133.374 56.3374 133.374C56.8211 133.374 56.8211 133.615 56.8211 133.857L59.4815 140.873L62.142 133.857L62.3838 134.099L62.142 133.857C62.142 133.857 62.3838 133.374 62.6257 133.374C62.8675 133.374 63.3513 133.616 63.3513 134.099C63.3513 134.341 63.3513 134.341 63.3513 134.583L60.2071 142.082C60.2071 142.324 60.2071 142.808 59.4815 142.808ZM62.6257 134.099H62.8675L59.7234 142.082C59.7234 142.082 59.7234 142.082 59.9653 141.84L63.1094 134.099C63.1094 134.099 63.1094 134.099 63.1094 133.857L62.6257 134.099ZM56.0955 134.099C56.0955 134.341 56.0955 134.341 56.0955 134.099L59.2397 141.84C59.2397 141.84 59.2397 142.082 59.4815 142.082L56.0955 134.099Z" fill="black"></path><path d="M66.4956 134.341C66.4956 134.099 66.7375 134.099 66.7375 134.099C66.9793 134.099 66.9793 134.341 66.9793 134.341V142.324C66.9793 142.566 66.7375 142.566 66.7375 142.566C66.4956 142.566 66.4956 142.324 66.4956 142.324V134.341Z" fill="black"></path><path d="M66.9792 142.808C66.4955 142.808 66.2537 142.566 66.2537 142.082V134.341C66.2537 133.857 66.4955 133.616 66.9792 133.616C67.4629 133.616 67.7048 133.857 67.7048 134.341V142.324C67.7048 142.566 67.2211 142.808 66.9792 142.808ZM66.9792 134.099V142.082V134.099Z" fill="black"></path><path d="M70.8489 138.212C70.8489 135.793 72.5419 133.857 75.2023 133.857C76.1697 133.857 76.8953 134.099 77.379 134.341C77.6209 134.341 77.6209 134.583 77.6209 134.583C77.6209 134.825 77.379 134.825 77.379 134.825C77.379 134.825 77.1372 134.825 77.1372 134.583C76.4116 134.099 75.686 134.099 75.4442 134.099C73.2675 134.099 71.8163 135.793 71.8163 137.728C71.8163 139.421 73.0256 141.356 75.686 141.356C76.4116 141.356 76.8953 141.114 77.379 141.114C77.379 141.114 77.6209 140.873 77.8628 140.873C77.8628 140.873 78.1046 140.872 78.1046 141.114C78.1046 141.356 77.8628 141.356 77.8628 141.356C77.1372 141.84 76.1698 141.84 75.4442 141.84C72.5419 142.566 70.8489 140.631 70.8489 138.212Z" fill="black"></path><path d="M75.4441 142.808C72.5418 142.808 70.6069 140.872 70.6069 138.212C70.6069 135.551 72.5418 133.616 75.2022 133.616C76.1696 133.616 76.8952 133.857 77.6208 134.341C77.8626 134.583 77.8627 134.825 77.8627 134.825C77.8627 135.067 77.6208 135.551 77.1371 135.551C76.8952 135.551 76.8952 135.551 76.6534 135.309C75.9278 134.825 75.2022 134.825 74.9604 134.825C73.0255 134.825 71.5743 136.276 71.5743 138.212C71.5743 139.905 72.5418 141.598 74.9604 141.598C75.6859 141.598 76.1697 141.356 76.6534 141.356C76.8952 141.115 77.1371 141.114 77.1371 141.114C77.3789 141.114 77.6208 141.356 77.6208 141.84C77.6208 142.082 77.6208 142.324 77.1371 142.324C76.8952 142.808 75.9278 142.808 75.4441 142.808ZM75.2022 134.099C72.7836 134.099 71.0906 135.793 71.0906 138.212C71.0906 140.147 72.2999 142.324 75.2022 142.324C75.6859 142.324 76.6534 142.324 77.3789 141.84H77.1371C77.1371 141.84 77.1371 141.84 76.8952 141.84C76.4115 142.082 75.9278 142.082 74.9604 142.082C72.0581 142.082 70.8488 139.905 70.8488 138.212C71.3325 135.793 73.0255 134.099 75.2022 134.099C75.6859 134.099 76.4115 134.099 77.1371 134.583H77.3789C76.8952 134.341 76.1696 134.099 75.2022 134.099Z" fill="black"></path><path d="M85.3604 137.728C85.6022 137.728 85.6022 137.97 85.6022 137.97C85.6022 138.212 85.6022 138.212 85.3604 138.212H81.9744V141.114C81.9744 141.356 82.2162 141.598 82.4581 141.598H86.0859C86.3278 141.598 86.3278 141.84 86.3278 141.84C86.3278 142.082 86.3278 142.082 86.0859 142.082H82.2162C81.2488 142.082 81.2488 141.356 81.2488 141.114V134.825C81.2488 134.583 81.2488 133.857 82.2162 133.857H85.8441C86.0859 133.857 86.0859 134.099 86.0859 134.099C86.0859 134.341 86.0859 134.341 85.8441 134.341H82.2162C81.9744 134.341 81.7325 134.341 81.7325 134.825V137.486H85.3604V137.728Z" fill="black"></path><path d="M86.0859 142.566H82.2161C81.4906 142.566 81.0068 142.082 81.0068 141.114V134.825C81.0068 133.857 81.4906 133.374 82.2161 133.374H85.844C86.3277 133.374 86.5696 133.616 86.5696 134.099C86.5696 134.341 86.3277 134.825 85.844 134.825H82.2161V137.244H85.6021C86.0859 137.244 86.0859 137.486 86.0859 137.97C86.0859 138.453 85.844 138.695 85.6021 138.695H82.2161V141.356H85.844C86.3277 141.356 86.5696 141.598 86.5696 142.082C86.5696 142.324 86.3277 142.566 86.0859 142.566ZM82.2161 134.341C81.7324 134.341 81.4906 134.583 81.4906 135.067V141.356C81.4906 141.84 81.4906 142.082 82.2161 142.082H86.0859H82.458C82.2161 142.082 81.7324 142.082 81.7324 141.356V138.212H85.6021H81.7324V135.309C81.4906 134.583 81.7324 134.341 82.2161 134.341H85.844H82.2161Z" fill="black"></path><path d="M57.789 197.719C57.3053 197.719 56.8215 197.235 56.8215 196.751V161.192C56.8215 160.708 57.3053 160.224 57.789 160.224C58.2727 160.224 58.7564 160.708 58.7564 161.192V196.751C58.7564 197.235 58.2727 197.719 57.789 197.719Z" fill="black"></path><path d="M57.789 198.928C56.5797 198.928 55.6123 197.961 55.6123 196.751V161.192C55.6123 159.983 56.5797 159.015 57.789 159.015C58.9983 159.015 59.9658 159.983 59.9658 161.192V196.751C59.9658 197.961 58.9983 198.928 57.789 198.928Z" fill="black"></path><path d="M49.8074 190.22L51.2585 189.01L57.7887 196.026L64.3188 189.01L65.77 190.22L57.7887 198.687L49.8074 190.22Z" fill="black"></path><path d="M57.7888 200.622L48.1145 190.22L51.5005 187.317L57.7888 194.09L64.0771 187.317L67.4631 190.22L57.7888 200.622Z" fill="black"></path><path d="M57.789 28.873C58.2727 28.873 58.7564 29.3568 58.7564 29.8406V65.3999C58.7564 65.8837 58.2727 66.3676 57.789 66.3676C57.3053 66.3676 56.8215 65.8837 56.8215 65.3999V29.8406C56.8215 29.3568 57.3053 28.873 57.789 28.873Z" fill="black"></path><path d="M57.789 67.577C56.5797 67.577 55.6123 66.6094 55.6123 65.3999V29.8406C55.6123 28.6311 56.5797 27.6636 57.789 27.6636C58.9983 27.6636 59.9658 28.6311 59.9658 29.8406V65.3999C59.9658 66.6094 58.9983 67.577 57.789 67.577Z" fill="black"></path><path d="M65.77 36.1301L64.3188 37.5814L57.7887 30.5663L51.2585 37.5814L49.8074 36.1301L57.7887 27.6636L65.77 36.1301Z" fill="black"></path><path d="M51.5005 39.2747L48.1145 36.3719L57.7888 25.9703L67.4631 36.3719L64.0771 39.2747L57.7888 32.2596L51.5005 39.2747Z" fill="black"></path><path d="M217.415 27.1798H114.142V29.5988H217.415V27.1798Z" fill="black"></path><path d="M217.415 39.7585H114.142V42.1776H217.415V39.7585Z" fill="black"></path><path d="M217.415 52.5792H114.142V54.9982H217.415V52.5792Z" fill="black"></path><path d="M217.415 65.1581H114.142V67.577H217.415V65.1581Z" fill="black"></path><path d="M217.415 77.9786H114.142V80.3977H217.415V77.9786Z" fill="black"></path><path d="M217.415 90.5575H114.142V92.9764H217.415V90.5575Z" fill="black"></path><path d="M217.415 103.378H114.142V105.797H217.415V103.378Z" fill="black"></path><path d="M217.415 116.199H114.142V118.618H217.415V116.199Z" fill="black"></path><path d="M217.415 128.778H114.142V131.197H217.415V128.778Z" fill="black"></path><path d="M217.415 141.598H114.142V144.017H217.415V141.598Z" fill="black"></path><path d="M217.415 154.177H114.142V156.596H217.415V154.177Z" fill="black"></path><path d="M217.415 166.998H114.142V169.417H217.415V166.998Z" fill="black"></path><path d="M217.415 179.577H114.142V181.995H217.415V179.577Z" fill="black"></path><path d="M217.415 192.397H114.142V194.816H217.415V192.397Z" fill="black"></path></svg> 