<?xml version="1.0" encoding="UTF-8"?> <svg xmlns="http://www.w3.org/2000/svg" width="297" height="222" viewBox="0 0 297 222" fill="none"><path d="M217.982 82.026C217.498 82.026 217.015 81.5421 217.015 81.0583V28.3243C217.015 27.8405 217.498 27.3567 217.982 27.3567C218.466 27.3567 218.949 27.8405 218.949 28.3243V81.0583C218.949 81.5421 218.466 82.026 217.982 82.026Z" fill="black"></path><path d="M217.982 83.2355C216.773 83.2355 215.805 82.2678 215.805 81.0583V28.3242C215.805 27.1147 216.773 26.1471 217.982 26.1471C219.191 26.1471 220.159 27.1147 220.159 28.3242V81.0583C220.159 82.2678 219.191 83.2355 217.982 83.2355Z" fill="black"></path><path d="M210.243 74.5271L211.452 73.3176L217.982 80.3326L224.512 73.3176L225.963 74.5271L217.982 82.9935L210.243 74.5271Z" fill="black"></path><path d="M217.982 84.9287L208.55 74.5271L211.694 71.6243L217.982 78.3975L224.512 71.6243L227.657 74.5271L217.982 84.9287Z" fill="black"></path><path d="M226.931 91.702H9.25919C4.18018 91.702 0.0686035 87.5897 0.0686035 82.5098V10.1819C0.0686035 5.10201 4.18018 0.989746 9.25919 0.989746H226.931C232.01 0.989746 236.122 5.10201 236.122 10.1819V82.5098C236.363 87.5897 232.01 91.702 226.931 91.702ZM9.25919 5.82773C6.84061 5.82773 4.90575 7.7629 4.90575 10.1819V82.5098C4.90575 84.9288 6.84061 86.864 9.25919 86.864H226.931C229.35 86.864 231.284 84.9288 231.284 82.5098V10.1819C231.284 7.7629 229.35 5.82773 226.931 5.82773H9.25919Z" fill="black"></path><path d="M64.1607 27.5986C64.1607 27.8405 63.9188 27.8405 63.9188 27.8405C63.677 27.8405 63.6769 27.8405 63.6769 27.5986V20.0997H61.0165C60.7747 20.0997 60.7747 19.8578 60.7747 19.8578C60.7747 19.6159 60.7747 19.6158 61.0165 19.6158H67.063C67.3048 19.6158 67.3048 19.8578 67.3048 19.8578C67.3048 20.0997 67.3048 20.0997 67.063 20.0997H64.4025V27.5986H64.1607Z" fill="black"></path><path d="M63.6771 28.3242C63.1934 28.3242 62.9515 28.0823 62.9515 27.5985V20.3416H60.5329C60.0492 20.3416 59.8074 20.0996 59.8074 19.6158C59.8074 19.132 60.0492 18.8901 60.5329 18.8901H66.5794C67.0631 18.8901 67.3049 19.132 67.3049 19.6158C67.3049 19.8577 67.0631 20.3416 66.5794 20.3416H64.1608V27.5985C64.4027 28.0823 64.1608 28.3242 63.6771 28.3242ZM60.7748 19.8577H63.6771V27.5985V19.8577H66.5794H60.7748Z" fill="black"></path><path d="M74.319 19.3739C76.7376 19.3739 78.6725 21.0672 78.6725 23.7282C78.6725 26.1472 76.7376 28.0823 74.319 28.0823C71.9004 28.0823 69.9656 26.3891 69.9656 23.7282C69.9656 21.0672 71.9004 19.3739 74.319 19.3739ZM74.319 27.3567C76.2539 27.3567 77.9469 25.6634 77.9469 23.7282C77.9469 21.793 76.4957 20.0996 74.319 20.0996C72.3841 20.0996 70.6911 21.793 70.6911 23.7282C70.6911 25.6634 72.1423 27.3567 74.319 27.3567Z" fill="black"></path><path d="M74.3189 28.3242C71.6585 28.3242 69.7236 26.389 69.7236 23.7281C69.7236 21.0673 71.6585 19.1321 74.3189 19.1321C76.9793 19.1321 78.9142 21.0673 78.9142 23.7281C78.9142 26.389 76.7375 28.3242 74.3189 28.3242ZM74.3189 19.6158C71.9003 19.6158 70.2073 21.3092 70.2073 23.7281C70.2073 25.9052 71.9003 27.8404 74.3189 27.8404C76.7375 27.8404 78.4305 26.1471 78.4305 23.7281C78.1886 21.3092 76.4956 19.6158 74.3189 19.6158ZM74.3189 27.5986C72.1422 27.5986 70.4492 25.9052 70.4492 23.7281C70.4492 21.5511 72.1422 19.8577 74.3189 19.8577C76.4956 19.8577 78.1886 21.5511 78.1886 23.7281C78.1886 25.9052 76.4956 27.5986 74.3189 27.5986ZM74.3189 20.3416C72.384 20.3416 70.9329 21.793 70.9329 23.7281C70.9329 25.6633 72.384 27.1147 74.3189 27.1147C76.2538 27.1147 77.7049 25.6633 77.7049 23.7281C77.4631 21.793 76.0119 20.3416 74.3189 20.3416Z" fill="black"></path><path d="M82.7838 27.5986C82.7838 27.8405 82.5419 27.8405 82.5419 27.8405C82.3 27.8405 82.3 27.8405 82.3 27.5986V20.5835C82.3 20.3416 82.3001 19.616 83.2675 19.616H84.4768C85.2024 19.616 85.6861 19.616 86.1698 19.8579C87.1372 20.3417 87.3791 21.5511 87.3791 22.0349C87.3791 22.7606 87.1372 23.7282 86.1698 24.212C85.6861 24.4539 85.2024 24.4539 84.4768 24.4539H83.0256V27.5986H82.7838ZM83.9931 23.7282C84.7186 23.7282 86.1698 23.7282 86.1698 22.0349C86.1698 20.3417 84.7186 20.3417 83.9931 20.3417H83.2675C83.0256 20.3417 82.7838 20.3417 82.7838 20.8255V23.9702H83.9931V23.7282Z" fill="black"></path><path d="M82.3 28.3242C81.8163 28.3242 81.5745 28.0823 81.5745 27.5986V20.5834C81.5745 19.6158 82.0582 19.1321 82.7838 19.1321H83.993C84.7186 19.1321 85.2023 19.132 85.9279 19.6158C87.1372 20.3415 87.1372 21.551 87.1372 22.0348C87.1372 23.2443 86.6535 23.97 85.9279 24.4538C85.4442 24.6957 84.7186 24.6957 83.993 24.6957H83.0256V27.8404C83.0256 28.0823 82.7838 28.3242 82.3 28.3242ZM83.0256 19.8577C82.5419 19.8577 82.3 20.0996 82.3 20.5834V27.5986V23.9701H83.993C84.4768 23.9701 84.9605 23.97 85.4442 23.7281C86.1698 23.4863 86.4116 22.7605 86.4116 21.7929C86.4116 21.3091 86.1698 20.3416 85.4442 20.0997C84.9605 19.8578 84.4768 19.8577 83.993 19.8577H83.0256V19.8577ZM83.993 23.9701H82.3V20.5834C82.3 20.0996 82.5419 19.8577 83.0256 19.8577H83.7512C84.4768 19.8577 86.4116 19.8577 86.4116 22.0348C86.4116 23.97 84.7186 23.9701 83.993 23.9701ZM83.0256 23.4862H83.993C84.9605 23.4862 85.9279 23.4862 85.9279 22.0348C85.9279 20.5834 84.9605 20.5834 83.993 20.5834H83.2675V23.4862H83.0256Z" fill="black"></path><path d="M96.8116 25.1796L95.8442 27.5986C95.8442 27.8405 95.8442 27.8404 95.6024 27.8404C95.3605 27.8404 95.1187 27.8405 95.1187 27.5986V27.3566L98.2628 19.6158C98.2628 19.3739 98.5047 19.1321 98.7465 19.1321C99.2302 19.1321 99.2302 19.3739 99.2302 19.6158L102.132 27.3566V27.5986C102.132 27.8405 101.891 27.8404 101.649 27.8404C101.407 27.8404 101.407 27.5986 101.407 27.5986L100.44 25.1796H96.8116ZM100.44 24.6957L98.7465 20.3416L97.0535 24.6957H100.44Z" fill="black"></path><path d="M102.132 28.3243C101.649 28.3243 101.649 28.0824 101.407 27.8405L100.44 25.4215H96.8116L95.8442 27.5986C95.8442 27.8405 95.6024 28.0824 95.1186 28.0824C94.8768 28.0824 94.3931 27.8405 94.3931 27.3567V27.1148L97.5372 19.374C97.7791 18.8902 98.0209 18.6483 98.2628 18.6483C98.7465 18.6483 98.9884 18.8902 98.9884 19.374L101.891 27.1148C101.891 27.3567 101.891 27.3567 101.891 27.5986C102.616 28.0824 102.374 28.3243 102.132 28.3243ZM96.5698 24.9377H100.923L101.891 27.5986L98.7465 19.8578C98.7465 19.8578 98.7465 19.6159 98.5046 19.6159L100.44 24.9377H96.5698L98.5046 19.6159C98.5046 19.6159 98.5046 19.6159 98.2628 19.8578L95.1186 27.5986V27.8405L96.5698 24.9377ZM97.5372 24.212H100.198L98.9884 20.8254L97.5372 24.212Z" fill="black"></path><path d="M106.486 27.8405C105.519 27.8405 105.519 27.1148 105.519 26.8729V20.5834C105.519 20.3415 105.519 19.6158 106.486 19.6158H107.937C108.663 19.6158 110.598 19.6159 110.598 21.5511C110.598 22.7606 109.872 23.2444 109.388 23.4863C109.872 23.7282 110.839 23.9701 110.839 25.6634C110.839 27.8405 108.663 27.8405 107.937 27.8405H106.486ZM108.179 23.2444C108.663 23.2444 110.114 23.2443 110.114 21.7929C110.114 20.3415 108.905 20.3416 107.937 20.3416H106.728C106.486 20.3416 106.244 20.3415 106.244 20.8253V23.4863H108.179V23.2444ZM106.244 26.8729C106.244 27.1148 106.486 27.3567 106.728 27.3567H108.179C108.905 27.3567 110.598 27.3567 110.598 25.6634C110.598 23.9701 108.905 23.9701 108.421 23.9701H106.486V26.8729H106.244Z" fill="black"></path><path d="M108.179 28.0824H106.486C105.76 28.0824 105.277 27.5986 105.277 26.631V20.3416C105.277 19.374 105.76 18.8901 106.486 18.8901H107.937C108.663 18.8901 111.081 18.8901 111.081 21.3092C111.081 22.2768 110.597 22.7605 110.114 23.2443C110.597 23.4863 111.323 24.2119 111.323 25.4215C111.323 27.3567 110.356 28.0824 108.179 28.0824ZM106.486 19.8577C106.002 19.8577 105.76 20.0996 105.76 20.5834V26.8729C105.76 27.3567 105.76 27.5986 106.486 27.5986H108.179C109.388 27.5986 110.839 27.3567 110.839 25.6634C110.839 24.9377 110.597 24.4538 110.356 24.2119C110.597 24.4538 110.839 24.9377 110.839 25.6634C110.839 27.5986 108.904 27.5986 108.179 27.5986H106.728C106.486 27.5986 106.002 27.5986 106.002 26.8729V20.5834C106.002 20.0996 106.244 19.8577 106.486 19.8577H107.937C108.904 19.8577 110.356 19.8578 110.356 21.5511C110.356 21.793 110.356 22.2768 110.114 22.5187C110.356 22.2768 110.356 22.0349 110.356 21.3092C110.356 19.8577 109.146 19.6158 107.937 19.6158H106.486V19.8577ZM106.486 26.8729C106.486 26.8729 106.728 26.8729 106.486 26.8729H107.937C108.904 26.8729 110.114 26.8729 110.114 25.6634C110.114 24.4539 109.146 24.2119 108.179 24.2119H106.486V26.8729ZM108.179 23.4863C108.421 23.4863 108.663 23.4863 108.663 23.4863H108.904C108.904 23.4863 108.421 23.4863 108.179 23.4863ZM106.486 23.0024H107.937C108.663 23.0024 109.63 22.7605 109.63 21.7929C109.63 20.8253 108.904 20.5834 107.695 20.5834H106.486V23.0024Z" fill="black"></path><path d="M118.337 19.3739C120.756 19.3739 122.69 21.0672 122.69 23.7282C122.69 26.1472 120.756 28.0823 118.337 28.0823C115.919 28.0823 113.984 26.3891 113.984 23.7282C114.225 21.0672 116.16 19.3739 118.337 19.3739ZM118.337 27.3567C120.272 27.3567 121.965 25.6634 121.965 23.7282C121.965 21.793 120.514 20.0996 118.337 20.0996C116.402 20.0996 114.709 21.793 114.709 23.7282C114.709 25.6634 116.402 27.3567 118.337 27.3567Z" fill="black"></path><path d="M118.337 28.3242C115.677 28.3242 113.742 26.389 113.742 23.7281C113.742 21.0673 115.677 19.1321 118.337 19.1321C120.997 19.1321 122.932 21.0673 122.932 23.7281C123.174 26.389 120.997 28.3242 118.337 28.3242ZM118.337 19.6158C115.918 19.6158 114.225 21.3092 114.225 23.7281C114.225 25.9052 115.918 27.8404 118.337 27.8404C120.756 27.8404 122.449 26.1471 122.449 23.7281C122.449 21.3092 120.756 19.6158 118.337 19.6158ZM118.337 27.5986C116.16 27.5986 114.467 25.9052 114.467 23.7281C114.467 21.5511 116.16 19.8577 118.337 19.8577C120.514 19.8577 122.207 21.5511 122.207 23.7281C122.207 25.9052 120.756 27.5986 118.337 27.5986ZM118.337 20.3416C116.402 20.3416 114.951 21.793 114.951 23.7281C114.951 25.6633 116.402 27.1147 118.337 27.1147C120.272 27.1147 121.723 25.6633 121.723 23.7281C121.723 21.793 120.272 20.3416 118.337 20.3416Z" fill="black"></path><path d="M126.318 19.6158C126.318 19.3739 126.56 19.3739 126.56 19.3739C126.802 19.3739 126.802 19.3739 126.802 19.6158V24.2119C126.802 25.4214 126.802 27.3566 129.462 27.3566C132.123 27.3566 132.123 25.4214 132.123 24.2119V19.6158C132.123 19.3739 132.365 19.3739 132.365 19.3739C132.606 19.3739 132.606 19.3739 132.606 19.6158V24.2119C132.606 25.4214 132.606 28.0823 129.22 28.0823C125.834 28.0823 125.834 25.6633 125.834 24.2119V19.6158H126.318Z" fill="black"></path><path d="M129.704 28.3242C126.076 28.3242 126.076 25.4214 126.076 24.2119V19.6158C126.076 19.132 126.318 18.8901 126.802 18.8901C127.286 18.8901 127.528 19.132 127.528 19.6158V24.2119C127.528 25.6633 127.769 27.1147 129.946 27.1147C132.123 27.1147 132.365 25.6633 132.365 24.2119V19.6158C132.365 19.132 132.607 18.8901 133.09 18.8901C133.574 18.8901 133.816 19.132 133.816 19.6158V24.2119C133.332 25.4214 133.332 28.3242 129.704 28.3242ZM126.56 19.6158V24.2119C126.56 25.9052 127.044 27.5985 129.704 27.5985C132.365 27.5985 132.848 25.9052 132.848 24.2119V19.6158V24.2119C132.848 25.4214 132.848 27.5985 129.704 27.5985C126.56 27.5985 126.56 25.1795 126.56 24.2119V19.6158Z" fill="black"></path><path d="M139.862 27.5986C139.862 27.8405 139.62 27.8405 139.62 27.8405C139.378 27.8405 139.378 27.8405 139.378 27.5986V20.0997H136.718C136.476 20.0997 136.476 19.8578 136.476 19.8578C136.476 19.6159 136.476 19.6158 136.718 19.6158H142.764C143.006 19.6158 143.006 19.8578 143.006 19.8578C143.006 20.0997 143.006 20.0997 142.764 20.0997H140.104V27.5986H139.862Z" fill="black"></path><path d="M139.62 28.3242C139.136 28.3242 138.895 28.0823 138.895 27.5985V20.3416H136.476C135.992 20.3416 135.75 20.0996 135.75 19.6158C135.75 19.132 135.992 18.8901 136.476 18.8901H142.523C143.006 18.8901 143.248 19.132 143.248 19.6158C143.248 19.8577 143.006 20.3416 142.523 20.3416H140.104V27.5985C140.104 28.0823 139.862 28.3242 139.62 28.3242ZM136.476 19.8577H139.378V27.5985V19.8577H142.281H136.476Z" fill="black"></path><path d="M151.713 27.1147C152.197 27.3566 152.681 27.3566 153.165 27.3566C154.132 27.3566 155.341 26.8728 155.341 25.6633C155.341 24.4538 154.374 24.212 153.648 23.9701C152.681 23.7282 151.471 23.2443 151.471 21.7929C151.471 20.5834 152.439 19.6158 153.89 19.6158C154.374 19.6158 154.857 19.8578 155.341 19.8578C155.341 19.8578 155.583 19.8578 155.583 20.0997C155.583 20.3416 155.341 20.3416 155.341 20.3416H155.099C154.857 20.3416 154.374 20.0997 153.89 20.0997C152.681 20.0997 152.197 20.8253 152.197 21.7929C152.197 22.7605 153.164 23.2443 153.89 23.4862C154.857 23.7281 156.067 24.2119 156.067 25.9052C156.067 27.3566 154.857 28.3242 153.165 28.3242C152.197 28.3242 151.472 28.0823 151.23 27.8404C150.988 27.8404 150.988 27.5986 150.988 27.5986C150.988 27.3567 151.23 27.3566 151.23 27.3566C151.23 26.8728 151.471 26.8728 151.713 27.1147Z" fill="black"></path><path d="M153.164 28.3242C152.197 28.3242 151.471 28.0823 151.23 27.8404C150.988 27.8404 150.746 27.5985 150.746 27.1147C150.746 26.8728 150.988 26.389 151.471 26.389C151.471 26.389 151.713 26.389 151.955 26.6309C152.439 26.8728 152.923 26.8728 153.406 26.8728C153.89 26.8728 155.341 26.8728 155.341 25.4214C155.341 24.4538 154.857 24.2119 153.648 23.97C152.681 23.7281 151.23 23.2444 151.23 21.5511C151.23 20.3416 152.197 18.8901 153.89 18.8901C154.374 18.8901 155.099 19.132 155.583 19.3739C155.583 19.3739 156.067 19.6158 156.067 19.8577C156.067 20.0996 155.825 20.5834 155.341 20.5834C155.099 20.5834 155.099 20.5835 154.857 20.3416C154.616 20.3416 154.374 20.0996 153.89 20.0996C152.923 20.0996 152.439 20.8253 152.439 21.3091C152.439 22.0348 152.923 22.2768 153.89 22.7606C154.857 23.2444 156.309 23.7281 156.309 25.4214C156.309 27.1147 155.099 28.3242 153.164 28.3242ZM151.23 27.1147C151.23 27.1147 151.23 27.3566 151.23 27.1147C151.713 27.3566 152.197 27.5985 153.164 27.5985C154.374 27.5985 155.583 27.1147 155.583 25.6633C155.583 24.2119 154.616 23.97 153.648 23.4862C152.681 23.2443 151.713 22.7606 151.713 21.5511C151.713 20.5835 152.439 19.6158 153.648 19.6158C154.132 19.6158 154.616 19.8577 154.857 19.8577C155.099 19.8577 155.099 19.8577 155.099 19.8577C154.616 19.6158 154.132 19.6158 153.648 19.6158C152.197 19.6158 151.471 20.5835 151.471 21.5511C151.471 22.7606 152.439 23.2443 153.406 23.4862C154.374 23.7281 155.341 24.2119 155.341 25.6633C155.341 27.1147 154.132 27.5985 152.923 27.5985C152.439 27.5985 151.713 27.3566 151.23 27.1147V27.1147Z" fill="black"></path><path d="M163.806 23.2443C164.048 23.2443 164.048 23.4862 164.048 23.4862C164.048 23.7281 164.048 23.7282 163.806 23.7282H160.178V26.6309C160.178 26.8728 160.42 27.1147 160.662 27.1147H164.29C164.532 27.1147 164.532 27.3567 164.532 27.3567C164.532 27.5986 164.532 27.5986 164.29 27.5986H160.42C159.453 27.5986 159.453 26.8728 159.453 26.6309V20.3416C159.453 20.0997 159.453 19.3739 160.42 19.3739H164.048C164.29 19.3739 164.29 19.6158 164.29 19.6158C164.29 19.8577 164.29 19.8577 164.048 19.8577H160.42C160.178 19.8577 159.937 19.8578 159.937 20.3416V23.0024H163.806V23.2443Z" fill="black"></path><path d="M164.29 28.0824H160.42C159.695 28.0824 159.211 27.5986 159.211 26.631V20.3416C159.211 19.374 159.695 18.8901 160.42 18.8901H164.048C164.532 18.8901 164.774 19.132 164.774 19.6158C164.774 19.8577 164.532 20.3416 164.048 20.3416H160.42V22.7606H163.806C164.29 22.7606 164.29 23.0025 164.29 23.4863C164.29 23.9701 164.048 24.2119 163.806 24.2119H160.42V26.8729H164.048C164.532 26.8729 164.774 27.1148 164.774 27.5986C165.016 27.8405 164.774 28.0824 164.29 28.0824ZM160.42 19.8577C159.937 19.8577 159.695 20.0996 159.695 20.5834V26.8729C159.695 27.3567 159.695 27.5986 160.42 27.5986H164.29H160.662C160.42 27.5986 159.936 27.5986 159.936 26.8729V23.4863H163.806H159.936V20.5834C159.936 20.0996 160.178 19.8577 160.42 19.8577H164.048H160.42Z" fill="black"></path><path d="M172.997 27.3567C172.997 27.5986 173.239 27.5986 173.239 27.5986C173.239 27.8405 172.997 27.8405 172.997 27.8405C172.755 27.8405 172.755 27.8405 172.755 27.5986L169.853 23.9702H168.885V27.5986C168.885 27.8405 168.643 27.8405 168.643 27.8405C168.402 27.8405 168.402 27.8405 168.402 27.5986V20.5835C168.402 20.3416 168.402 19.616 169.369 19.616H170.82C172.513 19.616 173.239 20.5835 173.239 21.793C173.239 22.7606 172.755 23.9702 170.82 23.9702L172.997 27.3567ZM170.095 23.4863C170.578 23.4863 172.271 23.4863 172.271 21.793C172.271 20.0997 170.82 20.0998 170.095 20.0998H169.127C168.885 20.0998 168.643 20.0997 168.643 20.5835V23.4863H170.095Z" fill="black"></path><path d="M172.755 28.3244C172.513 28.3244 172.271 28.0825 172.271 28.0825L169.611 24.4539H169.127V27.8405C169.127 28.3243 168.885 28.5663 168.402 28.5663C167.918 28.5663 167.676 28.3243 167.676 27.8405V20.8254C167.676 19.8578 168.16 19.374 168.885 19.374H170.336C172.271 19.374 172.997 20.5835 172.997 22.0349C172.997 23.2444 172.513 24.212 170.82 24.4539L172.997 27.3568L172.755 27.5987L172.997 27.3568C172.997 27.5987 173.239 27.5986 173.239 27.8405C173.239 28.0824 172.997 28.3244 172.755 28.3244ZM168.402 23.7283H169.853L172.755 27.5987L172.997 27.3568L172.755 27.5987L169.853 23.7283H170.336C172.271 23.7283 172.513 22.2768 172.513 21.793C172.513 20.5835 171.788 19.8579 170.336 19.8579H168.885C168.402 19.8579 168.16 20.0997 168.16 20.5835V27.5987L168.402 23.7283ZM170.095 23.7283H168.402V20.5835C168.402 20.0997 168.643 19.8579 169.127 19.8579H170.095C170.578 19.8579 172.513 19.8578 172.513 21.793C172.513 23.0025 171.546 23.7283 170.095 23.7283ZM168.885 23.2444H170.095C171.062 23.2444 172.029 23.0025 172.029 21.793C172.029 20.5835 171.062 20.5835 170.095 20.5835H169.127V23.2444H168.885Z" fill="black"></path><path d="M182.187 19.6159C182.187 19.6159 182.187 19.374 182.429 19.374C182.671 19.374 182.913 19.6159 182.913 19.6159V19.8579L179.769 27.5987C179.769 27.8406 179.527 28.0825 179.285 28.0825C179.043 28.0825 178.801 27.8406 178.801 27.5987L175.657 19.8579V19.6159C175.657 19.374 175.899 19.374 176.141 19.374C176.383 19.374 176.383 19.374 176.383 19.6159L179.527 27.3568L182.187 19.6159Z" fill="black"></path><path d="M179.285 28.3243C178.801 28.3243 178.559 27.8405 178.559 27.8405L175.415 20.0997C175.415 20.0997 175.415 19.8578 175.415 19.6159C175.415 19.1321 175.657 18.8902 176.141 18.8902C176.625 18.8902 176.625 19.1321 176.625 19.374L179.285 26.3891L181.945 19.374H182.187L181.945 19.1321C181.945 19.1321 182.187 18.6483 182.429 18.6483C182.671 18.6483 183.155 18.8902 183.155 19.374C183.155 19.6159 183.155 19.6159 183.155 19.8578L180.011 27.3567C180.011 27.8405 179.769 28.3243 179.285 28.3243ZM182.187 19.6159H182.429L179.285 27.5986C179.285 27.5986 179.285 27.5986 179.527 27.3567L182.671 19.6159C182.671 19.6159 182.671 19.6159 182.671 19.374L182.187 19.6159ZM175.899 19.6159C175.899 19.6159 175.899 19.8578 175.899 19.6159L179.043 27.3567C179.043 27.3567 179.043 27.5986 179.285 27.5986L175.899 19.6159Z" fill="black"></path><path d="M186.299 19.6158C186.299 19.3739 186.541 19.3739 186.541 19.3739C186.783 19.3739 186.783 19.6158 186.783 19.6158V27.5986C186.783 27.8405 186.541 27.8404 186.541 27.8404C186.299 27.8404 186.299 27.5986 186.299 27.5986V19.6158Z" fill="black"></path><path d="M186.782 28.3242C186.299 28.3242 186.057 28.0823 186.057 27.5985V19.6158C186.057 19.132 186.299 18.8901 186.782 18.8901C187.266 18.8901 187.508 19.132 187.508 19.6158V27.5985C187.266 28.0823 187.024 28.3242 186.782 28.3242ZM186.782 19.6158V27.5985V19.6158Z" fill="black"></path><path d="M190.652 23.7282C190.652 21.3092 192.345 19.3739 195.006 19.3739C195.973 19.3739 196.699 19.6158 197.182 19.8577C197.424 19.8577 197.424 20.0996 197.424 20.0996C197.424 20.3415 197.182 20.3416 197.182 20.3416C197.182 20.3416 196.94 20.3415 196.94 20.0996C196.215 19.6158 195.489 19.6158 195.247 19.6158C193.071 19.6158 191.62 21.3091 191.62 23.2443C191.62 24.9376 192.829 26.8728 195.489 26.8728C196.215 26.8728 196.699 26.6309 197.182 26.6309C197.182 26.6309 197.424 26.3891 197.666 26.3891C197.666 26.3891 197.908 26.389 197.908 26.6309C197.908 26.8728 197.666 26.8728 197.666 26.8728C196.94 27.3566 195.973 27.3567 195.247 27.3567C192.345 28.0824 190.652 25.9053 190.652 23.7282Z" fill="black"></path><path d="M195.006 28.3242C192.103 28.3242 190.168 26.389 190.168 23.7281C190.168 21.0673 192.103 19.1321 194.764 19.1321C195.731 19.1321 196.457 19.3739 197.182 19.6158C197.424 19.8577 197.424 20.0997 197.424 20.0997C197.424 20.3416 197.182 20.8253 196.699 20.8253C196.457 20.8253 196.457 20.8253 196.215 20.5834C195.489 20.3415 195.006 20.0997 194.522 20.0997C192.587 20.0997 191.136 21.551 191.136 23.4862C191.136 25.1795 192.103 26.8728 194.522 26.8728C195.247 26.8728 195.731 26.6309 196.215 26.6309C196.457 26.389 196.699 26.3891 196.699 26.3891C196.94 26.3891 197.182 26.6309 197.182 27.1147C197.182 27.3566 197.182 27.5986 196.699 27.5986C196.699 28.3242 195.731 28.3242 195.006 28.3242ZM195.006 19.6158C192.587 19.6158 190.894 21.3092 190.894 23.7281C190.894 25.6633 192.103 27.8404 195.006 27.8404C195.489 27.8404 196.457 27.8404 197.182 27.3566H196.94C196.457 27.5985 195.973 27.5986 195.006 27.5986C192.103 27.5986 190.894 25.4214 190.894 23.7281C191.136 21.3092 192.829 19.6158 195.006 19.6158C195.489 19.6158 196.215 19.6159 196.94 20.0997C196.457 19.8578 195.973 19.6158 195.006 19.6158Z" fill="black"></path><path d="M205.164 23.2443C205.406 23.2443 205.406 23.4862 205.406 23.4862C205.406 23.7281 205.406 23.7282 205.164 23.7282H201.536V26.6309C201.536 26.8728 201.778 27.1147 202.02 27.1147H205.647C205.889 27.1147 205.889 27.3567 205.889 27.3567C205.889 27.5986 205.889 27.5986 205.647 27.5986H201.778C200.81 27.5986 200.81 26.8728 200.81 26.6309V20.3416C200.81 20.0997 200.81 19.3739 201.778 19.3739H205.406C205.647 19.3739 205.647 19.6158 205.647 19.6158C205.647 19.8577 205.647 19.8577 205.406 19.8577H201.778C201.536 19.8577 201.294 19.8578 201.294 20.3416V23.0024H205.164V23.2443Z" fill="black"></path><path d="M205.647 28.0824H201.778C201.052 28.0824 200.568 27.5986 200.568 26.631V20.3416C200.568 19.374 201.052 18.8901 201.778 18.8901H205.406C205.889 18.8901 206.131 19.132 206.131 19.6158C206.131 19.8577 205.889 20.3416 205.406 20.3416H201.778V22.7606H205.164C205.647 22.7606 205.647 23.0025 205.647 23.4863C205.647 23.9701 205.406 24.2119 205.164 24.2119H201.778V26.8729H205.406C205.889 26.8729 206.131 27.1148 206.131 27.5986C206.373 27.8405 206.131 28.0824 205.647 28.0824ZM201.778 19.8577C201.294 19.8577 201.052 20.0996 201.052 20.5834V26.8729C201.052 27.3567 201.052 27.5986 201.778 27.5986H205.647H202.02C201.778 27.5986 201.294 27.5986 201.294 26.8729V23.4863H205.164H201.294V20.5834C201.294 20.0996 201.536 19.8577 201.778 19.8577H205.406H201.778Z" fill="black"></path><path d="M45.7798 15.5037H18.208V30.0176H45.7798V15.5037Z" fill="black"></path><path d="M233.945 38.726H2.97095V43.564H233.945V38.726Z" fill="black"></path><path d="M287.637 221.118H69.9657C64.8867 221.118 60.7751 217.006 60.7751 211.926V139.598C60.7751 134.518 64.8867 130.406 69.9657 130.406H287.637C292.717 130.406 296.828 134.518 296.828 139.598V211.926C296.828 217.006 292.717 221.118 287.637 221.118ZM69.7239 135.244C67.3053 135.244 65.3704 137.179 65.3704 139.598V211.926C65.3704 214.345 67.3053 216.28 69.7239 216.28H287.396C289.814 216.28 291.749 214.345 291.749 211.926V139.598C291.749 137.179 289.814 135.244 287.396 135.244H69.7239Z" fill="black"></path><path d="M106.486 145.162H78.9143V159.676H106.486V145.162Z" fill="black"></path><path d="M282.317 168.142C282.317 169.352 281.349 170.319 280.14 170.319H255.712C254.503 170.319 253.536 169.352 253.536 168.142V145.645C253.536 144.436 254.503 143.468 255.712 143.468H280.14C281.349 143.468 282.317 144.436 282.317 145.645V168.142Z" fill="black"></path><path d="M276.512 151.209H259.824C259.34 151.209 258.856 150.725 258.856 150.242V150C258.856 149.516 259.34 149.032 259.824 149.032H276.512C276.996 149.032 277.479 149.516 277.479 150V150.242C277.479 150.725 276.996 151.209 276.512 151.209Z" fill="white"></path><path d="M276.512 157.499H259.824C259.34 157.499 258.856 157.015 258.856 156.531V156.289C258.856 155.805 259.34 155.322 259.824 155.322H276.512C276.996 155.322 277.479 155.805 277.479 156.289V156.531C277.479 157.015 276.996 157.499 276.512 157.499Z" fill="white"></path><path d="M276.512 163.788H259.824C259.34 163.788 258.856 163.304 258.856 162.82V162.578C258.856 162.095 259.34 161.611 259.824 161.611H276.512C276.996 161.611 277.479 162.095 277.479 162.578V162.82C277.479 163.304 276.996 163.788 276.512 163.788Z" fill="white"></path><path d="M256.438 53.2399C256.196 52.5142 256.438 51.7886 256.921 51.5467C256.921 51.5467 257.405 51.3048 258.131 51.0629C258.856 50.821 259.34 51.3048 259.582 51.7886C259.824 52.5143 259.34 52.998 258.856 53.2399C258.373 53.4818 257.889 53.4818 257.889 53.4818C257.405 53.9656 256.68 53.7237 256.438 53.2399Z" fill="black"></path><path d="M264.661 52.5143C264.419 52.2724 264.419 52.0305 264.419 51.5467C264.661 50.821 265.144 50.5791 265.87 50.5791C266.596 50.821 267.563 51.0629 268.289 51.3048C269.014 51.5467 269.256 52.2724 269.014 52.7562C268.772 53.4819 268.047 53.7238 267.563 53.4819C266.838 53.24 266.112 52.9981 265.386 52.7562C265.145 52.9981 264.661 52.7562 264.661 52.5143Z" fill="black"></path><path d="M282.316 102.346C282.074 101.862 282.074 101.378 282.316 100.894C282.8 100.41 283.284 99.6848 283.526 98.9591C283.767 98.4753 284.735 98.2334 285.219 98.4753C285.702 98.7172 285.944 99.6848 285.702 100.169C285.219 100.894 284.735 101.62 284.251 102.346C283.767 102.829 283.042 103.071 282.558 102.588C282.316 102.588 282.316 102.346 282.316 102.346ZM286.428 93.6373C286.186 93.3954 286.186 93.1535 286.186 92.6697C286.428 91.944 286.428 91.2183 286.67 90.4926C286.67 89.7669 287.395 89.2831 288.121 89.525C288.846 89.525 289.33 90.2507 289.088 90.9764C289.088 91.944 288.846 92.6697 288.605 93.3954C288.363 94.1211 287.879 94.363 287.153 94.363C286.912 94.1211 286.67 93.8792 286.428 93.6373ZM286.912 84.2032C286.912 83.9613 286.67 83.9613 286.67 83.7194C286.67 82.9937 286.428 82.268 286.186 81.5423C285.944 80.8166 286.428 80.3328 287.153 80.0909C287.879 79.849 288.363 80.3328 288.605 81.0585C288.846 81.7842 288.846 82.7518 289.088 83.4775C289.088 84.2032 288.605 84.687 288.121 84.9289C287.637 84.9289 287.153 84.687 286.912 84.2032ZM273.126 56.8685C272.884 56.3847 272.884 55.901 273.368 55.4172C273.851 54.9334 274.577 54.9333 275.061 55.1752C275.544 55.659 276.27 56.3847 276.754 56.8685C277.237 57.3523 277.237 58.078 276.754 58.5618C276.27 59.0456 275.544 59.0456 275.061 58.5618C274.577 58.078 273.851 57.3523 273.368 56.8685C273.126 57.1104 273.126 57.1104 273.126 56.8685ZM284.493 75.011C284.493 75.011 284.251 74.7691 284.493 75.011C284.251 74.5272 284.251 74.0434 284.009 73.8015L283.526 72.592C283.284 71.8663 283.526 71.3825 284.251 70.8987C284.977 70.6568 285.46 70.8987 285.944 71.6244L286.428 72.8339C286.67 73.3177 286.67 73.5596 286.912 74.0434C287.153 74.7691 286.912 75.2529 286.186 75.4948C285.46 75.7367 284.735 75.4948 284.493 75.011ZM279.172 64.1255C278.93 63.6417 278.93 62.916 279.656 62.4322C280.14 62.1903 280.865 62.1903 281.349 62.916C281.591 63.3998 281.833 63.8836 282.316 64.3674L282.8 65.0931C283.042 65.5769 283.042 66.3026 282.316 66.7864C281.833 67.0283 281.107 67.0283 280.623 66.3026L280.14 65.5769C279.656 65.0931 279.414 64.6093 279.172 64.1255C279.172 64.1255 279.172 64.3674 279.172 64.1255Z" fill="black"></path><path d="M276.028 107.909C275.786 107.425 275.786 106.7 276.27 106.216C276.512 105.974 276.995 105.732 277.237 105.49C277.721 105.006 278.447 105.248 278.93 105.732C279.414 106.216 279.172 106.942 278.688 107.426C278.447 107.667 277.963 107.909 277.721 108.151C277.237 108.635 276.512 108.635 276.028 107.909Z" fill="black"></path><path d="M275.544 98.959L266.596 112.263L282.558 113.231L275.544 98.959Z" fill="black"></path></svg> 