<?xml version="1.0" encoding="UTF-8"?> <svg xmlns="http://www.w3.org/2000/svg" width="235" height="119" viewBox="0 0 235 119" fill="none"><path d="M2.60103 118.843C2.05611 118.843 1.51118 118.57 0.966259 118.298C-0.12359 117.481 -0.396052 115.574 0.693797 114.485L44.2878 60.5617C44.8327 59.7447 45.6501 59.4723 46.7399 59.4723C47.5573 59.4723 48.3747 60.017 48.9196 60.8341L76.7108 111.217L178.067 0.919152C178.612 0.10213 179.701 -0.170213 180.791 0.102127C181.609 0.374468 182.426 0.919151 182.699 2.00851L193.87 37.1404L229.835 0.919152C230.924 -0.17021 232.559 -0.17021 233.649 0.919152C234.739 2.00851 234.739 3.64256 233.649 4.73192L194.414 44.4936C193.87 45.0383 192.78 45.3107 191.962 45.3107C191.145 45.0383 190.328 44.4936 190.055 43.4043L179.157 8.27234L78.3455 117.753C77.8006 118.298 76.9832 118.843 75.8934 118.57C75.076 118.57 74.2586 118.026 73.7137 117.209L45.9225 67.3702L4.78073 117.753C4.23581 118.57 3.41842 118.843 2.60103 118.843Z" fill="black"></path></svg> 