<?xml version="1.0" encoding="UTF-8"?> <svg xmlns="http://www.w3.org/2000/svg" width="252" height="162" viewBox="0 0 252 162" fill="none"><path d="M49.3158 132.156C48.7708 132.156 48.2259 132.156 47.9534 131.611C46.5911 130.794 46.3187 129.16 47.136 127.798L85.2808 67.8836C85.8257 67.0666 86.9155 66.5219 87.7329 66.5219C88.8228 66.5219 89.6401 67.3389 89.9126 68.1559L113.889 123.713L201.622 1.1602C202.167 0.343183 203.257 -0.201497 204.347 0.0708439C205.437 0.343184 206.254 1.16021 206.526 1.97723L216.063 40.6496L246.578 1.43255C247.396 0.343184 249.303 0.070847 250.393 0.887868C251.483 1.70489 251.755 3.61127 250.938 4.70063L216.88 48.8198C216.335 49.6368 215.245 49.9091 214.155 49.9091C213.066 49.6368 212.248 48.8198 211.976 48.0028L202.712 9.60276L115.524 131.067C114.979 131.884 113.889 132.428 113.072 132.156C111.982 132.156 111.165 131.339 110.892 130.522L87.188 75.2368L51.7679 130.794C51.223 131.884 50.4056 132.156 49.3158 132.156Z" fill="black"></path><path d="M203.802 161.569C203.257 161.569 202.44 161.296 201.895 160.752L113.89 79.5942L89.9128 116.36C89.3679 117.177 88.823 117.45 88.0056 117.45C87.1882 117.45 86.3708 117.177 85.8259 116.633L47.6812 77.1432C46.5913 76.0538 46.5913 74.4197 47.6812 73.3304C48.771 72.241 50.4058 72.241 51.4956 73.3304L87.1882 110.369L111.165 73.6027C111.71 73.0581 112.255 72.5134 113.072 72.5134C113.889 72.5134 114.707 72.7857 115.252 73.3304L202.712 153.671L211.976 128.343C212.248 127.526 213.066 126.981 213.883 126.709C214.701 126.437 215.79 126.709 216.335 127.254L250.393 156.394C251.483 157.484 251.755 159.118 250.666 160.207C249.576 161.296 247.941 161.569 246.851 160.479L215.79 133.79L206.254 159.118C205.982 159.935 205.164 160.479 204.347 160.752C204.347 161.569 204.075 161.569 203.802 161.569Z" fill="black"></path><path d="M203.802 120.173C203.257 120.173 202.44 119.901 201.895 119.356L113.89 38.1985L89.9128 74.9644C89.3679 75.7815 88.823 76.0538 88.0056 76.0538C87.1882 76.0538 86.3708 75.7814 85.8259 75.2368L47.6812 35.7474C46.5913 34.658 46.5913 33.024 47.6812 31.9346C48.771 30.8453 50.4058 30.8453 51.4956 31.9346L87.1882 68.9729L111.165 32.207C111.71 31.6623 112.255 31.1176 113.072 31.1176C113.889 31.1176 114.707 31.39 115.252 31.9346L202.712 112.275L211.976 86.9474C212.248 86.1304 213.066 85.5857 213.883 85.3134C214.701 85.041 215.79 85.3134 216.335 85.858L250.393 114.998C251.483 116.088 251.755 117.722 250.666 118.811C249.576 119.901 247.941 120.173 246.851 119.084L215.79 92.9389L206.254 118.267C205.982 119.084 205.164 119.628 204.347 119.901C204.347 120.173 204.075 120.173 203.802 120.173Z" fill="black"></path><path d="M5.17675 26.7602L2.45213 33.841C2.17966 34.1134 2.17968 34.658 1.36229 34.658C0.817369 34.658 0.272461 34.3857 0.272461 33.841C0.272461 33.5687 0.272436 33.2963 0.544898 33.024L8.99125 11.5091C9.26371 10.9644 9.53615 10.4197 10.626 10.4197C11.7159 10.4197 11.9883 11.2368 12.2608 11.5091L20.7071 33.024C20.7071 33.2963 20.9796 33.5687 20.9796 33.841C20.9796 34.3857 20.4347 34.658 19.8897 34.658C19.3448 34.658 19.0724 34.1134 19.0724 33.841L16.3477 26.7602H5.17675ZM15.8028 25.1261L10.8985 12.5985L5.99415 25.1261H15.8028Z" fill="black"></path><path d="M20.1622 35.2027C19.0724 35.2027 18.7999 34.3857 18.5275 33.841L16.0753 27.3049H5.72173L3.26954 33.841C2.99708 34.1134 2.72464 35.2027 1.63479 35.2027C0.817404 35.2027 0 34.658 0 33.5687C0 33.2963 1.66257e-05 33.024 0.272479 32.7517V32.4793L8.71879 10.9644C9.26372 9.87507 9.80865 9.33038 10.8985 9.33038C11.9883 9.33038 12.8057 9.87507 13.0782 10.9644L21.5245 32.4793C21.797 32.7517 21.797 33.024 21.797 33.5687C21.797 34.658 20.9796 35.2027 20.1622 35.2027ZM5.17677 26.2155H16.3477C16.6202 26.2155 16.8927 26.4878 16.8927 26.7602L19.6173 33.841C19.8898 34.1134 19.8898 34.1134 19.8898 34.1134C20.1622 34.1134 20.1622 33.841 20.1622 33.841V33.5687L11.4434 11.7815C11.171 11.5091 11.171 10.9644 10.3536 10.9644C9.80866 10.9644 9.53617 11.2368 9.26371 11.7815L0.544917 33.5687V33.841C0.544917 34.1134 0.817396 34.1134 0.817396 34.1134C0.817396 34.1134 1.08983 34.1134 1.08983 33.841L3.81446 26.7602C4.63185 26.2155 4.90431 26.2155 5.17677 26.2155ZM15.8028 25.6708H5.99417C5.7217 25.6708 5.44925 25.6708 5.44925 25.3985C5.44925 25.1261 5.17679 24.8538 5.44925 24.8538L10.3536 12.3261C10.3536 12.0538 10.626 11.7815 10.8985 11.7815C11.171 11.7815 11.4434 12.0538 11.4434 12.3261L16.3477 24.8538C16.3477 25.1261 16.3477 25.3985 16.3477 25.3985C16.0753 25.6708 16.0753 25.6708 15.8028 25.6708ZM6.81156 24.3091H14.713L10.8985 14.2325L6.81156 24.3091Z" fill="black"></path><path d="M4.90479 86.6751C2.18018 86.6751 2.18018 84.7687 2.18018 83.6793V66.2495C2.18018 65.1602 2.18018 63.2538 4.90479 63.2538H9.26416C11.4439 63.2538 17.1656 63.2538 17.1656 68.9729C17.1656 72.5134 14.9859 73.8751 13.6236 74.4198C14.9859 74.9644 17.983 76.0538 17.983 80.1389C17.983 86.6751 11.7163 86.6751 9.53664 86.6751H4.90479ZM9.26416 73.6027C10.6265 73.6027 14.9859 73.6027 14.9859 69.2453C14.9859 65.1602 11.4439 65.1602 8.99172 65.1602H5.17723C4.35985 65.1602 4.0874 65.4325 4.0874 66.2495V73.6027H9.26416ZM4.0874 83.6793C4.0874 84.7687 4.35985 84.7687 5.17723 84.7687H8.99172C11.1714 84.7687 15.8033 84.7687 15.8033 80.1389C15.8033 75.2368 11.1714 75.2368 9.26416 75.2368H3.81492V83.6793H4.0874Z" fill="black"></path><path d="M9.53615 87.2197H4.9043C1.63476 87.2197 1.63477 84.4963 1.63477 83.6793V66.2495C1.63477 65.4325 1.63476 62.7091 4.9043 62.7091H9.26367C11.4434 62.7091 17.71 62.7091 17.71 68.9729C17.71 71.9687 16.3477 73.3304 14.9854 74.4197C16.6202 75.2368 18.5274 76.8708 18.5274 80.4112C18.5274 84.7687 15.5303 87.2197 9.53615 87.2197ZM4.9043 63.7985C2.99707 63.7985 2.99708 64.8878 2.99708 65.9772V83.407C2.99708 84.4963 3.26953 85.5857 4.9043 85.5857H9.53615C12.8057 85.5857 17.1651 85.041 17.1651 79.8665C17.1651 76.0538 14.4405 75.2368 13.0782 74.6921C12.8057 74.6921 12.5332 74.4197 12.5332 74.1474C12.5332 73.8751 12.5332 73.6027 12.8057 73.6027C14.168 73.058 16.0752 71.9687 16.0752 68.7006C16.0752 64.3431 12.5332 63.7985 8.99123 63.7985H4.9043V63.7985ZM9.26367 85.5857H5.44922C4.63183 85.5857 3.54199 85.3134 3.54199 83.6793V75.2368C3.54199 74.9644 3.81446 74.4197 4.35939 74.4197H9.80863C14.4405 74.4197 16.8926 76.3261 16.8926 80.1389C16.6202 85.5857 11.4434 85.5857 9.26367 85.5857ZM4.9043 83.9517C4.9043 83.9517 4.90429 83.9517 5.44922 83.9517H9.26367C12.2608 83.9517 15.2579 83.6793 15.2579 80.1389C15.2579 76.3261 12.2608 75.7814 9.53615 75.7814H4.9043V83.407C4.9043 83.9517 4.9043 83.9517 4.9043 83.9517ZM9.26367 74.1474H4.08691C3.81445 74.1474 3.26951 73.8751 3.26951 73.3304V65.9772C3.26951 64.3431 4.35935 64.0708 5.17674 64.0708H8.99123C11.4434 64.0708 15.8028 64.0708 15.8028 68.9729C15.8028 72.5134 13.6231 74.1474 9.26367 74.1474ZM4.9043 72.7857H9.53615C11.9883 72.7857 14.7129 72.241 14.7129 68.9729C14.7129 65.7048 12.5332 65.4325 9.26367 65.4325H5.44922C5.17676 65.4325 4.9043 65.4325 4.9043 65.4325C4.9043 65.4325 4.9043 65.4325 4.9043 65.9772V72.7857Z" fill="black"></path><path d="M1.3623 127.254C1.3623 120.445 5.99417 114.998 13.8956 114.998C16.6202 114.998 18.7998 115.816 20.1622 116.633C20.7071 116.905 20.7071 117.177 20.7071 117.45C20.7071 117.994 20.1622 118.267 19.8897 118.267C19.6173 118.267 19.6173 118.267 19.0723 117.994C17.1651 116.905 14.713 116.633 13.8956 116.633C7.62894 116.633 3.54201 121.262 3.54201 126.981C3.54201 131.884 6.81153 137.33 14.168 137.33C16.3477 137.33 17.71 137.058 19.0723 136.241L20.1622 135.696C20.4346 135.696 20.9796 135.969 20.9796 136.513C20.9796 137.058 20.7071 137.33 20.4346 137.33C18.2549 138.42 15.5303 138.692 13.8956 138.692C5.72171 139.509 1.3623 133.79 1.3623 127.254Z" fill="black"></path><path d="M13.8951 140.054C5.99368 140.054 0.816895 134.879 0.816895 127.254C0.816895 119.901 6.26614 114.454 13.8951 114.454C16.3472 114.454 18.5269 114.998 20.4342 116.088C20.9791 116.36 21.2515 116.905 21.2515 117.45C21.2515 118.267 20.4341 119.084 19.6168 119.084C19.0718 119.084 19.0719 119.084 18.5269 118.811H18.2544C16.6197 117.722 14.44 117.722 13.6226 117.722C7.9009 117.722 3.81395 121.807 3.81395 127.526C3.81395 132.428 6.81107 137.33 13.8951 137.33C16.0748 137.33 17.4371 136.786 18.5269 136.513H18.7994C19.6168 136.241 19.8892 135.969 19.8892 135.969C20.4342 135.969 21.524 136.513 21.524 137.603C21.524 138.147 21.2515 138.692 20.4342 139.237C17.982 140.054 15.2574 140.054 13.8951 140.054ZM13.6226 115.815C6.81105 115.815 1.90673 120.445 1.90673 127.254C1.90673 132.701 5.7212 138.692 13.6226 138.692C14.9849 138.692 17.4371 138.42 19.8892 137.33C20.1617 137.058 20.1617 137.058 20.1617 137.058C20.1617 136.786 19.8892 136.786 19.8892 136.786C19.8892 136.786 19.6168 137.058 19.3443 137.058C19.0719 137.058 19.0718 137.058 19.0718 137.33C17.982 137.875 16.3472 138.42 13.8951 138.42C5.99368 138.42 2.45164 132.701 2.45164 127.254C2.45164 120.718 7.08351 116.088 13.6226 116.088C14.7125 116.088 17.1646 116.36 19.0718 117.45H19.3443C19.6168 117.45 19.6168 117.722 19.6168 117.722C19.8892 117.722 19.8892 117.722 19.8892 117.45L19.6168 117.177C17.982 116.36 16.0748 115.815 13.6226 115.815Z" fill="black"></path></svg> 