<?xml version="1.0" encoding="UTF-8"?> <svg xmlns="http://www.w3.org/2000/svg" width="211" height="152" viewBox="0 0 211 152" fill="none"><path d="M58.3131 113H4.66505C2.07336 113 0 110.927 0 108.076V4.92431C0 2.33257 2.07336 0 4.66505 0H58.3131C60.9048 0 62.9781 2.07339 62.9781 4.92431V108.335C63.2373 110.927 61.1639 113 58.3131 113ZM5.18338 107.817H58.0539V5.44266H5.18338V107.817Z" fill="black"></path><path d="M135.074 114H81.9259C79.3334 114 77 111.899 77 109.011V45.9892C77 43.3633 79.0741 41 81.9259 41H135.074C137.667 41 140 43.1007 140 45.9892V109.011C139.741 111.899 137.667 114 135.074 114ZM82.4445 108.748H134.815V46.777H82.4445V108.748Z" fill="black"></path><path d="M206.03 114H153.97C151.354 114 149 111.892 149 108.993V80.0068C149 77.3716 151.093 75 153.97 75H206.03C208.646 75 211 77.1081 211 80.0068V109.257C211 111.892 208.907 114 206.03 114ZM154.494 108.73H205.768V80.2703H154.494V108.73Z" fill="black"></path><path d="M24.9464 143.222L22.3478 149.98C22.088 150.24 22.088 150.76 21.3084 150.76C20.7887 150.76 20.269 150.5 20.269 149.98C20.269 149.72 20.269 149.46 20.5289 149.2L28.5843 128.666C28.8442 128.146 29.104 127.626 30.1434 127.626C31.1828 127.626 31.4427 128.406 31.7025 128.666L39.758 149.2C39.758 149.46 40.0178 149.72 40.0178 149.98C40.0178 150.5 39.4981 150.76 38.9784 150.76C38.4587 150.76 38.1989 150.24 38.1989 149.98L35.6003 143.222H24.9464ZM34.8208 141.662L30.1434 129.705L25.4661 141.662H34.8208Z" fill="black"></path><path d="M38.9782 151.28C37.9387 151.28 37.6789 150.5 37.419 149.98L35.0804 143.742H25.2059L22.8673 149.98C22.6074 150.5 22.3476 151.28 21.3082 151.28C20.5286 151.28 19.749 150.76 19.749 149.72C19.749 149.46 19.749 149.2 20.0089 148.94V148.68L28.0643 128.146C28.5841 127.106 29.1037 126.586 30.1431 126.586C31.1825 126.586 31.9621 127.106 32.222 128.146L40.2774 148.68C40.5373 148.94 40.5372 149.2 40.5372 149.72C40.7971 150.76 40.0176 151.28 38.9782 151.28ZM24.9461 142.702H35.6001C35.8599 142.702 36.1198 142.962 36.1198 143.222L38.7183 149.98C38.9781 150.24 38.9782 150.24 38.9782 150.24C39.238 150.24 39.238 149.98 39.238 149.98V149.72L30.9227 128.926C30.6628 128.666 30.6629 128.146 29.8833 128.146C29.3636 128.146 29.1037 128.406 28.8439 128.926L20.5286 149.72V149.98C20.5286 150.24 20.7885 150.24 20.7885 150.24C20.7885 150.24 21.0483 150.24 21.0483 149.98L23.6468 143.222C24.4264 142.702 24.6862 142.702 24.9461 142.702ZM34.8205 142.182H25.4658C25.206 142.182 24.9461 142.182 24.9461 141.922C24.9461 141.662 24.6862 141.402 24.9461 141.402L29.6234 129.445C29.6234 129.186 29.8833 128.926 30.1431 128.926C30.403 128.926 30.6629 129.186 30.6629 129.445L35.3402 141.402C35.3402 141.662 35.3402 141.922 35.3402 141.922C35.3402 142.182 35.0803 142.182 34.8205 142.182ZM26.5052 140.882H34.0409L30.403 131.265L26.5052 140.882Z" fill="black"></path><path d="M101.343 150.24C98.7446 150.24 98.7446 148.42 98.7446 147.381V130.745C98.7446 129.705 98.7446 127.886 101.343 127.886H105.501C107.58 127.886 113.037 127.886 113.037 133.344C113.037 136.724 110.958 137.763 109.658 138.543C110.958 139.063 113.816 140.103 113.816 144.002C113.816 150.24 107.839 150.24 105.761 150.24H101.343ZM105.501 137.763C106.8 137.763 110.958 137.763 110.958 133.604C110.958 129.705 107.58 129.705 105.241 129.705H101.863C101.083 129.705 100.823 129.965 100.823 130.745V137.763H105.501V137.763ZM100.564 147.381C100.564 148.42 100.823 148.42 101.603 148.42H105.241C107.32 148.42 111.737 148.42 111.737 144.002C111.737 139.323 107.32 139.323 105.501 139.323H100.304V147.381H100.564Z" fill="black"></path><path d="M105.76 151.02H101.343C98.2246 151.02 98.2246 148.421 98.2246 147.641V131.005C98.2246 130.225 98.2246 127.626 101.343 127.626H105.5C107.579 127.626 113.556 127.626 113.556 133.604C113.556 136.464 112.257 137.763 110.957 138.803C112.517 139.583 114.335 141.142 114.335 144.522C114.335 148.68 111.477 151.02 105.76 151.02ZM101.343 128.666C99.5239 128.666 99.5239 129.705 99.5239 130.745V147.381C99.5239 148.421 99.7837 149.46 101.343 149.46H105.76C108.879 149.46 113.036 148.94 113.036 144.002C113.036 140.363 110.438 139.583 109.138 139.063C108.879 139.063 108.619 138.803 108.619 138.543C108.619 138.283 108.619 138.023 108.879 138.023C110.178 137.243 111.997 136.464 111.997 133.345C111.997 129.186 108.619 128.666 105.241 128.666H101.343ZM105.5 149.2H101.863C101.083 149.2 100.044 148.94 100.044 147.381V139.323C100.044 139.063 100.303 138.543 100.823 138.543H106.02C110.438 138.543 112.776 140.363 112.776 144.002C112.517 149.2 107.579 149.2 105.5 149.2ZM101.343 147.901C101.343 147.901 101.343 147.901 101.863 147.901H105.5C108.359 147.901 111.217 147.641 111.217 144.262C111.217 140.623 108.359 140.103 105.76 140.103H101.343V147.381C101.343 147.901 101.343 147.901 101.343 147.901ZM105.5 138.543H100.563C100.303 138.543 99.7837 138.283 99.7837 137.763V130.745C99.7837 129.186 100.823 128.926 101.603 128.926H105.241C107.579 128.926 111.737 128.926 111.737 133.604C111.737 136.724 109.658 138.543 105.5 138.543ZM101.343 137.243H105.76C108.099 137.243 110.698 136.724 110.698 133.604C110.698 130.485 108.619 130.225 105.5 130.225H101.863C101.603 130.225 101.343 130.225 101.343 130.225C101.343 130.225 101.343 130.225 101.343 130.745V137.243Z" fill="black"></path><path d="M172.023 139.063C172.023 132.565 176.44 127.366 183.976 127.366C186.575 127.366 188.654 128.146 189.953 128.926C190.473 129.186 190.473 129.445 190.473 129.705C190.473 130.225 189.953 130.485 189.693 130.485C189.433 130.485 189.433 130.485 188.913 130.225C187.094 129.186 184.756 128.926 183.976 128.926C178 128.926 174.102 133.344 174.102 138.803C174.102 143.482 177.22 148.68 184.236 148.68C186.315 148.68 187.614 148.42 188.913 147.641L189.953 147.121C190.213 147.121 190.732 147.381 190.732 147.901C190.732 148.42 190.473 148.68 190.213 148.68C188.134 149.72 185.535 149.98 183.976 149.98C176.181 150.76 172.023 145.301 172.023 139.063Z" fill="black"></path><path d="M183.976 151.28C176.44 151.28 171.503 146.341 171.503 139.063C171.503 132.045 176.7 126.846 183.976 126.846C186.315 126.846 188.393 127.366 190.212 128.406C190.732 128.666 190.992 129.186 190.992 129.705C190.992 130.485 190.212 131.265 189.433 131.265C188.913 131.265 188.913 131.265 188.393 131.005H188.133C186.574 129.965 184.496 129.965 183.716 129.965C178.259 129.965 174.361 133.864 174.361 139.323C174.361 144.002 177.22 148.68 183.976 148.68C186.055 148.68 187.354 148.161 188.393 147.901H188.653C189.433 147.641 189.693 147.381 189.952 147.381C190.472 147.381 191.512 147.901 191.512 148.94C191.512 149.46 191.252 149.98 190.472 150.5C187.874 151.28 185.275 151.28 183.976 151.28ZM183.716 128.146C177.22 128.146 172.542 132.565 172.542 139.063C172.542 144.262 176.18 149.98 183.716 149.98C185.015 149.98 187.354 149.72 189.693 148.68C189.952 148.42 189.952 148.42 189.952 148.42C189.952 148.161 189.693 148.161 189.693 148.161L189.173 148.42C188.913 148.42 188.913 148.42 188.913 148.42C187.874 148.94 186.315 149.46 183.976 149.46C176.44 149.46 173.062 144.002 173.062 138.803C173.062 132.565 177.48 128.146 183.716 128.146C185.015 128.146 187.094 128.406 188.913 129.446H189.173C189.433 129.446 189.433 129.705 189.433 129.705C189.433 129.705 189.693 129.705 189.693 129.446L189.433 129.186C187.874 128.666 186.055 128.146 183.716 128.146Z" fill="black"></path></svg> 