<?xml version="1.0" encoding="UTF-8"?> <svg xmlns="http://www.w3.org/2000/svg" width="188" height="170" viewBox="0 0 188 170" fill="none"><path d="M187.39 9.285V0L47.9302 0V9.285L187.39 9.285Z" fill="#C3B68F"></path><path d="M187.26 34.7456V25.4606L47.8009 25.4606V34.7456L187.26 34.7456Z" fill="#C3B68F"></path><path d="M187.233 63.2532V53.9682L47.774 53.9682V63.2532L187.233 63.2532Z" fill="#C3B68F"></path><path d="M142.33 9.29226V0.00726318L48.1492 0.00726318V9.29226L142.33 9.29226Z" fill="black"></path><path d="M106.07 34.6598V25.3748L47.8868 25.3748V34.6598L106.07 34.6598Z" fill="black"></path><path d="M76.835 63.6944V54.4094L47.8564 54.4094V63.6944L76.835 63.6944Z" fill="black"></path><path d="M187.308 140.325V131.04L47.8483 131.04V140.325L187.308 140.325Z" fill="#C3B68F"></path><path d="M187.281 168.833V159.548L47.8214 159.548V168.833L187.281 168.833Z" fill="#C3B68F"></path><path d="M185.899 114.817V105.532L48.2512 105.532V114.817L185.899 114.817Z" fill="black"></path><path d="M145.13 140.393V131.108L48.0068 131.108V140.393L145.13 140.393Z" fill="black"></path><path d="M110.826 169.29V160.005H47.8882V169.29H110.826Z" fill="black"></path><path d="M4.52821 33.0571L2.26426 38.9452C2.03786 39.1717 2.03788 39.6246 1.35869 39.6246C0.905902 39.6246 0.453125 39.3981 0.453125 38.9452C0.453125 38.7187 0.453139 38.4923 0.679534 38.2658L7.69773 20.3752C7.92413 19.9223 8.15054 19.4694 9.05612 19.4694C9.9617 19.4694 10.1881 20.1487 10.4145 20.3752L17.4328 38.2658C17.4328 38.4923 17.6592 38.7187 17.6592 38.9452C17.6592 39.3981 17.2063 39.6246 16.7535 39.6246C16.3008 39.6246 16.0744 39.1717 16.0744 38.9452L13.8104 33.0571H4.52821ZM13.1313 31.4719L9.05612 21.0546L4.98103 31.4719H13.1313Z" fill="black"></path><path d="M16.7533 40.0775C15.8477 40.0775 15.6213 39.3981 15.3949 38.9452L13.3573 33.51H4.75432L2.71677 38.9452C2.49038 39.3981 2.26397 40.0775 1.35839 40.0775C0.6792 40.0775 0 39.6245 0 38.7187C0 38.4922 1.38147e-05 38.2658 0.226409 38.0393V37.8128L7.24468 19.9223C7.69747 19.0164 8.15024 18.5635 9.05582 18.5635C9.9614 18.5635 10.6406 19.0164 10.867 19.9223L17.8852 37.8128C18.1116 38.0393 18.1116 38.2658 18.1116 38.7187C18.338 39.6245 17.4324 40.0775 16.7533 40.0775ZM4.52791 32.3777H13.8101C14.0365 32.3777 14.263 32.6042 14.263 32.8306L16.5269 38.7187C16.7533 38.9452 16.7533 38.9452 16.7533 38.9452C16.9796 38.9452 16.9797 38.7187 16.9797 38.7187V38.4922L9.73505 20.3752C9.50865 20.1487 9.5086 19.6958 8.82941 19.6958C8.37662 19.6958 8.15024 19.9223 7.92384 20.3752L0.679228 38.4922V38.7187C0.679228 38.9452 0.905568 38.9452 0.905568 38.9452C0.905568 38.9452 1.13198 38.9452 1.13198 38.7187L3.39593 32.8306C4.07512 32.6042 4.30151 32.3777 4.52791 32.3777ZM13.131 32.1513H4.98073C4.75433 32.1513 4.52791 32.1513 4.52791 31.9248C4.52791 31.6983 4.30151 31.4719 4.52791 31.4719L8.60307 21.0546C8.60307 20.8281 8.82942 20.6016 9.05582 20.6016C9.28222 20.6016 9.50864 20.8281 9.50864 21.0546L13.5837 31.4719C13.5837 31.6983 13.5837 31.9248 13.5837 31.9248C13.5837 31.9248 13.3574 32.1513 13.131 32.1513ZM5.8863 31.0189H12.4518L9.28223 22.6398L5.8863 31.0189Z" fill="black"></path><path d="M4.07547 142.665C1.81152 142.665 1.81152 141.08 1.81152 140.174V125.68C1.81152 124.775 1.81152 123.189 4.07547 123.189H7.69773C9.50888 123.189 14.2632 123.189 14.2632 127.945C14.2632 130.889 12.452 131.795 11.3201 132.474C12.452 132.927 14.9424 133.833 14.9424 137.23C14.9424 142.665 9.73529 142.665 7.92414 142.665H4.07547ZM7.92414 131.795C9.05611 131.795 12.6784 131.795 12.6784 128.172C12.6784 124.775 9.73528 124.775 7.69773 124.775H4.52822C3.84903 124.775 3.62265 125.001 3.62265 125.68V131.795H7.92414ZM3.62265 140.401C3.62265 141.306 3.84903 141.306 4.52822 141.306H7.69773C9.50888 141.306 13.3576 141.306 13.3576 137.457C13.3576 133.38 9.5089 133.38 7.92414 133.38H3.39624V140.401H3.62265Z" fill="black"></path><path d="M7.92387 143.345H4.07518C1.35843 143.345 1.3584 141.08 1.3584 140.401V125.907C1.3584 125.228 1.35843 122.963 4.07518 122.963H7.69746C9.50863 122.963 14.7158 122.963 14.7158 128.172C14.7158 130.663 13.5838 131.795 12.4518 132.701C13.8102 133.38 15.395 134.739 15.395 137.683C15.6214 141.306 12.9046 143.345 7.92387 143.345ZM4.07518 123.869C2.49041 123.869 2.49038 124.775 2.49038 125.681V140.174C2.49038 141.08 2.7168 141.986 4.07518 141.986H7.92387C10.6406 141.986 14.263 141.533 14.263 137.23C14.263 134.06 11.999 133.38 10.8671 132.927C10.6407 132.927 10.4142 132.701 10.4142 132.474C10.4142 132.248 10.4143 132.021 10.6406 132.021C11.7726 131.342 13.3574 130.663 13.3574 127.945C13.3574 124.322 10.4143 123.869 7.47112 123.869H4.07518V123.869ZM7.69746 141.759H4.52793C3.84874 141.759 2.9432 141.533 2.9432 140.174V133.154C2.9432 132.927 3.16957 132.474 3.62236 132.474H8.15028C11.999 132.474 14.0366 134.06 14.0366 137.23C13.8102 141.759 9.50863 141.759 7.69746 141.759ZM4.07518 140.627C4.07518 140.627 4.07514 140.627 4.52793 140.627H7.69746C10.1878 140.627 12.6782 140.401 12.6782 137.457C12.6782 134.286 10.1878 133.833 7.92387 133.833H4.07518V140.401C4.07518 140.627 4.07518 140.627 4.07518 140.627ZM7.92387 132.474H3.62236C3.39596 132.474 2.9432 132.248 2.9432 131.795V125.681C2.9432 124.322 3.84874 124.095 4.52793 124.095H7.69746C9.73502 124.095 13.3574 124.095 13.3574 128.172C13.131 131.116 11.3198 132.474 7.92387 132.474ZM4.07518 131.342H7.92387C9.96143 131.342 12.2254 130.889 12.2254 128.172C12.2254 125.454 10.4142 125.228 7.69746 125.228H4.52793C4.30153 125.228 4.07518 125.228 4.07518 125.228C4.07518 125.228 4.07518 125.228 4.07518 125.681V131.342Z" fill="black"></path></svg> 