<?xml version="1.0" encoding="UTF-8"?> <svg xmlns="http://www.w3.org/2000/svg" width="221" height="172" viewBox="0 0 221 172" fill="none"><path d="M83.7876 92.5605H10.0615C4.87949 92.5605 0.639648 88.3211 0.639648 83.1396V9.42092C0.639648 4.23941 4.87949 0 10.0615 0H83.7876C88.9696 0 93.2095 4.23941 93.2095 9.42092V83.1396C93.2095 88.3211 88.9696 92.5605 83.7876 92.5605Z" fill="black"></path><path d="M71.7748 33.4444H22.0745C20.4257 33.4444 19.0123 32.0313 19.0123 30.3826C19.0123 28.7339 20.4257 27.3208 22.0745 27.3208H71.7748C73.4237 27.3208 74.8369 28.7339 74.8369 30.3826C74.8369 32.0313 73.4237 33.4444 71.7748 33.4444Z" fill="white"></path><path d="M50.3401 50.6373H22.0745C20.4257 50.6373 19.0123 49.2241 19.0123 47.5755C19.0123 45.9268 20.4257 44.5137 22.0745 44.5137H50.3401C51.9889 44.5137 53.4022 45.9268 53.4022 47.5755C53.6377 49.2241 52.2245 50.6373 50.3401 50.6373Z" fill="white"></path><path d="M37.8558 68.3016H21.8387C20.1899 68.3016 18.7766 66.8884 18.7766 65.2398C18.7766 63.5911 20.1899 62.178 21.8387 62.178H37.8558C39.5047 62.178 40.918 63.5911 40.918 65.2398C41.1535 66.8884 39.7402 68.3016 37.8558 68.3016Z" fill="white"></path><path d="M211.218 171.696H137.492C132.31 171.696 128.07 167.457 128.07 162.275V88.5564C128.07 83.3749 132.31 79.1355 137.492 79.1355H211.218C216.4 79.1355 220.64 83.3749 220.64 88.5564V162.275C220.64 167.457 216.4 171.696 211.218 171.696Z" fill="black"></path><path d="M194.023 108.34L158.927 143.433C157.749 144.611 155.629 144.611 154.452 143.433C153.274 142.256 153.274 140.136 154.452 138.958L189.548 103.865C190.726 102.688 192.846 102.688 194.023 103.865C195.437 105.043 195.437 107.163 194.023 108.34Z" fill="white"></path><path d="M154.452 108.34L189.548 143.433C190.726 144.611 192.846 144.611 194.023 143.433C195.201 142.256 195.201 140.136 194.023 138.958L158.927 103.865C157.749 102.688 155.629 102.688 154.452 103.865C153.274 105.043 153.274 107.163 154.452 108.34Z" fill="white"></path><path d="M122.182 140.136C121.004 140.136 119.826 139.901 118.884 139.665C116.529 138.723 114.88 137.074 114.173 134.719C109.933 120.117 125.479 109.989 126.186 109.518C127.364 108.811 128.777 109.047 129.484 110.225C130.19 111.402 129.955 112.815 128.777 113.522C128.542 113.522 115.586 122.236 118.649 133.541C118.884 134.483 119.355 135.19 120.297 135.426C125.008 137.074 137.963 131.186 153.038 120.588C154.216 119.881 155.629 120.117 156.336 121.059C157.043 122.236 156.807 123.649 155.865 124.356C147.15 130.48 131.839 140.136 122.182 140.136Z" fill="#999899"></path><path d="M153.51 134.719L151.39 134.248L153.981 122.943L142.439 121.059L142.674 118.704L156.807 120.823L153.51 134.719Z" fill="#999899"></path><path d="M114.644 47.3402C113.938 47.3402 113.467 46.6336 113.467 46.1626C113.467 46.1626 113.467 45.6916 113.702 44.7495C113.938 44.0429 114.409 43.8074 115.115 43.8074C115.822 44.0429 116.058 44.5139 116.058 45.2205C115.822 45.6916 115.822 46.1626 115.822 46.1626C115.822 46.8691 115.351 47.3402 114.644 47.3402Z" fill="black"></path><path d="M118.178 40.2745C117.942 40.2745 117.707 40.2745 117.471 40.039C117 39.5679 117 38.8614 117.471 38.3903C117.942 37.6837 118.649 37.2127 119.355 36.7416C119.826 36.2706 120.533 36.5061 121.004 36.9772C121.475 37.4482 121.24 38.1548 120.769 38.6258C120.298 39.0969 119.591 39.5679 119.12 40.039C118.884 40.039 118.413 40.2745 118.178 40.2745Z" fill="black"></path><path d="M168.584 49.931C168.113 49.931 167.642 49.6955 167.407 49.2244C167.171 48.5179 166.936 47.8113 166.465 47.1047C166.229 46.6337 166.465 45.9271 166.936 45.4561C167.407 45.2206 168.113 45.4561 168.584 45.9271C169.056 46.6337 169.291 47.3402 169.527 48.0468C169.762 48.7534 169.527 49.2244 168.82 49.46C168.82 49.931 168.82 49.931 168.584 49.931ZM163.403 42.1587C163.167 42.1587 162.696 42.1588 162.696 41.9232C162.225 41.4522 161.518 40.9811 161.047 40.5101C160.576 40.039 160.34 39.3325 160.811 38.8614C161.283 38.3904 161.989 38.1548 162.46 38.6259C163.167 39.0969 163.638 39.8035 164.345 40.2745C164.816 40.7456 164.816 41.4522 164.345 41.9232C164.109 42.1588 163.874 42.1587 163.403 42.1587ZM155.629 37.2128C155.394 37.2128 155.394 37.2128 155.158 37.2128C154.452 36.9773 153.745 36.7417 153.038 36.5062C152.332 36.2707 152.096 35.5641 152.332 35.0931C152.567 34.3865 153.274 34.151 153.745 34.3865C154.452 34.622 155.394 34.8575 156.101 35.3286C156.807 35.5641 157.043 36.2707 156.807 36.9772C156.572 36.9772 156.101 37.2128 155.629 37.2128ZM125.951 35.3286C125.479 35.3286 125.008 35.0931 124.773 34.622C124.537 33.9154 125.008 33.4444 125.479 33.2089C126.186 32.9733 126.893 32.7378 127.835 32.5023C128.542 32.2668 129.013 32.7378 129.248 33.4444C129.484 34.151 129.013 34.622 128.306 34.8576C127.599 35.0931 126.893 35.3286 126.186 35.5641C126.186 35.3286 126.186 35.3286 125.951 35.3286ZM146.679 34.622C146.208 34.622 145.736 34.3865 145.501 34.3865L144.323 34.151C143.617 34.151 143.145 33.4444 143.381 32.7378C143.381 32.0313 144.088 31.5602 144.794 31.7957L145.972 32.0312C146.443 32.0312 146.679 32.0313 147.15 32.2668C147.856 32.2668 148.328 32.9734 148.092 33.6799C147.856 34.151 147.385 34.622 146.679 34.622ZM135.137 33.6799C134.43 33.6799 133.959 33.2089 133.959 32.5023C133.959 31.7958 134.43 31.3247 135.137 31.3247C135.608 31.3247 136.315 31.3247 136.786 31.3247H137.492C138.199 31.3247 138.67 31.7958 138.67 32.5023C138.67 33.2089 138.199 33.6799 137.492 33.6799H136.786C136.315 33.6799 135.608 33.6799 135.137 33.6799Z" fill="black"></path><path d="M170.233 57.9388C169.527 57.9388 169.056 57.4677 169.056 56.7612C169.056 56.2901 169.056 56.0546 169.056 55.5835C169.056 54.877 169.527 54.4059 169.998 54.1704C170.704 54.1704 171.176 54.6414 171.411 55.1125C171.411 55.5835 171.411 55.8191 171.411 56.2901C171.647 57.4677 170.94 57.9388 170.233 57.9388C170.233 57.9388 170.469 57.9388 170.233 57.9388Z" fill="black"></path><path d="M162.46 53.9351L169.291 67.8309L178.006 55.1127L162.46 53.9351Z" fill="black"></path></svg> 