<?xml version="1.0" encoding="UTF-8"?> <svg xmlns="http://www.w3.org/2000/svg" width="221" height="179" viewBox="0 0 221 179" fill="none"><path d="M211.218 178.997H137.492C132.31 178.997 128.07 174.758 128.07 169.576V95.8577C128.07 90.6762 132.31 86.4368 137.492 86.4368H211.218C216.4 86.4368 220.64 90.6762 220.64 95.8577V169.576C220.64 174.758 216.4 178.997 211.218 178.997Z" fill="black"></path><path d="M199.205 132.599H149.505C147.856 132.599 146.443 131.186 146.443 129.537C146.443 127.889 147.856 126.476 149.505 126.476H199.205C200.854 126.476 202.267 127.889 202.267 129.537C202.267 131.186 200.854 132.599 199.205 132.599Z" fill="white"></path><path d="M83.7876 92.5605H10.0615C4.87949 92.5605 0.639648 88.3211 0.639648 83.1396V9.42092C0.639648 4.23941 4.87949 0 10.0615 0H83.7876C88.9696 0 93.2095 4.23941 93.2095 9.42092V83.1396C93.2095 88.3211 88.9696 92.5605 83.7876 92.5605Z" fill="black"></path><path d="M71.7748 27.3206H22.0745C20.4257 27.3206 19.0123 25.9075 19.0123 24.2588C19.0123 22.6102 20.4257 21.197 22.0745 21.197H71.7748C73.4237 21.197 74.8369 22.6102 74.8369 24.2588C74.8369 25.672 73.4237 27.3206 71.7748 27.3206Z" fill="white"></path><path d="M71.7748 46.1624H22.0745C20.4257 46.1624 19.0123 44.7493 19.0123 43.1006C19.0123 41.452 20.4257 40.0388 22.0745 40.0388H71.7748C73.4237 40.0388 74.8369 41.452 74.8369 43.1006C74.8369 44.7493 73.4237 46.1624 71.7748 46.1624Z" fill="white"></path><path d="M71.7748 65.2401H22.0745C20.4257 65.2401 19.0123 63.8269 19.0123 62.1783C19.0123 60.5296 20.4257 59.1165 22.0745 59.1165H71.7748C73.4237 59.1165 74.8369 60.5296 74.8369 62.1783C74.8369 63.8269 73.4237 65.2401 71.7748 65.2401Z" fill="white"></path><path d="M117.235 52.286C117 52.286 117 52.286 117.235 52.286C116.529 52.286 116.058 51.5795 116.058 51.1084C116.058 51.1084 116.058 50.6374 116.293 49.6953C116.529 48.9887 117 48.7532 117.706 48.7532C118.413 48.9887 118.649 49.4597 118.649 50.1663C118.413 50.6374 118.413 51.1084 118.413 51.1084C118.178 51.815 117.706 52.286 117.235 52.286Z" fill="black"></path><path d="M120.533 44.9849C120.297 44.9849 120.062 44.9849 119.826 44.7494C119.355 44.2783 119.355 43.5718 119.826 43.1007C120.297 42.3942 121.004 41.9231 121.711 41.4521C122.182 40.981 122.888 41.2166 123.359 41.6876C123.831 42.1586 123.595 42.8652 123.124 43.3363C122.653 43.8073 121.946 44.2783 121.475 44.7494C121.24 44.7494 121.004 44.9849 120.533 44.9849Z" fill="black"></path><path d="M170.94 54.8768C170.469 54.8768 169.998 54.6413 169.762 54.1702C169.527 53.4637 169.291 52.7571 168.82 52.0505C168.584 51.5795 168.82 50.8729 169.291 50.4019C169.762 50.1664 170.469 50.4019 170.94 50.8729C171.411 51.5795 171.647 52.2861 171.882 52.9926C172.118 53.6992 171.882 54.1702 171.175 54.4058C171.411 54.8768 171.175 54.8768 170.94 54.8768ZM165.993 47.1046C165.758 47.1046 165.287 47.1046 165.287 46.869C164.816 46.398 164.109 45.9269 163.638 45.4559C163.167 44.9849 162.931 44.2783 163.402 43.8072C163.873 43.3362 164.58 43.1007 165.051 43.5717C165.758 44.0428 166.229 44.7493 166.936 45.2204C167.407 45.6914 167.407 46.398 166.936 46.869C166.464 46.869 166.229 47.1046 165.993 47.1046ZM158.22 41.9231C157.985 41.9231 157.985 41.9231 157.749 41.9231C157.043 41.6875 156.336 41.452 155.629 41.2165C154.923 40.981 154.687 40.2744 154.923 39.8034C155.158 39.0968 155.865 38.8613 156.336 39.0968C157.043 39.3323 157.985 39.5678 158.691 40.0389C159.398 40.2744 159.634 40.981 159.398 41.6875C158.927 41.6875 158.691 41.9231 158.22 41.9231ZM128.306 40.0389C127.835 40.0389 127.364 39.8034 127.128 39.3323C126.893 38.6257 127.364 38.1547 127.835 37.9192C128.541 37.6836 129.248 37.4481 130.19 37.2126C130.897 36.9771 131.368 37.4481 131.604 38.1547C131.839 38.8613 131.368 39.3323 130.661 39.5678C129.955 39.8034 129.248 40.0389 128.541 40.2744C128.777 40.0389 128.541 40.0389 128.306 40.0389ZM149.27 39.3323C149.034 39.3323 149.034 39.3323 149.27 39.3323C148.798 39.3323 148.327 39.0968 148.092 39.0968L146.914 38.8613C146.207 38.8613 145.736 38.1547 145.972 37.4481C145.972 36.7416 146.679 36.2705 147.385 36.506L148.563 36.7416C149.034 36.7416 149.27 36.7416 149.741 36.9771C150.447 36.9771 150.918 37.6836 150.683 38.3902C150.212 39.0968 149.741 39.3323 149.27 39.3323ZM137.492 38.6257C136.786 38.6257 136.315 38.1547 136.315 37.4481C136.315 36.7416 136.786 36.2705 137.492 36.2705C137.963 36.2705 138.67 36.2705 139.141 36.2705H139.848C140.554 36.2705 141.025 36.7416 141.025 37.4481C141.025 38.1547 140.554 38.6257 139.848 38.6257H139.141C138.67 38.6257 138.199 38.6257 137.492 38.6257C137.492 38.6257 137.728 38.6257 137.492 38.6257Z" fill="black"></path><path d="M172.824 62.8846C172.118 62.8846 171.646 62.4135 171.646 61.707C171.646 61.2359 171.646 61.0004 171.646 60.5294C171.646 59.8228 172.118 59.3517 172.589 59.1162C173.295 59.1162 173.766 59.5873 174.002 60.0583C174.002 60.5293 174.002 60.7649 174.002 61.2359C174.002 62.178 173.531 62.6491 172.824 62.8846Z" fill="black"></path><path d="M164.816 58.8809L171.647 72.7767L180.362 59.823L164.816 58.8809Z" fill="black"></path></svg> 