<?xml version="1.0" encoding="UTF-8"?> <svg xmlns="http://www.w3.org/2000/svg" width="222" height="177" viewBox="0 0 222 177" fill="none"><path d="M83.2323 93.2643H9.50622C4.32419 93.2643 0.0843506 89.0249 0.0843506 83.8434V10.1248C0.0843506 4.94327 4.32419 0.703857 9.50622 0.703857H83.2323C88.4143 0.703857 92.6542 4.94327 92.6542 10.1248V83.8434C92.6542 89.0249 88.4143 93.2643 83.2323 93.2643Z" fill="black"></path><path d="M71.2195 28.0244H21.5191C19.8703 28.0244 18.457 26.6113 18.457 24.9626C18.457 23.314 19.8703 21.9009 21.5191 21.9009H71.2195C72.8684 21.9009 74.2816 23.314 74.2816 24.9626C74.2816 26.6113 72.8684 28.0244 71.2195 28.0244Z" fill="white"></path><path d="M71.2195 47.1016H21.5191C19.8703 47.1016 18.457 45.6885 18.457 44.0399C18.457 42.3912 19.8703 40.978 21.5191 40.978H71.2195C72.8684 40.978 74.2816 42.3912 74.2816 44.0399C74.2816 45.6885 72.8684 47.1016 71.2195 47.1016Z" fill="white"></path><path d="M71.2195 66.1792H21.5191C19.8703 66.1792 18.457 64.7661 18.457 63.1175C18.457 61.4688 19.8703 60.0557 21.5191 60.0557H71.2195C72.8684 60.0557 74.2816 61.4688 74.2816 63.1175C74.2816 64.5306 72.8684 66.1792 71.2195 66.1792Z" fill="white"></path><path d="M211.605 176.875H137.879C132.697 176.875 128.457 172.636 128.457 167.454V93.7354C128.457 88.5539 132.697 84.3145 137.879 84.3145H211.605C216.787 84.3145 221.027 88.5539 221.027 93.7354V167.454C221.027 172.636 216.787 176.875 211.605 176.875Z" fill="black"></path><path d="M194.646 113.519L159.549 148.612C158.372 149.79 156.252 149.79 155.074 148.612C153.896 147.435 153.896 145.315 155.074 144.137L190.17 109.044C191.348 107.867 193.468 107.867 194.646 109.044C195.824 110.222 195.824 112.106 194.646 113.519Z" fill="white"></path><path d="M154.838 113.519L189.935 148.612C191.113 149.79 193.232 149.79 194.41 148.612C195.588 147.435 195.588 145.315 194.41 144.137L159.314 109.044C158.136 107.867 156.016 107.867 154.838 109.044C153.661 110.222 153.661 112.106 154.838 113.519Z" fill="white"></path><path d="M206.423 136.601C206.188 136.601 206.188 136.601 205.952 136.601C204.774 136.365 203.832 135.187 204.068 133.774C205.716 125.531 207.365 105.747 188.757 97.9747C160.02 85.963 149.421 106.925 149.185 107.867C148.714 109.044 147.301 109.515 146.123 109.044C144.945 108.573 144.474 107.16 144.945 105.982C145.181 105.747 157.665 80.075 190.641 93.7353C213.254 103.156 210.192 127.651 208.779 134.952C208.307 135.894 207.365 136.601 206.423 136.601Z" fill="#999899"></path><path d="M197.943 125.06L199.828 123.646L206.188 133.303L215.374 126.237L216.787 128.121L205.717 136.836L197.943 125.06Z" fill="#999899"></path><path d="M113.618 49.6925C112.911 49.6925 112.44 48.9859 112.44 48.5149C112.44 48.5149 112.44 48.0438 112.675 47.1017C112.911 46.3952 113.382 46.1597 114.089 46.1597C114.795 46.3952 115.031 46.8662 115.031 47.5728C114.795 48.0439 114.795 48.5149 114.795 48.5149C114.795 49.2215 114.324 49.6925 113.618 49.6925Z" fill="black"></path><path d="M117.151 42.3915C116.915 42.3915 116.68 42.3915 116.444 42.1559C115.973 41.6849 115.973 40.9783 116.444 40.5073C116.915 39.8007 117.622 39.3296 118.329 38.8586C118.8 38.3875 119.506 38.6231 119.978 39.0941C120.449 39.5652 120.213 40.2718 119.742 40.7428C119.271 41.2139 118.564 41.6849 118.093 42.1559C117.858 42.3915 117.387 42.3915 117.151 42.3915Z" fill="black"></path><path d="M167.558 52.2833C167.087 52.2833 166.616 52.0478 166.38 51.5767C166.145 50.8701 165.909 50.1636 165.438 49.457C165.203 48.986 165.438 48.2794 165.909 47.8084C166.38 47.5729 167.087 47.8084 167.558 48.2794C168.029 48.986 168.265 49.6925 168.5 50.3991C168.736 51.1057 168.5 51.5767 167.794 51.8123C167.794 52.2833 167.794 52.2833 167.558 52.2833ZM162.376 44.511C162.14 44.511 161.669 44.5111 161.669 44.2755C161.198 43.8045 160.492 43.3334 160.02 42.8624C159.549 42.3913 159.314 41.6848 159.785 41.2137C160.256 40.7427 160.963 40.5071 161.434 40.9782C162.14 41.4492 162.611 42.1558 163.318 42.6269C163.789 43.0979 163.789 43.8045 163.318 44.2755C163.083 44.5111 162.847 44.511 162.376 44.511ZM154.603 39.3295C154.367 39.3295 154.367 39.3295 154.132 39.3295C153.425 39.094 152.719 38.8585 152.012 38.6229C151.305 38.3874 151.07 37.6809 151.305 37.2099C151.541 36.5033 152.247 36.2677 152.719 36.5032C153.425 36.7388 154.367 36.9743 155.074 37.4453C155.781 37.6808 156.016 38.3874 155.781 39.094C155.545 39.094 155.074 39.3295 154.603 39.3295ZM124.924 37.4453C124.453 37.4453 123.982 37.2098 123.746 36.7388C123.511 36.0322 123.982 35.5611 124.453 35.3256C125.16 35.0901 125.866 34.8546 126.808 34.6191C127.515 34.3836 127.986 34.8546 128.222 35.5612C128.457 36.2677 127.986 36.7388 127.279 36.9743C126.573 37.2098 125.866 37.4453 125.16 37.6809C125.16 37.4453 125.16 37.4453 124.924 37.4453ZM145.652 36.9743C145.181 36.9743 144.71 36.7388 144.474 36.7388L143.297 36.5032C142.59 36.5032 142.119 35.7967 142.354 35.0901C142.354 34.3835 143.061 33.9125 143.768 34.148L144.945 34.3835C145.417 34.3835 145.652 34.3836 146.123 34.6191C146.83 34.6191 147.301 35.3257 147.065 36.0322C146.83 36.5033 146.359 36.9743 145.652 36.9743ZM134.11 36.0322C133.404 36.0322 132.933 35.5612 132.933 34.8546C132.933 34.148 133.404 33.677 134.11 33.677C134.581 33.677 135.288 33.677 135.759 33.677H136.466C137.172 33.677 137.644 34.148 137.644 34.8546C137.644 35.5612 137.172 36.0322 136.466 36.0322H135.759C135.053 36.0322 134.581 36.0322 134.11 36.0322Z" fill="black"></path><path d="M169.207 60.291C168.5 60.291 168.029 59.82 168.029 59.1134C168.029 58.6424 168.029 58.4069 168.029 57.9358C168.029 57.2293 168.5 56.7582 168.971 56.5227C169.678 56.5227 170.149 56.9937 170.384 57.4648C170.384 57.9358 170.384 58.1713 170.384 58.6424C170.384 59.5844 169.913 60.291 169.207 60.291C169.207 60.291 169.442 60.291 169.207 60.291Z" fill="black"></path><path d="M161.434 56.2871L168.264 70.183L176.98 57.2293L161.434 56.2871Z" fill="black"></path></svg> 