<?xml version="1.0" encoding="UTF-8"?> <svg xmlns="http://www.w3.org/2000/svg" width="237" height="172" viewBox="0 0 237 172" fill="none"><path d="M83.1479 92.6118H9.42186C4.23984 92.6118 0 88.3724 0 83.1909V9.47219C0 4.29068 4.23984 0.0512695 9.42186 0.0512695H83.1479C88.33 0.0512695 92.5698 4.29068 92.5698 9.47219V83.1909C92.5698 88.3724 88.33 92.6118 83.1479 92.6118Z" fill="black"></path><path d="M71.1351 27.1365H21.4348C19.786 27.1365 18.3727 25.7234 18.3727 24.0747C18.3727 22.426 19.786 21.0129 21.4348 21.0129H71.1351C72.7839 21.0129 74.1972 22.426 74.1972 24.0747C74.1972 25.7234 72.7839 27.1365 71.1351 27.1365Z" fill="white"></path><path d="M71.1351 46.2139H21.4348C19.786 46.2139 18.3727 44.8008 18.3727 43.1521C18.3727 41.5035 19.786 40.0903 21.4348 40.0903H71.1351C72.7839 40.0903 74.1972 41.5035 74.1972 43.1521C74.1972 44.8008 72.7839 46.2139 71.1351 46.2139Z" fill="white"></path><path d="M71.1351 65.2913H21.4348C19.786 65.2913 18.3727 63.8782 18.3727 62.2295C18.3727 60.5809 19.786 59.1677 21.4348 59.1677H71.1351C72.7839 59.1677 74.1972 60.5809 74.1972 62.2295C74.1972 63.8782 72.7839 65.2913 71.1351 65.2913Z" fill="white"></path><path d="M206.574 171.512H132.848C127.666 171.512 123.426 167.273 123.426 162.091V88.3726C123.426 83.1911 127.666 78.9517 132.848 78.9517H206.574C211.756 78.9517 215.996 83.1911 215.996 88.3726V162.091C215.996 167.273 211.756 171.512 206.574 171.512Z" fill="black"></path><path d="M189.615 108.157L154.518 143.249C153.341 144.427 151.221 144.427 150.043 143.249C148.865 142.072 148.865 139.952 150.043 138.775L185.14 103.682C186.317 102.504 188.437 102.504 189.615 103.682C190.793 104.859 190.793 106.979 189.615 108.157Z" fill="white"></path><path d="M149.808 108.157L184.904 143.249C186.082 144.427 188.202 144.427 189.379 143.249C190.557 142.072 190.557 139.952 189.379 138.775L154.283 103.682C153.105 102.504 150.985 102.504 149.808 103.682C148.63 104.859 148.63 106.979 149.808 108.157Z" fill="white"></path><path d="M144.155 147.96C142.035 147.96 109.058 147.724 105.525 130.06C104.818 126.292 105.525 122.994 107.645 119.697C113.298 111.689 127.195 108.156 135.204 106.979C136.381 106.743 137.795 107.685 137.795 108.863C138.03 110.04 137.088 111.454 135.91 111.454C131.435 112.16 116.596 115.222 111.649 122.288C110.236 124.407 109.765 126.527 110.236 128.882C112.356 140.423 135.439 142.778 144.155 142.778C145.568 142.778 146.51 143.72 146.51 145.133C146.746 147.018 145.568 147.96 144.155 147.96C144.155 147.96 144.39 147.96 144.155 147.96Z" fill="#999899"></path><path d="M129.786 120.639L127.902 119.226L134.733 109.805L124.84 103.681L126.253 101.562L138.03 109.098L129.786 120.639Z" fill="#999899"></path><path d="M206.339 143.72C205.161 143.72 204.219 143.014 203.983 141.836C203.748 140.659 204.69 139.245 205.868 139.245C210.343 138.539 225.183 135.477 230.129 128.411C231.542 126.292 232.013 124.172 231.542 121.817C229.422 110.041 206.574 107.685 197.859 107.685C196.446 107.685 195.504 106.743 195.504 105.33C195.504 103.917 196.446 102.975 197.859 102.975C199.272 102.975 233.191 102.975 236.489 120.875C237.195 124.643 236.489 127.94 234.369 131.238C228.716 139.245 214.818 142.778 206.81 143.956C206.574 143.72 206.574 143.72 206.339 143.72Z" fill="#999899"></path><path d="M212.227 130.296L214.112 131.709L207.281 141.13L217.174 147.253L215.761 149.373L203.748 141.836L212.227 130.296Z" fill="#999899"></path><path d="M106.231 54.6925C105.525 54.6925 105.054 53.9859 105.054 53.5149C105.054 53.5149 105.054 53.0438 105.289 52.1017C105.525 51.3952 105.996 51.1597 106.703 51.1597C107.409 51.3952 107.645 51.8662 107.645 52.5728C107.409 53.0439 107.409 53.5149 107.409 53.5149C107.409 54.2215 106.703 54.6925 106.231 54.6925Z" fill="black"></path><path d="M109.765 47.3915C109.529 47.3915 109.294 47.3915 109.058 47.1559C108.587 46.6849 108.587 45.9783 109.058 45.5073C109.529 44.8007 110.236 44.3296 110.942 43.8586C111.413 43.3875 112.12 43.6231 112.591 44.0941C113.062 44.5652 112.827 45.2718 112.356 45.7428C111.885 46.2139 111.178 46.6849 110.707 47.1559C110.236 47.3915 110 47.3915 109.765 47.3915Z" fill="black"></path><path d="M160.172 57.2833C159.701 57.2833 159.23 57.0478 158.994 56.5767C158.758 55.8701 158.523 55.1636 158.052 54.457C157.816 53.986 158.052 53.2794 158.523 52.8084C158.994 52.5729 159.701 52.8084 160.172 53.2794C160.643 53.986 160.878 54.6925 161.114 55.3991C161.349 56.1057 161.114 56.5767 160.407 56.8123C160.407 57.2833 160.172 57.2833 160.172 57.2833ZM154.99 49.511C154.754 49.511 154.283 49.5111 154.283 49.2755C153.812 48.8045 153.105 48.3334 152.634 47.8624C152.163 47.3913 151.928 46.6848 152.399 46.2137C152.87 45.7427 153.576 45.5071 154.047 45.9782C154.754 46.4492 155.225 47.1558 155.932 47.6269C156.403 48.0979 156.403 48.8045 155.932 49.2755C155.696 49.5111 155.225 49.511 154.99 49.511ZM147.217 44.3295C146.981 44.3295 146.981 44.3295 146.746 44.3295C146.039 44.094 145.332 43.8585 144.626 43.6229C143.919 43.3874 143.683 42.6809 143.919 42.2099C144.155 41.5033 144.861 41.2677 145.332 41.5032C146.039 41.7388 146.981 41.9743 147.688 42.4453C148.394 42.6808 148.63 43.3874 148.394 44.094C148.159 44.094 147.688 44.3295 147.217 44.3295ZM117.538 42.4453C117.067 42.4453 116.596 42.2098 116.36 41.7388C116.124 41.0322 116.596 40.5611 117.067 40.3256C117.773 40.0901 118.48 39.8546 119.422 39.6191C120.129 39.3836 120.6 39.8546 120.835 40.5612C121.071 41.2677 120.6 41.7388 119.893 41.9743C119.187 42.2098 118.48 42.4453 117.773 42.6809C117.773 42.4453 117.538 42.4453 117.538 42.4453ZM138.266 41.9743C138.266 41.9743 138.03 41.9743 138.266 41.9743C137.795 41.9743 137.324 41.7388 137.088 41.7388L135.91 41.5032C135.204 41.5032 134.733 40.7967 134.968 40.0901C134.968 39.3835 135.675 38.9125 136.381 39.148L137.559 39.3835C138.03 39.3835 138.266 39.3836 138.737 39.6191C139.444 39.6191 139.915 40.3257 139.679 41.0322C139.444 41.5033 138.737 41.9743 138.266 41.9743ZM126.724 41.0322C126.017 41.0322 125.546 40.5612 125.546 39.8546C125.546 39.148 126.017 38.677 126.724 38.677C127.195 38.677 127.902 38.677 128.373 38.677H129.08C129.786 38.677 130.257 39.148 130.257 39.8546C130.257 40.5612 129.786 41.0322 129.08 41.0322H128.373C127.666 41.0322 127.195 41.0322 126.724 41.0322Z" fill="black"></path><path d="M161.82 65.291C161.114 65.291 160.643 64.82 160.643 64.1134C160.643 63.6424 160.643 63.4069 160.643 62.9358C160.643 62.2293 161.114 61.7582 161.585 61.5227C162.292 61.5227 162.763 61.9937 162.998 62.4648C162.998 62.9358 162.998 63.1713 162.998 63.6424C162.998 64.5844 162.527 65.291 161.82 65.291Z" fill="black"></path><path d="M154.047 61.2871L160.643 75.183L169.358 62.2293L154.047 61.2871Z" fill="black"></path></svg> 