<?xml version="1.0" encoding="UTF-8"?> <svg xmlns="http://www.w3.org/2000/svg" viewBox="0 0 158.81 114.86"><defs><style>.cls-1{fill:#32abd4;}.cls-2{fill:#29b6e3;}.cls-3{fill:#fff;}.cls-4{fill:#040000;}.cls-5{fill:#a782b0;}.cls-6{fill:#ad86b7;}.cls-7{fill:#ebb746;}.cls-8{fill:#f4bd44;}.cls-11,.cls-9{fill:none;}.cls-9{stroke:#999899;stroke-miterlimit:10;stroke-width:2px;}.cls-10{fill:#999899;}.cls-11{stroke:#231815;}.cls-12{fill:#231815;}</style></defs><g id="レイヤー_2" data-name="レイヤー 2"><g id="レイヤー_1-2" data-name="レイヤー 1"><path class="cls-1" d="M83.8,28.85H62.42a.52.52,0,0,1-.52-.52V1.7a.5.5,0,0,1,0-.12.37.37,0,0,1,0-.12A.51.51,0,0,1,62.42,1H79.94a.54.54,0,0,1,.43.23L84.23,7a.47.47,0,0,1,.09.28V28.33A.52.52,0,0,1,83.8,28.85Zm-20.87-1H83.29V7.43L79.66,2H62.93Z"></path><path class="cls-1" d="M83.8,8.83H78.53a.5.5,0,0,1-.4-.19A.52.52,0,0,1,78,8.21l1.41-6.85a.52.52,0,1,1,1,.21L79.16,7.8H83.8a.52.52,0,1,1,0,1Z"></path><rect class="cls-2" x="62.42" y="21.95" width="21.39" height="6.39"></rect><path class="cls-3" d="M69.7,27.07a1.51,1.51,0,0,1-1.53-1.67,1.56,1.56,0,0,1,1.57-1.74,1.25,1.25,0,0,1,1.36,1.11h-.62a.7.7,0,0,0-.72-.59c-.5,0-1,.41-1,1.21s.4,1.16.89,1.16a.85.85,0,0,0,.58-.23.63.63,0,0,0,.21-.43h.62A1.31,1.31,0,0,1,69.7,27.07Z"></path><path class="cls-3" d="M73.17,27.07c-.55,0-1.33-.15-1.38-1.06h.6c0,.51.49.56.73.56s.78,0,.78-.46c0-.24-.14-.32-.43-.39l-.77-.17a.94.94,0,0,1-.86-.93c0-.69.66-1,1.29-1a1.41,1.41,0,0,1,1,.32,1,1,0,0,1,.32.69h-.59c0-.48-.54-.51-.7-.51s-.7,0-.7.43c0,.18.11.32.45.4l.83.18a.92.92,0,0,1,.81.87C74.51,26.63,74,27.07,73.17,27.07Z"></path><path class="cls-3" d="M76.52,27.07c-.55,0-1.33-.15-1.37-1.06h.59c0,.51.49.56.73.56s.78,0,.78-.46c0-.24-.14-.32-.43-.39l-.77-.17a.94.94,0,0,1-.86-.93c0-.69.66-1,1.29-1a1.41,1.41,0,0,1,1,.32,1,1,0,0,1,.32.69h-.59c0-.48-.54-.51-.7-.51s-.7,0-.7.43c0,.18.11.32.45.4l.83.18a.92.92,0,0,1,.81.87C77.86,26.63,77.37,27.07,76.52,27.07Z"></path><path class="cls-1" d="M66.67,14.18c.34,0,.79-.19.71-.74l-.24-1.53c0-.12-.17-1.23,1.47-1.7l.45.65c-.39.23-.86.53-.86,1.07a1.31,1.31,0,0,0,0,.25l.23,1.36a1,1,0,0,1,0,.2,1,1,0,0,1-.65.93,1.07,1.07,0,0,1,.65,1,.92.92,0,0,1,0,.19l-.23,1.35a1.32,1.32,0,0,0,0,.26c0,.57.57.88.86,1.05l-.45.65c-1.45-.41-1.53-1.32-1.47-1.7l.24-1.53c.08-.52-.35-.71-.71-.74Z"></path><path class="cls-1" d="M68.66,19.28l-.09,0C66.88,18.78,67,17.64,67,17.41l.24-1.53a.43.43,0,0,0-.07-.36.77.77,0,0,0-.52-.23h-.12V14.06h.12a.76.76,0,0,0,.51-.21.44.44,0,0,0,.08-.38L67,11.93c0-.14-.17-1.35,1.56-1.84l.09,0,.58.84-.12.07c-.4.24-.79.51-.79,1a1.06,1.06,0,0,0,0,.22l.22,1.36a.86.86,0,0,1,0,.23,1.06,1.06,0,0,1-.52.94,1.09,1.09,0,0,1,.52,1,1.5,1.5,0,0,1,0,.22l-.22,1.34a1.29,1.29,0,0,0,0,.24c0,.48.48.76.77.92l.14.09ZM66.8,15.05a.89.89,0,0,1,.58.31.71.71,0,0,1,.13.56l-.24,1.53c0,.19-.11,1.1,1.28,1.53l.32-.46a1.34,1.34,0,0,1-.79-1.09,1.47,1.47,0,0,1,0-.28l.22-1.35a.79.79,0,0,0,0-.17.94.94,0,0,0-.58-.85l-.2-.12.2-.1a.89.89,0,0,0,.58-.82.74.74,0,0,0,0-.18l-.22-1.36a1.45,1.45,0,0,1,0-.27,1.36,1.36,0,0,1,.79-1.11l-.32-.46c-1.39.44-1.31,1.35-1.28,1.53l.24,1.53a.7.7,0,0,1-.14.58.85.85,0,0,1-.57.29Z"></path><path class="cls-1" d="M79.6,15.16c-.33,0-.78.2-.7.74l.24,1.53c0,.12.17,1.23-1.47,1.7l-.46-.65c.4-.23.85-.52.85-1.06a1.47,1.47,0,0,0,0-.25l-.22-1.35a1.23,1.23,0,0,1,0-.2,1,1,0,0,1,.64-.95,1,1,0,0,1-.64-.95.82.82,0,0,1,0-.18L78,12.18a1.72,1.72,0,0,0,0-.26c0-.57-.55-.89-.85-1.06l.46-.65c1.45.41,1.53,1.33,1.47,1.7l-.24,1.53c-.08.53.35.71.7.74Z"></path><path class="cls-1" d="M77.62,19.28l-.6-.84.12-.07c.4-.23.79-.49.79-.95,0-.09,0-.18,0-.22l-.23-1.36a1.5,1.5,0,0,1,0-.22,1.07,1.07,0,0,1,.52-.95,1.12,1.12,0,0,1-.52-.95.65.65,0,0,1,0-.22l.22-1.34c0-.05,0-.15,0-.24,0-.5-.51-.79-.79-.95L77,10.9l.6-.84.09,0c1.69.48,1.59,1.61,1.55,1.84L79,13.46a.49.49,0,0,0,.08.37.76.76,0,0,0,.51.22h.12v1.22h-.12a.73.73,0,0,0-.51.23.47.47,0,0,0-.08.36l.25,1.53c0,.14.17,1.35-1.56,1.85Zm-.23-.76.33.46c1.4-.44,1.32-1.34,1.29-1.52l-.24-1.54a.71.71,0,0,1,.13-.56.88.88,0,0,1,.57-.31v-.76a.92.92,0,0,1-.57-.3.71.71,0,0,1-.13-.56L79,11.89c0-.18.1-1.1-1.29-1.53l-.32.46a1.37,1.37,0,0,1,.79,1.1,1.91,1.91,0,0,1,0,.28L78,13.56a.7.7,0,0,0,0,.16.92.92,0,0,0,.57.84l.21.11-.2.11a.92.92,0,0,0-.58.84,1.1,1.1,0,0,0,0,.18l.22,1.35a1.65,1.65,0,0,1,0,.27A1.32,1.32,0,0,1,77.39,18.52Z"></path><path class="cls-1" d="M69.72,17.79V16.4h1.36v1.39Z"></path><path class="cls-1" d="M72.32,17.79V16.4h1.36v1.39Z"></path><path class="cls-1" d="M74.93,17.79V16.4h1.35v1.39Z"></path><path class="cls-4" d="M52.85,17.92a.57.57,0,0,1-.36-.13l-3.38-2.71a.57.57,0,0,1,.71-.9l3.39,2.71a.58.58,0,0,1-.36,1Z"></path><path class="cls-4" d="M49.46,17.92a.58.58,0,0,1-.35-1l3.38-2.71a.58.58,0,0,1,.81.09.57.57,0,0,1-.09.81l-3.39,2.71A.53.53,0,0,1,49.46,17.92Z"></path><path class="cls-4" d="M95.05,17a.53.53,0,0,1-.36-.13L91.3,14.13a.57.57,0,0,1-.09-.81.58.58,0,0,1,.81-.09L95.41,16a.58.58,0,0,1,.09.8A.59.59,0,0,1,95.05,17Z"></path><path class="cls-4" d="M91.66,17a.58.58,0,0,1-.45-.22.56.56,0,0,1,.09-.8l3.39-2.72a.58.58,0,0,1,.81.09.59.59,0,0,1-.09.81L92,16.84A.55.55,0,0,1,91.66,17Z"></path><path class="cls-5" d="M125.39,27.38h-21a.5.5,0,0,1-.51-.5V.74s0-.08,0-.12,0-.07,0-.11A.51.51,0,0,1,104.4,0h17.19a.48.48,0,0,1,.42.23l3.8,5.7a.54.54,0,0,1,.08.28V26.88A.5.5,0,0,1,125.39,27.38Zm-20.49-1h20v-20L121.32,1H104.9Z"></path><path class="cls-5" d="M125.39,7.73h-5.18a.51.51,0,0,1-.5-.61L121.1.4a.5.5,0,0,1,.6-.39.51.51,0,0,1,.39.6l-1.26,6.11h4.56a.5.5,0,0,1,.5.51A.5.5,0,0,1,125.39,7.73Z"></path><rect class="cls-6" x="104.4" y="20.61" width="20.99" height="6.27"></rect><path class="cls-3" d="M113.76,25.36a1.14,1.14,0,0,1-.8.28.88.88,0,0,1-1-.95v-.34h.58v.34a.4.4,0,0,0,.45.43c.28,0,.44-.12.44-.54V22.4H114v2.22A1,1,0,0,1,113.76,25.36Z"></path><path class="cls-3" d="M116.1,25.64c-.54,0-1.3-.15-1.35-1.05h.58c0,.51.49.56.72.56s.77,0,.77-.46c0-.23-.14-.31-.42-.38l-.76-.16a.93.93,0,0,1-.84-.92c0-.67.65-.94,1.26-.94a1.44,1.44,0,0,1,1,.31,1,1,0,0,1,.31.68h-.58c0-.47-.53-.5-.69-.5s-.68,0-.68.42c0,.18.1.32.44.4l.82.18a.88.88,0,0,1,.78.85C117.41,25.2,116.93,25.64,116.1,25.64Z"></path><path class="cls-5" d="M108.87,13.24c.33,0,.77-.19.7-.72L109.33,11c0-.12-.17-1.2,1.44-1.67l.44.64c-.38.23-.84.53-.84,1a1.09,1.09,0,0,0,0,.24l.22,1.34a.92.92,0,0,1,0,.19,1,1,0,0,1-.63.92,1,1,0,0,1,.63.94.92.92,0,0,1,0,.19l-.22,1.33a1.2,1.2,0,0,0,0,.25c0,.56.56.86.84,1l-.44.64c-1.42-.4-1.5-1.3-1.44-1.67l.24-1.51c.07-.5-.35-.69-.7-.72Z"></path><path class="cls-5" d="M110.82,18.25l-.09,0c-1.66-.47-1.56-1.59-1.53-1.81l.24-1.51a.46.46,0,0,0-.07-.35.8.8,0,0,0-.52-.22h-.11v-1.2h.12a.71.71,0,0,0,.5-.21.43.43,0,0,0,.08-.36L109.2,11c0-.13-.16-1.32,1.53-1.81l.09,0,.57.83-.11.07c-.4.23-.78.5-.78.94a1.17,1.17,0,0,0,0,.22l.22,1.34a1.49,1.49,0,0,1,0,.21,1.07,1.07,0,0,1-.51.93,1.08,1.08,0,0,1,.51.93.78.78,0,0,1,0,.22l-.21,1.32a1.17,1.17,0,0,0,0,.23c0,.47.47.74.75.9l.14.09ZM109,14.09a.92.92,0,0,1,.58.31.71.71,0,0,1,.12.54l-.24,1.51c0,.18-.1,1.08,1.27,1.5l.31-.45a1.33,1.33,0,0,1-.78-1.07,1.47,1.47,0,0,1,0-.28l.22-1.33s0-.1,0-.16a.92.92,0,0,0-.56-.83l-.2-.12.2-.1a.86.86,0,0,0,.56-.81c0-.07,0-.13,0-.17l-.22-1.33a1.45,1.45,0,0,1,0-.27A1.35,1.35,0,0,1,111,9.94l-.31-.45c-1.37.43-1.3,1.32-1.27,1.5l.24,1.51a.71.71,0,0,1-.13.56.85.85,0,0,1-.57.29Z"></path><path class="cls-5" d="M115.68,11.47v1.36h-1.33V11.47Zm0,3.95V16.7a1.34,1.34,0,0,1-1.33,1.4v-.66c.67,0,.71-.45.73-.66h-.73V15.42Z"></path><path class="cls-5" d="M114.22,18.24v-.92h.12c.45,0,.56-.22.6-.41h-.72V15.29h1.59V16.7a1.48,1.48,0,0,1-1.45,1.53Zm.26-.68V18a1.18,1.18,0,0,0,1.07-1.26V15.54h-1.07v1.11h.74l0,.14A.75.75,0,0,1,114.48,17.56Zm1.33-4.6h-1.59V11.35h1.59Zm-1.33-.25h1.07V11.6h-1.07Z"></path><path class="cls-5" d="M121.15,14.2c-.32,0-.76.2-.69.72l.24,1.51c0,.12.17,1.21-1.44,1.67l-.45-.64c.39-.23.84-.51.84-1a1.34,1.34,0,0,0,0-.24l-.22-1.33a1.23,1.23,0,0,1,0-.2,1,1,0,0,1,.63-.93,1,1,0,0,1-.63-.94.72.72,0,0,1,0-.17l.22-1.34a1.47,1.47,0,0,0,0-.25c0-.55-.55-.87-.84-1l.45-.64c1.42.41,1.5,1.3,1.44,1.67l-.24,1.51c-.07.51.35.69.69.72Z"></path><path class="cls-5" d="M119.21,18.25l-.59-.83.12-.07c.4-.23.78-.48.78-.93a1.18,1.18,0,0,0,0-.22l-.22-1.33a1.5,1.5,0,0,1,0-.22,1.07,1.07,0,0,1,.51-.93,1.09,1.09,0,0,1-.51-.94.53.53,0,0,1,0-.2l.21-1.33a1.3,1.3,0,0,0,0-.23c0-.49-.5-.77-.78-.93l-.12-.07.59-.82.09,0c1.65.47,1.56,1.59,1.53,1.81l-.24,1.51a.45.45,0,0,0,.07.35.78.78,0,0,0,.51.22h.11v1.2h-.11a.78.78,0,0,0-.51.22.46.46,0,0,0-.07.36l.24,1.5c0,.14.16,1.32-1.53,1.81ZM119,17.5l.32.45c1.37-.43,1.3-1.32,1.27-1.5l-.24-1.51a.73.73,0,0,1,.12-.55.92.92,0,0,1,.57-.3v-.74a.94.94,0,0,1-.57-.3.72.72,0,0,1-.12-.55l.24-1.51c0-.18.1-1.08-1.27-1.5l-.32.45a1.35,1.35,0,0,1,.78,1.08,2,2,0,0,1,0,.28l-.22,1.33a.71.71,0,0,0,0,.15.89.89,0,0,0,.56.83l.21.11-.21.11a.89.89,0,0,0-.56.82.91.91,0,0,0,0,.17l.22,1.34a1.51,1.51,0,0,1,0,.26A1.3,1.3,0,0,1,119,17.5Z"></path><path class="cls-7" d="M42,28.33H21a.5.5,0,0,1-.51-.5V1.69a.49.49,0,0,1,0-.12.37.37,0,0,1,0-.11A.51.51,0,0,1,21,1H38.2a.48.48,0,0,1,.42.23l3.8,5.7a.54.54,0,0,1,.08.28V27.83A.5.5,0,0,1,42,28.33Zm-20.49-1h20v-20L37.93,2H21.51Z"></path><path class="cls-7" d="M42,8.68H36.82a.51.51,0,0,1-.5-.61l1.39-6.72A.49.49,0,0,1,38.3,1a.51.51,0,0,1,.4.6L37.44,7.67H42a.5.5,0,0,1,.5.51A.5.5,0,0,1,42,8.68Z"></path><rect class="cls-8" x="21.01" y="21.56" width="20.99" height="6.27"></rect><path class="cls-3" d="M28,26.59c-.53,0-1.3-.15-1.35-1.05h.58c0,.51.49.56.72.56s.77,0,.77-.46c0-.23-.14-.31-.42-.38l-.76-.16a.93.93,0,0,1-.84-.92c0-.68.65-.94,1.26-.94a1.42,1.42,0,0,1,.95.31,1,1,0,0,1,.31.68h-.58c0-.47-.52-.5-.68-.5s-.69,0-.69.42c0,.18.11.32.44.4l.82.18a.88.88,0,0,1,.78.85C29.26,26.15,28.78,26.59,28,26.59Z"></path><path class="cls-3" d="M31.51,26.48h-.58l-1.11-3.13h.62l.69,2.17.1.44.09-.44L32,23.35h.62Z"></path><path class="cls-3" d="M35.86,26.48l0-.33v-.21a1.06,1.06,0,0,1-1.08.65A1.5,1.5,0,0,1,33.23,25a1.63,1.63,0,0,1,2.7-1.32,1,1,0,0,1,.29.68H35.6a.74.74,0,0,0-.78-.57c-.65,0-1,.53-1,1.15,0,.94.56,1.19,1,1.19a.91.91,0,0,0,.65-.26.8.8,0,0,0,.24-.54h-.83V24.8h1.38v1.68Z"></path><path class="cls-7" d="M26.38,17.2h-.06a.39.39,0,0,1-.31-.44,5.49,5.49,0,0,1,5.66-4.39A4.92,4.92,0,0,1,37,16.75a.4.4,0,0,1-.36.41.38.38,0,0,1-.4-.36c0-.15-.32-3.67-4.53-3.67a4.67,4.67,0,0,0-4.91,3.75A.38.38,0,0,1,26.38,17.2Z"></path><path class="cls-7" d="M37.64,12.3H25.48a.38.38,0,0,1,0-.76H37.64a.38.38,0,0,1,0,.76Z"></path><path class="cls-7" d="M26.29,18.12a.69.69,0,1,1,.68-.68A.68.68,0,0,1,26.29,18.12Zm0-.86a.18.18,0,1,0,.18.18A.18.18,0,0,0,26.29,17.26Z"></path><path class="cls-7" d="M36.58,18.12a.69.69,0,1,1,.68-.68A.69.69,0,0,1,36.58,18.12Zm0-.86a.18.18,0,1,0,.18.18A.18.18,0,0,0,36.58,17.26Z"></path><circle class="cls-3" cx="31.67" cy="11.92" r="0.43"></circle><path class="cls-7" d="M31.67,12.61a.68.68,0,0,1-.68-.69.67.67,0,0,1,.68-.68.68.68,0,0,1,.69.68A.69.69,0,0,1,31.67,12.61Zm0-.87a.18.18,0,1,0,.18.18A.18.18,0,0,0,31.67,11.74Z"></path><circle class="cls-7" cx="37.72" cy="11.92" r="0.51"></circle><circle class="cls-7" cx="25.35" cy="11.92" r="0.51"></circle><line class="cls-9" x1="77.86" y1="75.77" x2="77.86" y2="88.25"></line><polygon class="cls-10" points="72.97 86.81 77.86 95.28 82.74 86.81 72.97 86.81"></polygon><path class="cls-11" d="M4.48,57.08H.5V54.76H11.28v2.32h-4V67.85H4.48Z"></path><path class="cls-11" d="M22.05,62.21H15.78v3.32h6.91l-.33,2.32H13V54.76h9.29v2.32H15.78v2.8h6.27Z"></path><path class="cls-11" d="M31.75,67.85,29,63.24h0l-2.87,4.61H23l4.35-6.59-4.23-6.5h3.29l2.64,4.34h0l2.74-4.34h3L30.61,61,35,67.85Z"></path><path class="cls-11" d="M39,57.08H35V54.76H45.8v2.32h-4V67.85H39Z"></path><path class="cls-11" d="M54.61,64.83l-1,3H50.8l4.45-13.09h3.56l4.64,13.09h-3l-1.08-3Zm4.18-2.32C57.85,59.74,57.26,58,57,56.8h0c-.33,1.29-1,3.35-1.72,5.71Z"></path><path class="cls-11" d="M65.23,67.85V54.76h3.51C70.37,57.7,73.4,63,74,64.43h0c-.14-1.37-.14-3.64-.14-5.79V54.76h2.57V67.85H73.13c-1.41-2.55-4.76-8.65-5.41-10.16h0c.1,1.14.13,3.84.13,6.18v4Z"></path><path class="cls-11" d="M82.4,54.76V67.85H79.57V54.76Z"></path><path class="cls-11" d="M96.5,62.94c0-2.23,0-4.74.09-6.22H96.5c-.62,2.67-1.93,7-3.18,11.13H90.9C90,64.27,88.6,59.3,88,56.69h-.09c.11,1.53.17,4.23.17,6.47v4.69H85.52V54.76h4.21c1,3.42,2.17,7.71,2.56,9.66h0c.32-1.72,1.76-6.31,2.86-9.66h4.06V67.85H96.5Z"></path><path class="cls-11" d="M104.81,64.83l-1,3H101l4.45-13.09H109l4.64,13.09h-3l-1.08-3ZM109,62.51c-.93-2.77-1.52-4.53-1.84-5.71h0c-.32,1.29-1,3.35-1.72,5.71Z"></path><path class="cls-11" d="M118,57.08h-4V54.76h10.78v2.32h-4V67.85H118Z"></path><path class="cls-11" d="M129.43,54.76V67.85H126.6V54.76Z"></path><path class="cls-11" d="M144.6,61.26c0,3.65-2.19,6.78-6.44,6.78s-6.27-3-6.27-6.73,2.38-6.74,6.45-6.74C142.17,54.57,144.6,57.25,144.6,61.26Zm-9.78,0c0,2.56,1.12,4.49,3.44,4.49,2.52,0,3.41-2.11,3.41-4.44s-1-4.43-3.45-4.43S134.82,58.7,134.82,61.25Z"></path><path class="cls-11" d="M147.08,67.85V54.76h3.51c1.63,2.94,4.66,8.24,5.26,9.67h0c-.14-1.37-.14-3.64-.14-5.79V54.76h2.57V67.85H155c-1.41-2.55-4.76-8.65-5.41-10.16h0c.1,1.14.13,3.84.13,6.18v4Z"></path><path class="cls-12" d="M4.48,103.9H.5v-2.32H11.28v2.32h-4v10.77H4.48Z"></path><path class="cls-12" d="M22.05,109H15.78v3.33h6.91l-.33,2.32H13V101.58h9.29v2.32H15.78v2.8h6.27Z"></path><path class="cls-12" d="M31.75,114.67,29,110.06h0l-2.87,4.61H23l4.35-6.59-4.23-6.5h3.29l2.64,4.34h0l2.74-4.34h3l-4.21,6.24L35,114.67Z"></path><path class="cls-12" d="M39,103.9H35v-2.32H45.8v2.32h-4v10.77H39Z"></path><path class="cls-12" d="M54.61,111.65l-1,3H50.8l4.45-13.09h3.56l4.64,13.09h-3l-1.08-3Zm4.18-2.32c-.94-2.77-1.53-4.53-1.84-5.71h0c-.33,1.29-1,3.34-1.72,5.71Z"></path><path class="cls-12" d="M65.23,114.67V101.58h3.51c1.63,2.94,4.66,8.24,5.26,9.67h0c-.14-1.37-.14-3.64-.14-5.79v-3.88h2.57v13.09H73.13c-1.41-2.56-4.76-8.65-5.41-10.16h0c.1,1.14.13,3.83.13,6.18v4Z"></path><path class="cls-12" d="M82.4,101.58v13.09H79.57V101.58Z"></path><path class="cls-12" d="M96.5,109.76c0-2.23,0-4.74.09-6.22H96.5c-.62,2.67-1.93,7-3.18,11.13H90.9c-1-3.58-2.3-8.55-2.88-11.17h-.09c.11,1.54.17,4.24.17,6.48v4.69H85.52V101.58h4.21c1,3.42,2.17,7.71,2.56,9.66h0c.32-1.72,1.76-6.31,2.86-9.66h4.06v13.09H96.5Z"></path><path class="cls-12" d="M104.81,111.65l-1,3H101l4.45-13.09H109l4.64,13.09h-3l-1.08-3Zm4.17-2.32c-.93-2.77-1.52-4.53-1.84-5.71h0c-.32,1.29-1,3.34-1.72,5.71Z"></path><path class="cls-12" d="M118,103.9h-4v-2.32h10.78v2.32h-4v10.77H118Z"></path><path class="cls-12" d="M129.43,101.58v13.09H126.6V101.58Z"></path><path class="cls-12" d="M144.6,108.08c0,3.64-2.19,6.78-6.44,6.78s-6.27-3-6.27-6.74,2.38-6.73,6.45-6.73C142.17,101.39,144.6,104.07,144.6,108.08Zm-9.78,0c0,2.55,1.12,4.49,3.44,4.49,2.52,0,3.41-2.11,3.41-4.44,0-2.48-1-4.43-3.45-4.43S134.82,105.52,134.82,108.07Z"></path><path class="cls-12" d="M147.08,114.67V101.58h3.51c1.63,2.94,4.66,8.24,5.26,9.67h0c-.14-1.37-.14-3.64-.14-5.79v-3.88h2.57v13.09H155c-1.41-2.56-4.76-8.65-5.41-10.16h0c.1,1.14.13,3.83.13,6.18v4Z"></path></g></g></svg> 