<?xml version="1.0" encoding="UTF-8"?> <svg xmlns="http://www.w3.org/2000/svg" width="446" height="299" viewBox="0 0 446 299" fill="none"><path d="M238.745 105.412H158.708C157.586 105.412 156.838 104.663 156.838 103.54V3.9569V3.5825V3.20816C156.838 2.08505 157.586 1.3363 158.708 1.3363H224.159C224.907 1.3363 225.281 1.71066 225.655 2.08504L240.241 23.4242C240.615 23.7986 240.615 24.173 240.615 24.5474V103.54C240.615 104.663 239.867 105.412 238.745 105.412ZM160.578 101.668H236.875V25.2961L223.411 5.08002H160.578V101.668Z" fill="#32ABD4"></path><path d="M238.745 30.5373H218.923C218.175 30.5373 217.801 30.1629 217.427 29.7886C217.053 29.4142 217.053 28.6655 217.053 28.2911L222.289 2.83375C222.663 1.71063 223.411 0.961906 224.533 1.33628C225.655 1.71065 226.403 2.45936 226.029 3.58248L221.167 26.7936H238.371C239.493 26.7936 240.241 27.5423 240.241 28.6654C240.615 29.4142 239.867 30.5373 238.745 30.5373Z" fill="#32ABD4"></path><path d="M238.745 79.5801H158.708V103.54H238.745V79.5801Z" fill="#29B6E3"></path><path d="M186.01 98.673C181.895 98.673 180.399 95.678 180.399 92.3087C180.399 89.3137 181.895 85.9443 186.384 85.9443C189.75 85.9443 191.246 88.1906 191.62 90.0625H189.376C189.002 87.8162 187.132 87.8162 186.758 87.8162C184.887 87.8162 183.017 89.3137 183.017 92.3087C183.017 94.9293 184.513 96.8012 186.384 96.8012C187.132 96.8012 187.88 96.4267 188.628 96.0524C189.002 95.678 189.376 95.3037 189.376 94.5549H191.62C190.872 96.4268 189.376 98.673 186.01 98.673Z" fill="white"></path><path d="M198.726 98.673C196.856 98.673 193.864 98.2987 193.49 94.5549H195.734C195.734 96.4268 197.604 96.8012 198.352 96.8012C198.726 96.8012 201.344 96.8012 201.344 94.9293C201.344 94.1806 200.97 93.8062 199.848 93.4318L196.856 92.6831C195.36 92.3087 193.49 91.56 193.49 89.3138C193.49 86.6932 196.108 85.5701 198.352 85.5701C199.474 85.5701 200.97 85.57 202.092 86.6931C202.84 87.4419 203.214 87.8163 203.214 89.3138H200.97C200.97 87.4419 199.1 87.4419 198.352 87.4419C197.978 87.4419 195.734 87.4419 195.734 88.9394C195.734 89.6881 196.108 90.0625 197.604 90.4368L200.596 91.1856C201.344 91.56 203.588 91.9343 203.588 94.5549C203.962 97.1755 202.092 98.673 198.726 98.673Z" fill="white"></path><path d="M211.443 98.673C209.573 98.673 206.581 98.2987 206.207 94.5549H208.451C208.451 96.4268 210.321 96.8012 211.069 96.8012C211.443 96.8012 214.061 96.8012 214.061 94.9293C214.061 94.1806 213.687 93.8062 212.565 93.4318L209.573 92.6831C208.077 92.3087 206.207 91.56 206.207 89.3138C206.207 86.6932 208.825 85.5701 211.069 85.5701C212.191 85.5701 213.687 85.57 214.809 86.6931C215.557 87.4419 215.931 87.8163 215.931 89.3138H213.687C213.687 87.4419 211.817 87.4419 211.069 87.4419C210.695 87.4419 208.451 87.4419 208.451 88.9394C208.451 89.6881 208.825 90.0625 210.321 90.4368L213.313 91.1856C214.061 91.56 216.305 91.9343 216.305 94.5549C216.305 97.1755 214.435 98.673 211.443 98.673Z" fill="white"></path><path d="M174.413 50.3793C175.535 50.3793 177.405 49.6306 177.031 47.7587L176.283 42.1431C176.283 41.7687 175.535 37.6507 181.893 35.7788L183.763 38.3994C182.267 39.1481 180.397 40.2713 180.397 42.5175C180.397 42.8919 180.397 43.2662 180.397 43.6406L181.145 48.8818C181.145 49.2562 181.145 49.2562 181.145 49.6306C181.145 51.8768 179.649 52.6255 178.901 52.9999C179.649 53.3743 181.145 54.4974 181.145 56.7436C181.145 57.118 181.145 57.4924 181.145 57.4924L180.397 62.7336C180.397 63.108 180.397 63.4823 180.397 63.8567C180.397 66.1029 182.641 67.2261 183.763 67.6004L181.893 70.221C176.657 68.7235 176.283 65.3542 176.283 63.8567L177.031 58.2411C177.405 56.3693 175.535 55.6205 174.413 55.6205V50.3793Z" fill="#32ABD4"></path><path d="M181.895 69.4723C175.163 67.6004 175.537 63.4823 175.911 62.3592L176.659 56.7436C176.659 56.3692 176.659 55.6205 176.285 55.2461C175.911 54.4974 174.789 54.4974 174.415 54.4974H174.041V50.0049H174.415C174.789 50.0049 175.911 50.0049 176.285 49.2562C176.659 48.8818 176.659 48.5074 176.659 47.7587L175.911 42.1431C175.911 41.7687 175.163 37.2763 181.895 35.4044H182.269L184.513 38.3994L184.139 38.7738C182.643 39.5225 181.147 40.6457 181.147 42.5175C181.147 42.8919 181.147 43.2662 181.147 43.2662L181.895 48.5074C181.895 48.8818 181.895 48.8818 181.895 49.2562C181.895 51.128 180.773 52.2512 180.025 52.6255C180.773 53.3743 181.895 54.123 181.895 55.9949C181.895 56.3692 181.895 56.7436 181.895 56.7436L181.147 61.6104C181.147 61.6104 181.147 61.9848 181.147 62.3592C181.147 64.231 183.017 65.3542 184.139 65.7285L184.513 66.1029L181.895 69.4723ZM175.163 53.7487C176.285 53.7487 177.033 54.4974 177.407 54.8717C177.781 55.6205 178.155 55.9949 177.781 57.118L177.033 62.7336C177.033 63.4823 176.659 66.8517 181.895 68.3491L183.017 66.4773C181.895 65.7285 180.025 64.6054 180.025 62.3592C180.025 61.9848 180.025 61.6105 180.025 61.2361L180.773 55.9949C180.773 55.9949 180.773 55.6205 180.773 55.2461C180.773 53.3743 179.651 52.6255 178.529 52.2511L177.781 51.8768L178.529 51.5024C179.651 50.7537 180.773 50.0049 180.773 48.5074C180.773 48.1331 180.773 48.1331 180.773 47.7587L180.025 42.5175C180.025 42.5175 180.025 41.7688 180.025 41.3944C180.025 39.1482 181.895 38.025 183.017 37.2763L181.895 35.4044C176.659 36.9019 177.033 40.2713 177.033 41.02L177.781 46.6356C177.781 47.3843 177.781 48.1331 177.407 48.8818C176.659 49.6306 175.911 50.0049 175.163 50.0049V53.7487Z" fill="#32ABD4"></path><path d="M223.036 54.1229C221.914 54.1229 220.044 54.8717 220.418 56.7435L221.166 62.3591C221.166 62.7335 221.914 66.8516 215.556 68.7235L213.686 66.1028C215.182 65.3541 217.052 64.231 217.052 61.9848C217.052 61.6104 217.052 61.236 217.052 60.8616L216.304 55.6205C216.304 55.2461 216.304 55.246 216.304 54.8717C216.304 52.6254 217.8 51.8767 218.548 51.5023C217.426 51.128 216.304 50.0048 216.304 47.7586C216.304 47.3842 216.304 47.3843 216.304 47.0099L217.052 41.7686C217.052 41.3943 217.052 41.0199 217.052 40.6456C217.052 38.3993 214.808 37.2762 213.686 36.5275L215.556 33.9069C220.792 35.4043 221.166 38.7737 221.166 40.2712L220.418 45.8868C220.044 47.7586 221.914 48.5073 223.036 48.5073V54.1229Z" fill="#32ABD4"></path><path d="M215.557 69.4722L213.312 66.4772L213.687 66.1028C215.183 65.3541 216.679 64.231 216.679 62.7335C216.679 62.3591 216.679 61.9848 216.679 61.9848L215.931 56.7435C215.931 56.3691 215.931 56.3691 215.931 55.9948C215.931 54.1229 217.053 52.9998 217.801 52.6254C217.053 51.8767 215.931 51.128 215.931 48.8817C215.931 48.5073 215.931 48.133 215.931 48.133L216.679 43.2661C216.679 42.8918 216.679 42.8918 216.679 42.5174C216.679 40.6455 214.809 39.5224 213.687 39.148L213.312 38.7737L215.557 35.7787H215.931C222.289 37.6505 221.915 41.7687 221.915 42.5174L221.167 48.133C221.167 48.8817 221.167 49.2561 221.541 49.6305C221.915 50.3792 223.037 50.3792 223.411 50.3792H223.785V54.8716H223.411C223.037 54.8716 221.915 55.2461 221.541 55.6204C221.167 55.9948 221.167 56.3692 221.167 57.1179L221.915 62.7335C221.915 63.1079 222.289 67.6003 215.557 69.4722ZM214.809 66.8516L215.931 68.7235C221.167 67.226 220.793 63.8566 220.793 63.1079L220.045 57.4923C220.045 56.7436 220.045 55.9948 220.419 55.246C221.167 54.4973 221.915 54.1229 222.663 54.1229V51.1279C221.915 51.1279 221.167 50.7536 220.419 50.0048C220.045 49.2561 219.671 48.8817 220.045 47.7586L220.793 42.143C220.793 41.3943 221.167 38.0249 215.931 36.5274L214.809 38.3993C215.931 39.148 217.801 40.2712 217.801 42.5174C217.801 42.8918 217.801 43.2661 217.801 43.6405L217.053 48.8817C217.053 48.8817 217.053 49.2561 217.053 49.6305C217.053 51.5023 218.175 52.2511 219.297 52.6254L220.045 52.9998L219.297 53.3742C218.549 53.7485 217.053 54.4973 217.053 56.3692C217.053 56.7435 217.053 56.7435 217.053 57.1179L217.801 62.3591C217.801 62.7335 217.801 63.1078 217.801 63.4822C217.801 64.6053 215.931 66.1029 214.809 66.8516Z" fill="#32ABD4"></path><path d="M186.01 63.8566V58.6154H191.246V63.8566H186.01Z" fill="#32ABD4"></path><path d="M195.732 63.8566V58.6154H200.969V63.8566H195.732Z" fill="#32ABD4"></path><path d="M205.459 63.8566V58.6154H210.695V63.8566H205.459Z" fill="#32ABD4"></path><path d="M122.804 64.6045C122.43 64.6045 121.682 64.6045 121.308 64.2301L108.591 54.1221C107.843 53.3733 107.469 51.8758 108.217 51.1271C108.965 50.3783 110.461 50.004 111.209 50.7527L123.926 60.8608C124.674 61.6095 125.048 63.107 124.3 63.8558C124.3 64.2301 123.552 64.6045 122.804 64.6045Z" fill="#040000"></path><path d="M110.087 64.6053C109.339 64.6053 108.965 64.231 108.591 63.8566C107.843 63.1078 107.843 61.6103 108.965 60.8616L121.681 50.7535C122.429 50.0048 123.925 50.0048 124.673 51.1279C125.421 51.8766 125.421 53.3741 124.299 54.1229L111.583 64.2309C111.209 64.2309 110.835 64.6053 110.087 64.6053Z" fill="#040000"></path><path d="M281.383 64.6045C281.009 64.6045 280.261 64.6045 279.887 64.2301L267.17 54.1221C266.422 53.3733 266.048 51.8758 266.796 51.1271C267.544 50.3783 269.04 50.004 269.788 50.7527L282.505 60.8608C283.253 61.6095 283.627 63.107 282.879 63.8558C282.505 64.2301 281.757 64.6045 281.383 64.6045Z" fill="#040000"></path><path d="M268.666 64.6053C267.918 64.6053 267.544 64.231 267.17 63.8566C266.422 63.1078 266.422 61.6103 267.544 60.8616L280.26 50.7535C281.008 50.0048 282.504 50.0048 283.252 51.1279C284 51.8766 284 53.3741 282.878 54.1229L270.162 64.2309C269.414 64.2309 269.04 64.6053 268.666 64.6053Z" fill="#040000"></path><path d="M394.705 103.54H316.164C315.042 103.54 314.294 102.791 314.294 101.668V3.95702V3.58262V3.20829C314.294 2.08517 315.042 1.33643 316.164 1.33643H380.493C381.241 1.33643 381.615 1.71079 381.989 2.08516L396.201 23.4244C396.575 23.7987 396.575 24.1731 396.575 24.5475V102.042C396.575 102.417 395.827 103.54 394.705 103.54ZM318.034 99.7962H392.835V24.9218L379.371 5.08015H318.034V99.7962Z" fill="#A782B0"></path><path d="M394.705 29.7886H375.257C374.509 29.7886 374.135 29.4143 373.761 29.0399C373.387 28.6655 373.387 27.9168 373.387 27.5424L378.623 2.4595C378.997 1.33638 379.745 0.962036 380.867 0.962036C381.989 1.33641 382.363 2.08517 382.363 3.20829L377.501 26.0449H394.705C395.827 26.0449 396.575 26.7937 396.575 27.9168C396.575 29.0399 395.827 29.7886 394.705 29.7886Z" fill="#A782B0"></path><path d="M394.705 78.0826H316.164V101.668H394.705V78.0826Z" fill="#AD86B7"></path><path d="M351.319 95.6784C350.571 96.4271 349.075 96.8015 348.327 96.8015C345.709 96.8015 344.587 95.304 344.587 93.4321V92.309H346.831V93.4321C346.831 94.9296 347.953 94.9296 348.327 94.9296C349.449 94.9296 349.823 94.5553 349.823 93.0578V84.8215H352.067V93.0578C352.067 94.1809 352.067 95.304 351.319 95.6784Z" fill="white"></path><path d="M359.921 96.8014C358.051 96.8014 355.059 96.4271 355.059 93.0577H357.303C357.303 94.9296 359.173 95.3039 359.921 95.3039C360.295 95.3039 362.913 95.3039 362.913 93.432C362.913 92.6833 362.539 92.309 361.417 91.9346L358.425 91.1858C356.929 90.8115 355.433 90.0627 355.433 87.8165C355.433 85.1959 357.677 84.4471 360.295 84.4471C361.417 84.4471 362.913 84.4472 363.661 85.5703C364.409 86.319 364.409 86.6934 364.783 88.1909H362.539C362.539 86.319 360.669 86.319 359.921 86.319C359.547 86.319 357.303 86.319 357.303 87.8165C357.303 88.5652 357.677 88.9396 358.799 89.314L361.791 90.0627C362.539 90.4371 364.783 90.8114 364.783 93.432C364.783 95.3039 362.913 96.8014 359.921 96.8014Z" fill="white"></path><path d="M332.994 50.379C334.116 50.379 335.986 49.6303 335.612 47.7584L334.864 42.1429C334.864 41.7685 334.116 37.6504 340.1 35.7786L341.596 38.0248C340.1 38.7735 338.604 39.8966 338.604 41.7685C338.604 42.1428 338.604 42.5173 338.604 42.5173L339.352 47.384C339.352 47.384 339.352 47.7585 339.352 48.1328C339.352 50.3791 337.856 51.1278 337.108 51.5022C337.856 51.8765 339.352 52.9996 339.352 54.8715C339.352 55.2458 339.352 55.2459 339.352 55.6203L338.604 60.487C338.604 60.487 338.604 60.8614 338.604 61.6102C338.604 63.8564 340.848 64.9795 341.596 65.3539L340.1 67.6001C334.864 66.1026 334.49 62.7333 334.864 61.2358L335.612 55.6203C335.986 53.7484 334.49 52.9996 332.994 52.9996V50.379Z" fill="#A782B0"></path><path d="M340.1 69.0977C333.742 67.2258 333.742 63.1077 334.116 62.3589L334.864 56.7434C334.864 56.369 334.864 55.6203 334.49 55.2459C334.116 54.4972 332.994 54.4972 332.62 54.4972H332.246V50.0047H332.62C332.994 50.0047 334.116 50.0047 334.49 49.2559C334.864 48.8816 334.864 48.5072 334.864 47.7585L334.116 42.1429C334.116 41.7685 333.368 37.276 339.726 35.4042H340.1L342.344 38.3992L341.97 38.7736C340.474 39.5223 338.978 40.6454 338.978 42.1429C338.978 42.5173 338.978 42.8916 338.978 42.8916L339.726 47.7585C339.726 48.1328 339.726 48.1328 339.726 48.5072C339.726 50.3791 338.604 51.5022 337.856 51.8766C338.604 52.6253 339.726 53.374 339.726 55.2459C339.726 55.6203 339.726 55.9946 339.726 55.9946L338.978 60.8615C338.978 60.8615 338.978 61.2358 338.978 61.6102C338.978 63.4821 340.848 64.2309 341.596 64.9796L341.97 65.3539L340.1 69.0977ZM333.368 53.7484C334.116 53.7484 335.238 54.4971 335.612 54.8715C335.986 55.2459 336.36 55.9946 335.986 56.7434L335.238 62.3589C335.238 63.1077 334.864 66.477 340.1 67.9745L341.222 66.1027C340.1 65.3539 338.23 64.2308 338.23 61.9846C338.23 61.6102 338.23 61.2359 338.23 60.8615L338.978 55.9946C338.978 55.9946 338.978 55.6203 338.978 55.2459C338.978 53.374 337.856 52.6253 336.734 52.2509L335.986 51.8766L336.734 51.5022C337.856 50.7534 338.978 50.0047 338.978 48.5072C338.978 48.1328 338.978 48.1328 338.978 47.7585L338.23 42.8916C338.23 42.8916 338.23 42.1429 338.23 41.7685C338.23 39.5223 339.726 38.3992 341.222 37.6504L340.1 35.7786C334.864 37.2761 335.238 40.6454 335.238 41.3941L335.986 47.0097C335.986 47.7585 335.986 48.5072 335.612 49.2559C334.864 50.0047 334.116 50.3791 333.368 50.3791V53.7484Z" fill="#A782B0"></path><path d="M358.427 44.0146V49.2558H353.564V44.0146H358.427ZM358.427 58.6151V63.482C358.427 64.2307 358.427 68.3488 353.564 68.7232V66.1026C356.182 66.1026 356.182 64.2307 356.182 63.482H353.564V58.2408H358.427V58.6151Z" fill="#A782B0"></path><path d="M352.816 69.0976V65.7282H353.19C354.686 65.7282 355.434 64.9795 355.434 64.2307H352.816V58.2408H358.8V63.482C358.8 64.6051 358.427 68.7232 353.564 69.0976H352.816ZM353.938 66.477V67.9744C357.304 67.2257 358.052 64.9795 358.052 63.1076V58.6151H353.938V62.7332H356.556V63.1076C356.556 64.6051 356.182 66.477 353.938 66.477ZM358.8 49.6302H352.816V43.6403H358.8V49.6302ZM353.938 48.5071H358.052V44.389H353.938V48.5071Z" fill="#A782B0"></path><path d="M378.998 54.1226C377.876 54.1226 376.006 54.8713 376.38 56.7432L377.128 62.3587C377.128 62.7331 377.876 66.8512 371.892 68.7231L370.021 66.4768C371.518 65.7281 373.014 64.605 373.014 62.7331C373.014 62.3588 373.014 61.9844 373.014 61.9844L372.266 57.1175C372.266 56.7432 372.266 56.7432 372.266 56.3688C372.266 54.1226 373.762 53.3738 374.51 52.9994C373.762 52.6251 372.266 51.502 372.266 49.6301C372.266 49.2557 372.266 49.2557 372.266 48.8814L373.014 44.0145C373.014 43.6402 373.014 43.2658 373.014 42.8914C373.014 40.6452 371.143 39.5221 370.021 39.1477L371.892 36.9015C377.128 38.399 377.502 41.7683 377.128 43.2658L376.38 48.8814C376.006 50.7532 377.502 51.502 378.998 51.502V54.1226Z" fill="#A782B0"></path><path d="M371.517 69.0976L369.273 66.1026L369.647 65.7283C371.143 64.9795 372.639 63.8564 372.639 62.3589C372.639 61.9845 372.639 61.6101 372.639 61.6101L371.891 56.7433C371.891 56.3689 371.891 56.3689 371.891 55.9946C371.891 54.1227 373.013 52.9996 373.761 52.6252C373.013 52.2509 371.891 51.1277 371.891 49.2559C371.891 48.8815 371.891 48.5071 371.891 48.5071L372.639 43.6403C372.639 43.2659 372.639 43.2659 372.639 42.8915C372.639 41.0197 370.769 39.8966 369.647 39.5222L369.273 39.1478L371.517 36.1528H371.891C378.25 38.0247 377.876 42.1428 377.502 42.8915L376.754 48.5071C376.754 48.8815 376.754 49.6303 377.128 50.0046C377.502 50.7534 378.624 50.7534 378.998 50.7534H379.372V55.2458H378.998C378.624 55.2458 377.502 55.6202 377.128 55.9946C376.754 56.3689 376.754 56.7433 376.754 57.4921L377.502 63.1077C377.876 62.7333 378.25 67.2257 371.517 69.0976ZM370.769 66.477L371.891 68.3488C377.128 66.8514 376.754 63.482 376.754 62.7333L376.006 57.1177C376.006 56.3689 376.006 55.6202 376.38 55.2458C377.128 54.4971 377.876 54.1227 378.624 54.1227V51.5021C377.876 51.5021 377.128 51.1277 376.38 50.379C376.006 50.0046 375.632 49.2559 376.006 48.1328L376.754 42.5172C376.754 41.7685 377.128 38.3991 371.891 36.9016L370.769 38.7735C371.891 39.5222 373.761 40.6453 373.761 42.8915C373.761 43.2659 373.761 43.6403 373.761 44.0147L373.013 48.8815C373.013 48.8815 373.013 49.2559 373.013 49.6302C373.013 51.5021 374.135 52.2509 375.258 52.6252L376.006 52.9996L375.258 53.374C374.51 53.7483 373.013 54.4971 373.013 56.369C373.013 56.7433 373.013 56.7433 373.013 57.1177L373.761 61.9845C373.761 62.3589 373.761 62.7333 373.761 63.1077C373.761 64.6051 371.891 65.7282 370.769 66.477Z" fill="#A782B0"></path><path d="M82.4112 103.54H3.87003C2.74801 103.54 2 102.791 2 101.668V3.95702V3.58262V3.20829C2 2.08517 2.74801 1.33643 3.87003 1.33643H68.199C68.947 1.33643 69.321 1.71079 69.695 2.08516L83.9072 23.4244C84.2812 23.7987 84.2812 24.1731 84.2812 24.5475V102.042C84.2812 102.417 83.5332 103.54 82.4112 103.54ZM5.74006 99.7962H80.5412V24.9218L67.077 5.08015H5.74006V99.7962Z" fill="#EBB746"></path><path d="M82.4111 29.7886H62.9628C62.2148 29.7886 61.8408 29.4143 61.4668 29.0399C61.0928 28.6655 61.0928 27.9168 61.0928 27.5424L66.3288 2.4595C66.7029 1.33638 67.4509 0.962036 68.5729 0.962036C69.6949 1.33641 70.0689 2.08517 70.0689 3.20829L65.2068 26.0449H82.4111C83.5331 26.0449 84.2811 26.7937 84.2811 27.9168C84.2811 29.0399 83.5331 29.7886 82.4111 29.7886Z" fill="#EBB746"></path><path d="M82.4113 78.0826H3.87012V101.668H82.4113V78.0826Z" fill="#F4BD44"></path><path d="M29.6756 96.8014C27.8055 96.8014 24.8135 96.4271 24.8135 93.0577H27.0575C27.0575 94.9296 28.9275 95.3039 29.6756 95.3039C30.0496 95.3039 32.6676 95.3039 32.6676 93.432C32.6676 92.6833 32.2936 92.309 31.1716 91.9346L28.1795 91.1858C26.6835 90.8115 25.1875 90.0627 25.1875 87.8165C25.1875 85.1959 27.4315 84.4471 30.0496 84.4471C31.1716 84.4471 32.6676 84.4472 33.4156 85.5703C34.1636 86.319 34.1636 86.6934 34.5376 88.1909H32.2936C32.2936 86.319 30.4236 86.319 29.6756 86.319C29.3015 86.319 27.0575 86.319 27.0575 87.8165C27.0575 88.5652 27.4315 88.9396 28.5535 89.314L31.5456 90.0627C32.2936 90.4371 34.5376 90.8114 34.5376 93.432C34.5376 95.3039 33.0416 96.8014 29.6756 96.8014Z" fill="white"></path><path d="M43.1413 96.4271H40.8973L36.7832 84.8215H39.0272L41.6453 93.0578L42.0193 94.5552L42.3933 93.0578L45.0113 84.8215H47.2554L43.1413 96.4271Z" fill="white"></path><path d="M59.2222 96.427L58.8482 95.3039V94.5552C58.1002 96.427 56.6041 96.8014 54.7341 96.8014C51.3681 96.8014 49.124 94.1808 49.124 90.8115C49.124 88.5652 50.246 84.4471 55.1081 84.4471C56.6041 84.4471 58.1002 84.8215 59.2222 85.9446C59.9702 86.6934 60.3442 87.4421 60.3442 88.5652H58.1002C57.7262 87.0677 56.6041 86.319 55.1081 86.319C52.8641 86.319 51.3681 88.1908 51.3681 90.4371C51.3681 93.8064 53.6121 94.9296 55.1081 94.9296C55.8561 94.9296 56.9781 94.5552 57.3522 93.8064C58.1002 93.0577 58.1002 92.6833 58.1002 91.9346H55.1081V90.0627H60.7182V96.427H59.2222V96.427Z" fill="white"></path><path d="M24.0673 61.6103C23.6933 61.6103 23.6933 61.6103 24.0673 61.6103C22.9453 61.6103 22.5713 60.8616 22.5713 60.1129C22.5713 60.1129 25.5633 43.6405 43.8896 43.6405C62.2159 43.6405 63.7119 59.7385 63.7119 60.1129C63.7119 60.8616 63.3379 61.6103 62.2159 61.6103C61.4679 61.6103 60.7199 61.236 60.7199 60.1129C60.7199 59.7385 59.5978 46.2611 43.8896 46.2611C28.1814 46.2611 25.5633 59.7385 25.5633 60.4872C25.1893 61.2359 24.4413 61.6103 24.0673 61.6103Z" fill="#EBB746"></path><path d="M65.9538 43.2661H20.6991C19.9511 43.2661 19.2031 42.5173 19.2031 41.7686C19.2031 41.0198 19.9511 40.2711 20.6991 40.2711H66.3278C67.0758 40.2711 67.8239 41.0198 67.8239 41.7686C67.4499 42.8917 66.7018 43.2661 65.9538 43.2661Z" fill="#EBB746"></path><path d="M23.6923 65.3541C22.1962 65.3541 21.0742 64.231 21.0742 62.7335C21.0742 61.236 22.1962 60.1129 23.6923 60.1129C25.1883 60.1129 26.3103 61.236 26.3103 62.7335C26.3103 64.231 24.8143 65.3541 23.6923 65.3541ZM23.6923 61.9848C23.3183 61.9848 22.9442 62.3591 22.9442 62.7335C22.9442 63.1079 23.3183 63.4822 23.6923 63.4822C24.0663 63.4822 24.4403 63.1079 24.4403 62.7335C24.4403 62.3591 24.0663 61.9848 23.6923 61.9848Z" fill="#EBB746"></path><path d="M62.2167 65.3541C60.7206 65.3541 59.5986 64.231 59.5986 62.7335C59.5986 61.236 60.7206 60.1129 62.2167 60.1129C63.7127 60.1129 64.8347 61.236 64.8347 62.7335C64.8347 64.231 63.3387 65.3541 62.2167 65.3541ZM62.2167 61.9848C61.8427 61.9848 61.4687 62.3591 61.4687 62.7335C61.4687 63.1079 61.8427 63.4822 62.2167 63.4822C62.5907 63.4822 62.9647 63.1079 62.9647 62.7335C62.9647 62.3591 62.5907 61.9848 62.2167 61.9848Z" fill="#EBB746"></path><path d="M43.5156 43.6403C44.3418 43.6403 45.0116 42.9699 45.0116 42.1429C45.0116 41.3158 44.3418 40.6454 43.5156 40.6454C42.6893 40.6454 42.0195 41.3158 42.0195 42.1429C42.0195 42.9699 42.6893 43.6403 43.5156 43.6403Z" fill="white"></path><path d="M43.5155 44.3891C42.0195 44.3891 40.8975 43.2659 40.8975 41.7684C40.8975 40.2709 42.0195 39.1478 43.5155 39.1478C45.0115 39.1478 46.1335 40.2709 46.1335 41.7684C46.1335 43.2659 45.0115 44.3891 43.5155 44.3891ZM43.5155 41.3941C43.1415 41.3941 42.7675 41.7684 42.7675 42.1428C42.7675 42.5172 43.1415 42.8915 43.5155 42.8915C43.8895 42.8915 44.2635 42.5172 44.2635 42.1428C44.2635 41.7684 43.8895 41.3941 43.5155 41.3941Z" fill="#EBB746"></path><path d="M66.33 44.0148C67.3628 44.0148 68.2 43.1768 68.2 42.143C68.2 41.1092 67.3628 40.2711 66.33 40.2711C65.2972 40.2711 64.46 41.1092 64.46 42.143C64.46 43.1768 65.2972 44.0148 66.33 44.0148Z" fill="#EBB746"></path><path d="M19.9521 44.0148C20.9848 44.0148 21.8221 43.1768 21.8221 42.143C21.8221 41.1092 20.9848 40.2711 19.9521 40.2711C18.9193 40.2711 18.082 41.1092 18.082 42.143C18.082 43.1768 18.9193 44.0148 19.9521 44.0148Z" fill="#EBB746"></path><path d="M67.584 180.055C67.1698 181.297 67.1698 182.539 66.3415 183.782L63.857 188.751L58.4734 199.104C56.8169 202.003 55.1605 204.902 54.3323 208.215C56.4028 208.215 59.3017 208.629 61.3722 208.629C61.7864 208.629 62.2004 208.629 62.6145 208.629C62.6145 208.629 63.0287 207.801 63.0287 208.215C63.8569 208.629 64.271 208.629 64.271 209.457C63.8569 210.7 61.7864 210.7 61.3722 211.114C59.7158 211.528 57.6451 211.528 55.9887 211.942C55.1605 212.356 54.3323 212.356 53.09 212.77C51.4335 213.598 49.7771 217.74 48.9488 219.396L45.2218 228.093C43.5654 231.406 43.1512 234.305 41.9089 237.618C39.4242 244.658 36.5254 251.284 34.0407 258.324C32.7984 262.051 31.5561 266.192 26.5867 263.293C24.5162 262.051 23.6879 259.98 24.102 257.496C24.9302 253.769 26.5866 249.627 27.4149 245.9C29.0713 241.345 30.7278 236.79 32.3843 232.648C34.869 226.436 36.9395 220.225 39.4241 214.013C37.3536 214.427 35.6971 215.255 33.6266 215.255C31.1419 215.669 29.0714 215.669 26.5867 216.083C24.5162 216.498 20.3749 216.498 19.1326 218.154C18.3044 219.396 17.4761 221.881 17.062 223.538L16.2339 226.436C15.4057 229.749 14.1633 233.062 13.335 236.375C12.0927 240.102 10.8504 243.83 10.0222 247.557C9.19395 249.627 9.19387 254.597 6.70919 255.425C3.81039 255.839 0.497456 252.112 0.0833427 249.627C-0.330771 247.143 0.911646 244.658 1.32576 242.587C3.81044 234.305 6.70921 226.022 9.1939 217.74C7.53744 217.326 4.22456 215.669 5.4669 213.599C5.88101 212.77 7.53739 212.356 8.36562 211.942C10.4362 211.528 10.8504 211.942 11.6786 210.286C12.5068 209.043 12.9209 207.387 13.335 206.144C14.5774 203.246 15.8197 200.347 16.6479 197.448C20.3749 187.923 24.102 178.812 28.6573 169.702C29.0714 168.873 29.4855 168.459 29.8996 167.631C29.8996 168.045 30.3137 166.389 30.3137 166.389C31.5561 164.732 33.6266 165.146 35.283 165.974C37.3536 166.803 39.8384 168.459 39.0101 170.944C38.596 172.186 37.3537 173.429 36.5254 174.671C35.6972 175.913 35.6972 177.984 34.869 179.64C34.0408 181.711 32.7984 184.196 31.9701 186.267C29.8996 189.994 28.6572 193.721 27.0007 197.862C25.7584 200.347 25.7584 202.417 24.9302 204.488C24.1019 206.144 23.6878 207.801 22.8596 209.457C25.7584 209.457 28.2431 208.629 31.1419 208.215L36.1113 207.801C37.7677 207.801 40.2524 208.215 41.4947 207.387C43.5653 206.558 45.2218 199.933 46.05 197.862L50.6053 187.509L58.4734 169.702C59.3016 168.045 58.8876 166.389 61.7864 166.803C64.6852 167.217 67.1698 169.702 68.4121 172.186C70.4827 176.327 68.8263 177.984 67.584 180.055ZM29.4854 190.408C27.4149 194.963 24.102 199.518 22.4456 204.488C20.7891 209.457 19.1326 214.013 17.4762 218.982C18.7185 215.255 20.375 211.528 22.0314 207.387L29.4854 190.408ZM29.4854 189.993L29.8996 189.579C29.4855 189.579 29.4854 189.993 29.4854 189.993ZM36.5254 245.9C35.6972 247.142 34.869 248.385 34.4549 249.627C34.0407 250.87 34.0407 252.112 33.6266 253.354C34.0407 252.526 34.0407 252.112 34.4549 251.698C35.6972 249.627 36.1113 247.971 36.5254 245.9Z" fill="black"></path><path d="M110.654 228.092C109.412 231.405 107.755 234.304 105.685 237.203C103.614 240.516 101.544 243.415 99.0589 246.314C96.9883 248.798 94.5035 252.111 91.1906 252.525C87.4636 253.354 84.5648 250.041 83.3225 246.728C80.8378 240.516 82.4943 233.476 84.5649 227.264C84.5649 227.264 84.5649 226.436 84.5649 225.608C83.3226 227.264 82.0801 229.335 80.8378 230.577C79.5954 232.648 78.3531 234.718 77.1108 236.789C76.2826 237.617 67.5861 248.384 66.3438 246.728C66.3438 246.728 67.5862 246.313 67.5862 245.899C66.3439 246.728 64.6874 247.142 63.0309 246.728C63.4451 247.142 63.4451 247.142 63.4451 247.142C60.9604 247.556 58.8898 243.415 58.4757 241.758C57.6474 238.859 57.6474 235.546 58.4757 232.233C59.718 226.022 62.2028 218.982 65.9298 213.598C66.758 212.356 68.0003 210.699 69.2426 209.871C70.0709 209.043 70.8991 209.043 71.7274 208.215C73.3838 206.972 74.6261 205.73 77.1108 205.73C82.4943 205.73 84.5649 211.942 85.8072 216.083C88.2919 212.77 93.2613 208.215 96.9883 213.184C99.0589 215.669 97.8165 217.739 96.5742 220.224C94.5036 223.951 92.8471 228.507 92.0189 232.648C92.0189 232.234 92.4331 230.577 92.8472 230.577C93.6754 230.163 85.8072 255.01 96.9883 240.93C100.301 236.789 103.2 232.234 106.099 227.678C107.341 225.608 108.583 223.537 110.24 221.466C111.068 220.638 112.725 218.567 113.139 221.052C113.967 223.537 111.482 226.022 110.654 228.092ZM82.9083 220.224C82.9083 219.396 80.8378 213.184 81.2519 212.77C81.2519 212.77 82.4943 215.669 82.4943 216.083C82.0802 214.841 81.6661 210.699 79.5955 210.699C75.8685 210.699 73.3838 217.325 72.1415 219.81C70.0709 224.779 68.0003 229.749 67.1721 235.132C67.5862 233.476 73.7979 214.012 75.8685 214.012C74.212 214.426 68.4144 230.991 68.4144 232.648C68.0003 233.476 66.3439 239.273 68.0004 239.688C69.2427 240.102 71.7274 236.789 72.1415 235.961C74.2121 233.476 76.2826 230.991 77.9391 228.092L80.8378 223.951C81.2519 223.123 81.6661 222.295 82.4943 221.466C82.9085 221.052 82.9083 221.052 82.9083 220.224ZM83.3225 219.396V220.638C83.7366 220.224 83.7366 219.81 83.3225 219.396ZM85.8072 224.365L85.3931 225.193C85.3931 225.607 84.9789 226.85 84.9789 226.85L85.8072 224.365Z" fill="black"></path><path d="M168.631 219.81C167.803 222.709 164.904 223.537 163.248 225.608C161.591 226.85 159.52 228.506 157.864 229.749C156.622 230.577 154.965 230.577 153.723 231.405C153.309 231.819 152.895 232.234 152.481 232.648C151.652 233.476 151.238 233.89 149.996 234.718C148.339 235.961 147.511 235.546 146.269 235.961C145.441 236.375 140.471 242.172 140.057 243.001C138.401 245.071 136.33 246.728 134.673 248.384C133.431 250.041 130.532 253.354 128.048 253.354C125.563 253.354 123.078 248.384 122.25 246.314C121.422 243.415 122.664 244.243 124.735 243.829C127.219 243 129.704 240.102 131.361 238.031C133.845 235.546 135.502 232.648 137.986 230.163C138.815 229.335 139.643 228.506 140.471 227.264C140.471 226.85 141.299 225.193 141.713 225.193C141.713 225.193 141.713 225.607 141.299 226.022L142.128 225.193C141.714 225.607 142.542 223.537 142.956 223.123C143.37 221.88 144.198 220.638 144.612 219.81C145.855 217.739 147.097 215.254 147.925 212.77C148.339 211.527 149.168 206.972 146.683 207.386C145.855 207.386 140.885 211.528 140.471 211.113C140.471 211.113 141.299 210.285 140.885 210.285C140.057 211.113 139.229 211.942 137.986 213.184C138.401 212.77 138.401 212.77 138.815 212.77C137.986 213.598 129.29 225.608 128.462 226.85C126.805 229.335 125.149 231.819 123.492 234.304C122.664 235.546 121.836 237.203 120.594 238.445C120.179 238.859 119.351 239.273 118.937 239.688C117.695 241.344 116.867 243.829 115.624 245.899C114.382 248.384 112.725 250.869 111.483 253.354C110.241 255.838 109.413 258.323 108.584 260.808C107.756 262.464 107.342 264.121 106.514 266.191C106.514 265.777 106.928 265.363 106.928 265.363C107.342 265.363 106.514 269.09 106.1 269.504L105.271 274.474C104.443 278.201 104.029 281.928 103.201 285.241C103.201 286.483 103.201 288.968 101.958 290.21C99.4737 292.695 96.5749 288.554 95.7467 286.897C92.8479 281.514 95.3326 273.231 96.575 267.434C96.9891 263.707 97.8172 259.98 99.4737 256.667C99.8878 255.424 100.716 254.596 101.13 253.354L101.544 250.869V251.283C101.544 250.869 101.544 250.869 101.958 250.455C101.544 251.283 101.958 248.798 101.958 248.798C102.373 247.556 102.787 246.314 103.201 245.485C104.029 243.415 104.443 241.344 104.857 239.274C105.271 238.445 107.756 229.335 108.998 229.335C109.413 229.335 108.584 230.163 108.998 230.163C109.413 229.335 109.827 228.092 110.241 227.264C110.241 227.678 109.827 227.678 109.827 227.678C109.827 227.678 113.968 216.497 114.382 215.255C115.21 213.184 115.624 211.113 116.452 208.629C116.452 208.214 117.281 207.386 117.281 206.558C117.281 206.144 116.867 205.73 116.867 205.316C116.452 202.417 118.523 199.518 121.836 200.346C123.492 200.76 125.149 202.417 125.563 204.073C126.391 205.73 125.977 206.558 125.563 208.215L125.977 207.8C126.391 207.8 125.563 212.356 124.735 212.356C124.735 212.356 125.149 210.699 125.149 210.285C124.321 213.184 123.492 216.083 122.25 219.396L121.422 221.052C121.422 221.466 121.008 221.881 121.008 222.295C118.523 229.749 114.382 243.001 113.968 244.657C114.796 243.001 115.624 241.344 116.867 239.688C116.038 240.93 115.21 242.172 115.21 242.172C115.21 242.172 125.977 224.779 127.219 223.123C130.946 217.325 135.088 211.113 139.643 205.73C141.713 203.245 145.026 198.69 148.754 199.104C154.551 199.518 156.208 206.144 155.793 210.699C155.793 210.285 156.208 209.043 156.208 209.457C157.864 210.285 155.379 218.567 154.965 219.81C153.723 223.537 152.066 226.85 149.996 230.163C152.066 228.92 154.137 227.678 156.208 226.022C157.864 224.779 160.349 224.779 162.419 223.951C162.419 223.951 162.005 223.951 162.005 223.537C161.591 222.709 167.389 221.052 167.803 220.638C167.389 220.224 168.217 220.224 168.631 219.81ZM99.4737 266.605C99.0596 266.605 99.0596 266.605 99.4737 266.605V266.605ZM111.483 230.991C111.897 231.819 109.827 236.375 109.413 236.789C107.756 241.344 105.685 245.899 104.029 250.455C102.373 255.424 100.716 260.808 99.4737 266.191C100.302 262.464 101.958 258.737 103.201 255.01C104.857 250.869 106.514 246.728 108.17 242.172C108.998 240.102 109.412 238.031 110.241 235.961C110.655 234.718 111.483 233.062 111.483 230.991C111.483 231.405 111.483 231.405 111.483 230.991ZM115.21 238.031C115.624 236.789 116.038 235.546 116.452 234.304C116.038 235.96 115.624 237.203 115.21 238.031ZM122.25 219.396L122.664 218.982L122.25 219.396ZM122.664 218.153L122.25 218.982L122.664 218.153ZM122.664 218.153C122.664 217.739 123.078 217.325 123.078 217.325L122.664 218.153ZM129.29 219.81L131.361 216.911C130.532 217.739 129.704 218.982 129.29 219.81ZM149.996 229.335C149.582 229.749 149.168 229.749 149.168 230.163L149.996 229.335Z" fill="black"></path><path d="M223.291 219.81C222.463 222.709 219.564 223.537 217.907 225.608C216.251 226.85 214.18 228.506 212.524 229.749C211.282 230.577 209.625 230.577 208.383 231.405C207.969 231.819 207.555 232.234 207.14 232.648C206.312 233.476 205.898 233.89 204.656 234.718C202.999 235.961 202.171 235.546 200.929 235.961C200.101 236.375 195.131 242.172 194.717 243.001C193.061 245.071 190.99 246.728 189.334 248.384C188.091 250.041 185.192 253.354 182.708 253.354C180.223 253.354 177.738 248.384 176.91 246.314C176.082 243.415 177.324 244.243 179.395 243.829C181.88 243 184.364 240.102 186.021 238.031C188.505 235.546 190.162 232.648 192.646 230.163C193.475 229.335 194.303 228.506 195.131 227.264C195.131 226.85 195.959 225.193 196.374 225.193C196.374 225.193 196.374 225.607 195.959 226.022L196.788 225.193C196.373 225.607 197.202 223.537 197.616 223.123C198.03 221.88 198.858 220.638 199.272 219.81C200.515 217.739 201.757 215.254 202.585 212.77C202.999 211.527 203.828 206.972 201.343 207.386C200.515 207.386 195.545 211.528 195.131 211.113C195.131 211.113 195.959 210.285 195.545 210.285C194.717 211.113 193.889 211.942 192.646 213.184C193.061 212.77 193.061 212.77 193.475 212.77C192.647 213.598 183.95 225.608 183.122 226.85C181.465 229.335 179.809 231.819 178.152 234.304C177.324 235.546 176.496 237.203 175.254 238.445C174.84 238.859 174.011 239.273 173.597 239.688C172.355 241.344 171.527 243.829 170.284 245.899C169.042 248.384 167.386 250.869 166.143 253.354C164.901 255.838 164.073 258.323 163.244 260.808C162.416 262.464 162.002 264.121 161.174 266.191C161.174 265.777 161.588 265.363 161.588 265.363C162.002 265.363 161.174 269.09 160.76 269.504L159.931 274.474C159.103 278.201 158.689 281.928 157.861 285.241C157.861 286.483 157.861 288.968 156.619 290.21C154.134 292.695 151.235 288.554 150.407 286.897C147.508 281.514 149.993 273.231 151.235 267.434C151.649 263.707 152.477 259.98 154.134 256.667C154.548 255.424 155.376 254.596 155.79 253.354L156.204 250.869V251.283C156.204 250.869 156.204 250.869 156.619 250.455C156.204 251.283 156.619 248.798 156.619 248.798C157.033 247.556 157.447 246.314 157.861 245.485C158.689 243.415 159.103 241.344 159.517 239.274C159.931 238.445 162.416 229.335 163.658 229.335C164.073 229.335 163.244 230.163 163.658 230.163C164.073 229.335 164.487 228.092 164.901 227.264C164.901 227.678 164.487 227.678 164.487 227.678C164.487 227.678 168.628 216.497 169.042 215.255C169.87 213.184 170.284 211.113 171.113 208.629C171.113 208.214 171.941 207.386 171.941 206.558C171.941 206.144 171.527 205.73 171.527 205.316C171.113 202.417 173.183 199.518 176.496 200.346C178.152 200.76 179.809 202.417 180.223 204.073C181.051 205.73 180.637 206.558 180.223 208.215L180.637 207.8C181.051 207.8 180.223 212.356 179.395 212.356C179.395 212.356 179.809 210.699 179.809 210.285C178.981 213.184 178.153 216.083 176.91 219.396L176.082 221.052C176.082 221.466 175.668 221.881 175.668 222.295C173.183 229.749 169.042 243.001 168.628 244.657C169.456 243.001 170.284 241.344 171.527 239.688C170.698 240.93 169.87 242.172 169.87 242.172C169.87 242.172 180.637 224.779 181.88 223.123C185.607 217.325 189.748 211.113 194.303 205.73C196.374 203.245 199.686 198.69 203.413 199.104C209.211 199.518 210.868 206.144 210.453 210.699C210.453 210.285 210.868 209.043 210.868 209.457C212.524 210.285 210.039 218.567 209.625 219.81C208.383 223.537 206.726 226.85 204.656 230.163C206.726 228.92 208.797 227.678 210.868 226.022C212.524 224.779 215.009 224.779 217.079 223.951C217.079 223.951 216.665 223.951 216.665 223.537C216.251 222.709 222.049 221.052 222.463 220.638C222.463 220.224 222.877 220.224 223.291 219.81ZM166.143 230.991C166.557 231.819 164.487 236.375 164.073 236.789C162.416 241.344 160.346 245.899 158.689 250.455C157.033 255.424 155.376 260.808 154.134 266.191C154.962 262.464 156.619 258.737 157.861 255.01C159.517 250.869 161.174 246.728 162.83 242.172C163.659 240.102 164.073 238.031 164.901 235.961C165.315 234.718 166.143 233.062 166.143 230.991C166.557 231.405 166.557 231.405 166.143 230.991ZM169.87 238.031C170.284 236.789 170.698 235.546 171.113 234.304C170.698 235.96 170.284 237.203 169.87 238.031ZM171.527 233.476C171.527 233.476 171.941 233.476 171.527 233.476V233.476ZM176.91 219.396L177.324 218.982L176.91 219.396ZM177.324 218.153L176.91 218.982L177.324 218.153ZM177.324 218.153C177.324 217.739 177.738 217.325 177.738 217.325L177.324 218.153ZM183.95 219.81L186.021 216.911C185.193 217.739 184.778 218.982 183.95 219.81ZM204.656 229.335C204.242 229.749 203.828 229.749 203.828 230.163L204.656 229.335Z" fill="black"></path><path d="M275.47 225.608L265.946 233.062C262.633 235.961 259.32 238.446 256.007 241.344C254.764 242.587 252.694 243.829 251.451 245.486C250.209 247.142 249.795 250.455 249.381 252.111C245.24 264.949 241.513 278.201 234.473 289.797C232.402 293.11 230.746 296.837 226.19 298.079C221.221 299.322 215.838 296.837 212.939 292.696C208.798 286.898 213.353 280.272 216.666 275.716C219.979 271.161 223.292 266.606 227.019 262.879C229.917 259.98 232.816 257.495 235.715 254.596C237.786 252.526 241.513 250.041 242.755 247.556C244.411 244.243 245.24 239.688 246.482 236.375C247.31 233.476 248.139 230.163 249.381 227.264C247.724 228.506 246.068 230.991 244.411 232.648L237.372 239.688C234.887 242.173 232.402 244.657 229.089 245.9C228.261 246.314 224.534 247.97 224.534 247.556L224.948 247.142L224.12 247.556C224.948 247.556 222.878 248.385 222.463 248.385C221.221 248.799 219.979 248.384 219.151 247.97C217.08 246.728 215.837 244.243 215.423 242.173C215.423 241.344 215.838 234.304 216.666 234.719C217.08 234.719 216.666 235.547 216.666 235.547C216.666 234.718 217.08 233.89 217.08 233.062L216.666 233.476C216.252 233.476 219.979 222.709 220.393 221.467C221.221 219.396 222.049 216.911 223.292 214.84C223.706 214.012 224.12 214.012 224.534 213.184C224.948 212.77 224.948 212.356 225.362 211.942C226.605 209.457 229.503 207.8 232.402 209.043C233.644 209.457 235.301 211.113 234.887 212.356C234.473 213.184 234.059 213.184 233.645 213.598H234.059C234.473 213.598 232.816 217.325 232.402 217.325C231.988 217.325 232.402 216.497 232.816 216.083C230.332 221.052 228.261 226.436 226.605 231.82C227.433 229.749 230.746 221.467 231.16 221.467C231.574 221.467 220.807 242.587 225.776 244.243C227.433 245.072 231.16 241.344 232.402 240.516C235.301 238.031 239.028 235.547 241.513 233.062C241.099 233.062 241.099 233.476 240.684 233.476C240.684 233.476 246.068 227.264 246.482 226.436C248.139 224.365 251.452 221.881 252.28 219.396C252.694 217.739 253.108 216.911 255.178 216.497C257.663 216.083 261.804 217.325 262.219 220.224C262.633 221.467 261.804 222.709 261.39 223.537C258.077 228.921 255.178 234.718 253.108 240.516C258.077 236.375 263.047 232.234 268.43 228.092C270.087 226.436 272.157 225.194 274.228 223.951C275.47 223.123 278.783 219.81 279.197 223.123C278.783 223.537 276.712 224.365 275.47 225.608ZM240.27 255.01C235.715 259.152 231.574 263.707 227.847 268.676C224.12 273.232 219.979 278.616 218.322 284.413C217.494 286.898 217.908 293.938 222.463 292.281C224.948 291.453 226.19 288.554 227.433 286.484C228.675 283.999 230.332 281.514 231.16 279.029V278.615L231.574 277.787C235.301 270.333 237.786 262.879 240.27 255.01ZM236.957 279.858L237.786 278.201C239.028 276.131 239.442 274.474 240.27 272.404C239.442 273.646 238.614 275.302 238.2 276.545C237.786 277.373 237.372 278.615 236.957 279.858ZM239.028 272.818L238.614 273.646C238.614 273.232 238.614 273.232 239.028 272.818ZM241.927 262.465C242.341 263.707 241.099 265.363 240.684 266.192C240.27 267.02 239.856 267.848 239.856 269.091L241.927 264.121C241.927 263.707 241.927 262.879 241.927 262.465Z" fill="black"></path><path d="M353.325 175.085C353.325 174.671 353.325 175.913 353.325 175.499C353.325 176.327 353.325 177.569 353.325 177.569C353.325 177.569 353.325 176.741 352.911 176.327C352.911 178.398 352.911 180.054 352.497 181.711C352.911 181.296 352.911 180.468 352.911 180.468C353.325 181.297 352.497 182.953 352.083 183.781C351.254 186.266 350.426 189.165 349.184 191.236C347.113 196.205 344.214 199.932 341.316 204.073C338.003 208.215 334.69 211.527 330.549 214.84C328.892 216.083 327.65 216.497 325.993 217.325C324.751 218.153 323.509 219.396 321.852 220.224C318.125 222.709 313.156 225.608 308.601 226.436C307.772 226.436 306.944 226.436 306.116 226.436C305.288 226.436 304.874 226.436 304.045 226.022C303.217 225.608 302.803 225.608 302.389 226.85C300.732 228.921 299.904 233.062 299.076 235.546C297.005 241.344 294.935 247.556 294.107 253.768L293.693 253.354C291.622 255.424 285.824 256.667 284.996 252.94C284.996 252.525 284.996 252.526 284.996 252.526V252.94C283.34 250.869 284.996 246.314 285.41 244.243L287.895 233.062C288.723 229.749 289.551 226.436 290.794 223.537C291.208 222.295 292.036 221.467 292.45 220.224C292.45 220.224 293.278 217.325 293.278 216.911V217.325C293.278 216.911 293.693 216.911 293.693 216.497C293.278 217.325 293.693 214.84 293.693 214.84C294.107 213.598 294.521 212.356 295.349 211.113C296.177 209.043 296.591 207.386 297.005 205.316C297.42 204.487 300.318 195.377 301.561 195.791L301.147 196.619C301.561 195.791 301.975 194.548 302.389 193.72C302.389 194.134 301.975 194.134 301.975 194.134C301.561 194.134 307.772 181.296 308.187 179.64C309.015 177.155 310.257 174.671 311.499 172.6C312.328 171.772 312.742 171.358 313.156 170.944C313.57 170.529 313.57 169.701 313.984 169.287C314.398 168.045 315.641 165.56 317.297 165.146C319.782 164.318 321.024 167.216 321.852 168.873C322.68 170.529 322.266 171.358 321.438 172.6L321.852 172.186C322.266 172.186 320.196 176.327 319.368 176.327C319.368 176.327 319.368 175.913 319.782 175.499C316.469 181.296 313.984 187.094 311.499 193.306C311.914 192.478 317.297 180.883 317.297 180.883C316.883 180.883 311.085 194.963 310.671 196.205C308.601 201.174 306.944 206.144 305.288 211.527C307.772 206.558 310.257 201.589 313.57 197.033C316.469 192.892 319.782 189.165 322.681 185.438C322.681 185.438 323.509 183.367 324.337 183.367L323.095 185.024L324.751 182.953C324.751 182.953 324.751 182.953 324.337 182.953C324.751 181.297 327.236 179.226 328.064 177.984C329.306 176.327 330.963 174.671 332.619 173.428C335.104 170.943 338.417 166.802 341.73 165.974C347.941 163.903 352.911 169.701 353.325 175.085ZM286.653 245.071C286.238 246.728 285.824 248.384 285.41 250.455C285.41 250.041 286.238 249.213 286.238 248.798C287.067 247.556 286.653 246.314 286.653 245.071ZM287.481 241.758C289.137 235.546 291.622 229.335 293.693 222.709C292.45 226.85 289.965 230.163 288.723 234.718C288.309 236.789 287.895 239.274 287.481 241.758ZM342.144 178.398C342.558 168.045 331.791 182.125 330.135 184.196C324.337 191.236 318.125 199.104 313.156 206.558C313.156 206.144 313.57 206.144 313.57 206.144C313.57 206.144 310.257 212.77 309.843 213.598C308.187 216.497 306.944 219.396 305.702 221.88C306.116 221.466 310.671 219.81 310.671 219.81C310.671 219.81 308.601 221.052 307.772 221.466C318.539 216.911 328.064 208.214 334.69 198.275C332.619 201.588 330.134 204.487 327.236 207.386C325.579 209.043 323.923 210.699 322.266 212.356C321.438 213.184 319.368 214.012 318.539 214.84C319.368 213.598 321.438 212.356 322.681 211.527C323.923 210.285 325.165 209.043 326.408 208.215C328.892 205.316 331.377 202.417 333.862 199.104C337.589 193.72 341.73 186.266 342.144 178.398C342.144 179.226 342.144 178.812 342.144 178.398ZM310.257 196.205L308.187 201.589L310.257 196.205Z" fill="black"></path><path d="M391.42 228.092C390.177 231.405 388.521 234.304 386.45 237.203C384.38 240.516 382.309 243.415 379.825 246.314C377.754 248.798 375.269 252.111 371.956 252.525C368.229 253.354 365.331 250.041 364.088 246.728C361.604 240.516 363.26 233.476 365.33 227.264C365.33 227.264 365.33 226.436 365.33 225.608C364.088 227.264 362.846 229.335 361.603 230.577C360.361 232.648 359.119 234.718 357.876 236.789C357.048 237.617 348.352 248.384 347.109 246.728C347.109 246.728 348.352 246.313 348.352 245.899C347.109 246.728 345.453 247.142 343.796 246.728C344.211 247.142 344.211 247.142 344.211 247.142C341.726 247.556 339.655 243.415 339.241 241.758C338.413 238.859 338.413 235.546 339.241 232.233C340.484 226.022 342.968 218.982 346.695 213.598C347.524 212.356 348.766 210.699 350.008 209.871C350.836 209.043 351.665 209.043 352.493 208.215C354.149 206.972 355.392 205.73 357.876 205.73C363.26 205.73 365.33 211.942 366.573 216.083C369.057 212.77 374.027 208.215 377.754 213.184C379.825 215.669 378.582 217.739 377.34 220.224C375.269 223.951 373.613 228.507 372.785 232.648C372.785 232.234 373.199 230.577 373.613 230.577C374.441 230.163 366.573 255.01 377.754 240.93C381.067 236.789 383.966 232.234 386.865 227.678C388.107 225.608 389.349 223.537 391.006 221.466C391.834 220.638 393.49 218.567 393.904 221.052C394.733 223.537 392.662 226.022 391.42 228.092ZM364.088 220.224C364.088 219.396 362.018 213.184 362.432 212.77C362.432 212.77 363.674 215.669 363.674 216.083C363.26 214.841 362.846 210.699 360.775 210.699C357.048 210.699 354.564 217.325 353.321 219.81C351.251 224.779 349.18 229.749 348.352 235.132C348.766 233.476 354.978 214.012 357.048 214.012C355.392 214.426 349.594 230.991 349.594 232.648C349.18 233.476 347.524 239.273 349.18 239.688C350.422 240.102 352.907 236.789 353.321 235.961C355.392 233.476 357.462 230.991 359.119 228.092L362.018 223.951C362.432 223.123 362.846 222.295 363.674 221.466C364.088 221.052 364.088 221.052 364.088 220.224ZM364.502 219.396V220.638C364.502 220.224 364.502 219.81 364.502 219.396ZM366.987 224.365L366.573 225.193C366.573 225.607 366.159 226.85 366.159 226.85L366.987 224.365Z" fill="black"></path><path d="M429.933 225.608C429.105 227.264 427.862 229.335 426.62 230.991C424.135 234.718 421.236 238.446 418.752 242.173C416.267 245.9 413.368 249.212 409.641 252.111C408.813 252.525 403.844 256.667 403.844 256.253C403.844 256.253 403.844 255.838 404.258 255.838L403.43 256.253C403.844 256.253 401.773 257.495 401.359 257.909C399.703 258.323 398.046 257.909 396.804 257.081C395.561 256.253 394.733 255.01 393.905 253.354C392.663 250.869 392.663 248.798 393.077 245.9C393.077 245.485 394.733 238.86 395.561 239.274C395.975 239.274 395.147 240.102 395.561 240.102L396.39 237.203C395.975 237.203 401.773 224.78 402.187 224.366C398.874 225.194 394.733 224.779 392.663 221.881C391.834 221.052 392.248 220.224 391.834 219.396C391.42 218.568 391.006 218.154 391.006 217.325C389.764 211.942 395.976 204.488 401.359 208.215L400.945 207.801C400.945 206.973 402.187 208.629 402.601 209.457C402.601 209.871 401.773 212.77 401.359 212.77L402.187 210.699C401.359 212.77 399.288 214.841 398.874 217.325C398.46 218.982 399.703 218.982 400.945 219.396C403.015 219.81 406.328 219.81 408.813 220.224C407.157 219.81 405.086 219.396 403.43 219.396C405.086 219.81 406.742 219.81 408.399 219.81C411.712 220.638 413.368 221.881 412.126 225.194C410.884 228.507 409.227 231.406 407.985 234.719C406.742 237.617 405.5 240.93 404.258 244.243C403.844 245.486 401.359 250.041 402.601 250.869C403.844 252.111 409.641 246.728 411.298 245.071C410.884 245.486 410.469 245.486 410.469 245.486C410.055 245.486 412.54 242.587 412.954 242.173L416.267 238.031L422.065 230.163L427.862 222.295C428.276 221.467 431.175 217.74 431.589 220.638C431.589 222.295 430.347 224.365 429.933 225.608ZM395.975 255.01C395.975 254.596 395.975 254.596 395.975 255.01C395.147 253.768 394.733 252.526 394.733 251.697L395.147 252.94L394.733 250.455C394.733 250.041 394.733 250.041 394.733 250.041C394.733 250.041 394.733 250.041 394.733 250.455V250.041C394.733 248.384 394.733 247.142 395.147 245.9C394.733 246.728 394.733 247.556 394.733 248.798C394.733 250.041 394.733 251.697 395.147 252.94C395.147 253.354 395.975 255.01 396.804 255.838V255.424C397.632 256.253 398.46 256.667 399.288 257.081C397.632 256.667 396.804 255.424 395.975 255.01ZM394.733 245.486C394.733 245.486 395.147 245.486 394.733 245.486C395.147 245.486 394.733 245.486 394.733 245.486ZM395.147 243.415C395.147 243.829 395.147 243.829 395.147 243.829V243.415ZM395.561 243.415C396.39 240.516 397.632 238.031 398.46 235.133L400.531 230.163C400.945 229.335 403.429 223.951 403.844 223.537C403.015 223.951 401.359 227.678 401.359 228.092C400.531 229.749 399.703 231.82 398.874 233.89C397.632 236.789 395.975 240.102 395.561 243.415ZM395.561 254.182C395.561 253.768 395.561 253.768 395.561 254.182C395.561 253.768 395.561 253.768 395.561 254.182ZM398.874 218.154C398.874 218.568 399.702 218.982 399.702 218.982C400.117 219.396 400.945 219.81 401.773 219.81C400.945 219.81 399.703 219.396 399.288 218.982C398.874 218.982 398.874 218.154 398.874 218.154ZM410.469 227.264L407.985 232.234L410.469 227.264Z" fill="black"></path></svg> 