<?xml version="1.0" encoding="UTF-8"?> <svg xmlns="http://www.w3.org/2000/svg" width="521" height="360" viewBox="0 0 521 360" fill="none"><path d="M80.1896 100.917H2.77042C1.6484 100.917 0.900391 100.168 0.900391 99.0447V2.83105V2.45668V2.08231C0.900391 0.959194 1.6484 0.210449 2.77042 0.210449H66.3514C67.0994 0.210449 67.4734 0.584821 67.8474 0.959193L81.6857 21.924C82.0597 22.2984 82.0597 22.6728 82.0597 23.0471V99.0447C82.0597 100.168 81.3117 100.917 80.1896 100.917ZM4.64045 97.1728H78.3196V23.7959L65.2294 3.95417H4.64045V97.1728Z" fill="#E17A39"></path><path d="M80.1883 28.6627H61.1142C60.7402 28.6627 59.9921 28.2884 59.6181 27.914C59.2441 27.5396 59.2441 26.7909 59.2441 26.4165L64.4802 1.70794C64.8542 0.584821 65.6022 0.210449 66.7242 0.210449C67.8462 0.584821 68.2202 1.33357 68.2202 2.45668L63.7322 24.919H80.5624C81.6844 24.919 82.4324 25.6678 82.4324 26.7909C82.0584 27.914 81.3104 28.6627 80.1883 28.6627Z" fill="#E17A39"></path><path d="M79.8158 76.2079H2.77051V99.419H79.8158V76.2079Z" fill="#EB7E36"></path><path d="M29.3239 90.0597H25.9579V94.1778H23.7139V82.5723H28.9499C31.5679 82.5723 33.064 84.4441 33.064 86.316C33.438 88.5622 31.5679 90.0597 29.3239 90.0597ZM29.3239 84.4441H26.3319V88.1879H29.3239C30.4459 88.1879 31.1939 87.4391 31.1939 86.316C31.1939 84.8185 30.4459 84.4441 29.3239 84.4441Z" fill="white"></path><path d="M43.5367 94.1778L39.0487 86.6904L38.3007 84.8185L38.6747 87.4391V94.1778H36.4307V82.5723H38.6747L43.1628 90.0597L43.9107 91.9316L43.5367 89.311V82.5723H45.4067V94.1778H43.5367Z" fill="white"></path><path d="M58.8706 94.1779L58.4966 93.0548V92.306C57.7486 94.1779 56.2526 94.5523 54.3825 94.5523C51.0165 94.5523 48.7725 91.9317 48.7725 88.5623C48.7725 86.3161 49.8944 82.198 54.7565 82.198C56.2525 82.198 57.7486 82.5724 58.8706 83.6955C59.6186 84.4442 59.9926 85.193 59.9926 86.3161H57.7486C57.3746 84.8186 56.2525 84.0699 54.7565 84.0699C52.5125 84.0699 51.3905 85.9417 51.3905 88.188C51.3905 91.5573 53.2605 92.6804 55.1305 92.6804C55.8785 92.6804 57.0006 92.306 57.3746 91.9317C58.1226 91.5573 58.1226 90.8086 58.1226 90.0598H55.1305V88.188H60.3666V94.1779H58.8706Z" fill="white"></path><path d="M25.5855 34.6526H15.4873V44.7606H25.5855V34.6526Z" fill="#E17A39"></path><path d="M35.6821 44.012H25.584V54.12H35.6821V44.012Z" fill="#E17A39"></path><path d="M25.5855 51.4993H15.4873V61.6073H25.5855V51.4993Z" fill="#E17A39"></path><path d="M45.7797 35.7759H35.6816V45.8839H45.7797V35.7759Z" fill="#E17A39"></path><path d="M45.7797 52.6226H35.6816V62.7306H45.7797V52.6226Z" fill="#E17A39"></path><path d="M56.2516 44.012H46.1533V54.12H56.2516V44.012Z" fill="#E17A39"></path><path d="M66.351 35.7759H56.2529V45.8839H66.351V35.7759Z" fill="#E17A39"></path><path d="M66.351 52.6226H56.2529V62.7306H66.351V52.6226Z" fill="#E17A39"></path><path d="M10.6223 234.942C9.12627 246.547 12.1183 258.902 19.9724 268.635C27.8266 278.743 39.0467 284.359 50.6409 285.856C62.2351 287.354 74.5773 284.359 84.3014 276.497C85.0495 275.748 87.2935 274.251 88.7895 273.128C89.5375 272.379 90.2855 272.005 91.0336 271.256C91.7816 270.882 91.7816 270.507 91.7816 270.507L109.734 255.532C109.734 256.281 109.36 257.778 109.36 259.276C108.986 261.897 108.612 265.266 108.612 268.635C108.612 269.01 108.612 269.01 108.238 269.384C107.864 270.133 107.864 271.256 107.49 272.005C107.116 273.502 107.116 274.625 106.742 275.748C105.246 276.497 103.75 277.246 102.628 278.369C101.506 279.118 100.758 279.866 100.01 280.99C99.2617 281.738 98.8877 282.487 98.5137 283.236C97.7657 284.733 97.7656 286.231 97.7656 287.728C97.7656 289.226 98.5137 290.723 99.2617 292.221C99.6357 292.595 99.6357 292.969 100.01 293.344C100.384 294.093 101.132 294.467 101.88 294.841C103.002 295.59 104.124 296.339 105.62 296.713C107.49 297.088 109.36 297.462 111.23 297.462C112.352 297.462 113.1 297.462 113.848 297.088C114.596 297.088 114.97 296.713 115.718 296.713C118.336 298.959 120.954 300.457 123.572 301.206C126.19 301.954 128.808 302.703 131.052 302.703C134.792 303.077 138.532 302.703 141.898 302.329C145.264 301.954 148.256 301.58 150.874 301.206C151.248 301.206 151.248 301.58 151.622 301.58C152.745 301.954 154.24 302.329 155.737 302.329C156.485 302.329 157.607 301.954 158.355 301.58C159.103 301.206 160.225 300.831 160.973 300.083C162.469 298.959 163.591 297.462 164.713 295.59C165.461 294.467 165.835 293.344 166.209 291.846C166.957 289.6 166.957 287.354 166.583 285.482C166.209 283.985 165.835 282.487 165.087 280.99C163.965 278.743 162.843 276.497 160.973 274.251C159.477 272.005 157.233 269.384 154.989 266.389C154.615 266.015 154.241 265.266 153.493 264.143C153.493 263.768 153.118 263.768 153.118 263.394H154.615C154.989 263.394 154.989 263.394 155.363 263.768L162.469 269.01C163.217 269.384 163.965 269.758 164.713 270.133C165.835 270.507 167.331 270.881 168.827 270.881C169.575 270.881 170.323 270.881 171.445 270.507C172.193 270.133 172.941 269.758 173.689 269.384C174.063 269.01 174.811 268.635 175.185 267.887C175.933 266.763 176.307 266.015 176.307 264.892C176.681 263.394 176.681 261.897 176.307 260.773C176.307 260.025 175.933 259.276 175.933 258.527C175.559 257.778 175.185 257.03 174.811 256.655L169.201 249.542C169.949 249.168 170.697 248.419 171.445 248.045C172.941 246.922 174.063 245.424 175.185 244.301C175.559 243.552 176.307 243.178 176.681 242.429C177.429 242.804 178.177 243.178 178.925 243.552C180.047 243.927 181.543 244.301 182.665 244.675C184.535 245.05 186.031 244.675 187.527 244.301C189.023 243.927 190.145 243.178 191.267 242.429C192.763 241.306 193.511 240.183 194.259 239.06C195.007 237.937 195.007 237.188 195.381 237.188L196.129 235.316L164.339 194.884L162.469 195.258C162.469 195.258 160.599 195.633 158.355 196.381C155.363 194.135 151.996 192.263 147.882 191.14C140.776 188.894 131.8 188.145 122.45 190.017C113.1 191.515 103.75 195.258 95.1476 201.997C92.5295 203.869 90.2855 206.115 88.0415 208.361C87.6675 207.987 87.2935 207.613 86.9195 207.238C78.6913 199.376 68.2192 194.884 57.747 194.135C46.9008 193.386 36.0546 196.756 26.7045 203.869C17.7284 212.105 12.1183 223.336 10.6223 234.942ZM58.495 201.623C67.8451 201.997 76.4473 205.741 83.5534 212.479C84.3015 213.228 84.6755 213.603 85.4235 214.351C85.7975 214.726 85.7975 214.726 86.1715 215.1C86.1715 215.1 86.1715 215.1 86.1715 215.474C86.5455 215.849 86.5455 216.223 86.9195 216.223C86.9195 216.598 87.2935 216.598 87.2935 216.972C89.1635 220.341 89.5375 223.711 89.5375 227.08C89.1635 230.449 88.0415 233.444 85.7974 236.439C85.0494 237.562 83.9274 238.685 82.8054 239.434C80.9354 240.932 78.6913 242.055 76.4473 242.429C73.0812 243.178 69.3412 243.178 66.3491 242.429C62.9831 241.68 60.365 239.809 58.495 237.562C57.747 236.439 56.999 234.942 56.625 233.444L52.1369 234.567C52.8849 236.814 53.6329 238.685 55.129 240.183C56.999 242.429 59.243 243.927 61.4871 245.424C65.2271 247.296 69.7152 248.045 73.8293 247.67C78.3173 247.296 82.4314 245.799 86.1715 243.178C87.6675 242.055 88.7895 240.932 89.9115 239.434C92.5296 235.691 94.3996 231.572 94.7736 227.454C95.1476 224.085 94.3996 221.09 93.2776 217.721C92.5295 216.598 93.2776 215.474 94.3996 214.726C96.6436 212.105 98.8876 209.859 101.506 207.987C106.742 203.869 111.978 201.248 117.588 199.376C125.816 196.756 134.418 196.007 141.524 196.756C145.264 197.13 148.256 198.253 151.248 199.376C153.867 200.5 156.111 201.997 157.981 203.494L159.477 204.992L161.347 204.243C162.469 203.869 163.591 203.494 164.339 203.12L190.893 236.814C190.519 237.188 190.145 237.562 189.771 237.937C189.397 238.311 189.023 238.311 188.649 238.685C188.275 238.685 187.901 238.685 187.527 239.06C186.779 239.06 186.031 239.06 184.909 238.685C183.787 238.311 182.291 237.562 180.795 236.065L177.803 233.819L174.811 236.439C173.689 237.937 172.941 239.434 171.819 240.557C170.697 241.68 169.949 242.804 169.201 243.552C168.079 244.301 167.331 244.675 166.209 245.424C165.461 244.675 164.713 243.927 163.965 243.552C162.843 242.804 162.095 242.055 160.973 241.306C160.599 240.932 159.851 240.557 159.477 240.557C159.103 240.183 158.355 240.183 157.607 240.183C155.737 239.809 153.866 241.306 153.866 242.804C153.492 244.675 154.989 246.547 156.485 246.547C156.485 246.547 156.485 246.547 156.859 246.547C157.233 246.547 157.607 246.922 158.355 247.67C159.103 248.419 160.225 249.168 161.721 250.291C162.843 251.414 163.965 252.163 165.087 253.286L171.445 261.897C171.445 261.897 171.445 262.271 171.819 262.271C171.819 262.645 172.193 263.394 171.819 263.768C171.819 264.143 171.819 264.143 171.819 264.517C171.819 264.517 171.819 264.517 171.445 264.892C171.445 264.892 171.071 264.892 171.071 265.266C170.697 265.266 170.323 265.266 169.575 265.266C169.201 265.266 168.453 264.892 168.453 264.517L161.347 259.276C160.225 258.153 158.355 257.404 156.859 257.404L149.004 257.03L143.768 262.645L146.76 264.892C146.76 264.892 146.76 264.892 147.134 265.266C147.508 265.64 147.508 265.64 147.882 266.015C148.63 266.763 149.004 267.887 149.752 268.635C150.5 269.384 150.874 270.507 151.622 271.256C153.867 274.251 155.737 276.871 157.233 279.118C158.355 280.99 159.477 282.487 159.851 283.61C160.225 284.733 160.599 285.482 160.973 286.231C161.347 287.354 161.347 288.477 161.347 289.6C161.347 290.723 160.973 291.846 159.851 293.344C159.103 294.467 158.355 295.216 157.981 295.59C157.607 295.964 156.859 296.339 156.485 296.339C156.111 296.339 155.737 296.339 155.363 296.339C154.989 296.339 154.615 295.964 154.241 295.964H153.866C153.866 295.964 153.867 295.964 153.493 295.964C153.493 295.964 153.492 295.964 153.118 295.964H152.745H152.37C152.37 295.964 151.996 295.964 151.622 295.964C148.63 296.339 145.638 296.713 142.646 297.088C138.158 297.462 134.044 297.836 129.93 297.088C128.06 296.713 126.19 296.339 124.32 295.216C122.45 294.467 120.58 292.969 119.084 291.472L117.214 289.6L114.97 291.098C114.596 291.098 114.596 291.472 114.222 291.472C113.848 291.846 113.1 291.846 111.978 291.846C110.482 291.846 108.986 291.846 107.864 291.472C107.116 291.472 106.742 291.098 106.368 290.723C105.994 290.349 105.62 290.349 105.62 290.349C105.246 289.6 105.246 288.851 104.872 288.477C104.872 288.103 104.872 287.728 104.872 287.728C104.872 287.354 105.246 286.979 105.62 286.605C105.994 286.231 106.368 285.482 107.116 285.108C108.238 284.359 109.734 283.236 111.604 282.487H111.978L112.352 282.113C112.726 281.738 113.1 281.364 113.1 281.364C113.1 280.99 113.474 280.99 113.474 280.99C113.474 280.615 113.474 280.615 113.474 280.615C113.474 280.241 113.474 280.241 113.474 280.241C113.474 279.866 113.474 279.866 113.474 279.492C113.474 279.118 113.474 278.369 113.848 277.62C113.848 276.497 114.222 275.374 114.222 274.625C114.222 274.251 114.596 273.502 114.596 273.128C114.596 272.753 114.97 272.379 114.97 272.379L115.344 272.005V271.256C115.718 268.261 115.718 264.517 116.092 261.897C116.092 260.399 116.466 259.276 116.466 258.527C116.466 258.153 116.466 257.778 116.466 257.404V257.03C116.466 255.532 116.092 253.66 114.97 252.537C114.222 251.789 113.474 251.04 112.352 250.665C110.108 249.542 107.49 249.917 105.62 251.414L105.246 251.789L86.9195 267.138C86.1715 267.512 81.3094 271.63 79.4394 273.128C70.8372 279.866 60.7391 282.487 50.6409 280.99C40.5427 279.866 31.1926 274.625 24.4605 266.389C17.7284 257.778 15.1103 247.67 16.6064 237.562C17.7284 227.454 22.9645 218.095 31.1926 211.356C39.7947 203.869 49.1449 200.874 58.495 201.623Z" fill="#040000"></path><path d="M136.289 286.98C137.411 288.477 139.655 288.851 141.151 287.728C142.647 286.605 143.021 284.359 141.899 282.862C140.777 281.364 138.533 280.99 137.037 282.113C135.541 283.236 135.167 285.482 136.289 286.98Z" fill="#040000"></path><path d="M226.424 253.66H188.65C179.673 253.66 172.193 246.173 172.193 237.188V195.633C172.193 186.648 179.673 179.16 188.65 179.16H226.424C235.4 179.16 242.88 186.648 242.88 195.633V237.188C242.88 246.173 235.774 253.66 226.424 253.66ZM188.65 187.771C184.162 187.771 180.795 191.14 180.795 195.633V237.188C180.795 241.68 184.162 245.05 188.65 245.05H226.424C230.912 245.05 234.278 241.68 234.278 237.188V195.633C234.278 191.14 230.912 187.771 226.424 187.771H188.65Z" fill="black"></path><path d="M504.312 305.324H349.1C340.124 305.324 332.644 297.836 332.644 288.851V117.763C332.644 108.778 340.124 101.291 349.1 101.291H504.312C513.288 101.291 520.768 108.778 520.768 117.763V288.851C520.768 297.836 513.662 305.324 504.312 305.324ZM349.474 109.901C344.986 109.901 341.62 113.271 341.62 117.763V288.851C341.62 293.344 344.986 296.713 349.474 296.713H504.686C509.174 296.713 512.54 293.344 512.54 288.851V117.763C512.54 113.271 509.174 109.901 504.686 109.901H349.474V109.901Z" fill="black"></path><path d="M241.385 185.525C240.637 185.525 240.263 185.15 239.514 184.776C238.766 183.653 238.766 182.53 239.888 181.781L243.255 179.16C244.377 178.412 245.499 178.786 246.247 179.535C246.995 180.658 246.995 181.781 245.873 182.53L242.507 185.15C242.507 185.525 242.133 185.525 241.385 185.525Z" fill="black"></path><path d="M261.207 170.175C260.459 170.175 260.085 169.801 259.337 169.427C258.589 168.304 258.589 167.18 259.711 166.432L266.069 161.19C267.191 160.442 268.313 160.442 269.061 161.565C269.809 162.688 269.809 163.811 268.687 164.56L262.329 169.801C261.955 170.175 261.581 170.175 261.207 170.175ZM284.021 152.58C283.273 152.58 282.899 152.206 282.151 151.831C281.403 150.708 281.403 149.585 282.525 148.836L288.883 143.595C290.005 142.846 291.127 143.221 291.875 143.969C292.623 145.092 292.623 146.216 291.501 146.964L285.143 152.206C284.769 152.206 284.395 152.58 284.021 152.58ZM306.461 134.61C305.713 134.61 305.339 134.236 304.591 133.861C303.843 132.738 303.843 131.615 304.965 130.866L311.324 125.625C312.446 124.876 313.568 124.876 314.316 125.999C315.064 127.123 315.064 128.246 313.942 128.994L307.584 134.236C307.584 134.61 307.21 134.61 306.461 134.61Z" fill="black"></path><path d="M329.275 117.015C328.527 117.015 328.153 116.64 327.405 116.266C326.657 115.143 326.657 114.02 327.779 113.271L331.145 110.65C332.267 109.902 333.389 109.902 334.137 111.025C334.885 112.148 334.885 113.271 333.763 114.02L330.397 116.64C330.397 116.64 329.649 117.015 329.275 117.015Z" fill="black"></path><path d="M244.003 252.163C243.629 252.163 243.255 252.163 242.881 251.788L239.141 249.917C238.019 249.168 237.645 248.045 238.393 246.922C239.141 245.799 240.263 245.424 241.385 246.173L245.125 248.045C246.247 248.793 246.621 249.917 245.873 251.04C245.499 251.789 244.751 252.163 244.003 252.163Z" fill="black"></path><path d="M316.186 291.472C315.812 291.472 315.438 291.472 315.064 291.098L308.332 287.354C307.21 286.605 306.836 285.482 307.584 284.359C308.332 283.236 309.454 282.861 310.576 283.61L317.308 287.354C318.43 288.103 318.804 289.226 318.056 290.349C317.682 291.098 316.934 291.472 316.186 291.472ZM292.25 278.369C291.876 278.369 291.502 278.369 291.128 277.995L284.396 274.251C283.274 273.502 282.9 272.379 283.648 271.256C284.396 270.133 285.518 269.758 286.64 270.507L293.372 274.251C294.494 275 294.868 276.123 294.12 277.246C293.746 277.995 292.998 278.369 292.25 278.369ZM267.939 265.266C267.565 265.266 267.192 265.266 266.818 264.892L260.085 261.148C258.963 260.399 258.589 259.276 259.337 258.153C260.085 257.03 261.207 256.655 262.329 257.404L269.062 261.148C270.184 261.897 270.558 263.02 269.81 264.143C269.436 264.892 268.687 265.266 267.939 265.266Z" fill="black"></path><path d="M337.132 303.077C336.758 303.077 336.384 303.077 336.01 302.703L332.27 300.831C331.148 300.082 330.774 298.959 331.522 297.836C332.27 296.713 333.392 296.339 334.514 297.087L338.254 298.959C339.376 299.708 339.75 300.831 339.002 301.954C338.628 302.703 337.88 303.077 337.132 303.077Z" fill="black"></path><path d="M46.1549 187.771C43.9109 187.771 42.0408 186.273 42.0408 184.027C39.7968 167.929 45.0329 135.733 80.1894 131.241C116.468 126.374 133.672 154.452 139.656 166.432C140.778 168.678 139.656 171.299 137.786 172.047C135.542 173.17 132.924 172.047 132.176 170.175C127.314 159.693 112.354 135.733 81.6855 139.851C46.5289 144.344 51.017 181.407 51.017 182.904C51.391 185.15 49.5209 187.397 47.2769 187.771C46.5289 187.771 46.1549 187.771 46.1549 187.771Z" fill="#999899"></path><path d="M112.728 164.185L114.224 160.067L134.046 166.806L139.656 146.59L143.77 147.713L137.038 172.422L112.728 164.185Z" fill="#999899"></path><path d="M118.712 359.982C117.59 359.982 116.468 359.982 115.346 359.982C77.9459 357.736 66.3517 324.417 63.7336 314.309C62.9856 312.062 64.4817 309.816 66.7257 309.067C68.9697 308.319 71.2137 309.816 71.9618 312.062C74.9538 323.294 85.0519 349.5 115.72 351.372C151.251 353.243 153.869 316.181 153.869 314.683C153.869 312.437 156.113 310.565 158.357 310.565C160.601 310.565 162.471 312.811 162.471 315.057C161.349 331.155 150.877 359.982 118.712 359.982Z" fill="#999899"></path><path d="M89.1644 321.422L86.9203 325.165L68.5941 314.683L59.6179 333.776L55.5039 331.904L66.7241 308.693L89.1644 321.422Z" fill="#999899"></path><path d="M338.071 180.053L417.729 265.842C416.809 274.254 410.787 291.614 394.059 293.763C377.332 295.911 356.041 278.433 347.487 269.425L348.846 296.069" stroke="black" stroke-width="12"></path></svg> 