<?xml version="1.0" encoding="UTF-8"?> <svg xmlns="http://www.w3.org/2000/svg" width="523" height="364" viewBox="0 0 523 364" fill="none"><path d="M11.968 237.937C10.472 249.542 13.464 261.897 21.3181 271.63C29.1723 281.738 40.3924 287.354 51.9866 288.851C63.5808 290.349 75.923 287.354 85.6471 279.492C86.3951 278.743 88.6391 277.246 90.1352 276.123C90.8832 275.374 91.6312 275 92.3792 274.251C93.1272 273.877 93.1272 273.502 93.1272 273.502L111.079 258.527C111.079 259.276 110.705 260.773 110.705 262.271C110.331 264.892 109.957 268.261 109.957 271.63C109.957 272.005 109.957 272.005 109.583 272.379C109.209 273.128 109.209 274.251 108.835 275C108.461 276.497 108.461 277.62 108.087 278.743C106.591 279.492 105.095 280.241 103.973 281.364C102.851 282.113 102.103 282.861 101.355 283.985C100.607 284.733 100.233 285.482 99.8593 286.231C99.1113 287.728 99.1113 289.226 99.1113 290.723C99.1113 292.221 99.8593 293.718 100.607 295.216C100.981 295.59 100.981 295.964 101.355 296.339C101.729 297.088 102.477 297.462 103.225 297.836C104.347 298.585 105.469 299.334 106.965 299.708C108.835 300.083 110.705 300.457 112.576 300.457C113.698 300.457 114.446 300.457 115.194 300.083C115.942 300.083 116.316 299.708 117.064 299.708C119.682 301.954 122.3 303.452 124.918 304.201C127.536 304.949 130.154 305.698 132.398 305.698C136.138 306.073 139.878 305.698 143.244 305.324C146.61 304.949 149.602 304.575 152.22 304.201C152.594 304.201 152.594 304.575 152.968 304.575C154.09 304.949 155.586 305.324 157.082 305.324C157.83 305.324 158.952 304.949 159.7 304.575C160.448 304.201 161.57 303.826 162.318 303.078C163.814 301.954 164.936 300.457 166.058 298.585C166.806 297.462 167.18 296.339 167.554 294.841C168.302 292.595 168.302 290.349 167.928 288.477C167.554 286.98 167.18 285.482 166.432 283.985C165.31 281.738 164.188 279.492 162.318 277.246C160.822 275 158.578 272.379 156.334 269.384C155.96 269.01 155.586 268.261 154.838 267.138C154.838 266.763 154.464 266.763 154.464 266.389H155.96C156.334 266.389 156.334 266.389 156.708 266.763L163.814 272.005C164.562 272.379 165.31 272.753 166.058 273.128C167.18 273.502 168.676 273.877 170.172 273.877C170.92 273.877 171.668 273.877 172.79 273.502C173.538 273.128 174.286 272.753 175.034 272.379C175.408 272.005 176.156 271.63 176.53 270.882C177.278 269.758 177.652 269.01 177.652 267.887C178.026 266.389 178.026 264.892 177.652 263.768C177.652 263.02 177.278 262.271 177.278 261.522C176.904 260.773 176.53 260.025 176.156 259.65L172.042 253.286C172.79 252.912 173.538 252.163 174.286 251.789C175.782 250.665 176.904 249.168 178.026 248.045C178.4 247.296 179.148 246.922 179.522 246.173C180.271 246.547 181.019 246.922 181.767 247.296C182.889 247.67 184.385 248.045 185.507 248.419C187.377 248.794 188.873 248.419 190.369 248.045C191.865 247.67 192.987 246.922 194.109 246.173C195.605 245.05 196.353 243.927 197.101 242.804C197.849 241.681 197.849 240.932 198.223 240.932L198.971 239.06L167.18 198.628L165.31 199.002C165.31 199.002 163.44 199.376 161.196 200.125C158.204 197.879 154.838 196.007 150.724 194.884C143.618 192.638 134.642 191.889 125.292 193.761C115.942 195.258 106.591 199.002 97.9893 205.741C95.3712 207.613 93.1272 209.859 90.8832 212.105C90.5092 211.731 90.1352 211.356 89.7612 210.982C81.533 203.12 71.0609 198.628 60.5887 197.879C49.7426 197.13 38.8964 200.5 29.5463 207.613C19.0741 215.474 13.09 226.331 11.968 237.937ZM59.4667 204.618C68.8168 204.992 77.419 208.736 84.5251 215.474C85.2731 216.223 85.6471 216.598 86.3951 217.346C86.7691 217.721 86.7691 217.721 87.1431 218.095C87.1431 218.095 87.1431 218.095 87.1431 218.469C87.5171 218.844 87.5171 219.218 87.8911 219.218C87.8911 219.593 88.2651 219.593 88.2651 219.967C90.1352 223.336 90.5092 226.706 90.5092 230.075C90.1352 233.444 89.0132 236.439 86.7691 239.434C86.0211 240.557 84.8991 241.681 83.7771 242.429C81.907 243.927 79.663 245.05 77.419 245.424C74.0529 246.173 70.3129 246.173 67.3208 245.424C63.9548 244.675 61.3367 242.804 59.4667 240.557C58.7187 239.434 57.9707 237.937 57.5967 236.439L53.1086 237.562C53.8566 239.809 54.6046 241.681 56.1007 243.178C57.9707 245.424 60.2147 246.922 62.4588 248.419C66.1988 250.291 70.6869 251.04 74.8009 250.665C79.289 250.291 83.4031 248.794 87.1431 246.173C88.6391 245.05 89.7612 243.927 90.8832 242.429C93.5012 238.686 95.3712 234.567 95.7453 230.449C96.1193 227.08 95.3712 224.085 94.2492 220.716C93.5012 219.593 94.2492 218.469 95.3712 217.721C97.6153 215.1 99.8593 212.854 102.477 210.982C107.713 206.864 112.95 204.243 118.56 202.371C126.788 199.751 135.39 199.002 142.496 199.751C146.236 200.125 149.228 201.248 152.22 202.371C154.838 203.495 157.082 204.992 158.952 206.49L160.448 207.987L162.318 207.238C163.44 206.864 164.562 206.49 165.31 206.115L191.865 239.809C191.491 240.183 191.117 240.557 190.743 240.932C190.369 241.306 189.995 241.306 189.621 241.681C189.247 241.681 188.873 241.681 188.499 242.055C187.751 242.055 187.003 242.055 185.881 241.681C184.759 241.306 183.263 240.557 181.767 239.06L178.774 236.814L175.782 239.434C174.66 240.932 173.912 242.429 172.79 243.552C171.668 244.675 170.92 245.799 170.172 246.547C169.05 247.296 168.302 247.67 167.18 248.419C166.432 247.67 165.684 246.922 164.936 246.547C163.814 245.799 163.066 245.05 161.944 244.301C161.57 243.927 160.822 243.552 160.448 243.552C160.074 243.178 159.326 243.178 158.578 243.178C156.708 242.804 154.838 244.301 154.838 245.799C154.464 247.67 155.96 249.542 157.456 249.542C157.456 249.542 157.456 249.542 157.83 249.542C158.204 249.542 158.578 249.917 159.326 250.665C160.074 251.414 161.196 252.163 162.692 253.286C163.814 254.409 164.936 255.158 166.058 256.281L172.416 264.892C172.416 264.892 172.416 265.266 172.79 265.266C172.79 265.64 173.164 266.389 172.79 266.763C172.79 267.138 172.79 267.138 172.79 267.512C172.79 267.512 172.79 267.512 172.416 267.887C172.416 267.887 172.042 267.887 172.042 268.261C171.668 268.261 171.294 268.261 170.546 268.261C170.172 268.261 169.424 267.887 169.424 267.512L162.318 262.271C161.196 261.148 159.326 260.399 157.83 260.399L149.976 260.025L144.74 265.64L147.732 267.887C147.732 267.887 147.732 267.887 148.106 268.261C148.48 268.635 148.48 268.635 148.854 269.01C149.602 269.758 149.976 270.882 150.724 271.63C151.472 272.379 151.846 273.502 152.594 274.251C154.838 277.246 156.708 279.866 158.204 282.113C159.326 283.985 160.448 285.482 160.822 286.605C161.196 287.728 161.57 288.477 161.944 289.226C162.318 290.349 162.318 291.472 162.318 292.595C162.318 293.718 161.944 294.841 160.822 296.339C160.074 297.462 159.326 298.211 158.952 298.585C158.578 298.959 157.83 299.334 157.456 299.334C157.082 299.334 156.708 299.334 156.334 299.334C155.96 299.334 155.586 298.959 155.212 298.959H154.838C154.838 298.959 154.838 298.959 154.464 298.959C154.464 298.959 154.464 298.959 154.09 298.959H153.716H153.342C153.342 298.959 152.968 298.959 152.594 298.959C149.602 299.334 146.61 299.708 143.618 300.083C139.13 300.457 135.016 300.831 130.902 300.083C129.032 299.708 127.162 299.334 125.292 298.211C123.422 297.462 121.552 295.964 120.056 294.467L118.186 292.595L115.942 293.344C115.568 293.344 115.568 293.718 115.194 293.718C114.82 294.093 114.072 294.093 112.95 294.093C111.453 294.093 109.957 294.093 108.835 293.718C108.087 293.718 107.713 293.344 107.339 292.969C106.965 292.595 106.591 292.595 106.591 292.595C106.217 291.846 106.217 291.098 105.843 290.723C105.843 290.349 105.843 289.975 105.843 289.975C105.843 289.6 106.217 289.226 106.591 288.851C106.965 288.477 107.339 287.728 108.087 287.354C109.209 286.605 110.705 285.482 112.576 284.733H112.95L113.324 284.359C113.698 283.985 114.072 283.61 114.072 283.61C114.072 283.236 114.446 283.236 114.446 283.236C114.446 282.861 114.446 282.861 114.446 282.861C114.446 282.487 114.446 282.487 114.446 282.487C114.446 282.113 114.446 282.113 114.446 281.738C114.446 281.364 114.446 280.615 114.82 279.866C114.82 278.743 115.194 277.62 115.194 276.872C115.194 276.497 115.568 275.748 115.568 275.374C115.568 275 115.942 274.625 115.942 274.625L116.316 274.251V273.502C116.69 270.507 116.69 266.763 117.064 264.143C117.064 262.645 117.438 261.522 117.438 260.773C117.438 260.399 117.438 260.025 117.438 259.65V259.276C117.438 257.779 117.064 255.907 115.942 254.784C115.194 254.035 114.446 253.286 113.324 252.912C111.079 251.789 108.461 252.163 106.591 253.66L106.217 254.035L87.8911 269.384C87.1431 269.758 82.281 273.877 80.411 275.374C71.8089 282.113 61.7107 284.733 51.6126 283.236C41.5144 282.113 32.1643 276.871 25.4322 268.635C18.7001 260.025 16.0821 249.917 17.5781 239.809C18.7001 229.701 23.9362 220.341 32.1643 213.603C41.1404 206.864 50.4906 204.243 59.4667 204.618Z" fill="#040000"></path><path d="M137.635 289.974C138.757 291.472 141.001 291.846 142.497 290.723C143.993 289.6 144.367 287.354 143.245 285.856C142.123 284.359 139.879 283.985 138.383 285.108C136.513 286.231 136.513 288.477 137.635 289.974Z" fill="#040000"></path><path d="M227.77 256.655H189.995C181.019 256.655 173.539 249.168 173.539 240.183V198.628C173.539 189.643 181.019 182.155 189.995 182.155H227.77C236.746 182.155 244.226 189.643 244.226 198.628V240.183C244.226 249.542 236.746 256.655 227.77 256.655ZM189.995 190.766C185.507 190.766 182.141 194.135 182.141 198.628V240.183C182.141 244.675 185.507 248.045 189.995 248.045H227.77C232.258 248.045 235.624 244.675 235.624 240.183V198.628C235.624 194.135 232.258 190.766 227.77 190.766H189.995Z" fill="black"></path><path d="M505.656 308.319H350.444C341.467 308.319 333.987 300.831 333.987 291.846V120.758C333.987 111.773 341.467 104.286 350.444 104.286H505.656C514.632 104.286 522.112 111.773 522.112 120.758V291.846C522.112 300.831 514.632 308.319 505.656 308.319ZM350.444 112.896C345.955 112.896 342.589 116.266 342.589 120.758V291.846C342.589 296.339 345.955 299.708 350.444 299.708H505.656C510.144 299.708 513.51 296.339 513.51 291.846V120.758C513.51 116.266 510.144 112.896 505.656 112.896H350.444Z" fill="black"></path><path d="M242.73 188.52C241.982 188.52 241.608 188.145 240.86 187.771C240.112 186.648 240.112 185.525 241.234 184.776L244.6 182.155C245.722 181.406 246.844 181.781 247.592 182.53C248.34 183.653 248.34 184.776 247.218 185.525L243.852 188.145C243.478 188.52 243.104 188.52 242.73 188.52Z" fill="black"></path><path d="M262.179 173.17C261.431 173.17 261.057 172.796 260.309 172.422C259.561 171.299 259.561 170.175 260.683 169.427L267.042 164.185C268.164 163.437 269.286 163.437 270.034 164.56C270.782 165.683 270.782 166.806 269.66 167.555L263.675 172.796C263.301 173.17 262.927 173.17 262.179 173.17ZM284.994 155.575C284.246 155.575 283.872 155.201 283.124 154.826C282.376 153.703 282.376 152.58 283.498 151.831L289.856 146.59C290.978 145.841 292.1 146.216 292.848 146.964C293.596 148.087 293.596 149.211 292.474 149.959L286.116 155.201C286.116 155.201 285.368 155.575 284.994 155.575ZM307.808 137.605C307.06 137.605 306.686 137.231 305.938 136.856C305.19 135.733 305.19 134.61 306.312 133.861L312.67 128.62C313.792 127.871 314.914 127.871 315.662 128.994C316.41 130.118 316.41 131.241 315.288 131.989L308.93 137.231C308.556 137.605 308.182 137.605 307.808 137.605Z" fill="black"></path><path d="M330.621 120.01C329.873 120.01 329.499 119.635 328.751 119.261C328.003 118.138 328.003 117.015 329.125 116.266L332.491 113.645C333.613 112.897 334.735 112.896 335.483 114.02C336.231 115.143 336.231 116.266 335.109 117.015L331.743 119.635C331.369 120.01 330.995 120.01 330.621 120.01Z" fill="black"></path><path d="M245.349 255.158C244.975 255.158 244.601 255.158 244.227 254.783L240.487 252.912C239.365 252.163 238.991 251.04 239.739 249.917C240.487 248.793 241.609 248.419 242.731 249.168L246.471 251.04C247.593 251.788 247.967 252.912 247.219 254.035C246.845 254.783 246.097 255.158 245.349 255.158Z" fill="black"></path><path d="M317.531 294.467C317.157 294.467 316.783 294.467 316.409 294.093L309.677 290.349C308.555 289.6 308.181 288.477 308.929 287.354C309.677 286.231 310.799 285.856 311.921 286.605L318.653 290.349C319.775 291.098 320.149 292.221 319.401 293.344C319.027 294.093 318.279 294.467 317.531 294.467ZM293.221 281.364C292.847 281.364 292.473 281.364 292.099 280.99L285.367 277.246C284.244 276.497 283.87 275.374 284.618 274.251C285.366 273.128 286.489 272.753 287.611 273.502L294.343 277.246C295.465 277.995 295.839 279.118 295.091 280.241C294.717 280.99 293.969 281.364 293.221 281.364ZM269.284 268.261C268.91 268.261 268.536 268.261 268.162 267.887L261.43 264.143C260.308 263.394 259.934 262.271 260.682 261.148C261.43 260.025 262.552 259.65 263.674 260.399L270.406 264.143C271.528 264.892 271.902 266.015 271.154 267.138C270.78 267.886 270.032 268.261 269.284 268.261Z" fill="black"></path><path d="M338.478 306.072C338.104 306.072 337.73 306.072 337.356 305.698L333.616 303.826C332.494 303.077 332.12 301.954 332.868 300.831C333.616 299.708 334.738 299.334 335.86 300.082L339.6 301.954C340.722 302.703 341.096 303.826 340.348 304.949C339.974 305.698 339.226 306.072 338.478 306.072Z" fill="black"></path><path d="M364.623 184.861L339.94 180.537L335.105 208.194L359.787 212.518L364.623 184.861Z" fill="#040000"></path><path d="M386.672 205.853L361.989 201.529L357.153 229.186L381.836 233.51L386.672 205.853Z" fill="#040000"></path><path d="M408.395 227.949L383.713 223.625L378.877 251.282L403.56 255.606L408.395 227.949Z" fill="#040000"></path><path d="M429.335 251.896L404.652 247.572L399.816 275.229L424.499 279.553L429.335 251.896Z" fill="#040000"></path><path d="M388.926 268.389L359.454 263.225L354.618 290.882L384.09 296.045L388.926 268.389Z" fill="#040000"></path><path d="M413.246 267.955L388.563 263.631L384.437 287.231L409.119 291.556L413.246 267.955Z" fill="#040000"></path><path d="M365.386 276.599L340.703 272.275L335.867 299.931L360.55 304.256L365.386 276.599Z" fill="#040000"></path><path d="M78.9152 100.917H1.87003C0.748011 100.917 0 100.168 0 99.0447V2.83105V2.45668V2.08231C0 0.959194 0.748011 0.210449 1.87003 0.210449H65.077C65.825 0.210449 66.199 0.584821 66.573 0.959193L80.4112 21.924C80.7852 22.2984 80.7852 22.6728 80.7852 23.0471V99.0447C80.7852 100.168 80.0372 100.917 78.9152 100.917ZM3.74006 97.1728H77.4192V23.7959L64.329 3.95417H3.74006V97.1728Z" fill="#47A963"></path><path d="M78.915 28.6627H59.8407C59.4667 28.6627 58.7187 28.2884 58.3447 27.914C57.9707 27.5396 57.9707 26.7909 57.9707 26.4165L63.2068 1.70794C63.5808 0.584821 64.3288 0.210449 65.4508 0.210449C66.5728 0.584821 67.3208 1.33357 66.9468 2.45668L62.4588 24.919H79.289C80.411 24.919 81.1591 25.6678 81.1591 26.7909C80.7851 27.914 80.037 28.6627 78.915 28.6627Z" fill="#47A963"></path><path d="M78.9153 76.2081H1.87012V99.4192H78.9153V76.2081Z" fill="#47B166"></path><path d="M35.9058 94.1779L35.5318 93.0548V92.306C34.7838 94.1779 33.2877 94.5523 31.4177 94.5523C28.0516 94.5523 25.8076 91.9317 25.8076 88.5623C25.8076 86.3161 26.9296 82.198 31.7917 82.198C33.2877 82.198 34.7838 82.5724 35.9058 83.6955C36.6538 84.4442 37.0278 85.193 37.0278 86.3161H35.1578C34.7837 84.8186 33.6617 84.0699 32.1657 84.0699C29.9217 84.0699 28.7997 85.9417 28.7997 88.188C28.7997 91.5573 30.6697 92.6804 32.5397 92.6804C33.2877 92.6804 34.4097 92.306 34.7838 91.9317C35.5318 91.5573 35.5318 90.8086 35.5318 90.0598H32.5397V88.188H37.4018V94.1779H35.9058Z" fill="white"></path><path d="M40.7686 94.1778V82.5723H43.0126V94.1778H40.7686Z" fill="white"></path><path d="M48.6229 84.4441V87.4391H54.233V89.311H48.6229V94.1778H46.3789V82.5723H54.607V84.4441H48.6229Z" fill="white"></path><path d="M62.8328 65.3511H17.9521V32.7808H62.8328V65.3511ZM21.6922 61.6074H59.0928V36.5245H21.6922V61.6074V61.6074Z" fill="#47A963"></path><path d="M49.742 46.6327C51.8076 46.6327 53.4821 44.9566 53.4821 42.889C53.4821 40.8214 51.8076 39.1453 49.742 39.1453C47.6764 39.1453 46.002 40.8214 46.002 42.889C46.002 44.9566 47.6764 46.6327 49.742 46.6327Z" fill="#47A963"></path><path d="M19.8223 52.2483L28.7984 44.3865L35.1565 52.2483L40.3926 49.2533L60.9629 63.4795H19.8223V52.2483Z" fill="#47A963"></path><path d="M47.1256 190.766C44.8816 190.766 43.0115 189.268 43.0115 187.022C40.7675 170.924 46.0036 138.728 81.1601 134.236C117.439 129.369 134.643 157.447 140.627 169.427C141.749 171.673 140.627 174.293 138.757 175.042C136.513 176.165 133.895 175.042 133.147 173.17C128.285 162.688 113.325 138.728 82.6561 142.846C47.4996 147.339 51.9877 184.401 51.9877 185.899C52.3617 188.145 50.4917 190.391 48.2476 190.766C47.4996 190.766 47.4996 190.766 47.1256 190.766Z" fill="#999899"></path><path d="M114.072 167.18L115.194 163.062L135.391 169.801L140.627 149.585L144.741 150.708L138.383 175.416L114.072 167.18Z" fill="#999899"></path><path d="M119.682 363.351C118.56 363.351 117.438 363.351 116.316 363.351C78.9156 361.105 67.3214 327.786 64.7034 317.678C63.9554 315.432 65.4514 313.185 67.6954 312.437C69.9395 311.688 72.1835 313.185 72.9315 315.432C75.9235 326.663 86.0217 352.869 116.69 354.741C117.812 354.741 118.56 354.741 119.308 354.741C151.847 354.741 154.465 319.55 154.839 318.052C154.839 315.806 157.083 313.934 159.327 313.934C161.571 313.934 163.441 316.18 163.441 318.427C162.693 334.15 152.221 363.351 119.682 363.351Z" fill="#999899"></path><path d="M90.5101 324.417L88.2661 328.16L69.9398 317.678L60.5897 336.771L56.8496 334.899L68.0698 311.688L90.5101 324.417Z" fill="#999899"></path></svg> 