<?xml version="1.0" encoding="UTF-8"?> <svg xmlns="http://www.w3.org/2000/svg" width="608" height="326" viewBox="0 0 608 326" fill="none"><path d="M261.809 190.589H26.5782C12.1764 190.589 0.174805 178.587 0.174805 164.185V26.404C0.174805 12.0018 12.1764 0 26.5782 0H261.809C276.211 0 288.212 12.0018 288.212 26.404V164.185C288.212 178.587 276.211 190.589 261.809 190.589ZM26.5782 11.0417C17.9371 11.0417 11.2162 17.7627 11.2162 26.404V164.185C11.2162 172.826 17.9371 179.547 26.5782 179.547H261.809C270.45 179.547 277.171 172.826 277.171 164.185V26.404C277.171 17.7627 270.45 11.0417 261.809 11.0417H26.5782Z" fill="black"></path><path d="M318.937 68.1706C318.457 68.1706 318.457 68.1706 318.937 68.1706C317.497 68.1706 316.537 66.7304 316.537 65.2902C316.537 65.2902 316.537 64.3301 317.017 61.9297C317.497 60.4895 318.457 59.5293 319.897 60.0094C321.338 60.4895 321.818 61.9297 321.818 63.3699C321.338 64.8101 321.338 65.7703 321.338 65.7703C320.858 67.2105 319.897 68.1706 318.937 68.1706Z" fill="black"></path><path d="M325.655 51.3679C325.175 51.3679 324.695 51.3679 324.215 50.8878C323.255 49.9276 323.255 48.0073 324.215 47.0472C325.175 45.607 326.615 44.1668 328.056 42.7265C329.016 41.7664 330.456 41.7664 331.416 43.2066C332.376 44.1668 331.896 46.0871 330.936 47.0472C329.976 48.0073 328.536 49.4476 327.576 50.4077C327.096 50.8878 326.615 51.3679 325.655 51.3679Z" fill="black"></path><path d="M428.393 74.4116C427.433 74.4116 426.473 73.9316 425.993 72.4913C425.513 71.0511 425.033 69.1308 424.072 67.6906C423.592 66.2504 424.072 64.8102 425.033 63.85C425.993 63.3699 427.433 63.85 428.393 64.8102C429.353 66.7305 429.833 68.1707 430.313 70.091C430.793 71.5312 430.313 72.9714 428.873 73.9316C428.873 74.4116 428.393 74.4116 428.393 74.4116ZM417.832 56.1688C417.352 56.1688 416.391 55.6888 416.391 55.2087C415.431 54.2485 413.991 52.8083 413.031 51.8482C412.071 50.888 411.591 48.9677 412.551 48.0076C413.511 46.5674 414.951 46.5674 415.911 47.5275C417.352 48.9677 418.312 49.9279 419.752 51.3681C420.712 52.3283 420.712 54.2485 419.752 55.2087C419.272 55.6888 418.312 56.1688 417.832 56.1688ZM401.99 44.167C401.51 44.167 401.51 44.167 401.029 44.167C399.589 43.6869 398.149 42.7268 396.709 42.2467C395.269 41.7666 394.789 40.3264 395.269 38.8862C395.749 37.446 397.189 36.4858 398.149 36.9659C399.589 37.446 401.51 38.4061 402.95 38.8862C404.39 39.3663 404.87 41.2866 404.39 42.7268C403.91 43.2069 402.95 44.167 401.99 44.167ZM341.502 39.3663C340.542 39.3663 339.581 38.4061 339.101 37.446C338.621 36.0058 339.581 34.5655 340.542 34.0855C341.982 33.6054 343.422 33.1253 345.342 32.6452C346.782 32.1652 347.742 33.1253 348.223 34.5655C348.703 36.0058 347.742 37.446 346.302 37.926C344.862 38.4061 343.422 38.8862 341.982 39.3663C341.982 39.3663 341.982 39.3663 341.502 39.3663ZM383.747 37.926C382.787 37.926 381.827 37.446 381.347 37.446L378.947 36.9659C377.506 36.9659 376.546 35.5257 377.026 34.0855C377.026 32.6452 378.466 31.6851 379.907 31.6851L382.307 32.1652C383.267 32.1652 383.747 32.6452 384.707 32.6452C386.147 33.1253 387.108 34.5655 386.628 36.0058C386.148 36.9659 385.187 37.926 383.747 37.926ZM360.224 36.0058C358.784 36.0058 357.824 35.0456 357.824 33.1253C357.824 31.6851 358.784 30.2449 360.224 30.2449C361.184 30.2449 362.144 30.2449 363.585 30.2449H365.025C366.465 30.2449 367.425 31.6851 367.425 33.1253C367.425 34.5655 366.465 36.0058 365.025 36.0058H363.585C362.624 36.0058 361.184 36.0058 360.224 36.0058Z" fill="black"></path><path d="M431.752 93.1346C430.312 93.1346 429.352 92.1745 429.352 90.7343C429.352 89.7741 429.352 88.814 429.352 87.8538C429.352 86.4136 430.312 84.9734 431.272 84.9734C432.712 84.9734 433.672 85.9335 434.152 87.3738C434.152 88.3339 434.152 89.294 434.152 90.2542C434.152 91.6944 433.192 93.1346 431.752 93.1346Z" fill="black"></path><path d="M415.907 84.0129L429.349 116.658L447.111 86.4133L415.907 84.0129Z" fill="black"></path><path d="M476.398 220.354C475.438 219.394 474.478 218.433 473.037 218.433C471.597 218.433 470.157 218.914 469.677 220.354L456.235 240.997L448.554 232.356C447.594 231.395 446.634 230.915 445.194 230.915C443.753 230.915 442.793 231.876 441.833 232.836L429.352 252.039H497.041L476.398 220.354Z" fill="#4C4B4C"></path><path d="M448.551 224.674C453.352 224.674 457.192 220.834 457.192 216.033C457.192 211.232 453.352 207.392 448.551 207.392C443.751 207.392 439.91 211.232 439.91 216.033C439.91 220.834 443.751 224.674 448.551 224.674Z" fill="#4C4B4C"></path><path d="M581.05 325.01H345.819C331.418 325.01 319.416 313.008 319.416 298.606V160.825C319.416 146.422 331.418 134.421 345.819 134.421H581.05C595.452 134.421 607.453 146.422 607.453 160.825V298.606C607.453 313.008 595.452 325.01 581.05 325.01ZM345.819 145.462C337.178 145.462 330.457 152.183 330.457 160.825V298.606C330.457 307.247 337.178 313.968 345.819 313.968H581.05C589.691 313.968 596.412 307.247 596.412 298.606V160.825C596.412 152.183 589.691 145.462 581.05 145.462H345.819Z" fill="black"></path><path d="M167.713 72.4906C166.273 70.0903 163.873 69.1301 160.992 69.1301C158.592 69.1301 155.712 70.5704 154.271 72.4906L129.308 110.416L115.386 94.574C113.946 92.6537 111.546 91.6936 109.146 92.1737C106.745 92.1737 104.345 93.6139 103.385 95.5342L80.3418 131.06H206.118L167.713 72.4906Z" fill="#4C4B4C"></path><path d="M115.386 80.6521C124.027 80.6521 131.228 73.451 131.228 64.8097C131.228 56.1684 124.027 48.9673 115.386 48.9673C106.745 48.9673 99.5439 56.1684 99.5439 64.8097C99.5439 73.451 106.745 80.6521 115.386 80.6521Z" fill="#4C4B4C"></path></svg> 