<?xml version="1.0" encoding="UTF-8"?> <svg xmlns="http://www.w3.org/2000/svg" width="608" height="326" viewBox="0 0 608 326" fill="none"><path d="M261.747 190.589H26.5167C12.1148 190.589 0.113281 178.587 0.113281 164.185V26.404C0.113281 12.0018 12.1148 0 26.5167 0H261.747C276.149 0 288.151 12.0018 288.151 26.404V164.185C288.151 178.587 276.149 190.589 261.747 190.589ZM26.5167 11.0417C17.8756 11.0417 11.1548 17.7627 11.1548 26.404V164.185C11.1548 172.826 17.8756 179.547 26.5167 179.547H261.747C270.388 179.547 277.109 172.826 277.109 164.185V26.404C277.109 17.7627 270.388 11.0417 261.747 11.0417H26.5167Z" fill="black"></path><path d="M318.876 68.1706C318.396 68.1706 318.396 68.1706 318.876 68.1706C317.436 68.1706 316.476 66.7304 316.476 65.2902C316.476 65.2902 316.476 64.3301 316.956 61.9297C317.436 60.4895 318.396 59.5293 319.836 60.0094C321.276 60.4895 321.756 61.9297 321.756 63.3699C321.276 64.8101 321.276 65.7703 321.276 65.7703C320.796 67.2105 319.836 68.1706 318.876 68.1706Z" fill="black"></path><path d="M325.594 51.3679C325.114 51.3679 324.634 51.3679 324.154 50.8878C323.194 49.9276 323.194 48.0073 324.154 47.0472C325.114 45.607 326.554 44.1668 327.994 42.7265C328.954 41.7664 330.394 41.7664 331.355 43.2066C332.315 44.1668 331.835 46.0871 330.875 47.0472C329.914 48.0073 328.474 49.4476 327.514 50.4077C327.034 50.8878 326.554 51.3679 325.594 51.3679Z" fill="black"></path><path d="M428.331 74.4116C427.371 74.4116 426.411 73.9316 425.931 72.4913C425.451 71.0511 424.971 69.1308 424.011 67.6906C423.531 66.2504 424.011 64.8102 424.971 63.85C425.931 63.3699 427.371 63.85 428.331 64.8102C429.292 66.7305 429.772 68.1707 430.252 70.091C430.732 71.5312 430.252 72.9714 428.811 73.9316C428.811 74.4116 428.331 74.4116 428.331 74.4116ZM417.77 56.1688C417.29 56.1688 416.33 55.6888 416.33 55.2087C415.37 54.2485 413.929 52.8083 412.969 51.8482C412.009 50.888 411.529 48.9677 412.489 48.0076C413.449 46.5674 414.89 46.5674 415.85 47.5275C417.29 48.9677 418.25 49.9279 419.69 51.3681C420.65 52.3283 420.65 54.2485 419.69 55.2087C419.21 55.6888 418.25 56.1688 417.77 56.1688ZM401.928 44.167C401.448 44.167 401.448 44.167 400.968 44.167C399.528 43.6869 398.087 42.7268 396.647 42.2467C395.207 41.7666 394.727 40.3264 395.207 38.8862C395.687 37.446 397.127 36.4858 398.087 36.9659C399.528 37.446 401.448 38.4061 402.888 38.8862C404.328 39.3663 404.808 41.2866 404.328 42.7268C403.848 43.2069 402.888 44.167 401.928 44.167ZM341.44 39.3663C340.48 39.3663 339.52 38.4061 339.04 37.446C338.56 36.0058 339.52 34.5655 340.48 34.0855C341.92 33.6054 343.36 33.1253 345.281 32.6452C346.721 32.1652 347.681 33.1253 348.161 34.5655C348.641 36.0058 347.681 37.446 346.241 37.926C344.801 38.4061 343.36 38.8862 341.92 39.3663C341.92 39.3663 341.92 39.3663 341.44 39.3663ZM383.686 37.926C382.725 37.926 381.765 37.446 381.285 37.446L378.885 36.9659C377.445 36.9659 376.485 35.5257 376.965 34.0855C376.965 32.6452 378.405 31.6851 379.845 31.6851L382.245 32.1652C383.206 32.1652 383.686 32.6452 384.646 32.6452C386.086 33.1253 387.046 34.5655 386.566 36.0058C386.086 36.9659 385.126 37.926 383.686 37.926ZM360.163 36.0058C358.722 36.0058 357.762 35.0456 357.762 33.1253C357.762 31.6851 358.722 30.2449 360.163 30.2449C361.123 30.2449 362.083 30.2449 363.523 30.2449H364.963C366.403 30.2449 367.363 31.6851 367.363 33.1253C367.363 34.5655 366.403 36.0058 364.963 36.0058H363.523C362.563 36.0058 361.123 36.0058 360.163 36.0058Z" fill="black"></path><path d="M431.69 93.1346C430.25 93.1346 429.29 92.1745 429.29 90.7343C429.29 89.7741 429.29 88.814 429.29 87.8538C429.29 86.4136 430.25 84.9734 431.21 84.9734C432.651 84.9734 433.611 85.9335 434.091 87.3738C434.091 88.3339 434.091 89.294 434.091 90.2542C434.091 91.6944 433.131 93.1346 431.69 93.1346Z" fill="black"></path><path d="M415.846 84.0129L429.287 116.658L447.05 86.4133L415.846 84.0129Z" fill="black"></path><path d="M157.574 85.9332C156.613 84.9731 155.653 84.0129 154.213 84.0129C152.773 84.0129 151.333 84.493 150.853 85.9332L137.411 106.576L129.73 97.9351C128.77 96.9749 127.81 96.4949 126.369 96.4949C124.929 96.4949 123.969 97.455 123.009 98.4151L110.527 117.618H178.216L157.574 85.9332Z" fill="#4C4B4C"></path><path d="M129.249 90.2536C134.049 90.2536 137.89 86.413 137.89 81.6123C137.89 76.8115 134.049 72.9709 129.249 72.9709C124.448 72.9709 120.607 76.8115 120.607 81.6123C121.087 86.413 124.448 90.2536 129.249 90.2536Z" fill="#4C4B4C"></path><path d="M580.988 325.01H345.758C331.356 325.01 319.354 313.008 319.354 298.606V160.825C319.354 146.422 331.356 134.421 345.758 134.421H580.988C595.39 134.421 607.392 146.422 607.392 160.825V298.606C607.392 313.008 595.39 325.01 580.988 325.01ZM345.758 145.462C337.117 145.462 330.396 152.183 330.396 160.825V298.606C330.396 307.247 337.117 313.968 345.758 313.968H580.988C589.63 313.968 596.35 307.247 596.35 298.606V160.825C596.35 152.183 589.63 145.462 580.988 145.462H345.758Z" fill="black"></path><path d="M498.421 229.955C498.901 227.554 497.941 224.674 496.501 222.754C494.581 220.833 492.18 220.353 489.3 220.833L444.654 229.955L446.094 209.312C446.094 206.911 445.134 204.511 443.214 203.071C441.294 201.63 438.894 200.67 436.493 201.15L395.208 209.792L484.499 299.085L498.421 229.955Z" fill="#4C4B4C"></path><path d="M455.693 198.75C461.933 204.991 472.015 204.991 477.776 198.75C484.016 192.509 484.016 182.428 477.776 176.667C471.535 170.426 461.453 170.426 455.693 176.667C449.932 182.428 449.932 192.509 455.693 198.75Z" fill="#4C4B4C"></path></svg> 