<?xml version="1.0" encoding="UTF-8"?> <svg xmlns="http://www.w3.org/2000/svg" width="609" height="327" viewBox="0 0 609 327" fill="none"><path d="M262.453 191.582H27.2228C12.8209 191.582 0.819336 179.58 0.819336 165.178V27.3965C0.819336 12.9943 12.8209 0.992432 27.2228 0.992432H262.453C276.855 0.992432 288.857 12.9943 288.857 27.3965V165.178C288.857 179.58 277.335 191.582 262.453 191.582ZM27.7029 12.0341C19.0617 12.0341 12.3409 18.7552 12.3409 27.3965V165.178C12.3409 173.819 19.0617 180.54 27.7029 180.54H262.933C271.574 180.54 278.295 173.819 278.295 165.178V27.3965C278.295 18.7552 271.574 12.0341 262.933 12.0341H27.7029Z" fill="black"></path><path d="M319.582 69.6428C318.142 69.6428 317.182 68.2027 317.182 66.7625C317.182 66.7625 317.182 65.8023 317.662 63.402C318.142 61.9618 319.102 61.0016 320.542 61.4817C321.982 61.9618 322.462 63.4019 322.462 64.8421C321.982 66.2823 321.982 67.2425 321.982 67.2425C321.982 68.2026 321.022 69.6428 319.582 69.6428Z" fill="black"></path><path d="M326.785 52.3603C326.305 52.3603 325.825 52.3603 325.345 51.8802C324.385 50.92 324.385 48.9997 325.345 48.0396C326.305 46.5994 327.745 45.1592 329.186 43.719C330.146 42.7588 331.586 42.7588 332.546 44.1991C333.506 45.1592 333.026 47.0794 332.066 48.0396C331.106 48.9997 329.666 50.44 328.706 51.4002C328.225 51.8802 327.265 52.3603 326.785 52.3603Z" fill="black"></path><path d="M429.036 75.4038C428.076 75.4038 427.116 74.9237 426.636 73.4835C426.156 72.0433 425.675 70.123 424.715 68.6827C424.235 67.2425 424.715 65.8023 425.675 64.8421C426.636 64.3621 428.076 64.8422 429.036 65.8024C429.996 67.7226 430.476 69.1628 430.956 71.0831C431.436 72.5233 430.956 73.9636 429.516 74.9237C429.516 75.4038 429.516 75.4038 429.036 75.4038ZM418.955 57.161C418.474 57.161 417.514 56.681 417.514 56.2009C416.554 55.2408 415.114 53.8005 414.154 52.8403C413.194 51.8802 412.714 49.96 413.674 48.9998C414.634 47.5596 416.074 47.5596 417.034 48.5197C418.475 49.9599 419.435 50.9201 420.875 52.3603C421.835 53.3204 421.835 55.2408 420.875 56.2009C419.915 56.681 419.435 57.161 418.955 57.161ZM403.112 45.1592C402.632 45.1592 402.632 45.1592 402.152 45.1592C400.712 44.6791 399.272 43.719 397.832 43.2389C396.392 42.7588 395.912 41.3186 396.392 39.8784C396.872 38.4382 398.312 37.478 399.272 37.9581C400.712 38.4382 402.632 39.3983 404.073 39.8784C405.513 40.3585 405.993 42.2788 405.513 43.719C404.553 44.6791 404.073 45.1592 403.112 45.1592ZM342.625 40.8385C341.665 40.8385 340.704 39.8784 340.224 38.9183C339.744 37.478 340.704 36.0378 341.665 35.5578C343.105 35.0777 344.545 34.5976 346.465 34.1175C347.905 33.6375 348.865 34.5976 349.346 36.0378C349.826 37.478 348.865 38.9183 347.425 39.3984C345.985 39.8784 344.545 40.3584 343.105 40.8385H342.625ZM384.87 39.3984C384.87 39.3984 384.39 39.3984 384.87 39.3984C383.91 39.3984 382.95 38.9183 382.47 38.9183L380.069 38.4382C378.629 38.4382 377.669 36.998 378.149 35.5578C378.149 34.1175 379.589 33.1574 381.03 33.1574L383.43 33.6374C384.39 33.6374 384.87 34.1175 385.83 34.1175C387.27 34.5976 388.231 36.0378 387.75 37.478C386.79 38.4382 385.83 39.3984 384.87 39.3984ZM361.347 36.998C359.907 36.998 358.947 36.0378 358.947 34.1175C358.947 32.6773 359.907 31.2371 361.347 31.2371C362.307 31.2371 363.267 31.2371 364.708 31.2371H366.148C367.588 31.2371 368.548 32.6773 368.548 34.1175C368.548 35.5577 367.588 36.998 366.148 36.998H364.708C363.267 36.998 362.307 36.998 361.347 36.998Z" fill="black"></path><path d="M432.396 94.1266C430.956 94.1266 429.996 93.1665 429.996 91.7263C429.996 90.7662 429.996 89.806 429.996 88.8458C429.996 87.4056 430.956 85.9655 431.916 85.9655C433.357 85.9655 434.317 86.9256 434.797 88.3658C434.797 89.326 434.797 90.286 434.797 91.2462C435.277 92.6864 434.317 94.1266 432.396 94.1266C432.876 94.1266 432.876 94.1266 432.396 94.1266Z" fill="black"></path><path d="M416.552 85.0052L430.474 117.65L448.236 87.4056L416.552 85.0052Z" fill="black"></path><path d="M581.695 326.002H346.464C332.062 326.002 320.061 314 320.061 299.598V161.817C320.061 147.415 332.062 135.413 346.464 135.413H581.695C596.096 135.413 608.098 147.415 608.098 161.817V299.598C608.098 314.48 596.577 326.002 581.695 326.002ZM346.944 146.935C338.303 146.935 331.582 153.656 331.582 162.297V300.078C331.582 308.719 338.303 315.44 346.944 315.44H582.175C590.816 315.44 597.537 308.719 597.537 300.078V162.297C597.537 153.656 590.816 146.935 582.175 146.935H346.944Z" fill="black"></path><path d="M491.444 210.304C490.003 207.904 487.603 206.944 484.723 206.944C482.322 206.944 479.442 208.384 478.002 210.304L453.039 248.23L439.117 232.388C437.677 230.467 435.276 229.507 432.876 229.987C430.476 229.987 428.075 231.428 427.115 233.348L404.072 268.873H529.849L491.444 210.304Z" fill="#999899"></path><path d="M439.117 217.986C447.758 217.986 454.959 210.785 454.959 202.143C454.959 193.502 447.758 186.301 439.117 186.301C430.475 186.301 423.274 193.502 423.274 202.143C423.274 210.785 430.475 217.986 439.117 217.986Z" fill="#999899"></path><path d="M169.323 78.7643C167.882 76.3639 165.482 75.4038 162.602 75.4038C160.201 75.4038 157.321 76.844 155.881 78.7643L130.918 116.69L116.996 100.848C115.556 98.9273 113.155 97.9672 110.755 98.4473C108.355 98.4473 105.954 99.8876 104.994 101.808L81.9512 137.333H207.728L169.323 78.7643Z" fill="#4C4B4C"></path><path d="M116.995 86.9255C125.637 86.9255 132.837 79.7244 132.837 71.0831C132.837 62.4418 125.637 55.2407 116.995 55.2407C108.354 55.2407 101.153 62.4418 101.153 71.0831C101.153 79.7244 108.354 86.9255 116.995 86.9255Z" fill="#4C4B4C"></path></svg> 