<?xml version="1.0" encoding="UTF-8"?> <svg xmlns="http://www.w3.org/2000/svg" width="609" height="326" viewBox="0 0 609 326" fill="none"><path d="M261.959 190.376H26.7286C12.3268 190.376 0.325195 178.375 0.325195 163.972V26.6716C0.325195 12.2694 12.3268 0.267578 26.7286 0.267578H261.959C276.361 0.267578 288.363 12.2694 288.363 26.6716V164.452C288.363 178.855 276.841 190.376 261.959 190.376ZM27.2087 11.3095C18.5676 11.3095 11.8467 18.0303 11.8467 26.6716V164.452C11.8467 173.094 18.5676 179.815 27.2087 179.815H262.439C271.08 179.815 277.801 173.094 277.801 164.452V26.6716C277.801 18.0303 271.08 11.3095 262.439 11.3095H27.2087Z" fill="black"></path><path d="M319.088 68.4375C317.648 68.4375 316.688 66.9974 316.688 65.5573C316.688 65.5573 316.687 64.5974 317.168 62.1971C317.648 60.7569 318.608 59.7967 320.048 60.2767C321.488 60.7568 321.968 62.1967 321.968 63.6369C321.488 65.0771 321.488 66.0372 321.488 66.0372C321.488 67.4774 320.528 68.4375 319.088 68.4375Z" fill="black"></path><path d="M326.292 51.1553C325.812 51.1553 325.332 51.1554 324.852 50.6753C323.892 49.7151 323.892 47.7945 324.852 46.8343C325.812 45.3941 327.252 43.9542 328.692 42.514C329.653 41.5538 331.093 41.5537 332.053 42.9939C333.013 43.9541 332.533 45.8741 331.573 46.8343C330.613 47.7945 329.172 49.2351 328.212 50.1953C327.252 51.1555 326.772 51.1553 326.292 51.1553Z" fill="black"></path><path d="M428.542 74.1987C427.582 74.1987 426.622 73.7185 426.141 72.2783C425.661 70.8381 425.181 68.9178 424.221 67.4776C423.741 66.0374 424.221 64.5969 425.181 63.6368C426.141 63.1567 427.582 63.6371 428.542 64.5973C429.502 66.5176 429.982 67.9577 430.462 69.878C430.942 71.3182 430.462 72.7586 429.022 73.7188C429.022 74.1988 429.022 74.1987 428.542 74.1987ZM418.46 55.9557C417.98 55.9557 417.02 55.4759 417.02 54.9958C416.06 54.0357 414.62 52.5951 413.66 51.6349C412.7 50.6748 412.22 48.7549 413.18 47.7947C414.14 46.3545 415.58 46.3546 416.54 47.3148C417.98 48.755 418.941 49.7148 420.381 51.155C421.341 52.1151 421.341 54.0357 420.381 54.9958C419.421 55.956 418.941 55.9557 418.46 55.9557ZM402.618 44.4339C402.138 44.4339 402.138 44.4339 401.658 44.4339C400.218 43.9538 398.778 42.9941 397.338 42.514C395.898 42.034 395.417 40.5934 395.898 39.1532C396.378 37.7129 397.818 36.7527 398.778 37.2328C400.218 37.7128 402.138 38.6731 403.579 39.1532C405.019 39.6332 405.499 41.5538 405.019 42.994C404.059 43.4741 403.579 44.4339 402.618 44.4339ZM342.131 39.6331C341.17 39.6331 340.21 38.6734 339.73 37.7133C339.25 36.2731 340.21 34.8325 341.17 34.3524C342.611 33.8724 344.051 33.3926 345.971 32.9126C347.411 32.4325 348.371 33.3922 348.851 34.8324C349.331 36.2726 348.371 37.7132 346.931 38.1933C345.491 38.6733 344.051 39.1531 342.611 39.6331C342.611 39.6331 342.131 39.6331 342.131 39.6331ZM384.376 38.1933C384.376 38.1933 383.896 38.1933 384.376 38.1933C383.416 38.1933 382.456 37.7133 381.976 37.7133L379.575 37.2328C378.135 37.2328 377.175 35.7927 377.655 34.3524C377.655 32.9122 379.095 31.9521 380.536 31.9521L382.936 32.432C383.896 32.432 384.376 32.9126 385.336 32.9126C386.776 33.3926 387.736 34.8326 387.256 36.2728C386.296 37.233 385.336 38.1933 384.376 38.1933ZM360.853 36.2728C359.413 36.2728 358.453 35.3128 358.453 33.3925C358.453 31.9523 359.413 30.5122 360.853 30.5122C361.813 30.5122 362.773 30.5122 364.213 30.5122H365.654C367.094 30.5122 368.054 31.9523 368.054 33.3925C368.054 34.8327 367.094 36.2728 365.654 36.2728H364.213C362.773 36.2728 361.813 36.2728 360.853 36.2728Z" fill="black"></path><path d="M431.902 93.4019C430.462 93.4019 429.502 92.4417 429.502 91.0015C429.502 90.0413 429.502 89.0813 429.502 88.1212C429.502 86.6809 430.462 85.2402 431.422 85.2402C432.862 85.2402 433.823 86.2004 434.303 87.6406C434.303 88.6008 434.303 89.5614 434.303 90.5215C434.783 91.9617 433.823 93.4019 431.902 93.4019C432.382 93.4019 432.382 93.4019 431.902 93.4019Z" fill="black"></path><path d="M416.058 83.8003L429.979 116.926L447.742 86.2007L416.058 83.8003Z" fill="black"></path><path opacity="0.28" d="M596.56 142.849H327.725V314.236H596.56V142.849Z" fill="url(#paint0_linear)"></path><path d="M581.199 325.277H346.448C332.046 325.277 320.045 313.275 320.045 298.873V161.092C320.045 146.69 332.046 134.688 346.448 134.688H581.679C596.081 134.688 608.082 146.69 608.082 161.092V298.873C607.602 313.275 596.081 325.277 581.199 325.277ZM346.448 145.73C337.807 145.73 331.086 152.451 331.086 161.092V298.873C331.086 307.515 337.807 314.236 346.448 314.236H581.679C590.32 314.236 597.041 307.515 597.041 298.873V161.092C597.041 152.451 590.32 145.73 581.679 145.73H346.448Z" fill="black"></path><g opacity="0.33"><path opacity="0.33" d="M490.949 209.1C489.508 206.699 487.108 205.739 484.228 205.739C481.827 205.739 478.947 207.179 477.507 209.1L452.544 247.025L438.622 231.183C437.182 229.262 434.781 228.302 432.381 228.782C429.981 228.782 427.58 230.223 426.62 232.143L403.577 267.668H529.354L490.949 209.1Z" fill="#4C4B4C"></path><path opacity="0.33" d="M438.621 217.26C447.262 217.26 454.463 210.06 454.463 201.418C454.463 192.777 447.262 185.576 438.621 185.576C429.98 185.576 422.779 192.777 422.779 201.418C422.779 210.06 429.5 217.26 438.621 217.26Z" fill="#4C4B4C"></path></g><path d="M168.828 77.559C167.388 75.1586 164.988 74.1987 162.108 74.1987C159.707 74.1987 156.827 75.6387 155.387 77.559L130.423 115.485L116.502 99.6423C115.061 97.722 112.661 96.7619 110.261 97.2419C107.86 97.2419 105.46 98.6825 104.5 100.603L81.457 136.128H207.233L168.828 77.559Z" fill="#4C4B4C"></path><path d="M116.501 85.7207C125.142 85.7207 132.343 78.5194 132.343 69.8782C132.343 61.2369 125.142 54.0356 116.501 54.0356C107.86 54.0356 100.659 61.2369 100.659 69.8782C100.659 78.5194 107.86 85.7207 116.501 85.7207Z" fill="#4C4B4C"></path><defs><linearGradient id="paint0_linear" x1="327.89" y1="228.478" x2="596.71" y2="228.478" gradientUnits="userSpaceOnUse"><stop offset="0.4101"></stop><stop offset="0.9654" stop-color="white"></stop></linearGradient></defs></svg> 