<?xml version="1.0" encoding="UTF-8"?> <svg xmlns="http://www.w3.org/2000/svg" width="609" height="384" viewBox="0 0 609 384" fill="none"><path d="M577.758 378.88H342.527C328.126 378.88 316.124 366.879 316.124 352.476V214.695C316.124 200.293 328.126 188.291 342.527 188.291H577.758C592.16 188.291 604.161 200.293 604.161 214.695V352.476C604.161 367.359 592.16 378.88 577.758 378.88Z" fill="#C0B38D"></path><path d="M577.758 383.681H342.527C325.245 383.681 311.323 369.759 311.323 352.476V214.695C311.323 197.412 325.245 183.49 342.527 183.49H577.758C595.04 183.49 608.962 197.412 608.962 214.695V352.476C608.962 369.759 595.04 383.681 577.758 383.681ZM343.007 193.572C331.006 193.572 321.405 203.173 321.405 215.175V352.956C321.405 364.958 331.006 374.559 343.007 374.559H578.238C590.24 374.559 599.841 364.958 599.841 352.956V215.175C599.841 203.173 590.24 193.572 578.238 193.572H343.007Z" fill="#040000"></path><path d="M369.414 280.945C368.934 280.945 367.974 280.945 367.974 279.505C367.974 278.065 368.934 278.065 369.414 278.065H407.819C408.299 278.065 409.259 278.065 409.259 279.505C409.259 280.945 408.299 280.945 407.819 280.945H391.497C391.497 287.186 390.537 293.427 386.216 298.228C382.375 302.548 377.095 303.989 376.135 303.989C375.175 303.989 374.695 303.029 374.695 302.549C374.695 301.588 374.694 301.588 376.615 301.108C387.176 296.788 388.136 288.146 388.136 280.945H369.414V280.945ZM402.058 265.583C402.538 265.583 403.498 265.583 403.498 267.023C403.498 268.463 402.538 268.463 402.058 268.463H374.695C374.214 268.463 373.254 268.463 373.254 267.023C373.254 265.583 374.214 265.583 374.695 265.583H402.058Z" fill="#040000"></path><path d="M375.651 304.949C374.211 304.949 373.251 303.509 373.251 302.069C373.251 300.628 374.211 300.148 375.651 299.668C385.253 295.828 386.213 288.626 386.693 281.905H368.931C367.01 281.905 366.53 280.465 366.53 279.505C366.53 278.545 367.01 277.105 368.931 277.105H407.336C409.256 277.105 409.736 278.545 409.736 279.505C409.736 280.465 409.256 281.905 407.336 281.905H391.974C391.974 287.666 390.533 293.907 386.213 298.708C382.372 303.029 377.092 304.949 375.651 304.949ZM375.651 302.549C376.612 302.549 381.412 301.108 384.773 297.268C389.093 292.947 389.573 286.706 390.053 280.945C390.053 280.465 390.533 279.985 391.494 279.985H407.816V279.505H369.411H388.133C388.613 279.505 388.613 279.505 389.093 279.985C389.573 280.465 389.573 280.465 389.573 280.945C389.573 287.186 389.093 297.268 377.092 302.069C376.132 302.069 375.651 302.069 375.651 302.549ZM402.055 269.424H374.691C372.771 269.424 372.291 267.983 372.291 267.023C372.291 265.583 373.251 264.623 374.691 264.623H402.055C403.975 264.623 404.455 266.063 404.455 267.023C404.455 267.983 403.975 269.424 402.055 269.424ZM374.691 266.543L402.055 267.023H374.691V266.543Z" fill="#040000"></path><path d="M433.742 264.623C433.262 262.703 435.182 262.702 435.182 262.702C436.142 262.702 436.142 263.183 436.622 264.143L438.062 271.824L451.504 269.904C451.984 269.904 453.424 269.904 453.424 271.344C453.424 272.304 452.944 272.304 452.464 272.784L439.023 274.704L440.943 284.306L457.265 281.906C458.705 281.906 458.705 283.346 458.705 283.346C458.705 284.306 457.745 284.786 457.745 284.786L441.423 287.187L444.303 302.549C444.783 304.469 442.863 304.469 442.863 304.469C441.903 304.469 441.423 303.509 441.423 303.029L438.542 287.667L419.82 290.547C418.38 291.027 418.38 289.107 418.38 289.107C418.38 288.147 418.86 288.147 419.34 287.667L438.062 284.786L436.142 275.185L422.22 277.585C420.78 277.585 420.3 276.625 420.3 276.145C420.3 275.185 420.78 274.704 421.74 274.704L435.662 272.784L433.742 264.623Z" fill="#040000"></path><path d="M442.38 305.429C440.94 305.429 439.98 304.469 439.98 303.029L437.579 289.107L419.817 291.987C418.857 291.987 418.377 291.987 417.897 291.507C417.417 291.027 416.937 290.067 416.937 289.107C416.937 288.627 416.937 287.186 418.857 286.706L436.139 283.826L434.699 276.625L421.737 278.545C420.777 278.545 419.817 278.545 419.337 278.065C418.857 277.585 418.377 276.625 418.377 276.145C418.377 274.705 419.337 273.745 420.777 273.745L433.739 271.824L432.299 265.103C432.299 264.143 432.299 263.183 432.779 262.703C433.739 261.742 434.699 261.743 435.179 261.743C436.139 261.743 437.099 262.223 437.579 264.143L439.019 270.864L451.501 268.944C451.981 268.944 452.941 268.944 453.901 269.424C454.381 269.904 454.861 270.384 454.861 271.344C454.861 272.784 453.901 273.745 452.461 273.745L439.98 275.665L441.42 282.866L456.302 280.465C457.262 280.465 457.742 280.466 458.222 280.946C458.702 281.426 459.182 281.906 459.182 283.346C459.182 284.786 458.222 285.746 457.262 285.746L442.38 288.147L445.26 302.069C445.26 303.029 445.26 303.989 444.78 304.469C443.82 304.949 443.34 305.429 442.38 305.429ZM438.059 286.226C438.539 286.226 439.019 286.706 439.019 287.186L441.9 302.549V303.029C442.38 303.029 442.38 303.029 442.38 303.029C442.38 303.029 442.38 303.029 442.38 302.549L439.499 287.186C439.499 286.706 439.499 286.706 439.499 286.226C439.499 285.746 439.98 285.746 440.46 285.746L456.782 283.346C456.782 282.866 456.782 282.866 456.782 282.866L440.46 285.746C439.98 285.746 439.019 285.266 439.019 284.786L437.099 275.185C437.099 274.705 437.099 274.705 437.099 274.224C437.099 273.744 437.579 273.745 438.059 273.745L451.501 271.824C451.501 271.344 451.501 271.344 451.501 271.344C451.501 271.344 451.501 271.344 451.021 271.344L437.579 273.264C437.099 273.264 436.139 272.784 436.139 272.304L434.699 264.623V264.143H434.219V264.623L435.659 272.304C435.659 272.784 435.659 272.784 435.659 273.264C435.659 273.744 435.179 273.745 434.699 273.745L420.777 275.665V276.145C420.777 276.145 420.777 276.145 421.257 276.145L435.179 273.745C435.659 273.745 436.619 274.224 436.619 274.704L438.539 284.306C438.539 284.786 438.539 284.786 438.539 285.266C438.539 285.746 438.059 286.226 438.059 286.226L418.857 288.627C418.857 289.107 418.857 289.107 418.857 289.107L438.059 286.226Z" fill="#040000"></path><path d="M472.623 268.943C472.143 268.943 471.183 268.943 471.183 267.503C471.183 266.063 472.143 266.063 472.623 266.063H496.626C498.066 266.063 500.947 266.063 500.947 269.423C500.947 272.304 496.626 280.465 493.266 285.266C495.666 287.186 501.907 292.467 507.668 299.188C508.628 300.148 508.628 300.628 508.628 301.108C508.628 302.068 507.668 302.548 507.187 302.548C506.707 302.548 506.227 302.068 505.747 301.108C499.987 293.907 495.186 290.066 492.306 287.666C483.184 298.708 472.143 303.508 471.663 303.508C470.703 303.508 470.223 302.548 470.223 302.068C470.223 301.588 470.223 301.108 472.143 300.628C493.746 290.066 499.026 271.824 499.026 270.863C499.026 269.903 498.546 269.903 497.106 269.903H472.623V268.943Z" fill="#040000"></path><path d="M470.224 303.989C468.784 303.989 467.344 302.548 467.344 301.108C467.344 299.668 468.304 299.188 469.744 298.228C489.907 288.626 495.187 271.824 496.147 269.903H495.667H472.624C470.704 269.903 470.224 268.463 470.224 267.503C470.224 267.023 470.224 265.103 472.624 265.103H496.628C498.068 265.103 501.908 265.103 501.908 269.423C501.908 272.784 497.588 280.465 494.707 284.786C498.068 287.186 503.348 291.987 508.149 298.228C509.109 299.188 509.589 299.668 509.589 300.628C509.589 302.068 508.149 303.509 506.709 303.509C505.269 303.509 504.789 302.548 504.309 302.068C499.028 295.827 494.707 291.987 491.827 289.587C482.226 299.668 471.184 303.989 470.224 303.989ZM472.624 267.983H495.667C496.628 267.983 498.548 267.983 498.548 270.384C498.548 270.384 493.747 290.066 470.704 301.108C470.224 301.108 469.744 301.588 469.744 301.588C469.744 301.588 469.744 302.068 470.224 302.068C471.184 301.588 481.746 297.268 490.387 286.706C490.387 286.226 490.867 286.226 491.347 286.226C491.827 286.226 491.827 286.226 492.307 286.706C495.187 289.106 500.468 293.427 506.229 300.628C506.709 301.588 506.709 301.588 507.189 301.588C507.189 301.588 507.669 301.588 507.669 301.108C507.669 301.108 507.189 300.628 507.189 300.148C501.908 293.907 496.147 289.106 493.267 286.706C492.787 286.226 492.787 285.746 493.267 285.266C497.108 280.465 500.948 272.784 500.948 270.384C500.948 268.463 499.988 268.463 498.068 268.463L472.624 267.983C472.144 267.503 472.624 267.503 472.624 267.983Z" fill="#040000"></path><path d="M533.118 303.509C533.118 303.989 533.118 304.949 531.678 304.949C530.237 304.949 530.237 303.989 530.237 303.509V264.143C530.237 263.663 530.237 262.702 531.678 262.702C533.118 262.702 533.118 263.663 533.118 264.143V276.625C543.679 281.425 548.48 284.786 553.28 288.147C554.72 289.107 554.72 289.587 554.72 290.067C554.72 290.547 554.24 291.507 553.28 291.507C552.8 291.507 552.32 291.507 549.92 289.587C544.159 285.266 537.438 281.905 532.638 279.505V303.509H533.118Z" fill="#040000"></path><path d="M531.674 305.909C530.714 305.909 528.794 305.429 528.794 303.509V264.143C528.794 262.703 529.754 261.743 531.674 261.743C533.595 261.743 534.555 262.703 534.555 264.143V276.145C544.636 280.466 549.437 283.826 553.757 287.187L554.237 287.666C555.677 288.627 556.157 289.107 556.157 290.547C556.157 291.987 555.197 293.427 553.277 293.427C552.317 293.427 551.837 292.947 549.437 291.507C543.676 287.186 537.435 283.826 534.075 282.386V303.989C534.075 304.949 533.114 305.909 531.674 305.909ZM531.194 263.663L530.714 303.029C530.714 303.509 531.194 303.029 531.194 303.029V279.505C531.194 279.025 531.194 278.545 531.674 278.545C532.154 278.545 532.634 278.065 532.634 278.545C536.475 280.466 543.676 283.826 549.917 288.627C551.357 289.587 552.317 290.067 552.317 290.067C552.797 290.067 552.797 289.587 552.797 289.587L551.837 288.627L551.357 288.147C547.036 285.266 541.756 281.425 531.674 277.105C531.194 277.105 530.714 276.625 530.714 276.145L531.194 263.663C531.674 263.663 531.674 263.663 531.194 263.663Z" fill="#040000"></path><path d="M317.566 113.4C317.086 113.4 317.086 113.4 317.566 113.4C316.126 113.4 315.166 111.96 315.166 110.519C315.166 110.519 315.166 109.559 315.646 107.159C316.126 105.719 317.086 104.758 318.526 105.238C319.967 105.718 320.447 107.159 320.447 108.599C319.967 110.039 319.967 110.999 319.967 110.999C319.487 112.44 318.526 113.4 317.566 113.4Z" fill="black"></path><path d="M324.284 96.5972C323.804 96.5972 323.324 96.5973 322.844 96.1172C321.884 95.157 321.884 93.2364 322.844 92.2762C323.804 90.836 325.244 89.3959 326.685 87.9556C327.645 86.9954 329.085 86.9953 330.045 88.4356C331.005 89.3958 330.525 91.3161 329.565 92.2762C328.605 93.2364 327.165 94.6768 326.205 95.6369C325.724 96.117 325.244 96.5972 324.284 96.5972Z" fill="black"></path><path d="M427.022 119.641C426.062 119.641 425.102 119.161 424.622 117.721C424.141 116.28 423.661 114.36 422.701 112.92C422.221 111.48 422.701 110.039 423.661 109.079C424.622 108.599 426.062 109.079 427.022 110.039C427.982 111.959 428.462 113.4 428.942 115.32C429.422 116.76 428.942 118.201 427.502 119.161C427.502 119.641 427.022 119.641 427.022 119.641ZM416.46 101.398C415.98 101.398 415.02 100.918 415.02 100.438C414.06 99.4776 412.62 98.0373 411.66 97.0771C410.7 96.117 410.22 94.1968 411.18 93.2366C412.14 91.7964 413.58 91.7965 414.54 92.7567C415.98 94.1969 416.941 95.157 418.381 96.5972C419.341 97.5573 419.341 99.4776 418.381 100.438C417.901 100.918 416.941 101.398 416.46 101.398ZM400.618 89.3961C400.138 89.3961 400.138 89.3961 399.658 89.3961C398.218 88.916 396.778 87.9558 395.338 87.4757C393.898 86.9956 393.417 85.5556 393.898 84.1154C394.378 82.6752 395.818 81.7149 396.778 82.195C398.218 82.6751 400.138 83.6353 401.579 84.1154C403.019 84.5955 403.499 86.5157 403.019 87.9559C402.539 88.9161 401.579 89.3961 400.618 89.3961ZM340.131 84.5954C339.17 84.5954 338.21 83.6351 337.73 82.675C337.25 81.2347 338.21 79.7948 339.17 79.3147C340.611 78.8346 342.051 78.3543 343.971 77.8742C345.411 77.3942 346.371 78.3544 346.851 79.7946C347.331 81.2349 346.371 82.6751 344.931 83.1552C343.491 83.6353 342.051 84.1153 340.611 84.5954C340.611 84.5954 340.611 84.5954 340.131 84.5954ZM382.376 83.1552C381.416 83.1552 380.456 82.675 379.976 82.675L377.575 82.195C376.135 82.195 375.175 80.7549 375.655 79.3147C375.655 77.8745 377.095 76.9143 378.536 76.9143L380.936 77.3943C381.896 77.3943 382.376 77.8742 383.336 77.8742C384.776 78.3543 385.736 79.7946 385.256 81.2348C384.776 82.195 383.816 83.1552 382.376 83.1552ZM358.853 81.2348C357.413 81.2348 356.453 80.2748 356.453 78.3545C356.453 76.9143 357.413 75.4739 358.853 75.4739C359.813 75.4739 360.773 75.4739 362.213 75.4739H363.654C365.094 75.4739 366.054 76.9143 366.054 78.3545C366.054 79.7947 365.094 81.2348 363.654 81.2348H362.213C361.253 81.2348 359.813 81.2348 358.853 81.2348Z" fill="black"></path><path d="M430.381 138.363C428.941 138.363 427.98 137.403 427.98 135.963C427.98 135.003 427.98 134.043 427.98 133.082C427.98 131.642 428.941 130.202 429.901 130.202C431.341 130.202 432.301 131.162 432.781 132.602C432.781 133.563 432.781 134.523 432.781 135.483C432.781 136.923 431.821 138.363 430.381 138.363Z" fill="black"></path><path d="M414.536 129.242L427.978 161.887L445.74 131.642L414.536 129.242Z" fill="black"></path><path d="M261.881 233.898H26.6505C12.2486 233.898 0.24707 221.896 0.24707 207.494V69.7131C0.24707 55.3109 12.2486 43.3091 26.6505 43.3091H261.881C276.283 43.3091 288.285 55.3109 288.285 69.7131V207.494C288.285 222.376 276.283 233.898 261.881 233.898ZM26.6505 54.3507C18.0094 54.3507 11.2885 61.0718 11.2885 69.7131V207.494C11.2885 216.135 18.0094 222.856 26.6505 222.856H261.881C270.522 222.856 277.243 216.135 277.243 207.494V69.7131C277.243 61.0718 270.522 54.3507 261.881 54.3507H26.6505Z" fill="black"></path><path d="M167.785 116.28C166.345 113.879 163.945 112.919 161.065 112.919C158.664 112.919 155.784 114.359 154.344 116.28L129.38 154.206L115.459 138.363C114.018 136.443 111.618 135.483 109.218 135.963C106.817 135.963 104.417 137.403 103.457 139.324L80.4141 174.849H206.19L167.785 116.28Z" fill="#4C4B4C"></path><path d="M115.458 124.441C124.099 124.441 131.3 117.24 131.3 108.599C131.3 99.9574 124.099 92.7563 115.458 92.7563C106.817 92.7563 99.6162 99.9574 99.6162 108.599C99.6162 117.24 106.817 124.441 115.458 124.441Z" fill="#4C4B4C"></path><path d="M201.872 78.8344C199.471 78.8344 197.551 77.3943 197.071 74.9939C197.071 74.5138 181.229 9.22376 143.784 9.22376C110.66 9.22376 89.0569 51.9503 89.0569 52.4304C88.0968 54.8308 85.2164 55.7909 82.8161 54.8308C80.4158 53.8706 79.4556 50.9902 80.4158 48.5899C81.3759 46.6696 104.419 0.102539 143.784 0.102539C188.43 0.102539 205.712 70.6733 206.192 73.5538C206.672 75.9541 205.232 78.8346 202.832 79.3147C202.832 78.8346 202.352 78.8344 201.872 78.8344Z" fill="black"></path><path d="M145.226 287.666C118.342 287.666 91.4585 258.382 90.0183 256.942C88.0981 255.021 88.5781 252.141 90.4984 250.221C92.4186 248.3 95.299 248.78 97.2193 250.7C97.6993 251.181 137.545 294.387 162.988 271.344C190.351 246.86 189.391 200.293 189.391 199.813C189.391 196.932 191.311 195.012 194.192 195.012C196.592 195.012 198.992 196.932 198.992 199.813C198.992 201.733 199.953 251.181 169.229 278.545C161.548 285.266 153.387 287.666 145.226 287.666Z" fill="black"></path><path d="M181.706 66.3525L185.066 62.9919L201.869 79.3146L216.271 61.0715L220.111 63.9521L202.349 86.0354L181.706 66.3525Z" fill="black"></path><path d="M202.352 89.396L178.349 66.8324L185.069 59.6313L201.392 75.4737L216.274 57.7112L223.474 63.9521L202.352 89.396Z" fill="black"></path><path d="M89.0586 277.105L93.8592 277.585L94.8193 254.061L117.862 256.462L118.342 252.141L90.0187 249.26L89.0586 277.105Z" fill="black"></path><path d="M96.2595 279.985L86.6582 279.505L87.6183 246.38L120.743 249.741L119.783 259.342L96.7395 256.942L96.2595 279.985Z" fill="black"></path></svg> 