<?xml version="1.0" encoding="UTF-8"?> <svg xmlns="http://www.w3.org/2000/svg" width="638" height="378" viewBox="0 0 638 378" fill="none"><path d="M606.546 372.88H371.316C356.914 372.88 344.912 360.879 344.912 346.476V208.695C344.912 194.293 356.914 182.291 371.316 182.291H606.546C620.948 182.291 632.95 194.293 632.95 208.695V346.476C632.47 361.359 620.948 372.88 606.546 372.88Z" fill="#C0B38D"></path><path d="M606.546 377.681H371.315C354.033 377.681 340.111 363.759 340.111 346.476V208.695C340.111 191.412 354.033 177.49 371.315 177.49H606.546C623.828 177.49 637.75 191.412 637.75 208.695V346.476C637.27 363.759 623.348 377.681 606.546 377.681ZM371.315 187.572C359.314 187.572 349.713 197.173 349.713 209.175V346.956C349.713 358.958 359.314 368.559 371.315 368.559H606.546C618.548 368.559 628.149 358.958 628.149 346.956V209.175C628.149 197.173 618.548 187.572 606.546 187.572H371.315Z" fill="#040000"></path><path d="M397.716 274.945C397.236 274.945 396.275 274.945 396.275 273.505C396.275 272.065 397.236 272.065 397.716 272.065H436.121C436.601 272.065 437.561 272.065 437.561 273.505C437.561 274.945 436.601 274.945 436.121 274.945H419.799C419.799 281.186 418.838 287.427 414.518 292.228C410.677 296.548 405.397 297.989 404.437 297.989C403.476 297.989 402.996 297.029 402.996 296.549C402.996 295.588 402.996 295.588 404.917 295.108C415.478 290.788 416.438 282.146 416.438 274.945H397.716V274.945ZM430.36 259.583C430.84 259.583 431.8 259.583 431.8 261.023C431.8 262.463 430.84 262.463 430.36 262.463H402.996C402.516 262.463 401.556 262.463 401.556 261.023C401.556 259.583 402.516 259.583 402.996 259.583H430.36Z" fill="#040000"></path><path d="M404.44 298.949C402.999 298.949 402.039 297.509 402.039 296.069C402.039 294.628 402.999 294.148 404.44 293.668C414.041 289.828 415.001 282.626 415.481 275.905H397.719C395.798 275.905 395.318 274.465 395.318 273.505C395.318 272.545 395.798 271.105 397.719 271.105H436.124C438.044 271.105 438.524 272.545 438.524 273.505C438.524 274.465 438.044 275.905 436.124 275.905H420.762C420.762 281.666 419.322 287.907 415.001 292.708C410.68 297.029 405.4 298.949 404.44 298.949ZM403.959 296.549C404.92 296.549 409.72 295.108 413.081 291.268C417.401 286.947 417.881 280.706 418.361 274.945C418.361 274.465 418.841 273.985 419.802 273.985H436.124V273.505H397.719H416.441C416.921 273.505 416.921 273.505 417.401 273.985C417.881 274.465 417.881 274.465 417.881 274.945C417.881 281.186 417.401 291.268 405.4 296.069C404.92 296.069 404.44 296.069 403.959 296.549ZM430.363 263.424H402.999C401.079 263.424 400.599 261.983 400.599 261.023C400.599 259.583 401.559 258.623 402.999 258.623H430.363C432.283 258.623 432.763 260.063 432.763 261.023C432.763 261.983 432.283 263.424 430.363 263.424ZM402.999 260.543L430.363 261.023H402.999V260.543Z" fill="#040000"></path><path d="M462.53 258.623C462.05 256.703 463.97 256.702 463.97 256.702C464.93 256.702 464.93 257.183 465.41 258.143L466.85 265.824L480.292 263.904C480.772 263.904 482.212 263.904 482.212 265.344C482.212 266.304 481.732 266.304 481.252 266.784L467.811 268.704L469.731 278.306L486.053 275.906C487.493 275.906 487.493 277.346 487.493 277.346C487.493 278.306 486.533 278.786 486.533 278.786L470.211 281.187L473.091 296.549C473.571 298.469 471.651 298.469 471.651 298.469C470.691 298.469 470.211 297.509 470.211 297.029L467.331 281.667L448.608 284.547C447.168 285.027 447.168 283.107 447.168 283.107C447.168 282.147 447.648 282.147 448.128 281.667L466.85 278.786L464.93 269.185L451.009 271.585C449.568 271.585 449.088 270.625 449.088 270.145C449.088 269.185 449.568 268.704 450.528 268.704L464.45 266.784L462.53 258.623Z" fill="#040000"></path><path d="M470.689 299.429C469.249 299.429 468.289 298.469 468.289 297.029L465.889 283.107L448.127 285.987C447.166 285.987 446.686 285.987 446.206 285.507C445.726 285.027 445.246 284.067 445.246 283.107C445.246 282.627 445.246 281.186 447.166 280.706L464.449 277.826L463.009 270.625L450.047 272.545C449.087 272.545 448.126 272.545 447.646 272.065C447.166 271.585 446.686 270.625 446.686 270.145C446.686 268.705 447.646 267.745 449.087 267.745L462.048 265.824L460.608 259.103C460.608 258.143 460.608 257.183 461.088 256.703C462.048 255.742 463.008 255.743 463.488 255.743C464.449 255.743 465.409 256.223 465.889 258.143L467.329 264.864L479.811 262.944C480.291 262.944 481.251 262.944 482.211 263.424C482.691 263.904 483.171 264.384 483.171 265.344C483.171 266.784 482.211 267.745 480.771 267.745L468.289 269.665L469.729 276.866L484.611 274.465C485.572 274.465 486.052 274.466 486.532 274.946C487.012 275.426 487.492 275.906 487.492 277.346C487.492 278.786 486.532 279.746 485.571 279.746L470.689 282.147L473.57 296.069C473.57 297.029 473.57 297.989 473.09 298.469C472.61 298.949 471.65 299.429 470.689 299.429ZM466.369 280.226C466.849 280.226 467.329 280.706 467.329 281.186L470.209 296.549V297.029C470.69 297.029 470.689 297.029 470.689 297.029C470.689 297.029 470.689 297.029 470.689 296.549L467.809 281.186C467.809 280.706 467.809 280.706 467.809 280.226C467.809 279.746 468.289 279.746 468.769 279.746L485.091 277.346C485.091 276.866 485.091 276.866 485.091 276.866L468.769 279.746C468.289 279.746 467.329 279.266 467.329 278.786L465.409 269.185C465.409 268.705 465.409 268.705 465.409 268.224C465.409 267.744 465.889 267.745 466.369 267.745L479.811 265.824C479.811 265.344 479.811 265.344 479.811 265.344C479.811 265.344 479.811 265.344 479.331 265.344L465.889 267.264C465.409 267.264 464.449 266.784 464.449 266.304L463.009 258.623V258.143H462.528V258.623L463.969 266.304C463.969 266.784 463.969 266.784 463.969 267.264C463.969 267.744 463.489 267.745 463.009 267.745L449.087 269.665V270.145C449.087 270.145 449.087 270.145 449.567 270.145L463.488 267.745C463.969 267.745 464.929 268.224 464.929 268.704L466.849 278.306C466.849 278.786 466.849 278.786 466.849 279.266C466.849 279.746 466.369 280.226 466.369 280.226L447.166 282.627C447.166 283.107 447.166 283.107 447.166 283.107L466.369 280.226Z" fill="#040000"></path><path d="M500.933 262.943C500.452 262.943 499.492 262.943 499.492 261.503C499.492 260.063 500.452 260.063 500.933 260.063H524.936C526.376 260.063 529.256 260.063 529.256 263.423C529.256 266.304 524.936 274.465 521.575 279.266C523.975 281.186 530.216 286.467 535.977 293.188C536.937 294.148 536.937 294.628 536.937 295.108C536.937 296.068 535.977 296.548 535.497 296.548C535.017 296.548 534.537 296.068 534.057 295.108C528.296 287.907 523.495 284.066 520.615 281.666C511.494 292.708 500.452 297.508 499.972 297.508C499.012 297.508 498.532 296.548 498.532 296.068C498.532 295.588 498.532 295.108 500.452 294.628C522.055 284.066 527.336 265.824 527.336 264.863C527.336 263.903 526.856 263.903 525.416 263.903H500.933V262.943Z" fill="#040000"></path><path d="M498.534 297.989C497.094 297.989 495.653 296.548 495.653 295.108C495.653 293.668 496.613 293.188 498.054 292.228C518.216 282.626 523.497 265.824 524.457 263.903H523.977H500.934C499.014 263.903 498.534 262.463 498.534 261.503C498.534 261.023 498.534 259.103 500.934 259.103H524.937C526.377 259.103 530.218 259.103 530.218 263.423C530.218 266.784 525.897 274.465 523.017 278.786C526.377 281.186 531.658 285.987 536.459 292.228C537.419 293.188 537.899 293.668 537.899 294.628C537.899 296.068 536.459 297.509 535.018 297.509C533.578 297.509 533.098 296.548 532.618 296.068C527.337 289.827 523.017 285.987 520.136 283.587C510.535 293.668 499.494 297.989 498.534 297.989ZM500.934 261.983H523.977C524.937 261.983 526.857 261.983 526.857 264.384C526.857 264.384 522.057 284.066 499.014 295.108C498.534 295.108 498.054 295.588 498.054 295.588C498.054 295.588 498.054 296.068 498.534 296.068C499.494 295.588 510.055 291.268 518.696 280.706C518.696 280.226 519.176 280.226 519.656 280.226C520.136 280.226 520.137 280.226 520.617 280.706C523.497 283.106 528.778 287.427 534.538 294.628C535.018 295.588 535.018 295.588 535.498 295.588C535.498 295.588 535.978 295.588 535.978 295.108C535.978 295.108 535.498 294.628 535.498 294.148C530.218 287.907 524.457 283.106 521.577 280.706C521.097 280.226 521.097 279.746 521.577 279.266C525.417 274.465 529.258 266.784 529.258 264.384C529.258 262.463 528.297 262.463 526.377 262.463L500.934 261.983C500.934 261.503 500.934 261.503 500.934 261.983Z" fill="#040000"></path><path d="M561.42 297.509C561.42 297.989 561.42 298.949 559.98 298.949C558.54 298.949 558.54 297.989 558.54 297.509V258.143C558.54 257.663 558.54 256.702 559.98 256.702C561.42 256.702 561.42 257.663 561.42 258.143V270.625C571.982 275.425 576.782 278.786 581.583 282.147C583.023 283.107 583.023 283.587 583.023 284.067C583.023 284.547 582.543 285.507 581.583 285.507C581.103 285.507 580.623 285.507 578.223 283.587C572.462 279.266 565.741 275.905 560.94 273.505V297.509H561.42Z" fill="#040000"></path><path d="M559.977 299.909C559.017 299.909 557.097 299.429 557.097 297.509V258.143C557.097 256.703 558.057 255.743 559.977 255.743C561.897 255.743 562.858 256.703 562.858 258.143V270.145C572.939 274.466 577.74 277.826 582.06 281.187L582.54 281.666C583.98 282.627 584.46 283.107 584.46 284.547C584.46 285.987 583.5 287.427 581.58 287.427C580.62 287.427 580.14 286.947 577.74 285.507C571.979 281.186 565.738 277.826 562.377 276.386V297.989C562.377 298.949 561.417 299.909 559.977 299.909ZM559.977 257.663C559.497 257.663 559.497 257.663 559.977 257.663L559.497 297.029C559.497 297.509 559.977 297.029 559.977 297.029V273.505C559.977 273.025 559.977 272.545 560.457 272.545C560.937 272.545 561.417 272.065 561.417 272.545C565.258 274.466 572.459 277.826 578.7 282.627C580.14 283.587 581.1 284.067 581.1 284.067C581.58 284.067 581.58 283.587 581.58 283.587L580.62 282.627L580.14 282.147C575.819 279.266 570.539 275.425 560.457 271.105C559.977 271.105 559.497 270.625 559.497 270.145L559.977 257.663C559.977 257.663 560.457 257.663 559.977 257.663Z" fill="#040000"></path><path d="M350.677 107.88C350.677 107.88 350.677 107.4 350.677 107.88C349.237 107.88 348.276 106.44 348.276 104.999C348.276 104.999 348.276 104.039 348.756 101.639C349.237 100.199 350.197 99.2386 351.637 99.7186C353.077 100.199 353.557 101.639 353.557 103.079C353.077 104.519 353.077 105.479 353.077 105.479C353.077 106.439 352.117 107.88 350.677 107.88Z" fill="black"></path><path d="M357.881 90.5972C357.401 90.5972 356.921 90.5973 356.441 90.1172C355.481 89.157 355.481 87.2364 356.441 86.2762C357.401 84.836 358.841 83.3959 360.281 81.9556C361.241 80.9954 362.682 80.9953 363.642 82.4356C364.602 83.3958 364.122 85.3161 363.162 86.2762C362.202 87.2364 360.761 88.6768 359.801 89.6369C359.321 90.117 358.361 90.5972 357.881 90.5972Z" fill="black"></path><path d="M460.131 113.641C459.171 113.641 458.21 113.161 457.73 111.721C457.25 110.28 456.77 108.36 455.81 106.92C455.33 105.48 455.81 104.039 456.77 103.079C457.73 102.599 459.171 103.079 460.131 104.039C461.091 105.959 461.571 107.4 462.051 109.32C462.531 110.76 462.051 112.201 460.611 113.161C461.091 113.641 460.611 113.641 460.131 113.641ZM450.049 95.3979C449.569 95.3979 448.609 94.9178 448.609 94.4377C447.649 93.4776 446.209 92.0373 445.249 91.0771C444.289 90.117 443.809 88.1968 444.769 87.2366C445.729 85.7964 447.169 85.7965 448.129 86.7567C449.569 88.1969 450.529 89.157 451.97 90.5972C452.93 91.5573 452.93 93.4776 451.97 94.4377C451.009 94.9178 450.529 95.3979 450.049 95.3979ZM434.207 83.3961C433.727 83.3961 433.727 83.3961 433.247 83.3961C431.807 82.916 430.367 81.9558 428.927 81.4757C427.486 80.9956 427.006 79.5556 427.486 78.1154C427.966 76.6752 429.407 75.7149 430.367 76.195C431.807 76.6751 433.727 77.6353 435.167 78.1154C436.608 78.5955 437.088 80.5157 436.608 81.9559C436.128 82.9161 435.167 83.3961 434.207 83.3961ZM373.719 79.0753C372.759 79.0753 371.799 78.1154 371.319 77.1552C370.839 75.715 371.799 74.2747 372.759 73.7946C374.199 73.3146 375.64 72.8346 377.56 72.3545C379 71.8744 379.96 72.8344 380.44 74.2746C380.92 75.7148 379.96 77.1551 378.52 77.6352C377.08 78.1152 375.64 78.5953 374.2 79.0753C374.2 79.0753 374.199 79.0753 373.719 79.0753ZM415.965 77.6352C415.965 77.6352 415.485 77.1551 415.965 77.6352C415.005 77.6352 414.045 77.1552 413.565 77.1552L411.164 76.675C409.724 76.675 408.764 75.2349 409.244 73.7946C409.244 72.3544 410.684 71.3943 412.124 71.3943L414.525 71.8742C415.485 71.8742 415.965 72.3545 416.925 72.3545C418.365 72.8346 419.325 74.2748 418.845 75.7151C418.365 76.6752 416.925 77.6352 415.965 77.6352ZM392.442 75.2348C391.002 75.2348 390.042 74.2748 390.042 72.3545C390.042 70.9143 391.002 69.4739 392.442 69.4739C393.402 69.4739 394.362 69.4739 395.802 69.4739H397.242C398.683 69.4739 399.643 70.9143 399.643 72.3545C399.643 73.7947 398.683 75.2348 397.242 75.2348H395.802C394.362 75.2348 393.402 75.2348 392.442 75.2348Z" fill="black"></path><path d="M463.971 132.363C462.53 132.363 461.57 131.403 461.57 129.963C461.57 129.003 461.57 128.043 461.57 127.082C461.57 125.642 462.53 124.202 463.491 124.202C464.931 124.202 465.891 125.162 466.371 126.602C466.371 127.563 466.371 128.523 466.371 129.483C466.371 130.923 465.411 132.363 463.971 132.363Z" fill="black"></path><path d="M447.646 123.242L461.568 155.887L479.331 125.642L447.646 123.242Z" fill="black"></path><path d="M66.4757 225.498C52.0738 225.498 40.0723 213.496 40.0723 199.094L48.2332 68.5139C49.1934 55.0718 59.7548 44.51 73.6766 44.0299L301.706 35.3887C316.108 35.3887 328.11 47.3905 328.11 61.7927V203.894C328.11 218.777 316.108 230.298 301.226 230.298L66.4757 225.498ZM301.706 46.4303L73.1965 55.5518C66.4757 56.0319 60.7149 61.3126 60.2348 68.0336L51.5937 199.094C51.5937 207.735 58.3147 214.456 66.9558 214.456L303.627 218.777C311.308 218.777 317.548 213.016 317.548 205.335V61.3128C316.588 53.1515 309.867 46.4303 301.706 46.4303Z" fill="black"></path><path d="M207.618 107.88C206.178 105.479 203.778 104.519 200.898 104.519C198.497 104.519 195.617 105.959 194.177 107.88L169.213 145.806L155.292 129.963C153.852 128.043 151.451 127.083 149.051 127.563C146.65 127.563 144.25 129.003 143.29 130.923L120.247 166.449H246.023L207.618 107.88Z" fill="#4C4B4C"></path><path d="M155.291 116.041C163.932 116.041 171.133 108.84 171.133 100.199C171.133 91.5573 163.932 84.3562 155.291 84.3562C146.65 84.3562 139.449 91.5573 139.449 100.199C139.449 108.84 146.65 116.041 155.291 116.041Z" fill="#4C4B4C"></path><path d="M261.86 266.304C241.697 266.304 223.455 262.464 221.535 261.984C219.134 261.504 217.214 258.623 217.694 256.223C218.174 253.822 221.055 251.902 223.455 252.382C243.617 257.183 297.865 263.424 306.986 237.5C308.906 231.739 308.426 226.458 305.546 221.177C294.024 201.494 249.858 189.012 234.016 185.652C231.616 185.172 229.696 182.771 230.176 179.891C230.656 177.01 233.056 175.57 235.937 176.05C238.337 176.53 298.345 188.532 314.187 215.896C318.507 223.578 319.468 231.739 316.587 239.9C309.386 261.503 284.423 266.304 261.86 266.304Z" fill="black"></path><path d="M34.7928 109.32C33.3526 109.32 31.9125 108.84 30.9524 107.4C29.5122 105.479 -4.09225 61.3126 1.18844 30.1078C2.62863 20.9863 6.94913 13.7851 14.6301 8.98435C51.1149 -15.9795 125.045 22.9065 128.405 24.8268C130.805 26.267 131.765 29.1475 130.325 31.5479C128.885 33.9483 126.005 34.9083 123.604 33.468C123.124 32.988 51.595 -4.45768 19.9109 17.1457C14.6302 20.5062 11.7498 25.3068 10.7897 32.0279C6.46913 59.3921 38.6333 101.639 38.6333 102.119C40.0735 104.039 40.0735 107.4 37.6732 108.84C36.7131 108.84 35.753 109.32 34.7928 109.32Z" fill="black"></path><path d="M10.79 107.4L11.2701 102.599L34.3131 105.479L35.2732 82.4358H40.0739L38.6336 110.76L10.79 107.4Z" fill="black"></path><path d="M41.0354 113.641L7.91113 109.32L9.35141 100.199L31.9143 103.079L33.3545 80.0354L42.4757 80.5157L41.0354 113.641Z" fill="black"></path><path d="M254.66 167.409L257.061 171.73L236.418 182.291L248.9 201.974L244.579 204.375L229.697 180.851L254.66 167.409Z" fill="black"></path><path d="M244.102 207.735L226.34 179.891L255.624 164.048L259.944 172.689L239.782 183.251L252.263 202.934L244.102 207.735Z" fill="black"></path></svg> 