<?xml version="1.0" encoding="UTF-8"?> <svg xmlns="http://www.w3.org/2000/svg" width="609" height="329" viewBox="0 0 609 329" fill="none"><path d="M262.376 190.739H27.1456C12.7437 190.739 0.742188 178.737 0.742188 164.335V26.5539C0.742188 12.1517 12.7437 0.149902 27.1456 0.149902H262.376C276.778 0.149902 288.78 12.1517 288.78 26.5539V164.335C288.78 178.737 276.778 190.739 262.376 190.739ZM27.6256 11.1918C18.9845 11.1918 12.2637 17.9126 12.2637 26.5539V164.335C12.2637 172.977 18.9845 179.697 27.6256 179.697H262.856C271.497 179.697 278.218 172.977 278.218 164.335V26.5539C278.218 17.9126 271.497 11.1918 262.856 11.1918H27.6256Z" fill="black"></path><path d="M319.505 68.3203C318.065 68.3203 317.104 66.8797 317.104 65.4395C317.104 65.4395 317.105 64.4796 317.585 62.0794C318.065 60.6392 319.025 59.679 320.465 60.159C321.905 60.6391 322.385 62.0796 322.385 63.5198C321.905 64.9599 321.905 65.92 321.905 65.92C321.905 67.3602 320.465 68.3203 319.505 68.3203Z" fill="black"></path><path d="M326.709 51.0371C326.229 51.0371 325.749 51.0372 325.269 50.5572C324.309 49.597 324.309 47.6771 325.269 46.717C326.229 45.2768 327.669 43.8365 329.109 42.3963C330.07 41.4361 331.51 41.436 332.47 42.8762C333.43 43.8363 332.95 45.7568 331.99 46.717C331.03 47.6771 329.59 49.1171 328.629 50.0772C327.669 51.0373 327.189 51.0371 326.709 51.0371Z" fill="black"></path><path d="M428.959 74.561C427.999 74.561 427.038 74.0808 426.558 72.6406C426.078 71.2004 425.598 69.2801 424.638 67.8399C424.158 66.3997 424.638 64.9598 425.598 63.9997C426.558 63.5196 427.999 63.9994 428.959 64.9596C429.919 66.8799 430.399 68.32 430.879 70.2403C431.359 71.6805 430.879 73.1209 429.439 74.0811C429.439 74.5612 429.439 74.561 428.959 74.561ZM418.397 56.3186C417.917 56.3186 416.957 55.8382 416.957 55.3581C415.997 54.398 414.557 52.958 413.597 51.9978C412.637 51.0377 412.157 49.1172 413.117 48.157C414.077 46.7168 415.517 46.7169 416.477 47.6771C417.917 49.1173 418.877 50.0777 420.318 51.5179C421.278 52.478 421.278 54.398 420.318 55.3581C419.838 55.8382 419.357 56.3186 418.397 56.3186ZM403.035 44.3168C402.555 44.3168 402.555 44.3168 402.075 44.3168C400.635 43.8367 399.195 42.8764 397.755 42.3964C396.314 41.9163 395.834 40.4757 396.314 39.0355C396.795 37.5953 398.235 36.6356 399.195 37.1157C400.635 37.5957 402.555 38.5554 403.995 39.0355C405.436 39.5156 405.916 41.4361 405.436 42.8763C404.476 43.3564 403.515 44.3168 403.035 44.3168ZM342.548 39.516C341.587 39.516 340.627 38.5558 340.147 37.5956C339.667 36.1554 340.627 34.7148 341.587 34.2348C343.028 33.7547 344.468 33.275 346.388 32.7949C347.828 32.3148 348.788 33.2751 349.268 34.7153C349.748 36.1555 348.788 37.5955 347.348 38.0756C345.908 38.5557 344.468 39.036 343.028 39.516H342.548ZM384.793 38.0756C384.313 38.0756 384.313 38.0756 384.793 38.0756C383.833 38.0756 382.873 37.5956 382.393 37.5956L379.992 37.1157C378.552 37.1157 377.592 35.675 378.072 34.2348C378.072 32.7945 379.512 31.8344 380.952 31.8344L383.353 32.3149C384.313 32.3149 384.793 32.7949 385.753 32.7949C387.193 33.275 388.153 34.715 387.673 36.1552C386.713 37.1153 385.753 38.0756 384.793 38.0756ZM361.27 36.1552C359.83 36.1552 358.87 35.1951 358.87 33.2749C358.87 31.8346 359.83 30.3945 361.27 30.3945C362.23 30.3945 363.19 30.3945 364.63 30.3945H366.071C367.511 30.3945 368.471 31.8346 368.471 33.2749C368.471 34.7151 367.511 36.1552 366.071 36.1552H364.63C363.19 36.1552 362.23 36.1552 361.27 36.1552Z" fill="black"></path><path d="M432.319 93.2842C430.879 93.2842 429.919 92.324 429.919 90.8838C429.919 89.9236 429.919 88.9636 429.919 88.0034C429.919 86.5632 430.879 85.123 431.839 85.123C433.279 85.123 434.24 86.0832 434.72 87.5234C434.72 88.4836 434.72 89.4437 434.72 90.4038C434.72 91.8441 433.759 93.2842 432.319 93.2842C432.319 93.2842 432.799 93.2842 432.319 93.2842Z" fill="black"></path><path d="M416.475 83.6826L430.396 116.808L447.679 86.5629L416.475 83.6826Z" fill="black"></path><path d="M582.575 329H347.345C332.943 329 320.941 316.998 320.941 302.596V164.815C320.941 150.413 332.943 138.411 347.345 138.411H582.575C596.977 138.411 608.979 150.413 608.979 164.815V302.596C608.979 316.998 596.977 329 582.575 329ZM347.345 149.452C338.704 149.452 331.983 156.174 331.983 164.815V302.596C331.983 311.237 338.704 317.959 347.345 317.959H582.575C591.217 317.959 597.937 311.237 597.937 302.596V164.815C597.937 156.174 591.217 149.452 582.575 149.452H347.345Z" fill="black"></path><path d="M565.77 305.476H364.144C355.503 305.476 348.302 298.275 348.302 289.634V178.257C348.302 169.615 355.503 162.415 364.144 162.415H565.77C574.411 162.415 581.612 169.615 581.612 178.257V289.634C582.092 298.275 574.891 305.476 565.77 305.476ZM364.144 166.735C357.903 166.735 353.102 171.536 353.102 177.777V289.154C353.102 295.395 357.903 300.195 364.144 300.195H565.77C572.011 300.195 576.811 295.395 576.811 289.154V177.777C576.811 171.536 572.011 166.735 565.77 166.735H364.144Z" fill="black"></path><g opacity="0.33"><path opacity="0.33" d="M489.445 216.183C488.005 213.783 485.604 212.823 482.724 212.823C480.324 212.823 477.443 214.263 476.003 216.183L451.04 254.109L437.118 238.266C435.678 236.346 433.277 235.386 430.877 235.866C428.477 235.866 426.076 237.306 425.116 239.227L402.073 274.752H527.85L489.445 216.183Z" fill="#4C4B4C"></path><path opacity="0.33" d="M437.117 224.344C445.759 224.344 452.959 217.143 452.959 208.502C452.959 199.86 445.759 192.659 437.117 192.659C428.476 192.659 421.275 199.86 421.275 208.502C421.275 217.143 427.996 224.344 437.117 224.344Z" fill="#4C4B4C"></path></g><path d="M169.245 77.9219C167.805 75.5215 165.405 74.561 162.525 74.561C160.124 74.561 157.244 76.0016 155.804 77.9219L130.84 115.847L116.919 100.005C115.478 98.0849 113.078 97.1248 110.678 97.6048C108.277 97.6048 105.877 99.0448 104.917 100.965L81.874 136.491H207.65L169.245 77.9219Z" fill="#4C4B4C"></path><path d="M116.918 85.603C125.559 85.603 132.76 78.4016 132.76 69.7602C132.76 61.1188 125.559 53.918 116.918 53.918C108.277 53.918 101.076 61.1188 101.076 69.7602C101.076 78.8817 108.277 85.603 116.918 85.603Z" fill="#4C4B4C"></path><path d="M375.675 231.545C375.194 231.545 374.234 231.545 374.234 230.105C374.234 228.665 375.194 228.664 375.675 228.664H414.08C414.56 228.664 415.52 228.665 415.52 230.105C415.52 231.545 414.56 231.545 414.08 231.545H397.757C397.757 237.786 396.797 244.027 392.477 248.828C388.636 253.148 383.356 254.588 382.395 254.588C381.435 254.588 380.955 253.629 380.955 253.149C380.955 252.188 380.955 252.188 382.875 251.708C393.437 247.387 394.397 238.746 394.397 231.545H375.675ZM408.319 216.183C408.799 216.183 409.759 216.183 409.759 217.623C409.759 219.063 408.799 219.063 408.319 219.063H380.955C380.475 219.063 379.515 219.063 379.515 217.623C379.515 216.183 380.475 216.183 380.955 216.183H408.319Z" fill="#040000"></path><path d="M381.912 256.029C380.472 256.029 379.512 254.589 379.512 253.149C379.512 251.709 380.472 251.229 381.912 250.749C391.513 246.908 392.474 239.706 392.954 232.985H375.191C373.271 232.985 372.791 231.545 372.791 230.585C372.791 229.625 373.271 228.185 375.191 228.185H413.596C415.517 228.185 415.997 229.625 415.997 230.585C415.997 231.545 415.517 232.985 413.596 232.985H398.234C398.234 238.746 396.794 244.987 392.474 249.788C388.633 254.109 383.352 256.029 381.912 256.029ZM381.912 253.149C381.912 253.149 381.912 253.629 381.912 253.149C382.872 253.149 387.673 251.708 391.033 247.868C395.354 243.547 395.834 237.306 396.314 231.545C396.314 231.065 396.794 230.585 397.754 230.585H414.076V230.105H375.671H394.394C394.874 230.105 394.874 230.105 395.354 230.585C395.834 231.065 395.834 231.065 395.834 231.545C395.834 237.786 395.354 247.868 383.352 252.668C382.392 252.668 382.392 253.149 381.912 253.149ZM408.316 220.023H380.952C379.032 220.023 378.552 218.583 378.552 217.623C378.552 216.183 379.512 215.223 380.952 215.223H408.316C410.236 215.223 410.716 216.663 410.716 217.623C410.716 218.583 410.236 220.023 408.316 220.023ZM380.952 217.623L408.316 218.103H380.952V217.623Z" fill="#040000"></path><path d="M439.996 215.703C439.516 213.782 441.437 213.782 441.437 213.782C442.397 213.782 442.397 214.263 442.877 215.223L444.317 222.904L457.759 220.983C458.239 220.983 459.679 220.984 459.679 222.424C459.679 223.384 459.199 223.384 458.239 223.864L444.797 225.784L446.717 235.385L463.039 232.985C464.48 232.985 464.479 234.426 464.479 234.426C464.479 235.386 463.519 235.865 463.519 235.865L447.197 238.266L450.078 253.628C450.558 255.549 448.637 255.549 448.637 255.549C447.677 255.549 447.197 254.588 447.197 254.108L444.317 238.746L425.594 241.627C424.154 242.107 424.154 240.186 424.154 240.186C424.154 239.226 424.634 239.226 425.114 238.746L443.837 235.865L441.917 226.264L427.995 228.664C426.555 228.664 426.075 227.705 426.075 227.224C426.075 226.264 426.555 225.784 427.515 225.784L441.437 223.864L439.996 215.703Z" fill="#040000"></path><path d="M448.641 256.029C447.2 256.029 446.24 255.069 446.24 253.629L443.84 239.227L426.078 242.107C425.117 242.107 424.637 242.107 424.157 241.627C423.677 241.147 423.197 240.187 423.197 239.227C423.197 238.747 423.197 237.306 425.117 236.826L442.4 233.946L440.96 226.745L427.998 228.665C427.038 228.665 426.078 228.665 425.598 228.185C425.118 227.705 424.637 226.745 424.637 226.264C424.637 224.824 425.598 223.864 427.038 223.864L439.999 221.944L438.559 215.223C438.559 214.263 438.559 213.303 439.039 212.823C439.999 211.863 440.96 211.862 441.44 211.862C442.4 211.862 443.36 212.342 443.84 214.263L445.28 220.984L457.762 219.063C458.242 219.063 459.202 219.064 460.162 219.544C460.642 220.024 461.122 220.504 461.122 221.464C461.122 222.904 460.162 223.864 458.722 223.864L446.24 225.785L447.68 232.986L462.562 230.585C463.522 230.585 464.003 230.585 464.483 231.065C464.963 231.545 465.443 232.025 465.443 233.466C465.443 234.906 464.483 235.866 463.522 235.866L448.641 238.266L451.521 252.188C451.521 253.149 451.521 254.109 451.041 254.589C450.561 256.029 449.601 256.029 448.641 256.029ZM444.32 237.306C444.8 237.306 445.28 237.786 445.28 238.266L448.16 253.629V254.109C448.641 254.109 448.641 254.109 448.641 254.109C448.641 254.109 448.641 254.109 448.641 253.629L445.76 238.266C445.76 237.786 445.76 237.786 445.76 237.306C445.76 236.826 446.24 236.826 446.72 236.826L463.042 234.426C463.042 233.946 463.042 233.946 463.042 233.946L446.72 236.826C446.24 236.826 445.28 236.346 445.28 235.866L443.36 226.264C443.36 225.784 443.36 225.785 443.36 225.305C443.36 224.824 443.84 224.825 444.32 224.825L457.762 222.904C457.762 222.424 457.762 222.424 457.762 222.424C457.762 222.424 457.762 222.424 457.282 222.424L443.84 224.345C443.36 224.345 442.4 223.864 442.4 223.384L440.96 215.703V215.223H440.479V215.703L441.92 223.384C441.92 223.864 441.92 223.865 441.92 224.345C441.92 224.825 441.44 224.825 440.96 224.825L427.038 226.745V227.225C427.038 227.225 427.038 227.225 427.518 227.225L441.44 224.825C441.92 224.825 442.88 225.304 442.88 225.785L444.8 235.386C444.8 235.866 444.8 235.866 444.8 236.346C444.8 236.827 444.32 236.826 444.32 237.306L425.117 239.707C425.117 240.187 425.117 240.187 425.117 240.187L444.32 237.306Z" fill="#040000"></path><path d="M478.883 220.023C478.403 220.023 477.443 220.023 477.443 218.583C477.443 217.143 478.403 217.143 478.883 217.143H502.886C504.326 217.143 507.206 217.143 507.206 220.503C507.206 223.384 502.886 231.545 499.526 236.346C501.926 238.266 508.167 243.547 513.927 250.268C514.407 251.228 514.887 251.708 514.887 252.188C514.887 253.148 513.927 253.628 513.447 253.628C512.487 253.628 512.487 253.148 512.007 252.188C506.246 244.987 501.446 241.147 498.565 238.746C489.444 249.788 478.403 254.588 477.923 254.588C476.963 254.588 476.482 253.629 476.482 253.149C476.482 252.668 476.482 252.188 478.403 251.708C500.005 241.146 505.286 222.904 505.286 221.944C505.286 220.984 504.806 220.983 503.366 220.983H478.883V220.023Z" fill="#040000"></path><path d="M476.484 255.068C475.044 255.068 473.604 253.628 473.604 252.188C473.604 250.748 474.564 250.268 476.004 249.308C496.166 239.706 501.447 222.904 502.407 220.983H501.927H478.884C476.964 220.983 476.484 219.543 476.484 218.583C476.484 217.623 476.964 216.183 478.884 216.183H502.887C504.328 216.183 508.168 216.183 508.168 220.503C508.168 223.864 503.848 231.545 500.967 235.865C504.328 238.266 509.608 243.067 514.409 249.308C515.369 250.268 515.849 250.748 515.849 251.708C515.849 253.148 514.409 254.588 512.969 254.588C511.529 254.588 511.048 253.629 510.568 253.149C505.288 246.908 500.967 243.067 498.087 240.666C488.485 250.268 477.444 255.068 476.484 255.068ZM476.004 252.188C476.004 252.188 476.484 252.668 476.004 252.188C477.444 252.188 488.005 247.387 496.167 237.306C496.167 236.826 496.647 236.826 497.127 236.826C497.607 236.826 497.607 236.826 498.087 237.306C500.967 239.706 506.248 244.027 512.009 251.228C512.489 252.188 512.489 252.188 512.969 252.188C512.969 252.188 513.449 252.188 513.449 251.708C513.449 251.708 512.969 251.228 512.969 250.748C507.688 244.507 501.927 239.706 499.047 237.306C498.567 236.826 498.567 236.346 499.047 235.865C502.887 231.065 506.728 223.384 506.728 220.983C506.728 219.063 505.768 219.063 503.848 219.063H479.844H479.364V219.543H502.407C503.367 219.543 505.288 219.543 505.288 221.944C505.288 221.944 500.487 241.626 477.444 252.668C476.964 251.708 476.004 252.188 476.004 252.188Z" fill="#040000"></path><path d="M539.378 254.108C539.378 254.588 539.379 255.549 537.938 255.549C536.498 255.549 536.498 254.588 536.498 254.108V214.743C536.498 214.263 536.498 213.302 537.938 213.302C539.379 213.302 539.378 214.263 539.378 214.743V227.224C549.94 232.025 554.741 235.386 559.541 238.746C560.981 239.706 560.981 240.186 560.981 240.666C560.981 241.146 560.501 242.107 559.541 242.107C559.061 242.107 558.581 242.106 556.181 240.186C550.42 235.866 543.699 232.505 538.898 230.105V254.108H539.378Z" fill="#040000"></path><path d="M537.935 256.989C536.975 256.989 535.055 256.509 535.055 254.588V215.223C535.055 213.783 536.015 212.823 537.935 212.823C539.855 212.823 540.815 213.783 540.815 215.223V227.225C550.897 231.545 555.697 234.906 560.018 238.266L560.498 238.747C561.938 239.707 562.418 240.187 562.418 241.627C562.418 243.067 561.458 244.507 559.538 244.507C558.578 244.507 558.098 244.027 555.697 242.587C549.937 238.266 544.176 235.386 540.335 233.465V255.068C540.335 256.029 539.375 256.989 537.935 256.989ZM537.935 214.743C537.455 214.743 537.455 214.743 537.935 214.743L537.455 254.108C537.455 254.589 537.935 254.108 537.935 254.108V230.585C537.935 230.105 537.935 229.625 538.415 229.625C538.895 229.625 539.375 229.145 539.375 229.625C543.216 231.545 550.417 234.906 556.658 239.706C558.098 240.667 559.058 241.147 559.058 241.147C559.538 241.147 559.538 240.666 559.538 240.666L558.578 239.706L558.098 239.226C553.777 236.346 548.496 232.505 538.415 228.185C537.935 228.185 537.455 227.705 537.455 227.225L537.935 214.743Z" fill="#040000"></path></svg> 