<?xml version="1.0" encoding="UTF-8"?> <svg xmlns="http://www.w3.org/2000/svg" width="608" height="346" viewBox="0 0 608 346" fill="none"><path d="M487.371 230.004C485.931 227.603 483.531 226.643 480.651 226.643C478.25 226.643 475.37 228.083 473.93 230.004L448.966 267.93L435.045 252.087C433.604 250.167 431.204 249.207 428.804 249.687C426.403 249.687 424.003 251.127 423.043 253.047L400 288.573H525.776L487.371 230.004Z" fill="#BDBDBD"></path><path d="M435.044 237.685C443.685 237.685 450.886 230.484 450.886 221.842C450.886 213.201 443.685 206 435.044 206C426.403 206 419.202 213.201 419.202 221.842C419.202 230.964 426.403 237.685 435.044 237.685Z" fill="#BDBDBD"></path><path d="M261.653 191.199H26.423C12.0211 191.199 0.0195312 179.197 0.0195312 164.795V27.0139C0.0195312 12.6117 12.0211 0.609863 26.423 0.609863H261.653C276.055 0.609863 288.057 12.6117 288.057 27.0139V164.795C288.057 179.197 276.055 191.199 261.653 191.199ZM26.423 11.6518C17.7818 11.6518 11.061 18.3726 11.061 27.0139V164.795C11.061 173.437 17.7818 180.157 26.423 180.157H261.653C270.295 180.157 277.016 173.437 277.016 164.795V27.0139C277.016 18.3726 270.295 11.6518 261.653 11.6518H26.423V11.6518Z" fill="black"></path><path d="M580.896 345.783H345.665C331.263 345.783 319.262 333.781 319.262 319.379V181.597C319.262 167.195 331.263 155.193 345.665 155.193H580.896C595.298 155.193 607.299 167.195 607.299 181.597V319.379C607.299 333.781 595.778 345.783 580.896 345.783ZM346.145 166.235C337.504 166.235 330.783 172.956 330.783 181.597V319.379C330.783 328.02 337.504 334.741 346.145 334.741H581.376C590.017 334.741 596.738 328.02 596.738 319.379V181.597C596.738 172.956 590.017 166.235 581.376 166.235H346.145Z" fill="black"></path><path d="M318.783 68.7803C318.783 68.7803 318.303 68.7803 318.783 68.7803C317.343 68.7803 316.383 67.3401 316.383 65.8998C316.383 65.8998 316.383 64.9395 316.863 62.539C317.343 61.0987 318.303 60.1384 319.743 60.6185C321.183 61.0986 321.663 62.539 321.663 63.9793C321.183 65.4196 321.183 66.3798 321.183 66.3798C320.703 67.8201 319.743 68.7803 318.783 68.7803Z" fill="black"></path><path d="M325.501 51.9775C325.021 51.9775 324.541 51.9777 324.061 51.4976C323.101 50.5374 323.101 48.6172 324.061 47.657C325.021 46.2168 326.461 44.7764 327.901 43.3362C328.862 42.3761 330.302 42.3759 331.262 43.8162C332.222 44.7763 331.742 46.6969 330.782 47.657C329.822 48.6172 328.382 50.0572 327.421 51.0173C326.941 51.4974 326.461 51.9775 325.501 51.9775Z" fill="black"></path><path d="M428.237 75.021C427.277 75.021 426.317 74.5411 425.837 73.1009C425.357 71.6607 424.877 69.7404 423.916 68.3001C423.436 66.8599 423.916 65.4198 424.877 64.4596C425.837 63.9795 427.277 64.4594 428.237 65.4195C429.197 67.3398 429.677 68.7802 430.157 70.7005C430.637 72.1407 430.157 73.5809 428.717 74.541C428.717 75.0211 428.237 75.021 428.237 75.021ZM417.676 56.7783C417.196 56.7783 416.235 56.2981 416.235 55.8181C415.275 54.8579 413.835 53.4179 412.875 52.4578C411.915 51.4976 411.435 49.5771 412.395 48.617C413.355 47.1767 414.795 47.1769 415.755 48.137C417.196 49.5772 418.156 50.5373 419.596 51.9775C420.556 52.9377 420.556 54.8579 419.596 55.8181C419.116 56.2981 418.156 56.7783 417.676 56.7783ZM401.834 44.7764C401.354 44.7764 401.354 44.7764 400.873 44.7764C399.433 44.2964 397.993 43.3364 396.553 42.8563C395.113 42.3763 394.633 40.936 395.113 39.4958C395.593 38.0555 397.033 37.0953 397.993 37.5753C399.433 38.0554 401.354 39.0157 402.794 39.4958C404.234 39.9758 404.714 41.8961 404.234 43.3363C403.754 43.8164 402.794 44.7764 401.834 44.7764ZM341.826 39.9757C340.866 39.9757 339.906 39.0157 339.426 38.0556C338.945 36.6154 339.906 35.1751 340.866 34.695C342.306 34.2149 343.746 33.7349 345.666 33.2549C347.106 32.7748 348.067 33.7348 348.547 35.175C349.027 36.6152 348.067 38.0555 346.626 38.5355C345.186 39.0156 343.746 39.4956 342.306 39.9757H341.826ZM383.591 38.5355C382.631 38.5355 381.671 38.0556 381.191 38.0556L378.791 37.5753C377.35 37.5753 376.39 36.1352 376.87 34.695C376.87 33.2548 378.311 32.2947 379.751 32.2947L382.151 32.7746C383.111 32.7746 383.591 33.2549 384.551 33.2549C385.992 33.7349 386.952 35.1749 386.472 36.6151C385.992 37.5753 385.031 38.5355 383.591 38.5355ZM360.068 36.6151C358.628 36.6151 357.668 35.6551 357.668 33.7348C357.668 32.2946 358.628 30.8545 360.068 30.8545C361.028 30.8545 361.988 30.8545 363.429 30.8545H364.869C366.309 30.8545 367.269 32.2946 367.269 33.7348C367.269 35.175 366.309 36.6151 364.869 36.6151H363.429C362.469 36.6151 361.508 36.6151 360.068 36.6151Z" fill="black"></path><path d="M431.598 93.7441C430.157 93.7441 429.197 92.784 429.197 91.3437C429.197 90.3835 429.197 89.4234 429.197 88.4632C429.197 87.023 430.157 85.5825 431.117 85.5825C432.558 85.5825 433.518 86.5427 433.998 87.983C433.998 88.9432 433.998 89.9035 433.998 90.8637C433.998 92.304 433.038 93.7441 431.598 93.7441Z" fill="black"></path><path d="M415.753 84.1426L429.675 117.268L446.957 87.0229L415.753 84.1426Z" fill="black"></path><g opacity="0.36"><path opacity="0.36" d="M578.492 304.976C578.492 312.657 572.252 318.418 565.051 318.418H362.464C354.783 318.418 349.022 312.177 349.022 304.976V196C349.022 188.319 355.263 182.558 362.464 182.558H565.051C572.732 182.558 578.492 188.799 578.492 196V304.976Z" fill="#4C4B4C"></path></g><path d="M374.944 246.408C374.464 246.408 373.504 246.407 373.504 244.967C373.504 243.527 374.464 243.527 374.944 243.527H413.349C413.829 243.527 414.789 243.527 414.789 244.967C414.789 246.407 413.829 246.408 413.349 246.408H397.027C397.027 252.649 396.067 258.889 391.746 263.69C387.906 268.011 382.625 269.451 381.665 269.451C380.705 269.451 380.225 268.491 380.225 268.011C380.225 267.051 380.225 267.05 382.145 266.57C392.706 262.25 393.667 253.609 393.667 246.408H374.944ZM407.588 231.045C408.068 231.045 409.029 231.045 409.029 232.485C409.029 233.926 408.068 233.925 407.588 233.925H380.225C379.745 233.925 378.785 233.926 378.785 232.485C378.785 231.045 379.745 231.045 380.225 231.045H407.588Z" fill="white"></path><path d="M381.668 270.412C380.228 270.412 379.268 268.971 379.268 267.531C379.268 266.09 380.228 265.61 381.668 265.13C391.269 261.29 392.229 254.089 392.71 247.368H374.947C373.027 247.368 372.547 245.927 372.547 244.967C372.547 244.007 373.027 242.567 374.947 242.567H413.352C415.272 242.567 415.753 244.007 415.753 244.967C415.753 245.927 415.272 247.368 413.352 247.368H397.99C397.99 253.129 396.55 259.37 392.229 264.17C388.389 268.491 382.628 270.412 381.668 270.412ZM381.668 268.011C382.628 268.011 387.429 266.571 390.789 262.73C395.11 258.409 395.59 252.169 396.07 246.408C396.07 245.928 396.55 245.447 397.51 245.447H413.832V244.967H375.427H394.15C394.63 244.967 394.63 244.967 395.11 245.447C395.59 245.927 395.59 245.928 395.59 246.408C395.59 252.649 395.11 262.73 383.108 267.531C382.148 267.531 381.668 268.011 381.668 268.011ZM407.592 234.886H380.228C378.308 234.886 377.348 233.446 377.348 232.485C377.348 231.045 378.308 230.085 380.228 230.085H407.592C409.512 230.085 410.472 231.525 410.472 232.485C410.472 233.446 409.512 234.886 407.592 234.886ZM380.708 232.005L408.072 232.485H408.552H408.072H380.708V232.005Z" fill="white"></path><path d="M437.837 230.085C437.357 228.165 439.277 228.165 439.277 228.165C440.237 228.165 440.717 228.645 440.717 229.605L442.157 237.286L455.599 235.366C456.079 235.366 457.519 235.366 457.519 236.806C457.519 237.766 457.039 237.766 456.559 238.246L443.117 240.166L445.038 249.768L461.36 247.367C462.8 247.367 462.8 248.808 462.8 248.808C462.8 249.768 461.84 250.248 461.84 250.248L445.518 252.648L448.398 268.011C448.878 269.931 446.958 269.931 446.958 269.931C445.998 269.931 445.518 268.971 445.518 268.491L442.637 253.128L423.915 256.009C422.475 256.489 422.475 254.569 422.475 254.569C422.475 253.608 423.435 253.608 423.435 253.128L442.157 250.248L440.237 240.646L426.315 243.047C424.875 243.047 424.395 242.087 424.395 241.607C424.395 240.647 424.875 240.166 425.835 240.166L439.757 238.246L437.837 230.085Z" fill="white"></path><path d="M446.474 270.891C445.034 270.891 444.074 269.931 444.074 268.491L441.674 254.569L423.912 257.449C422.951 257.449 422.471 257.449 421.991 256.969C421.511 256.489 421.031 255.529 421.031 254.569C421.031 254.088 421.031 252.648 422.951 252.168L440.234 249.288L438.794 242.087L425.832 244.007C424.872 244.007 423.912 244.007 423.432 243.527C422.951 243.047 422.471 242.087 422.471 241.607C422.471 240.167 423.431 239.206 424.872 239.206L437.833 237.286L436.393 230.565C436.393 229.605 436.393 228.645 436.873 228.165C437.833 227.204 438.793 227.205 439.274 227.205C440.234 227.205 441.674 227.685 441.674 229.605L443.114 236.326L455.596 234.406C456.076 234.406 457.036 234.406 457.996 234.886C458.476 235.366 458.956 235.846 458.956 236.806C458.956 238.246 457.996 239.206 456.556 239.206L444.074 241.126L445.514 248.327L460.396 245.927C461.356 245.927 462.317 245.927 462.317 246.408C462.797 246.888 463.277 247.368 463.277 248.808C463.277 250.248 462.317 251.208 461.356 251.208L446.474 253.609L449.355 267.53C449.355 268.49 449.355 269.451 448.875 269.931C447.915 270.891 446.955 270.891 446.474 270.891ZM442.154 252.168C442.634 252.168 443.114 252.648 443.114 253.128L445.994 268.491V268.971C446.474 268.971 446.474 268.971 446.474 268.971C446.474 268.971 446.474 268.971 446.474 268.491L443.594 253.128C443.594 252.648 443.594 252.648 443.594 252.168C443.594 251.688 444.074 251.688 444.554 251.688L460.876 249.288C460.876 248.808 460.876 248.808 460.876 248.808L444.554 251.688C444.074 251.688 443.114 251.208 443.114 250.728L441.194 241.126C441.194 240.646 441.194 240.646 441.194 240.166C441.194 239.686 441.674 239.686 442.154 239.686L455.596 237.766C455.596 237.286 455.596 237.286 455.596 237.286C455.596 237.286 455.596 237.286 455.116 237.286L441.674 239.206C441.194 239.206 440.234 238.726 440.234 238.246L438.794 230.565V230.085H438.313V230.565L439.754 238.246C439.754 238.726 439.754 238.726 439.754 239.206C439.754 239.686 439.274 239.686 438.794 239.686L424.872 241.607V242.087C424.872 242.087 424.872 242.087 425.352 242.087L439.274 239.686C439.754 239.686 440.714 240.166 440.714 240.646L442.634 250.248C442.634 250.728 442.634 250.728 442.634 251.208C442.154 251.208 442.154 251.688 442.154 252.168L422.951 254.569C422.951 255.049 422.951 255.048 422.951 255.048L442.154 252.168Z" fill="white"></path><path d="M474.796 234.406C474.316 234.406 473.356 234.406 473.356 232.965C473.356 231.525 474.316 231.525 474.796 231.525H498.799C500.239 231.525 503.12 231.525 503.12 234.886C503.12 237.766 498.799 245.927 495.439 250.728C497.839 252.648 504.08 257.929 509.84 264.65C510.801 265.61 510.801 266.09 510.801 266.57C510.801 267.53 509.84 268.011 509.36 268.011C508.4 268.011 508.4 267.53 507.92 266.57C502.16 259.369 497.359 255.528 494.478 253.128C485.357 264.17 474.316 268.971 473.836 268.971C472.876 268.971 472.396 268.01 472.396 267.53C472.396 267.05 472.396 266.57 474.316 266.09C495.919 255.529 501.199 237.286 501.199 236.326C501.199 235.365 500.719 235.366 499.279 235.366H474.796V234.406Z" fill="white"></path><path d="M472.397 269.931C470.957 269.931 469.517 268.491 469.517 267.05C469.517 265.61 470.477 265.13 471.917 264.17C492.08 254.569 497.36 237.766 498.32 235.846H497.84H474.797C472.877 235.846 472.397 234.405 472.397 233.445C472.397 232.965 472.397 231.045 474.797 231.045H498.8C500.24 231.045 504.081 231.045 504.081 235.366C504.081 238.726 499.76 246.407 496.88 250.728C500.24 253.128 505.521 257.929 510.322 264.17C511.282 265.13 511.762 265.61 511.762 266.57C511.762 268.011 510.322 269.451 508.882 269.451C507.441 269.451 506.961 268.491 506.481 268.011C501.201 261.77 496.88 257.929 494 255.528C484.398 265.13 473.357 269.931 472.397 269.931ZM474.797 233.445H497.84C498.8 233.445 501.201 233.445 501.201 235.846C501.201 235.846 496.4 255.529 473.357 266.57C472.877 266.57 472.397 267.05 472.397 267.05C472.397 267.05 472.397 267.53 472.877 267.53C473.837 267.05 484.399 262.73 493.04 252.168C493.04 251.688 493.52 251.688 494 251.688C494.48 251.688 494.48 251.688 494.96 252.168C497.84 254.569 503.121 258.889 508.882 266.09C509.362 267.051 509.362 267.05 509.842 267.05C509.842 267.05 510.322 267.05 510.322 266.57C510.322 266.57 509.842 266.091 509.842 265.61C504.561 259.37 498.8 254.569 495.92 252.168C495.44 251.688 495.44 251.208 495.92 250.728C499.761 245.927 503.601 238.246 503.601 235.846C503.601 233.925 502.641 233.925 500.721 233.925L474.797 233.445C474.317 232.965 474.317 232.965 474.797 233.445Z" fill="white"></path><path d="M532.891 268.971C532.891 269.451 532.891 270.412 531.451 270.412C530.011 270.412 530.011 269.451 530.011 268.971V229.605C530.011 229.125 530.011 228.165 531.451 228.165C532.891 228.165 532.891 229.125 532.891 229.605V242.087C543.453 246.888 548.253 250.248 553.054 253.609C554.494 254.569 554.494 255.049 554.494 255.529C554.494 256.009 554.014 256.969 553.054 256.969C552.574 256.969 552.094 256.969 549.693 255.049C543.933 250.728 537.212 247.368 532.411 244.967V268.971H532.891Z" fill="white"></path><path d="M531.448 271.371C530.488 271.371 528.567 270.891 528.567 268.971V229.605C528.567 228.165 529.528 227.205 531.448 227.205C533.368 227.205 534.328 228.165 534.328 229.605V241.607C544.41 245.927 549.21 249.288 553.531 252.648L554.011 253.128C555.451 254.088 555.931 254.569 555.931 256.009C555.931 257.449 554.971 258.889 553.051 258.889C552.09 258.889 551.61 258.409 549.21 256.969C543.929 252.648 537.689 249.768 533.848 247.847V269.451C534.328 270.411 533.368 271.371 531.448 271.371ZM531.448 229.124C531.448 229.124 531.448 229.604 531.448 229.124L530.968 268.491C530.968 268.971 531.448 268.491 531.448 268.491V244.967C531.448 244.487 531.448 244.007 531.928 244.007C532.408 244.007 532.888 243.527 532.888 244.007C536.728 245.927 543.929 249.288 550.17 254.089C551.61 255.049 552.571 255.528 552.571 255.528C553.051 255.528 553.051 255.048 553.051 255.048L552.09 254.089L551.61 253.609C547.29 250.728 542.009 246.887 531.928 242.567C531.448 242.567 530.968 242.087 530.968 241.607L531.448 229.124C531.928 229.124 531.928 229.604 531.448 229.124Z" fill="white"></path><path d="M168.524 78.3816C167.084 75.9812 164.683 75.021 161.803 75.021C159.403 75.021 156.522 76.4613 155.082 78.3816L130.119 116.308L116.197 100.465C114.757 98.5449 112.356 97.5847 109.956 98.0648C107.556 98.0648 105.155 99.5048 104.195 101.425L81.1523 136.951H206.929L168.524 78.3816Z" fill="#4C4B4C"></path><path d="M116.197 86.063C124.838 86.063 132.039 78.8616 132.039 70.2203C132.039 61.579 124.838 54.3779 116.197 54.3779C107.555 54.3779 100.354 61.579 100.354 70.2203C100.354 79.3417 107.555 86.063 116.197 86.063Z" fill="#4C4B4C"></path></svg> 