<?xml version="1.0" encoding="UTF-8"?> <svg xmlns="http://www.w3.org/2000/svg" width="608" height="327" viewBox="0 0 608 327" fill="none"><path d="M261.669 191.447H26.4386C12.0367 191.447 0.0351562 179.446 0.0351562 165.043V27.2621C0.0351562 12.8599 12.0367 0.858032 26.4386 0.858032H261.669C276.071 0.858032 288.073 12.8599 288.073 27.2621V165.043C288.073 179.926 276.551 191.447 261.669 191.447ZM26.9187 12.3799C18.2776 12.3799 11.5568 19.1009 11.5568 27.7422V165.043C11.5568 173.685 18.2776 180.406 26.9187 180.406H262.149C270.791 180.406 277.511 173.685 277.511 165.043V27.2621C277.511 18.6208 270.791 11.8998 262.149 11.8998H26.9187V12.3799Z" fill="black"></path><path d="M318.799 69.5089C317.359 69.5089 316.398 68.0687 316.398 66.6284C316.398 66.6284 316.398 65.6682 316.878 63.2678C317.358 61.8276 318.319 60.8675 319.759 61.3475C321.199 61.8276 321.679 63.2679 321.679 64.7081C321.199 66.1484 321.199 67.1085 321.199 67.1085C321.199 68.5488 320.239 69.5089 318.799 69.5089Z" fill="black"></path><path d="M326.003 52.226C325.523 52.226 325.043 52.2259 324.563 51.7459C323.603 50.7857 323.603 48.8655 324.563 47.9053C325.523 46.4651 326.963 45.0249 328.403 43.5847C329.363 42.6246 330.804 42.6245 331.764 44.0647C332.724 45.0248 332.244 46.9452 331.284 47.9053C330.323 48.8655 328.883 50.3056 327.923 51.2658C327.443 52.2259 326.483 52.226 326.003 52.226Z" fill="black"></path><path d="M428.253 75.2694C427.293 75.2694 426.333 74.7894 425.853 73.3491C425.373 71.9089 424.892 69.9886 423.932 68.5484C423.452 67.1082 423.932 65.668 424.892 64.7079C425.853 64.2278 427.293 64.7078 428.253 65.6679C429.213 67.5882 429.693 69.0285 430.173 70.9488C430.653 72.389 430.173 73.8293 428.733 74.7895C428.733 75.2695 428.733 75.2694 428.253 75.2694ZM418.172 57.0267C417.691 57.0267 416.731 56.5466 416.731 56.0665C415.771 55.1063 414.331 53.6662 413.371 52.7061C412.411 51.7459 411.931 49.8255 412.891 48.8654C413.851 47.4252 415.291 47.4253 416.251 48.3854C417.691 49.8257 418.652 50.7857 420.092 52.226C421.052 53.1861 421.052 55.1063 420.092 56.0665C419.132 57.0266 418.652 57.0267 418.172 57.0267ZM402.33 45.0249C401.849 45.0249 401.849 45.0249 401.369 45.0249C399.929 44.5448 398.489 43.5847 397.049 43.1046C395.609 42.6245 395.129 41.1843 395.609 39.744C396.089 38.3038 397.529 37.3437 398.489 37.8238C399.929 38.3038 401.849 39.264 403.29 39.744C404.73 40.2241 405.21 42.1445 404.73 43.5847C404.25 44.5449 403.29 45.0249 402.33 45.0249ZM341.841 40.7042C340.881 40.7042 339.921 39.7441 339.441 38.784C338.961 37.3438 339.921 35.9035 340.881 35.4234C342.321 34.9433 343.762 34.4633 345.682 33.9833C347.122 33.5032 348.082 34.4633 348.562 35.9035C349.042 37.3437 348.082 38.7839 346.642 39.2639C345.202 39.744 343.762 40.2242 342.322 40.7042C342.322 40.7042 342.322 40.7042 341.841 40.7042ZM384.087 39.2639C384.087 39.2639 383.607 39.2639 384.087 39.2639C383.127 39.2639 382.167 38.784 381.687 38.784L379.286 38.3039C377.846 38.3039 376.886 36.8636 377.366 35.4234C377.366 33.9832 378.806 33.023 380.247 33.023L382.647 33.5031C383.607 33.5031 384.087 33.9833 385.047 33.9833C386.487 34.4633 387.447 35.9035 386.967 37.3437C386.007 38.3038 385.047 39.2639 384.087 39.2639ZM360.564 37.3437C359.124 37.3437 358.164 36.3835 358.164 34.4632C358.164 33.023 359.124 31.5829 360.564 31.5829C361.524 31.5829 362.484 31.5829 363.924 31.5829H365.365C366.805 31.5829 367.765 33.023 367.765 34.4632C367.765 35.9034 366.805 37.3437 365.365 37.3437H363.924C362.484 37.3437 361.524 37.3437 360.564 37.3437Z" fill="black"></path><path d="M432.092 94.4722C430.652 94.4722 429.691 93.512 429.691 92.0718C429.691 91.1117 429.691 90.1516 429.691 89.1915C429.691 87.7513 430.652 86.311 431.612 86.311C433.052 86.311 434.012 87.2712 434.492 88.7114C434.492 89.6715 434.492 90.6317 434.492 91.5919C434.492 93.0321 433.532 94.4722 432.092 94.4722Z" fill="black"></path><path d="M415.769 84.871L429.69 117.996L447.453 87.2713L415.769 84.871Z" fill="black"></path><path d="M467.614 317.227C515.867 317.227 554.985 278.108 554.985 229.853C554.985 181.598 515.867 142.48 467.614 142.48C419.36 142.48 380.242 181.598 380.242 229.853C380.242 278.108 419.36 317.227 467.614 317.227Z" fill="#999899"></path><path d="M490.659 210.17C489.219 207.77 486.819 206.81 483.938 206.81C481.538 206.81 478.658 208.25 477.218 210.17L452.254 248.096L438.333 232.254C436.892 230.334 434.492 229.373 432.092 229.853C429.691 229.853 427.291 231.294 426.331 233.214L403.288 268.739H529.064L490.659 210.17Z" fill="#4C4B4C"></path><path d="M438.332 217.851C446.973 217.851 454.174 210.65 454.174 202.009C454.174 193.368 446.973 186.167 438.332 186.167C429.691 186.167 422.49 193.368 422.49 202.009C422.49 211.13 429.691 217.851 438.332 217.851Z" fill="#4C4B4C"></path><path d="M581.39 326.348H346.159C331.757 326.348 319.756 314.346 319.756 299.944V162.163C319.756 147.761 331.757 135.759 346.159 135.759H581.39C595.792 135.759 607.793 147.761 607.793 162.163V299.944C607.313 314.346 595.792 326.348 581.39 326.348ZM346.159 146.801C337.518 146.801 330.797 153.522 330.797 162.163V299.944C330.797 308.585 337.518 315.306 346.159 315.306H581.39C590.031 315.306 596.752 308.585 596.752 299.944V162.163C596.752 153.522 590.031 146.801 581.39 146.801H346.159Z" fill="black"></path><path d="M168.539 78.6299C167.099 76.2295 164.699 75.2693 161.818 75.2693C159.418 75.2693 156.538 76.7096 155.097 78.6299L130.134 116.556L116.212 100.713C114.772 98.7929 112.372 97.8328 109.972 98.3128C107.571 98.3128 105.171 99.753 104.211 101.673L81.168 137.199H206.944L168.539 78.6299Z" fill="#4C4B4C"></path><path d="M116.212 86.7911C124.853 86.7911 132.054 79.59 132.054 70.9487C132.054 62.3074 124.853 55.1063 116.212 55.1063C107.571 55.1063 100.37 62.3074 100.37 70.9487C100.37 79.59 107.571 86.7911 116.212 86.7911Z" fill="#4C4B4C"></path></svg> 