<?xml version="1.0" encoding="UTF-8"?> <svg xmlns="http://www.w3.org/2000/svg" width="610" height="338" viewBox="0 0 610 338" fill="none"><path d="M578.017 332.604H342.786C328.384 332.604 316.383 320.602 316.383 306.199V168.418C316.383 154.016 328.384 142.014 342.786 142.014H578.017C592.419 142.014 604.42 154.016 604.42 168.418V306.199C604.42 321.082 592.419 332.604 578.017 332.604Z" fill="#C0B38D"></path><path d="M578.017 337.404H342.786C325.504 337.404 311.582 323.482 311.582 306.2V168.418C311.582 151.136 325.504 137.214 342.786 137.214H578.017C595.299 137.214 609.221 151.136 609.221 168.418V306.2C609.221 323.482 595.299 337.404 578.017 337.404ZM342.786 147.295C330.785 147.295 321.183 156.897 321.183 168.899V306.679C321.183 318.681 330.785 328.283 342.786 328.283H578.017C590.018 328.283 599.619 318.681 599.619 306.679V168.899C599.619 156.897 590.018 147.295 578.017 147.295H342.786Z" fill="#040000"></path><path d="M369.186 234.668C368.706 234.668 367.746 234.668 367.746 233.228C367.746 231.788 368.706 231.788 369.186 231.788H407.591C408.071 231.788 409.032 231.788 409.032 233.228C409.032 234.668 408.071 234.668 407.591 234.668H391.269C391.269 240.909 390.309 247.15 385.989 251.951C382.148 256.272 376.867 257.712 375.907 257.712C374.947 257.712 374.467 256.752 374.467 256.272C374.467 255.312 374.467 255.312 376.387 254.832C386.949 250.511 387.909 241.869 387.909 234.668H369.186V234.668ZM401.831 219.306C402.311 219.306 403.271 219.306 403.271 220.746C403.271 222.187 402.311 222.186 401.831 222.186H374.467C373.987 222.186 373.027 222.187 373.027 220.746C373.027 219.306 373.987 219.306 374.467 219.306H401.831Z" fill="#040000"></path><path d="M375.91 258.672C374.47 258.672 373.51 257.232 373.51 255.792C373.51 254.351 374.47 253.871 375.91 253.391C385.511 249.551 386.472 242.349 386.952 235.628H369.189C367.269 235.628 366.789 234.188 366.789 233.228C366.789 232.268 367.269 230.828 369.189 230.828H407.594C409.515 230.828 409.995 232.268 409.995 233.228C409.995 234.188 409.515 235.628 407.594 235.628H392.232C392.232 241.389 390.792 247.63 386.472 252.431C382.631 256.752 376.87 258.672 375.91 258.672ZM375.43 256.272C375.91 256.272 375.91 256.272 375.43 256.272C376.39 256.272 381.191 254.831 384.551 250.991C388.872 246.67 389.352 240.429 389.832 234.668C389.832 234.188 390.312 233.708 391.272 233.708H407.594V233.228H369.189H387.912C388.392 233.228 388.392 233.228 388.872 233.708C389.352 234.188 389.352 234.188 389.352 234.668C389.352 240.909 388.872 250.991 376.87 255.792C376.39 255.792 375.91 255.791 375.43 256.272ZM401.834 223.147H374.47C372.55 223.147 372.07 221.706 372.07 220.746C372.07 219.306 373.03 218.346 374.47 218.346H401.834C403.754 218.346 404.234 219.786 404.234 220.746C404.234 221.706 403.754 223.147 401.834 223.147ZM374.47 220.266L401.834 220.746H374.47V220.266Z" fill="#040000"></path><path d="M434.001 218.346C433.521 216.426 435.441 216.426 435.441 216.426C436.401 216.426 436.401 216.906 436.881 217.866L438.321 225.547L451.763 223.627C452.243 223.627 453.683 223.627 453.683 225.067C453.683 226.027 453.203 226.027 452.723 226.507L439.281 228.427L441.202 238.029L457.524 235.629C458.964 235.629 458.964 237.069 458.964 237.069C458.964 238.029 458.004 238.509 458.004 238.509L441.682 240.91L444.562 256.272C445.042 258.192 443.122 258.192 443.122 258.192C442.162 258.192 441.682 257.232 441.682 256.752L438.801 241.39L420.079 244.27C418.639 244.75 418.639 242.83 418.639 242.83C418.639 241.87 419.119 241.87 419.599 241.39L438.321 238.509L436.401 228.908L422.479 231.308C421.039 231.308 420.559 230.348 420.559 229.868C420.559 228.907 421.039 228.427 421.999 228.427L435.921 226.507L434.001 218.346Z" fill="#040000"></path><path d="M442.16 259.152C440.72 259.152 439.76 258.192 439.76 256.752L437.36 242.83L419.597 245.71C418.637 245.71 418.157 245.71 417.677 245.23C417.197 244.75 416.717 243.79 416.717 242.83C416.717 242.35 416.717 240.909 418.637 240.429L435.919 237.549L434.479 230.348L421.517 232.268C420.557 232.268 419.597 232.268 419.117 231.788C418.637 231.308 418.157 230.348 418.157 229.868C418.157 228.427 419.117 227.467 420.557 227.467L433.519 225.547L432.079 218.826C432.079 217.866 432.079 216.906 432.559 216.426C433.519 215.465 434.479 215.465 434.959 215.465C435.919 215.465 436.879 215.945 437.36 217.866L438.8 224.587L451.281 222.666C451.761 222.666 452.722 222.667 453.682 223.147C454.162 223.627 454.642 224.107 454.642 225.067C454.642 226.507 453.682 227.467 452.242 227.467L439.76 229.388L441.2 236.589L456.082 234.188C457.042 234.188 458.002 234.188 458.002 234.668C458.482 235.148 458.962 235.628 458.962 237.069C458.962 238.509 458.002 239.469 457.042 239.469L442.16 241.869L445.041 255.792C445.041 256.752 445.041 257.712 444.56 258.192C444.08 258.672 443.12 259.152 442.16 259.152ZM438.32 240.429C438.8 240.429 439.28 240.909 439.28 241.39L442.16 256.752V257.232C442.64 257.232 442.64 257.232 442.64 257.232C442.64 257.232 442.64 257.232 442.64 256.752L439.76 241.39C439.76 240.909 439.76 240.909 439.76 240.429C439.76 239.949 440.24 239.949 440.72 239.949L457.042 237.549C457.042 237.069 457.042 237.069 457.042 237.069L440.72 239.949C440.24 239.949 439.28 239.469 439.28 238.989L437.36 229.388C437.36 228.908 437.36 228.907 437.36 228.427C437.36 227.947 437.84 227.947 438.32 227.947L451.761 226.027C451.761 225.547 451.761 225.547 451.761 225.547C451.761 225.547 451.761 225.547 451.281 225.547L437.84 227.467C437.36 227.467 436.399 226.987 436.399 226.507L434.959 218.826V218.346H434.479V218.826L435.919 226.507C435.919 226.987 435.919 226.987 435.919 227.467C435.919 227.947 435.439 227.947 434.959 227.947L421.037 229.868V230.348C421.037 230.348 421.037 230.348 421.517 230.348L435.439 227.947C435.919 227.947 436.879 228.428 436.879 228.908L438.8 238.509C438.8 238.989 438.8 238.989 438.8 239.469C438.32 239.469 438.32 239.949 438.32 240.429L419.117 242.83C419.117 243.31 419.117 243.31 419.117 243.31L438.32 240.429C437.84 240.429 437.84 240.429 438.32 240.429Z" fill="#040000"></path><path d="M472.881 222.666C472.401 222.666 471.441 222.667 471.441 221.226C471.441 219.786 472.401 219.786 472.881 219.786H496.884C498.324 219.786 501.204 219.786 501.204 223.147C501.204 226.027 496.884 234.188 493.524 238.989C495.924 240.909 502.165 246.19 507.925 252.911C508.885 253.872 508.885 254.351 508.885 254.832C508.885 255.792 507.925 256.272 507.445 256.272C506.965 256.272 506.485 255.792 506.005 254.832C500.244 247.63 495.444 243.79 492.563 241.39C483.442 252.431 472.401 257.232 471.921 257.232C470.961 257.232 470.48 256.272 470.48 255.792C470.48 255.312 470.48 254.832 472.401 254.352C494.003 243.79 499.284 225.547 499.284 224.587C499.284 223.627 498.804 223.627 497.364 223.627H472.881V222.666Z" fill="#040000"></path><path d="M470.003 257.712C468.563 257.712 467.123 256.272 467.123 254.832C467.123 253.391 468.083 252.911 469.523 251.951C489.686 242.35 494.967 225.547 495.927 223.627H495.447H472.404C470.483 223.627 470.003 222.186 470.003 221.226C470.003 220.746 470.003 218.826 472.404 218.826H496.407C497.847 218.826 501.688 218.826 501.688 223.147C501.688 226.507 497.367 234.188 494.487 238.509C497.847 240.91 503.128 245.71 507.929 251.951C508.889 252.911 509.369 253.391 509.369 254.352C509.369 255.792 507.928 257.232 506.488 257.232C505.048 257.232 504.568 256.272 504.088 255.792C498.807 249.551 494.487 245.71 491.606 243.31C482.005 253.391 471.444 257.712 470.003 257.712ZM472.884 221.707H495.927C496.887 221.707 498.807 221.707 498.807 224.107C498.807 224.107 494.007 243.79 470.964 254.832C470.484 254.832 470.003 255.312 470.003 255.312C470.003 255.312 470.003 255.792 470.483 255.792C471.444 255.312 482.005 250.991 490.646 240.429C490.646 239.949 491.126 239.949 491.606 239.949C492.086 239.949 492.086 239.949 492.566 240.429C495.447 242.83 500.727 247.15 506.488 254.352C506.968 255.312 506.968 255.312 507.448 255.312C507.448 255.312 507.929 255.312 507.929 254.832C507.929 254.832 507.448 254.351 507.448 253.871C502.168 247.63 496.407 242.83 493.527 240.429C493.047 239.949 493.047 239.469 493.527 238.989C497.367 234.188 501.208 226.507 501.208 224.107C501.208 222.187 500.248 222.187 498.327 222.187L472.884 221.707C472.404 221.226 472.404 221.226 472.884 221.707Z" fill="#040000"></path><path d="M532.891 257.232C532.891 257.712 532.891 258.672 531.451 258.672C530.011 258.672 530.011 257.712 530.011 257.232V217.866C530.011 217.386 530.011 216.426 531.451 216.426C532.891 216.426 532.891 217.386 532.891 217.866V230.348C543.453 235.148 548.253 238.509 553.054 241.869C554.494 242.829 554.494 243.31 554.494 243.79C554.494 244.27 554.014 245.23 553.054 245.23C552.574 245.23 552.094 245.23 549.693 243.31C543.933 238.989 537.212 235.628 532.411 233.228V257.232H532.891Z" fill="#040000"></path><path d="M531.448 259.632C530.488 259.632 528.567 259.152 528.567 257.232V217.866C528.567 216.425 529.528 215.465 531.448 215.465C533.368 215.465 534.328 216.425 534.328 217.866V229.868C544.41 234.188 549.21 237.549 553.531 240.909L554.011 241.389C555.451 242.35 555.931 242.829 555.931 244.27C555.931 245.71 554.971 247.15 553.051 247.15C552.09 247.15 551.61 246.67 549.21 245.23C543.449 240.909 537.209 237.549 533.848 236.109V257.712C534.328 258.672 533.368 259.632 531.448 259.632ZM531.448 217.386C531.448 217.386 530.968 217.866 531.448 217.386L530.968 256.752C530.968 257.232 531.448 256.752 531.448 256.752V233.228C531.448 232.748 531.448 232.268 531.928 232.268C532.408 232.268 532.888 231.788 532.888 232.268C536.728 234.188 543.929 237.549 550.17 242.35C551.61 243.31 552.571 243.79 552.571 243.79C553.051 243.79 553.051 243.31 553.051 243.31L552.09 242.35L551.61 241.869C547.29 238.989 542.009 235.148 531.928 230.828C531.448 230.828 530.968 230.348 530.968 229.868L531.448 217.386C531.928 217.386 531.928 217.866 531.448 217.386Z" fill="#040000"></path><path d="M278.456 44.0793V14.7948C278.456 7.11361 272.215 1.35278 265.014 1.35278H18.2621C10.5811 1.35278 4.82031 7.59369 4.82031 14.7948V44.0793H278.456Z" fill="#C0B38D"></path><path d="M262.132 190.982H26.9015C12.4996 190.982 0.498047 178.98 0.498047 164.578V26.7966C0.498047 12.3944 12.4996 0.392578 26.9015 0.392578H262.132C276.534 0.392578 288.536 12.3944 288.536 26.7966V164.578C288.055 178.98 276.534 190.982 262.132 190.982ZM26.9015 11.4344C18.2604 11.4344 11.5395 18.1553 11.5395 26.7966V164.578C11.5395 173.219 18.2604 179.94 26.9015 179.94H262.132C270.773 179.94 277.494 173.219 277.494 164.578V26.7966C277.494 18.1553 270.773 11.4344 262.132 11.4344H26.9015Z" fill="black"></path><path d="M318.783 69.0432C317.343 69.0432 316.383 67.6029 316.383 66.1627C316.383 66.1627 316.383 65.2025 316.863 62.802C317.343 61.3618 318.303 60.4016 319.743 60.8817C321.183 61.3618 321.663 62.8021 321.663 64.2424C321.183 65.6826 321.183 66.6428 321.183 66.6428C321.183 67.603 320.223 69.0432 318.783 69.0432Z" fill="black"></path><path d="M325.986 51.7603C325.506 51.7603 325.026 51.7602 324.546 51.2801C323.586 50.32 323.586 48.3997 324.546 47.4396C325.506 45.9994 326.947 44.5592 328.387 43.1189C329.347 42.1588 330.787 42.1587 331.747 43.5989C332.707 44.559 332.227 46.4794 331.267 47.4396C330.307 48.3997 328.867 49.8399 327.907 50.8C327.427 51.2801 326.467 51.7603 325.986 51.7603Z" fill="black"></path><path d="M428.237 74.8037C427.277 74.8037 426.317 74.3237 425.837 72.8834C425.357 71.4432 424.877 69.5229 423.916 68.0827C423.436 66.6425 423.916 65.2023 424.877 64.2422C425.837 63.7621 427.277 64.2421 428.237 65.2022C429.197 67.1225 429.677 68.5628 430.157 70.4831C430.637 71.9233 430.157 73.3636 428.717 74.3238C429.197 74.8038 428.717 74.8037 428.237 74.8037ZM418.156 56.5609C417.676 56.5609 416.716 56.0808 416.716 55.6007C415.755 54.6406 414.315 53.2005 413.355 52.2403C412.395 51.2802 411.915 49.3598 412.875 48.3996C413.835 46.9594 415.275 46.9595 416.235 47.9197C417.676 49.3599 418.636 50.32 420.076 51.7602C421.036 52.7204 421.036 54.6406 420.076 55.6007C419.116 56.5609 418.636 56.5609 418.156 56.5609ZM402.314 44.5591C401.834 44.5591 401.834 44.5591 401.354 44.5591C399.913 44.079 398.473 43.1189 397.033 42.6388C395.593 42.1587 395.113 40.7185 395.593 39.2782C396.073 37.838 397.513 36.8779 398.473 37.358C399.913 37.838 401.834 38.7982 403.274 39.2782C404.714 39.7583 405.194 41.6787 404.714 43.1189C404.234 44.0791 403.274 44.5591 402.314 44.5591ZM341.826 40.2384C340.866 40.2384 339.906 39.2783 339.426 38.3182C338.945 36.878 339.906 35.4377 340.866 34.9576C342.306 34.4775 343.746 33.9975 345.666 33.5174C347.106 33.0374 348.067 33.9975 348.547 35.4377C349.027 36.8779 348.067 38.3181 346.626 38.7981C345.186 39.2782 343.746 39.7584 342.306 40.2384C342.306 40.2384 342.306 40.2384 341.826 40.2384ZM384.071 38.7981C383.111 38.7981 382.151 38.3182 381.671 38.3182L379.271 37.8381C377.83 37.8381 376.87 36.3978 377.35 34.9576C377.35 33.5174 378.791 32.5572 380.231 32.5572L382.631 33.0373C383.591 33.0373 384.071 33.5174 385.031 33.5174C386.472 33.9975 387.432 35.4376 386.952 36.8779C386.472 37.838 385.511 38.7981 384.071 38.7981ZM360.548 36.3978C359.108 36.3978 358.148 35.4377 358.148 33.5174C358.148 32.0772 359.108 30.637 360.548 30.637C361.508 30.637 362.468 30.637 363.909 30.637H365.349C366.789 30.637 367.749 32.0772 367.749 33.5174C367.749 34.9577 366.789 36.3978 365.349 36.3978H363.909C362.468 36.3978 361.508 36.3978 360.548 36.3978Z" fill="black"></path><path d="M432.076 94.0066C430.636 94.0066 429.676 93.0464 429.676 91.6062C429.676 90.6461 429.676 89.6861 429.676 88.7259C429.676 87.2857 430.636 85.8455 431.596 85.8455C433.036 85.8455 433.996 86.8056 434.476 88.2458C434.476 89.206 434.476 90.1661 434.476 91.1263C434.476 92.5665 433.516 93.5265 432.076 94.0066Z" fill="black"></path><path d="M415.753 84.405L429.675 117.05L447.437 86.8054L415.753 84.405Z" fill="black"></path><path d="M168.037 73.3638C166.597 70.9634 164.197 70.0032 161.317 70.0032C158.916 70.0032 156.036 71.4435 154.596 73.3638L129.632 111.29L115.711 95.4472C114.27 93.5269 111.87 92.5667 109.47 93.0468C107.069 93.0468 104.669 94.487 103.709 96.4073L80.666 131.933H206.922L168.037 73.3638Z" fill="#4C4B4C"></path><path d="M115.71 81.0449C124.351 81.0449 131.552 73.8437 131.552 65.2024C131.552 56.5611 124.351 49.3601 115.71 49.3601C107.069 49.3601 99.8682 56.5611 99.8682 65.2024C99.8682 74.3238 107.069 81.0449 115.71 81.0449Z" fill="#4C4B4C"></path><path d="M237.165 145.855C238.605 145.855 239.565 144.895 239.565 143.455V36.8782C239.565 35.4379 238.605 34.4778 237.165 34.4778C235.725 34.4778 234.765 35.4379 234.765 36.8782V143.455C234.765 144.895 236.205 145.855 237.165 145.855Z" fill="black"></path><path d="M237.165 148.255C234.285 148.255 232.364 145.855 232.364 143.455V36.8784C232.364 33.9979 234.285 32.0776 237.165 32.0776C240.045 32.0776 241.966 34.478 241.966 36.8784V143.455C241.966 145.855 240.045 148.255 237.165 148.255Z" fill="black"></path><path d="M256.848 137.214L253.007 133.853L237.165 150.656L221.803 133.853L217.963 137.214L237.165 157.857L256.848 137.214Z" fill="black"></path><path d="M237.168 161.217L214.605 136.734L221.806 130.493L237.168 147.295L253.01 130.493L260.211 136.734L237.168 161.217Z" fill="black"></path></svg> 