<?xml version="1.0" encoding="UTF-8"?> <svg xmlns="http://www.w3.org/2000/svg" width="612" height="338" viewBox="0 0 612 338" fill="none"><path d="M580.546 332.604H345.316C330.914 332.604 318.912 320.602 318.912 306.199V168.418C318.912 154.016 330.914 142.014 345.316 142.014H580.546C594.948 142.014 606.95 154.016 606.95 168.418V306.199C606.47 321.082 594.948 332.604 580.546 332.604Z" fill="#C0B38D"></path><path d="M580.546 337.404H345.315C328.033 337.404 314.111 323.482 314.111 306.2V168.418C314.111 151.136 328.033 137.214 345.315 137.214H580.546C597.828 137.214 611.75 151.136 611.75 168.418V306.2C611.27 323.482 597.348 337.404 580.546 337.404ZM345.315 147.295C333.314 147.295 323.713 156.897 323.713 168.899V306.679C323.713 318.681 333.314 328.283 345.315 328.283H580.546C592.548 328.283 602.149 318.681 602.149 306.679V168.899C602.149 156.897 592.548 147.295 580.546 147.295H345.315Z" fill="#040000"></path><path d="M371.716 234.668C371.236 234.668 370.275 234.668 370.275 233.228C370.275 231.788 371.236 231.788 371.716 231.788H410.121C410.601 231.788 411.561 231.788 411.561 233.228C411.561 234.668 410.601 234.668 410.121 234.668H393.799C393.799 240.909 392.838 247.15 388.518 251.951C384.677 256.272 379.397 257.712 378.437 257.712C377.476 257.712 376.996 256.752 376.996 256.272C376.996 255.312 376.996 255.312 378.917 254.832C389.478 250.511 390.438 241.869 390.438 234.668H371.716V234.668ZM404.36 219.306C404.84 219.306 405.8 219.306 405.8 220.746C405.8 222.187 404.84 222.186 404.36 222.186H376.996C376.516 222.186 375.556 222.187 375.556 220.746C375.556 219.306 376.516 219.306 376.996 219.306H404.36Z" fill="#040000"></path><path d="M378.44 258.672C376.999 258.672 376.039 257.232 376.039 255.792C376.039 254.351 376.999 253.871 378.44 253.391C388.041 249.551 389.001 242.349 389.481 235.628H371.719C369.798 235.628 369.318 234.188 369.318 233.228C369.318 232.268 369.798 230.828 371.719 230.828H410.124C412.044 230.828 412.524 232.268 412.524 233.228C412.524 234.188 412.044 235.628 410.124 235.628H394.762C394.762 241.389 393.322 247.63 389.001 252.431C384.68 256.752 379.4 258.672 378.44 258.672ZM377.959 256.272C378.92 256.272 383.72 254.831 387.081 250.991C391.401 246.67 391.881 240.429 392.361 234.668C392.361 234.188 392.841 233.708 393.802 233.708H410.124V233.228H371.719H390.441C390.921 233.228 390.921 233.228 391.401 233.708C391.881 234.188 391.881 234.188 391.881 234.668C391.881 240.909 391.401 250.991 379.4 255.792C378.92 255.792 378.44 255.791 377.959 256.272ZM404.363 223.147H376.999C375.079 223.147 374.599 221.706 374.599 220.746C374.599 219.306 375.559 218.346 376.999 218.346H404.363C406.283 218.346 406.763 219.786 406.763 220.746C406.763 221.706 406.283 223.147 404.363 223.147ZM376.999 220.266L404.363 220.746H376.999V220.266Z" fill="#040000"></path><path d="M436.53 218.346C436.05 216.426 437.97 216.426 437.97 216.426C438.93 216.426 438.93 216.906 439.41 217.866L440.85 225.547L454.292 223.627C454.772 223.627 456.212 223.627 456.212 225.067C456.212 226.027 455.732 226.027 455.252 226.507L441.811 228.427L443.731 238.029L460.053 235.629C461.493 235.629 461.493 237.069 461.493 237.069C461.493 238.029 460.533 238.509 460.533 238.509L444.211 240.91L447.091 256.272C447.571 258.192 445.651 258.192 445.651 258.192C444.691 258.192 444.211 257.232 444.211 256.752L441.331 241.39L422.608 244.27C421.168 244.75 421.168 242.83 421.168 242.83C421.168 241.87 421.648 241.87 422.128 241.39L440.85 238.509L438.93 228.908L425.009 231.308C423.568 231.308 423.088 230.348 423.088 229.868C423.088 228.907 423.568 228.427 424.528 228.427L438.45 226.507L436.53 218.346Z" fill="#040000"></path><path d="M444.689 259.152C443.249 259.152 442.289 258.192 442.289 256.752L439.889 242.83L422.127 245.71C421.166 245.71 420.686 245.71 420.206 245.23C419.726 244.75 419.246 243.79 419.246 242.83C419.246 242.35 419.246 240.909 421.166 240.429L438.449 237.549L437.009 230.348L424.047 232.268C423.087 232.268 422.126 232.268 421.646 231.788C421.166 231.308 420.686 230.348 420.686 229.868C420.686 228.427 421.646 227.467 423.087 227.467L436.048 225.547L434.608 218.826C434.608 217.866 434.608 216.906 435.088 216.426C436.048 215.465 437.008 215.465 437.488 215.465C438.449 215.465 439.409 215.945 439.889 217.866L441.329 224.587L453.811 222.666C454.291 222.666 455.251 222.667 456.211 223.147C456.691 223.627 457.171 224.107 457.171 225.067C457.171 226.507 456.211 227.467 454.771 227.467L442.289 229.388L443.729 236.589L458.611 234.188C459.572 234.188 460.052 234.188 460.532 234.668C461.012 235.148 461.492 235.628 461.492 237.069C461.492 238.509 460.532 239.469 459.571 239.469L444.689 241.869L447.57 255.792C447.57 256.752 447.57 257.712 447.09 258.192C446.61 258.672 445.65 259.152 444.689 259.152ZM440.369 240.429C440.849 240.429 441.329 240.909 441.329 241.39L444.209 256.752V257.232C444.69 257.232 444.689 257.232 444.689 257.232C444.689 257.232 444.689 257.232 444.689 256.752L441.809 241.39C441.809 240.909 441.809 240.909 441.809 240.429C441.809 239.949 442.289 239.949 442.769 239.949L459.091 237.549C459.091 237.069 459.091 237.069 459.091 237.069L442.769 239.949C442.289 239.949 441.329 239.469 441.329 238.989L439.409 229.388C439.409 228.908 439.409 228.907 439.409 228.427C439.409 227.947 439.889 227.947 440.369 227.947L453.811 226.027C453.811 225.547 453.811 225.547 453.811 225.547C453.811 225.547 453.811 225.547 453.331 225.547L439.889 227.467C439.409 227.467 438.449 226.987 438.449 226.507L437.009 218.826V218.346H436.528V218.826L437.969 226.507C437.969 226.987 437.969 226.987 437.969 227.467C437.969 227.947 437.489 227.947 437.009 227.947L423.087 229.868V230.348C423.087 230.348 423.087 230.348 423.567 230.348L437.488 227.947C437.969 227.947 438.929 228.428 438.929 228.908L440.849 238.509C440.849 238.989 440.849 238.989 440.849 239.469C440.849 239.469 440.369 239.949 440.369 240.429L421.166 242.83C421.166 243.31 421.166 243.31 421.166 243.31L440.369 240.429Z" fill="#040000"></path><path d="M474.933 222.666C474.452 222.666 473.492 222.667 473.492 221.226C473.492 219.786 474.452 219.786 474.933 219.786H498.936C500.376 219.786 503.256 219.786 503.256 223.147C503.256 226.027 498.936 234.188 495.575 238.989C497.975 240.909 504.216 246.19 509.977 252.911C510.937 253.872 510.937 254.351 510.937 254.832C510.937 255.792 509.977 256.272 509.497 256.272C509.017 256.272 508.537 255.792 508.057 254.832C502.296 247.63 497.495 243.79 494.615 241.39C485.494 252.431 474.452 257.232 473.972 257.232C473.012 257.232 472.532 256.272 472.532 255.792C472.532 255.312 472.532 254.832 474.452 254.352C496.055 243.79 501.336 225.547 501.336 224.587C501.336 223.627 500.856 223.627 499.416 223.627H474.933V222.666Z" fill="#040000"></path><path d="M472.534 257.712C471.094 257.712 469.653 256.272 469.653 254.832C469.653 253.391 470.613 252.911 472.054 251.951C492.216 242.35 497.497 225.547 498.457 223.627H497.977H474.934C473.014 223.627 472.534 222.186 472.534 221.226C472.534 220.746 472.534 218.826 474.934 218.826H498.937C500.377 218.826 504.218 218.826 504.218 223.147C504.218 226.507 499.897 234.188 497.017 238.509C500.377 240.91 505.658 245.71 510.459 251.951C511.419 252.911 511.899 253.391 511.899 254.352C511.899 255.792 510.459 257.232 509.018 257.232C507.578 257.232 507.098 256.272 506.618 255.792C501.337 249.551 497.017 245.71 494.136 243.31C484.535 253.391 473.494 257.712 472.534 257.712ZM474.934 221.707H497.977C498.937 221.707 500.857 221.707 500.857 224.107C500.857 224.107 496.057 243.79 473.014 254.832C472.534 254.832 472.054 255.312 472.054 255.312C472.054 255.312 472.054 255.792 472.534 255.792C473.494 255.312 484.055 250.991 492.696 240.429C492.696 239.949 493.176 239.949 493.656 239.949C494.136 239.949 494.137 239.949 494.617 240.429C497.497 242.83 502.778 247.15 508.538 254.352C509.018 255.312 509.018 255.312 509.498 255.312C509.498 255.312 509.978 255.312 509.978 254.832C509.978 254.832 509.498 254.351 509.498 253.871C504.218 247.63 498.457 242.83 495.577 240.429C495.097 239.949 495.097 239.469 495.577 238.989C499.417 234.188 503.258 226.507 503.258 224.107C503.258 222.187 502.297 222.187 500.377 222.187L474.934 221.707C474.934 221.226 474.934 221.226 474.934 221.707Z" fill="#040000"></path><path d="M535.42 257.232C535.42 257.712 535.42 258.672 533.98 258.672C532.54 258.672 532.54 257.712 532.54 257.232V217.866C532.54 217.386 532.54 216.426 533.98 216.426C535.42 216.426 535.42 217.386 535.42 217.866V230.348C545.982 235.148 550.782 238.509 555.583 241.869C557.023 242.829 557.023 243.31 557.023 243.79C557.023 244.27 556.543 245.23 555.583 245.23C555.103 245.23 554.623 245.23 552.223 243.31C546.462 238.989 539.741 235.628 534.94 233.228V257.232H535.42Z" fill="#040000"></path><path d="M533.977 259.632C533.017 259.632 531.097 259.152 531.097 257.232V217.866C531.097 216.425 532.057 215.465 533.977 215.465C535.897 215.465 536.858 216.425 536.858 217.866V229.868C546.939 234.188 551.74 237.549 556.06 240.909L556.54 241.389C557.98 242.35 558.46 242.829 558.46 244.27C558.46 245.71 557.5 247.15 555.58 247.15C554.62 247.15 554.14 246.67 551.74 245.23C545.979 240.909 539.738 237.549 536.377 236.109V257.712C536.377 258.672 535.417 259.632 533.977 259.632ZM533.977 217.386C533.497 217.386 533.497 217.866 533.977 217.386L533.497 256.752C533.497 257.232 533.977 256.752 533.977 256.752V233.228C533.977 232.748 533.977 232.268 534.457 232.268C534.937 232.268 535.417 231.788 535.417 232.268C539.258 234.188 546.459 237.549 552.7 242.35C554.14 243.31 555.1 243.79 555.1 243.79C555.58 243.79 555.58 243.31 555.58 243.31L554.62 242.35L554.14 241.869C549.819 238.989 544.539 235.148 534.457 230.828C533.977 230.828 533.497 230.348 533.497 229.868L533.977 217.386C533.977 217.386 534.457 217.866 533.977 217.386Z" fill="#040000"></path><path d="M262.269 190.982H27.0382C12.6363 190.982 0.634766 178.98 0.634766 164.578V26.7966C0.634766 12.3944 12.6363 0.392578 27.0382 0.392578H262.269C276.671 0.392578 288.672 12.3944 288.672 26.7966V164.578C288.192 178.98 276.671 190.982 262.269 190.982ZM27.0382 11.4344C18.3971 11.4344 11.6763 18.1553 11.6763 26.7966V164.578C11.6763 173.219 18.3971 179.94 27.0382 179.94H262.269C270.91 179.94 277.631 173.219 277.631 164.578V26.7966C277.631 18.1553 270.91 11.4344 262.269 11.4344H27.0382Z" fill="black"></path><path d="M318.912 69.0432C317.472 69.0432 316.512 67.6029 316.512 66.1627C316.512 66.1627 316.512 65.2025 316.992 62.802C317.472 61.3618 318.432 60.4016 319.872 60.8817C321.312 61.3618 321.792 62.8021 321.792 64.2424C321.312 65.6826 321.312 66.6428 321.312 66.6428C321.312 67.603 320.352 69.0432 318.912 69.0432Z" fill="black"></path><path d="M326.116 51.7603C325.636 51.7603 325.156 51.7602 324.676 51.2801C323.716 50.32 323.716 48.3997 324.676 47.4396C325.636 45.9994 327.077 44.5592 328.517 43.1189C329.477 42.1588 330.917 42.1587 331.877 43.5989C332.837 44.559 332.357 46.4794 331.397 47.4396C330.437 48.3997 328.997 49.8399 328.037 50.8C327.557 51.2801 327.077 51.7603 326.116 51.7603Z" fill="black"></path><path d="M428.367 74.8037C427.407 74.8037 426.447 74.3237 425.967 72.8834C425.487 71.4432 425.007 69.5229 424.046 68.0827C423.566 66.6425 424.046 65.2023 425.007 64.2422C425.967 63.7621 427.407 64.2421 428.367 65.2022C429.327 67.1225 429.807 68.5628 430.287 70.4831C430.767 71.9233 430.287 73.3636 428.847 74.3238C429.327 74.8038 428.847 74.8037 428.367 74.8037ZM418.286 56.5609C417.806 56.5609 416.845 56.0808 416.845 55.6007C415.885 54.6406 414.445 53.2005 413.485 52.2403C412.525 51.2802 412.045 49.3598 413.005 48.3996C413.965 46.9594 415.405 46.9595 416.365 47.9197C417.806 49.3599 418.766 50.32 420.206 51.7602C421.166 52.7204 421.166 54.6406 420.206 55.6007C419.246 56.5609 418.766 56.5609 418.286 56.5609ZM402.444 44.5591C401.964 44.5591 401.963 44.5591 401.483 44.5591C400.043 44.079 398.603 43.1189 397.163 42.6388C395.723 42.1587 395.243 40.7185 395.723 39.2782C396.203 37.838 397.643 36.8779 398.603 37.358C400.043 37.838 401.964 38.7982 403.404 39.2782C404.844 39.7583 405.324 41.6787 404.844 43.1189C404.364 44.0791 403.404 44.5591 402.444 44.5591ZM341.956 40.2384C340.996 40.2384 340.035 39.2783 339.555 38.3182C339.075 36.878 340.036 35.4377 340.996 34.9576C342.436 34.4775 343.876 33.9975 345.796 33.5174C347.236 33.0374 348.197 33.9975 348.677 35.4377C349.157 36.8779 348.197 38.3181 346.756 38.7981C345.316 39.2782 343.876 39.7584 342.436 40.2384C342.436 40.2384 342.436 40.2384 341.956 40.2384ZM384.201 38.7981C383.241 38.7981 382.281 38.3182 381.801 38.3182L379.401 37.8381C377.96 37.8381 377 36.3978 377.48 34.9576C377.48 33.5174 378.921 32.5572 380.361 32.5572L382.761 33.0373C383.721 33.0373 384.201 33.5174 385.161 33.5174C386.602 33.9975 387.562 35.4376 387.082 36.8779C386.601 37.838 385.641 38.7981 384.201 38.7981ZM360.678 36.3978C359.238 36.3978 358.278 35.4377 358.278 33.5174C358.278 32.0772 359.238 30.637 360.678 30.637C361.638 30.637 362.598 30.637 364.039 30.637H365.479C366.919 30.637 367.879 32.0772 367.879 33.5174C367.879 34.9577 366.919 36.3978 365.479 36.3978H364.039C362.598 36.3978 361.638 36.3978 360.678 36.3978Z" fill="black"></path><path d="M432.205 94.0066C430.765 94.0066 429.805 93.0464 429.805 91.6062C429.805 90.6461 429.805 89.6861 429.805 88.7259C429.805 87.2857 430.765 85.8455 431.725 85.8455C433.165 85.8455 434.125 86.8056 434.605 88.2458C434.605 89.206 434.605 90.1661 434.605 91.1263C434.605 92.5665 433.645 93.5265 432.205 94.0066Z" fill="black"></path><path d="M416.367 84.405L429.809 117.05L447.571 86.8054L416.367 84.405Z" fill="black"></path><path d="M177.775 73.3638C176.335 70.9634 173.934 70.0032 171.054 70.0032C168.653 70.0032 165.773 71.4435 164.333 73.3638L139.37 111.29L125.448 95.4472C124.008 93.5269 121.607 92.5667 119.207 93.0468C116.807 93.0468 114.406 94.487 113.446 96.4073L90.4033 131.933H216.18L177.775 73.3638Z" fill="#4C4B4C"></path><path d="M125.447 81.0449C134.089 81.0449 141.29 73.8437 141.29 65.2024C141.29 56.5611 134.089 49.3601 125.447 49.3601C116.806 49.3601 109.605 56.5611 109.605 65.2024C109.605 74.3238 116.806 81.0449 125.447 81.0449Z" fill="#4C4B4C"></path><path d="M85.6003 96.407C85.6003 94.9667 85.1203 94.0066 84.1602 94.0066H25.5925C24.6323 94.0066 24.1523 94.9667 24.1523 96.407C24.1523 97.8472 24.6323 98.8074 25.5925 98.8074H84.6402C85.1202 98.8074 85.6003 97.8472 85.6003 96.407Z" fill="black"></path><path d="M84.1602 101.208H25.5924C23.1921 101.208 21.752 99.2873 21.752 96.4069C21.752 93.5265 23.1921 91.6062 25.5924 91.6062H84.6401C87.0404 91.6062 88.4807 93.5265 88.4807 96.4069C88.4807 99.2873 86.5605 101.208 84.1602 101.208ZM26.5526 96.4069H83.2H26.5526Z" fill="black"></path><path d="M72.6328 77.2041L69.2725 80.5647L86.5547 96.407L69.2725 112.249L72.6328 115.61L93.2755 96.407L72.6328 77.2041Z" fill="black"></path><path d="M72.6359 118.971L65.915 112.25L82.7172 96.4072L65.915 81.0449L72.6359 73.8438L96.639 96.4072L72.6359 118.971Z" fill="black"></path><path d="M47.6748 6.63354H18.3909C10.7099 6.63354 4.94922 12.8744 4.94922 20.0755V172.259C4.94922 179.94 11.19 185.701 18.3909 185.701H47.6748V6.63354Z" fill="#C0B38D"></path></svg> 