<?xml version="1.0" encoding="UTF-8"?> <svg xmlns="http://www.w3.org/2000/svg" width="234" height="161" viewBox="0 0 234 161" fill="none"><path d="M221.978 144H115.022C108.389 144 103 138.651 103 132.067V69.933C103 63.3493 108.389 58 115.022 58H221.978C228.611 58 234 63.3493 234 69.933V132.067C234 138.651 228.611 144 221.978 144ZM115.229 63.1435C111.291 63.1435 108.182 66.2297 108.182 70.1388V132.273C108.182 136.182 111.291 139.268 115.229 139.268H222.185C226.123 139.268 229.233 136.182 229.233 132.273V69.933C229.233 66.0239 226.123 62.9378 222.185 62.9378H115.229V63.1435Z" fill="black"></path><path d="M86.477 63H8.52299C3.74181 63 0 59.245 0 54.447V8.55298C0 3.75497 3.74181 0 8.52299 0H86.477C91.2582 0 95 3.75497 95 8.55298V54.447C95 59.245 91.0503 63 86.477 63ZM8.52299 3.54636C5.82058 3.54636 3.53394 5.84106 3.53394 8.55298V54.447C3.53394 57.1589 5.82058 59.4536 8.52299 59.4536H86.477C89.1794 59.4536 91.4661 57.1589 91.4661 54.447V8.55298C91.4661 5.84106 89.1794 3.54636 86.477 3.54636H8.52299Z" fill="black"></path><path d="M40.5166 30.9496C40.7244 30.9496 40.9323 31.1574 40.9323 31.3651C40.9323 31.5728 40.7244 31.7805 40.5166 31.7805H35.1132C34.4897 31.7805 34.0741 31.7805 34.0741 31.1574C34.0741 30.7419 34.2819 30.5342 35.1132 29.9111C35.7367 29.4956 37.3993 27.8339 38.6462 26.5876C39.4775 25.7567 39.6853 24.9259 39.6853 24.3027C39.6853 23.2641 38.854 22.2256 37.6071 22.2256C36.7758 22.2256 35.9445 22.641 35.5289 23.2641C35.3211 23.4719 35.321 23.6796 35.1132 23.6796C34.9054 23.6796 34.6976 23.4719 34.6976 23.2641C34.6976 22.8487 35.9445 21.6024 37.6071 21.6024C39.0619 21.6024 40.5166 22.4333 40.5166 24.5104C40.5166 25.7567 40.101 26.3799 39.4775 27.2108C38.4384 28.4571 35.9445 30.5342 34.9054 31.3651H40.5166V30.9496Z" fill="black"></path><path d="M40.5167 31.9883H35.1133C34.6976 31.9883 33.6586 31.9883 33.6586 30.9497C33.6586 30.3266 33.8664 30.1188 34.6977 29.4957L34.9055 29.288C35.5289 28.6648 37.1915 27.4185 38.2306 26.1722C38.8541 25.3414 39.2698 24.7182 39.2698 24.0951C39.2698 23.0565 38.4385 22.2256 37.6072 22.2256C36.9837 22.2256 36.1525 22.6411 35.7368 23.0565C35.529 23.2642 35.3211 23.4719 35.1133 23.4719C34.6976 23.4719 34.4899 23.0565 34.4899 22.8488C34.4899 22.2256 35.9446 20.7716 37.815 20.7716C39.4776 20.7716 41.1402 21.8102 41.1402 23.8873C41.1402 25.1336 40.5167 25.9645 39.8933 26.7954C39.062 27.834 37.3993 29.288 35.9446 30.5343H40.9324C41.348 30.5343 41.5558 30.9497 41.5558 31.1574C41.1402 31.7806 40.9324 31.9883 40.5167 31.9883ZM37.3994 21.8102C38.6463 21.8102 39.6854 22.8488 39.6854 24.0951C39.6854 24.9259 39.2698 25.7568 38.6463 26.5877C37.6072 27.834 36.1524 29.0803 35.3211 29.7034L35.1133 29.9111C34.282 30.5343 34.282 30.742 34.282 30.9497C34.282 31.1574 34.282 31.3651 35.1133 31.3651H40.5167H34.6977C34.4899 31.3651 34.4899 31.3651 34.4899 31.1574C34.4899 30.9497 34.4899 30.9497 34.4899 30.742C35.3211 30.1188 37.815 27.834 39.0619 26.5877C39.6854 25.9645 40.101 25.1336 40.101 24.0951C40.101 22.4333 38.6463 21.6025 37.3994 21.8102C35.7368 21.6025 34.6977 22.8488 34.6977 23.0565L34.9055 22.8488C35.7368 22.2256 36.5681 21.8102 37.3994 21.8102Z" fill="black"></path><path d="M44.4652 22.8485C44.4652 22.433 44.4653 21.6022 45.7122 21.6022H49.6609C50.0765 21.6022 50.0765 21.8099 50.0765 22.0176C50.0765 22.2253 49.8687 22.433 49.6609 22.433H45.92C45.5044 22.433 45.2965 22.433 45.2965 23.0562V26.1719C45.7122 25.9642 46.1279 25.7565 47.167 25.7565C49.2452 25.7565 50.7 27.0028 50.7 28.8722C50.7 30.7417 49.2452 32.1957 46.9592 32.1957C46.1279 32.1957 45.0887 31.988 44.2574 31.5725C44.0496 31.5725 43.8418 31.3648 43.8418 31.1571C43.8418 30.9494 44.0496 30.7417 44.2574 30.7417L44.6731 30.9494C44.8809 31.1571 45.7122 31.3648 46.7513 31.3648C48.8296 31.3648 49.8687 30.1185 49.8687 28.8722C49.8687 27.4182 48.6218 26.3796 47.167 26.3796C46.3357 26.3796 45.92 26.5874 45.2965 27.0028C45.0887 27.0028 45.0887 27.2105 44.8809 27.2105C44.4653 27.2105 44.4652 27.0028 44.4652 26.7951V22.8485Z" fill="black"></path><path d="M46.9591 32.196C45.92 32.196 45.0887 31.9883 44.2574 31.5728C44.0496 31.5728 43.8418 31.3651 43.8418 30.9497C43.8418 30.5342 44.2574 30.3265 44.4652 30.3265C44.6731 30.3265 45.0887 30.5342 45.0887 30.5342C45.5044 30.742 46.1278 30.9497 46.9591 30.9497C49.0373 30.9497 49.6608 29.7034 49.6608 28.6648C49.6608 27.2108 48.4138 26.5876 47.3747 26.5876C46.5434 26.5876 46.1278 26.7954 45.7122 27.2108C45.5044 27.2108 45.5044 27.4185 45.0887 27.4185C44.8809 27.4185 44.4652 27.2108 44.4652 26.5876V22.8487C44.4652 22.4333 44.4653 21.187 45.92 21.187H49.8686C50.2843 21.187 50.4921 21.6024 50.4921 21.8102C50.4921 22.2256 50.2843 22.4333 49.8686 22.4333H46.1279C45.92 22.4333 45.92 22.4333 45.92 22.4333C45.92 22.4333 45.92 22.4333 45.92 22.641V25.3413C46.3357 25.1336 46.7513 25.1336 47.5826 25.1336C49.8686 25.1336 51.3234 26.5876 51.3234 28.6648C50.9078 30.742 49.2452 32.196 46.9591 32.196ZM44.2574 30.9497C44.2574 31.1574 44.2574 31.1574 44.4652 31.1574C45.2965 31.5728 46.1278 31.7805 46.9591 31.7805C49.0373 31.7805 50.4921 30.5342 50.4921 28.8725C50.4921 27.2108 49.2451 25.9645 47.3747 25.9645C46.5434 25.9645 45.92 26.1722 45.7122 26.3799C45.7122 26.3799 45.5043 26.3799 45.2965 26.3799L45.0887 26.1722V22.8487C45.0887 22.0179 45.5044 22.0179 45.92 22.0179H49.6608H45.7122C44.8809 22.0179 44.8809 22.4333 44.8809 23.0565V26.7954V27.0031H45.0887C45.7122 26.5876 46.1279 26.3799 47.167 26.3799C48.8295 26.3799 50.0765 27.4185 50.0765 29.0802C50.0765 30.3265 49.2452 31.9883 46.7513 31.9883C45.7122 31.9883 44.8809 31.7805 44.4652 31.5728C44.4652 30.9497 44.2574 30.9497 44.2574 30.9497Z" fill="black"></path><path d="M55.8956 21.3948C57.3503 21.3948 58.3895 22.4334 58.3895 24.0951C58.3895 25.7568 57.3503 26.7954 55.8956 26.7954C54.4408 26.7954 53.4017 25.7568 53.4017 24.0951C53.4017 22.4334 54.6486 21.3948 55.8956 21.3948ZM55.8956 26.1722C56.7269 26.1722 57.5582 25.5491 57.5582 24.0951C57.5582 22.6411 56.7269 22.0179 55.8956 22.0179C55.0643 22.0179 54.233 22.6411 54.233 24.0951C54.233 25.5491 55.0643 26.1722 55.8956 26.1722ZM61.7147 21.6025C61.9225 21.3948 61.9224 21.3948 62.1303 21.3948C62.3381 21.3948 62.5459 21.6025 62.5459 21.8102C62.5459 21.8102 62.5459 22.0179 62.3381 22.0179L55.6877 31.7806C55.4799 31.9883 55.48 31.9883 55.2721 31.9883C55.0643 31.9883 54.8565 31.7806 54.8565 31.5729C54.8565 31.3652 54.8565 31.3652 55.0643 31.3652L61.7147 21.6025ZM61.299 26.5877C62.7537 26.5877 63.7929 27.6263 63.7929 29.288C63.7929 30.9497 62.7537 31.9883 61.299 31.9883C59.8442 31.9883 58.8051 30.9497 58.8051 29.288C59.0129 27.6263 60.052 26.5877 61.299 26.5877ZM61.299 31.3652C62.1303 31.3652 62.9615 30.742 62.9615 29.288C62.9615 27.834 62.1303 27.2108 61.299 27.2108C60.4677 27.2108 59.6364 27.834 59.6364 29.288C59.6364 30.5343 60.4677 31.3652 61.299 31.3652Z" fill="black"></path><path d="M61.299 32.196C59.6364 32.196 58.5973 30.9497 58.5973 29.0803C58.5973 27.2109 59.6364 25.9646 61.299 25.9646C62.9616 25.9646 64.0007 27.2109 64.0007 29.0803C64.0007 30.9497 62.9616 32.196 61.299 32.196ZM61.299 26.7954C60.052 26.7954 59.2207 27.834 59.2207 29.288C59.2207 30.742 60.052 31.7806 61.299 31.7806C62.5459 31.7806 63.3772 30.742 63.3772 29.288C63.585 27.834 62.5459 26.7954 61.299 26.7954ZM55.2721 32.196C55.0643 32.196 54.6486 31.9883 54.6486 31.5729C54.6486 31.3652 54.6486 31.3652 54.8564 31.1575L61.5068 21.3948L61.7146 21.6025L61.5068 21.3948C61.7146 21.1871 61.7146 20.9794 62.1303 20.9794C62.3381 20.9794 62.7538 21.1871 62.7538 21.6025C62.7538 21.8102 62.7538 21.8102 62.5459 22.018L55.8955 31.7806C55.6877 31.9883 55.4799 32.196 55.2721 32.196ZM55.2721 31.5729C55.2721 31.5729 55.2721 31.7806 55.2721 31.5729C55.2721 31.7806 55.2721 31.5729 55.2721 31.5729L62.1303 21.8102V21.6025C62.1303 21.6025 62.1302 21.6025 61.9224 21.8102L61.7146 21.6025L61.9224 21.8102L55.2721 31.5729ZM61.299 31.5729C60.2599 31.5729 59.4286 30.9497 59.4286 29.288C59.4286 27.6263 60.4677 27.0031 61.299 27.0031C62.3381 27.0031 63.1694 27.6263 63.1694 29.288C63.3772 30.9497 62.3381 31.5729 61.299 31.5729ZM61.299 27.6263C60.6755 27.6263 59.8442 28.0417 59.8442 29.288C59.8442 30.5343 60.6755 30.9497 61.299 30.9497C61.9224 30.9497 62.7538 30.5343 62.7538 29.288C62.7538 28.0417 62.1303 27.6263 61.299 27.6263ZM55.8955 27.2109C54.2329 27.2109 53.1938 25.9646 53.1938 24.0951C53.1938 22.4334 54.2329 20.9794 55.8955 20.9794C57.5581 20.9794 58.5973 22.2257 58.5973 24.0951C58.5973 25.7568 57.5581 27.2109 55.8955 27.2109ZM55.8955 21.6025C54.6486 21.6025 53.8173 22.6411 53.8173 24.0951C53.8173 25.5491 54.6486 26.5877 55.8955 26.5877C57.1425 26.5877 57.9738 25.5491 57.9738 24.0951C57.9738 22.6411 57.1425 21.6025 55.8955 21.6025ZM55.8955 26.38C54.8564 26.38 54.0251 25.7568 54.0251 24.0951C54.0251 22.4334 55.0642 21.8102 55.8955 21.8102C56.7268 21.8102 57.7659 22.4334 57.7659 24.0951C57.7659 25.7568 56.9347 26.38 55.8955 26.38ZM55.8955 22.4334C55.2721 22.4334 54.4408 22.8488 54.4408 24.0951C54.4408 25.3414 55.2721 25.7568 55.8955 25.7568C56.519 25.7568 57.3503 25.3414 57.3503 24.0951C57.3503 22.8488 56.519 22.4334 55.8955 22.4334Z" fill="black"></path><path d="M110.969 18.4868C110.345 18.4868 109.93 17.8637 109.93 17.4483C109.93 17.4483 109.93 17.0328 110.138 16.202C110.345 15.5788 110.761 15.3711 111.384 15.3711C112.008 15.5788 112.216 15.9942 112.216 16.6174C112.008 17.0328 112.008 17.4483 112.008 17.4483C112.008 18.0714 111.592 18.4868 110.969 18.4868Z" fill="black"></path><path d="M114.086 12.2553C113.878 12.2553 113.67 12.2553 113.463 12.0476C113.047 11.6321 113.047 11.009 113.463 10.5935C113.878 9.9704 114.502 9.55496 115.125 9.13953C115.541 8.7241 116.164 8.93182 116.58 9.34725C116.996 9.76268 116.788 10.3858 116.372 10.8013C115.956 11.2167 115.333 11.6321 114.917 12.0476C114.71 12.0476 114.294 12.2553 114.086 12.2553Z" fill="black"></path><path d="M158.56 20.7716C158.145 20.7716 157.729 20.5639 157.521 20.1485C157.314 19.5253 157.106 18.9022 156.69 18.279C156.482 17.8636 156.69 17.2405 157.106 16.825C157.521 16.6173 158.145 16.825 158.56 17.2405C158.976 17.8636 159.184 18.4868 159.392 19.1099C159.6 19.7331 159.392 20.1485 158.768 20.3562C158.768 20.7716 158.768 20.7716 158.56 20.7716ZM153.988 13.917C153.781 13.917 153.365 13.917 153.365 13.7093C152.949 13.2939 152.326 12.8784 151.91 12.463C151.495 12.0476 151.287 11.4244 151.702 11.009C152.118 10.5935 152.741 10.3858 153.157 10.8013C153.781 11.2167 154.196 11.8398 154.82 12.2553C155.235 12.6707 155.235 13.2939 154.82 13.7093C154.612 13.917 154.404 13.917 153.988 13.917ZM147.338 9.55497C147.13 9.55497 147.13 9.55497 146.922 9.55497C146.299 9.34725 145.675 9.13953 145.052 8.93182C144.428 8.7241 144.221 8.10095 144.429 7.68552C144.636 7.06237 145.26 6.85466 145.675 7.06237C146.299 7.27009 147.13 7.4778 147.754 7.89324C148.377 8.10095 148.585 8.7241 148.377 9.34725C147.961 9.34725 147.546 9.55497 147.338 9.55497ZM120.944 7.89324C120.529 7.89324 120.113 7.68552 119.905 7.27009C119.698 6.64694 120.113 6.23151 120.529 6.02379C121.152 5.81607 121.776 5.60836 122.607 5.40064C123.231 5.19293 123.646 5.60836 123.854 6.23151C124.062 6.85466 123.646 7.27009 123.023 7.4778C122.399 7.68552 121.776 7.89324 121.152 8.10095C121.152 7.89324 121.152 7.89324 120.944 7.89324ZM139.441 7.27009C139.233 7.27009 139.233 7.27009 139.441 7.27009C139.025 7.27009 138.609 7.06237 138.402 7.06237L137.155 6.85466C136.531 6.85466 136.116 6.23151 136.323 5.60836C136.323 4.98521 136.947 4.56978 137.57 4.77749L138.609 4.98521C139.025 4.98521 139.233 4.98521 139.649 5.19293C140.272 5.19293 140.688 5.81607 140.48 6.43922C140.272 6.85466 139.856 7.27009 139.441 7.27009ZM129.05 6.43922C128.426 6.43922 128.01 6.02379 128.01 5.40064C128.01 4.77749 128.426 4.36206 129.05 4.36206C129.465 4.36206 130.089 4.36206 130.504 4.36206H131.128C131.751 4.36206 132.167 4.77749 132.167 5.40064C132.167 6.02379 131.751 6.43922 131.128 6.43922H130.504C130.089 6.43922 129.673 6.43922 129.05 6.43922Z" fill="black"></path><path d="M160.223 27.834C159.599 27.834 159.184 27.4185 159.184 26.7954C159.184 26.3799 159.184 26.1722 159.184 25.7568C159.184 25.1336 159.599 24.7182 160.015 24.5105C160.638 24.5105 161.054 24.9259 161.262 25.3414C161.262 25.7568 161.262 25.9645 161.262 26.3799C161.262 27.4185 160.846 27.834 160.223 27.834Z" fill="black"></path><path d="M153.157 24.3029L159.184 36.5581L166.873 25.3414L153.157 24.3029Z" fill="black"></path><path d="M108 75V101L228 101V75H108Z" fill="#C3B68F"></path><path d="M228 129V103L108 103V129L228 129Z" fill="#C3B68F"></path><path d="M74.1841 46.5284C74.1841 46.5284 73.9763 46.7361 74.1841 46.5284H21.8126V44.0358H74.1841V46.5284Z" fill="#C3B68F"></path><path d="M33 44H22V47H33V44Z" fill="#040000"></path><path d="M168.328 82.2554C167.912 82.2554 167.497 81.84 167.497 81.4245V45.2819C167.497 44.8665 167.912 44.451 168.328 44.451C168.743 44.451 169.159 44.8665 169.159 45.2819V81.6322C169.159 82.0477 168.951 82.2554 168.328 82.2554Z" fill="black"></path><path d="M168.328 83.2941C167.289 83.2941 166.458 82.4633 166.458 81.4247V45.282C166.458 44.2435 167.289 43.4126 168.328 43.4126C169.367 43.4126 170.198 44.2435 170.198 45.282V81.6324C170.198 82.4633 169.367 83.2941 168.328 83.2941Z" fill="black"></path><path d="M175.186 50.4751L173.939 51.7214L168.328 45.9053L162.925 51.7214L161.678 50.4751L168.328 43.4127L175.186 50.4751Z" fill="black"></path><path d="M173.939 53.1753L168.328 47.3592L162.925 53.1753L160.223 50.6827L168.328 41.9586L176.641 50.6827L173.939 53.1753Z" fill="black"></path><path d="M168.328 157.657C167.912 157.657 167.497 157.241 167.497 156.826V122.345C167.497 121.929 167.912 121.514 168.328 121.514C168.743 121.514 169.159 121.929 169.159 122.345V157.033C169.159 157.241 168.951 157.657 168.328 157.657Z" fill="black"></path><path d="M168.328 158.695C167.289 158.695 166.458 157.864 166.458 156.826V122.345C166.458 121.306 167.289 120.475 168.328 120.475C169.367 120.475 170.198 121.306 170.198 122.345V157.034C170.198 157.864 169.367 158.695 168.328 158.695Z" fill="black"></path><path d="M161.678 151.633L162.925 150.386L168.328 156.203L173.939 150.386L175.186 151.633L168.328 158.695L161.678 151.633Z" fill="black"></path><path d="M168.328 160.149L160.223 151.633L162.925 148.932L168.328 154.749L173.939 148.932L176.641 151.633L168.328 160.149Z" fill="black"></path></svg> 