<?xml version="1.0" encoding="UTF-8"?> <svg xmlns="http://www.w3.org/2000/svg" width="264" height="162" viewBox="0 0 264 162" fill="none"><path d="M263.25 156.203C263.25 159.51 260.568 161.99 257.474 161.99H5.998C2.69725 161.99 0.22168 159.303 0.22168 156.203V5.93867C0.22168 2.63162 2.90355 0.151337 5.998 0.151337H257.268C260.568 0.151337 263.044 2.83831 263.044 5.93867V156.203H263.25Z" fill="#727171"></path><path d="M185.477 114.244C185.477 117.552 182.795 120.032 179.7 120.032H77.996C74.6953 120.032 72.2197 117.345 72.2197 114.244V42.3162C72.2197 39.0091 74.9016 36.5288 77.996 36.5288H179.7C183.001 36.5288 185.477 39.2158 185.477 42.3162V114.244V114.244Z" fill="#EFEBE1"></path><path d="M179.701 122.305H77.996C73.6638 122.305 70.1567 118.792 70.1567 114.451V42.3162C70.1567 37.9757 73.6638 34.4619 77.996 34.4619H179.701C184.033 34.4619 187.54 37.9757 187.54 42.3162V114.245C187.54 118.585 184.033 122.305 179.701 122.305ZM77.996 38.5958C75.9331 38.5958 74.2827 40.2493 74.2827 42.3162V114.245C74.2827 116.311 75.9331 117.965 77.996 117.965H179.701C181.764 117.965 183.414 116.311 183.414 114.245V42.3162C183.414 40.2493 181.764 38.5958 179.701 38.5958H77.996Z" fill="black"></path><path d="M184.651 47.4834H180.938C177.431 47.4834 174.749 44.5898 174.749 41.2827V37.5623C174.749 34.2552 177.431 31.3616 180.938 31.3616H184.651C188.158 31.3616 190.84 34.2552 190.84 37.5623V41.2827C190.84 44.5898 188.158 47.4834 184.651 47.4834Z" fill="black"></path><path d="M185.682 36.3222C185.682 36.3222 185.889 36.1155 185.682 36.3222C186.095 36.3222 186.301 36.3222 186.301 36.5289V36.7356L183.413 39.6293L186.301 42.5229V42.7296C186.301 42.9363 186.095 43.143 185.889 43.143H185.682L182.794 40.2493L179.906 43.143H179.7C179.493 43.143 179.287 42.9363 179.287 42.7296V42.5229L182.175 39.6293L179.287 36.7356V36.5289C179.287 36.3222 179.493 36.1155 179.7 36.1155H179.906L182.794 39.0092L185.682 36.3222Z" fill="white"></path><path d="M185.889 43.5564C185.683 43.5564 185.476 43.5564 185.27 43.3497L182.794 40.8694L180.113 43.3497C179.906 43.5564 179.7 43.5564 179.494 43.5564C179.081 43.5564 178.668 43.143 178.668 42.7297C178.668 42.523 178.668 42.3163 178.875 42.1096L181.35 39.6293L178.875 37.149C178.668 36.9423 178.668 36.7356 178.668 36.5289C178.668 36.1156 179.081 35.7022 179.494 35.7022C179.7 35.7022 179.906 35.9089 180.113 35.9089L182.794 38.5959L185.476 35.9089C186.095 35.4955 186.92 35.9089 186.92 36.5289C186.92 36.7356 186.92 36.9423 186.714 37.149L184.238 39.6293L186.714 42.1096C186.92 42.3163 186.92 42.523 186.92 42.7297C186.714 43.143 186.301 43.5564 185.889 43.5564Z" fill="white"></path><path d="M127.301 96.4691C117.399 96.4691 109.353 88.4082 109.353 78.4871C109.353 68.5659 117.399 60.505 127.301 60.505C137.203 60.505 145.249 68.5659 145.249 78.4871C145.249 88.4082 137.409 96.4691 127.301 96.4691ZM127.301 64.4321C119.668 64.4321 113.479 70.6328 113.479 78.2804C113.479 85.9279 119.668 92.1286 127.301 92.1286C134.934 92.1286 141.123 85.9279 141.123 78.2804C141.329 70.6328 135.14 64.4321 127.301 64.4321Z" fill="#040000"></path><path d="M125.857 74.1466C125.031 73.7332 124.413 73.9399 124.413 74.9733V82.0008C124.413 83.0343 125.031 83.4476 125.857 82.8276L131.839 79.7272C132.664 79.3138 132.664 78.4871 131.839 77.867L125.857 74.1466Z" fill="#040000"></path></svg> 