<?xml version="1.0" encoding="UTF-8"?> <svg xmlns="http://www.w3.org/2000/svg" width="241" height="172" viewBox="0 0 241 172" fill="none"><path d="M150.581 156.583C150.992 156.583 150.992 156.583 150.992 156.583C151.197 156.583 151.402 156.788 151.402 156.994C151.402 157.2 151.197 157.405 151.197 157.405C150.786 157.611 149.35 157.611 147.504 157.611C144.426 157.611 142.375 157.2 142.375 155.144C142.375 154.322 142.785 153.294 143.195 153.294C143.4 153.294 143.605 153.499 143.605 153.499V153.705C143.4 153.911 143.195 154.322 143.195 154.938C143.195 156.172 144.426 156.788 147.504 156.788C148.94 156.788 149.966 156.583 150.581 156.583ZM143.195 148.772C143.4 148.772 145.042 148.566 145.862 148.566C147.504 148.566 149.35 148.772 149.761 148.772C149.761 148.772 149.966 148.772 149.966 149.183C149.966 149.183 149.966 149.594 149.555 149.594H149.145C148.119 149.388 147.093 149.388 145.862 149.388C145.657 149.388 144.837 149.388 143.811 149.388C143.605 149.388 143.4 149.388 143.4 149.388C143.195 149.388 142.99 149.388 142.99 148.977C142.99 149.183 142.99 148.772 143.195 148.772ZM150.992 148.155C151.197 148.36 151.607 149.183 151.607 149.388C151.607 149.594 151.402 149.799 151.197 149.799C150.992 149.799 150.992 149.799 150.581 148.977C150.581 148.772 149.966 147.744 149.966 147.538C149.966 147.333 150.171 147.127 150.376 147.333C150.581 147.127 150.581 147.333 150.992 148.155ZM152.633 147.538C152.838 147.949 153.043 148.566 153.043 148.772C153.043 148.977 152.838 149.183 152.633 149.183C152.428 149.183 152.428 148.977 152.223 148.772C152.017 148.36 151.607 147.744 151.402 147.127V146.922C151.402 146.716 151.607 146.51 151.812 146.716C152.223 146.51 152.428 147.127 152.633 147.538Z" fill="black"></path><path d="M147.504 158.022C145.863 158.022 141.759 158.022 141.759 155.144C141.759 154.322 142.375 152.883 143.195 152.883C143.606 152.883 144.016 153.294 144.016 153.705C144.016 153.911 144.016 154.116 143.811 154.116C143.606 154.322 143.401 154.733 143.401 155.144C143.401 155.555 143.401 156.377 147.299 156.377C148.94 156.377 149.966 156.172 150.582 156.172H150.787C150.992 156.172 150.992 156.172 151.197 156.172C151.607 156.172 152.018 156.583 152.018 156.994C152.018 157.405 151.813 157.816 151.402 157.816C150.787 157.816 149.351 158.022 147.504 158.022ZM151.197 150.21C150.787 150.21 150.582 150.005 150.376 149.799C150.171 150.005 149.966 150.21 149.761 150.21H149.556H149.351C148.12 150.005 147.094 150.005 146.273 150.005C146.068 150.005 145.247 150.005 144.221 150.005C144.016 150.005 143.811 150.005 143.811 150.005C143.195 150.005 142.785 149.594 142.785 149.183C142.785 148.772 142.99 148.36 143.401 148.36C143.811 148.155 145.863 148.155 146.273 148.155C147.914 148.155 149.556 148.36 150.171 148.36C149.761 147.538 149.761 147.538 149.761 147.333C149.761 147.127 149.966 146.921 150.171 146.716C150.376 146.51 150.582 146.51 150.992 146.51C151.402 146.51 151.402 146.716 151.813 147.538V147.333V147.127C151.813 146.921 151.607 146.921 151.607 146.716C151.607 146.51 151.813 146.305 152.018 146.099C152.223 145.894 152.428 145.894 152.838 145.894C153.249 145.894 153.454 146.51 153.864 147.127L153.454 147.333L153.864 147.127C153.864 147.127 154.48 148.155 154.48 148.566C154.48 148.977 154.069 149.388 153.659 149.388C153.249 149.388 153.044 149.183 152.838 148.772C152.838 148.977 152.838 148.977 152.838 149.183C152.018 149.799 151.607 150.21 151.197 150.21Z" fill="black"></path><path d="M157.354 153.088C156.943 153.088 155.917 153.088 155.507 153.088C155.507 153.088 155.097 153.088 155.097 152.677C155.097 152.472 155.097 152.472 155.302 152.472C155.302 152.472 155.917 152.472 156.328 152.472C156.533 152.061 156.943 151.649 156.943 151.649C156.533 151.033 155.712 150.416 155.302 150.005L155.097 149.799L155.302 149.388C155.507 149.388 155.507 149.388 155.712 149.594C156.123 148.772 156.533 148.155 156.738 147.744C156.943 147.127 156.943 147.127 157.148 147.127C157.354 147.127 157.559 147.333 157.559 147.538C157.559 147.744 156.533 149.388 156.123 150.211C156.533 150.622 156.738 150.827 157.148 151.238C157.969 150.005 158.379 149.388 158.585 148.772C158.585 148.566 158.79 148.566 158.79 148.566C158.995 148.566 159.2 148.772 159.2 148.977C159.2 149.183 158.79 149.799 158.585 150.005C157.764 151.444 157.354 151.855 156.738 152.677C157.354 152.677 158.379 152.677 158.585 152.472C158.585 152.266 158.379 152.266 158.379 151.855V151.649C158.379 151.444 158.585 151.444 158.79 151.444C158.79 151.444 158.995 151.444 159.2 152.061C159.405 152.472 159.816 153.5 159.816 153.705C159.816 153.911 159.61 154.116 159.405 154.116C159.2 154.116 159.2 154.116 159.2 153.911C159.2 153.911 158.995 153.5 158.995 153.294C158.379 153.294 158.174 153.294 157.764 153.5V158.227C157.764 158.433 157.764 158.639 157.354 158.639C157.148 158.639 156.943 158.433 156.943 158.227V153.088H157.354ZM156.738 154.527C156.738 154.733 156.533 155.761 156.328 157.2C156.123 157.611 156.123 157.816 155.917 157.816C155.712 157.816 155.507 157.816 155.507 157.611L155.712 157.2C155.917 156.583 156.123 155.761 156.123 154.938C156.123 154.733 156.123 154.527 156.533 154.527C156.533 154.116 156.738 154.322 156.738 154.527ZM159.816 156.994C159.61 156.994 159.61 156.994 159.405 156.583C159.405 156.583 159.2 155.555 158.995 154.938C158.995 154.733 158.79 154.527 158.79 154.322C158.79 154.116 158.995 154.116 158.995 154.116C159.2 154.116 159.2 154.322 159.405 154.733C159.405 154.938 160.021 156.377 160.021 156.789C160.226 156.789 160.021 156.994 159.816 156.994ZM160.841 148.155C160.841 148.155 160.431 148.155 160.431 147.949C160.431 147.744 160.636 147.744 160.841 147.744H165.355C166.381 147.744 166.586 148.155 166.586 148.977C166.586 149.799 166.381 151.649 165.971 152.266C165.56 152.677 165.355 152.677 164.124 152.677C163.919 152.677 163.714 152.677 163.714 152.266C163.714 151.855 163.919 151.855 164.124 151.855C164.124 151.855 164.945 151.855 165.15 151.855C165.56 151.855 165.766 151.855 165.971 151.238C166.176 150.827 166.176 149.799 166.176 148.977C166.176 148.566 166.176 148.36 165.56 148.36H163.509C163.098 150.622 162.278 151.649 161.662 152.061C161.457 152.266 160.841 152.677 160.636 152.677C160.431 152.677 160.226 152.472 160.226 152.266C160.226 152.061 160.226 152.061 160.431 152.061C161.047 151.649 162.483 150.622 162.688 148.155H160.841ZM166.381 156.994C166.381 158.022 165.971 158.227 165.15 158.227H162.072C161.252 158.227 160.841 157.816 160.841 156.994V154.322C160.841 153.294 161.252 153.088 162.072 153.088H165.15C165.971 153.088 166.381 153.294 166.381 154.322V156.994ZM165.56 154.322C165.56 153.911 165.355 153.705 164.945 153.705H162.072C161.662 153.705 161.457 153.911 161.457 154.322V156.994C161.457 157.405 161.662 157.611 162.072 157.611H164.945C165.355 157.611 165.56 157.405 165.56 156.994V154.322Z" fill="black"></path><path d="M157.763 159.05C157.352 159.05 156.942 158.844 156.942 158.227V155.966C156.942 156.377 156.737 156.788 156.737 157.2C156.532 157.611 156.532 158.022 155.916 158.022C155.506 158.022 155.095 157.611 155.095 157.2C155.095 156.994 155.301 156.583 155.301 156.583C155.506 155.966 155.711 155.144 155.711 154.322C155.711 154.116 155.711 153.911 155.916 153.705C156.121 153.705 156.326 153.499 156.532 153.499C156.737 153.499 156.942 153.705 156.942 153.705V153.294C156.532 153.294 155.916 153.294 155.711 153.294C155.301 153.294 154.89 152.883 154.89 152.472C154.89 152.061 155.095 151.855 155.506 151.649C155.506 151.649 155.916 151.649 156.121 151.649H156.326C156.326 151.444 156.532 151.444 156.532 151.238C156.121 150.827 155.506 150.21 155.095 150.005C155.095 150.005 154.685 149.799 154.685 149.388C154.685 148.977 155.095 148.566 155.506 148.566C155.711 148.566 155.711 148.566 155.916 148.566C156.326 147.949 156.532 147.538 156.737 147.127C156.942 146.51 157.147 146.305 157.557 146.305C157.968 146.305 158.378 146.716 158.378 147.127C158.378 147.538 157.557 148.977 157.147 149.594L157.352 149.799C157.968 148.977 158.173 148.36 158.378 147.949C158.378 147.744 158.583 147.333 159.199 147.333C159.609 147.333 160.019 147.744 160.019 148.155C160.019 148.36 160.019 148.566 159.404 149.594C159.199 149.799 159.199 150.005 158.994 150.21C159.404 150.21 159.609 150.416 160.019 151.033C160.635 150.622 161.661 150.005 162.071 148.155H160.84C160.225 148.155 160.019 147.744 160.019 147.333C160.019 146.921 160.225 146.51 160.84 146.51H165.354C166.585 146.51 167.2 146.921 167.2 148.155C167.2 148.36 167.2 150.827 166.585 151.649C166.38 151.855 166.175 152.061 165.969 152.061C166.585 152.266 166.995 152.883 166.995 153.705V156.377C166.995 157.611 166.38 158.227 165.149 158.227H162.071C161.045 158.227 160.43 157.816 160.43 156.788C160.225 156.788 160.019 156.994 160.019 156.994C159.404 156.994 159.199 156.583 159.199 156.172V155.966C159.199 155.761 158.994 155.144 158.788 154.733V158.227C158.583 158.844 158.173 159.05 157.763 159.05ZM162.071 157.2H165.149H165.354C165.354 157.2 165.354 157.2 165.354 156.994V154.322C165.354 154.116 165.354 154.116 165.354 154.116H162.276C162.276 154.116 162.071 154.116 162.071 154.322V157.2ZM159.814 156.377V156.994V156.377ZM160.019 154.116C160.019 154.322 160.019 154.322 160.225 154.527C160.225 154.733 160.43 154.938 160.43 154.938V154.322C160.43 154.116 160.43 154.116 160.43 153.911C160.225 154.116 160.019 154.116 160.019 154.116ZM156.737 154.527H156.121H156.737ZM158.583 153.499V153.911C158.788 153.705 158.788 153.705 158.994 153.705C158.994 153.705 158.994 153.705 158.994 153.499C158.788 153.294 158.788 153.499 158.583 153.499ZM163.713 148.566C163.302 150.622 162.482 151.649 161.866 152.266C161.661 152.472 161.661 152.472 161.456 152.677C161.661 152.677 161.866 152.677 162.071 152.677H163.302C163.097 152.472 163.097 152.061 163.097 152.061C163.097 151.649 163.302 151.238 163.918 151.238H164.944H165.149C165.149 151.238 165.149 151.238 165.149 151.033C165.149 150.622 165.354 149.799 165.354 148.977C165.354 148.977 165.354 148.977 165.354 148.772L163.713 148.566ZM158.378 151.649C158.378 151.855 158.378 151.855 158.378 151.649C158.378 151.855 158.378 151.855 158.378 151.649C158.378 151.855 158.378 151.855 158.378 151.649C158.378 151.855 158.378 151.855 158.378 151.649Z" fill="black"></path><path d="M174.997 148.155C173.766 149.799 172.329 150.622 171.304 151.238C171.098 151.444 170.073 151.855 169.867 151.855C169.662 151.855 169.457 151.649 169.457 151.444C169.457 151.238 169.662 151.238 169.662 151.033C171.509 150.211 173.15 148.977 174.381 147.538C174.791 147.127 174.791 147.127 174.997 147.127C175.202 147.127 175.407 147.127 175.612 147.538C177.459 149.799 179.51 150.622 180.331 151.033C180.536 151.033 180.741 151.238 180.741 151.444C180.741 151.649 180.536 151.855 180.331 151.855C180.126 151.855 178.484 151.033 176.638 149.594C175.817 148.772 174.997 147.949 174.997 147.949L174.791 147.744C175.202 147.949 175.202 147.949 174.997 148.155ZM173.56 153.294C173.56 154.322 173.355 155.966 172.535 157.2C171.919 158.022 170.893 158.639 170.688 158.639C170.483 158.639 170.278 158.433 170.278 158.227C170.278 158.022 170.483 157.816 170.483 157.816C172.124 156.994 172.74 155.761 172.74 153.294V151.649C172.74 151.649 172.74 151.238 173.15 151.238C173.355 151.238 173.56 151.444 173.56 151.649V153.294V153.294ZM178.074 158.227C178.074 158.433 178.074 158.639 177.664 158.639C177.253 158.639 177.253 158.433 177.253 158.227V151.649C177.253 151.649 177.253 151.238 177.664 151.238C178.074 151.238 178.074 151.444 178.074 151.649V158.227Z" fill="black"></path><path d="M177.664 159.05C177.254 159.05 176.844 158.844 176.844 158.227V151.649C176.844 151.033 177.254 150.827 177.664 150.827C177.459 150.622 177.049 150.416 176.844 150.211C176.844 150.211 175.818 149.388 175.407 148.772C174.792 149.594 173.971 150.211 173.151 150.827C173.766 150.827 174.176 151.238 174.176 151.649V153.294C174.176 154.322 173.971 156.172 172.945 157.405C172.125 158.433 171.099 158.844 170.689 158.844C170.073 158.844 169.868 158.433 169.868 158.022C169.868 157.405 170.278 157.2 170.483 157.2C171.714 156.583 172.535 155.761 172.535 153.088V151.444C172.535 151.238 172.535 151.238 172.535 151.033C172.33 151.238 172.125 151.238 171.92 151.444C170.689 152.061 170.483 152.266 170.278 152.266C169.663 152.266 169.458 151.855 169.458 151.444C169.458 150.827 169.868 150.622 170.073 150.622C171.92 149.799 173.356 148.566 174.587 147.333C174.997 146.922 175.202 146.716 175.613 146.716C176.228 146.716 176.433 146.922 176.638 147.333C178.69 149.594 180.537 150.416 181.152 150.827C181.357 150.827 181.768 151.033 181.768 151.649C181.768 152.061 181.357 152.472 180.947 152.472C180.742 152.472 179.716 152.061 178.895 151.444V151.649V158.227C178.69 158.844 178.075 159.05 177.664 159.05ZM177.664 158.227H178.075H177.664Z" fill="black"></path><path d="M187.513 149.388H189.975C189.975 149.388 190.385 149.388 190.385 149.594C190.385 149.799 190.18 149.799 189.975 149.799H187.513V150.622H188.949C189.77 150.622 189.975 150.827 189.975 151.649V153.499C189.975 154.322 189.77 154.527 188.949 154.527H187.513V155.35H189.975C189.975 155.35 190.385 155.35 190.385 155.555C190.385 155.761 190.18 155.761 189.975 155.761H187.513V156.994C187.718 156.994 189.975 156.583 189.975 156.583C190.18 156.583 190.18 156.583 190.18 156.788C190.18 156.994 190.18 156.994 189.975 157.2C189.154 157.405 184.641 158.022 184.23 158.022C184.025 158.022 183.82 157.816 183.82 157.611C183.82 157.405 183.82 157.405 184.025 157.405C185.051 157.2 185.256 157.2 186.692 156.994V155.761H184.23C184.23 155.761 183.82 155.761 183.82 155.555C183.82 155.35 184.025 155.35 184.23 155.35H186.692V154.527H185.256C184.435 154.527 184.23 154.322 184.23 153.499V151.649C184.23 150.827 184.435 150.622 185.256 150.622H186.692V149.799H184.025C184.025 149.799 183.615 149.799 183.615 149.594C183.615 149.388 183.82 149.388 184.025 149.388H186.692V148.36C185.666 148.566 184.435 148.566 184.23 148.566C184.025 148.566 183.82 148.566 183.82 148.155C183.82 147.949 183.82 147.949 184.23 147.949C185.461 147.949 186.898 147.744 188.334 147.538C188.539 147.538 188.949 147.333 189.154 147.333C189.36 147.333 189.36 147.538 189.36 147.538C189.36 147.744 189.36 147.744 189.154 147.744C188.949 147.744 188.539 147.949 187.103 148.155V149.388H187.513ZM186.897 152.472V151.444H185.461C185.051 151.444 185.051 151.649 185.051 151.855V152.472H186.897ZM186.897 152.883H185.051V153.499C185.051 153.705 185.256 153.911 185.461 153.911H186.897V152.883ZM187.513 152.472H189.36V151.855C189.36 151.649 189.154 151.444 188.949 151.444H187.513V152.472ZM187.513 152.883V153.911H188.949C189.36 153.911 189.36 153.705 189.36 153.499V152.883H187.513ZM192.642 150.827C192.642 152.677 192.437 154.938 191.411 157.2C191.206 157.611 190.591 158.639 190.385 158.639C190.18 158.639 189.975 158.433 189.975 158.227C189.975 158.227 189.975 158.022 190.18 157.816C190.591 157.405 191.411 156.172 191.822 153.911C192.027 153.294 192.027 151.855 192.027 150.622V150.211H191.001C191.001 150.211 190.591 150.211 190.591 149.799C190.591 149.594 190.796 149.388 191.001 149.388H192.027V147.127C192.027 146.922 192.027 146.716 192.437 146.716C192.642 146.716 192.847 146.922 192.847 147.127V149.388H193.668C194.899 149.388 195.104 149.594 195.104 150.827C195.104 151.444 195.104 155.555 194.694 156.994C194.489 158.022 194.078 158.022 192.847 158.022C192.027 158.022 191.822 158.022 191.822 157.611C191.822 157.405 191.822 157.2 192.027 157.2C192.027 157.2 193.053 157.2 193.258 157.2C193.873 157.2 193.873 156.994 194.078 156.377C194.284 154.938 194.489 151.238 194.489 150.827C194.489 149.799 194.284 149.799 193.463 149.799H192.642V150.827V150.827Z" fill="black"></path><path d="M190.385 159.05C189.974 159.05 189.359 158.639 189.359 158.227V158.022C187.717 158.227 184.435 158.844 184.229 158.844C183.819 158.844 183.409 158.639 183.409 158.022C183.409 157.611 183.614 157.2 184.229 157.2H184.435C185.255 157.2 185.46 157.2 186.486 156.994V156.583H184.64C184.229 156.583 183.819 156.172 183.819 155.761C183.819 155.35 184.024 154.938 184.64 154.938H184.845C184.229 154.733 184.024 154.322 184.024 153.499V151.649C184.024 151.033 184.229 150.622 184.64 150.416H184.435C184.024 150.416 183.614 150.005 183.614 149.594C183.614 149.183 183.819 148.977 184.229 148.772C184.024 148.566 184.024 148.36 184.024 148.155C184.024 147.744 184.229 147.333 184.845 147.333H185.05C186.281 147.333 187.512 147.127 188.948 146.922H189.153C189.564 146.922 189.769 146.716 189.769 146.716C190.179 146.716 190.59 147.127 190.59 147.538C190.59 147.949 190.385 148.155 190.179 148.36C189.974 148.566 189.564 148.566 188.538 148.772V148.977H190.59C191 148.977 191.205 149.183 191.41 149.388C191.41 149.388 191.41 149.388 191.616 149.388H192.026V147.744C192.026 147.127 192.436 146.922 192.847 146.922C193.257 146.922 193.667 147.127 193.667 147.744V149.388H194.078C195.719 149.388 196.129 150.005 196.129 151.444C196.129 151.855 196.129 156.172 195.719 157.611C195.309 159.05 194.488 159.05 193.462 159.05C192.641 159.05 192.231 159.05 192.026 158.639C191 159.05 190.59 159.05 190.385 159.05ZM192.026 157.2H192.231C192.641 157.2 193.052 157.2 193.257 157.2H193.462V156.788C193.667 155.35 193.872 151.855 193.872 151.238C193.872 150.827 193.872 150.827 193.872 150.827C193.872 150.827 193.667 150.827 193.462 150.827H193.257C193.257 153.294 192.847 155.35 192.026 157.2ZM188.128 156.583C188.333 156.583 188.538 156.583 188.743 156.583H188.128ZM189.769 154.938C190.384 154.938 190.59 155.144 190.795 155.555C191 155.144 191 154.527 191.205 153.911C191.41 153.088 191.41 152.061 191.41 150.827H191C190.59 150.827 190.385 150.622 190.179 150.416H189.974C190.384 150.622 190.59 151.033 190.59 151.649V153.499C190.59 154.322 190.384 154.733 189.769 154.938ZM188.128 153.499H188.948H188.128ZM185.666 153.499H186.486H185.666ZM188.128 151.855H188.948H188.128ZM185.666 151.855H186.486H185.666Z" fill="black"></path><path d="M205.979 149.799C206.799 149.799 207.21 150.21 207.21 151.033V154.938C207.21 155.761 207.004 156.172 205.979 156.172H202.08C201.26 156.172 200.849 155.761 200.849 154.938V151.033C200.849 150.21 201.055 149.799 202.08 149.799H203.722V148.36H198.592C198.592 148.36 198.182 148.36 198.182 148.155C198.182 147.744 198.387 147.744 198.592 147.744H209.467C209.467 147.744 209.877 147.744 209.877 148.155C209.877 148.566 209.672 148.566 209.467 148.566H204.337V150.005H205.979V149.799ZM209.261 156.994C209.261 157.816 208.851 158.227 208.03 158.227H200.029C199.208 158.227 198.798 158.022 198.798 156.994V150.005C198.798 150.005 198.798 149.594 199.208 149.594C199.413 149.594 199.618 149.799 199.618 150.005V156.994C199.618 157.405 199.823 157.611 200.234 157.611H208.03C208.441 157.611 208.646 157.405 208.646 156.994V150.005C208.646 150.005 208.646 149.594 209.056 149.594C209.261 149.594 209.467 149.594 209.467 150.005V156.994H209.261ZM203.517 152.677V150.416H201.875C201.465 150.416 201.26 150.622 201.26 151.033V152.677H203.517ZM203.517 153.294H201.465V155.144C201.465 155.555 201.67 155.761 202.08 155.761H203.722V153.294H203.517ZM204.337 152.677H206.594V151.033C206.594 150.622 206.389 150.416 205.979 150.416H204.337V152.677ZM204.337 153.294V155.761H205.979C206.389 155.761 206.594 155.555 206.594 155.144V153.294H204.337Z" fill="black"></path><path d="M208.029 158.844H200.027C198.796 158.844 198.181 158.227 198.181 157.2V150.005C198.181 149.388 198.591 149.183 199.001 149.183C199.617 149.183 199.822 149.594 199.822 150.005V156.994V157.2C199.822 157.2 199.822 157.2 200.027 157.2H207.824C207.824 157.2 208.029 157.2 208.029 156.994V150.005C208.029 149.388 208.439 149.183 208.85 149.183C209.465 149.183 209.67 149.594 209.67 150.005V156.994C209.67 158.227 209.26 158.844 208.029 158.844ZM205.977 156.788H202.079C200.848 156.788 200.233 156.172 200.233 154.938V151.033C200.233 149.799 200.848 149.183 202.079 149.183H203.105V148.772H198.591C197.976 148.772 197.771 148.36 197.771 147.949C197.771 147.538 197.976 147.127 198.591 147.127H209.465C210.081 147.127 210.286 147.538 210.286 147.949C210.286 148.36 210.081 148.772 209.465 148.772H204.951V149.183H206.182C207.413 149.183 208.029 149.799 208.029 151.033V154.938C207.619 156.172 207.208 156.788 205.977 156.788ZM204.746 155.144H205.772H205.977C205.977 155.144 205.977 155.144 205.977 154.938V153.705H204.746V155.144ZM201.874 155.144H203.105V153.705H201.874V155.144C201.874 155.144 201.874 154.938 201.874 155.144ZM204.746 152.06H205.977V151.033V150.827C205.977 150.827 205.977 150.827 205.772 150.827H204.746V152.06ZM201.874 152.06H203.105V150.827H202.079C202.079 150.827 201.874 150.827 201.874 151.033V152.06Z" fill="black"></path><path d="M233.218 172H105.773C101.478 172 98 168.477 98 164.124V139.876C98 135.523 101.478 132 105.773 132H233.218C237.514 132 240.992 135.523 240.992 139.876V164.124C241.196 168.477 237.514 172 233.218 172ZM105.773 136.145C103.728 136.145 102.091 137.803 102.091 139.876V164.124C102.091 166.197 103.728 167.855 105.773 167.855H233.218C235.264 167.855 236.901 166.197 236.901 164.124V139.876C236.901 137.803 235.264 136.145 233.218 136.145H105.773Z" fill="black"></path><path d="M169.868 110.332C169.868 113.621 167.201 116.087 164.123 116.087H6.55236C3.26963 116.087 0.807617 113.415 0.807617 110.332V5.90624C0.807617 2.61725 3.4748 0.150513 6.55236 0.150513H164.123C167.406 0.150513 169.868 2.82281 169.868 5.90624V110.332Z" fill="#727171"></path><path d="M117.959 80.3195C117.959 83.6085 115.292 86.0752 112.215 86.0752H49.8429C46.5602 86.0752 44.0981 83.4029 44.0981 80.3195V33.4515C44.0981 30.1625 46.7654 27.6957 49.8429 27.6957H112.215C115.497 27.6957 117.959 30.368 117.959 33.4515V80.3195Z" fill="#EFEBE1"></path><path d="M112.215 88.3364H49.8429C45.5343 88.3364 42.0464 84.8419 42.0464 80.5251V33.4515C42.0464 29.1347 45.5343 25.6401 49.8429 25.6401H112.215C116.523 25.6401 120.011 29.1347 120.011 33.4515V80.3195C120.011 84.6363 116.523 88.3364 112.215 88.3364ZM49.8429 29.7514C47.7912 29.7514 46.1498 31.3959 46.1498 33.4515V80.3195C46.1498 82.3751 47.7912 84.0196 49.8429 84.0196H112.215C114.266 84.0196 115.908 82.3751 115.908 80.3195V33.4515C115.908 31.3959 114.266 29.7514 112.215 29.7514H49.8429Z" fill="black"></path><path d="M117.13 41H110.87C107.739 41 105 38.1087 105 34.8043V28.1957C105 24.8913 107.739 22 110.87 22H117.13C120.261 22 123 24.8913 123 28.1957V34.8043C123 38.3152 120.457 41 117.13 41Z" fill="black"></path><path d="M117.55 28.1068L117.755 27.9013C117.961 27.9013 118.166 28.1068 118.166 28.3124C118.166 28.3124 118.166 28.518 117.961 28.518L114.473 32.0125L117.961 35.5071L118.166 35.7126C118.166 35.9182 117.961 36.1237 117.755 36.1237C117.755 36.1237 117.55 36.1237 117.55 35.9182L114.062 32.4236L110.575 35.9182L110.369 36.1237C110.164 36.1237 109.959 35.9182 109.959 35.7126C109.959 35.7126 109.959 35.5071 110.164 35.5071L113.652 32.0125L110.164 28.518L109.959 28.3124C109.959 28.1068 110.164 27.9013 110.369 27.9013C110.369 27.9013 110.575 27.9013 110.575 28.1068L114.062 31.6014L117.55 28.1068Z" fill="white"></path><path d="M117.755 36.5349C117.549 36.5349 117.344 36.5349 117.139 36.3293L114.062 33.2459L110.984 36.3293C110.368 36.946 109.548 36.3293 109.548 35.7126C109.548 35.5071 109.548 35.3015 109.753 35.096L112.831 32.0125L109.753 28.9291C109.548 28.7236 109.548 28.518 109.548 28.3124C109.548 27.6957 110.368 27.0791 110.984 27.6957L114.062 30.7792L117.139 27.6957C117.344 27.4902 117.549 27.4902 117.755 27.4902C118.165 27.4902 118.575 27.9013 118.575 28.3124C118.575 28.518 118.575 28.7236 118.37 28.9291L115.293 32.0125L118.37 35.096C118.575 35.3015 118.575 35.5071 118.575 35.7126C118.78 36.1238 118.37 36.5349 117.755 36.5349Z" fill="white"></path><path d="M82 70C74.7778 70 69 64.2222 69 57C69 49.7778 74.7778 44 82 44C89.2223 44 95 49.7778 95 57C95 64.2222 89.2223 70 82 70ZM82 46.2698C76.0159 46.2698 71.0635 51.2222 71.0635 57.2063C71.0635 63.1905 76.0159 68.1429 82 68.1429C87.9842 68.1429 92.9365 63.1905 92.9365 57.2063C92.9365 51.2222 87.9842 46.2698 82 46.2698Z" fill="#040000"></path><path d="M80.8239 54.2132C80.0032 53.8021 79.3877 54.0076 79.3877 55.0354V59.3522C79.3877 60.38 80.0032 60.7912 80.8239 60.1745L84.3117 58.3244C85.1324 57.9133 85.1324 57.0911 84.3117 56.4744L80.8239 54.2132Z" fill="#040000"></path><path d="M126 160C122.088 160 119 156.912 119 153C119 149.088 122.088 146 126 146C129.912 146 133 149.088 133 153C133 156.706 129.912 160 126 160ZM126 148.059C123.324 148.059 121.059 150.324 121.059 153C121.059 155.676 123.324 157.941 126 157.941C128.676 157.941 130.941 155.676 130.941 153C130.941 150.324 128.882 148.059 126 148.059Z" fill="#040000"></path><path d="M188.286 124.384L186.254 124.673L186.399 125.691L188.43 125.402L188.286 124.384Z" fill="black"></path><path d="M187.355 118.009L185.324 118.297L185.61 120.332L187.642 120.045L187.355 118.009Z" fill="black"></path><path d="M184.845 114.237L184.64 112.182L186.692 111.976L186.897 114.032L184.845 114.237ZM183.819 107.865L183.614 105.809L185.666 105.604L185.871 107.659L183.819 107.865ZM182.999 101.698L182.793 99.6423L184.845 99.4368L185.05 101.492L182.999 101.698ZM182.178 95.3255L181.973 93.2699L184.024 93.0643L184.23 95.12L182.178 95.3255ZM181.152 89.1587L180.947 87.1031L182.999 86.8975L183.204 88.9531L181.152 89.1587ZM180.331 82.7863L180.126 80.7306L182.178 80.5251L182.383 82.5807L180.331 82.7863ZM179.511 76.6194L179.306 74.5638L181.357 74.3582L181.562 76.4139L179.511 76.6194ZM178.69 70.247L178.485 68.1914L180.537 67.9858L180.742 70.0414L178.69 70.247ZM177.664 63.8746L177.459 61.819L179.511 61.6134L179.716 63.669L177.664 63.8746ZM176.844 57.7078L176.638 55.6521L178.69 55.4466L178.895 57.5022L176.844 57.7078ZM176.023 51.3353L175.818 49.2797L177.869 49.0742L178.075 51.1298L176.023 51.3353ZM174.997 45.1685L174.792 43.1129L176.844 42.9073L177.049 44.9629L174.997 45.1685ZM174.176 38.7961L173.971 36.7405L176.023 36.5349L176.228 38.5905L174.176 38.7961ZM173.356 32.6292L173.151 30.5736L175.202 30.3681L175.407 32.4237L173.356 32.6292ZM172.535 26.2568L172.33 24.2012L174.381 23.9957L174.587 26.0513L172.535 26.2568ZM171.509 20.09L171.304 18.0344L173.356 17.8288L173.561 19.8844L171.509 20.09ZM170.688 13.7176L170.483 11.662L172.535 11.4564L172.74 13.512L170.688 13.7176ZM169.868 7.55073L169.663 5.49511L171.714 5.28955L171.919 7.34517L169.868 7.55073Z" fill="black"></path><path d="M170.793 9.76575e-06L168.761 0.284485L168.903 1.30228L170.935 1.0178L170.793 9.76575e-06Z" fill="black"></path><path d="M93.3831 159.794L92.4912 161.645L93.4151 162.092L94.307 160.241L93.3831 159.794Z" fill="black"></path><path d="M87.693 157.065L86.8003 158.916L88.6476 159.811L89.5403 157.96L87.693 157.065Z" fill="black"></path><path d="M83.0805 157.2L81.234 156.377L82.0547 154.527L83.9012 155.35L83.0805 157.2ZM77.541 154.527L75.6944 153.705L76.5151 151.855L78.3616 152.677L77.541 154.527ZM72.0013 151.855L70.1548 151.033L70.9755 149.183L72.822 150.005L72.0013 151.855ZM66.4618 148.977L64.6152 148.155L65.436 146.305L67.2825 147.127L66.4618 148.977ZM60.9222 146.305L59.0757 145.483L59.8963 143.633L61.7429 144.455L60.9222 146.305ZM55.1775 143.633L53.3309 142.81L54.1516 140.96L55.9981 141.782L55.1775 143.633ZM49.6379 140.96L47.7913 140.138L48.612 138.288L50.4585 139.11L49.6379 140.96ZM44.0982 138.288L42.2517 137.466L43.0724 135.616L44.919 136.438L44.0982 138.288ZM38.5587 135.616L36.7122 134.793L37.5329 132.943L39.3794 133.766L38.5587 135.616ZM33.0191 132.943L31.1726 132.121L31.9932 130.271L33.8398 131.093L33.0191 132.943ZM27.4795 130.271L25.633 129.449L26.4537 127.599L28.3002 128.421L27.4795 130.271ZM21.7348 127.393L19.8882 126.571L20.7089 124.721L22.5554 125.543L21.7348 127.393ZM16.1952 124.721L14.3486 123.899L15.1694 122.049L17.0159 122.871L16.1952 124.721ZM10.6556 122.049L8.80908 121.226L9.62975 119.376L11.4763 120.199L10.6556 122.049Z" fill="black"></path><path d="M5.10188 117.057L4.20996 118.909L5.13467 119.354L6.02659 117.502L5.10188 117.057Z" fill="black"></path><path d="M126 151V155L128 153L126 151Z" fill="#040000"></path></svg> 