<?xml version="1.0" encoding="UTF-8"?> <svg xmlns="http://www.w3.org/2000/svg" width="264" height="162" viewBox="0 0 264 162" fill="none"><path d="M263.029 156.203C263.029 159.51 260.347 161.99 257.252 161.99H5.77632C2.47556 161.99 0 159.303 0 156.203V5.93867C0 2.63162 2.68186 0.151337 5.77632 0.151337H257.046C260.347 0.151337 262.822 2.83831 262.822 5.93867V156.203H263.029Z" fill="#727171"></path><path d="M185.461 120.239C185.461 123.546 182.779 126.026 179.685 126.026H77.7739C74.4731 126.026 71.9976 123.339 71.9976 120.239V42.3162C71.9976 39.0091 74.6794 36.5288 77.7739 36.5288H179.478C182.779 36.5288 185.255 39.2158 185.255 42.3162V120.239H185.461Z" fill="#EFEBE1"></path><path d="M179.478 128.299H77.7739C73.4416 128.299 69.9346 124.786 69.9346 120.445V42.3162C69.9346 37.9757 73.4416 34.4619 77.7739 34.4619H179.478C183.811 34.4619 187.318 37.9757 187.318 42.3162V120.239C187.524 124.579 183.811 128.299 179.478 128.299ZM77.7739 38.5958C75.7109 38.5958 74.0605 40.2493 74.0605 42.3162V120.239C74.0605 122.305 75.7109 123.959 77.7739 123.959H179.478C181.541 123.959 183.192 122.305 183.192 120.239V42.3162C183.192 40.2493 181.541 38.5958 179.478 38.5958H77.7739Z" fill="black"></path><path d="M91.5959 67.9458H91.3896C91.1833 67.9458 90.9771 67.7391 90.9771 67.5325C90.9771 67.3258 91.1834 67.3258 91.1834 67.1191L93.04 65.8789C93.2463 65.6722 93.4526 65.6722 93.6589 65.6722C94.0715 65.6722 94.0715 66.0856 94.0715 66.2923V75.3867C94.0715 75.8001 93.8652 75.8001 93.6589 75.8001C93.4526 75.8001 93.2463 75.5934 93.2463 75.3867V66.7057L91.5959 67.9458Z" fill="black"></path><path d="M93.4526 76.4201C92.8337 76.4201 92.4211 76.0068 92.4211 75.5934V67.9458L91.5959 68.3592C91.3896 68.3592 91.3896 68.5659 90.977 68.5659C90.3581 68.5659 90.1519 68.1525 90.1519 67.7391C90.1519 67.3258 90.5645 67.1191 90.5645 66.9124L92.4211 65.6722C92.8337 65.4655 93.04 65.2589 93.2463 65.2589C93.8652 65.2589 94.0715 65.6722 94.0715 66.2923V75.3867C94.4841 76.0068 94.0715 76.4201 93.4526 76.4201Z" fill="black"></path><path d="M102.942 66.0856C102.942 65.8789 103.148 65.8789 103.355 65.8789C103.561 65.8789 103.767 66.0856 103.767 66.0856V66.2923L99.2288 75.5934C99.2288 75.8001 99.0225 75.8001 99.0225 75.8001C98.8162 75.8001 98.6099 75.5934 98.6099 75.3867V75.18L102.942 66.0856Z" fill="black"></path><path d="M98.8164 76.4201C98.4038 76.4201 97.9912 76.0068 97.9912 75.5934C97.9912 75.3867 98.1975 75.18 98.1975 75.18L102.736 65.8789L103.149 66.0856L102.736 65.8789C102.736 65.6722 102.942 65.2589 103.561 65.2589C103.974 65.2589 104.386 65.6722 104.386 66.0856C104.386 66.2923 104.386 66.499 104.18 66.499L99.6416 75.8001C99.6416 76.0068 99.4353 76.4201 98.8164 76.4201ZM103.149 66.0856L103.355 66.2923L103.149 66.0856Z" fill="black"></path><path d="M107.481 67.9458H107.275C107.069 67.9458 106.862 67.7391 106.862 67.5325C106.862 67.3258 107.069 67.3258 107.069 67.1191L108.925 65.8789C109.132 65.6722 109.338 65.6722 109.544 65.6722C109.957 65.6722 109.957 66.0856 109.957 66.2923V75.3867C109.957 75.8001 109.75 75.8001 109.544 75.8001C109.338 75.8001 109.132 75.5934 109.132 75.3867V66.7057L107.481 67.9458Z" fill="black"></path><path d="M109.338 76.4201C108.719 76.4201 108.306 76.0068 108.306 75.5934V67.9458L107.481 68.3592C107.275 68.3592 107.275 68.5659 106.862 68.5659C106.243 68.5659 106.037 68.1525 106.037 67.7391C106.037 67.3258 106.45 67.1191 106.45 66.9124L108.306 65.6722C108.719 65.4655 108.925 65.2589 109.132 65.2589C109.75 65.2589 109.957 65.6722 109.957 66.2923V75.3867C110.369 76.0068 109.75 76.4201 109.338 76.4201Z" fill="black"></path><path d="M115.115 71.0461C114.908 71.2528 114.908 71.4595 114.702 71.4595C114.496 71.4595 114.29 71.2528 114.29 71.0461C114.29 71.0461 114.29 70.8395 114.496 70.6328C114.908 70.0127 115.527 69.5993 116.353 69.5993C116.971 69.5993 117.59 70.0127 118.209 70.4261C119.86 71.4595 119.86 71.4595 120.478 71.4595C121.097 71.4595 121.716 70.8395 121.923 70.6328C122.129 70.2194 122.129 70.2194 122.335 70.2194C122.541 70.2194 122.748 70.4261 122.748 70.6328C122.748 70.8395 122.748 70.8395 122.541 71.0461C121.716 72.0796 121.097 72.0796 120.685 72.0796C120.066 72.0796 119.653 71.8729 118.622 71.2528C117.178 70.2194 116.971 70.2194 116.353 70.2194C115.734 70.2194 115.321 70.8395 115.115 71.0461Z" fill="black"></path><path d="M120.684 72.6997C119.859 72.6997 119.446 72.493 118.415 71.8729C116.971 70.8395 116.764 70.8395 116.558 70.8395C116.145 70.8395 115.939 71.0462 115.733 71.4595L115.32 71.0462L115.733 71.4595C115.527 71.6662 115.32 71.8729 114.908 71.8729C114.495 71.8729 114.083 71.4595 114.083 71.0462C114.083 70.8395 114.289 70.6328 114.495 70.2194C114.908 69.5993 115.733 68.9792 116.764 68.9792C117.59 68.9792 118.208 69.3926 118.827 69.806C120.478 70.8395 120.478 70.8395 120.89 70.8395C121.303 70.8395 121.509 70.4261 121.922 70.2194C122.128 69.806 122.334 69.5993 122.747 69.5993C123.16 69.5993 123.572 70.0127 123.572 70.4261C123.572 70.6328 123.366 70.8395 123.366 71.0462C122.128 72.2863 121.509 72.6997 120.684 72.6997ZM115.527 71.4595L115.114 71.0462L115.527 71.4595Z" fill="black"></path><path d="M126.46 67.9458H126.254C126.048 67.9458 125.841 67.7391 125.841 67.5324C125.841 67.3257 126.048 67.3257 126.048 67.1191L127.904 66.0856C128.111 65.8789 128.317 65.8789 128.523 65.8789C128.936 65.8789 128.936 66.2923 128.936 66.499V75.5934C128.936 76.0067 128.729 76.0067 128.523 76.0067C128.317 76.0067 128.111 75.8001 128.111 75.5934V66.9124L126.46 67.9458Z" fill="black"></path><path d="M128.523 76.4201C127.905 76.4201 127.492 76.0068 127.492 75.5934V67.9458L126.667 68.3592C126.46 68.3592 126.46 68.5659 126.048 68.5659C125.429 68.5659 125.223 68.1525 125.223 67.7391C125.223 67.3258 125.635 67.1191 125.635 66.9124L127.492 65.6722C127.905 65.4655 128.111 65.2589 128.317 65.2589C128.936 65.2589 129.142 65.6722 129.142 66.2923V75.3867C129.349 76.0068 128.936 76.4201 128.523 76.4201Z" fill="black"></path><path d="M138.013 66.0856C138.013 65.8789 138.219 65.8789 138.426 65.8789C138.632 65.8789 138.838 66.0856 138.838 66.0856V66.2923L134.094 75.5934C134.094 75.8001 133.887 75.8001 133.887 75.8001C133.681 75.8001 133.475 75.5934 133.475 75.3867V75.18L138.013 66.0856Z" fill="black"></path><path d="M133.681 76.4201C133.269 76.4201 132.856 76.0068 132.856 75.5934C132.856 75.3867 133.062 75.18 133.062 75.18L137.601 65.8789L138.013 66.0856L137.601 65.8789C137.601 65.6722 137.807 65.2589 138.426 65.2589C138.839 65.2589 139.251 65.6722 139.251 66.0856C139.251 66.2923 139.251 66.499 139.045 66.499L134.506 75.8001C134.506 76.0068 134.3 76.4201 133.681 76.4201ZM138.013 66.0856L138.22 66.2923L138.013 66.0856Z" fill="black"></path><path d="M141.315 67.3257C141.315 66.9123 141.315 66.0856 142.346 66.0856H146.06C146.266 66.0856 146.472 66.2923 146.472 66.499C146.472 66.7056 146.266 66.9123 146.06 66.9123H142.552C142.14 66.9123 142.14 66.9123 142.14 67.3257V70.2194C142.346 70.0127 142.965 69.806 143.997 69.806C146.06 69.806 147.297 71.0461 147.297 72.9064C147.297 74.5599 145.853 76.0067 143.584 76.0067C142.759 76.0067 141.727 75.8 141.108 75.3866C140.902 75.3866 140.696 75.18 140.696 74.9733C140.696 74.7666 140.902 74.5599 141.108 74.5599L141.521 74.7666C141.727 74.9733 142.552 75.18 143.584 75.18C145.647 75.18 146.472 74.1465 146.472 72.6997C146.472 71.2528 145.441 70.4261 143.997 70.4261C143.171 70.4261 142.759 70.6328 142.14 71.0461C142.14 71.0461 141.934 71.2528 141.727 71.2528C141.315 71.2528 141.315 71.0461 141.315 70.8395V67.3257V67.3257Z" fill="black"></path><path d="M143.583 76.4201C142.551 76.4201 141.726 76.2134 140.901 75.8C140.489 75.5933 140.282 75.3867 140.282 74.9733C140.282 74.3532 140.695 74.1465 141.107 74.1465C141.314 74.1465 141.726 74.3532 141.726 74.3532C141.933 74.5599 142.551 74.7666 143.377 74.7666C144.821 74.7666 145.852 74.1465 145.852 72.9064C145.852 71.6662 144.821 71.0462 143.789 71.0462C143.17 71.0462 142.758 71.2528 142.345 71.4595C142.139 71.6662 141.933 71.6662 141.726 71.6662C141.52 71.6662 140.901 71.6662 140.901 70.6328V67.119C140.901 65.6722 141.726 65.4655 142.551 65.4655H146.265C146.677 65.4655 147.09 65.8789 147.09 66.2923C147.09 66.7057 146.677 67.119 146.265 67.119H142.758V69.1859C143.17 68.9793 143.583 68.9793 143.996 68.9793C146.265 68.9793 147.915 70.4261 147.915 72.493C147.709 74.9733 145.852 76.4201 143.583 76.4201Z" fill="black"></path><path d="M90.3591 96.4691C90.978 96.6758 91.5969 96.8825 92.2158 96.8825C93.4536 96.8825 94.6914 96.4691 94.6914 94.8156C94.6914 93.3687 93.6599 93.162 92.6284 92.7487C91.3906 92.3353 89.9465 91.9219 89.9465 90.0617C89.9465 88.6148 90.978 87.3747 92.8347 87.3747C93.4536 87.3747 94.0725 87.5814 94.6914 87.7881C94.8976 87.7881 94.8976 87.9948 94.8976 88.2015C94.8976 88.4082 94.6913 88.6148 94.4851 88.6148C94.4851 88.6148 94.2788 88.6148 94.0725 88.4081C93.8662 88.2015 93.2473 88.2015 92.6284 88.2015C91.1843 88.2015 90.5654 89.2349 90.5654 90.0617C90.5654 91.3018 91.5969 91.7152 92.6284 91.9219C93.8662 92.3353 95.3102 92.9553 95.3102 94.6089C95.3102 96.4691 93.8662 97.2958 92.0095 97.2958C90.7717 97.2958 90.1528 96.8825 89.7402 96.8825C89.5339 96.8825 89.3276 96.6758 89.3276 96.4691C89.3276 96.2624 89.5339 96.0557 89.7402 96.0557C89.9465 96.2624 90.1528 96.2624 90.3591 96.4691Z" fill="black"></path><path d="M92.2151 98.1226C90.9773 98.1226 90.1521 97.7092 89.7395 97.5026C89.3269 97.2959 89.1206 97.0892 89.1206 96.6758C89.1206 96.2624 89.5332 95.849 89.9458 95.849C90.1521 95.849 90.1521 95.849 90.3584 96.0557H90.5647C90.9773 96.2624 91.5962 96.4691 92.2151 96.4691C92.6277 96.4691 94.278 96.2624 94.278 95.0223C94.278 93.9888 93.6591 93.7821 92.6277 93.3687C91.3899 92.9554 89.7395 92.3353 89.7395 90.2684C89.7395 88.4082 91.1836 87.168 93.0402 87.168C93.6591 87.168 94.4843 87.3747 95.1032 87.5814C95.5158 87.7881 95.7221 88.2015 95.7221 88.4082C95.7221 88.8216 95.3095 89.2349 94.8969 89.2349C94.6906 89.2349 94.4843 89.2349 94.278 89.0282C93.6591 88.8215 93.2465 88.8216 92.8339 88.8216C91.8025 88.8216 91.3899 89.4416 91.3899 90.2684C91.3899 91.0952 91.8025 91.3018 93.0402 91.7152C94.278 92.1286 96.1347 92.7487 96.1347 95.0223C95.9284 96.8825 94.4843 98.1226 92.2151 98.1226Z" fill="black"></path><path d="M97.9927 87.9948C97.9927 87.5814 98.199 87.5814 98.4053 87.5814C98.6116 87.5814 98.8179 87.7881 98.8179 87.9948V93.3688C98.8179 94.8156 98.8179 97.0892 102.119 97.0892C105.213 97.0892 105.419 94.8156 105.419 93.3688V87.9948C105.419 87.5814 105.626 87.5814 105.832 87.5814C106.038 87.5814 106.245 87.7881 106.245 87.9948V93.3688C106.245 94.8156 106.245 97.7093 102.325 97.7093C98.4053 97.7093 98.4053 94.8156 98.4053 93.3688V87.9948H97.9927Z" fill="black"></path><path d="M102.118 98.1227C97.5791 98.1227 97.5791 94.4022 97.5791 93.1621V87.7881C97.5791 87.1681 97.9917 86.9614 98.4043 86.9614C99.0232 86.9614 99.2295 87.3747 99.2295 87.7881V93.1621C99.2295 94.8156 99.4358 96.2624 101.911 96.2624C104.387 96.2624 104.593 94.8156 104.593 93.1621V87.7881C104.593 87.1681 105.006 86.9614 105.418 86.9614C106.037 86.9614 106.244 87.3747 106.244 87.7881V93.1621C106.656 94.4022 106.656 98.1227 102.118 98.1227Z" fill="black"></path><path d="M109.751 97.2959C109.751 97.7093 109.545 97.7093 109.338 97.7093C109.132 97.7093 108.926 97.5026 108.926 97.2959V89.0283C108.926 88.6149 108.926 87.7881 109.957 87.7881H111.401C112.227 87.7881 112.845 87.7881 113.464 88.2015C114.702 88.8216 114.702 90.0617 114.702 90.6818C114.702 91.5086 114.496 92.542 113.258 93.1621C112.639 93.5755 112.02 93.5755 111.195 93.5755H109.545V97.2959H109.751ZM111.195 92.542C112.02 92.542 113.877 92.542 113.877 90.4751C113.877 88.4082 112.227 88.4082 111.195 88.4082H110.164C109.751 88.4082 109.751 88.4082 109.751 88.8216V92.542H111.195Z" fill="black"></path><path d="M109.337 98.1226C108.719 98.1226 108.512 97.7093 108.512 97.2959V89.0283C108.512 87.5814 109.337 87.3748 110.163 87.3748H111.4C112.226 87.3748 112.844 87.3748 113.67 87.7881C115.114 88.6149 115.32 90.0617 115.32 90.6818C115.32 91.9219 114.701 92.9554 113.67 93.5755C112.844 93.9888 112.226 93.9888 111.4 93.9888H110.369V97.2959C110.369 97.7093 109.956 98.1226 109.337 98.1226ZM109.337 97.2959H109.956H109.337ZM110.369 92.1286H111.4C112.844 92.1286 113.463 91.9219 113.463 90.6818C113.463 89.235 112.432 89.0283 111.4 89.0283H110.369V92.1286Z" fill="black"></path><path d="M122.128 91.922C122.334 91.922 122.54 92.1286 122.54 92.3353C122.54 92.542 122.334 92.7487 122.128 92.7487H118.002V96.2625C118.002 96.6758 118.208 96.6758 118.415 96.6758H122.747C122.953 96.6758 123.159 96.8825 123.159 97.0892C123.159 97.2959 122.953 97.5026 122.747 97.5026H118.208C117.177 97.5026 117.177 96.6758 117.177 96.2625V89.0283C117.177 88.6149 117.177 87.7881 118.208 87.7881H122.54C122.747 87.7881 122.953 87.9948 122.953 88.2015C122.953 88.4082 122.747 88.6149 122.54 88.6149H118.415C118.002 88.6149 118.002 88.6149 118.002 89.0283V92.1286H122.128V91.922Z" fill="black"></path><path d="M122.747 97.916H118.208C117.383 97.916 116.558 97.7093 116.558 96.2624V89.0283C116.558 87.5814 117.383 87.3748 118.208 87.3748H122.541C123.16 87.3748 123.366 87.7881 123.366 88.2015C123.366 88.6149 122.953 89.0283 122.541 89.0283H118.415V91.5086H122.128C122.747 91.5086 122.953 91.9219 122.953 92.3353C122.953 92.7487 122.541 93.1621 122.128 93.1621H118.415V96.0557H122.747C123.366 96.0557 123.572 96.4691 123.572 96.8825C123.572 97.5026 123.16 97.916 122.747 97.916Z" fill="black"></path><path d="M131.206 96.8825C131.412 97.0892 131.412 97.0892 131.412 97.2959C131.412 97.5026 131.206 97.7093 131 97.7093C130.793 97.7093 130.793 97.5026 130.587 97.5026L127.286 92.9554H126.255V97.0892C126.255 97.5026 126.049 97.5026 125.842 97.5026C125.636 97.5026 125.43 97.2959 125.43 97.0892V88.8216C125.43 88.4082 125.43 87.5814 126.461 87.5814H128.112C130.175 87.5814 131 88.8216 131 90.2684C131 91.5085 130.381 92.9554 128.112 92.9554L131.206 96.8825ZM127.905 92.3353C128.524 92.3353 130.381 92.3353 130.381 90.4751C130.381 88.6149 128.73 88.6149 127.905 88.6149H126.667C126.255 88.6149 126.255 88.6149 126.255 89.0282V92.3353H127.905V92.3353Z" fill="black"></path><path d="M130.999 98.1226C130.586 98.1226 130.38 97.916 130.174 97.7093L127.079 93.5755H126.666V97.2959C126.666 97.9159 126.254 98.1226 125.841 98.1226C125.222 98.1226 125.016 97.7093 125.016 97.2959V89.0283C125.016 87.5814 125.841 87.3748 126.666 87.3748H128.317C130.38 87.3748 131.824 88.6149 131.824 90.4751C131.824 91.7152 131.205 93.1621 129.348 93.5755L131.824 96.6758L131.411 97.0892L131.824 96.8825C132.03 97.0892 132.03 97.2959 132.03 97.5026C132.03 97.7093 131.411 98.1226 130.999 98.1226ZM130.999 97.0892C130.999 97.0892 130.999 97.2959 130.999 97.0892V97.0892ZM126.666 91.7153H127.904C129.348 91.7153 129.761 91.3019 129.761 90.2684C129.761 89.0283 128.936 88.8216 127.904 88.8216H126.873L126.666 91.7153Z" fill="black"></path><path d="M138.633 96.4691C139.251 96.6758 139.87 96.8825 140.489 96.8825C141.727 96.8825 142.965 96.4691 142.965 94.8156C142.965 93.3687 141.933 93.162 140.902 92.7487C139.664 92.3353 138.22 91.9219 138.22 90.0617C138.22 88.6148 139.251 87.3747 141.108 87.3747C141.727 87.3747 142.346 87.5814 142.965 87.7881C143.171 87.7881 143.171 87.9948 143.171 88.2015C143.171 88.4082 142.965 88.6148 142.758 88.6148C142.758 88.6148 142.552 88.6148 142.346 88.4081C142.14 88.2015 141.521 88.2015 140.902 88.2015C139.458 88.2015 138.839 89.2349 138.839 90.0617C138.839 91.3018 139.87 91.7152 140.902 91.9219C142.14 92.3353 143.584 92.9553 143.584 94.6089C143.584 96.4691 142.14 97.2958 140.283 97.2958C139.045 97.2958 138.426 96.8825 138.014 96.8825C137.807 96.8825 137.601 96.6758 137.601 96.4691C137.601 96.2624 137.807 96.0557 138.014 96.0557C138.22 96.2624 138.426 96.2624 138.633 96.4691Z" fill="black"></path><path d="M140.488 98.1226C139.251 98.1226 138.426 97.7092 138.013 97.5026C137.6 97.2959 137.394 97.0892 137.394 96.6758C137.394 96.2624 137.807 95.849 138.219 95.849C138.426 95.849 138.426 95.849 138.632 96.0557H138.838C139.251 96.2624 139.87 96.4691 140.488 96.4691C140.901 96.4691 142.551 96.2624 142.551 95.0223C142.551 93.9888 141.933 93.7821 140.901 93.3687C139.663 92.9554 138.013 92.3353 138.013 90.2684C138.013 88.4082 139.457 87.168 141.314 87.168C141.933 87.168 142.758 87.3747 143.377 87.5814C143.789 87.7881 143.996 88.2015 143.996 88.4082C143.996 88.8216 143.583 89.2349 143.17 89.2349C142.964 89.2349 142.758 89.2349 142.551 89.0282C142.345 89.0282 141.933 88.8216 141.314 88.8216C140.282 88.8216 139.87 89.4416 139.87 90.2684C139.87 91.0952 140.282 91.3018 141.52 91.7152C142.758 92.1286 144.614 92.7487 144.614 95.0223C144.202 96.8825 142.758 98.1226 140.488 98.1226Z" fill="black"></path><path d="M147.503 94.4022L146.471 97.2959C146.471 97.5026 146.265 97.7093 146.059 97.7093C145.852 97.7093 145.646 97.5026 145.646 97.2959V97.0892L149.153 88.2015C149.153 87.9948 149.359 87.7881 149.772 87.7881C150.185 87.7881 150.391 88.2015 150.391 88.2015L153.898 97.0892C153.898 97.0892 153.898 97.2959 153.898 97.5026C153.898 97.7093 153.692 97.916 153.485 97.916C153.279 97.916 153.073 97.7093 153.073 97.5026L152.041 94.6089H147.503V94.4022ZM151.835 93.5755L149.772 88.4082L147.709 93.5755H151.835Z" fill="black"></path><path d="M153.692 98.1227C153.073 98.1227 152.867 97.7093 152.867 97.5026L151.835 94.8156H147.915L146.884 97.2959C146.884 97.5026 146.678 97.916 146.059 97.916C145.646 97.916 145.027 97.5026 145.027 97.0892C145.027 96.8825 145.027 96.8825 145.027 96.6759L148.534 87.5815C148.741 86.9614 149.36 86.7547 149.772 86.7547C150.185 86.7547 150.597 86.9614 151.01 87.5815L154.517 96.4692C154.517 96.6759 154.723 96.8825 154.723 96.8825C154.723 97.7093 154.104 98.1227 153.692 98.1227ZM148.534 93.1621H151.01L149.772 89.8551L148.534 93.1621Z" fill="black"></path><path d="M157.405 97.2958C156.373 97.2958 156.373 96.4691 156.373 96.0557V87.7881C156.373 87.3747 156.579 87.3747 156.786 87.3747C156.992 87.3747 157.198 87.5814 157.198 87.7881V96.0557C157.198 96.4691 157.405 96.4691 157.611 96.4691H160.705C160.912 96.4691 161.118 96.6758 161.118 96.8825C161.118 97.0892 160.912 97.2958 160.705 97.2958H157.405V97.2958Z" fill="black"></path><path d="M160.706 97.9159H157.405C156.58 97.9159 155.754 97.7092 155.754 96.2624V87.9948C155.754 87.3747 156.167 87.168 156.58 87.168C157.198 87.168 157.405 87.5814 157.405 87.9948V96.2624H160.293C160.912 96.2624 161.118 96.6758 161.118 97.0892C161.531 97.5026 161.118 97.9159 160.706 97.9159Z" fill="black"></path><path d="M168.132 91.922C168.339 91.922 168.545 92.1286 168.545 92.3353C168.545 92.542 168.339 92.7487 168.132 92.7487H164.006V96.2625C164.006 96.6758 164.213 96.6758 164.419 96.6758H168.751C168.957 96.6758 169.164 96.8825 169.164 97.0892C169.164 97.2959 168.957 97.5026 168.751 97.5026H164.213C163.181 97.5026 163.181 96.6758 163.181 96.2625V89.0283C163.181 88.6149 163.181 87.7881 164.213 87.7881H168.545C168.751 87.7881 168.957 87.9948 168.957 88.2015C168.957 88.4082 168.751 88.6149 168.545 88.6149H164.419C164.006 88.6149 164.006 88.6149 164.006 89.0283V92.1286H168.132V91.922Z" fill="black"></path><path d="M168.751 97.916H164.213C163.388 97.916 162.562 97.7093 162.562 96.2624V89.0283C162.562 87.5814 163.388 87.3748 164.213 87.3748H168.545C169.164 87.3748 169.37 87.7881 169.37 88.2015C169.37 88.6149 168.958 89.0283 168.545 89.0283H164.419V91.5086H168.133C168.751 91.5086 168.958 91.9219 168.958 92.3353C168.958 92.7487 168.545 93.1621 168.133 93.1621H164.419V96.0557H168.751C169.37 96.0557 169.577 96.4691 169.577 96.8825C169.783 97.5026 169.37 97.916 168.751 97.916Z" fill="black"></path><path d="M184.43 47.4834H180.716C177.416 47.4834 174.527 44.5898 174.527 41.2827V37.5623C174.527 34.2552 177.416 31.3616 180.716 31.3616H184.43C187.937 31.3616 190.619 34.2552 190.619 37.5623V41.2827C190.619 44.5898 187.937 47.4834 184.43 47.4834Z" fill="black"></path><path d="M185.462 36.3222C185.462 36.3222 185.668 36.1155 185.462 36.3222C185.875 36.3222 186.081 36.3222 186.081 36.5289V36.7356L183.193 39.6293L186.081 42.5229V42.7296C186.081 42.9363 185.875 43.143 185.668 43.143H185.462L182.574 40.2493L179.686 43.143H179.479C179.273 43.143 179.067 42.9363 179.067 42.7296V42.5229L181.955 39.6293L179.067 36.7356V36.5289C179.067 36.3222 179.273 36.1155 179.479 36.1155H179.686L182.574 39.0092L185.462 36.3222Z" fill="white"></path><path d="M185.667 43.5564C185.461 43.5564 185.255 43.5564 185.049 43.3497L182.573 40.8694L180.097 43.3497C179.891 43.5564 179.685 43.5564 179.479 43.5564C179.066 43.5564 178.653 43.143 178.653 42.7297C178.653 42.523 178.653 42.3163 178.86 42.1096L181.335 39.6293L178.86 37.149C178.653 36.9423 178.653 36.7356 178.653 36.5289C178.653 35.9089 179.479 35.4955 180.097 35.9089L182.779 38.5959L185.461 35.9089C185.667 35.7022 185.874 35.7022 186.08 35.7022C186.493 35.7022 186.905 36.1156 186.905 36.5289C186.905 36.7356 186.905 36.9423 186.699 37.149L184.223 39.6293L186.699 42.1096C186.905 42.3163 186.905 42.523 186.905 42.7297C186.493 43.143 186.08 43.5564 185.667 43.5564Z" fill="white"></path></svg> 