<?xml version="1.0" encoding="UTF-8"?> <svg xmlns="http://www.w3.org/2000/svg" width="266" height="176" viewBox="0 0 266 176" fill="none"><path d="M24.0057 0.081543H241.74C254.976 0.081543 265.565 10.6714 265.565 23.9087V151.979C265.565 165.217 254.976 175.806 241.74 175.806H24.0057C10.7696 175.806 0.180664 165.217 0.180664 151.979V23.9087C0.180664 11.0023 10.7696 0.081543 24.0057 0.081543ZM241.74 165.878C249.351 165.878 255.638 159.591 255.638 151.979V23.9087C255.638 16.2973 249.351 10.0095 241.74 10.0095H24.0057C16.3949 10.0095 10.1078 16.2973 10.1078 23.9087V151.979C10.1078 159.591 16.3949 165.878 24.0057 165.878H241.74Z" fill="black"></path><path d="M132.873 116.901C116.989 116.901 104.084 103.994 104.084 88.1094C104.084 72.2246 116.989 59.3184 132.873 59.3184C148.756 59.3184 161.661 72.2246 161.661 88.1094C161.661 103.994 148.756 116.901 132.873 116.901ZM132.873 65.606C120.629 65.606 110.702 75.534 110.702 87.7785C110.702 100.023 120.629 109.951 132.873 109.951C145.116 109.951 155.043 100.023 155.043 87.7785C155.043 75.534 145.116 65.606 132.873 65.606Z" fill="black"></path><path d="M130.226 81.1594C128.902 80.4976 127.91 80.8286 127.91 82.4832V93.7349C127.91 95.3896 128.902 96.0515 130.226 95.0587L139.822 90.0947C141.146 89.4328 141.146 88.109 139.822 87.1162L130.226 81.1594Z" fill="black"></path></svg> 