<?xml version="1.0" encoding="UTF-8"?> <svg xmlns="http://www.w3.org/2000/svg" width="455" height="178" viewBox="0 0 455 178" fill="none"><path d="M124.123 177.014H12.3068C5.62597 177.014 0 171.735 0 165.049V99.5921C0 92.9057 5.62597 87.627 12.3068 87.627H124.475C131.155 87.627 136.781 92.9057 136.781 99.5921V165.049C136.43 171.735 131.155 177.014 124.123 177.014ZM12.3068 92.5538C8.43895 92.5538 5.27434 95.721 5.27434 99.5921V165.049C5.27434 168.92 8.43895 172.087 12.3068 172.087H124.475C128.342 172.087 131.507 168.92 131.507 165.049V99.5921C131.507 95.721 128.342 92.5538 124.475 92.5538H12.3068Z" fill="#9FA0A0"></path><path d="M231.017 129.857V21.4667C231.017 10.5573 240.159 1.40747 251.059 1.40747H434.958C445.858 1.40747 455 10.5573 455 21.4667V129.505C455 140.414 445.858 149.564 434.958 149.564H251.059C240.159 149.916 231.017 140.766 231.017 129.857ZM251.059 9.85346C244.73 9.85346 239.456 15.1322 239.456 21.4667V129.505C239.456 135.84 244.73 141.118 251.059 141.118H434.958C441.287 141.118 446.561 135.84 446.561 129.505V21.4667C446.561 15.1322 441.287 9.85346 434.958 9.85346H251.059Z" fill="black"></path><path d="M83.6858 51.0273C82.2793 51.3792 81.2244 51.0273 80.8728 49.6196C80.8728 49.6196 80.5212 48.9158 80.1696 47.1562C79.8179 46.1005 80.8728 45.0447 81.9277 44.6928C82.9825 44.3409 84.0374 45.3966 84.389 46.4524C84.7407 47.5081 84.7407 48.212 84.7407 48.212C85.4439 49.6196 84.7407 50.6754 83.6858 51.0273Z" fill="black"></path><path d="M84.3888 36.5993C84.0372 36.9513 83.334 36.9513 82.9823 36.5993C81.9275 36.2474 81.2242 34.8398 81.5758 33.784C81.9275 32.3763 82.6307 30.9687 83.334 29.561C84.0372 28.5053 85.0921 28.1533 86.1469 28.5053C87.2018 29.2091 87.5534 30.2648 87.2018 31.3206C86.4986 32.3763 86.1469 33.784 85.7953 34.8398C85.4437 35.8955 84.7404 36.2474 84.3888 36.5993Z" fill="black"></path><path d="M175.81 16.1882C175.107 16.5401 174.052 16.5401 173.349 15.8362C172.294 14.7805 171.591 14.0767 170.536 13.0209C169.481 12.3171 169.481 10.9094 170.185 9.85366C170.888 8.79791 172.294 8.79791 173.349 9.50174C174.404 10.5575 175.459 11.6132 176.514 12.669C177.217 13.3728 177.217 14.7805 176.514 15.8362C176.162 15.8362 176.162 16.1882 175.81 16.1882ZM161.746 7.03833C161.394 7.39025 160.691 7.39025 159.987 7.03833C158.933 6.68641 157.526 6.3345 156.12 5.63066C155.065 5.27875 154.361 4.223 154.713 3.16725C155.065 2.1115 156.12 1.40767 157.174 1.75958C158.581 2.1115 159.987 2.46341 161.394 3.16725C162.449 3.51916 163.152 4.92683 162.8 5.98258C162.8 6.3345 162.097 6.68641 161.746 7.03833ZM144.868 4.223C144.516 4.223 144.164 4.57491 144.164 4.57491C142.758 4.57491 141.351 4.57491 139.945 4.57491C138.89 4.57491 137.835 3.87108 137.484 2.46341C137.484 1.40767 138.187 0.351916 139.593 0C141 0 142.406 0 144.164 0C145.219 0 146.274 1.05575 146.274 2.1115C146.274 3.16725 145.923 3.87108 144.868 4.223ZM93.8824 22.5227C93.1791 22.8746 92.1242 22.5227 91.421 21.8188C90.7177 20.7631 90.7177 19.7073 91.421 18.6516C92.4759 17.5958 93.5307 16.892 94.9372 15.8362C95.9921 15.1324 97.3986 15.4843 98.1018 16.1882C98.8051 17.5958 98.4534 19.0035 97.7502 19.7073C96.6953 20.4112 95.6405 21.4669 94.5856 22.1707C94.234 22.5227 94.234 22.5227 93.8824 22.5227ZM128.341 6.3345C127.99 6.3345 127.99 6.3345 128.341 6.3345C127.287 6.68641 126.583 6.68641 125.88 7.03833L123.77 7.74216C122.715 8.09408 121.309 7.39024 120.957 6.3345C120.606 5.27875 121.309 3.87108 122.364 3.51916L124.474 2.81533C125.177 2.46342 125.88 2.46341 126.583 2.46341C127.638 2.1115 129.045 2.81533 129.045 3.87108C129.748 4.92683 129.045 5.98258 128.341 6.3345ZM108.299 13.3728C107.244 13.7247 105.838 13.3728 105.486 12.3171C105.134 11.2613 105.486 9.85366 106.541 9.50174C107.244 9.14983 108.299 8.79791 109.354 8.44599L110.76 7.74216C111.815 7.39025 113.222 7.74216 113.573 8.79791C113.925 9.85366 113.573 11.2613 112.518 11.6132L111.112 12.3171C109.705 12.669 109.002 13.0209 108.299 13.3728Z" fill="black"></path><path d="M184.602 28.5054C183.547 28.8573 182.492 28.5054 181.789 27.4496C181.437 26.7458 181.086 26.3939 180.734 25.6901C180.031 24.6343 180.382 23.2266 181.437 22.8747C182.492 22.1709 183.899 22.5228 184.25 23.5786C184.602 24.2824 184.954 24.9862 185.305 25.6901C186.36 26.3939 185.657 27.8016 184.602 28.5054Z" fill="black"></path><path d="M168.426 27.4497L189.875 45.7494L195.149 17.948L168.426 27.4497Z" fill="black"></path></svg> 