<?xml version="1.0" encoding="UTF-8"?> <svg xmlns="http://www.w3.org/2000/svg" width="436" height="211" viewBox="0 0 436 211" fill="none"><path d="M423.354 210.798H311.187C304.506 210.798 298.88 205.519 298.88 198.833V133.376C298.88 126.69 304.506 121.411 311.187 121.411H423.354C430.035 121.411 435.661 126.69 435.661 133.376V198.833C435.661 205.519 430.035 210.798 423.354 210.798ZM311.187 126.338C307.319 126.338 304.154 129.505 304.154 133.376V198.833C304.154 202.704 307.319 205.871 311.187 205.871H423.354C427.222 205.871 430.387 202.704 430.387 198.833V133.376C430.387 129.505 427.222 126.338 423.354 126.338H311.187Z" fill="black"></path><path d="M0 128.45V20.0592C0 9.14982 9.1422 0 20.0425 0H203.941C214.842 0 223.984 9.14982 223.984 20.0592V128.098C223.984 139.007 214.842 148.157 203.941 148.157H20.0425C9.1422 148.509 0 139.359 0 128.45ZM20.0425 8.44598C13.7133 8.44598 8.43895 13.7247 8.43895 20.0592V128.098C8.43895 134.432 13.7133 139.711 20.0425 139.711H203.941C210.271 139.711 215.545 134.432 215.545 128.098V20.0592C215.545 13.7247 210.271 8.44598 203.941 8.44598H20.0425Z" fill="#9FA0A0"></path><path d="M254.574 48.5646C253.168 48.2127 252.465 47.1569 252.816 46.1012C252.816 46.1012 253.168 45.0454 253.519 43.6378C253.871 42.582 255.278 41.8782 256.332 42.582C257.387 42.9339 258.09 44.3416 257.387 45.3973C257.036 46.4531 256.684 47.1569 256.684 47.1569C256.684 48.2127 255.629 48.9165 254.574 48.5646Z" fill="black"></path><path d="M262.662 36.5994C262.311 36.5994 261.607 36.2475 261.256 35.8956C260.553 34.8398 260.552 33.7841 261.607 32.7283C262.662 31.6726 264.069 30.9688 265.475 29.9131C266.53 29.2092 267.937 29.5611 268.288 30.6169C268.991 31.6726 268.64 33.0803 267.585 33.4322C266.53 34.136 265.475 34.8398 264.42 35.5437C264.069 36.2475 263.365 36.5994 262.662 36.5994Z" fill="black"></path><path d="M351.271 67.216C350.568 67.216 349.865 66.5122 349.513 65.4564C349.162 64.0488 348.81 62.993 348.458 61.5854C348.107 60.5296 348.81 59.1219 349.865 58.77C350.92 58.4181 352.326 59.1219 352.678 60.1777C353.029 61.5853 353.733 62.993 354.084 64.4007C354.436 65.4565 353.733 66.8641 352.326 66.8641C351.975 67.216 351.623 67.216 351.271 67.216ZM344.239 52.0836C343.536 52.0836 343.184 51.7317 342.832 51.3798C342.129 50.324 341.074 49.2683 340.371 48.2125C339.668 47.5087 339.668 46.101 340.371 45.0453C341.074 44.3415 342.481 44.3415 343.536 45.0453C344.59 46.101 345.645 47.1568 346.349 48.5645C347.052 49.6202 347.052 51.0279 345.997 51.7317C345.294 52.0836 344.59 52.0836 344.239 52.0836ZM331.58 40.8223C331.229 40.8223 330.877 40.8223 330.877 40.4704C329.822 39.7666 328.416 39.0627 327.361 38.3589C326.306 37.655 325.954 36.5993 326.306 35.5436C327.009 34.4878 328.064 34.1359 329.119 34.4878C330.526 35.1916 331.58 35.8955 332.987 36.5993C334.042 37.3031 334.393 38.7108 333.69 39.4146C332.987 40.4704 332.284 40.8223 331.58 40.8223ZM278.134 29.561C277.079 29.561 276.376 28.8571 276.376 27.8014C276.024 26.7456 277.079 25.338 278.134 25.338C279.54 24.9861 280.947 24.9861 282.705 24.6342C283.76 24.6342 284.815 25.338 285.166 26.7456C285.166 27.8014 284.463 28.8571 283.056 29.2091C281.65 29.2091 280.243 29.561 279.189 29.9129C278.837 29.561 278.485 29.561 278.134 29.561ZM316.109 33.784H315.757C315.054 33.4321 314.351 33.432 313.999 33.0801L311.89 32.3763C310.835 32.0244 310.131 30.9686 310.483 29.561C310.835 28.5052 311.89 27.8014 313.296 28.1533L315.406 28.8571C316.109 29.2091 316.812 29.209 317.515 29.561C318.57 29.9129 319.274 30.9686 318.922 32.3763C317.867 33.4321 316.812 34.1359 316.109 33.784ZM295.363 29.2091C294.308 29.2091 293.253 28.1533 293.605 26.7456C293.605 25.6899 294.66 24.6341 296.066 24.9861C297.121 24.9861 297.825 25.338 298.879 25.338L300.286 25.6899C301.341 26.0418 302.396 27.0976 302.044 28.1533C301.692 29.2091 300.638 30.2648 299.583 29.9129L298.176 29.561C297.121 29.561 296.066 29.561 295.363 29.2091Z" fill="black"></path><path d="M352.325 82.3486C351.27 82.3486 350.566 81.2929 350.566 80.2372C350.566 79.5333 350.566 78.8295 350.566 78.1257C350.566 77.0699 351.621 76.0142 352.676 76.0142C353.731 76.0142 354.786 77.0699 354.786 78.1257C354.786 78.8295 354.786 79.5333 354.786 80.2372C354.786 81.2929 353.731 82.3486 352.325 82.3486C352.325 82.3486 352.676 82.3486 352.325 82.3486Z" fill="black"></path><path d="M339.314 72.8473L348.105 99.9448L366.741 78.8299L339.314 72.8473Z" fill="black"></path></svg> 