<?xml version="1.0" encoding="UTF-8"?> <svg xmlns="http://www.w3.org/2000/svg" width="403" height="205" viewBox="0 0 403 205" fill="none"><path d="M220.179 188.147V100.34C220.179 91.2446 227.527 83.8979 236.626 83.8979H386.398C395.497 83.8979 402.845 91.2446 402.845 100.34V188.147C402.845 197.242 395.497 204.588 386.398 204.588H236.626C227.527 204.588 220.179 197.242 220.179 188.147ZM236.276 90.8945C231.027 90.8945 226.828 95.0927 226.828 100.34V188.147C226.828 193.394 231.027 197.592 236.276 197.592H386.048C391.298 197.592 395.497 193.394 395.497 188.147V100.34C395.497 95.0927 391.298 90.8945 386.048 90.8945H236.276Z" fill="black"></path><path d="M211.692 23.7638C210.643 23.7638 209.944 22.7153 209.944 22.0163C209.944 22.0163 209.944 21.3175 210.294 19.9195C210.643 18.8711 211.342 18.5215 212.391 18.5215C213.439 18.871 213.788 19.5699 213.788 20.6183C213.439 21.3173 213.439 22.0163 213.439 22.0163C213.439 23.0648 212.74 23.7638 211.692 23.7638Z" fill="black"></path><path d="M216.934 12.9301C216.584 12.9301 216.235 12.9302 215.886 12.5808C215.187 11.8819 215.187 10.8334 215.886 10.1345C216.584 9.08617 217.633 8.38747 218.681 7.68859C219.38 6.98972 220.429 7.33907 221.128 8.03794C221.826 8.73682 221.477 9.78496 220.778 10.4838C220.079 11.1827 219.031 11.8819 218.332 12.5808C217.982 12.9302 217.283 12.9301 216.934 12.9301Z" fill="black"></path><path d="M291.717 27.6073C291.018 27.6073 290.319 27.2581 289.97 26.5592C289.621 25.5108 289.271 24.4624 288.572 23.414C288.223 22.7151 288.572 21.6664 289.271 20.9675C289.97 20.6181 291.018 20.9678 291.717 21.6667C292.416 22.7151 292.766 23.7635 293.115 24.8119C293.465 25.8603 293.115 26.5591 292.067 26.9086C292.067 27.6075 291.717 27.6073 291.717 27.6073ZM284.029 16.0754C283.68 16.0754 282.981 16.0751 282.981 15.7256C282.282 15.0267 281.233 14.3279 280.535 13.629C279.836 12.9301 279.486 11.8819 280.185 11.1829C280.884 10.484 281.933 10.1346 282.631 10.8336C283.68 11.5325 284.379 12.5807 285.427 13.2796C286.126 13.9785 286.126 15.0267 285.427 15.7256C285.078 16.0751 284.728 16.0754 284.029 16.0754ZM272.497 8.3871C272.148 8.3871 272.148 8.3871 271.798 8.3871C270.75 8.03764 269.701 7.68843 268.653 7.33898C267.605 6.98952 267.255 5.9408 267.605 5.24188C267.954 4.19351 269.002 3.8443 269.701 4.19376C270.75 4.54322 272.148 4.89276 273.196 5.59168C274.244 5.94114 274.594 6.98935 274.244 8.03772C273.895 8.03772 273.196 8.3871 272.497 8.3871ZM228.465 5.59168C227.766 5.59168 227.067 5.24205 226.718 4.54313C226.368 3.49476 227.067 2.79593 227.766 2.44647C228.815 2.09701 229.863 1.74738 231.261 1.39792C232.309 1.04846 233.008 1.74746 233.358 2.79584C233.707 3.84422 233.008 4.54305 231.96 4.89251C230.911 5.24197 229.863 5.5916 228.815 5.94106C228.815 5.5916 228.815 5.59168 228.465 5.59168ZM259.218 4.89251C258.519 4.89251 257.82 4.54313 257.47 4.54313L255.723 4.19376C254.675 4.19376 253.976 3.14547 254.325 2.09709C254.325 1.04872 255.374 0.349715 256.422 0.699174L258.169 1.04855C258.868 1.04855 259.218 1.04846 259.917 1.39792C260.965 1.39792 261.664 2.44621 261.314 3.49459C260.965 4.19351 260.266 4.89251 259.218 4.89251ZM242.094 3.49459C241.046 3.49459 240.347 2.79567 240.347 1.74729C240.347 0.698918 241.046 0 242.094 0C242.793 0 243.841 0 244.54 0H245.589C246.637 0 247.336 0.698918 247.336 1.74729C247.336 2.79567 246.637 3.49459 245.589 3.49459H244.54C243.492 3.49459 242.793 3.49459 242.094 3.49459Z" fill="black"></path><path d="M294.164 39.4894C293.116 39.4894 292.417 38.7904 292.417 37.742C292.417 37.0431 292.417 36.6936 292.417 35.9947C292.417 34.9463 293.116 34.2474 293.815 33.8979C294.863 33.8979 295.562 34.597 295.911 35.2959C295.911 35.9948 295.911 36.3443 295.911 37.0432C295.911 38.4411 295.213 39.4894 294.164 39.4894Z" fill="black"></path><path d="M282.633 33.5483L292.767 54.1667L305.348 34.9459L282.633 33.5483Z" fill="black"></path><path d="M141.607 120.594H3.50512C1.40205 120.594 0 119.197 0 117.1C0 115.003 1.40205 113.605 3.50512 113.605H141.607C145.112 113.605 147.916 110.809 147.916 107.314V21.3394C147.916 19.2424 149.318 17.8445 151.421 17.8445C153.524 17.8445 154.927 19.2424 154.927 21.3394V107.314C155.277 114.653 148.968 120.594 141.607 120.594Z" fill="black"></path></svg> 