<?xml version="1.0" encoding="UTF-8"?> <svg xmlns="http://www.w3.org/2000/svg" width="289" height="239" viewBox="0 0 289 239" fill="none"><path d="M0.758516 77.5777L20.3952 15.8612C23.5511 4.28931 35.4736 -2.37345 47.0452 0.782515L238.504 53.3819C250.075 56.5378 256.738 68.4603 253.582 80.0321L222.724 192.595C219.568 204.167 207.646 210.829 196.074 207.673L15.8367 104.228C4.6157 100.721 -2.3974 88.7989 0.758516 77.5777ZM44.9412 9.1985C38.2787 7.44519 31.2657 11.3025 29.5124 17.9651L9.87551 79.6816C8.12222 86.3441 11.9794 93.3575 18.6419 95.1108L198.88 198.556C205.542 200.31 212.555 196.452 214.309 189.79L245.166 77.2271C246.92 70.5645 243.062 63.5512 236.4 61.7979L44.9412 9.1985Z" fill="black"></path><path d="M224.478 238.532C202.738 238.532 184.504 225.207 184.153 225.207C182.75 224.155 182.4 221.7 183.451 220.297C184.503 218.895 186.958 218.544 188.361 219.596C189.763 220.648 222.024 244.493 250.778 222.752C280.934 199.608 266.557 169.802 265.856 168.399C265.155 166.646 265.856 164.542 267.259 163.841C269.012 163.139 271.116 163.841 271.817 165.243C278.129 177.867 282.688 206.972 254.635 228.363C244.817 236.077 234.297 238.532 224.478 238.532Z" fill="black"></path><path d="M258.143 186.984L262 188.387L268.662 168.75L287.247 176.815L289 172.958L265.857 163.49L258.143 186.984Z" fill="black"></path></svg> 