<?xml version="1.0" encoding="UTF-8"?> <svg xmlns="http://www.w3.org/2000/svg" width="869" height="573" viewBox="0 0 869 573" fill="none"><path d="M485.233 539.241V354.301C485.233 335.22 500.645 319.809 519.726 319.809H833.825C852.905 319.809 868.317 335.22 868.317 354.301V538.507C868.317 557.588 852.905 573 833.825 573H519.726C499.911 573 485.233 558.322 485.233 539.241ZM518.992 334.486C507.983 334.486 499.177 343.293 499.177 354.301V538.507C499.177 549.515 507.983 558.322 518.992 558.322H833.091C844.099 558.322 852.905 549.515 852.905 538.507V354.301C852.905 343.293 844.099 334.486 833.091 334.486H518.992Z" fill="black"></path><path d="M0 219.432V34.4924C0 15.4113 15.4115 0 34.4923 0H348.591C367.672 0 383.084 15.4113 383.084 34.4924V218.698C383.084 237.779 367.672 253.192 348.591 253.192H34.4923C14.6776 253.192 0 238.513 0 219.432ZM33.7581 14.6778C22.75 14.6778 13.9434 23.4841 13.9434 34.4924V218.698C13.9434 229.707 22.75 238.514 33.7581 238.514H347.857C358.865 238.514 367.672 229.707 367.672 218.698V34.4924C367.672 23.4841 358.865 14.6778 347.857 14.6778H33.7581Z" fill="#DDDDDD"></path><path d="M466.885 193.58C464.684 193.58 463.216 191.379 463.216 189.911C463.216 189.911 463.216 188.443 463.95 185.507C464.683 183.305 466.152 182.571 468.353 182.571C470.555 183.305 471.289 184.773 471.289 186.975C470.555 188.443 470.555 189.911 470.555 189.911C470.555 192.112 469.087 193.58 466.885 193.58Z" fill="black"></path><path d="M477.891 171.563C477.157 171.563 476.424 171.563 475.69 170.829C474.222 169.362 474.222 167.16 475.69 165.692C477.157 163.491 479.359 162.022 481.561 160.555C483.028 159.087 485.23 159.82 486.698 161.288C488.166 162.756 487.432 164.958 485.964 166.426C484.496 167.894 482.294 169.362 480.827 170.829C479.359 170.829 478.625 171.563 477.891 171.563Z" fill="black"></path><path d="M634.942 201.653C633.474 201.653 632.007 200.92 631.273 199.452C630.539 197.25 629.805 195.048 628.338 192.847C627.604 191.379 628.338 189.177 629.805 187.71C631.273 186.976 633.474 187.709 634.942 189.177C636.41 191.379 637.144 193.581 637.878 195.782C638.612 197.984 637.878 199.452 635.676 200.186C635.676 201.653 634.942 201.653 634.942 201.653ZM618.797 177.435C618.063 177.435 616.595 177.435 616.595 176.701C615.128 175.233 612.926 173.765 611.459 172.297C609.991 170.829 609.257 168.628 610.724 167.16C612.192 165.692 614.394 164.958 615.862 166.426C618.063 167.894 619.531 170.095 621.733 171.563C623.2 173.031 623.2 175.233 621.733 176.701C620.999 177.435 619.531 177.435 618.797 177.435ZM594.579 162.023C593.845 162.023 593.845 162.023 593.112 162.023C590.91 161.289 588.708 160.555 586.507 159.821C584.305 159.087 583.571 156.885 584.305 155.418C585.039 153.216 587.24 152.482 588.708 153.216C590.91 153.949 593.845 154.684 596.047 156.151C598.248 156.885 598.982 159.087 598.248 161.288C597.514 161.288 596.047 162.023 594.579 162.023ZM502.111 156.151C500.643 156.151 499.175 155.417 498.441 153.949C497.707 151.748 499.175 150.28 500.643 149.546C502.844 148.812 505.046 148.079 507.982 147.345C510.183 146.611 511.651 148.078 512.385 150.28C513.119 152.481 511.651 153.95 509.449 154.684C507.248 155.418 505.046 156.151 502.844 156.885C502.844 156.151 502.845 156.151 502.111 156.151ZM566.692 153.949C565.224 153.949 563.756 153.216 563.022 153.216L559.353 152.482C557.151 152.482 555.684 150.28 556.418 148.079C556.418 145.877 558.619 144.409 560.821 145.143L564.49 145.876C565.958 145.876 566.692 145.876 568.16 146.61C570.361 146.61 571.829 148.813 571.095 151.014C570.361 152.482 568.893 153.949 566.692 153.949ZM530.732 151.014C528.53 151.014 527.063 149.547 527.063 147.345C527.063 145.143 528.53 143.675 530.732 143.675C532.2 143.675 534.401 143.675 535.869 143.675H538.071C540.272 143.675 541.74 145.143 541.74 147.345C541.74 149.547 540.272 151.014 538.071 151.014H535.869C533.667 151.014 532.2 151.014 530.732 151.014Z" fill="black"></path><path d="M640.081 226.605C637.88 226.605 636.412 225.137 636.412 222.935C636.412 221.468 636.412 220.734 636.412 219.266C636.412 217.064 637.88 215.597 639.347 214.863C641.549 214.863 643.016 216.331 643.75 217.799C643.75 219.266 643.75 220 643.75 221.468C643.75 225.138 642.283 226.605 640.081 226.605Z" fill="black"></path><path d="M615.861 214.129L637.144 257.429L663.563 217.799L615.861 214.129Z" fill="black"></path></svg> 