<?xml version="1.0" encoding="UTF-8"?> <svg xmlns="http://www.w3.org/2000/svg" width="247" height="194" viewBox="0 0 247 194" fill="none"><path d="M224.688 193.823H22.72C10.4423 193.823 0.620117 184 0.620117 171.722L35.3045 52.9343C35.3045 40.6564 45.1267 30.8342 57.4043 30.8342H192.766C205.043 30.8342 214.865 40.6564 214.865 52.9343L246.787 171.722C246.787 184 236.965 193.823 224.688 193.823ZM57.4043 40.3496C50.3447 40.3496 44.5127 46.1815 44.5127 53.2413L9.82837 172.029C9.82837 179.089 15.6603 184.921 22.72 184.921H224.688C231.747 184.921 237.579 179.089 237.579 172.029L205.657 53.2413C205.657 46.1815 199.825 40.3496 192.766 40.3496H57.4043Z" fill="black"></path><path d="M136.595 106.65C136.595 106.65 136.288 106.65 136.595 106.65C134.753 106.65 133.526 105.115 133.526 103.274C136.595 67.6678 135.367 25.3091 123.397 13.0312C106.822 -3.8508 75.5136 17.3285 75.2066 17.6354C73.6719 18.5563 71.8304 18.2494 70.9096 16.7146C69.9888 15.1799 70.2957 13.3383 71.8304 12.4174C73.3651 11.4966 107.743 -12.1383 127.694 8.73402C143.962 25.6161 141.506 80.8664 139.664 103.58C139.357 105.422 138.13 106.65 136.595 106.65Z" fill="black"></path><path d="M152.249 92.8373L149.793 90.0748L136.595 102.353L125.545 88.2332L122.476 90.6888L136.288 107.571L152.249 92.8373Z" fill="black"></path></svg> 