<?xml version="1.0" encoding="UTF-8"?> <svg xmlns="http://www.w3.org/2000/svg" width="1167" height="489" viewBox="0 0 1167 489" fill="none"><path d="M287.829 261.115H283.939C281.605 261.115 280.049 259.559 280.049 257.224C280.049 254.889 281.605 253.333 283.939 253.333H287.829C289.773 253.333 291.718 254.889 291.718 257.224C291.718 259.17 290.162 261.115 288.218 261.115H287.829ZM264.102 261.115H260.213C257.879 261.115 256.323 259.559 256.323 257.224C256.323 254.889 257.879 253.333 260.213 253.333H264.102C266.436 253.333 267.992 254.889 267.992 257.224C267.992 259.559 266.436 261.115 264.102 261.115ZM240.765 261.115H236.875C234.541 261.115 232.986 259.559 232.986 257.224C232.986 254.889 234.541 253.333 236.875 253.333H240.765C243.098 253.333 244.654 254.889 244.654 257.224C244.654 259.559 242.71 261.115 240.765 261.115ZM217.038 261.115H213.149C210.815 261.115 209.259 259.559 209.259 257.224C209.259 254.889 210.815 253.333 213.149 253.333H217.038C219.372 253.333 220.928 254.889 220.928 257.224C220.928 259.559 219.372 261.115 217.038 261.115ZM193.701 261.115H189.811C187.478 261.115 185.922 259.559 185.922 257.224C185.922 254.889 187.478 253.333 189.811 253.333H193.701C196.035 253.333 197.59 254.889 197.59 257.224C197.59 259.559 196.035 261.115 193.701 261.115ZM170.363 261.115H166.474C164.14 261.115 162.584 259.559 162.584 257.224C162.584 254.889 164.14 253.333 166.474 253.333H170.363C172.697 253.333 174.253 254.889 174.253 257.224C174.253 259.559 172.308 261.115 170.363 261.115ZM146.637 261.115H142.747C140.414 261.115 138.858 259.559 138.858 257.224C138.858 254.889 140.414 253.333 142.747 253.333H146.637C148.971 253.333 150.527 254.889 150.527 257.224C150.527 259.559 148.971 261.115 146.637 261.115ZM123.3 261.115H119.41C117.076 261.115 115.52 259.559 115.52 257.224C115.52 254.889 117.076 253.333 119.41 253.333H123.3C125.633 253.333 127.189 254.889 127.189 257.224C127.189 259.559 125.244 261.115 123.3 261.115ZM99.5731 261.115H95.6836C93.3498 261.115 91.794 259.559 91.794 257.224C91.794 254.889 93.3498 253.333 95.6836 253.333H99.5731C101.907 253.333 103.463 254.889 103.463 257.224C103.463 259.559 101.907 261.115 99.5731 261.115ZM76.2357 261.115H72.3461C70.0124 261.115 68.4565 259.559 68.4565 257.224C68.4565 254.889 70.0124 253.333 72.3461 253.333H76.2357C78.5694 253.333 80.1253 254.889 80.1253 257.224C80.1253 259.559 78.1805 261.115 76.2357 261.115ZM52.5093 261.115H48.6197C46.286 261.115 44.7301 259.559 44.7301 257.224C44.7301 254.889 46.286 253.333 48.6197 253.333H52.5093C54.843 253.333 56.3988 254.889 56.3988 257.224C56.3988 259.559 54.843 261.115 52.5093 261.115ZM29.1718 260.726C28.7829 260.726 28.7829 260.726 29.1718 260.726C27.227 260.726 25.6712 260.337 24.5043 259.948C22.5595 259.559 21.0037 257.224 21.7816 255.278C22.1706 253.333 24.5043 251.776 26.4491 252.554C27.227 252.943 28.3939 252.943 29.5608 252.943C31.5056 253.333 33.4504 254.889 33.0614 257.224C32.6724 259.17 31.1166 260.726 29.1718 260.726ZM306.11 254.111C304.943 254.111 303.776 253.722 302.998 252.943C301.442 251.387 301.831 249.052 303.387 247.495C304.165 246.717 304.943 245.939 305.721 245.161C307.276 243.604 309.61 243.215 311.166 244.771C312.722 246.328 313.111 248.663 311.555 250.219C310.388 251.387 309.61 252.554 308.443 253.333C308.054 253.722 306.888 254.111 306.11 254.111ZM9.33498 249.441C8.16811 249.441 7.00124 249.052 6.22332 247.885C5.44541 246.717 4.66749 245.55 3.88958 243.993C2.7227 242.047 3.50062 239.713 5.44541 238.545C7.39019 237.378 9.72394 238.156 10.8908 240.102C11.2798 241.269 11.6687 242.437 12.4466 243.215C13.6135 245.161 13.2246 247.495 11.6687 248.663C10.8908 249.052 10.1129 249.441 9.33498 249.441ZM315.834 233.486C315.445 233.486 315.445 233.486 315.834 233.486C313.5 233.486 311.944 231.541 311.944 229.595V225.703C311.944 223.368 313.5 221.812 315.834 221.812C318.167 221.812 319.723 223.368 319.723 225.703V229.206V229.595C319.334 231.93 317.778 233.486 315.834 233.486ZM3.88958 227.26C1.55583 227.26 0 225.703 0 223.369V219.477C0 217.142 1.55583 215.586 3.88958 215.586C6.22332 215.586 7.77915 217.142 7.77915 219.477V223.369C7.77915 225.314 6.22332 227.26 3.88958 227.26ZM315.834 209.748C313.5 209.748 311.944 208.192 311.944 205.857V201.966C311.944 199.631 313.5 198.074 315.834 198.074C318.167 198.074 319.723 199.631 319.723 201.966V205.857C319.723 208.192 317.778 209.748 315.834 209.748ZM3.88958 203.522C1.55583 203.522 0 201.966 0 199.631V195.739C0 193.404 1.55583 191.848 3.88958 191.848C6.22332 191.848 7.77915 193.404 7.77915 195.739V199.631C7.77915 201.966 6.22332 203.522 3.88958 203.522ZM315.834 186.4C313.5 186.4 311.944 184.843 311.944 182.508V178.617C311.944 176.282 313.5 174.726 315.834 174.726C318.167 174.726 319.723 176.282 319.723 178.617V182.508C319.723 184.454 317.778 186.4 315.834 186.4ZM3.88958 180.174C1.55583 180.174 0 178.617 0 176.282V172.391C0 170.056 1.55583 168.499 3.88958 168.499C6.22332 168.499 7.77915 170.056 7.77915 172.391V176.282C7.77915 178.228 6.22332 180.174 3.88958 180.174ZM315.834 162.662C313.5 162.662 311.944 161.106 311.944 158.771V154.879C311.944 152.544 313.5 150.988 315.834 150.988C318.167 150.988 319.723 152.544 319.723 154.879V158.771C319.723 161.106 317.778 162.662 315.834 162.662ZM3.88958 156.436C1.55583 156.436 0 154.879 0 152.544V148.653C0 146.318 1.55583 144.761 3.88958 144.761C6.22332 144.761 7.77915 146.318 7.77915 148.653V152.544C7.77915 154.879 6.22332 156.436 3.88958 156.436ZM315.834 139.313C313.5 139.313 311.944 137.757 311.944 135.422V131.531C311.944 129.196 313.5 127.639 315.834 127.639C318.167 127.639 319.723 129.196 319.723 131.531V135.422C319.723 137.368 317.778 139.313 315.834 139.313ZM3.88958 133.087C1.55583 133.087 0 131.531 0 129.196V125.304C0 122.969 1.55583 121.413 3.88958 121.413C6.22332 121.413 7.77915 122.969 7.77915 125.304V129.196C7.77915 131.141 6.22332 133.087 3.88958 133.087ZM315.834 115.576C313.5 115.576 311.944 114.019 311.944 111.684V107.793C311.944 105.458 313.5 103.901 315.834 103.901C318.167 103.901 319.723 105.458 319.723 107.793V111.684C319.723 114.019 317.778 115.576 315.834 115.576ZM3.88958 109.349C1.55583 109.349 0 107.793 0 105.458V101.567C0 99.2317 1.55583 97.6751 3.88958 97.6751C6.22332 97.6751 7.77915 99.2317 7.77915 101.567V105.458C7.77915 107.793 6.22332 109.349 3.88958 109.349ZM315.834 92.2271C313.5 92.2271 311.944 90.6705 311.944 88.3356V84.4442C311.944 82.1093 313.5 80.5528 315.834 80.5528C318.167 80.5528 319.723 82.1093 319.723 84.4442V88.3356C319.723 90.2814 317.778 92.2271 315.834 92.2271ZM3.88958 86.0008C1.55583 86.0008 0 84.4442 0 82.1093V78.2179C0 75.883 1.94479 74.3265 3.88958 74.3265C6.22332 74.3265 7.77915 76.2722 7.77915 78.2179V82.1093C7.77915 84.0551 6.22332 86.0008 3.88958 86.0008ZM312.333 69.2676C310.777 69.2676 309.61 68.4893 308.832 67.3219C308.443 66.1544 307.665 65.3762 306.888 64.5979C305.721 63.0413 306.11 60.3173 307.665 59.1499C309.221 57.9824 311.944 58.3716 313.111 59.9281C313.889 61.0956 314.667 62.263 315.445 63.8196C316.611 65.7653 315.834 68.1002 313.889 69.2676C313.5 69.2676 313.111 69.2676 312.333 69.2676ZM10.8908 64.2087C10.1129 64.2087 8.94602 63.8196 8.16811 63.4304C6.61228 61.8739 6.22332 59.539 7.77915 57.9824C8.94602 56.815 9.72394 55.6476 10.8908 54.8693C12.4466 53.3127 15.1693 53.7019 16.3362 55.2584C17.892 56.815 17.5031 59.539 15.9473 60.7064C15.1693 61.4847 14.3914 62.263 13.6135 63.0413C12.8356 63.8196 12.0577 64.2087 10.8908 64.2087ZM294.052 55.2584C293.663 55.2584 293.274 55.2584 293.274 55.2584C292.107 54.8693 290.94 54.8693 289.773 54.8693C287.829 54.4801 285.884 52.9236 286.273 50.5887C286.273 48.2538 288.218 47.0864 290.551 47.0864C292.107 47.0864 293.663 47.4756 294.83 47.8647C296.775 48.2538 298.33 50.5887 297.553 52.5344C297.553 54.091 295.997 55.2584 294.052 55.2584ZM270.714 54.4801H266.825C264.491 54.4801 262.935 52.9236 262.935 50.5887C262.935 48.2538 264.491 46.6973 266.825 46.6973H270.714C273.048 46.6973 274.604 48.2538 274.604 50.5887C274.604 52.9236 273.048 54.4801 270.714 54.4801ZM247.377 54.4801H243.487C241.154 54.4801 239.598 52.9236 239.598 50.5887C239.598 48.2538 241.154 46.6973 243.487 46.6973H247.377C249.711 46.6973 251.267 48.2538 251.267 50.5887C251.267 52.9236 249.322 54.4801 247.377 54.4801ZM223.651 54.4801H219.761C217.427 54.4801 215.871 52.9236 215.871 50.5887C215.871 48.2538 217.427 46.6973 219.761 46.6973H223.651C225.984 46.6973 227.54 48.2538 227.54 50.5887C227.54 52.9236 225.984 54.4801 223.651 54.4801ZM200.313 54.4801H196.424C194.09 54.4801 192.534 52.9236 192.534 50.5887C192.534 48.2538 194.09 46.6973 196.424 46.6973H200.313C202.647 46.6973 204.203 48.2538 204.203 50.5887C204.203 52.9236 202.258 54.4801 200.313 54.4801ZM176.587 54.4801H172.697C170.363 54.4801 168.808 52.9236 168.808 50.5887C168.808 48.2538 170.363 46.6973 172.697 46.6973H176.587C178.92 46.6973 180.476 48.2538 180.476 50.5887C180.476 52.9236 178.92 54.4801 176.587 54.4801ZM153.249 54.4801H149.36C147.026 54.4801 145.47 52.9236 145.47 50.5887C145.47 48.2538 147.026 46.6973 149.36 46.6973H153.249C155.583 46.6973 157.139 48.2538 157.139 50.5887C157.139 52.9236 155.194 54.4801 153.249 54.4801ZM129.523 54.4801H125.633C123.3 54.4801 121.744 52.9236 121.744 50.5887C121.744 48.2538 123.3 46.6973 125.633 46.6973H129.523C131.857 46.6973 133.412 48.2538 133.412 50.5887C133.412 52.9236 131.857 54.4801 129.523 54.4801ZM106.185 54.4801H102.296C99.9621 54.4801 98.4063 52.9236 98.4063 50.5887C98.4063 48.2538 99.9621 46.6973 102.296 46.6973H106.185C108.519 46.6973 110.075 48.2538 110.075 50.5887C110.075 52.9236 108.13 54.4801 106.185 54.4801ZM82.459 54.4801H78.5694C76.2357 54.4801 74.6799 52.9236 74.6799 50.5887C74.6799 48.2538 76.2357 46.6973 78.5694 46.6973H82.459C84.7928 46.6973 86.3486 48.2538 86.3486 50.5887C86.3486 52.9236 84.7928 54.4801 82.459 54.4801ZM59.1216 54.4801H55.232C52.8982 54.4801 51.3424 52.9236 51.3424 50.5887C51.3424 48.2538 52.8982 46.6973 55.232 46.6973H59.1216C61.4553 46.6973 63.0111 48.2538 63.0111 50.5887C63.0111 52.9236 61.0663 54.4801 59.1216 54.4801ZM35.3951 54.4801H31.5056C29.1718 54.4801 27.616 52.9236 27.616 50.5887C27.616 48.2538 29.1718 46.6973 31.8945 46.6973H35.3951C37.7289 46.6973 39.2847 48.2538 39.2847 50.5887C39.2847 52.9236 37.7289 54.4801 35.3951 54.4801Z" fill="black"></path><path d="M162.975 105.457C164.141 105.457 164.919 106.235 164.919 107.403V233.485C164.919 234.653 164.141 235.431 162.975 235.431C161.808 235.431 161.03 234.653 161.03 233.485V107.403C161.03 106.624 162.197 105.457 162.975 105.457Z" fill="black"></path><path d="M162.975 237.377C160.641 237.377 159.085 235.82 159.085 233.485V107.403C159.085 105.068 160.641 103.511 162.975 103.511C165.308 103.511 166.864 105.068 166.864 107.403V233.485C166.864 235.431 165.308 237.377 162.975 237.377ZM162.975 105.457V107.403V105.457Z" fill="black"></path><path d="M178.533 120.244L175.81 122.579L162.974 108.959L150.139 122.579L147.416 120.244L162.974 103.511L178.533 120.244Z" fill="black"></path><path d="M175.809 125.693L162.974 111.684L150.527 125.693L144.693 120.245L162.974 100.398L181.255 120.245L175.809 125.693Z" fill="black"></path><path d="M287.05 206.246H31.1163C15.558 206.246 3.11133 193.794 3.11133 178.228V28.0183C3.50029 12.4526 15.9469 0 31.1163 0H287.05C302.609 0 315.055 12.4526 315.055 28.0183V178.617C315.055 193.794 302.609 206.246 287.05 206.246ZM31.1163 11.6743C22.1702 11.6743 15.169 19.068 15.169 28.0183V178.617C15.169 187.567 22.1702 194.572 31.1163 194.572H287.05C295.996 194.572 303.387 187.178 303.387 178.228V28.0183C303.387 19.068 295.996 11.6743 287.05 11.6743H31.1163Z" fill="black"></path><path d="M709.848 369.687H705.958C703.624 369.687 702.068 368.13 702.068 365.795C702.068 363.46 703.624 361.904 705.958 361.904H709.848C711.792 361.904 713.737 363.46 713.737 365.795C713.737 367.741 712.181 369.687 710.237 369.687H709.848ZM686.121 369.687H682.232C679.898 369.687 678.342 368.13 678.342 365.795C678.342 363.46 679.898 361.904 682.232 361.904H686.121C688.455 361.904 690.011 363.46 690.011 365.795C690.011 368.13 688.455 369.687 686.121 369.687ZM662.784 369.687H658.894C656.56 369.687 655.005 368.13 655.005 365.795C655.005 363.46 656.56 361.904 658.894 361.904H662.784C665.118 361.904 666.673 363.46 666.673 365.795C666.673 368.13 664.729 369.687 662.784 369.687ZM639.057 369.687H635.168C632.834 369.687 631.278 368.13 631.278 365.795C631.278 363.46 632.834 361.904 635.168 361.904H639.057C641.391 361.904 642.947 363.46 642.947 365.795C642.947 368.13 641.391 369.687 639.057 369.687ZM615.72 369.687H611.83C609.497 369.687 607.941 368.13 607.941 365.795C607.941 363.46 609.497 361.904 611.83 361.904H615.72C618.054 361.904 619.61 363.46 619.61 365.795C619.61 368.13 617.665 369.687 615.72 369.687ZM591.993 369.687H588.104C585.77 369.687 584.214 368.13 584.214 365.795C584.214 363.46 585.77 361.904 588.104 361.904H591.993C594.327 361.904 595.883 363.46 595.883 365.795C595.883 368.13 594.327 369.687 591.993 369.687ZM568.656 369.687H564.766C562.433 369.687 560.877 368.13 560.877 365.795C560.877 363.46 562.433 361.904 564.766 361.904H568.656C570.99 361.904 572.546 363.46 572.546 365.795C572.546 368.13 570.99 369.687 568.656 369.687ZM545.319 369.687H541.429C539.095 369.687 537.539 368.13 537.539 365.795C537.539 363.46 539.095 361.904 541.429 361.904H545.319C547.652 361.904 549.208 363.46 549.208 365.795C549.208 368.13 547.263 369.687 545.319 369.687ZM521.592 369.687H517.703C515.369 369.687 513.813 368.13 513.813 365.795C513.813 363.46 515.369 361.904 517.703 361.904H521.592C523.926 361.904 525.482 363.46 525.482 365.795C525.482 368.13 523.926 369.687 521.592 369.687ZM498.255 369.687H494.365C492.031 369.687 490.476 368.13 490.476 365.795C490.476 363.46 492.031 361.904 494.365 361.904H498.255C500.588 361.904 502.144 363.46 502.144 365.795C502.144 368.13 500.2 369.687 498.255 369.687ZM474.528 369.687H470.639C468.305 369.687 466.749 368.13 466.749 365.795C466.749 363.46 468.305 361.904 470.639 361.904H474.528C476.862 361.904 478.418 363.46 478.418 365.795C478.418 368.13 476.862 369.687 474.528 369.687ZM451.191 369.687C450.802 369.687 450.802 369.687 451.191 369.687C449.246 369.687 447.69 369.298 446.523 368.909C444.579 368.519 443.023 366.184 443.801 364.239C444.19 362.293 446.523 360.736 448.468 361.515C449.635 361.904 450.802 361.904 451.969 361.904C453.914 362.293 455.858 363.85 455.469 366.184C454.691 368.13 453.136 369.687 451.191 369.687ZM728.129 363.071C726.962 363.071 725.795 362.682 725.017 361.904C723.461 360.347 723.85 358.012 725.406 356.456C726.184 355.678 726.962 354.899 727.74 354.121C729.296 352.564 731.629 352.175 733.185 353.732C734.741 355.288 735.13 357.623 733.574 359.18C732.407 360.347 731.629 361.515 730.462 362.293C729.684 362.682 728.907 363.071 728.129 363.071ZM431.354 358.402C430.187 358.402 429.02 358.012 428.242 356.845C427.464 355.678 426.687 354.51 425.909 352.954C424.742 351.008 425.52 348.673 427.464 347.506C429.409 346.338 431.743 347.116 432.91 349.062C433.299 350.23 434.077 351.008 434.855 351.786C436.022 353.343 435.633 356.067 434.077 357.234C432.91 358.012 432.132 358.402 431.354 358.402ZM737.853 342.447C737.464 342.447 737.464 342.447 737.853 342.447C735.519 342.447 733.963 340.501 733.963 338.555V334.664C733.963 332.329 735.519 330.772 737.853 330.772C740.186 330.772 741.742 332.329 741.742 334.664V338.166V338.555C741.353 340.501 739.797 342.447 737.853 342.447ZM425.909 335.831C423.575 335.831 422.019 334.275 422.019 331.94V328.048C422.019 325.714 423.575 324.157 425.909 324.157C428.242 324.157 429.798 325.714 429.798 328.048V331.94C429.798 334.275 427.853 335.831 425.909 335.831ZM737.853 318.709C735.519 318.709 733.963 317.152 733.963 314.818V310.926C733.963 308.591 735.519 307.035 737.853 307.035C740.186 307.035 741.742 308.591 741.742 310.926V314.818C741.742 317.152 739.797 318.709 737.853 318.709ZM425.909 312.483C423.575 312.483 422.019 310.926 422.019 308.591V304.7C422.019 302.365 423.575 300.808 425.909 300.808C428.242 300.808 429.798 302.365 429.798 304.7V308.591C429.798 310.537 427.853 312.483 425.909 312.483ZM737.853 295.36C735.519 295.36 733.963 293.804 733.963 291.469V287.577C733.963 285.243 735.519 283.686 737.853 283.686C740.186 283.686 741.742 285.243 741.742 287.577V291.469C741.742 293.415 739.797 295.36 737.853 295.36ZM425.909 288.745C423.575 288.745 422.019 287.188 422.019 284.853V280.962C422.019 278.627 423.575 277.071 425.909 277.071C428.242 277.071 429.798 278.627 429.798 280.962V284.853C429.798 287.188 427.853 288.745 425.909 288.745ZM737.853 271.623C735.519 271.623 733.963 270.066 733.963 267.731V263.84C733.963 261.505 735.519 259.948 737.853 259.948C740.186 259.948 741.742 261.505 741.742 263.84V267.731C741.742 270.066 739.797 271.623 737.853 271.623ZM425.909 265.396C423.575 265.396 422.019 263.84 422.019 261.505V257.613C422.019 255.279 423.575 253.722 425.909 253.722C428.242 253.722 429.798 255.279 429.798 257.613V261.505C429.798 263.451 427.853 265.396 425.909 265.396ZM737.853 248.274C735.519 248.274 733.963 246.717 733.963 244.382V240.491C733.963 238.156 735.519 236.6 737.853 236.6C740.186 236.6 741.742 238.156 741.742 240.491V244.382C741.742 246.328 739.797 248.274 737.853 248.274ZM425.909 241.658C423.575 241.658 422.019 240.102 422.019 237.767V233.876C422.019 231.541 423.575 229.984 425.909 229.984C428.242 229.984 429.798 231.541 429.798 233.876V237.767C429.798 240.102 427.853 241.658 425.909 241.658ZM737.853 224.536C735.519 224.536 733.963 222.98 733.963 220.645V216.753C733.963 214.418 735.519 212.862 737.853 212.862C740.186 212.862 741.742 214.418 741.742 216.753V220.645C741.742 222.98 739.797 224.536 737.853 224.536ZM425.909 218.31C423.575 218.31 422.019 216.753 422.019 214.418V210.527C422.019 208.192 423.575 206.636 425.909 206.636C428.242 206.636 429.798 208.192 429.798 210.527V214.418C429.798 216.364 427.853 218.31 425.909 218.31ZM737.853 201.188C735.519 201.188 733.963 199.631 733.963 197.296V193.405C733.963 191.07 735.519 189.513 737.853 189.513C740.186 189.513 741.742 191.07 741.742 193.405V197.296C741.742 199.242 739.797 201.188 737.853 201.188ZM425.909 194.572C423.575 194.572 422.019 193.016 422.019 190.681V186.789C422.019 184.454 423.964 182.898 425.909 182.898C428.242 182.898 429.798 184.843 429.798 186.789V190.681C429.798 193.016 427.853 194.572 425.909 194.572ZM734.352 178.228C732.796 178.228 731.629 177.45 730.851 176.282C730.462 175.115 729.684 174.337 728.907 173.558C727.74 172.002 728.129 169.278 729.685 168.11C731.24 166.943 733.963 167.332 735.13 168.889C735.908 170.056 736.686 171.223 737.464 172.78C738.631 174.726 737.853 177.061 735.908 178.228C735.519 177.839 735.13 178.228 734.352 178.228ZM432.91 172.78C432.132 172.78 430.965 172.391 430.187 172.002C428.631 170.445 428.242 168.11 429.798 166.554C430.965 165.386 431.743 164.219 432.91 163.441C434.466 161.884 437.188 162.273 438.355 163.83C439.911 165.386 439.522 168.11 437.966 169.278C437.188 170.056 436.41 170.834 435.633 171.613C434.855 172.391 434.077 172.78 432.91 172.78ZM716.071 164.219C715.682 164.219 715.293 164.219 715.293 164.219C714.126 163.83 712.959 163.83 711.792 163.83C709.848 163.441 707.903 161.884 708.292 159.549C708.292 157.214 710.237 156.047 712.57 156.047C714.126 156.047 715.682 156.436 716.849 156.825C718.794 157.214 720.35 159.549 719.572 161.495C719.572 163.051 718.016 164.219 716.071 164.219ZM692.734 163.441H688.844C686.51 163.441 684.954 161.884 684.954 159.549C684.954 157.214 686.51 155.658 688.844 155.658H692.734C695.067 155.658 696.623 157.214 696.623 159.549C696.623 161.884 695.067 163.441 692.734 163.441ZM669.396 163.441H665.507C663.173 163.441 661.617 161.884 661.617 159.549C661.617 157.214 663.173 155.658 665.507 155.658H669.396C671.73 155.658 673.286 157.214 673.286 159.549C673.286 161.884 671.341 163.441 669.396 163.441ZM645.67 163.441H641.78C639.446 163.441 637.89 161.884 637.89 159.549C637.89 157.214 639.446 155.658 641.78 155.658H645.67C648.003 155.658 649.559 157.214 649.559 159.549C649.559 161.884 648.003 163.441 645.67 163.441ZM622.332 163.441H618.443C616.109 163.441 614.553 161.884 614.553 159.549C614.553 157.214 616.109 155.658 618.443 155.658H622.332C624.666 155.658 626.222 157.214 626.222 159.549C626.222 161.884 624.277 163.441 622.332 163.441ZM598.606 163.441H594.716C592.382 163.441 590.827 161.884 590.827 159.549C590.827 157.214 592.382 155.658 594.716 155.658H598.606C600.94 155.658 602.495 157.214 602.495 159.549C602.495 161.884 600.94 163.441 598.606 163.441ZM575.268 163.441H571.379C569.045 163.441 567.489 161.884 567.489 159.549C567.489 157.214 569.045 155.658 571.379 155.658H575.268C577.602 155.658 579.158 157.214 579.158 159.549C579.158 161.884 577.213 163.441 575.268 163.441ZM551.542 163.441H547.652C545.319 163.441 543.763 161.884 543.763 159.549C543.763 157.214 545.319 155.658 547.652 155.658H551.542C553.876 155.658 555.432 157.214 555.432 159.549C555.432 161.884 553.876 163.441 551.542 163.441ZM528.204 163.441H524.315C521.981 163.441 520.425 161.884 520.425 159.549C520.425 157.214 521.981 155.658 524.315 155.658H528.204C530.538 155.658 532.094 157.214 532.094 159.549C532.094 161.884 530.149 163.441 528.204 163.441ZM504.478 163.441H500.588C498.255 163.441 496.699 161.884 496.699 159.549C496.699 157.214 498.255 155.658 500.588 155.658H504.478C506.812 155.658 508.368 157.214 508.368 159.549C508.368 161.884 506.812 163.441 504.478 163.441ZM481.141 163.441H477.251C474.917 163.441 473.361 161.884 473.361 159.549C473.361 157.214 474.917 155.658 477.251 155.658H481.141C483.474 155.658 485.03 157.214 485.03 159.549C485.03 161.884 483.085 163.441 481.141 163.441ZM457.414 163.441H453.525C451.191 163.441 449.635 161.884 449.635 159.549C449.635 157.214 451.191 155.658 453.914 155.658H457.414C459.748 155.658 461.304 157.214 461.304 159.549C461.304 161.884 459.748 163.441 457.414 163.441Z" fill="black"></path><path d="M584.994 214.417C586.161 214.417 586.938 215.196 586.938 216.363V342.446C586.938 343.613 586.161 344.392 584.994 344.392C583.827 344.392 583.049 343.613 583.049 342.446V216.363C583.049 215.196 583.827 214.417 584.994 214.417Z" fill="black"></path><path d="M584.994 346.337C582.66 346.337 581.104 344.781 581.104 342.446V216.363C581.104 214.028 582.66 212.472 584.994 212.472C587.327 212.472 588.883 214.028 588.883 216.363V342.446C588.883 344.391 587.327 346.337 584.994 346.337ZM584.994 214.417V216.363V214.417Z" fill="black"></path><path d="M600.552 228.817L597.829 231.541L584.993 217.921L572.158 231.541L569.435 228.817L584.993 212.083L600.552 228.817Z" fill="black"></path><path d="M597.828 234.264L584.993 220.644L572.546 234.264L566.712 229.205L584.993 209.359L603.274 229.205L597.828 234.264Z" fill="black"></path><path d="M709.069 315.206H453.135C437.577 315.206 425.13 302.754 425.13 287.188V136.589C425.13 121.023 437.577 108.571 453.135 108.571H709.069C724.627 108.571 737.074 121.023 737.074 136.589V287.188C737.074 302.754 724.627 315.206 709.069 315.206ZM453.135 120.634C444.189 120.634 436.799 128.028 436.799 136.978V287.577C436.799 296.527 444.189 303.921 453.135 303.921H709.069C718.015 303.921 725.405 296.527 725.405 287.577V136.589C725.405 127.639 718.015 120.245 709.069 120.245H453.135V120.634Z" fill="black"></path><path d="M1134.2 488.765H1130.31C1127.98 488.765 1126.42 487.208 1126.42 484.873C1126.42 482.539 1127.98 480.982 1130.31 480.982H1134.2C1136.14 480.982 1138.09 482.539 1138.09 484.873C1138.09 486.819 1136.53 488.765 1134.59 488.765C1134.59 488.765 1134.2 488.765 1134.2 488.765ZM1110.86 488.765H1106.97C1104.64 488.765 1103.08 487.208 1103.08 484.873C1103.08 482.539 1104.64 480.982 1106.97 480.982H1110.86C1113.19 480.982 1114.75 482.539 1114.75 484.873C1114.75 487.208 1112.81 488.765 1110.86 488.765ZM1087.13 488.765H1083.25C1080.91 488.765 1079.36 487.208 1079.36 484.873C1079.36 482.539 1080.91 480.982 1083.25 480.982H1087.13C1089.47 480.982 1091.02 482.539 1091.02 484.873C1091.02 487.208 1089.47 488.765 1087.13 488.765ZM1063.8 488.765H1059.91C1057.57 488.765 1056.02 487.208 1056.02 484.873C1056.02 482.539 1057.57 480.982 1059.91 480.982H1063.8C1066.13 480.982 1067.69 482.539 1067.69 484.873C1067.69 487.208 1065.74 488.765 1063.8 488.765ZM1040.07 488.765H1036.18C1033.85 488.765 1032.29 487.208 1032.29 484.873C1032.29 482.539 1033.85 480.982 1036.18 480.982H1040.07C1042.4 480.982 1043.96 482.539 1043.96 484.873C1043.96 487.208 1042.4 488.765 1040.07 488.765ZM1016.73 488.765H1012.84C1010.51 488.765 1008.95 487.208 1008.95 484.873C1008.95 482.539 1010.51 480.982 1012.84 480.982H1016.73C1019.07 480.982 1020.62 482.539 1020.62 484.873C1020.62 487.208 1018.68 488.765 1016.73 488.765ZM993.007 488.765H989.117C986.784 488.765 985.228 487.208 985.228 484.873C985.228 482.539 986.784 480.982 989.117 480.982H993.007C995.341 480.982 996.897 482.539 996.897 484.873C996.897 487.208 995.341 488.765 993.007 488.765ZM969.67 488.765H965.78C963.446 488.765 961.89 487.208 961.89 484.873C961.89 482.539 963.446 480.982 965.78 480.982H969.67C972.003 480.982 973.559 482.539 973.559 484.873C973.559 487.208 971.614 488.765 969.67 488.765ZM945.943 488.765H942.054C939.72 488.765 938.164 487.208 938.164 484.873C938.164 482.539 939.72 480.982 942.054 480.982H945.943C948.277 480.982 949.833 482.539 949.833 484.873C949.833 487.208 948.277 488.765 945.943 488.765ZM922.606 488.765H918.716C916.382 488.765 914.827 487.208 914.827 484.873C914.827 482.539 916.382 480.982 918.716 480.982H922.606C924.939 480.982 926.495 482.539 926.495 484.873C926.495 487.208 924.939 488.765 922.606 488.765ZM899.268 488.765H895.379C893.045 488.765 891.489 487.208 891.489 484.873C891.489 482.539 893.045 480.982 895.379 480.982H899.268C901.602 480.982 903.158 482.539 903.158 484.873C903.158 487.208 901.213 488.765 899.268 488.765ZM875.542 488.765C875.542 488.765 875.153 488.765 875.542 488.765C873.597 488.765 872.041 488.376 870.874 487.987C868.93 487.597 867.374 485.263 868.152 483.317C868.541 481.371 870.874 479.815 872.819 480.593C873.986 480.982 875.153 480.982 876.32 480.982C878.265 481.371 880.209 482.928 879.82 485.263C879.431 487.208 877.487 488.765 875.542 488.765ZM1152.48 482.149C1151.31 482.149 1150.15 481.76 1149.37 480.982C1147.81 479.425 1148.2 477.091 1149.76 475.534C1150.53 474.756 1151.31 473.977 1152.09 473.199C1153.65 471.643 1155.98 471.253 1157.54 472.81C1159.09 474.367 1159.48 476.701 1157.93 478.258C1156.76 479.425 1155.98 480.593 1154.81 481.371C1154.42 481.76 1153.65 482.149 1152.48 482.149ZM855.705 477.48C854.538 477.48 853.371 477.091 852.593 475.923C851.815 474.756 851.038 473.588 850.26 472.032C849.093 470.086 849.871 467.751 851.815 466.584C853.76 465.416 856.094 466.195 857.261 468.14C857.65 469.308 858.428 470.086 859.206 470.864C860.373 472.421 859.984 475.145 858.428 476.312C857.261 477.091 856.483 477.48 855.705 477.48ZM1162.2 461.136C1159.87 461.136 1158.31 459.19 1158.31 457.244V453.353C1158.31 451.018 1159.87 449.461 1162.2 449.461C1164.54 449.461 1166.09 451.018 1166.09 453.353V456.855V457.244C1166.09 459.579 1164.15 461.136 1162.2 461.136ZM850.26 454.909C847.926 454.909 846.37 453.353 846.37 451.018V447.127C846.37 444.792 847.926 443.235 850.26 443.235C852.593 443.235 854.149 444.792 854.149 447.127V451.018C854.149 453.353 852.593 454.909 850.26 454.909ZM1162.2 437.787C1159.87 437.787 1158.31 436.23 1158.31 433.896V430.004C1158.31 427.669 1159.87 426.113 1162.2 426.113C1164.54 426.113 1166.09 427.669 1166.09 430.004V433.896C1166.09 435.841 1164.15 437.787 1162.2 437.787ZM850.26 431.561C847.926 431.561 846.37 430.004 846.37 427.669V423.778C846.37 421.443 847.926 419.886 850.26 419.886C852.593 419.886 854.149 421.443 854.149 423.778V427.669C854.149 429.615 852.593 431.561 850.26 431.561ZM1162.2 414.049C1159.87 414.049 1158.31 412.493 1158.31 410.158V406.266C1158.31 403.932 1159.87 402.375 1162.2 402.375C1164.54 402.375 1166.09 403.932 1166.09 406.266V410.158C1166.09 412.493 1164.15 414.049 1162.2 414.049ZM850.26 407.823C847.926 407.823 846.37 406.266 846.37 403.932V400.04C846.37 397.705 847.926 396.149 850.26 396.149C852.593 396.149 854.149 397.705 854.149 400.04V403.932C854.149 406.266 852.593 407.823 850.26 407.823ZM1162.2 390.701C1159.87 390.701 1158.31 389.144 1158.31 386.809V382.918C1158.31 380.583 1159.87 379.026 1162.2 379.026C1164.54 379.026 1166.09 380.583 1166.09 382.918V386.809C1166.09 388.755 1164.15 390.701 1162.2 390.701ZM850.26 384.474C847.926 384.474 846.37 382.918 846.37 380.583V376.692C846.37 374.357 847.926 372.8 850.26 372.8C852.593 372.8 854.149 374.357 854.149 376.692V380.583C854.149 382.529 852.593 384.474 850.26 384.474ZM1162.2 366.963C1159.87 366.963 1158.31 365.406 1158.31 363.071V359.18C1158.31 356.845 1159.87 355.289 1162.2 355.289C1164.54 355.289 1166.09 356.845 1166.09 359.18V363.071C1166.09 365.406 1164.15 366.963 1162.2 366.963ZM850.26 360.737C847.926 360.737 846.37 359.18 846.37 356.845V352.954C846.37 350.619 847.926 349.062 850.26 349.062C852.593 349.062 854.149 350.619 854.149 352.954V356.845C854.149 359.18 852.593 360.737 850.26 360.737ZM1162.2 343.614C1159.87 343.614 1158.31 342.058 1158.31 339.723V335.831C1158.31 333.497 1159.87 331.94 1162.2 331.94C1164.54 331.94 1166.09 333.497 1166.09 335.831V339.723C1166.09 341.669 1164.15 343.614 1162.2 343.614ZM850.26 337.388C847.926 337.388 846.37 335.831 846.37 333.497V329.605C846.37 327.27 847.926 325.714 850.26 325.714C852.593 325.714 854.149 327.27 854.149 329.605V333.497C854.149 335.442 852.593 337.388 850.26 337.388ZM1162.2 319.877C1159.87 319.877 1158.31 318.32 1158.31 315.985V312.094C1158.31 309.759 1159.87 308.202 1162.2 308.202C1164.54 308.202 1166.09 309.759 1166.09 312.094V315.985C1166.09 318.32 1164.15 319.877 1162.2 319.877ZM850.26 313.65C847.926 313.65 846.37 312.094 846.37 309.759V305.867C846.37 303.532 848.315 301.976 850.26 301.976C852.593 301.976 854.149 303.922 854.149 305.867V309.759C854.149 312.094 852.593 313.65 850.26 313.65ZM1158.7 296.917C1157.15 296.917 1155.98 296.139 1155.2 294.971C1154.81 293.804 1154.04 293.026 1153.26 292.247C1152.09 290.691 1152.48 287.967 1154.04 286.799C1155.59 285.632 1158.31 286.021 1159.48 287.578C1160.26 288.745 1161.04 289.912 1161.81 291.469C1162.98 293.415 1162.2 295.75 1160.26 296.917C1160.26 296.917 1159.48 296.917 1158.7 296.917ZM857.261 291.858C856.483 291.858 855.316 291.469 854.538 291.08C852.982 289.523 852.593 287.188 854.149 285.632C855.316 284.464 856.094 283.297 857.261 282.519C858.817 280.962 861.539 281.351 862.706 282.908C864.262 284.464 863.873 287.188 862.317 288.356C861.539 289.134 860.762 289.912 859.984 290.691C859.595 291.469 858.428 291.858 857.261 291.858ZM1140.81 283.297C1140.42 283.297 1140.03 283.297 1140.03 283.297C1138.87 282.908 1137.7 282.908 1136.53 282.908C1134.59 282.519 1132.64 280.962 1133.03 278.627C1133.03 276.292 1134.98 275.125 1137.31 275.125C1138.87 275.125 1140.42 275.514 1141.59 275.903C1143.53 276.292 1145.09 278.627 1144.31 280.573C1143.92 282.13 1142.37 283.297 1140.81 283.297ZM1117.08 282.519H1113.19C1110.86 282.519 1109.31 280.962 1109.31 278.627C1109.31 276.292 1110.86 274.736 1113.19 274.736H1117.08C1119.42 274.736 1120.97 276.292 1120.97 278.627C1120.97 280.962 1119.42 282.519 1117.08 282.519ZM1093.75 282.519H1089.86C1087.52 282.519 1085.97 280.962 1085.97 278.627C1085.97 276.292 1087.52 274.736 1089.86 274.736H1093.75C1096.08 274.736 1097.64 276.292 1097.64 278.627C1097.64 280.962 1096.08 282.519 1093.75 282.519ZM1070.41 282.519H1066.52C1064.19 282.519 1062.63 280.962 1062.63 278.627C1062.63 276.292 1064.19 274.736 1066.52 274.736H1070.41C1072.74 274.736 1074.3 276.292 1074.3 278.627C1074.3 280.962 1072.35 282.519 1070.41 282.519ZM1046.68 282.519H1042.79C1040.46 282.519 1038.9 280.962 1038.9 278.627C1038.9 276.292 1040.46 274.736 1042.79 274.736H1046.68C1049.02 274.736 1050.57 276.292 1050.57 278.627C1050.57 280.962 1049.02 282.519 1046.68 282.519ZM1023.35 282.519H1019.46C1017.12 282.519 1015.57 280.962 1015.57 278.627C1015.57 276.292 1017.12 274.736 1019.46 274.736H1023.35C1025.68 274.736 1027.24 276.292 1027.24 278.627C1027.24 280.962 1025.29 282.519 1023.35 282.519ZM999.619 282.519H995.73C993.396 282.519 991.84 280.962 991.84 278.627C991.84 276.292 993.396 274.736 995.73 274.736H999.619C1001.95 274.736 1003.51 276.292 1003.51 278.627C1003.51 280.962 1001.95 282.519 999.619 282.519ZM976.282 282.519H972.392C970.059 282.519 968.503 280.962 968.503 278.627C968.503 276.292 970.059 274.736 972.392 274.736H976.282C978.616 274.736 980.171 276.292 980.171 278.627C980.171 280.962 978.227 282.519 976.282 282.519ZM952.555 282.519H948.666C946.332 282.519 944.776 280.962 944.776 278.627C944.776 276.292 946.332 274.736 948.666 274.736H952.555C954.889 274.736 956.445 276.292 956.445 278.627C956.445 280.962 954.889 282.519 952.555 282.519ZM929.218 282.519H925.328C922.995 282.519 921.439 280.962 921.439 278.627C921.439 276.292 922.995 274.736 925.328 274.736H929.218C931.552 274.736 933.108 276.292 933.108 278.627C933.108 280.962 931.163 282.519 929.218 282.519ZM905.492 282.519H901.602C899.268 282.519 897.712 280.962 897.712 278.627C897.712 276.292 899.268 274.736 901.602 274.736H905.492C907.825 274.736 909.381 276.292 909.381 278.627C909.381 280.962 907.825 282.519 905.492 282.519ZM882.154 282.519H878.265C875.931 282.519 874.375 280.962 874.375 278.627C874.375 276.292 875.931 274.736 878.654 274.736H882.154C884.488 274.736 886.044 276.292 886.044 278.627C886.044 280.962 884.099 282.519 882.154 282.519Z" fill="black"></path><path d="M1009.74 333.496C1010.9 333.496 1011.68 334.274 1011.68 335.441V461.524C1011.68 462.691 1010.9 463.47 1009.74 463.47C1008.57 463.47 1007.79 462.691 1007.79 461.524V335.441C1007.79 334.274 1008.57 333.496 1009.74 333.496Z" fill="black"></path><path d="M1009.74 465.026C1007.4 465.026 1005.85 463.47 1005.85 461.135V335.441C1005.85 333.106 1007.4 331.55 1009.74 331.55C1012.07 331.55 1013.62 333.106 1013.62 335.441V461.524C1013.62 463.47 1011.68 465.026 1009.74 465.026ZM1009.74 333.496V335.441V333.496Z" fill="black"></path><path d="M1025.29 347.895L1022.57 350.619L1009.74 336.999L996.9 350.619L994.178 347.895L1009.74 331.162L1025.29 347.895Z" fill="black"></path><path d="M1022.18 353.342L1009.74 339.722L996.899 353.342L991.454 348.283L1009.74 328.437L1028.02 348.283L1022.18 353.342Z" fill="black"></path><path d="M1133.81 434.284H877.877C862.319 434.284 849.872 421.832 849.872 406.266V255.667C849.872 240.102 862.319 227.649 877.877 227.649H1133.81C1149.37 227.649 1161.82 240.102 1161.82 255.667V406.266C1161.43 421.832 1148.98 434.284 1133.81 434.284ZM877.877 239.712C868.931 239.712 861.541 247.106 861.541 256.056V406.655C861.541 415.605 868.931 422.999 877.877 422.999H1133.81C1142.76 422.999 1150.15 415.605 1150.15 406.655V255.667C1150.15 246.717 1142.76 239.323 1133.81 239.323H877.877V239.712Z" fill="black"></path></svg> 