<?xml version="1.0" encoding="UTF-8"?> <svg xmlns="http://www.w3.org/2000/svg" width="267" height="241" viewBox="0 0 267 241" fill="none"><path d="M83.4357 38.2629C81.8077 38.2629 80.9937 37.8559 80.5867 36.6348C80.5867 36.6348 80.5867 35.8207 80.5867 34.1925C80.5867 32.9713 81.8077 32.1572 83.0287 32.1572C84.2497 32.1572 85.4707 32.9713 85.0637 34.1925C85.0637 35.0066 85.0637 35.8206 85.0637 35.8206C85.4707 37.0418 84.6567 38.2629 83.4357 38.2629Z" fill="black"></path><path d="M87.9136 24.8303C87.5066 24.8303 86.6926 24.8303 86.2856 24.4232C85.0646 24.0162 84.6576 22.795 85.4716 21.5738C86.2856 20.3527 87.5066 19.1315 88.3206 17.9104C89.1346 17.0963 90.7627 16.6892 91.5767 17.5033C92.3907 18.3174 92.7977 19.5386 91.9837 20.3527C91.1697 21.1668 89.9487 22.3879 89.5416 23.6091C89.1346 24.0161 88.7276 24.4233 87.9136 24.8303Z" fill="black"></path><path d="M191.292 21.5737C190.478 21.5737 189.257 21.5738 188.85 20.7597C188.036 19.5385 187.222 18.7244 186.408 17.5032C185.594 16.6891 186.001 15.468 186.815 14.6539C188.036 13.8398 189.257 13.8397 190.071 15.0609C190.885 16.282 192.106 17.5033 192.92 18.3174C193.734 19.1315 193.327 20.3525 192.106 21.1667C192.106 21.5737 191.699 21.5737 191.292 21.5737ZM178.675 10.5834C178.268 10.5834 177.454 10.5834 177.047 10.1763C175.826 9.36221 174.605 8.95518 173.384 8.54813C172.163 8.14107 171.756 6.91987 172.57 5.69871C173.384 4.47755 174.605 4.07045 175.826 4.88456C177.454 5.69866 178.675 6.10571 179.896 6.91982C181.117 7.32687 181.117 8.95513 180.303 9.76923C179.896 10.1763 179.489 10.5834 178.675 10.5834ZM161.581 4.88456C161.174 4.88456 160.767 4.88456 160.767 4.88456C159.546 4.4775 157.918 4.4776 156.29 4.4776C155.069 4.4776 154.255 3.25642 154.255 2.03526C154.662 0.814105 155.883 2.48384e-05 157.104 0.407077C158.732 0.407077 160.36 0.814055 161.988 1.22111C163.209 1.62816 164.023 2.44229 163.616 3.66345C163.209 4.0705 162.395 4.88456 161.581 4.88456ZM101.751 13.4327C100.937 13.4327 99.7159 13.4328 99.3089 12.6187C98.4948 11.8045 99.3089 10.5833 100.123 9.76923C101.344 8.95513 102.972 8.54808 104.6 7.73397C105.821 7.32692 107.042 7.73402 107.856 8.54813C108.263 9.36223 107.856 10.9904 106.635 11.3974C105.007 11.8045 103.786 12.6186 102.565 13.4327C102.158 13.0256 102.158 13.4327 101.751 13.4327ZM142.859 4.07052H142.452C141.637 4.07052 140.823 4.07052 140.416 4.07052H137.974C136.753 4.07052 135.532 3.25642 135.532 2.03526C135.532 0.814105 136.346 0 137.974 0H140.416C141.23 0 142.044 0 142.859 0C144.08 0 145.301 0.814105 145.301 2.03526C144.894 2.84937 144.08 4.07052 142.859 4.07052ZM119.659 7.32689C118.438 7.73395 117.217 6.91987 116.81 5.69871C116.403 4.47755 117.217 3.66342 118.845 3.25637C120.066 2.84932 120.88 2.84939 122.101 2.44234L123.729 2.03526C124.95 1.62821 126.171 2.44229 126.578 3.66345C126.578 4.8846 125.764 5.69873 124.543 6.10579L122.915 6.51286C121.694 6.91992 120.473 6.91984 119.659 7.32689Z" fill="black"></path><path d="M197.398 34.5994C196.177 35.0064 194.956 34.1923 194.549 33.3782C194.549 32.5641 194.142 32.157 194.142 31.3429C193.735 30.1218 194.549 29.3077 195.77 28.9007C196.991 28.4936 198.212 28.9006 198.619 30.1218C199.026 30.9359 199.026 31.343 199.433 32.1571C199.84 32.9712 199.026 34.1923 197.398 34.5994C197.805 34.5994 197.805 34.5994 197.398 34.5994Z" fill="black"></path><path d="M180.71 30.9358L198.619 51.6956L211.643 26.8652L180.71 30.9358Z" fill="black"></path><path d="M50.4671 85.0738C50.0601 86.295 49.6531 87.5162 49.6531 88.7373C49.6531 91.1796 50.4671 93.622 53.7232 93.622C56.5722 93.622 56.9792 91.5868 57.7932 89.5515C58.6073 87.1091 59.4213 84.2597 63.0843 84.2597C65.9334 84.2597 68.3754 86.2951 68.3754 89.9586C68.3754 91.1797 67.9684 92.4009 67.5614 93.622C67.5614 94.0291 67.1544 94.0291 66.7474 94.0291C66.3404 94.0291 65.9334 93.622 65.9334 93.2149C65.9334 93.2149 65.9334 92.8078 66.3404 92.4008C66.7474 91.9937 66.7474 90.7726 66.7474 89.5515C66.7474 86.7021 64.7124 85.4809 63.0843 85.4809C60.6423 85.4809 59.8283 87.5162 59.4213 89.5515C58.6073 91.9938 57.3862 94.8431 54.1302 94.8431C50.4671 94.8431 48.8391 91.9937 48.8391 88.3302C48.8391 85.8879 49.6531 84.6668 49.6531 83.8527C49.6531 83.4457 50.0601 83.0386 50.4671 83.0386C50.8741 83.0386 51.2811 83.4457 51.2811 83.8527C50.8741 84.6668 50.8741 84.6668 50.4671 85.0738Z" fill="black"></path><path d="M53.7235 96.4716C50.0605 96.4716 47.2114 93.6222 47.2114 88.7376C47.2114 86.2953 48.0254 84.6672 48.4324 83.8531C48.8395 83.039 49.2465 82.6318 50.0605 82.6318C50.8745 82.6318 51.6885 83.4459 51.6885 84.26C51.6885 84.6671 51.6885 84.6671 51.2815 85.4812V85.8883C50.8745 86.7024 50.4675 87.9235 50.4675 89.1447C50.4675 89.9588 50.8745 93.2152 53.3165 93.2152C55.3516 93.2152 55.7586 91.9941 56.5726 89.9588C57.3866 87.5165 58.6076 84.26 62.6777 84.26C66.3407 84.26 68.7828 87.1094 68.7828 90.7729C68.7828 91.994 68.3758 93.2152 67.9687 94.8434C67.5617 95.6575 67.1547 96.0646 66.3407 96.0646C65.5267 96.0646 64.7127 95.2504 64.7127 94.4363C64.7127 94.0292 64.7127 93.6222 65.1197 93.2152C65.1197 92.8081 65.5267 91.994 65.5267 90.7729C65.5267 88.7376 64.3057 87.9236 62.6777 87.9236C61.0496 87.9236 60.6426 88.7376 59.8286 91.1799C59.4216 92.8081 58.2006 96.4716 53.7235 96.4716Z" fill="black"></path><path d="M58.2008 104.612C63.4919 104.612 67.969 108.683 67.969 114.789C67.969 117.231 67.562 118.859 66.7479 120.08C66.3409 120.487 66.3409 120.487 65.9339 120.487C65.5269 120.487 65.1199 120.08 65.1199 119.673C65.1199 119.266 65.1199 119.266 65.5269 118.859C66.3409 117.231 66.3409 115.603 66.3409 114.789C66.3409 109.497 62.6779 106.241 57.7938 106.241C53.7237 106.241 49.2467 109.09 49.2467 114.789C49.2467 116.417 49.6537 117.638 50.0607 118.859L50.4677 119.673C50.4677 120.08 50.0607 120.487 49.6537 120.487C49.2467 120.487 49.2467 120.08 48.8397 120.08C48.0257 118.045 47.6187 116.01 47.6187 114.789C48.4327 108.276 52.9097 104.612 58.2008 104.612Z" fill="black"></path><path d="M50.0605 121.709C49.6535 121.709 48.8395 121.709 48.4324 120.488C47.2114 118.452 47.2114 116.01 47.2114 114.789C47.2114 108.276 51.6885 103.391 58.2006 103.391C64.7127 103.391 69.1898 107.869 69.1898 114.382C69.1898 116.417 68.7828 118.452 67.5617 120.081C67.1547 120.895 66.3407 120.895 65.9337 120.895C65.1197 120.895 64.3057 120.081 64.3057 119.266C64.3057 118.859 64.3057 118.452 64.7127 118.045C65.5267 116.417 65.5267 115.196 65.5267 114.382C65.5267 109.904 62.2707 107.055 58.2006 107.055C54.5375 107.055 50.8745 109.497 50.8745 114.789C50.8745 116.417 51.2815 117.638 51.6885 118.452C52.0955 119.266 52.0955 119.673 52.0955 119.673C52.0955 120.895 51.2815 121.709 50.0605 121.709Z" fill="black"></path><path d="M49.6539 141.654C49.2469 142.061 49.2469 142.062 48.8399 142.062C48.4329 142.062 48.0259 141.654 48.0259 141.247C48.0259 140.84 48.4329 140.84 48.4329 140.433L56.98 133.921V131.885H48.8399C48.0259 131.885 48.0259 131.478 48.0259 131.071C48.0259 130.664 48.4329 130.257 48.8399 130.257H65.1201C65.9342 130.257 67.5622 130.257 67.5622 132.292V135.549C67.5622 139.619 65.1201 141.247 62.2711 141.247C59.8291 141.247 56.98 140.026 56.98 135.549L49.6539 141.654ZM59.0151 135.142C59.0151 136.363 59.0151 140.026 62.6781 140.026C66.3412 140.026 66.3412 136.77 66.3412 135.142V132.699C66.3412 131.885 66.3412 131.885 65.5271 131.885H59.0151V135.142V135.142Z" fill="black"></path><path d="M49.2467 142.876C48.0257 142.876 47.6187 142.062 47.6187 140.84C47.6187 140.026 48.0257 139.619 48.4327 139.212L56.5728 133.106V132.292H49.2467C48.0257 132.292 47.6187 131.478 47.6187 130.664C47.6187 129.443 48.4327 129.036 49.2467 129.036H65.5269C68.376 129.036 68.783 130.664 68.783 132.292V135.549C68.783 139.619 66.3409 142.469 62.6779 142.469C60.2358 142.469 57.3868 141.247 56.5728 137.584L50.4677 142.469L50.0607 141.655L50.4677 142.469C50.0607 142.876 49.6537 142.876 49.2467 142.876ZM49.2467 140.84C49.2467 141.248 49.2467 141.248 49.2467 140.84V140.84ZM59.8288 132.699V134.735C59.8288 137.584 60.6429 138.398 62.6779 138.398C65.1199 138.398 65.5269 136.77 65.5269 134.735V132.699H59.8288Z" fill="black"></path><path d="M68.3754 160.379C68.3754 166.078 64.3053 170.148 58.6073 170.148C52.9092 170.148 48.8391 165.671 48.8391 160.379C48.8391 154.68 52.9092 150.61 58.6073 150.61C64.3053 150.61 68.3754 154.68 68.3754 160.379ZM49.6531 160.379C49.6531 165.264 53.3162 168.52 58.2003 168.52C63.0843 168.52 66.7474 164.857 66.7474 160.379C66.7474 155.494 63.0843 152.238 58.2003 152.238C53.3162 152.238 49.6531 155.494 49.6531 160.379Z" fill="black"></path><path d="M58.2006 171.369C52.0955 171.369 47.2114 166.485 47.2114 160.379C47.2114 154.273 52.0955 149.388 58.2006 149.388C64.3057 149.388 69.1898 154.273 69.1898 160.379C69.1898 166.485 64.7127 171.369 58.2006 171.369ZM58.2006 153.052C54.1305 153.052 50.8745 156.308 50.8745 160.379C50.8745 164.449 54.1305 167.706 58.2006 167.706C62.2707 167.706 65.5267 164.449 65.5267 160.379C65.5267 156.308 62.6777 153.052 58.2006 153.052Z" fill="black"></path><path d="M48.8408 182.359C48.8408 180.324 50.4688 180.324 51.2829 180.324H67.5631C67.9701 180.324 68.3771 180.731 68.3771 181.138C68.3771 181.545 67.9701 181.952 67.5631 181.952H51.2829C50.4688 181.952 50.4688 182.36 50.4688 182.767V188.872C50.4688 189.279 50.0618 189.687 49.6548 189.687C49.2478 189.687 48.8408 189.279 48.8408 188.872V182.359V182.359Z" fill="black"></path><path d="M49.6541 190.501C48.8401 190.501 48.0261 189.687 48.0261 188.873V182.36C48.0261 180.731 48.4331 179.103 51.2822 179.103H67.5624C68.7834 179.103 69.1905 179.917 69.1905 180.731C69.1905 181.953 68.3764 182.36 67.5624 182.36H51.2822V188.058C51.2822 189.687 50.4682 190.501 49.6541 190.501Z" fill="black"></path><path d="M48.8408 200.677C48.8408 198.642 50.4688 198.642 51.2829 198.642H67.5631C67.9701 198.642 68.3771 199.049 68.3771 199.456C68.3771 199.863 67.9701 200.27 67.5631 200.27H51.2829C50.4688 200.27 50.4688 200.677 50.4688 201.084V207.19C50.4688 207.597 50.0618 208.004 49.6548 208.004C49.2478 208.004 48.8408 207.597 48.8408 207.19V200.677V200.677Z" fill="black"></path><path d="M49.6541 208.818C48.8401 208.818 48.0261 208.004 48.0261 207.19V200.677C48.0261 199.049 48.4331 197.421 51.2822 197.421H67.5624C68.7834 197.421 69.1905 198.235 69.1905 199.049C69.1905 200.27 68.3764 200.677 67.5624 200.677H51.2822V206.376C51.2822 208.004 50.4682 208.818 49.6541 208.818Z" fill="black"></path><path d="M19.9431 238.94C17.5011 238.94 15.873 237.312 15.873 234.869V84.26C15.873 81.8177 17.5011 80.1895 19.9431 80.1895C22.3851 80.1895 24.0132 81.8177 24.0132 84.26V234.869C24.0132 236.905 21.9781 238.94 19.9431 238.94Z" fill="black"></path><path d="M0 218.587L3.66306 215.331L19.9433 232.834L36.2236 215.331L39.8866 218.587L19.9433 240.161L0 218.587Z" fill="black"></path><path d="M245.832 145.318C245.018 145.318 245.018 144.911 245.018 144.503C245.018 144.096 245.425 143.689 245.832 143.689H262.926V137.584C262.926 137.177 263.333 136.77 263.74 136.77C264.147 136.77 264.554 137.177 264.554 137.584V151.423C264.554 151.83 264.147 152.237 263.74 152.237C263.333 152.237 262.926 151.83 262.926 151.423V145.318H245.832Z" fill="black"></path><path d="M263.74 153.458C262.926 153.458 262.112 152.644 262.112 151.83V146.539H245.832C244.611 146.539 244.204 145.725 244.204 144.91C244.204 143.689 245.018 143.282 245.832 143.282H262.112V137.99C262.112 137.176 262.926 136.362 263.74 136.362C264.554 136.362 265.368 137.176 265.368 137.99V151.83C265.775 152.644 264.554 153.458 263.74 153.458ZM245.832 144.503V145.724V144.503Z" fill="black"></path><path d="M264.96 170.555C264.96 176.253 260.89 180.324 255.192 180.324C249.494 180.324 245.424 175.846 245.424 170.555C245.424 164.856 249.494 160.785 255.192 160.785C260.89 160.785 264.96 165.263 264.96 170.555ZM246.645 170.555C246.645 175.439 250.308 178.696 255.192 178.696C260.076 178.696 263.739 175.032 263.739 170.555C263.739 165.67 260.076 162.414 255.192 162.414C250.308 162.414 246.645 166.077 246.645 170.555Z" fill="black"></path><path d="M255.193 181.545C249.088 181.545 244.204 176.66 244.204 170.554C244.204 164.449 249.088 159.564 255.193 159.564C261.298 159.564 266.182 164.449 266.182 170.554C266.182 176.66 261.298 181.545 255.193 181.545ZM255.193 163.228C251.123 163.228 247.867 166.484 247.867 170.554C247.867 174.625 251.123 177.881 255.193 177.881C259.263 177.881 262.519 174.625 262.519 170.554C262.519 166.484 259.263 163.228 255.193 163.228Z" fill="black"></path><path d="M245.832 192.128C245.018 192.128 245.018 191.721 245.018 191.314C245.018 190.907 245.425 190.5 245.832 190.5H262.112C262.926 190.5 264.554 190.5 264.554 192.535V195.385C264.554 197.013 264.554 198.234 263.74 199.455C262.519 201.898 260.077 201.898 258.856 201.898C257.228 201.898 255.193 201.491 253.972 199.048C253.158 197.827 253.158 196.606 253.158 194.978V191.721H245.832V192.128ZM255.193 194.978C255.193 196.606 255.193 200.269 259.263 200.269C263.333 200.269 263.333 197.013 263.333 194.978V192.942C263.333 192.128 263.333 192.128 262.519 192.128H255.193V194.978Z" fill="black"></path><path d="M259.263 202.712C256.821 202.712 254.786 201.491 253.565 199.455C252.751 197.827 252.751 196.606 252.751 194.978V192.942H246.239C245.018 192.942 244.611 192.128 244.611 191.314C244.611 190.093 245.425 189.686 246.239 189.686H262.519C265.368 189.686 265.775 191.314 265.775 192.942V195.792C265.775 197.42 265.775 198.641 264.961 200.269C263.333 202.712 260.077 202.712 259.263 202.712ZM256.007 193.349V195.385C256.007 198.234 256.414 199.455 258.856 199.455C261.705 199.455 262.112 197.42 262.112 195.385V193.349H256.007ZM245.832 191.314V192.535V191.314Z" fill="black"></path><path d="M227.516 240.161C225.074 240.161 223.446 238.533 223.446 236.09V85.4809C223.446 83.0386 225.074 81.4104 227.516 81.4104C229.958 81.4104 231.586 83.0386 231.586 85.4809V236.09C231.586 238.126 229.551 240.161 227.516 240.161Z" fill="black"></path><path d="M247.459 101.763L243.796 105.02L227.516 87.5165L210.829 105.02L207.166 101.763L227.516 80.1895L247.459 101.763Z" fill="black"></path></svg> 