<?xml version="1.0" encoding="UTF-8"?> <svg xmlns="http://www.w3.org/2000/svg" width="303" height="272" viewBox="0 0 303 272" fill="none"><path d="M252.345 271.097H49.6557C41.1085 271.097 34.1895 264.177 34.1895 255.629V15.468C34.1895 6.9199 41.1085 0 49.6557 0H252.345C260.892 0 267.811 6.9199 267.811 15.468V255.629C267.811 264.177 260.892 271.097 252.345 271.097ZM49.6557 8.14105C45.5856 8.14105 42.3296 11.3975 42.3296 15.468V255.629C42.3296 259.699 45.5856 262.956 49.6557 262.956H252.345C256.415 262.956 259.671 259.699 259.671 255.629V15.468C259.671 11.3975 256.415 8.14105 252.345 8.14105H49.6557Z" fill="black"></path><path d="M238.506 201.491C237.692 201.491 236.471 201.084 235.657 200.27L224.261 190.093L214.9 200.27C213.272 201.898 210.83 201.898 209.201 200.27C207.573 198.642 207.573 196.199 209.201 194.571L221.412 181.545C223.04 179.917 225.482 179.917 227.11 181.138L241.355 194.164C242.983 195.792 242.983 198.235 241.762 199.863C240.948 201.084 239.727 201.491 238.506 201.491Z" fill="#040000"></path><path d="M263.334 212.074H39.4805V220.215H263.334V212.074Z" fill="black"></path><path d="M226.296 96.8783C227.11 96.8783 227.924 97.6924 227.924 98.5065V139.212C227.924 140.026 227.11 140.84 226.296 140.84C225.482 140.84 224.668 140.026 224.668 139.212V98.5065C224.668 97.6924 225.075 96.8783 226.296 96.8783Z" fill="black"></path><path d="M226.296 142.875C224.261 142.875 222.633 141.247 222.633 139.212V98.5065C222.633 96.4712 224.261 94.843 226.296 94.843C228.331 94.843 229.959 96.4712 229.959 98.5065V139.212C229.959 141.247 228.331 142.875 226.296 142.875Z" fill="black"></path><path d="M239.321 109.09L236.879 111.532L226.296 99.7276L215.307 111.532L212.865 109.09L226.296 94.843L239.321 109.09Z" fill="black"></path><path d="M236.878 114.381L226.296 102.577L215.307 114.381L210.016 109.09L226.296 91.9937L242.169 109.09L236.878 114.381Z" fill="black"></path><path d="M239.32 79.3752C238.506 79.3752 237.285 78.9681 236.471 78.154L225.075 67.9777L215.714 78.154C214.086 79.7822 211.644 79.7822 210.016 78.154C208.388 76.5258 208.388 74.0835 210.016 72.4553L222.226 59.4296C223.854 57.8014 226.296 57.8014 227.924 59.0225L242.169 72.0482C243.797 73.6764 243.797 76.1188 242.576 77.747C241.762 78.9682 240.541 79.3752 239.32 79.3752Z" fill="#999899"></path><path d="M4.07015 50.4746H2.03507C0.81403 50.4746 0 49.6605 0 48.4393C0 47.2182 0.81403 46.4041 2.03507 46.4041H4.07015C5.29119 46.4041 6.10522 47.2182 6.10522 48.4393C6.10522 49.6605 5.29119 50.4746 4.07015 50.4746Z" fill="black"></path><path d="M286.533 50.4746H282.463C281.242 50.4746 280.428 49.6605 280.428 48.4393C280.428 47.2182 281.242 46.4041 282.463 46.4041H286.533C287.754 46.4041 288.568 47.2182 288.568 48.4393C288.568 49.6605 287.347 50.4746 286.533 50.4746ZM269.846 50.4746H265.776C264.555 50.4746 263.741 49.6605 263.741 48.4393C263.741 47.2182 264.555 46.4041 265.776 46.4041H269.846C271.067 46.4041 271.881 47.2182 271.881 48.4393C271.881 49.6605 270.66 50.4746 269.846 50.4746ZM253.158 50.4746H249.088C247.867 50.4746 247.053 49.6605 247.053 48.4393C247.053 47.2182 247.867 46.4041 249.088 46.4041H253.158C254.379 46.4041 255.193 47.2182 255.193 48.4393C255.193 49.6605 254.379 50.4746 253.158 50.4746ZM236.471 50.4746H232.401C231.18 50.4746 230.366 49.6605 230.366 48.4393C230.366 47.2182 231.18 46.4041 232.401 46.4041H236.471C237.692 46.4041 238.506 47.2182 238.506 48.4393C238.506 49.6605 237.692 50.4746 236.471 50.4746ZM219.784 50.4746H215.714C214.493 50.4746 213.679 49.6605 213.679 48.4393C213.679 47.2182 214.493 46.4041 215.714 46.4041H219.784C221.005 46.4041 221.819 47.2182 221.819 48.4393C221.819 49.6605 221.005 50.4746 219.784 50.4746ZM203.504 50.4746H199.434C198.213 50.4746 197.399 49.6605 197.399 48.4393C197.399 47.2182 198.213 46.4041 199.434 46.4041H203.504C204.725 46.4041 205.539 47.2182 205.539 48.4393C205.539 49.6605 204.318 50.4746 203.504 50.4746ZM186.816 50.4746H182.746C181.525 50.4746 180.711 49.6605 180.711 48.4393C180.711 47.2182 181.525 46.4041 182.746 46.4041H186.816C188.037 46.4041 188.852 47.2182 188.852 48.4393C188.852 49.6605 188.037 50.4746 186.816 50.4746ZM170.129 50.4746H166.059C164.838 50.4746 164.024 49.6605 164.024 48.4393C164.024 47.2182 164.838 46.4041 166.059 46.4041H170.129C171.35 46.4041 172.164 47.2182 172.164 48.4393C172.164 49.6605 171.35 50.4746 170.129 50.4746ZM153.442 50.4746H149.372C148.151 50.4746 147.337 49.6605 147.337 48.4393C147.337 47.2182 148.151 46.4041 149.372 46.4041H153.442C154.663 46.4041 155.477 47.2182 155.477 48.4393C155.477 49.6605 154.663 50.4746 153.442 50.4746ZM136.755 50.4746H132.685C131.464 50.4746 130.65 49.6605 130.65 48.4393C130.65 47.2182 131.464 46.4041 132.685 46.4041H136.755C137.976 46.4041 138.79 47.2182 138.79 48.4393C138.79 49.6605 137.976 50.4746 136.755 50.4746ZM120.474 50.4746H116.404C115.183 50.4746 114.369 49.6605 114.369 48.4393C114.369 47.2182 115.183 46.4041 116.404 46.4041H120.474C121.695 46.4041 122.509 47.2182 122.509 48.4393C122.509 49.6605 121.288 50.4746 120.474 50.4746ZM103.787 50.4746H99.7171C98.4961 50.4746 97.682 49.6605 97.682 48.4393C97.682 47.2182 98.4961 46.4041 99.7171 46.4041H103.787C105.008 46.4041 105.822 47.2182 105.822 48.4393C105.822 49.6605 105.008 50.4746 103.787 50.4746ZM87.1 50.4746H83.0299C81.8089 50.4746 80.9949 49.6605 80.9949 48.4393C80.9949 47.2182 81.8089 46.4041 83.0299 46.4041H87.1C88.321 46.4041 89.135 47.2182 89.135 48.4393C89.135 49.6605 88.321 50.4746 87.1 50.4746ZM70.4127 50.4746H66.3427C65.1216 50.4746 64.3076 49.6605 64.3076 48.4393C64.3076 47.2182 65.1216 46.4041 66.3427 46.4041H70.4127C71.6337 46.4041 72.4477 47.2182 72.4477 48.4393C72.4477 49.6605 71.6337 50.4746 70.4127 50.4746ZM54.1325 50.4746H50.0624C48.8414 50.4746 48.0274 49.6605 48.0274 48.4393C48.0274 47.2182 48.8414 46.4041 50.0624 46.4041H54.1325C55.3535 46.4041 56.1675 47.2182 56.1675 48.4393C56.1675 49.6605 54.9465 50.4746 54.1325 50.4746ZM37.4452 50.4746H33.3751C32.1541 50.4746 31.3401 49.6605 31.3401 48.4393C31.3401 47.2182 32.1541 46.4041 33.3751 46.4041H37.4452C38.6662 46.4041 39.4802 47.2182 39.4802 48.4393C39.4802 49.6605 38.6662 50.4746 37.4452 50.4746ZM20.7579 50.4746H16.6879C15.4668 50.4746 14.6528 49.6605 14.6528 48.4393C14.6528 47.2182 15.4668 46.4041 16.6879 46.4041H20.7579C21.9789 46.4041 22.793 47.2182 22.793 48.4393C22.793 49.6605 21.9789 50.4746 20.7579 50.4746Z" fill="black"></path><path d="M300.777 50.4746H298.742C297.521 50.4746 296.707 49.6605 296.707 48.4393C296.707 47.2182 297.521 46.4041 298.742 46.4041H300.777C301.998 46.4041 302.812 47.2182 302.812 48.4393C302.812 49.6605 301.998 50.4746 300.777 50.4746Z" fill="black"></path></svg> 