<?xml version="1.0" encoding="UTF-8"?> <svg xmlns="http://www.w3.org/2000/svg" width="250" height="236" viewBox="0 0 250 236" fill="none"><path d="M124.819 71.4921C124.307 71.4921 123.796 70.9796 123.796 70.4672V44.8428C123.796 44.3304 124.307 43.8179 124.819 43.8179C125.33 43.8179 125.842 44.3304 125.842 44.8428V70.4672C125.842 70.9796 125.586 71.4921 124.819 71.4921Z" fill="black"></path><path d="M124.819 72.7733C123.54 72.7733 122.517 71.7483 122.517 70.4671V44.8428C122.517 43.5616 123.54 42.5366 124.819 42.5366C126.098 42.5366 127.121 43.5616 127.121 44.8428V70.4671C127.121 71.7483 126.098 72.7733 124.819 72.7733Z" fill="black"></path><path d="M116.634 63.5488L118.168 62.2676L124.819 69.6986L131.725 62.2676L133.259 63.5488L124.819 72.5173L116.634 63.5488Z" fill="black"></path><path d="M124.819 74.567L114.844 63.5486L118.169 60.4736L124.819 67.6484L131.725 60.4736L135.05 63.5486L124.819 74.567Z" fill="black"></path><path d="M239.918 236H9.71947C4.34817 236 0 231.644 0 226.263V9.73724C0 4.35614 4.34817 0 9.71947 0H239.918C245.289 0 249.638 4.35614 249.638 9.73724V226.263C249.638 231.644 245.289 236 239.918 236ZM9.46371 5.12486C6.90595 5.12486 4.85973 7.17481 4.85973 9.73724V226.263C4.85973 228.825 6.90595 230.875 9.46371 230.875H239.662C242.22 230.875 244.266 228.825 244.266 226.263V9.73724C244.266 7.17481 242.22 5.12486 239.662 5.12486H9.46371V5.12486Z" fill="black"></path><path d="M67.525 28.186C67.525 28.4423 67.2692 28.4423 67.2692 28.4423C67.0134 28.4423 67.0134 28.4423 67.0134 28.186V20.2425H64.1998C63.9441 20.2425 63.9441 19.9862 63.9441 19.9862C63.9441 19.73 63.9441 19.73 64.1998 19.73H70.5943C70.8501 19.73 70.8501 19.9862 70.8501 19.9862C70.8501 20.2425 70.8501 20.2425 70.5943 20.2425H67.7807V28.186H67.525Z" fill="black"></path><path d="M67.269 28.9552C66.7575 28.9552 66.5017 28.6989 66.5017 28.1864V20.4991H63.944C63.4324 20.4991 63.1766 20.2429 63.1766 19.7304C63.1766 19.2179 63.4324 18.9617 63.944 18.9617H70.3384C70.8499 18.9617 71.1057 19.2179 71.1057 19.7304C71.1057 19.9866 70.8499 20.4991 70.3384 20.4991H67.7806V28.1864C67.7806 28.6989 67.5248 28.9552 67.269 28.9552ZM63.944 19.9866H67.0133V28.1864V19.9866H70.0826H63.944Z" fill="black"></path><path d="M78.2677 19.4746C80.8255 19.4746 82.8717 21.2683 82.8717 24.087C82.8717 26.6494 80.8255 28.6994 78.2677 28.6994C75.7099 28.6994 73.6637 26.9057 73.6637 24.087C73.6637 21.5246 75.7099 19.4746 78.2677 19.4746ZM78.2677 27.9306C80.3139 27.9306 82.1044 26.1369 82.1044 24.087C82.1044 22.037 80.5697 20.2433 78.2677 20.2433C76.2215 20.2433 74.431 22.037 74.431 24.087C74.431 26.1369 76.2215 27.9306 78.2677 27.9306Z" fill="black"></path><path d="M78.2675 28.9555C75.4539 28.9555 73.4077 26.9056 73.4077 24.0869C73.4077 21.2682 75.4539 19.2183 78.2675 19.2183C81.081 19.2183 83.1273 21.2682 83.1273 24.0869C83.1273 26.9056 81.081 28.9555 78.2675 28.9555ZM78.2675 19.7307C75.7097 19.7307 73.9193 21.5244 73.9193 24.0869C73.9193 26.3931 75.7097 28.443 78.2675 28.443C80.8252 28.443 82.6157 26.6493 82.6157 24.0869C82.3599 21.5244 80.8252 19.7307 78.2675 19.7307ZM78.2675 28.1868C75.9655 28.1868 74.1751 26.3931 74.1751 24.0869C74.1751 21.7807 75.9655 19.987 78.2675 19.987C80.5695 19.987 82.3599 21.7807 82.3599 24.0869C82.3599 26.3931 80.5695 28.1868 78.2675 28.1868ZM78.2675 20.4995C76.2212 20.4995 74.6866 22.0369 74.6866 24.0869C74.6866 26.1368 76.2212 27.6743 78.2675 27.6743C80.3137 27.6743 81.8484 26.1368 81.8484 24.0869C81.8484 22.0369 80.3137 20.4995 78.2675 20.4995Z" fill="black"></path><path d="M87.2196 28.1872C87.2196 28.4435 86.9638 28.4435 86.9638 28.4435C86.708 28.4435 86.708 28.4435 86.708 28.1872V20.7562C86.708 20.4999 86.708 19.7312 87.7311 19.7312H89.01C89.7773 19.7312 90.2889 19.7312 90.8005 19.9874C91.8236 20.4999 92.0794 21.7811 92.0794 22.2936C92.0794 23.0624 91.8236 24.0873 90.8005 24.5998C90.2889 24.8561 89.7773 24.8561 89.01 24.8561H87.4754V28.1872H87.2196ZM88.4985 24.0873C89.2658 24.0873 90.8005 24.0873 90.8005 22.2936C90.8005 20.4999 89.2658 20.4999 88.4985 20.4999H87.7311C87.4753 20.4999 87.2196 20.4999 87.2196 21.0124V24.3436H88.4985V24.0873Z" fill="black"></path><path d="M86.9639 28.9555C86.4523 28.9555 86.1965 28.6993 86.1965 28.1868V20.7557C86.1965 19.7307 86.7081 19.2183 87.4754 19.2183H88.7543C89.5216 19.2183 90.0332 19.2183 90.8005 19.7307C92.0794 20.4995 92.0794 21.7807 92.0794 22.2932C92.0794 23.5744 91.5678 24.3431 90.8005 24.8556C90.2889 25.1119 89.5216 25.1119 88.7543 25.1119H87.7312V28.1868C87.4754 28.6993 87.2196 28.9555 86.9639 28.9555ZM87.4754 19.987C86.9639 19.987 86.7081 20.2432 86.7081 20.7557V28.1868V24.3431H88.4985C89.01 24.3431 89.5216 24.3431 90.0332 24.0869C90.8005 23.8306 91.0563 23.0619 91.0563 22.0369C91.0563 21.5245 90.8005 20.4995 90.0332 20.2432C89.5216 19.987 89.01 19.987 88.4985 19.987H87.4754ZM88.4985 24.3431H86.9639V20.7557C86.9639 20.2432 87.2196 19.987 87.7312 19.987H88.4985C89.2658 19.987 91.312 19.987 91.312 22.2932C91.312 24.3431 89.2658 24.3431 88.4985 24.3431ZM87.4754 23.8306H88.4985C89.5216 23.8306 90.5447 23.8306 90.5447 22.2932C90.5447 20.7557 89.5216 20.7557 88.4985 20.7557H87.7312V23.8306H87.4754Z" fill="black"></path><path d="M102.055 25.6243L101.032 28.1868C101.032 28.443 101.031 28.443 100.776 28.443C100.52 28.443 100.264 28.443 100.264 28.1868V27.9305L103.589 19.7307C103.589 19.4745 103.845 19.2183 104.101 19.2183C104.612 19.2183 104.612 19.4745 104.612 19.7307L107.682 27.9305V28.1868C107.682 28.443 107.426 28.443 107.17 28.443C106.914 28.443 106.914 28.1868 106.914 28.1868L105.891 25.6243H102.055ZM106.147 25.1119L104.357 20.4995L102.566 25.1119H106.147Z" fill="black"></path><path d="M107.682 28.9551C107.17 28.9551 107.17 28.6988 106.914 28.4426L105.891 25.8801H102.054L101.031 28.1863C101.031 28.4426 100.776 28.6988 100.264 28.6988C100.008 28.6988 99.4967 28.4426 99.4967 27.9301V27.6738L102.822 19.4741C103.078 18.9616 103.333 18.7053 103.589 18.7053C104.101 18.7053 104.356 18.9616 104.356 19.4741L107.426 27.6738C107.426 27.9301 107.426 27.9301 107.426 28.1863C108.449 28.6988 107.937 28.9551 107.682 28.9551ZM101.799 25.3676H106.403L107.426 28.1863L104.101 19.9865C104.101 19.9865 104.101 19.7303 103.845 19.7303L105.891 25.3676H101.799L103.845 19.7303C103.845 19.7303 103.845 19.7303 103.589 19.9865L100.264 28.1863V28.4426L101.799 25.3676ZM102.822 24.8552H105.635L104.356 21.2678L102.822 24.8552Z" fill="black"></path><path d="M112.286 28.4435C111.263 28.4435 111.263 27.6747 111.263 27.4185V20.7562C111.263 20.4999 111.263 19.7312 112.286 19.7312H113.821C114.588 19.7312 116.634 19.7312 116.634 21.7811C116.634 23.0624 115.867 23.5749 115.355 23.8311C115.867 24.0873 116.89 24.3436 116.89 26.1373C116.89 28.4435 114.588 28.4435 113.821 28.4435H112.286V28.4435ZM114.076 23.5749C114.588 23.5749 116.123 23.5749 116.123 22.0374C116.123 20.4999 114.844 20.4999 113.821 20.4999H112.542C112.286 20.4999 112.03 20.4999 112.03 21.0124V23.8311H114.076V23.5749ZM112.03 27.4185C112.03 27.6747 112.286 27.931 112.542 27.931H114.076C114.844 27.931 116.634 27.931 116.634 26.1373C116.634 24.3436 114.844 24.3436 114.332 24.3436H112.286V27.4185H112.03Z" fill="black"></path><path d="M114.076 28.6993H112.286C111.518 28.6993 111.007 28.1868 111.007 27.1618V20.7557C111.007 19.7307 111.518 19.2183 112.286 19.2183H113.82C114.588 19.2183 117.145 19.2183 117.145 21.7807C117.145 22.8057 116.634 23.3182 116.122 23.8306C116.634 24.0869 117.401 24.8556 117.401 26.1368C117.657 27.9305 116.378 28.6993 114.076 28.6993ZM112.286 19.987C111.774 19.987 111.518 20.2432 111.518 20.7557V27.418C111.518 27.9305 111.518 28.1868 112.286 28.1868H114.076C115.355 28.1868 116.89 27.9305 116.89 26.1368C116.89 25.3681 116.634 24.8556 116.378 24.5994C116.634 24.8556 116.89 25.3681 116.89 26.1368C116.89 28.1868 114.843 28.1868 114.076 28.1868H112.541C112.286 28.1868 111.774 28.1868 111.774 27.418V20.7557C111.774 20.2432 112.03 19.987 112.286 19.987H113.82C114.843 19.987 116.378 19.987 116.378 21.7807C116.378 22.0369 116.378 22.5494 116.122 22.8057C116.378 22.5494 116.378 22.2932 116.378 21.5244C116.378 19.987 115.099 19.7307 113.82 19.7307H112.286V19.987ZM112.541 27.418H114.076C115.099 27.418 116.378 27.418 116.378 26.1368C116.378 24.8556 115.355 24.5994 114.332 24.5994H112.541V27.418ZM114.332 23.8306C114.588 23.8306 114.843 23.8306 114.843 23.8306L115.099 23.5744C114.843 23.8306 114.588 23.8306 114.332 23.8306ZM112.541 23.3182H114.076C114.843 23.3182 115.866 23.0619 115.866 22.0369C115.866 21.012 115.099 20.7557 113.82 20.7557H112.541V23.3182V23.3182Z" fill="black"></path><path d="M125.075 19.4746C127.633 19.4746 129.679 21.2683 129.679 24.087C129.679 26.6494 127.633 28.6994 125.075 28.6994C122.517 28.6994 120.471 26.9057 120.471 24.087C120.471 21.5246 122.517 19.4746 125.075 19.4746ZM125.075 27.9306C127.121 27.9306 128.911 26.1369 128.911 24.087C128.911 22.037 127.377 20.2433 125.075 20.2433C123.029 20.2433 121.238 22.037 121.238 24.087C121.238 26.1369 122.773 27.9306 125.075 27.9306Z" fill="black"></path><path d="M125.075 28.9555C122.261 28.9555 120.215 26.9056 120.215 24.0869C120.215 21.2682 122.261 19.2183 125.075 19.2183C127.888 19.2183 129.934 21.2682 129.934 24.0869C129.934 26.9056 127.888 28.9555 125.075 28.9555ZM125.075 19.7307C122.517 19.7307 120.726 21.5244 120.726 24.0869C120.726 26.3931 122.517 28.443 125.075 28.443C127.632 28.443 129.423 26.6493 129.423 24.0869C129.167 21.5244 127.377 19.7307 125.075 19.7307ZM125.075 28.1868C122.773 28.1868 120.982 26.3931 120.982 24.0869C120.982 21.7807 122.773 19.987 125.075 19.987C127.377 19.987 129.167 21.7807 129.167 24.0869C129.167 26.3931 127.377 28.1868 125.075 28.1868ZM125.075 20.4995C123.028 20.4995 121.494 22.0369 121.494 24.0869C121.494 26.1368 123.028 27.6743 125.075 27.6743C127.121 27.6743 128.655 26.1368 128.655 24.0869C128.655 22.0369 127.121 20.4995 125.075 20.4995Z" fill="black"></path><path d="M133.259 19.9874C133.259 19.7312 133.515 19.7312 133.515 19.7312C133.771 19.7312 133.771 19.7312 133.771 19.9874V24.8561C133.771 26.1373 133.771 28.1872 136.584 28.1872C139.398 28.1872 139.398 26.1373 139.398 24.8561V19.9874C139.398 19.7312 139.654 19.7312 139.654 19.7312C139.909 19.7312 139.909 19.7312 139.909 19.9874V24.8561C139.909 26.1373 139.909 28.956 136.329 28.956C132.748 28.956 132.748 26.3935 132.748 24.8561V19.9874H133.259Z" fill="black"></path><path d="M136.84 28.9555C133.004 28.9555 133.004 25.8806 133.004 24.5994V19.987C133.004 19.4745 133.259 19.2183 133.771 19.2183C134.282 19.2183 134.538 19.4745 134.538 19.987V24.8556C134.538 26.3931 134.794 27.9305 137.096 27.9305C139.398 27.9305 139.654 26.3931 139.654 24.8556V19.987C139.654 19.4745 139.91 19.2183 140.421 19.2183C140.933 19.2183 141.188 19.4745 141.188 19.987V24.8556C140.933 25.8806 140.933 28.9555 136.84 28.9555ZM133.515 19.7307V24.5994C133.515 26.3931 134.027 28.1868 136.84 28.1868C139.654 28.1868 140.165 26.3931 140.165 24.5994V19.987V24.8556C140.165 26.1368 140.165 28.443 136.84 28.443C133.515 28.443 133.515 25.8806 133.515 24.8556V19.7307Z" fill="black"></path><path d="M147.838 28.186C147.838 28.4423 147.583 28.4423 147.583 28.4423C147.327 28.4423 147.327 28.4423 147.327 28.186V20.2425H144.513C144.258 20.2425 144.258 19.9862 144.258 19.9862C144.258 19.73 144.258 19.73 144.513 19.73H150.908C151.164 19.73 151.164 19.9862 151.164 19.9862C151.164 20.2425 151.164 20.2425 150.908 20.2425H148.094V28.186H147.838Z" fill="black"></path><path d="M147.327 28.9552C146.815 28.9552 146.56 28.6989 146.56 28.1864V20.4991H144.002C143.49 20.4991 143.235 20.2429 143.235 19.7304C143.235 19.2179 143.49 18.9617 144.002 18.9617H150.396C150.908 18.9617 151.164 19.2179 151.164 19.7304C151.164 19.9866 150.908 20.4991 150.396 20.4991H147.839V28.1864C148.094 28.6989 147.583 28.9552 147.327 28.9552ZM144.258 19.9866H147.327V28.1864V19.9866H150.396H144.258Z" fill="black"></path><path d="M160.116 27.6735C160.628 27.9298 161.139 27.9298 161.651 27.9298C162.674 27.9298 163.953 27.4173 163.953 26.1361C163.953 24.8548 162.93 24.5986 162.162 24.3424C161.139 24.0861 159.86 23.5736 159.86 22.0362C159.86 20.755 160.883 19.73 162.418 19.73C162.93 19.73 163.441 19.9862 163.953 19.9862C163.953 19.9862 164.208 19.9862 164.208 20.2425C164.208 20.4987 163.953 20.4987 163.953 20.4987H163.697C163.441 20.4987 162.93 20.2425 162.418 20.2425C161.139 20.2425 160.628 21.0112 160.628 22.0362C160.628 23.0611 161.651 23.5736 162.418 23.8299C163.441 24.0861 164.72 24.5986 164.72 26.3923C164.72 27.9298 163.441 28.9547 161.651 28.9547C160.628 28.9547 159.86 28.6985 159.604 28.4423C159.349 28.4423 159.349 28.186 159.349 28.186C159.349 27.9298 159.604 27.9298 159.604 27.9298C159.86 27.4173 159.86 27.4173 160.116 27.6735Z" fill="black"></path><path d="M161.651 28.9552C160.627 28.9552 159.86 28.6989 159.604 28.4427C159.349 28.4427 159.093 28.1864 159.093 27.6739C159.093 27.4177 159.349 26.9052 159.86 26.9052C159.86 26.9052 160.116 26.9052 160.372 27.1615C160.883 27.4177 161.395 27.4177 161.906 27.4177C162.418 27.4177 163.953 27.4177 163.953 25.8802C163.953 24.8553 163.441 24.599 162.162 24.3428C161.139 24.0865 159.604 23.574 159.604 21.7803C159.604 20.4991 160.627 18.9617 162.418 18.9617C162.929 18.9617 163.697 19.2179 164.208 19.4742C164.208 19.4742 164.72 19.7304 164.72 19.9866C164.72 20.2429 164.464 20.7554 163.953 20.7554C163.697 20.7554 163.697 20.7554 163.441 20.4991C163.185 20.4991 162.929 20.2429 162.418 20.2429C161.395 20.2429 160.883 21.0116 160.883 21.5241C160.883 22.2928 161.395 22.5491 162.418 23.0616C163.441 23.574 164.976 24.0865 164.976 25.8802C164.976 27.9302 163.697 28.9552 161.651 28.9552ZM159.604 27.6739C159.604 27.9302 159.86 27.9302 159.604 27.6739C160.116 27.9302 160.627 28.1864 161.651 28.1864C162.929 28.1864 164.208 27.6739 164.208 26.1365C164.208 24.599 163.185 24.3428 162.162 23.8303C161.139 23.574 160.116 23.0616 160.116 21.7803C160.116 20.7554 160.883 19.7304 162.162 19.7304C162.674 19.7304 163.185 19.9866 163.441 19.9866C163.697 19.9866 163.697 19.9866 163.697 19.9866C163.185 19.7304 162.674 19.7304 162.162 19.7304C160.627 19.7304 159.86 20.7554 159.86 21.7803C159.86 23.0616 160.883 23.574 161.906 23.8303C162.929 24.0865 163.953 24.599 163.953 26.1365C163.953 27.6739 162.674 28.1864 161.395 28.1864C160.883 28.1864 160.116 27.9302 159.604 27.6739V27.6739C159.86 27.6739 159.86 27.9302 159.604 27.6739Z" fill="black"></path><path d="M172.905 23.5748C173.161 23.5748 173.161 23.8311 173.161 23.8311C173.161 24.0873 173.161 24.0873 172.905 24.0873H169.068V27.1623C169.068 27.4185 169.324 27.6747 169.58 27.6747H173.416C173.672 27.6747 173.672 27.931 173.672 27.931C173.672 28.1872 173.672 28.1872 173.416 28.1872H169.324C168.301 28.1872 168.301 27.4185 168.301 27.1623V20.7562C168.301 20.4999 168.301 19.7312 169.324 19.7312H173.161C173.416 19.7312 173.416 19.9874 173.416 19.9874C173.416 20.2437 173.416 20.2437 173.161 20.2437H169.324C169.068 20.2437 168.812 20.2437 168.812 20.7562V23.5748H172.905V23.5748Z" fill="black"></path><path d="M173.416 28.6993H169.324C168.556 28.6993 168.045 28.1868 168.045 27.1618V20.7557C168.045 19.7307 168.556 19.2183 169.324 19.2183H173.16C173.672 19.2183 173.928 19.4745 173.928 19.987C173.928 20.2432 173.672 20.7557 173.16 20.7557H169.324V23.3182H172.905C173.416 23.3182 173.416 23.5744 173.416 24.0869C173.416 24.5994 173.16 24.8556 172.905 24.8556H169.324V27.6743H173.16C173.672 27.6743 173.928 27.9305 173.928 28.443C174.184 28.443 173.928 28.6993 173.416 28.6993ZM169.58 19.987C169.068 19.987 168.812 20.2432 168.812 20.7557V27.418C168.812 27.9305 168.812 28.1868 169.58 28.1868H173.672H169.835C169.58 28.1868 169.068 28.1868 169.068 27.418V23.8306H173.16H169.068V20.7557C168.812 20.2432 169.068 19.987 169.58 19.987H173.416H169.58Z" fill="black"></path><path d="M182.624 27.931C182.624 28.1872 182.88 28.1872 182.88 28.1872C182.88 28.4435 182.624 28.4435 182.624 28.4435C182.368 28.4435 182.368 28.4435 182.368 28.1872L179.299 24.3436H178.275V28.1872C178.275 28.4435 178.02 28.4435 178.02 28.4435C177.764 28.4435 177.764 28.4435 177.764 28.1872V20.7562C177.764 20.4999 177.764 19.7312 178.787 19.7312H180.322C182.112 19.7312 182.88 20.7562 182.88 22.0374C182.88 23.0624 182.368 24.3436 180.322 24.3436L182.624 27.931ZM179.554 23.8311C180.066 23.8311 181.856 23.8311 181.856 22.0374C181.856 20.2437 180.322 20.2437 179.554 20.2437H178.531C178.275 20.2437 178.02 20.2437 178.02 20.7562V23.8311H179.554Z" fill="black"></path><path d="M182.368 28.9555C182.112 28.9555 181.857 28.6993 181.857 28.6993L178.787 24.8556H178.276V28.1868C178.276 28.6993 178.02 28.9555 177.508 28.9555C176.997 28.9555 176.741 28.6993 176.741 28.1868V20.7557C176.741 19.7307 177.253 19.2183 178.02 19.2183H179.555C181.601 19.2183 182.368 20.4995 182.368 22.0369C182.368 23.3182 181.857 24.3431 180.066 24.5994L182.368 27.6743L182.112 27.9305L182.368 27.6743C182.368 27.9305 182.624 27.9305 182.624 28.1868C183.136 28.6993 182.624 28.9555 182.368 28.9555ZM177.764 24.0869H179.299L182.368 27.9305L182.624 27.6743L182.368 27.9305L179.299 23.8306H179.81C181.857 23.8306 182.112 22.2932 182.112 21.7807C182.112 20.4995 181.345 19.7307 179.81 19.7307H178.276C177.764 19.7307 177.508 19.987 177.508 20.4995V28.1868V24.0869H177.764ZM179.555 24.0869H177.764V20.7557C177.764 20.2432 178.02 19.987 178.532 19.987H179.555C180.066 19.987 182.112 19.987 182.112 22.0369C182.112 23.3182 181.345 24.0869 179.555 24.0869ZM178.276 23.5744H179.555C180.578 23.5744 181.601 23.3182 181.601 22.0369C181.601 20.7557 180.578 20.7557 179.555 20.7557H178.532V23.5744H178.276Z" fill="black"></path><path d="M192.599 19.7299C192.599 19.7299 192.599 19.4736 192.855 19.4736C193.111 19.4736 193.367 19.7299 193.367 19.7299V19.9861L190.042 28.1859C190.042 28.4421 189.786 28.6984 189.53 28.6984C189.274 28.6984 189.018 28.4421 189.018 28.1859L185.693 19.9861V19.7299C185.693 19.4736 185.949 19.4736 186.205 19.4736C186.461 19.4736 186.461 19.4736 186.461 19.7299L189.786 27.9297L192.599 19.7299Z" fill="black"></path><path d="M189.274 28.9551C188.763 28.9551 188.507 28.4426 188.507 28.4426L185.182 20.2428C185.182 20.2428 185.182 19.9865 185.182 19.7303C185.182 19.2178 185.438 18.9616 185.949 18.9616C186.461 18.9616 186.461 19.2178 186.461 19.4741L189.274 26.9051L192.088 19.4741H192.344L192.088 19.2178C192.088 19.2178 192.344 18.7053 192.599 18.7053C192.855 18.7053 193.367 18.9616 193.367 19.4741C193.367 19.7303 193.367 19.7303 193.367 19.9865L190.042 27.9301C190.042 28.4426 190.042 28.9551 189.274 28.9551ZM192.599 19.7303H192.855L189.53 28.1863C189.53 28.1863 189.53 28.1863 189.786 27.9301L193.111 19.7303C193.111 19.7303 193.111 19.7303 193.111 19.4741L192.599 19.7303ZM185.693 19.7303C185.693 19.7303 185.693 19.9865 185.693 19.7303C185.693 19.9865 185.693 19.9865 185.693 19.7303L189.019 28.1863C189.019 28.1863 189.019 28.4426 189.274 28.4426L185.693 19.7303Z" fill="black"></path><path d="M196.692 19.9874C196.692 19.7312 196.948 19.7312 196.948 19.7312C197.204 19.7312 197.204 19.9874 197.204 19.9874V28.1872C197.204 28.4435 196.948 28.4435 196.948 28.4435C196.692 28.4435 196.692 28.1872 196.692 28.1872V19.9874Z" fill="black"></path><path d="M197.204 28.9555C196.692 28.9555 196.436 28.6993 196.436 28.1868V19.987C196.436 19.4745 196.692 19.2183 197.204 19.2183C197.715 19.2183 197.971 19.4745 197.971 19.987V28.1868C197.971 28.6993 197.459 28.9555 197.204 28.9555ZM197.204 19.7307V28.1868V19.7307Z" fill="black"></path><path d="M201.296 24.087C201.296 21.5246 203.086 19.4746 205.9 19.4746C206.923 19.4746 207.69 19.7309 208.202 19.9871C208.458 19.9871 208.458 20.2433 208.458 20.2433C208.458 20.4996 208.202 20.4996 208.202 20.4996C208.202 20.4996 207.946 20.4996 207.946 20.2433C207.179 19.7309 206.411 19.7309 206.156 19.7309C203.854 19.7309 202.319 21.5246 202.319 23.5745C202.319 25.3682 203.598 27.4181 206.411 27.4181C207.179 27.4181 207.69 27.1619 208.202 27.1619C208.202 27.1619 208.458 26.9057 208.713 26.9057C208.713 26.9057 208.969 26.9057 208.969 27.1619C208.969 27.4181 208.713 27.4181 208.713 27.4181C207.946 27.9306 206.923 27.9306 206.156 27.9306C203.086 28.6994 201.296 26.6494 201.296 24.087Z" fill="black"></path><path d="M206.155 28.9555C203.086 28.9555 201.04 26.9056 201.04 24.0869C201.04 21.2682 203.086 19.2183 205.9 19.2183C206.923 19.2183 207.69 19.4745 208.457 19.7307C208.713 19.987 208.969 20.2432 208.969 20.2432C208.969 20.4995 208.713 21.012 208.202 21.012C207.946 21.012 207.946 21.012 207.69 20.7557C207.178 20.4995 206.411 20.4995 206.155 20.4995C204.109 20.4995 202.574 22.0369 202.574 24.0869C202.574 25.8806 203.598 27.6743 206.155 27.6743C206.923 27.6743 207.434 27.418 207.946 27.418C208.202 27.1618 208.457 27.1618 208.457 27.1618C208.713 27.1618 208.969 27.418 208.969 27.9305C208.969 28.1868 208.969 28.443 208.457 28.443C207.69 28.9555 206.667 28.9555 206.155 28.9555ZM206.155 19.7307C203.598 19.7307 201.807 21.5244 201.807 24.0869C201.807 26.1368 203.086 28.443 206.155 28.443C206.667 28.443 207.69 28.443 208.457 27.9305H208.202C207.69 28.1868 207.178 28.1868 206.155 28.1868C203.086 28.1868 201.807 25.8806 201.807 24.0869C201.807 21.5244 203.598 19.987 206.155 19.7307C206.667 19.7307 207.434 19.7307 208.202 20.2432C207.69 19.987 206.923 19.7307 206.155 19.7307Z" fill="black"></path><path d="M216.898 23.5748C217.154 23.5748 217.154 23.8311 217.154 23.8311C217.154 24.0873 217.154 24.0873 216.898 24.0873H213.062V27.1623C213.062 27.4185 213.318 27.6747 213.573 27.6747H217.41C217.666 27.6747 217.666 27.931 217.666 27.931C217.666 28.1872 217.666 28.1872 217.41 28.1872H213.318C212.294 28.1872 212.294 27.4185 212.294 27.1623V20.7562C212.294 20.4999 212.294 19.7312 213.318 19.7312H217.154C217.41 19.7312 217.41 19.9874 217.41 19.9874C217.41 20.2437 217.41 20.2437 217.154 20.2437H213.318C213.062 20.2437 212.806 20.2437 212.806 20.7562V23.5748H216.898V23.5748Z" fill="black"></path><path d="M217.41 28.6993H213.317C212.55 28.6993 212.038 28.1868 212.038 27.1618V20.7557C212.038 19.7307 212.55 19.2183 213.317 19.2183H217.154C217.665 19.2183 217.921 19.4745 217.921 19.987C217.921 20.2432 217.665 20.7557 217.154 20.7557H213.317V23.3182H216.898C217.41 23.3182 217.41 23.5744 217.41 24.0869C217.41 24.5994 217.154 24.8556 216.898 24.8556H213.317V27.6743H217.154C217.665 27.6743 217.921 27.9305 217.921 28.443C217.921 28.443 217.665 28.6993 217.41 28.6993ZM213.317 19.987C212.806 19.987 212.55 20.2432 212.55 20.7557V27.418C212.55 27.9305 212.55 28.1868 213.317 28.1868H217.41H213.573C213.317 28.1868 212.806 28.1868 212.806 27.418V23.8306H216.898H212.806V20.7557C212.55 20.2432 212.806 19.987 213.317 19.987H217.154H213.317Z" fill="black"></path><path d="M100.52 94.0409L99.241 97.3721C99.241 97.6283 98.9852 97.8846 98.7294 97.8846C98.4737 97.8846 98.2179 97.6283 98.2179 97.3721V97.1158L102.31 87.1224C102.31 86.8661 102.566 86.6099 103.078 86.6099C103.589 86.6099 103.845 86.8661 103.845 87.1224L107.937 97.1158V97.3721C107.937 97.6283 107.682 97.8846 107.426 97.8846C107.17 97.8846 107.17 97.6283 106.914 97.3721L105.635 94.0409H100.52ZM105.38 93.2722L103.078 87.3786L100.776 93.2722H105.38Z" fill="black"></path><path d="M107.426 98.3971C106.658 98.3971 106.403 97.8846 106.403 97.6284L105.379 94.8097H101.031L100.008 97.6284C100.008 97.8846 99.7524 98.3971 98.985 98.3971C98.4735 98.3971 97.9619 97.8846 97.9619 97.3721C97.9619 97.1159 97.9619 97.1159 97.9619 96.8597L102.054 86.6099C102.31 85.8412 103.077 85.585 103.333 85.585C103.845 85.585 104.356 85.8412 104.612 86.6099L108.705 96.6034C108.705 96.8597 108.96 96.8597 108.96 97.1159C108.449 97.8846 107.937 98.3971 107.426 98.3971ZM101.799 92.7598H104.612L103.333 89.1724L101.799 92.7598Z" fill="black"></path><path d="M112.03 97.6284C110.751 97.6284 110.751 96.6034 110.751 96.3472V88.1474C110.751 87.6349 110.751 86.8662 112.03 86.8662H114.076C115.099 86.8662 117.657 86.8662 117.657 89.4286C117.657 91.2223 116.634 91.7348 115.866 91.9911C116.634 92.2473 117.912 92.7598 117.912 94.8097C117.912 97.8847 114.843 97.8847 114.076 97.8847H112.03V97.6284ZM114.076 91.4786C114.843 91.4786 116.634 91.4786 116.634 89.4286C116.634 87.3787 115.099 87.3787 113.82 87.3787H112.03C111.518 87.3787 111.518 87.3787 111.518 87.8912V91.4786H114.076V91.4786ZM111.518 96.091C111.518 96.6034 111.774 96.6035 112.03 96.6035H113.82C114.843 96.6035 116.889 96.6035 116.889 94.5535C116.889 92.2473 114.843 92.2473 113.82 92.2473H111.262V96.091H111.518Z" fill="black"></path><path d="M114.076 98.141H112.03C111.262 98.141 110.239 97.8847 110.239 96.091V87.8913C110.239 86.0975 111.262 85.8413 112.03 85.8413H114.076C116.889 85.8413 118.424 86.8663 118.424 89.1725C118.424 90.4537 117.913 91.2224 117.401 91.7349C118.168 92.2474 118.936 93.0161 118.936 94.5536C118.68 96.091 117.913 98.141 114.076 98.141ZM112.285 96.091H114.076C115.611 96.091 116.634 95.8348 116.634 94.5536C116.634 93.2724 115.866 92.7599 114.332 92.7599H112.285V96.091ZM112.285 90.7099H114.076C115.611 90.7099 116.122 90.1974 116.122 89.1725C116.122 88.1475 115.611 87.8913 113.82 87.8913H112.285V90.7099Z" fill="black"></path><path d="M126.353 86.3533C129.678 86.3533 131.98 88.6595 131.98 91.9906C131.98 95.3218 129.423 97.628 126.353 97.628C123.284 97.628 120.726 95.3218 120.726 91.9906C120.726 88.6595 123.028 86.3533 126.353 86.3533ZM126.353 96.8592C129.167 96.8592 131.213 94.8093 131.213 91.9906C131.213 89.1719 129.167 87.122 126.353 87.122C123.54 87.122 121.494 89.1719 121.494 91.9906C121.494 94.8093 123.54 96.8592 126.353 96.8592Z" fill="black"></path><path d="M126.353 98.3971C122.772 98.3971 119.959 95.5784 119.959 91.991C119.959 88.4036 122.772 85.585 126.353 85.585C129.934 85.585 132.748 88.4036 132.748 91.991C132.748 95.5784 129.934 98.3971 126.353 98.3971ZM126.353 87.8911C124.051 87.8911 122.261 89.6848 122.261 92.2473C122.261 94.5535 124.051 96.6034 126.353 96.6034C128.655 96.6034 130.446 94.8097 130.446 92.2473C130.446 89.6848 128.655 87.8911 126.353 87.8911Z" fill="black"></path><path d="M135.05 86.8665C135.05 86.6102 135.305 86.354 135.561 86.354C135.817 86.354 136.073 86.6102 136.073 86.8665V92.7601C136.073 94.5538 136.073 96.86 139.654 96.86C143.234 96.86 143.234 94.2975 143.234 92.7601V86.8665C143.234 86.6102 143.49 86.354 143.746 86.354C144.002 86.354 144.257 86.6102 144.257 86.8665V92.7601C144.257 94.2975 144.257 97.6287 139.654 97.6287C135.305 97.6287 135.05 94.2975 135.05 92.7601V86.8665V86.8665Z" fill="black"></path><path d="M139.654 98.3972C134.538 98.3972 134.538 94.2973 134.538 92.7599V86.8663C134.538 86.0976 135.05 85.8413 135.561 85.8413C136.328 85.8413 136.584 86.3538 136.584 86.8663V92.7599C136.584 94.8098 136.84 96.3473 139.654 96.3473C142.467 96.3473 142.723 94.5536 142.723 92.7599V86.8663C142.723 86.0976 143.234 85.8413 143.746 85.8413C144.513 85.8413 144.769 86.3538 144.769 86.8663V92.7599C144.769 94.2973 144.769 98.3972 139.654 98.3972ZM135.305 86.8663H135.561H134.794H135.305Z" fill="black"></path><path d="M151.675 97.3725C151.675 97.6287 151.419 97.885 151.163 97.885C150.908 97.885 150.652 97.6287 150.652 97.3725V87.379H147.071C146.815 87.379 146.559 87.1227 146.559 86.8665C146.559 86.6102 146.815 86.354 147.071 86.354H155C155.256 86.354 155.512 86.6102 155.512 86.8665C155.512 87.1227 155.256 87.379 155 87.379H151.419V97.3725H151.675Z" fill="black"></path><path d="M151.419 98.3973C150.652 98.3973 150.396 97.8848 150.396 97.3724V88.1476H147.583C147.071 88.1476 146.559 87.6351 146.559 87.1226C146.559 86.6101 147.071 86.0977 147.583 86.0977H155.512C156.023 86.0977 156.535 86.6101 156.535 87.1226C156.535 87.6351 156.023 88.1476 155.512 88.1476H152.698V97.3724C152.442 98.1411 151.931 98.3973 151.419 98.3973ZM151.163 97.3724H151.931H151.163Z" fill="black"></path><path d="M93.8697 190.646C94.637 190.902 95.1486 191.158 95.9159 191.158C97.1948 191.158 98.7295 190.646 98.7295 188.852C98.7295 187.315 97.4506 186.802 96.4275 186.546C95.1486 186.033 93.3582 185.521 93.3582 183.471C93.3582 181.933 94.637 180.396 96.6832 180.396C97.4506 180.396 97.9621 180.652 98.7295 180.908C98.7295 180.908 98.9852 181.165 98.9852 181.421C98.9852 181.677 98.7295 181.933 98.4737 181.933C98.4737 181.933 98.2179 181.933 97.9621 181.677C97.7063 181.677 97.1948 181.421 96.4275 181.421C94.8928 181.421 94.1255 182.446 94.1255 183.471C94.1255 184.752 95.1486 185.265 96.4275 185.777C97.7064 186.29 99.4968 186.802 99.4968 188.852C99.4968 190.902 97.7064 191.927 95.6601 191.927C94.3813 191.927 93.3581 191.414 93.1024 191.414C92.8466 191.414 92.5908 191.158 92.5908 190.902C92.5908 190.646 92.8466 190.389 93.1024 190.389C93.3581 190.389 93.6139 190.389 93.8697 190.646Z" fill="black"></path><path d="M95.9159 192.439C94.3812 192.439 93.6139 191.927 93.1023 191.927C92.8465 191.927 92.335 191.414 92.335 190.902C92.335 190.389 92.8465 189.877 93.3581 189.877C93.6139 189.877 93.6138 189.877 94.1254 190.133C94.6369 190.389 95.1485 190.646 95.9159 190.646C96.4274 190.646 98.2178 190.646 98.2178 189.108C98.2178 188.083 97.4505 187.827 96.1716 187.314C94.8927 186.802 92.8465 186.033 92.8465 183.727C92.8465 181.677 94.3812 180.14 96.6832 180.14C97.4505 180.14 98.2178 180.396 98.9852 180.652C99.4967 180.908 99.7525 181.165 99.7525 181.677C99.7525 182.19 99.2409 182.702 98.7294 182.702C98.4736 182.702 98.2178 182.702 97.962 182.446C97.7063 182.446 97.1947 182.19 96.6832 182.19C95.66 182.19 95.1485 182.958 95.1485 183.727C95.1485 184.496 95.6601 184.752 97.1947 185.265C98.4736 185.777 100.52 186.546 100.52 189.108C100.264 191.158 98.4736 192.439 95.9159 192.439Z" fill="black"></path><path d="M108.449 185.521C108.705 185.521 108.96 185.777 108.96 186.033C108.96 186.289 108.705 186.546 108.449 186.546H103.589V190.389C103.589 190.902 103.845 190.902 104.101 190.902H108.96C109.216 190.902 109.472 191.158 109.472 191.414C109.472 191.671 109.216 191.927 108.96 191.927H103.845C102.566 191.927 102.566 190.902 102.566 190.646V182.446C102.566 181.933 102.566 181.165 103.845 181.165H108.705C108.96 181.165 109.216 181.421 109.216 181.677C109.216 181.933 108.96 182.19 108.705 182.19H104.101C103.589 182.19 103.589 182.19 103.589 182.702V186.289H108.449V185.521Z" fill="black"></path><path d="M109.216 192.439H104.1C103.333 192.439 102.31 192.183 102.31 190.389V182.19C102.31 180.396 103.333 180.14 104.1 180.14H108.96C109.728 180.14 109.983 180.652 109.983 181.165C109.983 181.677 109.472 182.19 108.96 182.19H104.356V185.008H108.449C109.216 185.008 109.472 185.521 109.472 186.033C109.472 186.546 108.96 187.058 108.449 187.058H104.356V190.133H109.216C109.983 190.133 110.239 190.646 110.239 191.158C110.239 191.927 109.728 192.439 109.216 192.439Z" fill="black"></path><path d="M119.191 191.158C119.191 191.414 119.447 191.414 119.447 191.67C119.447 191.927 119.191 192.183 118.936 192.183C118.68 192.183 118.68 191.927 118.424 191.927L114.587 187.058H113.309V191.927C113.309 192.183 113.053 192.439 112.797 192.439C112.541 192.439 112.286 192.183 112.286 191.927V182.446C112.286 181.933 112.286 181.164 113.564 181.164H115.611C117.913 181.164 118.936 182.446 118.936 184.239C118.936 185.52 118.168 187.314 115.611 187.314L119.191 191.158ZM115.355 185.777C116.122 185.777 118.168 185.777 118.168 183.727C118.168 181.677 116.122 181.677 115.355 181.677H114.076C113.564 181.677 113.564 181.677 113.564 182.189V186.033H115.355V185.777Z" fill="black"></path><path d="M118.936 192.439C118.424 192.439 118.168 192.183 117.912 191.927L114.332 187.314H114.076V191.414C114.076 192.183 113.564 192.439 113.053 192.439C112.285 192.439 112.03 191.926 112.03 191.414V181.933C112.03 180.139 113.053 179.883 113.82 179.883H115.866C118.168 179.883 119.703 181.421 119.703 183.47C119.703 184.752 118.936 186.545 116.889 187.058L119.703 190.645L119.191 191.158L119.703 190.902C119.959 191.158 119.959 191.414 119.959 191.67C119.959 192.183 119.447 192.439 118.936 192.439ZM118.68 191.414C118.936 191.158 118.936 191.158 118.68 191.414V191.414ZM114.076 185.264H115.355C116.889 185.264 117.401 184.752 117.401 183.727C117.401 182.445 116.634 182.189 115.355 182.189H114.076V185.264Z" fill="black"></path><path d="M130.19 180.652C130.19 180.652 130.19 180.396 130.701 180.396C130.957 180.396 131.213 180.652 131.213 180.908V181.165L127.12 191.158C127.12 191.414 126.865 191.671 126.353 191.671C125.841 191.671 125.586 191.414 125.586 191.158L121.493 181.165V180.908C121.493 180.652 121.749 180.396 122.005 180.396C122.261 180.396 122.261 180.652 122.516 180.652L126.609 190.646L130.19 180.652Z" fill="black"></path><path d="M126.097 192.695C125.074 192.695 124.819 191.927 124.819 191.67L120.726 181.421C120.726 181.164 120.47 181.164 120.47 180.908C120.47 180.139 120.982 179.883 121.493 179.883C122.005 179.883 122.261 180.139 122.517 180.652L125.842 189.364L129.167 180.652L129.678 180.908L129.167 180.652C129.423 180.139 129.678 179.883 130.19 179.883C130.701 179.883 131.213 180.396 131.213 180.908C131.213 181.164 131.213 181.421 130.957 181.421L126.865 191.414C127.376 191.926 127.121 192.439 126.097 192.695ZM130.19 180.652L130.701 180.908L130.19 180.652Z" fill="black"></path><path d="M134.027 180.908C134.027 180.652 134.282 180.396 134.538 180.396C134.794 180.396 135.05 180.652 135.05 180.908V191.414C135.05 191.927 134.794 191.927 134.538 191.927C134.282 191.927 134.027 191.671 134.027 191.414V180.908Z" fill="black"></path><path d="M134.538 192.439C133.771 192.439 133.515 191.926 133.515 191.414V180.908C133.515 180.139 134.027 179.883 134.538 179.883C135.306 179.883 135.561 180.396 135.561 180.908V191.414C135.561 192.183 135.05 192.439 134.538 192.439ZM134.282 180.908H134.538H133.771H134.282Z" fill="black"></path><path d="M138.375 186.289C138.375 183.214 140.677 180.652 144.258 180.652C145.536 180.652 146.56 180.908 147.327 181.42C147.583 181.677 147.583 181.677 147.583 181.933C147.583 182.189 147.327 182.445 147.071 182.445C146.815 182.445 146.815 182.445 146.56 182.189C145.536 181.677 144.513 181.677 144.258 181.677C141.444 181.677 139.398 183.727 139.398 186.545C139.398 188.851 140.932 191.414 144.513 191.414C145.536 191.414 146.304 191.158 146.815 190.901L147.327 190.645C147.583 190.645 147.838 190.901 147.838 191.158C147.838 191.414 147.583 191.414 147.583 191.67C146.56 192.183 145.281 192.439 144.513 192.439C140.421 191.926 138.375 189.364 138.375 186.289Z" fill="black"></path><path d="M144.258 192.439C140.421 192.439 137.863 189.876 137.863 186.033C137.863 182.445 140.677 179.627 144.258 179.627C145.536 179.627 146.56 179.883 147.583 180.395C148.094 180.652 148.094 181.164 148.094 181.42C148.094 181.933 147.583 182.445 147.071 182.445C146.815 182.445 146.56 182.445 146.304 182.189C145.536 181.677 144.513 181.677 144.258 181.677C141.7 181.677 139.909 183.47 139.909 186.033C139.909 188.083 141.188 190.389 144.258 190.389C145.281 190.389 145.792 190.133 146.304 189.876C146.815 189.62 146.815 189.62 147.071 189.62C147.583 189.62 148.094 190.133 148.094 190.645C148.094 190.901 148.094 191.414 147.327 191.67C146.304 192.439 145.025 192.439 144.258 192.439Z" fill="black"></path><path d="M156.023 185.521C156.279 185.521 156.535 185.777 156.535 186.033C156.535 186.289 156.279 186.546 156.023 186.546H151.163V190.389C151.163 190.902 151.419 190.902 151.675 190.902H156.535C156.791 190.902 157.046 191.158 157.046 191.414C157.046 191.671 156.791 191.927 156.535 191.927H151.419C150.14 191.927 150.14 190.902 150.14 190.646V182.446C150.14 181.933 150.14 181.165 151.419 181.165H156.279C156.535 181.165 156.791 181.421 156.791 181.677C156.791 181.933 156.535 182.19 156.279 182.19H151.675C151.163 182.19 151.163 182.19 151.163 182.702V186.289H156.023V185.521Z" fill="black"></path><path d="M156.79 192.439H151.675C150.908 192.439 149.885 192.183 149.885 190.389V182.19C149.885 180.396 150.908 180.14 151.675 180.14H156.535C157.302 180.14 157.558 180.652 157.558 181.165C157.558 181.677 157.046 182.19 156.535 182.19H151.931V185.008H156.023C156.791 185.008 157.046 185.521 157.046 186.033C157.046 186.546 156.535 187.058 156.023 187.058H151.931V190.133H156.79C157.558 190.133 157.814 190.646 157.814 191.158C157.814 191.927 157.302 192.439 156.79 192.439Z" fill="black"></path><path d="M48.0858 15.6311H18.9272V31.0057H48.0858V15.6311Z" fill="black"></path><path d="M247.08 40.2305H2.81323V45.3553H247.08V40.2305Z" fill="black"></path><path d="M211.015 114.028H37.8545V116.591H211.015V114.028Z" fill="black"></path><path d="M211.015 127.609H37.8545V130.171H211.015V127.609Z" fill="black"></path><path d="M211.015 140.934H37.8545V143.496H211.015V140.934Z" fill="black"></path><path d="M211.015 154.514H37.8545V157.077H211.015V154.514Z" fill="black"></path></svg> 