<?xml version="1.0" encoding="UTF-8"?> <svg xmlns="http://www.w3.org/2000/svg" width="235" height="272" viewBox="0 0 235 272" fill="none"><path d="M218.68 271.097H15.9911C7.44399 271.097 0.524886 264.177 0.524886 255.629V15.468C0.11788 6.91989 7.03699 0 15.9911 0H218.68C227.227 0 234.146 6.91989 234.146 15.468V255.629C234.146 264.177 227.227 271.097 218.68 271.097ZM15.9911 8.14105C11.9211 8.14105 8.66501 11.3975 8.66501 15.468V255.629C8.66501 259.7 11.9211 262.956 15.9911 262.956H218.68C222.75 262.956 226.006 259.7 226.006 255.629V15.468C226.006 11.3975 222.75 8.14105 218.68 8.14105H15.9911V8.14105Z" fill="black"></path><path d="M191.818 37.856C192.632 37.856 193.447 38.6701 193.447 39.4842V191.315C193.447 192.129 192.632 192.943 191.818 192.943C191.004 192.943 190.19 192.129 190.19 191.315V39.4842C190.19 38.6701 190.597 37.856 191.818 37.856Z" fill="black"></path><path d="M191.819 194.978C189.784 194.978 188.156 193.35 188.156 191.315V39.4841C188.156 37.4489 189.784 35.8207 191.819 35.8207C193.854 35.8207 195.482 37.4489 195.482 39.4841V191.315C195.482 193.35 193.854 194.978 191.819 194.978Z" fill="black"></path><path d="M204.843 50.4745L202.401 52.5098L191.819 40.7052L180.83 52.5098L178.388 50.4745L191.819 36.2277L204.843 50.4745Z" fill="black"></path><path d="M202.4 55.3592L191.818 43.9617L180.829 55.3592L175.538 50.4746L191.818 32.9713L207.692 50.4746L202.4 55.3592Z" fill="black"></path><path d="M204.842 251.966C204.028 251.966 202.807 251.558 201.993 250.744L190.597 240.568L181.643 250.744C180.015 252.373 177.573 252.373 175.945 250.744C174.317 249.116 174.317 246.674 175.945 245.046L188.155 232.02C189.783 230.392 192.225 230.392 193.853 231.613L208.098 244.639C209.726 246.267 209.726 248.709 208.505 250.337C207.284 251.558 206.063 251.966 204.842 251.966Z" fill="#040000"></path><path d="M229.669 212.074H5.81592V220.215H229.669V212.074Z" fill="black"></path></svg> 