<?xml version="1.0" encoding="UTF-8"?> <svg xmlns="http://www.w3.org/2000/svg" width="392" height="297" viewBox="0 0 392 297" fill="none"><path d="M123.017 82.6316C121.389 82.6316 120.575 82.2246 120.168 81.0034C120.168 81.0034 120.168 80.1893 120.168 78.5611C120.168 77.34 121.389 76.5259 122.61 76.5259C123.831 76.5259 125.052 77.34 124.645 78.5611C124.645 79.3752 124.645 80.1893 124.645 80.1893C125.052 81.4104 124.238 82.6316 123.017 82.6316Z" fill="black"></path><path d="M127.495 69.199C127.088 69.199 126.274 69.1989 125.867 68.7919C124.646 68.3848 124.239 67.1636 125.053 65.9425C125.867 64.7213 127.088 63.5002 127.902 62.279C128.716 61.4649 130.344 61.0579 131.158 61.872C131.972 62.6861 132.379 63.9073 131.565 64.7214C130.751 65.5355 129.53 66.7566 129.123 67.9777C128.716 68.3848 128.309 68.7919 127.495 69.199Z" fill="black"></path><path d="M231.281 65.9424C230.467 65.9424 229.246 65.9425 228.839 65.1284C228.025 63.9072 227.211 63.093 226.397 61.8719C225.583 61.0578 225.99 59.8367 226.804 59.0226C228.025 58.2085 229.246 58.2084 230.06 59.4295C230.874 60.6507 232.096 61.8719 232.91 62.686C233.724 63.5001 233.317 64.7212 232.096 65.5353C231.689 65.9424 231.688 65.9424 231.281 65.9424ZM218.664 54.952C218.257 54.952 217.443 54.952 217.036 54.545C215.815 53.7309 214.594 53.3238 213.373 52.9168C212.152 52.5097 211.745 51.2885 212.559 50.0674C213.373 48.8462 214.594 48.4391 215.815 49.2532C217.443 50.0673 218.664 50.4744 219.885 51.2885C221.106 51.6955 221.106 53.3238 220.292 54.1379C219.885 54.5449 219.071 54.952 218.664 54.952ZM201.57 49.2532C201.163 49.2532 200.756 49.2532 200.756 49.2532C199.535 48.8462 197.907 48.8463 196.279 48.8463C195.058 48.8463 194.244 47.6251 194.244 46.4039C194.651 45.1828 195.872 44.3687 197.093 44.7757C198.721 44.7757 200.349 45.1827 201.977 45.5898C203.198 45.9968 204.012 46.8109 203.605 48.0321C203.198 48.4392 202.384 49.2532 201.57 49.2532ZM141.74 57.8013C140.926 57.8013 139.705 57.8014 139.298 56.9873C138.484 56.1732 139.298 54.952 140.112 54.1379C141.333 53.3238 142.961 52.9167 144.589 52.1026C145.81 51.6956 147.031 52.1027 147.845 52.9168C148.252 53.7309 147.845 55.359 146.624 55.7661C144.996 56.1731 143.775 56.9872 142.554 57.8013C142.147 57.3943 141.74 57.8013 141.74 57.8013ZM182.848 48.4392H182.441C181.627 48.4392 180.813 48.4392 180.406 48.4392H177.964C176.743 48.4392 175.522 47.6251 175.522 46.4039C175.522 45.1828 176.336 44.3687 177.964 44.3687H180.406C181.22 44.3687 182.034 44.3687 182.848 44.3687C184.069 44.3687 185.29 45.1828 185.29 46.4039C184.883 47.218 184.069 48.4392 182.848 48.4392ZM159.241 51.6955C158.02 52.1026 156.799 51.2885 156.392 50.0674C155.985 48.8462 156.799 48.0321 158.427 47.625C159.648 47.218 160.462 47.218 161.683 46.811L163.311 46.4039C164.532 45.9969 165.753 46.8109 166.16 48.0321C166.16 49.2533 165.346 50.0674 164.125 50.4744L162.497 50.8815C161.276 51.2886 160.462 51.2885 159.241 51.6955Z" fill="black"></path><path d="M237.387 78.968C236.166 79.3751 234.945 78.5609 234.538 77.7468C234.538 76.9327 234.131 76.5257 234.131 75.7116C233.724 74.4904 234.538 73.6764 235.759 73.2694C236.98 72.8623 238.201 73.2693 238.608 74.4905C239.015 75.3046 239.015 75.7116 239.422 76.5257C239.422 77.3398 238.608 78.561 237.387 78.968Z" fill="black"></path><path d="M220.292 75.3044L238.608 96.0642L251.632 71.2339L220.292 75.3044Z" fill="black"></path><path d="M352.569 11.8045C345.243 4.0705 335.067 0 323.671 0C312.682 0 302.1 4.0705 294.774 11.8045C286.634 19.9456 282.564 31.75 282.971 45.1827C283.785 70.827 300.472 87.1092 313.089 92.8079L311.461 96.4714C310.647 98.0996 311.054 99.7278 311.868 100.949C312.682 102.17 314.31 102.984 315.938 102.984H330.59C332.218 102.984 333.846 102.17 334.66 100.949C335.474 99.7278 335.881 98.0996 335.067 96.4714L333.439 92.8079C346.057 87.1092 362.744 70.827 363.558 45.1827C364.779 31.75 360.709 19.9456 352.569 11.8045ZM331.811 98.5066C331.404 98.9137 331.404 98.9137 331.811 98.5066L316.752 98.9137C316.752 98.9137 316.345 98.9137 316.345 98.5066V98.0996L318.38 92.8079H329.776L331.811 98.0996V98.5066ZM359.895 44.7758C359.081 68.7919 342.8 84.6669 330.997 89.5516H316.752C304.949 84.6669 288.669 69.1989 287.855 44.7758C287.041 19.9456 303.321 4.07053 324.078 4.07053C344.428 4.07053 360.709 19.9456 359.895 44.7758Z" fill="#040000"></path><path d="M325.707 105.02H322.451V132.292H325.707V105.02Z" fill="#040000"></path><path d="M29.4069 184.395C28.1859 185.209 28.1859 186.837 28.9999 187.651C29.8139 188.872 31.4419 188.872 32.256 188.058C33.477 187.244 33.477 185.616 32.663 184.802C32.256 183.988 30.628 183.581 29.4069 184.395Z" fill="#040000"></path><path d="M41.6169 175.439C40.3959 176.254 40.3959 177.882 41.2099 178.696C42.0239 179.917 43.6519 179.917 44.466 179.103C45.687 178.289 45.687 176.661 44.873 175.847C44.059 174.625 42.4309 174.625 41.6169 175.439Z" fill="#040000"></path><path d="M41.6158 194.571C40.8018 194.978 40.8017 196.199 41.2087 197.014C41.6158 197.828 42.8368 197.828 43.6509 197.421C44.4649 197.014 44.4648 195.792 44.0578 194.978C43.6508 194.164 42.4298 194.164 41.6158 194.571Z" fill="#040000"></path><path d="M50.57 190.093C50.163 189.279 48.942 189.279 48.1279 189.686C47.3139 190.093 47.314 191.314 47.721 192.128C48.128 192.943 49.349 192.943 50.163 192.536C50.977 192.128 50.977 190.907 50.57 190.093Z" fill="#040000"></path><path d="M138.484 222.658C137.263 221.436 135.228 221.029 133.6 221.843L127.902 223.472C126.681 223.879 125.46 223.879 124.239 223.472L112.843 216.552C112.435 216.145 111.621 216.145 111.214 216.145L95.7483 216.552C94.9342 216.552 93.7132 216.145 92.8992 215.331L68.4788 190.907C67.6648 190.093 67.2578 188.465 67.2578 187.244L76.2119 148.574C76.2119 148.167 76.2119 147.76 76.2119 147.76V125.779C76.2119 123.337 74.1769 121.708 72.1419 121.708H67.2578C64.8158 121.708 63.1878 123.744 63.1878 125.779V146.539C63.1878 146.946 63.1878 147.353 63.1878 147.76L61.1527 155.087C61.1527 154.68 60.7457 154.68 60.7457 154.273C56.6756 148.574 48.5355 147.76 42.8374 151.83C40.3954 153.459 39.1744 155.901 38.3603 158.343C32.6623 157.936 26.5571 159.564 21.6731 163.228C16.789 166.891 13.5329 172.59 12.7189 178.289C10.2769 178.289 7.42788 179.103 4.98584 180.731C-0.712245 184.802 -1.52628 192.943 2.54378 198.641C6.61384 204.34 14.754 205.154 20.4521 201.084C23.7081 203.933 27.3712 205.561 31.4412 206.375C31.4412 206.375 31.4412 206.782 31.8482 206.782C32.2552 207.597 33.0693 208.004 33.4763 208.818L26.1502 239.347C26.1502 239.754 25.7431 240.161 25.7431 240.568L15.161 259.292C13.94 261.328 14.754 263.363 16.382 264.584L19.638 266.619C20.452 267.433 21.6731 267.433 22.8941 267.433C24.1151 267.026 24.9291 266.619 25.7431 265.398L35.9183 248.709C35.9183 248.302 36.3253 248.302 36.3253 247.895L42.4304 232.427C42.8374 231.206 44.0584 229.985 45.6865 229.985C46.9075 229.577 48.5355 230.392 49.3495 231.206L57.4896 240.161C58.7106 241.382 58.7106 243.01 58.3036 244.231L55.8616 260.106C55.8616 260.513 55.4546 261.328 55.4546 261.735L57.4896 280.459C57.4896 281.68 57.0826 282.494 56.6756 283.308L53.4196 286.972C52.6056 287.786 52.1986 289.007 52.6056 290.228C52.6056 291.449 53.4196 292.671 54.6406 293.078L58.7107 295.52C60.3387 296.334 62.3737 296.334 63.5947 294.706L69.6998 288.6C70.5138 287.786 70.9208 286.972 70.9208 285.751V264.991C70.9208 264.584 70.9209 263.77 71.3279 263.363L77.433 243.01C77.84 241.789 85.1661 235.276 86.3871 235.276L103.888 231.613C104.702 231.613 105.516 231.613 106.33 232.02L122.611 238.94C123.832 239.347 125.46 239.347 126.681 238.533L137.67 229.577C138.484 228.763 139.298 227.949 139.298 226.728C139.705 224.693 139.298 223.472 138.484 222.658ZM8.2419 194.164C6.20687 191.314 6.61383 187.244 9.46287 185.209C10.6839 184.395 11.9049 183.988 13.126 183.988C13.533 188.058 14.754 192.129 17.196 195.792C14.347 197.42 10.2769 197.013 8.2419 194.164ZM47.3145 156.308C50.1635 154.273 54.2336 154.68 56.2686 157.529C58.3036 160.378 57.8967 164.449 55.0476 166.484C52.1986 163.228 48.5355 160.785 44.8725 159.157C45.6865 157.936 46.5005 156.715 47.3145 156.308ZM39.1743 205.561C35.1043 203.119 33.8833 199.048 33.0693 195.792C29.4062 196.606 25.7432 195.385 23.3011 192.129C20.0451 188.058 20.8591 181.952 24.9291 178.696C27.3712 177.068 30.2202 176.254 33.0693 177.068C33.0693 174.218 34.2903 171.776 36.7323 169.741C40.8024 166.484 46.9075 167.298 50.1635 171.369C52.6055 174.625 52.6056 178.696 50.9776 181.545C53.8266 182.766 57.4896 185.616 58.7107 189.686L48.9425 197.013L48.1285 197.42L39.1743 205.561ZM54.6406 205.154C51.3845 207.597 46.9075 208.411 43.2444 207.19L59.9317 194.571C59.9317 198.641 58.3037 202.712 54.6406 205.154Z" fill="#040000"></path><path d="M281.749 184.395C280.528 185.209 280.528 186.837 281.342 187.651C282.156 188.872 283.784 188.872 284.598 188.058C285.819 187.244 285.819 185.616 285.005 184.802C284.191 183.988 282.563 183.581 281.749 184.395Z" fill="#040000"></path><path d="M293.553 175.439C292.332 176.254 292.332 177.882 293.146 178.696C293.96 179.917 295.588 179.917 296.402 179.103C297.624 178.289 297.624 176.661 296.81 175.847C295.995 174.625 294.774 174.625 293.553 175.439Z" fill="#040000"></path><path d="M293.96 194.571C293.146 194.978 293.145 196.199 293.552 197.014C293.959 197.828 295.181 197.828 295.995 197.421C296.809 197.014 296.809 195.792 296.402 194.978C295.588 194.164 294.774 194.164 293.96 194.571Z" fill="#040000"></path><path d="M302.506 190.093C302.099 189.279 300.879 189.279 300.064 189.686C299.25 190.093 299.25 191.314 299.657 192.128C300.064 192.943 301.286 192.943 302.1 192.536C302.914 192.128 303.32 190.907 302.506 190.093Z" fill="#040000"></path><path d="M390.42 222.658C389.199 221.436 387.164 221.029 385.536 221.843L379.838 223.472C378.617 223.879 377.396 223.879 376.175 223.472L364.779 216.552C364.372 216.145 363.558 216.145 363.151 216.145L347.685 216.552C346.871 216.552 345.65 216.145 344.836 215.331L320.415 190.907C319.601 190.093 319.194 188.465 319.194 187.244L328.148 148.574C328.148 148.167 328.148 147.76 328.148 147.76V125.779C328.148 123.337 326.113 121.708 324.078 121.708H319.194C316.752 121.708 315.124 123.744 315.124 125.779V146.539C315.124 146.946 315.124 147.353 315.124 147.76L313.089 155.087C313.089 154.68 312.682 154.68 312.682 154.273C308.612 148.574 300.472 147.76 294.774 151.83C292.332 153.459 291.111 155.901 290.297 158.343C284.599 157.936 278.494 159.564 273.61 163.228C268.726 166.891 265.469 172.59 264.655 178.289C262.213 178.289 259.364 179.103 256.922 180.731C251.224 184.802 250.41 192.943 254.48 198.641C258.55 204.34 266.69 205.154 272.389 201.084C275.645 203.933 279.308 205.561 283.378 206.375C283.378 206.375 283.378 206.782 283.785 206.782C284.192 207.597 285.006 208.004 285.413 208.818L278.087 239.347C278.087 239.754 277.68 240.161 277.68 240.568L267.097 259.292C265.876 261.328 266.69 263.363 268.319 264.584L271.575 266.619C272.389 267.433 273.61 267.433 274.831 267.433C276.052 267.026 276.866 266.619 277.68 265.398L287.855 248.709C287.855 248.302 288.262 248.302 288.262 247.895L294.367 232.427C294.774 231.206 295.995 229.985 297.623 229.985C298.844 229.577 300.472 230.392 301.286 231.206L309.426 240.161C310.647 241.382 310.647 243.01 310.24 244.231L307.798 260.106C307.798 260.513 307.391 261.328 307.391 261.735L309.426 280.459C309.426 281.68 309.019 282.494 308.612 283.308L305.356 286.972C304.542 287.786 304.135 289.007 304.542 290.228C304.542 291.449 305.356 292.671 306.577 293.078L310.647 295.52C312.275 296.334 314.31 296.334 315.531 294.706L321.636 288.6C322.45 287.786 322.857 286.972 322.857 285.751V264.991C322.857 264.584 322.857 263.77 323.264 263.363L329.369 243.01C329.776 241.789 337.103 235.276 338.324 235.276L355.825 231.613C356.639 231.613 357.453 231.613 358.267 232.02L374.547 238.94C375.768 239.347 377.396 239.347 378.617 238.533L389.606 229.577C390.42 228.763 391.234 227.949 391.234 226.728C392.048 224.693 391.641 223.472 390.42 222.658ZM260.178 194.164C258.143 191.314 258.55 187.244 261.399 185.209C262.62 184.395 263.841 183.988 265.062 183.988C265.469 188.058 266.69 192.129 269.133 195.792C266.283 197.42 262.213 197.013 260.178 194.164ZM299.251 156.308C302.1 154.273 306.17 154.68 308.205 157.529C310.24 160.378 309.833 164.449 306.984 166.484C304.135 163.228 300.472 160.785 296.809 159.157C297.623 157.936 298.437 156.715 299.251 156.308ZM291.111 205.561C287.041 203.119 285.82 199.048 285.006 195.792C281.343 196.606 277.68 195.385 275.238 192.129C271.982 188.058 272.796 181.952 276.866 178.696C279.308 177.068 282.157 176.254 285.006 177.068C285.006 174.218 286.227 171.776 288.669 169.741C292.739 166.484 298.844 167.298 302.1 171.369C304.542 174.625 304.542 178.696 302.914 181.545C305.763 182.766 309.426 185.616 310.647 189.686L300.879 197.013L300.065 197.42L291.111 205.561ZM306.984 205.154C303.728 207.597 299.251 208.411 295.588 207.19L312.275 194.571C311.868 198.641 310.24 202.712 306.984 205.154Z" fill="#040000"></path></svg> 