<?xml version="1.0" encoding="UTF-8"?> <svg xmlns="http://www.w3.org/2000/svg" width="129" height="152" viewBox="0 0 129 152" fill="none"><path d="M112.741 121.302H15.4663C6.91918 121.302 0 114.382 0 105.834V15.4681C0 6.91997 6.91918 0 15.4663 0H112.741C121.288 0 128.207 6.91997 128.207 15.4681V105.834C128.614 114.382 121.288 121.302 112.741 121.302ZM15.4663 8.14105C11.3962 8.14105 8.14012 11.3975 8.14012 15.4681V105.834C8.14012 109.904 11.3962 113.161 15.4663 113.161H112.741C116.811 113.161 120.067 109.904 120.067 105.834V15.4681C120.067 11.3975 116.811 8.14105 112.741 8.14105H15.4663Z" fill="black"></path><path d="M41.1078 151.831C39.8868 151.831 39.0728 151.017 39.0728 149.796V98.5069C39.0728 97.2858 39.8868 96.4717 41.1078 96.4717C42.3288 96.4717 43.1428 97.2858 43.1428 98.5069V149.796C43.1428 151.017 41.9218 151.831 41.1078 151.831Z" fill="black"></path><path d="M63.9003 151.831C62.6792 151.831 61.8652 151.017 61.8652 149.796V98.5069C61.8652 97.2858 62.6792 96.4717 63.9003 96.4717C65.1213 96.4717 65.9353 97.2858 65.9353 98.5069V149.796C65.9353 151.017 65.1213 151.831 63.9003 151.831Z" fill="black"></path><path d="M87.5062 151.831C86.2852 151.831 85.4712 151.017 85.4712 149.796V98.5069C85.4712 97.2858 86.2852 96.4717 87.5062 96.4717C88.7272 96.4717 89.5413 97.2858 89.5413 98.5069V149.796C89.5413 151.017 88.7272 151.831 87.5062 151.831Z" fill="black"></path><path d="M77.331 71.2344C76.517 71.2344 75.2961 70.8274 74.4821 70.0133L63.0858 59.8371L53.7247 70.0133C52.0967 71.6415 49.6547 71.6415 48.0267 70.0133C46.3987 68.3851 46.3987 65.9429 48.0267 64.3147L60.2369 51.289C61.8649 49.6608 64.3069 49.6608 65.9349 50.8819L80.1801 63.9076C81.8082 65.5358 81.8082 67.9781 80.5872 69.6063C79.7732 70.8274 78.5521 71.2344 77.331 71.2344Z" fill="#040000"></path></svg> 