<?xml version="1.0" encoding="UTF-8"?> <svg xmlns="http://www.w3.org/2000/svg" width="95" height="169" viewBox="0 0 95 169" fill="none"><path d="M3.67021 8.33876C2.93601 9.80769 2.56896 11.2766 2.56896 12.3783C2.56896 14.9489 3.67021 18.254 7.3412 18.254C10.6451 18.254 11.3794 16.0506 12.1136 13.48C13.2149 10.9094 14.3161 7.23707 17.9871 7.23707C21.2909 7.23707 24.2278 9.80769 24.2278 13.8472C24.2278 15.3162 23.8607 16.7851 23.1265 17.8868C23.1265 18.254 22.7594 18.6213 22.3923 18.6213C22.0252 18.6213 21.658 18.254 21.658 17.8868C21.658 17.8868 21.6581 17.5196 22.0252 16.7851C22.3923 16.0506 22.7594 14.9489 22.7594 13.48C22.7594 10.1749 20.5568 8.706 18.3542 8.706C15.4174 8.706 14.6833 10.9094 13.9491 13.48C12.8478 16.4179 11.7464 19.7229 7.3412 19.7229C3.30311 19.7229 1.10059 16.4179 1.10059 12.0111C1.10059 9.44046 1.83474 7.6043 2.20184 6.86984C2.56894 6.50261 2.56889 6.13538 3.30309 6.13538C3.67019 6.13538 4.03733 6.50261 4.03733 6.86984C4.03733 7.6043 4.03731 7.6043 3.67021 8.33876Z" fill="black"></path><path d="M7.34195 21.1919C2.93678 21.1919 0 17.8868 0 12.7456C0 9.80774 0.734262 7.97158 1.10136 7.23712C1.46846 6.86989 1.83556 5.76819 2.93685 5.76819C4.03814 5.76819 4.77234 6.50265 4.77234 7.60435C4.77234 7.97158 4.77231 8.33881 4.40522 8.70604V9.07328C3.67102 10.175 3.67098 11.6439 3.67098 12.7456C3.67098 13.8473 4.03807 17.5196 7.34195 17.5196C9.91163 17.5196 10.2788 16.0507 11.38 13.1128C12.4813 10.5422 13.5826 6.50265 18.3549 6.50265C21.6588 6.50265 25.3297 9.07328 25.3297 14.2145C25.3297 15.6834 24.9627 17.1524 24.2285 18.6213C23.8614 19.3558 23.1272 19.723 22.393 19.723C21.2917 19.723 20.5575 18.9885 20.5575 17.8868C20.5575 17.5196 20.5575 17.1524 20.9246 16.4179C21.2917 16.0507 21.6587 14.949 21.6587 13.4801C21.6587 10.9094 19.8233 9.80774 18.3549 9.80774C16.1523 9.80774 15.7852 11.2767 14.6839 13.8473C13.9497 17.1524 12.4813 21.1919 7.34195 21.1919ZM4.77234 18.6213C5.50653 18.9885 6.24066 19.3558 7.34195 19.3558C8.81034 19.3558 9.91161 18.9885 10.6458 18.2541C9.91161 18.9885 8.81034 19.3558 7.34195 19.3558C6.24066 19.3558 5.50653 18.9885 4.77234 18.6213ZM22.7601 17.8868L23.4942 18.2541L22.7601 17.8868ZM18.3549 8.33881C16.8865 8.33881 16.1523 8.70604 15.4181 9.44051C16.1523 8.70604 17.2536 8.33881 18.3549 8.33881C19.4562 8.33881 20.5575 8.70604 21.2917 9.07328C20.5575 8.70604 19.4562 8.33881 18.3549 8.33881Z" fill="black"></path><path d="M12.848 28.9037C19.4558 28.9037 24.5952 33.3105 24.5952 40.6551C24.5952 43.2257 23.861 45.4291 23.1268 46.5308C22.7597 46.898 22.3926 47.2653 22.3926 47.2653C22.0255 47.2653 21.6584 46.898 21.6584 46.5308C21.6584 46.1636 21.6584 46.1636 22.0255 45.7963C23.1268 43.9602 23.1268 41.7568 23.1268 41.0223C23.1268 35.1466 18.7216 31.1071 13.2151 31.1071C8.44281 31.1071 3.30337 34.4122 3.30337 41.3896C3.30337 43.593 3.67054 44.6947 4.40473 46.1636L4.77186 47.2653C4.77186 47.6325 4.40471 47.9997 4.03761 47.9997C3.67051 47.9997 3.30337 47.6325 3.30337 47.2653C2.20207 45.0619 1.83499 42.4913 1.83499 41.0223C1.10079 33.3105 6.60729 28.9037 12.848 28.9037Z" fill="black"></path><path d="M3.30386 48.7343C2.93677 48.7343 2.20257 48.3671 1.46837 47.6326C0.367076 45.062 0 42.4913 0 41.0224C0 33.3106 5.13936 28.1693 12.4813 28.1693C19.8233 28.1693 24.9628 33.6778 24.9628 41.0224C24.9628 43.593 24.2285 45.7964 23.4943 47.6326C23.1272 48.3671 22.393 48.7343 22.0259 48.7343C20.9246 48.7343 20.1904 47.9998 20.1904 46.8981C20.1904 46.5309 20.1904 46.1637 20.5575 45.7964C21.6588 43.9603 21.6588 42.1241 21.6588 41.0224C21.6588 35.8812 17.9878 31.8416 12.4813 31.8416C8.07615 31.8416 3.30386 34.7795 3.30386 41.0224C3.30386 43.2258 3.67101 44.3275 4.03811 45.4292C4.4052 46.5309 4.40523 46.5309 4.40523 46.8981C5.13942 47.6326 4.40516 48.7343 3.30386 48.7343ZM12.8484 30.0055C15.7852 30.0055 18.722 31.1072 20.5575 32.9433C18.722 31.1072 15.7852 30.0055 12.8484 30.0055C10.2788 30.0055 7.70907 30.7399 5.50648 32.5761C7.34197 30.7399 10.2788 30.0055 12.8484 30.0055Z" fill="black"></path><path d="M2.93608 70.0337C2.56898 70.4009 2.56894 70.4009 2.20184 70.4009C1.83474 70.4009 1.4676 70.0337 1.4676 69.2992C1.4676 68.932 1.83474 68.5647 2.20184 68.5647L12.4806 60.8529V58.2822H2.20184C1.46764 58.2822 1.10059 57.5478 1.10059 57.1806C1.10059 56.4461 1.46764 56.0789 2.20184 56.0789H21.291C22.3923 56.0789 24.2278 56.0789 24.2278 58.6495V62.689C24.2278 67.463 21.658 69.2992 17.9871 69.2992C15.4174 69.2992 12.1135 67.8303 11.7464 62.689L2.93608 70.0337ZM13.5819 62.3218C13.5819 63.7907 13.5819 68.1975 17.9871 68.1975C22.3922 68.1975 22.3923 64.158 22.3923 62.3218V59.7512C22.3923 59.0167 22.0252 58.6495 21.291 58.6495H13.5819V62.3218V62.3218Z" fill="black"></path><path d="M1.83549 71.5026C0.734197 71.5026 0 70.4009 0 69.6664C0 68.932 0.734264 68.5647 1.10136 68.1975L11.013 60.8529V59.7512H2.20261C1.10132 59.7512 0.367121 58.6495 0.367121 57.915C0.367121 56.8133 1.10132 56.0789 2.20261 56.0789H21.2918C23.8615 56.0789 24.9628 57.1806 24.9628 59.3839V63.4235C24.9628 68.932 21.2917 71.1354 17.9878 71.1354C15.051 71.1354 11.7472 69.6664 11.013 65.2596L3.30386 71.1354L2.56973 70.4009L2.93686 71.1354C2.93686 71.1354 2.56969 71.5026 1.83549 71.5026ZM2.20261 69.6664L2.93686 70.4009L2.20261 69.6664ZM16.5194 68.932C17.2536 68.932 17.6207 69.2992 17.9878 69.2992C18.722 69.2992 19.4562 69.2992 20.1904 68.932C19.0891 68.932 17.6207 68.932 16.5194 68.932ZM14.3168 59.3839V62.3218C14.3168 64.5252 14.6839 67.0958 17.9878 67.0958C20.9246 67.0958 21.2918 65.2596 21.2918 62.3218V59.7512C21.2918 59.7512 21.2918 59.7512 21.2918 59.3839C21.2918 59.3839 21.2918 59.3839 20.9247 59.3839H14.3168ZM12.4813 57.5478H20.9247C22.026 57.5478 22.3931 57.915 22.7602 58.6495C22.3931 57.915 22.026 57.5478 20.9247 57.5478H2.20261H12.4813Z" fill="black"></path><path d="M24.5959 89.8642C24.5959 96.4744 19.8236 101.616 12.8487 101.616C5.8738 101.616 1.10156 96.4744 1.10156 89.8642C1.10156 83.254 5.8738 78.1128 12.8487 78.1128C19.8236 78.1128 24.5959 83.254 24.5959 89.8642ZM2.93706 89.8642C2.93706 95.3727 7.3422 99.7795 12.8487 99.7795C18.3552 99.7795 22.7604 95.3727 22.7604 89.8642C22.7604 84.3557 18.3552 79.949 12.8487 79.949C7.3422 79.949 2.93706 84.3557 2.93706 89.8642Z" fill="black"></path><path d="M12.8486 102.35C5.50657 102.35 0.367188 96.8417 0.367188 89.8643C0.367188 82.8869 5.87367 77.3784 12.8486 77.3784C19.8235 77.3784 25.33 82.8869 25.33 89.8643C25.33 96.8417 19.8235 102.35 12.8486 102.35ZM3.67107 95.74C5.50657 98.6779 8.81047 100.514 12.8486 100.514C16.8867 100.514 20.1906 98.6779 22.0261 95.74C20.1906 98.6779 16.8867 100.514 12.8486 100.514C8.81047 100.514 5.50657 98.6779 3.67107 95.74ZM12.8486 81.0507C7.70917 81.0507 3.67107 84.723 3.67107 89.8643C3.67107 95.0055 7.70917 98.6778 12.8486 98.6778C17.988 98.6778 22.0261 94.6383 22.0261 89.8643C22.0261 85.0903 17.988 81.0507 12.8486 81.0507ZM12.8486 79.2146C16.5196 79.2146 19.8235 81.0507 22.0261 83.9886C20.1906 80.6835 16.8867 79.2146 12.8486 79.2146C8.81047 79.2146 5.50657 81.0507 3.67107 83.9886C5.50657 81.0507 8.81047 79.2146 12.8486 79.2146Z" fill="black"></path><path d="M1.46924 113.367C1.46924 110.796 3.30479 110.796 4.40608 110.796H23.4951C24.2293 110.796 24.5964 111.164 24.5964 111.898C24.5964 112.633 24.2293 113 23.4951 113H4.40608C3.30479 113 3.30472 113.367 3.30472 114.101V120.712C3.30472 121.446 2.93769 121.446 2.5706 121.446C2.2035 121.446 1.83636 121.079 1.83636 120.712V113.367H1.46924Z" fill="black"></path><path d="M2.56987 122.548C1.46857 122.548 0.734375 121.813 0.734375 120.712V113.367C0.734375 111.164 1.83567 110.062 4.40537 110.062H23.4945C24.5958 110.062 25.33 111.164 25.33 111.898C25.33 113 24.5958 113.734 23.4945 113.734H4.40537C4.40537 113.734 4.40534 113.734 4.03825 113.734C4.03825 113.734 4.03825 113.734 4.03825 114.102V120.712C4.03825 121.813 3.30407 122.548 2.56987 122.548ZM4.40537 111.531C3.30407 111.531 2.56987 111.531 2.56987 112.633C2.93697 111.898 3.30407 111.898 4.40537 111.531H23.4945H4.40537Z" fill="black"></path><path d="M1.46924 132.83C1.46924 130.26 3.30479 130.26 4.40608 130.26H23.4951C24.2293 130.26 24.5964 130.627 24.5964 131.361C24.5964 132.096 24.2293 132.463 23.4951 132.463H4.40608C3.30479 132.463 3.30472 132.83 3.30472 133.565V140.542C3.30472 141.276 2.93769 141.276 2.5706 141.276C2.2035 141.276 1.83636 140.909 1.83636 140.542V132.83H1.46924Z" fill="black"></path><path d="M2.56987 142.011C1.46857 142.011 0.734375 141.277 0.734375 140.175V132.83C0.734375 130.627 1.83567 129.525 4.40537 129.525H23.4945C24.5958 129.525 25.33 130.627 25.33 131.361C25.33 132.463 24.5958 133.197 23.4945 133.197H4.40537C4.40537 133.197 4.40534 133.197 4.03825 133.197C4.03825 133.197 4.03825 133.197 4.03825 133.565V140.542C4.03825 141.277 3.30407 142.011 2.56987 142.011ZM4.40537 130.994C3.30407 130.994 2.56987 130.994 2.56987 132.096C2.93697 131.361 3.30407 130.994 4.40537 130.994H23.4945H4.40537Z" fill="black"></path><path d="M48 169V0H55.4016V154.972L90.559 129.255L95 134.599L48 169Z" fill="black"></path></svg> 