<?xml version="1.0" encoding="UTF-8"?> <svg xmlns="http://www.w3.org/2000/svg" width="234" height="221" viewBox="0 0 234 221" fill="none"><path d="M215.041 138.935C214.561 138.935 214.082 138.455 214.082 137.975V27.595C214.082 27.115 214.561 26.6351 215.041 26.6351C215.52 26.6351 216 27.115 216 27.595V137.975C216 138.455 215.76 138.935 215.041 138.935Z" fill="black"></path><path d="M215.041 140.135C213.843 140.135 212.884 139.175 212.884 137.975V27.5949C212.884 26.3951 213.843 25.4353 215.041 25.4353C216.24 25.4353 217.199 26.3951 217.199 27.5949V137.975C217.199 139.175 216.24 140.135 215.041 140.135Z" fill="black"></path><path d="M207.37 131.736L208.808 130.296L215.041 137.255L221.514 130.296L222.952 131.736L215.041 140.134L207.37 131.736Z" fill="black"></path><path d="M215.041 141.814L205.692 131.496L208.808 128.617L215.041 135.575L221.514 128.617L224.63 131.496L215.041 141.814Z" fill="black"></path><path d="M225.111 221H9.12929C4.08972 221 0.0100723 216.921 0.0100723 211.882V9.11835C-0.229907 4.07926 3.84974 0 8.88931 0H224.871C229.91 0 233.99 4.07926 233.99 9.11835V211.882C234.23 216.921 230.15 221 225.111 221ZM8.88931 4.79913C6.48951 4.79913 4.56968 6.71878 4.56968 9.11835V211.882C4.56968 214.281 6.48951 216.201 8.88931 216.201H224.871C227.271 216.201 229.19 214.281 229.19 211.882V9.11835C229.19 6.71878 227.271 4.79913 224.871 4.79913H8.88931V4.79913Z" fill="black"></path><path d="M63.297 26.3954C63.297 26.6353 63.0573 26.6353 63.0573 26.6353C62.8176 26.6353 62.8176 26.6353 62.8176 26.3954V18.9567H60.1806C59.7012 18.9567 59.7012 18.9567 59.7012 18.7168C59.7012 18.4768 59.7012 18.4768 59.9409 18.4768H65.934C66.1737 18.4768 66.1737 18.7168 66.1737 18.7168C66.1737 18.9567 66.1737 18.9567 65.934 18.9567H63.297V26.3954Z" fill="black"></path><path d="M63.0567 27.1144C62.5773 27.1144 62.3376 26.8745 62.3376 26.3945V19.1958H59.9404C59.4609 19.1958 59.2212 18.9559 59.2212 18.476C59.2212 17.9961 59.4609 17.7561 59.9404 17.7561H65.9334C66.4129 17.7561 66.6526 17.9961 66.6526 18.476C66.6526 18.7159 66.4129 19.1958 65.9334 19.1958H63.5362V26.3945C63.7759 26.8745 63.2965 27.1144 63.0567 27.1144ZM59.9404 18.7159H62.817V26.3945V18.7159H65.6937H59.9404Z" fill="black"></path><path d="M73.3648 18.2358C75.762 18.2358 77.6798 20.1555 77.6798 22.5551C77.6798 24.9546 75.762 26.8743 73.3648 26.8743C70.9676 26.8743 69.0498 25.1946 69.0498 22.5551C69.0498 19.9155 70.9676 18.2358 73.3648 18.2358ZM73.3648 26.1544C75.2826 26.1544 76.9606 24.4747 76.9606 22.5551C76.9606 20.6354 75.5223 18.9557 73.3648 18.9557C71.447 18.9557 69.769 20.6354 69.769 22.5551C69.769 24.7147 71.447 26.1544 73.3648 26.1544Z" fill="black"></path><path d="M73.3648 27.1149C70.7278 27.1149 68.8101 25.1953 68.8101 22.5558C68.8101 19.9162 70.7278 17.9966 73.3648 17.9966C76.0017 17.9966 77.9195 19.9162 77.9195 22.5558C77.9195 25.1953 76.0017 27.1149 73.3648 27.1149ZM73.3648 18.4765C70.9676 18.4765 69.2895 20.1562 69.2895 22.5558C69.2895 24.9553 70.9676 26.635 73.3648 26.635C75.5223 26.635 77.4401 24.9553 77.4401 22.5558C77.4401 20.1562 75.762 18.4765 73.3648 18.4765ZM73.3648 26.3951C71.2073 26.3951 69.5292 24.7154 69.5292 22.5558C69.5292 20.3961 71.2073 18.7165 73.3648 18.7165C75.5223 18.7165 77.2003 20.3961 77.2003 22.5558C77.2003 24.7154 75.5223 26.3951 73.3648 26.3951ZM73.3648 19.1964C71.447 19.1964 70.0087 20.6361 70.0087 22.5558C70.0087 24.4754 71.447 25.9151 73.3648 25.9151C75.2826 25.9151 76.7209 24.4754 76.7209 22.5558C76.7209 20.6361 75.2826 19.1964 73.3648 19.1964Z" fill="black"></path><path d="M81.7558 26.3949C81.7558 26.6348 81.5161 26.6348 81.5161 26.6348C81.2764 26.6348 81.2764 26.6348 81.2764 26.3949V19.4361C81.2764 19.1962 81.2764 18.4763 82.2353 18.4763H83.4339C84.153 18.4763 84.6325 18.4763 85.1119 18.7163C85.8311 19.1962 86.0708 20.396 86.0708 20.8759C86.0708 21.5958 85.8311 22.5556 84.8722 23.0355C84.3928 23.2755 83.9133 23.2754 83.1941 23.2754H81.7558V26.3949V26.3949ZM82.9544 22.5556C83.6736 22.5556 85.1119 22.5556 85.1119 20.8759C85.1119 19.1962 83.6736 19.1962 82.9544 19.1962H82.2353C81.9955 19.1962 81.7558 19.1962 81.7558 19.6761V22.7955H82.9544V22.5556Z" fill="black"></path><path d="M81.5156 27.1149C81.0361 27.1149 80.7964 26.875 80.7964 26.3951V19.4363C80.7964 18.4765 81.2758 17.9966 81.995 17.9966H83.1936C83.9128 17.9966 84.3922 17.9966 85.1114 18.4765C86.31 19.1964 86.31 20.3961 86.31 20.8761C86.31 22.0758 85.8305 22.7957 85.1114 23.2756C84.6319 23.5156 83.9128 23.5156 83.1936 23.5156H82.2347V26.3951C81.995 26.875 81.7553 27.1149 81.5156 27.1149ZM81.995 18.7165C81.5156 18.7165 81.2758 18.9564 81.2758 19.4363V26.3951V22.7957H82.9539C83.6731 22.7957 84.1525 22.7957 84.3922 22.5558C85.1114 22.3158 85.3511 21.5959 85.3511 20.6361C85.3511 20.1562 85.1114 19.1964 84.3922 18.9564C83.9128 18.7165 83.4333 18.7165 82.9539 18.7165H81.995ZM82.9539 22.7957H81.5156V19.4363C81.5156 18.7165 81.995 18.7165 82.2347 18.7165H82.9539C83.6731 18.7165 85.5908 18.7165 85.5908 20.8761C85.5908 22.7957 83.9128 22.7957 82.9539 22.7957ZM81.995 22.3158H82.9539C83.9128 22.3158 84.8717 22.3158 84.8717 20.8761C84.8717 19.4363 83.9128 19.4363 82.9539 19.4363H82.2347V22.3158H81.995Z" fill="black"></path><path d="M95.6585 23.9956L94.6996 26.3952C94.6996 26.6351 94.6996 26.6351 94.4599 26.6351C94.2202 26.6351 93.9805 26.6351 93.9805 26.3952V26.1552L97.0969 18.4766C97.0969 18.2367 97.3366 17.9967 97.5763 17.9967C98.0557 17.9967 98.0557 18.2367 98.0557 18.4766L100.932 26.1552V26.3952C100.932 26.6351 100.693 26.6351 100.453 26.6351C100.213 26.6351 100.213 26.3952 100.213 26.3952L99.2544 23.9956H95.6585ZM99.4941 23.5157L97.816 19.1965L96.138 23.5157H99.4941Z" fill="black"></path><path d="M100.933 27.1151C100.453 27.1151 100.453 26.8752 100.214 26.6352L99.2548 24.2356H95.6589L94.7 26.3952C94.7 26.6352 94.4603 26.8751 93.9809 26.8751C93.7412 26.8751 93.2617 26.6352 93.2617 26.1553V25.9153L96.3781 18.2367C96.6178 17.7568 96.8575 17.5168 97.0973 17.5168C97.337 17.5168 97.8164 17.7568 97.8164 18.2367L100.693 25.9153C100.693 26.1553 100.693 26.1553 100.693 26.3952C101.652 26.8751 101.412 27.1151 100.933 27.1151ZM95.6589 23.7557H99.9739L100.933 26.3952L98.0562 18.7166C98.0562 18.7166 98.0562 18.4767 97.8164 18.4767L99.7342 23.7557H95.6589L97.5767 18.4767C97.5767 18.4767 97.5767 18.4767 97.337 18.7166L94.4603 26.3952V26.6352L95.6589 23.7557ZM96.3781 23.2758H99.015L97.8164 19.9164L96.3781 23.2758Z" fill="black"></path><path d="M105.488 26.6348C104.529 26.6348 104.529 25.915 104.529 25.675V19.4361C104.529 19.1962 104.529 18.4763 105.488 18.4763H106.926C107.645 18.4763 109.563 18.4763 109.563 20.396C109.563 21.5958 108.844 22.0757 108.364 22.3156C108.844 22.5556 109.803 22.7955 109.803 24.4752C109.803 26.6348 107.645 26.6348 106.926 26.6348H105.488V26.6348ZM106.926 22.0757C107.405 22.0757 108.844 22.0757 108.844 20.6359C108.844 19.1962 107.645 19.1962 106.686 19.1962H105.488C105.248 18.9562 105.248 19.1962 105.248 19.4361V22.0757H106.926ZM105.248 25.675C105.248 25.915 105.488 26.1549 105.727 26.1549H107.166C107.885 26.1549 109.563 26.1549 109.563 24.4752C109.563 22.7955 107.885 22.7955 107.405 22.7955H105.248V25.675Z" fill="black"></path><path d="M106.926 26.875H105.248C104.529 26.875 104.049 26.3951 104.049 25.4352V19.4363C104.049 18.4765 104.529 17.9966 105.248 17.9966H106.686C107.405 17.9966 109.803 17.9966 109.803 20.3961C109.803 21.356 109.323 21.8359 108.844 22.3158C109.323 22.5558 110.042 23.2756 110.042 24.4754C110.282 26.1551 109.083 26.875 106.926 26.875ZM105.488 18.7165C105.008 18.7165 104.768 18.9564 104.768 19.4363V25.6752C104.768 26.1551 104.768 26.3951 105.488 26.3951H107.166C108.364 26.3951 109.803 26.1551 109.803 24.4754C109.803 23.7555 109.563 23.2756 109.323 23.0357C109.563 23.2756 109.803 23.7555 109.803 24.4754C109.803 26.3951 107.885 26.3951 107.166 26.3951H105.727C105.488 26.3951 105.008 26.3951 105.008 25.6752V19.4363C104.768 18.9564 105.248 18.7165 105.488 18.7165H106.926C107.885 18.7165 109.323 18.7165 109.323 20.3961C109.323 20.6361 109.323 21.116 109.083 21.356C109.323 21.116 109.323 20.8761 109.323 20.3961C109.323 18.9564 108.125 18.7165 106.926 18.7165H105.488ZM105.488 25.6752H106.926C107.885 25.6752 109.083 25.6752 109.083 24.4754C109.083 23.2756 108.125 23.0357 107.166 23.0357H105.488V25.6752ZM106.926 22.3158C107.166 22.3158 107.405 22.3158 107.645 22.3158L107.885 22.0758C107.645 22.3158 107.405 22.3158 106.926 22.3158ZM105.488 21.8359H106.926C107.645 21.8359 108.604 21.5959 108.604 20.6361C108.604 19.6763 107.885 19.4363 106.686 19.4363H105.488V21.8359V21.8359Z" fill="black"></path><path d="M117.233 18.2358C119.631 18.2358 121.548 20.1555 121.548 22.5551C121.548 24.9546 119.631 26.8743 117.233 26.8743C114.836 26.8743 112.918 25.1946 112.918 22.5551C112.918 19.9155 114.836 18.2358 117.233 18.2358ZM117.233 26.1544C119.151 26.1544 120.829 24.4747 120.829 22.5551C120.829 20.6354 119.391 18.9557 117.233 18.9557C115.316 18.9557 113.638 20.6354 113.638 22.5551C113.638 24.7147 115.316 26.1544 117.233 26.1544Z" fill="black"></path><path d="M117.233 27.1149C114.596 27.1149 112.679 25.1953 112.679 22.5558C112.679 19.9162 114.596 17.9966 117.233 17.9966C119.87 17.9966 121.788 19.9162 121.788 22.5558C121.788 25.1953 119.87 27.1149 117.233 27.1149ZM117.233 18.4765C114.836 18.4765 113.158 20.1562 113.158 22.5558C113.158 24.9553 114.836 26.635 117.233 26.635C119.391 26.635 121.309 24.9553 121.309 22.5558C121.309 20.1562 119.631 18.4765 117.233 18.4765ZM117.233 26.3951C115.076 26.3951 113.398 24.7154 113.398 22.5558C113.398 20.3961 115.076 18.7165 117.233 18.7165C119.391 18.7165 121.069 20.3961 121.069 22.5558C121.069 24.7154 119.391 26.3951 117.233 26.3951ZM117.233 19.1964C115.316 19.1964 113.877 20.6361 113.877 22.5558C113.877 24.4754 115.316 25.9151 117.233 25.9151C119.151 25.9151 120.59 24.4754 120.59 22.5558C120.59 20.6361 119.151 19.1964 117.233 19.1964Z" fill="black"></path><path d="M124.905 18.7163C124.905 18.4763 125.145 18.4763 125.145 18.4763C125.385 18.4763 125.385 18.4763 125.385 18.7163V23.2754C125.385 24.4752 125.385 26.3949 128.022 26.3949C130.659 26.3949 130.659 24.4752 130.659 23.2754V18.7163C130.659 18.4763 130.898 18.4763 130.898 18.4763C131.138 18.4763 131.138 18.4763 131.138 18.7163V23.2754C131.138 24.4752 131.138 27.1148 127.782 27.1148C124.426 27.1148 124.426 24.7152 124.426 23.2754V18.7163H124.905Z" fill="black"></path><path d="M128.261 27.1149C124.666 27.1149 124.666 24.2355 124.666 23.0357V18.7165C124.666 18.2365 124.905 17.9966 125.385 17.9966C125.864 17.9966 126.104 18.2365 126.104 18.7165V23.2756C126.104 24.7154 126.344 26.1551 128.501 26.1551C130.659 26.1551 130.898 24.7154 130.898 23.2756V18.7165C130.898 18.2365 131.138 17.9966 131.617 17.9966C132.097 17.9966 132.337 18.2365 132.337 18.7165V23.2756C132.097 24.2355 132.097 27.1149 128.261 27.1149ZM125.145 18.4765V23.0357C125.145 24.7154 125.624 26.3951 128.261 26.3951C130.898 26.3951 131.378 24.7154 131.378 23.0357V18.7165V23.2756C131.378 24.4754 131.378 26.635 128.261 26.635C125.145 26.635 125.145 24.2355 125.145 23.2756V18.4765Z" fill="black"></path><path d="M138.569 26.3954C138.569 26.6353 138.329 26.6353 138.329 26.6353C138.09 26.6353 138.09 26.6353 138.09 26.3954V18.9567H135.453C135.213 18.9567 135.213 18.7168 135.213 18.7168C135.213 18.4768 135.213 18.4768 135.453 18.4768H141.206C141.446 18.4768 141.446 18.7168 141.446 18.7168C141.446 18.9567 141.446 18.9567 141.206 18.9567H138.569V26.3954Z" fill="black"></path><path d="M138.089 27.1151C137.61 27.1151 137.37 26.8752 137.37 26.3953V19.1966H134.973C134.494 19.1966 134.254 18.9566 134.254 18.4767C134.254 17.9968 134.494 17.7568 134.973 17.7568H141.206C141.685 17.7568 141.925 17.9968 141.925 18.4767C141.925 18.7167 141.685 19.1966 141.206 19.1966H138.809V26.3953C138.809 26.8752 138.569 27.1151 138.089 27.1151ZM135.213 18.7167H138.089V26.3953V18.7167H141.206H135.213Z" fill="black"></path><path d="M150.076 25.9155C150.555 26.1554 151.034 26.1554 151.514 26.1554C152.473 26.1554 153.671 25.6755 153.671 24.4757C153.671 23.2759 152.713 23.036 151.993 22.796C151.034 22.5561 149.836 22.0762 149.836 20.6364C149.836 19.4366 150.795 18.4768 152.233 18.4768C152.713 18.4768 153.192 18.7168 153.671 18.7168C153.671 18.7168 153.911 18.7168 153.911 18.9567C153.911 19.1967 153.911 19.1967 153.671 19.1967H153.432C153.192 19.1967 152.713 18.9567 152.233 18.9567C151.034 18.9567 150.555 19.6766 150.555 20.6364C150.555 21.5962 151.514 22.0762 152.233 22.3161C153.192 22.796 154.391 23.036 154.391 24.7157C154.391 26.1554 153.192 27.1152 151.514 27.1152C150.555 27.1152 149.836 26.8753 149.596 26.6353C149.356 26.6353 149.356 26.3954 149.356 26.3954C149.356 26.1554 149.596 26.1554 149.596 26.1554C149.836 25.6755 149.836 25.6755 150.076 25.9155Z" fill="black"></path><path d="M151.754 27.1151C150.795 27.1151 150.076 26.8752 149.836 26.6352C149.596 26.6352 149.356 26.3953 149.356 25.9154C149.356 25.6754 149.596 25.1955 150.076 25.1955C150.076 25.1955 150.315 25.1955 150.555 25.4354C151.035 25.6754 151.514 25.6754 151.993 25.6754C152.473 25.6754 153.911 25.6754 153.911 24.2357C153.911 23.2758 153.192 23.0359 152.233 22.7959C151.274 22.556 149.836 21.8361 149.836 20.3964C149.836 19.1966 150.795 17.7568 152.473 17.7568C152.952 17.7568 153.671 17.9968 154.151 18.2367C154.391 18.4767 154.63 18.4767 154.63 18.7167C154.63 18.9566 154.391 19.4365 153.911 19.4365C153.671 19.4365 153.671 19.4365 153.432 19.1966C153.192 19.1966 152.952 18.9566 152.473 18.9566C151.274 19.1966 150.795 19.9164 150.795 20.3964C150.795 21.1162 151.274 21.3562 152.473 21.8361C153.432 22.316 154.87 22.7959 154.87 24.4756C154.87 26.1553 153.432 27.1151 151.754 27.1151ZM149.836 25.9154C149.836 26.1553 149.836 26.1553 149.836 25.9154C150.315 26.1553 150.795 26.3953 151.754 26.3953C152.952 26.3953 154.151 25.9154 154.151 24.4756C154.151 23.0359 153.192 22.7959 152.233 22.316C151.274 22.0761 150.315 21.5961 150.315 20.3964C150.315 19.4365 151.034 18.4767 152.233 18.4767C152.713 18.4767 153.192 18.7167 153.432 18.7167H153.671C153.192 18.4767 152.713 18.4767 152.233 18.4767C151.034 18.4767 150.076 19.1966 150.076 20.3964C150.076 21.5961 151.034 22.0761 151.993 22.316C152.952 22.556 153.911 23.0359 153.911 24.4756C153.911 25.9154 152.713 26.3953 151.514 26.3953C151.034 26.3953 150.315 26.1553 149.836 25.9154V25.9154C149.836 25.9154 149.836 26.1553 149.836 25.9154Z" fill="black"></path><path d="M162.302 22.0757C162.542 22.0757 162.542 22.3156 162.542 22.3156C162.542 22.5556 162.542 22.5556 162.302 22.5556H158.706V25.4351C158.706 25.675 158.946 25.915 159.186 25.915H162.782C163.021 25.915 163.021 26.1549 163.021 26.1549C163.021 26.3949 163.021 26.3949 162.782 26.3949H158.946C157.987 26.3949 157.987 25.675 157.987 25.4351V19.4361C157.987 19.1962 157.987 18.4763 158.946 18.4763H162.542C162.782 18.4763 162.782 18.7163 162.782 18.7163C162.782 18.9562 162.782 18.9562 162.542 18.9562H158.946C158.706 18.9562 158.467 18.9562 158.467 19.4361V22.0757H162.302Z" fill="black"></path><path d="M162.781 26.875H158.946C158.227 26.875 157.747 26.3951 157.747 25.4352V19.4363C157.747 18.4765 158.227 17.9966 158.946 17.9966H162.542C163.021 17.9966 163.261 18.2365 163.261 18.7165C163.261 18.9564 163.021 19.4363 162.542 19.4363H158.946V21.8359H162.302C162.781 21.8359 162.781 22.0758 162.781 22.5558C162.781 23.0357 162.542 23.2756 162.302 23.2756H158.946V25.9152H162.781C163.261 25.9152 163.5 26.1551 163.5 26.635C163.261 26.635 163.021 26.875 162.781 26.875ZM158.946 18.7165C158.466 18.7165 158.227 18.9564 158.227 19.4363V25.6752C158.227 26.1551 158.227 26.3951 158.946 26.3951H162.781H159.185C158.946 26.3951 158.466 26.3951 158.466 25.6752V22.3158H162.302H158.466V19.4363C158.466 18.9564 158.706 18.7165 158.946 18.7165H162.542H158.946Z" fill="black"></path><path d="M171.171 26.1549C171.171 26.3949 171.411 26.3949 171.411 26.3949C171.411 26.6348 171.171 26.6348 171.171 26.6348C170.931 26.6348 170.931 26.6348 170.931 26.3949L168.055 22.7955H167.096V26.3949C167.096 26.6348 166.856 26.6348 166.856 26.6348C166.616 26.6348 166.616 26.6348 166.616 26.3949V19.4361C166.616 19.1962 166.616 18.4763 167.575 18.4763H169.013C170.691 18.4763 171.411 19.4361 171.411 20.6359C171.411 21.5958 170.931 22.7955 169.013 22.7955L171.171 26.1549ZM168.294 22.3156C168.774 22.3156 170.452 22.3156 170.452 20.6359C170.452 18.9562 169.013 18.9562 168.294 18.9562H167.335C167.096 18.9562 166.856 18.9562 166.856 19.4361V22.3156H168.294Z" fill="black"></path><path d="M170.932 27.1149C170.692 27.1149 170.452 26.875 170.452 26.875L167.815 23.2756H167.336V26.3951C167.336 26.875 167.096 27.1149 166.617 27.1149C166.137 27.1149 165.897 26.875 165.897 26.3951V19.4363C165.897 18.4765 166.377 17.9966 167.096 17.9966H168.534C170.452 17.9966 171.171 19.1964 171.171 20.6361C171.171 21.8359 170.692 22.7957 169.014 23.0357L171.171 25.9151L170.932 26.1551L171.171 25.9151C171.171 26.1551 171.411 26.1551 171.411 26.3951C171.651 26.875 171.411 27.1149 170.932 27.1149ZM166.617 22.5558H168.055L170.932 26.3951C170.932 26.3951 170.932 26.3951 170.932 26.1551L171.171 25.9151L170.932 26.3951L168.055 22.5558H168.534C170.452 22.5558 170.692 21.116 170.692 20.6361C170.692 19.4363 169.973 18.7165 168.534 18.7165H167.096C166.617 18.7165 166.377 18.9564 166.377 19.4363V26.3951V22.5558H166.617ZM168.295 22.5558H166.617V19.4363C166.617 18.7165 167.096 18.7165 167.336 18.7165H168.295C168.774 18.7165 170.692 18.7165 170.692 20.6361C170.692 21.8359 169.973 22.5558 168.295 22.5558ZM167.336 22.0758H168.534C169.493 22.0758 170.452 21.8359 170.452 20.6361C170.452 19.4363 169.493 19.4363 168.534 19.4363H167.576V22.0758H167.336Z" fill="black"></path><path d="M180.521 18.4768C180.521 18.4768 180.521 18.2368 180.761 18.2368C181 18.2368 181.24 18.4768 181.24 18.4768V18.7167L178.124 26.3953C178.124 26.6353 177.884 26.8753 177.644 26.8753C177.404 26.8753 177.165 26.6353 177.165 26.3953L174.048 18.7167V18.4768C174.048 18.2368 174.288 18.2368 174.528 18.2368C174.768 18.2368 174.768 18.2368 174.768 18.4768L177.884 26.1554L180.521 18.4768Z" fill="black"></path><path d="M177.644 27.1151C177.164 27.1151 176.924 26.6352 176.924 26.6352L173.808 18.9566C173.808 18.9566 173.808 18.7166 173.808 18.4767C173.808 17.9968 174.048 17.7568 174.527 17.7568C175.007 17.7568 175.007 17.9968 175.007 18.2367L177.644 25.1955L180.281 18.2367H180.52L180.281 17.9968C180.281 17.9968 180.52 17.5168 180.76 17.5168C181 17.5168 181.479 17.7568 181.479 18.2367C181.479 18.4767 181.479 18.4767 181.479 18.7166L178.363 26.3952C178.363 26.6352 178.123 27.1151 177.644 27.1151ZM180.52 18.4767H180.76L177.644 26.3952C177.644 26.3952 177.644 26.3952 177.883 26.1553L181 18.4767C181 18.4767 181 18.4767 181 18.2367L180.52 18.4767ZM174.288 18.4767C174.288 18.4767 174.048 18.7166 174.288 18.4767C174.048 18.7166 174.288 18.7166 174.288 18.4767L177.164 26.3952C177.164 26.3952 177.164 26.6352 177.404 26.6352L174.288 18.4767Z" fill="black"></path><path d="M184.596 18.7158C184.596 18.4758 184.835 18.2358 184.835 18.2358C185.075 18.2358 185.075 18.4758 185.075 18.7158V26.3944C185.075 26.6343 184.835 26.8743 184.835 26.8743C184.596 26.8743 184.596 26.6343 184.596 26.3944V18.7158Z" fill="black"></path><path d="M184.836 27.1149C184.356 27.1149 184.117 26.875 184.117 26.3951V18.7165C184.117 18.2365 184.356 17.9966 184.836 17.9966C185.315 17.9966 185.555 18.2365 185.555 18.7165V26.3951C185.555 26.875 185.315 27.1149 184.836 27.1149ZM184.836 18.4765V26.3951V18.4765Z" fill="black"></path><path d="M188.91 22.5551C188.91 20.1555 190.588 18.2358 193.225 18.2358C194.184 18.2358 194.903 18.4758 195.383 18.7158C195.622 18.7158 195.622 18.9557 195.622 18.9557C195.622 19.1957 195.383 19.1957 195.383 19.1957C195.383 19.1957 195.143 19.1957 195.143 18.9557C194.424 18.4758 193.705 18.4758 193.465 18.4758C191.307 18.4758 189.869 20.1555 189.869 22.0751C189.869 23.7548 191.068 25.6745 193.705 25.6745C194.424 25.6745 194.903 25.4345 195.383 25.4345C195.383 25.4345 195.622 25.1946 195.862 25.1946C195.862 25.1946 196.102 25.1946 196.102 25.4345C196.102 25.6745 195.862 25.6745 195.862 25.6745C195.143 26.1544 194.184 26.1544 193.465 26.1544C190.348 26.8743 188.91 24.9546 188.91 22.5551Z" fill="black"></path><path d="M193.226 27.1149C190.349 27.1149 188.431 25.1953 188.431 22.5558C188.431 19.9162 190.349 17.9966 192.986 17.9966C193.945 17.9966 194.664 18.2365 195.383 18.4765C195.623 18.7165 195.863 18.7165 195.863 18.9564C195.863 19.1964 195.623 19.6763 195.143 19.6763C194.904 19.6763 194.904 19.6763 194.664 19.4363C194.184 19.1964 193.465 19.1964 193.226 19.1964C191.308 19.1964 189.869 20.6361 189.869 22.5558C189.869 24.2355 190.828 25.9151 193.226 25.9151C193.945 25.9151 194.424 25.6752 194.904 25.6752C195.383 25.4352 195.383 25.4352 195.383 25.4352C195.623 25.4352 195.863 25.6752 195.863 26.1551C195.863 26.3951 195.863 26.635 195.383 26.635C194.664 27.1149 193.705 27.1149 193.226 27.1149ZM193.226 18.4765C190.828 18.4765 189.15 20.1562 189.15 22.5558C189.15 24.4754 190.349 26.635 193.226 26.635C193.705 26.635 194.664 26.635 195.383 26.1551H195.143C194.664 26.3951 194.184 26.3951 193.226 26.3951C190.349 26.3951 189.15 24.2355 189.15 22.5558C189.15 20.1562 190.828 18.7165 193.226 18.4765C193.705 18.4765 194.424 18.4765 195.143 18.9564C194.664 18.7165 193.945 18.4765 193.226 18.4765Z" fill="black"></path><path d="M203.294 22.0757C203.534 22.0757 203.534 22.3156 203.534 22.3156C203.534 22.5556 203.534 22.5556 203.294 22.5556H199.698V25.4351C199.698 25.675 199.938 25.915 200.178 25.915H203.773C204.013 25.915 204.013 26.1549 204.013 26.1549C204.013 26.3949 204.013 26.3949 203.773 26.3949H199.938C198.979 26.3949 198.979 25.675 198.979 25.4351V19.4361C198.979 19.1962 198.979 18.4763 199.938 18.4763H203.534C203.773 18.4763 203.773 18.7163 203.773 18.7163C203.773 18.9562 203.773 18.9562 203.534 18.9562H199.938C199.698 18.9562 199.458 18.9562 199.458 19.4361V22.0757H203.294V22.0757Z" fill="black"></path><path d="M203.773 26.875H199.938C199.219 26.875 198.739 26.3951 198.739 25.4352V19.4363C198.739 18.4765 199.219 17.9966 199.938 17.9966H203.534C204.013 17.9966 204.253 18.2365 204.253 18.7165C204.253 18.9564 204.013 19.4363 203.534 19.4363H199.938V21.8359H203.294C203.773 21.8359 203.773 22.0758 203.773 22.5558C203.773 23.0357 203.534 23.2756 203.294 23.2756H199.938V25.9152H203.534C204.013 25.9152 204.253 26.1551 204.253 26.635C204.493 26.635 204.013 26.875 203.773 26.875ZM199.938 18.7165C199.458 18.7165 199.219 18.9564 199.219 19.4363V25.6752C199.219 26.1551 199.219 26.3951 199.938 26.3951H203.773H200.178C199.938 26.3951 199.458 26.3951 199.458 25.6752V22.3158H203.294H199.458V19.4363C199.458 18.9564 199.698 18.7165 199.938 18.7165H203.534H199.938Z" fill="black"></path><path d="M94.2215 88.0642L93.0229 91.1837C93.0229 91.4236 92.7831 91.6636 92.5434 91.6636C92.3037 91.6636 92.064 91.4236 92.064 91.1837V90.9437L95.8995 81.5854C95.8995 81.3454 96.1392 81.1055 96.6187 81.1055C97.0981 81.1055 97.3378 81.3454 97.3378 81.5854L101.173 90.9437V91.1837C101.173 91.4236 100.934 91.6636 100.694 91.6636C100.454 91.6636 100.454 91.4236 100.454 91.1837L99.2556 88.0642H94.2215ZM98.7762 87.3443L96.6187 81.8253L94.4612 87.3443H98.7762Z" fill="black"></path><path d="M100.693 92.1433C99.9743 92.1433 99.7346 91.6634 99.7346 91.4235L98.7757 88.7839H94.7004L93.7415 91.4235C93.7415 91.6634 93.5018 92.1433 92.7826 92.1433C92.3032 92.1433 91.8237 91.6634 91.8237 91.1835C91.8237 90.9436 91.8237 90.9436 91.8237 90.7036L95.6593 81.1053C95.899 80.3855 96.6182 80.1455 96.8579 80.1455C97.3373 80.1455 97.8168 80.3855 98.0565 81.1053L101.892 90.4636C101.892 90.7036 102.132 90.7036 102.132 90.9436C101.892 91.6634 101.173 92.1433 100.693 92.1433ZM95.4196 86.8643H98.0565L96.8579 83.5049L95.4196 86.8643Z" fill="black"></path><path d="M105.008 91.4235C103.81 91.4235 103.81 90.4637 103.81 90.2237V82.5451C103.81 82.0652 103.81 81.3453 105.008 81.3453H106.926C107.885 81.3453 110.282 81.3453 110.282 83.7449C110.282 85.4246 109.323 85.9045 108.604 86.1445C109.323 86.3844 110.522 86.8643 110.522 88.784C110.522 91.6635 107.645 91.6635 106.926 91.6635H105.008V91.4235ZM106.926 85.6646C107.645 85.6646 109.323 85.6646 109.323 83.7449C109.323 81.8253 107.885 81.8252 106.686 81.8252H105.248C104.768 81.8252 104.768 81.8252 104.768 82.3052V85.6646H106.926V85.6646ZM104.768 89.9838C104.768 90.4637 105.008 90.4637 105.248 90.4637H106.926C107.885 90.4637 109.803 90.4637 109.803 88.544C109.803 86.3844 107.885 86.3844 106.926 86.3844H104.529V89.9838H104.768Z" fill="black"></path><path d="M106.926 91.9034H105.008C104.289 91.9034 103.33 91.6635 103.33 89.9838V82.3051C103.33 80.6255 104.289 80.3855 105.008 80.3855H106.926C109.563 80.3855 111.001 81.3453 111.001 83.5049C111.001 84.7047 110.522 85.4246 110.042 85.9045C110.761 86.3844 111.481 87.1043 111.481 88.544C111.241 89.9838 110.522 91.9034 106.926 91.9034ZM105.248 89.9838H106.926C108.364 89.9838 109.323 89.7438 109.323 88.544C109.323 87.3442 108.604 86.8643 107.166 86.8643H105.248V89.9838ZM105.248 84.9447H106.926C108.364 84.9447 108.844 84.4648 108.844 83.5049C108.844 82.5451 108.364 82.3051 106.686 82.3051H105.248V84.9447Z" fill="black"></path><path d="M118.433 80.8655C121.549 80.8655 123.707 83.0251 123.707 86.1445C123.707 89.264 121.31 91.4236 118.433 91.4236C115.556 91.4236 113.159 89.264 113.159 86.1445C113.159 83.0251 115.556 80.8655 118.433 80.8655ZM118.433 90.7037C121.07 90.7037 122.988 88.784 122.988 86.1445C122.988 83.505 121.07 81.5853 118.433 81.5853C115.796 81.5853 113.878 83.505 113.878 86.1445C113.878 88.784 115.796 90.7037 118.433 90.7037Z" fill="black"></path><path d="M118.433 92.1433C115.077 92.1433 112.44 89.5038 112.44 86.1444C112.44 82.785 115.077 80.1455 118.433 80.1455C121.79 80.1455 124.427 82.785 124.427 86.1444C124.427 89.5038 121.79 92.1433 118.433 92.1433ZM118.433 82.3051C116.276 82.3051 114.598 83.9848 114.598 86.3844C114.598 88.544 116.276 90.4636 118.433 90.4636C120.591 90.4636 122.269 88.7839 122.269 86.3844C122.269 83.9848 120.591 82.3051 118.433 82.3051Z" fill="black"></path><path d="M126.823 81.3451C126.823 81.1052 127.062 80.8652 127.302 80.8652C127.542 80.8652 127.782 81.1052 127.782 81.3451V86.8641C127.782 88.5438 127.782 90.7035 131.138 90.7035C134.494 90.7035 134.494 88.3039 134.494 86.8641V81.3451C134.494 81.1052 134.734 80.8652 134.973 80.8652C135.213 80.8652 135.453 81.1052 135.453 81.3451V86.8641C135.453 88.3039 135.453 91.4233 131.138 91.4233C127.062 91.4233 126.823 88.3039 126.823 86.8641V81.3451V81.3451Z" fill="black"></path><path d="M130.898 92.1434C126.104 92.1434 126.104 88.3041 126.104 86.8643V81.3453C126.104 80.6255 126.583 80.3855 127.063 80.3855C127.782 80.3855 128.022 80.8654 128.022 81.3453V86.8643C128.022 88.784 128.262 90.2237 130.898 90.2237C133.535 90.2237 133.775 88.544 133.775 86.8643V81.3453C133.775 80.6255 134.255 80.3855 134.734 80.3855C135.453 80.3855 135.693 80.8654 135.693 81.3453V86.8643C135.933 88.3041 135.933 92.1434 130.898 92.1434ZM127.063 81.3453H127.303H126.583H127.063Z" fill="black"></path><path d="M142.405 91.1829C142.405 91.4228 142.166 91.6628 141.926 91.6628C141.686 91.6628 141.446 91.4228 141.446 91.1829V81.8246H138.09C137.851 81.8246 137.611 81.5846 137.611 81.3447C137.611 81.1047 137.851 80.8647 138.09 80.8647H145.522C145.761 80.8647 146.001 81.1047 146.001 81.3447C146.001 81.5846 145.761 81.8246 145.522 81.8246H142.166V91.1829H142.405Z" fill="black"></path><path d="M141.926 92.1433C141.207 92.1433 140.967 91.6634 140.967 91.1835V82.545H138.33C137.851 82.545 137.371 82.0651 137.371 81.5852C137.371 81.1053 137.851 80.6254 138.33 80.6254H145.761C146.241 80.6254 146.72 81.1053 146.72 81.5852C146.72 82.0651 146.241 82.545 145.761 82.545H143.124V91.1835C142.885 91.9033 142.405 92.1433 141.926 92.1433ZM141.686 91.1835H142.405H141.686Z" fill="black"></path><path d="M87.9886 178.527C88.7078 178.767 89.1873 179.007 89.9064 179.007C91.105 179.007 92.5434 178.527 92.5434 176.847C92.5434 175.408 91.3448 174.928 90.3859 174.688C89.1873 174.208 87.5092 173.728 87.5092 171.808C87.5092 170.368 88.7078 168.929 90.6256 168.929C91.3448 168.929 91.8242 169.169 92.5434 169.409C92.5434 169.409 92.7831 169.649 92.7831 169.889C92.7831 170.128 92.5434 170.368 92.3036 170.368C92.3036 170.368 92.0639 170.368 91.8242 170.128C91.5845 170.128 91.105 169.889 90.3859 169.889C88.9475 169.889 88.2284 170.848 88.2284 171.808C88.2284 173.008 89.1873 173.488 90.3859 173.968C91.5845 174.448 93.2625 174.928 93.2625 176.847C93.2625 178.767 91.5845 179.727 89.6667 179.727C88.4681 179.727 87.5092 179.247 87.2695 179.247C87.0298 179.247 86.79 179.007 86.79 178.767C86.79 178.527 87.0298 178.287 87.2695 178.287C87.7489 178.287 87.7489 178.287 87.9886 178.527Z" fill="black"></path><path d="M89.9064 180.207C88.7078 180.207 87.7489 179.727 87.2695 179.727C87.0297 179.727 86.5503 179.248 86.5503 178.768C86.5503 178.288 87.0297 177.808 87.5092 177.808C87.7489 177.808 87.7489 177.808 88.2284 178.048C88.7078 178.288 89.1872 178.528 89.9064 178.528C90.3858 178.528 92.0639 178.528 92.0639 177.088C92.0639 176.128 91.3447 175.888 90.1461 175.408C88.9475 174.928 87.0297 174.208 87.0297 172.049C87.0297 170.129 88.4681 168.689 90.6256 168.689C91.3447 168.689 92.0639 168.929 92.7831 169.169C93.2625 169.409 93.5022 169.649 93.5022 170.129C93.5022 170.609 93.0228 171.089 92.5434 171.089C92.3036 171.089 92.0639 171.089 91.8242 170.849C91.5845 170.849 91.105 170.609 90.6256 170.609C89.6667 170.609 89.1872 171.329 89.1872 172.049C89.1872 172.769 89.6667 173.009 91.105 173.489C92.3036 173.969 94.2214 174.688 94.2214 177.088C93.9817 179.008 92.3036 180.207 89.9064 180.207Z" fill="black"></path><path d="M101.653 173.728C101.892 173.728 102.132 173.968 102.132 174.208C102.132 174.448 101.892 174.688 101.653 174.688H97.098V178.288C97.098 178.768 97.3378 178.768 97.5775 178.768H102.132C102.372 178.768 102.612 179.007 102.612 179.247C102.612 179.487 102.372 179.727 102.132 179.727H97.3378C96.1392 179.727 96.1392 178.768 96.1392 178.528V170.849C96.1392 170.369 96.1392 169.649 97.3378 169.649H101.892C102.132 169.649 102.372 169.889 102.372 170.129C102.372 170.369 102.132 170.609 101.892 170.609H97.5775C97.098 170.609 97.098 170.609 97.098 171.089V174.448H101.653V173.728Z" fill="black"></path><path d="M102.371 180.207H97.577C96.8578 180.207 95.8989 179.967 95.8989 178.288V170.609C95.8989 168.929 96.8578 168.689 97.577 168.689H102.132C102.851 168.689 103.091 169.169 103.091 169.649C103.091 170.129 102.611 170.609 102.132 170.609H97.8167V173.249H101.652C102.371 173.249 102.611 173.729 102.611 174.208C102.611 174.688 102.132 175.168 101.652 175.168H97.8167V178.048H102.371C103.091 178.048 103.33 178.528 103.33 179.008C103.33 179.727 103.091 180.207 102.371 180.207Z" fill="black"></path><path d="M111.722 179.008C111.722 179.247 111.961 179.247 111.961 179.487C111.961 179.727 111.722 179.967 111.482 179.967C111.242 179.967 111.242 179.727 111.002 179.727L107.646 174.688H106.448V179.247C106.448 179.487 106.208 179.727 105.968 179.727C105.728 179.727 105.489 179.487 105.489 179.247V170.369C105.489 169.889 105.489 169.169 106.687 169.169H108.605C110.763 169.169 111.722 170.369 111.722 172.049C111.722 173.249 111.002 174.928 108.605 174.928L111.722 179.008ZM108.126 173.968C108.845 173.968 110.763 173.968 110.763 172.049C110.763 170.129 108.845 170.129 108.126 170.129H106.927C106.448 170.129 106.448 170.129 106.448 170.609V174.208H108.126V173.968Z" fill="black"></path><path d="M111.482 180.207C111.002 180.207 110.763 179.967 110.523 179.727L107.167 175.408H106.927V179.248C106.927 179.967 106.448 180.207 105.968 180.207C105.249 180.207 105.009 179.727 105.009 179.248V170.369C105.009 168.689 105.968 168.449 106.687 168.449H108.605C110.763 168.449 112.201 169.889 112.201 171.809C112.201 173.009 111.482 174.688 109.564 175.168L112.201 178.528L111.721 179.008L112.201 178.768C112.441 179.008 112.441 179.248 112.441 179.487C112.441 179.967 111.961 180.207 111.482 180.207ZM111.242 179.248C111.482 179.008 111.482 179.008 111.242 179.248V179.248ZM106.927 173.489H108.126C109.564 173.489 110.043 173.009 110.043 172.049C110.043 170.849 109.324 170.609 108.126 170.609H106.927V173.489Z" fill="black"></path><path d="M122.029 169.169C122.029 168.929 122.029 168.929 122.509 168.929C122.749 168.929 122.988 169.169 122.988 169.409V169.649L119.153 179.007C119.153 179.247 118.913 179.487 118.434 179.487C117.954 179.487 117.714 179.247 117.714 179.007L113.879 169.649V169.409C113.879 169.169 114.119 168.929 114.358 168.929C114.598 168.929 114.598 169.169 114.838 169.169L118.673 178.528L122.029 169.169Z" fill="black"></path><path d="M118.194 180.447C117.235 180.447 116.995 179.727 116.995 179.487L113.16 169.889C113.16 169.889 112.92 169.649 112.92 169.409C112.92 168.689 113.399 168.449 113.879 168.449C114.358 168.449 114.598 168.689 114.838 169.169L117.954 177.328L121.07 169.169L121.55 169.409L121.07 169.169C121.31 168.689 121.55 168.449 122.029 168.449C122.509 168.449 122.988 168.929 122.988 169.409C122.988 169.649 122.988 169.889 122.749 169.889L118.913 179.247C119.392 179.727 119.153 180.207 118.194 180.447ZM122.029 169.169L122.509 169.409L122.029 169.169Z" fill="black"></path><path d="M125.625 169.409C125.625 169.169 125.865 168.929 126.105 168.929C126.345 168.929 126.584 169.169 126.584 169.409V179.247C126.584 179.727 126.345 179.727 126.105 179.727C125.865 179.727 125.625 179.487 125.625 179.247V169.409Z" fill="black"></path><path d="M126.105 180.207C125.386 180.207 125.146 179.727 125.146 179.248V169.409C125.146 168.689 125.625 168.449 126.105 168.449C126.824 168.449 127.064 168.929 127.064 169.409V179.248C127.064 179.967 126.584 180.207 126.105 180.207ZM125.865 169.409H126.105H125.386H125.865Z" fill="black"></path><path d="M129.7 174.448C129.7 171.569 131.858 169.169 135.214 169.169C136.412 169.169 137.371 169.409 138.09 169.889C138.33 170.129 138.33 170.129 138.33 170.369C138.33 170.609 138.09 170.849 137.851 170.849C137.611 170.849 137.611 170.849 137.371 170.609C136.412 170.129 135.454 170.129 135.214 170.129C132.577 170.129 130.659 172.049 130.659 174.688C130.659 176.848 132.097 179.248 135.454 179.248C136.412 179.248 137.132 179.008 137.611 178.768L138.09 178.528C138.33 178.528 138.57 178.768 138.57 179.008C138.57 179.248 138.33 179.248 138.33 179.488C137.371 179.967 136.173 180.207 135.454 180.207C131.618 179.728 129.7 177.328 129.7 174.448Z" fill="black"></path><path d="M135.214 180.207C131.618 180.207 129.221 177.808 129.221 174.208C129.221 170.849 131.858 168.209 135.214 168.209C136.412 168.209 137.371 168.449 138.33 168.929C138.81 169.169 138.81 169.649 138.81 169.889C138.81 170.369 138.33 170.849 137.851 170.849C137.611 170.849 137.371 170.849 137.132 170.609C136.412 170.369 135.693 170.369 135.214 170.369C132.817 170.369 131.138 172.049 131.138 174.448C131.138 176.368 132.337 178.528 135.214 178.528C136.173 178.528 136.652 178.288 137.132 178.048C137.611 177.808 137.611 177.808 137.851 177.808C138.33 177.808 138.81 178.288 138.81 178.768C138.81 179.008 138.81 179.487 138.09 179.727C137.132 180.207 135.933 180.207 135.214 180.207Z" fill="black"></path><path d="M146.481 173.728C146.721 173.728 146.96 173.968 146.96 174.208C146.96 174.448 146.721 174.688 146.481 174.688H141.926V178.288C141.926 178.768 142.166 178.768 142.406 178.768H146.96C147.2 178.768 147.44 179.007 147.44 179.247C147.44 179.487 147.2 179.727 146.96 179.727H142.166C140.967 179.727 140.967 178.768 140.967 178.528V170.849C140.967 170.369 140.967 169.649 142.166 169.649H146.721C146.96 169.649 147.2 169.889 147.2 170.129C147.2 170.369 146.96 170.609 146.721 170.609H142.406C141.926 170.609 141.926 170.609 141.926 171.089V174.448H146.481V173.728Z" fill="black"></path><path d="M146.96 180.207H142.165C141.446 180.207 140.487 179.967 140.487 178.288V170.609C140.487 168.929 141.446 168.689 142.165 168.689H146.72C147.439 168.689 147.679 169.169 147.679 169.649C147.679 170.129 147.2 170.609 146.72 170.609H142.405V173.249H146.241C146.96 173.249 147.2 173.729 147.2 174.208C147.2 174.688 146.72 175.168 146.241 175.168H142.405V178.048H146.96C147.679 178.048 147.919 178.528 147.919 179.008C147.919 179.727 147.679 180.207 146.96 180.207Z" fill="black"></path><path d="M45 15H18V29H45V15Z" fill="black"></path><path d="M232 38H3V42H232V38Z" fill="black"></path><path d="M198 107H35V109H198V107Z" fill="black"></path><path d="M198 119H35V122H198V119Z" fill="black"></path><path d="M198 132H35V134H198V132Z" fill="black"></path><path d="M198 145H35V147H198V145Z" fill="black"></path><path d="M81 40H4V50H81V40Z" fill="black"></path></svg> 