<?xml version="1.0" encoding="UTF-8"?> <svg xmlns="http://www.w3.org/2000/svg" width="98" height="201" viewBox="0 0 98 201" fill="none"><path d="M9.6339 19.2867C14.9546 19.2867 19.2678 14.9692 19.2678 9.64335C19.2678 4.31748 14.9546 0 9.6339 0C4.31324 0 0 4.31748 0 9.64335C0 14.9692 4.31324 19.2867 9.6339 19.2867Z" fill="black"></path><path d="M9.6339 81.3167C14.9546 81.3167 19.2678 76.9993 19.2678 71.6734C19.2678 66.3475 14.9546 62.03 9.6339 62.03C4.31324 62.03 0 66.3475 0 71.6734C0 76.9993 4.31324 81.3167 9.6339 81.3167Z" fill="black"></path><path d="M9.6339 140.48C14.9546 140.48 19.2678 136.163 19.2678 130.837C19.2678 125.511 14.9546 121.193 9.6339 121.193C4.31324 121.193 0 125.511 0 130.837C0 136.163 4.31324 140.48 9.6339 140.48Z" fill="black"></path><path d="M9.63455 200.686C8.07228 200.686 7.03076 199.643 7.03076 198.079V9.64317C7.03076 8.07939 8.07228 7.03687 9.63455 7.03687C11.1968 7.03687 12.2383 8.07939 12.2383 9.64317V198.34C12.2383 199.643 11.1968 200.686 9.63455 200.686Z" fill="black"></path><path d="M41.4005 7.81889C41.1401 7.81889 41.1401 8.07952 40.8798 8.07952C40.359 8.07952 40.0986 7.55826 40.0986 7.29763C40.0986 7.037 40.359 6.77637 40.6194 6.77637L44.0043 4.43069C44.525 4.17006 44.7854 3.90942 45.0458 3.90942C45.8269 3.90942 45.8269 4.43069 45.8269 4.95195V22.1536C45.8269 22.6749 45.3061 22.9355 45.0458 22.9355C44.525 22.9355 44.2646 22.6749 44.2646 22.1536V5.99448L41.4005 7.81889Z" fill="black"></path><path d="M45.0456 23.4559C44.2644 23.4559 43.4833 22.9347 43.4833 22.1528V7.03617L41.6607 8.33933C41.4003 8.59996 41.1399 8.59996 40.8795 8.59996C40.0984 8.59996 39.5776 7.81807 39.5776 7.29681C39.5776 6.51491 40.0984 6.25428 40.3588 5.99365L44.004 3.64797C44.5248 3.38734 44.7852 3.12671 45.3059 3.12671C46.6078 3.12671 46.6078 4.42986 46.6078 4.95112V22.1528C46.3474 22.9347 45.5663 23.4559 45.0456 23.4559ZM44.7852 4.6905V22.1528H45.0456V4.95112C45.0456 4.69049 45.0455 4.42987 44.7852 4.6905C45.0455 4.42987 44.7852 4.6905 44.5248 4.6905L40.8795 7.03617C40.8795 7.03617 40.6192 7.03618 40.6192 7.29681L41.1399 7.81807L40.8795 7.29681L44.7852 4.6905Z" fill="black"></path><path d="M59.3666 15.8985C55.7213 15.8985 53.3779 13.2922 53.3779 9.90395C53.3779 6.25512 55.9817 3.6488 59.3666 3.6488C62.2308 3.6488 65.876 5.21259 65.876 11.989C65.876 19.2867 61.9704 22.9355 57.2836 22.9355C55.9817 22.9355 54.9402 22.6749 54.9402 21.893C54.9402 21.6323 55.2006 21.1111 55.461 21.1111C55.461 21.1111 55.9817 21.1111 56.2421 21.1111C56.5025 21.1111 56.7628 21.1111 57.2836 21.1111C60.1477 21.1111 62.2308 19.5473 63.2723 17.2016C64.0534 15.3772 64.0534 14.074 64.3138 12.5103C62.7515 15.8985 60.1477 15.8985 59.3666 15.8985ZM54.9402 9.90395C54.9402 12.7709 57.0232 14.3347 59.3666 14.3347C61.71 14.3347 64.3138 12.7709 64.3138 9.90395C64.3138 7.55827 62.7515 5.21259 59.627 5.21259C56.7628 5.21259 54.9402 7.29764 54.9402 9.90395Z" fill="black"></path><path d="M57.5437 23.4567C54.94 23.4567 54.4192 22.6748 54.4192 21.8929C54.4192 21.111 54.9399 20.5897 55.721 20.5897C55.9814 20.5897 55.9814 20.5897 56.5022 20.5897C56.7626 20.5897 57.023 20.5897 57.5437 20.5897C60.1475 20.5897 61.9701 19.2866 63.0116 16.9409C63.272 16.159 63.5324 15.3771 63.7927 14.5952C62.7512 15.3771 61.4494 16.159 59.3663 16.159C55.4607 16.159 52.8569 13.2921 52.8569 9.64323C52.8569 5.73376 55.721 2.86682 59.6267 2.86682C61.4493 2.86682 66.9172 3.38808 66.9172 11.7283C66.6569 20.5897 61.9701 23.4567 57.5437 23.4567ZM55.721 21.8929C55.721 21.8929 56.2418 22.1535 57.5437 22.1535C62.4909 22.1535 65.355 18.244 65.355 11.9889C65.355 11.7283 65.355 11.4676 65.355 11.207L65.0946 12.7708C65.0946 14.3346 64.8342 15.6377 64.0531 17.4622C62.7512 20.3291 60.4078 21.8929 57.2833 21.8929C56.7626 21.8929 56.5022 21.8929 55.9814 21.8929C56.2418 22.1535 55.9814 21.8929 55.721 21.8929ZM59.6267 4.43061C56.5022 4.43061 54.1588 6.77629 54.1588 9.90386C54.1588 13.0314 56.2418 15.1165 59.3663 15.1165C60.4078 15.1165 61.4493 14.8558 62.2305 14.3346C61.4493 14.8558 60.4078 14.8558 59.6267 14.8558C57.0229 14.8558 54.4192 13.2921 54.4192 9.64323C54.4192 6.77629 56.5022 4.43061 59.6267 4.43061C63.272 4.43061 65.0946 7.29755 65.0946 9.90386C65.0946 10.4251 65.0946 10.9464 64.8342 11.4676L65.355 10.4251C64.8342 4.95187 61.189 4.43061 59.6267 4.43061ZM59.6267 5.73376C57.2833 5.73376 55.721 7.29755 55.721 9.90386C55.721 15.3771 63.7927 14.8558 63.7927 9.90386C63.7927 8.07944 62.4908 5.73376 59.6267 5.73376Z" fill="black"></path><path d="M70.0405 8.33931C70.0405 6.25426 71.6028 3.64795 75.248 3.64795C78.8933 3.64795 80.4555 6.25426 80.4555 8.33931C80.4555 9.90309 79.6744 11.4669 78.1122 12.2488C80.4556 13.2913 81.4971 15.1157 81.4971 17.2008C81.4971 20.589 78.6329 22.9346 75.248 22.9346C71.8631 22.9346 68.999 20.589 68.999 17.2008C68.999 16.1582 69.2594 13.5519 72.3839 12.2488C70.8217 11.4669 70.0405 9.90309 70.0405 8.33931ZM79.9348 17.2008C79.9348 15.3763 78.8933 13.0307 75.248 13.0307C71.6028 13.0307 70.5613 15.3763 70.5613 17.2008C70.5613 19.5464 72.3839 21.6315 75.248 21.6315C78.1122 21.6315 79.9348 19.5464 79.9348 17.2008ZM78.8933 8.33931C78.8933 6.51489 77.5914 4.9511 75.248 4.9511C72.6443 4.9511 71.6028 6.51489 71.6028 8.33931C71.6028 10.1637 72.9046 11.4669 75.248 11.4669C77.5914 11.7275 78.8933 10.1637 78.8933 8.33931Z" fill="black"></path><path d="M75.2494 23.4566C71.3437 23.4566 68.2192 20.8503 68.2192 17.2015C68.2192 15.1164 69.2608 13.292 71.0834 12.2495C70.0419 11.207 69.2608 9.6432 69.2608 8.60068C69.2608 5.99437 71.0834 3.38806 74.989 3.38806C78.8947 3.38806 80.7173 5.99437 80.7173 8.60068C80.7173 10.1645 80.1966 11.4676 78.8947 12.2495C80.7173 13.292 81.7588 15.1164 81.7588 17.2015C82.2795 20.8503 79.155 23.4566 75.2494 23.4566ZM73.9475 12.2495L72.6456 12.7708C70.5626 13.5527 69.5211 15.1164 69.5211 17.2015C69.5211 23.7173 80.7173 23.7173 80.7173 17.2015C80.7173 15.1164 79.6758 13.5527 77.5928 12.7708L76.2909 12.2495H76.5513C76.0305 12.2495 74.989 12.5101 73.9475 12.2495ZM75.2494 4.43058C71.6041 4.43058 70.823 6.77626 70.823 8.34005C70.823 9.38257 71.3438 10.6857 72.3853 11.4676C71.6041 10.6857 71.0834 9.6432 71.0834 8.60068C70.823 6.51563 72.1249 4.43058 75.2494 4.43058C78.1135 4.43058 79.6758 6.51563 79.6758 8.34005C79.6758 9.38257 79.1551 10.4251 78.3739 11.207C79.4154 10.4251 79.9362 9.12194 79.9362 8.07941C79.6758 6.77626 78.8947 4.43058 75.2494 4.43058ZM75.2494 5.73374C72.906 5.73374 72.1249 7.03689 72.1249 8.34005C72.1249 9.90383 73.1664 10.9464 75.2494 10.9464C77.3324 10.9464 78.3739 9.90383 78.3739 8.34005C78.3739 7.03689 77.5928 5.73374 75.2494 5.73374ZM75.2494 22.1535C72.1249 22.1535 69.7815 20.0684 69.7815 17.2015C69.7815 14.8558 71.3437 12.5101 75.2494 12.5101C78.8947 12.5101 80.7173 14.8558 80.7173 17.2015C80.7173 20.0684 78.3739 22.1535 75.2494 22.1535ZM75.2494 13.8133C71.3437 13.8133 71.0834 16.6802 71.0834 17.2015C71.0834 19.2865 72.906 20.8503 75.2494 20.8503C77.5928 20.8503 79.4154 19.2865 79.4154 17.2015C79.4154 16.6802 79.155 13.8133 75.2494 13.8133Z" fill="black"></path><path d="M96.3401 21.1111C96.8609 21.1111 97.1213 21.6323 97.1213 21.893C97.1213 22.4142 96.8609 22.6749 96.3401 22.6749H86.4458C85.4043 22.6749 84.3628 22.6749 84.3628 21.3717C84.3628 20.5898 84.6232 20.3292 85.9251 19.2867C86.9666 18.5048 90.0911 15.6378 92.1741 13.2921C93.476 11.7284 93.9968 10.4252 93.9968 9.12205C93.9968 7.037 92.4345 5.47321 90.3515 5.47321C88.7892 5.47321 87.2269 6.25511 86.4458 7.29763C85.9251 7.81889 85.9251 7.81889 85.6647 7.81889C85.4043 7.81889 84.8836 7.55826 84.8836 7.037C84.8836 6.51574 86.9666 3.90942 90.3515 3.90942C92.9552 3.90942 95.8194 5.47321 95.8194 8.86141C95.8194 10.9465 94.7779 12.2496 93.7364 13.5528C91.6534 15.8985 87.4873 19.5473 85.6647 21.1111H96.3401V21.1111Z" fill="black"></path><path d="M96.3398 23.196H86.4456C85.6644 23.196 83.8418 23.196 83.8418 21.3716C83.8418 20.3291 84.3625 19.8078 85.6644 18.7653L86.1852 18.244C87.4871 17.2015 90.0908 14.8558 91.9135 12.7708C93.2153 11.4676 93.7361 10.1645 93.7361 8.86132C93.7361 7.0369 92.4342 5.73375 90.6116 5.73375C89.3097 5.73375 88.0078 6.25502 87.2267 7.29754C86.7059 7.8188 86.4456 8.07943 85.9248 8.07943C85.1437 8.07943 84.6229 7.55817 84.6229 6.77628C84.6229 5.73375 87.2267 3.12744 90.6116 3.12744C93.4757 3.12744 96.6002 5.21249 96.6002 8.86132C96.6002 11.207 95.5587 12.7708 94.5172 14.0739C92.955 15.8984 89.8304 18.7653 87.7474 20.5897H96.6002C97.3813 20.5897 97.9021 21.3716 97.9021 21.8929C97.6417 22.6748 97.121 23.196 96.3398 23.196ZM85.4041 21.8929C85.6644 21.8929 85.9248 21.8929 86.4456 21.8929H96.3398H85.4041ZM90.6116 4.4306C93.2153 4.4306 95.038 6.25501 95.038 8.86132C95.038 10.4251 94.2568 11.9889 92.9549 13.5527C90.8719 15.6377 88.2682 17.9834 86.9663 19.2866L86.4456 19.5472C86.1852 19.8078 86.1852 19.8078 85.9248 20.0685C88.0078 18.5047 91.6531 15.1165 93.2153 13.0314C94.5172 11.7283 95.038 10.4251 95.038 8.60069C95.2983 5.73375 92.955 4.4306 90.6116 4.4306C87.7474 4.4306 85.9248 6.25501 85.9248 6.77628L86.1852 6.51564C87.4871 5.21249 89.0493 4.4306 90.6116 4.4306Z" fill="black"></path><path d="M41.4005 66.2004C41.1401 66.2004 41.1401 66.461 40.8798 66.461C40.359 66.461 40.0986 65.9397 40.0986 65.6791C40.0986 65.4185 40.359 65.1578 40.6194 65.1578L44.0043 62.8122C44.525 62.5515 44.7854 62.2909 45.0458 62.2909C45.8269 62.2909 45.8269 62.8122 45.8269 63.3334V80.5351C45.8269 81.0563 45.3061 81.317 45.0458 81.317C44.525 81.317 44.2646 81.0563 44.2646 80.5351V64.3759L41.4005 66.2004Z" fill="black"></path><path d="M45.0456 81.8374C44.2644 81.8374 43.4833 81.3161 43.4833 80.5342V65.4176L41.6607 66.7208C41.4003 66.9814 41.1399 66.9814 40.8795 66.9814C40.0984 66.9814 39.5776 66.1995 39.5776 65.6783C39.5776 64.8964 40.0984 64.6357 40.3588 64.3751L44.004 62.0294C44.5248 61.7688 44.7852 61.5082 45.3059 61.5082C46.6078 61.5082 46.6078 62.8113 46.6078 63.3326V80.5342C46.3474 81.3161 45.5663 81.8374 45.0456 81.8374ZM44.7852 63.072V80.5342H45.0456V63.3326C45.0456 63.072 45.0455 62.8113 44.7852 63.072C45.0455 62.8113 44.7852 63.072 44.5248 63.072L40.8795 65.4176C40.8795 65.4176 40.6192 65.4176 40.6192 65.6783L41.1399 66.1995L40.8795 65.6783L44.7852 63.072Z" fill="black"></path><path d="M59.3666 74.2799C55.7213 74.2799 53.3779 71.6736 53.3779 68.2854C53.3779 64.6366 55.9817 62.0303 59.3666 62.0303C62.2308 62.0303 65.876 63.5941 65.876 70.3705C65.876 77.6681 61.9704 81.3169 57.2836 81.3169C55.9817 81.3169 54.9402 81.0563 54.9402 80.2744C54.9402 80.0138 55.2006 79.4925 55.461 79.4925C55.461 79.4925 55.9817 79.4925 56.2421 79.4925C56.5025 79.4925 56.7628 79.4925 57.2836 79.4925C60.1477 79.4925 62.2308 77.9288 63.2723 75.5831C64.0534 73.7587 64.0534 72.4555 64.3138 70.8917C62.7515 74.2799 60.1477 74.2799 59.3666 74.2799ZM54.9402 68.2854C54.9402 71.1523 57.0232 72.7161 59.3666 72.7161C61.71 72.7161 64.3138 71.1523 64.3138 68.2854C64.3138 65.9397 62.7515 63.5941 59.627 63.5941C56.7628 63.5941 54.9402 65.6791 54.9402 68.2854Z" fill="black"></path><path d="M57.5437 81.8381C54.94 81.8381 54.4192 81.0562 54.4192 80.2744C54.4192 79.4925 54.9399 78.9712 55.721 78.9712C55.9814 78.9712 55.9814 78.9712 56.5022 78.9712C56.7626 78.9712 57.023 78.9712 57.5437 78.9712C60.1475 78.9712 61.9701 77.668 63.0116 75.3224C63.272 74.5405 63.5324 73.7586 63.7927 72.9767C62.7512 73.7586 61.4494 74.5405 59.3663 74.5405C55.4607 74.5405 52.8569 71.6735 52.8569 68.0247C52.8569 64.1152 55.721 61.2483 59.6267 61.2483C61.4493 61.2483 66.9172 61.7695 66.9172 70.1097C66.6569 78.9712 61.9701 81.8381 57.5437 81.8381ZM55.721 80.2744C55.721 80.2744 56.2418 80.535 57.5437 80.535C62.4909 80.535 65.355 76.6255 65.355 70.3704C65.355 70.1097 65.355 69.8491 65.355 69.5885L65.0946 71.1523C65.0946 72.7161 64.8342 74.0192 64.0531 75.8436C62.7512 78.7106 60.4078 80.2744 57.2833 80.2744C56.7626 80.2744 56.5022 80.2744 55.9814 80.2744C56.2418 80.2744 55.9814 80.2744 55.721 80.2744ZM59.6267 62.8121C56.5022 62.8121 54.1588 65.1577 54.1588 68.2853C54.1588 71.4129 56.2418 73.4979 59.3663 73.4979C60.4078 73.4979 61.4493 73.2373 62.2305 72.716C61.4493 73.2373 60.4078 73.2373 59.6267 73.2373C57.0229 73.2373 54.4192 71.6735 54.4192 68.0247C54.4192 65.1578 56.5022 62.8121 59.6267 62.8121C63.272 62.8121 65.0946 65.679 65.0946 68.2853C65.0946 68.8066 65.0946 69.3279 64.8342 69.8491L65.355 68.8066C64.8342 63.3333 61.189 62.8121 59.6267 62.8121ZM59.6267 64.1152C57.2833 64.1152 55.721 65.679 55.721 68.2853C55.721 73.7586 63.7927 73.2373 63.7927 68.2853C63.7927 66.2003 62.4908 64.1152 59.6267 64.1152Z" fill="black"></path><path d="M74.7289 74.2799C71.0836 74.2799 68.7402 71.6736 68.7402 68.2854C68.7402 64.6366 71.344 62.0303 74.7289 62.0303C77.593 62.0303 81.2383 63.5941 81.2383 70.3705C81.2383 77.6681 77.3326 81.3169 72.6459 81.3169C71.344 81.3169 70.3025 81.0563 70.3025 80.2744C70.3025 80.0138 70.5629 79.4925 70.8232 79.4925C70.8232 79.4925 71.344 79.4925 71.6044 79.4925C71.8648 79.4925 72.1251 79.4925 72.6459 79.4925C75.51 79.4925 77.593 77.9288 78.6345 75.5831C79.4157 73.7587 79.4157 72.4555 79.6761 70.8917C78.3742 74.2799 75.51 74.2799 74.7289 74.2799ZM70.3025 68.2854C70.3025 71.1523 72.3855 72.7161 74.7289 72.7161C77.0723 72.7161 79.6761 71.1523 79.6761 68.2854C79.6761 65.9397 78.1138 63.5941 74.9893 63.5941C72.1251 63.5941 70.3025 65.6791 70.3025 68.2854Z" fill="black"></path><path d="M72.906 81.8381C70.3023 81.8381 69.7815 81.0562 69.7815 80.2744C69.7815 79.4925 70.3023 78.9712 71.0834 78.9712C71.3438 78.9712 71.3438 78.9712 71.8645 78.9712C72.1249 78.9712 72.3853 78.9712 72.906 78.9712C75.5098 78.9712 77.3324 77.668 78.3739 75.3224C78.6343 74.5405 78.8946 73.7586 79.155 72.9767C78.1135 73.7586 76.8116 74.5405 74.7286 74.5405C70.823 74.5405 68.2192 71.6735 68.2192 68.0247C68.2192 64.1152 71.0834 61.2483 74.989 61.2483C76.8116 61.2483 82.2795 61.7695 82.2795 70.1097C82.2795 78.9712 77.5928 81.8381 72.906 81.8381ZM71.3437 80.2744C71.3437 80.2744 71.8645 80.535 73.1664 80.535C78.1135 80.535 80.9777 76.6255 80.9777 70.3704C80.9777 70.1097 80.9777 69.8491 80.9777 69.5885L80.7173 71.1523C80.7173 72.7161 80.4569 74.0192 79.6758 75.8436C78.3739 78.7106 76.0305 80.2744 72.906 80.2744C72.3853 80.2744 72.1249 80.2744 71.6041 80.2744C71.6041 80.2744 71.3437 80.2744 71.3437 80.2744ZM74.989 62.8121C71.8645 62.8121 69.5211 65.1577 69.5211 68.2853C69.5211 71.4129 71.6041 73.4979 74.7286 73.4979C75.7701 73.4979 76.8116 73.2373 77.5928 72.716C76.8116 73.2373 75.7701 73.2373 74.989 73.2373C72.3853 73.2373 69.7815 71.6735 69.7815 68.0247C69.7815 65.1578 71.8645 62.8121 74.989 62.8121C78.6343 62.8121 80.4569 65.679 80.4569 68.2853C80.4569 68.8066 80.4569 69.3279 80.1965 69.8491L80.7173 68.8066C80.1965 63.3333 76.5513 62.8121 74.989 62.8121ZM74.989 64.1152C72.6456 64.1152 71.0834 65.679 71.0834 68.2853C71.0834 73.7586 79.155 73.2373 79.155 68.2853C79.155 66.2003 77.8531 64.1152 74.989 64.1152Z" fill="black"></path><path d="M85.6627 64.8965C85.6627 64.1146 85.6627 62.5508 87.7457 62.5508H94.7758C95.2965 62.5508 95.5569 63.072 95.5569 63.3327C95.5569 63.8539 95.2965 64.1146 94.7758 64.1146H88.0061C87.225 64.1146 86.9646 64.3752 86.9646 65.1571V70.891C87.4853 70.6303 88.5268 70.1091 90.3494 70.1091C93.9947 70.1091 96.5984 72.4548 96.5984 75.843C96.5984 79.2312 93.9947 81.8375 89.5683 81.8375C88.0061 81.8375 86.1835 81.5768 84.8816 80.7949C84.6212 80.7949 84.3608 80.5343 84.3608 80.013C84.3608 79.4918 84.6212 79.2312 85.142 79.2312C85.142 79.2312 85.9231 79.4918 86.1835 79.4918C86.7042 79.7524 88.0061 80.2737 89.8287 80.2737C93.7343 80.2737 95.2966 78.1886 95.2966 75.843C95.2966 72.976 93.2136 71.4122 90.6098 71.4122C89.0476 71.4122 88.2665 71.9335 87.225 72.4548C86.9646 72.4548 86.9646 72.7154 86.4438 72.7154C85.6627 72.7154 85.6627 72.1941 85.6627 71.9335V64.8965Z" fill="black"></path><path d="M89.8301 81.8382C88.0074 81.8382 86.1848 81.317 84.6225 80.7957C84.1018 80.5351 83.5811 80.0138 83.5811 79.4925C83.5811 78.7106 84.3622 78.1894 84.8829 78.1894C85.1433 78.1894 86.1848 78.7106 86.1848 78.7106C86.7056 78.9713 88.0074 79.4925 89.5697 79.4925C93.2149 79.4925 94.5168 77.4075 94.5168 75.5831C94.5168 72.9768 92.4338 71.9342 90.3508 71.9342C89.0489 71.9342 88.2678 72.1949 87.2263 72.9768C86.9659 73.2374 86.7056 73.2374 86.1848 73.2374C85.6641 73.2374 84.8829 72.9768 84.8829 71.6736V65.1578C84.8829 63.0728 85.9244 62.2909 87.7471 62.2909H94.7772C95.8187 62.2909 96.0791 63.0728 96.0791 63.594C96.0791 64.3759 95.5583 64.8972 94.7772 64.8972H88.0074C87.7471 64.8972 87.7471 64.8972 87.7471 64.8972C87.7471 64.8972 87.7471 64.8972 87.7471 65.1578V69.8492C88.5282 69.5886 89.3093 69.3279 90.6112 69.3279C94.5168 69.3279 97.6414 71.9342 97.6414 75.5831C97.381 79.2319 94.2565 81.8382 89.8301 81.8382ZM84.8829 79.4925C84.8829 79.4925 85.1433 79.4925 85.1433 79.7532C86.4452 80.5351 88.0074 80.7957 89.5697 80.7957C93.2149 80.7957 95.8187 78.7106 95.8187 75.5831C95.8187 72.7161 93.4754 70.6311 90.0905 70.6311C88.5282 70.6311 87.4867 71.1523 86.9659 71.413L85.9244 71.9342V70.8917V65.1578C85.9244 63.8547 86.7056 63.594 87.4867 63.594H94.2565H87.2263C85.9244 63.594 85.664 64.3759 85.664 65.1578V71.6736V71.9342C85.9244 71.9342 85.9244 71.9342 85.9244 71.6736C87.2263 70.8917 88.0074 70.6311 89.8301 70.6311C92.9546 70.6311 95.298 72.7161 95.298 75.5831C95.298 77.9288 93.7357 80.7957 89.0489 80.7957C87.2263 80.7957 85.664 80.2744 85.1433 80.0138C85.664 79.7532 85.1433 79.4925 84.8829 79.4925Z" fill="black"></path><path d="M49.9925 141.262C50.5132 141.262 50.7736 141.783 50.7736 142.044C50.7736 142.565 50.5132 142.826 49.9925 142.826H40.0981C39.0566 142.826 38.0151 142.826 38.0151 141.523C38.0151 140.741 38.2755 140.48 39.5774 139.438C40.6189 138.656 43.7434 135.789 45.8265 133.443C47.1284 131.879 47.6491 130.576 47.6491 129.273C47.6491 127.188 46.0868 125.624 44.0038 125.624C42.4415 125.624 40.8793 126.406 40.0981 127.449C39.5774 127.97 39.5774 127.97 39.317 127.97C39.0566 127.97 38.5359 127.709 38.5359 127.188C38.5359 126.667 40.6189 124.06 44.0038 124.06C46.6076 124.06 49.4717 125.624 49.4717 129.012C49.4717 131.097 48.4302 132.4 47.3887 133.704C45.3057 136.049 41.1397 139.698 39.317 141.262H49.9925V141.262Z" fill="black"></path><path d="M49.9922 143.347H40.0979C39.3168 143.347 37.4941 143.347 37.4941 141.523C37.4941 140.48 38.0149 139.959 39.3168 138.916L39.8376 138.395C41.1394 137.353 43.7432 135.007 45.5658 132.922C46.8677 131.619 47.3885 130.315 47.3885 129.012C47.3885 127.188 46.0866 125.885 44.2639 125.885C42.9621 125.885 41.6602 126.406 40.879 127.449C40.3583 127.97 40.0979 128.23 39.5772 128.23C38.796 128.23 38.2753 127.709 38.2753 126.927C38.2753 125.885 40.8791 123.278 44.2639 123.278C47.1281 123.278 50.2526 125.363 50.2526 129.012C50.2526 131.358 49.2111 132.922 48.1696 134.225C46.6073 136.049 43.4828 138.916 41.3998 140.741H50.2526C51.0338 140.741 51.5545 141.523 51.5545 142.044C51.2941 142.826 50.7734 143.347 49.9922 143.347ZM39.0564 142.044C39.3168 142.044 39.5772 142.044 40.0979 142.044H49.9922H39.0564ZM44.2639 124.842C46.8677 124.842 48.6903 126.667 48.6903 129.273C48.6903 130.837 47.9092 132.401 46.6073 133.964C44.5243 136.049 41.9206 138.395 40.6187 139.698L40.0979 139.959C39.8375 140.219 39.8375 140.219 39.5772 140.48C41.6602 138.916 45.3055 135.528 46.8677 133.443C48.1696 132.14 48.6903 130.837 48.6903 129.012C48.9507 126.145 46.6073 124.582 44.2639 124.842C41.3998 124.842 39.5772 126.667 39.5772 127.188L39.8376 126.927C40.8791 125.624 42.7017 124.842 44.2639 124.842Z" fill="black"></path><path d="M53.6377 133.704C53.6377 131.619 53.6377 124.06 59.8867 124.06C66.1357 124.06 66.1357 131.619 66.1357 133.704C66.1357 135.789 66.1357 143.347 59.8867 143.347C53.6377 143.086 53.6377 135.528 53.6377 133.704ZM64.5735 133.704C64.5735 131.097 64.3131 125.624 59.8867 125.624C55.4603 125.624 55.1999 130.837 55.1999 133.704C55.1999 136.31 55.4603 141.783 59.8867 141.783C64.0527 141.783 64.5735 136.31 64.5735 133.704Z" fill="black"></path><path d="M59.8865 143.868C56.762 143.868 53.1167 142.044 53.1167 133.704C53.1167 125.363 56.762 123.539 59.8865 123.539C63.011 123.539 66.6562 125.363 66.6562 133.704C66.6562 142.044 63.011 143.868 59.8865 143.868ZM59.8865 124.582C56.2412 124.582 54.4186 127.449 54.4186 133.443C54.4186 139.438 56.2412 142.305 59.8865 142.305C63.5317 142.305 65.3544 139.438 65.3544 133.443C65.3544 127.449 63.5317 124.582 59.8865 124.582ZM59.8865 142.305C57.5431 142.305 54.4186 140.741 54.4186 133.443C54.4186 126.145 57.2827 124.582 59.8865 124.582C63.5317 124.582 65.3544 127.449 65.3544 133.443C65.3544 139.438 63.2714 142.305 59.8865 142.305ZM59.8865 126.145C57.2827 126.145 55.7205 128.752 55.7205 133.704C55.7205 138.656 57.0223 141.262 59.8865 141.262C62.7506 141.262 64.0525 138.916 64.0525 133.704C63.7921 128.491 62.4902 126.145 59.8865 126.145Z" fill="black"></path><path d="M68.9995 133.704C68.9995 131.619 68.9995 124.06 75.2485 124.06C81.4975 124.06 81.4976 131.619 81.4976 133.704C81.4976 135.789 81.4975 143.347 75.2485 143.347C68.9995 143.086 68.9995 135.528 68.9995 133.704ZM79.9353 133.704C79.9353 131.097 79.6749 125.624 75.2485 125.624C70.8221 125.624 70.5618 130.837 70.5618 133.704C70.5618 136.31 70.8221 141.783 75.2485 141.783C79.6749 141.783 79.9353 136.31 79.9353 133.704Z" fill="black"></path><path d="M75.2483 143.868C72.1238 143.868 68.4785 142.044 68.4785 133.704C68.4785 125.363 72.1238 123.539 75.2483 123.539C78.3728 123.539 82.0181 125.363 82.0181 133.704C82.0181 142.044 78.3728 143.868 75.2483 143.868ZM75.2483 124.582C71.603 124.582 69.7804 127.449 69.7804 133.443C69.7804 139.438 71.603 142.305 75.2483 142.305C78.8935 142.305 80.7162 139.438 80.7162 133.443C80.7162 127.449 78.8935 124.582 75.2483 124.582ZM75.2483 142.305C72.9049 142.305 69.7804 140.741 69.7804 133.443C69.7804 126.145 72.6445 124.582 75.2483 124.582C78.8935 124.582 80.7162 127.449 80.7162 133.443C80.7162 139.438 78.8935 142.305 75.2483 142.305ZM75.2483 126.145C72.6445 126.145 71.0823 128.752 71.0823 133.704C71.0823 138.656 72.3841 141.262 75.2483 141.262C78.1124 141.262 79.4143 138.916 79.4143 133.704C79.4143 128.491 77.852 126.145 75.2483 126.145Z" fill="black"></path><path d="M89.048 133.704C88.5272 133.704 88.5272 133.182 88.5272 132.922C88.5272 132.401 88.7876 132.14 89.048 132.14H89.8291C92.1725 132.14 94.2555 130.837 94.2555 128.491C94.2555 126.145 92.4328 125.103 90.3498 125.103C89.048 125.103 87.7461 125.624 86.7046 126.406C86.1838 126.667 86.1838 126.927 85.9235 126.927C85.6631 126.927 85.1423 126.667 85.1423 126.145C85.1423 125.885 85.1423 125.624 86.4442 124.842C88.0065 123.8 89.3083 123.8 90.3498 123.8C93.214 123.8 95.8177 125.363 95.8177 128.491C95.8177 129.534 95.297 131.619 92.6932 132.661C96.0781 133.443 97.1196 135.789 97.1196 137.353C97.1196 139.698 95.297 142.826 90.0895 142.826C87.7461 142.826 86.1838 142.305 85.4027 141.783C85.1423 141.523 84.6216 141.523 84.6216 141.001C84.6216 140.48 84.882 140.219 85.4027 140.219C85.4027 140.219 86.1838 140.48 86.4442 140.48C87.4857 141.001 88.7876 141.262 90.3498 141.262C94.2555 141.262 95.8177 138.916 95.8177 137.092C95.8177 135.789 95.297 133.182 90.3498 133.182H89.048V133.704Z" fill="black"></path><path d="M89.8295 143.868C87.4861 143.868 85.9239 143.347 84.8824 142.826C84.622 142.565 83.8408 142.304 83.8408 141.523C83.8408 140.741 84.3616 140.219 85.1427 140.219C85.4031 140.219 86.4446 140.741 86.4446 140.741C87.4861 141.262 88.788 141.523 90.0899 141.523C93.7352 141.523 94.7766 139.698 94.7766 137.874C94.7766 136.831 94.2559 134.746 89.8295 134.746H89.0484C88.2672 134.746 87.7465 133.964 87.7465 133.443C87.7465 132.661 88.2672 132.14 89.0484 132.14H89.8295C91.6521 132.14 93.4748 131.097 93.4748 129.273C93.4748 127.188 91.6521 126.667 90.3502 126.667C89.3087 126.667 88.0069 126.927 87.2257 127.709C86.705 127.97 86.4446 128.23 85.9238 128.23C85.1427 128.23 84.622 127.709 84.622 126.927C84.622 126.145 84.8824 125.885 86.1842 125.103C87.7465 124.06 89.3087 123.8 90.3502 123.8C93.2144 123.8 96.3389 125.624 96.3389 129.012C96.3389 129.794 96.0785 131.879 94.2559 133.182C96.5993 134.225 97.6408 136.31 97.6408 138.134C97.6408 140.741 95.037 143.868 89.8295 143.868ZM84.8824 141.262C85.1427 141.262 85.1427 141.523 85.1427 141.523C86.1842 142.044 87.4861 142.565 89.5691 142.565C94.2559 142.565 95.8182 139.959 95.8182 137.874C95.8182 137.353 95.5578 135.789 94.2559 134.746C95.2974 135.789 95.5578 137.092 95.5578 137.874C95.5578 140.219 93.7351 142.826 89.5691 142.826C88.2672 142.826 86.705 142.565 85.4031 142.044C85.6635 141.523 85.1427 141.262 84.8824 141.262ZM89.0484 132.922H89.8295C90.0899 132.922 90.0899 132.922 90.3502 132.922H90.6106C90.3503 132.922 90.0899 132.922 89.8295 132.922H89.0484ZM90.3502 124.842C92.4333 124.842 94.7766 126.145 94.7766 128.752C94.7766 129.794 94.2559 130.837 93.7352 131.619C94.7767 130.837 95.037 129.534 95.037 128.752C95.037 125.885 92.6936 124.582 90.3502 124.842C89.5691 124.842 88.2672 124.842 86.9653 125.624C86.1842 126.145 85.9238 126.406 85.9238 126.406C85.9238 126.406 86.1842 126.406 86.1842 126.145C87.4861 125.363 88.788 124.842 90.3502 124.842Z" fill="black"></path></svg> 