<?xml version="1.0" encoding="UTF-8"?> <svg xmlns="http://www.w3.org/2000/svg" width="137" height="147" viewBox="0 0 137 147" fill="none"><path d="M67.217 46.2711H59.875V146.158H67.217V46.2711Z" fill="black"></path><path d="M2.56898 21.6666C4.03738 22.401 5.50577 22.7683 6.60707 22.7683C9.17676 22.7683 12.4807 21.6666 12.4807 17.9943C12.4807 14.6892 10.2781 13.9547 7.70837 13.2203C5.13867 12.1186 1.83478 11.0169 1.83478 6.97731C1.83478 3.67223 4.40448 0.734375 8.44256 0.734375C9.91096 0.734375 11.3794 1.10161 12.4807 1.83607C12.8478 1.83607 13.2148 2.2033 13.2148 2.57053C13.2148 3.305 12.8478 3.67223 12.4807 3.67223C12.4807 3.67223 12.1136 3.67223 11.3794 3.305C11.0123 2.93776 9.54386 2.57053 8.44256 2.57053C5.13867 2.57053 3.67028 4.77392 3.67028 6.97731C3.67028 9.91517 5.87287 10.6496 8.44256 11.3841C11.3794 12.4858 14.6832 13.5875 14.6832 17.9943C14.6832 22.0338 11.0123 24.2372 6.97417 24.2372C4.40448 24.2372 2.56898 23.5027 1.83478 23.1355C1.46768 22.7683 1.10059 22.7683 1.10059 22.0338C1.10059 21.6666 1.46768 21.2993 1.83478 21.2993C1.83478 21.2993 2.20188 21.2993 2.56898 21.6666Z" fill="black"></path><path d="M6.97488 25.339C4.03809 25.339 2.20259 24.6045 1.4684 24.2373C1.1013 23.8701 0 23.1356 0 22.0339C0 20.9322 0.734198 20.1977 1.83549 20.1977C2.20259 20.1977 2.56969 20.1977 2.93679 20.565H3.30389C4.40519 21.2994 5.87358 21.2994 6.97488 21.2994C8.07617 21.2994 11.7472 20.9322 11.7472 17.6271C11.7472 15.0565 10.2788 14.6893 7.34198 13.5876C4.77229 12.8531 0.734198 11.7514 0.734198 6.9774C0.734198 3.67232 3.30389 0 8.44327 0C9.91167 0 11.3801 0.367232 12.8485 1.10169C13.5827 1.46893 13.9498 2.20339 13.9498 2.93785C13.9498 4.03955 13.2156 4.77401 12.1143 4.77401C11.7472 4.77401 11.3801 4.77401 10.6459 4.40678C10.6459 4.03955 9.54457 3.67232 8.44327 3.67232C5.87358 3.67232 4.77228 5.50847 4.77228 6.9774C4.77228 9.18079 6.24068 9.54802 8.81037 10.6497C11.3801 11.7514 15.4182 13.2203 15.4182 17.9944C15.4182 22.4011 12.1143 25.339 6.97488 25.339ZM12.4814 14.6893C13.2156 15.4237 13.5827 16.5254 13.5827 17.9944C13.5827 19.096 13.2156 19.8305 12.8485 20.565C13.2156 19.8305 13.5827 19.096 13.5827 17.9944C13.5827 16.5254 13.2156 15.4237 12.4814 14.6893ZM3.67099 4.03955C2.93679 5.14124 2.56969 5.87571 2.56969 6.9774C2.56969 8.44633 2.93679 9.18079 3.67099 9.91525C2.93679 9.18079 2.56969 8.0791 2.56969 6.9774C2.56969 5.87571 2.93679 4.77401 3.67099 4.03955ZM12.1143 2.57062C12.4814 2.57062 12.4814 2.57062 12.1143 2.57062L12.4814 1.83616L12.1143 2.57062Z" fill="black"></path><path d="M23.1279 12.4858C23.1279 5.87562 27.5331 0.734375 34.8751 0.734375C37.4448 0.734375 39.6474 1.46884 40.7487 2.2033C41.1158 2.57053 41.4829 2.93777 41.4829 2.93777C41.4829 3.305 41.1158 3.67223 40.7487 3.67223C40.3816 3.67223 40.3816 3.67223 40.0145 3.305C38.179 2.2033 35.9764 2.2033 35.2422 2.2033C29.3686 2.2033 25.3305 6.61008 25.3305 12.1186C25.3305 16.8926 28.6344 22.0338 35.6093 22.0338C37.8119 22.0338 38.9132 21.6666 40.3816 20.9321L41.4829 20.5649C41.85 20.5649 42.2171 20.9321 42.2171 21.2994C42.2171 21.6666 41.85 22.0338 41.4829 22.0338C39.2803 23.1355 36.7106 23.5027 35.2422 23.5027C27.5331 24.2372 23.1279 18.7287 23.1279 12.4858Z" fill="black"></path><path d="M35.2415 25.3389C27.5325 25.3389 22.3931 20.1977 22.3931 12.8531C22.3931 5.50843 27.8996 0.367188 35.2415 0.367188C37.8112 0.367188 40.0138 1.10165 41.8493 1.83611C42.5835 2.20335 42.9506 2.93781 42.9506 3.30504C42.9506 4.40674 42.2164 5.1412 41.1151 5.1412C40.748 5.1412 40.3809 5.1412 40.0138 4.77397C37.8112 3.67227 35.9757 3.67227 35.2415 3.67227C29.735 3.67227 26.0641 7.34459 26.0641 12.4858C26.0641 16.8926 29.0008 21.6666 35.2415 21.6666C37.4441 21.6666 38.5454 21.2994 39.6467 20.9322C40.748 20.5649 40.748 20.5649 41.1151 20.5649C41.8493 20.5649 42.9506 21.2994 42.9506 22.4011C42.9506 22.7683 42.5835 23.5028 41.8493 24.2372C39.2796 24.9717 36.7099 25.3389 35.2415 25.3389ZM27.1654 4.77397C25.3299 6.61012 24.2286 9.54798 24.2286 12.4858C24.2286 15.0565 24.9628 17.6271 26.7983 19.8305C24.9628 17.6271 24.2286 15.0565 24.2286 12.4858C24.2286 9.54798 25.3299 6.97736 27.1654 4.77397Z" fill="black"></path><path d="M64.6099 22.401C64.977 22.7682 64.977 22.7682 64.977 23.1355C64.977 23.5027 64.6099 23.8699 63.8757 23.8699C63.5086 23.8699 63.1415 23.5027 63.1415 23.1355L55.4324 12.853H52.8627V22.7682C52.8627 23.5027 52.1286 23.8699 51.7615 23.8699C51.0273 23.8699 50.6602 23.5027 50.6602 22.7682V4.03942C50.6602 2.93772 50.6602 1.10156 53.2298 1.10156H57.2679C62.0402 1.10156 63.8757 3.67218 63.8757 7.3445C63.8757 9.91512 62.4073 13.2202 57.2679 13.5874L64.6099 22.401ZM56.5337 11.7513C58.0021 11.7513 62.4073 11.7513 62.4073 7.3445C62.4073 2.93772 58.3692 2.93772 56.5337 2.93772H53.964C53.2298 2.93772 52.8627 3.30495 52.8627 4.03942V11.7513H56.5337Z" fill="black"></path><path d="M63.8756 25.3389C63.1414 25.3389 62.7743 24.6045 62.4072 24.2372L55.0653 14.322H53.964V23.1355C53.964 24.2372 52.8627 24.9717 52.1285 24.9717C51.0272 24.9717 50.293 24.2372 50.293 23.1355V4.0395C50.293 1.46888 51.3943 0.367188 53.5969 0.367188H57.6349C63.1414 0.367188 65.344 4.0395 65.344 7.34459C65.344 10.2824 63.8756 13.5875 59.4704 14.322L65.344 22.0339L64.6098 22.7683L65.344 22.0339C65.7111 22.4011 66.0782 22.7683 66.0782 23.5028C65.7111 24.6045 64.9769 25.3389 63.8756 25.3389ZM52.8627 2.20335C52.1285 2.57058 51.7614 2.93781 51.7614 4.0395V23.1355V4.0395C51.7614 3.30504 52.1285 2.57058 52.8627 2.20335ZM63.8756 23.1355L64.6098 22.7683L63.8756 23.1355ZM53.5969 11.0169H56.5336C58.7362 11.0169 61.3059 10.6497 61.3059 7.34459C61.3059 4.40674 59.4704 4.0395 56.5336 4.0395H53.964C53.964 4.0395 53.964 4.0395 53.5969 4.0395C53.5969 4.0395 53.5969 4.0395 53.5969 4.40674V11.0169ZM62.7743 5.1412C63.1414 5.87566 63.1414 6.61013 63.1414 7.34459C63.1414 7.71182 63.1414 8.44628 63.1414 8.81352C63.1414 8.07905 63.5085 7.71182 63.5085 7.34459C63.1414 6.61013 63.1414 5.87566 62.7743 5.1412Z" fill="black"></path><path d="M84.0665 1.10181C90.6743 1.10181 95.8137 5.87582 95.8137 12.8532C95.8137 19.8306 90.6743 24.6046 84.0665 24.6046C77.4587 24.6046 72.3193 19.8306 72.3193 12.8532C72.3193 5.87582 77.4587 1.10181 84.0665 1.10181ZM84.0665 22.4012C89.573 22.4012 93.9782 17.9945 93.9782 12.486C93.9782 6.97751 89.573 2.57073 84.0665 2.57073C78.56 2.57073 74.1548 6.97751 74.1548 12.486C74.1548 17.9945 78.56 22.4012 84.0665 22.4012Z" fill="black"></path><path d="M84.0658 25.339C76.7239 25.339 71.5845 19.8305 71.5845 12.8531C71.5845 5.87571 77.091 0 84.0658 0C91.0407 0 96.5472 5.50847 96.5472 12.4859C96.5472 19.4633 91.4078 25.339 84.0658 25.339ZM89.9394 3.67232C92.8762 5.50847 94.7117 8.81356 94.7117 12.8531C94.7117 16.8927 92.8762 19.8305 89.9394 22.0339C92.8762 20.1977 94.7117 16.8927 94.7117 12.8531C94.7117 8.81356 92.8762 5.50847 89.9394 3.67232ZM78.1922 3.67232C75.2555 5.50847 73.42 8.81356 73.42 12.4859C73.42 16.1582 75.2555 19.8305 78.1922 21.6667C75.2555 19.8305 73.42 16.5254 73.42 12.4859C73.42 8.44633 75.2555 5.50847 78.1922 3.67232ZM84.0658 3.67232C78.9264 3.67232 75.2555 7.71186 75.2555 12.8531C75.2555 17.9943 78.9264 22.0339 84.0658 22.0339C89.2052 22.0339 92.8762 17.9943 92.8762 12.8531C92.8762 7.71186 89.2052 3.67232 84.0658 3.67232Z" fill="black"></path><path d="M107.56 23.87C104.99 23.87 104.99 22.0338 104.99 20.9321V1.83607C104.99 1.10161 105.357 0.734375 106.092 0.734375C106.826 0.734375 107.193 1.10161 107.193 1.83607V20.9321C106.826 22.0338 107.193 22.0338 108.294 22.0338H115.269C116.003 22.0338 116.003 22.401 116.003 22.7683C116.003 23.1355 115.636 23.5027 115.269 23.5027H107.56V23.87Z" fill="black"></path><path d="M115.269 24.6045H107.927C105.724 24.6045 104.623 23.5028 104.623 20.9322V1.83616C104.623 0.734463 105.724 0 106.459 0C107.56 0 108.294 0.734463 108.294 1.83616V20.9322C108.294 20.9322 108.294 20.9322 108.294 21.2994C108.294 21.2994 108.294 21.2994 108.661 21.2994H115.636C116.737 21.2994 117.472 22.0339 117.472 23.1356C116.737 23.8701 116.003 24.6045 115.269 24.6045ZM106.091 1.83616V20.9322C106.091 22.0339 106.091 22.7684 107.193 22.7684C106.459 22.4011 106.091 22.0339 106.091 20.9322V1.83616Z" fill="black"></path><path d="M127.017 23.87C124.448 23.87 124.448 22.0338 124.448 20.9321V1.83607C124.448 1.10161 124.815 0.734375 125.549 0.734375C126.283 0.734375 126.65 1.10161 126.65 1.83607V20.9321C126.283 22.0338 126.65 22.0338 127.385 22.0338H134.359C135.094 22.0338 135.094 22.401 135.094 22.7683C135.094 23.1355 134.727 23.5027 134.359 23.5027H127.017V23.87Z" fill="black"></path><path d="M134.359 24.6045H127.017C124.814 24.6045 123.713 23.5028 123.713 20.9322V1.83616C123.713 0.734463 124.814 0 125.548 0C126.65 0 127.384 0.734463 127.384 1.83616V20.9322C127.384 20.9322 127.384 20.9322 127.384 21.2994C127.384 21.2994 127.384 21.2994 127.751 21.2994H134.726C135.827 21.2994 136.561 22.0339 136.561 23.1356C136.194 23.8701 135.46 24.6045 134.359 24.6045ZM125.548 1.83616V20.9322C125.548 22.0339 125.548 22.7684 126.65 22.7684C125.915 22.4011 125.548 22.0339 125.548 20.9322V1.83616Z" fill="black"></path></svg> 