<?xml version="1.0" encoding="UTF-8"?> <svg xmlns="http://www.w3.org/2000/svg" width="213" height="141" viewBox="0 0 213 141" fill="none"><path d="M51.9324 3.18066H5.8291V135.711H51.9324V3.18066Z" fill="#C3B68F"></path><path d="M92.4715 71.8307C92.4715 72.6259 91.9416 73.156 91.1467 73.156H34.9748C34.1799 73.156 33.65 72.6259 33.65 71.8307C33.65 71.0355 34.1799 70.5054 34.9748 70.5054H91.1467C91.9416 70.5054 92.4715 71.0355 92.4715 71.8307Z" fill="black"></path><path d="M91.1467 74.4814H34.9748C33.385 74.4814 32.3252 73.4211 32.3252 71.8308C32.3252 70.2404 33.385 69.1802 34.9748 69.1802H91.1467C92.7365 69.1802 93.7963 70.2404 93.7963 71.8308C93.7963 73.4211 92.4715 74.4814 91.1467 74.4814ZM91.1467 71.8308H92.4715H91.1467Z" fill="black"></path><path d="M82.4028 82.4333L80.813 80.5779L90.0866 71.8309L80.813 63.0839L82.4028 61.2285L94.0611 71.8309L82.4028 82.4333Z" fill="black"></path><path d="M82.4029 84.2887L78.9584 80.3128L88.232 71.8309L78.9584 63.0839L82.4029 59.373L95.9159 71.8309L82.4029 84.2887Z" fill="black"></path><path d="M19.0772 0H193.422C204.021 0 212.499 8.48193 212.499 19.0843V121.663C212.499 132.265 204.021 140.747 193.422 140.747H19.0772C8.47878 140.747 0 132.265 0 121.663V19.0843C0 8.48193 8.47878 0 19.0772 0ZM193.422 132.53C199.516 132.53 204.55 127.494 204.55 121.398V19.0843C204.55 12.988 199.516 7.95181 193.422 7.95181H19.0772C12.9831 7.95181 7.94885 12.988 7.94885 19.0843V121.663C7.94885 127.759 12.9831 132.795 19.0772 132.795H193.422V132.53Z" fill="black"></path></svg> 