<?xml version="1.0" encoding="UTF-8"?> <svg xmlns="http://www.w3.org/2000/svg" width="213" height="198" viewBox="0 0 213 198" fill="none"><path d="M205.558 165.824V119.704L8.95619 119.704V165.824L205.558 165.824Z" fill="#C3B68F"></path><path d="M107.281 194.554C106.486 194.554 105.956 194.024 105.956 193.229V137.036C105.956 136.241 106.486 135.71 107.281 135.71C108.075 135.71 108.605 136.241 108.605 137.036V193.229C108.605 194.024 107.81 194.554 107.281 194.554Z" fill="black"></path><path d="M107.28 195.879C105.691 195.879 104.631 194.819 104.631 193.229V137.036C104.631 135.445 105.691 134.385 107.28 134.385C108.87 134.385 109.93 135.445 109.93 137.036V193.229C109.93 194.554 108.605 195.879 107.28 195.879ZM107.28 193.229V194.554V193.229Z" fill="black"></path><path d="M96.417 184.482L98.5367 182.892L107.28 192.169L115.759 182.892L117.879 184.482L107.28 196.145L96.417 184.482Z" fill="black"></path><path d="M107.28 198L94.5623 184.482L98.5367 181.036L107.28 190.313L115.759 181.036L119.734 184.482L107.28 198Z" fill="black"></path><path d="M8.44043 32.6163L8.44043 78.7368L205.042 78.7368V32.6163L8.44043 32.6163Z" fill="#C3B68F"></path><path d="M107.281 3.4458C108.075 3.4458 108.605 3.97592 108.605 4.7711V60.9639C108.605 61.7591 108.075 62.2892 107.281 62.2892C106.486 62.2892 105.956 61.7591 105.956 60.9639V4.7711C105.956 3.97592 106.486 3.4458 107.281 3.4458Z" fill="black"></path><path d="M107.28 63.6146C105.691 63.6146 104.631 62.5544 104.631 60.964V4.77121C104.631 3.18085 105.691 2.12061 107.28 2.12061C108.87 2.12061 109.93 3.18085 109.93 4.77121V60.964C109.93 62.2893 108.87 63.6146 107.28 63.6146ZM107.28 3.44591V4.77121V3.44591Z" fill="black"></path><path d="M117.879 13.2531L116.024 15.1085L107.28 5.83137L98.5366 15.1085L96.6819 13.2531L107.28 1.85547L117.879 13.2531Z" fill="black"></path><path d="M116.024 16.9639L107.281 7.68675L98.8018 16.9639L94.8274 13.5181L107.281 0L119.734 13.5181L116.024 16.9639Z" fill="black"></path><path d="M19.5779 28.8916H193.923C204.521 28.8916 213 37.3735 213 47.9759V150.554C213 161.157 204.521 169.639 193.923 169.639H19.5779C8.97946 169.639 0.500732 161.157 0.500732 150.554V47.9759C0.500732 37.3735 8.97946 28.8916 19.5779 28.8916ZM193.923 161.422C200.017 161.422 205.051 156.386 205.051 150.289V47.9759C205.051 41.8796 200.017 36.8434 193.923 36.8434H19.5779C13.4838 36.8434 8.44959 41.8796 8.44959 47.9759V150.554C8.44959 156.651 13.4838 161.687 19.5779 161.687H193.923V161.422Z" fill="black"></path></svg> 