<?xml version="1.0" encoding="UTF-8"?> <svg xmlns="http://www.w3.org/2000/svg" width="214" height="142" viewBox="0 0 214 142" fill="none"><path d="M161.576 138.23H207.997L207.997 4.89665H161.576V138.23Z" fill="#C3B68F"></path><path d="M120.89 69.3333C120.89 68.5333 121.424 68 122.224 68H178.784C179.584 68 180.118 68.5333 180.118 69.3333C180.118 70.1333 179.584 70.6667 178.784 70.6667H122.224C121.424 70.6667 120.89 69.8667 120.89 69.3333Z" fill="black"></path><path d="M178.784 71.9998H122.224C120.623 71.9998 119.556 70.9332 119.556 69.3332C119.556 67.7332 120.623 66.6665 122.224 66.6665H178.784C180.385 66.6665 181.452 67.7332 181.452 69.3332C181.452 70.9332 180.118 71.9998 178.784 71.9998ZM120.89 69.3332H122.224H120.89Z" fill="black"></path><path d="M130.761 58.6665L132.629 60.5332L123.291 69.3332L132.629 77.8665L130.761 79.9998L119.289 69.3332L130.761 58.6665Z" fill="black"></path><path d="M131.028 81.8665L117.422 69.3332L131.028 56.5332L134.496 60.5332L125.159 69.3332L134.496 77.8665L131.028 81.8665Z" fill="black"></path><path d="M194.791 141.333H19.2429C8.57127 141.333 0.0339355 132.8 0.0339355 122.133V19.2C0.0339355 8.53333 8.57127 0 19.2429 0H194.791C205.463 0 214 8.53333 214 19.2V122.4C214 132.8 205.463 141.333 194.791 141.333ZM19.2429 8C13.1067 8 8.03765 13.0667 8.03765 19.2V122.4C8.03765 128.533 13.1067 133.6 19.2429 133.6H194.791C200.927 133.6 205.996 128.533 205.996 122.4V19.2C205.996 13.0667 200.927 8 194.791 8H19.2429V8Z" fill="black"></path></svg> 