<?xml version="1.0" encoding="UTF-8"?> <svg xmlns="http://www.w3.org/2000/svg" width="214" height="142" viewBox="0 0 214 142" fill="none"><path d="M205.951 54.5001V8.1001L7.99246 8.1001V54.5001L205.951 54.5001Z" fill="#C3B68F"></path><path d="M194.757 141.333H19.2089C8.5373 141.333 0 132.8 0 122.133V19.2C0 8.53333 8.5373 0 19.2089 0H194.757C205.429 0 213.966 8.53333 213.966 19.2V122.4C213.966 132.8 205.162 141.333 194.757 141.333ZM19.2089 8C13.0727 8 8.00372 13.0667 8.00372 19.2V122.4C8.00372 128.533 13.0727 133.333 19.2089 133.333H194.757C200.893 133.333 205.962 128.267 205.962 122.133V19.2C205.962 13.0667 200.893 8 194.757 8H19.2089Z" fill="black"></path><path d="M106.183 100.267C105.382 100.267 104.849 99.7336 104.849 98.9336V42.4002C104.849 41.6002 105.382 41.0669 106.183 41.0669C106.983 41.0669 107.517 41.6002 107.517 42.4002V98.9336C107.517 99.7336 106.983 100.267 106.183 100.267Z" fill="black"></path><path d="M106.183 101.6C104.582 101.6 103.515 100.533 103.515 98.9334V42.4001C103.515 40.8001 104.582 39.7334 106.183 39.7334C107.783 39.7334 108.85 40.8001 108.85 42.4001V98.9334C108.85 100.267 107.783 101.6 106.183 101.6ZM106.183 98.9334V100.267V98.9334Z" fill="black"></path><path d="M95.5109 90.1332L97.3784 88.5332L106.182 97.8665L114.987 88.5332L116.854 90.1332L106.182 101.6L95.5109 90.1332Z" fill="black"></path><path d="M106.183 103.733L93.6434 90.1332L97.6453 86.6665L106.183 95.9998L114.987 86.6665L118.722 90.1332L106.183 103.733Z" fill="black"></path></svg> 