<?xml version="1.0" encoding="UTF-8"?> <svg xmlns="http://www.w3.org/2000/svg" width="254" height="102" viewBox="0 0 254 102" fill="none"><path d="M140.49 26.2838C140.49 26.2838 140.211 26.2838 140.49 26.2838C139.654 26.2838 139.098 25.4486 139.098 24.8918C139.098 24.8918 139.098 24.335 139.376 23.2215C139.654 22.3863 140.211 22.108 141.046 22.108C141.881 22.3864 142.16 22.9431 142.16 23.7782C141.881 24.335 141.882 24.8918 141.882 24.8918C141.603 25.727 141.046 26.2838 140.49 26.2838Z" fill="black"></path><path d="M144.387 17.9323C144.109 17.9323 143.83 17.9322 143.552 17.6538C142.995 17.0971 142.995 16.2619 143.552 15.7051C144.109 14.8699 144.944 14.3132 145.779 13.7565C146.336 13.1997 147.171 13.478 147.728 14.0348C148.285 14.5915 148.006 15.4267 147.449 15.9835C146.893 16.5403 146.057 17.0971 145.501 17.6538C145.222 17.6538 144.944 17.9323 144.387 17.9323Z" fill="black"></path><path d="M204.241 29.3458C203.684 29.3458 203.127 29.0675 202.849 28.5107C202.571 27.6756 202.292 26.8404 201.735 26.0053C201.457 25.4485 201.735 24.6134 202.292 24.0566C202.849 23.7782 203.684 24.0566 204.241 24.6134C204.798 25.4485 205.076 26.2837 205.354 27.1188C205.633 27.954 205.354 28.5107 204.519 28.7891C204.519 29.3459 204.241 29.3458 204.241 29.3458ZM198.116 20.1593C197.838 20.1593 197.281 20.1593 197.281 19.8809C196.724 19.3241 195.889 18.7673 195.332 18.2106C194.776 17.6538 194.497 16.8187 195.054 16.2619C195.611 15.7052 196.446 15.4268 197.003 15.9835C197.838 16.5403 198.395 17.3755 199.23 17.9322C199.787 18.489 199.787 19.3241 199.23 19.8809C198.673 20.1593 198.395 20.1593 198.116 20.1593ZM188.93 14.3132C188.651 14.3132 188.651 14.3132 188.373 14.3132C187.538 14.0349 186.702 13.7565 185.867 13.4781C185.032 13.1997 184.754 12.3646 185.032 11.8078C185.31 10.9727 186.146 10.6943 186.702 10.9727C187.538 11.2511 188.651 11.5295 189.486 12.0862C190.321 12.3646 190.6 13.1997 190.321 14.0348C190.043 14.0348 189.486 14.3132 188.93 14.3132ZM153.852 12.0862C153.296 12.0862 152.739 11.8078 152.461 11.251C152.182 10.4159 152.739 9.85918 153.296 9.5808C154.131 9.30242 154.966 9.02399 156.08 8.74561C156.915 8.46722 157.472 9.02397 157.75 9.85912C158.028 10.6943 157.472 11.251 156.636 11.5294C155.801 11.8078 154.966 12.0862 154.131 12.3646C154.131 12.0862 153.852 12.0862 153.852 12.0862ZM178.351 11.251C178.351 11.251 178.072 11.251 178.351 11.251C177.794 11.251 177.237 10.9727 176.959 10.9727L175.567 10.6943C174.732 10.6943 174.175 9.85915 174.453 9.02401C174.453 8.18886 175.288 7.63211 176.124 7.9105L177.516 8.18889C178.072 8.18889 178.351 8.18883 178.907 8.46721C179.743 8.46721 180.299 9.30237 180.021 10.1375C179.464 10.6943 178.907 11.251 178.351 11.251ZM164.71 10.1375C163.874 10.1375 163.318 9.58075 163.318 8.74561C163.318 7.91046 163.874 7.3537 164.71 7.3537C165.266 7.3537 166.102 7.3537 166.658 7.3537H167.494C168.329 7.3537 168.885 7.91046 168.885 8.74561C168.885 9.58075 168.329 10.1375 167.494 10.1375H166.658C165.823 10.1375 165.266 10.1375 164.71 10.1375Z" fill="black"></path><path d="M206.189 38.811C205.354 38.811 204.797 38.2542 204.797 37.4191C204.797 36.8623 204.797 36.5839 204.797 36.0272C204.797 35.192 205.354 34.6353 205.911 34.3569C206.746 34.3569 207.303 34.9136 207.581 35.4704C207.581 36.0271 207.581 36.3055 207.581 36.8623C207.581 38.2542 207.024 38.811 206.189 38.811Z" fill="black"></path><path d="M196.724 34.0784L204.798 50.503L215.098 35.4703L196.724 34.0784Z" fill="black"></path><path d="M16.0496 12.6429V2.89952C16.0496 2.06438 16.6064 1.78601 17.1632 1.78601C17.72 1.78601 18.2767 2.06438 18.2767 2.89952V26.0053C18.2767 26.8405 17.72 27.1188 17.1632 27.1188C16.6064 27.1188 16.0496 26.8405 16.0496 26.0053V14.5916H2.6869V26.0053C2.6869 26.8405 2.13005 27.1188 1.57326 27.1188C1.01648 27.1188 0.459717 26.8405 0.459717 26.0053V2.89952C0.459717 2.06438 1.01648 1.78601 1.57326 1.78601C2.13005 1.78601 2.6869 2.06438 2.6869 2.89952V12.6429H16.0496Z" fill="black"></path><path d="M17.163 27.6756C16.0494 27.6756 15.2143 26.8404 15.2143 25.7269V15.4267H4.07869V25.7269C4.07869 27.1188 2.96509 27.6756 2.12992 27.6756C1.01636 27.6756 0.181152 26.8404 0.181152 25.7269V2.62125C0.181152 1.22934 1.29475 0.672546 2.12992 0.672546C3.24348 0.672546 4.07869 1.50773 4.07869 2.62125V11.251H15.2143V2.62125C15.2143 1.22934 16.3278 0.672546 17.163 0.672546C18.2766 0.672546 19.1118 1.50773 19.1118 2.62125V25.7269C19.1118 27.1188 18.2766 27.6756 17.163 27.6756Z" fill="black"></path><path d="M38.0424 1.78601C45.0021 1.78601 50.5699 7.07528 50.5699 14.3132C50.5699 21.5512 45.2805 26.8405 38.0424 26.8405C31.0827 26.8405 25.5149 21.5512 25.5149 14.3132C25.5149 7.07528 31.0827 1.78601 38.0424 1.78601ZM38.0424 24.8918C43.8886 24.8918 48.6212 20.1593 48.6212 14.3132C48.6212 8.4672 44.1669 3.73472 38.0424 3.73472C32.1962 3.73472 27.4636 8.4672 27.4636 14.3132C27.4636 20.1593 32.1962 24.8918 38.0424 24.8918Z" fill="black"></path><path d="M38.0424 27.6756C30.2475 27.6756 24.6797 21.8295 24.6797 14.0348C24.6797 6.24016 30.5259 0.394165 38.0424 0.394165C45.559 0.394165 51.4052 6.24016 51.4052 14.0348C51.4052 21.8295 45.8373 27.6756 38.0424 27.6756ZM38.0424 4.56989C32.753 4.56989 28.5771 8.74561 28.5771 14.3132C28.5771 19.8809 32.753 24.0566 38.0424 24.0566C43.3318 24.0566 47.5077 19.8809 47.5077 14.3132C47.5077 8.74561 43.3318 4.56989 38.0424 4.56989Z" fill="black"></path><path d="M77.5737 3.73472C78.1305 2.06443 78.4089 1.78601 79.8008 1.78601C81.4712 1.78601 81.4712 3.17798 81.7496 4.01312L84.8119 25.4485C84.8119 26.0053 84.8119 26.0053 84.8119 26.0053C84.8119 26.5621 84.5334 26.8405 83.6983 26.8405C82.8631 26.8405 82.8631 26.2837 82.5847 25.7269L79.5224 3.73472L72.2844 25.4485C72.006 26.0053 71.7276 26.8405 70.614 26.8405C69.222 26.8405 69.222 26.2837 68.6652 25.4485L61.4271 3.73472L58.3649 25.7269C58.3649 26.2837 58.0864 26.8405 57.2512 26.8405C56.6945 26.8405 56.1377 26.2837 56.1377 26.0053C56.1377 26.0053 56.1377 25.7269 56.1377 25.4485L59.2 4.01312C59.2 3.17798 59.4784 1.78601 61.1488 1.78601C62.5407 1.78601 62.8191 2.34281 63.3758 3.73472L70.3356 24.8918L77.5737 3.73472Z" fill="black"></path><path d="M70.6141 28.2324L70.3357 27.6756C68.6654 27.6756 68.1086 26.5621 67.8302 25.4485L61.984 7.91051L59.4785 25.7269C59.2001 27.1189 58.6433 27.6756 57.5297 27.6756C56.1378 27.6756 55.5811 26.8405 55.5811 25.7269C55.5811 25.4486 55.5811 25.4486 55.5811 24.8918L58.6433 3.45638C58.6433 2.62124 59.2001 0.394165 61.7056 0.394165C63.6543 0.394165 64.2111 1.50769 64.7679 3.17798L70.8925 21.2728L77.0171 3.17798C77.5738 1.50769 78.1306 0.394165 80.0794 0.394165C82.5849 0.394165 82.8633 2.62124 83.1417 3.45638L86.204 24.8918C86.204 25.4486 86.204 25.4486 86.204 25.7269C86.204 26.5621 85.3688 27.6756 84.2552 27.6756C83.1417 27.6756 82.3064 27.1189 82.3064 25.7269L79.801 8.18891L73.9547 25.7269C73.6764 26.2837 73.398 27.954 71.4492 27.954L70.6141 28.2324ZM78.9658 3.17798H80.6362C80.3578 2.62122 80.3577 2.62127 79.801 2.62127C79.2442 2.89965 78.9658 2.8996 78.9658 3.17798ZM61.4272 2.89959C61.1488 2.89959 60.8704 2.89962 60.592 3.45638H62.2624C61.984 2.89962 61.984 2.89959 61.4272 2.89959Z" fill="black"></path><path d="M103.743 12.9213C104.578 12.9213 104.578 13.4781 104.578 13.7565C104.578 14.3133 104.299 14.5916 103.743 14.5916H93.4422V23.2215C93.4422 24.335 93.7206 24.335 94.5558 24.335H105.135C105.97 24.335 105.97 24.8917 105.97 25.1701C105.97 25.7269 105.691 26.0053 105.135 26.0053H93.999C91.2151 26.0053 91.2151 24.0566 91.2151 22.9431V5.12667C91.2151 4.01314 91.2151 2.06445 93.999 2.06445H104.856C105.691 2.06445 105.691 2.62118 105.691 2.89956C105.691 3.45633 105.413 3.73476 104.856 3.73476H94.5558C93.7206 3.73476 93.4422 4.01313 93.4422 4.84827V12.3646H103.743V12.9213Z" fill="black"></path><path d="M105.413 27.3973H94.2773C92.607 27.3973 90.3799 26.5621 90.3799 23.2215V5.40505C90.3799 2.62122 91.7718 1.22931 94.2773 1.22931H105.134C106.526 1.22931 107.083 2.34279 107.083 3.17794C107.083 4.29147 106.248 5.12665 105.134 5.12665H94.834C94.834 5.12665 94.8341 5.12665 94.5557 5.12665C94.5557 5.12665 94.5557 5.12667 94.5557 5.40505V12.0862H104.021C105.135 12.0862 105.97 12.9213 105.97 14.0349C105.97 15.1484 105.135 15.9836 104.021 15.9836H94.5557V23.4999C94.5557 23.4999 94.5557 23.4999 94.5557 23.7783C94.5557 23.7783 94.5557 23.7783 94.834 23.7783H105.413C106.805 23.7783 107.362 24.6134 107.362 25.727C107.362 26.5621 106.526 27.3973 105.413 27.3973ZM92.8854 3.73474C92.607 3.73474 92.607 4.01307 92.607 4.29145C92.607 4.01307 92.8854 3.73474 92.8854 3.73474Z" fill="black"></path><path d="M171.67 75.2789C171.67 75.0005 171.67 74.4438 172.505 74.4438C173.34 74.4438 173.34 74.7221 173.34 75.2789V80.8466H184.197C184.476 80.8466 185.032 80.8466 185.032 81.6818C185.032 82.5169 184.476 82.5169 184.197 82.5169H173.34V96.7144C173.34 100.055 172.226 100.612 168.329 100.612C168.051 100.612 167.215 100.612 167.215 99.7766C167.215 98.9415 167.772 98.9414 168.329 98.9414C171.113 98.9414 171.67 98.9415 171.67 96.9928V82.7953H160.256C159.977 82.7953 159.42 82.7953 159.42 81.9602C159.42 81.125 159.977 81.125 160.256 81.125H171.67V75.2789ZM159.42 96.1576C159.42 95.8792 159.42 95.6009 159.977 95.0441C161.369 93.3738 163.318 90.8684 164.988 88.0845C165.545 86.6926 165.823 86.6926 166.38 86.6926C166.937 86.6926 167.494 87.2494 167.494 87.5278C167.494 88.0846 165.545 91.4251 163.039 94.7657C162.204 95.8792 161.369 96.9928 160.812 96.9928C159.977 97.2712 159.42 96.7144 159.42 96.1576ZM178.629 86.6926C178.908 86.6926 179.186 86.971 180.578 88.9197C181.97 91.1468 184.754 95.3225 184.754 95.8793C184.754 96.4361 184.197 96.7144 183.64 96.7144C183.084 96.7144 183.084 96.436 181.97 94.7657C180.3 91.9819 178.351 89.1981 177.794 88.3629C177.237 87.8062 177.237 87.5278 177.237 87.2494C177.794 86.971 178.351 86.6926 178.629 86.6926Z" fill="black"></path><path d="M168.329 101.447C166.38 101.447 166.102 100.055 166.102 99.4983C166.102 99.2199 166.102 97.5496 168.329 97.5496C169.164 97.5496 170.278 97.5497 170.556 97.2713C170.556 97.2713 170.556 96.9928 170.556 96.4361V83.3521H160.256C159.142 83.3521 158.307 82.517 158.307 81.4034C158.307 80.2899 159.142 79.4547 160.256 79.4547H170.556V75.0007C170.556 73.052 171.948 73.0519 172.505 73.0519C173.618 73.0519 174.453 73.8871 174.453 75.0007V79.4547H184.197C185.311 79.4547 186.146 80.2899 186.146 81.4034C186.146 82.517 185.311 83.3521 184.197 83.3521H174.453V96.4361C174.453 100.89 172.783 101.447 168.329 101.447ZM160.256 98.1064C159.142 98.1064 158.307 97.2712 158.307 96.1577C158.307 95.3225 158.585 95.0442 159.142 94.4875C160.256 93.0955 162.483 90.59 163.875 87.8062C164.431 86.6927 164.988 85.8576 166.102 85.8576C167.215 85.8576 168.05 86.6927 168.05 87.8062C168.05 88.9197 165.823 92.8172 163.318 95.8794C162.204 96.9929 161.369 98.1064 160.256 98.1064ZM183.919 97.828C182.805 97.828 182.527 97.2712 181.413 95.3226C179.743 92.5387 177.794 89.7549 177.516 89.1981C176.959 88.363 176.681 88.0846 176.681 87.5279C176.681 86.4143 177.794 85.5792 178.629 85.5792C179.743 85.5792 180.3 86.4143 181.692 88.363C182.248 88.9198 186.146 94.4875 186.146 95.8794C186.146 96.9929 185.032 97.828 183.919 97.828Z" fill="black"></path><path d="M218.161 86.6927C218.439 86.6927 218.996 86.6927 218.996 87.5279C218.996 88.363 218.439 88.363 218.161 88.363H193.941C193.662 88.363 193.105 88.363 193.105 87.5279C193.105 86.6927 193.941 86.6927 193.941 86.6927H218.161Z" fill="black"></path><path d="M218.161 89.4765H193.941C192.827 89.4765 191.992 88.6414 191.992 87.5279C191.992 86.4143 192.827 85.5792 193.941 85.5792H218.161C219.274 85.5792 220.11 86.4143 220.11 87.5279C220.11 88.6414 219.274 89.4765 218.161 89.4765Z" fill="black"></path><path d="M230.41 96.436C233.194 89.4764 235.7 83.9088 238.205 76.6708C238.762 75.0005 238.762 75.0006 239.319 75.0006C239.597 75.0006 240.432 75.279 240.432 75.8357C240.432 76.3925 236.813 86.4142 232.637 96.436L247.949 94.4874C245.443 90.0332 244.051 88.0845 243.773 87.8061C243.495 87.2494 243.216 87.2494 243.216 86.6926C243.216 86.1358 243.773 85.8575 244.051 85.8575C244.608 85.8575 244.608 86.1358 245.165 86.6926C249.619 92.817 252.403 98.9414 252.403 99.4982C252.403 100.055 251.846 100.333 251.29 100.333C250.733 100.333 250.733 100.055 250.176 99.2198C249.619 98.1063 249.062 96.9928 248.506 95.8793L227.626 98.9414C227.348 98.9414 227.348 98.9414 227.07 98.9414C226.513 98.9414 226.234 98.3847 226.234 98.1063C226.234 97.2711 226.791 97.2712 227.07 97.2712L230.41 96.436Z" fill="black"></path><path d="M251.289 101.169C250.176 101.169 249.619 100.333 249.341 99.4983C249.062 98.6631 248.505 97.828 248.227 96.9928L227.348 100.055C226.234 100.055 225.399 99.2199 225.399 98.1064C225.399 97.2712 225.956 96.436 227.348 96.1576L230.132 95.8793C232.915 89.1982 235.143 83.9088 237.648 76.6709C238.205 75.0006 238.483 74.1655 239.875 74.1655C240.989 74.1655 242.102 75.0006 242.102 76.1142C242.102 77.2277 238.483 86.6927 234.864 95.3225L246.557 93.6522C245.443 91.9819 244.33 89.7549 243.216 88.363C242.938 87.8062 242.381 87.2494 242.381 86.6927C242.381 85.5791 243.494 84.744 244.33 84.744C245.443 84.744 245.722 85.3008 246.278 86.136C250.454 91.982 253.795 98.3847 253.795 99.4983C253.238 100.333 252.124 101.169 251.289 101.169ZM239.597 76.1142C239.597 75.8358 239.597 76.1142 239.597 76.1142V76.1142ZM239.318 75.0007V76.1142C239.318 75.8358 239.318 75.8358 239.318 75.8358V76.1142V75.0007Z" fill="black"></path></svg> 