<?xml version="1.0" encoding="UTF-8"?> <svg xmlns="http://www.w3.org/2000/svg" width="272" height="102" viewBox="0 0 272 102" fill="none"><path d="M140.905 26.6112C140.069 26.6112 139.513 25.776 139.513 25.2193C139.513 25.2193 139.513 24.6625 139.791 23.549C140.07 22.7138 140.626 22.4355 141.461 22.4355C142.297 22.7138 142.575 23.2706 142.575 24.1057C142.297 24.6625 142.297 25.2193 142.297 25.2193C142.297 26.0544 141.74 26.6112 140.905 26.6112Z" fill="black"></path><path d="M145.081 17.9813C144.802 17.9813 144.524 17.9813 144.245 17.7029C143.689 17.1462 143.689 16.311 144.245 15.7543C144.802 14.9191 145.637 14.3624 146.473 13.8056C147.029 13.2488 147.865 13.5272 148.421 14.084C148.978 14.6407 148.7 15.4759 148.143 16.0326C147.586 16.5894 146.751 17.1462 146.194 17.7029C145.916 17.9813 145.359 17.9813 145.081 17.9813Z" fill="black"></path><path d="M204.656 29.6734C204.099 29.6734 203.543 29.395 203.264 28.8382C202.986 28.0031 202.707 27.1679 202.151 26.3328C201.872 25.776 202.151 24.9409 202.707 24.3841C203.264 24.1057 204.099 24.3841 204.656 24.9409C205.213 25.776 205.491 26.6112 205.77 27.4463C206.048 28.2815 205.77 28.8382 204.934 29.1166C204.934 29.6734 204.934 29.6734 204.656 29.6734ZM198.531 20.4868C198.253 20.4868 197.696 20.4868 197.696 20.2084C197.14 19.6516 196.304 19.0949 195.748 18.5381C195.191 17.9813 194.912 17.1462 195.469 16.5894C196.026 16.0326 196.861 15.7543 197.418 16.311C198.253 16.8678 198.81 17.7029 199.645 18.2597C200.202 18.8165 200.202 19.6516 199.645 20.2084C199.367 20.4868 199.088 20.4868 198.531 20.4868ZM189.345 14.6407C189.066 14.6407 189.066 14.6407 188.788 14.6407C187.953 14.3624 187.118 14.084 186.282 13.8056C185.447 13.5272 185.169 12.6921 185.447 12.1353C185.726 11.3002 186.561 11.0218 187.118 11.3002C187.953 11.5785 189.066 11.8569 189.901 12.4137C190.737 12.6921 191.015 13.5272 190.737 14.3624C190.458 14.084 189.901 14.6407 189.345 14.6407ZM154.268 12.1353C153.711 12.1353 153.154 11.8569 152.876 11.3002C152.597 10.465 153.154 9.90824 153.711 9.62986C154.546 9.35148 155.381 9.07309 156.495 8.79471C157.33 8.51633 157.887 9.07309 158.165 9.90824C158.443 10.7434 157.887 11.3002 157.051 11.5785C156.216 11.8569 155.381 12.1353 154.546 12.4137C154.546 12.1353 154.546 12.1353 154.268 12.1353ZM178.766 11.5785C178.209 11.5785 177.652 11.3002 177.374 11.3002L175.982 11.0218C175.147 11.0218 174.59 10.1866 174.868 9.35148C174.868 8.51633 175.704 7.95956 176.539 8.23795L177.931 8.51633C178.487 8.51633 178.766 8.51633 179.323 8.79471C180.158 8.79471 180.715 9.62986 180.436 10.465C180.158 11.0218 179.601 11.5785 178.766 11.5785ZM165.125 10.465C164.29 10.465 163.733 9.90824 163.733 9.07309C163.733 8.23795 164.29 7.68118 165.125 7.68118C165.681 7.68118 166.517 7.68118 167.073 7.68118H167.909C168.744 7.68118 169.301 8.23795 169.301 9.07309C169.301 9.90824 168.744 10.465 167.909 10.465H167.073C166.517 10.465 165.681 10.465 165.125 10.465Z" fill="black"></path><path d="M206.605 39.1384C205.77 39.1384 205.213 38.5816 205.213 37.7465C205.213 37.1897 205.213 36.9113 205.213 36.3546C205.213 35.5194 205.77 34.9626 206.326 34.6843C207.162 34.6843 207.718 35.241 207.997 35.7978C207.997 36.3546 207.997 36.6329 207.997 37.1897C208.275 38.3032 207.718 39.1384 206.605 39.1384C206.883 39.1384 206.883 39.1384 206.605 39.1384Z" fill="black"></path><path d="M197.418 34.4059L205.491 50.8304L215.792 35.5194L197.418 34.4059Z" fill="black"></path><path d="M16.7427 12.6921V2.94867C16.7427 2.11353 17.2995 1.83514 17.8562 1.83514C18.413 1.83514 18.9698 2.11353 18.9698 2.94867V26.0544C18.9698 26.8895 18.413 27.1679 17.8562 27.1679C17.2995 27.1679 16.7427 26.8895 16.7427 26.0544V14.6407H3.37996V26.0544C3.37996 26.8895 2.82316 27.1679 2.26638 27.1679C1.7096 27.1679 1.15283 26.8895 1.15283 26.0544V2.94867C1.15283 2.11353 1.7096 1.83514 2.26638 1.83514C2.82316 1.83514 3.37996 2.11353 3.37996 2.94867V12.6921H16.7427Z" fill="black"></path><path d="M17.8561 28.0031C16.7425 28.0031 15.9073 27.1679 15.9073 26.0544V15.7543H4.77175V26.0544C4.77175 27.4463 3.6582 28.0031 2.82303 28.0031C1.70947 28.0031 0.874268 27.1679 0.874268 26.0544V2.94868C0.874268 1.55676 1.98786 1 2.82303 1C3.93659 1 4.77175 1.83515 4.77175 2.94868V11.5785H15.9073V2.94868C15.9073 1.55676 17.0209 1 17.8561 1C18.9696 1 19.8048 1.83515 19.8048 2.94868V26.0544C19.8048 27.4463 18.6912 28.0031 17.8561 28.0031Z" fill="black"></path><path d="M38.7353 2.11353C45.6951 2.11353 51.2628 7.40279 51.2628 14.6407C51.2628 21.8787 45.9734 27.1679 38.7353 27.1679C31.7756 27.1679 26.2078 21.8787 26.2078 14.6407C26.2078 7.40279 31.7756 2.11353 38.7353 2.11353ZM38.7353 25.2193C44.5815 25.2193 49.3141 20.4868 49.3141 14.6407C49.3141 8.7947 44.8599 4.0622 38.7353 4.0622C32.8891 4.0622 28.1565 8.7947 28.1565 14.6407C28.1565 20.4868 32.8891 25.2193 38.7353 25.2193Z" fill="black"></path><path d="M38.7353 28.0031C30.9404 28.0031 25.3726 22.1571 25.3726 14.3624C25.3726 6.56765 31.2188 0.721619 38.7353 0.721619C46.2518 0.721619 52.0981 6.56765 52.0981 14.3624C52.0981 22.1571 46.2518 28.0031 38.7353 28.0031ZM38.7353 4.89735C33.4459 4.89735 29.27 9.07309 29.27 14.6407C29.27 20.2084 33.4459 24.3841 38.7353 24.3841C44.0247 24.3841 48.2006 20.2084 48.2006 14.6407C48.2006 9.07309 44.0247 4.89735 38.7353 4.89735Z" fill="black"></path><path d="M77.9885 4.0622C78.5453 2.39191 78.8236 2.11353 80.2156 2.11353C81.8859 2.11353 81.886 3.50544 82.1644 4.34058L85.2266 25.776C85.2266 26.3328 85.2266 26.3328 85.2266 26.3328C85.2266 26.8895 84.9483 27.1679 84.1131 27.1679C83.2779 27.1679 83.2779 26.6112 82.9995 26.0544L80.2156 3.78382L72.9775 25.4976C72.6991 26.0544 72.4207 26.8895 71.3071 26.8895C70.1935 26.8895 69.9152 26.3328 69.3584 25.4976L62.1202 3.78382L59.0579 25.776C59.0579 26.3328 58.7795 26.8895 57.9444 26.8895C57.3876 26.8895 56.8308 26.3328 56.8308 26.0544C56.8308 26.0544 56.8308 25.776 56.8308 25.4976L59.8931 4.0622C59.8931 3.22706 60.1715 1.83514 61.8418 1.83514C63.2338 1.83514 63.5122 2.39191 64.069 3.78382L71.0287 24.9409L77.9885 4.0622Z" fill="black"></path><path d="M71.0287 28.5598L70.7503 28.0031C69.0799 28.0031 68.5232 26.8896 68.2448 25.776L62.3986 8.23794L59.8931 26.0544C59.6147 27.4463 59.0579 28.0031 57.9443 28.0031C56.5524 28.0031 55.9956 27.1679 55.9956 26.0544C55.9956 25.776 55.9956 25.776 55.9956 25.2193L59.0579 3.78382C59.0579 2.94868 59.6147 0.721619 62.1202 0.721619C64.0689 0.721619 64.6257 1.83515 65.1825 3.50544L71.307 21.6003L77.4316 3.50544C77.9884 1.83515 78.5452 0.721619 80.4939 0.721619C82.9994 0.721619 83.2778 2.94868 83.5562 3.78382L86.6184 25.2193C86.6184 25.776 86.6184 25.776 86.6184 26.0544C86.6184 26.8896 85.7833 28.0031 84.6697 28.0031C83.5562 28.0031 82.721 27.4463 82.721 26.0544L80.2155 8.51632L74.3693 26.0544C74.0909 26.6112 73.8125 28.2815 71.8638 28.2815L71.0287 28.5598ZM79.3803 3.50544H81.0506C80.7723 2.94868 80.7723 2.94868 80.2155 2.94868C79.6587 3.22706 79.6587 3.22706 79.3803 3.50544ZM61.8418 3.22706C61.5634 3.22706 61.285 3.22706 61.0066 3.78382H62.677C62.677 3.22706 62.3986 3.22706 61.8418 3.22706Z" fill="black"></path><path d="M104.435 13.2488C105.27 13.2488 105.27 13.8056 105.27 14.084C105.27 14.6407 104.992 14.9191 104.435 14.9191H94.1348V23.549C94.1348 24.6625 94.4132 24.6625 95.2484 24.6625H105.827C106.662 24.6625 106.662 25.2193 106.662 25.4976C106.662 26.0544 106.384 26.3328 105.827 26.3328H94.6916C91.9077 26.3328 91.9077 24.3841 91.9077 23.2706V5.45411C91.9077 4.34058 91.9077 2.39191 94.6916 2.39191H105.27C106.106 2.39191 106.106 2.94867 106.106 3.22705C106.106 3.78382 105.827 4.0622 105.27 4.0622H94.97C94.1348 4.0622 93.8564 4.34058 93.8564 5.17573V12.6921H104.435V13.2488Z" fill="black"></path><path d="M105.827 27.4463H94.6919C93.0216 27.4463 90.7944 26.6112 90.7944 23.2706V5.45412C90.7944 2.67029 92.1864 1.27838 94.6919 1.27838H105.271C106.663 1.27838 107.219 2.39191 107.219 3.22706C107.219 4.34059 106.384 5.17573 105.271 5.17573H94.9703C94.9703 5.17573 94.9703 5.17573 94.6919 5.17573C94.6919 5.17573 94.6919 5.17573 94.6919 5.45412V12.1353H104.157C105.271 12.1353 106.106 12.9704 106.106 14.084C106.106 15.1975 105.271 16.0326 104.157 16.0326H94.6919V23.549C94.6919 23.549 94.6919 23.549 94.6919 23.8273C94.6919 23.8273 94.6919 23.8273 94.9703 23.8273H105.549C106.941 23.8273 107.498 24.6625 107.498 25.776C107.776 26.6112 106.941 27.4463 105.827 27.4463ZM93.5783 3.78382C93.2999 3.78382 93.3 4.0622 93.3 4.34059C93.3 4.0622 93.2999 4.0622 93.5783 3.78382Z" fill="black"></path><path d="M175.425 85.9066V76.1632C175.425 75.3281 175.982 75.0497 176.539 75.0497C177.095 75.0497 177.652 75.3281 177.652 76.1632V99.2689C177.652 100.104 177.095 100.382 176.539 100.382C175.982 100.382 175.425 100.104 175.425 99.2689V87.8553H162.062V99.2689C162.062 100.104 161.506 100.382 160.949 100.382C160.392 100.382 159.835 100.104 159.835 99.2689V76.1632C159.835 75.3281 160.392 75.0497 160.949 75.0497C161.506 75.0497 162.062 75.3281 162.062 76.1632V85.9066H175.425Z" fill="black"></path><path d="M176.538 101.218C175.425 101.218 174.59 100.382 174.59 99.2689V88.9688H163.454V99.2689C163.454 100.661 162.341 101.218 161.505 101.218C160.392 101.218 159.557 100.382 159.557 99.2689V76.1632C159.557 74.7713 160.67 74.2145 161.505 74.2145C162.619 74.2145 163.454 75.0497 163.454 76.1632V84.7931H174.59V76.1632C174.59 74.7713 175.703 74.2145 176.538 74.2145C177.652 74.2145 178.487 75.0497 178.487 76.1632V99.2689C178.487 100.382 177.652 101.218 176.538 101.218Z" fill="black"></path><path d="M197.418 75.0497C204.377 75.0497 209.945 80.3389 209.945 87.5769C209.945 94.8148 204.656 100.104 197.418 100.104C190.458 100.104 184.89 94.8148 184.89 87.5769C184.89 80.3389 190.458 75.0497 197.418 75.0497ZM197.418 98.1554C203.264 98.1554 207.996 93.4229 207.996 87.5769C207.996 81.7309 203.542 76.9984 197.418 76.9984C191.571 76.9984 186.839 81.7309 186.839 87.5769C186.839 93.4229 191.571 98.1554 197.418 98.1554Z" fill="black"></path><path d="M197.418 101.218C189.623 101.218 184.055 95.3716 184.055 87.5769C184.055 79.7822 189.901 73.9362 197.418 73.9362C204.934 73.9362 210.78 79.7822 210.78 87.5769C210.78 95.3716 205.213 101.218 197.418 101.218ZM197.418 78.1119C192.128 78.1119 187.952 82.2876 187.952 87.8553C187.952 93.4229 192.128 97.5987 197.418 97.5987C202.707 97.5987 206.883 93.4229 206.883 87.8553C206.883 82.2876 202.707 78.1119 197.418 78.1119Z" fill="black"></path><path d="M236.949 77.2767C237.506 75.8848 237.784 75.3281 239.176 75.3281C240.846 75.3281 240.846 76.72 241.125 77.5551L244.187 98.9906C244.187 99.5473 244.187 99.5473 244.187 99.5473C244.187 100.104 243.908 100.382 243.073 100.382C242.238 100.382 242.238 99.8257 241.96 99.2689L238.897 77.2767L231.659 98.9906C231.381 99.5473 231.103 100.382 229.989 100.382C228.597 100.382 228.597 99.8257 228.04 98.9906L220.802 77.2767L217.74 99.2689C217.74 99.8257 217.461 100.382 216.626 100.382C216.069 100.382 215.513 99.8257 215.513 99.5473C215.513 99.5473 215.513 99.2689 215.513 98.9906L218.575 77.5551C218.575 76.72 218.853 75.3281 220.524 75.3281C221.916 75.3281 222.194 75.8848 222.751 77.2767L229.711 98.4338L236.949 77.2767Z" fill="black"></path><path d="M229.989 101.496L229.711 100.939C228.04 100.939 227.484 99.8257 227.205 98.7122L221.359 81.1741L218.854 98.9906C218.575 100.382 218.018 100.939 216.905 100.939C215.513 100.939 214.956 100.104 214.956 98.9906C214.956 98.7122 214.956 98.7122 214.956 98.1554L218.018 76.72C218.018 75.8848 218.575 73.6578 221.081 73.6578C223.029 73.6578 223.586 74.7713 224.143 76.4416L230.268 94.5364L236.392 76.4416C236.949 74.7713 237.506 73.6578 239.454 73.6578C241.96 73.6578 242.238 75.8848 242.517 76.72L245.579 98.1554C245.579 98.7122 245.579 98.7122 245.579 98.9906C245.579 99.8257 244.744 100.939 243.63 100.939C242.517 100.939 241.681 100.382 241.681 98.9906L239.176 81.4525L233.33 98.9906C233.051 99.5473 232.773 101.218 230.824 101.218L229.989 101.496ZM238.062 76.72H239.733C239.454 76.1632 239.454 76.1632 238.898 76.1632C238.619 76.1632 238.341 76.1632 238.062 76.72ZM220.802 76.1632C220.524 76.1632 220.245 76.1632 219.967 76.72H221.637C221.359 76.1632 221.081 76.1632 220.802 76.1632Z" fill="black"></path><path d="M263.118 86.185C263.953 86.185 263.953 86.7417 263.953 87.0201C263.953 87.5769 263.675 87.8553 263.118 87.8553H252.817V96.4851C252.817 97.5986 253.096 97.5986 253.931 97.5986H264.51C265.345 97.5986 265.345 98.1554 265.345 98.4338C265.345 98.9906 265.067 99.2689 264.51 99.2689H253.374C250.59 99.2689 250.59 97.3203 250.59 96.2067V78.3903C250.59 77.2767 250.59 75.3281 253.374 75.3281H264.231C265.067 75.3281 265.067 75.8848 265.067 76.1632C265.067 76.72 264.788 76.9984 264.231 76.9984H253.931C253.096 76.9984 252.817 77.2767 252.817 78.1119V85.6282H263.118V86.185Z" fill="black"></path><path d="M264.51 100.661H253.374C251.704 100.661 249.477 99.8257 249.477 96.4851V78.6687C249.477 75.8848 250.869 74.4929 253.374 74.4929H264.231C265.623 74.4929 266.18 75.6065 266.18 76.4416C266.18 77.5551 265.345 78.3903 264.231 78.3903H253.931C253.931 78.3903 253.931 78.3903 253.653 78.3903C253.653 78.3903 253.653 78.3903 253.653 78.6687V85.3498H263.118C264.232 85.3498 265.067 86.185 265.067 87.2985C265.067 88.412 264.232 89.2472 263.118 89.2472H253.653V96.7635C253.653 96.7635 253.653 96.7635 253.653 97.0419C253.653 97.0419 253.653 97.0419 253.931 97.0419H264.51C265.902 97.0419 266.459 97.877 266.459 98.9906C266.459 99.8257 265.902 100.661 264.51 100.661ZM251.982 97.877C251.982 98.1554 251.982 98.1554 251.982 97.877C251.982 98.1554 251.982 98.1554 251.982 97.877ZM252.261 76.9984C251.982 76.9984 251.982 77.2767 251.982 77.5551C251.982 77.2767 252.261 76.9984 252.261 76.9984Z" fill="black"></path><path d="M271.191 86.7417H154.824V91.4742H271.191V86.7417Z" fill="black"></path><path d="M70.1934 12.1353H42.6328V16.8678H70.1934V12.1353Z" fill="black"></path></svg> 