<?xml version="1.0" encoding="UTF-8"?> <svg xmlns="http://www.w3.org/2000/svg" width="287" height="136" viewBox="0 0 287 136" fill="none"><path d="M145.905 49.1332C145.069 49.1332 144.513 48.2981 144.513 47.7413C144.513 47.7413 144.513 47.1846 144.791 46.071C145.07 45.2359 145.626 44.9575 146.461 44.9575C147.297 45.2359 147.575 45.7927 147.575 46.6278C147.297 47.1846 147.297 47.7413 147.297 47.7413C147.297 48.5764 146.74 49.1332 145.905 49.1332Z" fill="black"></path><path d="M150.081 40.5034C149.802 40.5034 149.524 40.5033 149.245 40.225C148.689 39.6682 148.689 38.8331 149.245 38.2763C149.802 37.4411 150.637 36.8844 151.473 36.3276C152.029 35.7709 152.865 36.0492 153.421 36.606C153.978 37.1628 153.7 37.9979 153.143 38.5547C152.586 39.1115 151.751 39.6682 151.194 40.225C150.916 40.5033 150.359 40.5034 150.081 40.5034Z" fill="black"></path><path d="M209.656 52.1954C209.099 52.1954 208.543 51.917 208.264 51.3603C207.986 50.5251 207.707 49.69 207.151 48.8549C206.872 48.2981 207.151 47.463 207.707 46.9062C208.264 46.6278 209.099 46.9062 209.656 47.4629C210.213 48.2981 210.491 49.1332 210.77 49.9684C211.048 50.8035 210.77 51.3603 209.934 51.6387C209.934 52.1954 209.934 52.1954 209.656 52.1954ZM203.531 43.0088C203.253 43.0088 202.696 43.0088 202.696 42.7305C202.14 42.1737 201.304 41.6169 200.748 41.0601C200.191 40.5034 199.912 39.6682 200.469 39.1115C201.026 38.5547 201.861 38.2763 202.418 38.8331C203.253 39.3898 203.81 40.225 204.645 40.7817C205.202 41.3385 205.202 42.1737 204.645 42.7305C204.367 43.0088 204.088 43.0088 203.531 43.0088ZM194.345 37.1628C194.066 37.1628 194.066 37.1628 193.788 37.1628C192.953 36.8844 192.118 36.606 191.282 36.3276C190.447 36.0493 190.169 35.2141 190.447 34.6573C190.726 33.8222 191.561 33.5438 192.118 33.8222C192.953 34.1006 194.066 34.379 194.901 34.9357C195.737 35.2141 196.015 36.0493 195.737 36.8844C195.458 36.8844 194.901 37.1628 194.345 37.1628ZM159.268 34.9357C158.711 34.9357 158.154 34.6573 157.876 34.1006C157.597 33.2654 158.154 32.7087 158.711 32.4303C159.546 32.1519 160.381 31.8735 161.495 31.5952C162.33 31.3168 162.887 31.8735 163.165 32.7087C163.443 33.5438 162.887 34.1006 162.051 34.379C161.216 34.6574 160.381 34.9357 159.546 35.2141C159.546 34.9357 159.546 34.9357 159.268 34.9357ZM183.766 34.1006C183.209 34.1006 182.652 33.8222 182.374 33.8222L180.982 33.5438C180.147 33.5438 179.59 32.7087 179.868 31.8735C179.868 31.0384 180.704 30.4816 181.539 30.76L182.931 31.0384C183.487 31.0384 183.766 31.0384 184.323 31.3168C185.158 31.3168 185.715 32.1519 185.436 32.9871C185.158 33.5438 184.601 34.1006 183.766 34.1006ZM170.125 32.9871C169.29 32.9871 168.733 32.4303 168.733 31.5952C168.733 30.76 169.29 30.2032 170.125 30.2032C170.681 30.2032 171.517 30.2032 172.073 30.2032H172.909C173.744 30.2032 174.301 30.76 174.301 31.5952C174.301 32.4303 173.744 32.9871 172.909 32.9871H172.073C171.517 32.9871 170.681 32.9871 170.125 32.9871Z" fill="black"></path><path d="M211.605 61.6604C210.77 61.6604 210.213 61.1037 210.213 60.2685C210.213 59.7117 210.213 59.4334 210.213 58.8766C210.213 58.0414 210.77 57.4847 211.326 57.2063C212.162 57.2063 212.718 57.7631 212.997 58.3198C212.997 58.8766 212.997 59.155 212.997 59.7117C213.275 60.8253 212.718 61.6604 211.605 61.6604C211.883 61.6604 211.883 61.6604 211.605 61.6604Z" fill="black"></path><path d="M202.418 56.9279L210.491 73.3525L220.792 58.3198L202.418 56.9279Z" fill="black"></path><path d="M286.77 82.2607H146.183V135.432H286.77V82.2607Z" fill="black"></path><path d="M29.5374 0.416321H0.306396V67.5065H29.5374V0.416321Z" fill="black"></path><path d="M21.7427 35.4925V25.7491C21.7427 24.914 22.2995 24.6356 22.8562 24.6356C23.413 24.6356 23.9698 24.914 23.9698 25.7491V48.8548C23.9698 49.69 23.413 49.9684 22.8562 49.9684C22.2995 49.9684 21.7427 49.69 21.7427 48.8548V37.4412H8.37996V48.8548C8.37996 49.69 7.82316 49.9684 7.26638 49.9684C6.7096 49.9684 6.15283 49.69 6.15283 48.8548V25.7491C6.15283 24.914 6.7096 24.6356 7.26638 24.6356C7.82316 24.6356 8.37996 24.914 8.37996 25.7491V35.4925H21.7427Z" fill="white"></path><path d="M22.8563 50.8035C21.4644 50.8035 20.3508 49.69 20.3508 48.2981V38.2763H9.77201V48.2981C9.77201 49.9684 8.65843 50.8035 7.26648 50.8035C5.87453 50.8035 4.76099 49.69 4.76099 48.2981V25.1924C4.76099 23.5221 5.87453 22.6869 7.26648 22.6869C8.65843 22.6869 9.77201 23.8005 9.77201 25.1924V33.5438H20.3508V25.1924C20.3508 23.5221 21.4644 22.6869 22.8563 22.6869C24.2483 22.6869 25.3618 23.8005 25.3618 25.1924V48.2981C25.0834 50.2468 23.9699 50.8035 22.8563 50.8035Z" fill="white"></path><path d="M43.7356 24.6356C50.6953 24.6356 56.2631 29.9249 56.2631 37.1628C56.2631 44.4007 50.9737 49.69 43.7356 49.69C36.7758 49.69 31.208 44.4007 31.208 37.1628C31.208 29.6465 36.7758 24.6356 43.7356 24.6356ZM43.7356 47.7413C49.5817 47.7413 54.3144 43.0088 54.3144 37.1628C54.3144 31.3168 49.8601 26.5843 43.7356 26.5843C37.8894 26.5843 33.1567 31.3168 33.1567 37.1628C33.1567 43.0088 37.8894 47.7413 43.7356 47.7413Z" fill="black"></path><path d="M43.7355 50.5251C35.9406 50.5251 30.3728 44.6791 30.3728 36.8844C30.3728 29.0897 36.219 23.2437 43.7355 23.2437C51.2521 23.2437 57.0983 29.0897 57.0983 36.8844C57.0983 44.6791 51.2521 50.5251 43.7355 50.5251ZM43.7355 27.4194C38.4461 27.4194 34.2703 31.5952 34.2703 37.1628C34.2703 42.7305 38.4461 46.9062 43.7355 46.9062C49.025 46.9062 53.2008 42.7305 53.2008 37.1628C53.2008 31.5952 49.025 27.4194 43.7355 27.4194Z" fill="black"></path><path d="M82.9888 26.5843C83.5456 25.1924 83.8239 24.6356 85.2159 24.6356C86.8862 24.6356 86.8862 26.0275 87.1646 26.8626L90.2269 48.2981C90.2269 48.8549 90.2269 48.8548 90.2269 48.8548C90.2269 49.4116 89.9485 49.69 89.1134 49.69C88.2782 49.69 88.2782 49.1332 87.9998 48.5764L84.9375 26.5843L77.6994 48.2981C77.421 48.8549 77.1426 49.69 76.029 49.69C74.9155 49.69 74.6371 49.1332 74.0803 48.2981L66.8422 26.5843L63.7799 48.5764C63.7799 49.1332 63.5015 49.69 62.6663 49.69C62.1095 49.69 61.5527 49.1332 61.5527 48.8548C61.5527 48.8548 61.5527 48.5765 61.5527 48.2981L64.615 26.8626C64.615 26.0275 64.8934 24.6356 66.5638 24.6356C67.9557 24.6356 68.2341 25.1924 68.7909 26.5843L75.7506 47.7413L82.9888 26.5843Z" fill="black"></path><path d="M89.3915 50.5251C88.278 50.5251 87.4428 49.9684 87.4428 48.5765L84.9373 31.0384L79.0911 48.5765C78.8127 49.1332 78.5343 50.8035 76.3072 50.8035C74.3585 50.8035 73.8017 49.69 73.5233 48.5765L67.6771 31.0384L65.1716 48.8549C64.8932 50.2468 64.3365 50.8035 63.2229 50.8035C61.8309 50.8035 61.2742 49.9684 61.2742 48.8549C61.2742 48.5765 61.2742 48.5765 61.2742 48.0197L64.3364 26.5843C64.3364 25.7491 64.8932 23.5221 67.3987 23.5221C69.3475 23.5221 69.9043 24.6356 70.461 26.3059L76.5856 44.4007L82.7102 26.3059C83.267 24.6356 83.8238 23.5221 85.7725 23.5221C88.278 23.5221 88.5564 25.7491 88.8348 26.5843L91.8971 48.0197C91.8971 48.5765 91.8971 48.5765 91.8971 48.8549C91.3403 49.69 90.5051 50.5251 89.3915 50.5251Z" fill="black"></path><path d="M109.435 35.7709C110.27 35.7709 110.27 36.3276 110.27 36.606C110.27 37.1628 109.992 37.4412 109.435 37.4412H99.1348V46.071C99.1348 47.1846 99.4132 47.1845 100.248 47.1845H110.827C111.662 47.1845 111.662 47.7413 111.662 48.0197C111.662 48.5765 111.384 48.8549 110.827 48.8549H99.6916C96.9077 48.8549 96.9077 46.9062 96.9077 45.7926V27.9762C96.9077 26.8627 96.9077 24.914 99.6916 24.914H110.27C111.106 24.914 111.106 25.4707 111.106 25.7491C111.106 26.3059 110.827 26.5843 110.27 26.5843H99.97C99.1348 26.5843 98.8564 26.8626 98.8564 27.6978V35.2141H109.435V35.7709Z" fill="black"></path><path d="M110.828 49.9684H99.6919C98.0216 49.9684 95.7944 49.1332 95.7944 45.7926V27.9762C95.7944 25.1924 97.1864 23.8004 99.6919 23.8004H110.271C111.663 23.8004 112.219 24.914 112.219 25.7491C112.219 26.8626 111.384 27.6978 110.271 27.6978H99.9703C99.9703 27.6978 99.9703 27.6978 99.6919 27.6978C99.6919 27.6978 99.6919 27.6978 99.6919 27.9762V34.6573H109.157C110.271 34.6573 111.106 35.4925 111.106 36.606C111.106 37.7195 110.271 38.5547 109.157 38.5547H99.6919V46.071C99.6919 46.071 99.6919 46.071 99.6919 46.3494C99.6919 46.3494 99.6919 46.3494 99.9703 46.3494H110.549C111.941 46.3494 112.498 47.1846 112.498 48.2981C112.776 49.4116 111.941 49.9684 110.828 49.9684ZM98.0216 36.0492V36.8844C98.0216 36.606 98.2999 36.606 98.5783 36.3276C98.2999 36.606 98.0216 36.3276 98.0216 36.0492ZM98.5783 26.3059C98.5783 26.3059 98.3 26.5842 98.3 26.8626C98.3 26.5842 98.2999 26.5843 98.5783 26.3059Z" fill="black"></path><path d="M180.425 108.429V98.6853C180.425 97.8501 180.982 97.5718 181.539 97.5718C182.095 97.5718 182.652 97.8501 182.652 98.6853V121.791C182.652 122.626 182.095 122.904 181.539 122.904C180.982 122.904 180.425 122.626 180.425 121.791V110.377H167.062V121.791C167.062 122.626 166.506 122.904 165.949 122.904C165.392 122.904 164.835 122.626 164.835 121.791V98.6853C164.835 97.8501 165.392 97.5718 165.949 97.5718C166.506 97.5718 167.062 97.8501 167.062 98.6853V108.429H180.425Z" fill="white"></path><path d="M181.539 124.018C180.147 124.018 179.033 122.905 179.033 121.513V111.491H168.454V121.513C168.454 123.183 167.341 124.018 165.949 124.018C164.557 124.018 163.443 122.905 163.443 121.513V98.4069C163.443 96.7366 164.557 95.9014 165.949 95.9014C167.341 95.9014 168.454 97.015 168.454 98.4069V106.758H179.033V98.4069C179.033 96.7366 180.147 95.9014 181.539 95.9014C182.931 95.9014 184.044 97.015 184.044 98.4069V121.513C183.766 123.183 182.652 124.018 181.539 124.018Z" fill="white"></path><path d="M202.418 97.5718C209.378 97.5718 214.946 102.861 214.946 110.099C214.946 117.337 209.656 122.626 202.418 122.626C195.458 122.626 189.891 117.337 189.891 110.099C189.891 102.861 195.458 97.5718 202.418 97.5718ZM202.418 120.956C208.264 120.956 212.997 116.223 212.997 110.377C212.997 104.531 208.543 99.7988 202.418 99.7988C196.572 99.7988 191.839 104.531 191.839 110.377C191.839 116.223 196.572 120.956 202.418 120.956Z" fill="white"></path><path d="M202.418 124.018C194.623 124.018 188.499 118.172 188.499 110.099C188.499 102.026 194.345 96.1798 202.418 96.1798C210.491 96.1798 216.338 102.026 216.338 110.099C216.338 118.172 210.213 124.018 202.418 124.018ZM202.418 100.912C197.407 100.912 193.231 105.088 193.231 110.099C193.231 115.388 197.129 119.286 202.418 119.286C207.429 119.286 211.605 115.11 211.605 110.099C211.605 105.088 207.429 100.912 202.418 100.912Z" fill="white"></path><path d="M241.949 99.7988C242.506 98.1285 242.784 97.8501 244.176 97.8501C245.847 97.8501 245.847 99.242 246.125 100.077L249.187 121.513C249.187 122.069 249.187 122.069 249.187 122.069C249.187 122.626 248.909 122.904 248.074 122.904C247.239 122.904 247.239 122.348 246.96 121.791L243.898 99.7988L236.66 121.513C236.381 122.069 236.103 122.904 234.989 122.904C233.598 122.904 233.598 122.348 233.041 121.513L225.803 99.7988L222.74 121.791C222.74 122.348 222.462 122.904 221.627 122.904C221.07 122.904 220.513 122.348 220.513 122.069C220.513 122.069 220.513 121.791 220.513 121.513L223.575 100.077C223.575 99.242 223.854 97.8501 225.524 97.8501C226.916 97.8501 227.195 98.4069 227.751 99.7988L234.711 120.956L241.949 99.7988Z" fill="white"></path><path d="M248.074 124.018C247.239 124.018 245.847 123.74 245.847 121.791L243.62 105.645L238.33 121.791C238.052 122.348 237.495 124.296 235.268 124.296C233.041 124.296 232.484 122.626 232.206 121.791L226.916 105.645L224.689 121.791C224.411 123.74 223.019 124.018 222.462 124.018C221.07 124.018 219.957 122.905 219.957 121.791C219.957 121.513 219.957 121.513 219.957 120.956L223.019 99.5204C223.297 97.2934 224.411 96.1798 226.36 96.1798C228.865 96.1798 229.422 97.8501 229.7 99.242L235.268 116.223L240.836 99.242C241.393 97.8501 241.949 96.1798 244.176 96.1798C246.125 96.1798 247.239 97.2934 247.517 99.5204L250.579 120.956C250.579 121.513 250.579 121.513 250.579 121.791C250.579 122.905 249.466 124.018 248.074 124.018Z" fill="white"></path><path d="M268.118 108.707C268.953 108.707 268.953 109.264 268.953 109.542C268.953 110.099 268.675 110.377 268.118 110.377H257.818V119.007C257.818 120.121 258.096 120.121 258.931 120.121H269.51C270.345 120.121 270.345 120.677 270.345 120.956C270.345 121.513 270.067 121.791 269.51 121.791H258.374C255.591 121.791 255.591 119.842 255.591 118.729V100.912C255.591 99.7988 255.591 97.8501 258.374 97.8501H269.232C270.067 97.8501 270.067 98.4069 270.067 98.6853C270.067 99.242 269.789 99.5204 269.232 99.5204H258.931C258.096 99.5204 257.818 99.7988 257.818 100.634V108.15H268.118V108.707Z" fill="white"></path><path d="M269.51 123.461H258.375C256.426 123.461 254.199 122.626 254.199 119.007V101.191C254.199 97.5718 256.426 96.7366 258.375 96.7366H269.232C270.624 96.7366 271.459 97.8501 271.459 98.9637C271.459 100.356 270.345 101.191 269.232 101.191H259.21V107.315H268.118C269.51 107.315 270.345 108.429 270.345 109.542C270.345 110.934 269.51 111.769 268.118 111.769H259.21V118.729H269.789C271.18 118.729 272.016 119.842 272.016 120.956C272.016 122.626 270.902 123.461 269.51 123.461Z" fill="white"></path></svg> 