<?xml version="1.0" encoding="UTF-8"?> <svg xmlns="http://www.w3.org/2000/svg" width="275" height="117" viewBox="0 0 275 117" fill="none"><path d="M143.49 26.6112C143.49 26.6112 143.211 26.6112 143.49 26.6112C142.654 26.6112 142.098 25.776 142.098 25.2193C142.098 25.2193 142.098 24.6625 142.376 23.549C142.654 22.7138 143.211 22.4355 144.046 22.4355C144.881 22.7138 145.16 23.2706 145.16 24.1057C144.881 24.6625 144.882 25.2193 144.882 25.2193C144.603 26.0544 144.046 26.6112 143.49 26.6112Z" fill="black"></path><path d="M147.387 17.9813C147.109 17.9813 146.83 17.9813 146.552 17.7029C145.995 17.1462 145.995 16.311 146.552 15.7543C147.109 14.9191 147.944 14.3624 148.779 13.8056C149.336 13.2488 150.171 13.5272 150.728 14.084C151.285 14.6407 151.006 15.4759 150.449 16.0326C149.893 16.5894 149.057 17.1462 148.501 17.7029C148.222 17.9813 147.944 17.9813 147.387 17.9813Z" fill="black"></path><path d="M207.241 29.6734C206.684 29.6734 206.127 29.395 205.849 28.8382C205.571 28.0031 205.292 27.1679 204.735 26.3328C204.457 25.776 204.735 24.9409 205.292 24.3841C205.849 24.1057 206.684 24.3841 207.241 24.9409C207.798 25.776 208.076 26.6112 208.354 27.4463C208.633 28.2815 208.354 28.8382 207.519 29.1166C207.519 29.6734 207.241 29.6734 207.241 29.6734ZM201.116 20.4868C200.838 20.4868 200.281 20.4868 200.281 20.2084C199.724 19.6516 198.889 19.0949 198.332 18.5381C197.776 17.9813 197.497 17.1462 198.054 16.5894C198.611 16.0326 199.446 15.7543 200.003 16.311C200.838 16.8678 201.395 17.7029 202.23 18.2597C202.787 18.8165 202.787 19.6516 202.23 20.2084C201.673 20.4868 201.395 20.4868 201.116 20.4868ZM191.93 14.6407C191.651 14.6407 191.651 14.6407 191.373 14.6407C190.538 14.3624 189.702 14.084 188.867 13.8056C188.032 13.5272 187.754 12.6921 188.032 12.1353C188.31 11.3002 189.146 11.0218 189.702 11.3002C190.538 11.5785 191.651 11.8569 192.486 12.4137C193.321 12.6921 193.6 13.5272 193.321 14.3624C193.043 14.084 192.486 14.6407 191.93 14.6407ZM156.852 12.1353C156.296 12.1353 155.739 11.8569 155.461 11.3002C155.182 10.465 155.739 9.90824 156.296 9.62986C157.131 9.35148 157.966 9.07309 159.08 8.79471C159.915 8.51633 160.472 9.07309 160.75 9.90824C161.028 10.7434 160.472 11.3002 159.636 11.5785C158.801 11.8569 157.966 12.1353 157.131 12.4137C157.131 12.1353 156.852 12.1353 156.852 12.1353ZM181.351 11.5785C181.351 11.5785 181.072 11.5785 181.351 11.5785C180.794 11.5785 180.237 11.3002 179.959 11.3002L178.567 11.0218C177.732 11.0218 177.175 10.1866 177.453 9.35148C177.453 8.51633 178.288 7.95956 179.124 8.23795L180.516 8.51633C181.072 8.51633 181.351 8.51633 181.907 8.79471C182.743 8.79471 183.299 9.62986 183.021 10.465C182.464 11.0218 181.907 11.5785 181.351 11.5785ZM167.71 10.465C166.874 10.465 166.318 9.90824 166.318 9.07309C166.318 8.23795 166.874 7.68118 167.71 7.68118C168.266 7.68118 169.102 7.68118 169.658 7.68118H170.494C171.329 7.68118 171.885 8.23795 171.885 9.07309C171.885 9.90824 171.329 10.465 170.494 10.465H169.658C168.823 10.465 168.266 10.465 167.71 10.465Z" fill="black"></path><path d="M209.189 39.1384C208.354 39.1384 207.797 38.5816 207.797 37.7465C207.797 37.1897 207.797 36.9113 207.797 36.3546C207.797 35.5194 208.354 34.9626 208.911 34.6843C209.746 34.6843 210.303 35.241 210.581 35.7978C210.581 36.3546 210.581 36.6329 210.581 37.1897C210.581 38.3032 210.024 39.1384 209.189 39.1384Z" fill="black"></path><path d="M199.724 34.4059L207.798 50.8304L218.098 35.5194L199.724 34.4059Z" fill="black"></path><path d="M19.0496 12.6921V2.94867C19.0496 2.11353 19.6064 1.83514 20.1632 1.83514C20.72 1.83514 21.2767 2.11353 21.2767 2.94867V26.0544C21.2767 26.8895 20.72 27.1679 20.1632 27.1679C19.6064 27.1679 19.0496 26.8895 19.0496 26.0544V14.6407H5.6869V26.0544C5.6869 26.8895 5.13005 27.1679 4.57326 27.1679C4.01648 27.1679 3.45972 26.8895 3.45972 26.0544V2.94867C3.45972 2.11353 4.01648 1.83514 4.57326 1.83514C5.13005 1.83514 5.6869 2.11353 5.6869 2.94867V12.6921H19.0496Z" fill="black"></path><path d="M20.163 28.0031C19.0494 28.0031 18.2143 27.1679 18.2143 26.0544V15.7543H7.07869V26.0544C7.07869 27.4463 5.96509 28.0031 5.12992 28.0031C4.01636 28.0031 3.18115 27.1679 3.18115 26.0544V2.94868C3.18115 1.55676 4.29475 1 5.12992 1C6.24348 1 7.07869 1.83515 7.07869 2.94868V11.5785H18.2143V2.94868C18.2143 1.55676 19.3278 1 20.163 1C21.2766 1 22.1118 1.83515 22.1118 2.94868V26.0544C22.1118 27.4463 21.2766 28.0031 20.163 28.0031Z" fill="black"></path><path d="M41.0424 2.11353C48.0021 2.11353 53.5699 7.40279 53.5699 14.6407C53.5699 21.8787 48.2805 27.1679 41.0424 27.1679C34.0827 27.1679 28.5149 21.8787 28.5149 14.6407C28.5149 7.40279 34.0827 2.11353 41.0424 2.11353ZM41.0424 25.2193C46.8886 25.2193 51.6212 20.4868 51.6212 14.6407C51.6212 8.7947 47.1669 4.0622 41.0424 4.0622C35.1962 4.0622 30.4636 8.7947 30.4636 14.6407C30.4636 20.4868 35.1962 25.2193 41.0424 25.2193Z" fill="black"></path><path d="M41.0424 28.0031C33.2475 28.0031 27.6797 22.1571 27.6797 14.3624C27.6797 6.56765 33.5259 0.721619 41.0424 0.721619C48.559 0.721619 54.4052 6.56765 54.4052 14.3624C54.4052 22.1571 48.8373 28.0031 41.0424 28.0031ZM41.0424 4.89735C35.753 4.89735 31.5771 9.07309 31.5771 14.6407C31.5771 20.2084 35.753 24.3841 41.0424 24.3841C46.3318 24.3841 50.5077 20.2084 50.5077 14.6407C50.5077 9.07309 46.3318 4.89735 41.0424 4.89735Z" fill="black"></path><path d="M80.5737 4.0622C81.1305 2.39191 81.4089 2.11353 82.8008 2.11353C84.4712 2.11353 84.4712 3.50544 84.7496 4.34058L87.8119 25.776C87.8119 26.3328 87.8119 26.3328 87.8119 26.3328C87.8119 26.8895 87.5334 27.1679 86.6983 27.1679C85.8631 27.1679 85.8631 26.6112 85.5847 26.0544L82.5224 3.78382L75.2844 25.4976C75.006 26.0544 74.7276 26.8895 73.614 26.8895C72.222 26.8895 72.222 26.3328 71.6652 25.4976L64.4271 3.78382L61.3649 25.776C61.3649 26.3328 61.0864 26.8895 60.2512 26.8895C59.6945 26.8895 59.1377 26.3328 59.1377 26.0544C59.1377 26.0544 59.1377 25.776 59.1377 25.4976L62.2 4.0622C62.2 3.22706 62.4784 1.83514 64.1488 1.83514C65.5407 1.83514 65.8191 2.39191 66.3758 3.78382L73.3356 24.9409L80.5737 4.0622Z" fill="black"></path><path d="M73.6141 28.5598L73.3357 28.0031C71.6654 28.0031 71.1086 26.8896 70.8302 25.776L64.984 8.23794L62.4785 26.0544C62.2001 27.4463 61.6433 28.0031 60.5297 28.0031C59.1378 28.0031 58.5811 27.1679 58.5811 26.0544C58.5811 25.776 58.5811 25.776 58.5811 25.2193L61.6433 3.78382C61.6433 2.94868 62.2001 0.721619 64.7056 0.721619C66.6543 0.721619 67.2111 1.83515 67.7679 3.50544L73.8925 21.6003L80.0171 3.50544C80.5738 1.83515 81.1306 0.721619 83.0794 0.721619C85.5849 0.721619 85.8633 2.94868 86.1417 3.78382L89.204 25.2193C89.204 25.776 89.204 25.776 89.204 26.0544C89.204 26.8896 88.3688 28.0031 87.2552 28.0031C86.1417 28.0031 85.3064 27.4463 85.3064 26.0544L82.801 8.51632L76.9547 26.0544C76.6764 26.6112 76.398 28.2815 74.4492 28.2815L73.6141 28.5598ZM81.9658 3.50544H83.6362C83.3578 2.94868 83.3577 2.94868 82.801 2.94868C82.2442 3.22706 81.9658 3.22706 81.9658 3.50544ZM64.4272 3.22706C64.1488 3.22706 63.8704 3.22706 63.592 3.78382H65.2624C64.984 3.22706 64.984 3.22706 64.4272 3.22706Z" fill="black"></path><path d="M106.743 13.2488C107.578 13.2488 107.578 13.8056 107.578 14.084C107.578 14.6407 107.299 14.9191 106.743 14.9191H96.4422V23.549C96.4422 24.6625 96.7206 24.6625 97.5558 24.6625H108.135C108.97 24.6625 108.97 25.2193 108.97 25.4976C108.97 26.0544 108.691 26.3328 108.135 26.3328H96.999C94.2151 26.3328 94.2151 24.3841 94.2151 23.2706V5.45411C94.2151 4.34058 94.2151 2.39191 96.999 2.39191H107.856C108.691 2.39191 108.691 2.94867 108.691 3.22705C108.691 3.78382 108.413 4.0622 107.856 4.0622H97.5558C96.7206 4.0622 96.4422 4.34058 96.4422 5.17573V12.6921H106.743V13.2488Z" fill="black"></path><path d="M108.413 27.4463H97.2773C95.607 27.4463 93.3799 26.6112 93.3799 23.2706V5.45412C93.3799 2.67029 94.7718 1.27838 97.2773 1.27838H108.134C109.526 1.27838 110.083 2.39191 110.083 3.22706C110.083 4.34059 109.248 5.17573 108.134 5.17573H97.834C97.834 5.17573 97.8341 5.17573 97.5557 5.17573C97.5557 5.17573 97.5557 5.17573 97.5557 5.45412V12.1353H107.021C108.135 12.1353 108.97 12.9704 108.97 14.084C108.97 15.1975 108.135 16.0326 107.021 16.0326H97.5557V23.549C97.5557 23.549 97.5557 23.549 97.5557 23.8273C97.5557 23.8273 97.5557 23.8273 97.834 23.8273H108.413C109.805 23.8273 110.362 24.6625 110.362 25.776C110.362 26.6112 109.526 27.4463 108.413 27.4463ZM95.8854 3.78382C95.607 3.78382 95.607 4.0622 95.607 4.34059C95.607 4.0622 95.8854 4.0622 95.8854 3.78382Z" fill="black"></path><path d="M178.01 85.9066V76.1632C178.01 75.3281 178.567 75.0497 179.124 75.0497C179.681 75.0497 180.237 75.3281 180.237 76.1632V99.2689C180.237 100.104 179.681 100.382 179.124 100.382C178.567 100.382 178.01 100.104 178.01 99.2689V87.8553H164.647V99.2689C164.647 100.104 164.091 100.382 163.534 100.382C162.977 100.382 162.42 100.104 162.42 99.2689V76.1632C162.42 75.3281 162.977 75.0497 163.534 75.0497C164.091 75.0497 164.647 75.3281 164.647 76.1632V85.9066H178.01Z" fill="black"></path><path d="M178.845 101.218C177.732 101.218 176.897 100.382 176.897 99.2689V88.9688H165.761V99.2689C165.761 100.661 164.647 101.218 163.812 101.218C162.699 101.218 161.864 100.382 161.864 99.2689V76.1632C161.864 74.7713 162.977 74.2145 163.812 74.2145C164.926 74.2145 165.761 75.0497 165.761 76.1632V84.7931H176.897V76.1632C176.897 74.7713 178.01 74.2145 178.845 74.2145C179.959 74.2145 180.794 75.0497 180.794 76.1632V99.2689C181.073 100.382 179.959 101.218 178.845 101.218Z" fill="black"></path><path d="M200.003 75.0497C206.963 75.0497 212.531 80.3389 212.531 87.5769C212.531 94.8148 207.241 100.104 200.003 100.104C193.044 100.104 187.476 94.8148 187.476 87.5769C187.476 80.3389 193.044 75.0497 200.003 75.0497ZM200.003 98.1554C205.85 98.1554 210.582 93.4229 210.582 87.5769C210.582 81.7309 206.128 76.9984 200.003 76.9984C194.157 76.9984 189.425 81.7309 189.425 87.5769C189.425 93.4229 193.879 98.1554 200.003 98.1554Z" fill="black"></path><path d="M200.003 101.218C192.208 101.218 186.641 95.3716 186.641 87.5769C186.641 79.7822 192.487 73.9362 200.003 73.9362C207.52 73.9362 213.366 79.7822 213.366 87.5769C213.366 95.3716 207.52 101.218 200.003 101.218ZM200.003 78.1119C194.714 78.1119 190.538 82.2876 190.538 87.8553C190.538 93.4229 194.714 97.5987 200.003 97.5987C205.293 97.5987 209.469 93.4229 209.469 87.8553C209.469 82.2876 205.293 78.1119 200.003 78.1119Z" fill="black"></path><path d="M239.256 77.2767C239.813 75.8848 240.091 75.3281 241.483 75.3281C243.154 75.3281 243.432 76.72 243.432 77.5551L246.495 98.9906C246.495 99.5473 246.495 99.5473 246.495 99.5473C246.495 100.104 246.216 100.382 245.381 100.382C244.546 100.382 244.546 99.8257 244.267 99.2689L241.205 77.2767L233.967 98.9906C233.689 99.5473 233.41 100.382 232.297 100.382C230.905 100.382 230.905 99.8257 230.348 98.9906L223.11 77.2767L220.047 99.2689C220.047 99.8257 219.769 100.382 218.934 100.382C218.377 100.382 217.82 99.8257 217.82 99.5473C217.82 99.5473 217.82 99.2689 217.82 98.9906L220.883 77.5551C220.883 76.72 221.161 75.3281 222.831 75.3281C224.223 75.3281 224.502 75.8848 225.058 77.2767L232.018 98.4338L239.256 77.2767Z" fill="black"></path><path d="M232.296 101.496L232.018 100.939C230.348 100.939 229.791 99.8257 229.513 98.7122L223.666 81.1741L221.161 98.9906C220.882 100.382 220.326 100.939 219.212 100.939C217.82 100.939 217.263 100.104 217.263 98.9906C217.263 98.7122 217.263 98.7122 217.263 98.1554L220.326 76.72C220.326 75.8848 220.882 73.6578 223.388 73.6578C225.337 73.6578 225.893 74.7713 226.45 76.4416L232.575 94.5364L238.699 76.4416C239.256 74.7713 239.813 73.6578 241.762 73.6578C244.267 73.6578 244.546 75.8848 244.824 76.72L247.886 98.1554C247.886 98.7122 247.886 98.7122 247.886 98.9906C247.886 99.8257 247.051 100.939 245.938 100.939C244.824 100.939 243.989 100.382 243.989 98.9906L241.483 81.4525L235.637 98.9906C235.359 99.5473 235.08 101.218 233.132 101.218L232.296 101.496ZM240.648 76.72H242.319C242.04 76.1632 242.04 76.1632 241.483 76.1632C240.927 76.1632 240.927 76.1632 240.648 76.72ZM223.11 76.1632C222.831 76.1632 222.553 76.1632 222.274 76.72H223.945C223.945 76.1632 223.666 76.1632 223.11 76.1632Z" fill="black"></path><path d="M265.703 86.185C266.538 86.185 266.538 86.7417 266.538 87.0201C266.538 87.5769 266.26 87.8553 265.703 87.8553H255.403V96.4851C255.403 97.5986 255.681 97.5986 256.516 97.5986H267.095C267.93 97.5986 267.93 98.1554 267.93 98.4338C267.93 98.9906 267.652 99.2689 267.095 99.2689H255.959C253.176 99.2689 253.176 97.3203 253.176 96.2067V78.3903C253.176 77.2767 253.176 75.3281 255.959 75.3281H266.817C267.652 75.3281 267.652 75.8848 267.652 76.1632C267.652 76.72 267.373 76.9984 266.817 76.9984H256.516C255.681 76.9984 255.403 77.2767 255.403 78.1119V85.6282H265.703V86.185Z" fill="black"></path><path d="M267.095 100.661H255.96C254.289 100.661 252.062 99.8257 252.062 96.4851V78.6687C252.062 75.8848 253.454 74.4929 255.96 74.4929H266.817C268.209 74.4929 268.766 75.6065 268.766 76.4416C268.766 77.5551 267.93 78.3903 266.817 78.3903H256.516C256.516 78.3903 256.516 78.3903 256.238 78.3903C256.238 78.3903 256.238 78.3903 256.238 78.6687V85.3498H265.703C266.817 85.3498 267.652 86.185 267.652 87.2985C267.652 88.412 266.817 89.2472 265.703 89.2472H256.238V96.7635C256.238 96.7635 256.238 96.7635 256.238 97.0419C256.238 97.0419 256.238 97.0419 256.516 97.0419H267.095C268.487 97.0419 269.044 97.877 269.044 98.9906C269.044 99.8257 268.209 100.661 267.095 100.661ZM254.568 76.9984C254.289 76.9984 254.289 77.2767 254.289 77.5551C254.568 77.2767 254.568 76.9984 254.568 76.9984Z" fill="black"></path><path d="M274.055 112.075H157.688V116.807H274.055V112.075Z" fill="black"></path><path d="M16.2652 41.087H0.675293V45.8195H16.2652V41.087Z" fill="black"></path></svg> 