<?xml version="1.0" encoding="UTF-8"?> <svg xmlns="http://www.w3.org/2000/svg" width="289" height="133" viewBox="0 0 289 133" fill="none"><path d="M288.412 79.5683H147.825V132.739H288.412V79.5683Z" fill="black"></path><path d="M146.433 45.884C145.598 45.884 145.042 45.0488 145.042 44.4921C145.042 44.4921 145.042 43.9353 145.32 42.8218C145.598 41.9867 146.155 41.7083 146.99 41.7083C147.825 41.9867 148.104 42.5435 148.104 43.3786C147.825 43.9353 147.825 44.4921 147.825 44.4921C147.825 45.3272 147.269 45.884 146.433 45.884Z" fill="black"></path><path d="M150.609 37.5325C150.331 37.5325 150.053 37.5325 149.774 37.2541C149.217 36.6974 149.217 35.8622 149.774 35.3054C150.331 34.4703 151.166 33.9136 152.001 33.3568C152.558 32.8001 153.393 33.0785 153.95 33.6352C154.507 34.192 154.229 35.0271 153.672 35.5838C153.115 36.1406 152.28 36.6974 151.723 37.2541C151.166 37.2541 150.888 37.5325 150.609 37.5325Z" fill="black"></path><path d="M210.185 48.9462C209.628 48.9462 209.071 48.6678 208.793 48.111C208.515 47.2759 208.236 46.4408 207.679 45.6056C207.401 45.0488 207.679 44.2137 208.236 43.6569C208.793 43.3785 209.628 43.6569 210.185 44.2137C210.742 45.0488 211.02 45.884 211.298 46.7191C211.577 47.5543 211.298 48.111 210.463 48.3894C210.463 48.9462 210.185 48.9462 210.185 48.9462ZM204.06 39.7596C203.782 39.7596 203.225 39.7596 203.225 39.4812C202.668 38.9244 201.833 38.3677 201.276 37.8109C200.72 37.2542 200.441 36.419 200.998 35.8622C201.555 35.3055 202.39 35.0271 202.947 35.5838C203.782 36.1406 204.339 36.9758 205.174 37.5325C205.731 38.0893 205.731 38.9244 205.174 39.4812C204.895 39.7596 204.339 39.7596 204.06 39.7596ZM194.873 33.9135C194.595 33.9135 194.595 33.9135 194.317 33.9135C193.482 33.6351 192.646 33.3568 191.811 33.0784C190.976 32.8 190.698 31.9649 190.976 31.4081C191.254 30.573 192.09 30.2946 192.646 30.573C193.481 30.8514 194.595 31.1297 195.43 31.6865C196.265 31.9649 196.544 32.8001 196.265 33.6352C195.987 33.6352 195.43 33.9135 194.873 33.9135ZM159.796 31.6865C159.24 31.6865 158.683 31.4082 158.404 30.8514C158.126 30.0162 158.683 29.4595 159.24 29.1811C160.075 28.9027 160.91 28.6243 162.023 28.3459C162.859 28.0675 163.415 28.6243 163.694 29.4595C163.972 30.2946 163.415 30.8513 162.58 31.1297C161.745 31.4081 160.91 31.6865 160.075 31.9649C160.075 31.6865 159.796 31.6865 159.796 31.6865ZM184.295 30.8514C183.738 30.8514 183.181 30.573 182.903 30.573L181.511 30.2946C180.676 30.2946 180.119 29.4594 180.397 28.6243C180.397 27.7891 181.232 27.2324 182.068 27.5108L183.459 27.7892C184.016 27.7892 184.295 27.7892 184.851 28.0676C185.687 28.0676 186.243 28.9027 185.965 29.7378C185.687 30.2946 185.13 30.8514 184.295 30.8514ZM170.654 29.7378C169.818 29.7378 169.262 29.181 169.262 28.3459C169.262 27.5107 169.818 26.954 170.654 26.954C171.21 26.954 172.045 26.954 172.602 26.954H173.437C174.273 26.954 174.829 27.5107 174.829 28.3459C174.829 29.181 174.273 29.7378 173.437 29.7378H172.602C171.767 29.7378 171.21 29.7378 170.654 29.7378Z" fill="black"></path><path d="M212.134 58.4112C211.298 58.4112 210.742 57.8544 210.742 57.0193C210.742 56.4625 210.742 56.1842 210.742 55.6274C210.742 54.7923 211.298 54.2355 211.855 53.9571C212.69 53.9571 213.247 54.5138 213.526 55.0706C213.526 55.6274 213.526 55.9057 213.526 56.4625C213.526 57.8544 212.969 58.4112 212.134 58.4112Z" fill="black"></path><path d="M202.947 53.6786L211.02 70.1032L221.042 55.0706L202.947 53.6786Z" fill="black"></path><path d="M22.271 32.2433V22.4999C22.271 21.6648 22.8278 21.3864 23.3846 21.3864C23.9413 21.3864 24.4981 21.6648 24.4981 22.4999V45.6056C24.4981 46.4408 23.9413 46.7191 23.3846 46.7191C22.8278 46.7191 22.271 46.4408 22.271 45.6056V34.1919H8.90827V45.6056C8.90827 46.4408 8.35149 46.7191 7.79471 46.7191C7.23793 46.7191 6.68115 46.4408 6.68115 45.6056V22.4999C6.68115 21.6648 7.23793 21.3864 7.79471 21.3864C8.35149 21.3864 8.90827 21.6648 8.90827 22.4999V32.2433H22.271Z" fill="black"></path><path d="M23.1063 47.2759C21.9927 47.2759 21.1576 46.4408 21.1576 45.3272V35.0271H10.022V45.3272C10.022 46.7191 8.90841 47.2759 8.07324 47.2759C6.95968 47.2759 6.12451 46.4408 6.12451 45.3272V22.2215C6.12451 20.8296 7.23807 20.2728 8.07324 20.2728C9.1868 20.2728 10.022 21.108 10.022 22.2215V30.8514H21.1576V22.2215C21.1576 20.8296 22.2711 20.2728 23.1063 20.2728C24.2199 20.2728 25.055 21.108 25.055 22.2215V45.3272C25.3334 46.7191 24.2199 47.2759 23.1063 47.2759Z" fill="black"></path><path d="M44.2639 21.3864C51.2236 21.3864 56.7914 26.6756 56.7914 33.9135C56.7914 41.1515 51.502 46.4407 44.2639 46.4407C37.3041 46.4407 31.7363 41.1515 31.7363 33.9135C31.7363 26.6756 37.0257 21.3864 44.2639 21.3864ZM44.2639 44.4921C50.1101 44.4921 54.8427 39.7596 54.8427 33.9135C54.8427 28.0675 50.3885 23.3351 44.2639 23.3351C38.4177 23.3351 33.6851 28.0675 33.6851 33.9135C33.6851 39.7596 38.1393 44.4921 44.2639 44.4921Z" fill="black"></path><path d="M44.2638 47.2759C36.4689 47.2759 30.9011 41.4299 30.9011 33.6352C30.9011 25.8405 36.7473 19.9944 44.2638 19.9944C52.0588 19.9944 57.6266 25.8405 57.6266 33.6352C57.6266 41.4299 51.7804 47.2759 44.2638 47.2759ZM44.2638 24.1701C38.9744 24.1701 34.7986 28.3459 34.7986 33.9135C34.7986 39.4812 38.9744 43.6569 44.2638 43.6569C49.5533 43.6569 53.7291 39.4812 53.7291 33.9135C53.7291 28.3459 49.2749 24.1701 44.2638 24.1701Z" fill="black"></path><path d="M83.5166 23.6134C84.0734 21.9431 84.3518 21.6647 85.7437 21.6647C87.4141 21.6647 87.4141 23.0567 87.6925 23.8918L90.7547 45.3272C90.7547 45.884 90.7547 45.884 90.7547 45.884C90.7547 46.4408 90.4764 46.7191 89.6412 46.7191C88.806 46.7191 88.806 46.1624 88.5276 45.6056L85.4653 23.6134L78.2272 45.3272C77.9488 45.884 77.6704 46.7191 76.5569 46.7191C75.4433 46.7191 75.1649 46.1624 74.6081 45.3272L67.37 23.6134L64.3077 45.6056C64.3077 46.1624 64.0293 46.7191 63.1941 46.7191C62.6374 46.7191 62.0806 46.1624 62.0806 45.884C62.0806 45.884 62.0806 45.6056 62.0806 45.3272L65.1429 23.8918C65.1429 23.0567 65.4213 21.6647 67.0916 21.6647C68.4835 21.6647 68.7619 22.2215 69.3187 23.6134L76.2785 44.7705L83.5166 23.6134Z" fill="black"></path><path d="M76.557 47.8326L76.2786 47.2759C74.6083 47.2759 74.0515 46.1623 73.7731 45.0488L67.9269 27.5107L65.4214 45.3272C65.143 46.7191 64.5862 47.2759 63.4727 47.2759C62.0807 47.2759 61.5239 46.4407 61.5239 45.3272C61.5239 45.0488 61.5239 45.0489 61.5239 44.4921L64.5862 23.0566C64.5862 22.2215 65.143 19.9944 67.6485 19.9944C69.5972 19.9944 70.154 21.1079 70.7108 22.7782L76.8354 40.8731L82.96 22.7782C83.5167 21.1079 84.0735 19.9944 86.0222 19.9944C88.5278 19.9944 88.8061 22.2215 89.0845 23.0566L92.1468 44.4921C92.1468 45.0489 92.1468 45.0488 92.1468 45.3272C92.1468 46.1624 91.3117 47.2759 90.1981 47.2759C89.0845 47.2759 88.2494 46.7191 88.2494 45.3272L85.7439 27.7891L79.8977 45.3272C79.6193 45.884 79.3409 47.5543 77.3922 47.5543L76.557 47.8326ZM84.9087 22.7782H86.579C86.3006 22.2214 86.3006 22.2215 85.7439 22.2215C85.1871 22.4999 85.1871 22.4998 84.9087 22.7782ZM67.3701 22.4999C67.0917 22.4999 66.8133 22.4998 66.5349 23.0566H68.2053C67.9269 22.4998 67.9269 22.4999 67.3701 22.4999Z" fill="black"></path><path d="M109.685 32.5216C110.52 32.5216 110.52 33.0785 110.52 33.3568C110.52 33.9136 110.242 34.1919 109.685 34.1919H99.3848V42.8218C99.3848 43.9354 99.6632 43.9353 100.498 43.9353H111.356C112.191 43.9353 112.191 44.4922 112.191 44.7705C112.191 45.3273 111.912 45.6057 111.356 45.6057H100.22C97.436 45.6057 97.436 43.657 97.436 42.5434V24.727C97.436 23.6134 97.436 21.6647 100.22 21.6647H110.799C111.634 21.6647 111.634 22.2215 111.634 22.4999C111.634 23.0567 111.356 23.335 110.799 23.335H100.498C99.6632 23.335 99.3848 23.6134 99.3848 24.4486V31.9649H109.685V32.5216Z" fill="black"></path><path d="M111.356 46.9975H100.22C98.5499 46.9975 96.3228 46.1624 96.3228 42.8218V25.0054C96.3228 22.2216 97.7147 20.8297 100.22 20.8297H110.799C112.191 20.8297 112.748 21.9431 112.748 22.7783C112.748 23.8918 111.913 24.727 110.799 24.727H100.499C100.499 24.727 100.499 24.727 100.22 24.727C100.22 24.727 100.22 24.727 100.22 25.0054V31.6865H109.685C110.799 31.6865 111.634 32.5217 111.634 33.6352C111.634 34.7487 110.799 35.5838 109.685 35.5838H100.22V43.1002C100.22 43.1002 100.22 43.1002 100.22 43.3786C100.22 43.3786 100.22 43.3786 100.499 43.3786H111.356C112.748 43.3786 113.305 44.2137 113.305 45.3272C113.305 46.1623 112.469 46.9975 111.356 46.9975ZM98.8283 23.3351C98.5499 23.3351 98.5499 23.6135 98.5499 23.8919C98.5499 23.6135 98.8283 23.3351 98.8283 23.3351Z" fill="black"></path><path d="M180.953 105.179V95.436C180.953 94.6009 181.51 94.3225 182.067 94.3225C182.623 94.3225 183.18 94.6009 183.18 95.436V118.542C183.18 119.377 182.623 119.655 182.067 119.655C181.51 119.655 180.953 119.377 180.953 118.542V107.128H167.59V118.542C167.59 119.377 167.034 119.655 166.477 119.655C165.92 119.655 165.363 119.377 165.363 118.542V95.436C165.363 94.6009 165.92 94.3225 166.477 94.3225C167.034 94.3225 167.59 94.6009 167.59 95.436V105.179H180.953Z" fill="white"></path><path d="M182.067 120.769C180.675 120.769 179.561 119.655 179.561 118.263V108.242H168.982V118.263C168.982 119.934 167.869 120.769 166.477 120.769C165.085 120.769 163.971 119.655 163.971 118.263V95.1576C163.971 93.4873 165.085 92.6522 166.477 92.6522C167.869 92.6522 168.982 93.7657 168.982 95.1576V103.509H179.561V95.1576C179.561 93.4873 180.675 92.6522 182.067 92.6522C183.459 92.6522 184.572 93.7657 184.572 95.1576V118.263C184.294 119.934 183.18 120.769 182.067 120.769Z" fill="white"></path><path d="M202.946 94.6009C209.906 94.6009 215.474 99.8901 215.474 107.128C215.474 114.366 210.184 119.655 202.946 119.655C195.986 119.655 190.419 114.366 190.419 107.128C190.419 99.8901 195.986 94.6009 202.946 94.6009ZM202.946 117.707C208.792 117.707 213.525 112.974 213.525 107.128C213.525 101.282 209.071 96.5495 202.946 96.5495C197.1 96.5495 192.367 101.282 192.367 107.128C192.367 112.974 197.1 117.707 202.946 117.707Z" fill="white"></path><path d="M202.946 120.769C195.151 120.769 189.027 114.923 189.027 106.85C189.027 98.7766 194.873 92.9306 202.946 92.9306C211.019 92.9306 216.866 98.7766 216.866 106.85C216.866 114.923 210.741 120.769 202.946 120.769ZM202.946 97.6631C197.935 97.6631 193.759 101.839 193.759 106.85C193.759 112.139 197.657 116.036 202.946 116.036C207.957 116.036 212.133 111.861 212.133 106.85C211.855 101.839 207.957 97.6631 202.946 97.6631Z" fill="white"></path><path d="M242.199 96.5495C242.756 94.8792 243.034 94.6009 244.426 94.6009C246.097 94.6009 246.097 95.9928 246.375 96.8279L249.437 118.263C249.437 118.82 249.437 118.82 249.437 118.82C249.437 119.377 249.159 119.655 248.324 119.655C247.489 119.655 247.489 119.099 247.21 118.542L244.148 96.5495L236.91 118.263C236.631 118.82 236.353 119.655 235.239 119.655C233.848 119.655 233.848 119.099 233.291 118.263L226.053 96.5495L222.99 118.542C222.99 119.099 222.712 119.655 221.877 119.655C221.32 119.655 220.763 119.098 220.763 118.82C220.763 118.82 220.763 118.542 220.763 118.263L223.825 96.8279C223.825 95.9928 224.104 94.6009 225.774 94.6009C227.166 94.6009 227.445 95.1576 228.001 96.5495L234.961 117.707L242.199 96.5495Z" fill="white"></path><path d="M235.239 122.161L234.961 121.047C233.012 120.769 232.456 119.377 232.177 118.542L226.888 102.396L224.661 118.542C224.382 120.491 222.99 120.769 222.433 120.769C221.042 120.769 219.928 119.655 219.928 118.542C219.928 118.263 219.928 118.263 219.928 117.707L222.99 96.2712C223.269 94.3225 224.104 93.4873 225.496 92.9306L226.053 89.8683L226.888 92.6522C228.836 92.9306 229.393 94.3225 229.672 95.7144L235.239 112.696L240.807 95.7144C241.364 94.6009 241.642 92.9306 243.591 92.6522L244.426 89.8683L244.983 92.9306C246.375 93.209 247.21 94.3225 247.489 95.9928L250.551 117.428C250.551 117.985 250.551 117.985 250.551 118.263C250.551 119.655 249.437 120.49 248.045 120.49C247.21 120.49 245.818 120.212 245.818 118.263L243.591 102.117L238.302 118.263C238.023 118.82 237.467 120.49 235.518 120.769L235.239 122.161Z" fill="white"></path><path d="M268.646 105.736C269.481 105.736 269.481 106.293 269.481 106.571C269.481 107.128 269.203 107.407 268.646 107.407H258.346V116.036C258.346 117.15 258.624 117.15 259.459 117.15H270.038C270.873 117.15 270.873 117.707 270.873 117.985C270.873 118.542 270.595 118.82 270.038 118.82H258.903C256.119 118.82 256.119 116.872 256.119 115.758V97.9414C256.119 96.8279 256.119 94.8793 258.903 94.8793H269.76C270.595 94.8793 270.595 95.436 270.595 95.7144C270.595 96.2712 270.317 96.5495 269.76 96.5495H259.459C258.624 96.5495 258.346 96.828 258.346 97.6631V105.179H268.646V105.736Z" fill="white"></path><path d="M270.038 120.49H258.903C256.954 120.49 254.727 119.655 254.727 116.036V98.2198C254.727 94.6009 256.954 93.7657 258.903 93.7657H269.76C271.152 93.7657 271.987 94.8793 271.987 95.9928C271.987 97.3847 270.873 98.2198 269.76 98.2198H259.738V104.344H268.646C270.038 104.344 270.873 105.458 270.873 106.571C270.873 107.963 270.038 108.798 268.646 108.798H259.738V115.758H270.317C271.709 115.758 272.544 116.871 272.544 117.985C272.265 119.377 271.43 120.49 270.038 120.49Z" fill="white"></path><path d="M116.367 0.786011H0V5.51862H116.367V0.786011Z" fill="black"></path><path d="M116.367 59.5247H0V64.2573H116.367V59.5247Z" fill="black"></path></svg> 