<?xml version="1.0" encoding="UTF-8"?> <svg xmlns="http://www.w3.org/2000/svg" width="844" height="364" viewBox="0 0 844 364" fill="none"><path d="M39.8885 310.633C41.3389 310.633 44.9649 310.633 44.9649 314.259C44.9649 315.709 42.7893 331.664 29.7356 344.718C21.0331 353.42 10.155 356.321 9.4298 356.321C7.97939 356.321 7.97938 355.596 7.97938 354.871C7.97938 353.42 7.97938 353.42 11.6054 352.695C19.5827 349.794 26.1096 344.717 31.9112 338.19C26.1096 333.839 19.5827 329.488 11.6054 325.137C10.8802 325.862 5.07857 332.389 3.62815 332.389C2.90295 332.389 2.17773 331.663 2.17773 330.938C2.17773 330.213 2.17773 330.214 4.35335 328.763C7.25417 325.862 10.8802 322.961 15.2314 314.984C17.4071 311.358 17.4071 311.358 22.4835 311.358H39.8885V310.633ZM20.3079 314.259C18.8575 314.259 18.1323 314.984 18.1323 315.709C16.6819 318.61 14.5062 321.511 13.0558 322.961C20.3079 326.587 26.8347 330.939 33.3616 336.015C34.812 333.84 37.7129 329.488 39.8885 322.961C40.6137 320.06 41.3389 317.159 41.3389 316.434C41.3389 314.983 39.8885 314.984 39.1633 314.984H20.3079V314.259Z" fill="black"></path><path d="M10.1529 357.772C7.97728 357.772 6.52687 355.596 6.52687 354.146C6.52687 351.97 7.97727 351.245 10.8781 349.795C18.1301 346.894 23.9318 342.542 29.0082 337.466C24.657 333.84 18.8553 330.214 11.6033 326.588C6.52684 331.664 4.35124 333.115 3.62603 333.115C2.17562 333.115 0 331.664 0 329.489C0 328.038 0.7252 327.313 2.17561 325.863C5.80164 322.962 8.70247 320.061 13.0537 312.808C15.2293 308.457 16.6797 308.457 21.7562 308.457H39.8863C44.2376 308.457 47.1384 310.633 47.1384 314.259C47.1384 317.16 44.2376 333.84 31.1839 345.443C21.7562 354.871 10.8781 357.772 10.1529 357.772ZM33.3595 336.741V337.466V338.191C34.0847 337.466 34.0847 337.466 34.8099 336.741H34.0847C33.3595 336.741 33.3595 336.741 33.3595 336.741ZM15.9545 322.237C22.4814 325.863 28.283 329.489 33.3595 333.115C34.8099 330.939 36.9855 327.313 38.4359 322.237C39.1611 319.336 39.8863 317.16 39.8863 316.435H39.1611H20.3058H19.5806C19.5806 316.435 19.5806 316.435 19.5806 317.16C18.8554 317.886 17.4049 320.061 15.9545 322.237ZM11.6033 322.237C11.6033 322.962 10.8781 322.961 10.8781 323.687H11.6033C11.6033 322.961 11.6033 322.962 11.6033 322.237C11.6033 322.237 11.6033 322.962 11.6033 322.237ZM41.3367 312.808C42.062 313.534 42.7872 314.259 42.7872 315.71C42.7872 315.71 42.7872 315.709 42.7872 316.435C42.7872 315.709 42.7872 314.984 42.7872 314.984C43.5124 313.534 42.7872 312.808 41.3367 312.808Z" fill="black"></path><path d="M95.7272 354.871C95.7272 355.596 95.7272 357.047 94.2768 357.047C92.1012 357.047 92.1012 355.596 92.1012 354.871V324.413C81.2231 330.94 71.0702 333.84 70.345 333.84C69.6197 333.84 68.8945 333.115 68.8945 331.665C68.8945 330.94 69.6197 330.214 71.7954 329.489C86.2995 324.412 97.9028 317.161 105.88 310.634C107.33 309.183 107.33 309.183 109.506 307.008C109.506 307.008 110.231 306.283 110.957 306.283C111.682 306.283 112.407 307.008 112.407 307.733C112.407 308.458 111.682 309.184 110.957 309.909C105.155 314.985 99.3532 318.611 95.002 321.512V354.871H95.7272Z" fill="black"></path><path d="M94.2819 358.497C93.5567 358.497 90.6558 358.497 90.6558 354.871V327.312C81.2281 332.389 71.8005 336.016 71.0753 336.016C68.8996 336.016 67.4492 333.84 67.4492 332.39C67.4492 330.214 68.8996 329.489 71.0753 328.763C86.3046 322.962 97.9079 315.71 105.16 309.908C106.61 309.183 106.61 308.457 108.061 307.007L108.786 306.282C109.511 305.557 110.236 304.831 111.687 304.831C113.862 304.831 115.313 306.281 115.313 308.457C115.313 309.907 114.588 310.633 113.137 312.083C107.336 317.16 102.259 320.06 97.9079 322.961V354.871C97.9079 357.772 95.7323 358.497 94.2819 358.497ZM92.1062 322.236H92.8314C93.5566 322.236 93.5567 322.961 93.5567 323.686V354.146V321.511V320.786C93.5567 321.511 92.8315 322.236 92.1062 322.236ZM109.511 307.732L110.962 309.182L109.511 307.732Z" fill="black"></path><path d="M143.59 327.313C149.392 325.863 160.995 322.962 170.423 318.611C172.599 317.886 172.599 317.886 172.599 317.886C173.324 317.886 174.049 318.611 174.049 320.061C174.049 320.786 173.324 321.512 171.873 322.237C159.545 328.039 148.667 330.214 143.59 330.939V343.993C143.59 350.52 145.041 351.971 162.446 351.971C166.797 351.971 172.599 351.971 178.4 351.246H180.576C181.301 351.246 182.026 351.97 182.026 352.696C182.026 353.421 182.026 354.147 180.576 354.147C178.4 354.872 165.346 354.872 161.72 354.872C147.216 354.872 140.689 354.146 140.689 343.993V309.183C140.689 307.732 141.415 307.733 142.865 307.733C144.315 307.733 144.315 308.458 144.315 309.183V327.313H143.59ZM189.278 310.634C189.278 314.985 185.652 318.611 181.301 318.611C176.95 318.611 173.324 314.985 173.324 310.634C173.324 306.283 176.95 302.657 181.301 302.657C185.652 301.931 189.278 305.557 189.278 310.634ZM176.225 310.634C176.225 313.535 178.4 315.71 181.301 315.71C184.202 315.71 186.377 313.535 186.377 310.634C186.377 307.733 184.202 305.557 181.301 305.557C178.4 305.557 176.225 307.733 176.225 310.634Z" fill="black"></path><path d="M160.991 356.321C147.937 356.321 138.51 356.321 138.51 343.993V309.182C138.51 307.732 139.235 305.556 142.136 305.556C144.311 305.556 145.762 307.007 145.762 309.182V325.863C153.014 324.412 162.442 321.511 169.694 317.885C171.869 317.16 171.869 316.435 172.594 316.435C171.869 314.984 171.144 312.809 171.144 311.358C171.144 305.557 175.495 301.205 181.297 301.205C187.099 301.205 191.45 305.557 191.45 311.358C191.45 317.16 187.099 321.511 181.297 321.511C179.847 321.511 177.671 320.786 176.221 320.061C176.221 320.061 176.221 320.061 176.221 320.786C176.221 322.962 174.77 323.687 172.594 324.412C160.991 329.489 150.838 331.664 145.037 333.115V343.993C145.037 349.069 145.037 349.795 161.716 349.795C164.617 349.795 171.144 349.794 176.946 349.069C176.946 349.069 177.671 349.069 178.396 349.069C179.121 349.069 179.121 349.069 179.847 349.069C182.022 349.069 183.473 350.519 183.473 352.695C183.473 354.145 182.747 355.596 180.572 356.321C178.396 356.321 162.442 356.321 160.991 356.321ZM142.136 344.718C142.136 346.893 142.861 349.07 144.311 349.795C142.861 349.07 142.136 346.893 142.136 344.718ZM142.136 327.313V329.489C142.136 328.763 142.861 328.764 142.861 328.039C142.136 328.039 142.136 328.038 142.136 327.313ZM181.297 307.007C179.121 307.007 177.671 308.458 177.671 310.633C177.671 312.809 179.121 314.259 181.297 314.259C183.473 314.259 184.923 312.809 184.923 310.633C184.198 308.458 182.747 307.007 181.297 307.007Z" fill="black"></path><path d="M219.013 315.709C223.364 317.884 224.089 318.61 224.089 319.335C224.089 320.785 223.364 321.511 222.639 321.511C221.913 321.511 221.188 321.511 220.463 320.786C216.112 318.61 211.035 316.434 207.409 314.984C206.684 314.984 205.959 314.259 205.959 313.534C205.959 312.809 206.684 312.083 208.135 312.083C208.86 310.632 213.936 312.808 219.013 315.709ZM250.922 323.686C250.922 324.411 245.845 333.114 237.143 340.366C222.639 351.97 208.86 354.871 208.135 354.871C206.684 354.871 205.959 354.145 205.959 352.695C205.959 351.244 205.959 351.245 210.31 350.52C222.639 347.619 236.418 338.916 245.845 325.137C248.021 322.236 248.021 322.236 248.746 322.236C250.197 322.236 250.922 322.961 250.922 323.686Z" fill="black"></path><path d="M208.132 357.047C205.957 357.047 204.506 355.597 204.506 353.421C204.506 350.52 205.957 350.519 210.308 349.069C224.087 345.443 236.416 336.741 245.118 324.413C247.294 321.512 248.019 320.061 249.469 320.061C251.645 320.061 253.095 321.511 253.095 323.687C253.095 325.862 246.568 334.565 238.591 341.817C224.087 354.145 209.583 357.047 208.132 357.047ZM207.407 353.421C209.583 353.421 222.637 349.795 235.69 338.917C242.217 333.115 246.568 327.313 248.744 324.413C248.744 325.138 248.019 325.863 247.294 325.863C238.591 338.191 224.812 348.344 210.308 351.97C209.583 352.695 208.132 353.421 207.407 353.421ZM222.637 322.962C221.911 322.962 220.461 322.237 219.736 321.512C216.835 319.336 212.484 317.885 206.682 315.71C205.957 315.71 203.781 314.984 203.781 312.809C203.781 311.358 205.232 309.182 207.407 309.182C208.858 309.182 215.385 311.359 219.736 314.259C224.087 316.435 225.537 317.16 225.537 319.336C226.263 321.511 224.087 322.962 222.637 322.962ZM213.934 314.985C216.835 316.435 219.011 317.16 221.186 318.611C221.911 318.611 222.637 319.336 222.637 319.336C221.911 318.61 219.736 317.16 218.285 317.16C216.835 316.435 215.385 315.71 213.934 314.985Z" fill="black"></path><path d="M286.466 314.26C285.015 314.26 285.015 314.259 283.565 316.435C278.488 325.137 271.961 331.665 270.511 331.665C269.786 331.665 269.061 330.939 269.061 330.214C269.061 329.489 269.786 328.764 271.236 328.039C275.587 323.687 278.488 320.786 281.389 314.985C282.84 312.084 284.29 312.084 287.916 312.084H304.596C308.222 312.084 309.672 314.259 309.672 316.435C309.672 317.885 307.497 335.29 292.992 347.619C285.015 354.871 277.038 357.772 276.313 357.772C274.862 357.772 274.862 357.046 274.862 356.321C274.862 354.871 275.587 354.871 277.038 354.146C299.519 345.444 305.321 322.962 305.321 317.161C305.321 315.71 303.87 315.71 303.145 315.71H286.466V314.26ZM313.298 309.908C315.474 312.809 316.199 314.984 316.199 315.71C316.199 316.435 315.474 317.161 314.749 317.161C314.023 317.161 313.298 317.161 311.848 313.535C311.123 311.359 309.672 309.183 308.947 308.458C308.947 307.732 308.222 307.733 308.222 307.007C308.222 306.282 308.947 305.557 310.397 305.557C311.123 305.557 311.123 305.557 313.298 309.908ZM320.55 305.557C320.55 306.282 324.176 310.633 324.176 312.084C324.176 312.809 323.451 313.535 322.726 313.535C322.001 313.535 321.275 312.809 320.55 311.359C319.1 309.183 318.375 307.007 316.924 304.106C316.924 303.381 316.199 303.382 316.199 302.656C316.199 301.931 316.924 301.205 318.375 301.205C318.375 301.931 318.375 301.93 320.55 305.557Z" fill="black"></path><path d="M277.034 358.497C274.858 358.497 273.408 356.322 273.408 354.871C273.408 352.696 274.858 351.97 277.034 351.245C298.065 343.268 304.592 322.236 304.592 316.435H303.866H286.461H285.736C285.736 316.435 285.736 317.161 285.011 317.161C280.66 324.413 273.408 333.115 270.507 333.115C269.056 333.115 266.881 331.665 266.881 329.489C266.881 328.039 267.606 327.313 269.782 325.863C274.133 322.237 276.309 318.611 279.935 313.535C282.11 309.909 284.286 309.909 287.912 309.909H304.592C305.317 309.909 306.042 309.909 306.767 309.909V309.183C306.767 308.457 306.042 307.733 306.042 307.008C306.042 306.282 306.767 305.557 307.492 304.832C308.218 304.106 309.668 304.107 310.393 304.107C311.844 304.832 312.569 305.557 314.744 309.183C316.195 311.358 317.645 314.259 317.645 315.71C317.645 317.885 316.195 319.336 314.019 319.336C312.569 319.336 311.844 318.611 311.118 317.161C310.393 322.237 306.767 336.741 294.439 347.619C287.187 354.871 278.484 358.497 277.034 358.497ZM279.209 354.146H278.484C277.759 354.146 277.034 354.871 277.034 354.871C277.034 354.871 277.759 354.146 279.209 354.146ZM272.682 328.039C271.957 328.764 271.232 329.489 271.232 329.489C271.232 329.489 271.957 328.764 272.682 328.039ZM306.767 313.535C307.492 314.26 308.218 314.984 308.218 316.435C308.218 316.435 308.218 316.436 308.218 317.161C308.218 316.436 308.218 315.71 308.218 315.71C308.218 314.259 308.218 313.535 306.767 313.535ZM321.997 315.71C319.821 315.71 319.096 314.259 318.371 312.809C316.92 309.908 315.47 307.733 314.744 306.283C314.744 306.283 314.019 304.832 314.019 304.107C314.019 303.381 314.744 301.931 315.47 301.931C316.195 301.205 317.645 301.206 318.371 301.206C319.821 301.206 320.546 301.931 322.722 305.557C322.722 306.282 326.348 311.358 326.348 312.809C325.623 314.259 323.447 315.71 321.997 315.71ZM321.997 310.634C321.997 311.359 322.722 311.359 322.722 311.359C321.997 312.084 321.997 311.359 321.997 310.634Z" fill="black"></path><path d="M346.656 309.908C344.48 309.908 343.755 310.633 343.755 312.808V328.038C343.755 333.84 343.755 344.718 339.404 354.146C337.954 357.047 337.228 357.772 336.503 357.772C335.778 357.772 335.053 357.046 335.053 356.321C335.053 355.596 335.053 355.596 335.778 354.871C340.854 345.443 341.58 337.466 341.58 328.764V313.534C341.58 309.183 343.03 307.732 347.381 307.732H375.664C377.84 307.732 378.565 307.732 380.016 308.457C382.191 309.908 382.191 312.083 382.191 312.808C382.191 312.808 382.191 314.259 382.191 314.984C382.191 322.236 382.191 325.863 382.191 328.764C382.191 332.39 382.191 344.718 383.642 351.97C383.642 353.42 384.367 354.146 385.092 354.146C385.817 354.146 386.542 352.696 387.268 346.894C387.268 346.169 387.268 345.443 388.718 345.443C389.443 345.443 390.168 346.169 390.168 346.894C390.168 348.344 389.443 352.696 388.718 354.146C387.993 355.596 387.268 357.772 385.092 357.772C383.642 357.772 382.191 357.047 381.466 354.871C379.29 349.069 379.29 335.29 379.29 333.115C379.29 330.214 379.29 315.709 379.29 312.808C379.29 311.358 378.565 309.908 376.39 309.908H346.656V309.908ZM358.985 341.092H352.458C348.832 341.092 347.381 339.642 347.381 336.016V327.313C347.381 323.687 348.832 322.236 352.458 322.236H358.985V316.434C353.183 316.434 350.282 316.434 347.381 316.434C346.656 316.434 345.931 316.435 345.931 314.984C345.931 313.534 346.656 313.534 347.381 313.534C358.985 313.534 364.061 312.808 367.687 312.808C368.412 312.808 372.763 312.083 372.763 312.083C373.489 312.083 374.214 312.809 374.214 313.534C374.214 314.985 373.489 314.984 372.763 314.984C369.863 315.71 364.786 315.709 361.16 316.434V322.236H367.687C371.313 322.236 372.763 323.687 372.763 327.313V336.016C372.763 339.642 371.313 341.092 367.687 341.092H361.16V350.52C362.611 350.52 368.412 350.52 369.863 350.52C369.137 349.069 369.137 349.069 367.687 346.894C367.687 346.169 366.962 346.169 366.962 346.169C366.962 345.444 367.687 344.718 368.412 344.718C369.137 344.718 369.137 344.718 371.313 347.619C373.489 350.52 376.39 355.597 376.39 357.047C376.39 358.497 374.939 358.497 374.214 358.497C373.489 358.497 373.489 357.772 372.763 357.772C372.038 356.322 372.038 355.596 371.313 354.871C362.611 355.596 348.106 356.321 343.755 356.321C343.03 356.321 342.305 356.321 342.305 354.871C342.305 353.421 343.755 353.421 343.755 353.421C345.931 353.421 356.084 353.421 358.259 353.421V341.092H358.985ZM358.985 325.862H353.183C351.732 325.862 351.007 326.588 351.007 328.038V336.016C351.007 337.466 351.732 338.191 353.183 338.191H358.985V325.862ZM362.611 338.191H368.412C369.863 338.191 370.588 337.466 370.588 336.016V328.038C370.588 326.588 369.863 325.862 368.412 325.862H362.611V338.191Z" fill="black"></path><path d="M383.637 359.947C381.462 359.947 379.286 358.497 378.561 356.321C377.836 358.497 376.385 359.222 374.935 359.222C372.759 359.222 372.034 357.772 372.034 357.047C371.309 355.597 371.309 355.597 371.309 354.871C362.606 355.597 349.553 356.321 345.202 356.321C342.301 356.321 341.575 354.146 341.575 353.421C341.575 354.146 340.85 354.871 340.85 355.596C339.4 358.497 338.675 360.673 336.499 360.673C334.323 360.673 332.873 359.223 332.873 357.047C332.873 356.322 332.873 355.597 333.598 354.871C337.949 346.169 338.675 338.917 338.675 329.489V314.26C338.675 309.183 340.85 306.283 346.652 306.283H374.935C377.836 306.283 378.561 306.283 380.011 307.008C382.187 308.458 382.912 310.633 382.912 312.809C382.912 313.534 382.912 314.26 382.912 314.985C382.912 322.237 382.912 325.863 382.912 328.764C382.912 337.467 382.912 343.993 383.637 349.069C383.637 348.344 383.637 347.619 383.637 346.894C383.637 343.993 385.813 343.268 386.538 343.268C387.989 343.268 390.164 344.719 390.164 346.894C390.164 349.07 389.439 353.421 388.714 354.871C388.714 356.322 387.263 359.947 383.637 359.947ZM382.912 355.596C383.637 356.322 384.363 356.322 385.088 355.596C384.363 355.596 383.637 356.322 382.912 355.596ZM371.309 342.543C372.034 343.268 372.759 343.993 373.485 344.718C373.485 344.718 375.66 348.344 377.111 351.245C375.66 343.268 375.66 332.39 375.66 332.39C375.66 330.94 375.66 326.588 375.66 321.512C375.66 319.336 375.66 317.885 375.66 316.435C374.935 316.435 374.935 317.161 374.21 317.161C372.034 317.886 367.683 317.886 364.057 318.611V320.787H368.408C372.759 320.787 374.935 322.962 374.935 327.313V336.016C374.935 339.642 374.21 341.818 371.309 342.543ZM372.034 351.245C372.759 351.245 372.759 351.245 372.034 351.245C372.759 350.52 372.759 350.52 372.034 351.245C372.034 350.52 372.759 350.52 372.034 351.245ZM345.202 318.611V328.764C345.202 334.566 345.202 342.543 342.301 350.52C343.026 349.795 343.751 349.795 345.202 349.795H351.728C353.904 349.795 356.08 349.795 357.53 349.795V343.993H353.179C348.828 343.993 346.652 341.817 346.652 337.466V328.764C346.652 324.413 348.828 322.237 353.179 322.237H357.53V320.061C353.179 320.061 350.278 320.061 348.102 320.061C346.652 319.336 345.927 318.611 345.202 318.611ZM364.057 343.268V349.069H366.232C366.958 349.069 366.958 349.069 367.683 349.069L366.958 347.619C366.232 346.894 366.232 346.168 366.232 345.443C366.232 344.718 366.232 343.993 366.958 343.268H364.057ZM360.431 339.642C360.431 339.642 360.431 340.367 360.431 339.642C361.156 339.642 361.156 339.642 361.156 339.642C361.156 339.642 361.156 339.642 360.431 339.642ZM364.057 336.741H368.408C368.408 336.741 368.408 336.741 369.133 336.741V328.764C369.133 328.764 369.133 328.764 369.133 328.039H364.782V336.741H364.057ZM353.179 328.039L352.454 336.741L353.179 337.466H357.53V328.764H353.179V328.039ZM360.431 324.413C360.431 324.413 360.431 325.138 360.431 324.413C361.156 325.138 361.156 324.413 360.431 324.413C361.156 324.413 361.156 324.413 360.431 324.413ZM346.652 312.084C345.927 312.084 345.202 312.084 345.202 313.535V314.26C345.927 313.535 346.652 313.535 348.102 313.535C358.98 313.535 364.782 312.809 368.408 312.809H369.859C369.859 312.809 369.859 312.809 370.584 312.809H346.652V312.084Z" fill="black"></path><path d="M409.75 309.908C409.75 309.183 410.476 308.457 411.201 308.457C411.926 308.457 412.651 308.458 412.651 309.908C412.651 310.633 412.651 311.358 412.651 311.358C410.476 319.336 409.75 327.313 409.75 335.291C409.75 338.917 409.75 344.719 411.201 349.795C411.201 349.795 411.926 352.696 411.926 353.421C411.926 354.146 411.201 354.871 410.476 354.871C409.025 354.871 409.025 354.146 409.025 353.421C408.3 351.971 406.85 345.443 406.85 334.565C406.85 327.313 408.3 313.534 409.75 309.908ZM426.43 335.291C427.155 335.291 427.881 336.016 427.881 336.741C427.881 337.466 427.881 337.466 427.155 338.191C426.43 339.641 424.255 341.092 424.255 343.268C424.255 347.619 428.606 349.069 438.033 349.069C440.934 349.069 443.835 349.069 446.736 348.344C447.461 348.344 450.362 347.619 450.362 347.619C450.362 347.619 452.538 347.619 452.538 349.069C452.538 349.794 452.538 350.52 451.087 350.52C449.637 351.245 443.835 351.245 438.759 351.245C430.781 351.245 421.354 350.52 421.354 342.543C421.354 338.917 424.98 335.291 426.43 335.291ZM448.186 317.16C448.186 317.16 440.934 317.16 439.484 317.16C434.407 317.16 430.781 317.16 428.606 317.885C427.881 317.885 425.705 317.885 424.98 317.885C423.529 317.885 423.529 316.434 423.529 316.434C423.529 315.709 423.529 314.984 424.98 314.984C425.705 314.984 433.682 314.259 438.033 314.259C439.484 314.259 447.461 314.259 448.186 314.984C448.912 314.984 448.912 315.709 448.912 316.434C450.362 316.434 449.637 317.16 448.186 317.16Z" fill="black"></path><path d="M410.472 357.047C409.021 357.047 407.571 356.321 406.846 354.146C406.846 353.421 404.67 346.893 404.67 334.565C404.67 326.587 406.845 312.808 407.571 309.182C408.296 307.007 409.746 307.007 411.197 307.007C412.647 307.007 414.823 308.458 414.823 310.633C414.823 311.358 414.823 312.083 414.823 312.808C412.647 320.786 411.922 328.038 411.922 336.016C411.922 341.092 412.647 346.169 413.372 349.795C413.372 349.795 414.098 352.696 414.098 353.421C414.098 355.596 412.647 357.047 410.472 357.047ZM439.48 354.146C433.678 354.146 419.899 354.146 419.899 343.268C419.899 338.916 423.525 333.115 426.426 333.115C427.877 333.115 430.052 334.565 430.052 336.016C430.052 336.741 429.327 338.191 429.327 338.191C428.602 339.641 427.151 341.092 427.151 342.543C427.151 343.993 427.151 346.169 439.48 346.169C442.381 346.169 445.281 346.168 447.457 345.443H448.182C449.633 345.443 451.083 345.443 451.083 345.443C453.984 345.443 454.709 346.893 454.709 349.069C454.709 350.519 453.984 351.97 452.534 352.695C450.358 353.42 444.556 354.146 439.48 354.146ZM425.701 319.335C423.525 319.335 422.075 317.885 422.075 315.709C422.075 313.534 423.525 312.808 424.976 312.083C426.426 312.083 433.678 311.358 438.029 311.358C447.457 311.358 448.908 312.083 448.908 312.083C449.633 312.083 451.083 312.809 451.083 314.984C451.083 317.16 449.633 318.61 447.457 318.61C447.457 318.61 446.732 318.61 446.007 318.61C443.831 318.61 439.48 318.61 438.755 318.61C434.403 318.61 431.503 318.61 428.602 319.335H427.151C427.151 319.335 425.701 319.335 425.701 319.335ZM448.182 315.709V317.16V315.709Z" fill="black"></path><path d="M470.663 315.709C469.938 315.709 469.213 315.709 469.213 314.259C469.213 312.809 470.663 312.808 470.663 312.808H493.87V306.282C493.87 305.557 493.87 304.831 495.32 304.831C496.771 304.831 496.771 305.557 496.771 306.282V312.808H519.977C520.703 312.808 521.428 312.809 521.428 314.259C521.428 315.709 519.977 315.709 519.977 315.709H512C509.824 322.236 506.924 332.389 497.496 341.817C504.023 347.618 511.275 351.97 519.977 354.146C521.428 354.146 521.428 354.871 521.428 355.596C521.428 356.321 520.703 357.772 519.977 357.772C518.527 357.772 506.924 354.146 495.32 343.993C485.167 353.42 472.114 357.772 470.663 357.772C469.213 357.772 469.213 356.321 469.213 355.596C469.213 354.871 469.938 354.146 470.663 354.146C480.816 351.245 487.343 346.893 493.145 341.817C485.167 333.114 480.816 322.961 478.641 315.709H470.663ZM482.992 315.709C485.893 325.862 490.969 333.84 496.046 339.642C502.572 333.115 506.924 324.412 509.825 315.709H482.992Z" fill="black"></path><path d="M520.7 359.948C518.525 359.948 506.922 356.323 496.043 346.895C485.891 355.597 472.837 359.948 471.386 359.948C469.211 359.948 467.76 357.773 467.76 356.322C467.76 354.146 469.936 353.421 470.661 352.696C478.638 349.795 485.89 346.169 490.967 341.818C482.99 333.115 479.364 322.963 477.913 317.161H470.661C467.76 317.161 467.035 314.985 467.035 313.535C467.035 312.084 467.76 309.909 470.661 309.909H492.417V305.557C492.417 302.656 493.868 301.93 496.043 301.93C498.219 301.93 499.669 303.381 499.669 305.557V309.909H520.7C523.601 309.909 524.326 311.359 524.326 313.535C524.326 315.71 523.601 317.161 520.7 317.161H514.174C511.998 324.413 508.372 333.115 501.12 341.818C506.921 346.894 513.448 350.52 521.426 352.696C522.151 352.696 524.326 353.421 524.326 355.597C524.326 358.498 522.876 359.948 520.7 359.948ZM475.738 354.872C474.287 355.597 472.837 355.597 472.112 356.322C471.386 356.322 471.386 356.322 471.386 356.322C472.112 356.322 473.562 355.597 475.738 354.872ZM496.043 342.544C496.769 342.544 496.769 341.818 496.769 341.818H496.043C496.043 341.818 496.043 341.818 495.318 341.818C495.318 341.818 495.318 341.818 496.043 342.544C495.318 342.544 495.318 342.544 496.043 342.544ZM485.165 317.886C487.341 325.138 490.967 331.665 496.043 337.466C501.12 332.39 504.746 325.138 506.922 317.886H485.165ZM510.548 314.26C510.548 314.26 511.273 314.985 510.548 314.26C511.273 314.985 511.273 314.985 510.548 314.26C511.273 314.26 511.273 314.26 511.273 314.26H510.548ZM480.814 314.26C480.814 314.985 480.814 314.985 480.814 314.26C481.539 314.985 481.539 314.985 480.814 314.26C481.539 314.26 481.539 314.26 481.539 314.26H480.814ZM495.318 314.26H496.043L495.318 313.535C496.043 313.535 496.043 313.535 495.318 314.26Z" fill="black"></path><path d="M564.935 351.97C564.935 356.321 563.484 357.772 559.133 357.772H552.606C551.881 357.772 551.156 357.046 551.156 356.321C551.156 354.871 551.881 354.871 552.606 354.871C553.331 354.871 556.958 354.871 558.408 354.871C559.858 354.871 562.034 354.871 562.034 351.97V339.642H538.827C538.102 339.642 537.377 339.641 537.377 338.191C537.377 336.74 538.827 336.74 538.827 336.74H562.034V331.664C562.034 330.939 562.034 330.213 563.484 330.213C564.21 330.213 564.21 330.213 564.935 330.213C567.11 329.488 569.286 328.038 572.912 326.587C573.637 325.862 574.362 325.862 574.362 325.137C574.362 324.412 573.637 324.412 572.912 324.412H547.53C546.805 324.412 546.079 324.412 546.079 322.961C546.079 321.511 547.53 321.511 547.53 321.511H573.637C575.813 321.511 577.988 321.511 577.988 324.412C577.988 326.588 576.538 327.313 575.088 328.763C574.362 328.763 570.736 330.939 565.66 333.114V336.74H588.867C589.592 336.74 590.317 336.74 590.317 338.191C590.317 339.641 588.867 339.642 588.867 339.642H565.66V351.97H564.935ZM582.34 309.908C586.691 309.908 588.141 311.358 588.141 315.709V322.961C588.141 323.686 588.141 324.412 586.691 324.412C585.241 324.412 585.241 322.961 585.241 322.961V315.709C585.241 313.533 584.515 312.808 582.34 312.808H544.629C542.453 312.808 541.728 313.533 541.728 315.709V322.961C541.728 323.686 541.728 324.412 540.278 324.412C538.827 324.412 538.827 323.686 538.827 322.961V315.709C538.827 311.358 540.278 309.908 544.629 309.908H562.034V306.282C562.034 305.557 562.034 304.831 563.484 304.831C564.935 304.831 564.935 305.557 564.935 306.282V309.908H582.34Z" fill="black"></path><path d="M559.132 359.223H552.605C550.43 359.223 548.979 357.773 548.979 355.597C548.979 354.872 548.979 351.971 552.605 351.971C553.331 351.971 554.056 351.971 555.506 351.971C556.957 351.971 557.682 351.971 557.682 351.971C559.132 351.971 559.132 351.971 559.132 350.521V340.367H537.376C534.475 340.367 533.75 338.917 533.75 336.741C533.75 334.566 534.475 333.115 537.376 333.115H559.132V329.489C559.132 325.863 562.033 325.863 563.483 325.863C564.934 325.138 566.384 324.412 567.835 323.687H547.529C544.628 323.687 543.903 322.237 543.903 320.787C543.903 319.336 544.628 317.161 547.529 317.161H573.636C575.087 317.161 579.438 317.161 579.438 321.512C579.438 324.413 577.262 325.863 575.087 327.313C574.362 328.038 570.736 329.49 566.384 331.665V332.39H588.14C591.041 332.39 591.766 333.841 591.766 336.016C591.766 338.192 591.041 339.642 588.14 339.642H566.384V350.521C566.384 357.048 564.209 359.223 559.132 359.223ZM562.758 354.147C562.033 354.872 561.308 355.597 560.583 355.597C562.033 355.597 562.758 354.872 562.758 354.147ZM562.758 337.466C562.758 338.192 562.758 338.192 562.758 337.466C563.483 338.192 563.483 337.466 564.209 337.466C563.483 337.466 563.483 337.466 562.758 337.466ZM575.087 322.237C575.812 322.962 575.812 322.962 575.812 323.687V322.962C575.812 322.962 575.812 322.237 575.087 322.237ZM586.69 325.863C585.24 325.863 583.064 325.138 583.064 322.237V314.985C583.064 314.26 583.064 313.535 581.614 313.535H543.903C543.178 313.535 542.453 313.534 542.453 314.985V322.237C542.453 325.138 539.552 325.863 538.826 325.863C538.101 325.863 535.2 325.863 535.2 322.237V314.985C535.2 309.908 537.376 307.007 542.453 307.007H558.407V305.557C558.407 301.93 561.308 301.93 562.033 301.93C562.758 301.93 565.659 301.93 565.659 305.557V307.007H581.614C586.69 307.007 589.591 309.183 589.591 314.985V322.237C590.316 325.138 588.14 325.863 586.69 325.863ZM585.24 312.084C585.965 312.084 585.965 312.809 585.965 313.535C585.965 312.809 585.965 312.084 585.24 312.084ZM562.758 310.634C563.483 310.634 563.483 310.634 562.758 310.634V310.634Z" fill="black"></path><path d="M620.776 320.061C622.226 316.435 622.951 312.809 622.951 309.183C622.951 307.007 622.951 306.283 625.127 306.283C625.852 306.283 627.302 307.007 627.302 307.733C627.302 308.458 626.577 312.809 625.127 319.336C625.852 319.336 626.577 319.336 628.028 319.336C640.356 319.336 641.081 326.588 641.081 333.84C641.081 351.971 636.005 354.872 628.753 354.872C622.951 354.872 622.951 353.421 622.951 352.696C622.951 351.97 623.677 351.246 624.402 351.246H625.852C627.303 351.246 628.028 351.246 628.753 351.246C633.829 351.246 637.455 349.795 637.455 333.115C637.455 326.588 636.73 321.512 628.028 321.512C626.577 321.512 625.127 321.512 624.402 321.512C620.776 337.467 616.424 346.169 612.798 351.971C612.073 353.421 611.348 354.147 610.623 354.147C610.623 354.147 608.447 354.146 608.447 352.696C608.447 351.97 608.447 351.971 609.898 349.795C614.249 342.543 617.875 332.39 620.776 322.237C618.6 322.237 608.447 324.413 607.722 324.413C606.997 324.413 606.271 323.687 606.271 322.962C606.271 321.512 606.997 321.512 609.172 321.512L620.776 320.061ZM648.333 322.962C652.685 329.489 654.135 336.016 654.135 337.466C654.135 338.917 653.41 338.917 651.959 338.917C650.509 338.917 650.509 338.192 650.509 336.016C649.059 329.489 645.433 322.962 640.356 317.886C638.181 315.71 638.181 315.71 638.181 314.985C638.181 314.26 638.906 313.535 639.631 313.535C642.532 314.26 646.883 320.061 648.333 322.962ZM654.135 315.71C654.135 316.435 653.41 317.161 651.959 317.161C651.234 317.161 651.234 317.161 648.333 313.535C647.608 312.809 645.433 310.633 643.982 309.183C643.257 308.457 643.257 308.458 643.257 307.733C643.257 307.007 643.982 306.283 644.707 306.283C647.608 307.008 654.135 314.985 654.135 315.71ZM660.662 311.359C660.662 312.084 659.937 312.809 658.486 312.809C657.761 312.809 657.761 312.809 654.86 309.183C654.135 308.457 651.96 306.282 650.509 304.832C649.784 304.106 649.784 304.107 649.784 303.382C649.784 302.656 650.509 301.931 651.234 301.931C654.135 301.931 660.662 309.908 660.662 311.359Z" fill="black"></path><path d="M627.306 357.047C625.13 357.047 619.328 357.046 619.328 352.695C619.328 350.519 620.779 349.069 622.229 349.069C622.954 349.069 623.68 349.069 624.405 349.069C625.13 349.069 626.58 349.069 627.306 349.069C630.932 349.069 634.558 349.069 634.558 333.115C634.558 326.588 633.832 323.687 627.306 323.687C626.58 323.687 625.855 323.687 625.13 323.687C622.229 336.015 617.878 345.444 613.527 353.421C612.802 354.871 612.076 356.321 609.901 356.321C608.45 356.321 606.275 355.596 606.275 352.695C606.275 351.245 606.275 351.245 607.725 349.069C611.351 342.542 614.977 333.84 617.878 324.412C616.427 324.412 614.252 325.138 612.801 325.138C607.725 325.863 607.725 325.863 607.725 325.863C605.549 325.863 604.824 324.412 604.824 322.237C604.824 319.336 607 319.336 609.901 318.61L620.779 317.16C621.504 314.26 622.229 311.358 622.229 307.732C622.229 306.282 622.954 303.381 625.855 303.381C628.031 303.381 629.481 304.832 629.481 307.007C629.481 307.732 628.756 312.083 628.031 316.434C642.535 316.434 642.535 326.588 642.535 333.115C641.81 351.245 637.458 357.047 627.306 357.047ZM621.504 321.511C621.504 321.511 621.504 322.237 621.504 321.511C621.504 322.237 621.504 322.237 621.504 321.511C622.229 322.237 622.229 322.237 621.504 321.511C622.229 321.511 622.954 320.786 623.68 320.786C623.68 320.786 623.68 320.786 623.68 320.061C622.229 321.511 622.229 321.511 621.504 321.511ZM651.963 341.092C649.062 341.092 649.062 338.916 648.336 336.741C646.886 330.214 643.985 324.412 638.909 319.335C636.733 317.16 636.008 316.435 636.008 315.709C636.008 314.259 637.458 312.808 639.634 312.808C643.26 312.808 648.337 320.786 649.062 322.237C653.413 328.763 654.863 336.015 654.863 337.466C656.314 339.641 654.138 341.092 651.963 341.092ZM651.963 319.335C650.512 319.335 649.787 318.61 647.611 315.709V314.984C646.886 314.259 644.711 312.084 643.985 310.633C643.26 309.908 642.535 309.183 642.535 308.457C642.535 307.007 643.985 304.831 646.161 304.831C649.062 304.831 656.314 314.259 656.314 315.709C655.589 317.885 654.138 319.335 651.963 319.335ZM658.489 314.984C657.039 314.984 656.314 314.259 653.413 310.633C652.688 309.908 650.512 307.733 649.787 306.282C649.062 305.557 649.062 304.831 649.062 304.106C649.062 301.931 650.512 300.48 652.688 300.48C655.589 300.48 662.841 309.183 662.841 311.358C662.115 312.809 660.665 314.984 658.489 314.984Z" fill="black"></path><path d="M696.2 330.213H682.421C678.07 330.213 676.62 328.764 676.62 324.412V310.633C676.62 309.908 676.62 309.182 678.07 309.182C679.52 309.182 679.52 309.908 679.52 310.633V324.412C679.52 326.588 680.971 327.312 682.421 327.312H696.2V306.282C696.2 305.557 696.2 304.831 697.651 304.831C699.101 304.831 699.101 305.557 699.101 306.282V327.312H712.88C715.056 327.312 715.781 326.588 715.781 324.412V310.633C715.781 309.908 715.781 309.182 717.231 309.182C718.681 309.182 718.682 309.908 718.682 310.633V324.412C718.682 328.764 717.231 330.213 712.88 330.213H699.826V354.146H715.781C717.956 354.146 718.682 353.42 718.682 351.245V338.917C718.682 338.191 718.682 337.466 720.132 337.466C721.582 337.466 721.582 338.191 721.582 338.917V351.245C721.582 355.596 720.132 357.047 715.781 357.047H679.52C675.169 357.047 673.719 355.596 673.719 351.245V338.917C673.719 338.191 673.719 337.466 675.169 337.466C676.62 337.466 676.62 338.191 676.62 338.917V351.245C676.62 353.42 678.07 354.146 679.52 354.146H695.475V330.213H696.2Z" fill="black"></path><path d="M715.777 359.223H679.516C674.44 359.223 671.539 357.048 671.539 351.246V338.917C671.539 336.016 672.989 335.291 675.165 335.291C677.341 335.291 678.791 336.742 678.791 338.917V351.246C678.791 351.971 678.791 352.696 680.242 352.696H694.746V332.39H682.417C677.341 332.39 674.44 330.214 674.44 324.413V310.633C674.44 307.732 675.89 307.007 678.066 307.007C680.241 307.007 681.692 308.457 681.692 310.633V324.413C681.692 325.138 681.692 325.863 683.142 325.863H694.746V307.007C694.746 304.106 696.196 303.381 698.372 303.381C700.547 303.381 701.998 304.831 701.998 307.007V325.863H713.601C715.051 325.863 715.051 325.863 715.051 324.413V310.633C715.051 307.732 716.502 307.007 718.677 307.007C720.853 307.007 722.303 308.457 722.303 310.633V324.413C722.303 329.489 720.128 332.39 714.326 332.39H701.998V352.696H716.502C717.227 352.696 717.952 352.696 717.952 351.246V338.917C717.952 336.016 719.403 335.291 721.578 335.291C723.754 335.291 725.204 336.742 725.204 338.917V351.246C723.754 357.048 721.578 359.223 715.777 359.223ZM697.646 355.597C698.372 355.597 697.646 355.597 697.646 355.597V355.597ZM697.646 329.489C698.372 330.214 698.372 329.489 698.372 329.489C698.372 328.764 698.372 328.764 697.646 329.489C697.646 328.764 697.646 328.764 697.646 329.489Z" fill="black"></path><path d="M746.238 328.763H740.437C739.712 328.763 738.986 328.763 738.986 327.313C738.986 325.862 740.437 325.862 740.437 325.862H746.238V310.633H740.437C739.712 310.633 738.986 310.633 738.986 309.182C738.986 307.732 740.437 307.732 740.437 307.732H755.666C756.391 307.732 757.117 307.732 757.117 309.182C757.117 310.633 755.666 310.633 755.666 310.633H749.139V325.862H754.216C754.941 325.862 755.666 325.862 755.666 327.313C755.666 328.763 754.216 328.763 754.216 328.763H749.139V344.718C751.315 343.993 753.491 343.268 754.216 343.268C755.666 342.543 756.391 342.543 756.391 342.543C757.117 342.543 757.842 343.268 757.842 343.993C757.842 345.443 757.842 345.443 753.49 346.894C747.689 348.344 740.437 349.795 740.437 349.795C739.712 349.795 738.986 349.069 738.986 348.344C738.986 346.893 739.712 346.894 740.437 346.894C741.887 346.169 744.788 346.168 746.964 345.443V328.763H746.238ZM764.369 338.917C760.743 338.917 760.017 337.466 760.017 333.84V311.358C760.017 307.732 761.468 307.007 764.369 307.007H785.4C789.026 307.007 790.476 308.457 790.476 311.358V333.84C790.476 337.466 789.026 338.917 785.4 338.917H780.323V352.695C780.323 354.871 781.774 354.871 783.224 354.871C787.575 354.871 788.301 354.871 788.301 354.146C788.301 353.421 788.301 352.695 789.026 348.344C789.026 346.893 789.026 346.169 790.476 346.169C791.201 346.169 791.927 346.894 791.927 347.619C791.927 349.069 791.201 354.871 790.476 356.321C789.751 357.771 789.026 357.772 781.774 357.772C778.873 357.772 776.697 357.046 776.697 352.695V338.917H770.17C769.445 344.718 767.27 351.245 758.567 355.596C755.666 357.046 752.765 357.772 752.04 357.772C751.315 357.772 750.59 357.046 750.59 355.596C750.59 354.871 751.315 354.146 752.04 354.146C760.017 351.97 765.819 348.344 767.27 338.191H764.369V338.917ZM762.193 316.434H786.125V312.083C786.125 310.633 785.4 309.908 783.949 309.908H765.094C763.643 309.908 762.918 310.633 762.918 312.083V316.434H762.193ZM786.85 319.335H762.918V325.862H786.85V319.335ZM762.193 328.763V333.84C762.193 335.29 762.918 336.016 764.369 336.016H783.949C785.4 336.016 786.125 335.29 786.125 333.84V328.763H762.193Z" fill="black"></path><path d="M752.036 359.947C749.86 359.947 748.41 358.497 748.41 356.321C748.41 355.596 748.41 354.146 751.311 353.421C758.563 351.246 763.639 348.344 765.09 341.092H764.364C760.013 341.092 757.838 338.916 757.838 334.565V328.764C757.838 330.214 756.387 330.939 754.212 330.939H750.586V343.268C752.036 343.268 752.761 342.543 753.486 342.543C755.662 341.818 755.662 341.817 756.387 341.817C757.838 341.817 759.288 343.268 759.288 345.443C759.288 348.344 757.838 348.345 753.486 349.795C748.41 351.246 740.433 353.421 739.707 353.421C738.257 353.421 736.807 351.971 736.807 349.795C736.807 347.62 738.982 346.894 738.982 346.894C740.433 346.169 742.608 346.168 744.059 345.443V331.665H740.433C737.532 331.665 736.807 330.215 736.807 328.039C736.807 326.589 737.532 325.138 740.433 325.138H744.059V313.535H740.433C737.532 313.535 736.807 312.084 736.807 310.634C736.807 309.183 737.532 307.733 740.433 307.733H755.662C757.112 307.733 757.838 308.458 758.563 309.183C759.288 307.733 761.464 306.283 764.364 306.283H785.396C789.747 306.283 791.922 308.458 791.922 312.809V335.291C791.922 339.642 789.747 341.817 785.396 341.817H782.495V353.421V354.146H783.22C784.67 354.146 786.121 354.146 786.846 354.146C786.846 353.421 786.846 352.696 786.846 351.245V349.795C786.846 348.345 786.846 345.443 790.472 345.443C792.648 345.443 794.098 346.894 794.098 349.069C794.098 349.795 794.098 356.322 792.648 358.497C791.197 360.673 789.747 360.673 782.495 360.673C779.594 360.673 775.968 359.948 775.968 354.146V341.817H773.067C771.617 347.619 769.441 354.146 760.738 358.497C757.112 359.223 753.486 359.947 752.036 359.947ZM747.685 346.169C747.685 346.894 747.685 346.894 747.685 346.169C747.685 346.894 747.685 346.894 747.685 346.169C747.685 346.894 748.41 346.894 747.685 346.169ZM764.364 330.214V333.84V334.565H783.945C783.945 334.565 783.945 334.565 784.67 334.565V330.939H764.364V330.214ZM746.96 327.313C746.96 327.313 747.685 328.038 746.96 327.313C747.685 327.313 747.685 327.313 747.685 327.313C747.685 327.313 747.685 327.313 746.96 327.313C746.96 327.313 747.685 327.313 746.96 327.313ZM750.586 324.413H754.212C756.387 324.413 757.112 325.863 757.838 326.588V312.084C757.112 312.809 756.387 312.809 755.662 312.809H750.586V324.413ZM764.364 324.413H784.67V321.512H764.364V324.413ZM764.364 314.985H784.67V312.084C784.67 312.084 784.67 311.359 783.945 311.359H765.09L764.364 312.084V314.985Z" fill="black"></path><path d="M841.242 359.947C841.242 361.398 839.792 361.398 839.066 361.398C837.616 361.398 836.891 360.673 836.891 359.947V309.908C836.891 308.458 838.341 307.732 839.066 307.732C840.517 307.732 841.242 308.458 841.242 309.908V359.947Z" fill="#999899"></path><path d="M839.794 363.573C837.618 363.573 836.168 362.123 836.168 359.947V309.909C836.168 307.733 838.344 306.283 839.794 306.283C841.97 306.283 843.42 307.733 843.42 309.909V359.947C843.42 362.123 841.244 363.573 839.794 363.573ZM839.794 309.183V359.222V309.183Z" fill="#999899"></path><path d="M39.8885 10.3921C41.3389 10.3921 44.9649 10.3921 44.9649 14.0182C44.9649 15.4686 42.7893 31.4231 29.7356 44.477C21.0331 53.1796 10.155 56.0812 9.4298 56.0812C7.97939 56.0812 7.97938 55.3554 7.97938 54.6302C7.97938 53.1798 7.97938 53.1803 11.6054 52.4551C19.5827 49.5542 26.1096 44.4777 31.9112 37.9507C26.1096 33.5994 19.5827 29.2478 11.6054 24.8965C10.8802 25.6217 5.07857 32.1486 3.62815 32.1486C2.90295 32.1486 2.17773 31.4238 2.17773 30.6986C2.17773 29.9733 2.17773 29.973 4.35335 28.5225C7.25417 25.6217 10.8802 22.7206 15.2314 14.7432C17.4071 11.1171 17.4071 11.1171 22.4835 11.1171H39.8885V10.3921ZM20.3079 13.2931C18.8575 13.2931 18.1323 14.018 18.1323 14.7432C16.6819 17.6441 14.5062 20.545 13.0558 21.9954C20.3079 25.6215 26.8347 29.9732 33.3616 35.0497C34.812 32.874 37.7129 28.5224 39.8885 21.9954C40.6137 19.0945 41.3389 16.1935 41.3389 15.4683C41.3389 14.0178 39.8885 14.0182 39.1633 14.0182H20.3079V13.2931Z" fill="black"></path><path d="M10.1529 57.5304C7.97728 57.5304 6.52687 55.3548 6.52687 53.9044C6.52687 51.7287 7.97727 51.0037 10.8781 49.5533C18.1301 46.6524 23.9318 42.3007 29.0082 37.2242C24.657 34.3233 18.8553 29.9721 11.6033 26.346C6.52684 31.4225 4.35124 32.8731 3.62603 32.8731C2.17562 32.8731 0 31.4227 0 29.247C0 27.7966 0.7252 27.0714 2.17561 25.621C5.80164 22.7201 8.70247 19.8198 13.0537 12.5677C15.2293 8.21647 16.6797 8.21576 21.7562 8.21576H39.8863C44.2376 8.21576 47.1384 10.3917 47.1384 14.0178C47.1384 16.9186 44.2376 33.5988 31.1839 45.2022C21.7562 54.6299 10.8781 57.5304 10.1529 57.5304ZM33.3595 36.4991V37.2242V37.9501C34.0847 37.2249 34.0847 37.2244 34.8099 36.4991H34.0847C33.3595 36.4991 33.3595 36.4991 33.3595 36.4991ZM15.9545 21.2699C22.4814 24.896 28.283 28.522 33.3595 32.1481C34.8099 29.9724 36.9855 26.3464 38.4359 21.2699C39.1611 18.3691 39.8863 16.1931 39.8863 15.4679H39.1611H20.3058H19.5806C19.5806 15.4679 19.5806 15.4686 19.5806 16.1938C18.8554 17.6442 17.4049 19.8195 15.9545 21.2699ZM11.6033 21.9949C11.6033 22.7201 10.8781 22.7207 10.8781 23.4459H11.6033C11.6033 22.7207 11.6033 22.7201 11.6033 21.9949ZM41.3367 12.5677C42.062 13.2929 42.7872 14.0174 42.7872 15.4679C42.7872 15.4679 42.7872 15.4686 42.7872 16.1938C42.7872 15.4686 42.7872 14.7428 42.7872 14.7428C43.5124 13.2924 42.7872 12.5677 41.3367 12.5677Z" fill="black"></path><path d="M95.7272 54.6302C95.7272 55.3554 95.7272 56.8062 94.2768 56.8062C92.1012 56.8062 92.1012 55.3554 92.1012 54.6302V24.1711C81.2231 30.6981 71.0702 33.5985 70.345 33.5985C69.6197 33.5985 68.8945 32.8738 68.8945 31.4233C68.8945 30.6981 69.6197 29.9725 71.7954 29.2473C86.2995 24.1707 97.9028 16.9187 105.88 10.3916C107.33 8.94119 107.33 8.94119 109.506 6.76551C109.506 6.76551 110.231 6.04047 110.957 6.04047C111.682 6.04047 112.407 6.76534 112.407 7.49056C112.407 8.21579 111.682 8.94137 110.957 9.66659C105.155 14.7432 99.3532 18.3691 95.002 21.27V54.6302H95.7272Z" fill="black"></path><path d="M94.2819 58.2556C93.5567 58.2556 90.6558 58.2556 90.6558 54.6295V27.0718C81.2281 32.1483 71.8005 35.774 71.0753 35.774C68.8996 35.774 67.4492 33.5984 67.4492 32.1479C67.4492 29.9723 68.8996 29.2471 71.0753 28.5219C86.3046 22.7201 97.9079 15.4682 105.16 9.66643C106.61 8.94121 106.61 8.21564 108.061 7.49042L108.786 6.76539C109.511 6.76539 110.236 5.31531 111.687 5.31531C113.862 5.31531 115.313 6.76574 115.313 8.94139C115.313 10.3918 114.588 11.117 113.137 12.5675C107.336 17.644 102.259 20.5448 97.9079 23.4457V55.3545C97.9079 57.5302 95.7323 58.2556 94.2819 58.2556ZM92.1062 21.9947H92.8314C93.5566 21.9947 93.5567 22.7205 93.5567 23.4457V53.9044V21.2697V20.5447C93.5567 21.2699 92.8315 21.9947 92.1062 21.9947ZM109.511 7.49042L110.962 8.94139L109.511 7.49042Z" fill="black"></path><path d="M143.59 27.0722C149.392 25.6218 160.995 22.7204 170.423 18.3691C172.599 17.6439 172.599 17.644 172.599 17.644C173.324 17.644 174.049 18.3696 174.049 19.82C174.049 20.5453 173.324 21.2699 171.873 21.9952C159.545 27.7969 148.667 29.9731 143.59 30.6983V43.7516C143.59 50.2786 145.041 51.7288 162.446 51.7288C166.797 51.7288 172.599 51.729 178.4 51.0038H180.576C181.301 51.0038 182.026 51.7295 182.026 52.4548C182.026 53.18 182.026 53.9048 180.576 53.9048C178.4 54.6301 165.346 54.6299 161.72 54.6299C147.216 54.6299 140.689 53.9047 140.689 43.7516V8.9418C140.689 7.49137 141.415 7.49083 142.865 7.49083C144.315 7.49083 144.315 8.21658 144.315 8.9418V27.0722H143.59ZM189.278 9.66684C189.278 14.0181 185.652 17.644 181.301 17.644C176.95 17.644 173.324 14.0181 173.324 9.66684C173.324 5.31554 176.95 1.68964 181.301 1.68964C185.652 1.68964 189.278 5.31554 189.278 9.66684ZM176.225 9.66684C176.225 12.5677 178.4 14.743 181.301 14.743C184.202 14.743 186.377 12.5677 186.377 9.66684C186.377 6.76597 184.202 4.58979 181.301 4.58979C178.4 4.58979 176.225 6.76597 176.225 9.66684Z" fill="black"></path><path d="M160.991 55.3551C147.937 55.3551 138.51 55.3554 138.51 43.0265V8.21515C138.51 6.76469 139.235 4.589 142.136 4.589C144.311 4.589 145.762 6.03946 145.762 8.21515V24.8958C153.014 23.4453 162.442 20.5446 169.694 16.9184C171.869 16.1932 171.869 15.4674 172.594 15.4674C171.869 14.017 171.144 11.8416 171.144 10.3912C171.144 4.58935 175.495 0.237793 181.297 0.237793C187.099 0.237793 191.45 4.58935 191.45 10.3912C191.45 16.193 187.099 20.5446 181.297 20.5446C179.847 20.5446 177.671 19.8188 176.221 19.0936C176.221 19.0936 176.221 19.0943 176.221 19.8195C176.221 21.9952 174.045 22.7205 172.594 23.4457C160.991 28.5223 150.838 30.6976 145.037 32.1481V43.0265C145.037 48.1031 145.037 48.8287 161.716 48.8287C165.342 48.8287 171.144 48.828 176.946 48.1028C176.946 48.1028 177.671 48.1028 178.396 48.1028C179.121 48.1028 179.121 48.1028 179.121 48.1028C181.297 48.1028 182.747 49.5533 182.747 51.7289C182.747 53.1794 182.022 54.6299 179.847 55.3551C178.396 55.3551 163.892 55.3551 160.991 55.3551ZM142.136 44.4766C142.136 46.6523 142.861 48.1033 144.311 49.5538C142.861 48.1033 142.136 46.6523 142.136 44.4766ZM142.136 27.0718V29.247C142.136 28.5218 142.861 28.5221 142.861 27.7969C142.136 27.7969 142.136 27.7971 142.136 27.0718ZM181.297 6.76504C179.121 6.76504 177.671 8.2155 177.671 10.3912C177.671 12.5669 179.121 14.0173 181.297 14.0173C183.473 14.0173 184.923 12.5669 184.923 10.3912C184.198 8.2155 182.747 6.76504 181.297 6.76504Z" fill="black"></path><path d="M219.013 14.7433C223.364 16.9189 224.089 17.6441 224.089 18.3693C224.089 19.8197 223.364 20.5452 222.639 20.5452C221.913 20.5452 221.188 20.5454 220.463 19.8202C216.112 17.6446 211.035 15.4687 207.409 14.0183C206.684 14.0183 205.959 13.2935 205.959 12.5683C205.959 11.8431 206.684 11.1173 208.135 11.1173C208.86 10.3922 213.936 12.5677 219.013 14.7433ZM250.922 23.4462C250.922 24.1714 245.845 32.8732 237.143 40.1252C222.639 51.7283 208.86 54.6291 208.135 54.6291C206.684 54.6291 205.959 53.9044 205.959 52.454C205.959 51.0036 205.959 51.0033 210.31 50.2781C222.639 47.3773 236.418 38.675 245.845 24.8962C248.021 21.9955 248.021 21.9953 248.746 21.9953C250.197 21.9953 250.922 22.721 250.922 23.4462Z" fill="black"></path><path d="M208.132 56.8061C205.957 56.8061 204.506 55.3557 204.506 53.18C204.506 50.2792 205.957 50.2793 210.308 48.8289C224.087 45.2028 236.416 36.4999 245.118 24.1712C247.294 21.2703 248.019 19.82 249.469 19.82C251.645 19.82 253.095 21.2705 253.095 23.4461C253.095 25.6218 246.568 34.3245 238.591 41.5767C224.087 53.1802 209.583 56.8061 208.132 56.8061ZM207.407 53.18C207.407 53.18 221.186 51.0044 235.69 38.6756C242.217 32.8738 246.568 27.0721 248.744 24.1712C248.744 24.8964 248.019 24.8961 247.294 25.6213C238.591 37.95 224.812 48.103 210.308 51.7291C209.583 52.4543 208.132 52.4548 207.407 53.18ZM222.637 22.7202C221.911 22.7202 220.461 21.9953 219.736 21.2701C216.835 19.0945 212.484 17.6437 206.682 15.468C205.957 15.468 203.781 14.7435 203.781 12.5678C203.781 11.1174 205.232 8.94171 207.407 8.94171C208.858 8.94171 215.385 11.117 219.736 14.0179C224.087 16.1936 225.537 16.9184 225.537 19.0941C226.263 21.2698 224.087 22.7202 222.637 22.7202ZM213.934 14.743C216.835 16.1934 219.011 16.9186 221.186 18.3691C221.911 18.3691 222.637 19.0941 222.637 19.0941C221.911 18.3689 219.736 16.919 218.285 16.919C216.835 16.1937 215.385 15.4682 213.934 14.743Z" fill="black"></path><path d="M286.466 14.0178C285.015 14.0178 285.015 14.0182 283.565 16.1938C278.488 24.8963 271.961 31.423 270.511 31.423C269.786 31.423 269.061 30.6973 269.061 29.9721C269.061 29.2468 269.786 28.5222 271.236 27.797C275.587 23.4457 278.488 20.5445 281.389 14.7428C282.84 11.842 284.29 11.8418 287.916 11.8418H304.596C308.222 11.8418 309.672 14.0182 309.672 16.1938C309.672 17.6442 307.497 35.0487 292.992 47.3773C285.015 54.6293 277.038 57.5304 276.313 57.5304C274.862 57.5304 274.862 56.8055 274.862 56.0803C274.862 54.6299 275.587 54.6295 277.038 53.9043C299.519 45.2018 305.321 22.7205 305.321 16.9188C305.321 15.4684 303.87 15.4679 303.145 15.4679H286.466V14.0178ZM313.298 8.94169C315.474 11.8425 316.199 14.0176 316.199 14.7428C316.199 15.468 315.474 16.1938 314.749 16.1938C314.023 16.1938 313.298 16.1938 311.848 12.5677C311.123 10.3921 309.672 8.21595 308.947 7.49074C308.947 6.76554 308.222 6.76589 308.222 6.04068C308.222 5.31547 308.947 4.58973 310.397 4.58973C311.123 5.31494 311.123 5.31565 313.298 8.94169ZM320.55 5.31565C320.55 6.04086 324.176 10.3914 324.176 11.8418C324.176 12.567 323.451 13.2928 322.726 13.2928C322.001 13.2928 321.275 12.5672 320.55 11.1168C319.1 8.94116 318.375 6.76554 316.924 3.8647C316.924 3.13949 316.199 3.13984 316.199 2.41463C316.199 1.68942 316.924 0.963684 318.375 0.963684C318.375 1.68889 318.375 1.6896 320.55 5.31565Z" fill="black"></path><path d="M277.034 57.5304C274.858 57.5304 273.408 55.3548 273.408 53.9043C273.408 51.7287 274.858 51.0034 277.034 50.2782C297.339 42.3008 304.592 21.269 304.592 15.4673H303.866H286.461H285.736C285.736 15.4673 285.736 16.1932 285.011 16.1932C280.66 23.4454 273.408 32.1477 270.507 32.1477C269.056 32.1477 266.881 30.6973 266.881 28.5216C266.881 27.0712 267.606 26.3459 269.782 24.8955C274.133 21.2694 276.309 17.6436 279.935 12.5671C282.11 8.94098 284.286 8.94098 287.912 8.94098H304.592C305.317 8.94098 306.042 8.94098 306.767 8.94098V8.21505C306.767 7.48983 306.042 6.76514 306.042 6.03992C306.042 5.31469 306.767 4.58912 307.492 3.8639C308.218 3.13868 309.668 3.13885 310.393 3.13885C311.844 3.86408 312.569 4.58894 314.744 8.21505C315.47 9.66549 317.645 13.2918 317.645 14.7422C317.645 16.9179 316.195 18.3683 314.019 18.3683C312.569 18.3683 311.844 17.6436 311.118 16.1932C310.393 21.2697 306.767 35.7738 294.439 46.6521C287.187 54.6296 278.484 57.5304 277.034 57.5304ZM279.209 53.9043C279.209 53.9043 278.484 53.9043 279.209 53.9043C277.759 54.6296 277.034 54.6294 277.034 54.6294C277.034 54.6294 277.759 53.9043 279.209 53.9043ZM272.682 27.7965C271.957 28.5218 271.232 29.2466 271.232 29.2466C271.232 29.2466 271.957 28.5218 272.682 27.7965ZM306.767 12.5671C307.492 13.2923 308.218 14.0168 308.218 15.4673V16.1932C308.218 15.468 308.218 14.7422 308.218 14.7422C308.218 14.017 308.218 13.2923 306.767 12.5671ZM321.997 14.7422C319.821 14.7422 319.096 13.2916 318.371 11.8412C316.92 8.94027 315.47 6.76531 314.744 5.31487C314.019 4.58965 314.019 3.86408 314.019 3.13885C314.019 2.41363 314.744 0.962837 315.47 0.962837C316.195 0.237616 317.645 0.237793 318.371 0.237793C319.821 0.237793 320.546 0.962837 322.722 4.58894C322.722 5.31416 326.348 10.3907 326.348 11.8412C325.623 13.2916 324.172 14.7422 321.997 14.7422ZM321.997 10.3911L322.722 11.1161C321.997 11.1161 321.997 11.1163 321.997 10.3911Z" fill="black"></path><path d="M346.656 9.66665C344.48 9.66665 343.755 10.392 343.755 12.5677V27.797C343.755 33.5987 343.755 44.4767 339.404 53.9045C337.954 56.8053 337.228 57.5305 336.503 57.5305C335.778 57.5305 335.053 56.8057 335.053 56.0805C335.053 55.3552 335.053 55.3547 335.778 54.6295C340.854 45.2017 341.58 37.2246 341.58 28.522V13.2927C341.58 8.94144 343.03 7.49066 347.381 7.49066H375.664C377.84 7.49066 378.565 7.49048 380.016 8.2157C382.191 9.66612 382.191 11.8425 382.191 12.5677C382.191 12.5677 382.191 14.0176 382.191 14.7428C382.191 21.9949 382.191 25.6212 382.191 28.522C382.191 32.1481 382.191 44.4763 383.642 51.7285C383.642 53.1789 384.367 53.9045 385.092 53.9045C385.817 53.9045 386.542 52.454 387.268 46.6523C387.268 45.9271 387.268 45.2023 388.718 45.2023C389.443 45.2023 390.168 45.9271 390.168 46.6523C390.168 48.1028 389.443 52.454 388.718 53.9045C387.993 55.3549 387.268 57.5305 385.092 57.5305C383.642 57.5305 382.191 56.8051 381.466 54.6295C379.29 48.8278 379.29 35.0488 379.29 32.8731C379.29 29.9723 379.29 15.4685 379.29 12.5677C379.29 11.1173 378.565 9.66665 376.39 9.66665H346.656V9.66665ZM358.985 40.8503H352.458C348.832 40.8503 347.381 39.4002 347.381 35.7741V27.0719C347.381 23.4459 348.832 21.9949 352.458 21.9949H358.985V16.1937C353.183 16.1937 350.282 16.1937 347.381 16.1937C346.656 16.1937 345.931 16.1932 345.931 14.7428C345.931 13.2924 346.656 13.2927 347.381 13.2927C358.985 13.2927 364.786 12.5677 367.687 12.5677C368.412 12.5677 372.763 11.8418 372.763 11.8418C373.489 11.8418 374.214 12.5675 374.214 13.2927C374.214 14.7431 373.489 14.7428 372.763 14.7428C369.863 15.468 364.786 15.4685 361.16 16.1937V21.9949H367.687C371.313 21.9949 372.763 23.4459 372.763 27.0719V35.7741C372.763 39.4002 371.313 40.8503 367.687 40.8503H361.16V50.2784C362.611 50.2784 368.412 50.2784 369.863 50.2784C369.137 48.828 369.137 48.828 367.687 46.6523C367.687 45.9271 366.962 45.9273 366.962 45.9273C366.962 45.2021 367.687 44.4763 368.412 44.4763C369.137 44.4763 369.137 44.4765 371.313 47.3774C373.489 50.2782 376.39 55.3551 376.39 56.8055C376.39 58.2559 374.939 58.2556 374.214 58.2556C373.489 58.2556 373.489 57.5305 372.763 57.5305C372.038 56.0801 372.038 55.3547 371.313 54.6295C362.611 55.3547 348.106 56.0805 343.755 56.0805C343.03 56.0805 342.305 56.0799 342.305 54.6295C342.305 53.1791 343.755 53.1794 343.755 53.1794C345.931 53.1794 356.084 53.1794 358.259 53.1794V40.8503H358.985ZM358.985 25.621H353.183C351.732 25.621 351.007 26.3466 351.007 27.797V35.7741C351.007 37.2246 351.732 37.9501 353.183 37.9501H358.985V25.621ZM362.611 37.9501H368.412C369.863 37.9501 370.588 37.2246 370.588 35.7741V27.797C370.588 26.3466 369.863 25.621 368.412 25.621H362.611V37.9501Z" fill="black"></path><path d="M383.637 59.7077C381.462 59.7077 379.286 58.2572 378.561 56.0816C377.836 58.2572 376.385 58.9817 374.935 58.9817C373.485 58.9817 372.759 57.5317 372.034 57.5317C371.309 56.0812 371.309 56.0809 371.309 55.3557C362.606 56.0809 349.553 56.8066 345.202 56.8066C342.301 56.8066 341.575 54.6308 341.575 53.9056C341.575 54.6308 340.85 55.3564 340.85 56.0816C339.4 58.9824 338.675 61.1577 336.499 61.1577C334.323 61.1577 332.873 59.7073 332.873 57.5317C332.873 56.8064 332.873 56.0809 333.598 55.3557C337.949 46.653 338.675 39.4009 338.675 29.973V14.7436C338.675 9.66711 340.85 6.76642 346.652 6.76642H374.935C377.836 6.76642 378.561 6.76624 380.011 7.49146C382.187 8.94189 382.912 11.1179 382.912 13.2936C382.912 14.0188 382.912 14.7435 382.912 15.4687C382.912 22.7209 382.912 26.3471 382.912 29.248C382.912 37.9506 382.912 44.4779 383.637 49.5544C383.637 48.8292 383.637 48.1037 383.637 47.3784C383.637 44.4776 385.813 43.7523 386.538 43.7523C387.989 43.7523 390.164 45.2028 390.164 47.3784C390.164 49.5541 389.439 53.9052 388.714 55.3557C388.714 55.3557 387.263 59.7077 383.637 59.7077ZM382.912 55.3557C383.637 56.0809 384.363 56.0809 385.088 55.3557C384.363 55.3557 383.637 55.3557 382.912 55.3557ZM371.309 42.3023C372.034 43.0275 372.759 43.7522 373.485 44.4774C373.485 44.4774 375.66 48.1037 377.111 51.0045C375.66 43.0271 375.66 32.149 375.66 32.149C375.66 30.6986 375.66 26.3473 375.66 21.2708C375.66 19.0951 375.66 17.645 375.66 16.1946C374.935 16.1946 374.935 16.9196 374.21 16.9196C371.309 17.6449 367.683 17.6445 364.057 18.3697V20.5457H368.408C372.759 20.5457 374.935 22.7216 374.935 27.0729V35.7751C374.935 39.4012 374.21 41.577 371.309 42.3023ZM372.034 50.2795C372.759 50.2795 372.759 50.2795 372.034 50.2795C372.759 50.2795 372.759 50.2795 372.034 50.2795C372.034 50.2795 372.759 50.2795 372.034 50.2795ZM345.202 17.6447V27.7979C345.202 33.5997 345.202 41.577 342.301 49.5544C343.026 48.8292 343.751 48.8294 345.202 48.8294H351.003C353.179 48.8294 356.08 48.8294 357.53 48.8294V43.0273H353.179C348.828 43.0273 346.652 40.8515 346.652 36.5002V27.7979C346.652 23.4466 348.828 21.2708 353.179 21.2708H357.53V19.0948C353.179 19.0948 350.278 19.0948 348.102 19.0948C346.652 19.0948 345.927 18.3699 345.202 17.6447ZM364.057 43.0273V48.8294H367.683L366.958 47.3784C366.232 46.6532 366.232 45.9285 366.232 45.2033C366.232 44.4781 366.232 43.7525 366.958 43.0273H364.057ZM360.431 39.4012C361.156 39.4012 361.156 39.4012 361.156 39.4012C361.156 39.4012 361.156 39.4012 360.431 39.4012ZM364.057 36.5002H368.408L369.133 35.7751V27.7979L368.408 27.0729H364.057V36.5002ZM353.179 27.0729L352.454 35.7751L353.179 36.5002H356.805V27.7979H353.179V27.0729ZM360.431 24.1718C361.156 24.1718 361.156 24.1718 360.431 24.1718C361.156 24.1718 361.156 24.1718 360.431 24.1718ZM346.652 11.1175C345.927 11.1175 345.202 11.1181 345.202 12.5685V13.2936C345.927 12.5683 346.652 12.5685 348.102 12.5685C358.98 12.5685 364.782 11.8426 368.408 11.8426C369.133 11.8426 369.859 11.8426 369.859 11.8426H346.652V11.1175Z" fill="black"></path><path d="M437.295 58.9817C437.295 60.4321 435.844 60.4326 435.119 60.4326C433.669 60.4326 432.943 59.7069 432.943 58.9817V8.94242C432.943 7.49199 434.394 6.76642 435.119 6.76642C436.569 6.76642 437.295 7.49199 437.295 8.94242V58.9817Z" fill="#999899"></path><path d="M435.847 62.6071C433.671 62.6071 432.221 61.1567 432.221 58.981V8.94142C432.221 6.76575 434.396 5.31531 435.847 5.31531C438.022 5.31531 439.473 6.76575 439.473 8.94142V58.981C439.473 61.8819 437.297 62.6071 435.847 62.6071ZM435.847 8.94142V58.981V8.94142Z" fill="#999899"></path><path d="M437.306 138.755C435.13 138.755 433.68 137.305 433.68 135.129V131.503C433.68 129.327 435.13 127.877 437.306 127.877C439.481 127.877 440.932 129.327 440.932 131.503V135.129C440.932 137.305 439.481 138.755 437.306 138.755Z" fill="black"></path><path d="M437.306 190.971C435.13 190.971 433.68 189.521 433.68 187.345V180.818C433.68 178.643 435.13 177.192 437.306 177.192C439.481 177.192 440.932 178.643 440.932 180.818V187.345C440.932 189.521 439.481 190.971 437.306 190.971ZM437.306 164.864C435.13 164.864 433.68 163.414 433.68 161.238V154.711C433.68 152.535 435.13 151.085 437.306 151.085C439.481 151.085 440.932 152.535 440.932 154.711V161.238C440.932 163.414 439.481 164.864 437.306 164.864Z" fill="black"></path><path d="M437.306 214.178C435.13 214.178 433.68 212.728 433.68 210.552V206.926C433.68 204.751 435.13 203.3 437.306 203.3C439.481 203.3 440.932 204.751 440.932 206.926V210.552C440.932 212.728 439.481 214.178 437.306 214.178Z" fill="black"></path><path d="M419.898 204.751L437.303 236.66L455.434 204.751H419.898Z" fill="black"></path></svg> 