<?xml version="1.0" encoding="UTF-8"?> <svg xmlns="http://www.w3.org/2000/svg" width="503" height="454" viewBox="0 0 503 454" fill="none"><path d="M270.827 180.945C268.166 180.945 266.393 179.169 266.393 176.505V172.065C266.393 169.401 268.166 167.625 270.827 167.625C273.488 167.625 275.262 169.401 275.262 172.065V176.505C275.262 179.169 273.488 180.945 270.827 180.945Z" fill="black"></path><path d="M270.827 244.882C268.166 244.882 266.393 243.106 266.393 240.442V232.45C266.393 229.786 268.166 228.01 270.827 228.01C273.488 228.01 275.262 229.786 275.262 232.45V240.442C275.262 242.218 273.488 244.882 270.827 244.882ZM270.827 212.914C268.166 212.914 266.393 211.138 266.393 208.474V200.482C266.393 197.818 268.166 196.042 270.827 196.042C273.488 196.042 275.262 197.818 275.262 200.482V208.474C275.262 211.138 273.488 212.914 270.827 212.914Z" fill="black"></path><path d="M270.827 273.296C268.166 273.296 266.393 271.52 266.393 268.856V264.416C266.393 261.752 268.166 259.976 270.827 259.976C273.488 259.976 275.262 261.752 275.262 264.416V268.856C275.262 270.632 273.488 273.296 270.827 273.296Z" fill="black"></path><path d="M248.654 261.753L270.827 299.937L293 261.753H248.654Z" fill="black"></path><path d="M25.1469 405.611C26.0338 405.611 30.4684 408.275 34.0161 410.939C35.7899 411.827 36.6768 412.715 36.6768 413.603C36.6768 414.491 35.7899 416.267 34.903 416.267C34.0161 416.267 34.0161 416.267 31.3553 414.491C28.6946 412.715 26.0338 410.939 24.26 410.051C23.373 410.051 23.373 409.163 23.373 408.275C23.373 407.387 24.26 405.611 25.1469 405.611ZM40.2245 426.923C40.2245 428.699 34.0161 441.131 29.5815 448.235C26.9207 450.011 26.9207 450.899 26.0338 450.899C25.1469 450.899 23.373 450.011 23.373 448.235C23.373 447.347 23.373 447.347 24.26 446.459C27.8076 442.019 32.2422 434.027 34.0161 429.587C34.0161 428.699 35.7899 425.147 35.7899 425.147H36.6768C38.4506 424.259 40.2245 425.147 40.2245 426.923ZM28.6946 387.851C29.5815 387.851 36.6768 392.291 38.4506 393.179C40.2245 394.955 41.1114 394.955 41.1114 395.843C41.1114 396.731 40.2245 397.619 39.3376 397.619C39.3376 397.619 38.4506 397.619 38.4506 396.731C34.0161 394.067 34.0161 393.179 28.6946 390.515C28.6946 390.515 27.8076 389.627 27.8076 388.739C26.9207 388.739 27.8076 387.851 28.6946 387.851ZM41.1114 412.715C41.1114 408.275 42.8852 406.499 47.3198 406.499V394.067C47.3198 389.627 49.0936 388.739 52.6413 388.739H75.7012C80.1357 388.739 81.0227 390.515 81.0227 394.067V406.499C85.4572 406.499 87.2311 407.387 87.2311 412.715V419.819C87.2311 420.707 87.2311 421.595 85.4572 421.595C83.6834 421.595 83.6834 420.707 83.6834 419.819V412.715C83.6834 410.939 82.7965 410.051 81.0227 410.051H47.3198C45.546 410.051 44.6591 410.939 44.6591 412.715V419.819C44.6591 420.707 44.6591 421.595 42.8852 421.595C41.1114 421.595 41.1114 420.707 41.1114 419.819V412.715ZM51.7544 438.467V450.011C51.7544 450.899 51.7544 451.787 49.9806 451.787C48.2067 451.787 48.2067 450.011 48.2067 450.011V422.483C48.2067 418.043 49.0936 416.267 53.5282 416.267H74.8142C79.2488 416.267 80.1357 418.043 80.1357 422.483V444.683C80.1357 449.123 78.3619 450.899 73.9273 450.899H67.7189C65.9451 450.899 65.9451 449.123 65.9451 448.235C65.9451 447.347 66.832 446.459 67.7189 446.459C68.6058 446.459 73.9273 446.459 74.8142 446.459C76.5881 446.459 77.475 445.571 77.475 443.795V437.579H51.7544V438.467ZM59.7366 406.499V401.171C59.7366 397.619 61.5105 396.731 64.1712 396.731H78.3619V394.067C78.3619 392.291 77.475 391.403 75.7012 391.403H53.5282C51.7544 391.403 50.8675 392.291 50.8675 394.067V406.499H59.7366ZM77.475 425.147V421.595C77.475 419.819 76.5881 418.931 74.8142 418.931H54.4151C52.6413 418.931 51.7544 419.819 51.7544 421.595V425.147H77.475ZM77.475 428.699H51.7544V434.915H76.5881V428.699H77.475ZM78.3619 406.499V400.283H65.0582C64.1712 400.283 63.2843 401.171 63.2843 402.059V406.499H78.3619Z" fill="black"></path><path d="M49.9871 453.564C49.1002 453.564 45.5525 453.564 45.5525 449.124V422.484C42.8918 424.26 38.4572 424.26 38.4572 418.932V414.492C38.4572 417.156 36.6833 418.044 34.9095 418.044C34.0226 418.044 33.1357 418.044 30.4749 415.38C27.8142 413.604 25.1534 411.828 23.3796 410.94C21.6058 410.052 20.7188 408.276 21.6058 406.5C21.6058 404.724 23.3796 402.948 26.0403 402.948C26.9273 403.836 28.7011 403.836 35.7964 409.164C37.5703 410.052 38.4572 410.94 39.3441 411.828C39.3441 407.388 41.1179 404.724 45.5525 404.724V394.068C45.5525 388.74 48.2133 386.076 53.5348 386.076H76.5946C81.9161 386.076 84.5769 388.74 84.5769 394.068V404.724C88.1245 404.724 90.7853 406.5 90.7853 412.716V419.82C90.7853 423.372 87.2376 424.26 86.3507 424.26C85.4638 424.26 84.5769 424.26 83.69 423.372V444.684C83.69 451.788 79.2554 452.676 75.7077 452.676H67.7254C65.9516 452.676 63.2909 451.788 63.2909 448.236C63.2909 445.572 65.0647 444.684 67.7254 444.684C68.6124 444.684 69.4993 444.684 71.2731 444.684C73.047 444.684 73.9339 444.684 74.8208 444.684C74.8208 444.684 74.8208 444.684 75.7077 444.684V441.132H54.4217V450.012C54.4217 452.676 52.6479 453.564 49.9871 453.564ZM54.4217 433.14H74.8208V431.364H54.4217V433.14ZM54.4217 423.372H74.8208V421.596V420.708H54.4217L53.5348 421.596V423.372H54.4217ZM47.3264 411.828V416.268C48.2133 414.492 50.874 413.604 54.4217 413.604H75.7077C79.2554 413.604 81.0292 414.492 81.9161 416.268V412.716V411.828H47.3264ZM65.9516 404.724H75.7077V402.06H65.9516V404.724ZM53.5348 404.724H57.9694V402.06C57.9694 397.62 59.7432 394.956 64.1778 394.956H75.7077V394.068V393.18H53.5348V394.068V404.724ZM26.0403 452.676C24.2665 452.676 21.6058 450.9 21.6058 448.236C21.6058 446.46 22.4927 445.572 22.4927 445.572C26.0403 441.132 30.4749 433.14 32.2488 428.7C32.2488 428.7 34.0226 424.26 34.9095 423.372C35.7964 422.484 36.6833 422.484 37.5703 422.484C39.3441 422.484 42.0048 424.26 42.0048 426.924C42.0048 430.476 34.0226 443.796 30.4749 449.124C28.7011 451.788 27.8142 452.676 26.0403 452.676ZM38.4572 400.284C37.5703 400.284 36.6833 400.284 35.7964 399.396C31.3618 396.732 31.3618 395.844 26.0403 393.18C24.2665 392.292 23.3796 390.516 24.2665 388.74C24.2665 386.964 26.0403 385.188 28.7011 385.188C29.588 385.188 30.4749 385.188 39.3441 391.404C41.1179 393.18 42.8918 394.068 42.8918 395.844C42.8918 397.62 41.1179 400.284 38.4572 400.284Z" fill="black"></path><path d="M144.88 413.603C160.845 413.603 164.393 422.483 164.393 429.587C164.393 432.251 163.506 441.131 152.863 445.571C148.428 447.347 143.107 448.235 133.35 448.235C127.142 448.235 122.707 447.347 121.821 447.347C120.934 447.347 120.047 446.459 120.047 445.571C120.047 445.571 120.047 443.795 121.821 443.795H124.481C127.142 443.795 129.803 443.795 133.35 443.795C137.785 443.795 143.107 443.795 147.541 442.019C152.863 440.243 159.958 436.691 159.958 428.699C159.958 418.043 150.202 417.155 143.993 417.155C133.35 417.155 124.481 421.595 118.273 426.035C116.499 427.811 115.612 427.811 114.725 427.811C114.725 427.811 112.064 427.811 112.064 425.147C112.064 423.371 114.725 407.387 116.499 402.059C117.386 397.619 117.386 397.619 119.16 397.619C120.047 397.619 120.934 398.507 120.934 399.395C120.934 399.395 119.16 409.163 118.273 410.051C117.386 416.267 116.499 418.931 115.612 421.595C126.255 417.155 135.124 413.603 144.88 413.603ZM127.142 388.74C128.029 388.74 139.559 390.515 150.202 394.067C152.863 394.955 152.863 394.955 152.863 396.731C152.863 397.619 152.863 398.507 151.089 398.507C151.089 398.507 142.22 395.843 140.446 395.843C138.672 394.955 127.142 393.179 126.255 393.179C126.255 393.179 124.481 393.179 124.481 391.403C125.368 388.739 126.255 388.74 127.142 388.74Z" fill="black"></path><path d="M134.235 450.013C128.027 450.013 122.705 449.125 121.818 449.125C120.045 448.237 118.271 447.349 118.271 444.685C118.271 442.909 120.045 440.245 122.705 440.245C122.705 440.245 123.592 440.245 124.479 440.245C125.366 440.245 125.366 440.245 125.366 440.245C128.027 440.245 130.688 440.245 134.235 440.245C140.444 440.245 144.878 439.357 148.426 438.469C150.2 437.581 159.069 434.917 159.069 426.925C159.069 418.933 150.2 417.157 145.765 417.157C135.122 417.157 127.14 421.597 121.818 426.037C120.045 427.813 118.271 428.701 117.384 428.701C115.61 428.701 112.949 426.925 112.949 424.261C112.949 421.597 116.497 405.613 117.384 400.285C118.271 395.845 119.158 394.069 122.705 394.069C125.366 394.069 127.14 395.845 127.14 397.621C127.14 397.621 127.14 397.621 125.366 404.725C124.479 406.501 124.479 408.277 124.479 409.165C123.592 411.829 123.592 413.605 123.592 415.381C130.688 410.941 138.67 408.277 146.652 408.277C162.617 408.277 168.825 417.157 168.825 426.037C168.825 428.701 167.938 439.357 155.521 443.797C148.426 449.125 142.217 450.013 134.235 450.013ZM116.497 424.261C116.497 425.149 116.497 426.037 116.497 426.037C116.497 426.037 117.384 425.149 118.271 425.149C117.384 425.149 117.384 425.149 116.497 424.261C116.497 424.261 117.384 424.261 116.497 424.261ZM151.087 400.285C150.2 400.285 150.2 400.285 143.104 398.509L140.444 397.621C139.557 397.621 136.009 396.733 133.348 395.845C129.801 394.957 127.14 394.957 126.253 394.069C124.479 394.069 122.705 392.293 122.705 390.517C122.705 387.853 124.479 386.077 127.14 386.077C128.914 386.077 140.444 387.853 150.2 391.405C152.861 392.293 154.634 393.181 154.634 395.845C155.521 398.509 153.747 400.285 151.087 400.285Z" fill="black"></path><path d="M209.639 404.723C210.526 400.283 211.413 395.843 212.299 391.403C212.299 388.739 212.299 387.851 214.96 387.851C215.847 387.851 217.621 388.739 217.621 389.627C217.621 391.403 214.96 402.059 214.96 403.835C216.734 403.835 218.508 403.835 219.395 403.835C234.472 403.835 235.359 412.715 235.359 422.483C235.359 442.019 230.038 447.347 220.282 447.347C213.186 447.347 213.186 445.571 213.186 444.683C213.186 443.795 214.073 442.907 214.96 442.907H216.734C217.621 442.907 219.395 442.907 220.282 442.907C226.49 442.907 230.925 440.243 230.925 421.595C230.925 413.603 230.925 407.387 220.282 407.387C217.621 407.387 215.847 407.387 214.073 407.387C213.186 411.827 208.752 426.923 202.543 440.243C200.77 443.795 198.996 445.571 198.996 446.459C198.996 447.347 198.109 447.347 197.222 447.347C197.222 447.347 194.561 447.347 194.561 445.571C194.561 444.683 194.561 444.683 196.335 442.019C201.656 433.139 206.978 420.707 209.639 408.275C206.978 408.275 193.674 410.939 193.674 410.939C191.9 410.939 191.9 410.051 191.9 409.163C191.9 407.387 192.787 407.387 196.335 407.387L209.639 404.723ZM246.889 407.387C251.324 416.267 252.211 424.259 252.211 425.147C252.211 426.923 250.437 427.811 249.55 427.811C247.776 427.811 247.776 426.923 247.776 424.259C246.889 418.043 243.342 407.387 237.133 400.283C236.246 399.395 235.359 398.507 235.359 397.619C235.359 396.731 236.246 395.843 237.133 395.843C239.794 395.843 244.228 403.835 246.889 407.387Z" fill="black"></path><path d="M196.332 450.012C194.558 450.012 191.897 449.124 191.897 445.572C191.897 443.796 191.897 443.796 193.671 441.132C198.106 433.14 202.54 423.372 206.088 410.94C203.427 410.94 199.88 411.828 197.219 411.828C194.558 411.828 192.784 412.716 192.784 412.716C190.123 412.716 188.35 410.94 188.35 408.276C188.35 404.724 191.01 404.724 193.671 403.836L206.975 402.06C207.862 398.508 208.749 394.956 208.749 390.516C208.749 388.74 209.636 385.188 213.183 385.188C215.844 385.188 217.618 386.964 217.618 389.628C217.618 390.516 217.618 392.292 215.844 401.172C216.731 401.172 217.618 401.172 217.618 401.172C235.356 401.172 235.356 413.604 235.356 422.484C235.356 442.02 230.922 450.012 218.505 450.012C213.183 450.012 208.749 449.124 208.749 444.684C208.749 442.02 210.523 440.244 212.296 440.244C212.296 440.244 214.07 440.244 214.957 440.244C215.844 440.244 216.731 440.244 218.505 440.244C222.939 440.244 227.374 440.244 227.374 420.708C227.374 411.828 227.374 408.276 218.505 408.276C216.731 408.276 214.957 408.276 214.07 408.276C211.409 420.708 206.975 431.364 202.54 439.356C200.766 442.908 198.993 445.572 198.993 445.572C198.993 448.236 198.106 450.012 196.332 450.012ZM210.523 406.5C210.523 406.5 210.523 407.388 210.523 406.5C210.523 407.388 210.523 407.388 210.523 406.5C210.523 407.388 210.523 407.388 210.523 406.5C211.409 406.5 212.296 405.612 213.183 405.612C213.183 405.612 213.183 405.612 213.183 404.724C211.409 405.612 211.409 406.5 210.523 406.5ZM249.547 429.588C245.999 429.588 245.112 426.924 245.112 424.26C244.225 418.044 240.678 408.276 234.469 401.172C233.582 400.284 232.695 399.396 232.695 397.62C232.695 395.844 234.469 394.068 237.13 394.068C241.565 394.068 246.886 404.724 248.66 406.5C253.095 415.38 254.868 424.26 254.868 426.036C253.981 428.7 252.208 429.588 249.547 429.588Z" fill="black"></path><path d="M280.591 392.293C280.591 391.405 281.478 390.517 282.364 390.517C283.251 390.517 284.138 390.517 284.138 392.293C284.138 393.181 284.138 394.069 284.138 394.069C281.478 403.837 280.591 413.605 280.591 423.373C280.591 427.813 280.591 434.917 282.364 441.133C282.364 441.133 283.251 444.685 283.251 445.573C283.251 446.461 282.364 447.349 281.478 447.349C279.704 447.349 279.704 446.461 279.704 445.573C278.817 443.797 277.043 435.805 277.043 422.485C277.043 412.717 278.817 396.733 280.591 392.293ZM300.99 423.373C301.877 423.373 302.764 424.261 302.764 425.149C302.764 426.037 302.764 426.037 301.877 426.925C300.99 428.701 298.329 430.477 298.329 433.141C298.329 438.469 303.65 440.245 315.18 440.245C318.728 440.245 322.276 440.245 325.823 439.357C326.71 439.357 330.258 438.469 330.258 438.469C330.258 438.469 332.919 438.469 332.919 440.245C332.919 441.133 332.919 442.021 331.145 442.021C329.371 442.909 322.276 442.909 316.067 442.909C306.311 442.909 294.781 442.021 294.781 432.253C294.781 427.813 299.216 423.373 300.99 423.373ZM327.597 401.173C327.597 401.173 318.728 401.173 316.954 401.173C310.746 401.173 306.311 401.173 303.65 402.061C302.764 402.061 300.103 402.061 299.216 402.061C297.442 402.061 297.442 400.285 297.442 400.285C297.442 399.397 297.442 398.509 299.216 398.509C300.103 398.509 309.859 397.621 315.18 397.621C316.954 397.621 326.71 397.621 327.597 398.509C328.484 398.509 328.484 399.397 328.484 400.285C329.371 400.285 328.484 401.173 327.597 401.173Z" fill="black"></path><path d="M281.47 450.012C279.697 450.012 277.923 449.124 277.036 446.46C277.036 445.572 274.375 437.58 274.375 422.484C274.375 412.716 277.036 395.844 277.923 391.404C278.81 388.74 280.583 388.74 282.357 388.74C284.131 388.74 286.792 390.516 286.792 393.18C286.792 394.068 286.792 394.956 286.792 395.844C284.131 405.612 283.244 414.492 283.244 424.26C283.244 431.364 284.131 436.692 285.018 441.132C285.018 441.132 285.905 444.684 285.905 445.572C285.905 448.236 284.131 450.012 281.47 450.012ZM316.06 446.46C308.965 446.46 292.113 446.46 292.113 433.14C292.113 427.812 296.548 420.708 300.096 420.708C301.869 420.708 304.53 422.484 304.53 424.26C304.53 425.148 304.53 426.036 303.643 426.924C302.756 428.7 300.983 430.476 300.983 432.252C300.983 434.028 300.982 436.692 316.06 436.692C319.608 436.692 323.155 436.692 325.816 435.804H326.703C328.477 435.804 330.251 435.804 330.251 435.804C332.912 435.804 334.685 437.58 334.685 440.244C334.685 442.02 333.798 443.796 332.025 444.684C330.251 445.572 322.269 446.46 316.06 446.46ZM299.209 403.836C296.548 403.836 294.774 402.06 294.774 399.396C294.774 396.732 296.548 395.844 298.322 394.956C300.096 394.956 308.965 394.068 314.286 394.068C325.816 394.068 327.59 394.956 327.59 394.956C328.477 394.956 330.251 395.844 330.251 398.508C330.251 401.172 328.477 402.948 325.816 402.948C325.816 402.948 324.929 402.948 324.042 402.948C321.382 402.948 316.06 402.948 315.173 402.948C309.852 402.948 306.304 402.948 302.756 403.836H300.983C301.869 403.836 300.096 403.836 299.209 403.836ZM327.59 399.396V401.172V399.396Z" fill="black"></path><path d="M383.463 417.157H366.612C361.29 417.157 359.517 415.381 359.517 410.053V393.181C359.517 392.293 359.517 391.405 361.29 391.405C363.064 391.405 363.064 392.293 363.064 393.181V410.053C363.064 412.717 364.838 413.605 366.612 413.605H383.463V387.853C383.463 386.965 383.463 386.077 385.237 386.077C387.011 386.077 387.011 386.965 387.011 387.853V413.605H403.862C406.523 413.605 407.41 412.717 407.41 410.053V393.181C407.41 392.293 407.41 391.405 409.184 391.405C410.958 391.405 410.958 392.293 410.958 393.181V410.053C410.958 415.381 409.184 417.157 403.862 417.157H387.011V446.461H406.523C409.184 446.461 410.071 445.573 410.071 442.909V427.813C410.071 426.925 410.071 426.037 411.845 426.037C413.619 426.037 413.619 426.925 413.619 427.813V442.909C413.619 448.237 411.845 450.013 406.523 450.013H362.177C356.856 450.013 355.082 448.237 355.082 442.909V427.813C355.082 426.925 355.082 426.037 356.856 426.037C358.63 426.037 358.63 426.925 358.63 427.813V442.909C358.63 445.573 360.404 446.461 362.177 446.461H381.69V417.157H383.463Z" fill="black"></path><path d="M408.301 452.675H363.955C357.747 452.675 354.199 450.011 354.199 442.907V427.811C354.199 424.259 355.973 423.371 358.634 423.371C361.295 423.371 363.068 425.147 363.068 427.811V442.907C363.068 443.795 363.068 444.683 364.842 444.683H382.581V419.82H367.503C361.295 419.82 358.634 417.156 358.634 410.052V393.18C358.634 389.628 360.408 388.74 363.068 388.74C365.729 388.74 367.503 390.516 367.503 393.18V410.052C367.503 410.94 367.503 411.828 369.277 411.828H381.694V388.74C381.694 385.188 383.467 384.3 386.128 384.3C388.789 384.3 390.563 386.076 390.563 388.74V411.828H404.753C406.527 411.828 406.527 411.828 406.527 410.052V393.18C406.527 389.628 408.301 388.74 410.962 388.74C413.623 388.74 415.397 390.516 415.397 393.18V410.052C415.397 416.268 412.736 419.82 405.64 419.82H390.563V444.683H408.301C409.188 444.683 410.075 444.683 410.075 442.907V427.811C410.075 424.259 411.849 423.371 414.51 423.371C417.17 423.371 418.944 425.147 418.944 427.811V442.907C417.17 450.011 414.51 452.675 408.301 452.675ZM385.241 448.235C386.128 448.235 386.128 448.235 385.241 448.235C386.128 448.235 386.128 448.235 385.241 448.235ZM385.241 415.38C385.241 416.268 385.241 416.268 385.241 415.38C386.128 416.268 386.128 415.38 386.128 415.38C386.128 415.38 386.128 415.38 385.241 415.38Z" fill="black"></path><path d="M444.674 415.379H437.579C436.692 415.379 435.805 415.379 435.805 413.603C435.805 411.827 437.579 411.827 437.579 411.827H444.674V393.179H437.579C436.692 393.179 435.805 393.179 435.805 391.403C435.805 389.627 437.579 389.627 437.579 389.627H456.204C457.091 389.627 457.978 389.627 457.978 391.403C457.978 393.179 456.204 393.179 456.204 393.179H448.222V411.827H454.43C455.317 411.827 456.204 411.827 456.204 413.603C456.204 415.379 454.43 415.379 454.43 415.379H448.222V435.803C450.882 434.915 453.543 434.027 454.43 434.027C456.204 433.139 457.091 433.139 457.091 433.139C457.978 433.139 458.865 434.027 458.865 434.915C458.865 436.691 458.865 436.691 453.543 438.467C446.448 440.243 437.579 442.019 437.579 442.019C436.692 442.019 435.805 441.131 435.805 440.243C435.805 438.467 436.692 438.467 437.579 438.467C439.352 437.579 442.9 437.579 445.561 436.691V415.379H444.674ZM466.847 427.811C462.412 427.811 461.525 426.035 461.525 421.595V394.067C461.525 389.627 463.299 388.74 466.847 388.74H492.567C497.002 388.74 498.776 390.515 498.776 394.067V421.595C498.776 426.035 497.002 427.811 492.567 427.811H486.359V444.683C486.359 447.347 488.133 447.347 489.907 447.347C495.228 447.347 496.115 447.347 496.115 446.459C496.115 445.571 496.115 444.683 497.002 439.355C497.002 437.579 497.002 436.691 498.776 436.691C499.663 436.691 500.55 437.579 500.55 438.467C500.55 440.243 499.663 447.347 498.776 449.123C497.889 450.899 497.002 450.899 488.133 450.899C484.585 450.899 481.924 450.011 481.924 444.683V427.811H473.942C473.055 434.915 470.394 442.907 459.751 448.235C456.204 450.011 452.656 450.899 451.769 450.899C450.882 450.899 449.995 450.011 449.995 448.235C449.995 447.347 450.882 446.459 451.769 446.459C461.525 443.795 468.621 439.355 470.394 426.923H466.847V427.811ZM465.073 400.283H494.341V394.956C494.341 393.18 493.454 392.291 491.681 392.291H467.734C465.96 392.291 465.073 393.18 465.073 394.956V400.283ZM494.341 403.835H465.073V411.827H494.341V403.835ZM465.073 415.379V421.595C465.073 423.371 465.96 424.259 467.734 424.259H491.681C493.454 424.259 494.341 423.371 494.341 421.595V415.379H465.073Z" fill="black"></path><path d="M451.762 453.562C449.101 453.562 447.327 451.786 447.327 449.122C447.327 448.234 447.327 446.458 450.875 445.57C459.744 442.906 465.953 439.354 467.727 430.474H466.84C461.518 430.474 458.857 427.81 458.857 422.482V415.378C458.857 417.154 457.083 418.042 454.423 418.042H449.988V433.138C451.762 433.138 452.649 432.25 453.536 432.25H454.423C456.197 431.362 456.197 431.362 457.083 431.362C458.857 431.362 460.631 433.138 460.631 435.802C460.631 439.354 458.857 439.354 453.536 441.13C447.327 442.906 437.571 445.57 436.684 445.57C434.911 445.57 433.137 443.794 433.137 441.13C433.137 438.466 435.797 437.578 435.797 437.578C437.571 436.69 440.232 436.69 442.006 435.802V418.042H437.571C434.024 418.042 433.137 416.266 433.137 413.602C433.137 411.826 434.024 410.05 437.571 410.05H442.006V395.842H437.571C434.024 395.842 433.137 394.066 433.137 392.29C433.137 390.514 434.024 388.738 437.571 388.738H456.197C457.97 388.738 458.857 389.626 459.744 390.514C460.631 388.738 463.292 386.962 466.84 386.962H492.56C497.882 386.962 500.542 389.626 500.542 394.954V422.482C500.542 427.81 497.882 430.474 492.56 430.474H488.126V444.682V445.57H489.012C490.786 445.57 492.56 445.57 493.447 445.57C493.447 444.682 493.447 443.794 493.447 442.018V440.242C493.447 438.466 493.447 434.914 497.882 434.914C500.542 434.914 502.316 436.69 502.316 439.354C502.316 440.242 502.316 448.234 499.656 450.898C497.882 453.562 496.108 453.562 487.239 453.562C483.691 453.562 479.256 452.674 479.256 445.57V430.474H475.709C473.935 437.578 471.274 445.57 460.631 450.898C457.97 452.674 453.536 453.562 451.762 453.562ZM446.44 436.69C446.44 436.69 446.44 437.578 446.44 436.69C446.44 437.578 447.327 437.578 446.44 436.69C447.327 437.578 447.327 437.578 446.44 436.69ZM483.691 426.922C484.578 426.922 484.578 426.922 483.691 426.922C484.578 426.922 484.578 426.922 483.691 426.922ZM472.161 426.922C472.161 426.922 473.048 426.922 472.161 426.922V426.922ZM466.84 422.482C466.84 422.482 467.726 422.482 466.84 422.482H490.786C490.786 422.482 491.673 422.482 491.673 421.594V417.154H466.84V422.482C466.84 422.482 466.84 421.594 466.84 422.482ZM445.554 413.602C446.44 413.602 446.44 414.49 445.554 413.602C446.44 413.602 446.44 413.602 446.44 413.602C446.44 413.602 446.44 413.602 445.554 413.602C446.44 413.602 446.44 413.602 445.554 413.602ZM450.875 410.05H455.31C457.97 410.05 458.857 411.826 459.744 412.714V394.954C458.857 394.954 457.97 395.842 457.083 395.842H451.762V410.05H450.875ZM466.84 410.05H491.673V406.498H466.84V410.05ZM495.221 402.058C495.221 402.058 496.108 402.058 495.221 402.058C496.108 402.058 495.221 402.058 495.221 402.058ZM466.84 398.506H491.673V394.954L490.786 394.066H466.84H465.953L466.84 398.506Z" fill="black"></path><path d="M4.74669 45.0833C9.18127 47.7473 10.0682 47.7473 14.5028 50.4113C15.3897 51.2993 16.2766 51.2993 17.1635 51.2993C18.0504 51.2993 18.9374 50.4113 19.8243 49.5233C20.7112 48.6353 20.7112 47.7473 20.7112 45.9713C20.7112 44.1953 18.9374 43.3073 17.1635 41.5313C7.40744 37.0913 6.52052 37.0913 5.63361 37.0913C3.85977 37.0913 2.08594 38.8673 2.08594 40.6433C2.08594 43.3073 2.97285 44.1953 4.74669 45.0833Z" fill="black"></path><path d="M43.7753 69.9443L55.3053 69.0563C55.3053 69.0563 55.3053 69.0563 55.3053 69.9443V70.8323H68.609C69.4959 69.9443 70.3829 69.0563 70.3829 67.2803L69.4959 59.2884C69.4959 53.0724 65.9483 52.1844 62.4006 52.1844V41.5284C61.5137 35.3124 58.8529 33.5364 53.5314 33.5364L30.4716 36.2004C28.6978 36.2004 26.037 36.2004 24.2632 37.9764C22.4893 39.7524 22.4893 42.4164 22.4893 44.1924L23.3763 54.8484C19.8286 55.7364 18.0547 58.4004 18.9417 62.8403C18.0547 61.9523 16.2809 61.0643 15.394 60.1763C7.41174 56.6244 5.63791 55.7364 4.75099 55.7364C1.20332 55.7364 0.316406 58.4004 0.316406 59.2884C0.316406 60.1764 0.316406 61.9523 2.97716 62.8403C5.63791 63.7283 8.29866 65.5043 10.9594 67.2803C13.6202 69.0563 14.5071 69.0563 15.394 69.0563C16.2809 69.0563 17.1678 68.1683 18.0547 67.2803C18.0547 66.3923 18.9417 66.3923 18.9417 65.5043V69.9443H43.7753ZM44.6623 51.2964L54.4183 50.4084V53.0724H44.6623V51.2964ZM42.0015 43.3044C37.5669 44.1924 35.7931 46.8564 36.68 51.2964V53.9604H32.2454L31.3585 44.1924H29.5847L32.2454 43.3044L53.5314 41.5284V42.4164L42.0015 43.3044ZM54.4183 61.9524L33.1323 63.7283C31.3585 63.7283 28.6978 64.6163 26.9239 66.3923C26.9239 66.3923 26.9239 67.2803 26.037 67.2803L26.9239 62.8403V61.9524L60.6268 59.2884C60.6268 59.2884 60.6268 59.2884 60.6268 60.1763V63.7283C60.6268 61.9523 57.966 61.0644 54.4183 61.9524Z" fill="black"></path><path d="M104.093 37.9762C104.093 37.9762 107.64 38.8642 111.188 38.8642C113.849 38.8642 117.396 39.7522 118.283 39.7522L120.944 40.6402C127.152 41.5282 128.926 42.4162 128.926 42.4162C130.7 42.4162 131.587 41.5282 132.474 40.6402C133.361 38.8642 133.361 37.9762 133.361 37.0882C133.361 34.4242 130.7 33.5362 128.926 32.6482C119.17 29.9842 106.753 29.0962 104.98 29.0962C103.206 29.0962 102.319 29.9842 101.432 30.8722C100.545 31.7602 100.545 32.6482 100.545 33.5362C100.545 36.2002 102.319 37.9762 104.093 37.9762Z" fill="black"></path><path d="M104.089 69.9452C109.41 66.3932 115.618 61.9532 124.488 61.0652C126.261 61.0652 130.696 61.0652 133.357 61.9532C136.904 63.7292 137.791 65.5052 138.678 69.0572H147.547V68.1692C147.547 63.7292 144.887 59.2892 142.226 56.6252C137.791 53.0732 132.47 51.2972 124.488 52.1852C116.505 53.0732 108.523 55.7372 101.428 61.0652C101.428 59.2892 102.315 57.5132 102.315 54.8492C102.315 53.9612 102.315 52.1852 103.202 49.5212C104.089 43.3052 104.089 43.3052 104.089 42.4172C104.089 40.6412 102.315 38.8652 99.6539 38.8652C96.1063 38.8652 96.1063 41.5292 95.2193 45.0812C94.3324 49.5212 92.5586 64.6172 92.5586 68.1692H104.089V69.9452Z" fill="black"></path><path d="M225.585 59.2882C225.585 61.0642 226.472 64.6162 230.02 64.6162C230.02 64.6162 230.02 64.6162 230.907 64.6162C231.794 64.6162 232.681 64.6162 234.454 62.8402C235.341 61.9522 235.341 61.0642 235.341 59.2882C235.341 57.5122 233.568 49.5202 228.246 40.6402C227.359 39.7522 220.264 29.0962 215.829 29.0962C213.168 29.0962 211.395 30.8722 212.281 33.5362C212.281 35.3122 213.168 36.2002 214.942 37.0882C220.264 43.3042 223.811 53.0722 225.585 59.2882Z" fill="black"></path><path d="M187.462 69.9465C190.122 62.8425 191.896 54.8505 192.783 46.8585C193.67 46.8585 195.444 45.9705 197.218 45.9705C206.087 45.0825 206.087 48.6345 206.974 57.5145C207.861 62.8425 206.974 67.2825 206.974 69.9465H215.843C215.843 66.3945 215.843 61.9545 215.843 57.5145C214.956 48.6345 214.069 37.0906 196.331 37.9786C195.444 37.9786 195.444 37.9786 194.557 37.9786C195.444 33.5386 195.444 27.3226 195.444 26.4346C195.444 25.5466 194.557 24.6586 194.557 23.7706C193.67 22.8826 192.783 22.8826 191.009 22.8826C187.462 22.8826 187.462 26.4346 186.575 28.2106C186.575 32.6506 186.575 36.2026 185.688 39.7546L172.384 42.4185C169.723 43.3065 167.062 43.3065 167.062 46.8585C167.062 49.5225 168.836 51.2985 171.497 51.2985C171.497 51.2985 171.497 51.2985 176.819 50.4105C179.479 49.5225 182.14 49.5225 184.801 48.6345C183.027 56.6265 181.253 63.7305 178.592 69.9465H187.462V69.9465Z" fill="black"></path><path d="M277.042 34.4267C277.929 34.4267 279.703 34.4267 280.589 33.5387H282.363C285.024 32.6507 289.459 32.6507 294.78 31.7627C295.667 31.7627 301.875 31.7627 304.536 31.7627H305.423C307.197 31.7627 308.084 30.8747 308.084 29.9867C308.971 29.0987 308.971 28.2107 308.971 26.4347C308.971 23.7707 307.197 22.8827 306.31 22.8827C305.423 22.8827 304.536 21.9947 293.006 22.8827C287.685 22.8827 277.929 24.6587 277.042 25.5467C274.381 26.4347 273.494 28.2107 273.494 29.9867C273.494 32.6507 275.268 34.4267 277.042 34.4267Z" fill="black"></path><path d="M265.503 69.9472C263.729 65.5073 262.842 60.1793 262.842 54.8513C261.955 45.0833 262.842 35.3153 263.729 25.5473C263.729 24.6593 263.729 23.7713 263.729 22.8833C263.729 20.2193 261.068 19.3313 259.294 19.3313C257.52 19.3313 255.746 20.2193 255.746 22.8833C254.86 28.2113 253.973 44.1953 253.973 53.9633C254.86 61.0673 255.746 65.5073 256.633 69.9472H265.503Z" fill="black"></path><path d="M315.179 69.9471C316.066 69.0591 316.066 68.1711 316.066 67.2831C316.066 64.6191 314.292 62.8431 311.631 63.7311C311.631 63.7311 308.97 63.7311 308.083 64.6191H307.197C304.536 65.5071 300.988 65.5071 297.44 66.3951C284.137 67.2831 282.363 65.5071 282.363 62.8431C282.363 61.0671 283.25 59.2911 285.024 57.5151C284.137 56.6271 285.024 54.8511 285.024 53.9631C285.024 53.0751 284.137 52.1871 284.137 51.2991C283.25 50.4111 282.363 50.4111 280.589 50.4111C277.928 50.4111 276.154 53.9631 275.268 54.8511C274.381 56.6271 272.607 59.2911 273.494 62.8431C273.494 66.3951 275.268 68.1711 277.041 69.9471H315.179V69.9471Z" fill="black"></path><path d="M396.766 69.9468C398.54 68.1708 398.54 65.5068 398.54 62.8428L397.653 47.7468C397.653 45.9708 396.766 45.0828 395.879 45.0828C394.992 44.1948 394.105 44.1948 392.331 44.1948C390.558 44.1948 389.671 45.0828 389.671 45.0828C388.784 45.9708 388.784 46.8588 388.784 48.6348L389.671 63.7308C389.671 64.6188 389.671 65.5068 387.897 65.5068L370.159 67.2828L368.385 42.4188L383.462 41.5308C387.01 41.5308 388.784 40.6428 390.558 38.8668C392.331 37.0908 392.331 33.5388 392.331 31.7628L390.558 14.8908C390.558 14.0028 390.558 13.1148 388.784 12.2268C387.897 11.3388 386.123 11.3388 385.236 11.3388C383.462 11.3388 380.802 13.1148 381.688 15.7788L383.462 32.6508C383.462 34.4268 383.462 34.4268 381.688 34.4268L367.498 35.3148L365.724 12.2268C365.724 9.56284 363.95 7.78684 361.289 8.67484C359.516 8.67484 358.629 9.56284 358.629 10.4508C357.742 11.3388 357.742 13.1148 357.742 14.0028L359.516 37.0908L345.325 36.2028C344.438 36.2028 343.551 36.2028 343.551 34.4268L342.664 18.4428C342.664 16.6668 341.777 15.7788 340.89 15.7788C340.003 14.8908 338.23 14.8908 337.343 14.8908C335.569 14.8908 333.795 16.6668 333.795 19.3308L335.569 36.2028C336.456 42.4188 339.116 45.0828 345.325 45.0828L360.402 44.1948L362.176 69.0588L344.438 70.8348C343.551 70.8348 343.551 70.8348 343.551 70.8348V69.9468L342.664 54.8508C342.664 52.1868 340.89 50.4108 338.23 51.2988C336.456 51.2988 335.569 52.1868 335.569 53.0748C334.682 53.9628 334.682 55.7388 334.682 56.6268L335.569 71.7228C335.569 72.6108 335.569 72.6108 335.569 73.4988H396.766V69.9468Z" fill="black"></path><path d="M442.89 67.2819C452.646 61.0659 455.307 53.0739 456.194 45.9699H459.741L460.628 61.0659C460.628 64.6179 461.515 66.3939 464.176 67.2819C465.95 68.1699 467.723 68.1699 470.384 68.1699C479.253 67.2819 481.027 67.2819 481.914 64.6179C483.688 61.0659 482.801 53.0739 482.801 53.0739C482.801 50.4099 480.14 48.6339 478.366 49.5219C474.819 49.5219 474.819 53.0739 474.819 54.8499V56.6259C474.819 58.4019 474.819 59.2899 474.819 60.1779C473.932 60.1779 472.158 60.1779 470.384 60.1779H469.497C469.497 60.1779 469.497 60.1779 469.497 59.2899L468.61 45.0819H472.158C473.932 45.0819 476.593 44.1939 478.366 42.4179C479.253 39.7539 479.253 37.9779 479.253 35.3139L476.593 7.78594C476.593 2.45795 473.932 -0.206051 467.723 0.681948L442.89 2.45795C439.342 2.45795 437.568 4.23394 435.794 6.00994C434.907 5.12194 434.021 4.23394 432.247 4.23394L413.621 6.00994C410.074 6.00994 409.187 8.67394 410.074 10.4499C410.074 12.2259 410.961 13.1139 410.961 13.1139C411.848 14.0019 413.621 14.0019 414.508 14.0019H418.943L419.83 28.2099H415.395C411.848 28.2099 410.961 30.8739 411.848 32.6499C411.848 34.4259 412.735 35.3139 413.621 35.3139C414.508 36.2019 416.282 36.2019 416.282 36.2019H420.717L422.491 53.0739C420.717 53.9619 418.056 53.9619 416.282 54.8499C415.395 54.8499 413.621 55.7379 413.621 59.2899C413.621 61.9539 416.282 63.7299 418.056 62.8419C418.943 62.8419 428.699 60.1779 434.907 57.5139C439.342 55.7379 442.003 54.8499 441.116 51.2979C441.116 50.4099 440.229 48.6339 439.342 48.6339C438.455 47.7459 437.568 47.7459 436.681 47.7459C435.794 47.7459 435.794 47.7459 433.134 48.6339C433.134 48.6339 431.36 49.5219 429.586 49.5219L428.699 34.4259H433.134C435.794 34.4259 436.681 32.6499 436.681 30.8739L437.568 37.9779C438.455 43.3059 440.229 45.9699 446.437 45.0819H447.324C445.55 53.9619 440.229 58.4019 431.36 61.9539C428.699 62.8419 428.699 64.6179 428.699 66.3939C428.699 68.1699 429.586 69.0579 430.473 69.9459H435.794C437.568 69.9459 440.229 68.1699 442.89 67.2819ZM435.794 28.2099C434.907 27.3219 434.021 27.3219 433.134 27.3219H432.247H427.812L426.925 13.1139L432.247 12.2259C433.134 12.2259 434.021 12.2259 434.907 11.3379L436.681 29.0979C436.681 29.0979 436.681 28.2099 435.794 28.2099ZM443.777 11.3379L467.723 8.67394V12.2259L443.777 14.8899V11.3379ZM469.497 23.7699L444.664 25.5459V21.9939L469.497 20.2179V23.7699ZM470.384 31.7619V36.2019L446.437 37.9779C446.437 37.9779 446.437 37.9779 446.437 37.0899V32.6499L470.384 31.7619Z" fill="black"></path></svg> 