<?xml version="1.0" encoding="UTF-8"?> <svg xmlns="http://www.w3.org/2000/svg" width="310" height="148" viewBox="0 0 310 148" fill="none"><path d="M166.15 46.5321C165.315 46.5321 164.758 45.697 164.758 45.1402C164.758 45.1402 164.758 44.5834 165.037 43.4699C165.315 42.6348 165.872 42.3564 166.707 42.3564C167.542 42.6348 167.821 43.1915 167.821 44.0266C167.542 44.5834 167.542 45.1402 167.542 45.1402C167.542 45.9753 166.985 46.5321 166.15 46.5321Z" fill="black"></path><path d="M170.326 37.9023C170.048 37.9023 169.769 37.9023 169.491 37.6239C168.934 37.0672 168.934 36.232 169.491 35.6752C170.048 34.8401 170.883 34.2833 171.718 33.7266C172.275 33.1698 173.11 33.4482 173.667 34.005C174.224 34.5617 173.945 35.3968 173.389 35.9536C172.832 36.5104 171.997 37.0672 171.44 37.6239C171.161 37.6239 170.883 37.9023 170.326 37.9023Z" fill="black"></path><path d="M229.902 49.3159C229.345 49.3159 228.788 49.0375 228.51 48.4807C228.231 47.6456 227.953 46.8105 227.396 45.9753C227.118 45.4186 227.396 44.5834 227.953 44.0266C228.51 43.7482 229.345 44.0267 229.902 44.5834C230.458 45.4186 230.737 46.2537 231.015 47.0888C231.293 47.924 231.015 48.4807 230.18 48.7591C230.18 49.3159 230.18 49.3159 229.902 49.3159ZM224.055 40.4077C223.777 40.4077 223.22 40.4077 223.22 40.1293C222.663 39.5725 221.828 39.0158 221.271 38.459C220.715 37.9022 220.436 37.0672 220.993 36.5104C221.55 35.9536 222.385 35.6752 222.942 36.232C223.777 36.7888 224.334 37.6239 225.169 38.1807C225.726 38.7375 225.726 39.5725 225.169 40.1293C224.612 40.1293 224.334 40.4077 224.055 40.4077ZM214.868 34.2833C214.59 34.2833 214.59 34.2833 214.312 34.2833C213.477 34.0049 212.641 33.7266 211.806 33.4482C210.971 33.1698 210.693 32.3346 210.971 31.7779C211.249 30.9427 212.085 30.6644 212.641 30.9428C213.476 31.2212 214.59 31.4995 215.425 32.0563C216.26 32.3347 216.539 33.1698 216.26 34.005C215.704 34.005 215.425 34.2833 214.868 34.2833ZM179.513 32.0563C178.956 32.0563 178.399 31.7779 178.121 31.2212C177.843 30.386 178.399 29.8293 178.956 29.5509C179.791 29.2725 180.626 28.9941 181.74 28.7157C182.575 28.4373 183.132 28.9941 183.41 29.8293C183.689 30.6644 183.132 31.2211 182.297 31.4995C181.462 31.7779 180.626 32.0563 179.791 32.3347C179.791 32.0563 179.791 32.0563 179.513 32.0563ZM204.29 31.2212C204.011 31.2212 204.011 31.2212 204.29 31.2212C203.733 31.2212 203.176 30.9428 202.898 30.9428L201.506 30.6644C200.671 30.6644 200.114 29.8292 200.392 28.9941C200.392 28.1589 201.227 27.6022 202.063 27.8806L203.454 28.159C204.011 28.159 204.29 28.159 204.846 28.4374C205.682 28.4374 206.238 29.2724 205.96 30.1076C205.403 30.6643 204.846 31.2212 204.29 31.2212ZM190.37 30.386C189.535 30.386 188.978 29.8292 188.978 28.9941C188.978 28.1589 189.535 27.6022 190.37 27.6022C190.927 27.6022 191.762 27.6022 192.319 27.6022H193.154C193.989 27.6022 194.546 28.1589 194.546 28.9941C194.546 29.8292 193.989 30.386 193.154 30.386H192.319C191.762 30.1076 191.205 30.1076 190.37 30.386Z" fill="black"></path><path d="M232.129 58.781C231.293 58.781 230.737 58.2242 230.737 57.3891C230.737 56.8323 230.737 56.554 230.737 55.9972C230.737 55.1621 231.293 54.6053 231.85 54.3269C232.685 54.3269 233.242 54.8836 233.52 55.4404C233.52 55.9972 233.52 56.2755 233.52 56.8323C233.52 58.2242 232.964 58.781 232.129 58.781Z" fill="black"></path><path d="M222.664 54.0485L230.737 70.7513L241.037 55.4404L222.664 54.0485Z" fill="black"></path><path d="M33.3587 32.6131V22.8697C33.3587 22.0346 33.9155 21.7561 34.4723 21.7561C35.029 21.7561 35.5858 22.0346 35.5858 22.8697V45.9754C35.5858 46.8105 35.029 47.0889 34.4723 47.0889C33.9155 47.0889 33.3587 46.8105 33.3587 45.9754V34.5617H19.9959V45.9754C19.9959 46.8105 19.4392 47.0889 18.8824 47.0889C18.3256 47.0889 17.7688 46.8105 17.7688 45.9754V22.8697C17.7688 22.0346 18.3256 21.7561 18.8824 21.7561C19.4392 21.7561 19.9959 22.0346 19.9959 22.8697V32.6131H33.3587Z" fill="black"></path><path d="M34.472 47.924C33.3585 47.924 32.5233 47.0888 32.5233 45.9753V35.6751H21.3877V45.9753C21.3877 47.3672 20.2741 47.924 19.439 47.924C18.3254 47.924 17.4902 47.0888 17.4902 45.9753V22.8697C17.4902 21.4778 18.6038 20.921 19.439 20.921C20.5525 20.921 21.3877 21.7562 21.3877 22.8697V31.4994H32.5233V22.8697C32.5233 21.4778 33.6369 20.921 34.472 20.921C35.5856 20.921 36.4208 21.7562 36.4208 22.8697V45.9753C36.4208 47.0888 35.3072 47.924 34.472 47.924Z" fill="black"></path><path d="M55.3517 21.7561C62.3114 21.7561 67.8792 27.0454 67.8792 34.2833C67.8792 41.5213 62.5898 46.8105 55.3517 46.8105C48.392 46.8105 42.8242 41.5213 42.8242 34.2833C42.8242 27.0454 48.392 21.7561 55.3517 21.7561ZM55.3517 44.8619C61.1979 44.8619 65.9305 40.1294 65.9305 34.2833C65.9305 28.4373 61.4763 23.7048 55.3517 23.7048C49.5056 23.7048 44.773 28.4373 44.773 34.2833C44.773 40.1294 49.5056 44.8619 55.3517 44.8619Z" fill="black"></path><path d="M55.3515 47.9239C47.5565 47.9239 41.9888 42.0779 41.9888 34.2832C41.9888 26.4886 47.8349 20.6426 55.3515 20.6426C62.868 20.6426 68.7142 26.4886 68.7142 34.2832C68.7142 42.0779 62.868 47.9239 55.3515 47.9239ZM55.3515 24.5399C50.0621 24.5399 45.8862 28.7156 45.8862 34.2832C45.8862 39.8508 50.0621 44.0266 55.3515 44.0266C60.6409 44.0266 64.8168 39.8508 64.8168 34.2832C64.8168 28.7156 60.6409 24.5399 55.3515 24.5399Z" fill="black"></path><path d="M94.6044 23.9832C95.1612 22.5913 95.4396 22.0345 96.8316 22.0345C98.5019 22.0345 98.5019 23.4265 98.7803 24.2616L101.843 45.697C101.843 46.2537 101.843 46.2538 101.843 46.2538C101.843 46.8105 101.564 47.0889 100.729 47.0889C99.8938 47.0889 99.8939 46.5321 99.6155 45.9754L96.5532 23.9832L89.3151 45.697C89.0367 46.2537 88.7583 47.0889 87.6447 47.0889C86.5311 47.0889 86.2528 46.5321 85.696 45.697L78.4578 23.9832L75.3956 45.9754C75.3956 46.5321 75.1172 47.0889 74.282 47.0889C73.7252 47.0889 73.1685 46.5321 73.1685 46.2538C73.1685 46.2538 73.1685 45.9753 73.1685 45.697L76.2307 24.2616C76.2307 23.4265 76.5091 22.0345 78.1795 22.0345C79.5714 22.0345 79.8498 22.5913 80.4066 23.9832L87.3663 45.1402L94.6044 23.9832Z" fill="black"></path><path d="M87.6446 48.2024L87.3662 47.6457C85.6959 47.6457 85.1391 46.5321 84.8607 45.4186L79.0145 27.8805L76.509 45.697C76.2306 47.0889 75.6739 47.6457 74.5603 47.6457C73.1683 47.6457 72.6116 46.8105 72.6116 45.697C72.6116 45.4186 72.6116 45.4186 72.6116 44.8619L75.6738 23.4264C75.6738 22.5912 76.2306 20.3641 78.7361 20.3641C80.6849 20.3641 81.2416 21.4777 81.7984 23.148L87.923 41.2428L94.0476 23.148C94.6044 21.4777 95.1611 20.3641 97.1099 20.3641C99.6154 20.3641 99.8938 22.5912 100.172 23.4264L103.234 44.8619C103.234 45.4186 103.234 45.4186 103.234 45.697C103.234 46.5321 102.399 47.6457 101.286 47.6457C100.172 47.6457 99.337 47.0889 99.337 45.697L96.8315 28.1589L90.9853 45.697C90.7069 46.2537 90.4285 47.9241 88.4798 47.9241L87.6446 48.2024ZM95.9963 23.4264H97.6667C97.3883 22.8696 97.3883 22.8696 96.8315 22.8696C96.5531 22.8696 96.2747 22.8696 95.9963 23.4264ZM78.7361 22.8696C78.4578 22.8696 78.1794 22.8696 77.901 23.4264H79.5713C79.2929 22.8696 79.0145 22.8696 78.7361 22.8696Z" fill="black"></path><path d="M121.051 32.8914C121.886 32.8914 121.886 33.4482 121.886 33.7266C121.886 34.2834 121.608 34.5617 121.051 34.5617H110.751V43.1915C110.751 44.3051 111.029 44.305 111.864 44.305H122.443C123.278 44.305 123.278 44.8619 123.278 45.1402C123.278 45.697 123 45.9753 122.443 45.9753H111.308C108.524 45.9753 108.524 44.0267 108.524 42.9131V25.0968C108.524 23.9832 108.524 22.0345 111.308 22.0345H121.886C122.722 22.0345 122.722 22.5914 122.722 22.8697C122.722 23.4265 122.443 23.7048 121.886 23.7048H111.586C110.751 23.7048 110.472 23.9832 110.472 24.8184V32.3347H121.051V32.8914Z" fill="black"></path><path d="M122.443 47.3672H111.308C109.637 47.3672 107.41 46.532 107.41 43.1915V25.3751C107.41 22.5912 108.802 21.1993 111.308 21.1993H121.887C123.279 21.1993 123.835 22.3128 123.835 23.148C123.835 24.2615 123 25.0967 121.887 25.0967H111.586C111.586 25.0967 111.586 25.0967 111.308 25.0967C111.308 25.0967 111.308 25.0967 111.308 25.3751V32.0562H120.773C121.887 32.0562 122.722 32.8914 122.722 34.0049C122.722 35.1184 121.887 35.9535 120.773 35.9535H111.308V43.4699C111.308 43.4699 111.308 43.4699 111.308 43.7483C111.308 43.7483 111.308 43.7483 111.586 43.7483H122.165C123.557 43.7483 124.114 44.5834 124.114 45.6969C124.392 46.532 123.557 47.3672 122.443 47.3672ZM110.194 23.7048C109.916 23.7048 109.916 23.9832 109.916 24.2616C109.916 23.9832 109.916 23.7048 110.194 23.7048Z" fill="black"></path><path d="M200.671 116.963V107.219C200.671 106.384 201.227 106.106 201.784 106.106C202.341 106.106 202.898 106.384 202.898 107.219V130.325C202.898 131.16 202.341 131.439 201.784 131.439C201.227 131.439 200.671 131.16 200.671 130.325V118.911H187.308V130.325C187.308 131.16 186.751 131.439 186.194 131.439C185.638 131.439 185.081 131.16 185.081 130.325V107.219C185.081 106.384 185.638 106.106 186.194 106.106C186.751 106.106 187.308 106.384 187.308 107.219V116.963H200.671Z" fill="black"></path><path d="M201.784 131.995C200.671 131.995 199.835 131.16 199.835 130.047V119.747H188.7V130.047C188.7 131.439 187.586 131.995 186.751 131.995C185.637 131.995 184.802 131.16 184.802 130.047V106.941C184.802 105.549 185.916 104.992 186.751 104.992C187.865 104.992 188.7 105.828 188.7 106.941V115.571H199.835V106.941C199.835 105.549 200.949 104.992 201.784 104.992C202.898 104.992 203.733 105.828 203.733 106.941V130.047C203.733 131.439 202.898 131.995 201.784 131.995Z" fill="black"></path><path d="M222.664 106.106C229.623 106.106 235.191 111.395 235.191 118.633C235.191 125.871 229.902 131.16 222.664 131.16C215.704 131.16 210.136 125.871 210.136 118.633C210.414 111.117 215.704 106.106 222.664 106.106ZM222.664 129.212C228.51 129.212 233.242 124.479 233.242 118.633C233.242 112.787 228.788 108.054 222.664 108.054C216.817 108.054 212.085 112.787 212.085 118.633C212.085 124.479 216.817 129.212 222.664 129.212Z" fill="black"></path><path d="M222.664 131.995C214.869 131.995 209.301 126.149 209.301 118.355C209.301 110.56 215.147 104.714 222.664 104.714C230.18 104.714 236.026 110.56 236.026 118.355C236.026 126.149 230.458 131.995 222.664 131.995ZM222.664 108.89C217.374 108.89 213.198 113.065 213.198 118.633C213.198 124.201 217.374 128.377 222.664 128.377C227.953 128.377 232.129 124.201 232.129 118.633C232.129 113.065 227.953 108.89 222.664 108.89Z" fill="black"></path><path d="M262.194 108.054C262.751 106.663 263.029 106.106 264.421 106.106C266.092 106.106 266.092 107.498 266.37 108.333L269.432 129.768C269.432 130.325 269.432 130.325 269.432 130.325C269.432 130.882 269.154 131.16 268.319 131.16C267.484 131.16 267.484 130.604 267.205 130.047L264.143 108.054L256.905 129.768C256.626 130.325 256.348 131.16 255.235 131.16C254.121 131.16 253.843 130.604 253.286 129.768L246.048 108.054L242.985 130.047C242.985 130.604 242.707 131.16 241.872 131.16C241.315 131.16 240.758 130.603 240.758 130.325C240.758 130.325 240.758 130.047 240.758 129.768L243.821 108.333C243.821 107.498 244.099 106.106 245.769 106.106C247.161 106.106 247.44 106.663 247.996 108.054L254.956 129.212L262.194 108.054Z" fill="black"></path><path d="M255.235 132.552L254.956 131.995C253.286 131.995 252.729 130.882 252.451 129.768L246.605 112.23L244.099 130.047C243.821 131.439 243.264 131.995 242.15 131.995C240.758 131.995 240.202 131.16 240.202 130.047C240.202 129.768 240.202 129.768 240.202 129.212L243.264 107.776C243.264 106.941 243.821 104.714 246.326 104.714C248.275 104.714 248.832 105.828 249.389 107.498L255.513 125.593L261.638 107.498C262.194 105.828 262.751 104.714 264.7 104.714C267.206 104.714 267.484 106.941 267.762 107.776L270.825 129.212C270.825 129.768 270.825 129.768 270.825 130.047C270.825 130.882 269.989 131.995 268.876 131.995C267.762 131.995 266.927 131.439 266.927 130.047L264.422 112.509L258.575 130.047C258.297 130.604 258.019 132.274 256.07 132.274L255.235 132.552ZM246.048 107.219C245.769 107.219 245.491 107.219 245.213 107.776H246.883C246.605 107.219 246.605 107.219 246.048 107.219ZM263.586 107.498H265.257C264.978 106.941 264.978 106.941 264.422 106.941C263.865 106.941 263.586 107.219 263.586 107.498Z" fill="black"></path><path d="M288.363 117.241C289.199 117.241 289.198 117.798 289.198 118.076C289.198 118.633 288.92 118.912 288.363 118.912H278.063V127.541C278.063 128.655 278.341 128.655 279.176 128.655H289.755C290.59 128.655 290.59 129.212 290.59 129.49C290.59 130.047 290.312 130.325 289.755 130.325H278.62C275.836 130.325 275.836 128.377 275.836 127.263V109.446C275.836 108.333 275.836 106.384 278.62 106.384H289.198C290.034 106.384 290.034 106.941 290.034 107.219C290.034 107.776 289.755 108.055 289.198 108.055H278.898C278.063 108.055 277.784 108.333 277.784 109.168V116.684H288.363V117.241Z" fill="black"></path><path d="M290.034 131.439H278.898C277.228 131.439 275 130.604 275 127.263V109.446C275 106.663 276.393 105.271 278.898 105.271H289.477C290.869 105.271 291.426 106.384 291.426 107.219C291.426 108.333 290.59 109.168 289.477 109.168H279.176C279.176 109.168 279.176 109.168 278.898 109.168C278.898 109.168 278.898 109.168 278.898 109.446V116.128H288.363C289.477 116.128 290.312 116.963 290.312 118.076C290.312 119.19 289.477 120.025 288.363 120.025H278.898V127.541C278.898 127.541 278.898 127.541 278.898 127.82C278.898 127.82 278.898 127.82 279.176 127.82H289.755C291.147 127.82 291.704 128.655 291.704 129.768C291.982 130.604 291.147 131.439 290.034 131.439ZM277.228 128.933C277.228 128.933 277.506 128.933 277.228 128.933C277.506 128.933 277.228 128.933 277.228 128.933ZM277.506 107.776C277.228 107.776 277.228 108.055 277.228 108.333C277.228 108.055 277.506 108.055 277.506 107.776Z" fill="black"></path><path d="M141.652 0.320801H33.915V5.0531H141.652V0.320801Z" fill="black"></path><path d="M309.243 147.585H163.088V88.8462H309.243V147.585ZM168.656 142.017H303.675V94.4138H168.656V142.017V142.017Z" fill="black"></path><path d="M141.931 2.82617H136.363V49.3159H141.931V2.82617Z" fill="black"></path><path d="M0.683411 64.8204L106.75 64.8204V60.088L0.683411 60.088V64.8204Z" fill="black"></path><path d="M6.07608 14.5182H0.508301V62.3999H6.07608V14.5182Z" fill="black"></path></svg> 