<?xml version="1.0" encoding="UTF-8"?> <svg xmlns="http://www.w3.org/2000/svg" width="286" height="113" viewBox="0 0 286 113" fill="none"><path d="M285.52 59.2607H144.933V112.432H285.52V59.2607Z" fill="black"></path><path d="M145.49 26.1332C145.49 26.1332 145.211 26.1332 145.49 26.1332C144.654 26.1332 144.098 25.2981 144.098 24.7413C144.098 24.7413 144.098 24.1846 144.376 23.071C144.654 22.2359 145.211 21.9575 146.046 21.9575C146.881 22.2359 147.16 22.7927 147.16 23.6278C146.881 24.1846 146.882 24.7413 146.882 24.7413C146.603 25.5764 146.046 26.1332 145.49 26.1332Z" fill="black"></path><path d="M149.387 17.5034C149.109 17.5034 148.83 17.5033 148.552 17.225C147.995 16.6682 147.995 15.8331 148.552 15.2763C149.109 14.4411 149.944 13.8844 150.779 13.3276C151.336 12.7709 152.171 13.0492 152.728 13.606C153.285 14.1628 153.006 14.9979 152.449 15.5547C151.893 16.1115 151.057 16.6682 150.501 17.225C150.222 17.5033 149.944 17.5034 149.387 17.5034Z" fill="black"></path><path d="M209.241 29.1954C208.684 29.1954 208.127 28.917 207.849 28.3603C207.571 27.5251 207.292 26.69 206.735 25.8549C206.457 25.2981 206.735 24.463 207.292 23.9062C207.849 23.6278 208.684 23.9062 209.241 24.4629C209.798 25.2981 210.076 26.1332 210.354 26.9684C210.633 27.8035 210.354 28.3603 209.519 28.6387C209.519 29.1954 209.241 29.1954 209.241 29.1954ZM203.116 20.0088C202.838 20.0088 202.281 20.0088 202.281 19.7305C201.724 19.1737 200.889 18.6169 200.332 18.0601C199.776 17.5034 199.497 16.6682 200.054 16.1115C200.611 15.5547 201.446 15.2763 202.003 15.8331C202.838 16.3898 203.395 17.225 204.23 17.7817C204.787 18.3385 204.787 19.1737 204.23 19.7305C203.673 20.0088 203.395 20.0088 203.116 20.0088ZM193.93 14.1628C193.651 14.1628 193.651 14.1628 193.373 14.1628C192.538 13.8844 191.702 13.606 190.867 13.3276C190.032 13.0493 189.754 12.2141 190.032 11.6573C190.31 10.8222 191.146 10.5438 191.702 10.8222C192.538 11.1006 193.651 11.379 194.486 11.9357C195.321 12.2141 195.6 13.0493 195.321 13.8844C195.043 13.8844 194.486 14.1628 193.93 14.1628ZM158.852 11.9357C158.296 11.9357 157.739 11.6573 157.461 11.1006C157.182 10.2654 157.739 9.70865 158.296 9.43027C159.131 9.15189 159.966 8.87354 161.08 8.59516C161.915 8.31678 162.472 8.87352 162.75 9.70867C163.028 10.5438 162.472 11.1006 161.636 11.379C160.801 11.6574 159.966 11.9357 159.131 12.2141C159.131 11.9357 158.852 11.9357 158.852 11.9357ZM183.351 11.1006C183.351 11.1006 183.072 11.1006 183.351 11.1006C182.794 11.1006 182.237 10.8222 181.959 10.8222L180.567 10.5438C179.732 10.5438 179.175 9.70866 179.453 8.87352C179.453 8.03837 180.288 7.48162 181.124 7.76L182.516 8.03836C183.072 8.03836 183.351 8.03838 183.907 8.31676C184.743 8.31676 185.299 9.15192 185.021 9.98707C184.464 10.5438 183.907 11.1006 183.351 11.1006ZM169.71 9.98707C168.874 9.98707 168.318 9.43031 168.318 8.59516C168.318 7.76001 168.874 7.20325 169.71 7.20325C170.266 7.20325 171.102 7.20325 171.658 7.20325H172.494C173.329 7.20325 173.885 7.76001 173.885 8.59516C173.885 9.43031 173.329 9.98707 172.494 9.98707H171.658C170.823 9.98707 170.266 9.98707 169.71 9.98707Z" fill="black"></path><path d="M211.189 38.6604C210.354 38.6604 209.797 38.1037 209.797 37.2685C209.797 36.7117 209.797 36.4334 209.797 35.8766C209.797 35.0414 210.354 34.4847 210.911 34.2063C211.746 34.2063 212.303 34.7631 212.581 35.3198C212.581 35.8766 212.581 36.155 212.581 36.7117C212.581 37.8253 212.024 38.6604 211.189 38.6604Z" fill="black"></path><path d="M201.724 33.9279L209.798 50.3525L220.098 35.3198L201.724 33.9279Z" fill="black"></path><path d="M21.0496 12.4925V2.74913C21.0496 1.91399 21.6064 1.63562 22.1632 1.63562C22.72 1.63562 23.2767 1.91399 23.2767 2.74913V25.8548C23.2767 26.69 22.72 26.9684 22.1632 26.9684C21.6064 26.9684 21.0496 26.69 21.0496 25.8548V14.4412H7.6869V25.8548C7.6869 26.69 7.13005 26.9684 6.57326 26.9684C6.01648 26.9684 5.45972 26.69 5.45972 25.8548V2.74913C5.45972 1.91399 6.01648 1.63562 6.57326 1.63562C7.13005 1.63562 7.6869 1.91399 7.6869 2.74913V12.4925H21.0496Z" fill="black"></path><path d="M22.163 27.5251C21.0494 27.5251 20.2143 26.69 20.2143 25.5764V15.2763H9.07869V25.5764C9.07869 26.9684 7.96509 27.5251 7.12992 27.5251C6.01636 27.5251 5.18115 26.69 5.18115 25.5764V2.47073C5.18115 1.07882 6.29475 0.522064 7.12992 0.522064C8.24348 0.522064 9.07869 1.3572 9.07869 2.47073V11.1006H20.2143V2.47073C20.2143 1.07882 21.3278 0.522064 22.163 0.522064C23.2766 0.522064 24.1118 1.3572 24.1118 2.47073V25.5764C24.1118 26.9684 23.2766 27.5251 22.163 27.5251Z" fill="black"></path><path d="M43.0424 1.63562C50.0021 1.63562 55.5699 6.92488 55.5699 14.1628C55.5699 21.4007 50.2805 26.69 43.0424 26.69C36.0827 26.69 30.5149 21.4007 30.5149 14.1628C30.7933 6.6465 36.0827 1.63562 43.0424 1.63562ZM43.0424 24.7413C48.8886 24.7413 53.6212 20.0088 53.6212 14.1628C53.6212 8.31679 49.1669 3.58429 43.0424 3.58429C37.1962 3.58429 32.4636 8.31679 32.4636 14.1628C32.4636 20.0088 37.1962 24.7413 43.0424 24.7413Z" fill="black"></path><path d="M43.0424 27.5251C35.2475 27.5251 29.6797 21.6791 29.6797 13.8844C29.6797 6.08972 35.5258 0.243713 43.0424 0.243713C50.5589 0.243713 56.4051 6.08972 56.4051 13.8844C56.6835 21.6791 50.8373 27.5251 43.0424 27.5251ZM43.0424 4.41944C37.753 4.41944 33.5771 8.59517 33.5771 14.1628C33.5771 19.7305 37.753 23.9062 43.0424 23.9062C48.3318 23.9062 52.5076 19.7305 52.5076 14.1628C52.5076 8.59517 48.3318 4.41944 43.0424 4.41944Z" fill="black"></path><path d="M82.5737 3.58429C83.1305 2.19238 83.4089 1.63562 84.8008 1.63562C86.4712 1.63562 86.4712 3.0275 86.7496 3.86264L89.8119 25.2981C89.8119 25.8549 89.8119 25.8548 89.8119 25.8548C89.8119 26.4116 89.5334 26.69 88.6983 26.69C87.8631 26.69 87.8631 26.1332 87.5847 25.5764L84.5224 3.58429L77.2844 25.2981C77.006 25.8549 76.7276 26.69 75.614 26.69C74.222 26.69 74.222 26.1332 73.6652 25.2981L66.4271 3.58429L63.3649 25.5764C63.3649 26.1332 63.0864 26.69 62.2512 26.69C61.6945 26.69 61.1377 26.1332 61.1377 25.8548C61.1377 25.8548 61.1377 25.5765 61.1377 25.2981L64.2 3.86264C64.2 3.0275 64.4784 1.63562 66.1488 1.63562C67.5407 1.63562 67.8191 2.19238 68.3758 3.58429L75.3356 24.7413L82.5737 3.58429Z" fill="black"></path><path d="M75.6141 28.0819L75.3357 27.5251C73.6654 27.5251 73.1086 26.4116 72.8302 25.2981L66.984 7.76002L64.4785 25.5764C64.2001 26.9684 63.6433 27.5251 62.5297 27.5251C61.1378 27.5251 60.5811 26.69 60.5811 25.5764C60.5811 25.2981 60.5811 25.2981 60.5811 24.7413L63.6433 3.30589C63.6433 2.47074 64.2001 0.243713 66.7056 0.243713C68.6543 0.243713 69.2111 1.35724 69.7679 3.02753L75.8925 21.1224L82.0171 3.02753C82.5738 1.35724 83.1306 0.243713 85.0794 0.243713C87.5849 0.243713 87.8633 2.47074 88.1417 3.30589L91.204 24.7413C91.204 25.2981 91.204 25.2981 91.204 25.5764C91.204 26.4116 90.3688 27.5251 89.2552 27.5251C88.1417 27.5251 87.3064 26.9684 87.3064 25.5764L84.801 8.03837L78.9547 25.5764C78.6764 26.1332 78.398 27.8035 76.4492 27.8035L75.6141 28.0819ZM83.9658 3.02753H85.6362C85.3578 2.47077 85.3577 2.47074 84.801 2.47074C84.2442 2.74912 83.9658 2.74915 83.9658 3.02753ZM66.4272 2.74913C66.1488 2.74913 65.8704 2.74913 65.592 3.30589H67.2624C66.984 2.74913 66.984 2.74913 66.4272 2.74913Z" fill="black"></path><path d="M108.743 12.7709C109.578 12.7709 109.578 13.3276 109.578 13.606C109.578 14.1628 109.299 14.4412 108.743 14.4412H98.4422V23.071C98.4422 24.1846 98.7206 24.1845 99.5558 24.1845H110.135C110.97 24.1845 110.97 24.7413 110.97 25.0197C110.97 25.5765 110.691 25.8549 110.135 25.8549H98.999C96.2151 25.8549 96.2151 23.9062 96.2151 22.7926V4.97619C96.2151 3.86266 96.2151 1.91397 98.999 1.91397H109.856C110.691 1.91397 110.691 2.47074 110.691 2.74913C110.691 3.30589 110.413 3.58428 109.856 3.58428H99.5558C98.7206 3.58428 98.4422 3.86265 98.4422 4.69779V12.2141H108.743V12.7709Z" fill="black"></path><path d="M110.413 26.9684H99.2773C97.607 26.9684 95.3799 26.1332 95.3799 22.7926V4.97618C95.3799 2.19236 96.7718 0.800446 99.2773 0.800446H110.134C111.526 0.800446 112.083 1.91397 112.083 2.74911C112.083 3.86264 111.248 4.69778 110.134 4.69778H99.834C99.834 4.69778 99.8341 4.69778 99.5557 4.69778C99.5557 4.69778 99.5557 4.6978 99.5557 4.97618V11.6573H109.021C110.135 11.6573 110.97 12.4925 110.97 13.606C110.97 14.7195 110.135 15.5547 109.021 15.5547H99.5557V23.071C99.5557 23.071 99.5557 23.071 99.5557 23.3494C99.5557 23.3494 99.5557 23.3494 99.834 23.3494H110.413C111.805 23.3494 112.362 24.1846 112.362 25.2981C112.362 26.4116 111.526 26.9684 110.413 26.9684ZM97.8854 3.30587C97.8854 3.30587 97.607 3.58424 97.607 3.86262C97.607 3.58424 97.8854 3.58425 97.8854 3.30587Z" fill="black"></path><path d="M180.01 85.4286V75.6853C180.01 74.8501 180.567 74.5718 181.124 74.5718C181.68 74.5718 182.237 74.8501 182.237 75.6853V98.791C182.237 99.6261 181.68 99.9045 181.124 99.9045C180.567 99.9045 180.01 99.6261 180.01 98.791V87.3773H166.647V98.791C166.647 99.6261 166.09 99.9045 165.534 99.9045C164.977 99.9045 164.42 99.6261 164.42 98.791V75.6853C164.42 74.8501 164.977 74.5718 165.534 74.5718C166.09 74.5718 166.647 74.8501 166.647 75.6853V85.4286H180.01Z" fill="white"></path><path d="M180.845 101.018C179.453 101.018 178.339 99.9045 178.339 98.5126V88.4909H167.761V98.5126C167.761 100.183 166.647 101.018 165.255 101.018C163.863 101.018 162.75 99.9045 162.75 98.5126V75.4069C162.75 73.7366 163.863 72.9014 165.255 72.9014C166.647 72.9014 167.761 74.015 167.761 75.4069V83.7584H178.339V75.4069C178.339 73.7366 179.453 72.9014 180.845 72.9014C182.237 72.9014 183.351 74.015 183.351 75.4069V98.5126C183.351 100.183 182.237 101.018 180.845 101.018Z" fill="white"></path><path d="M202.003 74.5718C208.962 74.5718 214.53 79.861 214.53 87.099C214.53 94.3369 209.241 99.6262 202.003 99.6262C195.043 99.6262 189.475 94.3369 189.475 87.099C189.475 79.861 195.043 74.5718 202.003 74.5718ZM202.003 97.9558C207.849 97.9558 212.582 93.2233 212.582 87.3773C212.582 81.5313 208.127 76.7988 202.003 76.7988C196.156 76.7988 191.424 81.5313 191.424 87.3773C191.424 93.2233 195.878 97.9558 202.003 97.9558Z" fill="white"></path><path d="M202.003 101.018C194.208 101.018 188.083 95.172 188.083 87.099C188.083 79.0259 193.929 73.1798 202.003 73.1798C210.076 73.1798 215.922 79.0259 215.922 87.099C215.922 95.172 209.798 101.018 202.003 101.018ZM202.003 77.9123C196.992 77.9123 192.816 82.0881 192.816 87.099C192.816 92.3882 196.713 96.2856 202.003 96.2856C207.014 96.2856 211.19 92.1098 211.19 87.099C210.911 82.0881 207.014 77.9123 202.003 77.9123Z" fill="white"></path><path d="M241.255 76.7988C241.812 75.1285 242.091 74.8501 243.483 74.8501C245.153 74.8501 245.431 76.242 245.431 77.0772L248.494 98.5126C248.494 99.0693 248.494 99.0694 248.494 99.0694C248.494 99.6261 248.215 99.9045 247.38 99.9045C246.545 99.9045 246.545 99.3477 246.266 98.791L243.204 76.7988L235.966 98.5126C235.688 99.0693 235.409 99.9045 234.296 99.9045C232.904 99.9045 232.904 99.3477 232.347 98.5126L225.109 76.7988L222.047 98.791C222.047 99.3477 221.768 99.9045 220.933 99.9045C220.376 99.9045 219.819 99.3477 219.819 99.0694C219.819 99.0694 219.819 98.791 219.819 98.5126L222.882 77.0772C222.882 76.242 223.16 74.8501 224.83 74.8501C226.222 74.8501 226.501 75.4069 227.058 76.7988L234.017 97.9558L241.255 76.7988Z" fill="white"></path><path d="M247.38 101.018C246.545 101.018 245.153 100.74 245.153 98.791L242.926 82.6448L237.636 98.791C237.358 99.3478 236.801 101.296 234.574 101.296C232.347 101.296 231.79 99.6262 231.512 98.791L226.222 82.6448L223.995 98.791C223.717 100.74 222.325 101.018 221.768 101.018C220.376 101.018 219.263 99.9046 219.263 98.791C219.263 98.5126 219.263 98.5126 219.263 97.9559L222.325 76.5204C222.603 74.2934 223.717 73.1798 225.666 73.1798C228.171 73.1798 228.728 74.8501 229.006 76.242L234.574 93.2234L240.142 76.242C240.699 74.8501 241.256 73.1798 243.483 73.1798C245.431 73.1798 246.545 74.2934 246.823 76.5204L249.886 97.9559C249.886 98.5126 249.886 98.5126 249.886 98.791C249.886 99.9046 248.772 101.018 247.38 101.018Z" fill="white"></path><path d="M267.703 85.707C268.538 85.707 268.538 86.2638 268.538 86.5422C268.538 87.099 268.259 87.3773 267.703 87.3773H257.402V96.0072C257.402 97.1207 257.681 97.1207 258.516 97.1207H269.095C269.93 97.1207 269.93 97.6775 269.93 97.9559C269.93 98.5126 269.651 98.791 269.095 98.791H257.959C255.175 98.791 255.175 96.8423 255.175 95.7288V77.9123C255.175 76.7988 255.175 74.8501 257.959 74.8501H268.816C269.651 74.8501 269.651 75.4069 269.651 75.6853C269.651 76.242 269.373 76.5204 268.816 76.5204H258.516C257.681 76.5204 257.402 76.7988 257.402 77.6339V85.1503H267.703V85.707Z" fill="white"></path><path d="M269.095 100.461H257.959C256.01 100.461 253.783 99.6261 253.783 96.0072V78.1907C253.783 74.5718 256.01 73.7366 257.959 73.7366H268.816C270.208 73.7366 271.043 74.8501 271.043 75.9637C271.043 77.3556 269.93 78.1907 268.816 78.1907H258.794V84.3151H267.703C269.095 84.3151 269.93 85.4287 269.93 86.5422C269.93 87.9341 269.095 88.7692 267.703 88.7692H258.794V95.7288H269.373C270.765 95.7288 271.6 96.8423 271.6 97.9558C271.322 99.6261 270.487 100.461 269.095 100.461Z" fill="white"></path><path d="M116.537 36.155H0.170166V40.8875H116.537V36.155Z" fill="black"></path></svg> 