<?xml version="1.0" encoding="UTF-8"?> <svg xmlns="http://www.w3.org/2000/svg" width="269" height="128" viewBox="0 0 269 128" fill="none"><path d="M141.433 30.6978C140.598 30.6978 140.042 29.8626 140.042 29.3059C140.042 29.3059 140.042 28.7491 140.32 27.6356C140.598 26.8005 141.155 26.5221 141.99 26.5221C142.825 26.8004 143.104 27.3572 143.104 28.1924C142.825 28.7491 142.825 29.3059 142.825 29.3059C142.825 30.141 142.269 30.6978 141.433 30.6978Z" fill="black"></path><path d="M145.609 22.0679C145.331 22.0679 145.053 22.0679 144.774 21.7895C144.217 21.2328 144.217 20.3976 144.774 19.8409C145.331 19.0057 146.166 18.449 147.001 17.8922C147.558 17.3354 148.393 17.6138 148.95 18.1706C149.507 18.7273 149.229 19.5625 148.672 20.1192C148.115 20.676 147.28 21.2328 146.723 21.7895C146.166 21.7895 145.888 22.0679 145.609 22.0679Z" fill="black"></path><path d="M205.185 33.4816C204.628 33.4816 204.071 33.2032 203.793 32.6464C203.515 31.8113 203.236 30.9762 202.679 30.141C202.401 29.5843 202.679 28.7491 203.236 28.1924C203.793 27.914 204.628 28.1923 205.185 28.7491C205.742 29.5843 206.02 30.4194 206.298 31.2545C206.577 32.0897 206.298 32.6465 205.463 32.9248C205.463 33.4816 205.185 33.4816 205.185 33.4816ZM199.06 24.5734C198.782 24.5734 198.225 24.5734 198.225 24.295C197.668 23.7382 196.833 23.1815 196.276 22.6247C195.72 22.068 195.441 21.2328 195.998 20.6761C196.555 20.1193 197.39 19.8409 197.947 20.3977C198.782 20.9544 199.339 21.7896 200.174 22.3463C200.731 22.9031 200.731 23.7382 200.174 24.295C199.895 24.295 199.339 24.5734 199.06 24.5734ZM189.873 18.449C189.595 18.449 189.595 18.449 189.317 18.449C188.482 18.1706 187.646 17.8922 186.811 17.6138C185.976 17.3354 185.698 16.5003 185.976 15.9435C186.254 15.1084 187.09 14.83 187.646 15.1084C188.481 15.3868 189.595 15.6652 190.43 16.2219C191.265 16.5003 191.544 17.3354 191.265 18.1706C190.987 18.1706 190.43 18.449 189.873 18.449ZM154.796 16.2219C154.24 16.2219 153.683 15.9435 153.404 15.3868C153.126 14.5516 153.683 13.9949 154.24 13.7165C155.075 13.4381 155.91 13.1597 157.023 12.8813C157.859 12.603 158.415 13.1597 158.694 13.9949C158.972 14.83 158.415 15.3868 157.58 15.6652C156.745 15.9435 155.91 16.2219 155.075 16.5003C155.075 16.2219 154.796 16.2219 154.796 16.2219ZM179.295 15.3868C178.738 15.3868 178.181 15.1084 177.903 15.1084L176.511 14.83C175.676 14.83 175.119 13.9948 175.397 13.1597C175.397 12.3246 176.232 11.7678 177.068 12.0462L178.459 12.3246C179.016 12.3246 179.295 12.3246 179.851 12.6029C180.687 12.6029 181.243 13.4381 180.965 14.2733C180.687 15.1084 180.13 15.3868 179.295 15.3868ZM165.654 14.5516C164.818 14.5516 164.262 13.9948 164.262 13.1597C164.262 12.3246 164.818 11.7678 165.654 11.7678C166.21 11.7678 167.045 11.7678 167.602 11.7678H168.437C169.273 11.7678 169.829 12.3246 169.829 13.1597C169.829 13.9948 169.273 14.5516 168.437 14.5516H167.602C166.767 14.5516 166.21 14.5516 165.654 14.5516Z" fill="black"></path><path d="M207.134 42.9467C206.298 42.9467 205.742 42.3899 205.742 41.5547C205.742 40.998 205.742 40.7196 205.742 40.1628C205.742 39.3277 206.298 38.7709 206.855 38.4925C207.69 38.4925 208.247 39.0492 208.526 39.606C208.526 40.1628 208.526 40.4412 208.526 40.9979C208.526 42.3899 207.969 42.9467 207.134 42.9467Z" fill="black"></path><path d="M197.947 38.4925L206.02 54.917L216.042 39.606L197.947 38.4925Z" fill="black"></path><path d="M17.271 38.4925V28.7491C17.271 27.914 17.8278 27.6356 18.3846 27.6356C18.9413 27.6356 19.4981 27.914 19.4981 28.7491V51.8548C19.4981 52.69 18.9413 52.9684 18.3846 52.9684C17.8278 52.9684 17.271 52.69 17.271 51.8548V40.4412H3.90827V51.8548C3.90827 52.69 3.35149 52.9684 2.79471 52.9684C2.23793 52.9684 1.68115 52.69 1.68115 51.8548V28.7491C1.68115 27.914 2.23793 27.6356 2.79471 27.6356C3.35149 27.6356 3.90827 27.914 3.90827 28.7491V38.4925H17.271Z" fill="black"></path><path d="M18.1063 53.5251C16.9927 53.5251 16.1576 52.69 16.1576 51.5764V41.2763H5.02197V51.5764C5.02197 52.9684 3.90841 53.5251 3.07324 53.5251C1.95968 53.5251 1.12451 52.69 1.12451 51.5764V28.4707C1.12451 27.0788 2.23807 26.5221 3.07324 26.5221C4.1868 26.5221 5.02197 27.3572 5.02197 28.4707V37.1006H16.1576V28.4707C16.1576 27.0788 17.2711 26.5221 18.1063 26.5221C19.2199 26.5221 20.055 27.3572 20.055 28.4707V51.5764C20.3334 52.9684 19.2199 53.5251 18.1063 53.5251Z" fill="black"></path><path d="M39.2639 27.6356C46.2236 27.6356 51.7914 32.9249 51.7914 40.1628C51.7914 47.4007 46.502 52.69 39.2639 52.69C32.3041 52.69 26.7363 47.4007 26.7363 40.1628C26.7363 32.6465 32.0257 27.6356 39.2639 27.6356ZM39.2639 50.7413C45.1101 50.7413 49.8427 46.0088 49.8427 40.1628C49.8427 34.3168 45.3885 29.5843 39.2639 29.5843C33.4177 29.5843 28.6851 34.3168 28.6851 40.1628C28.6851 46.0088 33.1393 50.7413 39.2639 50.7413Z" fill="black"></path><path d="M39.2638 53.5251C31.4689 53.5251 25.9011 47.6791 25.9011 39.8844C25.9011 32.0897 31.7473 26.2437 39.2638 26.2437C47.0588 26.2437 52.6266 32.0897 52.6266 39.8844C52.6266 47.6791 46.7804 53.5251 39.2638 53.5251ZM39.2638 30.4194C33.9744 30.4194 29.7986 34.5952 29.7986 40.1628C29.7986 45.7305 33.9744 49.9062 39.2638 49.9062C44.5533 49.9062 48.7291 45.7305 48.7291 40.1628C48.7291 34.5952 44.2749 30.4194 39.2638 30.4194Z" fill="black"></path><path d="M78.5166 29.5843C79.0734 28.1924 79.3518 27.6356 80.7437 27.6356C82.4141 27.6356 82.4141 29.0275 82.6925 29.8626L85.7547 51.2981C85.7547 51.8549 85.7547 51.8548 85.7547 51.8548C85.7547 52.4116 85.4764 52.69 84.6412 52.69C83.806 52.69 83.806 52.1332 83.5276 51.5764L80.4653 29.5843L73.2272 51.2981C72.9488 51.8549 72.6704 52.69 71.5569 52.69C70.4433 52.69 70.1649 52.1332 69.6081 51.2981L62.37 29.5843L59.3077 51.5764C59.3077 52.1332 59.0293 52.69 58.1941 52.69C57.6374 52.69 57.0806 52.1332 57.0806 51.8548C57.0806 51.8548 57.0806 51.5765 57.0806 51.2981L60.1429 29.8626C60.1429 29.0275 60.4213 27.6356 62.0916 27.6356C63.4835 27.6356 63.7619 28.1924 64.3187 29.5843L71.2785 50.7413L78.5166 29.5843Z" fill="black"></path><path d="M71.557 54.0819L71.2786 53.5251C69.6083 53.5251 69.0515 52.4116 68.7731 51.2981L62.9269 33.76L60.4214 51.5764C60.143 52.9684 59.5862 53.5251 58.4727 53.5251C57.0807 53.5251 56.5239 52.69 56.5239 51.5764C56.5239 51.2981 56.5239 51.2981 56.5239 50.7413L59.5862 29.3059C59.5862 28.4707 60.143 26.2437 62.6485 26.2437C64.5972 26.2437 65.154 27.3572 65.7108 29.0275L71.8354 47.1224L77.96 29.0275C78.5167 27.3572 79.0735 26.2437 81.0222 26.2437C83.5278 26.2437 83.8061 28.4707 84.0845 29.3059L87.1468 50.7413C87.1468 51.2981 87.1468 51.2981 87.1468 51.5764C87.1468 52.4116 86.3117 53.5251 85.1981 53.5251C84.0845 53.5251 83.2494 52.9684 83.2494 51.5764L80.7439 34.0384L74.8977 51.5764C74.6193 52.1332 74.3409 53.8035 72.3922 53.8035L71.557 54.0819ZM79.9087 29.0275H81.579C81.3006 28.4708 81.3006 28.4707 80.7439 28.4707C80.1871 28.7491 80.1871 28.7492 79.9087 29.0275ZM62.3701 28.7491C62.0917 28.7491 61.8133 28.7491 61.5349 29.3059H63.2053C62.9269 28.7491 62.9269 28.7491 62.3701 28.7491Z" fill="black"></path><path d="M104.685 38.7709C105.52 38.7709 105.52 39.3276 105.52 39.606C105.52 40.1628 105.242 40.4412 104.685 40.4412H94.3848V49.071C94.3848 50.1846 94.6632 50.1845 95.4983 50.1845H106.356C107.191 50.1845 107.191 50.7413 107.191 51.0197C107.191 51.5765 106.912 51.8549 106.356 51.8549H95.2199C92.436 51.8549 92.436 49.9062 92.436 48.7926V30.9762C92.436 29.8627 92.436 27.914 95.2199 27.914H105.799C106.634 27.914 106.634 28.4707 106.634 28.7491C106.634 29.3059 106.356 29.5843 105.799 29.5843H95.4983C94.6632 29.5843 94.3848 29.8626 94.3848 30.6978V38.2141H104.685V38.7709Z" fill="black"></path><path d="M106.356 52.9684H95.2202C93.5499 52.9684 91.3228 52.1332 91.3228 48.7926V30.9762C91.3228 28.1924 92.7147 26.8004 95.2202 26.8004H105.799C107.191 26.8004 107.748 27.914 107.748 28.7491C107.748 29.8626 106.913 30.6978 105.799 30.6978H95.4986C95.4986 30.6978 95.4986 30.6978 95.2202 30.6978C95.2202 30.6978 95.2202 30.6978 95.2202 30.9762V37.6573H104.685C105.799 37.6573 106.634 38.4925 106.634 39.606C106.634 40.7195 105.799 41.5547 104.685 41.5547H95.2202V49.071C95.2202 49.071 95.2202 49.071 95.2202 49.3494C95.2202 49.3494 95.2202 49.3494 95.4986 49.3494H106.356C107.748 49.3494 108.305 50.1846 108.305 51.2981C108.305 52.4116 107.469 52.9684 106.356 52.9684ZM93.8283 29.3059C93.8283 29.3059 93.5499 29.5842 93.5499 29.8626C93.5499 29.5842 93.8283 29.5843 93.8283 29.3059Z" fill="black"></path><path d="M175.954 111.429V101.685C175.954 100.85 176.511 100.572 177.067 100.572C177.624 100.572 178.181 100.85 178.181 101.685V124.791C178.181 125.626 177.624 125.904 177.067 125.904C176.511 125.904 175.954 125.626 175.954 124.791V113.377H162.591V124.791C162.591 125.626 162.034 125.904 161.478 125.904C160.921 125.904 160.364 125.626 160.364 124.791V101.685C160.364 100.85 160.921 100.572 161.478 100.572C162.034 100.572 162.591 100.85 162.591 101.685V111.429H175.954Z" fill="black"></path><path d="M177.067 126.74C175.954 126.74 175.118 125.904 175.118 124.791V114.491H163.983V124.791C163.983 126.183 162.869 126.74 162.034 126.74C160.921 126.74 160.085 125.904 160.085 124.791V101.685C160.085 100.293 161.199 99.7366 162.034 99.7366C163.148 99.7366 163.983 100.572 163.983 101.685V110.315H175.118V101.685C175.118 100.293 176.232 99.7366 177.067 99.7366C178.181 99.7366 179.016 100.572 179.016 101.685V124.791C179.016 125.904 177.902 126.74 177.067 126.74Z" fill="black"></path><path d="M197.947 100.572C204.906 100.572 210.474 105.861 210.474 113.099C210.474 120.337 205.185 125.626 197.947 125.626C190.987 125.626 185.419 120.337 185.419 113.099C185.419 105.861 190.987 100.572 197.947 100.572ZM197.947 123.956C203.793 123.956 208.525 119.223 208.525 113.377C208.525 107.531 204.071 102.799 197.947 102.799C192.1 102.799 187.368 107.531 187.368 113.377C187.368 119.223 192.1 123.956 197.947 123.956Z" fill="black"></path><path d="M197.946 126.74C190.152 126.74 184.584 120.894 184.584 113.099C184.584 105.304 190.43 99.4582 197.946 99.4582C205.463 99.4582 211.309 105.304 211.309 113.099C211.309 120.894 205.463 126.74 197.946 126.74ZM197.946 103.634C192.657 103.634 188.481 107.81 188.481 113.377C188.481 118.945 192.657 123.121 197.946 123.121C203.236 123.121 207.412 118.945 207.412 113.377C207.412 107.81 203.236 103.634 197.946 103.634Z" fill="black"></path><path d="M237.199 102.799C237.756 101.129 238.035 100.85 239.427 100.85C241.097 100.85 241.097 102.242 241.375 103.077L244.438 124.513C244.438 125.069 244.438 125.069 244.438 125.069C244.438 125.626 244.159 125.904 243.324 125.904C242.489 125.904 242.489 125.348 242.21 124.791L239.148 102.799L231.91 124.513C231.632 125.069 231.353 125.904 230.24 125.904C228.848 125.904 228.848 125.348 228.291 124.513L221.053 102.799L217.991 124.791C217.991 125.348 217.712 125.904 216.877 125.904C216.32 125.904 215.763 125.348 215.763 125.069C215.763 125.069 215.763 124.791 215.763 124.513L218.826 103.077C218.826 102.242 219.104 100.85 220.774 100.85C222.166 100.85 222.445 101.407 223.002 102.799L229.961 123.956L237.199 102.799Z" fill="black"></path><path d="M230.24 127.018L229.961 126.461C228.291 126.461 227.734 125.348 227.456 124.234L221.61 106.696L219.104 124.513C218.826 125.905 218.269 126.461 217.156 126.461C215.764 126.461 215.207 125.626 215.207 124.513C215.207 124.234 215.207 124.234 215.207 123.677L218.269 102.242C218.269 101.407 218.826 99.1798 221.331 99.1798C223.28 99.1798 223.837 100.293 224.394 101.964L230.518 120.059L236.643 101.964C237.2 100.293 237.756 99.1798 239.705 99.1798C242.211 99.1798 242.489 101.407 242.767 102.242L245.83 123.677C245.83 124.234 245.83 124.234 245.83 124.513C245.83 125.348 244.995 126.461 243.881 126.461C242.767 126.461 241.932 125.905 241.932 124.513L239.427 106.975L233.581 124.513C233.302 125.069 233.024 126.74 231.075 126.74L230.24 127.018ZM238.592 102.242H240.262C239.983 101.685 239.983 101.685 239.427 101.685C239.148 101.685 238.87 101.685 238.592 102.242ZM221.331 101.685C221.053 101.685 220.775 101.685 220.496 102.242H222.167C221.888 101.685 221.61 101.685 221.331 101.685Z" fill="black"></path><path d="M263.646 111.707C264.482 111.707 264.482 112.264 264.482 112.542C264.482 113.099 264.203 113.377 263.646 113.377H253.346V122.007C253.346 123.121 253.624 123.121 254.46 123.121H265.038C265.874 123.121 265.874 123.677 265.874 123.956C265.874 124.513 265.595 124.791 265.038 124.791H253.903C251.119 124.791 251.119 122.842 251.119 121.729V103.912C251.119 102.799 251.119 100.85 253.903 100.85H264.76C265.595 100.85 265.595 101.407 265.595 101.685C265.595 102.242 265.317 102.52 264.76 102.52H254.46C253.624 102.52 253.346 102.799 253.346 103.634V111.15H263.646V111.707Z" fill="black"></path><path d="M265.039 126.183H253.903C252.233 126.183 250.006 125.348 250.006 122.007V104.191C250.006 101.407 251.398 100.015 253.903 100.015H264.76C266.152 100.015 266.709 101.129 266.709 101.964C266.709 103.077 265.874 103.912 264.76 103.912H254.46C254.46 103.912 254.46 103.912 254.181 103.912C254.181 103.912 254.181 103.912 254.181 104.191V110.872H263.647C264.76 110.872 265.595 111.707 265.595 112.821C265.595 113.934 264.76 114.769 263.647 114.769H254.181V122.286C254.181 122.286 254.181 122.286 254.181 122.564C254.181 122.564 254.181 122.564 254.46 122.564H265.039C266.431 122.564 266.987 123.399 266.987 124.513C266.987 125.348 266.152 126.183 265.039 126.183ZM252.511 123.399C252.511 123.677 252.511 123.677 252.511 123.399C252.511 123.677 252.511 123.677 252.511 123.399ZM252.79 102.52C252.511 102.52 252.511 102.799 252.511 103.077C252.511 102.799 252.511 102.52 252.79 102.52Z" fill="black"></path><path d="M268.379 80.2498H152.012V84.9823H268.379V80.2498Z" fill="black"></path><path d="M16.1577 0.910919H0.567871V5.6434H16.1577V0.910919Z" fill="black"></path></svg> 