<?xml version="1.0" encoding="UTF-8"?>
<svg id="_レイヤー_1" data-name="レイヤー_1" xmlns="http://www.w3.org/2000/svg" xmlns:xlink="http://www.w3.org/1999/xlink" version="1.1" viewBox="0 0 1417.3 1417.3">
  <!-- Generator: Adobe Illustrator 30.0.0, SVG Export Plug-In . SVG Version: 2.1.1 Build 123)  -->
  <defs>
    <style>
      .st0 {
        filter: url(#drop-shadow-1);
      }

      .st1 {
        fill: #fff;
      }

      .st2 {
        fill: #6fc08e;
      }
    </style>
    <filter id="drop-shadow-1" x="106.3" y="137.3" width="1247.3" height="1185.2" filterUnits="userSpaceOnUse">
      <feOffset dx="42.5" dy="42.5"/>
      <feGaussianBlur result="blur" stdDeviation="0"/>
      <feFlood flood-color="#3c3d3d" flood-opacity="1"/>
      <feComposite in2="blur" operator="in"/>
      <feComposite in="SourceGraphic"/>
    </filter>
  </defs>
  <circle class="st2" cx="708.7" cy="708.7" r="615.7"/>
  <g class="st0">
    <path class="st1" d="M1120.7,1061.7h-285.7c-20.2,0-37-15.7-38.3-35.9l-12-190.6c-1.4-22.1,16.1-40.7,38.3-40.7h361.1c26.1,0,44.6,25.6,36.4,50.4l-63.3,190.6c-5.2,15.7-19.9,26.2-36.4,26.2Z"/>
    <path class="st1" d="M1311,365.3c0-58.2-47.3-105.5-105.5-105.5s-105.5,47.3-105.5,105.5,31.9,88.2,75.5,101.1v109.9h-280.1c86.1-144.2,149-280.6,149-358.4,0-50.5-27-80.7-72.1-80.7h0c-171.4,0-328.7,180.2-467.5,339.1-86.4,98.9-175.7,201.2-227.4,201.2s-9.7-2.4-11-4.1c-5.2-6.5-20.1-36.9,6.7-154.2,37.2-162.5,90.1-244.1,108.7-249.7,10.1-1.8,15.3.9,18.7,3.5,5.6,4.3,19.2,19.3,23.3,66,7.5,83.4-50.7,153.5-51.3,154.2-10.7,12.6-9.2,31.5,3.4,42.2,12.6,10.7,31.5,9.2,42.3-3.4,3.1-3.6,75.1-89.5,65.3-198.4-4.6-51.8-20.4-88.2-46.7-108.3-18.5-14.1-41.2-19.2-65.7-14.8-68.5,12.4-127.1,166.9-156.5,295.4-24.1,105.5-22.6,170.6,4.9,205,9.7,12.2,27.6,26.7,57.9,26.7,79,0,164.4-97.8,272.6-221.7,124-141.9,278.2-318.6,422.3-318.6h0c7.3,0,12.1,0,12.1,20.7,0,92.8-129.4,336-307.7,578.5-186.3,253.3-366.8,423.6-449.1,423.6s-41.2-7.8-51.5-23.2c-12.1-18.2-12.9-45.4-2.2-71,23-55,74.9-98.1,118-98.1s13.8,5.1,15.3,9.6c4.9,14.6-3.1,47.8-45,79.2-13.3,9.9-15.9,28.8-6,42,9.9,13.3,28.7,15.9,42,6,55.7-41.8,81.6-99.2,65.9-146.2-10.4-31.2-38.1-50.6-72.3-50.6-76.7,0-145.3,67.9-173.4,135-18.7,44.6-15.8,92.2,7.6,127.4,21.4,32.2,57.5,49.9,101.4,49.9s200-43.7,497.4-448c45.7-62.1,91.5-129,133.5-195.7h347c16.6,0,30-13.4,30-30v-139.9c43.6-13,75.5-53.4,75.5-101.1ZM1205.5,410.8c-25.1,0-45.5-20.4-45.5-45.5s20.4-45.5,45.5-45.5,45.5,20.4,45.5,45.5-20.4,45.5-45.5,45.5Z"/>
  </g>
</svg>