<?xml version="1.0" encoding="utf-8"?>
<!-- Generator: Adobe Illustrator 29.5.0, SVG Export Plug-In . SVG Version: 9.03 Build 0)  -->
<svg version="1.1" baseProfile="basic" id="レイヤー_1"
	 xmlns="http://www.w3.org/2000/svg" xmlns:xlink="http://www.w3.org/1999/xlink" x="0px" y="0px" viewBox="0 0 24 24"
	 xml:space="preserve">
<style type="text/css">
	.st0{fill:#17499D;}
	.st1{fill:#E71F19;}
</style>
<g>
	<g>
		<path class="st0" d="M9.6,3.1c0,0.9-0.7,1.6-1.6,1.6c-0.9,0-1.6-0.7-1.6-1.6s0.7-1.6,1.6-1.6C8.9,1.5,9.6,2.2,9.6,3.1z"/>
		<polygon class="st0" points="14.1,10.7 11.5,12.5 12.5,6 		"/>
		<polygon class="st0" points="4.6,12.5 2,10.7 3.6,6 		"/>
		<polygon class="st0" points="8,14.9 8,14.9 8,14.9 		"/>
		<polygon class="st0" points="4,4.9 5.5,14.9 6.6,22.4 8,15 10.9,12.9 12.1,4.9 		"/>
		<polygon class="st0" points="10.8,13.7 9.6,22.4 8.3,15.4 		"/>
	</g>
	<g>
		<path class="st1" d="M18.3,4.6c0.9,0,1.6-0.7,1.6-1.6s-0.7-1.6-1.6-1.6c-0.9,0-1.6,0.7-1.6,1.6S17.5,4.6,18.3,4.6z"/>
		<polygon class="st1" points="19.7,22.5 20.5,16.4 18.7,17.7 		"/>
		<polygon class="st1" points="20.8,4.9 15.9,4.9 17.2,10.6 13,21.1 16.4,18.6 17,22.5 17.9,17.6 22,14.7 19.5,10.6 		"/>
		<polygon class="st1" points="15.6,5.9 14.7,8.5 16.5,10 		"/>
		<polygon class="st1" points="22,8.5 21.1,5.9 20.2,10 		"/>
	</g>
</g>
</svg>
